<svg width="600" height="420" viewBox="0 0 600 420" fill="none" xmlns="http://www.w3.org/2000/svg">
<path d="M325 405.602L474.2 256.402" stroke="#1A64F3" stroke-width="4" stroke-linecap="round"/>
<path d="M325 300L399.6 225.4" stroke="#788399" stroke-width="2" stroke-linecap="round"/>
<path d="M400 119.4L400 329.4" stroke="#788399" stroke-width="2" stroke-linecap="round"/>
<path d="M473.6 152.4L399 227" stroke="#788399" stroke-width="2" stroke-linecap="round"/>
<path d="M143.5 297.9V192.4" stroke="#DE3434" stroke-width="4" stroke-linecap="round"/>
<path d="M143.4 298L218 223.4" stroke="#1A64F3" stroke-width="4" stroke-linecap="round"/>
<path d="M218 117.5L218 223" stroke="#DE3434" stroke-width="4" stroke-linecap="round"/>
<path d="M218.1 117.4L143.5 192" stroke="#1A64F3" stroke-width="4" stroke-linecap="round"/>
<path d="M219.1 89.4002C219.1 88.848 218.652 88.4002 218.1 88.4002L209.1 88.4002C208.547 88.4002 208.1 88.848 208.1 89.4002C208.1 89.9525 208.547 90.4002 209.1 90.4002L217.1 90.4002L217.1 98.4002C217.1 98.9525 217.547 99.4002 218.1 99.4002C218.652 99.4002 219.1 98.9525 219.1 98.4002L219.1 89.4002ZM142.793 163.293C142.402 163.683 142.402 164.317 142.793 164.707C143.183 165.098 143.817 165.098 144.207 164.707L142.793 163.293ZM217.393 88.6931L142.793 163.293L144.207 164.707L218.807 90.1073L217.393 88.6931Z" fill="#B9DBFA"/>
<path d="M474 15C474 14.4477 473.552 14 473 14L464 14C463.448 14 463 14.4477 463 15C463 15.5523 463.448 16 464 16L472 16L472 24C472 24.5523 472.448 25 473 25C473.552 25 474 24.5523 474 24L474 15ZM325.293 161.293C324.902 161.683 324.902 162.317 325.293 162.707C325.683 163.098 326.317 163.098 326.707 162.707L325.293 161.293ZM472.293 14.2929L325.293 161.293L326.707 162.707L473.707 15.7071L472.293 14.2929Z" fill="#B9DBFA"/>
<path d="M122.707 193.693C122.317 193.303 121.683 193.303 121.293 193.693L114.929 200.057C114.538 200.448 114.538 201.081 114.929 201.471C115.319 201.862 115.953 201.862 116.343 201.471L122 195.814L127.657 201.471C128.047 201.862 128.681 201.862 129.071 201.471C129.462 201.081 129.462 200.448 129.071 200.057L122.707 193.693ZM121 299.9C121 300.453 121.448 300.9 122 300.9C122.552 300.9 123 300.453 123 299.9L121 299.9ZM121 194.4L121 299.9L123 299.9L123 194.4L121 194.4Z" fill="#B9DBFA"/>
<path d="M303.707 193.693C303.317 193.303 302.683 193.303 302.293 193.693L295.929 200.057C295.538 200.448 295.538 201.081 295.929 201.471C296.319 201.862 296.953 201.862 297.343 201.471L303 195.814L308.657 201.471C309.047 201.862 309.681 201.862 310.071 201.471C310.462 201.081 310.462 200.448 310.071 200.057L303.707 193.693ZM302 405.4C302 405.953 302.448 406.4 303 406.4C303.552 406.4 304 405.953 304 405.4L302 405.4ZM302 194.4L302 405.4L304 405.4L304 194.4L302 194.4Z" fill="#B9DBFA"/>
<path d="M325.2 405.403V194.401" stroke="#DE3434" stroke-width="4" stroke-linecap="round"/>
<path d="M474.2 44.5998L474.2 255.601" stroke="#DE3434" stroke-width="4" stroke-linecap="round"/>
<path d="M474.4 44.4003L325.2 193.601" stroke="#1A64F3" stroke-width="4" stroke-linecap="round"/>
<path d="M173.672 118.768V120.4H163.352V118.768H167.696V107.488H164.432V106.216C165.248 106.088 165.96 105.936 166.568 105.76C167.176 105.568 167.72 105.344 168.2 105.088H169.664V118.768H173.672Z" fill="#B9DBFA"/>
<path d="M387.752 73.2243C389.048 72.0723 390.192 71.0323 391.184 70.1043C392.192 69.1763 393.032 68.3283 393.704 67.5603C394.392 66.7763 394.912 66.0483 395.264 65.3763C395.616 64.7043 395.792 64.0483 395.792 63.4083C395.792 62.5283 395.52 61.8083 394.976 61.2483C394.432 60.6883 393.592 60.4083 392.456 60.4083C391.736 60.4083 391.064 60.5923 390.44 60.9603C389.832 61.3123 389.28 61.7443 388.784 62.2563L387.656 61.1283C388.344 60.4243 389.08 59.8643 389.864 59.4483C390.664 59.0163 391.608 58.8003 392.696 58.8003C393.464 58.8003 394.152 58.9123 394.76 59.1363C395.384 59.3443 395.912 59.6483 396.344 60.0483C396.776 60.4323 397.104 60.9043 397.328 61.4643C397.568 62.0243 397.688 62.6403 397.688 63.3123C397.688 64.0323 397.512 64.7603 397.16 65.4963C396.824 66.2163 396.344 66.9683 395.72 67.7523C395.096 68.5203 394.352 69.3283 393.488 70.1763C392.624 71.0083 391.672 71.8963 390.632 72.8403C391.096 72.8083 391.568 72.7763 392.048 72.7443C392.544 72.7123 393.024 72.6963 393.488 72.6963H398.528V74.4003H387.752V73.2243Z" fill="#B9DBFA"/>
<path d="M106.672 251.768V253.4H96.352V251.768H100.696V240.488H97.432V239.216C98.248 239.088 98.96 238.936 99.568 238.76C100.176 238.568 100.72 238.344 101.2 238.088H102.664V251.768H106.672Z" fill="#B9DBFA"/>
<path d="M276.752 309.224C278.048 308.072 279.192 307.032 280.184 306.104C281.192 305.176 282.032 304.328 282.704 303.56C283.392 302.776 283.912 302.048 284.264 301.376C284.616 300.704 284.792 300.048 284.792 299.408C284.792 298.528 284.52 297.808 283.976 297.248C283.432 296.688 282.592 296.408 281.456 296.408C280.736 296.408 280.064 296.592 279.44 296.96C278.832 297.312 278.28 297.744 277.784 298.256L276.656 297.128C277.344 296.424 278.08 295.864 278.864 295.448C279.664 295.016 280.608 294.8 281.696 294.8C282.464 294.8 283.152 294.912 283.76 295.136C284.384 295.344 284.912 295.648 285.344 296.048C285.776 296.432 286.104 296.904 286.328 297.464C286.568 298.024 286.688 298.64 286.688 299.312C286.688 300.032 286.512 300.76 286.16 301.496C285.824 302.216 285.344 302.968 284.72 303.752C284.096 304.52 283.352 305.328 282.488 306.176C281.624 307.008 280.672 307.896 279.632 308.84C280.096 308.808 280.568 308.776 281.048 308.744C281.544 308.712 282.024 308.696 282.488 308.696H287.528V310.4H276.752V309.224Z" fill="#B9DBFA"/>
</svg>
