<svg width="600" height="420" viewBox="0 0 600 420" fill="none" xmlns="http://www.w3.org/2000/svg">
<path d="M297 405.202L446.2 256.001" stroke="#1A64F3" stroke-width="4" stroke-linecap="round"/>
<path d="M297 299.6L371.6 225" stroke="#788399" stroke-width="2" stroke-linecap="round"/>
<path d="M372 119L372 329" stroke="#788399" stroke-width="2" stroke-linecap="round"/>
<path d="M445.6 152L371 226.6" stroke="#788399" stroke-width="2" stroke-linecap="round"/>
<path d="M115.5 297.5V192" stroke="#DE3434" stroke-width="4" stroke-linecap="round"/>
<path d="M115.4 297.6L190 223" stroke="#1A64F3" stroke-width="4" stroke-linecap="round"/>
<path d="M190 117.1L190 222.6" stroke="#DE3434" stroke-width="4" stroke-linecap="round"/>
<path d="M190.1 117L115.5 191.6" stroke="#1A64F3" stroke-width="4" stroke-linecap="round"/>
<path d="M191.1 89C191.1 88.4477 190.652 88 190.1 88L181.1 88C180.547 88 180.1 88.4477 180.1 89C180.1 89.5523 180.547 90 181.1 90L189.1 90L189.1 98C189.1 98.5523 189.547 99 190.1 99C190.652 99 191.1 98.5523 191.1 98L191.1 89ZM114.793 162.893C114.402 163.283 114.402 163.916 114.793 164.307C115.183 164.697 115.817 164.697 116.207 164.307L114.793 162.893ZM189.393 88.2929L114.793 162.893L116.207 164.307L190.807 89.7071L189.393 88.2929Z" fill="#B9DBFA"/>
<path d="M446 14.5997C446 14.0475 445.552 13.5997 445 13.5997L436 13.5997C435.448 13.5997 435 14.0474 435 14.5997C435 15.152 435.448 15.5997 436 15.5997L444 15.5997L444 23.5997C444 24.152 444.448 24.5997 445 24.5997C445.552 24.5997 446 24.152 446 23.5997L446 14.5997ZM297.293 160.893C296.902 161.283 296.902 161.916 297.293 162.307C297.683 162.697 298.317 162.697 298.707 162.307L297.293 160.893ZM444.293 13.8926L297.293 160.893L298.707 162.307L445.707 15.3068L444.293 13.8926Z" fill="#B9DBFA"/>
<path d="M94.7071 193.293C94.3166 192.902 93.6834 192.902 93.2929 193.293L86.9289 199.657C86.5384 200.047 86.5384 200.681 86.9289 201.071C87.3194 201.462 87.9526 201.462 88.3431 201.071L94 195.414L99.6568 201.071C100.047 201.462 100.681 201.462 101.071 201.071C101.462 200.681 101.462 200.047 101.071 199.657L94.7071 193.293ZM93 299.5C93 300.052 93.4477 300.5 94 300.5C94.5523 300.5 95 300.052 95 299.5L93 299.5ZM93 194L93 299.5L95 299.5L95 194L93 194Z" fill="#B9DBFA"/>
<path d="M275.707 193.293C275.317 192.902 274.683 192.902 274.293 193.293L267.929 199.657C267.538 200.047 267.538 200.681 267.929 201.071C268.319 201.462 268.953 201.462 269.343 201.071L275 195.414L280.657 201.071C281.047 201.462 281.681 201.462 282.071 201.071C282.462 200.681 282.462 200.047 282.071 199.657L275.707 193.293ZM274 405C274 405.552 274.448 406 275 406C275.552 406 276 405.552 276 405L274 405ZM274 194L274 405L276 405L276 194L274 194Z" fill="#B9DBFA"/>
<path d="M297.2 405.002V194.001" stroke="#DE3434" stroke-width="4" stroke-linecap="round"/>
<path d="M446.2 44.1995L446.2 255.201" stroke="#DE3434" stroke-width="4" stroke-linecap="round"/>
<path d="M446.4 44L297.2 193.2" stroke="#1A64F3" stroke-width="4" stroke-linecap="round"/>
<path d="M145.672 118.368V120H135.352V118.368H139.696V107.088H136.432V105.816C137.248 105.688 137.96 105.536 138.568 105.36C139.176 105.168 139.72 104.944 140.2 104.688H141.664V118.368H145.672Z" fill="#B9DBFA"/>
<path d="M359.752 72.824C361.048 71.672 362.192 70.632 363.184 69.704C364.192 68.776 365.032 67.928 365.704 67.16C366.392 66.376 366.912 65.648 367.264 64.976C367.616 64.304 367.792 63.648 367.792 63.008C367.792 62.128 367.52 61.408 366.976 60.848C366.432 60.288 365.592 60.008 364.456 60.008C363.736 60.008 363.064 60.192 362.44 60.56C361.832 60.912 361.28 61.344 360.784 61.856L359.656 60.728C360.344 60.024 361.08 59.464 361.864 59.048C362.664 58.616 363.608 58.4 364.696 58.4C365.464 58.4 366.152 58.512 366.76 58.736C367.384 58.944 367.912 59.248 368.344 59.648C368.776 60.032 369.104 60.504 369.328 61.064C369.568 61.624 369.688 62.24 369.688 62.912C369.688 63.632 369.512 64.36 369.16 65.096C368.824 65.816 368.344 66.568 367.72 67.352C367.096 68.12 366.352 68.928 365.488 69.776C364.624 70.608 363.672 71.496 362.632 72.44C363.096 72.408 363.568 72.376 364.048 72.344C364.544 72.312 365.024 72.296 365.488 72.296H370.528V74H359.752V72.824Z" fill="#B9DBFA"/>
<path d="M78.672 251.368V253H68.352V251.368H72.696V240.088H69.432V238.816C70.248 238.688 70.96 238.536 71.568 238.36C72.176 238.168 72.72 237.944 73.2 237.688H74.664V251.368H78.672Z" fill="#B9DBFA"/>
<path d="M248.752 308.824C250.048 307.672 251.192 306.632 252.184 305.704C253.192 304.776 254.032 303.928 254.704 303.16C255.392 302.376 255.912 301.648 256.264 300.976C256.616 300.304 256.792 299.648 256.792 299.008C256.792 298.128 256.52 297.408 255.976 296.848C255.432 296.288 254.592 296.008 253.456 296.008C252.736 296.008 252.064 296.192 251.44 296.56C250.832 296.912 250.28 297.344 249.784 297.856L248.656 296.728C249.344 296.024 250.08 295.464 250.864 295.048C251.664 294.616 252.608 294.4 253.696 294.4C254.464 294.4 255.152 294.512 255.76 294.736C256.384 294.944 256.912 295.248 257.344 295.648C257.776 296.032 258.104 296.504 258.328 297.064C258.568 297.624 258.688 298.24 258.688 298.912C258.688 299.632 258.512 300.36 258.16 301.096C257.824 301.816 257.344 302.568 256.72 303.352C256.096 304.12 255.352 304.928 254.488 305.776C253.624 306.608 252.672 307.496 251.632 308.44C252.096 308.408 252.568 308.376 253.048 308.344C253.544 308.312 254.024 308.296 254.488 308.296H259.528V310H248.752V308.824Z" fill="#B9DBFA"/>
</svg>
