<svg width="2560" height="720" viewBox="0 0 2560 720" fill="none" xmlns="http://www.w3.org/2000/svg">
<g clip-path="url(#clip0_344_599)">
<rect width="2560" height="720" fill="white"/>
<path d="M1178.67 660C1233.87 660 1278.67 615.2 1278.67 560V460H1178.67C1123.47 460 1078.67 504.8 1078.67 560C1078.67 615.2 1123.47 660 1178.67 660Z" fill="#0ACF83"/>
<path d="M1078.67 360C1078.67 304.8 1123.47 260 1178.67 260H1278.67V460H1178.67C1123.47 460 1078.67 415.2 1078.67 360Z" fill="#A259FF"/>
<path d="M1078.67 160C1078.67 104.8 1123.47 60.0005 1178.67 60.0005H1278.67V260H1178.67C1123.47 260 1078.67 215.2 1078.67 160Z" fill="#F24E1E"/>
<path d="M1278.67 60H1378.67C1433.87 60 1478.67 104.8 1478.67 160C1478.67 215.2 1433.87 260 1378.67 260H1278.67V60Z" fill="#FF7262"/>
<path d="M1478.67 360C1478.67 415.2 1433.87 460 1378.67 460C1323.47 460 1278.67 415.2 1278.67 360C1278.67 304.8 1323.47 260 1378.67 260C1433.87 260 1478.67 304.8 1478.67 360Z" fill="#1ABCFE"/>
<path d="M1178.67 660C1233.87 660 1278.67 615.2 1278.67 560V460H1178.67C1123.47 460 1078.67 504.8 1078.67 560C1078.67 615.2 1123.47 660 1178.67 660Z" stroke="black" stroke-width="2.66667"/>
<path d="M1078.67 360C1078.67 304.8 1123.47 260 1178.67 260H1278.67V460H1178.67C1123.47 460 1078.67 415.2 1078.67 360Z" stroke="black" stroke-width="2.66667"/>
<path d="M978.667 560C978.667 670.4 1068.27 760 1178.67 760" stroke="black" stroke-width="2.66667"/>
<path d="M1178.67 760C1289.07 760 1378.67 670.4 1378.67 560C1489.07 560 1578.67 470.4 1578.67 360" stroke="black" stroke-width="2.66667"/>
<path d="M1178.67 826.667C1284.83 826.667 1376.56 764.53 1419.46 674.667H1632.67" stroke="black" stroke-width="2.66667"/>
<path d="M978.667 360C978.667 396.42 988.418 430.577 1005.45 460C988.418 489.423 978.667 523.58 978.667 560" stroke="black" stroke-width="2.66667"/>
<path d="M978.667 160C978.667 196.42 988.418 230.577 1005.45 260C988.418 289.423 978.667 323.58 978.667 360" stroke="black" stroke-width="2.66667"/>
<path d="M1578.67 360C1578.67 323.58 1568.96 289.423 1552 260C1568.96 230.577 1578.67 196.42 1578.67 160" stroke="black" stroke-width="2.66667"/>
<path d="M1078.67 160C1078.67 104.8 1123.47 60 1178.67 60H1278.67V260H1178.67C1123.47 260 1078.67 215.2 1078.67 160Z" stroke="#151515" stroke-width="2.66667"/>
<path d="M662.667 460H762.667V560M662.667 460C662.667 515.2 617.867 560 562.667 560C562.667 615.2 607.467 660 662.667 660M662.667 460L762.667 560M762.667 660H662.667M762.667 660V560M762.667 660L662.667 560V660" stroke="#151515" stroke-width="2.66667"/>
<path d="M620 426.667H796V738.667M562.667 393.333V361.333" stroke="#151515" stroke-width="2.66667"/>
<path d="M978.667 160C978.667 49.6 1068.27 -40 1178.67 -40" stroke="#151515" stroke-width="2.66667"/>
<path d="M1178.67 -73.3335C1077.87 -73.3335 991.937 -9.31481 959.333 80.2533" stroke="#151515" stroke-width="2.66667"/>
<path d="M912 -73.3333C912 55.4667 807.467 160 678.667 160" stroke="#151515" stroke-width="2.66667"/>
<path d="M812 26.6667C812 100.267 752.267 160 678.667 160" stroke="#151515" stroke-width="2.66667"/>
<path d="M912 160C912 12.8002 1031.47 -106.667 1178.67 -106.667" stroke="#151515" stroke-width="2.66667"/>
<path d="M1378.67 -40C1489.07 -40 1578.67 49.6 1578.67 160" stroke="#151515" stroke-width="2.66667"/>
<path d="M1278.67 60H1378.67C1433.87 60 1478.67 104.8 1478.67 160C1478.67 215.2 1433.87 260 1378.67 260H1278.67V60Z" stroke="black" stroke-width="2.66667"/>
<path d="M1478.67 360C1478.67 415.2 1433.87 460 1378.67 460C1323.47 460 1278.67 415.2 1278.67 360C1278.67 304.8 1323.47 260 1378.67 260C1433.87 260 1478.67 304.8 1478.67 360Z" stroke="black" stroke-width="2.66667"/>
<path d="M629.333 460C629.333 496.8 599.467 526.667 562.667 526.667C525.867 526.667 496 496.8 496 460C496 423.2 525.867 393.333 562.667 393.333C599.467 393.333 629.333 423.2 629.333 460Z" stroke="black" stroke-width="2.66667"/>
<path d="M874.667 -36L678.667 160C678.667 288.179 575.138 392.326 447.193 393.326C435.836 412.943 429.333 435.717 429.333 460" stroke="black" stroke-width="2.66667"/>
<circle cx="1278.67" cy="260" r="6.66667" fill="white" stroke="#151515" stroke-width="2.66667"/>
<circle cx="1278.67" cy="59.9998" r="6.66667" fill="white" stroke="#151515" stroke-width="2.66667"/>
<circle cx="1178.67" cy="59.9998" r="6.66667" fill="white" stroke="#151515" stroke-width="2.66667"/>
<circle cx="1178.67" cy="260" r="6.66667" fill="white" stroke="#151515" stroke-width="2.66667"/>
<circle cx="1178.67" cy="460" r="6.66667" fill="white" stroke="#151515" stroke-width="2.66667"/>
<circle cx="1178.67" cy="660" r="6.66667" fill="white" stroke="#151515" stroke-width="2.66667"/>
<circle cx="1078.67" cy="160" r="6.66667" fill="white" stroke="#151515" stroke-width="2.66667"/>
<circle cx="960" cy="79.9998" r="6.66667" fill="white" stroke="#151515" stroke-width="2.66667"/>
<circle cx="912" cy="160" r="6.66667" fill="white" stroke="#151515" stroke-width="2.66667"/>
<circle cx="1478.67" cy="160" r="6.66667" fill="white" stroke="#151515" stroke-width="2.66667"/>
<circle cx="1078.67" cy="360" r="6.66667" fill="white" stroke="#151515" stroke-width="2.66667"/>
<circle cx="1078.67" cy="560" r="6.66667" fill="white" stroke="#151515" stroke-width="2.66667"/>
<circle cx="1278.67" cy="560" r="6.66667" fill="white" stroke="#151515" stroke-width="2.66667"/>
<circle cx="1278.67" cy="360" r="6.66667" fill="white" stroke="#151515" stroke-width="2.66667"/>
<circle cx="1378.67" cy="59.9998" r="6.66667" fill="white" stroke="#151515" stroke-width="2.66667"/>
<circle cx="1278.67" cy="460" r="6.66667" fill="white" stroke="#151515" stroke-width="2.66667"/>
<line x1="1478.67" y1="416" x2="1478.67" y2="360" stroke="#006AE7" stroke-width="2.66667"/>
<line x1="1478.67" y1="360" x2="1478.67" y2="304" stroke="#006AE7" stroke-width="2.66667"/>
<rect x="1468.78" y="414.667" width="13.9804" height="13.9804" transform="rotate(-45 1468.78 414.667)" fill="#006AE7" stroke="#006AE7" stroke-width="2.66667"/>
<rect x="1472.78" y="304" width="8.32352" height="8.32352" transform="rotate(-45 1472.78 304)" fill="white" stroke="#006AE7" stroke-width="2.66667"/>
<line x1="1378.67" y1="460" x2="1434.67" y2="460" stroke="#006AE7" stroke-width="2.66667"/>
<rect x="1434.67" y="454.114" width="8.32352" height="8.32352" transform="rotate(45 1434.67 454.114)" fill="white" stroke="#006AE7" stroke-width="2.66667"/>
<line x1="1378.67" y1="260" x2="1434.67" y2="260" stroke="#006AE7" stroke-width="2.66667"/>
<rect x="1434.67" y="254.114" width="8.32352" height="8.32352" transform="rotate(45 1434.67 254.114)" fill="white" stroke="#006AE7" stroke-width="2.66667"/>
<circle cx="1478.67" cy="360" r="6.66667" fill="white" stroke="#151515" stroke-width="2.66667"/>
<circle cx="1378.67" cy="260" r="6.66667" fill="white" stroke="#151515" stroke-width="2.66667"/>
<circle cx="1378.67" cy="460" r="6.66667" fill="white" stroke="#151515" stroke-width="2.66667"/>
<path fill-rule="evenodd" clip-rule="evenodd" d="M1506.72 441.778L1478.69 416L1478.67 454.083L1487.17 445.944L1492.17 457.333L1499.96 453.914L1494.97 442.524L1506.72 441.778ZM1493.41 454.143L1496.77 452.669L1491.36 440.327L1500.9 439.721L1481.1 421.514L1481.09 448.412L1488 441.801L1493.41 454.143Z" fill="white"/>
<path d="M1496.77 452.669L1493.41 454.143L1488 441.801L1481.09 448.412L1481.1 421.514L1500.9 439.721L1491.36 440.327L1496.77 452.669Z" fill="white"/>
<path d="M1496.77 452.669L1493.41 454.143L1488 441.801L1481.09 448.412L1481.1 421.514L1500.9 439.721L1491.36 440.327L1496.77 452.669Z" fill="black"/>
<path d="M529.333 560C529.333 633.6 589.067 693.333 662.667 693.333H762.667V726" stroke="black" stroke-width="2.66667"/>
<path d="M662.667 726.667C575.961 726.667 504.65 660.346 496.731 575.698" stroke="black" stroke-width="2.66667"/>
<path d="M529.333 560C529.333 558.214 529.369 556.436 529.438 554.667" stroke="black" stroke-width="2.66667"/>
<path d="M462.667 460C462.667 515.2 507.467 560 562.667 560" stroke="black" stroke-width="2.66667"/>
<path d="M445.333 -40C555.733 -40 645.333 49.6 645.333 160C645.333 270.4 555.733 360 445.333 360H245.333V35.3333" stroke="black" stroke-width="2.66667"/>
<path d="M91.3333 360L1.33334 270" stroke="black" stroke-width="2.66667"/>
<path d="M157.333 360L90.4437 360M157.333 360L-41.3333 161.333M157.333 360L157.333 -53.3335" stroke="black" stroke-width="2.66667"/>
<path d="M445.333 -40C375.794 -40 314.507 -4.45069 278.667 49.4541L278.667 160" stroke="black" stroke-width="2.66667"/>
<path d="M612 160C612 68.0002 537.333 -6.66651 445.333 -6.6665" stroke="black" stroke-width="2.66667"/>
<path d="M612 160C612 68.0002 537.333 -6.66651 445.333 -6.6665" stroke="black" stroke-width="2.66667"/>
<path d="M445.333 -6.66668C390.833 -6.66667 342.416 19.5361 312 60.0228L312 160" stroke="black" stroke-width="2.66667"/>
<path d="M445.333 26.6667C405.524 26.6667 369.771 44.1425 345.333 71.8359L345.333 160" stroke="black" stroke-width="2.66667"/>
<path d="M545.333 160C545.333 104.8 500.533 60 445.333 60" stroke="black" stroke-width="2.66667"/>
<path d="M445.333 260C500.533 260 545.333 215.2 545.333 160" stroke="black" stroke-width="2.66667"/>
<path d="M445.333 293.333C518.933 293.333 578.667 233.6 578.667 160" stroke="black" stroke-width="2.66667"/>
<path d="M445.333 326.667C537.333 326.667 612 252 612 160" stroke="black" stroke-width="2.66667"/>
<path d="M445.333 60C419.729 60 396.363 69.6387 378.667 85.4832L378.667 160" stroke="black" stroke-width="2.66667"/>
<path d="M512 160C512 123.2 482.133 93.3335 445.333 93.3335" stroke="black" stroke-width="2.66667"/>
<path d="M445.333 226.667C482.133 226.667 512 196.8 512 160" stroke="black" stroke-width="2.66667"/>
<path d="M278.667 160L278.667 326.667L445.333 326.667" stroke="black" stroke-width="2.66667"/>
<path d="M345.333 160L345.333 260L445.333 260" stroke="black" stroke-width="2.66667"/>
<path d="M378.667 160L378.667 226.667L445.333 226.667" stroke="black" stroke-width="2.66667"/>
<path d="M429.333 460C429.333 523.286 473.498 576.319 532.667 589.94" stroke="black" stroke-width="2.66667"/>
<circle cx="445.333" cy="93.3333" r="6.66667" fill="white" stroke="#151515" stroke-width="2.66667"/>
<circle cx="445.333" cy="293.333" r="6.66667" fill="white" stroke="#151515" stroke-width="2.66667"/>
<circle cx="312" cy="157.333" r="6.66667" fill="white" stroke="#151515" stroke-width="2.66667"/>
<circle cx="445.333" cy="26.6668" r="6.66667" fill="white" stroke="#151515" stroke-width="2.66667"/>
<circle cx="578.667" cy="160" r="6.66667" fill="white" stroke="#151515" stroke-width="2.66667"/>
<circle cx="245.333" cy="35.9998" r="6.66667" fill="white" stroke="#151515" stroke-width="2.66667"/>
<path d="M414.667 782.667C414.667 893.067 325.067 982.667 214.667 982.667C104.267 982.667 14.6667 893.067 14.6667 782.667C14.6667 672.267 104.267 582.667 214.667 582.667C325.067 582.667 414.667 672.267 414.667 782.667Z" stroke="black" stroke-width="2.66667"/>
<path d="M-18.6667 782.667C-18.6667 653.867 85.8667 549.333 214.667 549.333L-18.6667 316" stroke="black" stroke-width="2.66667"/>
<path d="M48 782.667C48 874.667 122.667 949.333 214.667 949.333C306.667 949.333 381.333 874.667 381.333 782.667C381.333 690.667 306.667 616 214.667 616V782.667" stroke="black" stroke-width="2.66667"/>
<path d="M157.333 226.667C157.333 153.067 97.6 93.3335 24 93.3335M24 93.3335V-40.6665M24 93.3335H-120.667" stroke="black" stroke-width="2.66667"/>
<path d="M2597.33 392H2364" stroke="#151515" stroke-width="2.66667"/>
<path d="M2464 192H2164" stroke="#151515" stroke-width="2.66667"/>
<path d="M2130.67 192C2130.67 228.8 2100.8 258.667 2064 258.667C2027.2 258.667 1997.33 228.8 1997.33 192C1997.33 155.2 2027.2 125.333 2064 125.333C2100.8 125.333 2130.67 155.2 2130.67 192Z" stroke="black" stroke-width="2.66667"/>
<path d="M1930.67 658.667C1848.23 658.667 1781.33 725.568 1781.33 808" stroke="black" stroke-width="2.66667"/>
<path d="M2064 492C2064 547.2 2019.2 592 1964 592M1964 592V475.333M1964 592V752" stroke="black" stroke-width="2.66667"/>
<path d="M1930.67 658.667L1930.67 525.333L1781.67 525.333M1632.67 856L1632.67 674.667V674.667C1715.01 674.482 1781.67 607.678 1781.67 525.333V525.333M1781.67 525.333L1781.67 734" stroke="black" stroke-width="2.66667"/>
<path d="M2364 689.333C2474.4 689.333 2564 599.733 2564 489.333" stroke="black" stroke-width="2.66667"/>
<path d="M2664 -8C2553.6 -8 2464 81.6 2464 192" stroke="black" stroke-width="2.66667"/>
<path d="M2664 58.6665C2590.4 58.6665 2530.67 118.4 2530.67 192L2530.67 292" stroke="black" stroke-width="2.66667"/>
<path d="M2664 25.3335C2572 25.3335 2497.33 100 2497.33 192L2497.33 324.667" stroke="black" stroke-width="2.66667"/>
<path d="M2464 358.667L2588 234.667" stroke="black" stroke-width="2.66667"/>
<path d="M2634.67 234.667L2510.67 358.667H2557.33L2681.33 234.667" stroke="black" stroke-width="2.66667"/>
<path d="M2264 192C2264 81.6 2174.4 -8.00001 2064 -8.00002" stroke="black" stroke-width="2.66667"/>
<path d="M2297.33 192C2297.33 63.2 2192.8 -41.3333 2064 -41.3333" stroke="black" stroke-width="2.66667"/>
<path d="M2164 492C2164 436.8 2119.2 392 2064 392" stroke="black" stroke-width="2.66667"/>
<path d="M2164 492C2164 436.8 2119.2 392 2064 392" stroke="black" stroke-width="2.66667"/>
<path d="M2097.33 492C2097.33 565.6 2037.6 625.333 1964 625.333" stroke="black" stroke-width="2.66667"/>
<path d="M2030.67 492C2030.67 528.8 2000.8 558.667 1964 558.667" stroke="black" stroke-width="2.66667"/>
<path d="M2030.67 492C2030.67 491.249 2030.65 490.501 2030.63 489.756" stroke="black" stroke-width="2.66667"/>
<path d="M1997.33 492C1997.33 510.4 1982.4 525.333 1964 525.333" stroke="black" stroke-width="2.66667"/>
<path d="M1997.33 492C1997.33 489.243 1997 486.563 1996.37 484" stroke="black" stroke-width="2.66667"/>
<path d="M2130.67 492C2130.67 584 2056 658.667 1964 658.667" stroke="black" stroke-width="2.66667"/>
<path d="M2164 489.333C2164 599.733 2253.6 689.333 2364 689.333" stroke="black" stroke-width="2.66667"/>
<path d="M2130.67 492C2130.67 455.2 2100.8 425.333 2064 425.333" stroke="black" stroke-width="2.66667"/>
<path d="M2097.33 492C2097.33 473.6 2082.4 458.667 2064 458.667" stroke="black" stroke-width="2.66667"/>
<path d="M2064 392C1953.6 392 1864 302.4 1864 192V93.3335" stroke="black" stroke-width="2.66667"/>
<path d="M2064 425.334C1935.2 425.334 1830.67 320.8 1830.67 192V125.333" stroke="black" stroke-width="2.66667"/>
<path d="M2064 458.667C1916.8 458.667 1797.33 339.2 1797.33 192V160" stroke="black" stroke-width="2.66667"/>
<path d="M1764 192C1764 357.6 1898.4 492 2064 492" stroke="black" stroke-width="2.66667"/>
<path d="M2264 492C2264 547.2 2308.8 592 2364 592C2419.2 592 2464 547.2 2464 492C2464 436.8 2419.2 392 2364 392" stroke="black" stroke-width="2.66667"/>
<path d="M2364 392C2253.6 392 2164 302.4 2164 192C2164 136.8 2119.2 92 2064 92C2008.8 92 1964 136.8 1964 192C1964 247.2 2008.8 292 2064 292C2174.4 292 2264 381.6 2264 492" stroke="black" stroke-width="2.66667"/>
<path d="M2200.67 225.333C2216.13 301.379 2283.41 358.667 2364 358.667H2464V225.333H2200.67Z" stroke="black" stroke-width="2.66667"/>
<circle cx="1797.33" cy="158.667" r="6.66667" fill="white" stroke="#151515" stroke-width="2.66667"/>
<circle cx="1830.67" cy="125.333" r="6.66667" fill="white" stroke="#151515" stroke-width="2.66667"/>
<circle cx="1864" cy="91.9998" r="6.66667" fill="white" stroke="#151515" stroke-width="2.66667"/>
<circle cx="1764" cy="192" r="6.66667" fill="white" stroke="#151515" stroke-width="2.66667"/>
<circle cx="462.833" cy="460.333" r="6.66667" fill="white" stroke="#151515" stroke-width="2.66667"/>
</g>
<defs>
<clipPath id="clip0_344_599">
<rect width="2560" height="720" fill="white"/>
</clipPath>
</defs>
</svg>
