<svg width="700" height="169" viewBox="0 0 700 169" fill="none" xmlns="http://www.w3.org/2000/svg">
<rect width="700" height="168" transform="translate(0 0.25)" fill="#0A0D12"/>
<path d="M353.234 80.25L323.133 90.0278L353.234 106.028M379.793 142.472L359.431 160.25L362.972 142.472M374.481 42.0278L339.069 8.25L332.55 45.5833M237 63.3611L262.047 74.0278M245.097 81.5833L262.047 90.0278M238.463 130.917L257.621 122.028M245.829 115.361L258.506 109.583M416.09 80.25L404.581 72.25L391.302 80.25L404.581 87.3611L416.09 80.25ZM474.52 80.25L462.126 74.0278L451.503 80.25L462.126 85.5833L474.52 80.25Z" stroke="#B3BFD8" stroke-width="2"/>
<circle cx="253.5" cy="98.75" r="1.5" fill="#D9EBFF"/>
<path d="M253.994 94.25V92.3647H250.578V91.4785L254.171 86.376H254.961V91.4785H256.024V92.3647H254.961V94.25H253.994ZM253.994 91.4785V87.9282L251.529 91.4785H253.994Z" fill="#D9EBFF"/>
<circle cx="228.5" cy="42.75" r="1.5" fill="#D9EBFF"/>
<path d="M230.976 37.3208V38.25H225.771C225.764 38.0173 225.802 37.7935 225.884 37.5786C226.017 37.2241 226.228 36.875 226.518 36.5312C226.812 36.1875 227.234 35.79 227.786 35.3389C228.641 34.637 229.22 34.082 229.521 33.6738C229.821 33.262 229.972 32.8735 229.972 32.5083C229.972 32.1252 229.834 31.8029 229.558 31.5415C229.286 31.2765 228.93 31.144 228.489 31.144C228.024 31.144 227.651 31.2837 227.372 31.563C227.093 31.8423 226.951 32.229 226.948 32.7231L225.954 32.6211C226.022 31.8799 226.278 31.3159 226.722 30.9292C227.166 30.5389 227.762 30.3438 228.511 30.3438C229.266 30.3438 229.864 30.5532 230.305 30.9722C230.745 31.3911 230.965 31.9103 230.965 32.5298C230.965 32.8449 230.901 33.1546 230.772 33.459C230.643 33.7633 230.428 34.0838 230.127 34.4204C229.83 34.757 229.334 35.2189 228.64 35.8062C228.06 36.2931 227.687 36.6243 227.522 36.7998C227.358 36.9717 227.222 37.1453 227.114 37.3208H230.976Z" fill="#D9EBFF"/>
<circle cx="281.5" cy="68.75" r="1.5" fill="#D9EBFF"/>
<path d="M278.9 62.1714L279.867 62.0425C279.978 62.5903 280.166 62.986 280.431 63.2295C280.7 63.4694 281.026 63.5894 281.409 63.5894C281.863 63.5894 282.247 63.4318 282.558 63.1167C282.873 62.8016 283.031 62.4113 283.031 61.9458C283.031 61.5018 282.886 61.1366 282.596 60.8501C282.306 60.5601 281.937 60.415 281.489 60.415C281.307 60.415 281.079 60.4508 280.807 60.5225L280.915 59.6738C280.979 59.681 281.031 59.6846 281.07 59.6846C281.482 59.6846 281.853 59.5771 282.182 59.3623C282.512 59.1475 282.676 58.8162 282.676 58.3687C282.676 58.0142 282.556 57.7205 282.316 57.4878C282.076 57.255 281.767 57.1387 281.387 57.1387C281.011 57.1387 280.698 57.2568 280.447 57.4932C280.197 57.7295 280.035 58.084 279.964 58.5566L278.997 58.3848C279.115 57.7367 279.384 57.2354 279.803 56.8809C280.222 56.5228 280.743 56.3438 281.366 56.3438C281.795 56.3438 282.191 56.4368 282.553 56.623C282.914 56.8057 283.19 57.0563 283.38 57.375C283.573 57.6937 283.67 58.0321 283.67 58.3901C283.67 58.7303 283.579 59.04 283.396 59.3193C283.213 59.5986 282.943 59.8206 282.585 59.9854C283.05 60.0928 283.412 60.3166 283.67 60.6567C283.928 60.9933 284.057 61.4159 284.057 61.9243C284.057 62.6118 283.806 63.1955 283.305 63.6753C282.803 64.1515 282.17 64.3896 281.403 64.3896C280.712 64.3896 280.138 64.1838 279.679 63.772C279.224 63.3602 278.965 62.8267 278.9 62.1714Z" fill="#D9EBFF"/>
<circle cx="307.5" cy="51.75" r="1.5" fill="#D9EBFF"/>
<path d="M307.994 47.25V45.3647H304.578V44.4785L308.171 39.376H308.961V44.4785H310.024V45.3647H308.961V47.25H307.994ZM307.994 44.4785V40.9282L305.529 44.4785H307.994Z" fill="#D9EBFF"/>
<circle cx="347.5" cy="41.75" r="1.5" fill="#D9EBFF"/>
<path d="M344.895 35.1875L345.91 35.1016C345.985 35.5957 346.159 35.9681 346.431 36.2188C346.707 36.4658 347.038 36.5894 347.425 36.5894C347.89 36.5894 348.284 36.4139 348.606 36.063C348.929 35.7121 349.09 35.2466 349.09 34.6665C349.09 34.1151 348.934 33.68 348.623 33.3613C348.315 33.0426 347.91 32.8833 347.409 32.8833C347.097 32.8833 346.816 32.9549 346.565 33.0981C346.315 33.2378 346.118 33.4204 345.975 33.646L345.067 33.5278L345.83 29.4834H349.745V30.4072H346.603L346.179 32.5234C346.651 32.194 347.147 32.0293 347.667 32.0293C348.354 32.0293 348.934 32.2674 349.407 32.7437C349.879 33.2199 350.116 33.8322 350.116 34.5806C350.116 35.2931 349.908 35.909 349.493 36.4282C348.988 37.0656 348.299 37.3843 347.425 37.3843C346.709 37.3843 346.123 37.1838 345.668 36.7827C345.217 36.3817 344.959 35.8499 344.895 35.1875Z" fill="#D9EBFF"/>
<circle cx="386.5" cy="41.75" r="1.5" fill="#D9EBFF"/>
<path d="M388.912 31.3042L387.95 31.3794C387.864 30.9998 387.743 30.7241 387.585 30.5522C387.324 30.2765 387.001 30.1387 386.618 30.1387C386.31 30.1387 386.04 30.2246 385.807 30.3965C385.503 30.6185 385.263 30.9425 385.087 31.3687C384.912 31.7948 384.821 32.4017 384.813 33.1895C385.046 32.835 385.331 32.5718 385.667 32.3999C386.004 32.228 386.357 32.1421 386.726 32.1421C387.37 32.1421 387.918 32.3802 388.369 32.8564C388.824 33.3291 389.051 33.9414 389.051 34.6934C389.051 35.1875 388.944 35.6476 388.729 36.0737C388.518 36.4963 388.226 36.8203 387.854 37.0459C387.481 37.2715 387.059 37.3843 386.586 37.3843C385.78 37.3843 385.123 37.0889 384.615 36.498C384.106 35.9036 383.852 34.9261 383.852 33.5654C383.852 32.0436 384.133 30.9372 384.695 30.2461C385.186 29.6445 385.847 29.3438 386.677 29.3438C387.297 29.3438 387.803 29.5174 388.197 29.8647C388.595 30.2121 388.833 30.6919 388.912 31.3042ZM384.964 34.6987C384.964 35.0317 385.034 35.3504 385.173 35.6548C385.317 35.9591 385.515 36.1919 385.77 36.353C386.024 36.5106 386.291 36.5894 386.57 36.5894C386.978 36.5894 387.329 36.4246 387.623 36.0952C387.916 35.7658 388.063 35.3182 388.063 34.7524C388.063 34.2082 387.918 33.7803 387.628 33.4688C387.338 33.1536 386.973 32.9961 386.532 32.9961C386.095 32.9961 385.725 33.1536 385.42 33.4688C385.116 33.7803 384.964 34.1903 384.964 34.6987Z" fill="#D9EBFF"/>
<circle cx="437.5" cy="62.75" r="1.5" fill="#D9EBFF"/>
<path d="M434.959 51.4072V50.478H440.057V51.23C439.555 51.7635 439.058 52.4725 438.563 53.3569C438.073 54.2414 437.693 55.1509 437.425 56.0854C437.231 56.7443 437.108 57.4658 437.054 58.25H436.061C436.071 57.6305 436.193 56.8822 436.426 56.0049C436.659 55.1276 436.992 54.2826 437.425 53.4697C437.862 52.6533 438.325 51.9658 438.816 51.4072H434.959Z" fill="#D9EBFF"/>
<circle cx="458.5" cy="104.75" r="1.5" fill="#D9EBFF"/>
<path d="M457.383 95.98C456.982 95.8332 456.685 95.6237 456.491 95.3516C456.298 95.0794 456.201 94.7536 456.201 94.374C456.201 93.8011 456.407 93.3195 456.819 92.9292C457.231 92.5389 457.778 92.3438 458.462 92.3438C459.15 92.3438 459.703 92.5443 460.122 92.9453C460.541 93.3428 460.75 93.828 460.75 94.4009C460.75 94.7661 460.654 95.0848 460.46 95.3569C460.271 95.6255 459.981 95.8332 459.59 95.98C460.074 96.1375 460.441 96.3918 460.691 96.7427C460.946 97.0936 461.073 97.5125 461.073 97.9995C461.073 98.6727 460.835 99.2384 460.358 99.6968C459.882 100.155 459.256 100.384 458.479 100.384C457.701 100.384 457.075 100.155 456.599 99.6968C456.122 99.2349 455.884 98.6602 455.884 97.9727C455.884 97.4606 456.013 97.0327 456.271 96.689C456.532 96.3416 456.903 96.1053 457.383 95.98ZM457.189 94.3418C457.189 94.7142 457.309 95.0186 457.549 95.2549C457.789 95.4912 458.101 95.6094 458.484 95.6094C458.856 95.6094 459.161 95.493 459.397 95.2603C459.637 95.0239 459.757 94.7357 459.757 94.3955C459.757 94.041 459.633 93.7438 459.386 93.5039C459.143 93.2604 458.838 93.1387 458.473 93.1387C458.104 93.1387 457.798 93.2568 457.555 93.4932C457.311 93.7295 457.189 94.0124 457.189 94.3418ZM456.878 97.978C456.878 98.2537 456.942 98.5205 457.071 98.7783C457.204 99.0361 457.399 99.2367 457.657 99.3799C457.915 99.5195 458.192 99.5894 458.489 99.5894C458.951 99.5894 459.333 99.4408 459.633 99.1436C459.934 98.8464 460.084 98.4686 460.084 98.0103C460.084 97.5448 459.929 97.1598 459.617 96.8555C459.309 96.5511 458.923 96.3989 458.457 96.3989C458.002 96.3989 457.625 96.5493 457.324 96.8501C457.027 97.1509 456.878 97.5269 456.878 97.978Z" fill="#D9EBFF"/>
<circle cx="431.5" cy="110.75" r="1.5" fill="#D9EBFF"/>
<path d="M429.04 104.429L429.969 104.343C430.048 104.78 430.198 105.097 430.42 105.294C430.642 105.491 430.927 105.589 431.274 105.589C431.572 105.589 431.831 105.521 432.053 105.385C432.279 105.249 432.463 105.068 432.606 104.843C432.75 104.614 432.87 104.306 432.966 103.919C433.063 103.532 433.111 103.138 433.111 102.737C433.111 102.694 433.11 102.63 433.106 102.544C432.913 102.852 432.648 103.103 432.311 103.296C431.978 103.486 431.616 103.581 431.226 103.581C430.574 103.581 430.023 103.344 429.572 102.872C429.121 102.399 428.895 101.776 428.895 101.002C428.895 100.204 429.13 99.5612 429.599 99.0742C430.071 98.5872 430.662 98.3438 431.371 98.3438C431.883 98.3438 432.35 98.4816 432.773 98.7573C433.199 99.033 433.521 99.4269 433.74 99.939C433.962 100.447 434.073 101.185 434.073 102.152C434.073 103.158 433.964 103.96 433.745 104.558C433.527 105.153 433.201 105.605 432.768 105.917C432.338 106.229 431.833 106.384 431.253 106.384C430.637 106.384 430.134 106.214 429.744 105.874C429.353 105.53 429.119 105.049 429.04 104.429ZM432.999 100.954C432.999 100.399 432.85 99.9587 432.553 99.6328C432.259 99.307 431.905 99.144 431.489 99.144C431.06 99.144 430.685 99.3195 430.367 99.6704C430.048 100.021 429.889 100.476 429.889 101.035C429.889 101.536 430.039 101.944 430.34 102.259C430.644 102.571 431.018 102.727 431.462 102.727C431.91 102.727 432.277 102.571 432.563 102.259C432.854 101.944 432.999 101.509 432.999 100.954Z" fill="#D9EBFF"/>
<circle cx="448.5" cy="113.75" r="1.5" fill="#D9EBFF"/>
<path d="M446.475 109.25H445.508V103.089C445.276 103.311 444.969 103.533 444.59 103.755C444.214 103.977 443.875 104.144 443.575 104.255V103.32C444.115 103.066 444.588 102.758 444.993 102.396C445.397 102.035 445.684 101.684 445.852 101.344H446.475V109.25ZM448.957 105.367C448.957 104.436 449.051 103.687 449.241 103.122C449.435 102.552 449.719 102.114 450.095 101.806C450.475 101.498 450.951 101.344 451.524 101.344C451.946 101.344 452.317 101.43 452.636 101.602C452.954 101.77 453.218 102.015 453.425 102.337C453.633 102.656 453.796 103.046 453.914 103.508C454.032 103.967 454.091 104.586 454.091 105.367C454.091 106.291 453.996 107.037 453.807 107.606C453.617 108.172 453.332 108.611 452.953 108.922C452.577 109.23 452.1 109.384 451.524 109.384C450.765 109.384 450.169 109.112 449.735 108.568C449.216 107.913 448.957 106.846 448.957 105.367ZM449.95 105.367C449.95 106.659 450.101 107.521 450.401 107.95C450.706 108.376 451.08 108.589 451.524 108.589C451.968 108.589 452.34 108.375 452.641 107.945C452.945 107.515 453.098 106.656 453.098 105.367C453.098 104.07 452.945 103.209 452.641 102.783C452.34 102.357 451.964 102.144 451.513 102.144C451.069 102.144 450.715 102.332 450.45 102.708C450.117 103.188 449.95 104.074 449.95 105.367Z" fill="#D9EBFF"/>
<circle cx="405.5" cy="140.75" r="1.5" fill="#D9EBFF"/>
<path d="M403.383 136.25H402.417V130.089C402.184 130.311 401.878 130.533 401.498 130.755C401.122 130.977 400.784 131.144 400.483 131.255V130.32C401.024 130.066 401.496 129.758 401.901 129.396C402.306 129.035 402.592 128.684 402.76 128.344H403.383V136.25ZM408.69 136.25H407.723V130.089C407.49 130.311 407.184 130.533 406.805 130.755C406.429 130.977 406.09 131.144 405.79 131.255V130.32C406.33 130.066 406.803 129.758 407.208 129.396C407.612 129.035 407.899 128.684 408.067 128.344H408.69V136.25Z" fill="#D9EBFF"/>
<circle cx="336.5" cy="140.75" r="1.5" fill="#D9EBFF"/>
<path d="M334.475 136.25H333.508V130.089C333.276 130.311 332.969 130.533 332.59 130.755C332.214 130.977 331.875 131.144 331.575 131.255V130.32C332.115 130.066 332.588 129.758 332.993 129.396C333.397 129.035 333.684 128.684 333.852 128.344H334.475V136.25ZM342.038 135.321V136.25H336.833C336.826 136.017 336.863 135.793 336.946 135.579C337.078 135.224 337.29 134.875 337.58 134.531C337.873 134.188 338.296 133.79 338.847 133.339C339.703 132.637 340.281 132.082 340.582 131.674C340.883 131.262 341.033 130.874 341.033 130.508C341.033 130.125 340.895 129.803 340.62 129.542C340.347 129.277 339.991 129.144 339.551 129.144C339.085 129.144 338.713 129.284 338.434 129.563C338.154 129.842 338.013 130.229 338.009 130.723L337.016 130.621C337.084 129.88 337.34 129.316 337.784 128.929C338.228 128.539 338.824 128.344 339.572 128.344C340.328 128.344 340.926 128.553 341.366 128.972C341.807 129.391 342.027 129.91 342.027 130.53C342.027 130.845 341.962 131.155 341.833 131.459C341.705 131.763 341.49 132.084 341.189 132.42C340.892 132.757 340.396 133.219 339.701 133.806C339.121 134.293 338.749 134.624 338.584 134.8C338.419 134.972 338.283 135.145 338.176 135.321H342.038Z" fill="#D9EBFF"/>
<circle cx="295.5" cy="118.75" r="1.5" fill="#D9EBFF"/>
<path d="M293.475 114.25H292.508V108.089C292.276 108.311 291.969 108.533 291.59 108.755C291.214 108.977 290.875 109.144 290.575 109.255V108.32C291.115 108.066 291.588 107.758 291.993 107.396C292.397 107.035 292.684 106.684 292.852 106.344H293.475V114.25ZM295.962 112.171L296.929 112.042C297.04 112.59 297.228 112.986 297.493 113.229C297.761 113.469 298.087 113.589 298.47 113.589C298.925 113.589 299.308 113.432 299.62 113.117C299.935 112.802 300.092 112.411 300.092 111.946C300.092 111.502 299.947 111.137 299.657 110.85C299.367 110.56 298.998 110.415 298.551 110.415C298.368 110.415 298.141 110.451 297.869 110.522L297.976 109.674C298.041 109.681 298.092 109.685 298.132 109.685C298.544 109.685 298.914 109.577 299.244 109.362C299.573 109.147 299.738 108.816 299.738 108.369C299.738 108.014 299.618 107.721 299.378 107.488C299.138 107.255 298.828 107.139 298.449 107.139C298.073 107.139 297.759 107.257 297.509 107.493C297.258 107.729 297.097 108.084 297.025 108.557L296.059 108.385C296.177 107.737 296.445 107.235 296.864 106.881C297.283 106.523 297.804 106.344 298.427 106.344C298.857 106.344 299.253 106.437 299.614 106.623C299.976 106.806 300.252 107.056 300.441 107.375C300.635 107.694 300.731 108.032 300.731 108.39C300.731 108.73 300.64 109.04 300.458 109.319C300.275 109.599 300.005 109.821 299.646 109.985C300.112 110.093 300.474 110.317 300.731 110.657C300.989 110.993 301.118 111.416 301.118 111.924C301.118 112.612 300.868 113.195 300.366 113.675C299.865 114.152 299.231 114.39 298.465 114.39C297.774 114.39 297.199 114.184 296.741 113.772C296.286 113.36 296.026 112.827 295.962 112.171Z" fill="#D9EBFF"/>
<circle cx="228.5" cy="152.75" r="1.5" fill="#D9EBFF"/>
<path d="M226.475 148.25H225.508V142.089C225.276 142.311 224.969 142.533 224.59 142.755C224.214 142.977 223.875 143.144 223.575 143.255V142.32C224.115 142.066 224.588 141.758 224.993 141.396C225.397 141.035 225.684 140.684 225.852 140.344H226.475V148.25ZM232.056 148.25V146.365H228.64V145.479L232.233 140.376H233.022V145.479H234.086V146.365H233.022V148.25H232.056ZM232.056 145.479V141.928L229.59 145.479H232.056Z" fill="#D9EBFF"/>
</svg>
