<svg width="700" height="101" viewBox="0 0 700 101" fill="none" xmlns="http://www.w3.org/2000/svg">
<rect width="700" height="101" fill="#0A0D12"/>
<path d="M209.947 30.8102C209.947 27.9934 211.002 25.3161 213.111 22.7783C215.221 20.2404 217.594 18.9576 220.231 18.9297C221.646 18.9297 222.895 19.613 223.977 20.9795C224.422 20.1428 225.06 19.7245 225.893 19.7245C226.253 19.7245 226.573 19.8361 226.85 20.0592C227.128 20.2823 227.266 20.5612 227.266 20.8958C227.266 21.2584 226.753 23.4895 225.726 27.5891C224.699 31.6887 224.172 34.0034 224.144 34.5333C224.144 35.2305 224.241 35.6907 224.435 35.9138C224.63 36.1369 224.921 36.2624 225.31 36.2903C225.56 36.2624 225.837 36.1369 226.142 35.9138C226.725 35.356 227.294 34.0173 227.849 31.8978C228.016 31.3401 228.155 31.0472 228.266 31.0193C228.321 30.9914 228.46 30.9775 228.682 30.9775H228.848C229.376 30.9775 229.64 31.103 229.64 31.354C229.64 31.5213 229.57 31.8978 229.431 32.4835C229.293 33.0691 229.015 33.8221 228.599 34.7424C228.182 35.6628 227.738 36.36 227.266 36.8341C226.906 37.1966 226.462 37.4895 225.934 37.7126C225.712 37.7683 225.379 37.7962 224.935 37.7962C223.991 37.7962 223.2 37.5871 222.562 37.1687C221.924 36.7504 221.507 36.3181 221.313 35.8719L221.063 35.2444C221.035 35.2166 220.98 35.2305 220.897 35.2863C220.841 35.3421 220.786 35.3978 220.73 35.4536C219.093 37.0154 217.427 37.7962 215.734 37.7962C214.208 37.7962 212.862 37.2385 211.696 36.1229C210.53 35.0074 209.947 33.2365 209.947 30.8102ZM223.186 23.6568C223.186 23.4894 223.117 23.1827 222.978 22.7365C222.84 22.2902 222.52 21.8022 222.021 21.2723C221.521 20.7424 220.883 20.4635 220.106 20.4357C219.134 20.4357 218.204 20.8679 217.316 21.7325C216.428 22.597 215.734 23.7265 215.235 25.1209C214.43 27.3241 213.861 29.611 213.528 31.9815C213.528 32.0652 213.528 32.2185 213.528 32.4417C213.528 32.6648 213.514 32.8321 213.486 32.9436C213.486 34.1986 213.736 35.0632 214.235 35.5373C214.735 36.0114 215.332 36.2624 216.026 36.2903C217.08 36.2903 218.121 35.8301 219.148 34.9098C220.175 33.9895 220.786 33.2783 220.98 32.7763C221.035 32.6648 221.41 31.1727 222.104 28.3002C222.798 25.4277 223.159 23.8799 223.186 23.6568Z" fill="#D9EBFF"/>
<path d="M277.163 10.3121C277.163 10.0332 277.218 9.71248 277.329 9.34993C277.44 8.98738 277.607 8.80611 277.829 8.80611C277.856 8.80611 278.856 8.73639 280.826 8.59695C282.797 8.4575 283.81 8.37384 283.865 8.34595C284.198 8.34595 284.365 8.47145 284.365 8.72244C284.365 8.97344 283.893 10.9675 282.95 14.7045C282.727 15.6527 282.492 16.6288 282.242 17.6328C281.992 18.6368 281.784 19.3898 281.617 19.8918L281.451 20.6866C281.451 20.7703 281.534 20.7284 281.701 20.5611C283.061 19.4456 284.462 18.8878 285.905 18.8878C287.626 18.8878 289.014 19.5292 290.069 20.8121C291.123 22.095 291.665 23.7125 291.692 25.6647C291.692 28.7603 290.596 31.5631 288.403 34.0731C286.211 36.583 283.852 37.838 281.326 37.838C279.938 37.838 278.675 37.3081 277.537 36.2484C276.399 35.1886 275.816 33.4735 275.789 31.103V30.7265C275.789 30.1408 275.9 29.332 276.122 28.3002C276.344 27.2683 277.024 24.5213 278.162 20.0591C279.55 14.5651 280.243 11.6507 280.243 11.3161C280.243 10.9814 279.716 10.7862 278.661 10.7304C278.523 10.7304 278.412 10.7304 278.328 10.7304H278.12C277.843 10.7304 277.662 10.7304 277.579 10.7304C277.496 10.7304 277.398 10.6886 277.287 10.6049C277.176 10.5212 277.135 10.4236 277.163 10.3121ZM288.112 23.7822V23.5312C288.112 21.4675 287.265 20.4356 285.572 20.4356C285.101 20.4356 284.615 20.5472 284.115 20.7703C283.616 20.9934 283.158 21.2862 282.741 21.6488C282.325 22.0113 281.964 22.346 281.659 22.6527C281.354 22.9595 281.104 23.2663 280.91 23.5731L280.66 23.9077L279.785 27.5053C279.175 29.9037 278.869 31.6049 278.869 32.6089C278.869 33.9476 279.203 34.9516 279.869 35.6209C280.313 36.0671 280.868 36.2902 281.534 36.2902C282.45 36.2902 283.38 35.844 284.323 34.9516C285.017 34.3101 285.572 33.5293 285.989 32.6089C286.405 31.6886 286.863 30.2245 287.363 28.2165C287.862 26.2085 288.112 24.7304 288.112 23.7822Z" fill="#D9EBFF"/>
<path d="M211.987 84.883C211.987 81.8431 213.181 79.1102 215.567 76.6839C217.954 74.2576 220.536 73.0444 223.311 73.0444C224.865 73.0444 226.087 73.3791 226.975 74.0484C227.863 74.7177 228.321 75.5962 228.349 76.6839C228.349 77.4926 228.085 78.1759 227.558 78.7337C227.03 79.2914 226.364 79.5842 225.559 79.6121C225.032 79.6121 224.616 79.4727 224.31 79.1938C224.005 78.9149 223.852 78.4966 223.852 77.9388C223.852 77.3811 224.005 76.907 224.31 76.5165C224.616 76.1261 224.921 75.8333 225.226 75.6381C225.532 75.4428 225.726 75.3592 225.809 75.3871H225.851C225.851 75.3313 225.767 75.2476 225.601 75.1361C225.434 75.0245 225.143 74.913 224.727 74.8014C224.31 74.6899 223.838 74.6341 223.311 74.6341C222.478 74.6341 221.687 74.8293 220.938 75.2197C220.355 75.4707 219.758 75.903 219.148 76.5165C217.927 77.7436 217.038 79.4727 216.483 81.7037C215.928 83.9348 215.637 85.5523 215.609 86.5563C215.609 87.8391 215.97 88.8013 216.692 89.4427C217.302 90.112 218.107 90.4467 219.106 90.4467H219.273C222.381 90.4467 224.949 89.2614 226.975 86.8909C227.225 86.612 227.391 86.4726 227.474 86.4726C227.585 86.4726 227.766 86.5981 228.016 86.8491C228.265 87.1001 228.404 87.2953 228.432 87.4347C228.46 87.5742 228.335 87.7834 228.057 88.0622C227.78 88.3411 227.377 88.7316 226.85 89.2336C226.323 89.7356 225.698 90.1539 224.976 90.4885C224.255 90.8232 223.367 91.1718 222.312 91.5343C221.257 91.8969 220.147 92.0503 218.981 91.9945C216.9 91.9945 215.221 91.3252 213.944 89.9865C212.667 88.6479 212.015 86.9467 211.987 84.883Z" fill="#D9EBFF"/>
<path d="M287.467 62.9627C287.494 62.9627 288.494 62.8929 290.464 62.7535C292.435 62.6141 293.448 62.5304 293.503 62.5025C293.836 62.5025 294.003 62.6141 294.003 62.8372C294.003 63.0324 292.99 67.2436 290.964 75.4707C288.938 83.6978 287.897 87.8949 287.841 88.0622C287.786 88.2295 287.772 88.4387 287.8 88.6897C287.8 89.861 288.188 90.4467 288.965 90.4467C289.215 90.4188 289.493 90.2933 289.798 90.0702C290.381 89.5124 290.95 88.1738 291.505 86.0543C291.672 85.4965 291.81 85.2037 291.921 85.1758C291.977 85.1479 292.116 85.134 292.338 85.134H292.671C293.087 85.134 293.295 85.2455 293.295 85.4686C293.295 85.6081 293.254 85.8312 293.17 86.1379C292.81 87.5324 292.393 88.6618 291.921 89.5264C291.45 90.3909 291.061 90.9487 290.756 91.1997C290.45 91.4506 290.062 91.6738 289.59 91.869C289.368 91.9248 289.035 91.9526 288.591 91.9526C287.647 91.9526 286.856 91.7435 286.218 91.3252C285.579 90.9068 285.163 90.4746 284.969 90.0284L284.719 89.4009C284.691 89.373 284.636 89.3869 284.552 89.4427C284.497 89.4985 284.441 89.5542 284.386 89.61C282.748 91.1718 281.083 91.9526 279.39 91.9526C277.863 91.9526 276.517 91.3949 275.352 90.2793C274.186 89.1638 273.603 87.3929 273.603 84.9666C273.603 83.628 273.881 82.2615 274.436 80.8671C274.991 79.4726 275.657 78.2735 276.434 77.2695C277.739 75.6799 279.043 74.5783 280.347 73.9647C281.652 73.3512 282.832 73.0444 283.886 73.0444C285.441 73.0444 286.606 73.6301 287.383 74.8014C287.522 74.9687 287.592 75.0245 287.592 74.9687C287.619 74.8572 287.994 73.3372 288.716 70.409C289.437 67.4807 289.826 65.9328 289.881 65.7654C289.881 65.4029 289.784 65.1798 289.59 65.0961C289.396 65.0125 288.854 64.9427 287.966 64.887H287.092C286.925 64.7196 286.842 64.6081 286.842 64.5523C286.842 64.4965 286.87 64.2316 286.925 63.7575C287.064 63.2276 287.245 62.9627 287.467 62.9627ZM286.884 77.897C286.245 75.6938 285.205 74.5922 283.761 74.5922C282.79 74.5922 281.86 75.0245 280.972 75.889C280.084 76.7536 279.39 77.883 278.89 79.2775C278.085 81.4806 277.516 83.7674 277.183 86.1379C277.183 86.2216 277.183 86.375 277.183 86.5981C277.183 86.8212 277.17 86.9885 277.142 87.1001C277.142 88.3551 277.392 89.2196 277.891 89.6937C278.391 90.1678 278.987 90.4188 279.681 90.4467C281.18 90.4467 282.721 89.4427 284.303 87.4347L284.636 86.9746L286.884 77.897Z" fill="#D9EBFF"/>
<path d="M319.35 49.94C319.35 49.5775 319.544 49.2986 319.933 49.1034H346.453C346.869 49.3265 347.077 49.6054 347.077 49.94C347.077 50.2468 346.883 50.5117 346.495 50.7348L333.255 50.7767H320.016C319.572 50.6372 319.35 50.3583 319.35 49.94ZM319.35 58.0556C319.35 57.6372 319.572 57.3584 320.016 57.2189H346.495C346.883 57.4978 347.077 57.7767 347.077 58.0556C347.077 58.4181 346.869 58.697 346.453 58.8922H319.933C319.544 58.697 319.35 58.4181 319.35 58.0556Z" fill="#D9EBFF"/>
<path d="M362.348 57.8884C362.348 55.0717 363.403 52.3944 365.512 49.8565C367.622 47.3187 369.995 46.0358 372.632 46.0079C374.047 46.0079 375.296 46.6912 376.379 48.0577C376.823 47.2211 377.461 46.8028 378.294 46.8028C378.655 46.8028 378.974 46.9143 379.251 47.1374C379.529 47.3605 379.668 47.6394 379.668 47.9741C379.668 48.3366 379.154 50.5677 378.127 54.6673C377.1 58.7669 376.573 61.0816 376.545 61.6115C376.545 62.3087 376.642 62.7689 376.837 62.992C377.031 63.2151 377.322 63.3406 377.711 63.3685C377.961 63.3406 378.238 63.2151 378.544 62.992C379.126 62.4342 379.695 61.0956 380.25 58.9761C380.417 58.4183 380.556 58.1255 380.667 58.0976C380.722 58.0697 380.861 58.0557 381.083 58.0557H381.25C381.777 58.0557 382.041 58.1812 382.041 58.4322C382.041 58.5996 381.971 58.9761 381.832 59.5617C381.694 60.1474 381.416 60.9004 381 61.8207C380.584 62.741 380.139 63.4382 379.668 63.9123C379.307 64.2749 378.863 64.5677 378.335 64.7908C378.113 64.8466 377.78 64.8745 377.336 64.8745C376.392 64.8745 375.601 64.6653 374.963 64.247C374.325 63.8287 373.908 63.3964 373.714 62.9502L373.464 62.3227C373.437 62.2948 373.381 62.3087 373.298 62.3645C373.242 62.4203 373.187 62.4761 373.131 62.5318C371.494 64.0936 369.828 64.8745 368.135 64.8745C366.609 64.8745 365.263 64.3167 364.097 63.2012C362.931 62.0856 362.348 60.3147 362.348 57.8884ZM375.588 50.735C375.588 50.5677 375.518 50.2609 375.379 49.8147C375.241 49.3685 374.921 48.8804 374.422 48.3506C373.922 47.8207 373.284 47.5418 372.507 47.5139C371.535 47.5139 370.606 47.9462 369.717 48.8107C368.829 49.6753 368.135 50.8047 367.636 52.1992C366.831 54.4024 366.262 56.6892 365.929 59.0597C365.929 59.1434 365.929 59.2968 365.929 59.5199C365.929 59.743 365.915 59.9103 365.887 60.0219C365.887 61.2769 366.137 62.1414 366.637 62.6155C367.136 63.0896 367.733 63.3406 368.427 63.3685C369.481 63.3685 370.522 62.9083 371.549 61.988C372.576 61.0677 373.187 60.3565 373.381 59.8546C373.437 59.743 373.811 58.251 374.505 55.3785C375.199 52.5059 375.56 50.9581 375.588 50.735Z" fill="#D9EBFF"/>
<path d="M398.235 35.8844C398.263 35.8844 399.262 35.8147 401.233 35.6753C403.203 35.5358 404.216 35.4521 404.272 35.4243C404.605 35.4243 404.771 35.5358 404.771 35.7589C404.771 35.9541 403.758 40.1653 401.732 48.3924C399.706 56.6195 398.665 60.8167 398.61 60.984C398.554 61.1514 398.54 61.3605 398.568 61.6115C398.568 62.7828 398.957 63.3685 399.734 63.3685C399.984 63.3406 400.261 63.2151 400.567 62.992C401.149 62.4342 401.718 61.0956 402.274 58.9761C402.44 58.4183 402.579 58.1255 402.69 58.0976C402.745 58.0697 402.884 58.0557 403.106 58.0557H403.439C403.856 58.0557 404.064 58.1673 404.064 58.3904C404.064 58.5298 404.022 58.753 403.939 59.0597C403.578 60.4541 403.162 61.5836 402.69 62.4482C402.218 63.3127 401.829 63.8705 401.524 64.1215C401.219 64.3725 400.83 64.5956 400.358 64.7908C400.136 64.8466 399.803 64.8745 399.359 64.8745C398.416 64.8745 397.625 64.6653 396.986 64.247C396.348 63.8287 395.931 63.3964 395.737 62.9502L395.487 62.3227C395.46 62.2948 395.404 62.3087 395.321 62.3645C395.265 62.4203 395.21 62.4761 395.154 62.5318C393.517 64.0936 391.851 64.8745 390.158 64.8745C388.632 64.8745 387.286 64.3167 386.12 63.2012C384.954 62.0856 384.371 60.3147 384.371 57.8884C384.371 56.5498 384.649 55.1832 385.204 53.7888C385.759 52.3944 386.425 51.1952 387.203 50.1912C388.507 48.6016 389.811 47.5 391.116 46.8864C392.42 46.2729 393.6 45.9661 394.655 45.9661C396.209 45.9661 397.375 46.5518 398.152 47.7231C398.291 47.8904 398.36 47.9462 398.36 47.8904C398.388 47.7789 398.762 46.2589 399.484 43.3306C400.206 40.4024 400.594 38.8545 400.65 38.6872C400.65 38.3247 400.553 38.1016 400.358 38.0179C400.164 37.9342 399.623 37.8645 398.735 37.8087H397.86C397.694 37.6414 397.611 37.5298 397.611 37.4741C397.611 37.4183 397.638 37.1533 397.694 36.6792C397.833 36.1494 398.013 35.8844 398.235 35.8844ZM397.652 50.8187C397.014 48.6155 395.973 47.5139 394.53 47.5139C393.558 47.5139 392.629 47.9462 391.74 48.8107C390.852 49.6753 390.158 50.8047 389.659 52.1992C388.854 54.4024 388.285 56.6892 387.952 59.0597C387.952 59.1434 387.952 59.2968 387.952 59.5199C387.952 59.743 387.938 59.9103 387.91 60.0219C387.91 61.2769 388.16 62.1414 388.66 62.6155C389.159 63.0896 389.756 63.3406 390.45 63.3685C391.949 63.3685 393.489 62.3645 395.071 60.3565L395.404 59.8964L397.652 50.8187Z" fill="#D9EBFF"/>
<path d="M417.394 54.5417C417.394 54.5417 417.394 54.3604 417.394 53.9979C417.394 53.6353 417.589 53.3564 417.977 53.1612H442.166C442.582 53.3843 442.79 53.6632 442.79 53.9979C442.79 54.3325 442.582 54.6114 442.166 54.8345H417.977C417.589 54.6393 417.394 54.3604 417.394 53.9979V54.5417Z" fill="#D9EBFF"/>
<path d="M458.577 37.3904C458.577 37.1115 458.633 36.7908 458.744 36.4282C458.855 36.0657 459.021 35.8844 459.243 35.8844C459.271 35.8844 460.27 35.8147 462.241 35.6752C464.211 35.5358 465.224 35.4521 465.28 35.4242C465.613 35.4242 465.78 35.5497 465.78 35.8007C465.78 36.0517 465.308 38.0457 464.364 41.7828C464.142 42.731 463.906 43.7071 463.656 44.7111C463.406 45.7151 463.198 46.468 463.032 46.97L462.865 47.7649C462.865 47.8485 462.948 47.8067 463.115 47.6394C464.475 46.5238 465.877 45.9661 467.32 45.9661C469.041 45.9661 470.428 46.6075 471.483 47.8904C472.538 49.1732 473.079 50.7908 473.107 52.7429C473.107 55.8386 472.011 58.6414 469.818 61.1513C467.625 63.6613 465.266 64.9163 462.74 64.9163C461.353 64.9163 460.09 64.3864 458.952 63.3266C457.814 62.2669 457.231 60.5517 457.203 58.1812V57.8047C457.203 57.219 457.314 56.4103 457.536 55.3784C457.758 54.3465 458.438 51.5995 459.576 47.1374C460.964 41.6433 461.658 38.729 461.658 38.3943C461.658 38.0597 461.131 37.8645 460.076 37.8087C459.937 37.8087 459.826 37.8087 459.743 37.8087H459.535C459.257 37.8087 459.077 37.8087 458.993 37.8087C458.91 37.8087 458.813 37.7668 458.702 37.6832C458.591 37.5995 458.549 37.5019 458.577 37.3904ZM469.526 50.8605V50.6095C469.526 48.5457 468.68 47.5139 466.987 47.5139C466.515 47.5139 466.029 47.6254 465.53 47.8485C465.03 48.0716 464.572 48.3645 464.156 48.727C463.739 49.0896 463.379 49.4242 463.073 49.731C462.768 50.0378 462.518 50.3445 462.324 50.6513L462.074 50.986L461.2 54.5836C460.589 56.982 460.284 58.6832 460.284 59.6872C460.284 61.0258 460.617 62.0298 461.283 62.6991C461.727 63.1453 462.282 63.3685 462.948 63.3685C463.864 63.3685 464.794 62.9222 465.738 62.0298C466.432 61.3884 466.987 60.6075 467.403 59.6872C467.819 58.7669 468.277 57.3027 468.777 55.2947C469.277 53.2868 469.526 51.8087 469.526 50.8605Z" fill="#D9EBFF"/>
<path d="M474.814 57.8048C474.814 54.7649 476.007 52.0319 478.394 49.6056C480.781 47.1793 483.363 45.9661 486.138 45.9661C487.692 45.9661 488.914 46.3008 489.802 46.9701C490.69 47.6394 491.148 48.5179 491.176 49.6056C491.176 50.4143 490.912 51.0976 490.385 51.6554C489.857 52.2131 489.191 52.506 488.386 52.5339C487.859 52.5339 487.443 52.3944 487.137 52.1155C486.832 51.8367 486.679 51.4183 486.679 50.8606C486.679 50.3028 486.832 49.8287 487.137 49.4382C487.443 49.0478 487.748 48.755 488.053 48.5598C488.358 48.3645 488.553 48.2809 488.636 48.3088H488.678C488.678 48.253 488.594 48.1693 488.428 48.0578C488.261 47.9462 487.97 47.8347 487.554 47.7231C487.137 47.6115 486.665 47.5558 486.138 47.5558C485.305 47.5558 484.514 47.751 483.765 48.1414C483.182 48.3924 482.585 48.8247 481.975 49.4382C480.754 50.6653 479.865 52.3944 479.31 54.6255C478.755 56.8566 478.464 58.4741 478.436 59.4781C478.436 60.761 478.797 61.7231 479.518 62.3645C480.129 63.0339 480.934 63.3685 481.933 63.3685H482.1C485.208 63.3685 487.776 62.1833 489.802 59.8127C490.051 59.5339 490.218 59.3944 490.301 59.3944C490.412 59.3944 490.593 59.5199 490.843 59.7709C491.092 60.0219 491.231 60.2171 491.259 60.3566C491.287 60.496 491.162 60.7052 490.884 60.9841C490.607 61.263 490.204 61.6534 489.677 62.1554C489.149 62.6574 488.525 63.0757 487.803 63.4104C487.082 63.745 486.194 64.0936 485.139 64.4562C484.084 64.8187 482.974 64.9721 481.808 64.9163C479.727 64.9163 478.047 64.247 476.771 62.9084C475.494 61.5697 474.842 59.8685 474.814 57.8048Z" fill="#D9EBFF"/>
<path d="M494.673 61.9463C494.673 61.277 494.909 60.6913 495.381 60.1893C495.853 59.6873 496.449 59.4363 497.171 59.4363C497.837 59.4363 498.42 59.6594 498.92 60.1057C499.419 60.5519 499.683 61.1515 499.711 61.9045C499.711 62.6017 499.475 63.2013 499.003 63.7033C498.531 64.2053 497.934 64.4563 497.213 64.4563C496.491 64.4563 495.894 64.2192 495.423 63.7451C494.951 63.271 494.701 62.6714 494.673 61.9463Z" fill="#D9EBFF"/>
<path d="M202.753 94.9999C202.418 94.9999 202.167 94.3008 202 92.9025L202.042 7.94758C202.321 6.64919 202.586 6 202.836 6C203.199 6 203.478 6.74907 203.673 8.24721V92.9025C203.45 94.3008 203.199 94.9999 202.92 94.9999H202.753Z" fill="#D9EBFF"/>
<path d="M300.08 95C299.745 95 299.494 94.3009 299.327 92.9026L299.369 7.9477C299.648 6.64931 299.913 6.00011 300.164 6.00011C300.526 6.00011 300.805 6.74918 301 8.24732V92.9026C300.777 94.3009 300.526 95 300.247 95H300.08Z" fill="#D9EBFF"/>
</svg>
