<svg width="700" height="247" viewBox="0 0 700 247" fill="none" xmlns="http://www.w3.org/2000/svg">
<rect width="700" height="247" fill="#0A0D12"/>
<path d="M274.5 26H425.5M274.5 26L350 69.6667L425.5 26M274.5 26L199 101.667L274.5 177.333M425.5 26L501 101.667L425.5 177.333M425.5 177.333L350 221L274.5 177.333M425.5 177.333H274.5" stroke="#B3BFD8" stroke-width="2"/>
<circle cx="200" cy="102" r="5" fill="black" stroke="#D9EBFF" stroke-width="2"/>
<circle cx="275" cy="26" r="5" fill="black" stroke="#D9EBFF" stroke-width="2"/>
<circle cx="425" cy="26" r="5" fill="black" stroke="#D9EBFF" stroke-width="2"/>
<circle cx="350" cy="70" r="5" fill="black" stroke="#D9EBFF" stroke-width="2"/>
<circle cx="350" cy="221" r="5" fill="black" stroke="#D9EBFF" stroke-width="2"/>
<circle cx="426" cy="177" r="5" fill="black" stroke="#D9EBFF" stroke-width="2"/>
<circle cx="274" cy="177" r="5" fill="black" stroke="#D9EBFF" stroke-width="2"/>
<circle cx="501" cy="102" r="5" fill="black" stroke="#D9EBFF" stroke-width="2"/>
<path d="M169 99.241C169.014 99.1573 169.035 99.0459 169.063 98.9065C169.091 98.7672 169.174 98.5024 169.314 98.1122C169.453 97.7221 169.592 97.3946 169.732 97.1298C169.871 96.8651 170.101 96.6073 170.421 96.3564C170.742 96.1056 171.062 95.9872 171.383 96.0011C171.885 96.0011 172.303 96.1265 172.637 96.3773C172.971 96.6282 173.18 96.8651 173.264 97.088C173.348 97.311 173.389 97.4573 173.389 97.527C173.389 97.5548 173.396 97.5688 173.41 97.5688L173.64 97.3388C174.49 96.447 175.459 96.0011 176.546 96.0011C177.298 96.0011 177.904 96.1892 178.364 96.5655C178.824 96.9417 179.061 97.4921 179.075 98.2167C179.089 98.9414 178.824 100.035 178.281 101.498C177.737 102.962 177.472 103.846 177.486 104.153C177.486 104.515 177.605 104.696 177.842 104.696C177.925 104.696 177.988 104.689 178.03 104.676C178.434 104.606 178.796 104.341 179.117 103.881C179.437 103.421 179.681 102.864 179.848 102.209C179.876 102.098 180.016 102.042 180.266 102.042C180.545 102.042 180.684 102.098 180.684 102.209C180.684 102.223 180.657 102.328 180.601 102.523C180.489 102.927 180.336 103.324 180.141 103.714C179.946 104.104 179.625 104.494 179.179 104.885C178.733 105.275 178.253 105.463 177.737 105.449C177.082 105.449 176.608 105.261 176.316 104.885C176.023 104.508 175.877 104.118 175.877 103.714C175.877 103.449 176.128 102.613 176.629 101.206C177.131 99.7983 177.389 98.7393 177.403 98.0286C177.403 97.2065 177.096 96.7954 176.483 96.7954H176.379C175.18 96.7954 174.17 97.4991 173.348 98.9065L173.201 99.1573L172.512 101.958C172.052 103.784 171.787 104.766 171.717 104.905C171.536 105.282 171.237 105.47 170.818 105.47C170.637 105.47 170.491 105.428 170.38 105.344C170.268 105.261 170.191 105.177 170.15 105.094C170.108 105.01 170.094 104.94 170.108 104.885C170.108 104.703 170.373 103.568 170.902 101.477C171.432 99.3873 171.71 98.2516 171.738 98.0704C171.752 98.0008 171.759 97.8405 171.759 97.5897C171.759 97.0462 171.592 96.7745 171.257 96.7745C170.728 96.7745 170.289 97.4712 169.941 98.8647C169.857 99.1434 169.815 99.2897 169.815 99.3037C169.787 99.3873 169.655 99.4291 169.418 99.4291H169.125C169.042 99.3455 169 99.2828 169 99.241Z" fill="#D9EBFF"/>
<path d="M182.526 99.7425C183.078 98.9445 183.832 98.5455 184.787 98.5455C185.26 98.5455 185.733 98.6736 186.206 98.9297C186.679 99.1859 187.063 99.6391 187.359 100.289C187.723 101.107 187.905 102.23 187.905 103.659C187.905 105.186 187.694 106.353 187.27 107.161C187.073 107.575 186.802 107.905 186.457 108.151C186.112 108.397 185.812 108.55 185.556 108.609C185.3 108.668 185.048 108.703 184.802 108.713C184.546 108.713 184.29 108.683 184.034 108.624C183.777 108.565 183.477 108.407 183.132 108.151C182.787 107.895 182.516 107.565 182.319 107.161C181.896 106.353 181.684 105.186 181.684 103.659C181.684 101.944 181.965 100.639 182.526 99.7425ZM185.851 99.5652C185.556 99.2499 185.206 99.0923 184.802 99.0923C184.388 99.0923 184.034 99.2499 183.738 99.5652C183.492 99.8213 183.329 100.176 183.25 100.629C183.171 101.082 183.132 102.028 183.132 103.467C183.132 105.023 183.171 106.048 183.25 106.54C183.329 107.033 183.506 107.422 183.782 107.708C184.058 108.003 184.398 108.151 184.802 108.151C185.196 108.151 185.531 108.003 185.807 107.708C186.093 107.412 186.27 106.998 186.339 106.466C186.408 105.934 186.447 104.934 186.457 103.467C186.457 102.038 186.418 101.097 186.339 100.644C186.26 100.191 186.098 99.8312 185.851 99.5652Z" fill="#D9EBFF"/>
<path d="M261 188.241C261.014 188.157 261.035 188.046 261.063 187.907C261.091 187.767 261.174 187.502 261.314 187.112C261.453 186.722 261.592 186.395 261.732 186.13C261.871 185.865 262.101 185.607 262.421 185.356C262.742 185.106 263.062 184.987 263.383 185.001C263.885 185.001 264.303 185.127 264.637 185.377C264.971 185.628 265.18 185.865 265.264 186.088C265.348 186.311 265.389 186.457 265.389 186.527C265.389 186.555 265.396 186.569 265.41 186.569L265.64 186.339C266.49 185.447 267.459 185.001 268.546 185.001C269.298 185.001 269.904 185.189 270.364 185.565C270.824 185.942 271.061 186.492 271.075 187.217C271.089 187.941 270.824 189.035 270.281 190.498C269.737 191.962 269.472 192.846 269.486 193.153C269.486 193.515 269.605 193.696 269.842 193.696C269.925 193.696 269.988 193.689 270.03 193.676C270.434 193.606 270.796 193.341 271.117 192.881C271.437 192.421 271.681 191.864 271.848 191.209C271.876 191.098 272.016 191.042 272.266 191.042C272.545 191.042 272.684 191.098 272.684 191.209C272.684 191.223 272.657 191.328 272.601 191.523C272.489 191.927 272.336 192.324 272.141 192.714C271.946 193.104 271.625 193.494 271.179 193.885C270.733 194.275 270.253 194.463 269.737 194.449C269.082 194.449 268.608 194.261 268.316 193.885C268.023 193.508 267.877 193.118 267.877 192.714C267.877 192.449 268.128 191.613 268.629 190.206C269.131 188.798 269.389 187.739 269.403 187.029C269.403 186.206 269.096 185.795 268.483 185.795H268.379C267.18 185.795 266.17 186.499 265.348 187.907L265.201 188.157L264.512 190.958C264.052 192.784 263.787 193.766 263.717 193.905C263.536 194.282 263.237 194.47 262.818 194.47C262.637 194.47 262.491 194.428 262.38 194.344C262.268 194.261 262.191 194.177 262.15 194.094C262.108 194.01 262.094 193.94 262.108 193.885C262.108 193.703 262.373 192.568 262.902 190.477C263.432 188.387 263.71 187.252 263.738 187.07C263.752 187.001 263.759 186.841 263.759 186.59C263.759 186.046 263.592 185.774 263.257 185.774C262.728 185.774 262.289 186.471 261.941 187.865C261.857 188.143 261.815 188.29 261.815 188.304C261.787 188.387 261.655 188.429 261.418 188.429H261.125C261.042 188.345 261 188.283 261 188.241Z" fill="#D9EBFF"/>
<path d="M276.255 188.846L276.063 188.92C275.925 188.969 275.728 189.018 275.472 189.068C275.216 189.117 274.93 189.151 274.615 189.171H274.334V188.491H274.615C275.078 188.472 275.506 188.398 275.901 188.27C276.295 188.142 276.57 188.023 276.728 187.915C276.886 187.807 277.024 187.698 277.142 187.59C277.162 187.56 277.221 187.546 277.319 187.546C277.408 187.546 277.492 187.575 277.57 187.634V192.053L277.585 196.486C277.654 196.555 277.713 196.599 277.763 196.619C277.812 196.639 277.93 196.659 278.117 196.678C278.304 196.698 278.61 196.708 279.033 196.708H279.418V197.388H279.255C279.048 197.358 278.265 197.343 276.905 197.343C275.566 197.343 274.792 197.358 274.585 197.388H274.408V196.708H274.792C275.009 196.708 275.196 196.708 275.354 196.708C275.511 196.708 275.635 196.703 275.723 196.693C275.812 196.683 275.891 196.668 275.96 196.649C276.029 196.629 276.068 196.619 276.078 196.619C276.088 196.619 276.117 196.595 276.167 196.545C276.216 196.496 276.245 196.476 276.255 196.486V188.846Z" fill="#D9EBFF"/>
<path d="M341 233.241C341.014 233.157 341.035 233.046 341.063 232.907C341.091 232.767 341.174 232.502 341.314 232.112C341.453 231.722 341.592 231.395 341.732 231.13C341.871 230.865 342.101 230.607 342.421 230.356C342.742 230.106 343.062 229.987 343.383 230.001C343.885 230.001 344.303 230.127 344.637 230.377C344.971 230.628 345.18 230.865 345.264 231.088C345.348 231.311 345.389 231.457 345.389 231.527C345.389 231.555 345.396 231.569 345.41 231.569L345.64 231.339C346.49 230.447 347.459 230.001 348.546 230.001C349.298 230.001 349.904 230.189 350.364 230.565C350.824 230.942 351.061 231.492 351.075 232.217C351.089 232.941 350.824 234.035 350.281 235.498C349.737 236.962 349.472 237.846 349.486 238.153C349.486 238.515 349.605 238.696 349.842 238.696C349.925 238.696 349.988 238.689 350.03 238.676C350.434 238.606 350.796 238.341 351.117 237.881C351.437 237.421 351.681 236.864 351.848 236.209C351.876 236.098 352.016 236.042 352.266 236.042C352.545 236.042 352.684 236.098 352.684 236.209C352.684 236.223 352.657 236.328 352.601 236.523C352.489 236.927 352.336 237.324 352.141 237.714C351.946 238.104 351.625 238.494 351.179 238.885C350.733 239.275 350.253 239.463 349.737 239.449C349.082 239.449 348.608 239.261 348.316 238.885C348.023 238.508 347.877 238.118 347.877 237.714C347.877 237.449 348.128 236.613 348.629 235.206C349.131 233.798 349.389 232.739 349.403 232.029C349.403 231.206 349.096 230.795 348.483 230.795H348.379C347.18 230.795 346.17 231.499 345.348 232.907L345.201 233.157L344.512 235.958C344.052 237.784 343.787 238.766 343.717 238.905C343.536 239.282 343.237 239.47 342.819 239.47C342.637 239.47 342.491 239.428 342.38 239.344C342.268 239.261 342.191 239.177 342.15 239.094C342.108 239.01 342.094 238.94 342.108 238.885C342.108 238.703 342.373 237.568 342.902 235.477C343.432 233.387 343.71 232.252 343.738 232.07C343.752 232.001 343.759 231.841 343.759 231.59C343.759 231.046 343.592 230.774 343.257 230.774C342.728 230.774 342.289 231.471 341.941 232.865C341.857 233.143 341.815 233.29 341.815 233.304C341.787 233.387 341.655 233.429 341.418 233.429H341.125C341.042 233.345 341 233.283 341 233.241Z" fill="#D9EBFF"/>
<path d="M354.718 236.048C354.452 236.048 354.24 235.959 354.083 235.782C353.925 235.605 353.846 235.388 353.846 235.132C353.846 234.432 354.107 233.826 354.63 233.314C355.152 232.802 355.802 232.546 356.58 232.546C357.477 232.546 358.226 232.821 358.827 233.373C359.428 233.925 359.733 234.639 359.743 235.516C359.743 235.94 359.644 236.343 359.447 236.728C359.25 237.112 359.014 237.447 358.738 237.733C358.462 238.018 358.068 238.383 357.556 238.826C357.201 239.132 356.708 239.585 356.078 240.186L355.206 241.013L356.329 241.028C357.876 241.028 358.698 241.003 358.797 240.954C358.866 240.934 358.984 240.496 359.152 239.639V239.595H359.743V239.639C359.733 239.668 359.669 240.117 359.551 240.984C359.432 241.851 359.359 242.304 359.329 242.343V242.388H353.846V241.929C353.846 241.861 353.876 241.787 353.935 241.708C353.994 241.629 354.142 241.457 354.378 241.191C354.664 240.875 354.91 240.599 355.117 240.363C355.206 240.265 355.373 240.082 355.62 239.816C355.866 239.55 356.034 239.368 356.122 239.269C356.211 239.171 356.354 239.008 356.551 238.782C356.748 238.555 356.886 238.388 356.965 238.279C357.043 238.171 357.157 238.023 357.304 237.836C357.452 237.649 357.556 237.491 357.615 237.363C357.674 237.235 357.748 237.092 357.836 236.935C357.925 236.777 357.989 236.619 358.029 236.462C358.068 236.304 358.102 236.156 358.132 236.018C358.162 235.88 358.176 235.718 358.176 235.531C358.176 234.91 358.009 234.373 357.674 233.92C357.339 233.467 356.861 233.24 356.24 233.24C355.915 233.24 355.63 233.324 355.383 233.491C355.137 233.659 354.965 233.821 354.866 233.979C354.768 234.137 354.718 234.23 354.718 234.26C354.718 234.27 354.743 234.275 354.792 234.275C354.97 234.275 355.152 234.343 355.339 234.481C355.526 234.619 355.62 234.846 355.62 235.161C355.62 235.408 355.541 235.614 355.383 235.782C355.226 235.949 355.004 236.038 354.718 236.048Z" fill="#D9EBFF"/>
<path d="M420 189.241C420.014 189.157 420.035 189.046 420.063 188.907C420.091 188.767 420.174 188.502 420.314 188.112C420.453 187.722 420.592 187.395 420.732 187.13C420.871 186.865 421.101 186.607 421.421 186.356C421.742 186.106 422.062 185.987 422.383 186.001C422.885 186.001 423.303 186.127 423.637 186.377C423.971 186.628 424.18 186.865 424.264 187.088C424.348 187.311 424.389 187.457 424.389 187.527C424.389 187.555 424.396 187.569 424.41 187.569L424.64 187.339C425.49 186.447 426.459 186.001 427.546 186.001C428.298 186.001 428.904 186.189 429.364 186.565C429.824 186.942 430.061 187.492 430.075 188.217C430.089 188.941 429.824 190.035 429.281 191.498C428.737 192.962 428.472 193.846 428.486 194.153C428.486 194.515 428.605 194.696 428.842 194.696C428.925 194.696 428.988 194.689 429.03 194.676C429.434 194.606 429.796 194.341 430.117 193.881C430.437 193.421 430.681 192.864 430.848 192.209C430.876 192.098 431.016 192.042 431.266 192.042C431.545 192.042 431.684 192.098 431.684 192.209C431.684 192.223 431.657 192.328 431.601 192.523C431.489 192.927 431.336 193.324 431.141 193.714C430.946 194.104 430.625 194.494 430.179 194.885C429.733 195.275 429.253 195.463 428.737 195.449C428.082 195.449 427.608 195.261 427.316 194.885C427.023 194.508 426.877 194.118 426.877 193.714C426.877 193.449 427.128 192.613 427.629 191.206C428.131 189.798 428.389 188.739 428.403 188.029C428.403 187.206 428.096 186.795 427.483 186.795H427.379C426.18 186.795 425.17 187.499 424.348 188.907L424.201 189.157L423.512 191.958C423.052 193.784 422.787 194.766 422.717 194.905C422.536 195.282 422.237 195.47 421.818 195.47C421.637 195.47 421.491 195.428 421.38 195.344C421.268 195.261 421.191 195.177 421.15 195.094C421.108 195.01 421.094 194.94 421.108 194.885C421.108 194.703 421.373 193.568 421.902 191.477C422.432 189.387 422.71 188.252 422.738 188.07C422.752 188.001 422.759 187.841 422.759 187.59C422.759 187.046 422.592 186.774 422.257 186.774C421.728 186.774 421.289 187.471 420.941 188.865C420.857 189.143 420.815 189.29 420.815 189.304C420.787 189.387 420.655 189.429 420.418 189.429H420.125C420.042 189.345 420 189.283 420 189.241Z" fill="#D9EBFF"/>
<path d="M433.984 191.545C433.718 191.545 433.511 191.462 433.364 191.294C433.216 191.127 433.137 190.91 433.127 190.644C433.127 190.102 433.364 189.619 433.837 189.196C434.309 188.772 434.881 188.56 435.551 188.56C435.896 188.56 436.112 188.565 436.201 188.575C436.93 188.693 437.487 188.954 437.871 189.358C438.255 189.762 438.452 190.201 438.462 190.674C438.462 191.186 438.295 191.683 437.96 192.166C437.625 192.649 437.162 192.999 436.57 193.215L436.526 193.245C436.526 193.255 436.57 193.27 436.659 193.289C436.748 193.309 436.891 193.353 437.088 193.422C437.285 193.491 437.472 193.595 437.649 193.733C438.457 194.255 438.861 194.944 438.861 195.801C438.861 196.58 438.556 197.26 437.945 197.841C437.334 198.422 436.561 198.713 435.625 198.713C434.836 198.713 434.157 198.501 433.585 198.077C433.014 197.654 432.728 197.117 432.728 196.466C432.728 196.191 432.817 195.969 432.994 195.801C433.172 195.634 433.393 195.545 433.659 195.535C433.935 195.535 434.162 195.624 434.339 195.801C434.516 195.979 434.605 196.2 434.605 196.466C434.605 196.575 434.59 196.673 434.561 196.762C434.531 196.851 434.497 196.93 434.457 196.998C434.418 197.067 434.364 197.127 434.295 197.176C434.226 197.225 434.167 197.264 434.117 197.294C434.068 197.324 434.019 197.343 433.97 197.353C433.92 197.363 433.881 197.378 433.851 197.397L433.792 197.412C434.295 197.856 434.905 198.077 435.625 198.077C436.167 198.077 436.575 197.816 436.851 197.294C437.019 196.969 437.102 196.471 437.102 195.801V195.506C437.102 194.57 436.787 193.944 436.157 193.629C436.009 193.57 435.708 193.536 435.255 193.526L434.635 193.511L434.59 193.481C434.57 193.452 434.561 193.373 434.561 193.245C434.561 193.068 434.6 192.979 434.679 192.979C434.955 192.979 435.24 192.954 435.536 192.905C435.871 192.856 436.176 192.649 436.452 192.284C436.728 191.92 436.866 191.368 436.866 190.629V190.511C436.866 189.949 436.694 189.56 436.349 189.344C436.132 189.206 435.9 189.137 435.654 189.137C435.339 189.137 435.048 189.191 434.782 189.299C434.516 189.408 434.329 189.521 434.221 189.639C434.112 189.757 434.058 189.816 434.058 189.816H434.103C434.132 189.826 434.171 189.836 434.221 189.846C434.27 189.856 434.319 189.88 434.369 189.92C434.418 189.959 434.477 189.994 434.546 190.023C434.615 190.053 434.664 190.107 434.694 190.186C434.723 190.265 434.763 190.339 434.812 190.408C434.861 190.476 434.876 190.575 434.856 190.703C434.856 190.92 434.787 191.112 434.649 191.279C434.511 191.447 434.29 191.536 433.984 191.545Z" fill="#D9EBFF"/>
<path d="M511 100.241C511.014 100.157 511.035 100.046 511.063 99.9065C511.091 99.7672 511.174 99.5024 511.314 99.1122C511.453 98.7221 511.592 98.3946 511.732 98.1298C511.871 97.8651 512.101 97.6073 512.421 97.3564C512.742 97.1056 513.062 96.9872 513.383 97.0011C513.885 97.0011 514.303 97.1265 514.637 97.3773C514.971 97.6282 515.18 97.8651 515.264 98.088C515.348 98.311 515.389 98.4573 515.389 98.527C515.389 98.5548 515.396 98.5688 515.41 98.5688L515.64 98.3388C516.49 97.447 517.459 97.0011 518.546 97.0011C519.298 97.0011 519.904 97.1892 520.364 97.5655C520.824 97.9417 521.061 98.4921 521.075 99.2167C521.089 99.9414 520.824 101.035 520.281 102.498C519.737 103.962 519.472 104.846 519.486 105.153C519.486 105.515 519.605 105.696 519.842 105.696C519.925 105.696 519.988 105.689 520.03 105.676C520.434 105.606 520.796 105.341 521.117 104.881C521.437 104.421 521.681 103.864 521.848 103.209C521.876 103.098 522.016 103.042 522.266 103.042C522.545 103.042 522.684 103.098 522.684 103.209C522.684 103.223 522.657 103.328 522.601 103.523C522.489 103.927 522.336 104.324 522.141 104.714C521.946 105.104 521.625 105.494 521.179 105.885C520.733 106.275 520.253 106.463 519.737 106.449C519.082 106.449 518.608 106.261 518.316 105.885C518.023 105.508 517.877 105.118 517.877 104.714C517.877 104.449 518.128 103.613 518.629 102.206C519.131 100.798 519.389 99.7393 519.403 99.0286C519.403 98.2065 519.096 97.7954 518.483 97.7954H518.379C517.18 97.7954 516.17 98.4991 515.348 99.9065L515.201 100.157L514.512 102.958C514.052 104.784 513.787 105.766 513.717 105.905C513.536 106.282 513.237 106.47 512.818 106.47C512.637 106.47 512.491 106.428 512.38 106.344C512.268 106.261 512.191 106.177 512.15 106.094C512.108 106.01 512.094 105.94 512.108 105.885C512.108 105.703 512.373 104.568 512.902 102.477C513.432 100.387 513.71 99.2516 513.738 99.0704C513.752 99.0008 513.759 98.8405 513.759 98.5897C513.759 98.0462 513.592 97.7745 513.257 97.7745C512.728 97.7745 512.289 98.4712 511.941 99.8647C511.857 100.143 511.815 100.29 511.815 100.304C511.787 100.387 511.655 100.429 511.418 100.429H511.125C511.042 100.345 511 100.283 511 100.241Z" fill="#D9EBFF"/>
<path d="M529.935 109.388C529.758 109.358 529.122 109.343 528.029 109.343C526.886 109.343 526.226 109.358 526.048 109.388H525.915V108.708H526.373C526.57 108.708 526.703 108.708 526.772 108.708C526.841 108.708 526.925 108.698 527.024 108.678C527.122 108.659 527.191 108.634 527.231 108.604C527.27 108.575 527.304 108.535 527.334 108.486C527.344 108.466 527.349 108.2 527.349 107.688V106.949H523.521V106.269L525.753 102.856C527.26 100.57 528.024 99.4224 528.043 99.4125C528.063 99.3928 528.166 99.383 528.354 99.383H528.62L528.708 99.4716V106.269H530.068V106.949H528.708V107.703C528.708 108.107 528.708 108.343 528.708 108.412C528.708 108.481 528.738 108.54 528.797 108.59C528.876 108.659 529.157 108.698 529.639 108.708H530.068V109.388H529.935ZM527.437 106.269V101.334L524.201 106.255L525.812 106.269H527.437Z" fill="#D9EBFF"/>
<path d="M419 11.241C419.014 11.1573 419.035 11.0459 419.063 10.9065C419.091 10.7672 419.174 10.5024 419.314 10.1122C419.453 9.72205 419.592 9.39459 419.732 9.12982C419.871 8.86506 420.101 8.60727 420.421 8.35644C420.742 8.10561 421.062 7.98717 421.383 8.0011C421.885 8.0011 422.303 8.12651 422.637 8.37734C422.971 8.62817 423.18 8.86506 423.264 9.08802C423.348 9.31098 423.389 9.45729 423.389 9.52697C423.389 9.55484 423.396 9.56877 423.41 9.56877L423.64 9.33885C424.49 8.44702 425.459 8.0011 426.546 8.0011C427.298 8.0011 427.904 8.18922 428.364 8.56546C428.824 8.9417 429.061 9.49213 429.075 10.2167C429.089 10.9414 428.824 12.0352 428.281 13.4984C427.737 14.9616 427.472 15.8464 427.486 16.153C427.486 16.5153 427.605 16.6964 427.842 16.6964C427.925 16.6964 427.988 16.6895 428.03 16.6755C428.434 16.6059 428.796 16.3411 429.117 15.8813C429.437 15.4214 429.681 14.864 429.848 14.2091C429.876 14.0976 430.016 14.0419 430.266 14.0419C430.545 14.0419 430.684 14.0976 430.684 14.2091C430.684 14.223 430.657 14.3275 430.601 14.5226C430.489 14.9267 430.336 15.3239 430.141 15.714C429.946 16.1042 429.625 16.4944 429.179 16.8846C428.733 17.2747 428.253 17.4629 427.737 17.4489C427.082 17.4489 426.608 17.2608 426.316 16.8846C426.023 16.5083 425.877 16.1182 425.877 15.714C425.877 15.4493 426.128 14.6132 426.629 13.2058C427.131 11.7983 427.389 10.7393 427.403 10.0286C427.403 9.20647 427.096 8.79539 426.483 8.79539H426.379C425.18 8.79539 424.17 9.4991 423.348 10.9065L423.201 11.1573L422.512 13.9583C422.052 15.7837 421.787 16.7661 421.717 16.9055C421.536 17.2817 421.237 17.4698 420.818 17.4698C420.637 17.4698 420.491 17.428 420.38 17.3444C420.268 17.2608 420.191 17.1772 420.15 17.0936C420.108 17.01 420.094 16.9403 420.108 16.8846C420.108 16.7034 420.373 15.5677 420.902 13.4775C421.432 11.3873 421.71 10.2516 421.738 10.0704C421.752 10.0008 421.759 9.8405 421.759 9.58967C421.759 9.04621 421.592 8.77448 421.257 8.77448C420.728 8.77448 420.289 9.47123 419.941 10.8647C419.857 11.1434 419.815 11.2897 419.815 11.3037C419.787 11.3873 419.655 11.4291 419.418 11.4291H419.125C419.042 11.3455 419 11.2828 419 11.241Z" fill="#D9EBFF"/>
<path d="M433.531 18.0675C433.531 18.3039 433.452 18.501 433.295 18.6586C433.137 18.8162 432.945 18.895 432.718 18.895H432.615C433.068 19.6733 433.669 20.0625 434.418 20.0625C435.107 20.0625 435.61 19.7669 435.925 19.1758C436.112 18.8507 436.206 18.2202 436.206 17.2842C436.206 16.2695 436.073 15.5848 435.807 15.2301C435.551 14.905 435.265 14.7424 434.95 14.7424H434.861C434.093 14.7424 433.511 15.0774 433.117 15.7473C433.078 15.8163 433.043 15.8557 433.014 15.8656C432.984 15.8754 432.91 15.8853 432.792 15.8951C432.625 15.8951 432.531 15.8656 432.511 15.8065C432.492 15.767 432.482 14.905 432.482 13.2203V11.314C432.482 10.8214 432.506 10.5751 432.556 10.5751C432.575 10.5554 432.595 10.5455 432.615 10.5455C432.625 10.5455 432.728 10.5849 432.925 10.6637C433.122 10.7426 433.393 10.8214 433.738 10.9002C434.083 10.979 434.452 11.0184 434.846 11.0184C435.546 11.0184 436.216 10.8805 436.856 10.6046C436.935 10.5652 436.999 10.5455 437.048 10.5455C437.127 10.5455 437.166 10.6342 437.166 10.8115V11.0036C436.359 11.9593 435.349 12.4371 434.137 12.4371C433.832 12.4371 433.556 12.4075 433.309 12.3484L433.162 12.3189V14.8607C433.349 14.7227 433.497 14.6144 433.605 14.5356C433.713 14.4567 433.891 14.3779 434.137 14.2991C434.383 14.2203 434.634 14.1809 434.891 14.1809C435.689 14.1809 436.364 14.5011 436.915 15.1414C437.467 15.7818 437.743 16.5404 437.743 17.4172C437.743 18.3236 437.428 19.097 436.797 19.7374C436.166 20.3778 435.398 20.7029 434.492 20.7127C433.694 20.7127 433.053 20.4467 432.571 19.9147C432.088 19.3827 431.846 18.7817 431.846 18.1118C431.846 17.8754 431.901 17.6882 432.009 17.5502C432.117 17.4123 432.231 17.3237 432.349 17.2842C432.467 17.2448 432.58 17.2251 432.689 17.2251C432.935 17.2251 433.137 17.3089 433.295 17.4764C433.452 17.6438 433.531 17.8409 433.531 18.0675Z" fill="#D9EBFF"/>
<path d="M265 8.24095C265.014 8.15734 265.035 8.04587 265.063 7.90652C265.091 7.76717 265.174 7.50241 265.314 7.11223C265.453 6.72205 265.592 6.39459 265.732 6.12982C265.871 5.86506 266.101 5.60727 266.421 5.35644C266.742 5.10561 267.062 4.98717 267.383 5.0011C267.885 5.0011 268.303 5.12651 268.637 5.37734C268.971 5.62817 269.18 5.86506 269.264 6.08802C269.348 6.31098 269.389 6.45729 269.389 6.52697C269.389 6.55484 269.396 6.56877 269.41 6.56877L269.64 6.33885C270.49 5.44702 271.459 5.0011 272.546 5.0011C273.298 5.0011 273.904 5.18922 274.364 5.56546C274.824 5.9417 275.061 6.49213 275.075 7.21674C275.089 7.94135 274.824 9.03524 274.281 10.4984C273.737 11.9616 273.472 12.8464 273.486 13.153C273.486 13.5153 273.605 13.6964 273.842 13.6964C273.925 13.6964 273.988 13.6895 274.03 13.6755C274.434 13.6059 274.796 13.3411 275.117 12.8813C275.437 12.4214 275.681 11.864 275.848 11.2091C275.876 11.0976 276.015 11.0419 276.266 11.0419C276.545 11.0419 276.684 11.0976 276.684 11.2091C276.684 11.223 276.657 11.3275 276.601 11.5226C276.489 11.9267 276.336 12.3239 276.141 12.714C275.946 13.1042 275.625 13.4944 275.179 13.8846C274.733 14.2747 274.253 14.4629 273.737 14.4489C273.082 14.4489 272.608 14.2608 272.316 13.8846C272.023 13.5083 271.877 13.1182 271.877 12.714C271.877 12.4493 272.128 11.6132 272.629 10.2058C273.131 8.79835 273.389 7.7393 273.403 7.02862C273.403 6.20647 273.096 5.79539 272.483 5.79539H272.379C271.18 5.79539 270.17 6.4991 269.348 7.90652L269.201 8.15734L268.512 10.9583C268.052 12.7837 267.787 13.7661 267.717 13.9055C267.536 14.2817 267.237 14.4698 266.818 14.4698C266.637 14.4698 266.491 14.428 266.38 14.3444C266.268 14.2608 266.191 14.1772 266.15 14.0936C266.108 14.01 266.094 13.9403 266.108 13.8846C266.108 13.7034 266.373 12.5677 266.902 10.4775C267.432 8.38727 267.71 7.25158 267.738 7.07043C267.752 7.00075 267.759 6.8405 267.759 6.58967C267.759 6.04621 267.592 5.77448 267.257 5.77448C266.728 5.77448 266.289 6.47123 265.941 7.86471C265.857 8.14341 265.815 8.28973 265.815 8.30366C265.787 8.38727 265.655 8.42907 265.418 8.42907H265.125C265.042 8.34547 265 8.28276 265 8.24095Z" fill="#D9EBFF"/>
<path d="M277.92 10.6193C277.93 10.5996 278.014 10.0627 278.172 9.00853L278.408 7.42729C278.408 7.40759 278.506 7.39773 278.704 7.39773H278.999V7.45685C278.999 7.55537 279.073 7.63911 279.221 7.70807C279.369 7.77703 279.625 7.82137 279.989 7.84107C280.354 7.86078 281.186 7.87063 282.487 7.87063H284.275V8.44697L283.27 9.82131C283.181 9.93954 283.033 10.1366 282.827 10.4124C282.62 10.6883 282.487 10.8705 282.428 10.9592C282.368 11.0479 282.265 11.2055 282.117 11.4321C281.969 11.6587 281.871 11.836 281.822 11.9641C281.772 12.0922 281.703 12.2744 281.615 12.5109C281.526 12.7473 281.462 12.9739 281.423 13.1907C281.383 13.4074 281.344 13.6734 281.304 13.9887C281.265 14.3039 281.235 14.6389 281.216 14.9936C281.196 15.3483 281.181 15.7522 281.171 16.2054C281.171 16.3433 281.171 16.4812 281.171 16.6192C281.171 16.7571 281.166 16.8753 281.157 16.9738V17.1068C281.117 17.2743 281.024 17.4172 280.876 17.5354C280.728 17.6536 280.561 17.7127 280.373 17.7127C280.265 17.7127 280.162 17.6979 280.063 17.6684C279.965 17.6388 279.861 17.5452 279.753 17.3876C279.644 17.23 279.59 17.0329 279.59 16.7965C279.59 15.2399 280.068 13.6242 281.024 11.9493C281.221 11.6341 281.634 11.038 282.265 10.1612L282.945 9.2302H281.57C279.856 9.2302 278.955 9.25975 278.866 9.31886C278.807 9.34842 278.753 9.46664 278.704 9.67353C278.654 9.88042 278.605 10.0922 278.556 10.309L278.511 10.6193V10.6637H277.92V10.6193Z" fill="#D9EBFF"/>
<path d="M341 86.241C341.014 86.1573 341.035 86.0459 341.063 85.9065C341.091 85.7672 341.174 85.5024 341.314 85.1122C341.453 84.7221 341.592 84.3946 341.732 84.1298C341.871 83.8651 342.101 83.6073 342.421 83.3564C342.742 83.1056 343.062 82.9872 343.383 83.0011C343.885 83.0011 344.303 83.1265 344.637 83.3773C344.971 83.6282 345.18 83.8651 345.264 84.088C345.348 84.311 345.389 84.4573 345.389 84.527C345.389 84.5548 345.396 84.5688 345.41 84.5688L345.64 84.3388C346.49 83.447 347.459 83.0011 348.546 83.0011C349.298 83.0011 349.904 83.1892 350.364 83.5655C350.824 83.9417 351.061 84.4921 351.075 85.2167C351.089 85.9414 350.824 87.0352 350.281 88.4984C349.737 89.9616 349.472 90.8464 349.486 91.153C349.486 91.5153 349.605 91.6964 349.842 91.6964C349.925 91.6964 349.988 91.6895 350.03 91.6755C350.434 91.6059 350.796 91.3411 351.117 90.8813C351.437 90.4214 351.681 89.864 351.848 89.2091C351.876 89.0976 352.016 89.0419 352.266 89.0419C352.545 89.0419 352.684 89.0976 352.684 89.2091C352.684 89.223 352.657 89.3275 352.601 89.5226C352.489 89.9267 352.336 90.3239 352.141 90.714C351.946 91.1042 351.625 91.4944 351.179 91.8846C350.733 92.2747 350.253 92.4629 349.737 92.4489C349.082 92.4489 348.608 92.2608 348.316 91.8846C348.023 91.5083 347.877 91.1182 347.877 90.714C347.877 90.4493 348.128 89.6132 348.629 88.2058C349.131 86.7983 349.389 85.7393 349.403 85.0286C349.403 84.2065 349.096 83.7954 348.483 83.7954H348.379C347.18 83.7954 346.17 84.4991 345.348 85.9065L345.201 86.1573L344.512 88.9583C344.052 90.7837 343.787 91.7661 343.717 91.9055C343.536 92.2817 343.237 92.4698 342.818 92.4698C342.637 92.4698 342.491 92.428 342.38 92.3444C342.268 92.2608 342.191 92.1772 342.15 92.0936C342.108 92.01 342.094 91.9403 342.108 91.8846C342.108 91.7034 342.373 90.5677 342.902 88.4775C343.432 86.3873 343.71 85.2516 343.738 85.0704C343.752 85.0008 343.759 84.8405 343.759 84.5897C343.759 84.0462 343.592 83.7745 343.257 83.7745C342.728 83.7745 342.289 84.4712 341.941 85.8647C341.857 86.1434 341.815 86.2897 341.815 86.3037C341.787 86.3873 341.655 86.4291 341.418 86.4291H341.125C341.042 86.3455 341 86.2828 341 86.241Z" fill="#D9EBFF"/>
<path d="M353.728 90.7621C353.728 89.1563 354.127 87.8853 354.925 86.9494C355.723 86.0135 356.61 85.5455 357.585 85.5455C358.265 85.5455 358.753 85.7228 359.048 86.0775C359.344 86.4322 359.492 86.8263 359.492 87.2598C359.492 87.506 359.423 87.7031 359.285 87.8509C359.147 87.9986 358.955 88.0725 358.708 88.0725C358.482 88.0725 358.295 88.0036 358.147 87.8656C357.999 87.7277 357.925 87.5356 357.925 87.2893C357.925 86.8558 358.157 86.5947 358.62 86.5061C358.403 86.2893 358.098 86.1662 357.703 86.1366C357.004 86.1366 356.428 86.4322 355.974 87.0233C355.511 87.6735 355.28 88.6686 355.28 90.0084L355.295 90.0676C355.344 90.0084 355.383 89.9444 355.413 89.8754C355.817 89.2843 356.344 88.9888 356.994 88.9888H357.053C357.506 88.9888 357.905 89.0824 358.25 89.2695C358.487 89.4075 358.723 89.6045 358.96 89.8607C359.196 90.1168 359.388 90.3976 359.536 90.703C359.743 91.1858 359.846 91.7128 359.846 92.2842V92.5502C359.846 92.7768 359.822 92.9887 359.772 93.1857C359.664 93.767 359.349 94.3334 358.827 94.8852C358.304 95.4369 357.644 95.7127 356.846 95.7127C356.57 95.7127 356.304 95.6733 356.048 95.5945C355.792 95.5157 355.516 95.3679 355.221 95.1512C354.925 94.9344 354.674 94.6438 354.467 94.2793C354.26 93.9147 354.083 93.4369 353.935 92.8458C353.787 92.2547 353.718 91.5601 353.728 90.7621ZM356.905 89.5208C356.61 89.5208 356.354 89.6045 356.137 89.772C355.92 89.9395 355.753 90.1611 355.635 90.437C355.516 90.7129 355.433 90.9936 355.383 91.2793C355.334 91.5651 355.304 91.8705 355.295 92.1956C355.295 93.0133 355.354 93.5995 355.472 93.9541C355.59 94.3088 355.777 94.5945 356.034 94.8113C356.27 94.9886 356.531 95.0773 356.817 95.0773C357.319 95.0773 357.703 94.8901 357.969 94.5157C358.098 94.3384 358.186 94.1167 358.235 93.8507C358.285 93.5847 358.309 93.0675 358.309 92.299C358.309 91.5109 358.285 90.9838 358.235 90.7178C358.186 90.4518 358.098 90.2301 357.969 90.0528C357.703 89.6981 357.349 89.5208 356.905 89.5208Z" fill="#D9EBFF"/>
</svg>
