<svg width="700" height="169" viewBox="0 0 700 169" fill="none" xmlns="http://www.w3.org/2000/svg">
<rect width="700" height="169" fill="#0A0D12"/>
<mask id="mask0_123_193" style="mask-type:alpha" maskUnits="userSpaceOnUse" x="210" y="38" width="141" height="94">
<path d="M210 38V132H350.5V38L210 38Z" fill="#C4C4C4"/>
<path fill-rule="evenodd" clip-rule="evenodd" d="M210 132V38L350.5 38V132H210Z" fill="#C4C4C4"/>
</mask>
<g mask="url(#mask0_123_193)">
<path d="M-33 202.917L326.917 -157M-21.6865 214.231L338.231 -145.686M-10.373 225.545L349.544 -134.373M23.5684 259.486L383.486 -100.431M46.1953 282.113L406.113 -77.8041M34.8818 270.8L394.799 -89.1177M57.5098 293.427L417.427 -66.4904M12.2549 248.172L372.172 -111.745M0.941406 236.858L360.859 -123.059M68.8232 304.741L428.741 -55.1766M80.1367 316.054L440.054 -43.8629M91.4502 327.368L451.368 -32.5493M125.392 361.309L485.309 1.39191M148.02 383.937L507.937 24.0193M136.705 372.623L496.622 12.7056M159.333 395.25L519.25 35.333M114.078 349.996L473.995 -9.92181M102.765 338.682L462.682 -21.2355" stroke="#2D9CDB" stroke-width="2"/>
</g>
<path d="M350.5 9V160M210 132V38.0001L490.5 38V132H210Z" stroke="#B3BFD8" stroke-width="2"/>
<circle cx="210" cy="38" r="5" fill="black" stroke="#D9EBFF" stroke-width="2"/>
<circle cx="490" cy="38" r="5" fill="black" stroke="#D9EBFF" stroke-width="2"/>
<circle cx="210" cy="132" r="5" fill="black" stroke="#D9EBFF" stroke-width="2"/>
<circle cx="491" cy="132" r="5" fill="black" stroke="#D9EBFF" stroke-width="2"/>
<path d="M201 20.241C201.014 20.1573 201.035 20.0459 201.063 19.9065C201.091 19.7672 201.174 19.5024 201.314 19.1122C201.453 18.7221 201.592 18.3946 201.732 18.1298C201.871 17.8651 202.101 17.6073 202.421 17.3564C202.742 17.1056 203.062 16.9872 203.383 17.0011C203.885 17.0011 204.303 17.1265 204.637 17.3773C204.971 17.6282 205.18 17.8651 205.264 18.088C205.348 18.311 205.389 18.4573 205.389 18.527C205.389 18.5548 205.396 18.5688 205.41 18.5688L205.64 18.3388C206.49 17.447 207.459 17.0011 208.546 17.0011C209.298 17.0011 209.904 17.1892 210.364 17.5655C210.824 17.9417 211.061 18.4921 211.075 19.2167C211.089 19.9414 210.824 21.0352 210.281 22.4984C209.737 23.9616 209.472 24.8464 209.486 25.153C209.486 25.5153 209.605 25.6964 209.842 25.6964C209.925 25.6964 209.988 25.6895 210.03 25.6755C210.434 25.6059 210.796 25.3411 211.117 24.8813C211.437 24.4214 211.681 23.864 211.848 23.2091C211.876 23.0976 212.016 23.0419 212.266 23.0419C212.545 23.0419 212.684 23.0976 212.684 23.2091C212.684 23.223 212.657 23.3275 212.601 23.5226C212.489 23.9267 212.336 24.3239 212.141 24.714C211.946 25.1042 211.625 25.4944 211.179 25.8846C210.733 26.2747 210.253 26.4629 209.737 26.4489C209.082 26.4489 208.608 26.2608 208.316 25.8846C208.023 25.5083 207.877 25.1182 207.877 24.714C207.877 24.4493 208.128 23.6132 208.629 22.2058C209.131 20.7983 209.389 19.7393 209.403 19.0286C209.403 18.2065 209.096 17.7954 208.483 17.7954H208.379C207.18 17.7954 206.17 18.4991 205.348 19.9065L205.201 20.1573L204.512 22.9583C204.052 24.7837 203.787 25.7661 203.717 25.9055C203.536 26.2817 203.237 26.4698 202.818 26.4698C202.637 26.4698 202.491 26.428 202.38 26.3444C202.268 26.2608 202.191 26.1772 202.15 26.0936C202.108 26.01 202.094 25.9403 202.108 25.8846C202.108 25.7034 202.373 24.5677 202.902 22.4775C203.432 20.3873 203.71 19.2516 203.738 19.0704C203.752 19.0008 203.759 18.8405 203.759 18.5897C203.759 18.0462 203.592 17.7745 203.257 17.7745C202.728 17.7745 202.289 18.4712 201.941 19.8647C201.857 20.1434 201.815 20.2897 201.815 20.3037C201.787 20.3873 201.655 20.4291 201.418 20.4291H201.125C201.042 20.3455 201 20.2828 201 20.241Z" fill="#D9EBFF"/>
<path d="M214.526 20.7425C215.078 19.9445 215.832 19.5455 216.787 19.5455C217.26 19.5455 217.733 19.6736 218.206 19.9297C218.679 20.1859 219.063 20.6391 219.359 21.2893C219.723 22.107 219.905 23.2301 219.905 24.6587C219.905 26.1857 219.694 27.3532 219.27 28.161C219.073 28.5748 218.802 28.9049 218.457 29.1512C218.112 29.3975 217.812 29.5502 217.556 29.6093C217.3 29.6684 217.048 29.7029 216.802 29.7127C216.546 29.7127 216.29 29.6832 216.034 29.6241C215.777 29.5649 215.477 29.4073 215.132 29.1512C214.787 28.895 214.516 28.565 214.319 28.161C213.896 27.3532 213.684 26.1857 213.684 24.6587C213.684 22.9444 213.965 21.6391 214.526 20.7425ZM217.851 20.5652C217.556 20.2499 217.206 20.0923 216.802 20.0923C216.388 20.0923 216.034 20.2499 215.738 20.5652C215.492 20.8213 215.329 21.176 215.25 21.6292C215.171 22.0824 215.132 23.0282 215.132 24.4666C215.132 26.0232 215.171 27.0478 215.25 27.5404C215.329 28.033 215.506 28.4221 215.782 28.7078C216.058 29.0034 216.398 29.1512 216.802 29.1512C217.196 29.1512 217.531 29.0034 217.807 28.7078C218.093 28.4123 218.27 27.9985 218.339 27.4665C218.408 26.9345 218.447 25.9345 218.457 24.4666C218.457 23.038 218.418 22.0972 218.339 21.644C218.26 21.1908 218.098 20.8312 217.851 20.5652Z" fill="#D9EBFF"/>
<path d="M485 20.241C485.014 20.1573 485.035 20.0459 485.063 19.9065C485.091 19.7672 485.174 19.5024 485.314 19.1122C485.453 18.7221 485.592 18.3946 485.732 18.1298C485.871 17.8651 486.101 17.6073 486.421 17.3564C486.742 17.1056 487.062 16.9872 487.383 17.0011C487.885 17.0011 488.303 17.1265 488.637 17.3773C488.971 17.6282 489.18 17.8651 489.264 18.088C489.348 18.311 489.389 18.4573 489.389 18.527C489.389 18.5548 489.396 18.5688 489.41 18.5688L489.64 18.3388C490.49 17.447 491.459 17.0011 492.546 17.0011C493.298 17.0011 493.904 17.1892 494.364 17.5655C494.824 17.9417 495.061 18.4921 495.075 19.2167C495.089 19.9414 494.824 21.0352 494.281 22.4984C493.737 23.9616 493.472 24.8464 493.486 25.153C493.486 25.5153 493.605 25.6964 493.842 25.6964C493.925 25.6964 493.988 25.6895 494.03 25.6755C494.434 25.6059 494.796 25.3411 495.117 24.8813C495.437 24.4214 495.681 23.864 495.848 23.2091C495.876 23.0976 496.016 23.0419 496.266 23.0419C496.545 23.0419 496.684 23.0976 496.684 23.2091C496.684 23.223 496.657 23.3275 496.601 23.5226C496.489 23.9267 496.336 24.3239 496.141 24.714C495.946 25.1042 495.625 25.4944 495.179 25.8846C494.733 26.2747 494.253 26.4629 493.737 26.4489C493.082 26.4489 492.608 26.2608 492.316 25.8846C492.023 25.5083 491.877 25.1182 491.877 24.714C491.877 24.4493 492.128 23.6132 492.629 22.2058C493.131 20.7983 493.389 19.7393 493.403 19.0286C493.403 18.2065 493.096 17.7954 492.483 17.7954H492.379C491.18 17.7954 490.17 18.4991 489.348 19.9065L489.201 20.1573L488.512 22.9583C488.052 24.7837 487.787 25.7661 487.717 25.9055C487.536 26.2817 487.237 26.4698 486.818 26.4698C486.637 26.4698 486.491 26.428 486.38 26.3444C486.268 26.2608 486.191 26.1772 486.15 26.0936C486.108 26.01 486.094 25.9403 486.108 25.8846C486.108 25.7034 486.373 24.5677 486.902 22.4775C487.432 20.3873 487.71 19.2516 487.738 19.0704C487.752 19.0008 487.759 18.8405 487.759 18.5897C487.759 18.0462 487.592 17.7745 487.257 17.7745C486.728 17.7745 486.289 18.4712 485.941 19.8647C485.857 20.1434 485.815 20.2897 485.815 20.3037C485.787 20.3873 485.655 20.4291 485.418 20.4291H485.125C485.042 20.3455 485 20.2828 485 20.241Z" fill="#D9EBFF"/>
<path d="M500.255 20.846L500.063 20.9199C499.925 20.9691 499.728 21.0184 499.472 21.0676C499.216 21.1169 498.93 21.1514 498.615 21.1711H498.334V20.4913H498.615C499.078 20.4716 499.506 20.3977 499.901 20.2696C500.295 20.1416 500.57 20.0233 500.728 19.915C500.886 19.8066 501.024 19.6982 501.142 19.5898C501.162 19.5603 501.221 19.5455 501.319 19.5455C501.408 19.5455 501.492 19.5751 501.57 19.6342V24.0528L501.585 28.4862C501.654 28.5551 501.713 28.5994 501.763 28.6192C501.812 28.6389 501.93 28.6586 502.117 28.6783C502.304 28.698 502.61 28.7078 503.033 28.7078H503.418V29.3876H503.255C503.048 29.358 502.265 29.3433 500.905 29.3433C499.566 29.3433 498.792 29.358 498.585 29.3876H498.408V28.7078H498.792C499.009 28.7078 499.196 28.7078 499.354 28.7078C499.511 28.7078 499.635 28.7029 499.723 28.693C499.812 28.6832 499.891 28.6684 499.96 28.6487C500.029 28.629 500.068 28.6192 500.078 28.6192C500.088 28.6192 500.117 28.5945 500.167 28.5453C500.216 28.496 500.245 28.4763 500.255 28.4862V20.846Z" fill="#D9EBFF"/>
<path d="M482 144.241C482.014 144.157 482.035 144.046 482.063 143.907C482.091 143.767 482.174 143.502 482.314 143.112C482.453 142.722 482.592 142.395 482.732 142.13C482.871 141.865 483.101 141.607 483.421 141.356C483.742 141.106 484.062 140.987 484.383 141.001C484.885 141.001 485.303 141.127 485.637 141.377C485.971 141.628 486.18 141.865 486.264 142.088C486.348 142.311 486.389 142.457 486.389 142.527C486.389 142.555 486.396 142.569 486.41 142.569L486.64 142.339C487.49 141.447 488.459 141.001 489.546 141.001C490.298 141.001 490.904 141.189 491.364 141.565C491.824 141.942 492.061 142.492 492.075 143.217C492.089 143.941 491.824 145.035 491.281 146.498C490.737 147.962 490.472 148.846 490.486 149.153C490.486 149.515 490.605 149.696 490.842 149.696C490.925 149.696 490.988 149.689 491.03 149.676C491.434 149.606 491.796 149.341 492.117 148.881C492.437 148.421 492.681 147.864 492.848 147.209C492.876 147.098 493.016 147.042 493.266 147.042C493.545 147.042 493.684 147.098 493.684 147.209C493.684 147.223 493.657 147.328 493.601 147.523C493.489 147.927 493.336 148.324 493.141 148.714C492.946 149.104 492.625 149.494 492.179 149.885C491.733 150.275 491.253 150.463 490.737 150.449C490.082 150.449 489.608 150.261 489.316 149.885C489.023 149.508 488.877 149.118 488.877 148.714C488.877 148.449 489.128 147.613 489.629 146.206C490.131 144.798 490.389 143.739 490.403 143.029C490.403 142.206 490.096 141.795 489.483 141.795H489.379C488.18 141.795 487.17 142.499 486.348 143.907L486.201 144.157L485.512 146.958C485.052 148.784 484.787 149.766 484.717 149.905C484.536 150.282 484.237 150.47 483.819 150.47C483.637 150.47 483.491 150.428 483.38 150.344C483.268 150.261 483.191 150.177 483.15 150.094C483.108 150.01 483.094 149.94 483.108 149.885C483.108 149.703 483.373 148.568 483.902 146.477C484.432 144.387 484.71 143.252 484.738 143.07C484.752 143.001 484.759 142.841 484.759 142.59C484.759 142.046 484.592 141.774 484.257 141.774C483.728 141.774 483.289 142.471 482.941 143.865C482.857 144.143 482.815 144.29 482.815 144.304C482.787 144.387 482.655 144.429 482.418 144.429H482.125C482.042 144.345 482 144.283 482 144.241Z" fill="#D9EBFF"/>
<path d="M495.718 147.048C495.452 147.048 495.24 146.959 495.083 146.782C494.925 146.605 494.846 146.388 494.846 146.132C494.846 145.432 495.107 144.826 495.63 144.314C496.152 143.802 496.802 143.546 497.58 143.546C498.477 143.546 499.226 143.821 499.827 144.373C500.428 144.925 500.733 145.639 500.743 146.516C500.743 146.94 500.644 147.343 500.447 147.728C500.25 148.112 500.014 148.447 499.738 148.733C499.462 149.018 499.068 149.383 498.556 149.826C498.201 150.132 497.708 150.585 497.078 151.186L496.206 152.013L497.329 152.028C498.876 152.028 499.698 152.003 499.797 151.954C499.866 151.934 499.984 151.496 500.152 150.639V150.595H500.743V150.639C500.733 150.668 500.669 151.117 500.551 151.984C500.432 152.851 500.359 153.304 500.329 153.343V153.388H494.846V152.929C494.846 152.861 494.876 152.787 494.935 152.708C494.994 152.629 495.142 152.457 495.378 152.191C495.664 151.875 495.91 151.599 496.117 151.363C496.206 151.265 496.373 151.082 496.62 150.816C496.866 150.55 497.034 150.368 497.122 150.269C497.211 150.171 497.354 150.008 497.551 149.782C497.748 149.555 497.886 149.388 497.965 149.279C498.043 149.171 498.157 149.023 498.304 148.836C498.452 148.649 498.556 148.491 498.615 148.363C498.674 148.235 498.748 148.092 498.836 147.935C498.925 147.777 498.989 147.619 499.029 147.462C499.068 147.304 499.102 147.156 499.132 147.018C499.162 146.88 499.176 146.718 499.176 146.531C499.176 145.91 499.009 145.373 498.674 144.92C498.339 144.467 497.861 144.24 497.24 144.24C496.915 144.24 496.63 144.324 496.383 144.491C496.137 144.659 495.965 144.821 495.866 144.979C495.768 145.137 495.718 145.23 495.718 145.26C495.718 145.27 495.743 145.275 495.792 145.275C495.97 145.275 496.152 145.343 496.339 145.481C496.526 145.619 496.62 145.846 496.62 146.161C496.62 146.408 496.541 146.614 496.383 146.782C496.226 146.949 496.004 147.038 495.718 147.048Z" fill="#D9EBFF"/>
<path d="M201 146.241C201.014 146.157 201.035 146.046 201.063 145.907C201.091 145.767 201.174 145.502 201.314 145.112C201.453 144.722 201.592 144.395 201.732 144.13C201.871 143.865 202.101 143.607 202.421 143.356C202.742 143.106 203.062 142.987 203.383 143.001C203.885 143.001 204.303 143.127 204.637 143.377C204.971 143.628 205.18 143.865 205.264 144.088C205.348 144.311 205.389 144.457 205.389 144.527C205.389 144.555 205.396 144.569 205.41 144.569L205.64 144.339C206.49 143.447 207.459 143.001 208.546 143.001C209.298 143.001 209.904 143.189 210.364 143.565C210.824 143.942 211.061 144.492 211.075 145.217C211.089 145.941 210.824 147.035 210.281 148.498C209.737 149.962 209.472 150.846 209.486 151.153C209.486 151.515 209.605 151.696 209.842 151.696C209.925 151.696 209.988 151.689 210.03 151.676C210.434 151.606 210.796 151.341 211.117 150.881C211.437 150.421 211.681 149.864 211.848 149.209C211.876 149.098 212.016 149.042 212.266 149.042C212.545 149.042 212.684 149.098 212.684 149.209C212.684 149.223 212.657 149.328 212.601 149.523C212.489 149.927 212.336 150.324 212.141 150.714C211.946 151.104 211.625 151.494 211.179 151.885C210.733 152.275 210.253 152.463 209.737 152.449C209.082 152.449 208.608 152.261 208.316 151.885C208.023 151.508 207.877 151.118 207.877 150.714C207.877 150.449 208.128 149.613 208.629 148.206C209.131 146.798 209.389 145.739 209.403 145.029C209.403 144.206 209.096 143.795 208.483 143.795H208.379C207.18 143.795 206.17 144.499 205.348 145.907L205.201 146.157L204.512 148.958C204.052 150.784 203.787 151.766 203.717 151.905C203.536 152.282 203.237 152.47 202.818 152.47C202.637 152.47 202.491 152.428 202.38 152.344C202.268 152.261 202.191 152.177 202.15 152.094C202.108 152.01 202.094 151.94 202.108 151.885C202.108 151.703 202.373 150.568 202.902 148.477C203.432 146.387 203.71 145.252 203.738 145.07C203.752 145.001 203.759 144.841 203.759 144.59C203.759 144.046 203.592 143.774 203.257 143.774C202.728 143.774 202.289 144.471 201.941 145.865C201.857 146.143 201.815 146.29 201.815 146.304C201.787 146.387 201.655 146.429 201.418 146.429H201.125C201.042 146.345 201 146.283 201 146.241Z" fill="#D9EBFF"/>
<path d="M214.984 148.545C214.718 148.545 214.511 148.462 214.364 148.294C214.216 148.127 214.137 147.91 214.127 147.644C214.127 147.102 214.364 146.619 214.837 146.196C215.309 145.772 215.881 145.56 216.551 145.56C216.896 145.56 217.112 145.565 217.201 145.575C217.93 145.693 218.487 145.954 218.871 146.358C219.255 146.762 219.452 147.201 219.462 147.674C219.462 148.186 219.295 148.683 218.96 149.166C218.625 149.649 218.162 149.999 217.57 150.215L217.526 150.245C217.526 150.255 217.57 150.27 217.659 150.289C217.748 150.309 217.891 150.353 218.088 150.422C218.285 150.491 218.472 150.595 218.649 150.733C219.457 151.255 219.861 151.944 219.861 152.801C219.861 153.58 219.556 154.26 218.945 154.841C218.334 155.422 217.561 155.713 216.625 155.713C215.836 155.713 215.157 155.501 214.585 155.077C214.014 154.654 213.728 154.117 213.728 153.466C213.728 153.191 213.817 152.969 213.994 152.801C214.172 152.634 214.393 152.545 214.659 152.535C214.935 152.535 215.162 152.624 215.339 152.801C215.516 152.979 215.605 153.2 215.605 153.466C215.605 153.575 215.59 153.673 215.561 153.762C215.531 153.851 215.497 153.93 215.457 153.998C215.418 154.067 215.364 154.127 215.295 154.176C215.226 154.225 215.167 154.264 215.117 154.294C215.068 154.324 215.019 154.343 214.97 154.353C214.92 154.363 214.881 154.378 214.851 154.397L214.792 154.412C215.295 154.856 215.905 155.077 216.625 155.077C217.167 155.077 217.575 154.816 217.851 154.294C218.019 153.969 218.102 153.471 218.102 152.801V152.506C218.102 151.57 217.787 150.944 217.157 150.629C217.009 150.57 216.708 150.536 216.255 150.526L215.635 150.511L215.59 150.481C215.57 150.452 215.561 150.373 215.561 150.245C215.561 150.068 215.6 149.979 215.679 149.979C215.955 149.979 216.24 149.954 216.536 149.905C216.871 149.856 217.176 149.649 217.452 149.284C217.728 148.92 217.866 148.368 217.866 147.629V147.511C217.866 146.949 217.694 146.56 217.349 146.344C217.132 146.206 216.9 146.137 216.654 146.137C216.339 146.137 216.048 146.191 215.782 146.299C215.516 146.408 215.329 146.521 215.221 146.639C215.112 146.757 215.058 146.816 215.058 146.816H215.103C215.132 146.826 215.171 146.836 215.221 146.846C215.27 146.856 215.319 146.88 215.369 146.92C215.418 146.959 215.477 146.994 215.546 147.023C215.615 147.053 215.664 147.107 215.694 147.186C215.723 147.265 215.763 147.339 215.812 147.408C215.861 147.476 215.876 147.575 215.856 147.703C215.856 147.92 215.787 148.112 215.649 148.279C215.511 148.447 215.29 148.536 214.984 148.545Z" fill="#D9EBFF"/>
<path d="M327 137.411C327 144.955 321.141 151 314 151C306.859 151 301 144.955 301 137.411C301 134.059 303.074 130.21 305.94 126.441C308.51 123.061 311.583 119.91 313.991 117.442C313.994 117.439 313.997 117.436 314 117.433C314.003 117.436 314.006 117.439 314.009 117.442C316.417 119.91 319.49 123.061 322.06 126.441C324.926 130.21 327 134.059 327 137.411Z" fill="#0A0D12" stroke="#D9EBFF" stroke-width="2"/>
<line x1="307" y1="138" x2="321" y2="138" stroke="#D9EBFF" stroke-width="2"/>
<line x1="314" y1="131" x2="314" y2="145" stroke="#D9EBFF" stroke-width="2"/>
<circle cx="351" cy="10" r="5" fill="black" stroke="#D9EBFF" stroke-width="2"/>
<circle cx="351" cy="160" r="5" fill="black" stroke="#D9EBFF" stroke-width="2"/>
<path d="M361 8.24095C361.014 8.15734 361.035 8.04587 361.063 7.90652C361.091 7.76717 361.174 7.50241 361.314 7.11223C361.453 6.72205 361.592 6.39459 361.732 6.12982C361.871 5.86506 362.101 5.60727 362.421 5.35644C362.742 5.10561 363.062 4.98717 363.383 5.0011C363.885 5.0011 364.303 5.12651 364.637 5.37734C364.971 5.62817 365.18 5.86506 365.264 6.08802C365.348 6.31098 365.389 6.45729 365.389 6.52697C365.389 6.55484 365.396 6.56877 365.41 6.56877L365.64 6.33885C366.49 5.44702 367.459 5.0011 368.546 5.0011C369.298 5.0011 369.904 5.18922 370.364 5.56546C370.824 5.9417 371.061 6.49213 371.075 7.21674C371.089 7.94135 370.824 9.03524 370.281 10.4984C369.737 11.9616 369.472 12.8464 369.486 13.153C369.486 13.5153 369.605 13.6964 369.842 13.6964C369.925 13.6964 369.988 13.6895 370.03 13.6755C370.434 13.6059 370.796 13.3411 371.117 12.8813C371.437 12.4214 371.681 11.864 371.848 11.2091C371.876 11.0976 372.016 11.0419 372.266 11.0419C372.545 11.0419 372.684 11.0976 372.684 11.2091C372.684 11.223 372.657 11.3275 372.601 11.5226C372.489 11.9267 372.336 12.3239 372.141 12.714C371.946 13.1042 371.625 13.4944 371.179 13.8846C370.733 14.2747 370.253 14.4629 369.737 14.4489C369.082 14.4489 368.608 14.2608 368.316 13.8846C368.023 13.5083 367.877 13.1182 367.877 12.714C367.877 12.4493 368.128 11.6132 368.629 10.2058C369.131 8.79835 369.389 7.7393 369.403 7.02862C369.403 6.20647 369.096 5.79539 368.483 5.79539H368.379C367.18 5.79539 366.17 6.4991 365.348 7.90652L365.201 8.15734L364.512 10.9583C364.052 12.7837 363.787 13.7661 363.717 13.9055C363.536 14.2817 363.237 14.4698 362.818 14.4698C362.637 14.4698 362.491 14.428 362.38 14.3444C362.268 14.2608 362.191 14.1772 362.15 14.0936C362.108 14.01 362.094 13.9403 362.108 13.8846C362.108 13.7034 362.373 12.5677 362.902 10.4775C363.432 8.38727 363.71 7.25158 363.738 7.07043C363.752 7.00075 363.759 6.8405 363.759 6.58967C363.759 6.04621 363.592 5.77448 363.257 5.77448C362.728 5.77448 362.289 6.47123 361.941 7.86471C361.857 8.14341 361.815 8.28973 361.815 8.30366C361.787 8.38727 361.655 8.42907 361.418 8.42907H361.125C361.042 8.34547 361 8.28276 361 8.24095Z" fill="#D9EBFF"/>
<path d="M379.935 17.3876C379.758 17.358 379.122 17.3433 378.029 17.3433C376.886 17.3433 376.226 17.358 376.048 17.3876H375.915V16.7078H376.373C376.57 16.7078 376.703 16.7078 376.772 16.7078C376.841 16.7078 376.925 16.698 377.024 16.6783C377.122 16.6586 377.191 16.6339 377.231 16.6044C377.27 16.5748 377.304 16.5354 377.334 16.4862C377.344 16.4664 377.349 16.2004 377.349 15.6881V14.9492H373.521V14.2695L375.753 10.8558C377.26 8.57011 378.024 7.42236 378.043 7.41251C378.063 7.39281 378.166 7.38296 378.354 7.38296H378.62L378.708 7.47162V14.2695H380.068V14.9492H378.708V15.7029C378.708 16.1069 378.708 16.3433 378.708 16.4123C378.708 16.4812 378.738 16.5403 378.797 16.5896C378.876 16.6586 379.157 16.698 379.639 16.7078H380.068V17.3876H379.935ZM377.437 14.2695V9.33364L374.201 14.2547L375.812 14.2695H377.437Z" fill="#D9EBFF"/>
<path d="M361 156.241C361.014 156.157 361.035 156.046 361.063 155.907C361.091 155.767 361.174 155.502 361.314 155.112C361.453 154.722 361.592 154.395 361.732 154.13C361.871 153.865 362.101 153.607 362.421 153.356C362.742 153.106 363.062 152.987 363.383 153.001C363.885 153.001 364.303 153.127 364.637 153.377C364.971 153.628 365.18 153.865 365.264 154.088C365.348 154.311 365.389 154.457 365.389 154.527C365.389 154.555 365.396 154.569 365.41 154.569L365.64 154.339C366.49 153.447 367.459 153.001 368.546 153.001C369.298 153.001 369.904 153.189 370.364 153.565C370.824 153.942 371.061 154.492 371.075 155.217C371.089 155.941 370.824 157.035 370.281 158.498C369.737 159.962 369.472 160.846 369.486 161.153C369.486 161.515 369.605 161.696 369.842 161.696C369.925 161.696 369.988 161.689 370.03 161.676C370.434 161.606 370.796 161.341 371.117 160.881C371.437 160.421 371.681 159.864 371.848 159.209C371.876 159.098 372.016 159.042 372.266 159.042C372.545 159.042 372.684 159.098 372.684 159.209C372.684 159.223 372.657 159.328 372.601 159.523C372.489 159.927 372.336 160.324 372.141 160.714C371.946 161.104 371.625 161.494 371.179 161.885C370.733 162.275 370.253 162.463 369.737 162.449C369.082 162.449 368.608 162.261 368.316 161.885C368.023 161.508 367.877 161.118 367.877 160.714C367.877 160.449 368.128 159.613 368.629 158.206C369.131 156.798 369.389 155.739 369.403 155.029C369.403 154.206 369.096 153.795 368.483 153.795H368.379C367.18 153.795 366.17 154.499 365.348 155.907L365.201 156.157L364.512 158.958C364.052 160.784 363.787 161.766 363.717 161.905C363.536 162.282 363.237 162.47 362.818 162.47C362.637 162.47 362.491 162.428 362.38 162.344C362.268 162.261 362.191 162.177 362.15 162.094C362.108 162.01 362.094 161.94 362.108 161.885C362.108 161.703 362.373 160.568 362.902 158.477C363.432 156.387 363.71 155.252 363.738 155.07C363.752 155.001 363.759 154.841 363.759 154.59C363.759 154.046 363.592 153.774 363.257 153.774C362.728 153.774 362.289 154.471 361.941 155.865C361.857 156.143 361.815 156.29 361.815 156.304C361.787 156.387 361.655 156.429 361.418 156.429H361.125C361.042 156.345 361 156.283 361 156.241Z" fill="#D9EBFF"/>
<path d="M375.531 163.067C375.531 163.304 375.452 163.501 375.295 163.659C375.137 163.816 374.945 163.895 374.718 163.895H374.615C375.068 164.673 375.669 165.062 376.418 165.062C377.107 165.062 377.61 164.767 377.925 164.176C378.112 163.851 378.206 163.22 378.206 162.284C378.206 161.269 378.073 160.585 377.807 160.23C377.551 159.905 377.265 159.742 376.95 159.742H376.861C376.093 159.742 375.511 160.077 375.117 160.747C375.078 160.816 375.043 160.856 375.014 160.866C374.984 160.875 374.91 160.885 374.792 160.895C374.625 160.895 374.531 160.866 374.511 160.806C374.492 160.767 374.482 159.905 374.482 158.22V156.314C374.482 155.821 374.506 155.575 374.556 155.575C374.575 155.555 374.595 155.546 374.615 155.546C374.625 155.546 374.728 155.585 374.925 155.664C375.122 155.743 375.393 155.821 375.738 155.9C376.083 155.979 376.452 156.018 376.846 156.018C377.546 156.018 378.216 155.88 378.856 155.605C378.935 155.565 378.999 155.546 379.048 155.546C379.127 155.546 379.166 155.634 379.166 155.812V156.004C378.359 156.959 377.349 157.437 376.137 157.437C375.832 157.437 375.556 157.408 375.309 157.348L375.162 157.319V159.861C375.349 159.723 375.497 159.614 375.605 159.536C375.713 159.457 375.891 159.378 376.137 159.299C376.383 159.22 376.634 159.181 376.891 159.181C377.689 159.181 378.364 159.501 378.915 160.141C379.467 160.782 379.743 161.54 379.743 162.417C379.743 163.324 379.428 164.097 378.797 164.737C378.166 165.378 377.398 165.703 376.492 165.713C375.694 165.713 375.053 165.447 374.571 164.915C374.088 164.383 373.846 163.782 373.846 163.112C373.846 162.875 373.901 162.688 374.009 162.55C374.117 162.412 374.231 162.324 374.349 162.284C374.467 162.245 374.58 162.225 374.689 162.225C374.935 162.225 375.137 162.309 375.295 162.476C375.452 162.644 375.531 162.841 375.531 163.067Z" fill="#D9EBFF"/>
</svg>
