<svg width="700" height="171" viewBox="0 0 700 171" fill="none" xmlns="http://www.w3.org/2000/svg">
<rect width="700" height="171" fill="#0A0D12"/>
<path d="M210 39V133H350.5V39L210 39Z" fill="#0E4559"/>
<path fill-rule="evenodd" clip-rule="evenodd" d="M210 133V39L350.5 39V133H210Z" fill="#0E4559"/>
<path d="M350.5 10V161M210 133V39.0001L490.5 39V133H210Z" stroke="#B3BFD8" stroke-width="2"/>
<circle cx="210" cy="39" r="5" fill="black" stroke="#D9EBFF" stroke-width="2"/>
<circle cx="490" cy="39" r="5" fill="black" stroke="#D9EBFF" stroke-width="2"/>
<circle cx="210" cy="133" r="5" fill="black" stroke="#D9EBFF" stroke-width="2"/>
<circle cx="491" cy="133" r="5" fill="black" stroke="#D9EBFF" stroke-width="2"/>
<path d="M201 21.241C201.014 21.1573 201.035 21.0459 201.063 20.9065C201.091 20.7672 201.174 20.5024 201.314 20.1122C201.453 19.7221 201.592 19.3946 201.732 19.1298C201.871 18.8651 202.101 18.6073 202.421 18.3564C202.742 18.1056 203.062 17.9872 203.383 18.0011C203.885 18.0011 204.303 18.1265 204.637 18.3773C204.971 18.6282 205.18 18.8651 205.264 19.088C205.348 19.311 205.389 19.4573 205.389 19.527C205.389 19.5548 205.396 19.5688 205.41 19.5688L205.64 19.3388C206.49 18.447 207.459 18.0011 208.546 18.0011C209.298 18.0011 209.904 18.1892 210.364 18.5655C210.824 18.9417 211.061 19.4921 211.075 20.2167C211.089 20.9414 210.824 22.0352 210.281 23.4984C209.737 24.9616 209.472 25.8464 209.486 26.153C209.486 26.5153 209.605 26.6964 209.842 26.6964C209.925 26.6964 209.988 26.6895 210.03 26.6755C210.434 26.6059 210.796 26.3411 211.117 25.8813C211.437 25.4214 211.681 24.864 211.848 24.2091C211.876 24.0976 212.016 24.0419 212.266 24.0419C212.545 24.0419 212.684 24.0976 212.684 24.2091C212.684 24.223 212.657 24.3275 212.601 24.5226C212.489 24.9267 212.336 25.3239 212.141 25.714C211.946 26.1042 211.625 26.4944 211.179 26.8846C210.733 27.2747 210.253 27.4629 209.737 27.4489C209.082 27.4489 208.608 27.2608 208.316 26.8846C208.023 26.5083 207.877 26.1182 207.877 25.714C207.877 25.4493 208.128 24.6132 208.629 23.2058C209.131 21.7983 209.389 20.7393 209.403 20.0286C209.403 19.2065 209.096 18.7954 208.483 18.7954H208.379C207.18 18.7954 206.17 19.4991 205.348 20.9065L205.201 21.1573L204.512 23.9583C204.052 25.7837 203.787 26.7661 203.717 26.9055C203.536 27.2817 203.237 27.4698 202.818 27.4698C202.637 27.4698 202.491 27.428 202.38 27.3444C202.268 27.2608 202.191 27.1772 202.15 27.0936C202.108 27.01 202.094 26.9403 202.108 26.8846C202.108 26.7034 202.373 25.5677 202.902 23.4775C203.432 21.3873 203.71 20.2516 203.738 20.0704C203.752 20.0008 203.759 19.8405 203.759 19.5897C203.759 19.0462 203.592 18.7745 203.257 18.7745C202.728 18.7745 202.289 19.4712 201.941 20.8647C201.857 21.1434 201.815 21.2897 201.815 21.3037C201.787 21.3873 201.655 21.4291 201.418 21.4291H201.125C201.042 21.3455 201 21.2828 201 21.241Z" fill="#D9EBFF"/>
<path d="M214.526 21.7425C215.078 20.9445 215.832 20.5455 216.787 20.5455C217.26 20.5455 217.733 20.6736 218.206 20.9297C218.679 21.1859 219.063 21.6391 219.359 22.2893C219.723 23.107 219.905 24.2301 219.905 25.6587C219.905 27.1857 219.694 28.3532 219.27 29.161C219.073 29.5748 218.802 29.9049 218.457 30.1512C218.112 30.3975 217.812 30.5502 217.556 30.6093C217.3 30.6684 217.048 30.7029 216.802 30.7127C216.546 30.7127 216.29 30.6832 216.034 30.6241C215.777 30.5649 215.477 30.4073 215.132 30.1512C214.787 29.895 214.516 29.565 214.319 29.161C213.896 28.3532 213.684 27.1857 213.684 25.6587C213.684 23.9444 213.965 22.6391 214.526 21.7425ZM217.851 21.5652C217.556 21.2499 217.206 21.0923 216.802 21.0923C216.388 21.0923 216.034 21.2499 215.738 21.5652C215.492 21.8213 215.329 22.176 215.25 22.6292C215.171 23.0824 215.132 24.0282 215.132 25.4666C215.132 27.0232 215.171 28.0478 215.25 28.5404C215.329 29.033 215.506 29.4221 215.782 29.7078C216.058 30.0034 216.398 30.1512 216.802 30.1512C217.196 30.1512 217.531 30.0034 217.807 29.7078C218.093 29.4123 218.27 28.9985 218.339 28.4665C218.408 27.9345 218.447 26.9345 218.457 25.4666C218.457 24.038 218.418 23.0972 218.339 22.644C218.26 22.1908 218.098 21.8312 217.851 21.5652Z" fill="#D9EBFF"/>
<path d="M485 21.241C485.014 21.1573 485.035 21.0459 485.063 20.9065C485.091 20.7672 485.174 20.5024 485.314 20.1122C485.453 19.7221 485.592 19.3946 485.732 19.1298C485.871 18.8651 486.101 18.6073 486.421 18.3564C486.742 18.1056 487.062 17.9872 487.383 18.0011C487.885 18.0011 488.303 18.1265 488.637 18.3773C488.971 18.6282 489.18 18.8651 489.264 19.088C489.348 19.311 489.389 19.4573 489.389 19.527C489.389 19.5548 489.396 19.5688 489.41 19.5688L489.64 19.3388C490.49 18.447 491.459 18.0011 492.546 18.0011C493.298 18.0011 493.904 18.1892 494.364 18.5655C494.824 18.9417 495.061 19.4921 495.075 20.2167C495.089 20.9414 494.824 22.0352 494.281 23.4984C493.737 24.9616 493.472 25.8464 493.486 26.153C493.486 26.5153 493.605 26.6964 493.842 26.6964C493.925 26.6964 493.988 26.6895 494.03 26.6755C494.434 26.6059 494.796 26.3411 495.117 25.8813C495.437 25.4214 495.681 24.864 495.848 24.2091C495.876 24.0976 496.016 24.0419 496.266 24.0419C496.545 24.0419 496.684 24.0976 496.684 24.2091C496.684 24.223 496.657 24.3275 496.601 24.5226C496.489 24.9267 496.336 25.3239 496.141 25.714C495.946 26.1042 495.625 26.4944 495.179 26.8846C494.733 27.2747 494.253 27.4629 493.737 27.4489C493.082 27.4489 492.608 27.2608 492.316 26.8846C492.023 26.5083 491.877 26.1182 491.877 25.714C491.877 25.4493 492.128 24.6132 492.629 23.2058C493.131 21.7983 493.389 20.7393 493.403 20.0286C493.403 19.2065 493.096 18.7954 492.483 18.7954H492.379C491.18 18.7954 490.17 19.4991 489.348 20.9065L489.201 21.1573L488.512 23.9583C488.052 25.7837 487.787 26.7661 487.717 26.9055C487.536 27.2817 487.237 27.4698 486.818 27.4698C486.637 27.4698 486.491 27.428 486.38 27.3444C486.268 27.2608 486.191 27.1772 486.15 27.0936C486.108 27.01 486.094 26.9403 486.108 26.8846C486.108 26.7034 486.373 25.5677 486.902 23.4775C487.432 21.3873 487.71 20.2516 487.738 20.0704C487.752 20.0008 487.759 19.8405 487.759 19.5897C487.759 19.0462 487.592 18.7745 487.257 18.7745C486.728 18.7745 486.289 19.4712 485.941 20.8647C485.857 21.1434 485.815 21.2897 485.815 21.3037C485.787 21.3873 485.655 21.4291 485.418 21.4291H485.125C485.042 21.3455 485 21.2828 485 21.241Z" fill="#D9EBFF"/>
<path d="M500.255 21.846L500.063 21.9199C499.925 21.9691 499.728 22.0184 499.472 22.0676C499.216 22.1169 498.93 22.1514 498.615 22.1711H498.334V21.4913H498.615C499.078 21.4716 499.506 21.3977 499.901 21.2696C500.295 21.1416 500.57 21.0233 500.728 20.915C500.886 20.8066 501.024 20.6982 501.142 20.5898C501.162 20.5603 501.221 20.5455 501.319 20.5455C501.408 20.5455 501.492 20.5751 501.57 20.6342V25.0528L501.585 29.4862C501.654 29.5551 501.713 29.5994 501.763 29.6192C501.812 29.6389 501.93 29.6586 502.117 29.6783C502.304 29.698 502.61 29.7078 503.033 29.7078H503.418V30.3876H503.255C503.048 30.358 502.265 30.3433 500.905 30.3433C499.566 30.3433 498.792 30.358 498.585 30.3876H498.408V29.7078H498.792C499.009 29.7078 499.196 29.7078 499.354 29.7078C499.511 29.7078 499.635 29.7029 499.723 29.693C499.812 29.6832 499.891 29.6684 499.96 29.6487C500.029 29.629 500.068 29.6192 500.078 29.6192C500.088 29.6192 500.117 29.5945 500.167 29.5453C500.216 29.496 500.245 29.4763 500.255 29.4862V21.846Z" fill="#D9EBFF"/>
<path d="M482 145.241C482.014 145.157 482.035 145.046 482.063 144.907C482.091 144.767 482.174 144.502 482.314 144.112C482.453 143.722 482.592 143.395 482.732 143.13C482.871 142.865 483.101 142.607 483.421 142.356C483.742 142.106 484.062 141.987 484.383 142.001C484.885 142.001 485.303 142.127 485.637 142.377C485.971 142.628 486.18 142.865 486.264 143.088C486.348 143.311 486.389 143.457 486.389 143.527C486.389 143.555 486.396 143.569 486.41 143.569L486.64 143.339C487.49 142.447 488.459 142.001 489.546 142.001C490.298 142.001 490.904 142.189 491.364 142.565C491.824 142.942 492.061 143.492 492.075 144.217C492.089 144.941 491.824 146.035 491.281 147.498C490.737 148.962 490.472 149.846 490.486 150.153C490.486 150.515 490.605 150.696 490.842 150.696C490.925 150.696 490.988 150.689 491.03 150.676C491.434 150.606 491.796 150.341 492.117 149.881C492.437 149.421 492.681 148.864 492.848 148.209C492.876 148.098 493.016 148.042 493.266 148.042C493.545 148.042 493.684 148.098 493.684 148.209C493.684 148.223 493.657 148.328 493.601 148.523C493.489 148.927 493.336 149.324 493.141 149.714C492.946 150.104 492.625 150.494 492.179 150.885C491.733 151.275 491.253 151.463 490.737 151.449C490.082 151.449 489.608 151.261 489.316 150.885C489.023 150.508 488.877 150.118 488.877 149.714C488.877 149.449 489.128 148.613 489.629 147.206C490.131 145.798 490.389 144.739 490.403 144.029C490.403 143.206 490.096 142.795 489.483 142.795H489.379C488.18 142.795 487.17 143.499 486.348 144.907L486.201 145.157L485.512 147.958C485.052 149.784 484.787 150.766 484.717 150.905C484.536 151.282 484.237 151.47 483.819 151.47C483.637 151.47 483.491 151.428 483.38 151.344C483.268 151.261 483.191 151.177 483.15 151.094C483.108 151.01 483.094 150.94 483.108 150.885C483.108 150.703 483.373 149.568 483.902 147.477C484.432 145.387 484.71 144.252 484.738 144.07C484.752 144.001 484.759 143.841 484.759 143.59C484.759 143.046 484.592 142.774 484.257 142.774C483.728 142.774 483.289 143.471 482.941 144.865C482.857 145.143 482.815 145.29 482.815 145.304C482.787 145.387 482.655 145.429 482.418 145.429H482.125C482.042 145.345 482 145.283 482 145.241Z" fill="#D9EBFF"/>
<path d="M495.718 148.048C495.452 148.048 495.24 147.959 495.083 147.782C494.925 147.605 494.846 147.388 494.846 147.132C494.846 146.432 495.107 145.826 495.63 145.314C496.152 144.802 496.802 144.546 497.58 144.546C498.477 144.546 499.226 144.821 499.827 145.373C500.428 145.925 500.733 146.639 500.743 147.516C500.743 147.94 500.644 148.343 500.447 148.728C500.25 149.112 500.014 149.447 499.738 149.733C499.462 150.018 499.068 150.383 498.556 150.826C498.201 151.132 497.708 151.585 497.078 152.186L496.206 153.013L497.329 153.028C498.876 153.028 499.698 153.003 499.797 152.954C499.866 152.934 499.984 152.496 500.152 151.639V151.595H500.743V151.639C500.733 151.668 500.669 152.117 500.551 152.984C500.432 153.851 500.359 154.304 500.329 154.343V154.388H494.846V153.929C494.846 153.861 494.876 153.787 494.935 153.708C494.994 153.629 495.142 153.457 495.378 153.191C495.664 152.875 495.91 152.599 496.117 152.363C496.206 152.265 496.373 152.082 496.62 151.816C496.866 151.55 497.034 151.368 497.122 151.269C497.211 151.171 497.354 151.008 497.551 150.782C497.748 150.555 497.886 150.388 497.965 150.279C498.043 150.171 498.157 150.023 498.304 149.836C498.452 149.649 498.556 149.491 498.615 149.363C498.674 149.235 498.748 149.092 498.836 148.935C498.925 148.777 498.989 148.619 499.029 148.462C499.068 148.304 499.102 148.156 499.132 148.018C499.162 147.88 499.176 147.718 499.176 147.531C499.176 146.91 499.009 146.373 498.674 145.92C498.339 145.467 497.861 145.24 497.24 145.24C496.915 145.24 496.63 145.324 496.383 145.491C496.137 145.659 495.965 145.821 495.866 145.979C495.768 146.137 495.718 146.23 495.718 146.26C495.718 146.27 495.743 146.275 495.792 146.275C495.97 146.275 496.152 146.343 496.339 146.481C496.526 146.619 496.62 146.846 496.62 147.161C496.62 147.408 496.541 147.614 496.383 147.782C496.226 147.949 496.004 148.038 495.718 148.048Z" fill="#D9EBFF"/>
<path d="M201 147.241C201.014 147.157 201.035 147.046 201.063 146.907C201.091 146.767 201.174 146.502 201.314 146.112C201.453 145.722 201.592 145.395 201.732 145.13C201.871 144.865 202.101 144.607 202.421 144.356C202.742 144.106 203.062 143.987 203.383 144.001C203.885 144.001 204.303 144.127 204.637 144.377C204.971 144.628 205.18 144.865 205.264 145.088C205.348 145.311 205.389 145.457 205.389 145.527C205.389 145.555 205.396 145.569 205.41 145.569L205.64 145.339C206.49 144.447 207.459 144.001 208.546 144.001C209.298 144.001 209.904 144.189 210.364 144.565C210.824 144.942 211.061 145.492 211.075 146.217C211.089 146.941 210.824 148.035 210.281 149.498C209.737 150.962 209.472 151.846 209.486 152.153C209.486 152.515 209.605 152.696 209.842 152.696C209.925 152.696 209.988 152.689 210.03 152.676C210.434 152.606 210.796 152.341 211.117 151.881C211.437 151.421 211.681 150.864 211.848 150.209C211.876 150.098 212.016 150.042 212.266 150.042C212.545 150.042 212.684 150.098 212.684 150.209C212.684 150.223 212.657 150.328 212.601 150.523C212.489 150.927 212.336 151.324 212.141 151.714C211.946 152.104 211.625 152.494 211.179 152.885C210.733 153.275 210.253 153.463 209.737 153.449C209.082 153.449 208.608 153.261 208.316 152.885C208.023 152.508 207.877 152.118 207.877 151.714C207.877 151.449 208.128 150.613 208.629 149.206C209.131 147.798 209.389 146.739 209.403 146.029C209.403 145.206 209.096 144.795 208.483 144.795H208.379C207.18 144.795 206.17 145.499 205.348 146.907L205.201 147.157L204.512 149.958C204.052 151.784 203.787 152.766 203.717 152.905C203.536 153.282 203.237 153.47 202.818 153.47C202.637 153.47 202.491 153.428 202.38 153.344C202.268 153.261 202.191 153.177 202.15 153.094C202.108 153.01 202.094 152.94 202.108 152.885C202.108 152.703 202.373 151.568 202.902 149.477C203.432 147.387 203.71 146.252 203.738 146.07C203.752 146.001 203.759 145.841 203.759 145.59C203.759 145.046 203.592 144.774 203.257 144.774C202.728 144.774 202.289 145.471 201.941 146.865C201.857 147.143 201.815 147.29 201.815 147.304C201.787 147.387 201.655 147.429 201.418 147.429H201.125C201.042 147.345 201 147.283 201 147.241Z" fill="#D9EBFF"/>
<path d="M214.984 149.545C214.718 149.545 214.511 149.462 214.364 149.294C214.216 149.127 214.137 148.91 214.127 148.644C214.127 148.102 214.364 147.619 214.837 147.196C215.309 146.772 215.881 146.56 216.551 146.56C216.896 146.56 217.112 146.565 217.201 146.575C217.93 146.693 218.487 146.954 218.871 147.358C219.255 147.762 219.452 148.201 219.462 148.674C219.462 149.186 219.295 149.683 218.96 150.166C218.625 150.649 218.162 150.999 217.57 151.215L217.526 151.245C217.526 151.255 217.57 151.27 217.659 151.289C217.748 151.309 217.891 151.353 218.088 151.422C218.285 151.491 218.472 151.595 218.649 151.733C219.457 152.255 219.861 152.944 219.861 153.801C219.861 154.58 219.556 155.26 218.945 155.841C218.334 156.422 217.561 156.713 216.625 156.713C215.836 156.713 215.157 156.501 214.585 156.077C214.014 155.654 213.728 155.117 213.728 154.466C213.728 154.191 213.817 153.969 213.994 153.801C214.172 153.634 214.393 153.545 214.659 153.535C214.935 153.535 215.162 153.624 215.339 153.801C215.516 153.979 215.605 154.2 215.605 154.466C215.605 154.575 215.59 154.673 215.561 154.762C215.531 154.851 215.497 154.93 215.457 154.998C215.418 155.067 215.364 155.127 215.295 155.176C215.226 155.225 215.167 155.264 215.117 155.294C215.068 155.324 215.019 155.343 214.97 155.353C214.92 155.363 214.881 155.378 214.851 155.397L214.792 155.412C215.295 155.856 215.905 156.077 216.625 156.077C217.167 156.077 217.575 155.816 217.851 155.294C218.019 154.969 218.102 154.471 218.102 153.801V153.506C218.102 152.57 217.787 151.944 217.157 151.629C217.009 151.57 216.708 151.536 216.255 151.526L215.635 151.511L215.59 151.481C215.57 151.452 215.561 151.373 215.561 151.245C215.561 151.068 215.6 150.979 215.679 150.979C215.955 150.979 216.24 150.954 216.536 150.905C216.871 150.856 217.176 150.649 217.452 150.284C217.728 149.92 217.866 149.368 217.866 148.629V148.511C217.866 147.949 217.694 147.56 217.349 147.344C217.132 147.206 216.9 147.137 216.654 147.137C216.339 147.137 216.048 147.191 215.782 147.299C215.516 147.408 215.329 147.521 215.221 147.639C215.112 147.757 215.058 147.816 215.058 147.816H215.103C215.132 147.826 215.171 147.836 215.221 147.846C215.27 147.856 215.319 147.88 215.369 147.92C215.418 147.959 215.477 147.994 215.546 148.023C215.615 148.053 215.664 148.107 215.694 148.186C215.723 148.265 215.763 148.339 215.812 148.408C215.861 148.476 215.876 148.575 215.856 148.703C215.856 148.92 215.787 149.112 215.649 149.279C215.511 149.447 215.29 149.536 214.984 149.545Z" fill="#D9EBFF"/>
<circle cx="351" cy="10" r="5" fill="black" stroke="#D9EBFF" stroke-width="2"/>
<circle cx="351" cy="160" r="5" fill="black" stroke="#D9EBFF" stroke-width="2"/>
<path d="M361 8.24095C361.014 8.15734 361.035 8.04587 361.063 7.90652C361.091 7.76717 361.174 7.50241 361.314 7.11223C361.453 6.72205 361.592 6.39459 361.732 6.12982C361.871 5.86506 362.101 5.60727 362.421 5.35644C362.742 5.10561 363.062 4.98717 363.383 5.0011C363.885 5.0011 364.303 5.12651 364.637 5.37734C364.971 5.62817 365.18 5.86506 365.264 6.08802C365.348 6.31098 365.389 6.45729 365.389 6.52697C365.389 6.55484 365.396 6.56877 365.41 6.56877L365.64 6.33885C366.49 5.44702 367.459 5.0011 368.546 5.0011C369.298 5.0011 369.904 5.18922 370.364 5.56546C370.824 5.9417 371.061 6.49213 371.075 7.21674C371.089 7.94135 370.824 9.03524 370.281 10.4984C369.737 11.9616 369.472 12.8464 369.486 13.153C369.486 13.5153 369.605 13.6964 369.842 13.6964C369.925 13.6964 369.988 13.6895 370.03 13.6755C370.434 13.6059 370.796 13.3411 371.117 12.8813C371.437 12.4214 371.681 11.864 371.848 11.2091C371.876 11.0976 372.016 11.0419 372.266 11.0419C372.545 11.0419 372.684 11.0976 372.684 11.2091C372.684 11.223 372.657 11.3275 372.601 11.5226C372.489 11.9267 372.336 12.3239 372.141 12.714C371.946 13.1042 371.625 13.4944 371.179 13.8846C370.733 14.2747 370.253 14.4629 369.737 14.4489C369.082 14.4489 368.608 14.2608 368.316 13.8846C368.023 13.5083 367.877 13.1182 367.877 12.714C367.877 12.4493 368.128 11.6132 368.629 10.2058C369.131 8.79835 369.389 7.7393 369.403 7.02862C369.403 6.20647 369.096 5.79539 368.483 5.79539H368.379C367.18 5.79539 366.17 6.4991 365.348 7.90652L365.201 8.15734L364.512 10.9583C364.052 12.7837 363.787 13.7661 363.717 13.9055C363.536 14.2817 363.237 14.4698 362.818 14.4698C362.637 14.4698 362.491 14.428 362.38 14.3444C362.268 14.2608 362.191 14.1772 362.15 14.0936C362.108 14.01 362.094 13.9403 362.108 13.8846C362.108 13.7034 362.373 12.5677 362.902 10.4775C363.432 8.38727 363.71 7.25158 363.738 7.07043C363.752 7.00075 363.759 6.8405 363.759 6.58967C363.759 6.04621 363.592 5.77448 363.257 5.77448C362.728 5.77448 362.289 6.47123 361.941 7.86471C361.857 8.14341 361.815 8.28973 361.815 8.30366C361.787 8.38727 361.655 8.42907 361.418 8.42907H361.125C361.042 8.34547 361 8.28276 361 8.24095Z" fill="#D9EBFF"/>
<path d="M379.935 17.3876C379.758 17.358 379.122 17.3433 378.029 17.3433C376.886 17.3433 376.226 17.358 376.048 17.3876H375.915V16.7078H376.373C376.57 16.7078 376.703 16.7078 376.772 16.7078C376.841 16.7078 376.925 16.698 377.024 16.6783C377.122 16.6586 377.191 16.6339 377.231 16.6044C377.27 16.5748 377.304 16.5354 377.334 16.4862C377.344 16.4664 377.349 16.2004 377.349 15.6881V14.9492H373.521V14.2695L375.753 10.8558C377.26 8.57011 378.024 7.42236 378.043 7.41251C378.063 7.39281 378.166 7.38296 378.354 7.38296H378.62L378.708 7.47162V14.2695H380.068V14.9492H378.708V15.7029C378.708 16.1069 378.708 16.3433 378.708 16.4123C378.708 16.4812 378.738 16.5403 378.797 16.5896C378.876 16.6586 379.157 16.698 379.639 16.7078H380.068V17.3876H379.935ZM377.437 14.2695V9.33364L374.201 14.2547L375.812 14.2695H377.437Z" fill="#D9EBFF"/>
<path d="M361 156.241C361.014 156.157 361.035 156.046 361.063 155.907C361.091 155.767 361.174 155.502 361.314 155.112C361.453 154.722 361.592 154.395 361.732 154.13C361.871 153.865 362.101 153.607 362.421 153.356C362.742 153.106 363.062 152.987 363.383 153.001C363.885 153.001 364.303 153.127 364.637 153.377C364.971 153.628 365.18 153.865 365.264 154.088C365.348 154.311 365.389 154.457 365.389 154.527C365.389 154.555 365.396 154.569 365.41 154.569L365.64 154.339C366.49 153.447 367.459 153.001 368.546 153.001C369.298 153.001 369.904 153.189 370.364 153.565C370.824 153.942 371.061 154.492 371.075 155.217C371.089 155.941 370.824 157.035 370.281 158.498C369.737 159.962 369.472 160.846 369.486 161.153C369.486 161.515 369.605 161.696 369.842 161.696C369.925 161.696 369.988 161.689 370.03 161.676C370.434 161.606 370.796 161.341 371.117 160.881C371.437 160.421 371.681 159.864 371.848 159.209C371.876 159.098 372.016 159.042 372.266 159.042C372.545 159.042 372.684 159.098 372.684 159.209C372.684 159.223 372.657 159.328 372.601 159.523C372.489 159.927 372.336 160.324 372.141 160.714C371.946 161.104 371.625 161.494 371.179 161.885C370.733 162.275 370.253 162.463 369.737 162.449C369.082 162.449 368.608 162.261 368.316 161.885C368.023 161.508 367.877 161.118 367.877 160.714C367.877 160.449 368.128 159.613 368.629 158.206C369.131 156.798 369.389 155.739 369.403 155.029C369.403 154.206 369.096 153.795 368.483 153.795H368.379C367.18 153.795 366.17 154.499 365.348 155.907L365.201 156.157L364.512 158.958C364.052 160.784 363.787 161.766 363.717 161.905C363.536 162.282 363.237 162.47 362.818 162.47C362.637 162.47 362.491 162.428 362.38 162.344C362.268 162.261 362.191 162.177 362.15 162.094C362.108 162.01 362.094 161.94 362.108 161.885C362.108 161.703 362.373 160.568 362.902 158.477C363.432 156.387 363.71 155.252 363.738 155.07C363.752 155.001 363.759 154.841 363.759 154.59C363.759 154.046 363.592 153.774 363.257 153.774C362.728 153.774 362.289 154.471 361.941 155.865C361.857 156.143 361.815 156.29 361.815 156.304C361.787 156.387 361.655 156.429 361.418 156.429H361.125C361.042 156.345 361 156.283 361 156.241Z" fill="#D9EBFF"/>
<path d="M375.531 163.067C375.531 163.304 375.452 163.501 375.295 163.659C375.137 163.816 374.945 163.895 374.718 163.895H374.615C375.068 164.673 375.669 165.062 376.418 165.062C377.107 165.062 377.61 164.767 377.925 164.176C378.112 163.851 378.206 163.22 378.206 162.284C378.206 161.269 378.073 160.585 377.807 160.23C377.551 159.905 377.265 159.742 376.95 159.742H376.861C376.093 159.742 375.511 160.077 375.117 160.747C375.078 160.816 375.043 160.856 375.014 160.866C374.984 160.875 374.91 160.885 374.792 160.895C374.625 160.895 374.531 160.866 374.511 160.806C374.492 160.767 374.482 159.905 374.482 158.22V156.314C374.482 155.821 374.506 155.575 374.556 155.575C374.575 155.555 374.595 155.546 374.615 155.546C374.625 155.546 374.728 155.585 374.925 155.664C375.122 155.743 375.393 155.821 375.738 155.9C376.083 155.979 376.452 156.018 376.846 156.018C377.546 156.018 378.216 155.88 378.856 155.605C378.935 155.565 378.999 155.546 379.048 155.546C379.127 155.546 379.166 155.634 379.166 155.812V156.004C378.359 156.959 377.349 157.437 376.137 157.437C375.832 157.437 375.556 157.408 375.309 157.348L375.162 157.319V159.861C375.349 159.723 375.497 159.614 375.605 159.536C375.713 159.457 375.891 159.378 376.137 159.299C376.383 159.22 376.634 159.181 376.891 159.181C377.689 159.181 378.364 159.501 378.915 160.141C379.467 160.782 379.743 161.54 379.743 162.417C379.743 163.324 379.428 164.097 378.797 164.737C378.166 165.378 377.398 165.703 376.492 165.713C375.694 165.713 375.053 165.447 374.571 164.915C374.088 164.383 373.846 163.782 373.846 163.112C373.846 162.875 373.901 162.688 374.009 162.55C374.117 162.412 374.231 162.324 374.349 162.284C374.467 162.245 374.58 162.225 374.689 162.225C374.935 162.225 375.137 162.309 375.295 162.476C375.452 162.644 375.531 162.841 375.531 163.067Z" fill="#D9EBFF"/>
</svg>
