<svg width="700" height="170" viewBox="0 0 700 170" fill="none" xmlns="http://www.w3.org/2000/svg">
<rect width="700" height="170" fill="#0A0D12"/>
<mask id="mask0_123_258" style="mask-type:alpha" maskUnits="userSpaceOnUse" x="210" y="35" width="142" height="94">
<path d="M210 35V129H352V35L210 35Z" fill="#C4C4C4"/>
<path fill-rule="evenodd" clip-rule="evenodd" d="M210 129V35L352 35V129H210Z" fill="#C4C4C4"/>
</mask>
<g mask="url(#mask0_123_258)">
<path d="M-33 199.917L326.917 -160M-21.6865 211.231L338.231 -148.686M-10.373 222.545L349.544 -137.373M23.5684 256.486L383.486 -103.431M46.1953 279.113L406.113 -80.8041M34.8818 267.8L394.799 -92.1177M57.5098 290.427L417.427 -69.4904M12.2549 245.172L372.172 -114.745M0.941406 233.858L360.859 -126.059M68.8232 301.741L428.741 -58.1766M80.1367 313.054L440.054 -46.8629M91.4502 324.368L451.368 -35.5493M125.392 358.309L485.309 -1.60809M148.02 380.937L507.937 21.0193M136.705 369.623L496.622 9.70563M159.333 392.25L519.25 32.333M114.078 346.996L473.995 -12.9218M102.765 335.682L462.682 -24.2355" stroke="#16556C" stroke-width="2"/>
</g>
<path d="M210 35V129H276V35L210 35Z" fill="#0E4559"/>
<path fill-rule="evenodd" clip-rule="evenodd" d="M210 129V35L276 35V129H210Z" fill="#0E4559"/>
<path d="M276.5 6V157M210 129V35.0001L490.5 35V129H210Z" stroke="#B3BFD8" stroke-width="2"/>
<circle cx="210" cy="35" r="5" fill="black" stroke="#D9EBFF" stroke-width="2"/>
<circle cx="490" cy="35" r="5" fill="black" stroke="#D9EBFF" stroke-width="2"/>
<circle cx="210" cy="129" r="5" fill="black" stroke="#D9EBFF" stroke-width="2"/>
<circle cx="491" cy="129" r="5" fill="black" stroke="#D9EBFF" stroke-width="2"/>
<path d="M288.293 81.2929C287.902 81.6834 287.902 82.3166 288.293 82.7071L294.657 89.0711C295.047 89.4616 295.681 89.4616 296.071 89.0711C296.462 88.6805 296.462 88.0474 296.071 87.6569L290.414 82L296.071 76.3431C296.462 75.9526 296.462 75.3195 296.071 74.9289C295.681 74.5384 295.047 74.5384 294.657 74.9289L288.293 81.2929ZM329 81L289 81L289 83L329 83L329 81Z" fill="#D9EBFF"/>
<circle cx="277" cy="11" r="5" fill="black" stroke="#D9EBFF" stroke-width="2"/>
<circle cx="277" cy="161" r="5" fill="black" stroke="#D9EBFF" stroke-width="2"/>
</svg>
