<svg width="700" height="185" viewBox="0 0 700 185" fill="none" xmlns="http://www.w3.org/2000/svg">
<rect width="700" height="184" transform="translate(0 0.25)" fill="#0A0D12"/>
<path d="M352.713 88.25L322.613 98.0278L352.713 114.028M379.272 150.472H404.061L448.326 122.028L428.849 119.361L457.179 114.028L436.817 71.3611L385.47 50.0278H373.961M379.272 150.472L358.91 168.25L362.452 150.472M379.272 150.472H362.452M362.452 150.472H335.007L294.283 127.361L227 162.028L237.943 138.917M373.961 50.0278H346.516L332.029 53.5833M373.961 50.0278L338.548 16.25L332.029 53.5833M332.029 53.5833L306.677 59.8056L281.004 77.5833L227 50.0278L236.48 71.3611M236.48 71.3611L261.527 82.0278M236.48 71.3611L244.577 89.5833M244.577 89.5833L252.674 107.806L245.308 123.361M244.577 89.5833L260.5 95.75M237.943 138.917L257.1 130.028M237.943 138.917L245.308 123.361M245.308 123.361L257.986 117.583M415.57 88.25L404.061 80.25L390.781 88.25L404.061 95.3611L415.57 88.25ZM474 88.25L461.606 82.0278L450.982 88.25L461.606 93.5833L474 88.25Z" stroke="#B3BFD8" stroke-width="2"/>
</svg>
