<svg width="700" height="253" viewBox="0 0 700 253" fill="none" xmlns="http://www.w3.org/2000/svg">
<rect width="700" height="253" fill="#0A0D12"/>
<path d="M250 227V27.0001M250 227H450M250 227L450 27M250 27.0001L450 27M250 27.0001L450 227M450 27V227" stroke="#B3BFD8" stroke-width="2"/>
<circle cx="250" cy="27" r="5" fill="black" stroke="#D9EBFF" stroke-width="2"/>
<circle cx="450" cy="27" r="5" fill="black" stroke="#D9EBFF" stroke-width="2"/>
<circle cx="250" cy="227" r="5" fill="black" stroke="#D9EBFF" stroke-width="2"/>
<circle cx="450" cy="227" r="5" fill="black" stroke="#D9EBFF" stroke-width="2"/>
<path d="M241 9.24095C241.014 9.15734 241.035 9.04587 241.063 8.90652C241.091 8.76717 241.174 8.50241 241.314 8.11223C241.453 7.72205 241.592 7.39459 241.732 7.12982C241.871 6.86506 242.101 6.60727 242.421 6.35644C242.742 6.10561 243.062 5.98717 243.383 6.0011C243.885 6.0011 244.303 6.12651 244.637 6.37734C244.971 6.62817 245.18 6.86506 245.264 7.08802C245.348 7.31098 245.389 7.45729 245.389 7.52697C245.389 7.55484 245.396 7.56877 245.41 7.56877L245.64 7.33885C246.49 6.44702 247.459 6.0011 248.546 6.0011C249.298 6.0011 249.904 6.18922 250.364 6.56546C250.824 6.9417 251.061 7.49213 251.075 8.21674C251.089 8.94135 250.824 10.0352 250.281 11.4984C249.737 12.9616 249.472 13.8464 249.486 14.153C249.486 14.5153 249.605 14.6964 249.842 14.6964C249.925 14.6964 249.988 14.6895 250.03 14.6755C250.434 14.6059 250.796 14.3411 251.117 13.8813C251.437 13.4214 251.681 12.864 251.848 12.2091C251.876 12.0976 252.016 12.0419 252.266 12.0419C252.545 12.0419 252.684 12.0976 252.684 12.2091C252.684 12.223 252.657 12.3275 252.601 12.5226C252.489 12.9267 252.336 13.3239 252.141 13.714C251.946 14.1042 251.625 14.4944 251.179 14.8846C250.733 15.2747 250.253 15.4629 249.737 15.4489C249.082 15.4489 248.608 15.2608 248.316 14.8846C248.023 14.5083 247.877 14.1182 247.877 13.714C247.877 13.4493 248.128 12.6132 248.629 11.2058C249.131 9.79835 249.389 8.7393 249.403 8.02862C249.403 7.20647 249.096 6.79539 248.483 6.79539H248.379C247.18 6.79539 246.17 7.4991 245.348 8.90652L245.201 9.15734L244.512 11.9583C244.052 13.7837 243.787 14.7661 243.717 14.9055C243.536 15.2817 243.237 15.4698 242.818 15.4698C242.637 15.4698 242.491 15.428 242.38 15.3444C242.268 15.2608 242.191 15.1772 242.15 15.0936C242.108 15.01 242.094 14.9403 242.108 14.8846C242.108 14.7034 242.373 13.5677 242.902 11.4775C243.432 9.38727 243.71 8.25158 243.738 8.07043C243.752 8.00075 243.759 7.8405 243.759 7.58967C243.759 7.04621 243.592 6.77448 243.257 6.77448C242.728 6.77448 242.289 7.47123 241.941 8.86471C241.857 9.14341 241.815 9.28973 241.815 9.30366C241.787 9.38727 241.655 9.42907 241.418 9.42907H241.125C241.042 9.34547 241 9.28276 241 9.24095Z" fill="#D9EBFF"/>
<path d="M254.526 9.74252C255.078 8.94452 255.832 8.54551 256.787 8.54551C257.26 8.54551 257.733 8.67359 258.206 8.92974C258.679 9.18589 259.063 9.63908 259.359 10.2893C259.723 11.107 259.905 12.2301 259.905 13.6587C259.905 15.1857 259.694 16.3532 259.27 17.161C259.073 17.5748 258.802 17.9049 258.457 18.1512C258.112 18.3975 257.812 18.5502 257.556 18.6093C257.3 18.6684 257.048 18.7029 256.802 18.7127C256.546 18.7127 256.29 18.6832 256.034 18.6241C255.777 18.5649 255.477 18.4073 255.132 18.1512C254.787 17.895 254.516 17.565 254.319 17.161C253.896 16.3532 253.684 15.1857 253.684 13.6587C253.684 11.9444 253.965 10.6391 254.526 9.74252ZM257.851 9.56519C257.556 9.24993 257.206 9.0923 256.802 9.0923C256.388 9.0923 256.034 9.24993 255.738 9.56519C255.492 9.82134 255.329 10.176 255.25 10.6292C255.171 11.0824 255.132 12.0282 255.132 13.4666C255.132 15.0232 255.171 16.0478 255.25 16.5404C255.329 17.033 255.506 17.4221 255.782 17.7078C256.058 18.0034 256.398 18.1512 256.802 18.1512C257.196 18.1512 257.531 18.0034 257.807 17.7078C258.093 17.4123 258.27 16.9985 258.339 16.4665C258.408 15.9345 258.447 14.9345 258.457 13.4666C258.457 12.038 258.418 11.0972 258.339 10.644C258.26 10.1908 258.098 9.83119 257.851 9.56519Z" fill="#D9EBFF"/>
<path d="M445 9.24095C445.014 9.15734 445.035 9.04587 445.063 8.90652C445.091 8.76717 445.174 8.50241 445.314 8.11223C445.453 7.72205 445.592 7.39459 445.732 7.12982C445.871 6.86506 446.101 6.60727 446.421 6.35644C446.742 6.10561 447.062 5.98717 447.383 6.0011C447.885 6.0011 448.303 6.12651 448.637 6.37734C448.971 6.62817 449.18 6.86506 449.264 7.08802C449.348 7.31098 449.389 7.45729 449.389 7.52697C449.389 7.55484 449.396 7.56877 449.41 7.56877L449.64 7.33885C450.49 6.44702 451.459 6.0011 452.546 6.0011C453.298 6.0011 453.904 6.18922 454.364 6.56546C454.824 6.9417 455.061 7.49213 455.075 8.21674C455.089 8.94135 454.824 10.0352 454.281 11.4984C453.737 12.9616 453.472 13.8464 453.486 14.153C453.486 14.5153 453.605 14.6964 453.842 14.6964C453.925 14.6964 453.988 14.6895 454.03 14.6755C454.434 14.6059 454.796 14.3411 455.117 13.8813C455.437 13.4214 455.681 12.864 455.848 12.2091C455.876 12.0976 456.016 12.0419 456.266 12.0419C456.545 12.0419 456.684 12.0976 456.684 12.2091C456.684 12.223 456.657 12.3275 456.601 12.5226C456.489 12.9267 456.336 13.3239 456.141 13.714C455.946 14.1042 455.625 14.4944 455.179 14.8846C454.733 15.2747 454.253 15.4629 453.737 15.4489C453.082 15.4489 452.608 15.2608 452.316 14.8846C452.023 14.5083 451.877 14.1182 451.877 13.714C451.877 13.4493 452.128 12.6132 452.629 11.2058C453.131 9.79835 453.389 8.7393 453.403 8.02862C453.403 7.20647 453.096 6.79539 452.483 6.79539H452.379C451.18 6.79539 450.17 7.4991 449.348 8.90652L449.201 9.15734L448.512 11.9583C448.052 13.7837 447.787 14.7661 447.717 14.9055C447.536 15.2817 447.237 15.4698 446.818 15.4698C446.637 15.4698 446.491 15.428 446.38 15.3444C446.268 15.2608 446.191 15.1772 446.15 15.0936C446.108 15.01 446.094 14.9403 446.108 14.8846C446.108 14.7034 446.373 13.5677 446.902 11.4775C447.432 9.38727 447.71 8.25158 447.738 8.07043C447.752 8.00075 447.759 7.8405 447.759 7.58967C447.759 7.04621 447.592 6.77448 447.257 6.77448C446.728 6.77448 446.289 7.47123 445.941 8.86471C445.857 9.14341 445.815 9.28973 445.815 9.30366C445.787 9.38727 445.655 9.42907 445.418 9.42907H445.125C445.042 9.34547 445 9.28276 445 9.24095Z" fill="#D9EBFF"/>
<path d="M460.255 9.84597L460.063 9.91986C459.925 9.96912 459.728 10.0184 459.472 10.0676C459.216 10.1169 458.93 10.1514 458.615 10.1711H458.334V9.4913H458.615C459.078 9.4716 459.506 9.39771 459.901 9.26963C460.295 9.14156 460.57 9.02333 460.728 8.91496C460.886 8.80659 461.024 8.69822 461.142 8.58985C461.162 8.56029 461.221 8.54551 461.319 8.54551C461.408 8.54551 461.492 8.57507 461.57 8.63418V13.0528L461.585 17.4862C461.654 17.5551 461.713 17.5994 461.763 17.6192C461.812 17.6389 461.93 17.6586 462.117 17.6783C462.304 17.698 462.61 17.7078 463.033 17.7078H463.418V18.3876H463.255C463.048 18.358 462.265 18.3433 460.905 18.3433C459.566 18.3433 458.792 18.358 458.585 18.3876H458.408V17.7078H458.792C459.009 17.7078 459.196 17.7078 459.354 17.7078C459.511 17.7078 459.635 17.7029 459.723 17.693C459.812 17.6832 459.891 17.6684 459.96 17.6487C460.029 17.629 460.068 17.6192 460.078 17.6192C460.088 17.6192 460.117 17.5945 460.167 17.5453C460.216 17.496 460.245 17.4763 460.255 17.4862V9.84597Z" fill="#D9EBFF"/>
<path d="M441 239.241C441.014 239.157 441.035 239.046 441.063 238.907C441.091 238.767 441.174 238.502 441.314 238.112C441.453 237.722 441.592 237.395 441.732 237.13C441.871 236.865 442.101 236.607 442.421 236.356C442.742 236.106 443.062 235.987 443.383 236.001C443.885 236.001 444.303 236.127 444.637 236.377C444.971 236.628 445.18 236.865 445.264 237.088C445.348 237.311 445.389 237.457 445.389 237.527C445.389 237.555 445.396 237.569 445.41 237.569L445.64 237.339C446.49 236.447 447.459 236.001 448.546 236.001C449.298 236.001 449.904 236.189 450.364 236.565C450.824 236.942 451.061 237.492 451.075 238.217C451.089 238.941 450.824 240.035 450.281 241.498C449.737 242.962 449.472 243.846 449.486 244.153C449.486 244.515 449.605 244.696 449.842 244.696C449.925 244.696 449.988 244.689 450.03 244.676C450.434 244.606 450.796 244.341 451.117 243.881C451.437 243.421 451.681 242.864 451.848 242.209C451.876 242.098 452.016 242.042 452.266 242.042C452.545 242.042 452.684 242.098 452.684 242.209C452.684 242.223 452.657 242.328 452.601 242.523C452.489 242.927 452.336 243.324 452.141 243.714C451.946 244.104 451.625 244.494 451.179 244.885C450.733 245.275 450.253 245.463 449.737 245.449C449.082 245.449 448.608 245.261 448.316 244.885C448.023 244.508 447.877 244.118 447.877 243.714C447.877 243.449 448.128 242.613 448.629 241.206C449.131 239.798 449.389 238.739 449.403 238.029C449.403 237.206 449.096 236.795 448.483 236.795H448.379C447.18 236.795 446.17 237.499 445.348 238.907L445.201 239.157L444.512 241.958C444.052 243.784 443.787 244.766 443.717 244.905C443.536 245.282 443.237 245.47 442.819 245.47C442.637 245.47 442.491 245.428 442.38 245.344C442.268 245.261 442.191 245.177 442.15 245.094C442.108 245.01 442.094 244.94 442.108 244.885C442.108 244.703 442.373 243.568 442.902 241.477C443.432 239.387 443.71 238.252 443.738 238.07C443.752 238.001 443.759 237.841 443.759 237.59C443.759 237.046 443.592 236.774 443.257 236.774C442.728 236.774 442.289 237.471 441.941 238.865C441.857 239.143 441.815 239.29 441.815 239.304C441.787 239.387 441.655 239.429 441.418 239.429H441.125C441.042 239.345 441 239.283 441 239.241Z" fill="#D9EBFF"/>
<path d="M454.718 242.048C454.452 242.048 454.24 241.959 454.083 241.782C453.925 241.605 453.846 241.388 453.846 241.132C453.846 240.432 454.107 239.826 454.63 239.314C455.152 238.802 455.802 238.546 456.58 238.546C457.477 238.546 458.226 238.821 458.827 239.373C459.428 239.925 459.733 240.639 459.743 241.516C459.743 241.94 459.644 242.343 459.447 242.728C459.25 243.112 459.014 243.447 458.738 243.733C458.462 244.018 458.068 244.383 457.556 244.826C457.201 245.132 456.708 245.585 456.078 246.186L455.206 247.013L456.329 247.028C457.876 247.028 458.698 247.003 458.797 246.954C458.866 246.934 458.984 246.496 459.152 245.639V245.595H459.743V245.639C459.733 245.668 459.669 246.117 459.551 246.984C459.432 247.851 459.359 248.304 459.329 248.343V248.388H453.846V247.929C453.846 247.861 453.876 247.787 453.935 247.708C453.994 247.629 454.142 247.457 454.378 247.191C454.664 246.875 454.91 246.599 455.117 246.363C455.206 246.265 455.373 246.082 455.62 245.816C455.866 245.55 456.034 245.368 456.122 245.269C456.211 245.171 456.354 245.008 456.551 244.782C456.748 244.555 456.886 244.388 456.965 244.279C457.043 244.171 457.157 244.023 457.304 243.836C457.452 243.649 457.556 243.491 457.615 243.363C457.674 243.235 457.748 243.092 457.836 242.935C457.925 242.777 457.989 242.619 458.029 242.462C458.068 242.304 458.102 242.156 458.132 242.018C458.162 241.88 458.176 241.718 458.176 241.531C458.176 240.91 458.009 240.373 457.674 239.92C457.339 239.467 456.861 239.24 456.24 239.24C455.915 239.24 455.63 239.324 455.383 239.491C455.137 239.659 454.965 239.821 454.866 239.979C454.768 240.137 454.718 240.23 454.718 240.26C454.718 240.27 454.743 240.275 454.792 240.275C454.97 240.275 455.152 240.343 455.339 240.481C455.526 240.619 455.62 240.846 455.62 241.161C455.62 241.408 455.541 241.614 455.383 241.782C455.226 241.949 455.004 242.038 454.718 242.048Z" fill="#D9EBFF"/>
<path d="M241 241.241C241.014 241.157 241.035 241.046 241.063 240.907C241.091 240.767 241.174 240.502 241.314 240.112C241.453 239.722 241.592 239.395 241.732 239.13C241.871 238.865 242.101 238.607 242.421 238.356C242.742 238.106 243.062 237.987 243.383 238.001C243.885 238.001 244.303 238.127 244.637 238.377C244.971 238.628 245.18 238.865 245.264 239.088C245.348 239.311 245.389 239.457 245.389 239.527C245.389 239.555 245.396 239.569 245.41 239.569L245.64 239.339C246.49 238.447 247.459 238.001 248.546 238.001C249.298 238.001 249.904 238.189 250.364 238.565C250.824 238.942 251.061 239.492 251.075 240.217C251.089 240.941 250.824 242.035 250.281 243.498C249.737 244.962 249.472 245.846 249.486 246.153C249.486 246.515 249.605 246.696 249.842 246.696C249.925 246.696 249.988 246.689 250.03 246.676C250.434 246.606 250.796 246.341 251.117 245.881C251.437 245.421 251.681 244.864 251.848 244.209C251.876 244.098 252.016 244.042 252.266 244.042C252.545 244.042 252.684 244.098 252.684 244.209C252.684 244.223 252.657 244.328 252.601 244.523C252.489 244.927 252.336 245.324 252.141 245.714C251.946 246.104 251.625 246.494 251.179 246.885C250.733 247.275 250.253 247.463 249.737 247.449C249.082 247.449 248.608 247.261 248.316 246.885C248.023 246.508 247.877 246.118 247.877 245.714C247.877 245.449 248.128 244.613 248.629 243.206C249.131 241.798 249.389 240.739 249.403 240.029C249.403 239.206 249.096 238.795 248.483 238.795H248.379C247.18 238.795 246.17 239.499 245.348 240.907L245.201 241.157L244.512 243.958C244.052 245.784 243.787 246.766 243.717 246.905C243.536 247.282 243.237 247.47 242.818 247.47C242.637 247.47 242.491 247.428 242.38 247.344C242.268 247.261 242.191 247.177 242.15 247.094C242.108 247.01 242.094 246.94 242.108 246.885C242.108 246.703 242.373 245.568 242.902 243.477C243.432 241.387 243.71 240.252 243.738 240.07C243.752 240.001 243.759 239.841 243.759 239.59C243.759 239.046 243.592 238.774 243.257 238.774C242.728 238.774 242.289 239.471 241.941 240.865C241.857 241.143 241.815 241.29 241.815 241.304C241.787 241.387 241.655 241.429 241.418 241.429H241.125C241.042 241.345 241 241.283 241 241.241Z" fill="#D9EBFF"/>
<path d="M254.984 243.545C254.718 243.545 254.511 243.462 254.364 243.294C254.216 243.127 254.137 242.91 254.127 242.644C254.127 242.102 254.364 241.619 254.837 241.196C255.309 240.772 255.881 240.56 256.551 240.56C256.896 240.56 257.112 240.565 257.201 240.575C257.93 240.693 258.487 240.954 258.871 241.358C259.255 241.762 259.452 242.201 259.462 242.674C259.462 243.186 259.295 243.683 258.96 244.166C258.625 244.649 258.162 244.999 257.57 245.215L257.526 245.245C257.526 245.255 257.57 245.27 257.659 245.289C257.748 245.309 257.891 245.353 258.088 245.422C258.285 245.491 258.472 245.595 258.649 245.733C259.457 246.255 259.861 246.944 259.861 247.801C259.861 248.58 259.556 249.26 258.945 249.841C258.334 250.422 257.561 250.713 256.625 250.713C255.836 250.713 255.157 250.501 254.585 250.077C254.014 249.654 253.728 249.117 253.728 248.466C253.728 248.191 253.817 247.969 253.994 247.801C254.172 247.634 254.393 247.545 254.659 247.535C254.935 247.535 255.162 247.624 255.339 247.801C255.516 247.979 255.605 248.2 255.605 248.466C255.605 248.575 255.59 248.673 255.561 248.762C255.531 248.851 255.497 248.93 255.457 248.998C255.418 249.067 255.364 249.127 255.295 249.176C255.226 249.225 255.167 249.264 255.117 249.294C255.068 249.324 255.019 249.343 254.97 249.353C254.92 249.363 254.881 249.378 254.851 249.397L254.792 249.412C255.295 249.856 255.905 250.077 256.625 250.077C257.167 250.077 257.575 249.816 257.851 249.294C258.019 248.969 258.102 248.471 258.102 247.801V247.506C258.102 246.57 257.787 245.944 257.157 245.629C257.009 245.57 256.708 245.536 256.255 245.526L255.635 245.511L255.59 245.481C255.57 245.452 255.561 245.373 255.561 245.245C255.561 245.068 255.6 244.979 255.679 244.979C255.955 244.979 256.24 244.954 256.536 244.905C256.871 244.856 257.176 244.649 257.452 244.284C257.728 243.92 257.866 243.368 257.866 242.629V242.511C257.866 241.949 257.694 241.56 257.349 241.344C257.132 241.206 256.9 241.137 256.654 241.137C256.339 241.137 256.048 241.191 255.782 241.299C255.516 241.408 255.329 241.521 255.221 241.639C255.112 241.757 255.058 241.816 255.058 241.816H255.103C255.132 241.826 255.171 241.836 255.221 241.846C255.27 241.856 255.319 241.88 255.369 241.92C255.418 241.959 255.477 241.994 255.546 242.023C255.615 242.053 255.664 242.107 255.694 242.186C255.723 242.265 255.763 242.339 255.812 242.408C255.861 242.476 255.876 242.575 255.856 242.703C255.856 242.92 255.787 243.112 255.649 243.279C255.511 243.447 255.29 243.536 254.984 243.545Z" fill="#D9EBFF"/>
</svg>
