<svg width="700" height="251" viewBox="0 0 700 251" fill="none" xmlns="http://www.w3.org/2000/svg">
<rect width="700" height="251" fill="#0A0D12"/>
<path d="M250 226V26.0001M250 226H450M250 226L450 26M250 26.0001L450 26M250 26.0001L450 226M450 26V226" stroke="#B3BFD8" stroke-width="2"/>
<circle cx="250" cy="26" r="5" fill="black" stroke="#D9EBFF" stroke-width="2"/>
<circle cx="450" cy="26" r="5" fill="black" stroke="#D9EBFF" stroke-width="2"/>
<circle cx="250" cy="226" r="5" fill="black" stroke="#D9EBFF" stroke-width="2"/>
<circle cx="450" cy="226" r="5" fill="black" stroke="#D9EBFF" stroke-width="2"/>
<path d="M241 8.24095C241.014 8.15734 241.035 8.04587 241.063 7.90652C241.091 7.76717 241.174 7.50241 241.314 7.11223C241.453 6.72205 241.592 6.39459 241.732 6.12982C241.871 5.86506 242.101 5.60727 242.421 5.35644C242.742 5.10561 243.062 4.98717 243.383 5.0011C243.885 5.0011 244.303 5.12651 244.637 5.37734C244.971 5.62817 245.18 5.86506 245.264 6.08802C245.348 6.31098 245.389 6.45729 245.389 6.52697C245.389 6.55484 245.396 6.56877 245.41 6.56877L245.64 6.33885C246.49 5.44702 247.459 5.0011 248.546 5.0011C249.298 5.0011 249.904 5.18922 250.364 5.56546C250.824 5.9417 251.061 6.49213 251.075 7.21674C251.089 7.94135 250.824 9.03524 250.281 10.4984C249.737 11.9616 249.472 12.8464 249.486 13.153C249.486 13.5153 249.605 13.6964 249.842 13.6964C249.925 13.6964 249.988 13.6895 250.03 13.6755C250.434 13.6059 250.796 13.3411 251.117 12.8813C251.437 12.4214 251.681 11.864 251.848 11.2091C251.876 11.0976 252.016 11.0419 252.266 11.0419C252.545 11.0419 252.684 11.0976 252.684 11.2091C252.684 11.223 252.657 11.3275 252.601 11.5226C252.489 11.9267 252.336 12.3239 252.141 12.714C251.946 13.1042 251.625 13.4944 251.179 13.8846C250.733 14.2747 250.253 14.4629 249.737 14.4489C249.082 14.4489 248.608 14.2608 248.316 13.8846C248.023 13.5083 247.877 13.1182 247.877 12.714C247.877 12.4493 248.128 11.6132 248.629 10.2058C249.131 8.79835 249.389 7.7393 249.403 7.02862C249.403 6.20647 249.096 5.79539 248.483 5.79539H248.379C247.18 5.79539 246.17 6.4991 245.348 7.90652L245.201 8.15734L244.512 10.9583C244.052 12.7837 243.787 13.7661 243.717 13.9055C243.536 14.2817 243.237 14.4698 242.818 14.4698C242.637 14.4698 242.491 14.428 242.38 14.3444C242.268 14.2608 242.191 14.1772 242.15 14.0936C242.108 14.01 242.094 13.9403 242.108 13.8846C242.108 13.7034 242.373 12.5677 242.902 10.4775C243.432 8.38727 243.71 7.25158 243.738 7.07043C243.752 7.00075 243.759 6.8405 243.759 6.58967C243.759 6.04621 243.592 5.77448 243.257 5.77448C242.728 5.77448 242.289 6.47123 241.941 7.86471C241.857 8.14341 241.815 8.28973 241.815 8.30366C241.787 8.38727 241.655 8.42907 241.418 8.42907H241.125C241.042 8.34547 241 8.28276 241 8.24095Z" fill="#D9EBFF"/>
<path d="M254.526 8.74252C255.078 7.94452 255.832 7.54551 256.787 7.54551C257.26 7.54551 257.733 7.67359 258.206 7.92974C258.679 8.18589 259.063 8.63908 259.359 9.28931C259.723 10.107 259.905 11.2301 259.905 12.6587C259.905 14.1857 259.694 15.3532 259.27 16.161C259.073 16.5748 258.802 16.9049 258.457 17.1512C258.112 17.3975 257.812 17.5502 257.556 17.6093C257.3 17.6684 257.048 17.7029 256.802 17.7127C256.546 17.7127 256.29 17.6832 256.034 17.6241C255.777 17.5649 255.477 17.4073 255.132 17.1512C254.787 16.895 254.516 16.565 254.319 16.161C253.896 15.3532 253.684 14.1857 253.684 12.6587C253.684 10.9444 253.965 9.63905 254.526 8.74252ZM257.851 8.56519C257.556 8.24993 257.206 8.0923 256.802 8.0923C256.388 8.0923 256.034 8.24993 255.738 8.56519C255.492 8.82134 255.329 9.17601 255.25 9.6292C255.171 10.0824 255.132 11.0282 255.132 12.4666C255.132 14.0232 255.171 15.0478 255.25 15.5404C255.329 16.033 255.506 16.4221 255.782 16.7078C256.058 17.0034 256.398 17.1512 256.802 17.1512C257.196 17.1512 257.531 17.0034 257.807 16.7078C258.093 16.4123 258.27 15.9985 258.339 15.4665C258.408 14.9345 258.447 13.9345 258.457 12.4666C258.457 11.038 258.418 10.0972 258.339 9.64398C258.26 9.19079 258.098 8.83119 257.851 8.56519Z" fill="#D9EBFF"/>
<circle cx="350" cy="126" r="5" fill="black" stroke="#D9EBFF" stroke-width="2"/>
<path d="M445 8.24095C445.014 8.15734 445.035 8.04587 445.063 7.90652C445.091 7.76717 445.174 7.50241 445.314 7.11223C445.453 6.72205 445.592 6.39459 445.732 6.12982C445.871 5.86506 446.101 5.60727 446.421 5.35644C446.742 5.10561 447.062 4.98717 447.383 5.0011C447.885 5.0011 448.303 5.12651 448.637 5.37734C448.971 5.62817 449.18 5.86506 449.264 6.08802C449.348 6.31098 449.389 6.45729 449.389 6.52697C449.389 6.55484 449.396 6.56877 449.41 6.56877L449.64 6.33885C450.49 5.44702 451.459 5.0011 452.546 5.0011C453.298 5.0011 453.904 5.18922 454.364 5.56546C454.824 5.9417 455.061 6.49213 455.075 7.21674C455.089 7.94135 454.824 9.03524 454.281 10.4984C453.737 11.9616 453.472 12.8464 453.486 13.153C453.486 13.5153 453.605 13.6964 453.842 13.6964C453.925 13.6964 453.988 13.6895 454.03 13.6755C454.434 13.6059 454.796 13.3411 455.117 12.8813C455.437 12.4214 455.681 11.864 455.848 11.2091C455.876 11.0976 456.016 11.0419 456.266 11.0419C456.545 11.0419 456.684 11.0976 456.684 11.2091C456.684 11.223 456.657 11.3275 456.601 11.5226C456.489 11.9267 456.336 12.3239 456.141 12.714C455.946 13.1042 455.625 13.4944 455.179 13.8846C454.733 14.2747 454.253 14.4629 453.737 14.4489C453.082 14.4489 452.608 14.2608 452.316 13.8846C452.023 13.5083 451.877 13.1182 451.877 12.714C451.877 12.4493 452.128 11.6132 452.629 10.2058C453.131 8.79835 453.389 7.7393 453.403 7.02862C453.403 6.20647 453.096 5.79539 452.483 5.79539H452.379C451.18 5.79539 450.17 6.4991 449.348 7.90652L449.201 8.15734L448.512 10.9583C448.052 12.7837 447.787 13.7661 447.717 13.9055C447.536 14.2817 447.237 14.4698 446.818 14.4698C446.637 14.4698 446.491 14.428 446.38 14.3444C446.268 14.2608 446.191 14.1772 446.15 14.0936C446.108 14.01 446.094 13.9403 446.108 13.8846C446.108 13.7034 446.373 12.5677 446.902 10.4775C447.432 8.38727 447.71 7.25158 447.738 7.07043C447.752 7.00075 447.759 6.8405 447.759 6.58967C447.759 6.04621 447.592 5.77448 447.257 5.77448C446.728 5.77448 446.289 6.47123 445.941 7.86471C445.857 8.14341 445.815 8.28973 445.815 8.30366C445.787 8.38727 445.655 8.42907 445.418 8.42907H445.125C445.042 8.34547 445 8.28276 445 8.24095Z" fill="#D9EBFF"/>
<path d="M460.255 8.84597L460.063 8.91986C459.925 8.96912 459.728 9.01838 459.472 9.06764C459.216 9.1169 458.93 9.15138 458.615 9.17108H458.334V8.4913H458.615C459.078 8.4716 459.506 8.39771 459.901 8.26963C460.295 8.14156 460.57 8.02333 460.728 7.91496C460.886 7.80659 461.024 7.69822 461.142 7.58985C461.162 7.56029 461.221 7.54551 461.319 7.54551C461.408 7.54551 461.492 7.57507 461.57 7.63418V12.0528L461.585 16.4862C461.654 16.5551 461.713 16.5994 461.763 16.6192C461.812 16.6389 461.93 16.6586 462.117 16.6783C462.304 16.698 462.61 16.7078 463.033 16.7078H463.418V17.3876H463.255C463.048 17.358 462.265 17.3433 460.905 17.3433C459.566 17.3433 458.792 17.358 458.585 17.3876H458.408V16.7078H458.792C459.009 16.7078 459.196 16.7078 459.354 16.7078C459.511 16.7078 459.635 16.7029 459.723 16.693C459.812 16.6832 459.891 16.6684 459.96 16.6487C460.029 16.629 460.068 16.6192 460.078 16.6192C460.088 16.6192 460.117 16.5945 460.167 16.5453C460.216 16.496 460.245 16.4763 460.255 16.4862V8.84597Z" fill="#D9EBFF"/>
<path d="M441 238.241C441.014 238.157 441.035 238.046 441.063 237.907C441.091 237.767 441.174 237.502 441.314 237.112C441.453 236.722 441.592 236.395 441.732 236.13C441.871 235.865 442.101 235.607 442.421 235.356C442.742 235.106 443.062 234.987 443.383 235.001C443.885 235.001 444.303 235.127 444.637 235.377C444.971 235.628 445.18 235.865 445.264 236.088C445.348 236.311 445.389 236.457 445.389 236.527C445.389 236.555 445.396 236.569 445.41 236.569L445.64 236.339C446.49 235.447 447.459 235.001 448.546 235.001C449.298 235.001 449.904 235.189 450.364 235.565C450.824 235.942 451.061 236.492 451.075 237.217C451.089 237.941 450.824 239.035 450.281 240.498C449.737 241.962 449.472 242.846 449.486 243.153C449.486 243.515 449.605 243.696 449.842 243.696C449.925 243.696 449.988 243.689 450.03 243.676C450.434 243.606 450.796 243.341 451.117 242.881C451.437 242.421 451.681 241.864 451.848 241.209C451.876 241.098 452.016 241.042 452.266 241.042C452.545 241.042 452.684 241.098 452.684 241.209C452.684 241.223 452.657 241.328 452.601 241.523C452.489 241.927 452.336 242.324 452.141 242.714C451.946 243.104 451.625 243.494 451.179 243.885C450.733 244.275 450.253 244.463 449.737 244.449C449.082 244.449 448.608 244.261 448.316 243.885C448.023 243.508 447.877 243.118 447.877 242.714C447.877 242.449 448.128 241.613 448.629 240.206C449.131 238.798 449.389 237.739 449.403 237.029C449.403 236.206 449.096 235.795 448.483 235.795H448.379C447.18 235.795 446.17 236.499 445.348 237.907L445.201 238.157L444.512 240.958C444.052 242.784 443.787 243.766 443.717 243.905C443.536 244.282 443.237 244.47 442.819 244.47C442.637 244.47 442.491 244.428 442.38 244.344C442.268 244.261 442.191 244.177 442.15 244.094C442.108 244.01 442.094 243.94 442.108 243.885C442.108 243.703 442.373 242.568 442.902 240.477C443.432 238.387 443.71 237.252 443.738 237.07C443.752 237.001 443.759 236.841 443.759 236.59C443.759 236.046 443.592 235.774 443.257 235.774C442.728 235.774 442.289 236.471 441.941 237.865C441.857 238.143 441.815 238.29 441.815 238.304C441.787 238.387 441.655 238.429 441.418 238.429H441.125C441.042 238.345 441 238.283 441 238.241Z" fill="#D9EBFF"/>
<path d="M454.718 241.048C454.452 241.048 454.24 240.959 454.083 240.782C453.925 240.605 453.846 240.388 453.846 240.132C453.846 239.432 454.107 238.826 454.63 238.314C455.152 237.802 455.802 237.546 456.58 237.546C457.477 237.546 458.226 237.821 458.827 238.373C459.428 238.925 459.733 239.639 459.743 240.516C459.743 240.94 459.644 241.343 459.447 241.728C459.25 242.112 459.014 242.447 458.738 242.733C458.462 243.018 458.068 243.383 457.556 243.826C457.201 244.132 456.708 244.585 456.078 245.186L455.206 246.013L456.329 246.028C457.876 246.028 458.698 246.003 458.797 245.954C458.866 245.934 458.984 245.496 459.152 244.639V244.595H459.743V244.639C459.733 244.668 459.669 245.117 459.551 245.984C459.432 246.851 459.359 247.304 459.329 247.343V247.388H453.846V246.929C453.846 246.861 453.876 246.787 453.935 246.708C453.994 246.629 454.142 246.457 454.378 246.191C454.664 245.875 454.91 245.599 455.117 245.363C455.206 245.265 455.373 245.082 455.62 244.816C455.866 244.55 456.034 244.368 456.122 244.269C456.211 244.171 456.354 244.008 456.551 243.782C456.748 243.555 456.886 243.388 456.965 243.279C457.043 243.171 457.157 243.023 457.304 242.836C457.452 242.649 457.556 242.491 457.615 242.363C457.674 242.235 457.748 242.092 457.836 241.935C457.925 241.777 457.989 241.619 458.029 241.462C458.068 241.304 458.102 241.156 458.132 241.018C458.162 240.88 458.176 240.718 458.176 240.531C458.176 239.91 458.009 239.373 457.674 238.92C457.339 238.467 456.861 238.24 456.24 238.24C455.915 238.24 455.63 238.324 455.383 238.491C455.137 238.659 454.965 238.821 454.866 238.979C454.768 239.137 454.718 239.23 454.718 239.26C454.718 239.27 454.743 239.275 454.792 239.275C454.97 239.275 455.152 239.343 455.339 239.481C455.526 239.619 455.62 239.846 455.62 240.161C455.62 240.408 455.541 240.614 455.383 240.782C455.226 240.949 455.004 241.038 454.718 241.048Z" fill="#D9EBFF"/>
<path d="M241 240.241C241.014 240.157 241.035 240.046 241.063 239.907C241.091 239.767 241.174 239.502 241.314 239.112C241.453 238.722 241.592 238.395 241.732 238.13C241.871 237.865 242.101 237.607 242.421 237.356C242.742 237.106 243.062 236.987 243.383 237.001C243.885 237.001 244.303 237.127 244.637 237.377C244.971 237.628 245.18 237.865 245.264 238.088C245.348 238.311 245.389 238.457 245.389 238.527C245.389 238.555 245.396 238.569 245.41 238.569L245.64 238.339C246.49 237.447 247.459 237.001 248.546 237.001C249.298 237.001 249.904 237.189 250.364 237.565C250.824 237.942 251.061 238.492 251.075 239.217C251.089 239.941 250.824 241.035 250.281 242.498C249.737 243.962 249.472 244.846 249.486 245.153C249.486 245.515 249.605 245.696 249.842 245.696C249.925 245.696 249.988 245.689 250.03 245.676C250.434 245.606 250.796 245.341 251.117 244.881C251.437 244.421 251.681 243.864 251.848 243.209C251.876 243.098 252.016 243.042 252.266 243.042C252.545 243.042 252.684 243.098 252.684 243.209C252.684 243.223 252.657 243.328 252.601 243.523C252.489 243.927 252.336 244.324 252.141 244.714C251.946 245.104 251.625 245.494 251.179 245.885C250.733 246.275 250.253 246.463 249.737 246.449C249.082 246.449 248.608 246.261 248.316 245.885C248.023 245.508 247.877 245.118 247.877 244.714C247.877 244.449 248.128 243.613 248.629 242.206C249.131 240.798 249.389 239.739 249.403 239.029C249.403 238.206 249.096 237.795 248.483 237.795H248.379C247.18 237.795 246.17 238.499 245.348 239.907L245.201 240.157L244.512 242.958C244.052 244.784 243.787 245.766 243.717 245.905C243.536 246.282 243.237 246.47 242.818 246.47C242.637 246.47 242.491 246.428 242.38 246.344C242.268 246.261 242.191 246.177 242.15 246.094C242.108 246.01 242.094 245.94 242.108 245.885C242.108 245.703 242.373 244.568 242.902 242.477C243.432 240.387 243.71 239.252 243.738 239.07C243.752 239.001 243.759 238.841 243.759 238.59C243.759 238.046 243.592 237.774 243.257 237.774C242.728 237.774 242.289 238.471 241.941 239.865C241.857 240.143 241.815 240.29 241.815 240.304C241.787 240.387 241.655 240.429 241.418 240.429H241.125C241.042 240.345 241 240.283 241 240.241Z" fill="#D9EBFF"/>
<path d="M254.984 242.545C254.718 242.545 254.511 242.462 254.364 242.294C254.216 242.127 254.137 241.91 254.127 241.644C254.127 241.102 254.364 240.619 254.837 240.196C255.309 239.772 255.881 239.56 256.551 239.56C256.896 239.56 257.112 239.565 257.201 239.575C257.93 239.693 258.487 239.954 258.871 240.358C259.255 240.762 259.452 241.201 259.462 241.674C259.462 242.186 259.295 242.683 258.96 243.166C258.625 243.649 258.162 243.999 257.57 244.215L257.526 244.245C257.526 244.255 257.57 244.27 257.659 244.289C257.748 244.309 257.891 244.353 258.088 244.422C258.285 244.491 258.472 244.595 258.649 244.733C259.457 245.255 259.861 245.944 259.861 246.801C259.861 247.58 259.556 248.26 258.945 248.841C258.334 249.422 257.561 249.713 256.625 249.713C255.836 249.713 255.157 249.501 254.585 249.077C254.014 248.654 253.728 248.117 253.728 247.466C253.728 247.191 253.817 246.969 253.994 246.801C254.172 246.634 254.393 246.545 254.659 246.535C254.935 246.535 255.162 246.624 255.339 246.801C255.516 246.979 255.605 247.2 255.605 247.466C255.605 247.575 255.59 247.673 255.561 247.762C255.531 247.851 255.497 247.93 255.457 247.998C255.418 248.067 255.364 248.127 255.295 248.176C255.226 248.225 255.167 248.264 255.117 248.294C255.068 248.324 255.019 248.343 254.97 248.353C254.92 248.363 254.881 248.378 254.851 248.397L254.792 248.412C255.295 248.856 255.905 249.077 256.625 249.077C257.167 249.077 257.575 248.816 257.851 248.294C258.019 247.969 258.102 247.471 258.102 246.801V246.506C258.102 245.57 257.787 244.944 257.157 244.629C257.009 244.57 256.708 244.536 256.255 244.526L255.635 244.511L255.59 244.481C255.57 244.452 255.561 244.373 255.561 244.245C255.561 244.068 255.6 243.979 255.679 243.979C255.955 243.979 256.24 243.954 256.536 243.905C256.871 243.856 257.176 243.649 257.452 243.284C257.728 242.92 257.866 242.368 257.866 241.629V241.511C257.866 240.949 257.694 240.56 257.349 240.344C257.132 240.206 256.9 240.137 256.654 240.137C256.339 240.137 256.048 240.191 255.782 240.299C255.516 240.408 255.329 240.521 255.221 240.639C255.112 240.757 255.058 240.816 255.058 240.816H255.103C255.132 240.826 255.171 240.836 255.221 240.846C255.27 240.856 255.319 240.88 255.369 240.92C255.418 240.959 255.477 240.994 255.546 241.023C255.615 241.053 255.664 241.107 255.694 241.186C255.723 241.265 255.763 241.339 255.812 241.408C255.861 241.476 255.876 241.575 255.856 241.703C255.856 241.92 255.787 242.112 255.649 242.279C255.511 242.447 255.29 242.536 254.984 242.545Z" fill="#D9EBFF"/>
<path d="M361 123.241C361.014 123.157 361.035 123.046 361.063 122.907C361.091 122.767 361.174 122.502 361.314 122.112C361.453 121.722 361.592 121.395 361.732 121.13C361.871 120.865 362.101 120.607 362.421 120.356C362.742 120.106 363.062 119.987 363.383 120.001C363.885 120.001 364.303 120.127 364.637 120.377C364.971 120.628 365.18 120.865 365.264 121.088C365.348 121.311 365.389 121.457 365.389 121.527C365.389 121.555 365.396 121.569 365.41 121.569L365.64 121.339C366.49 120.447 367.459 120.001 368.546 120.001C369.298 120.001 369.904 120.189 370.364 120.565C370.824 120.942 371.061 121.492 371.075 122.217C371.089 122.941 370.824 124.035 370.281 125.498C369.737 126.962 369.472 127.846 369.486 128.153C369.486 128.515 369.605 128.696 369.842 128.696C369.925 128.696 369.988 128.689 370.03 128.676C370.434 128.606 370.796 128.341 371.117 127.881C371.437 127.421 371.681 126.864 371.848 126.209C371.876 126.098 372.016 126.042 372.266 126.042C372.545 126.042 372.684 126.098 372.684 126.209C372.684 126.223 372.657 126.328 372.601 126.523C372.489 126.927 372.336 127.324 372.141 127.714C371.946 128.104 371.625 128.494 371.179 128.885C370.733 129.275 370.253 129.463 369.737 129.449C369.082 129.449 368.608 129.261 368.316 128.885C368.023 128.508 367.877 128.118 367.877 127.714C367.877 127.449 368.128 126.613 368.629 125.206C369.131 123.798 369.389 122.739 369.403 122.029C369.403 121.206 369.096 120.795 368.483 120.795H368.379C367.18 120.795 366.17 121.499 365.348 122.907L365.201 123.157L364.512 125.958C364.052 127.784 363.787 128.766 363.717 128.905C363.536 129.282 363.237 129.47 362.818 129.47C362.637 129.47 362.491 129.428 362.38 129.344C362.268 129.261 362.191 129.177 362.15 129.094C362.108 129.01 362.094 128.94 362.108 128.885C362.108 128.703 362.373 127.568 362.902 125.477C363.432 123.387 363.71 122.252 363.738 122.07C363.752 122.001 363.759 121.841 363.759 121.59C363.759 121.046 363.592 120.774 363.257 120.774C362.728 120.774 362.289 121.471 361.941 122.865C361.857 123.143 361.815 123.29 361.815 123.304C361.787 123.387 361.655 123.429 361.418 123.429H361.125C361.042 123.345 361 123.283 361 123.241Z" fill="#D9EBFF"/>
<path d="M375.531 130.067C375.531 130.304 375.452 130.501 375.295 130.659C375.137 130.816 374.945 130.895 374.718 130.895H374.615C375.068 131.673 375.669 132.062 376.418 132.062C377.107 132.062 377.61 131.767 377.925 131.176C378.112 130.851 378.206 130.22 378.206 129.284C378.206 128.269 378.073 127.585 377.807 127.23C377.551 126.905 377.265 126.742 376.95 126.742H376.861C376.093 126.742 375.511 127.077 375.117 127.747C375.078 127.816 375.043 127.856 375.014 127.866C374.984 127.875 374.91 127.885 374.792 127.895C374.625 127.895 374.531 127.866 374.511 127.806C374.492 127.767 374.482 126.905 374.482 125.22V123.314C374.482 122.821 374.506 122.575 374.556 122.575C374.575 122.555 374.595 122.546 374.615 122.546C374.625 122.546 374.728 122.585 374.925 122.664C375.122 122.743 375.393 122.821 375.738 122.9C376.083 122.979 376.452 123.018 376.846 123.018C377.546 123.018 378.216 122.88 378.856 122.605C378.935 122.565 378.999 122.546 379.048 122.546C379.127 122.546 379.166 122.634 379.166 122.812V123.004C378.359 123.959 377.349 124.437 376.137 124.437C375.832 124.437 375.556 124.408 375.309 124.348L375.162 124.319V126.861C375.349 126.723 375.497 126.614 375.605 126.536C375.713 126.457 375.891 126.378 376.137 126.299C376.383 126.22 376.634 126.181 376.891 126.181C377.689 126.181 378.364 126.501 378.915 127.141C379.467 127.782 379.743 128.54 379.743 129.417C379.743 130.324 379.428 131.097 378.797 131.737C378.166 132.378 377.398 132.703 376.492 132.713C375.694 132.713 375.053 132.447 374.571 131.915C374.088 131.383 373.846 130.782 373.846 130.112C373.846 129.875 373.901 129.688 374.009 129.55C374.117 129.412 374.231 129.324 374.349 129.284C374.467 129.245 374.58 129.225 374.689 129.225C374.935 129.225 375.137 129.309 375.295 129.476C375.452 129.644 375.531 129.841 375.531 130.067Z" fill="#D9EBFF"/>
</svg>
