<svg width="1032" height="295" viewBox="0 0 1032 295" fill="none" xmlns="http://www.w3.org/2000/svg">
<rect width="1032" height="295" fill="#0A0D12"/>
<path d="M63 48.0001L263 248" stroke="#B3BFD8" stroke-width="2" stroke-dasharray="4 4"/>
<path d="M63 248L263 48" stroke="#B3BFD8" stroke-width="2" stroke-dasharray="4 4"/>
<circle cx="63" cy="248" r="5" fill="black" stroke="#D9EBFF" stroke-width="2"/>
<circle cx="263" cy="48" r="5" fill="black" stroke="#D9EBFF" stroke-width="2"/>
<circle cx="63" cy="48" r="5" fill="black" stroke="#D9EBFF" stroke-width="2"/>
<circle cx="263" cy="248" r="5" fill="black" stroke="#D9EBFF" stroke-width="2"/>
<path d="M51 260.241C51.0139 260.157 51.0348 260.046 51.0627 259.907C51.0906 259.767 51.1742 259.502 51.3135 259.112C51.4529 258.722 51.5922 258.395 51.7316 258.13C51.8709 257.865 52.1009 257.607 52.4214 257.356C52.7419 257.106 53.0624 256.987 53.3829 257.001C53.8845 257.001 54.3026 257.127 54.637 257.377C54.9714 257.628 55.1805 257.865 55.2641 258.088C55.3477 258.311 55.3895 258.457 55.3895 258.527C55.3895 258.555 55.3964 258.569 55.4104 258.569L55.6403 258.339C56.4903 257.447 57.4588 257.001 58.5457 257.001C59.2982 257.001 59.9044 257.189 60.3642 257.565C60.8241 257.942 61.061 258.492 61.0749 259.217C61.0888 259.941 60.8241 261.035 60.2806 262.498C59.7372 263.962 59.4724 264.846 59.4863 265.153C59.4863 265.515 59.6048 265.696 59.8417 265.696C59.9253 265.696 59.988 265.689 60.0298 265.676C60.4339 265.606 60.7962 265.341 61.1167 264.881C61.4372 264.421 61.6811 263.864 61.8483 263.209C61.8762 263.098 62.0155 263.042 62.2663 263.042C62.545 263.042 62.6844 263.098 62.6844 263.209C62.6844 263.223 62.6565 263.328 62.6008 263.523C62.4893 263.927 62.336 264.324 62.1409 264.714C61.9458 265.104 61.6253 265.494 61.1794 265.885C60.7335 266.275 60.2527 266.463 59.7372 266.449C59.0822 266.449 58.6084 266.261 58.3158 265.885C58.0232 265.508 57.8769 265.118 57.8769 264.714C57.8769 264.449 58.1277 263.613 58.6293 262.206C59.131 260.798 59.3888 259.739 59.4027 259.029C59.4027 258.206 59.0962 257.795 58.483 257.795H58.3785C57.1801 257.795 56.1698 258.499 55.3477 259.907L55.2014 260.157L54.5116 262.958C54.0517 264.784 53.787 265.766 53.7173 265.905C53.5361 266.282 53.2365 266.47 52.8185 266.47C52.6373 266.47 52.491 266.428 52.3796 266.344C52.2681 266.261 52.1914 266.177 52.1496 266.094C52.1078 266.01 52.0939 265.94 52.1078 265.885C52.1078 265.703 52.3726 264.568 52.9021 262.477C53.4316 260.387 53.7103 259.252 53.7382 259.07C53.7521 259.001 53.7591 258.841 53.7591 258.59C53.7591 258.046 53.5919 257.774 53.2574 257.774C52.7279 257.774 52.289 258.471 51.9406 259.865C51.857 260.143 51.8152 260.29 51.8152 260.304C51.7873 260.387 51.6549 260.429 51.418 260.429H51.1254C51.0418 260.345 51 260.283 51 260.241Z" fill="#D9EBFF"/>
<path d="M64.5262 260.743C65.0779 259.945 65.8316 259.546 66.7872 259.546C67.2601 259.546 67.733 259.674 68.2059 259.93C68.6788 260.186 69.063 260.639 69.3586 261.289C69.7231 262.107 69.9053 263.23 69.9053 264.659C69.9053 266.186 69.6935 267.353 69.2699 268.161C69.0729 268.575 68.8019 268.905 68.4571 269.151C68.1123 269.397 67.8118 269.55 67.5557 269.609C67.2995 269.668 67.0483 269.703 66.802 269.713C66.5458 269.713 66.2897 269.683 66.0335 269.624C65.7774 269.565 65.4769 269.407 65.1321 269.151C64.7873 268.895 64.5163 268.565 64.3193 268.161C63.8957 267.353 63.6838 266.186 63.6838 264.659C63.6838 262.944 63.9646 261.639 64.5262 260.743ZM67.8512 260.565C67.5557 260.25 67.2059 260.092 66.802 260.092C66.3882 260.092 66.0335 260.25 65.738 260.565C65.4917 260.821 65.3291 261.176 65.2503 261.629C65.1715 262.082 65.1321 263.028 65.1321 264.467C65.1321 266.023 65.1715 267.048 65.2503 267.54C65.3291 268.033 65.5064 268.422 65.7823 268.708C66.0582 269.003 66.398 269.151 66.802 269.151C67.1961 269.151 67.531 269.003 67.8069 268.708C68.0926 268.412 68.2699 267.998 68.3389 267.466C68.4078 266.934 68.4473 265.934 68.4571 264.467C68.4571 263.038 68.4177 262.097 68.3389 261.644C68.2601 261.191 68.0975 260.831 67.8512 260.565Z" fill="#D9EBFF"/>
<path d="M258 30.241C258.014 30.1573 258.035 30.0459 258.063 29.9065C258.091 29.7672 258.174 29.5024 258.314 29.1122C258.453 28.7221 258.592 28.3946 258.732 28.1298C258.871 27.8651 259.101 27.6073 259.421 27.3564C259.742 27.1056 260.062 26.9872 260.383 27.0011C260.885 27.0011 261.303 27.1265 261.637 27.3773C261.971 27.6282 262.18 27.8651 262.264 28.088C262.348 28.311 262.389 28.4573 262.389 28.527C262.389 28.5548 262.396 28.5688 262.41 28.5688L262.64 28.3388C263.49 27.447 264.459 27.0011 265.546 27.0011C266.298 27.0011 266.904 27.1892 267.364 27.5655C267.824 27.9417 268.061 28.4921 268.075 29.2167C268.089 29.9414 267.824 31.0352 267.281 32.4984C266.737 33.9616 266.472 34.8464 266.486 35.153C266.486 35.5153 266.605 35.6964 266.842 35.6964C266.925 35.6964 266.988 35.6895 267.03 35.6755C267.434 35.6059 267.796 35.3411 268.117 34.8813C268.437 34.4214 268.681 33.864 268.848 33.2091C268.876 33.0976 269.016 33.0419 269.266 33.0419C269.545 33.0419 269.684 33.0976 269.684 33.2091C269.684 33.223 269.657 33.3275 269.601 33.5226C269.489 33.9267 269.336 34.3239 269.141 34.714C268.946 35.1042 268.625 35.4944 268.179 35.8846C267.733 36.2747 267.253 36.4629 266.737 36.4489C266.082 36.4489 265.608 36.2608 265.316 35.8846C265.023 35.5083 264.877 35.1182 264.877 34.714C264.877 34.4493 265.128 33.6132 265.629 32.2058C266.131 30.7983 266.389 29.7393 266.403 29.0286C266.403 28.2065 266.096 27.7954 265.483 27.7954H265.379C264.18 27.7954 263.17 28.4991 262.348 29.9065L262.201 30.1573L261.512 32.9583C261.052 34.7837 260.787 35.7661 260.717 35.9055C260.536 36.2817 260.237 36.4698 259.818 36.4698C259.637 36.4698 259.491 36.428 259.38 36.3444C259.268 36.2608 259.191 36.1772 259.15 36.0936C259.108 36.01 259.094 35.9403 259.108 35.8846C259.108 35.7034 259.373 34.5677 259.902 32.4775C260.432 30.3873 260.71 29.2516 260.738 29.0704C260.752 29.0008 260.759 28.8405 260.759 28.5897C260.759 28.0462 260.592 27.7745 260.257 27.7745C259.728 27.7745 259.289 28.4712 258.941 29.8647C258.857 30.1434 258.815 30.2897 258.815 30.3037C258.787 30.3873 258.655 30.4291 258.418 30.4291H258.125C258.042 30.3455 258 30.2828 258 30.241Z" fill="#D9EBFF"/>
<path d="M273.255 30.846L273.063 30.9199C272.925 30.9691 272.728 31.0184 272.472 31.0676C272.216 31.1169 271.93 31.1514 271.615 31.1711H271.334V30.4913H271.615C272.078 30.4716 272.506 30.3977 272.901 30.2696C273.295 30.1416 273.57 30.0233 273.728 29.915C273.886 29.8066 274.024 29.6982 274.142 29.5898C274.162 29.5603 274.221 29.5455 274.319 29.5455C274.408 29.5455 274.492 29.5751 274.57 29.6342V34.0528L274.585 38.4862C274.654 38.5551 274.713 38.5994 274.763 38.6192C274.812 38.6389 274.93 38.6586 275.117 38.6783C275.304 38.698 275.61 38.7078 276.033 38.7078H276.418V39.3876H276.255C276.048 39.358 275.265 39.3433 273.905 39.3433C272.566 39.3433 271.792 39.358 271.585 39.3876H271.408V38.7078H271.792C272.009 38.7078 272.196 38.7078 272.354 38.7078C272.511 38.7078 272.635 38.7029 272.723 38.693C272.812 38.6832 272.891 38.6684 272.96 38.6487C273.029 38.629 273.068 38.6192 273.078 38.6192C273.088 38.6192 273.117 38.5945 273.167 38.5453C273.216 38.496 273.245 38.4763 273.255 38.4862V30.846Z" fill="#D9EBFF"/>
<path d="M54 30.241C54.0139 30.1573 54.0348 30.0459 54.0627 29.9065C54.0906 29.7672 54.1742 29.5024 54.3135 29.1122C54.4529 28.7221 54.5922 28.3946 54.7316 28.1298C54.8709 27.8651 55.1009 27.6073 55.4214 27.3564C55.7419 27.1056 56.0624 26.9872 56.3829 27.0011C56.8845 27.0011 57.3026 27.1265 57.637 27.3773C57.9714 27.6282 58.1805 27.8651 58.2641 28.088C58.3477 28.311 58.3895 28.4573 58.3895 28.527C58.3895 28.5548 58.3964 28.5688 58.4104 28.5688L58.6403 28.3388C59.4903 27.447 60.4588 27.0011 61.5457 27.0011C62.2982 27.0011 62.9044 27.1892 63.3642 27.5655C63.8241 27.9417 64.061 28.4921 64.0749 29.2167C64.0888 29.9414 63.8241 31.0352 63.2806 32.4984C62.7372 33.9616 62.4724 34.8464 62.4863 35.153C62.4863 35.5153 62.6048 35.6964 62.8417 35.6964C62.9253 35.6964 62.988 35.6895 63.0298 35.6755C63.4339 35.6059 63.7962 35.3411 64.1167 34.8813C64.4372 34.4214 64.6811 33.864 64.8483 33.2091C64.8762 33.0976 65.0155 33.0419 65.2663 33.0419C65.545 33.0419 65.6844 33.0976 65.6844 33.2091C65.6844 33.223 65.6565 33.3275 65.6008 33.5226C65.4893 33.9267 65.336 34.3239 65.1409 34.714C64.9458 35.1042 64.6253 35.4944 64.1794 35.8846C63.7335 36.2747 63.2527 36.4629 62.7372 36.4489C62.0822 36.4489 61.6084 36.2608 61.3158 35.8846C61.0232 35.5083 60.8769 35.1182 60.8769 34.714C60.8769 34.4493 61.1277 33.6132 61.6293 32.2058C62.131 30.7983 62.3888 29.7393 62.4027 29.0286C62.4027 28.2065 62.0962 27.7954 61.483 27.7954H61.3785C60.1801 27.7954 59.1698 28.4991 58.3477 29.9065L58.2014 30.1573L57.5116 32.9583C57.0517 34.7837 56.787 35.7661 56.7173 35.9055C56.5361 36.2817 56.2365 36.4698 55.8185 36.4698C55.6373 36.4698 55.491 36.428 55.3796 36.3444C55.2681 36.2608 55.1914 36.1772 55.1496 36.0936C55.1078 36.01 55.0939 35.9403 55.1078 35.8846C55.1078 35.7034 55.3726 34.5677 55.9021 32.4775C56.4316 30.3873 56.7103 29.2516 56.7382 29.0704C56.7521 29.0008 56.7591 28.8405 56.7591 28.5897C56.7591 28.0462 56.5919 27.7745 56.2574 27.7745C55.7279 27.7745 55.289 28.4712 54.9406 29.8647C54.857 30.1434 54.8152 30.2897 54.8152 30.3037C54.7873 30.3873 54.6549 30.4291 54.418 30.4291H54.1254C54.0418 30.3455 54 30.2828 54 30.241Z" fill="#D9EBFF"/>
<path d="M67.7183 33.0479C67.4523 33.0479 67.2405 32.9592 67.0828 32.7819C66.9252 32.6045 66.8464 32.3878 66.8464 32.1316C66.8464 31.4322 67.1075 30.8263 67.6296 30.314C68.1518 29.8017 68.802 29.5455 69.5803 29.5455C70.4768 29.5455 71.2256 29.8214 71.8266 30.3731C72.4275 30.9248 72.7329 31.6391 72.7428 32.5159C72.7428 32.9395 72.6443 33.3434 72.4472 33.7277C72.2502 34.1119 72.0137 34.4469 71.7379 34.7326C71.462 35.0183 71.068 35.3828 70.5557 35.8261C70.201 36.1315 69.7084 36.5847 69.0779 37.1857L68.206 38.0133L69.3291 38.028C70.8758 38.028 71.6985 38.0034 71.797 37.9541C71.866 37.9344 71.9842 37.496 72.1517 36.6389V36.5946H72.7428V36.6389C72.7329 36.6685 72.6689 37.1167 72.5507 37.9837C72.4325 38.8507 72.3586 39.3039 72.329 39.3433V39.3876H66.8464V38.9295C66.8464 38.8605 66.876 38.7866 66.9351 38.7078C66.9942 38.629 67.142 38.4566 67.3784 38.1906C67.6641 37.8753 67.9104 37.5995 68.1173 37.363C68.206 37.2645 68.3734 37.0822 68.6197 36.8162C68.866 36.5502 69.0335 36.368 69.1222 36.2695C69.2109 36.1709 69.3537 36.0084 69.5508 35.7818C69.7478 35.5552 69.8857 35.3877 69.9645 35.2793C70.0434 35.171 70.1567 35.0232 70.3044 34.836C70.4522 34.6488 70.5557 34.4912 70.6148 34.3631C70.6739 34.235 70.7478 34.0922 70.8364 33.9346C70.9251 33.7769 70.9891 33.6193 71.0286 33.4617C71.068 33.304 71.1024 33.1563 71.132 33.0183C71.1615 32.8804 71.1763 32.7178 71.1763 32.5307C71.1763 31.91 71.0088 31.373 70.6739 30.9199C70.3389 30.4667 69.8611 30.2401 69.2404 30.2401C68.9153 30.2401 68.6296 30.3238 68.3833 30.4913C68.137 30.6588 67.9646 30.8213 67.8661 30.979C67.7676 31.1366 67.7183 31.2302 67.7183 31.2598C67.7183 31.2696 67.7429 31.2745 67.7922 31.2745C67.9695 31.2745 68.1518 31.3435 68.339 31.4814C68.5262 31.6193 68.6197 31.8459 68.6197 32.1612C68.6197 32.4075 68.5409 32.6144 68.3833 32.7819C68.2257 32.9494 68.004 33.038 67.7183 33.0479Z" fill="#D9EBFF"/>
<path d="M254 260.241C254.014 260.157 254.035 260.046 254.063 259.907C254.091 259.767 254.174 259.502 254.314 259.112C254.453 258.722 254.592 258.395 254.732 258.13C254.871 257.865 255.101 257.607 255.421 257.356C255.742 257.106 256.062 256.987 256.383 257.001C256.885 257.001 257.303 257.127 257.637 257.377C257.971 257.628 258.18 257.865 258.264 258.088C258.348 258.311 258.389 258.457 258.389 258.527C258.389 258.555 258.396 258.569 258.41 258.569L258.64 258.339C259.49 257.447 260.459 257.001 261.546 257.001C262.298 257.001 262.904 257.189 263.364 257.565C263.824 257.942 264.061 258.492 264.075 259.217C264.089 259.941 263.824 261.035 263.281 262.498C262.737 263.962 262.472 264.846 262.486 265.153C262.486 265.515 262.605 265.696 262.842 265.696C262.925 265.696 262.988 265.689 263.03 265.676C263.434 265.606 263.796 265.341 264.117 264.881C264.437 264.421 264.681 263.864 264.848 263.209C264.876 263.098 265.016 263.042 265.266 263.042C265.545 263.042 265.684 263.098 265.684 263.209C265.684 263.223 265.657 263.328 265.601 263.523C265.489 263.927 265.336 264.324 265.141 264.714C264.946 265.104 264.625 265.494 264.179 265.885C263.733 266.275 263.253 266.463 262.737 266.449C262.082 266.449 261.608 266.261 261.316 265.885C261.023 265.508 260.877 265.118 260.877 264.714C260.877 264.449 261.128 263.613 261.629 262.206C262.131 260.798 262.389 259.739 262.403 259.029C262.403 258.206 262.096 257.795 261.483 257.795H261.379C260.18 257.795 259.17 258.499 258.348 259.907L258.201 260.157L257.512 262.958C257.052 264.784 256.787 265.766 256.717 265.905C256.536 266.282 256.237 266.47 255.818 266.47C255.637 266.47 255.491 266.428 255.38 266.344C255.268 266.261 255.191 266.177 255.15 266.094C255.108 266.01 255.094 265.94 255.108 265.885C255.108 265.703 255.373 264.568 255.902 262.477C256.432 260.387 256.71 259.252 256.738 259.07C256.752 259.001 256.759 258.841 256.759 258.59C256.759 258.046 256.592 257.774 256.257 257.774C255.728 257.774 255.289 258.471 254.941 259.865C254.857 260.143 254.815 260.29 254.815 260.304C254.787 260.387 254.655 260.429 254.418 260.429H254.125C254.042 260.345 254 260.283 254 260.241Z" fill="#D9EBFF"/>
<path d="M267.984 262.545C267.718 262.545 267.511 262.462 267.364 262.294C267.216 262.127 267.137 261.91 267.127 261.644C267.127 261.102 267.364 260.619 267.837 260.196C268.309 259.772 268.881 259.56 269.551 259.56C269.896 259.56 270.112 259.565 270.201 259.575C270.93 259.693 271.487 259.954 271.871 260.358C272.255 260.762 272.452 261.201 272.462 261.674C272.462 262.186 272.295 262.683 271.96 263.166C271.625 263.649 271.162 263.999 270.57 264.215L270.526 264.245C270.526 264.255 270.57 264.27 270.659 264.289C270.748 264.309 270.891 264.353 271.088 264.422C271.285 264.491 271.472 264.595 271.649 264.733C272.457 265.255 272.861 265.944 272.861 266.801C272.861 267.58 272.556 268.26 271.945 268.841C271.334 269.422 270.561 269.713 269.625 269.713C268.836 269.713 268.157 269.501 267.585 269.077C267.014 268.654 266.728 268.117 266.728 267.466C266.728 267.191 266.817 266.969 266.994 266.801C267.172 266.634 267.393 266.545 267.659 266.535C267.935 266.535 268.162 266.624 268.339 266.801C268.516 266.979 268.605 267.2 268.605 267.466C268.605 267.575 268.59 267.673 268.561 267.762C268.531 267.851 268.497 267.93 268.457 267.998C268.418 268.067 268.364 268.127 268.295 268.176C268.226 268.225 268.167 268.264 268.117 268.294C268.068 268.324 268.019 268.343 267.97 268.353C267.92 268.363 267.881 268.378 267.851 268.397L267.792 268.412C268.295 268.856 268.905 269.077 269.625 269.077C270.167 269.077 270.575 268.816 270.851 268.294C271.019 267.969 271.102 267.471 271.102 266.801V266.506C271.102 265.57 270.787 264.944 270.157 264.629C270.009 264.57 269.708 264.536 269.255 264.526L268.635 264.511L268.59 264.481C268.57 264.452 268.561 264.373 268.561 264.245C268.561 264.068 268.6 263.979 268.679 263.979C268.955 263.979 269.24 263.954 269.536 263.905C269.871 263.856 270.176 263.649 270.452 263.284C270.728 262.92 270.866 262.368 270.866 261.629V261.511C270.866 260.949 270.694 260.56 270.349 260.344C270.132 260.206 269.9 260.137 269.654 260.137C269.339 260.137 269.048 260.191 268.782 260.299C268.516 260.408 268.329 260.521 268.221 260.639C268.112 260.757 268.058 260.816 268.058 260.816H268.103C268.132 260.826 268.171 260.836 268.221 260.846C268.27 260.856 268.319 260.88 268.369 260.92C268.418 260.959 268.477 260.994 268.546 261.023C268.615 261.053 268.664 261.107 268.694 261.186C268.723 261.265 268.763 261.339 268.812 261.408C268.861 261.476 268.876 261.575 268.856 261.703C268.856 261.92 268.787 262.112 268.649 262.279C268.511 262.447 268.29 262.536 267.984 262.545Z" fill="#D9EBFF"/>
<path d="M737 248L937 48M737 48.0001L937 248" stroke="#B3BFD8" stroke-width="2"/>
<circle cx="737" cy="248" r="5" fill="black" stroke="#D9EBFF" stroke-width="2"/>
<circle cx="937" cy="48" r="5" fill="black" stroke="#D9EBFF" stroke-width="2"/>
<circle cx="737" cy="48" r="5" fill="black" stroke="#D9EBFF" stroke-width="2"/>
<circle cx="937" cy="248" r="5" fill="black" stroke="#D9EBFF" stroke-width="2"/>
<circle cx="837" cy="148" r="5" fill="black" stroke="#D9EBFF" stroke-width="2"/>
<path d="M725 260.241C725.014 260.157 725.035 260.046 725.063 259.907C725.091 259.767 725.174 259.502 725.314 259.112C725.453 258.722 725.592 258.395 725.732 258.13C725.871 257.865 726.101 257.607 726.421 257.356C726.742 257.106 727.062 256.987 727.383 257.001C727.885 257.001 728.303 257.127 728.637 257.377C728.971 257.628 729.18 257.865 729.264 258.088C729.348 258.311 729.389 258.457 729.389 258.527C729.389 258.555 729.396 258.569 729.41 258.569L729.64 258.339C730.49 257.447 731.459 257.001 732.546 257.001C733.298 257.001 733.904 257.189 734.364 257.565C734.824 257.942 735.061 258.492 735.075 259.217C735.089 259.941 734.824 261.035 734.281 262.498C733.737 263.962 733.472 264.846 733.486 265.153C733.486 265.515 733.605 265.696 733.842 265.696C733.925 265.696 733.988 265.689 734.03 265.676C734.434 265.606 734.796 265.341 735.117 264.881C735.437 264.421 735.681 263.864 735.848 263.209C735.876 263.098 736.016 263.042 736.266 263.042C736.545 263.042 736.684 263.098 736.684 263.209C736.684 263.223 736.657 263.328 736.601 263.523C736.489 263.927 736.336 264.324 736.141 264.714C735.946 265.104 735.625 265.494 735.179 265.885C734.733 266.275 734.253 266.463 733.737 266.449C733.082 266.449 732.608 266.261 732.316 265.885C732.023 265.508 731.877 265.118 731.877 264.714C731.877 264.449 732.128 263.613 732.629 262.206C733.131 260.798 733.389 259.739 733.403 259.029C733.403 258.206 733.096 257.795 732.483 257.795H732.379C731.18 257.795 730.17 258.499 729.348 259.907L729.201 260.157L728.512 262.958C728.052 264.784 727.787 265.766 727.717 265.905C727.536 266.282 727.237 266.47 726.818 266.47C726.637 266.47 726.491 266.428 726.38 266.344C726.268 266.261 726.191 266.177 726.15 266.094C726.108 266.01 726.094 265.94 726.108 265.885C726.108 265.703 726.373 264.568 726.902 262.477C727.432 260.387 727.71 259.252 727.738 259.07C727.752 259.001 727.759 258.841 727.759 258.59C727.759 258.046 727.592 257.774 727.257 257.774C726.728 257.774 726.289 258.471 725.941 259.865C725.857 260.143 725.815 260.29 725.815 260.304C725.787 260.387 725.655 260.429 725.418 260.429H725.125C725.042 260.345 725 260.283 725 260.241Z" fill="#D9EBFF"/>
<path d="M738.526 260.743C739.078 259.945 739.832 259.546 740.787 259.546C741.26 259.546 741.733 259.674 742.206 259.93C742.679 260.186 743.063 260.639 743.359 261.289C743.723 262.107 743.905 263.23 743.905 264.659C743.905 266.186 743.694 267.353 743.27 268.161C743.073 268.575 742.802 268.905 742.457 269.151C742.112 269.397 741.812 269.55 741.556 269.609C741.3 269.668 741.048 269.703 740.802 269.713C740.546 269.713 740.29 269.683 740.034 269.624C739.777 269.565 739.477 269.407 739.132 269.151C738.787 268.895 738.516 268.565 738.319 268.161C737.896 267.353 737.684 266.186 737.684 264.659C737.684 262.944 737.965 261.639 738.526 260.743ZM741.851 260.565C741.556 260.25 741.206 260.092 740.802 260.092C740.388 260.092 740.034 260.25 739.738 260.565C739.492 260.821 739.329 261.176 739.25 261.629C739.171 262.082 739.132 263.028 739.132 264.467C739.132 266.023 739.171 267.048 739.25 267.54C739.329 268.033 739.506 268.422 739.782 268.708C740.058 269.003 740.398 269.151 740.802 269.151C741.196 269.151 741.531 269.003 741.807 268.708C742.093 268.412 742.27 267.998 742.339 267.466C742.408 266.934 742.447 265.934 742.457 264.467C742.457 263.038 742.418 262.097 742.339 261.644C742.26 261.191 742.098 260.831 741.851 260.565Z" fill="#D9EBFF"/>
<path d="M932 30.241C932.014 30.1573 932.035 30.0459 932.063 29.9065C932.091 29.7672 932.174 29.5024 932.314 29.1122C932.453 28.7221 932.592 28.3946 932.732 28.1298C932.871 27.8651 933.101 27.6073 933.421 27.3564C933.742 27.1056 934.062 26.9872 934.383 27.0011C934.885 27.0011 935.303 27.1265 935.637 27.3773C935.971 27.6282 936.18 27.8651 936.264 28.088C936.348 28.311 936.389 28.4573 936.389 28.527C936.389 28.5548 936.396 28.5688 936.41 28.5688L936.64 28.3388C937.49 27.447 938.459 27.0011 939.546 27.0011C940.298 27.0011 940.904 27.1892 941.364 27.5655C941.824 27.9417 942.061 28.4921 942.075 29.2167C942.089 29.9414 941.824 31.0352 941.281 32.4984C940.737 33.9616 940.472 34.8464 940.486 35.153C940.486 35.5153 940.605 35.6964 940.842 35.6964C940.925 35.6964 940.988 35.6895 941.03 35.6755C941.434 35.6059 941.796 35.3411 942.117 34.8813C942.437 34.4214 942.681 33.864 942.848 33.2091C942.876 33.0976 943.016 33.0419 943.266 33.0419C943.545 33.0419 943.684 33.0976 943.684 33.2091C943.684 33.223 943.657 33.3275 943.601 33.5226C943.489 33.9267 943.336 34.3239 943.141 34.714C942.946 35.1042 942.625 35.4944 942.179 35.8846C941.733 36.2747 941.253 36.4629 940.737 36.4489C940.082 36.4489 939.608 36.2608 939.316 35.8846C939.023 35.5083 938.877 35.1182 938.877 34.714C938.877 34.4493 939.128 33.6132 939.629 32.2058C940.131 30.7983 940.389 29.7393 940.403 29.0286C940.403 28.2065 940.096 27.7954 939.483 27.7954H939.379C938.18 27.7954 937.17 28.4991 936.348 29.9065L936.201 30.1573L935.512 32.9583C935.052 34.7837 934.787 35.7661 934.717 35.9055C934.536 36.2817 934.237 36.4698 933.818 36.4698C933.637 36.4698 933.491 36.428 933.38 36.3444C933.268 36.2608 933.191 36.1772 933.15 36.0936C933.108 36.01 933.094 35.9403 933.108 35.8846C933.108 35.7034 933.373 34.5677 933.902 32.4775C934.432 30.3873 934.71 29.2516 934.738 29.0704C934.752 29.0008 934.759 28.8405 934.759 28.5897C934.759 28.0462 934.592 27.7745 934.257 27.7745C933.728 27.7745 933.289 28.4712 932.941 29.8647C932.857 30.1434 932.815 30.2897 932.815 30.3037C932.787 30.3873 932.655 30.4291 932.418 30.4291H932.125C932.042 30.3455 932 30.2828 932 30.241Z" fill="#D9EBFF"/>
<path d="M947.255 30.846L947.063 30.9199C946.925 30.9691 946.728 31.0184 946.472 31.0676C946.216 31.1169 945.93 31.1514 945.615 31.1711H945.334V30.4913H945.615C946.078 30.4716 946.506 30.3977 946.901 30.2696C947.295 30.1416 947.57 30.0233 947.728 29.915C947.886 29.8066 948.024 29.6982 948.142 29.5898C948.162 29.5603 948.221 29.5455 948.319 29.5455C948.408 29.5455 948.492 29.5751 948.57 29.6342V34.0528L948.585 38.4862C948.654 38.5551 948.713 38.5994 948.763 38.6192C948.812 38.6389 948.93 38.6586 949.117 38.6783C949.304 38.698 949.61 38.7078 950.033 38.7078H950.418V39.3876H950.255C950.048 39.358 949.265 39.3433 947.905 39.3433C946.566 39.3433 945.792 39.358 945.585 39.3876H945.408V38.7078H945.792C946.009 38.7078 946.196 38.7078 946.354 38.7078C946.511 38.7078 946.635 38.7029 946.723 38.693C946.812 38.6832 946.891 38.6684 946.96 38.6487C947.029 38.629 947.068 38.6192 947.078 38.6192C947.088 38.6192 947.117 38.5945 947.167 38.5453C947.216 38.496 947.245 38.4763 947.255 38.4862V30.846Z" fill="#D9EBFF"/>
<path d="M728 30.241C728.014 30.1573 728.035 30.0459 728.063 29.9065C728.091 29.7672 728.174 29.5024 728.314 29.1122C728.453 28.7221 728.592 28.3946 728.732 28.1298C728.871 27.8651 729.101 27.6073 729.421 27.3564C729.742 27.1056 730.062 26.9872 730.383 27.0011C730.885 27.0011 731.303 27.1265 731.637 27.3773C731.971 27.6282 732.18 27.8651 732.264 28.088C732.348 28.311 732.389 28.4573 732.389 28.527C732.389 28.5548 732.396 28.5688 732.41 28.5688L732.64 28.3388C733.49 27.447 734.459 27.0011 735.546 27.0011C736.298 27.0011 736.904 27.1892 737.364 27.5655C737.824 27.9417 738.061 28.4921 738.075 29.2167C738.089 29.9414 737.824 31.0352 737.281 32.4984C736.737 33.9616 736.472 34.8464 736.486 35.153C736.486 35.5153 736.605 35.6964 736.842 35.6964C736.925 35.6964 736.988 35.6895 737.03 35.6755C737.434 35.6059 737.796 35.3411 738.117 34.8813C738.437 34.4214 738.681 33.864 738.848 33.2091C738.876 33.0976 739.016 33.0419 739.266 33.0419C739.545 33.0419 739.684 33.0976 739.684 33.2091C739.684 33.223 739.657 33.3275 739.601 33.5226C739.489 33.9267 739.336 34.3239 739.141 34.714C738.946 35.1042 738.625 35.4944 738.179 35.8846C737.733 36.2747 737.253 36.4629 736.737 36.4489C736.082 36.4489 735.608 36.2608 735.316 35.8846C735.023 35.5083 734.877 35.1182 734.877 34.714C734.877 34.4493 735.128 33.6132 735.629 32.2058C736.131 30.7983 736.389 29.7393 736.403 29.0286C736.403 28.2065 736.096 27.7954 735.483 27.7954H735.379C734.18 27.7954 733.17 28.4991 732.348 29.9065L732.201 30.1573L731.512 32.9583C731.052 34.7837 730.787 35.7661 730.717 35.9055C730.536 36.2817 730.237 36.4698 729.819 36.4698C729.637 36.4698 729.491 36.428 729.38 36.3444C729.268 36.2608 729.191 36.1772 729.15 36.0936C729.108 36.01 729.094 35.9403 729.108 35.8846C729.108 35.7034 729.373 34.5677 729.902 32.4775C730.432 30.3873 730.71 29.2516 730.738 29.0704C730.752 29.0008 730.759 28.8405 730.759 28.5897C730.759 28.0462 730.592 27.7745 730.257 27.7745C729.728 27.7745 729.289 28.4712 728.941 29.8647C728.857 30.1434 728.815 30.2897 728.815 30.3037C728.787 30.3873 728.655 30.4291 728.418 30.4291H728.125C728.042 30.3455 728 30.2828 728 30.241Z" fill="#D9EBFF"/>
<path d="M741.718 33.0479C741.452 33.0479 741.24 32.9592 741.083 32.7819C740.925 32.6045 740.846 32.3878 740.846 32.1316C740.846 31.4322 741.107 30.8263 741.63 30.314C742.152 29.8017 742.802 29.5455 743.58 29.5455C744.477 29.5455 745.226 29.8214 745.827 30.3731C746.428 30.9248 746.733 31.6391 746.743 32.5159C746.743 32.9395 746.644 33.3434 746.447 33.7277C746.25 34.1119 746.014 34.4469 745.738 34.7326C745.462 35.0183 745.068 35.3828 744.556 35.8261C744.201 36.1315 743.708 36.5847 743.078 37.1857L742.206 38.0133L743.329 38.028C744.876 38.028 745.698 38.0034 745.797 37.9541C745.866 37.9344 745.984 37.496 746.152 36.6389V36.5946H746.743V36.6389C746.733 36.6685 746.669 37.1167 746.551 37.9837C746.432 38.8507 746.359 39.3039 746.329 39.3433V39.3876H740.846V38.9295C740.846 38.8605 740.876 38.7866 740.935 38.7078C740.994 38.629 741.142 38.4566 741.378 38.1906C741.664 37.8753 741.91 37.5995 742.117 37.363C742.206 37.2645 742.373 37.0822 742.62 36.8162C742.866 36.5502 743.034 36.368 743.122 36.2695C743.211 36.1709 743.354 36.0084 743.551 35.7818C743.748 35.5552 743.886 35.3877 743.965 35.2793C744.043 35.171 744.157 35.0232 744.304 34.836C744.452 34.6488 744.556 34.4912 744.615 34.3631C744.674 34.235 744.748 34.0922 744.836 33.9346C744.925 33.7769 744.989 33.6193 745.029 33.4617C745.068 33.304 745.102 33.1563 745.132 33.0183C745.162 32.8804 745.176 32.7178 745.176 32.5307C745.176 31.91 745.009 31.373 744.674 30.9199C744.339 30.4667 743.861 30.2401 743.24 30.2401C742.915 30.2401 742.63 30.3238 742.383 30.4913C742.137 30.6588 741.965 30.8213 741.866 30.979C741.768 31.1366 741.718 31.2302 741.718 31.2598C741.718 31.2696 741.743 31.2745 741.792 31.2745C741.97 31.2745 742.152 31.3435 742.339 31.4814C742.526 31.6193 742.62 31.8459 742.62 32.1612C742.62 32.4075 742.541 32.6144 742.383 32.7819C742.226 32.9494 742.004 33.038 741.718 33.0479Z" fill="#D9EBFF"/>
<path d="M928 260.241C928.014 260.157 928.035 260.046 928.063 259.907C928.091 259.767 928.174 259.502 928.314 259.112C928.453 258.722 928.592 258.395 928.732 258.13C928.871 257.865 929.101 257.607 929.421 257.356C929.742 257.106 930.062 256.987 930.383 257.001C930.885 257.001 931.303 257.127 931.637 257.377C931.971 257.628 932.18 257.865 932.264 258.088C932.348 258.311 932.389 258.457 932.389 258.527C932.389 258.555 932.396 258.569 932.41 258.569L932.64 258.339C933.49 257.447 934.459 257.001 935.546 257.001C936.298 257.001 936.904 257.189 937.364 257.565C937.824 257.942 938.061 258.492 938.075 259.217C938.089 259.941 937.824 261.035 937.281 262.498C936.737 263.962 936.472 264.846 936.486 265.153C936.486 265.515 936.605 265.696 936.842 265.696C936.925 265.696 936.988 265.689 937.03 265.676C937.434 265.606 937.796 265.341 938.117 264.881C938.437 264.421 938.681 263.864 938.848 263.209C938.876 263.098 939.016 263.042 939.266 263.042C939.545 263.042 939.684 263.098 939.684 263.209C939.684 263.223 939.657 263.328 939.601 263.523C939.489 263.927 939.336 264.324 939.141 264.714C938.946 265.104 938.625 265.494 938.179 265.885C937.733 266.275 937.253 266.463 936.737 266.449C936.082 266.449 935.608 266.261 935.316 265.885C935.023 265.508 934.877 265.118 934.877 264.714C934.877 264.449 935.128 263.613 935.629 262.206C936.131 260.798 936.389 259.739 936.403 259.029C936.403 258.206 936.096 257.795 935.483 257.795H935.379C934.18 257.795 933.17 258.499 932.348 259.907L932.201 260.157L931.512 262.958C931.052 264.784 930.787 265.766 930.717 265.905C930.536 266.282 930.237 266.47 929.818 266.47C929.637 266.47 929.491 266.428 929.38 266.344C929.268 266.261 929.191 266.177 929.15 266.094C929.108 266.01 929.094 265.94 929.108 265.885C929.108 265.703 929.373 264.568 929.902 262.477C930.432 260.387 930.71 259.252 930.738 259.07C930.752 259.001 930.759 258.841 930.759 258.59C930.759 258.046 930.592 257.774 930.257 257.774C929.728 257.774 929.289 258.471 928.941 259.865C928.857 260.143 928.815 260.29 928.815 260.304C928.787 260.387 928.655 260.429 928.418 260.429H928.125C928.042 260.345 928 260.283 928 260.241Z" fill="#D9EBFF"/>
<path d="M941.984 262.545C941.718 262.545 941.511 262.462 941.364 262.294C941.216 262.127 941.137 261.91 941.127 261.644C941.127 261.102 941.364 260.619 941.837 260.196C942.309 259.772 942.881 259.56 943.551 259.56C943.896 259.56 944.112 259.565 944.201 259.575C944.93 259.693 945.487 259.954 945.871 260.358C946.255 260.762 946.452 261.201 946.462 261.674C946.462 262.186 946.295 262.683 945.96 263.166C945.625 263.649 945.162 263.999 944.57 264.215L944.526 264.245C944.526 264.255 944.57 264.27 944.659 264.289C944.748 264.309 944.891 264.353 945.088 264.422C945.285 264.491 945.472 264.595 945.649 264.733C946.457 265.255 946.861 265.944 946.861 266.801C946.861 267.58 946.556 268.26 945.945 268.841C945.334 269.422 944.561 269.713 943.625 269.713C942.836 269.713 942.157 269.501 941.585 269.077C941.014 268.654 940.728 268.117 940.728 267.466C940.728 267.191 940.817 266.969 940.994 266.801C941.172 266.634 941.393 266.545 941.659 266.535C941.935 266.535 942.162 266.624 942.339 266.801C942.516 266.979 942.605 267.2 942.605 267.466C942.605 267.575 942.59 267.673 942.561 267.762C942.531 267.851 942.497 267.93 942.457 267.998C942.418 268.067 942.364 268.127 942.295 268.176C942.226 268.225 942.167 268.264 942.117 268.294C942.068 268.324 942.019 268.343 941.97 268.353C941.92 268.363 941.881 268.378 941.851 268.397L941.792 268.412C942.295 268.856 942.905 269.077 943.625 269.077C944.167 269.077 944.575 268.816 944.851 268.294C945.019 267.969 945.102 267.471 945.102 266.801V266.506C945.102 265.57 944.787 264.944 944.157 264.629C944.009 264.57 943.708 264.536 943.255 264.526L942.635 264.511L942.59 264.481C942.57 264.452 942.561 264.373 942.561 264.245C942.561 264.068 942.6 263.979 942.679 263.979C942.955 263.979 943.24 263.954 943.536 263.905C943.871 263.856 944.176 263.649 944.452 263.284C944.728 262.92 944.866 262.368 944.866 261.629V261.511C944.866 260.949 944.694 260.56 944.349 260.344C944.132 260.206 943.9 260.137 943.654 260.137C943.339 260.137 943.048 260.191 942.782 260.299C942.516 260.408 942.329 260.521 942.221 260.639C942.112 260.757 942.058 260.816 942.058 260.816H942.103C942.132 260.826 942.171 260.836 942.221 260.846C942.27 260.856 942.319 260.88 942.369 260.92C942.418 260.959 942.477 260.994 942.546 261.023C942.615 261.053 942.664 261.107 942.694 261.186C942.723 261.265 942.763 261.339 942.812 261.408C942.861 261.476 942.876 261.575 942.856 261.703C942.856 261.92 942.787 262.112 942.649 262.279C942.511 262.447 942.29 262.536 941.984 262.545Z" fill="#D9EBFF"/>
<path d="M627 29.5L527 129.5M385 29.5001L485 129.5M386.5 266.5L486.5 166.5M627 266.5L527 166.5" stroke="#B3BFD8" stroke-width="2"/>
<circle cx="385" cy="266" r="5" fill="black" stroke="#D9EBFF" stroke-width="2"/>
<circle cx="626" cy="30" r="5" fill="black" stroke="#D9EBFF" stroke-width="2"/>
<circle cx="385" cy="30" r="5" fill="black" stroke="#D9EBFF" stroke-width="2"/>
<circle cx="626" cy="266" r="5" fill="black" stroke="#D9EBFF" stroke-width="2"/>
<path d="M375 278.241C375.014 278.157 375.035 278.046 375.063 277.907C375.091 277.767 375.174 277.502 375.314 277.112C375.453 276.722 375.592 276.395 375.732 276.13C375.871 275.865 376.101 275.607 376.421 275.356C376.742 275.106 377.062 274.987 377.383 275.001C377.885 275.001 378.303 275.127 378.637 275.377C378.971 275.628 379.18 275.865 379.264 276.088C379.348 276.311 379.389 276.457 379.389 276.527C379.389 276.555 379.396 276.569 379.41 276.569L379.64 276.339C380.49 275.447 381.459 275.001 382.546 275.001C383.298 275.001 383.904 275.189 384.364 275.565C384.824 275.942 385.061 276.492 385.075 277.217C385.089 277.941 384.824 279.035 384.281 280.498C383.737 281.962 383.472 282.846 383.486 283.153C383.486 283.515 383.605 283.696 383.842 283.696C383.925 283.696 383.988 283.689 384.03 283.676C384.434 283.606 384.796 283.341 385.117 282.881C385.437 282.421 385.681 281.864 385.848 281.209C385.876 281.098 386.016 281.042 386.266 281.042C386.545 281.042 386.684 281.098 386.684 281.209C386.684 281.223 386.657 281.328 386.601 281.523C386.489 281.927 386.336 282.324 386.141 282.714C385.946 283.104 385.625 283.494 385.179 283.885C384.733 284.275 384.253 284.463 383.737 284.449C383.082 284.449 382.608 284.261 382.316 283.885C382.023 283.508 381.877 283.118 381.877 282.714C381.877 282.449 382.128 281.613 382.629 280.206C383.131 278.798 383.389 277.739 383.403 277.029C383.403 276.206 383.096 275.795 382.483 275.795H382.379C381.18 275.795 380.17 276.499 379.348 277.907L379.201 278.157L378.512 280.958C378.052 282.784 377.787 283.766 377.717 283.905C377.536 284.282 377.237 284.47 376.818 284.47C376.637 284.47 376.491 284.428 376.38 284.344C376.268 284.261 376.191 284.177 376.15 284.094C376.108 284.01 376.094 283.94 376.108 283.885C376.108 283.703 376.373 282.568 376.902 280.477C377.432 278.387 377.71 277.252 377.738 277.07C377.752 277.001 377.759 276.841 377.759 276.59C377.759 276.046 377.592 275.774 377.257 275.774C376.728 275.774 376.289 276.471 375.941 277.865C375.857 278.143 375.815 278.29 375.815 278.304C375.787 278.387 375.655 278.429 375.418 278.429H375.125C375.042 278.345 375 278.283 375 278.241Z" fill="#D9EBFF"/>
<path d="M388.526 278.743C389.078 277.945 389.832 277.546 390.787 277.546C391.26 277.546 391.733 277.674 392.206 277.93C392.679 278.186 393.063 278.639 393.359 279.289C393.723 280.107 393.905 281.23 393.905 282.659C393.905 284.186 393.694 285.353 393.27 286.161C393.073 286.575 392.802 286.905 392.457 287.151C392.112 287.397 391.812 287.55 391.556 287.609C391.3 287.668 391.048 287.703 390.802 287.713C390.546 287.713 390.29 287.683 390.034 287.624C389.777 287.565 389.477 287.407 389.132 287.151C388.787 286.895 388.516 286.565 388.319 286.161C387.896 285.353 387.684 284.186 387.684 282.659C387.684 280.944 387.965 279.639 388.526 278.743ZM391.851 278.565C391.556 278.25 391.206 278.092 390.802 278.092C390.388 278.092 390.034 278.25 389.738 278.565C389.492 278.821 389.329 279.176 389.25 279.629C389.171 280.082 389.132 281.028 389.132 282.467C389.132 284.023 389.171 285.048 389.25 285.54C389.329 286.033 389.506 286.422 389.782 286.708C390.058 287.003 390.398 287.151 390.802 287.151C391.196 287.151 391.531 287.003 391.807 286.708C392.093 286.412 392.27 285.998 392.339 285.466C392.408 284.934 392.447 283.934 392.457 282.467C392.457 281.038 392.418 280.097 392.339 279.644C392.26 279.191 392.098 278.831 391.851 278.565Z" fill="#D9EBFF"/>
<path d="M618 13.241C618.014 13.1573 618.035 13.0459 618.063 12.9065C618.091 12.7672 618.174 12.5024 618.314 12.1122C618.453 11.7221 618.592 11.3946 618.732 11.1298C618.871 10.8651 619.101 10.6073 619.421 10.3564C619.742 10.1056 620.062 9.98717 620.383 10.0011C620.885 10.0011 621.303 10.1265 621.637 10.3773C621.971 10.6282 622.18 10.8651 622.264 11.088C622.348 11.311 622.389 11.4573 622.389 11.527C622.389 11.5548 622.396 11.5688 622.41 11.5688L622.64 11.3388C623.49 10.447 624.459 10.0011 625.546 10.0011C626.298 10.0011 626.904 10.1892 627.364 10.5655C627.824 10.9417 628.061 11.4921 628.075 12.2167C628.089 12.9414 627.824 14.0352 627.281 15.4984C626.737 16.9616 626.472 17.8464 626.486 18.153C626.486 18.5153 626.605 18.6964 626.842 18.6964C626.925 18.6964 626.988 18.6895 627.03 18.6755C627.434 18.6059 627.796 18.3411 628.117 17.8813C628.437 17.4214 628.681 16.864 628.848 16.2091C628.876 16.0976 629.016 16.0419 629.266 16.0419C629.545 16.0419 629.684 16.0976 629.684 16.2091C629.684 16.223 629.657 16.3275 629.601 16.5226C629.489 16.9267 629.336 17.3239 629.141 17.714C628.946 18.1042 628.625 18.4944 628.179 18.8846C627.733 19.2747 627.253 19.4629 626.737 19.4489C626.082 19.4489 625.608 19.2608 625.316 18.8846C625.023 18.5083 624.877 18.1182 624.877 17.714C624.877 17.4493 625.128 16.6132 625.629 15.2058C626.131 13.7983 626.389 12.7393 626.403 12.0286C626.403 11.2065 626.096 10.7954 625.483 10.7954H625.379C624.18 10.7954 623.17 11.4991 622.348 12.9065L622.201 13.1573L621.512 15.9583C621.052 17.7837 620.787 18.7661 620.717 18.9055C620.536 19.2817 620.237 19.4698 619.818 19.4698C619.637 19.4698 619.491 19.428 619.38 19.3444C619.268 19.2608 619.191 19.1772 619.15 19.0936C619.108 19.01 619.094 18.9403 619.108 18.8846C619.108 18.7034 619.373 17.5677 619.902 15.4775C620.432 13.3873 620.71 12.2516 620.738 12.0704C620.752 12.0008 620.759 11.8405 620.759 11.5897C620.759 11.0462 620.592 10.7745 620.257 10.7745C619.728 10.7745 619.289 11.4712 618.941 12.8647C618.857 13.1434 618.815 13.2897 618.815 13.3037C618.787 13.3873 618.655 13.4291 618.418 13.4291H618.125C618.042 13.3455 618 13.2828 618 13.241Z" fill="#D9EBFF"/>
<path d="M633.255 13.846L633.063 13.9199C632.925 13.9691 632.728 14.0184 632.472 14.0676C632.216 14.1169 631.93 14.1514 631.615 14.1711H631.334V13.4913H631.615C632.078 13.4716 632.506 13.3977 632.901 13.2696C633.295 13.1416 633.57 13.0233 633.728 12.915C633.886 12.8066 634.024 12.6982 634.142 12.5898C634.162 12.5603 634.221 12.5455 634.319 12.5455C634.408 12.5455 634.492 12.5751 634.57 12.6342V17.0528L634.585 21.4862C634.654 21.5551 634.713 21.5994 634.763 21.6192C634.812 21.6389 634.93 21.6586 635.117 21.6783C635.304 21.698 635.61 21.7078 636.033 21.7078H636.418V22.3876H636.255C636.048 22.358 635.265 22.3433 633.905 22.3433C632.566 22.3433 631.792 22.358 631.585 22.3876H631.408V21.7078H631.792C632.009 21.7078 632.196 21.7078 632.354 21.7078C632.511 21.7078 632.635 21.7029 632.723 21.693C632.812 21.6832 632.891 21.6684 632.96 21.6487C633.029 21.629 633.068 21.6192 633.078 21.6192C633.088 21.6192 633.117 21.5945 633.167 21.5453C633.216 21.496 633.245 21.4763 633.255 21.4862V13.846Z" fill="#D9EBFF"/>
<path d="M376 12.241C376.014 12.1573 376.035 12.0459 376.063 11.9065C376.091 11.7672 376.174 11.5024 376.314 11.1122C376.453 10.7221 376.592 10.3946 376.732 10.1298C376.871 9.86506 377.101 9.60727 377.421 9.35644C377.742 9.10561 378.062 8.98717 378.383 9.0011C378.885 9.0011 379.303 9.12651 379.637 9.37734C379.971 9.62817 380.18 9.86506 380.264 10.088C380.348 10.311 380.389 10.4573 380.389 10.527C380.389 10.5548 380.396 10.5688 380.41 10.5688L380.64 10.3388C381.49 9.44702 382.459 9.0011 383.546 9.0011C384.298 9.0011 384.904 9.18922 385.364 9.56546C385.824 9.9417 386.061 10.4921 386.075 11.2167C386.089 11.9414 385.824 13.0352 385.281 14.4984C384.737 15.9616 384.472 16.8464 384.486 17.153C384.486 17.5153 384.605 17.6964 384.842 17.6964C384.925 17.6964 384.988 17.6895 385.03 17.6755C385.434 17.6059 385.796 17.3411 386.117 16.8813C386.437 16.4214 386.681 15.864 386.848 15.2091C386.876 15.0976 387.016 15.0419 387.266 15.0419C387.545 15.0419 387.684 15.0976 387.684 15.2091C387.684 15.223 387.657 15.3275 387.601 15.5226C387.489 15.9267 387.336 16.3239 387.141 16.714C386.946 17.1042 386.625 17.4944 386.179 17.8846C385.733 18.2747 385.253 18.4629 384.737 18.4489C384.082 18.4489 383.608 18.2608 383.316 17.8846C383.023 17.5083 382.877 17.1182 382.877 16.714C382.877 16.4493 383.128 15.6132 383.629 14.2058C384.131 12.7983 384.389 11.7393 384.403 11.0286C384.403 10.2065 384.096 9.79539 383.483 9.79539H383.379C382.18 9.79539 381.17 10.4991 380.348 11.9065L380.201 12.1573L379.512 14.9583C379.052 16.7837 378.787 17.7661 378.717 17.9055C378.536 18.2817 378.237 18.4698 377.819 18.4698C377.637 18.4698 377.491 18.428 377.38 18.3444C377.268 18.2608 377.191 18.1772 377.15 18.0936C377.108 18.01 377.094 17.9403 377.108 17.8846C377.108 17.7034 377.373 16.5677 377.902 14.4775C378.432 12.3873 378.71 11.2516 378.738 11.0704C378.752 11.0008 378.759 10.8405 378.759 10.5897C378.759 10.0462 378.592 9.77448 378.257 9.77448C377.728 9.77448 377.289 10.4712 376.941 11.8647C376.857 12.1434 376.815 12.2897 376.815 12.3037C376.787 12.3873 376.655 12.4291 376.418 12.4291H376.125C376.042 12.3455 376 12.2828 376 12.241Z" fill="#D9EBFF"/>
<path d="M389.718 15.0479C389.452 15.0479 389.24 14.9592 389.083 14.7819C388.925 14.6045 388.846 14.3878 388.846 14.1316C388.846 13.4322 389.107 12.8263 389.63 12.314C390.152 11.8017 390.802 11.5455 391.58 11.5455C392.477 11.5455 393.226 11.8214 393.827 12.3731C394.428 12.9248 394.733 13.6391 394.743 14.5159C394.743 14.9395 394.644 15.3434 394.447 15.7277C394.25 16.1119 394.014 16.4469 393.738 16.7326C393.462 17.0183 393.068 17.3828 392.556 17.8261C392.201 18.1315 391.708 18.5847 391.078 19.1857L390.206 20.0133L391.329 20.028C392.876 20.028 393.698 20.0034 393.797 19.9541C393.866 19.9344 393.984 19.496 394.152 18.6389V18.5946H394.743V18.6389C394.733 18.6685 394.669 19.1167 394.551 19.9837C394.432 20.8507 394.359 21.3039 394.329 21.3433V21.3876H388.846V20.9295C388.846 20.8605 388.876 20.7866 388.935 20.7078C388.994 20.629 389.142 20.4566 389.378 20.1906C389.664 19.8753 389.91 19.5995 390.117 19.363C390.206 19.2645 390.373 19.0822 390.62 18.8162C390.866 18.5502 391.034 18.368 391.122 18.2695C391.211 18.1709 391.354 18.0084 391.551 17.7818C391.748 17.5552 391.886 17.3877 391.965 17.2793C392.043 17.171 392.157 17.0232 392.304 16.836C392.452 16.6488 392.556 16.4912 392.615 16.3631C392.674 16.235 392.748 16.0922 392.836 15.9346C392.925 15.7769 392.989 15.6193 393.029 15.4617C393.068 15.304 393.102 15.1563 393.132 15.0183C393.162 14.8804 393.176 14.7178 393.176 14.5307C393.176 13.91 393.009 13.373 392.674 12.9199C392.339 12.4667 391.861 12.2401 391.24 12.2401C390.915 12.2401 390.63 12.3238 390.383 12.4913C390.137 12.6588 389.965 12.8213 389.866 12.979C389.768 13.1366 389.718 13.2302 389.718 13.2598C389.718 13.2696 389.743 13.2745 389.792 13.2745C389.97 13.2745 390.152 13.3435 390.339 13.4814C390.526 13.6193 390.62 13.8459 390.62 14.1612C390.62 14.4075 390.541 14.6144 390.383 14.7819C390.226 14.9494 390.004 15.038 389.718 15.0479Z" fill="#D9EBFF"/>
<path d="M617 278.241C617.014 278.157 617.035 278.046 617.063 277.907C617.091 277.767 617.174 277.502 617.314 277.112C617.453 276.722 617.592 276.395 617.732 276.13C617.871 275.865 618.101 275.607 618.421 275.356C618.742 275.106 619.062 274.987 619.383 275.001C619.885 275.001 620.303 275.127 620.637 275.377C620.971 275.628 621.18 275.865 621.264 276.088C621.348 276.311 621.389 276.457 621.389 276.527C621.389 276.555 621.396 276.569 621.41 276.569L621.64 276.339C622.49 275.447 623.459 275.001 624.546 275.001C625.298 275.001 625.904 275.189 626.364 275.565C626.824 275.942 627.061 276.492 627.075 277.217C627.089 277.941 626.824 279.035 626.281 280.498C625.737 281.962 625.472 282.846 625.486 283.153C625.486 283.515 625.605 283.696 625.842 283.696C625.925 283.696 625.988 283.689 626.03 283.676C626.434 283.606 626.796 283.341 627.117 282.881C627.437 282.421 627.681 281.864 627.848 281.209C627.876 281.098 628.016 281.042 628.266 281.042C628.545 281.042 628.684 281.098 628.684 281.209C628.684 281.223 628.657 281.328 628.601 281.523C628.489 281.927 628.336 282.324 628.141 282.714C627.946 283.104 627.625 283.494 627.179 283.885C626.733 284.275 626.253 284.463 625.737 284.449C625.082 284.449 624.608 284.261 624.316 283.885C624.023 283.508 623.877 283.118 623.877 282.714C623.877 282.449 624.128 281.613 624.629 280.206C625.131 278.798 625.389 277.739 625.403 277.029C625.403 276.206 625.096 275.795 624.483 275.795H624.379C623.18 275.795 622.17 276.499 621.348 277.907L621.201 278.157L620.512 280.958C620.052 282.784 619.787 283.766 619.717 283.905C619.536 284.282 619.237 284.47 618.818 284.47C618.637 284.47 618.491 284.428 618.38 284.344C618.268 284.261 618.191 284.177 618.15 284.094C618.108 284.01 618.094 283.94 618.108 283.885C618.108 283.703 618.373 282.568 618.902 280.477C619.432 278.387 619.71 277.252 619.738 277.07C619.752 277.001 619.759 276.841 619.759 276.59C619.759 276.046 619.592 275.774 619.257 275.774C618.728 275.774 618.289 276.471 617.941 277.865C617.857 278.143 617.815 278.29 617.815 278.304C617.787 278.387 617.655 278.429 617.418 278.429H617.125C617.042 278.345 617 278.283 617 278.241Z" fill="#D9EBFF"/>
<path d="M630.984 280.545C630.718 280.545 630.511 280.462 630.364 280.294C630.216 280.127 630.137 279.91 630.127 279.644C630.127 279.102 630.364 278.619 630.837 278.196C631.309 277.772 631.881 277.56 632.551 277.56C632.896 277.56 633.112 277.565 633.201 277.575C633.93 277.693 634.487 277.954 634.871 278.358C635.255 278.762 635.452 279.201 635.462 279.674C635.462 280.186 635.295 280.683 634.96 281.166C634.625 281.649 634.162 281.999 633.57 282.215L633.526 282.245C633.526 282.255 633.57 282.27 633.659 282.289C633.748 282.309 633.891 282.353 634.088 282.422C634.285 282.491 634.472 282.595 634.649 282.733C635.457 283.255 635.861 283.944 635.861 284.801C635.861 285.58 635.556 286.26 634.945 286.841C634.334 287.422 633.561 287.713 632.625 287.713C631.836 287.713 631.157 287.501 630.585 287.077C630.014 286.654 629.728 286.117 629.728 285.466C629.728 285.191 629.817 284.969 629.994 284.801C630.172 284.634 630.393 284.545 630.659 284.535C630.935 284.535 631.162 284.624 631.339 284.801C631.516 284.979 631.605 285.2 631.605 285.466C631.605 285.575 631.59 285.673 631.561 285.762C631.531 285.851 631.497 285.93 631.457 285.998C631.418 286.067 631.364 286.127 631.295 286.176C631.226 286.225 631.167 286.264 631.117 286.294C631.068 286.324 631.019 286.343 630.97 286.353C630.92 286.363 630.881 286.378 630.851 286.397L630.792 286.412C631.295 286.856 631.905 287.077 632.625 287.077C633.167 287.077 633.575 286.816 633.851 286.294C634.019 285.969 634.102 285.471 634.102 284.801V284.506C634.102 283.57 633.787 282.944 633.157 282.629C633.009 282.57 632.708 282.536 632.255 282.526L631.635 282.511L631.59 282.481C631.57 282.452 631.561 282.373 631.561 282.245C631.561 282.068 631.6 281.979 631.679 281.979C631.955 281.979 632.24 281.954 632.536 281.905C632.871 281.856 633.176 281.649 633.452 281.284C633.728 280.92 633.866 280.368 633.866 279.629V279.511C633.866 278.949 633.694 278.56 633.349 278.344C633.132 278.206 632.9 278.137 632.654 278.137C632.339 278.137 632.048 278.191 631.782 278.299C631.516 278.408 631.329 278.521 631.221 278.639C631.112 278.757 631.058 278.816 631.058 278.816H631.103C631.132 278.826 631.171 278.836 631.221 278.846C631.27 278.856 631.319 278.88 631.369 278.92C631.418 278.959 631.477 278.994 631.546 279.023C631.615 279.053 631.664 279.107 631.694 279.186C631.723 279.265 631.763 279.339 631.812 279.408C631.861 279.476 631.876 279.575 631.856 279.703C631.856 279.92 631.787 280.112 631.649 280.279C631.511 280.447 631.29 280.536 630.984 280.545Z" fill="#D9EBFF"/>
<circle cx="485" cy="130" r="5" fill="black" stroke="#D9EBFF" stroke-width="2"/>
<circle cx="528" cy="130" r="5" fill="black" stroke="#D9EBFF" stroke-width="2"/>
<circle cx="485" cy="166" r="5" fill="black" stroke="#D9EBFF" stroke-width="2"/>
<circle cx="526" cy="166" r="5" fill="black" stroke="#D9EBFF" stroke-width="2"/>
<path d="M496 143.241C496.014 143.157 496.035 143.046 496.063 142.907C496.091 142.767 496.174 142.502 496.314 142.112C496.453 141.722 496.592 141.395 496.732 141.13C496.871 140.865 497.101 140.607 497.421 140.356C497.742 140.106 498.062 139.987 498.383 140.001C498.885 140.001 499.303 140.127 499.637 140.377C499.971 140.628 500.18 140.865 500.264 141.088C500.348 141.311 500.389 141.457 500.389 141.527C500.389 141.555 500.396 141.569 500.41 141.569L500.64 141.339C501.49 140.447 502.459 140.001 503.546 140.001C504.298 140.001 504.904 140.189 505.364 140.565C505.824 140.942 506.061 141.492 506.075 142.217C506.089 142.941 505.824 144.035 505.281 145.498C504.737 146.962 504.472 147.846 504.486 148.153C504.486 148.515 504.605 148.696 504.842 148.696C504.925 148.696 504.988 148.689 505.03 148.676C505.434 148.606 505.796 148.341 506.117 147.881C506.437 147.421 506.681 146.864 506.848 146.209C506.876 146.098 507.016 146.042 507.266 146.042C507.545 146.042 507.684 146.098 507.684 146.209C507.684 146.223 507.657 146.328 507.601 146.523C507.489 146.927 507.336 147.324 507.141 147.714C506.946 148.104 506.625 148.494 506.179 148.885C505.733 149.275 505.253 149.463 504.737 149.449C504.082 149.449 503.608 149.261 503.316 148.885C503.023 148.508 502.877 148.118 502.877 147.714C502.877 147.449 503.128 146.613 503.629 145.206C504.131 143.798 504.389 142.739 504.403 142.029C504.403 141.206 504.096 140.795 503.483 140.795H503.379C502.18 140.795 501.17 141.499 500.348 142.907L500.201 143.157L499.512 145.958C499.052 147.784 498.787 148.766 498.717 148.905C498.536 149.282 498.237 149.47 497.818 149.47C497.637 149.47 497.491 149.428 497.38 149.344C497.268 149.261 497.191 149.177 497.15 149.094C497.108 149.01 497.094 148.94 497.108 148.885C497.108 148.703 497.373 147.568 497.902 145.477C498.432 143.387 498.71 142.252 498.738 142.07C498.752 142.001 498.759 141.841 498.759 141.59C498.759 141.046 498.592 140.774 498.257 140.774C497.728 140.774 497.289 141.471 496.941 142.865C496.857 143.143 496.815 143.29 496.815 143.304C496.787 143.387 496.655 143.429 496.418 143.429H496.125C496.042 143.345 496 143.283 496 143.241Z" fill="#D9EBFF"/>
<path d="M514.935 152.388C514.758 152.358 514.122 152.343 513.029 152.343C511.886 152.343 511.226 152.358 511.048 152.388H510.915V151.708H511.373C511.57 151.708 511.703 151.708 511.772 151.708C511.841 151.708 511.925 151.698 512.024 151.678C512.122 151.659 512.191 151.634 512.231 151.604C512.27 151.575 512.304 151.535 512.334 151.486C512.344 151.466 512.349 151.2 512.349 150.688V149.949H508.521V149.269L510.753 145.856C512.26 143.57 513.024 142.422 513.043 142.413C513.063 142.393 513.166 142.383 513.354 142.383H513.62L513.708 142.472V149.269H515.068V149.949H513.708V150.703C513.708 151.107 513.708 151.343 513.708 151.412C513.708 151.481 513.738 151.54 513.797 151.59C513.876 151.659 514.157 151.698 514.639 151.708H515.068V152.388H514.935ZM512.437 149.269V144.334L509.201 149.255L510.812 149.269H512.437Z" fill="#D9EBFF"/>
<path d="M852 145.241C852.014 145.157 852.035 145.046 852.063 144.907C852.091 144.767 852.174 144.502 852.314 144.112C852.453 143.722 852.592 143.395 852.732 143.13C852.871 142.865 853.101 142.607 853.421 142.356C853.742 142.106 854.062 141.987 854.383 142.001C854.885 142.001 855.303 142.127 855.637 142.377C855.971 142.628 856.18 142.865 856.264 143.088C856.348 143.311 856.389 143.457 856.389 143.527C856.389 143.555 856.396 143.569 856.41 143.569L856.64 143.339C857.49 142.447 858.459 142.001 859.546 142.001C860.298 142.001 860.904 142.189 861.364 142.565C861.824 142.942 862.061 143.492 862.075 144.217C862.089 144.941 861.824 146.035 861.281 147.498C860.737 148.962 860.472 149.846 860.486 150.153C860.486 150.515 860.605 150.696 860.842 150.696C860.925 150.696 860.988 150.689 861.03 150.676C861.434 150.606 861.796 150.341 862.117 149.881C862.437 149.421 862.681 148.864 862.848 148.209C862.876 148.098 863.016 148.042 863.266 148.042C863.545 148.042 863.684 148.098 863.684 148.209C863.684 148.223 863.657 148.328 863.601 148.523C863.489 148.927 863.336 149.324 863.141 149.714C862.946 150.104 862.625 150.494 862.179 150.885C861.733 151.275 861.253 151.463 860.737 151.449C860.082 151.449 859.608 151.261 859.316 150.885C859.023 150.508 858.877 150.118 858.877 149.714C858.877 149.449 859.128 148.613 859.629 147.206C860.131 145.798 860.389 144.739 860.403 144.029C860.403 143.206 860.096 142.795 859.483 142.795H859.379C858.18 142.795 857.17 143.499 856.348 144.907L856.201 145.157L855.512 147.958C855.052 149.784 854.787 150.766 854.717 150.905C854.536 151.282 854.237 151.47 853.818 151.47C853.637 151.47 853.491 151.428 853.38 151.344C853.268 151.261 853.191 151.177 853.15 151.094C853.108 151.01 853.094 150.94 853.108 150.885C853.108 150.703 853.373 149.568 853.902 147.477C854.432 145.387 854.71 144.252 854.738 144.07C854.752 144.001 854.759 143.841 854.759 143.59C854.759 143.046 854.592 142.774 854.257 142.774C853.728 142.774 853.289 143.471 852.941 144.865C852.857 145.143 852.815 145.29 852.815 145.304C852.787 145.387 852.655 145.429 852.418 145.429H852.125C852.042 145.345 852 145.283 852 145.241Z" fill="#D9EBFF"/>
<path d="M870.935 154.388C870.758 154.358 870.122 154.343 869.029 154.343C867.886 154.343 867.226 154.358 867.048 154.388H866.915V153.708H867.373C867.57 153.708 867.703 153.708 867.772 153.708C867.841 153.708 867.925 153.698 868.024 153.678C868.122 153.659 868.191 153.634 868.231 153.604C868.27 153.575 868.304 153.535 868.334 153.486C868.344 153.466 868.349 153.2 868.349 152.688V151.949H864.521V151.269L866.753 147.856C868.26 145.57 869.024 144.422 869.043 144.413C869.063 144.393 869.166 144.383 869.354 144.383H869.62L869.708 144.472V151.269H871.068V151.949H869.708V152.703C869.708 153.107 869.708 153.343 869.708 153.412C869.708 153.481 869.738 153.54 869.797 153.59C869.876 153.659 870.157 153.698 870.639 153.708H871.068V154.388H870.935ZM868.437 151.269V146.334L865.201 151.255L866.812 151.269H868.437Z" fill="#D9EBFF"/>
</svg>
