<svg width="700" height="246" viewBox="0 0 700 246" fill="none" xmlns="http://www.w3.org/2000/svg">
<rect width="700" height="245" transform="translate(0 0.5)" fill="#0A0D12"/>
<path d="M323 25.5V221.5" stroke="#B3BFD8" stroke-width="2"/>
<path d="M378 68.5C232.173 68.5 230.496 172.5 378 172.5" stroke="#B3BFD8" stroke-width="2"/>
<circle cx="323" cy="25.5" r="5" fill="black" stroke="#D9EBFF" stroke-width="2"/>
<path d="M314 9.74095C314.014 9.65734 314.035 9.54587 314.063 9.40652C314.091 9.26717 314.174 9.00241 314.314 8.61223C314.453 8.22205 314.592 7.89459 314.732 7.62982C314.871 7.36506 315.101 7.10727 315.421 6.85644C315.742 6.60561 316.062 6.48717 316.383 6.5011C316.885 6.5011 317.303 6.62651 317.637 6.87734C317.971 7.12817 318.18 7.36506 318.264 7.58802C318.348 7.81098 318.389 7.95729 318.389 8.02697C318.389 8.05484 318.396 8.06877 318.41 8.06877L318.64 7.83885C319.49 6.94702 320.459 6.5011 321.546 6.5011C322.298 6.5011 322.904 6.68922 323.364 7.06546C323.824 7.4417 324.061 7.99213 324.075 8.71674C324.089 9.44135 323.824 10.5352 323.281 11.9984C322.737 13.4616 322.472 14.3464 322.486 14.653C322.486 15.0153 322.605 15.1964 322.842 15.1964C322.925 15.1964 322.988 15.1895 323.03 15.1755C323.434 15.1059 323.796 14.8411 324.117 14.3813C324.437 13.9214 324.681 13.364 324.848 12.7091C324.876 12.5976 325.016 12.5419 325.266 12.5419C325.545 12.5419 325.684 12.5976 325.684 12.7091C325.684 12.723 325.657 12.8275 325.601 13.0226C325.489 13.4267 325.336 13.8239 325.141 14.214C324.946 14.6042 324.625 14.9944 324.179 15.3846C323.733 15.7747 323.253 15.9629 322.737 15.9489C322.082 15.9489 321.608 15.7608 321.316 15.3846C321.023 15.0083 320.877 14.6182 320.877 14.214C320.877 13.9493 321.128 13.1132 321.629 11.7058C322.131 10.2983 322.389 9.2393 322.403 8.52862C322.403 7.70647 322.096 7.29539 321.483 7.29539H321.379C320.18 7.29539 319.17 7.9991 318.348 9.40652L318.201 9.65734L317.512 12.4583C317.052 14.2837 316.787 15.2661 316.717 15.4055C316.536 15.7817 316.237 15.9698 315.818 15.9698C315.637 15.9698 315.491 15.928 315.38 15.8444C315.268 15.7608 315.191 15.6772 315.15 15.5936C315.108 15.51 315.094 15.4403 315.108 15.3846C315.108 15.2034 315.373 14.0677 315.902 11.9775C316.432 9.88727 316.71 8.75158 316.738 8.57043C316.752 8.50075 316.759 8.3405 316.759 8.08967C316.759 7.54621 316.592 7.27448 316.257 7.27448C315.728 7.27448 315.289 7.97123 314.941 9.36471C314.857 9.64341 314.815 9.78973 314.815 9.80366C314.787 9.88727 314.655 9.92907 314.418 9.92907H314.125C314.042 9.84547 314 9.78276 314 9.74095Z" fill="#D9EBFF"/>
<path d="M327.526 10.2425C328.078 9.44452 328.832 9.04551 329.787 9.04551C330.26 9.04551 330.733 9.17359 331.206 9.42974C331.679 9.68589 332.063 10.1391 332.359 10.7893C332.723 11.607 332.905 12.7301 332.905 14.1587C332.905 15.6857 332.694 16.8532 332.27 17.661C332.073 18.0748 331.802 18.4049 331.457 18.6512C331.112 18.8975 330.812 19.0502 330.556 19.1093C330.3 19.1684 330.048 19.2029 329.802 19.2127C329.546 19.2127 329.29 19.1832 329.034 19.1241C328.777 19.0649 328.477 18.9073 328.132 18.6512C327.787 18.395 327.516 18.065 327.319 17.661C326.896 16.8532 326.684 15.6857 326.684 14.1587C326.684 12.4444 326.965 11.1391 327.526 10.2425ZM330.851 10.0652C330.556 9.74993 330.206 9.5923 329.802 9.5923C329.388 9.5923 329.034 9.74993 328.738 10.0652C328.492 10.3213 328.329 10.676 328.25 11.1292C328.171 11.5824 328.132 12.5282 328.132 13.9666C328.132 15.5232 328.171 16.5478 328.25 17.0404C328.329 17.533 328.506 17.9221 328.782 18.2078C329.058 18.5034 329.398 18.6512 329.802 18.6512C330.196 18.6512 330.531 18.5034 330.807 18.2078C331.093 17.9123 331.27 17.4985 331.339 16.9665C331.408 16.4345 331.447 15.4345 331.457 13.9666C331.457 12.538 331.418 11.5972 331.339 11.144C331.26 10.6908 331.098 10.3312 330.851 10.0652Z" fill="#D9EBFF"/>
<circle cx="378" cy="68.5" r="5" fill="black" stroke="#D9EBFF" stroke-width="2"/>
<circle cx="323" cy="219.5" r="5" fill="black" stroke="#D9EBFF" stroke-width="2"/>
<path d="M314 231.741C314.014 231.657 314.035 231.546 314.063 231.407C314.091 231.267 314.174 231.002 314.314 230.612C314.453 230.222 314.592 229.895 314.732 229.63C314.871 229.365 315.101 229.107 315.421 228.856C315.742 228.606 316.062 228.487 316.383 228.501C316.885 228.501 317.303 228.627 317.637 228.877C317.971 229.128 318.18 229.365 318.264 229.588C318.348 229.811 318.389 229.957 318.389 230.027C318.389 230.055 318.396 230.069 318.41 230.069L318.64 229.839C319.49 228.947 320.459 228.501 321.546 228.501C322.298 228.501 322.904 228.689 323.364 229.065C323.824 229.442 324.061 229.992 324.075 230.717C324.089 231.441 323.824 232.535 323.281 233.998C322.737 235.462 322.472 236.346 322.486 236.653C322.486 237.015 322.605 237.196 322.842 237.196C322.925 237.196 322.988 237.189 323.03 237.176C323.434 237.106 323.796 236.841 324.117 236.381C324.437 235.921 324.681 235.364 324.848 234.709C324.876 234.598 325.016 234.542 325.266 234.542C325.545 234.542 325.684 234.598 325.684 234.709C325.684 234.723 325.657 234.828 325.601 235.023C325.489 235.427 325.336 235.824 325.141 236.214C324.946 236.604 324.625 236.994 324.179 237.385C323.733 237.775 323.253 237.963 322.737 237.949C322.082 237.949 321.608 237.761 321.316 237.385C321.023 237.008 320.877 236.618 320.877 236.214C320.877 235.949 321.128 235.113 321.629 233.706C322.131 232.298 322.389 231.239 322.403 230.529C322.403 229.706 322.096 229.295 321.483 229.295H321.379C320.18 229.295 319.17 229.999 318.348 231.407L318.201 231.657L317.512 234.458C317.052 236.284 316.787 237.266 316.717 237.405C316.536 237.782 316.237 237.97 315.818 237.97C315.637 237.97 315.491 237.928 315.38 237.844C315.268 237.761 315.191 237.677 315.15 237.594C315.108 237.51 315.094 237.44 315.108 237.385C315.108 237.203 315.373 236.068 315.902 233.977C316.432 231.887 316.71 230.752 316.738 230.57C316.752 230.501 316.759 230.341 316.759 230.09C316.759 229.546 316.592 229.274 316.257 229.274C315.728 229.274 315.289 229.971 314.941 231.365C314.857 231.643 314.815 231.79 314.815 231.804C314.787 231.887 314.655 231.929 314.418 231.929H314.125C314.042 231.845 314 231.783 314 231.741Z" fill="#D9EBFF"/>
<path d="M329.255 232.346L329.063 232.42C328.925 232.469 328.728 232.518 328.472 232.568C328.216 232.617 327.93 232.651 327.615 232.671H327.334V231.991H327.615C328.078 231.972 328.506 231.898 328.901 231.77C329.295 231.642 329.57 231.523 329.728 231.415C329.886 231.307 330.024 231.198 330.142 231.09C330.162 231.06 330.221 231.046 330.319 231.046C330.408 231.046 330.492 231.075 330.57 231.134V235.553L330.585 239.986C330.654 240.055 330.713 240.099 330.763 240.119C330.812 240.139 330.93 240.159 331.117 240.178C331.304 240.198 331.61 240.208 332.033 240.208H332.418V240.888H332.255C332.048 240.858 331.265 240.843 329.905 240.843C328.566 240.843 327.792 240.858 327.585 240.888H327.408V240.208H327.792C328.009 240.208 328.196 240.208 328.354 240.208C328.511 240.208 328.635 240.203 328.723 240.193C328.812 240.183 328.891 240.168 328.96 240.149C329.029 240.129 329.068 240.119 329.078 240.119C329.088 240.119 329.117 240.095 329.167 240.045C329.216 239.996 329.245 239.976 329.255 239.986V232.346Z" fill="#D9EBFF"/>
<path d="M371 50.741C371.014 50.6573 371.035 50.5459 371.063 50.4065C371.091 50.2672 371.174 50.0024 371.314 49.6122C371.453 49.2221 371.592 48.8946 371.732 48.6298C371.871 48.3651 372.101 48.1073 372.421 47.8564C372.742 47.6056 373.062 47.4872 373.383 47.5011C373.885 47.5011 374.303 47.6265 374.637 47.8773C374.971 48.1282 375.18 48.3651 375.264 48.588C375.348 48.811 375.389 48.9573 375.389 49.027C375.389 49.0548 375.396 49.0688 375.41 49.0688L375.64 48.8388C376.49 47.947 377.459 47.5011 378.546 47.5011C379.298 47.5011 379.904 47.6892 380.364 48.0655C380.824 48.4417 381.061 48.9921 381.075 49.7167C381.089 50.4414 380.824 51.5352 380.281 52.9984C379.737 54.4616 379.472 55.3464 379.486 55.653C379.486 56.0153 379.605 56.1964 379.842 56.1964C379.925 56.1964 379.988 56.1895 380.03 56.1755C380.434 56.1059 380.796 55.8411 381.117 55.3813C381.437 54.9214 381.681 54.364 381.848 53.7091C381.876 53.5976 382.016 53.5419 382.266 53.5419C382.545 53.5419 382.684 53.5976 382.684 53.7091C382.684 53.723 382.657 53.8275 382.601 54.0226C382.489 54.4267 382.336 54.8239 382.141 55.214C381.946 55.6042 381.625 55.9944 381.179 56.3846C380.733 56.7747 380.253 56.9629 379.737 56.9489C379.082 56.9489 378.608 56.7608 378.316 56.3846C378.023 56.0083 377.877 55.6182 377.877 55.214C377.877 54.9493 378.128 54.1132 378.629 52.7058C379.131 51.2983 379.389 50.2393 379.403 49.5286C379.403 48.7065 379.096 48.2954 378.483 48.2954H378.379C377.18 48.2954 376.17 48.9991 375.348 50.4065L375.201 50.6573L374.512 53.4583C374.052 55.2837 373.787 56.2661 373.717 56.4055C373.536 56.7817 373.237 56.9698 372.819 56.9698C372.637 56.9698 372.491 56.928 372.38 56.8444C372.268 56.7608 372.191 56.6772 372.15 56.5936C372.108 56.51 372.094 56.4403 372.108 56.3846C372.108 56.2034 372.373 55.0677 372.902 52.9775C373.432 50.8873 373.71 49.7516 373.738 49.5704C373.752 49.5008 373.759 49.3405 373.759 49.0897C373.759 48.5462 373.592 48.2745 373.257 48.2745C372.728 48.2745 372.289 48.9712 371.941 50.3647C371.857 50.6434 371.815 50.7897 371.815 50.8037C371.787 50.8873 371.655 50.9291 371.418 50.9291H371.125C371.042 50.8455 371 50.7828 371 50.741Z" fill="#D9EBFF"/>
<path d="M384.718 53.5479C384.452 53.5479 384.24 53.4592 384.083 53.2819C383.925 53.1045 383.846 52.8878 383.846 52.6316C383.846 51.9322 384.107 51.3263 384.63 50.814C385.152 50.3017 385.802 50.0455 386.58 50.0455C387.477 50.0455 388.226 50.3214 388.827 50.8731C389.428 51.4248 389.733 52.1391 389.743 53.0159C389.743 53.4395 389.644 53.8434 389.447 54.2277C389.25 54.6119 389.014 54.9469 388.738 55.2326C388.462 55.5183 388.068 55.8828 387.556 56.3261C387.201 56.6315 386.708 57.0847 386.078 57.6857L385.206 58.5133L386.329 58.528C387.876 58.528 388.698 58.5034 388.797 58.4541C388.866 58.4344 388.984 57.996 389.152 57.1389V57.0946H389.743V57.1389C389.733 57.1685 389.669 57.6167 389.551 58.4837C389.432 59.3507 389.359 59.8039 389.329 59.8433V59.8876H383.846V59.4295C383.846 59.3605 383.876 59.2866 383.935 59.2078C383.994 59.129 384.142 58.9566 384.378 58.6906C384.664 58.3753 384.91 58.0995 385.117 57.863C385.206 57.7645 385.373 57.5822 385.62 57.3162C385.866 57.0502 386.034 56.868 386.122 56.7695C386.211 56.6709 386.354 56.5084 386.551 56.2818C386.748 56.0552 386.886 55.8877 386.965 55.7793C387.043 55.671 387.157 55.5232 387.304 55.336C387.452 55.1488 387.556 54.9912 387.615 54.8631C387.674 54.735 387.748 54.5922 387.836 54.4346C387.925 54.2769 387.989 54.1193 388.029 53.9617C388.068 53.804 388.102 53.6563 388.132 53.5183C388.162 53.3804 388.176 53.2178 388.176 53.0307C388.176 52.41 388.009 51.873 387.674 51.4199C387.339 50.9667 386.861 50.7401 386.24 50.7401C385.915 50.7401 385.63 50.8238 385.383 50.9913C385.137 51.1588 384.965 51.3213 384.866 51.479C384.768 51.6366 384.718 51.7302 384.718 51.7598C384.718 51.7696 384.743 51.7745 384.792 51.7745C384.97 51.7745 385.152 51.8435 385.339 51.9814C385.526 52.1193 385.62 52.3459 385.62 52.6612C385.62 52.9075 385.541 53.1144 385.383 53.2819C385.226 53.4494 385.004 53.538 384.718 53.5479Z" fill="#D9EBFF"/>
<circle cx="378" cy="172.5" r="5" fill="black" stroke="#D9EBFF" stroke-width="2"/>
<path d="M369 184.741C369.014 184.657 369.035 184.546 369.063 184.407C369.091 184.267 369.174 184.002 369.314 183.612C369.453 183.222 369.592 182.895 369.732 182.63C369.871 182.365 370.101 182.107 370.421 181.856C370.742 181.606 371.062 181.487 371.383 181.501C371.885 181.501 372.303 181.627 372.637 181.877C372.971 182.128 373.18 182.365 373.264 182.588C373.348 182.811 373.389 182.957 373.389 183.027C373.389 183.055 373.396 183.069 373.41 183.069L373.64 182.839C374.49 181.947 375.459 181.501 376.546 181.501C377.298 181.501 377.904 181.689 378.364 182.065C378.824 182.442 379.061 182.992 379.075 183.717C379.089 184.441 378.824 185.535 378.281 186.998C377.737 188.462 377.472 189.346 377.486 189.653C377.486 190.015 377.605 190.196 377.842 190.196C377.925 190.196 377.988 190.189 378.03 190.176C378.434 190.106 378.796 189.841 379.117 189.381C379.437 188.921 379.681 188.364 379.848 187.709C379.876 187.598 380.016 187.542 380.266 187.542C380.545 187.542 380.684 187.598 380.684 187.709C380.684 187.723 380.657 187.828 380.601 188.023C380.489 188.427 380.336 188.824 380.141 189.214C379.946 189.604 379.625 189.994 379.179 190.385C378.733 190.775 378.253 190.963 377.737 190.949C377.082 190.949 376.608 190.761 376.316 190.385C376.023 190.008 375.877 189.618 375.877 189.214C375.877 188.949 376.128 188.113 376.629 186.706C377.131 185.298 377.389 184.239 377.403 183.529C377.403 182.706 377.096 182.295 376.483 182.295H376.379C375.18 182.295 374.17 182.999 373.348 184.407L373.201 184.657L372.512 187.458C372.052 189.284 371.787 190.266 371.717 190.405C371.536 190.782 371.237 190.97 370.818 190.97C370.637 190.97 370.491 190.928 370.38 190.844C370.268 190.761 370.191 190.677 370.15 190.594C370.108 190.51 370.094 190.44 370.108 190.385C370.108 190.203 370.373 189.068 370.902 186.977C371.432 184.887 371.71 183.752 371.738 183.57C371.752 183.501 371.759 183.341 371.759 183.09C371.759 182.546 371.592 182.274 371.257 182.274C370.728 182.274 370.289 182.971 369.941 184.365C369.857 184.643 369.815 184.79 369.815 184.804C369.787 184.887 369.655 184.929 369.418 184.929H369.125C369.042 184.845 369 184.783 369 184.741Z" fill="#D9EBFF"/>
<path d="M382.984 187.045C382.718 187.045 382.511 186.962 382.364 186.794C382.216 186.627 382.137 186.41 382.127 186.144C382.127 185.602 382.364 185.119 382.837 184.696C383.309 184.272 383.881 184.06 384.551 184.06C384.896 184.06 385.112 184.065 385.201 184.075C385.93 184.193 386.487 184.454 386.871 184.858C387.255 185.262 387.452 185.701 387.462 186.174C387.462 186.686 387.295 187.183 386.96 187.666C386.625 188.149 386.162 188.499 385.57 188.715L385.526 188.745C385.526 188.755 385.57 188.77 385.659 188.789C385.748 188.809 385.891 188.853 386.088 188.922C386.285 188.991 386.472 189.095 386.649 189.233C387.457 189.755 387.861 190.444 387.861 191.301C387.861 192.08 387.556 192.76 386.945 193.341C386.334 193.922 385.561 194.213 384.625 194.213C383.836 194.213 383.157 194.001 382.585 193.577C382.014 193.154 381.728 192.617 381.728 191.966C381.728 191.691 381.817 191.469 381.994 191.301C382.172 191.134 382.393 191.045 382.659 191.035C382.935 191.035 383.162 191.124 383.339 191.301C383.516 191.479 383.605 191.7 383.605 191.966C383.605 192.075 383.59 192.173 383.561 192.262C383.531 192.351 383.497 192.43 383.457 192.498C383.418 192.567 383.364 192.627 383.295 192.676C383.226 192.725 383.167 192.764 383.117 192.794C383.068 192.824 383.019 192.843 382.97 192.853C382.92 192.863 382.881 192.878 382.851 192.897L382.792 192.912C383.295 193.356 383.905 193.577 384.625 193.577C385.167 193.577 385.575 193.316 385.851 192.794C386.019 192.469 386.102 191.971 386.102 191.301V191.006C386.102 190.07 385.787 189.444 385.157 189.129C385.009 189.07 384.708 189.036 384.255 189.026L383.635 189.011L383.59 188.981C383.57 188.952 383.561 188.873 383.561 188.745C383.561 188.568 383.6 188.479 383.679 188.479C383.955 188.479 384.24 188.454 384.536 188.405C384.871 188.356 385.176 188.149 385.452 187.784C385.728 187.42 385.866 186.868 385.866 186.129V186.011C385.866 185.449 385.694 185.06 385.349 184.844C385.132 184.706 384.9 184.637 384.654 184.637C384.339 184.637 384.048 184.691 383.782 184.799C383.516 184.908 383.329 185.021 383.221 185.139C383.112 185.257 383.058 185.316 383.058 185.316H383.103C383.132 185.326 383.171 185.336 383.221 185.346C383.27 185.356 383.319 185.38 383.369 185.42C383.418 185.459 383.477 185.494 383.546 185.523C383.615 185.553 383.664 185.607 383.694 185.686C383.723 185.765 383.763 185.839 383.812 185.908C383.861 185.976 383.876 186.075 383.856 186.203C383.856 186.42 383.787 186.612 383.649 186.779C383.511 186.947 383.29 187.036 382.984 187.045Z" fill="#D9EBFF"/>
</svg>
