<svg width="700" height="284" viewBox="0 0 700 284" fill="none" xmlns="http://www.w3.org/2000/svg">
<rect width="700" height="283" transform="translate(0 0.5)" fill="#0A0D12"/>
<path opacity="0.34" d="M469 44.5V240.5" stroke="#B3BFD8" stroke-width="2"/>
<path d="M524 87.5C378.173 87.5 376.496 191.5 524 191.5" stroke="#B3BFD8" stroke-width="2"/>
<circle cx="469" cy="185.5" r="5" fill="black" stroke="#D9EBFF" stroke-width="2"/>
<circle cx="469" cy="93.5" r="5" fill="black" stroke="#D9EBFF" stroke-width="2"/>
<path d="M387.146 79.3735C387.049 79.276 387 79.2063 387 79.1645C387 79.1088 387.021 78.9973 387.063 78.8301C387.105 78.6629 387.139 78.5653 387.167 78.5375C387.195 78.4678 387.258 78.4329 387.355 78.4329C387.453 78.4329 387.808 78.426 388.421 78.412H389.529L389.926 76.7399C389.968 76.5866 390.017 76.3845 390.073 76.1337C390.128 75.8829 390.177 75.7017 390.219 75.5902C390.261 75.4788 390.303 75.3394 390.344 75.1722C390.386 75.005 390.442 74.8865 390.512 74.8168C390.581 74.7472 390.651 74.6636 390.721 74.566C390.79 74.4685 390.888 74.4058 391.013 74.3779C391.139 74.35 391.264 74.3361 391.389 74.3361C391.64 74.35 391.814 74.4267 391.912 74.566C392.01 74.7054 392.058 74.8377 392.058 74.9632C392.058 75.0607 391.996 75.3882 391.87 75.9456C391.745 76.503 391.605 77.0534 391.452 77.5968L391.243 78.3702C391.243 78.3981 391.592 78.412 392.288 78.412H393.354C393.452 78.5096 393.501 78.5862 393.501 78.642C393.501 78.9485 393.41 79.1924 393.229 79.3735H390.992L390.24 82.4044C389.696 84.634 389.425 85.8324 389.425 85.9996C389.425 86.5848 389.613 86.8775 389.989 86.8775C390.477 86.8775 390.951 86.6406 391.41 86.1668C391.87 85.693 392.24 85.1077 392.518 84.411C392.546 84.3274 392.581 84.2786 392.623 84.2647C392.665 84.2507 392.769 84.2368 392.936 84.2229H393.02C393.229 84.2229 393.333 84.2786 393.333 84.3901C393.333 84.4319 393.312 84.5155 393.271 84.6409C393.201 84.8639 393.076 85.1286 392.894 85.4352C392.713 85.7418 392.476 86.0692 392.184 86.4176C391.891 86.766 391.536 87.0586 391.118 87.2955C390.7 87.5324 390.275 87.6509 389.843 87.6509C389.425 87.6509 389.028 87.5463 388.651 87.3373C388.275 87.1283 388.003 86.766 387.836 86.2504C387.808 86.1389 387.794 85.9508 387.794 85.686V85.3098L388.526 82.3835C389.014 80.4187 389.264 79.4293 389.278 79.4153C389.278 79.3875 388.923 79.3735 388.212 79.3735H387.146Z" fill="#D9EBFF"/>
<path d="M401.13 80.1678C401.13 79.9867 401.227 79.8473 401.423 79.7498H414.737C414.946 79.8613 415.051 80.0006 415.051 80.1678C415.051 80.3211 414.953 80.4535 414.758 80.565L408.111 80.5859H401.464C401.241 80.5162 401.13 80.3769 401.13 80.1678ZM401.13 84.2229C401.13 84.0139 401.241 83.8745 401.464 83.8048H414.758C414.953 83.9442 415.051 84.0835 415.051 84.2229C415.051 84.404 414.946 84.5434 414.737 84.6409H401.423C401.227 84.5434 401.13 84.404 401.13 84.2229Z" fill="#D9EBFF"/>
<path d="M424.039 75.1931C424.819 74.0644 425.885 73.5 427.237 73.5C427.906 73.5 428.575 73.6812 429.244 74.0435C429.912 74.4058 430.456 75.0468 430.874 75.9665C431.389 77.1231 431.647 78.7116 431.647 80.7322C431.647 82.8921 431.348 84.5434 430.748 85.686C430.47 86.2713 430.087 86.7381 429.599 87.0865C429.111 87.4349 428.686 87.6509 428.324 87.7345C427.962 87.8181 427.606 87.8668 427.258 87.8808C426.896 87.8808 426.533 87.839 426.171 87.7554C425.809 87.6718 425.384 87.4488 424.896 87.0865C424.408 86.7242 424.025 86.2574 423.746 85.686C423.147 84.5434 422.847 82.8921 422.847 80.7322C422.847 78.3075 423.245 76.4612 424.039 75.1931ZM428.742 74.9423C428.324 74.4963 427.829 74.2734 427.258 74.2734C426.673 74.2734 426.171 74.4963 425.753 74.9423C425.404 75.3046 425.175 75.8062 425.063 76.4472C424.952 77.0882 424.896 78.426 424.896 80.4605C424.896 82.6622 424.952 84.1114 425.063 84.8081C425.175 85.5049 425.425 86.0553 425.816 86.4594C426.206 86.8775 426.686 87.0865 427.258 87.0865C427.815 87.0865 428.289 86.8775 428.679 86.4594C429.083 86.0414 429.334 85.4561 429.432 84.7036C429.529 83.9511 429.585 82.5368 429.599 80.4605C429.599 78.4399 429.543 77.1091 429.432 76.4681C429.32 75.8271 429.09 75.3185 428.742 74.9423Z" fill="#D9EBFF"/>
<path d="M434.114 86.1668C434.114 85.8324 434.232 85.5397 434.469 85.2889C434.706 85.0381 435.006 84.9127 435.368 84.9127C435.702 84.9127 435.995 85.0241 436.246 85.2471C436.497 85.47 436.629 85.7696 436.643 86.1459C436.643 86.4943 436.524 86.7939 436.288 87.0447C436.051 87.2955 435.751 87.4209 435.389 87.4209C435.026 87.4209 434.727 87.3025 434.49 87.0656C434.253 86.8287 434.128 86.5291 434.114 86.1668Z" fill="#D9EBFF"/>
<path d="M440.593 78.4538C440.217 78.4538 439.918 78.3284 439.695 78.0776C439.472 77.8268 439.36 77.5202 439.36 77.1579C439.36 76.1685 439.73 75.3115 440.468 74.5869C441.207 73.8623 442.126 73.5 443.227 73.5C444.495 73.5 445.554 73.8902 446.404 74.6705C447.254 75.4509 447.686 76.4612 447.7 77.7014C447.7 78.3006 447.561 78.8719 447.282 79.4153C447.004 79.9588 446.669 80.4326 446.279 80.8367C445.889 81.2408 445.331 81.7564 444.607 82.3835C444.105 82.8155 443.408 83.4565 442.516 84.3065L441.283 85.477L442.872 85.4979C445.06 85.4979 446.223 85.4631 446.363 85.3934C446.46 85.3655 446.627 84.7454 446.864 83.5331V83.4704H447.7V83.5331C447.686 83.5749 447.596 84.2089 447.429 85.4352C447.261 86.6615 447.157 87.3025 447.115 87.3582V87.4209H439.36V86.773C439.36 86.6754 439.402 86.5709 439.486 86.4594C439.569 86.3479 439.778 86.1041 440.113 85.7278C440.517 85.2819 440.865 84.8917 441.158 84.5573C441.283 84.418 441.52 84.1602 441.869 83.7839C442.217 83.4077 442.454 83.1499 442.579 83.0105C442.705 82.8712 442.907 82.6413 443.185 82.3208C443.464 82.0003 443.659 81.7634 443.771 81.6101C443.882 81.4568 444.042 81.2478 444.251 80.983C444.46 80.7183 444.607 80.4953 444.69 80.3141C444.774 80.133 444.878 79.9309 445.004 79.708C445.129 79.485 445.22 79.2621 445.276 79.0391C445.331 78.8161 445.38 78.6071 445.422 78.412C445.464 78.217 445.485 77.987 445.485 77.7223C445.485 76.8444 445.248 76.0849 444.774 75.4439C444.3 74.8029 443.624 74.4824 442.746 74.4824C442.287 74.4824 441.882 74.6009 441.534 74.8377C441.186 75.0746 440.942 75.3046 440.802 75.5275C440.663 75.7505 440.593 75.8829 440.593 75.9247C440.593 75.9386 440.628 75.9456 440.698 75.9456C440.949 75.9456 441.207 76.0431 441.471 76.2382C441.736 76.4333 441.869 76.7538 441.869 77.1997C441.869 77.5481 441.757 77.8407 441.534 78.0776C441.311 78.3145 440.998 78.4399 440.593 78.4538Z" fill="#D9EBFF"/>
<path d="M452.194 84.1393C452.194 84.4737 452.083 84.7524 451.86 84.9754C451.637 85.1983 451.365 85.3098 451.045 85.3098H450.898C451.539 86.4106 452.389 86.9611 453.448 86.9611C454.424 86.9611 455.134 86.543 455.58 85.7069C455.845 85.2471 455.978 84.3553 455.978 83.0314C455.978 81.5962 455.789 80.6277 455.413 80.126C455.051 79.6662 454.647 79.4363 454.201 79.4363H454.075C452.989 79.4363 452.166 79.91 451.609 80.8576C451.553 80.9552 451.504 81.0109 451.463 81.0248C451.421 81.0388 451.316 81.0527 451.149 81.0666C450.912 81.0666 450.78 81.0248 450.752 80.9412C450.724 80.8855 450.71 79.6662 450.71 77.2833V74.5869C450.71 73.8902 450.745 73.5418 450.815 73.5418C450.843 73.5139 450.87 73.5 450.898 73.5C450.912 73.5 451.059 73.5557 451.337 73.6672C451.616 73.7787 451.999 73.8902 452.487 74.0017C452.975 74.1131 453.497 74.1689 454.055 74.1689C455.044 74.1689 455.991 73.9738 456.897 73.5836C457.009 73.5279 457.099 73.5 457.169 73.5C457.28 73.5 457.336 73.6254 457.336 73.8762V74.148C456.194 75.4997 454.765 76.1755 453.051 76.1755C452.619 76.1755 452.229 76.1337 451.881 76.0501L451.672 76.0083V79.6035C451.936 79.4084 452.145 79.2551 452.299 79.1436C452.452 79.0321 452.703 78.9207 453.051 78.8092C453.4 78.6977 453.755 78.642 454.117 78.642C455.246 78.642 456.201 79.0948 456.981 80.0006C457.761 80.9064 458.151 81.9794 458.151 83.2196C458.151 84.5016 457.705 85.5955 456.814 86.5012C455.922 87.407 454.835 87.8668 453.553 87.8808C452.424 87.8808 451.518 87.5045 450.836 86.7521C450.153 85.9996 449.811 85.1495 449.811 84.202C449.811 83.8675 449.888 83.6028 450.041 83.4077C450.195 83.2126 450.355 83.0872 450.522 83.0314C450.689 82.9757 450.85 82.9478 451.003 82.9478C451.351 82.9478 451.637 83.0663 451.86 83.3032C452.083 83.5401 452.194 83.8188 452.194 84.1393Z" fill="#D9EBFF"/>
<path d="M387.146 197.583C387.049 197.485 387 197.415 387 197.374C387 197.318 387.021 197.206 387.063 197.039C387.105 196.872 387.139 196.774 387.167 196.746C387.195 196.677 387.258 196.642 387.355 196.642C387.453 196.642 387.808 196.635 388.421 196.621H389.529L389.926 194.949C389.968 194.796 390.017 194.594 390.073 194.343C390.128 194.092 390.177 193.911 390.219 193.799C390.261 193.688 390.303 193.548 390.344 193.381C390.386 193.214 390.442 193.096 390.512 193.026C390.581 192.956 390.651 192.873 390.721 192.775C390.79 192.677 390.888 192.615 391.013 192.587C391.139 192.559 391.264 192.545 391.389 192.545C391.64 192.559 391.814 192.636 391.912 192.775C392.01 192.914 392.058 193.047 392.058 193.172C392.058 193.27 391.996 193.597 391.87 194.155C391.745 194.712 391.605 195.262 391.452 195.806L391.243 196.579C391.243 196.607 391.592 196.621 392.288 196.621H393.354C393.452 196.719 393.501 196.795 393.501 196.851C393.501 197.158 393.41 197.401 393.229 197.583H390.992L390.24 200.613C389.696 202.843 389.425 204.041 389.425 204.209C389.425 204.794 389.613 205.086 389.989 205.086C390.477 205.086 390.951 204.85 391.41 204.376C391.87 203.902 392.24 203.317 392.518 202.62C392.546 202.536 392.581 202.488 392.623 202.474C392.665 202.46 392.769 202.446 392.936 202.432H393.02C393.229 202.432 393.333 202.488 393.333 202.599C393.333 202.641 393.312 202.725 393.271 202.85C393.201 203.073 393.076 203.338 392.894 203.644C392.713 203.951 392.476 204.278 392.184 204.627C391.891 204.975 391.536 205.268 391.118 205.505C390.7 205.741 390.275 205.86 389.843 205.86C389.425 205.86 389.028 205.755 388.651 205.546C388.275 205.337 388.003 204.975 387.836 204.459C387.808 204.348 387.794 204.16 387.794 203.895V203.519L388.526 200.592C389.014 198.628 389.264 197.638 389.278 197.624C389.278 197.597 388.923 197.583 388.212 197.583H387.146Z" fill="#D9EBFF"/>
<path d="M401.13 198.377C401.13 198.196 401.227 198.056 401.423 197.959H414.737C414.946 198.07 415.051 198.21 415.051 198.377C415.051 198.53 414.953 198.663 414.758 198.774L408.111 198.795H401.464C401.241 198.725 401.13 198.586 401.13 198.377ZM401.13 202.432C401.13 202.223 401.241 202.084 401.464 202.014H414.758C414.953 202.153 415.051 202.293 415.051 202.432C415.051 202.613 414.946 202.752 414.737 202.85H401.423C401.227 202.752 401.13 202.613 401.13 202.432Z" fill="#D9EBFF"/>
<path d="M424.039 193.402C424.819 192.273 425.885 191.709 427.237 191.709C427.906 191.709 428.575 191.89 429.244 192.252C429.912 192.615 430.456 193.256 430.874 194.175C431.389 195.332 431.647 196.921 431.647 198.941C431.647 201.101 431.348 202.752 430.748 203.895C430.47 204.48 430.087 204.947 429.599 205.296C429.111 205.644 428.686 205.86 428.324 205.943C427.962 206.027 427.606 206.076 427.258 206.09C426.896 206.09 426.533 206.048 426.171 205.964C425.809 205.881 425.384 205.658 424.896 205.296C424.408 204.933 424.025 204.466 423.746 203.895C423.147 202.752 422.847 201.101 422.847 198.941C422.847 196.517 423.245 194.67 424.039 193.402ZM428.742 193.151C428.324 192.705 427.829 192.482 427.258 192.482C426.673 192.482 426.171 192.705 425.753 193.151C425.404 193.514 425.175 194.015 425.063 194.656C424.952 195.297 424.896 196.635 424.896 198.669C424.896 200.871 424.952 202.32 425.063 203.017C425.175 203.714 425.425 204.264 425.816 204.668C426.206 205.086 426.686 205.296 427.258 205.296C427.815 205.296 428.289 205.086 428.679 204.668C429.083 204.25 429.334 203.665 429.432 202.913C429.529 202.16 429.585 200.746 429.599 198.669C429.599 196.649 429.543 195.318 429.432 194.677C429.32 194.036 429.09 193.528 428.742 193.151Z" fill="#D9EBFF"/>
<path d="M434.114 204.376C434.114 204.041 434.232 203.749 434.469 203.498C434.706 203.247 435.006 203.122 435.368 203.122C435.702 203.122 435.995 203.233 436.246 203.456C436.497 203.679 436.629 203.979 436.643 204.355C436.643 204.703 436.524 205.003 436.288 205.254C436.051 205.505 435.751 205.63 435.389 205.63C435.026 205.63 434.727 205.512 434.49 205.275C434.253 205.038 434.128 204.738 434.114 204.376Z" fill="#D9EBFF"/>
<path d="M439.465 196.057C439.479 196.029 439.597 195.269 439.82 193.778L440.155 191.542C440.155 191.514 440.294 191.5 440.573 191.5H440.991V191.584C440.991 191.723 441.095 191.841 441.304 191.939C441.513 192.036 441.875 192.099 442.391 192.127C442.907 192.155 444.084 192.169 445.924 192.169H448.453V192.984L447.031 194.928C446.906 195.095 446.697 195.374 446.404 195.764C446.112 196.154 445.924 196.412 445.84 196.537C445.756 196.663 445.61 196.886 445.401 197.206C445.192 197.527 445.053 197.778 444.983 197.959C444.913 198.14 444.816 198.398 444.69 198.732C444.565 199.067 444.474 199.387 444.419 199.694C444.363 200 444.307 200.377 444.251 200.822C444.196 201.268 444.154 201.742 444.126 202.244C444.098 202.745 444.077 203.317 444.063 203.958C444.063 204.153 444.063 204.348 444.063 204.543C444.063 204.738 444.056 204.905 444.042 205.045V205.233C443.987 205.47 443.854 205.672 443.645 205.839C443.436 206.006 443.199 206.09 442.935 206.09C442.781 206.09 442.635 206.069 442.496 206.027C442.356 205.985 442.21 205.853 442.057 205.63C441.903 205.407 441.827 205.128 441.827 204.794C441.827 202.592 442.503 200.307 443.854 197.938C444.133 197.492 444.718 196.649 445.61 195.409L446.572 194.092H444.628C442.203 194.092 440.928 194.134 440.802 194.217C440.719 194.259 440.642 194.426 440.573 194.719C440.503 195.012 440.433 195.311 440.364 195.618L440.301 196.057V196.119H439.465V196.057Z" fill="#D9EBFF"/>
<path d="M452.194 202.348C452.194 202.683 452.083 202.961 451.86 203.184C451.637 203.407 451.365 203.519 451.045 203.519H450.898C451.539 204.62 452.389 205.17 453.448 205.17C454.424 205.17 455.134 204.752 455.58 203.916C455.845 203.456 455.978 202.564 455.978 201.24C455.978 199.805 455.789 198.837 455.413 198.335C455.051 197.875 454.647 197.645 454.201 197.645H454.075C452.989 197.645 452.166 198.119 451.609 199.067C451.553 199.164 451.504 199.22 451.463 199.234C451.421 199.248 451.316 199.262 451.149 199.276C450.912 199.276 450.78 199.234 450.752 199.15C450.724 199.094 450.71 197.875 450.71 195.492V192.796C450.71 192.099 450.745 191.751 450.815 191.751C450.843 191.723 450.87 191.709 450.898 191.709C450.912 191.709 451.059 191.765 451.337 191.876C451.616 191.988 451.999 192.099 452.487 192.211C452.975 192.322 453.497 192.378 454.055 192.378C455.044 192.378 455.991 192.183 456.897 191.793C457.009 191.737 457.099 191.709 457.169 191.709C457.28 191.709 457.336 191.834 457.336 192.085V192.357C456.194 193.709 454.765 194.385 453.051 194.385C452.619 194.385 452.229 194.343 451.881 194.259L451.672 194.217V197.812C451.936 197.617 452.145 197.464 452.299 197.353C452.452 197.241 452.703 197.13 453.051 197.018C453.4 196.907 453.755 196.851 454.117 196.851C455.246 196.851 456.201 197.304 456.981 198.21C457.761 199.115 458.151 200.188 458.151 201.429C458.151 202.711 457.705 203.804 456.814 204.71C455.922 205.616 454.835 206.076 453.553 206.09C452.424 206.09 451.518 205.714 450.836 204.961C450.153 204.209 449.811 203.359 449.811 202.411C449.811 202.077 449.888 201.812 450.041 201.617C450.195 201.422 450.355 201.296 450.522 201.24C450.689 201.185 450.85 201.157 451.003 201.157C451.351 201.157 451.637 201.275 451.86 201.512C452.083 201.749 452.194 202.028 452.194 202.348Z" fill="#D9EBFF"/>
<circle cx="524" cy="87.5" r="5" fill="black" stroke="#D9EBFF" stroke-width="2"/>
<path d="M517 69.741C517.014 69.6573 517.035 69.5459 517.063 69.4065C517.091 69.2672 517.174 69.0024 517.314 68.6122C517.453 68.2221 517.592 67.8946 517.732 67.6298C517.871 67.3651 518.101 67.1073 518.421 66.8564C518.742 66.6056 519.062 66.4872 519.383 66.5011C519.885 66.5011 520.303 66.6265 520.637 66.8773C520.971 67.1282 521.18 67.3651 521.264 67.588C521.348 67.811 521.389 67.9573 521.389 68.027C521.389 68.0548 521.396 68.0688 521.41 68.0688L521.64 67.8388C522.49 66.947 523.459 66.5011 524.546 66.5011C525.298 66.5011 525.904 66.6892 526.364 67.0655C526.824 67.4417 527.061 67.9921 527.075 68.7167C527.089 69.4414 526.824 70.5352 526.281 71.9984C525.737 73.4616 525.472 74.3464 525.486 74.653C525.486 75.0153 525.605 75.1964 525.842 75.1964C525.925 75.1964 525.988 75.1895 526.03 75.1755C526.434 75.1059 526.796 74.8411 527.117 74.3813C527.437 73.9214 527.681 73.364 527.848 72.7091C527.876 72.5976 528.016 72.5419 528.266 72.5419C528.545 72.5419 528.684 72.5976 528.684 72.7091C528.684 72.723 528.657 72.8275 528.601 73.0226C528.489 73.4267 528.336 73.8239 528.141 74.214C527.946 74.6042 527.625 74.9944 527.179 75.3846C526.733 75.7747 526.253 75.9629 525.737 75.9489C525.082 75.9489 524.608 75.7608 524.316 75.3846C524.023 75.0083 523.877 74.6182 523.877 74.214C523.877 73.9493 524.128 73.1132 524.629 71.7058C525.131 70.2983 525.389 69.2393 525.403 68.5286C525.403 67.7065 525.096 67.2954 524.483 67.2954H524.379C523.18 67.2954 522.17 67.9991 521.348 69.4065L521.201 69.6573L520.512 72.4583C520.052 74.2837 519.787 75.2661 519.717 75.4055C519.536 75.7817 519.237 75.9698 518.819 75.9698C518.637 75.9698 518.491 75.928 518.38 75.8444C518.268 75.7608 518.191 75.6772 518.15 75.5936C518.108 75.51 518.094 75.4403 518.108 75.3846C518.108 75.2034 518.373 74.0677 518.902 71.9775C519.432 69.8873 519.71 68.7516 519.738 68.5704C519.752 68.5008 519.759 68.3405 519.759 68.0897C519.759 67.5462 519.592 67.2745 519.257 67.2745C518.728 67.2745 518.289 67.9712 517.941 69.3647C517.857 69.6434 517.815 69.7897 517.815 69.8037C517.787 69.8873 517.655 69.9291 517.418 69.9291H517.125C517.042 69.8455 517 69.7828 517 69.741Z" fill="#D9EBFF"/>
<path d="M530.718 72.5479C530.452 72.5479 530.24 72.4592 530.083 72.2819C529.925 72.1045 529.846 71.8878 529.846 71.6316C529.846 70.9322 530.107 70.3263 530.63 69.814C531.152 69.3017 531.802 69.0455 532.58 69.0455C533.477 69.0455 534.226 69.3214 534.827 69.8731C535.428 70.4248 535.733 71.1391 535.743 72.0159C535.743 72.4395 535.644 72.8434 535.447 73.2277C535.25 73.6119 535.014 73.9469 534.738 74.2326C534.462 74.5183 534.068 74.8828 533.556 75.3261C533.201 75.6315 532.708 76.0847 532.078 76.6857L531.206 77.5133L532.329 77.528C533.876 77.528 534.698 77.5034 534.797 77.4541C534.866 77.4344 534.984 76.996 535.152 76.1389V76.0946H535.743V76.1389C535.733 76.1685 535.669 76.6167 535.551 77.4837C535.432 78.3507 535.359 78.8039 535.329 78.8433V78.8876H529.846V78.4295C529.846 78.3605 529.876 78.2866 529.935 78.2078C529.994 78.129 530.142 77.9566 530.378 77.6906C530.664 77.3753 530.91 77.0995 531.117 76.863C531.206 76.7645 531.373 76.5822 531.62 76.3162C531.866 76.0502 532.034 75.868 532.122 75.7695C532.211 75.6709 532.354 75.5084 532.551 75.2818C532.748 75.0552 532.886 74.8877 532.965 74.7793C533.043 74.671 533.157 74.5232 533.304 74.336C533.452 74.1488 533.556 73.9912 533.615 73.8631C533.674 73.735 533.748 73.5922 533.836 73.4346C533.925 73.2769 533.989 73.1193 534.029 72.9617C534.068 72.804 534.102 72.6562 534.132 72.5183C534.162 72.3804 534.176 72.2178 534.176 72.0307C534.176 71.41 534.009 70.873 533.674 70.4199C533.339 69.9667 532.861 69.7401 532.24 69.7401C531.915 69.7401 531.63 69.8238 531.383 69.9913C531.137 70.1588 530.965 70.3213 530.866 70.479C530.768 70.6366 530.718 70.7302 530.718 70.7598C530.718 70.7696 530.743 70.7745 530.792 70.7745C530.97 70.7745 531.152 70.8435 531.339 70.9814C531.526 71.1193 531.62 71.3459 531.62 71.6612C531.62 71.9075 531.541 72.1144 531.383 72.2819C531.226 72.4494 531.004 72.538 530.718 72.5479Z" fill="#D9EBFF"/>
<circle cx="524" cy="191.5" r="5" fill="black" stroke="#D9EBFF" stroke-width="2"/>
<path d="M515 203.741C515.014 203.657 515.035 203.546 515.063 203.407C515.091 203.267 515.174 203.002 515.314 202.612C515.453 202.222 515.592 201.895 515.732 201.63C515.871 201.365 516.101 201.107 516.421 200.856C516.742 200.606 517.062 200.487 517.383 200.501C517.885 200.501 518.303 200.627 518.637 200.877C518.971 201.128 519.18 201.365 519.264 201.588C519.348 201.811 519.389 201.957 519.389 202.027C519.389 202.055 519.396 202.069 519.41 202.069L519.64 201.839C520.49 200.947 521.459 200.501 522.546 200.501C523.298 200.501 523.904 200.689 524.364 201.065C524.824 201.442 525.061 201.992 525.075 202.717C525.089 203.441 524.824 204.535 524.281 205.998C523.737 207.462 523.472 208.346 523.486 208.653C523.486 209.015 523.605 209.196 523.842 209.196C523.925 209.196 523.988 209.189 524.03 209.176C524.434 209.106 524.796 208.841 525.117 208.381C525.437 207.921 525.681 207.364 525.848 206.709C525.876 206.598 526.016 206.542 526.266 206.542C526.545 206.542 526.684 206.598 526.684 206.709C526.684 206.723 526.657 206.828 526.601 207.023C526.489 207.427 526.336 207.824 526.141 208.214C525.946 208.604 525.625 208.994 525.179 209.385C524.733 209.775 524.253 209.963 523.737 209.949C523.082 209.949 522.608 209.761 522.316 209.385C522.023 209.008 521.877 208.618 521.877 208.214C521.877 207.949 522.128 207.113 522.629 205.706C523.131 204.298 523.389 203.239 523.403 202.529C523.403 201.706 523.096 201.295 522.483 201.295H522.379C521.18 201.295 520.17 201.999 519.348 203.407L519.201 203.657L518.512 206.458C518.052 208.284 517.787 209.266 517.717 209.405C517.536 209.782 517.237 209.97 516.818 209.97C516.637 209.97 516.491 209.928 516.38 209.844C516.268 209.761 516.191 209.677 516.15 209.594C516.108 209.51 516.094 209.44 516.108 209.385C516.108 209.203 516.373 208.068 516.902 205.977C517.432 203.887 517.71 202.752 517.738 202.57C517.752 202.501 517.759 202.341 517.759 202.09C517.759 201.546 517.592 201.274 517.257 201.274C516.728 201.274 516.289 201.971 515.941 203.365C515.857 203.643 515.815 203.79 515.815 203.804C515.787 203.887 515.655 203.929 515.418 203.929H515.125C515.042 203.845 515 203.783 515 203.741Z" fill="#D9EBFF"/>
<path d="M528.984 206.045C528.718 206.045 528.511 205.962 528.364 205.794C528.216 205.627 528.137 205.41 528.127 205.144C528.127 204.602 528.364 204.119 528.837 203.696C529.309 203.272 529.881 203.06 530.551 203.06C530.896 203.06 531.112 203.065 531.201 203.075C531.93 203.193 532.487 203.454 532.871 203.858C533.255 204.262 533.452 204.701 533.462 205.174C533.462 205.686 533.295 206.183 532.96 206.666C532.625 207.149 532.162 207.499 531.57 207.715L531.526 207.745C531.526 207.755 531.57 207.77 531.659 207.789C531.748 207.809 531.891 207.853 532.088 207.922C532.285 207.991 532.472 208.095 532.649 208.233C533.457 208.755 533.861 209.444 533.861 210.301C533.861 211.08 533.556 211.76 532.945 212.341C532.334 212.922 531.561 213.213 530.625 213.213C529.836 213.213 529.157 213.001 528.585 212.577C528.014 212.154 527.728 211.617 527.728 210.966C527.728 210.691 527.817 210.469 527.994 210.301C528.172 210.134 528.393 210.045 528.659 210.035C528.935 210.035 529.162 210.124 529.339 210.301C529.516 210.479 529.605 210.7 529.605 210.966C529.605 211.075 529.59 211.173 529.561 211.262C529.531 211.351 529.497 211.43 529.457 211.498C529.418 211.567 529.364 211.627 529.295 211.676C529.226 211.725 529.167 211.764 529.117 211.794C529.068 211.824 529.019 211.843 528.97 211.853C528.92 211.863 528.881 211.878 528.851 211.897L528.792 211.912C529.295 212.356 529.905 212.577 530.625 212.577C531.167 212.577 531.575 212.316 531.851 211.794C532.019 211.469 532.102 210.971 532.102 210.301V210.006C532.102 209.07 531.787 208.444 531.157 208.129C531.009 208.07 530.708 208.036 530.255 208.026L529.635 208.011L529.59 207.981C529.57 207.952 529.561 207.873 529.561 207.745C529.561 207.568 529.6 207.479 529.679 207.479C529.955 207.479 530.24 207.454 530.536 207.405C530.871 207.356 531.176 207.149 531.452 206.784C531.728 206.42 531.866 205.868 531.866 205.129V205.011C531.866 204.449 531.694 204.06 531.349 203.844C531.132 203.706 530.9 203.637 530.654 203.637C530.339 203.637 530.048 203.691 529.782 203.799C529.516 203.908 529.329 204.021 529.221 204.139C529.112 204.257 529.058 204.316 529.058 204.316H529.103C529.132 204.326 529.171 204.336 529.221 204.346C529.27 204.356 529.319 204.38 529.369 204.42C529.418 204.459 529.477 204.494 529.546 204.523C529.615 204.553 529.664 204.607 529.694 204.686C529.723 204.765 529.763 204.839 529.812 204.908C529.861 204.976 529.876 205.075 529.856 205.203C529.856 205.42 529.787 205.612 529.649 205.779C529.511 205.947 529.29 206.036 528.984 206.045Z" fill="#D9EBFF"/>
<path d="M221 44.5V240.5" stroke="#B3BFD8" stroke-width="2"/>
<path opacity="0.34" d="M276 87.5C130.173 87.5 128.496 191.5 276 191.5" stroke="#B3BFD8" stroke-width="2"/>
<circle cx="221" cy="185.5" r="5" fill="black" stroke="#D9EBFF" stroke-width="2"/>
<circle cx="221" cy="93.5" r="5" fill="black" stroke="#D9EBFF" stroke-width="2"/>
<circle cx="221" cy="44.5" r="5" fill="black" stroke="#D9EBFF" stroke-width="2"/>
<path d="M212 28.741C212.014 28.6573 212.035 28.5459 212.063 28.4065C212.091 28.2672 212.174 28.0024 212.314 27.6122C212.453 27.2221 212.592 26.8946 212.732 26.6298C212.871 26.3651 213.101 26.1073 213.421 25.8564C213.742 25.6056 214.062 25.4872 214.383 25.5011C214.885 25.5011 215.303 25.6265 215.637 25.8773C215.971 26.1282 216.18 26.3651 216.264 26.588C216.348 26.811 216.389 26.9573 216.389 27.027C216.389 27.0548 216.396 27.0688 216.41 27.0688L216.64 26.8388C217.49 25.947 218.459 25.5011 219.546 25.5011C220.298 25.5011 220.904 25.6892 221.364 26.0655C221.824 26.4417 222.061 26.9921 222.075 27.7167C222.089 28.4414 221.824 29.5352 221.281 30.9984C220.737 32.4616 220.472 33.3464 220.486 33.653C220.486 34.0153 220.605 34.1964 220.842 34.1964C220.925 34.1964 220.988 34.1895 221.03 34.1755C221.434 34.1059 221.796 33.8411 222.117 33.3813C222.437 32.9214 222.681 32.364 222.848 31.7091C222.876 31.5976 223.016 31.5419 223.266 31.5419C223.545 31.5419 223.684 31.5976 223.684 31.7091C223.684 31.723 223.657 31.8275 223.601 32.0226C223.489 32.4267 223.336 32.8239 223.141 33.214C222.946 33.6042 222.625 33.9944 222.179 34.3846C221.733 34.7747 221.253 34.9629 220.737 34.9489C220.082 34.9489 219.608 34.7608 219.316 34.3846C219.023 34.0083 218.877 33.6182 218.877 33.214C218.877 32.9493 219.128 32.1132 219.629 30.7058C220.131 29.2983 220.389 28.2393 220.403 27.5286C220.403 26.7065 220.096 26.2954 219.483 26.2954H219.379C218.18 26.2954 217.17 26.9991 216.348 28.4065L216.201 28.6573L215.512 31.4583C215.052 33.2837 214.787 34.2661 214.717 34.4055C214.536 34.7817 214.237 34.9698 213.818 34.9698C213.637 34.9698 213.491 34.928 213.38 34.8444C213.268 34.7608 213.191 34.6772 213.15 34.5936C213.108 34.51 213.094 34.4403 213.108 34.3846C213.108 34.2034 213.373 33.0677 213.902 30.9775C214.432 28.8873 214.71 27.7516 214.738 27.5704C214.752 27.5008 214.759 27.3405 214.759 27.0897C214.759 26.5462 214.592 26.2745 214.257 26.2745C213.728 26.2745 213.289 26.9712 212.941 28.3647C212.857 28.6434 212.815 28.7897 212.815 28.8037C212.787 28.8873 212.655 28.9291 212.418 28.9291H212.125C212.042 28.8455 212 28.7828 212 28.741Z" fill="#D9EBFF"/>
<path d="M225.526 29.2425C226.078 28.4445 226.832 28.0455 227.787 28.0455C228.26 28.0455 228.733 28.1736 229.206 28.4297C229.679 28.6859 230.063 29.1391 230.359 29.7893C230.723 30.607 230.905 31.7301 230.905 33.1587C230.905 34.6857 230.694 35.8532 230.27 36.661C230.073 37.0748 229.802 37.4049 229.457 37.6512C229.112 37.8975 228.812 38.0502 228.556 38.1093C228.3 38.1684 228.048 38.2029 227.802 38.2127C227.546 38.2127 227.29 38.1832 227.034 38.1241C226.777 38.0649 226.477 37.9073 226.132 37.6512C225.787 37.395 225.516 37.065 225.319 36.661C224.896 35.8532 224.684 34.6857 224.684 33.1587C224.684 31.4444 224.965 30.1391 225.526 29.2425ZM228.851 29.0652C228.556 28.7499 228.206 28.5923 227.802 28.5923C227.388 28.5923 227.034 28.7499 226.738 29.0652C226.492 29.3213 226.329 29.676 226.25 30.1292C226.171 30.5824 226.132 31.5282 226.132 32.9666C226.132 34.5232 226.171 35.5478 226.25 36.0404C226.329 36.533 226.506 36.9221 226.782 37.2078C227.058 37.5034 227.398 37.6512 227.802 37.6512C228.196 37.6512 228.531 37.5034 228.807 37.2078C229.093 36.9123 229.27 36.4985 229.339 35.9665C229.408 35.4345 229.447 34.4345 229.457 32.9666C229.457 31.538 229.418 30.5972 229.339 30.144C229.26 29.6908 229.098 29.3312 228.851 29.0652Z" fill="#D9EBFF"/>
<circle cx="221" cy="238.5" r="5" fill="black" stroke="#D9EBFF" stroke-width="2"/>
<path d="M212 250.741C212.014 250.657 212.035 250.546 212.063 250.407C212.091 250.267 212.174 250.002 212.314 249.612C212.453 249.222 212.592 248.895 212.732 248.63C212.871 248.365 213.101 248.107 213.421 247.856C213.742 247.606 214.062 247.487 214.383 247.501C214.885 247.501 215.303 247.627 215.637 247.877C215.971 248.128 216.18 248.365 216.264 248.588C216.348 248.811 216.389 248.957 216.389 249.027C216.389 249.055 216.396 249.069 216.41 249.069L216.64 248.839C217.49 247.947 218.459 247.501 219.546 247.501C220.298 247.501 220.904 247.689 221.364 248.065C221.824 248.442 222.061 248.992 222.075 249.717C222.089 250.441 221.824 251.535 221.281 252.998C220.737 254.462 220.472 255.346 220.486 255.653C220.486 256.015 220.605 256.196 220.842 256.196C220.925 256.196 220.988 256.189 221.03 256.176C221.434 256.106 221.796 255.841 222.117 255.381C222.437 254.921 222.681 254.364 222.848 253.709C222.876 253.598 223.016 253.542 223.266 253.542C223.545 253.542 223.684 253.598 223.684 253.709C223.684 253.723 223.657 253.828 223.601 254.023C223.489 254.427 223.336 254.824 223.141 255.214C222.946 255.604 222.625 255.994 222.179 256.385C221.733 256.775 221.253 256.963 220.737 256.949C220.082 256.949 219.608 256.761 219.316 256.385C219.023 256.008 218.877 255.618 218.877 255.214C218.877 254.949 219.128 254.113 219.629 252.706C220.131 251.298 220.389 250.239 220.403 249.529C220.403 248.706 220.096 248.295 219.483 248.295H219.379C218.18 248.295 217.17 248.999 216.348 250.407L216.201 250.657L215.512 253.458C215.052 255.284 214.787 256.266 214.717 256.405C214.536 256.782 214.237 256.97 213.818 256.97C213.637 256.97 213.491 256.928 213.38 256.844C213.268 256.761 213.191 256.677 213.15 256.594C213.108 256.51 213.094 256.44 213.108 256.385C213.108 256.203 213.373 255.068 213.902 252.977C214.432 250.887 214.71 249.752 214.738 249.57C214.752 249.501 214.759 249.341 214.759 249.09C214.759 248.546 214.592 248.274 214.257 248.274C213.728 248.274 213.289 248.971 212.941 250.365C212.857 250.643 212.815 250.79 212.815 250.804C212.787 250.887 212.655 250.929 212.418 250.929H212.125C212.042 250.845 212 250.783 212 250.741Z" fill="#D9EBFF"/>
<path d="M227.255 251.346L227.063 251.42C226.925 251.469 226.728 251.518 226.472 251.568C226.216 251.617 225.93 251.651 225.615 251.671H225.334V250.991H225.615C226.078 250.972 226.506 250.898 226.901 250.77C227.295 250.642 227.57 250.523 227.728 250.415C227.886 250.307 228.024 250.198 228.142 250.09C228.162 250.06 228.221 250.046 228.319 250.046C228.408 250.046 228.492 250.075 228.57 250.134V254.553L228.585 258.986C228.654 259.055 228.713 259.099 228.763 259.119C228.812 259.139 228.93 259.159 229.117 259.178C229.304 259.198 229.61 259.208 230.033 259.208H230.418V259.888H230.255C230.048 259.858 229.265 259.843 227.905 259.843C226.566 259.843 225.792 259.858 225.585 259.888H225.408V259.208H225.792C226.009 259.208 226.196 259.208 226.354 259.208C226.511 259.208 226.635 259.203 226.723 259.193C226.812 259.183 226.891 259.168 226.96 259.149C227.029 259.129 227.068 259.119 227.078 259.119C227.088 259.119 227.117 259.095 227.167 259.045C227.216 258.996 227.245 258.976 227.255 258.986V251.346Z" fill="#D9EBFF"/>
<path d="M148.544 83.0518C148.446 82.9543 148.397 82.8846 148.397 82.8428C148.397 82.787 148.418 82.6755 148.46 82.5083C148.502 82.3411 148.537 82.2435 148.565 82.2157C148.593 82.146 148.655 82.1111 148.753 82.1111C148.85 82.1111 149.206 82.1042 149.819 82.0902H150.927L151.324 80.418C151.366 80.2647 151.415 80.0626 151.47 79.8118C151.526 79.5609 151.575 79.3798 151.617 79.2683C151.658 79.1568 151.7 79.0174 151.742 78.8502C151.784 78.683 151.84 78.5645 151.909 78.4948C151.979 78.4252 152.049 78.3415 152.118 78.244C152.188 78.1464 152.286 78.0837 152.411 78.0559C152.536 78.028 152.662 78.0141 152.787 78.0141C153.038 78.028 153.212 78.1046 153.31 78.244C153.407 78.3834 153.456 78.5157 153.456 78.6412C153.456 78.7387 153.393 79.0662 153.268 79.6236C153.143 80.1811 153.003 80.7315 152.85 81.275L152.641 82.0484C152.641 82.0763 152.989 82.0902 153.686 82.0902H154.752C154.85 82.1878 154.898 82.2644 154.898 82.3202C154.898 82.6268 154.808 82.8706 154.627 83.0518H152.39L151.638 86.0828C151.094 88.3125 150.822 89.511 150.822 89.6782C150.822 90.2635 151.01 90.5562 151.387 90.5562C151.874 90.5562 152.348 90.3193 152.808 89.8454C153.268 89.3716 153.637 88.7863 153.916 88.0895C153.944 88.0059 153.979 87.9572 154.021 87.9432C154.062 87.9293 154.167 87.9154 154.334 87.9014H154.418C154.627 87.9014 154.731 87.9572 154.731 88.0686C154.731 88.1105 154.71 88.1941 154.669 88.3195C154.599 88.5425 154.473 88.8072 154.292 89.1138C154.111 89.4204 153.874 89.7479 153.582 90.0963C153.289 90.4447 152.934 90.7373 152.515 90.9742C152.097 91.2111 151.672 91.3296 151.24 91.3296C150.822 91.3296 150.425 91.2251 150.049 91.016C149.673 90.807 149.401 90.4447 149.234 89.9291C149.206 89.8176 149.192 89.6294 149.192 89.3647V88.9884L149.923 86.0619C150.411 84.097 150.662 83.1075 150.676 83.0936C150.676 83.0657 150.321 83.0518 149.61 83.0518H148.544Z" fill="#D9EBFF"/>
<path d="M162.528 83.846C162.528 83.6648 162.626 83.5255 162.821 83.4279H176.136C176.346 83.5394 176.45 83.6788 176.45 83.846C176.45 83.9993 176.353 84.1317 176.157 84.2432L169.51 84.2641H162.863C162.64 84.1944 162.528 84.055 162.528 83.846ZM162.528 87.9013C162.528 87.6922 162.64 87.5529 162.863 87.4832H176.157C176.353 87.6226 176.45 87.7619 176.45 87.9013C176.45 88.0824 176.346 88.2218 176.136 88.3193H162.821C162.626 88.2218 162.528 88.0824 162.528 87.9013Z" fill="#D9EBFF"/>
<path d="M185.439 78.8711C186.219 77.7424 187.285 77.178 188.637 77.178C189.306 77.178 189.975 77.3591 190.644 77.7215C191.312 78.0838 191.856 78.7248 192.274 79.6446C192.79 80.8012 193.047 82.3899 193.047 84.4106C193.047 86.5706 192.748 88.222 192.149 89.3647C191.87 89.95 191.487 90.4168 190.999 90.7652C190.511 91.1136 190.086 91.3296 189.724 91.4132C189.361 91.4969 189.006 91.5456 188.658 91.5596C188.295 91.5596 187.933 91.5178 187.571 91.4341C187.208 91.3505 186.783 91.1276 186.296 90.7652C185.808 90.4029 185.425 89.9361 185.146 89.3647C184.547 88.222 184.247 86.5706 184.247 84.4106C184.247 81.9858 184.644 80.1393 185.439 78.8711ZM190.142 78.6203C189.724 78.1744 189.229 77.9514 188.658 77.9514C188.072 77.9514 187.571 78.1744 187.153 78.6203C186.804 78.9826 186.574 79.4843 186.463 80.1254C186.351 80.7664 186.296 82.1042 186.296 84.1388C186.296 86.3407 186.351 87.79 186.463 88.4868C186.574 89.1835 186.825 89.734 187.215 90.1381C187.606 90.5562 188.086 90.7652 188.658 90.7652C189.215 90.7652 189.689 90.5562 190.079 90.1381C190.483 89.7201 190.734 89.1348 190.832 88.3822C190.929 87.6297 190.985 86.2152 190.999 84.1388C190.999 82.1182 190.943 80.7873 190.832 80.1463C190.72 79.5052 190.49 78.9966 190.142 78.6203Z" fill="#D9EBFF"/>
<path d="M195.514 89.8454C195.514 89.5109 195.632 89.2183 195.869 88.9675C196.106 88.7166 196.406 88.5912 196.768 88.5912C197.102 88.5912 197.395 88.7027 197.646 88.9256C197.897 89.1486 198.029 89.4482 198.043 89.8245C198.043 90.1729 197.925 90.4725 197.688 90.7233C197.451 90.9742 197.151 91.0996 196.789 91.0996C196.426 91.0996 196.127 90.9812 195.89 90.7442C195.653 90.5073 195.528 90.2077 195.514 89.8454Z" fill="#D9EBFF"/>
<path d="M202.371 81.4214C201.994 81.4214 201.702 81.3029 201.493 81.066C201.284 80.8291 201.172 80.5225 201.158 80.1463C201.158 79.3798 201.493 78.6969 202.162 78.0977C202.83 77.4985 203.639 77.1989 204.586 77.1989C205.074 77.1989 205.381 77.2058 205.506 77.2198C206.537 77.387 207.325 77.7563 207.868 78.3277C208.412 78.899 208.69 79.5192 208.704 80.1881C208.704 80.9127 208.467 81.6165 207.994 82.2993C207.52 82.9822 206.865 83.4769 206.029 83.7835L205.966 83.8253C205.966 83.8392 206.029 83.8601 206.154 83.888C206.28 83.9159 206.482 83.9786 206.76 84.0761C207.039 84.1737 207.304 84.32 207.555 84.5151C208.697 85.2537 209.269 86.2292 209.269 87.4416C209.269 88.5425 208.837 89.5041 207.973 90.3263C207.109 91.1485 206.015 91.5596 204.691 91.5596C203.576 91.5596 202.614 91.26 201.806 90.6607C200.998 90.0615 200.594 89.302 200.594 88.3822C200.594 87.992 200.719 87.6785 200.97 87.4416C201.221 87.2047 201.534 87.0793 201.911 87.0653C202.301 87.0653 202.621 87.1907 202.872 87.4416C203.123 87.6924 203.248 88.006 203.248 88.3822C203.248 88.5355 203.228 88.6749 203.186 88.8003C203.144 88.9257 203.095 89.0372 203.039 89.1348C202.984 89.2323 202.907 89.3159 202.81 89.3856C202.712 89.4553 202.628 89.511 202.559 89.5528C202.489 89.5946 202.419 89.6225 202.35 89.6364C202.28 89.6504 202.224 89.6713 202.182 89.6992L202.099 89.7201C202.81 90.3472 203.674 90.6607 204.691 90.6607C205.457 90.6607 206.036 90.2914 206.426 89.5528C206.663 89.093 206.781 88.3892 206.781 87.4416V87.0235C206.781 85.6996 206.335 84.8147 205.443 84.3688C205.234 84.2852 204.809 84.2364 204.168 84.2224L203.29 84.2015L203.228 84.1597C203.2 84.1179 203.186 84.0064 203.186 83.8253C203.186 83.5744 203.242 83.449 203.353 83.449C203.743 83.449 204.147 83.4142 204.565 83.3445C205.039 83.2748 205.471 82.9822 205.861 82.4665C206.252 81.9509 206.447 81.1705 206.447 80.1254V79.9581C206.447 79.1638 206.203 78.6133 205.715 78.3068C205.409 78.1117 205.081 78.0141 204.733 78.0141C204.287 78.0141 203.876 78.0907 203.499 78.244C203.123 78.3973 202.858 78.5576 202.705 78.7248C202.552 78.892 202.475 78.9757 202.475 78.9757H202.538C202.58 78.9896 202.635 79.0035 202.705 79.0175C202.775 79.0314 202.844 79.0662 202.914 79.122C202.984 79.1777 203.067 79.2265 203.165 79.2683C203.262 79.3101 203.332 79.3868 203.374 79.4983C203.416 79.6097 203.471 79.7143 203.541 79.8118C203.611 79.9094 203.632 80.0487 203.604 80.2299C203.604 80.5365 203.506 80.8082 203.311 81.0451C203.116 81.282 202.803 81.4074 202.371 81.4214Z" fill="#D9EBFF"/>
<path d="M147.544 197.052C147.446 196.954 147.397 196.885 147.397 196.843C147.397 196.787 147.418 196.676 147.46 196.508C147.502 196.341 147.537 196.244 147.565 196.216C147.593 196.146 147.655 196.111 147.753 196.111C147.85 196.111 148.206 196.104 148.819 196.09H149.927L150.324 194.418C150.366 194.265 150.415 194.063 150.47 193.812C150.526 193.561 150.575 193.38 150.617 193.268C150.658 193.157 150.7 193.017 150.742 192.85C150.784 192.683 150.84 192.565 150.909 192.495C150.979 192.425 151.049 192.342 151.118 192.244C151.188 192.146 151.286 192.084 151.411 192.056C151.536 192.028 151.662 192.014 151.787 192.014C152.038 192.028 152.212 192.105 152.31 192.244C152.407 192.383 152.456 192.516 152.456 192.641C152.456 192.739 152.393 193.066 152.268 193.624C152.143 194.181 152.003 194.732 151.85 195.275L151.641 196.048C151.641 196.076 151.989 196.09 152.686 196.09H153.752C153.85 196.188 153.898 196.264 153.898 196.32C153.898 196.627 153.808 196.871 153.627 197.052H151.39L150.638 200.083C150.094 202.313 149.822 203.511 149.822 203.678C149.822 204.264 150.01 204.556 150.387 204.556C150.874 204.556 151.348 204.319 151.808 203.845C152.268 203.372 152.637 202.786 152.916 202.09C152.944 202.006 152.979 201.957 153.021 201.943C153.062 201.929 153.167 201.915 153.334 201.901H153.418C153.627 201.901 153.731 201.957 153.731 202.069C153.731 202.11 153.71 202.194 153.669 202.319C153.599 202.542 153.473 202.807 153.292 203.114C153.111 203.42 152.874 203.748 152.582 204.096C152.289 204.445 151.934 204.737 151.515 204.974C151.097 205.211 150.672 205.33 150.24 205.33C149.822 205.33 149.425 205.225 149.049 205.016C148.673 204.807 148.401 204.445 148.234 203.929C148.206 203.818 148.192 203.629 148.192 203.365V202.988L148.923 200.062C149.411 198.097 149.662 197.108 149.676 197.094C149.676 197.066 149.321 197.052 148.61 197.052H147.544Z" fill="#D9EBFF"/>
<path d="M161.528 197.846C161.528 197.665 161.626 197.525 161.821 197.428H175.136C175.346 197.539 175.45 197.679 175.45 197.846C175.45 197.999 175.353 198.132 175.157 198.243L168.51 198.264H161.863C161.64 198.194 161.528 198.055 161.528 197.846ZM161.528 201.901C161.528 201.692 161.64 201.553 161.863 201.483H175.157C175.353 201.623 175.45 201.762 175.45 201.901C175.45 202.082 175.346 202.222 175.136 202.319H161.821C161.626 202.222 161.528 202.082 161.528 201.901Z" fill="#D9EBFF"/>
<path d="M184.439 192.871C185.219 191.742 186.285 191.178 187.637 191.178C188.306 191.178 188.975 191.359 189.644 191.721C190.312 192.084 190.856 192.725 191.274 193.645C191.79 194.801 192.047 196.39 192.047 198.411C192.047 200.571 191.748 202.222 191.149 203.365C190.87 203.95 190.487 204.417 189.999 204.765C189.511 205.114 189.086 205.33 188.724 205.413C188.361 205.497 188.006 205.546 187.658 205.56C187.295 205.56 186.933 205.518 186.571 205.434C186.208 205.351 185.783 205.128 185.296 204.765C184.808 204.403 184.425 203.936 184.146 203.365C183.547 202.222 183.247 200.571 183.247 198.411C183.247 195.986 183.644 194.139 184.439 192.871ZM189.142 192.62C188.724 192.174 188.229 191.951 187.658 191.951C187.072 191.951 186.571 192.174 186.153 192.62C185.804 192.983 185.574 193.484 185.463 194.125C185.351 194.766 185.296 196.104 185.296 198.139C185.296 200.341 185.351 201.79 185.463 202.487C185.574 203.184 185.825 203.734 186.215 204.138C186.606 204.556 187.086 204.765 187.658 204.765C188.215 204.765 188.689 204.556 189.079 204.138C189.483 203.72 189.734 203.135 189.832 202.382C189.929 201.63 189.985 200.215 189.999 198.139C189.999 196.118 189.943 194.787 189.832 194.146C189.72 193.505 189.49 192.997 189.142 192.62Z" fill="#D9EBFF"/>
<path d="M194.514 203.845C194.514 203.511 194.632 203.218 194.869 202.967C195.106 202.717 195.406 202.591 195.768 202.591C196.102 202.591 196.395 202.703 196.646 202.926C196.897 203.149 197.029 203.448 197.043 203.824C197.043 204.173 196.925 204.473 196.688 204.723C196.451 204.974 196.151 205.1 195.789 205.1C195.426 205.1 195.127 204.981 194.89 204.744C194.653 204.507 194.528 204.208 194.514 203.845Z" fill="#D9EBFF"/>
<path d="M199.865 195.526C199.879 195.498 199.998 194.739 200.221 193.247L200.555 191.011C200.555 190.983 200.694 190.969 200.973 190.969H201.391V191.053C201.391 191.192 201.496 191.31 201.705 191.408C201.914 191.505 202.276 191.568 202.792 191.596C203.307 191.624 204.485 191.638 206.324 191.638H208.854V192.453L207.432 194.397C207.307 194.564 207.098 194.843 206.805 195.233C206.513 195.623 206.324 195.881 206.241 196.007C206.157 196.132 206.011 196.355 205.802 196.676C205.593 196.996 205.453 197.247 205.384 197.428C205.314 197.609 205.217 197.867 205.091 198.202C204.966 198.536 204.875 198.857 204.819 199.163C204.764 199.47 204.708 199.846 204.652 200.292C204.596 200.738 204.555 201.212 204.527 201.713C204.499 202.215 204.478 202.786 204.464 203.427C204.464 203.623 204.464 203.818 204.464 204.013C204.464 204.208 204.457 204.375 204.443 204.514V204.703C204.387 204.939 204.255 205.142 204.046 205.309C203.837 205.476 203.6 205.56 203.335 205.56C203.182 205.56 203.036 205.539 202.896 205.497C202.757 205.455 202.611 205.323 202.457 205.1C202.304 204.877 202.227 204.598 202.227 204.264C202.227 202.062 202.903 199.776 204.255 197.407C204.534 196.961 205.119 196.118 206.011 194.878L206.972 193.561H205.028C202.604 193.561 201.328 193.603 201.203 193.686C201.119 193.728 201.043 193.895 200.973 194.188C200.903 194.481 200.834 194.78 200.764 195.087L200.701 195.526V195.589H199.865V195.526Z" fill="#D9EBFF"/>
</svg>
