<svg width="700" height="244" viewBox="0 0 700 244" fill="none" xmlns="http://www.w3.org/2000/svg">
<rect width="700" height="243" transform="translate(0 0.5)" fill="#0A0D12"/>
<path d="M323 24.5V220.5" stroke="#B3BFD8" stroke-width="2"/>
<path d="M378 45.5C232.173 45.5 230.496 208 378 208C344.5 138 414.5 81.5 378 45.5Z" stroke="#B3BFD8" stroke-width="2"/>
<circle cx="323" cy="24.5" r="5" fill="black" stroke="#D9EBFF" stroke-width="2"/>
<path d="M314 8.74095C314.014 8.65734 314.035 8.54587 314.063 8.40652C314.091 8.26717 314.174 8.00241 314.314 7.61223C314.453 7.22205 314.592 6.89459 314.732 6.62982C314.871 6.36506 315.101 6.10727 315.421 5.85644C315.742 5.60561 316.062 5.48717 316.383 5.5011C316.885 5.5011 317.303 5.62651 317.637 5.87734C317.971 6.12817 318.18 6.36506 318.264 6.58802C318.348 6.81098 318.389 6.95729 318.389 7.02697C318.389 7.05484 318.396 7.06877 318.41 7.06877L318.64 6.83885C319.49 5.94702 320.459 5.5011 321.546 5.5011C322.298 5.5011 322.904 5.68922 323.364 6.06546C323.824 6.4417 324.061 6.99213 324.075 7.71674C324.089 8.44135 323.824 9.53524 323.281 10.9984C322.737 12.4616 322.472 13.3464 322.486 13.653C322.486 14.0153 322.605 14.1964 322.842 14.1964C322.925 14.1964 322.988 14.1895 323.03 14.1755C323.434 14.1059 323.796 13.8411 324.117 13.3813C324.437 12.9214 324.681 12.364 324.848 11.7091C324.876 11.5976 325.016 11.5419 325.266 11.5419C325.545 11.5419 325.684 11.5976 325.684 11.7091C325.684 11.723 325.657 11.8275 325.601 12.0226C325.489 12.4267 325.336 12.8239 325.141 13.214C324.946 13.6042 324.625 13.9944 324.179 14.3846C323.733 14.7747 323.253 14.9629 322.737 14.9489C322.082 14.9489 321.608 14.7608 321.316 14.3846C321.023 14.0083 320.877 13.6182 320.877 13.214C320.877 12.9493 321.128 12.1132 321.629 10.7058C322.131 9.29835 322.389 8.2393 322.403 7.52862C322.403 6.70647 322.096 6.29539 321.483 6.29539H321.379C320.18 6.29539 319.17 6.9991 318.348 8.40652L318.201 8.65734L317.512 11.4583C317.052 13.2837 316.787 14.2661 316.717 14.4055C316.536 14.7817 316.237 14.9698 315.818 14.9698C315.637 14.9698 315.491 14.928 315.38 14.8444C315.268 14.7608 315.191 14.6772 315.15 14.5936C315.108 14.51 315.094 14.4403 315.108 14.3846C315.108 14.2034 315.373 13.0677 315.902 10.9775C316.432 8.88727 316.71 7.75158 316.738 7.57043C316.752 7.50075 316.759 7.3405 316.759 7.08967C316.759 6.54621 316.592 6.27448 316.257 6.27448C315.728 6.27448 315.289 6.97123 314.941 8.36471C314.857 8.64341 314.815 8.78973 314.815 8.80366C314.787 8.88727 314.655 8.92907 314.418 8.92907H314.125C314.042 8.84547 314 8.78276 314 8.74095Z" fill="#D9EBFF"/>
<path d="M327.526 9.24252C328.078 8.44452 328.832 8.04551 329.787 8.04551C330.26 8.04551 330.733 8.17359 331.206 8.42974C331.679 8.68589 332.063 9.13908 332.359 9.78931C332.723 10.607 332.905 11.7301 332.905 13.1587C332.905 14.6857 332.694 15.8532 332.27 16.661C332.073 17.0748 331.802 17.4049 331.457 17.6512C331.112 17.8975 330.812 18.0502 330.556 18.1093C330.3 18.1684 330.048 18.2029 329.802 18.2127C329.546 18.2127 329.29 18.1832 329.034 18.1241C328.777 18.0649 328.477 17.9073 328.132 17.6512C327.787 17.395 327.516 17.065 327.319 16.661C326.896 15.8532 326.684 14.6857 326.684 13.1587C326.684 11.4444 326.965 10.1391 327.526 9.24252ZM330.851 9.06519C330.556 8.74993 330.206 8.5923 329.802 8.5923C329.388 8.5923 329.034 8.74993 328.738 9.06519C328.492 9.32134 328.329 9.67601 328.25 10.1292C328.171 10.5824 328.132 11.5282 328.132 12.9666C328.132 14.5232 328.171 15.5478 328.25 16.0404C328.329 16.533 328.506 16.9221 328.782 17.2078C329.058 17.5034 329.398 17.6512 329.802 17.6512C330.196 17.6512 330.531 17.5034 330.807 17.2078C331.093 16.9123 331.27 16.4985 331.339 15.9665C331.408 15.4345 331.447 14.4345 331.457 12.9666C331.457 11.538 331.418 10.5972 331.339 10.144C331.26 9.69079 331.098 9.33119 330.851 9.06519Z" fill="#D9EBFF"/>
<circle cx="378" cy="45.5" r="5" fill="black" stroke="#D9EBFF" stroke-width="2"/>
<circle cx="323" cy="218.5" r="5" fill="black" stroke="#D9EBFF" stroke-width="2"/>
<path d="M314 230.741C314.014 230.657 314.035 230.546 314.063 230.407C314.091 230.267 314.174 230.002 314.314 229.612C314.453 229.222 314.592 228.895 314.732 228.63C314.871 228.365 315.101 228.107 315.421 227.856C315.742 227.606 316.062 227.487 316.383 227.501C316.885 227.501 317.303 227.627 317.637 227.877C317.971 228.128 318.18 228.365 318.264 228.588C318.348 228.811 318.389 228.957 318.389 229.027C318.389 229.055 318.396 229.069 318.41 229.069L318.64 228.839C319.49 227.947 320.459 227.501 321.546 227.501C322.298 227.501 322.904 227.689 323.364 228.065C323.824 228.442 324.061 228.992 324.075 229.717C324.089 230.441 323.824 231.535 323.281 232.998C322.737 234.462 322.472 235.346 322.486 235.653C322.486 236.015 322.605 236.196 322.842 236.196C322.925 236.196 322.988 236.189 323.03 236.176C323.434 236.106 323.796 235.841 324.117 235.381C324.437 234.921 324.681 234.364 324.848 233.709C324.876 233.598 325.016 233.542 325.266 233.542C325.545 233.542 325.684 233.598 325.684 233.709C325.684 233.723 325.657 233.828 325.601 234.023C325.489 234.427 325.336 234.824 325.141 235.214C324.946 235.604 324.625 235.994 324.179 236.385C323.733 236.775 323.253 236.963 322.737 236.949C322.082 236.949 321.608 236.761 321.316 236.385C321.023 236.008 320.877 235.618 320.877 235.214C320.877 234.949 321.128 234.113 321.629 232.706C322.131 231.298 322.389 230.239 322.403 229.529C322.403 228.706 322.096 228.295 321.483 228.295H321.379C320.18 228.295 319.17 228.999 318.348 230.407L318.201 230.657L317.512 233.458C317.052 235.284 316.787 236.266 316.717 236.405C316.536 236.782 316.237 236.97 315.818 236.97C315.637 236.97 315.491 236.928 315.38 236.844C315.268 236.761 315.191 236.677 315.15 236.594C315.108 236.51 315.094 236.44 315.108 236.385C315.108 236.203 315.373 235.068 315.902 232.977C316.432 230.887 316.71 229.752 316.738 229.57C316.752 229.501 316.759 229.341 316.759 229.09C316.759 228.546 316.592 228.274 316.257 228.274C315.728 228.274 315.289 228.971 314.941 230.365C314.857 230.643 314.815 230.79 314.815 230.804C314.787 230.887 314.655 230.929 314.418 230.929H314.125C314.042 230.845 314 230.783 314 230.741Z" fill="#D9EBFF"/>
<path d="M329.255 231.346L329.063 231.42C328.925 231.469 328.728 231.518 328.472 231.568C328.216 231.617 327.93 231.651 327.615 231.671H327.334V230.991H327.615C328.078 230.972 328.506 230.898 328.901 230.77C329.295 230.642 329.57 230.523 329.728 230.415C329.886 230.307 330.024 230.198 330.142 230.09C330.162 230.06 330.221 230.046 330.319 230.046C330.408 230.046 330.492 230.075 330.57 230.134V234.553L330.585 238.986C330.654 239.055 330.713 239.099 330.763 239.119C330.812 239.139 330.93 239.159 331.117 239.178C331.304 239.198 331.61 239.208 332.033 239.208H332.418V239.888H332.255C332.048 239.858 331.265 239.843 329.905 239.843C328.566 239.843 327.792 239.858 327.585 239.888H327.408V239.208H327.792C328.009 239.208 328.196 239.208 328.354 239.208C328.511 239.208 328.635 239.203 328.723 239.193C328.812 239.183 328.891 239.168 328.96 239.149C329.029 239.129 329.068 239.119 329.078 239.119C329.088 239.119 329.117 239.095 329.167 239.045C329.216 238.996 329.245 238.976 329.255 238.986V231.346Z" fill="#D9EBFF"/>
<path d="M371 27.741C371.014 27.6573 371.035 27.5459 371.063 27.4065C371.091 27.2672 371.174 27.0024 371.314 26.6122C371.453 26.2221 371.592 25.8946 371.732 25.6298C371.871 25.3651 372.101 25.1073 372.421 24.8564C372.742 24.6056 373.062 24.4872 373.383 24.5011C373.885 24.5011 374.303 24.6265 374.637 24.8773C374.971 25.1282 375.18 25.3651 375.264 25.588C375.348 25.811 375.389 25.9573 375.389 26.027C375.389 26.0548 375.396 26.0688 375.41 26.0688L375.64 25.8388C376.49 24.947 377.459 24.5011 378.546 24.5011C379.298 24.5011 379.904 24.6892 380.364 25.0655C380.824 25.4417 381.061 25.9921 381.075 26.7167C381.089 27.4414 380.824 28.5352 380.281 29.9984C379.737 31.4616 379.472 32.3464 379.486 32.653C379.486 33.0153 379.605 33.1964 379.842 33.1964C379.925 33.1964 379.988 33.1895 380.03 33.1755C380.434 33.1059 380.796 32.8411 381.117 32.3813C381.437 31.9214 381.681 31.364 381.848 30.7091C381.876 30.5976 382.016 30.5419 382.266 30.5419C382.545 30.5419 382.684 30.5976 382.684 30.7091C382.684 30.723 382.657 30.8275 382.601 31.0226C382.489 31.4267 382.336 31.8239 382.141 32.214C381.946 32.6042 381.625 32.9944 381.179 33.3846C380.733 33.7747 380.253 33.9629 379.737 33.9489C379.082 33.9489 378.608 33.7608 378.316 33.3846C378.023 33.0083 377.877 32.6182 377.877 32.214C377.877 31.9493 378.128 31.1132 378.629 29.7058C379.131 28.2983 379.389 27.2393 379.403 26.5286C379.403 25.7065 379.096 25.2954 378.483 25.2954H378.379C377.18 25.2954 376.17 25.9991 375.348 27.4065L375.201 27.6573L374.512 30.4583C374.052 32.2837 373.787 33.2661 373.717 33.4055C373.536 33.7817 373.237 33.9698 372.819 33.9698C372.637 33.9698 372.491 33.928 372.38 33.8444C372.268 33.7608 372.191 33.6772 372.15 33.5936C372.108 33.51 372.094 33.4403 372.108 33.3846C372.108 33.2034 372.373 32.0677 372.902 29.9775C373.432 27.8873 373.71 26.7516 373.738 26.5704C373.752 26.5008 373.759 26.3405 373.759 26.0897C373.759 25.5462 373.592 25.2745 373.257 25.2745C372.728 25.2745 372.289 25.9712 371.941 27.3647C371.857 27.6434 371.815 27.7897 371.815 27.8037C371.787 27.8873 371.655 27.9291 371.418 27.9291H371.125C371.042 27.8455 371 27.7828 371 27.741Z" fill="#D9EBFF"/>
<path d="M384.718 30.5479C384.452 30.5479 384.24 30.4592 384.083 30.2819C383.925 30.1045 383.846 29.8878 383.846 29.6316C383.846 28.9322 384.107 28.3263 384.63 27.814C385.152 27.3017 385.802 27.0455 386.58 27.0455C387.477 27.0455 388.226 27.3214 388.827 27.8731C389.428 28.4248 389.733 29.1391 389.743 30.0159C389.743 30.4395 389.644 30.8434 389.447 31.2277C389.25 31.6119 389.014 31.9469 388.738 32.2326C388.462 32.5183 388.068 32.8828 387.556 33.3261C387.201 33.6315 386.708 34.0847 386.078 34.6857L385.206 35.5133L386.329 35.528C387.876 35.528 388.698 35.5034 388.797 35.4541C388.866 35.4344 388.984 34.996 389.152 34.1389V34.0946H389.743V34.1389C389.733 34.1685 389.669 34.6167 389.551 35.4837C389.432 36.3507 389.359 36.8039 389.329 36.8433V36.8876H383.846V36.4295C383.846 36.3605 383.876 36.2866 383.935 36.2078C383.994 36.129 384.142 35.9566 384.378 35.6906C384.664 35.3753 384.91 35.0995 385.117 34.863C385.206 34.7645 385.373 34.5822 385.62 34.3162C385.866 34.0502 386.034 33.868 386.122 33.7695C386.211 33.6709 386.354 33.5084 386.551 33.2818C386.748 33.0552 386.886 32.8877 386.965 32.7793C387.043 32.671 387.157 32.5232 387.304 32.336C387.452 32.1488 387.556 31.9912 387.615 31.8631C387.674 31.735 387.748 31.5922 387.836 31.4346C387.925 31.2769 387.989 31.1193 388.029 30.9617C388.068 30.804 388.102 30.6563 388.132 30.5183C388.162 30.3804 388.176 30.2178 388.176 30.0307C388.176 29.41 388.009 28.873 387.674 28.4199C387.339 27.9667 386.861 27.7401 386.24 27.7401C385.915 27.7401 385.63 27.8238 385.383 27.9913C385.137 28.1588 384.965 28.3213 384.866 28.479C384.768 28.6366 384.718 28.7302 384.718 28.7598C384.718 28.7696 384.743 28.7745 384.792 28.7745C384.97 28.7745 385.152 28.8435 385.339 28.9814C385.526 29.1193 385.62 29.3459 385.62 29.6612C385.62 29.9075 385.541 30.1144 385.383 30.2819C385.226 30.4494 385.004 30.538 384.718 30.5479Z" fill="#D9EBFF"/>
<circle cx="378" cy="208.5" r="5" fill="black" stroke="#D9EBFF" stroke-width="2"/>
<path d="M369 220.741C369.014 220.657 369.035 220.546 369.063 220.407C369.091 220.267 369.174 220.002 369.314 219.612C369.453 219.222 369.592 218.895 369.732 218.63C369.871 218.365 370.101 218.107 370.421 217.856C370.742 217.606 371.062 217.487 371.383 217.501C371.885 217.501 372.303 217.627 372.637 217.877C372.971 218.128 373.18 218.365 373.264 218.588C373.348 218.811 373.389 218.957 373.389 219.027C373.389 219.055 373.396 219.069 373.41 219.069L373.64 218.839C374.49 217.947 375.459 217.501 376.546 217.501C377.298 217.501 377.904 217.689 378.364 218.065C378.824 218.442 379.061 218.992 379.075 219.717C379.089 220.441 378.824 221.535 378.281 222.998C377.737 224.462 377.472 225.346 377.486 225.653C377.486 226.015 377.605 226.196 377.842 226.196C377.925 226.196 377.988 226.189 378.03 226.176C378.434 226.106 378.796 225.841 379.117 225.381C379.437 224.921 379.681 224.364 379.848 223.709C379.876 223.598 380.016 223.542 380.266 223.542C380.545 223.542 380.684 223.598 380.684 223.709C380.684 223.723 380.657 223.828 380.601 224.023C380.489 224.427 380.336 224.824 380.141 225.214C379.946 225.604 379.625 225.994 379.179 226.385C378.733 226.775 378.253 226.963 377.737 226.949C377.082 226.949 376.608 226.761 376.316 226.385C376.023 226.008 375.877 225.618 375.877 225.214C375.877 224.949 376.128 224.113 376.629 222.706C377.131 221.298 377.389 220.239 377.403 219.529C377.403 218.706 377.096 218.295 376.483 218.295H376.379C375.18 218.295 374.17 218.999 373.348 220.407L373.201 220.657L372.512 223.458C372.052 225.284 371.787 226.266 371.717 226.405C371.536 226.782 371.237 226.97 370.818 226.97C370.637 226.97 370.491 226.928 370.38 226.844C370.268 226.761 370.191 226.677 370.15 226.594C370.108 226.51 370.094 226.44 370.108 226.385C370.108 226.203 370.373 225.068 370.902 222.977C371.432 220.887 371.71 219.752 371.738 219.57C371.752 219.501 371.759 219.341 371.759 219.09C371.759 218.546 371.592 218.274 371.257 218.274C370.728 218.274 370.289 218.971 369.941 220.365C369.857 220.643 369.815 220.79 369.815 220.804C369.787 220.887 369.655 220.929 369.418 220.929H369.125C369.042 220.845 369 220.783 369 220.741Z" fill="#D9EBFF"/>
<path d="M382.984 223.045C382.718 223.045 382.511 222.962 382.364 222.794C382.216 222.627 382.137 222.41 382.127 222.144C382.127 221.602 382.364 221.119 382.837 220.696C383.309 220.272 383.881 220.06 384.551 220.06C384.896 220.06 385.112 220.065 385.201 220.075C385.93 220.193 386.487 220.454 386.871 220.858C387.255 221.262 387.452 221.701 387.462 222.174C387.462 222.686 387.295 223.183 386.96 223.666C386.625 224.149 386.162 224.499 385.57 224.715L385.526 224.745C385.526 224.755 385.57 224.77 385.659 224.789C385.748 224.809 385.891 224.853 386.088 224.922C386.285 224.991 386.472 225.095 386.649 225.233C387.457 225.755 387.861 226.444 387.861 227.301C387.861 228.08 387.556 228.76 386.945 229.341C386.334 229.922 385.561 230.213 384.625 230.213C383.836 230.213 383.157 230.001 382.585 229.577C382.014 229.154 381.728 228.617 381.728 227.966C381.728 227.691 381.817 227.469 381.994 227.301C382.172 227.134 382.393 227.045 382.659 227.035C382.935 227.035 383.162 227.124 383.339 227.301C383.516 227.479 383.605 227.7 383.605 227.966C383.605 228.075 383.59 228.173 383.561 228.262C383.531 228.351 383.497 228.43 383.457 228.498C383.418 228.567 383.364 228.627 383.295 228.676C383.226 228.725 383.167 228.764 383.117 228.794C383.068 228.824 383.019 228.843 382.97 228.853C382.92 228.863 382.881 228.878 382.851 228.897L382.792 228.912C383.295 229.356 383.905 229.577 384.625 229.577C385.167 229.577 385.575 229.316 385.851 228.794C386.019 228.469 386.102 227.971 386.102 227.301V227.006C386.102 226.07 385.787 225.444 385.157 225.129C385.009 225.07 384.708 225.036 384.255 225.026L383.635 225.011L383.59 224.981C383.57 224.952 383.561 224.873 383.561 224.745C383.561 224.568 383.6 224.479 383.679 224.479C383.955 224.479 384.24 224.454 384.536 224.405C384.871 224.356 385.176 224.149 385.452 223.784C385.728 223.42 385.866 222.868 385.866 222.129V222.011C385.866 221.449 385.694 221.06 385.349 220.844C385.132 220.706 384.9 220.637 384.654 220.637C384.339 220.637 384.048 220.691 383.782 220.799C383.516 220.908 383.329 221.021 383.221 221.139C383.112 221.257 383.058 221.316 383.058 221.316H383.103C383.132 221.326 383.171 221.336 383.221 221.346C383.27 221.356 383.319 221.38 383.369 221.42C383.418 221.459 383.477 221.494 383.546 221.523C383.615 221.553 383.664 221.607 383.694 221.686C383.723 221.765 383.763 221.839 383.812 221.908C383.861 221.976 383.876 222.075 383.856 222.203C383.856 222.42 383.787 222.612 383.649 222.779C383.511 222.947 383.29 223.036 382.984 223.045Z" fill="#D9EBFF"/>
</svg>
