<svg width="700" height="246" viewBox="0 0 700 246" fill="none" xmlns="http://www.w3.org/2000/svg">
<rect width="700" height="245" transform="translate(0 0.5)" fill="#0A0D12"/>
<path d="M323 25.5V221.5" stroke="#B3BFD8" stroke-width="2"/>
<path d="M378 46.5C232.173 46.5 230.496 209 378 209C344.5 139 414.5 82.5 378 46.5Z" stroke="#B3BFD8" stroke-width="2"/>
<circle cx="323" cy="25.5" r="5" fill="black" stroke="#D9EBFF" stroke-width="2"/>
<path d="M314 9.74095C314.014 9.65734 314.035 9.54587 314.063 9.40652C314.091 9.26717 314.174 9.00241 314.314 8.61223C314.453 8.22205 314.592 7.89459 314.732 7.62982C314.871 7.36506 315.101 7.10727 315.421 6.85644C315.742 6.60561 316.062 6.48717 316.383 6.5011C316.885 6.5011 317.303 6.62651 317.637 6.87734C317.971 7.12817 318.18 7.36506 318.264 7.58802C318.348 7.81098 318.389 7.95729 318.389 8.02697C318.389 8.05484 318.396 8.06877 318.41 8.06877L318.64 7.83885C319.49 6.94702 320.459 6.5011 321.546 6.5011C322.298 6.5011 322.904 6.68922 323.364 7.06546C323.824 7.4417 324.061 7.99213 324.075 8.71674C324.089 9.44135 323.824 10.5352 323.281 11.9984C322.737 13.4616 322.472 14.3464 322.486 14.653C322.486 15.0153 322.605 15.1964 322.842 15.1964C322.925 15.1964 322.988 15.1895 323.03 15.1755C323.434 15.1059 323.796 14.8411 324.117 14.3813C324.437 13.9214 324.681 13.364 324.848 12.7091C324.876 12.5976 325.016 12.5419 325.266 12.5419C325.545 12.5419 325.684 12.5976 325.684 12.7091C325.684 12.723 325.657 12.8275 325.601 13.0226C325.489 13.4267 325.336 13.8239 325.141 14.214C324.946 14.6042 324.625 14.9944 324.179 15.3846C323.733 15.7747 323.253 15.9629 322.737 15.9489C322.082 15.9489 321.608 15.7608 321.316 15.3846C321.023 15.0083 320.877 14.6182 320.877 14.214C320.877 13.9493 321.128 13.1132 321.629 11.7058C322.131 10.2983 322.389 9.2393 322.403 8.52862C322.403 7.70647 322.096 7.29539 321.483 7.29539H321.379C320.18 7.29539 319.17 7.9991 318.348 9.40652L318.201 9.65734L317.512 12.4583C317.052 14.2837 316.787 15.2661 316.717 15.4055C316.536 15.7817 316.237 15.9698 315.818 15.9698C315.637 15.9698 315.491 15.928 315.38 15.8444C315.268 15.7608 315.191 15.6772 315.15 15.5936C315.108 15.51 315.094 15.4403 315.108 15.3846C315.108 15.2034 315.373 14.0677 315.902 11.9775C316.432 9.88727 316.71 8.75158 316.738 8.57043C316.752 8.50075 316.759 8.3405 316.759 8.08967C316.759 7.54621 316.592 7.27448 316.257 7.27448C315.728 7.27448 315.289 7.97123 314.941 9.36471C314.857 9.64341 314.815 9.78973 314.815 9.80366C314.787 9.88727 314.655 9.92907 314.418 9.92907H314.125C314.042 9.84547 314 9.78276 314 9.74095Z" fill="#D9EBFF"/>
<path d="M327.526 10.2425C328.078 9.44452 328.832 9.04551 329.787 9.04551C330.26 9.04551 330.733 9.17359 331.206 9.42974C331.679 9.68589 332.063 10.1391 332.359 10.7893C332.723 11.607 332.905 12.7301 332.905 14.1587C332.905 15.6857 332.694 16.8532 332.27 17.661C332.073 18.0748 331.802 18.4049 331.457 18.6512C331.112 18.8975 330.812 19.0502 330.556 19.1093C330.3 19.1684 330.048 19.2029 329.802 19.2127C329.546 19.2127 329.29 19.1832 329.034 19.1241C328.777 19.0649 328.477 18.9073 328.132 18.6512C327.787 18.395 327.516 18.065 327.319 17.661C326.896 16.8532 326.684 15.6857 326.684 14.1587C326.684 12.4444 326.965 11.1391 327.526 10.2425ZM330.851 10.0652C330.556 9.74993 330.206 9.5923 329.802 9.5923C329.388 9.5923 329.034 9.74993 328.738 10.0652C328.492 10.3213 328.329 10.676 328.25 11.1292C328.171 11.5824 328.132 12.5282 328.132 13.9666C328.132 15.5232 328.171 16.5478 328.25 17.0404C328.329 17.533 328.506 17.9221 328.782 18.2078C329.058 18.5034 329.398 18.6512 329.802 18.6512C330.196 18.6512 330.531 18.5034 330.807 18.2078C331.093 17.9123 331.27 17.4985 331.339 16.9665C331.408 16.4345 331.447 15.4345 331.457 13.9666C331.457 12.538 331.418 11.5972 331.339 11.144C331.26 10.6908 331.098 10.3312 330.851 10.0652Z" fill="#D9EBFF"/>
<circle cx="378" cy="46.5" r="5" fill="black" stroke="#D9EBFF" stroke-width="2"/>
<circle cx="323" cy="219.5" r="5" fill="black" stroke="#D9EBFF" stroke-width="2"/>
<path d="M314 231.741C314.014 231.657 314.035 231.546 314.063 231.407C314.091 231.267 314.174 231.002 314.314 230.612C314.453 230.222 314.592 229.895 314.732 229.63C314.871 229.365 315.101 229.107 315.421 228.856C315.742 228.606 316.062 228.487 316.383 228.501C316.885 228.501 317.303 228.627 317.637 228.877C317.971 229.128 318.18 229.365 318.264 229.588C318.348 229.811 318.389 229.957 318.389 230.027C318.389 230.055 318.396 230.069 318.41 230.069L318.64 229.839C319.49 228.947 320.459 228.501 321.546 228.501C322.298 228.501 322.904 228.689 323.364 229.065C323.824 229.442 324.061 229.992 324.075 230.717C324.089 231.441 323.824 232.535 323.281 233.998C322.737 235.462 322.472 236.346 322.486 236.653C322.486 237.015 322.605 237.196 322.842 237.196C322.925 237.196 322.988 237.189 323.03 237.176C323.434 237.106 323.796 236.841 324.117 236.381C324.437 235.921 324.681 235.364 324.848 234.709C324.876 234.598 325.016 234.542 325.266 234.542C325.545 234.542 325.684 234.598 325.684 234.709C325.684 234.723 325.657 234.828 325.601 235.023C325.489 235.427 325.336 235.824 325.141 236.214C324.946 236.604 324.625 236.994 324.179 237.385C323.733 237.775 323.253 237.963 322.737 237.949C322.082 237.949 321.608 237.761 321.316 237.385C321.023 237.008 320.877 236.618 320.877 236.214C320.877 235.949 321.128 235.113 321.629 233.706C322.131 232.298 322.389 231.239 322.403 230.529C322.403 229.706 322.096 229.295 321.483 229.295H321.379C320.18 229.295 319.17 229.999 318.348 231.407L318.201 231.657L317.512 234.458C317.052 236.284 316.787 237.266 316.717 237.405C316.536 237.782 316.237 237.97 315.818 237.97C315.637 237.97 315.491 237.928 315.38 237.844C315.268 237.761 315.191 237.677 315.15 237.594C315.108 237.51 315.094 237.44 315.108 237.385C315.108 237.203 315.373 236.068 315.902 233.977C316.432 231.887 316.71 230.752 316.738 230.57C316.752 230.501 316.759 230.341 316.759 230.09C316.759 229.546 316.592 229.274 316.257 229.274C315.728 229.274 315.289 229.971 314.941 231.365C314.857 231.643 314.815 231.79 314.815 231.804C314.787 231.887 314.655 231.929 314.418 231.929H314.125C314.042 231.845 314 231.783 314 231.741Z" fill="#D9EBFF"/>
<path d="M329.255 232.346L329.063 232.42C328.925 232.469 328.728 232.518 328.472 232.568C328.216 232.617 327.93 232.651 327.615 232.671H327.334V231.991H327.615C328.078 231.972 328.506 231.898 328.901 231.77C329.295 231.642 329.57 231.523 329.728 231.415C329.886 231.307 330.024 231.198 330.142 231.09C330.162 231.06 330.221 231.046 330.319 231.046C330.408 231.046 330.492 231.075 330.57 231.134V235.553L330.585 239.986C330.654 240.055 330.713 240.099 330.763 240.119C330.812 240.139 330.93 240.159 331.117 240.178C331.304 240.198 331.61 240.208 332.033 240.208H332.418V240.888H332.255C332.048 240.858 331.265 240.843 329.905 240.843C328.566 240.843 327.792 240.858 327.585 240.888H327.408V240.208H327.792C328.009 240.208 328.196 240.208 328.354 240.208C328.511 240.208 328.635 240.203 328.723 240.193C328.812 240.183 328.891 240.168 328.96 240.149C329.029 240.129 329.068 240.119 329.078 240.119C329.088 240.119 329.117 240.095 329.167 240.045C329.216 239.996 329.245 239.976 329.255 239.986V232.346Z" fill="#D9EBFF"/>
<path d="M371 28.741C371.014 28.6573 371.035 28.5459 371.063 28.4065C371.091 28.2672 371.174 28.0024 371.314 27.6122C371.453 27.2221 371.592 26.8946 371.732 26.6298C371.871 26.3651 372.101 26.1073 372.421 25.8564C372.742 25.6056 373.062 25.4872 373.383 25.5011C373.885 25.5011 374.303 25.6265 374.637 25.8773C374.971 26.1282 375.18 26.3651 375.264 26.588C375.348 26.811 375.389 26.9573 375.389 27.027C375.389 27.0548 375.396 27.0688 375.41 27.0688L375.64 26.8388C376.49 25.947 377.459 25.5011 378.546 25.5011C379.298 25.5011 379.904 25.6892 380.364 26.0655C380.824 26.4417 381.061 26.9921 381.075 27.7167C381.089 28.4414 380.824 29.5352 380.281 30.9984C379.737 32.4616 379.472 33.3464 379.486 33.653C379.486 34.0153 379.605 34.1964 379.842 34.1964C379.925 34.1964 379.988 34.1895 380.03 34.1755C380.434 34.1059 380.796 33.8411 381.117 33.3813C381.437 32.9214 381.681 32.364 381.848 31.7091C381.876 31.5976 382.016 31.5419 382.266 31.5419C382.545 31.5419 382.684 31.5976 382.684 31.7091C382.684 31.723 382.657 31.8275 382.601 32.0226C382.489 32.4267 382.336 32.8239 382.141 33.214C381.946 33.6042 381.625 33.9944 381.179 34.3846C380.733 34.7747 380.253 34.9629 379.737 34.9489C379.082 34.9489 378.608 34.7608 378.316 34.3846C378.023 34.0083 377.877 33.6182 377.877 33.214C377.877 32.9493 378.128 32.1132 378.629 30.7058C379.131 29.2983 379.389 28.2393 379.403 27.5286C379.403 26.7065 379.096 26.2954 378.483 26.2954H378.379C377.18 26.2954 376.17 26.9991 375.348 28.4065L375.201 28.6573L374.512 31.4583C374.052 33.2837 373.787 34.2661 373.717 34.4055C373.536 34.7817 373.237 34.9698 372.819 34.9698C372.637 34.9698 372.491 34.928 372.38 34.8444C372.268 34.7608 372.191 34.6772 372.15 34.5936C372.108 34.51 372.094 34.4403 372.108 34.3846C372.108 34.2034 372.373 33.0677 372.902 30.9775C373.432 28.8873 373.71 27.7516 373.738 27.5704C373.752 27.5008 373.759 27.3405 373.759 27.0897C373.759 26.5462 373.592 26.2745 373.257 26.2745C372.728 26.2745 372.289 26.9712 371.941 28.3647C371.857 28.6434 371.815 28.7897 371.815 28.8037C371.787 28.8873 371.655 28.9291 371.418 28.9291H371.125C371.042 28.8455 371 28.7828 371 28.741Z" fill="#D9EBFF"/>
<path d="M384.718 31.5479C384.452 31.5479 384.24 31.4592 384.083 31.2819C383.925 31.1045 383.846 30.8878 383.846 30.6316C383.846 29.9322 384.107 29.3263 384.63 28.814C385.152 28.3017 385.802 28.0455 386.58 28.0455C387.477 28.0455 388.226 28.3214 388.827 28.8731C389.428 29.4248 389.733 30.1391 389.743 31.0159C389.743 31.4395 389.644 31.8434 389.447 32.2277C389.25 32.6119 389.014 32.9469 388.738 33.2326C388.462 33.5183 388.068 33.8828 387.556 34.3261C387.201 34.6315 386.708 35.0847 386.078 35.6857L385.206 36.5133L386.329 36.528C387.876 36.528 388.698 36.5034 388.797 36.4541C388.866 36.4344 388.984 35.996 389.152 35.1389V35.0946H389.743V35.1389C389.733 35.1685 389.669 35.6167 389.551 36.4837C389.432 37.3507 389.359 37.8039 389.329 37.8433V37.8876H383.846V37.4295C383.846 37.3605 383.876 37.2866 383.935 37.2078C383.994 37.129 384.142 36.9566 384.378 36.6906C384.664 36.3753 384.91 36.0995 385.117 35.863C385.206 35.7645 385.373 35.5822 385.62 35.3162C385.866 35.0502 386.034 34.868 386.122 34.7695C386.211 34.6709 386.354 34.5084 386.551 34.2818C386.748 34.0552 386.886 33.8877 386.965 33.7793C387.043 33.671 387.157 33.5232 387.304 33.336C387.452 33.1488 387.556 32.9912 387.615 32.8631C387.674 32.735 387.748 32.5922 387.836 32.4346C387.925 32.2769 387.989 32.1193 388.029 31.9617C388.068 31.804 388.102 31.6563 388.132 31.5183C388.162 31.3804 388.176 31.2178 388.176 31.0307C388.176 30.41 388.009 29.873 387.674 29.4199C387.339 28.9667 386.861 28.7401 386.24 28.7401C385.915 28.7401 385.63 28.8238 385.383 28.9913C385.137 29.1588 384.965 29.3213 384.866 29.479C384.768 29.6366 384.718 29.7302 384.718 29.7598C384.718 29.7696 384.743 29.7745 384.792 29.7745C384.97 29.7745 385.152 29.8435 385.339 29.9814C385.526 30.1193 385.62 30.3459 385.62 30.6612C385.62 30.9075 385.541 31.1144 385.383 31.2819C385.226 31.4494 385.004 31.538 384.718 31.5479Z" fill="#D9EBFF"/>
<circle cx="378" cy="209.5" r="5" fill="black" stroke="#D9EBFF" stroke-width="2"/>
<path d="M369 221.741C369.014 221.657 369.035 221.546 369.063 221.407C369.091 221.267 369.174 221.002 369.314 220.612C369.453 220.222 369.592 219.895 369.732 219.63C369.871 219.365 370.101 219.107 370.421 218.856C370.742 218.606 371.062 218.487 371.383 218.501C371.885 218.501 372.303 218.627 372.637 218.877C372.971 219.128 373.18 219.365 373.264 219.588C373.348 219.811 373.389 219.957 373.389 220.027C373.389 220.055 373.396 220.069 373.41 220.069L373.64 219.839C374.49 218.947 375.459 218.501 376.546 218.501C377.298 218.501 377.904 218.689 378.364 219.065C378.824 219.442 379.061 219.992 379.075 220.717C379.089 221.441 378.824 222.535 378.281 223.998C377.737 225.462 377.472 226.346 377.486 226.653C377.486 227.015 377.605 227.196 377.842 227.196C377.925 227.196 377.988 227.189 378.03 227.176C378.434 227.106 378.796 226.841 379.117 226.381C379.437 225.921 379.681 225.364 379.848 224.709C379.876 224.598 380.016 224.542 380.266 224.542C380.545 224.542 380.684 224.598 380.684 224.709C380.684 224.723 380.657 224.828 380.601 225.023C380.489 225.427 380.336 225.824 380.141 226.214C379.946 226.604 379.625 226.994 379.179 227.385C378.733 227.775 378.253 227.963 377.737 227.949C377.082 227.949 376.608 227.761 376.316 227.385C376.023 227.008 375.877 226.618 375.877 226.214C375.877 225.949 376.128 225.113 376.629 223.706C377.131 222.298 377.389 221.239 377.403 220.529C377.403 219.706 377.096 219.295 376.483 219.295H376.379C375.18 219.295 374.17 219.999 373.348 221.407L373.201 221.657L372.512 224.458C372.052 226.284 371.787 227.266 371.717 227.405C371.536 227.782 371.237 227.97 370.818 227.97C370.637 227.97 370.491 227.928 370.38 227.844C370.268 227.761 370.191 227.677 370.15 227.594C370.108 227.51 370.094 227.44 370.108 227.385C370.108 227.203 370.373 226.068 370.902 223.977C371.432 221.887 371.71 220.752 371.738 220.57C371.752 220.501 371.759 220.341 371.759 220.09C371.759 219.546 371.592 219.274 371.257 219.274C370.728 219.274 370.289 219.971 369.941 221.365C369.857 221.643 369.815 221.79 369.815 221.804C369.787 221.887 369.655 221.929 369.418 221.929H369.125C369.042 221.845 369 221.783 369 221.741Z" fill="#D9EBFF"/>
<path d="M382.984 224.045C382.718 224.045 382.511 223.962 382.364 223.794C382.216 223.627 382.137 223.41 382.127 223.144C382.127 222.602 382.364 222.119 382.837 221.696C383.309 221.272 383.881 221.06 384.551 221.06C384.896 221.06 385.112 221.065 385.201 221.075C385.93 221.193 386.487 221.454 386.871 221.858C387.255 222.262 387.452 222.701 387.462 223.174C387.462 223.686 387.295 224.183 386.96 224.666C386.625 225.149 386.162 225.499 385.57 225.715L385.526 225.745C385.526 225.755 385.57 225.77 385.659 225.789C385.748 225.809 385.891 225.853 386.088 225.922C386.285 225.991 386.472 226.095 386.649 226.233C387.457 226.755 387.861 227.444 387.861 228.301C387.861 229.08 387.556 229.76 386.945 230.341C386.334 230.922 385.561 231.213 384.625 231.213C383.836 231.213 383.157 231.001 382.585 230.577C382.014 230.154 381.728 229.617 381.728 228.966C381.728 228.691 381.817 228.469 381.994 228.301C382.172 228.134 382.393 228.045 382.659 228.035C382.935 228.035 383.162 228.124 383.339 228.301C383.516 228.479 383.605 228.7 383.605 228.966C383.605 229.075 383.59 229.173 383.561 229.262C383.531 229.351 383.497 229.43 383.457 229.498C383.418 229.567 383.364 229.627 383.295 229.676C383.226 229.725 383.167 229.764 383.117 229.794C383.068 229.824 383.019 229.843 382.97 229.853C382.92 229.863 382.881 229.878 382.851 229.897L382.792 229.912C383.295 230.356 383.905 230.577 384.625 230.577C385.167 230.577 385.575 230.316 385.851 229.794C386.019 229.469 386.102 228.971 386.102 228.301V228.006C386.102 227.07 385.787 226.444 385.157 226.129C385.009 226.07 384.708 226.036 384.255 226.026L383.635 226.011L383.59 225.981C383.57 225.952 383.561 225.873 383.561 225.745C383.561 225.568 383.6 225.479 383.679 225.479C383.955 225.479 384.24 225.454 384.536 225.405C384.871 225.356 385.176 225.149 385.452 224.784C385.728 224.42 385.866 223.868 385.866 223.129V223.011C385.866 222.449 385.694 222.06 385.349 221.844C385.132 221.706 384.9 221.637 384.654 221.637C384.339 221.637 384.048 221.691 383.782 221.799C383.516 221.908 383.329 222.021 383.221 222.139C383.112 222.257 383.058 222.316 383.058 222.316H383.103C383.132 222.326 383.171 222.336 383.221 222.346C383.27 222.356 383.319 222.38 383.369 222.42C383.418 222.459 383.477 222.494 383.546 222.523C383.615 222.553 383.664 222.607 383.694 222.686C383.723 222.765 383.763 222.839 383.812 222.908C383.861 222.976 383.876 223.075 383.856 223.203C383.856 223.42 383.787 223.612 383.649 223.779C383.511 223.947 383.29 224.036 382.984 224.045Z" fill="#D9EBFF"/>
<path d="M300.817 114.14C300.817 113.345 300.95 112.621 301.215 111.966C301.479 111.311 301.821 110.768 302.239 110.336C302.657 109.904 303.124 109.541 303.639 109.249C304.155 108.956 304.643 108.74 305.102 108.601C305.562 108.461 306.001 108.399 306.419 108.413H306.482C307.109 108.413 307.652 108.566 308.112 108.872C308.572 109.179 308.802 109.632 308.802 110.231C308.802 111.485 308.029 112.307 306.482 112.698C305.799 112.879 304.865 112.976 303.681 112.99C303.165 112.99 302.901 113.004 302.887 113.032C302.887 113.06 302.845 113.304 302.761 113.764C302.678 114.223 302.629 114.627 302.615 114.976C302.615 115.631 302.761 116.146 303.054 116.523C303.347 116.899 303.786 117.094 304.371 117.108C304.956 117.122 305.604 116.989 306.315 116.711C307.025 116.432 307.666 115.972 308.238 115.331C308.363 115.192 308.447 115.122 308.489 115.122C308.544 115.122 308.635 115.185 308.76 115.31C308.886 115.436 308.955 115.533 308.969 115.603C308.983 115.673 308.921 115.784 308.781 115.937C308.642 116.091 308.433 116.279 308.154 116.502C307.875 116.725 307.555 116.941 307.193 117.15C306.83 117.359 306.391 117.533 305.876 117.672C305.36 117.812 304.831 117.881 304.287 117.881C303.186 117.881 302.336 117.512 301.737 116.773C301.138 116.035 300.831 115.157 300.817 114.14ZM307.799 110.273C307.715 109.548 307.241 109.186 306.377 109.186C305.918 109.186 305.493 109.283 305.102 109.479C304.712 109.674 304.399 109.911 304.162 110.189C303.925 110.468 303.723 110.754 303.556 111.046C303.388 111.339 303.277 111.59 303.221 111.799C303.165 112.008 303.131 112.14 303.117 112.196C303.117 112.21 303.256 112.217 303.535 112.217C305.109 112.217 306.21 112.05 306.837 111.715C307.464 111.381 307.785 110.9 307.799 110.273Z" fill="#D9EBFF"/>
<path d="M311.16 112.154C311.711 111.356 312.465 110.957 313.421 110.957C313.893 110.957 314.366 111.085 314.839 111.341C315.312 111.597 315.696 112.051 315.992 112.701C316.356 113.518 316.539 114.642 316.539 116.07C316.539 117.597 316.327 118.765 315.903 119.572C315.706 119.986 315.435 120.316 315.09 120.563C314.746 120.809 314.445 120.962 314.189 121.021C313.933 121.08 313.682 121.114 313.435 121.124C313.179 121.124 312.923 121.095 312.667 121.035C312.411 120.976 312.11 120.819 311.765 120.563C311.421 120.306 311.15 119.976 310.953 119.572C310.529 118.765 310.317 117.597 310.317 116.07C310.317 114.356 310.598 113.05 311.16 112.154ZM314.485 111.977C314.189 111.661 313.839 111.504 313.435 111.504C313.022 111.504 312.667 111.661 312.371 111.977C312.125 112.233 311.962 112.587 311.884 113.041C311.805 113.494 311.765 114.44 311.765 115.878C311.765 117.435 311.805 118.459 311.884 118.952C311.962 119.444 312.14 119.834 312.416 120.119C312.691 120.415 313.031 120.563 313.435 120.563C313.829 120.563 314.164 120.415 314.44 120.119C314.726 119.824 314.903 119.41 314.972 118.878C315.041 118.346 315.081 117.346 315.09 115.878C315.09 114.449 315.051 113.509 314.972 113.055C314.893 112.602 314.731 112.243 314.485 111.977Z" fill="#D9EBFF"/>
<path d="M245.815 114.141C245.815 113.347 245.948 112.622 246.213 111.967C246.477 111.312 246.819 110.768 247.237 110.336C247.655 109.904 248.122 109.542 248.638 109.249C249.153 108.957 249.641 108.741 250.101 108.601C250.561 108.462 251 108.399 251.418 108.413H251.481C252.108 108.413 252.652 108.566 253.112 108.873C253.572 109.18 253.802 109.633 253.802 110.232C253.802 111.486 253.028 112.309 251.481 112.699C250.798 112.88 249.864 112.978 248.68 112.991C248.164 112.991 247.899 113.005 247.885 113.033C247.885 113.061 247.843 113.305 247.76 113.765C247.676 114.225 247.627 114.629 247.613 114.978C247.613 115.633 247.76 116.148 248.052 116.525C248.345 116.901 248.784 117.096 249.369 117.11C249.955 117.124 250.603 116.992 251.314 116.713C252.025 116.434 252.666 115.974 253.237 115.333C253.363 115.194 253.446 115.124 253.488 115.124C253.544 115.124 253.634 115.187 253.76 115.312C253.885 115.437 253.955 115.535 253.969 115.605C253.983 115.674 253.92 115.786 253.781 115.939C253.641 116.093 253.432 116.281 253.153 116.504C252.875 116.727 252.554 116.943 252.192 117.152C251.829 117.361 251.39 117.535 250.875 117.674C250.359 117.814 249.829 117.884 249.286 117.884C248.185 117.884 247.335 117.514 246.735 116.775C246.136 116.037 245.829 115.159 245.815 114.141ZM252.798 110.274C252.714 109.549 252.241 109.187 251.376 109.187C250.917 109.187 250.491 109.284 250.101 109.479C249.711 109.674 249.397 109.911 249.16 110.19C248.923 110.469 248.721 110.755 248.554 111.047C248.387 111.34 248.275 111.591 248.22 111.8C248.164 112.009 248.129 112.141 248.115 112.197C248.115 112.211 248.254 112.218 248.533 112.218C250.108 112.218 251.209 112.051 251.836 111.716C252.464 111.382 252.784 110.901 252.798 110.274Z" fill="#D9EBFF"/>
<path d="M257.889 112.259L257.697 112.333C257.559 112.382 257.362 112.431 257.105 112.48C256.849 112.53 256.563 112.564 256.248 112.584H255.967V111.904H256.248C256.711 111.884 257.14 111.81 257.534 111.682C257.928 111.554 258.204 111.436 258.362 111.327C258.519 111.219 258.657 111.111 258.776 111.002C258.795 110.973 258.854 110.958 258.953 110.958C259.042 110.958 259.125 110.987 259.204 111.047V115.466L259.219 119.9C259.288 119.969 259.347 120.014 259.396 120.033C259.446 120.053 259.564 120.073 259.751 120.092C259.938 120.112 260.244 120.122 260.668 120.122H261.052V120.802H260.889C260.682 120.772 259.899 120.757 258.539 120.757C257.199 120.757 256.426 120.772 256.219 120.802H256.041V120.122H256.426C256.642 120.122 256.83 120.122 256.987 120.122C257.145 120.122 257.268 120.117 257.357 120.107C257.445 120.097 257.524 120.082 257.593 120.063C257.662 120.043 257.702 120.033 257.711 120.033C257.721 120.033 257.751 120.009 257.8 119.959C257.849 119.91 257.879 119.89 257.889 119.9V112.259Z" fill="#D9EBFF"/>
<path d="M355.817 114.14C355.817 113.345 355.95 112.621 356.215 111.966C356.479 111.311 356.821 110.768 357.239 110.336C357.657 109.904 358.124 109.541 358.639 109.249C359.155 108.956 359.643 108.74 360.102 108.601C360.562 108.461 361.001 108.399 361.419 108.413H361.482C362.109 108.413 362.652 108.566 363.112 108.872C363.572 109.179 363.802 109.632 363.802 110.231C363.802 111.485 363.029 112.307 361.482 112.698C360.799 112.879 359.865 112.976 358.681 112.99C358.165 112.99 357.901 113.004 357.887 113.032C357.887 113.06 357.845 113.304 357.761 113.764C357.678 114.223 357.629 114.627 357.615 114.976C357.615 115.631 357.761 116.146 358.054 116.523C358.347 116.899 358.786 117.094 359.371 117.108C359.956 117.122 360.604 116.989 361.315 116.711C362.025 116.432 362.666 115.972 363.238 115.331C363.363 115.192 363.447 115.122 363.489 115.122C363.544 115.122 363.635 115.185 363.76 115.31C363.886 115.436 363.955 115.533 363.969 115.603C363.983 115.673 363.921 115.784 363.781 115.937C363.642 116.091 363.433 116.279 363.154 116.502C362.875 116.725 362.555 116.941 362.193 117.15C361.83 117.359 361.391 117.533 360.876 117.672C360.36 117.812 359.831 117.881 359.287 117.881C358.186 117.881 357.336 117.512 356.737 116.773C356.138 116.035 355.831 115.157 355.817 114.14ZM362.799 110.273C362.715 109.548 362.241 109.186 361.377 109.186C360.918 109.186 360.493 109.283 360.102 109.479C359.712 109.674 359.399 109.911 359.162 110.189C358.925 110.468 358.723 110.754 358.556 111.046C358.388 111.339 358.277 111.59 358.221 111.799C358.165 112.008 358.131 112.14 358.117 112.196C358.117 112.21 358.256 112.217 358.535 112.217C360.109 112.217 361.21 112.05 361.837 111.715C362.464 111.381 362.785 110.9 362.799 110.273Z" fill="#D9EBFF"/>
<path d="M366.618 113.957C366.352 113.957 366.145 113.873 365.997 113.706C365.849 113.538 365.77 113.321 365.761 113.055C365.761 112.514 365.997 112.031 366.47 111.607C366.943 111.184 367.514 110.972 368.184 110.972C368.529 110.972 368.746 110.977 368.834 110.987C369.563 111.105 370.12 111.366 370.504 111.77C370.888 112.174 371.085 112.612 371.095 113.085C371.095 113.597 370.928 114.095 370.593 114.578C370.258 115.06 369.795 115.41 369.204 115.627L369.159 115.656C369.159 115.666 369.204 115.681 369.292 115.701C369.381 115.72 369.524 115.765 369.721 115.834C369.918 115.903 370.105 116.006 370.283 116.144C371.09 116.666 371.494 117.356 371.494 118.213C371.494 118.991 371.189 119.671 370.578 120.252C369.967 120.834 369.194 121.124 368.258 121.124C367.47 121.124 366.79 120.912 366.219 120.489C365.647 120.065 365.362 119.528 365.362 118.878C365.362 118.602 365.45 118.38 365.628 118.213C365.805 118.045 366.027 117.957 366.293 117.947C366.568 117.947 366.795 118.036 366.972 118.213C367.15 118.39 367.238 118.612 367.238 118.878C367.238 118.986 367.224 119.085 367.194 119.173C367.164 119.262 367.13 119.341 367.091 119.41C367.051 119.479 366.997 119.538 366.928 119.587C366.859 119.637 366.8 119.676 366.751 119.705C366.701 119.735 366.652 119.755 366.603 119.765C366.554 119.774 366.514 119.789 366.485 119.809L366.426 119.824C366.928 120.267 367.539 120.489 368.258 120.489C368.8 120.489 369.209 120.228 369.485 119.705C369.652 119.38 369.736 118.883 369.736 118.213V117.917C369.736 116.981 369.421 116.356 368.79 116.041C368.642 115.981 368.342 115.947 367.889 115.937L367.268 115.922L367.224 115.893C367.204 115.863 367.194 115.784 367.194 115.656C367.194 115.479 367.233 115.39 367.312 115.39C367.588 115.39 367.874 115.366 368.169 115.316C368.504 115.267 368.81 115.06 369.086 114.696C369.361 114.331 369.499 113.78 369.499 113.041V112.922C369.499 112.361 369.327 111.972 368.982 111.755C368.765 111.617 368.534 111.548 368.288 111.548C367.972 111.548 367.682 111.602 367.416 111.711C367.15 111.819 366.962 111.932 366.854 112.051C366.746 112.169 366.692 112.228 366.692 112.228H366.736C366.765 112.238 366.805 112.248 366.854 112.257C366.903 112.267 366.953 112.292 367.002 112.331C367.051 112.371 367.11 112.405 367.179 112.435C367.248 112.464 367.297 112.518 367.327 112.597C367.357 112.676 367.396 112.75 367.445 112.819C367.494 112.888 367.509 112.986 367.49 113.115C367.49 113.331 367.421 113.523 367.283 113.691C367.145 113.858 366.923 113.947 366.618 113.957Z" fill="#D9EBFF"/>
<rect x="323" y="119.414" width="7.5" height="7.5" transform="rotate(45 323 119.414)" fill="black" stroke="#B3BFD8" stroke-width="2"/>
<rect x="268" y="119.414" width="7.5" height="7.5" transform="rotate(45 268 119.414)" fill="black" stroke="#B3BFD8" stroke-width="2"/>
<rect x="376" y="119.414" width="7.5" height="7.5" transform="rotate(45 376 119.414)" fill="black" stroke="#B3BFD8" stroke-width="2"/>
</svg>
