<svg width="700" height="142" viewBox="0 0 700 142" fill="none" xmlns="http://www.w3.org/2000/svg">
<rect width="700" height="141" transform="translate(0 0.5)" fill="#0A0D12"/>
<path opacity="0.4" d="M261 26.5C115.173 26.5 113.496 130.5 261 130.5" stroke="#B3BFD8" stroke-width="2"/>
<path d="M261 26.5C239.774 26.5 221.602 28.7034 206.5 32.4687" stroke="#B3BFD8" stroke-width="2"/>
<circle cx="205.815" cy="124.5" r="5" fill="black" stroke="#D9EBFF" stroke-width="2"/>
<circle cx="205.815" cy="32.5" r="5" fill="black" stroke="#D9EBFF" stroke-width="2"/>
<path d="M209.815 15.741C209.829 15.6573 209.85 15.5459 209.878 15.4065C209.906 15.2672 209.99 15.0024 210.129 14.6122C210.268 14.2221 210.408 13.8946 210.547 13.6298C210.686 13.3651 210.916 13.1073 211.237 12.8564C211.557 12.6056 211.878 12.4872 212.198 12.5011C212.7 12.5011 213.118 12.6265 213.452 12.8773C213.787 13.1282 213.996 13.3651 214.079 13.588C214.163 13.811 214.205 13.9573 214.205 14.027C214.205 14.0548 214.212 14.0688 214.226 14.0688L214.456 13.8388C215.306 12.947 216.274 12.5011 217.361 12.5011C218.114 12.5011 218.72 12.6892 219.18 13.0655C219.639 13.4417 219.876 13.9921 219.89 14.7167C219.904 15.4414 219.64 16.5352 219.096 17.9984C218.553 19.4616 218.288 20.3464 218.302 20.653C218.302 21.0153 218.42 21.1964 218.657 21.1964C218.741 21.1964 218.803 21.1895 218.845 21.1755C219.249 21.1059 219.612 20.8411 219.932 20.3813C220.253 19.9214 220.496 19.364 220.664 18.7091C220.692 18.5976 220.831 18.5419 221.082 18.5419C221.36 18.5419 221.5 18.5976 221.5 18.7091C221.5 18.723 221.472 18.8275 221.416 19.0226C221.305 19.4267 221.151 19.8239 220.956 20.214C220.761 20.6042 220.441 20.9944 219.995 21.3846C219.549 21.7747 219.068 21.9629 218.553 21.9489C217.898 21.9489 217.424 21.7608 217.131 21.3846C216.839 21.0083 216.692 20.6182 216.692 20.214C216.692 19.9493 216.943 19.1132 217.445 17.7058C217.946 16.2983 218.204 15.2393 218.218 14.5286C218.218 13.7065 217.912 13.2954 217.298 13.2954H217.194C215.996 13.2954 214.985 13.9991 214.163 15.4065L214.017 15.6573L213.327 18.4583C212.867 20.2837 212.602 21.2661 212.533 21.4055C212.352 21.7817 212.052 21.9698 211.634 21.9698C211.453 21.9698 211.306 21.928 211.195 21.8444C211.083 21.7608 211.007 21.6772 210.965 21.5936C210.923 21.51 210.909 21.4403 210.923 21.3846C210.923 21.2034 211.188 20.0677 211.718 17.9775C212.247 15.8873 212.526 14.7516 212.554 14.5704C212.568 14.5008 212.575 14.3405 212.575 14.0897C212.575 13.5462 212.407 13.2745 212.073 13.2745C211.543 13.2745 211.104 13.9712 210.756 15.3647C210.672 15.6434 210.631 15.7897 210.631 15.8037C210.603 15.8873 210.47 15.9291 210.233 15.9291H209.941C209.857 15.8455 209.815 15.7828 209.815 15.741Z" fill="#D9EBFF"/>
<path d="M228.75 24.8876C228.573 24.858 227.938 24.8433 226.844 24.8433C225.701 24.8433 225.041 24.858 224.864 24.8876H224.731V24.2078H225.189C225.386 24.2078 225.519 24.2078 225.588 24.2078C225.657 24.2078 225.741 24.198 225.839 24.1783C225.938 24.1586 226.007 24.1339 226.046 24.1044C226.085 24.0748 226.12 24.0354 226.149 23.9862C226.159 23.9664 226.164 23.7004 226.164 23.1881V22.4492H222.337V21.7695L224.568 18.3558C226.076 16.0701 226.839 14.9224 226.859 14.9125C226.878 14.8928 226.982 14.883 227.169 14.883H227.435L227.524 14.9716V21.7695H228.883V22.4492H227.524V23.2029C227.524 23.6069 227.524 23.8433 227.524 23.9123C227.524 23.9812 227.553 24.0403 227.612 24.0896C227.691 24.1586 227.972 24.198 228.455 24.2078H228.883V24.8876H228.75ZM226.253 21.7695V16.8336L223.016 21.7547L224.627 21.7695H226.253Z" fill="#D9EBFF"/>
<circle cx="261" cy="26.5" r="5" fill="black" stroke="#D9EBFF" stroke-width="2"/>
<path d="M254 8.74095C254.014 8.65734 254.035 8.54587 254.063 8.40652C254.091 8.26717 254.174 8.00241 254.314 7.61223C254.453 7.22205 254.592 6.89459 254.732 6.62982C254.871 6.36506 255.101 6.10727 255.421 5.85644C255.742 5.60561 256.062 5.48717 256.383 5.5011C256.885 5.5011 257.303 5.62651 257.637 5.87734C257.971 6.12817 258.18 6.36506 258.264 6.58802C258.348 6.81098 258.389 6.95729 258.389 7.02697C258.389 7.05484 258.396 7.06877 258.41 7.06877L258.64 6.83885C259.49 5.94702 260.459 5.5011 261.546 5.5011C262.298 5.5011 262.904 5.68922 263.364 6.06546C263.824 6.4417 264.061 6.99213 264.075 7.71674C264.089 8.44135 263.824 9.53524 263.281 10.9984C262.737 12.4616 262.472 13.3464 262.486 13.653C262.486 14.0153 262.605 14.1964 262.842 14.1964C262.925 14.1964 262.988 14.1895 263.03 14.1755C263.434 14.1059 263.796 13.8411 264.117 13.3813C264.437 12.9214 264.681 12.364 264.848 11.7091C264.876 11.5976 265.016 11.5419 265.266 11.5419C265.545 11.5419 265.684 11.5976 265.684 11.7091C265.684 11.723 265.657 11.8275 265.601 12.0226C265.489 12.4267 265.336 12.8239 265.141 13.214C264.946 13.6042 264.625 13.9944 264.179 14.3846C263.733 14.7747 263.253 14.9629 262.737 14.9489C262.082 14.9489 261.608 14.7608 261.316 14.3846C261.023 14.0083 260.877 13.6182 260.877 13.214C260.877 12.9493 261.128 12.1132 261.629 10.7058C262.131 9.29835 262.389 8.2393 262.403 7.52862C262.403 6.70647 262.096 6.29539 261.483 6.29539H261.379C260.18 6.29539 259.17 6.9991 258.348 8.40652L258.201 8.65734L257.512 11.4583C257.052 13.2837 256.787 14.2661 256.717 14.4055C256.536 14.7817 256.237 14.9698 255.819 14.9698C255.637 14.9698 255.491 14.928 255.38 14.8444C255.268 14.7608 255.191 14.6772 255.15 14.5936C255.108 14.51 255.094 14.4403 255.108 14.3846C255.108 14.2034 255.373 13.0677 255.902 10.9775C256.432 8.88727 256.71 7.75158 256.738 7.57043C256.752 7.50075 256.759 7.3405 256.759 7.08967C256.759 6.54621 256.592 6.27448 256.257 6.27448C255.728 6.27448 255.289 6.97123 254.941 8.36471C254.857 8.64341 254.815 8.78973 254.815 8.80366C254.787 8.88727 254.655 8.92907 254.418 8.92907H254.125C254.042 8.84547 254 8.78276 254 8.74095Z" fill="#D9EBFF"/>
<path d="M267.718 11.5479C267.452 11.5479 267.24 11.4592 267.083 11.2819C266.925 11.1045 266.846 10.8878 266.846 10.6316C266.846 9.93216 267.107 9.32627 267.63 8.81396C268.152 8.30166 268.802 8.04551 269.58 8.04551C270.477 8.04551 271.226 8.32137 271.827 8.87308C272.428 9.42479 272.733 10.1391 272.743 11.0159C272.743 11.4395 272.644 11.8434 272.447 12.2277C272.25 12.6119 272.014 12.9469 271.738 13.2326C271.462 13.5183 271.068 13.8828 270.556 14.3261C270.201 14.6315 269.708 15.0847 269.078 15.6857L268.206 16.5133L269.329 16.528C270.876 16.528 271.698 16.5034 271.797 16.4541C271.866 16.4344 271.984 15.996 272.152 15.1389V15.0946H272.743V15.1389C272.733 15.1685 272.669 15.6167 272.551 16.4837C272.432 17.3507 272.359 17.8039 272.329 17.8433V17.8876H266.846V17.4295C266.846 17.3605 266.876 17.2866 266.935 17.2078C266.994 17.129 267.142 16.9566 267.378 16.6906C267.664 16.3753 267.91 16.0995 268.117 15.863C268.206 15.7645 268.373 15.5822 268.62 15.3162C268.866 15.0502 269.034 14.868 269.122 14.7695C269.211 14.6709 269.354 14.5084 269.551 14.2818C269.748 14.0552 269.886 13.8877 269.965 13.7793C270.043 13.671 270.157 13.5232 270.304 13.336C270.452 13.1488 270.556 12.9912 270.615 12.8631C270.674 12.735 270.748 12.5922 270.836 12.4346C270.925 12.2769 270.989 12.1193 271.029 11.9617C271.068 11.804 271.102 11.6563 271.132 11.5183C271.162 11.3804 271.176 11.2178 271.176 11.0307C271.176 10.41 271.009 9.87305 270.674 9.41986C270.339 8.96667 269.861 8.74008 269.24 8.74008C268.915 8.74008 268.63 8.82382 268.383 8.9913C268.137 9.15878 267.965 9.32134 267.866 9.47897C267.768 9.6366 267.718 9.7302 267.718 9.75975C267.718 9.7696 267.743 9.77453 267.792 9.77453C267.97 9.77453 268.152 9.84349 268.339 9.98142C268.526 10.1193 268.62 10.3459 268.62 10.6612C268.62 10.9075 268.541 11.1144 268.383 11.2819C268.226 11.4494 268.004 11.538 267.718 11.5479Z" fill="#D9EBFF"/>
<path d="M345.094 47.6562C344.5 47.6562 343.953 47.5547 343.453 47.3516C342.958 47.1484 342.534 46.8646 342.18 46.5C341.826 46.1354 341.549 45.7031 341.352 45.2031C341.154 44.7031 341.055 44.1589 341.055 43.5703V43.2422C341.055 42.5599 341.164 41.9505 341.383 41.4141C341.602 40.8724 341.891 40.4167 342.25 40.0469C342.615 39.6719 343.026 39.3854 343.484 39.1875C343.948 38.9896 344.422 38.8906 344.906 38.8906C345.516 38.8906 346.047 38.9974 346.5 39.2109C346.958 39.4193 347.339 39.7109 347.641 40.0859C347.943 40.4557 348.167 40.8932 348.312 41.3984C348.464 41.9036 348.539 42.4505 348.539 43.0391V43.6875H342.5C342.516 44.0729 342.589 44.4349 342.719 44.7734C342.854 45.112 343.036 45.4089 343.266 45.6641C343.5 45.9141 343.779 46.112 344.102 46.2578C344.424 46.4036 344.781 46.4766 345.172 46.4766C345.688 46.4766 346.146 46.3724 346.547 46.1641C346.948 45.9557 347.281 45.6797 347.547 45.3359L348.43 46.0234C348.289 46.237 348.112 46.4427 347.898 46.6406C347.69 46.8333 347.448 47.0052 347.172 47.1562C346.896 47.3073 346.583 47.4271 346.234 47.5156C345.885 47.6094 345.505 47.6562 345.094 47.6562ZM344.906 40.0781C344.615 40.0781 344.339 40.1328 344.078 40.2422C343.818 40.3464 343.583 40.5026 343.375 40.7109C343.167 40.9141 342.99 41.1667 342.844 41.4688C342.703 41.7656 342.604 42.1094 342.547 42.5H347.094V42.3906C347.078 42.1094 347.023 41.8307 346.93 41.5547C346.841 41.2786 346.708 41.0312 346.531 40.8125C346.354 40.5938 346.13 40.4167 345.859 40.2812C345.594 40.1458 345.276 40.0781 344.906 40.0781ZM355.656 47.5H354.211V37.9688L351.234 39.1016V37.7812L355.539 36.125H355.656V47.5ZM363.484 46.5625C363.484 46.4062 363.508 46.2604 363.555 46.125C363.607 45.9896 363.68 45.8724 363.773 45.7734C363.867 45.6693 363.984 45.5885 364.125 45.5312C364.266 45.474 364.43 45.4453 364.617 45.4453C364.805 45.4453 364.969 45.474 365.109 45.5312C365.255 45.5885 365.375 45.6693 365.469 45.7734C365.568 45.8724 365.641 45.9896 365.688 46.125C365.74 46.2604 365.766 46.4062 365.766 46.5625C365.766 46.7135 365.74 46.8568 365.688 46.9922C365.641 47.1224 365.568 47.237 365.469 47.3359C365.375 47.4349 365.255 47.5104 365.109 47.5625C364.969 47.6198 364.805 47.6484 364.617 47.6484C364.43 47.6484 364.266 47.6198 364.125 47.5625C363.984 47.5104 363.867 47.4349 363.773 47.3359C363.68 47.237 363.607 47.1224 363.555 46.9922C363.508 46.8568 363.484 46.7135 363.484 46.5625ZM363.484 39.7188C363.484 39.5625 363.508 39.4167 363.555 39.2812C363.607 39.1458 363.68 39.0286 363.773 38.9297C363.867 38.8255 363.984 38.7448 364.125 38.6875C364.266 38.6302 364.43 38.6016 364.617 38.6016C364.805 38.6016 364.969 38.6302 365.109 38.6875C365.255 38.7448 365.375 38.8255 365.469 38.9297C365.568 39.0286 365.641 39.1458 365.688 39.2812C365.74 39.4167 365.766 39.5625 365.766 39.7188C365.766 39.8698 365.74 40.013 365.688 40.1484C365.641 40.2786 365.568 40.3932 365.469 40.4922C365.375 40.5911 365.255 40.6693 365.109 40.7266C364.969 40.7786 364.805 40.8047 364.617 40.8047C364.43 40.8047 364.266 40.7786 364.125 40.7266C363.984 40.6693 363.867 40.5911 363.773 40.4922C363.68 40.3932 363.607 40.2786 363.555 40.1484C363.508 40.013 363.484 39.8698 363.484 39.7188ZM384.859 35.6875H383.133V48.75H384.859V49.9375H381.766V34.5H384.859V35.6875ZM366.562 69.3125C366.219 69.3125 365.906 69.2604 365.625 69.1562C365.344 69.0521 365.091 68.9115 364.867 68.7344C364.648 68.5573 364.458 68.349 364.297 68.1094C364.141 67.8698 364.008 67.6146 363.898 67.3438C363.794 67.0729 363.716 66.7943 363.664 66.5078C363.617 66.2266 363.594 65.9479 363.594 65.6719V64.3984C363.594 63.7057 363.432 63.2083 363.109 62.9062C362.786 62.6042 362.294 62.4531 361.633 62.4531V60.8906C362.294 60.8906 362.786 60.7396 363.109 60.4375C363.432 60.1354 363.594 59.6328 363.594 58.9297V57.6562C363.594 57.3854 363.615 57.1068 363.656 56.8203C363.703 56.5339 363.776 56.2552 363.875 55.9844C363.974 55.7135 364.099 55.4609 364.25 55.2266C364.406 54.987 364.594 54.7786 364.812 54.6016C365.036 54.4245 365.292 54.2839 365.578 54.1797C365.87 54.0755 366.198 54.0234 366.562 54.0234L366.828 55.25C366.51 55.2396 366.266 55.3073 366.094 55.4531C365.922 55.5938 365.797 55.7812 365.719 56.0156C365.641 56.25 365.594 56.513 365.578 56.8047C365.568 57.0911 365.562 57.375 365.562 57.6562V58.9297C365.562 59.5495 365.409 60.099 365.102 60.5781C364.799 61.0573 364.328 61.4219 363.688 61.6719C364.333 61.9219 364.807 62.2839 365.109 62.7578C365.411 63.2318 365.562 63.7786 365.562 64.3984V65.6719C365.562 65.9531 365.578 66.237 365.609 66.5234C365.646 66.8151 365.711 67.0781 365.805 67.3125C365.898 67.5469 366.026 67.7344 366.188 67.875C366.354 68.0208 366.568 68.0885 366.828 68.0781L366.562 69.3125ZM381.508 58.0469L381.641 59.2188C381.943 58.7969 382.31 58.4714 382.742 58.2422C383.174 58.0078 383.654 57.8906 384.18 57.8906C384.607 57.8906 384.997 57.9531 385.352 58.0781C385.706 58.2031 386.01 58.4036 386.266 58.6797C386.526 58.9505 386.727 59.3021 386.867 59.7344C387.013 60.1615 387.086 60.6823 387.086 61.2969V66.5H384.914V61.3281C384.914 60.9948 384.875 60.7214 384.797 60.5078C384.724 60.2891 384.617 60.1172 384.477 59.9922C384.336 59.8672 384.167 59.7812 383.969 59.7344C383.771 59.6823 383.547 59.6562 383.297 59.6562C382.927 59.6562 382.612 59.7318 382.352 59.8828C382.091 60.0286 381.88 60.2318 381.719 60.4922V66.5H379.539V58.0469H381.508ZM388.852 62.1953C388.852 61.5807 388.94 61.013 389.117 60.4922C389.294 59.9661 389.552 59.5104 389.891 59.125C390.234 58.7396 390.651 58.4375 391.141 58.2188C391.635 58 392.201 57.8906 392.836 57.8906C393.471 57.8906 394.036 58 394.531 58.2188C395.026 58.4375 395.443 58.7396 395.781 59.125C396.125 59.5104 396.385 59.9661 396.562 60.4922C396.74 61.013 396.828 61.5807 396.828 62.1953V62.3594C396.828 62.9792 396.74 63.5521 396.562 64.0781C396.385 64.599 396.128 65.0521 395.789 65.4375C395.451 65.8229 395.034 66.125 394.539 66.3438C394.044 66.5573 393.482 66.6641 392.852 66.6641C392.216 66.6641 391.648 66.5573 391.148 66.3438C390.654 66.125 390.234 65.8229 389.891 65.4375C389.552 65.0521 389.294 64.599 389.117 64.0781C388.94 63.5521 388.852 62.9792 388.852 62.3594V62.1953ZM391.023 62.3594C391.023 62.7135 391.057 63.0469 391.125 63.3594C391.193 63.6667 391.299 63.9375 391.445 64.1719C391.591 64.401 391.779 64.5833 392.008 64.7188C392.242 64.8542 392.523 64.9219 392.852 64.9219C393.169 64.9219 393.443 64.8542 393.672 64.7188C393.901 64.5833 394.086 64.401 394.227 64.1719C394.372 63.9375 394.479 63.6667 394.547 63.3594C394.615 63.0469 394.648 62.7135 394.648 62.3594V62.1953C394.648 61.8516 394.615 61.526 394.547 61.2188C394.479 60.9115 394.372 60.6406 394.227 60.4062C394.086 60.1719 393.901 59.987 393.672 59.8516C393.443 59.7161 393.164 59.6484 392.836 59.6484C392.513 59.6484 392.237 59.7161 392.008 59.8516C391.779 59.987 391.591 60.1719 391.445 60.4062C391.299 60.6406 391.193 60.9115 391.125 61.2188C391.057 61.526 391.023 61.8516 391.023 62.1953V62.3594ZM398.531 62.2109C398.531 61.5703 398.604 60.9844 398.75 60.4531C398.901 59.9219 399.12 59.4661 399.406 59.0859C399.693 58.7057 400.039 58.4115 400.445 58.2031C400.857 57.9948 401.326 57.8906 401.852 57.8906C402.294 57.8906 402.682 57.9714 403.016 58.1328C403.354 58.2891 403.654 58.513 403.914 58.8047V54.5H406.094V66.5H404.133L404.023 65.6172C403.758 65.9453 403.445 66.2005 403.086 66.3828C402.727 66.5651 402.31 66.6562 401.836 66.6562C401.32 66.6562 400.857 66.5495 400.445 66.3359C400.039 66.1172 399.693 65.8177 399.406 65.4375C399.125 65.0573 398.909 64.6068 398.758 64.0859C398.607 63.5599 398.531 62.9896 398.531 62.375V62.2109ZM400.703 62.375C400.703 62.7292 400.732 63.0599 400.789 63.3672C400.852 63.6693 400.951 63.9349 401.086 64.1641C401.221 64.388 401.396 64.5651 401.609 64.6953C401.823 64.8255 402.083 64.8906 402.391 64.8906C402.766 64.8906 403.076 64.8099 403.32 64.6484C403.57 64.487 403.768 64.2656 403.914 63.9844V60.5625C403.768 60.276 403.573 60.0547 403.328 59.8984C403.083 59.737 402.776 59.6562 402.406 59.6562C402.099 59.6562 401.836 59.724 401.617 59.8594C401.404 59.9896 401.229 60.1719 401.094 60.4062C400.958 60.6354 400.859 60.9062 400.797 61.2188C400.734 61.526 400.703 61.8568 400.703 62.2109V62.375ZM412.469 66.6562C411.818 66.6562 411.227 66.5495 410.695 66.3359C410.164 66.1224 409.708 65.8333 409.328 65.4688C408.948 65.099 408.654 64.6667 408.445 64.1719C408.242 63.6719 408.141 63.138 408.141 62.5703V62.2578C408.141 61.612 408.242 61.0234 408.445 60.4922C408.648 59.9557 408.932 59.4948 409.297 59.1094C409.661 58.724 410.094 58.4245 410.594 58.2109C411.094 57.9974 411.638 57.8906 412.227 57.8906C412.836 57.8906 413.378 57.9922 413.852 58.1953C414.331 58.3932 414.734 58.6745 415.062 59.0391C415.396 59.4036 415.648 59.8438 415.82 60.3594C415.992 60.8698 416.078 61.4349 416.078 62.0547V62.9766H410.344C410.385 63.263 410.469 63.526 410.594 63.7656C410.724 64 410.888 64.2031 411.086 64.375C411.284 64.5469 411.51 64.6797 411.766 64.7734C412.021 64.8672 412.299 64.9141 412.602 64.9141C412.815 64.9141 413.026 64.8932 413.234 64.8516C413.448 64.8099 413.651 64.75 413.844 64.6719C414.036 64.5885 414.216 64.487 414.383 64.3672C414.549 64.2474 414.695 64.1068 414.82 63.9453L415.906 65.1172C415.771 65.3099 415.594 65.5 415.375 65.6875C415.161 65.8698 414.906 66.0339 414.609 66.1797C414.318 66.3203 413.992 66.4349 413.633 66.5234C413.273 66.612 412.885 66.6562 412.469 66.6562ZM412.211 59.6484C411.966 59.6484 411.742 59.6927 411.539 59.7812C411.336 59.8646 411.156 59.987 411 60.1484C410.849 60.3099 410.721 60.5026 410.617 60.7266C410.513 60.9505 410.435 61.2005 410.383 61.4766H413.945V61.3047C413.935 61.0755 413.891 60.8594 413.812 60.6562C413.734 60.4531 413.622 60.2786 413.477 60.1328C413.331 59.9818 413.151 59.8646 412.938 59.7812C412.729 59.6927 412.487 59.6484 412.211 59.6484ZM418.383 55.125H424.961V56.8984H422.742V64.7344H424.961V66.5H418.383V64.7344H420.547V56.8984H418.383V55.125ZM427.359 62.2109C427.359 61.5703 427.432 60.9844 427.578 60.4531C427.729 59.9219 427.948 59.4661 428.234 59.0859C428.521 58.7057 428.867 58.4115 429.273 58.2031C429.685 57.9948 430.154 57.8906 430.68 57.8906C431.122 57.8906 431.51 57.9714 431.844 58.1328C432.182 58.2891 432.482 58.513 432.742 58.8047V54.5H434.922V66.5H432.961L432.852 65.6172C432.586 65.9453 432.273 66.2005 431.914 66.3828C431.555 66.5651 431.138 66.6562 430.664 66.6562C430.148 66.6562 429.685 66.5495 429.273 66.3359C428.867 66.1172 428.521 65.8177 428.234 65.4375C427.953 65.0573 427.737 64.6068 427.586 64.0859C427.435 63.5599 427.359 62.9896 427.359 62.375V62.2109ZM429.531 62.375C429.531 62.7292 429.56 63.0599 429.617 63.3672C429.68 63.6693 429.779 63.9349 429.914 64.1641C430.049 64.388 430.224 64.5651 430.438 64.6953C430.651 64.8255 430.911 64.8906 431.219 64.8906C431.594 64.8906 431.904 64.8099 432.148 64.6484C432.398 64.487 432.596 64.2656 432.742 63.9844V60.5625C432.596 60.276 432.401 60.0547 432.156 59.8984C431.911 59.737 431.604 59.6562 431.234 59.6562C430.927 59.6562 430.664 59.724 430.445 59.8594C430.232 59.9896 430.057 60.1719 429.922 60.4062C429.786 60.6354 429.688 60.9062 429.625 61.2188C429.562 61.526 429.531 61.8568 429.531 62.2109V62.375ZM439.5 65.2422C439.5 65.0391 439.534 64.8516 439.602 64.6797C439.669 64.5026 439.768 64.3516 439.898 64.2266C440.029 64.0964 440.188 63.9948 440.375 63.9219C440.562 63.8438 440.773 63.8047 441.008 63.8047C441.242 63.8047 441.453 63.8438 441.641 63.9219C441.828 63.9948 441.984 64.0964 442.109 64.2266C442.24 64.3516 442.339 64.5026 442.406 64.6797C442.479 64.8516 442.516 65.0391 442.516 65.2422C442.516 65.4401 442.479 65.625 442.406 65.7969C442.339 65.9688 442.24 66.1198 442.109 66.25C441.984 66.375 441.828 66.474 441.641 66.5469C441.453 66.6198 441.242 66.6562 441.008 66.6562C440.773 66.6562 440.562 66.6198 440.375 66.5469C440.188 66.474 440.029 66.375 439.898 66.25C439.768 66.1198 439.669 65.9688 439.602 65.7969C439.534 65.625 439.5 65.4401 439.5 65.2422ZM439.5 58.7891C439.5 58.5859 439.534 58.3984 439.602 58.2266C439.669 58.0495 439.768 57.8984 439.898 57.7734C440.029 57.6432 440.188 57.5417 440.375 57.4688C440.562 57.3906 440.773 57.3516 441.008 57.3516C441.242 57.3516 441.453 57.3906 441.641 57.4688C441.828 57.5417 441.984 57.6432 442.109 57.7734C442.24 57.8984 442.339 58.0495 442.406 58.2266C442.479 58.3984 442.516 58.5859 442.516 58.7891C442.516 58.987 442.479 59.1719 442.406 59.3438C442.339 59.5156 442.24 59.6667 442.109 59.7969C441.984 59.9219 441.828 60.0208 441.641 60.0938C441.453 60.1667 441.242 60.2031 441.008 60.2031C440.773 60.2031 440.562 60.1667 440.375 60.0938C440.188 60.0208 440.029 59.9219 439.898 59.7969C439.768 59.6667 439.669 59.5156 439.602 59.3438C439.534 59.1719 439.5 58.987 439.5 58.7891ZM459.117 55.3438L458.891 58.625H457.508V54.5H459.117V55.3438ZM462.328 55.3438L462.109 58.625H460.727V54.5H462.328V55.3438ZM467.992 58.0469L468.125 59.2188C468.427 58.7969 468.794 58.4714 469.227 58.2422C469.659 58.0078 470.138 57.8906 470.664 57.8906C471.091 57.8906 471.482 57.9531 471.836 58.0781C472.19 58.2031 472.495 58.4036 472.75 58.6797C473.01 58.9505 473.211 59.3021 473.352 59.7344C473.497 60.1615 473.57 60.6823 473.57 61.2969V66.5H471.398V61.3281C471.398 60.9948 471.359 60.7214 471.281 60.5078C471.208 60.2891 471.102 60.1172 470.961 59.9922C470.82 59.8672 470.651 59.7812 470.453 59.7344C470.255 59.6823 470.031 59.6562 469.781 59.6562C469.411 59.6562 469.096 59.7318 468.836 59.8828C468.576 60.0286 468.365 60.2318 468.203 60.4922V66.5H466.023V58.0469H467.992ZM481.977 62.2734H483.297V64.0312H481.977V66.5H479.805V64.0312H475.078L474.992 62.6719L479.773 55.125H481.977V62.2734ZM477.125 62.2734H479.805V58.0469L479.594 58.4219L477.125 62.2734ZM487.945 55.3438L487.719 58.625H486.336V54.5H487.945V55.3438ZM491.156 55.3438L490.938 58.625H489.555V54.5H491.156V55.3438ZM499.297 66.3281C499.297 66.625 499.255 66.9297 499.172 67.2422C499.094 67.5547 498.984 67.8568 498.844 68.1484C498.703 68.4401 498.534 68.7161 498.336 68.9766C498.143 69.237 497.935 69.4688 497.711 69.6719L496.562 69.0781C496.661 68.8906 496.753 68.7005 496.836 68.5078C496.924 68.3151 497 68.112 497.062 67.8984C497.125 67.6849 497.174 67.4583 497.211 67.2188C497.247 66.9792 497.266 66.7161 497.266 66.4297V64.6016H499.305L499.297 66.3281ZM518.055 55.9766V58.0469H521.211V59.6484H518.055V63.2812C518.055 63.5885 518.089 63.8464 518.156 64.0547C518.229 64.2578 518.331 64.4219 518.461 64.5469C518.591 64.6667 518.747 64.7526 518.93 64.8047C519.117 64.8568 519.326 64.8828 519.555 64.8828C519.721 64.8828 519.891 64.875 520.062 64.8594C520.24 64.8438 520.406 64.8255 520.562 64.8047C520.724 64.7786 520.872 64.7526 521.008 64.7266C521.148 64.7005 521.268 64.6745 521.367 64.6484L521.578 66.1406C521.427 66.2292 521.25 66.3073 521.047 66.375C520.844 66.4375 520.628 66.4896 520.398 66.5312C520.169 66.5729 519.93 66.6042 519.68 66.625C519.435 66.651 519.193 66.6641 518.953 66.6641C518.49 66.6641 518.068 66.6042 517.688 66.4844C517.312 66.3594 516.99 66.1693 516.719 65.9141C516.453 65.6536 516.247 65.3255 516.102 64.9297C515.956 64.5286 515.883 64.0495 515.883 63.4922V59.6484H513.953V58.0469H515.883V55.9766H518.055ZM525.984 65.2422C525.984 65.0391 526.018 64.8516 526.086 64.6797C526.154 64.5026 526.253 64.3516 526.383 64.2266C526.513 64.0964 526.672 63.9948 526.859 63.9219C527.047 63.8438 527.258 63.8047 527.492 63.8047C527.727 63.8047 527.938 63.8438 528.125 63.9219C528.312 63.9948 528.469 64.0964 528.594 64.2266C528.724 64.3516 528.823 64.5026 528.891 64.6797C528.964 64.8516 529 65.0391 529 65.2422C529 65.4401 528.964 65.625 528.891 65.7969C528.823 65.9688 528.724 66.1198 528.594 66.25C528.469 66.375 528.312 66.474 528.125 66.5469C527.938 66.6198 527.727 66.6562 527.492 66.6562C527.258 66.6562 527.047 66.6198 526.859 66.5469C526.672 66.474 526.513 66.375 526.383 66.25C526.253 66.1198 526.154 65.9688 526.086 65.7969C526.018 65.625 525.984 65.4401 525.984 65.2422ZM525.984 58.7891C525.984 58.5859 526.018 58.3984 526.086 58.2266C526.154 58.0495 526.253 57.8984 526.383 57.7734C526.513 57.6432 526.672 57.5417 526.859 57.4688C527.047 57.3906 527.258 57.3516 527.492 57.3516C527.727 57.3516 527.938 57.3906 528.125 57.4688C528.312 57.5417 528.469 57.6432 528.594 57.7734C528.724 57.8984 528.823 58.0495 528.891 58.2266C528.964 58.3984 529 58.5859 529 58.7891C529 58.987 528.964 59.1719 528.891 59.3438C528.823 59.5156 528.724 59.6667 528.594 59.7969C528.469 59.9219 528.312 60.0208 528.125 60.0938C527.938 60.1667 527.727 60.2031 527.492 60.2031C527.258 60.2031 527.047 60.1667 526.859 60.0938C526.672 60.0208 526.513 59.9219 526.383 59.7969C526.253 59.6667 526.154 59.5156 526.086 59.3438C526.018 59.1719 525.984 58.987 525.984 58.7891ZM550.305 62.1719C550.305 62.9062 550.219 63.5547 550.047 64.1172C549.88 64.6745 549.638 65.1432 549.32 65.5234C549.003 65.8984 548.615 66.1823 548.156 66.375C547.698 66.5677 547.182 66.6641 546.609 66.6641C546.042 66.6641 545.529 66.5677 545.07 66.375C544.612 66.1823 544.221 65.8984 543.898 65.5234C543.581 65.1432 543.333 64.6745 543.156 64.1172C542.984 63.5547 542.898 62.9062 542.898 62.1719V59.4531C542.898 58.7188 542.984 58.0729 543.156 57.5156C543.328 56.9531 543.573 56.4844 543.891 56.1094C544.214 55.7292 544.602 55.4427 545.055 55.25C545.513 55.0573 546.026 54.9609 546.594 54.9609C547.167 54.9609 547.682 55.0573 548.141 55.25C548.599 55.4427 548.987 55.7292 549.305 56.1094C549.628 56.4844 549.875 56.9531 550.047 57.5156C550.219 58.0729 550.305 58.7188 550.305 59.4531V62.1719ZM545.086 61.2344L548.117 58.9766C548.102 58.2109 547.969 57.6432 547.719 57.2734C547.469 56.9036 547.094 56.7188 546.594 56.7188C546.089 56.7188 545.711 56.9141 545.461 57.3047C545.211 57.6953 545.086 58.2969 545.086 59.1094V61.2344ZM548.117 60.4531L545.086 62.7031C545.112 63.4531 545.25 64.0104 545.5 64.375C545.75 64.7344 546.12 64.9141 546.609 64.9141C547.12 64.9141 547.497 64.7161 547.742 64.3203C547.992 63.9245 548.117 63.3177 548.117 62.5V60.4531ZM554.703 65.2422C554.703 65.0391 554.737 64.8516 554.805 64.6797C554.872 64.5026 554.971 64.3516 555.102 64.2266C555.232 64.0964 555.391 63.9948 555.578 63.9219C555.766 63.8438 555.977 63.8047 556.211 63.8047C556.445 63.8047 556.656 63.8438 556.844 63.9219C557.031 63.9948 557.188 64.0964 557.312 64.2266C557.443 64.3516 557.542 64.5026 557.609 64.6797C557.682 64.8516 557.719 65.0391 557.719 65.2422C557.719 65.4401 557.682 65.625 557.609 65.7969C557.542 65.9688 557.443 66.1198 557.312 66.25C557.188 66.375 557.031 66.474 556.844 66.5469C556.656 66.6198 556.445 66.6562 556.211 66.6562C555.977 66.6562 555.766 66.6198 555.578 66.5469C555.391 66.474 555.232 66.375 555.102 66.25C554.971 66.1198 554.872 65.9688 554.805 65.7969C554.737 65.625 554.703 65.4401 554.703 65.2422ZM569.555 66.5H561.797V65.0156L565.477 61.0625C565.763 60.75 566.005 60.4661 566.203 60.2109C566.401 59.9557 566.56 59.724 566.68 59.5156C566.805 59.3021 566.893 59.1042 566.945 58.9219C567.003 58.7396 567.031 58.5625 567.031 58.3906C567.031 58.1354 566.995 57.9089 566.922 57.7109C566.849 57.513 566.745 57.3464 566.609 57.2109C566.479 57.0703 566.32 56.9635 566.133 56.8906C565.951 56.8177 565.747 56.7812 565.523 56.7812C564.924 56.7812 564.477 56.9479 564.18 57.2812C563.888 57.6146 563.742 58.0807 563.742 58.6797H561.562C561.562 58.1745 561.659 57.6979 561.852 57.25C562.044 56.7969 562.315 56.401 562.664 56.0625C563.018 55.724 563.443 55.4583 563.938 55.2656C564.438 55.0677 564.99 54.9688 565.594 54.9688C566.172 54.9688 566.682 55.0495 567.125 55.2109C567.573 55.3724 567.945 55.599 568.242 55.8906C568.544 56.1823 568.773 56.5339 568.93 56.9453C569.086 57.3516 569.164 57.8021 569.164 58.2969C569.164 58.6719 569.104 59.0312 568.984 59.375C568.87 59.7135 568.703 60.0495 568.484 60.3828C568.271 60.7161 568.013 61.0573 567.711 61.4062C567.409 61.75 567.073 62.112 566.703 62.4922L564.562 64.7578H569.555V66.5ZM571.836 60.8984L572.484 55.125H578.797V56.9688H574.273L574 59.4688C574.161 59.375 574.391 59.2786 574.688 59.1797C574.984 59.0807 575.326 59.0312 575.711 59.0312C576.258 59.0312 576.745 59.1198 577.172 59.2969C577.604 59.4688 577.966 59.7188 578.258 60.0469C578.555 60.375 578.781 60.776 578.938 61.25C579.094 61.724 579.172 62.2604 579.172 62.8594C579.172 63.3698 579.096 63.8542 578.945 64.3125C578.794 64.7708 578.562 65.1745 578.25 65.5234C577.938 65.8724 577.544 66.1484 577.07 66.3516C576.596 66.5547 576.036 66.6562 575.391 66.6562C574.901 66.6562 574.427 66.5833 573.969 66.4375C573.516 66.2917 573.112 66.0781 572.758 65.7969C572.404 65.5156 572.115 65.1719 571.891 64.7656C571.672 64.3542 571.555 63.8854 571.539 63.3594H573.68C573.732 63.8542 573.909 64.237 574.211 64.5078C574.518 64.7786 574.909 64.9141 575.383 64.9141C575.674 64.9141 575.922 64.8594 576.125 64.75C576.333 64.6406 576.5 64.4896 576.625 64.2969C576.755 64.1042 576.849 63.875 576.906 63.6094C576.969 63.3438 577 63.0573 577 62.75C577 62.4479 576.961 62.1719 576.883 61.9219C576.81 61.6667 576.695 61.4479 576.539 61.2656C576.383 61.0833 576.188 60.9427 575.953 60.8438C575.719 60.7448 575.443 60.6953 575.125 60.6953C574.911 60.6953 574.727 60.7135 574.57 60.75C574.414 60.7865 574.276 60.8333 574.156 60.8906C574.036 60.9479 573.93 61.0156 573.836 61.0938C573.742 61.1667 573.654 61.2448 573.57 61.3281L571.836 60.8984ZM592.438 68.0781C592.693 68.0885 592.901 68.0208 593.062 67.875C593.229 67.7344 593.359 67.5469 593.453 67.3125C593.547 67.0781 593.612 66.8151 593.648 66.5234C593.685 66.237 593.703 65.9531 593.703 65.6719V64.3984C593.703 64.0964 593.737 63.8099 593.805 63.5391C593.878 63.2682 593.987 63.0156 594.133 62.7812C594.279 62.5469 594.461 62.3385 594.68 62.1562C594.904 61.9688 595.169 61.8099 595.477 61.6797C594.867 61.4193 594.419 61.0469 594.133 60.5625C593.846 60.0781 593.703 59.5339 593.703 58.9297V57.6562C593.703 57.375 593.695 57.0911 593.68 56.8047C593.669 56.513 593.625 56.25 593.547 56.0156C593.469 55.7812 593.344 55.5938 593.172 55.4531C593 55.3073 592.755 55.2396 592.438 55.25L592.703 54.0234C593.068 54.0234 593.393 54.0755 593.68 54.1797C593.971 54.2839 594.227 54.4245 594.445 54.6016C594.664 54.7786 594.852 54.987 595.008 55.2266C595.164 55.4609 595.292 55.7135 595.391 55.9844C595.49 56.2552 595.56 56.5339 595.602 56.8203C595.648 57.1068 595.672 57.3854 595.672 57.6562V58.9297C595.672 59.6328 595.831 60.1354 596.148 60.4375C596.471 60.7396 596.966 60.8906 597.633 60.8906V62.4531C596.966 62.4531 596.471 62.6042 596.148 62.9062C595.831 63.2083 595.672 63.7057 595.672 64.3984V65.6719C595.672 65.9427 595.646 66.2214 595.594 66.5078C595.542 66.7943 595.464 67.0729 595.359 67.3438C595.255 67.6146 595.122 67.8698 594.961 68.1094C594.799 68.349 594.609 68.5573 594.391 68.7344C594.172 68.9115 593.922 69.0521 593.641 69.1562C593.359 69.2604 593.047 69.3125 592.703 69.3125L592.438 68.0781ZM605 66.3281C605 66.625 604.958 66.9297 604.875 67.2422C604.797 67.5547 604.688 67.8568 604.547 68.1484C604.406 68.4401 604.237 68.7161 604.039 68.9766C603.846 69.237 603.638 69.4688 603.414 69.6719L602.266 69.0781C602.365 68.8906 602.456 68.7005 602.539 68.5078C602.628 68.3151 602.703 68.112 602.766 67.8984C602.828 67.6849 602.878 67.4583 602.914 67.2188C602.951 66.9792 602.969 66.7161 602.969 66.4297V64.6016H605.008L605 66.3281ZM366.859 88.3594C366.521 88.349 366.214 88.2917 365.938 88.1875C365.661 88.0833 365.414 87.9427 365.195 87.7656C364.977 87.5885 364.786 87.3828 364.625 87.1484C364.469 86.9141 364.336 86.6615 364.227 86.3906C364.122 86.125 364.044 85.849 363.992 85.5625C363.94 85.2812 363.914 85.0026 363.914 84.7266V83.4062C363.914 82.6562 363.734 82.112 363.375 81.7734C363.021 81.4349 362.477 81.263 361.742 81.2578V80.125C362.477 80.125 363.021 79.9583 363.375 79.625C363.734 79.2865 363.914 78.7396 363.914 77.9844V76.6562C363.914 76.3802 363.938 76.1016 363.984 75.8203C364.031 75.5339 364.104 75.2578 364.203 74.9922C364.302 74.7214 364.427 74.4688 364.578 74.2344C364.734 74 364.922 73.7943 365.141 73.6172C365.359 73.4401 365.609 73.2995 365.891 73.1953C366.177 73.0911 366.5 73.0339 366.859 73.0234L367.023 73.9219C366.648 73.9323 366.349 74.0208 366.125 74.1875C365.906 74.3542 365.74 74.5677 365.625 74.8281C365.516 75.0833 365.445 75.3724 365.414 75.6953C365.383 76.0182 365.367 76.3385 365.367 76.6562V77.9844C365.362 78.6094 365.216 79.1589 364.93 79.6328C364.643 80.1016 364.198 80.4583 363.594 80.7031C364.198 80.9427 364.643 81.2995 364.93 81.7734C365.216 82.2422 365.362 82.7865 365.367 83.4062V84.7266C365.367 85.0495 365.393 85.3698 365.445 85.6875C365.497 86.0104 365.586 86.2995 365.711 86.5547C365.841 86.8151 366.01 87.0286 366.219 87.1953C366.432 87.362 366.701 87.4505 367.023 87.4609L366.859 88.3594ZM381.094 77.0469L381.195 78.2969C381.503 77.8594 381.88 77.5182 382.328 77.2734C382.776 77.0234 383.276 76.8958 383.828 76.8906C384.271 76.8906 384.672 76.9531 385.031 77.0781C385.396 77.2031 385.706 77.3984 385.961 77.6641C386.216 77.9297 386.411 78.2682 386.547 78.6797C386.688 79.0859 386.758 79.5703 386.758 80.1328V85.5H385.312V80.1641C385.312 79.7891 385.271 79.4714 385.188 79.2109C385.104 78.9505 384.979 78.7396 384.812 78.5781C384.651 78.4167 384.451 78.2995 384.211 78.2266C383.977 78.1536 383.706 78.1172 383.398 78.1172C382.914 78.1172 382.487 78.2396 382.117 78.4844C381.753 78.724 381.461 79.0417 381.242 79.4375V85.5H379.797V77.0469H381.094ZM389 81.1953C389 80.5859 389.089 80.0208 389.266 79.5C389.443 78.974 389.695 78.5182 390.023 78.1328C390.357 77.7474 390.76 77.4453 391.234 77.2266C391.708 77.0026 392.242 76.8906 392.836 76.8906C393.435 76.8906 393.971 77.0026 394.445 77.2266C394.924 77.4453 395.328 77.7474 395.656 78.1328C395.99 78.5182 396.245 78.974 396.422 79.5C396.599 80.0208 396.688 80.5859 396.688 81.1953V81.3672C396.688 81.9766 396.599 82.5417 396.422 83.0625C396.245 83.5833 395.99 84.0365 395.656 84.4219C395.328 84.8073 394.927 85.1094 394.453 85.3281C393.979 85.5469 393.445 85.6562 392.852 85.6562C392.253 85.6562 391.714 85.5469 391.234 85.3281C390.76 85.1094 390.357 84.8073 390.023 84.4219C389.695 84.0365 389.443 83.5833 389.266 83.0625C389.089 82.5417 389 81.9766 389 81.3672V81.1953ZM390.445 81.3672C390.445 81.7839 390.495 82.1823 390.594 82.5625C390.693 82.9375 390.841 83.2682 391.039 83.5547C391.242 83.8411 391.495 84.0677 391.797 84.2344C392.099 84.401 392.451 84.4844 392.852 84.4844C393.247 84.4844 393.594 84.401 393.891 84.2344C394.193 84.0677 394.443 83.8411 394.641 83.5547C394.844 83.2682 394.995 82.9375 395.094 82.5625C395.193 82.1823 395.242 81.7839 395.242 81.3672V81.1953C395.242 80.7839 395.19 80.3906 395.086 80.0156C394.987 79.6354 394.836 79.3021 394.633 79.0156C394.435 78.7292 394.185 78.5026 393.883 78.3359C393.586 78.1641 393.237 78.0781 392.836 78.0781C392.435 78.0781 392.086 78.1641 391.789 78.3359C391.492 78.5026 391.242 78.7292 391.039 79.0156C390.841 79.3021 390.693 79.6354 390.594 80.0156C390.495 80.3906 390.445 80.7839 390.445 81.1953V81.3672ZM398.742 81.2031C398.742 80.5729 398.82 79.9948 398.977 79.4688C399.138 78.9375 399.365 78.4818 399.656 78.1016C399.953 77.7214 400.31 77.4245 400.727 77.2109C401.143 76.9974 401.609 76.8906 402.125 76.8906C402.63 76.8906 403.07 76.9766 403.445 77.1484C403.826 77.3151 404.154 77.5599 404.43 77.8828V73.5H405.875V85.5H404.547L404.484 84.6094C404.203 84.9531 403.867 85.2135 403.477 85.3906C403.086 85.5677 402.63 85.6562 402.109 85.6562C401.599 85.6562 401.135 85.5469 400.719 85.3281C400.307 85.1094 399.956 84.8073 399.664 84.4219C399.372 84.0365 399.146 83.5833 398.984 83.0625C398.823 82.5365 398.742 81.9714 398.742 81.3672V81.2031ZM400.188 81.3672C400.188 81.7786 400.232 82.1693 400.32 82.5391C400.409 82.9089 400.544 83.2344 400.727 83.5156C400.914 83.7969 401.151 84.0208 401.438 84.1875C401.724 84.349 402.068 84.4297 402.469 84.4297C402.714 84.4297 402.935 84.401 403.133 84.3438C403.331 84.2865 403.51 84.2057 403.672 84.1016C403.833 83.9922 403.977 83.8646 404.102 83.7188C404.227 83.5677 404.336 83.401 404.43 83.2188V79.2969C404.242 78.9531 403.99 78.6719 403.672 78.4531C403.354 78.2292 402.958 78.1172 402.484 78.1172C402.078 78.1172 401.729 78.2005 401.438 78.3672C401.151 78.5339 400.914 78.7604 400.727 79.0469C400.544 79.3281 400.409 79.6562 400.32 80.0312C400.232 80.401 400.188 80.7917 400.188 81.2031V81.3672ZM412.359 85.6562C411.766 85.6562 411.219 85.5547 410.719 85.3516C410.224 85.1484 409.799 84.8646 409.445 84.5C409.091 84.1354 408.815 83.7031 408.617 83.2031C408.419 82.7031 408.32 82.1589 408.32 81.5703V81.2422C408.32 80.5599 408.43 79.9505 408.648 79.4141C408.867 78.8724 409.156 78.4167 409.516 78.0469C409.88 77.6719 410.292 77.3854 410.75 77.1875C411.214 76.9896 411.688 76.8906 412.172 76.8906C412.781 76.8906 413.312 76.9974 413.766 77.2109C414.224 77.4193 414.604 77.7109 414.906 78.0859C415.208 78.4557 415.432 78.8932 415.578 79.3984C415.729 79.9036 415.805 80.4505 415.805 81.0391V81.6875H409.766C409.781 82.0729 409.854 82.4349 409.984 82.7734C410.12 83.112 410.302 83.4089 410.531 83.6641C410.766 83.9141 411.044 84.112 411.367 84.2578C411.69 84.4036 412.047 84.4766 412.438 84.4766C412.953 84.4766 413.411 84.3724 413.812 84.1641C414.214 83.9557 414.547 83.6797 414.812 83.3359L415.695 84.0234C415.555 84.237 415.378 84.4427 415.164 84.6406C414.956 84.8333 414.714 85.0052 414.438 85.1562C414.161 85.3073 413.849 85.4271 413.5 85.5156C413.151 85.6094 412.771 85.6562 412.359 85.6562ZM412.172 78.0781C411.88 78.0781 411.604 78.1328 411.344 78.2422C411.083 78.3464 410.849 78.5026 410.641 78.7109C410.432 78.9141 410.255 79.1667 410.109 79.4688C409.969 79.7656 409.87 80.1094 409.812 80.5H414.359V80.3906C414.344 80.1094 414.289 79.8307 414.195 79.5547C414.107 79.2786 413.974 79.0312 413.797 78.8125C413.62 78.5938 413.396 78.4167 413.125 78.2812C412.859 78.1458 412.542 78.0781 412.172 78.0781ZM418.234 74.125H425.109V75.3828H422.383V84.25H425.109V85.5H418.234V84.25H420.898V75.3828H418.234V74.125ZM427.57 81.2031C427.57 80.5729 427.648 79.9948 427.805 79.4688C427.966 78.9375 428.193 78.4818 428.484 78.1016C428.781 77.7214 429.138 77.4245 429.555 77.2109C429.971 76.9974 430.438 76.8906 430.953 76.8906C431.458 76.8906 431.898 76.9766 432.273 77.1484C432.654 77.3151 432.982 77.5599 433.258 77.8828V73.5H434.703V85.5H433.375L433.312 84.6094C433.031 84.9531 432.695 85.2135 432.305 85.3906C431.914 85.5677 431.458 85.6562 430.938 85.6562C430.427 85.6562 429.964 85.5469 429.547 85.3281C429.135 85.1094 428.784 84.8073 428.492 84.4219C428.201 84.0365 427.974 83.5833 427.812 83.0625C427.651 82.5365 427.57 81.9714 427.57 81.3672V81.2031ZM429.016 81.3672C429.016 81.7786 429.06 82.1693 429.148 82.5391C429.237 82.9089 429.372 83.2344 429.555 83.5156C429.742 83.7969 429.979 84.0208 430.266 84.1875C430.552 84.349 430.896 84.4297 431.297 84.4297C431.542 84.4297 431.763 84.401 431.961 84.3438C432.159 84.2865 432.339 84.2057 432.5 84.1016C432.661 83.9922 432.805 83.8646 432.93 83.7188C433.055 83.5677 433.164 83.401 433.258 83.2188V79.2969C433.07 78.9531 432.818 78.6719 432.5 78.4531C432.182 78.2292 431.786 78.1172 431.312 78.1172C430.906 78.1172 430.557 78.2005 430.266 78.3672C429.979 78.5339 429.742 78.7604 429.555 79.0469C429.372 79.3281 429.237 79.6562 429.148 80.0312C429.06 80.401 429.016 80.7917 429.016 81.2031V81.3672ZM440.359 84.5625C440.359 84.4062 440.383 84.2604 440.43 84.125C440.482 83.9896 440.555 83.8724 440.648 83.7734C440.742 83.6693 440.859 83.5885 441 83.5312C441.141 83.474 441.305 83.4453 441.492 83.4453C441.68 83.4453 441.844 83.474 441.984 83.5312C442.13 83.5885 442.25 83.6693 442.344 83.7734C442.443 83.8724 442.516 83.9896 442.562 84.125C442.615 84.2604 442.641 84.4062 442.641 84.5625C442.641 84.7135 442.615 84.8568 442.562 84.9922C442.516 85.1224 442.443 85.237 442.344 85.3359C442.25 85.4349 442.13 85.5104 441.984 85.5625C441.844 85.6198 441.68 85.6484 441.492 85.6484C441.305 85.6484 441.141 85.6198 441 85.5625C440.859 85.5104 440.742 85.4349 440.648 85.3359C440.555 85.237 440.482 85.1224 440.43 84.9922C440.383 84.8568 440.359 84.7135 440.359 84.5625ZM440.359 77.7188C440.359 77.5625 440.383 77.4167 440.43 77.2812C440.482 77.1458 440.555 77.0286 440.648 76.9297C440.742 76.8255 440.859 76.7448 441 76.6875C441.141 76.6302 441.305 76.6016 441.492 76.6016C441.68 76.6016 441.844 76.6302 441.984 76.6875C442.13 76.7448 442.25 76.8255 442.344 76.9297C442.443 77.0286 442.516 77.1458 442.562 77.2812C442.615 77.4167 442.641 77.5625 442.641 77.7188C442.641 77.8698 442.615 78.013 442.562 78.1484C442.516 78.2786 442.443 78.3932 442.344 78.4922C442.25 78.5911 442.13 78.6693 441.984 78.7266C441.844 78.7786 441.68 78.8047 441.492 78.8047C441.305 78.8047 441.141 78.7786 441 78.7266C440.859 78.6693 440.742 78.5911 440.648 78.4922C440.555 78.3932 440.482 78.2786 440.43 78.1484C440.383 78.013 440.359 77.8698 440.359 77.7188ZM459.258 74.3516L459.094 77.2422H458.078L458.086 74.4766V73.5H459.258V74.3516ZM462.047 74.3516L461.883 77.2422H460.875L460.883 74.4766V73.5H462.055L462.047 74.3516ZM467.578 77.0469L467.68 78.2969C467.987 77.8594 468.365 77.5182 468.812 77.2734C469.26 77.0234 469.76 76.8958 470.312 76.8906C470.755 76.8906 471.156 76.9531 471.516 77.0781C471.88 77.2031 472.19 77.3984 472.445 77.6641C472.701 77.9297 472.896 78.2682 473.031 78.6797C473.172 79.0859 473.242 79.5703 473.242 80.1328V85.5H471.797V80.1641C471.797 79.7891 471.755 79.4714 471.672 79.2109C471.589 78.9505 471.464 78.7396 471.297 78.5781C471.135 78.4167 470.935 78.2995 470.695 78.2266C470.461 78.1536 470.19 78.1172 469.883 78.1172C469.398 78.1172 468.971 78.2396 468.602 78.4844C468.237 78.724 467.945 79.0417 467.727 79.4375V85.5H466.281V77.0469H467.578ZM476.406 79.7969L476.977 74.125H482.812V75.5312H478.195L477.875 78.5625C478.099 78.4323 478.367 78.3177 478.68 78.2188C478.992 78.1198 479.354 78.0703 479.766 78.0703C480.292 78.0703 480.763 78.1615 481.18 78.3438C481.596 78.526 481.951 78.7839 482.242 79.1172C482.534 79.4453 482.758 79.8438 482.914 80.3125C483.07 80.7812 483.148 81.3021 483.148 81.875C483.148 82.4167 483.076 82.9193 482.93 83.3828C482.784 83.8464 482.562 84.2474 482.266 84.5859C481.974 84.9193 481.604 85.1823 481.156 85.375C480.708 85.5625 480.182 85.6562 479.578 85.6562C479.115 85.6562 478.677 85.5911 478.266 85.4609C477.854 85.3307 477.487 85.1354 477.164 84.875C476.846 84.6146 476.583 84.2865 476.375 83.8906C476.172 83.4948 476.044 83.0339 475.992 82.5078H477.367C477.456 83.1536 477.693 83.6432 478.078 83.9766C478.469 84.3099 478.969 84.4766 479.578 84.4766C479.922 84.4766 480.227 84.4167 480.492 84.2969C480.758 84.1719 480.979 83.9974 481.156 83.7734C481.339 83.5443 481.474 83.2708 481.562 82.9531C481.656 82.6354 481.703 82.2812 481.703 81.8906C481.703 81.5365 481.651 81.2057 481.547 80.8984C481.448 80.5911 481.302 80.3255 481.109 80.1016C480.917 79.8724 480.68 79.6927 480.398 79.5625C480.117 79.4323 479.794 79.3672 479.43 79.3672C479.19 79.3672 478.982 79.3854 478.805 79.4219C478.633 79.4531 478.477 79.5 478.336 79.5625C478.195 79.625 478.062 79.7005 477.938 79.7891C477.818 79.8776 477.693 79.9792 477.562 80.0938L476.406 79.7969ZM488.086 74.3516L487.922 77.2422H486.906L486.914 74.4766V73.5H488.086V74.3516ZM490.875 74.3516L490.711 77.2422H489.703L489.711 74.4766V73.5H490.883L490.875 74.3516ZM498.773 85.1641C498.773 85.4089 498.742 85.6641 498.68 85.9297C498.622 86.2005 498.534 86.4661 498.414 86.7266C498.299 86.9922 498.159 87.2448 497.992 87.4844C497.826 87.724 497.633 87.9375 497.414 88.125L496.516 87.6328C496.766 87.2682 496.943 86.8802 497.047 86.4688C497.151 86.0573 497.203 85.6302 497.203 85.1875V83.7891H498.773V85.1641ZM517.75 75V77.0469H520.969V78.1641H517.75V82.7578C517.75 83.0859 517.792 83.3568 517.875 83.5703C517.958 83.7839 518.073 83.9557 518.219 84.0859C518.365 84.2109 518.531 84.2995 518.719 84.3516C518.911 84.4036 519.115 84.4297 519.328 84.4297C519.484 84.4297 519.646 84.4219 519.812 84.4062C519.979 84.3854 520.141 84.362 520.297 84.3359C520.458 84.3099 520.607 84.2839 520.742 84.2578C520.883 84.2266 520.997 84.2005 521.086 84.1797L521.289 85.2031C521.169 85.276 521.023 85.3411 520.852 85.3984C520.68 85.4505 520.492 85.4948 520.289 85.5312C520.086 85.5729 519.87 85.6042 519.641 85.625C519.417 85.6458 519.193 85.6562 518.969 85.6562C518.594 85.6562 518.242 85.6042 517.914 85.5C517.591 85.3906 517.31 85.2214 517.07 84.9922C516.831 84.7578 516.641 84.4583 516.5 84.0938C516.365 83.724 516.297 83.2786 516.297 82.7578V78.1641H514.078V77.0469H516.297V75H517.75ZM526.844 84.5625C526.844 84.4062 526.867 84.2604 526.914 84.125C526.966 83.9896 527.039 83.8724 527.133 83.7734C527.227 83.6693 527.344 83.5885 527.484 83.5312C527.625 83.474 527.789 83.4453 527.977 83.4453C528.164 83.4453 528.328 83.474 528.469 83.5312C528.615 83.5885 528.734 83.6693 528.828 83.7734C528.927 83.8724 529 83.9896 529.047 84.125C529.099 84.2604 529.125 84.4062 529.125 84.5625C529.125 84.7135 529.099 84.8568 529.047 84.9922C529 85.1224 528.927 85.237 528.828 85.3359C528.734 85.4349 528.615 85.5104 528.469 85.5625C528.328 85.6198 528.164 85.6484 527.977 85.6484C527.789 85.6484 527.625 85.6198 527.484 85.5625C527.344 85.5104 527.227 85.4349 527.133 85.3359C527.039 85.237 526.966 85.1224 526.914 84.9922C526.867 84.8568 526.844 84.7135 526.844 84.5625ZM526.844 77.7188C526.844 77.5625 526.867 77.4167 526.914 77.2812C526.966 77.1458 527.039 77.0286 527.133 76.9297C527.227 76.8255 527.344 76.7448 527.484 76.6875C527.625 76.6302 527.789 76.6016 527.977 76.6016C528.164 76.6016 528.328 76.6302 528.469 76.6875C528.615 76.7448 528.734 76.8255 528.828 76.9297C528.927 77.0286 529 77.1458 529.047 77.2812C529.099 77.4167 529.125 77.5625 529.125 77.7188C529.125 77.8698 529.099 78.013 529.047 78.1484C529 78.2786 528.927 78.3932 528.828 78.4922C528.734 78.5911 528.615 78.6693 528.469 78.7266C528.328 78.7786 528.164 78.8047 527.977 78.8047C527.789 78.8047 527.625 78.7786 527.484 78.7266C527.344 78.6693 527.227 78.5911 527.133 78.4922C527.039 78.3932 526.966 78.2786 526.914 78.1484C526.867 78.013 526.844 77.8698 526.844 77.7188ZM550.297 81.1484C550.297 81.8724 550.214 82.5156 550.047 83.0781C549.88 83.6354 549.641 84.1068 549.328 84.4922C549.016 84.8724 548.633 85.1615 548.18 85.3594C547.727 85.5573 547.208 85.6562 546.625 85.6562C546.047 85.6562 545.529 85.5573 545.07 85.3594C544.617 85.1615 544.232 84.8724 543.914 84.4922C543.596 84.1068 543.352 83.6354 543.18 83.0781C543.013 82.5156 542.93 81.8724 542.93 81.1484V78.4844C542.93 77.7604 543.013 77.1198 543.18 76.5625C543.346 76 543.586 75.526 543.898 75.1406C544.216 74.7552 544.602 74.4635 545.055 74.2656C545.513 74.0625 546.031 73.9609 546.609 73.9609C547.193 73.9609 547.711 74.0625 548.164 74.2656C548.622 74.4635 549.008 74.7552 549.32 75.1406C549.638 75.526 549.88 76 550.047 76.5625C550.214 77.1198 550.297 77.7604 550.297 78.4844V81.1484ZM544.383 80.8594L548.812 77.4609C548.729 76.7057 548.508 76.1328 548.148 75.7422C547.794 75.3464 547.281 75.1484 546.609 75.1484C545.849 75.1484 545.286 75.4062 544.922 75.9219C544.562 76.4323 544.383 77.1797 544.383 78.1641V80.8594ZM548.844 78.8438L544.422 82.2266C544.51 82.9609 544.737 83.5208 545.102 83.9062C545.466 84.2917 545.974 84.4844 546.625 84.4844C547.391 84.4844 547.951 84.224 548.305 83.7031C548.664 83.1823 548.844 82.4323 548.844 81.4531V78.8438ZM555.281 84.5625C555.281 84.4062 555.305 84.2604 555.352 84.125C555.404 83.9896 555.477 83.8724 555.57 83.7734C555.664 83.6693 555.781 83.5885 555.922 83.5312C556.062 83.474 556.227 83.4453 556.414 83.4453C556.602 83.4453 556.766 83.474 556.906 83.5312C557.052 83.5885 557.172 83.6693 557.266 83.7734C557.365 83.8724 557.438 83.9896 557.484 84.125C557.536 84.2604 557.562 84.4062 557.562 84.5625C557.562 84.7135 557.536 84.8568 557.484 84.9922C557.438 85.1224 557.365 85.237 557.266 85.3359C557.172 85.4349 557.052 85.5104 556.906 85.5625C556.766 85.6198 556.602 85.6484 556.414 85.6484C556.227 85.6484 556.062 85.6198 555.922 85.5625C555.781 85.5104 555.664 85.4349 555.57 85.3359C555.477 85.237 555.404 85.1224 555.352 84.9922C555.305 84.8568 555.281 84.7135 555.281 84.5625ZM569.578 74.9375L564.867 85.5H563.352L568.047 75.3906H561.891V74.125H569.578V74.9375ZM572.5 79.7969L573.07 74.125H578.906V75.5312H574.289L573.969 78.5625C574.193 78.4323 574.461 78.3177 574.773 78.2188C575.086 78.1198 575.448 78.0703 575.859 78.0703C576.385 78.0703 576.857 78.1615 577.273 78.3438C577.69 78.526 578.044 78.7839 578.336 79.1172C578.628 79.4453 578.852 79.8438 579.008 80.3125C579.164 80.7812 579.242 81.3021 579.242 81.875C579.242 82.4167 579.169 82.9193 579.023 83.3828C578.878 83.8464 578.656 84.2474 578.359 84.5859C578.068 84.9193 577.698 85.1823 577.25 85.375C576.802 85.5625 576.276 85.6562 575.672 85.6562C575.208 85.6562 574.771 85.5911 574.359 85.4609C573.948 85.3307 573.581 85.1354 573.258 84.875C572.94 84.6146 572.677 84.2865 572.469 83.8906C572.266 83.4948 572.138 83.0339 572.086 82.5078H573.461C573.549 83.1536 573.786 83.6432 574.172 83.9766C574.562 84.3099 575.062 84.4766 575.672 84.4766C576.016 84.4766 576.32 84.4167 576.586 84.2969C576.852 84.1719 577.073 83.9974 577.25 83.7734C577.432 83.5443 577.568 83.2708 577.656 82.9531C577.75 82.6354 577.797 82.2812 577.797 81.8906C577.797 81.5365 577.745 81.2057 577.641 80.8984C577.542 80.5911 577.396 80.3255 577.203 80.1016C577.01 79.8724 576.773 79.6927 576.492 79.5625C576.211 79.4323 575.888 79.3672 575.523 79.3672C575.284 79.3672 575.076 79.3854 574.898 79.4219C574.727 79.4531 574.57 79.5 574.43 79.5625C574.289 79.625 574.156 79.7005 574.031 79.7891C573.911 79.8776 573.786 79.9792 573.656 80.0938L572.5 79.7969ZM592.367 87.4609C592.685 87.4505 592.951 87.362 593.164 87.1953C593.378 87.0286 593.547 86.8151 593.672 86.5547C593.802 86.2995 593.893 86.0104 593.945 85.6875C594.003 85.3698 594.031 85.0495 594.031 84.7266V83.4062C594.031 82.7865 594.174 82.2422 594.461 81.7734C594.747 81.2995 595.193 80.9427 595.797 80.7031C595.193 80.4583 594.747 80.1016 594.461 79.6328C594.174 79.1589 594.031 78.6094 594.031 77.9844V76.6562C594.031 76.3385 594.013 76.0182 593.977 75.6953C593.945 75.3724 593.872 75.0833 593.758 74.8281C593.648 74.5677 593.484 74.3542 593.266 74.1875C593.047 74.0208 592.75 73.9323 592.375 73.9219L592.531 73.0234C592.891 73.0339 593.211 73.0911 593.492 73.1953C593.779 73.2995 594.031 73.4401 594.25 73.6172C594.469 73.7943 594.654 74 594.805 74.2344C594.961 74.4688 595.089 74.7214 595.188 74.9922C595.286 75.2578 595.359 75.5339 595.406 75.8203C595.453 76.1016 595.477 76.3802 595.477 76.6562V77.9844C595.477 78.7396 595.656 79.2865 596.016 79.625C596.375 79.9583 596.919 80.125 597.648 80.125V81.2578C596.919 81.263 596.375 81.4349 596.016 81.7734C595.656 82.112 595.477 82.6562 595.477 83.4062V84.7266C595.477 85.1432 595.419 85.5625 595.305 85.9844C595.19 86.4115 595.01 86.7995 594.766 87.1484C594.526 87.4974 594.221 87.7839 593.852 88.0078C593.482 88.2318 593.042 88.349 592.531 88.3594L592.367 87.4609ZM604.477 85.1641C604.477 85.4089 604.445 85.6641 604.383 85.9297C604.326 86.2005 604.237 86.4661 604.117 86.7266C604.003 86.9922 603.862 87.2448 603.695 87.4844C603.529 87.724 603.336 87.9375 603.117 88.125L602.219 87.6328C602.469 87.2682 602.646 86.8802 602.75 86.4688C602.854 86.0573 602.906 85.6302 602.906 85.1875V83.7891H604.477V85.1641ZM343.164 91.5H346.266V106.938H343.164V105.75H344.898V92.6875H343.164V91.5Z" fill="#D9EBFF"/>
</svg>
