<svg width="700" height="136" viewBox="0 0 700 136" fill="none" xmlns="http://www.w3.org/2000/svg">
<rect width="700" height="135" transform="translate(0 0.5)" fill="#0A0D12"/>
<path d="M349.094 47.6562C348.5 47.6562 347.953 47.5547 347.453 47.3516C346.958 47.1484 346.534 46.8646 346.18 46.5C345.826 46.1354 345.549 45.7031 345.352 45.2031C345.154 44.7031 345.055 44.1589 345.055 43.5703V43.2422C345.055 42.5599 345.164 41.9505 345.383 41.4141C345.602 40.8724 345.891 40.4167 346.25 40.0469C346.615 39.6719 347.026 39.3854 347.484 39.1875C347.948 38.9896 348.422 38.8906 348.906 38.8906C349.516 38.8906 350.047 38.9974 350.5 39.2109C350.958 39.4193 351.339 39.7109 351.641 40.0859C351.943 40.4557 352.167 40.8932 352.312 41.3984C352.464 41.9036 352.539 42.4505 352.539 43.0391V43.6875H346.5C346.516 44.0729 346.589 44.4349 346.719 44.7734C346.854 45.112 347.036 45.4089 347.266 45.6641C347.5 45.9141 347.779 46.112 348.102 46.2578C348.424 46.4036 348.781 46.4766 349.172 46.4766C349.688 46.4766 350.146 46.3724 350.547 46.1641C350.948 45.9557 351.281 45.6797 351.547 45.3359L352.43 46.0234C352.289 46.237 352.112 46.4427 351.898 46.6406C351.69 46.8333 351.448 47.0052 351.172 47.1562C350.896 47.3073 350.583 47.4271 350.234 47.5156C349.885 47.6094 349.505 47.6562 349.094 47.6562ZM348.906 40.0781C348.615 40.0781 348.339 40.1328 348.078 40.2422C347.818 40.3464 347.583 40.5026 347.375 40.7109C347.167 40.9141 346.99 41.1667 346.844 41.4688C346.703 41.7656 346.604 42.1094 346.547 42.5H351.094V42.3906C351.078 42.1094 351.023 41.8307 350.93 41.5547C350.841 41.2786 350.708 41.0312 350.531 40.8125C350.354 40.5938 350.13 40.4167 349.859 40.2812C349.594 40.1458 349.276 40.0781 348.906 40.0781ZM359.656 47.5H358.211V37.9688L355.234 39.1016V37.7812L359.539 36.125H359.656V47.5ZM367.484 46.5625C367.484 46.4062 367.508 46.2604 367.555 46.125C367.607 45.9896 367.68 45.8724 367.773 45.7734C367.867 45.6693 367.984 45.5885 368.125 45.5312C368.266 45.474 368.43 45.4453 368.617 45.4453C368.805 45.4453 368.969 45.474 369.109 45.5312C369.255 45.5885 369.375 45.6693 369.469 45.7734C369.568 45.8724 369.641 45.9896 369.688 46.125C369.74 46.2604 369.766 46.4062 369.766 46.5625C369.766 46.7135 369.74 46.8568 369.688 46.9922C369.641 47.1224 369.568 47.237 369.469 47.3359C369.375 47.4349 369.255 47.5104 369.109 47.5625C368.969 47.6198 368.805 47.6484 368.617 47.6484C368.43 47.6484 368.266 47.6198 368.125 47.5625C367.984 47.5104 367.867 47.4349 367.773 47.3359C367.68 47.237 367.607 47.1224 367.555 46.9922C367.508 46.8568 367.484 46.7135 367.484 46.5625ZM367.484 39.7188C367.484 39.5625 367.508 39.4167 367.555 39.2812C367.607 39.1458 367.68 39.0286 367.773 38.9297C367.867 38.8255 367.984 38.7448 368.125 38.6875C368.266 38.6302 368.43 38.6016 368.617 38.6016C368.805 38.6016 368.969 38.6302 369.109 38.6875C369.255 38.7448 369.375 38.8255 369.469 38.9297C369.568 39.0286 369.641 39.1458 369.688 39.2812C369.74 39.4167 369.766 39.5625 369.766 39.7188C369.766 39.8698 369.74 40.013 369.688 40.1484C369.641 40.2786 369.568 40.3932 369.469 40.4922C369.375 40.5911 369.255 40.6693 369.109 40.7266C368.969 40.7786 368.805 40.8047 368.617 40.8047C368.43 40.8047 368.266 40.7786 368.125 40.7266C367.984 40.6693 367.867 40.5911 367.773 40.4922C367.68 40.3932 367.607 40.2786 367.555 40.1484C367.508 40.013 367.484 39.8698 367.484 39.7188ZM388.859 35.6875H387.133V48.75H388.859V49.9375H385.766V34.5H388.859V35.6875ZM370.859 69.3594C370.521 69.349 370.214 69.2917 369.938 69.1875C369.661 69.0833 369.414 68.9427 369.195 68.7656C368.977 68.5885 368.786 68.3828 368.625 68.1484C368.469 67.9141 368.336 67.6615 368.227 67.3906C368.122 67.125 368.044 66.849 367.992 66.5625C367.94 66.2812 367.914 66.0026 367.914 65.7266V64.4062C367.914 63.6562 367.734 63.112 367.375 62.7734C367.021 62.4349 366.477 62.263 365.742 62.2578V61.125C366.477 61.125 367.021 60.9583 367.375 60.625C367.734 60.2865 367.914 59.7396 367.914 58.9844V57.6562C367.914 57.3802 367.938 57.1016 367.984 56.8203C368.031 56.5339 368.104 56.2578 368.203 55.9922C368.302 55.7214 368.427 55.4688 368.578 55.2344C368.734 55 368.922 54.7943 369.141 54.6172C369.359 54.4401 369.609 54.2995 369.891 54.1953C370.177 54.0911 370.5 54.0339 370.859 54.0234L371.023 54.9219C370.648 54.9323 370.349 55.0208 370.125 55.1875C369.906 55.3542 369.74 55.5677 369.625 55.8281C369.516 56.0833 369.445 56.3724 369.414 56.6953C369.383 57.0182 369.367 57.3385 369.367 57.6562V58.9844C369.362 59.6094 369.216 60.1589 368.93 60.6328C368.643 61.1016 368.198 61.4583 367.594 61.7031C368.198 61.9427 368.643 62.2995 368.93 62.7734C369.216 63.2422 369.362 63.7865 369.367 64.4062V65.7266C369.367 66.0495 369.393 66.3698 369.445 66.6875C369.497 67.0104 369.586 67.2995 369.711 67.5547C369.841 67.8151 370.01 68.0286 370.219 68.1953C370.432 68.362 370.701 68.4505 371.023 68.4609L370.859 69.3594ZM385.094 58.0469L385.195 59.2969C385.503 58.8594 385.88 58.5182 386.328 58.2734C386.776 58.0234 387.276 57.8958 387.828 57.8906C388.271 57.8906 388.672 57.9531 389.031 58.0781C389.396 58.2031 389.706 58.3984 389.961 58.6641C390.216 58.9297 390.411 59.2682 390.547 59.6797C390.688 60.0859 390.758 60.5703 390.758 61.1328V66.5H389.312V61.1641C389.312 60.7891 389.271 60.4714 389.188 60.2109C389.104 59.9505 388.979 59.7396 388.812 59.5781C388.651 59.4167 388.451 59.2995 388.211 59.2266C387.977 59.1536 387.706 59.1172 387.398 59.1172C386.914 59.1172 386.487 59.2396 386.117 59.4844C385.753 59.724 385.461 60.0417 385.242 60.4375V66.5H383.797V58.0469H385.094ZM393 62.1953C393 61.5859 393.089 61.0208 393.266 60.5C393.443 59.974 393.695 59.5182 394.023 59.1328C394.357 58.7474 394.76 58.4453 395.234 58.2266C395.708 58.0026 396.242 57.8906 396.836 57.8906C397.435 57.8906 397.971 58.0026 398.445 58.2266C398.924 58.4453 399.328 58.7474 399.656 59.1328C399.99 59.5182 400.245 59.974 400.422 60.5C400.599 61.0208 400.688 61.5859 400.688 62.1953V62.3672C400.688 62.9766 400.599 63.5417 400.422 64.0625C400.245 64.5833 399.99 65.0365 399.656 65.4219C399.328 65.8073 398.927 66.1094 398.453 66.3281C397.979 66.5469 397.445 66.6562 396.852 66.6562C396.253 66.6562 395.714 66.5469 395.234 66.3281C394.76 66.1094 394.357 65.8073 394.023 65.4219C393.695 65.0365 393.443 64.5833 393.266 64.0625C393.089 63.5417 393 62.9766 393 62.3672V62.1953ZM394.445 62.3672C394.445 62.7839 394.495 63.1823 394.594 63.5625C394.693 63.9375 394.841 64.2682 395.039 64.5547C395.242 64.8411 395.495 65.0677 395.797 65.2344C396.099 65.401 396.451 65.4844 396.852 65.4844C397.247 65.4844 397.594 65.401 397.891 65.2344C398.193 65.0677 398.443 64.8411 398.641 64.5547C398.844 64.2682 398.995 63.9375 399.094 63.5625C399.193 63.1823 399.242 62.7839 399.242 62.3672V62.1953C399.242 61.7839 399.19 61.3906 399.086 61.0156C398.987 60.6354 398.836 60.3021 398.633 60.0156C398.435 59.7292 398.185 59.5026 397.883 59.3359C397.586 59.1641 397.237 59.0781 396.836 59.0781C396.435 59.0781 396.086 59.1641 395.789 59.3359C395.492 59.5026 395.242 59.7292 395.039 60.0156C394.841 60.3021 394.693 60.6354 394.594 61.0156C394.495 61.3906 394.445 61.7839 394.445 62.1953V62.3672ZM402.742 62.2031C402.742 61.5729 402.82 60.9948 402.977 60.4688C403.138 59.9375 403.365 59.4818 403.656 59.1016C403.953 58.7214 404.31 58.4245 404.727 58.2109C405.143 57.9974 405.609 57.8906 406.125 57.8906C406.63 57.8906 407.07 57.9766 407.445 58.1484C407.826 58.3151 408.154 58.5599 408.43 58.8828V54.5H409.875V66.5H408.547L408.484 65.6094C408.203 65.9531 407.867 66.2135 407.477 66.3906C407.086 66.5677 406.63 66.6562 406.109 66.6562C405.599 66.6562 405.135 66.5469 404.719 66.3281C404.307 66.1094 403.956 65.8073 403.664 65.4219C403.372 65.0365 403.146 64.5833 402.984 64.0625C402.823 63.5365 402.742 62.9714 402.742 62.3672V62.2031ZM404.188 62.3672C404.188 62.7786 404.232 63.1693 404.32 63.5391C404.409 63.9089 404.544 64.2344 404.727 64.5156C404.914 64.7969 405.151 65.0208 405.438 65.1875C405.724 65.349 406.068 65.4297 406.469 65.4297C406.714 65.4297 406.935 65.401 407.133 65.3438C407.331 65.2865 407.51 65.2057 407.672 65.1016C407.833 64.9922 407.977 64.8646 408.102 64.7188C408.227 64.5677 408.336 64.401 408.43 64.2188V60.2969C408.242 59.9531 407.99 59.6719 407.672 59.4531C407.354 59.2292 406.958 59.1172 406.484 59.1172C406.078 59.1172 405.729 59.2005 405.438 59.3672C405.151 59.5339 404.914 59.7604 404.727 60.0469C404.544 60.3281 404.409 60.6562 404.32 61.0312C404.232 61.401 404.188 61.7917 404.188 62.2031V62.3672ZM416.359 66.6562C415.766 66.6562 415.219 66.5547 414.719 66.3516C414.224 66.1484 413.799 65.8646 413.445 65.5C413.091 65.1354 412.815 64.7031 412.617 64.2031C412.419 63.7031 412.32 63.1589 412.32 62.5703V62.2422C412.32 61.5599 412.43 60.9505 412.648 60.4141C412.867 59.8724 413.156 59.4167 413.516 59.0469C413.88 58.6719 414.292 58.3854 414.75 58.1875C415.214 57.9896 415.688 57.8906 416.172 57.8906C416.781 57.8906 417.312 57.9974 417.766 58.2109C418.224 58.4193 418.604 58.7109 418.906 59.0859C419.208 59.4557 419.432 59.8932 419.578 60.3984C419.729 60.9036 419.805 61.4505 419.805 62.0391V62.6875H413.766C413.781 63.0729 413.854 63.4349 413.984 63.7734C414.12 64.112 414.302 64.4089 414.531 64.6641C414.766 64.9141 415.044 65.112 415.367 65.2578C415.69 65.4036 416.047 65.4766 416.438 65.4766C416.953 65.4766 417.411 65.3724 417.812 65.1641C418.214 64.9557 418.547 64.6797 418.812 64.3359L419.695 65.0234C419.555 65.237 419.378 65.4427 419.164 65.6406C418.956 65.8333 418.714 66.0052 418.438 66.1562C418.161 66.3073 417.849 66.4271 417.5 66.5156C417.151 66.6094 416.771 66.6562 416.359 66.6562ZM416.172 59.0781C415.88 59.0781 415.604 59.1328 415.344 59.2422C415.083 59.3464 414.849 59.5026 414.641 59.7109C414.432 59.9141 414.255 60.1667 414.109 60.4688C413.969 60.7656 413.87 61.1094 413.812 61.5H418.359V61.3906C418.344 61.1094 418.289 60.8307 418.195 60.5547C418.107 60.2786 417.974 60.0312 417.797 59.8125C417.62 59.5938 417.396 59.4167 417.125 59.2812C416.859 59.1458 416.542 59.0781 416.172 59.0781ZM422.234 55.125H429.109V56.3828H426.383V65.25H429.109V66.5H422.234V65.25H424.898V56.3828H422.234V55.125ZM431.57 62.2031C431.57 61.5729 431.648 60.9948 431.805 60.4688C431.966 59.9375 432.193 59.4818 432.484 59.1016C432.781 58.7214 433.138 58.4245 433.555 58.2109C433.971 57.9974 434.438 57.8906 434.953 57.8906C435.458 57.8906 435.898 57.9766 436.273 58.1484C436.654 58.3151 436.982 58.5599 437.258 58.8828V54.5H438.703V66.5H437.375L437.312 65.6094C437.031 65.9531 436.695 66.2135 436.305 66.3906C435.914 66.5677 435.458 66.6562 434.938 66.6562C434.427 66.6562 433.964 66.5469 433.547 66.3281C433.135 66.1094 432.784 65.8073 432.492 65.4219C432.201 65.0365 431.974 64.5833 431.812 64.0625C431.651 63.5365 431.57 62.9714 431.57 62.3672V62.2031ZM433.016 62.3672C433.016 62.7786 433.06 63.1693 433.148 63.5391C433.237 63.9089 433.372 64.2344 433.555 64.5156C433.742 64.7969 433.979 65.0208 434.266 65.1875C434.552 65.349 434.896 65.4297 435.297 65.4297C435.542 65.4297 435.763 65.401 435.961 65.3438C436.159 65.2865 436.339 65.2057 436.5 65.1016C436.661 64.9922 436.805 64.8646 436.93 64.7188C437.055 64.5677 437.164 64.401 437.258 64.2188V60.2969C437.07 59.9531 436.818 59.6719 436.5 59.4531C436.182 59.2292 435.786 59.1172 435.312 59.1172C434.906 59.1172 434.557 59.2005 434.266 59.3672C433.979 59.5339 433.742 59.7604 433.555 60.0469C433.372 60.3281 433.237 60.6562 433.148 61.0312C433.06 61.401 433.016 61.7917 433.016 62.2031V62.3672ZM444.359 65.5625C444.359 65.4062 444.383 65.2604 444.43 65.125C444.482 64.9896 444.555 64.8724 444.648 64.7734C444.742 64.6693 444.859 64.5885 445 64.5312C445.141 64.474 445.305 64.4453 445.492 64.4453C445.68 64.4453 445.844 64.474 445.984 64.5312C446.13 64.5885 446.25 64.6693 446.344 64.7734C446.443 64.8724 446.516 64.9896 446.562 65.125C446.615 65.2604 446.641 65.4062 446.641 65.5625C446.641 65.7135 446.615 65.8568 446.562 65.9922C446.516 66.1224 446.443 66.237 446.344 66.3359C446.25 66.4349 446.13 66.5104 445.984 66.5625C445.844 66.6198 445.68 66.6484 445.492 66.6484C445.305 66.6484 445.141 66.6198 445 66.5625C444.859 66.5104 444.742 66.4349 444.648 66.3359C444.555 66.237 444.482 66.1224 444.43 65.9922C444.383 65.8568 444.359 65.7135 444.359 65.5625ZM444.359 58.7188C444.359 58.5625 444.383 58.4167 444.43 58.2812C444.482 58.1458 444.555 58.0286 444.648 57.9297C444.742 57.8255 444.859 57.7448 445 57.6875C445.141 57.6302 445.305 57.6016 445.492 57.6016C445.68 57.6016 445.844 57.6302 445.984 57.6875C446.13 57.7448 446.25 57.8255 446.344 57.9297C446.443 58.0286 446.516 58.1458 446.562 58.2812C446.615 58.4167 446.641 58.5625 446.641 58.7188C446.641 58.8698 446.615 59.013 446.562 59.1484C446.516 59.2786 446.443 59.3932 446.344 59.4922C446.25 59.5911 446.13 59.6693 445.984 59.7266C445.844 59.7786 445.68 59.8047 445.492 59.8047C445.305 59.8047 445.141 59.7786 445 59.7266C444.859 59.6693 444.742 59.5911 444.648 59.4922C444.555 59.3932 444.482 59.2786 444.43 59.1484C444.383 59.013 444.359 58.8698 444.359 58.7188ZM463.258 55.3516L463.094 58.2422H462.078L462.086 55.4766V54.5H463.258V55.3516ZM466.047 55.3516L465.883 58.2422H464.875L464.883 55.4766V54.5H466.055L466.047 55.3516ZM471.578 58.0469L471.68 59.2969C471.987 58.8594 472.365 58.5182 472.812 58.2734C473.26 58.0234 473.76 57.8958 474.312 57.8906C474.755 57.8906 475.156 57.9531 475.516 58.0781C475.88 58.2031 476.19 58.3984 476.445 58.6641C476.701 58.9297 476.896 59.2682 477.031 59.6797C477.172 60.0859 477.242 60.5703 477.242 61.1328V66.5H475.797V61.1641C475.797 60.7891 475.755 60.4714 475.672 60.2109C475.589 59.9505 475.464 59.7396 475.297 59.5781C475.135 59.4167 474.935 59.2995 474.695 59.2266C474.461 59.1536 474.19 59.1172 473.883 59.1172C473.398 59.1172 472.971 59.2396 472.602 59.4844C472.237 59.724 471.945 60.0417 471.727 60.4375V66.5H470.281V58.0469H471.578ZM485.75 62.6797H487.336V63.8594H485.75V66.5H484.305V63.8594H479.117V63.0078L484.211 55.125H485.75V62.6797ZM480.719 62.6797H484.305V57.0469L484.07 57.4844L480.719 62.6797ZM492.086 55.3516L491.922 58.2422H490.906L490.914 55.4766V54.5H492.086V55.3516ZM494.875 55.3516L494.711 58.2422H493.703L493.711 55.4766V54.5H494.883L494.875 55.3516ZM502.773 66.1641C502.773 66.4089 502.742 66.6641 502.68 66.9297C502.622 67.2005 502.534 67.4661 502.414 67.7266C502.299 67.9922 502.159 68.2448 501.992 68.4844C501.826 68.724 501.633 68.9375 501.414 69.125L500.516 68.6328C500.766 68.2682 500.943 67.8802 501.047 67.4688C501.151 67.0573 501.203 66.6302 501.203 66.1875V64.7891H502.773V66.1641ZM521.75 56V58.0469H524.969V59.1641H521.75V63.7578C521.75 64.0859 521.792 64.3568 521.875 64.5703C521.958 64.7839 522.073 64.9557 522.219 65.0859C522.365 65.2109 522.531 65.2995 522.719 65.3516C522.911 65.4036 523.115 65.4297 523.328 65.4297C523.484 65.4297 523.646 65.4219 523.812 65.4062C523.979 65.3854 524.141 65.362 524.297 65.3359C524.458 65.3099 524.607 65.2839 524.742 65.2578C524.883 65.2266 524.997 65.2005 525.086 65.1797L525.289 66.2031C525.169 66.276 525.023 66.3411 524.852 66.3984C524.68 66.4505 524.492 66.4948 524.289 66.5312C524.086 66.5729 523.87 66.6042 523.641 66.625C523.417 66.6458 523.193 66.6562 522.969 66.6562C522.594 66.6562 522.242 66.6042 521.914 66.5C521.591 66.3906 521.31 66.2214 521.07 65.9922C520.831 65.7578 520.641 65.4583 520.5 65.0938C520.365 64.724 520.297 64.2786 520.297 63.7578V59.1641H518.078V58.0469H520.297V56H521.75ZM530.844 65.5625C530.844 65.4062 530.867 65.2604 530.914 65.125C530.966 64.9896 531.039 64.8724 531.133 64.7734C531.227 64.6693 531.344 64.5885 531.484 64.5312C531.625 64.474 531.789 64.4453 531.977 64.4453C532.164 64.4453 532.328 64.474 532.469 64.5312C532.615 64.5885 532.734 64.6693 532.828 64.7734C532.927 64.8724 533 64.9896 533.047 65.125C533.099 65.2604 533.125 65.4062 533.125 65.5625C533.125 65.7135 533.099 65.8568 533.047 65.9922C533 66.1224 532.927 66.237 532.828 66.3359C532.734 66.4349 532.615 66.5104 532.469 66.5625C532.328 66.6198 532.164 66.6484 531.977 66.6484C531.789 66.6484 531.625 66.6198 531.484 66.5625C531.344 66.5104 531.227 66.4349 531.133 66.3359C531.039 66.237 530.966 66.1224 530.914 65.9922C530.867 65.8568 530.844 65.7135 530.844 65.5625ZM530.844 58.7188C530.844 58.5625 530.867 58.4167 530.914 58.2812C530.966 58.1458 531.039 58.0286 531.133 57.9297C531.227 57.8255 531.344 57.7448 531.484 57.6875C531.625 57.6302 531.789 57.6016 531.977 57.6016C532.164 57.6016 532.328 57.6302 532.469 57.6875C532.615 57.7448 532.734 57.8255 532.828 57.9297C532.927 58.0286 533 58.1458 533.047 58.2812C533.099 58.4167 533.125 58.5625 533.125 58.7188C533.125 58.8698 533.099 59.013 533.047 59.1484C533 59.2786 532.927 59.3932 532.828 59.4922C532.734 59.5911 532.615 59.6693 532.469 59.7266C532.328 59.7786 532.164 59.8047 531.977 59.8047C531.789 59.8047 531.625 59.7786 531.484 59.7266C531.344 59.6693 531.227 59.5911 531.133 59.4922C531.039 59.3932 530.966 59.2786 530.914 59.1484C530.867 59.013 530.844 58.8698 530.844 58.7188ZM554.297 62.1484C554.297 62.8724 554.214 63.5156 554.047 64.0781C553.88 64.6354 553.641 65.1068 553.328 65.4922C553.016 65.8724 552.633 66.1615 552.18 66.3594C551.727 66.5573 551.208 66.6562 550.625 66.6562C550.047 66.6562 549.529 66.5573 549.07 66.3594C548.617 66.1615 548.232 65.8724 547.914 65.4922C547.596 65.1068 547.352 64.6354 547.18 64.0781C547.013 63.5156 546.93 62.8724 546.93 62.1484V59.4844C546.93 58.7604 547.013 58.1198 547.18 57.5625C547.346 57 547.586 56.526 547.898 56.1406C548.216 55.7552 548.602 55.4635 549.055 55.2656C549.513 55.0625 550.031 54.9609 550.609 54.9609C551.193 54.9609 551.711 55.0625 552.164 55.2656C552.622 55.4635 553.008 55.7552 553.32 56.1406C553.638 56.526 553.88 57 554.047 57.5625C554.214 58.1198 554.297 58.7604 554.297 59.4844V62.1484ZM548.383 61.8594L552.812 58.4609C552.729 57.7057 552.508 57.1328 552.148 56.7422C551.794 56.3464 551.281 56.1484 550.609 56.1484C549.849 56.1484 549.286 56.4062 548.922 56.9219C548.562 57.4323 548.383 58.1797 548.383 59.1641V61.8594ZM552.844 59.8438L548.422 63.2266C548.51 63.9609 548.737 64.5208 549.102 64.9062C549.466 65.2917 549.974 65.4844 550.625 65.4844C551.391 65.4844 551.951 65.224 552.305 64.7031C552.664 64.1823 552.844 63.4323 552.844 62.4531V59.8438ZM559.281 65.5625C559.281 65.4062 559.305 65.2604 559.352 65.125C559.404 64.9896 559.477 64.8724 559.57 64.7734C559.664 64.6693 559.781 64.5885 559.922 64.5312C560.062 64.474 560.227 64.4453 560.414 64.4453C560.602 64.4453 560.766 64.474 560.906 64.5312C561.052 64.5885 561.172 64.6693 561.266 64.7734C561.365 64.8724 561.438 64.9896 561.484 65.125C561.536 65.2604 561.562 65.4062 561.562 65.5625C561.562 65.7135 561.536 65.8568 561.484 65.9922C561.438 66.1224 561.365 66.237 561.266 66.3359C561.172 66.4349 561.052 66.5104 560.906 66.5625C560.766 66.6198 560.602 66.6484 560.414 66.6484C560.227 66.6484 560.062 66.6198 559.922 66.5625C559.781 66.5104 559.664 66.4349 559.57 66.3359C559.477 66.237 559.404 66.1224 559.352 65.9922C559.305 65.8568 559.281 65.7135 559.281 65.5625ZM573.352 66.5H565.898V65.4609L569.625 61.3203C569.958 60.9505 570.237 60.6224 570.461 60.3359C570.685 60.0495 570.865 59.7865 571 59.5469C571.135 59.3021 571.232 59.0729 571.289 58.8594C571.346 58.6406 571.375 58.4167 571.375 58.1875C571.375 57.9062 571.328 57.6432 571.234 57.3984C571.146 57.1484 571.013 56.9323 570.836 56.75C570.664 56.5677 570.453 56.4245 570.203 56.3203C569.958 56.2109 569.68 56.1562 569.367 56.1562C568.987 56.1562 568.656 56.2109 568.375 56.3203C568.099 56.4297 567.867 56.5859 567.68 56.7891C567.497 56.987 567.359 57.2292 567.266 57.5156C567.177 57.8021 567.133 58.1224 567.133 58.4766H565.68C565.68 57.9974 565.763 57.5469 565.93 57.125C566.096 56.6979 566.336 56.3255 566.648 56.0078C566.966 55.6901 567.352 55.4375 567.805 55.25C568.263 55.0625 568.784 54.9688 569.367 54.9688C569.904 54.9688 570.385 55.0495 570.812 55.2109C571.245 55.3672 571.609 55.5859 571.906 55.8672C572.203 56.1484 572.43 56.4818 572.586 56.8672C572.747 57.2526 572.828 57.6719 572.828 58.125C572.828 58.4635 572.771 58.7995 572.656 59.1328C572.542 59.4609 572.385 59.7865 572.188 60.1094C571.995 60.4323 571.768 60.7526 571.508 61.0703C571.253 61.3828 570.982 61.6953 570.695 62.0078L567.641 65.3203H573.352V66.5ZM576.5 60.7969L577.07 55.125H582.906V56.5312H578.289L577.969 59.5625C578.193 59.4323 578.461 59.3177 578.773 59.2188C579.086 59.1198 579.448 59.0703 579.859 59.0703C580.385 59.0703 580.857 59.1615 581.273 59.3438C581.69 59.526 582.044 59.7839 582.336 60.1172C582.628 60.4453 582.852 60.8438 583.008 61.3125C583.164 61.7812 583.242 62.3021 583.242 62.875C583.242 63.4167 583.169 63.9193 583.023 64.3828C582.878 64.8464 582.656 65.2474 582.359 65.5859C582.068 65.9193 581.698 66.1823 581.25 66.375C580.802 66.5625 580.276 66.6562 579.672 66.6562C579.208 66.6562 578.771 66.5911 578.359 66.4609C577.948 66.3307 577.581 66.1354 577.258 65.875C576.94 65.6146 576.677 65.2865 576.469 64.8906C576.266 64.4948 576.138 64.0339 576.086 63.5078H577.461C577.549 64.1536 577.786 64.6432 578.172 64.9766C578.562 65.3099 579.062 65.4766 579.672 65.4766C580.016 65.4766 580.32 65.4167 580.586 65.2969C580.852 65.1719 581.073 64.9974 581.25 64.7734C581.432 64.5443 581.568 64.2708 581.656 63.9531C581.75 63.6354 581.797 63.2812 581.797 62.8906C581.797 62.5365 581.745 62.2057 581.641 61.8984C581.542 61.5911 581.396 61.3255 581.203 61.1016C581.01 60.8724 580.773 60.6927 580.492 60.5625C580.211 60.4323 579.888 60.3672 579.523 60.3672C579.284 60.3672 579.076 60.3854 578.898 60.4219C578.727 60.4531 578.57 60.5 578.43 60.5625C578.289 60.625 578.156 60.7005 578.031 60.7891C577.911 60.8776 577.786 60.9792 577.656 61.0938L576.5 60.7969ZM596.367 68.4609C596.685 68.4505 596.951 68.362 597.164 68.1953C597.378 68.0286 597.547 67.8151 597.672 67.5547C597.802 67.2995 597.893 67.0104 597.945 66.6875C598.003 66.3698 598.031 66.0495 598.031 65.7266V64.4062C598.031 63.7865 598.174 63.2422 598.461 62.7734C598.747 62.2995 599.193 61.9427 599.797 61.7031C599.193 61.4583 598.747 61.1016 598.461 60.6328C598.174 60.1589 598.031 59.6094 598.031 58.9844V57.6562C598.031 57.3385 598.013 57.0182 597.977 56.6953C597.945 56.3724 597.872 56.0833 597.758 55.8281C597.648 55.5677 597.484 55.3542 597.266 55.1875C597.047 55.0208 596.75 54.9323 596.375 54.9219L596.531 54.0234C596.891 54.0339 597.211 54.0911 597.492 54.1953C597.779 54.2995 598.031 54.4401 598.25 54.6172C598.469 54.7943 598.654 55 598.805 55.2344C598.961 55.4688 599.089 55.7214 599.188 55.9922C599.286 56.2578 599.359 56.5339 599.406 56.8203C599.453 57.1016 599.477 57.3802 599.477 57.6562V58.9844C599.477 59.7396 599.656 60.2865 600.016 60.625C600.375 60.9583 600.919 61.125 601.648 61.125V62.2578C600.919 62.263 600.375 62.4349 600.016 62.7734C599.656 63.112 599.477 63.6562 599.477 64.4062V65.7266C599.477 66.1432 599.419 66.5625 599.305 66.9844C599.19 67.4115 599.01 67.7995 598.766 68.1484C598.526 68.4974 598.221 68.7839 597.852 69.0078C597.482 69.2318 597.042 69.349 596.531 69.3594L596.367 68.4609ZM608.477 66.1641C608.477 66.4089 608.445 66.6641 608.383 66.9297C608.326 67.2005 608.237 67.4661 608.117 67.7266C608.003 67.9922 607.862 68.2448 607.695 68.4844C607.529 68.724 607.336 68.9375 607.117 69.125L606.219 68.6328C606.469 68.2682 606.646 67.8802 606.75 67.4688C606.854 67.0573 606.906 66.6302 606.906 66.1875V64.7891H608.477V66.1641ZM370.562 88.3125C370.219 88.3125 369.906 88.2604 369.625 88.1562C369.344 88.0521 369.091 87.9115 368.867 87.7344C368.648 87.5573 368.458 87.349 368.297 87.1094C368.141 86.8698 368.008 86.6146 367.898 86.3438C367.794 86.0729 367.716 85.7943 367.664 85.5078C367.617 85.2266 367.594 84.9479 367.594 84.6719V83.3984C367.594 82.7057 367.432 82.2083 367.109 81.9062C366.786 81.6042 366.294 81.4531 365.633 81.4531V79.8906C366.294 79.8906 366.786 79.7396 367.109 79.4375C367.432 79.1354 367.594 78.6328 367.594 77.9297V76.6562C367.594 76.3854 367.615 76.1068 367.656 75.8203C367.703 75.5339 367.776 75.2552 367.875 74.9844C367.974 74.7135 368.099 74.4609 368.25 74.2266C368.406 73.987 368.594 73.7786 368.812 73.6016C369.036 73.4245 369.292 73.2839 369.578 73.1797C369.87 73.0755 370.198 73.0234 370.562 73.0234L370.828 74.25C370.51 74.2396 370.266 74.3073 370.094 74.4531C369.922 74.5938 369.797 74.7812 369.719 75.0156C369.641 75.25 369.594 75.513 369.578 75.8047C369.568 76.0911 369.562 76.375 369.562 76.6562V77.9297C369.562 78.5495 369.409 79.099 369.102 79.5781C368.799 80.0573 368.328 80.4219 367.688 80.6719C368.333 80.9219 368.807 81.2839 369.109 81.7578C369.411 82.2318 369.562 82.7786 369.562 83.3984V84.6719C369.562 84.9531 369.578 85.237 369.609 85.5234C369.646 85.8151 369.711 86.0781 369.805 86.3125C369.898 86.5469 370.026 86.7344 370.188 86.875C370.354 87.0208 370.568 87.0885 370.828 87.0781L370.562 88.3125ZM385.508 77.0469L385.641 78.2188C385.943 77.7969 386.31 77.4714 386.742 77.2422C387.174 77.0078 387.654 76.8906 388.18 76.8906C388.607 76.8906 388.997 76.9531 389.352 77.0781C389.706 77.2031 390.01 77.4036 390.266 77.6797C390.526 77.9505 390.727 78.3021 390.867 78.7344C391.013 79.1615 391.086 79.6823 391.086 80.2969V85.5H388.914V80.3281C388.914 79.9948 388.875 79.7214 388.797 79.5078C388.724 79.2891 388.617 79.1172 388.477 78.9922C388.336 78.8672 388.167 78.7812 387.969 78.7344C387.771 78.6823 387.547 78.6562 387.297 78.6562C386.927 78.6562 386.612 78.7318 386.352 78.8828C386.091 79.0286 385.88 79.2318 385.719 79.4922V85.5H383.539V77.0469H385.508ZM392.852 81.1953C392.852 80.5807 392.94 80.013 393.117 79.4922C393.294 78.9661 393.552 78.5104 393.891 78.125C394.234 77.7396 394.651 77.4375 395.141 77.2188C395.635 77 396.201 76.8906 396.836 76.8906C397.471 76.8906 398.036 77 398.531 77.2188C399.026 77.4375 399.443 77.7396 399.781 78.125C400.125 78.5104 400.385 78.9661 400.562 79.4922C400.74 80.013 400.828 80.5807 400.828 81.1953V81.3594C400.828 81.9792 400.74 82.5521 400.562 83.0781C400.385 83.599 400.128 84.0521 399.789 84.4375C399.451 84.8229 399.034 85.125 398.539 85.3438C398.044 85.5573 397.482 85.6641 396.852 85.6641C396.216 85.6641 395.648 85.5573 395.148 85.3438C394.654 85.125 394.234 84.8229 393.891 84.4375C393.552 84.0521 393.294 83.599 393.117 83.0781C392.94 82.5521 392.852 81.9792 392.852 81.3594V81.1953ZM395.023 81.3594C395.023 81.7135 395.057 82.0469 395.125 82.3594C395.193 82.6667 395.299 82.9375 395.445 83.1719C395.591 83.401 395.779 83.5833 396.008 83.7188C396.242 83.8542 396.523 83.9219 396.852 83.9219C397.169 83.9219 397.443 83.8542 397.672 83.7188C397.901 83.5833 398.086 83.401 398.227 83.1719C398.372 82.9375 398.479 82.6667 398.547 82.3594C398.615 82.0469 398.648 81.7135 398.648 81.3594V81.1953C398.648 80.8516 398.615 80.526 398.547 80.2188C398.479 79.9115 398.372 79.6406 398.227 79.4062C398.086 79.1719 397.901 78.987 397.672 78.8516C397.443 78.7161 397.164 78.6484 396.836 78.6484C396.513 78.6484 396.237 78.7161 396.008 78.8516C395.779 78.987 395.591 79.1719 395.445 79.4062C395.299 79.6406 395.193 79.9115 395.125 80.2188C395.057 80.526 395.023 80.8516 395.023 81.1953V81.3594ZM402.531 81.2109C402.531 80.5703 402.604 79.9844 402.75 79.4531C402.901 78.9219 403.12 78.4661 403.406 78.0859C403.693 77.7057 404.039 77.4115 404.445 77.2031C404.857 76.9948 405.326 76.8906 405.852 76.8906C406.294 76.8906 406.682 76.9714 407.016 77.1328C407.354 77.2891 407.654 77.513 407.914 77.8047V73.5H410.094V85.5H408.133L408.023 84.6172C407.758 84.9453 407.445 85.2005 407.086 85.3828C406.727 85.5651 406.31 85.6562 405.836 85.6562C405.32 85.6562 404.857 85.5495 404.445 85.3359C404.039 85.1172 403.693 84.8177 403.406 84.4375C403.125 84.0573 402.909 83.6068 402.758 83.0859C402.607 82.5599 402.531 81.9896 402.531 81.375V81.2109ZM404.703 81.375C404.703 81.7292 404.732 82.0599 404.789 82.3672C404.852 82.6693 404.951 82.9349 405.086 83.1641C405.221 83.388 405.396 83.5651 405.609 83.6953C405.823 83.8255 406.083 83.8906 406.391 83.8906C406.766 83.8906 407.076 83.8099 407.32 83.6484C407.57 83.487 407.768 83.2656 407.914 82.9844V79.5625C407.768 79.276 407.573 79.0547 407.328 78.8984C407.083 78.737 406.776 78.6562 406.406 78.6562C406.099 78.6562 405.836 78.724 405.617 78.8594C405.404 78.9896 405.229 79.1719 405.094 79.4062C404.958 79.6354 404.859 79.9062 404.797 80.2188C404.734 80.526 404.703 80.8568 404.703 81.2109V81.375ZM416.469 85.6562C415.818 85.6562 415.227 85.5495 414.695 85.3359C414.164 85.1224 413.708 84.8333 413.328 84.4688C412.948 84.099 412.654 83.6667 412.445 83.1719C412.242 82.6719 412.141 82.138 412.141 81.5703V81.2578C412.141 80.612 412.242 80.0234 412.445 79.4922C412.648 78.9557 412.932 78.4948 413.297 78.1094C413.661 77.724 414.094 77.4245 414.594 77.2109C415.094 76.9974 415.638 76.8906 416.227 76.8906C416.836 76.8906 417.378 76.9922 417.852 77.1953C418.331 77.3932 418.734 77.6745 419.062 78.0391C419.396 78.4036 419.648 78.8438 419.82 79.3594C419.992 79.8698 420.078 80.4349 420.078 81.0547V81.9766H414.344C414.385 82.263 414.469 82.526 414.594 82.7656C414.724 83 414.888 83.2031 415.086 83.375C415.284 83.5469 415.51 83.6797 415.766 83.7734C416.021 83.8672 416.299 83.9141 416.602 83.9141C416.815 83.9141 417.026 83.8932 417.234 83.8516C417.448 83.8099 417.651 83.75 417.844 83.6719C418.036 83.5885 418.216 83.487 418.383 83.3672C418.549 83.2474 418.695 83.1068 418.82 82.9453L419.906 84.1172C419.771 84.3099 419.594 84.5 419.375 84.6875C419.161 84.8698 418.906 85.0339 418.609 85.1797C418.318 85.3203 417.992 85.4349 417.633 85.5234C417.273 85.612 416.885 85.6562 416.469 85.6562ZM416.211 78.6484C415.966 78.6484 415.742 78.6927 415.539 78.7812C415.336 78.8646 415.156 78.987 415 79.1484C414.849 79.3099 414.721 79.5026 414.617 79.7266C414.513 79.9505 414.435 80.2005 414.383 80.4766H417.945V80.3047C417.935 80.0755 417.891 79.8594 417.812 79.6562C417.734 79.4531 417.622 79.2786 417.477 79.1328C417.331 78.9818 417.151 78.8646 416.938 78.7812C416.729 78.6927 416.487 78.6484 416.211 78.6484ZM422.383 74.125H428.961V75.8984H426.742V83.7344H428.961V85.5H422.383V83.7344H424.547V75.8984H422.383V74.125ZM431.359 81.2109C431.359 80.5703 431.432 79.9844 431.578 79.4531C431.729 78.9219 431.948 78.4661 432.234 78.0859C432.521 77.7057 432.867 77.4115 433.273 77.2031C433.685 76.9948 434.154 76.8906 434.68 76.8906C435.122 76.8906 435.51 76.9714 435.844 77.1328C436.182 77.2891 436.482 77.513 436.742 77.8047V73.5H438.922V85.5H436.961L436.852 84.6172C436.586 84.9453 436.273 85.2005 435.914 85.3828C435.555 85.5651 435.138 85.6562 434.664 85.6562C434.148 85.6562 433.685 85.5495 433.273 85.3359C432.867 85.1172 432.521 84.8177 432.234 84.4375C431.953 84.0573 431.737 83.6068 431.586 83.0859C431.435 82.5599 431.359 81.9896 431.359 81.375V81.2109ZM433.531 81.375C433.531 81.7292 433.56 82.0599 433.617 82.3672C433.68 82.6693 433.779 82.9349 433.914 83.1641C434.049 83.388 434.224 83.5651 434.438 83.6953C434.651 83.8255 434.911 83.8906 435.219 83.8906C435.594 83.8906 435.904 83.8099 436.148 83.6484C436.398 83.487 436.596 83.2656 436.742 82.9844V79.5625C436.596 79.276 436.401 79.0547 436.156 78.8984C435.911 78.737 435.604 78.6562 435.234 78.6562C434.927 78.6562 434.664 78.724 434.445 78.8594C434.232 78.9896 434.057 79.1719 433.922 79.4062C433.786 79.6354 433.688 79.9062 433.625 80.2188C433.562 80.526 433.531 80.8568 433.531 81.2109V81.375ZM443.5 84.2422C443.5 84.0391 443.534 83.8516 443.602 83.6797C443.669 83.5026 443.768 83.3516 443.898 83.2266C444.029 83.0964 444.188 82.9948 444.375 82.9219C444.562 82.8438 444.773 82.8047 445.008 82.8047C445.242 82.8047 445.453 82.8438 445.641 82.9219C445.828 82.9948 445.984 83.0964 446.109 83.2266C446.24 83.3516 446.339 83.5026 446.406 83.6797C446.479 83.8516 446.516 84.0391 446.516 84.2422C446.516 84.4401 446.479 84.625 446.406 84.7969C446.339 84.9688 446.24 85.1198 446.109 85.25C445.984 85.375 445.828 85.474 445.641 85.5469C445.453 85.6198 445.242 85.6562 445.008 85.6562C444.773 85.6562 444.562 85.6198 444.375 85.5469C444.188 85.474 444.029 85.375 443.898 85.25C443.768 85.1198 443.669 84.9688 443.602 84.7969C443.534 84.625 443.5 84.4401 443.5 84.2422ZM443.5 77.7891C443.5 77.5859 443.534 77.3984 443.602 77.2266C443.669 77.0495 443.768 76.8984 443.898 76.7734C444.029 76.6432 444.188 76.5417 444.375 76.4688C444.562 76.3906 444.773 76.3516 445.008 76.3516C445.242 76.3516 445.453 76.3906 445.641 76.4688C445.828 76.5417 445.984 76.6432 446.109 76.7734C446.24 76.8984 446.339 77.0495 446.406 77.2266C446.479 77.3984 446.516 77.5859 446.516 77.7891C446.516 77.987 446.479 78.1719 446.406 78.3438C446.339 78.5156 446.24 78.6667 446.109 78.7969C445.984 78.9219 445.828 79.0208 445.641 79.0938C445.453 79.1667 445.242 79.2031 445.008 79.2031C444.773 79.2031 444.562 79.1667 444.375 79.0938C444.188 79.0208 444.029 78.9219 443.898 78.7969C443.768 78.6667 443.669 78.5156 443.602 78.3438C443.534 78.1719 443.5 77.987 443.5 77.7891ZM463.117 74.3438L462.891 77.625H461.508V73.5H463.117V74.3438ZM466.328 74.3438L466.109 77.625H464.727V73.5H466.328V74.3438ZM471.992 77.0469L472.125 78.2188C472.427 77.7969 472.794 77.4714 473.227 77.2422C473.659 77.0078 474.138 76.8906 474.664 76.8906C475.091 76.8906 475.482 76.9531 475.836 77.0781C476.19 77.2031 476.495 77.4036 476.75 77.6797C477.01 77.9505 477.211 78.3021 477.352 78.7344C477.497 79.1615 477.57 79.6823 477.57 80.2969V85.5H475.398V80.3281C475.398 79.9948 475.359 79.7214 475.281 79.5078C475.208 79.2891 475.102 79.1172 474.961 78.9922C474.82 78.8672 474.651 78.7812 474.453 78.7344C474.255 78.6823 474.031 78.6562 473.781 78.6562C473.411 78.6562 473.096 78.7318 472.836 78.8828C472.576 79.0286 472.365 79.2318 472.203 79.4922V85.5H470.023V77.0469H471.992ZM479.742 79.8984L480.391 74.125H486.703V75.9688H482.18L481.906 78.4688C482.068 78.375 482.297 78.2786 482.594 78.1797C482.891 78.0807 483.232 78.0312 483.617 78.0312C484.164 78.0312 484.651 78.1198 485.078 78.2969C485.51 78.4688 485.872 78.7188 486.164 79.0469C486.461 79.375 486.688 79.776 486.844 80.25C487 80.724 487.078 81.2604 487.078 81.8594C487.078 82.3698 487.003 82.8542 486.852 83.3125C486.701 83.7708 486.469 84.1745 486.156 84.5234C485.844 84.8724 485.451 85.1484 484.977 85.3516C484.503 85.5547 483.943 85.6562 483.297 85.6562C482.807 85.6562 482.333 85.5833 481.875 85.4375C481.422 85.2917 481.018 85.0781 480.664 84.7969C480.31 84.5156 480.021 84.1719 479.797 83.7656C479.578 83.3542 479.461 82.8854 479.445 82.3594H481.586C481.638 82.8542 481.815 83.237 482.117 83.5078C482.424 83.7786 482.815 83.9141 483.289 83.9141C483.581 83.9141 483.828 83.8594 484.031 83.75C484.24 83.6406 484.406 83.4896 484.531 83.2969C484.661 83.1042 484.755 82.875 484.812 82.6094C484.875 82.3438 484.906 82.0573 484.906 81.75C484.906 81.4479 484.867 81.1719 484.789 80.9219C484.716 80.6667 484.602 80.4479 484.445 80.2656C484.289 80.0833 484.094 79.9427 483.859 79.8438C483.625 79.7448 483.349 79.6953 483.031 79.6953C482.818 79.6953 482.633 79.7135 482.477 79.75C482.32 79.7865 482.182 79.8333 482.062 79.8906C481.943 79.9479 481.836 80.0156 481.742 80.0938C481.648 80.1667 481.56 80.2448 481.477 80.3281L479.742 79.8984ZM491.945 74.3438L491.719 77.625H490.336V73.5H491.945V74.3438ZM495.156 74.3438L494.938 77.625H493.555V73.5H495.156V74.3438ZM503.297 85.3281C503.297 85.625 503.255 85.9297 503.172 86.2422C503.094 86.5547 502.984 86.8568 502.844 87.1484C502.703 87.4401 502.534 87.7161 502.336 87.9766C502.143 88.237 501.935 88.4688 501.711 88.6719L500.562 88.0781C500.661 87.8906 500.753 87.7005 500.836 87.5078C500.924 87.3151 501 87.112 501.062 86.8984C501.125 86.6849 501.174 86.4583 501.211 86.2188C501.247 85.9792 501.266 85.7161 501.266 85.4297V83.6016H503.305L503.297 85.3281ZM522.055 74.9766V77.0469H525.211V78.6484H522.055V82.2812C522.055 82.5885 522.089 82.8464 522.156 83.0547C522.229 83.2578 522.331 83.4219 522.461 83.5469C522.591 83.6667 522.747 83.7526 522.93 83.8047C523.117 83.8568 523.326 83.8828 523.555 83.8828C523.721 83.8828 523.891 83.875 524.062 83.8594C524.24 83.8438 524.406 83.8255 524.562 83.8047C524.724 83.7786 524.872 83.7526 525.008 83.7266C525.148 83.7005 525.268 83.6745 525.367 83.6484L525.578 85.1406C525.427 85.2292 525.25 85.3073 525.047 85.375C524.844 85.4375 524.628 85.4896 524.398 85.5312C524.169 85.5729 523.93 85.6042 523.68 85.625C523.435 85.651 523.193 85.6641 522.953 85.6641C522.49 85.6641 522.068 85.6042 521.688 85.4844C521.312 85.3594 520.99 85.1693 520.719 84.9141C520.453 84.6536 520.247 84.3255 520.102 83.9297C519.956 83.5286 519.883 83.0495 519.883 82.4922V78.6484H517.953V77.0469H519.883V74.9766H522.055ZM529.984 84.2422C529.984 84.0391 530.018 83.8516 530.086 83.6797C530.154 83.5026 530.253 83.3516 530.383 83.2266C530.513 83.0964 530.672 82.9948 530.859 82.9219C531.047 82.8438 531.258 82.8047 531.492 82.8047C531.727 82.8047 531.938 82.8438 532.125 82.9219C532.312 82.9948 532.469 83.0964 532.594 83.2266C532.724 83.3516 532.823 83.5026 532.891 83.6797C532.964 83.8516 533 84.0391 533 84.2422C533 84.4401 532.964 84.625 532.891 84.7969C532.823 84.9688 532.724 85.1198 532.594 85.25C532.469 85.375 532.312 85.474 532.125 85.5469C531.938 85.6198 531.727 85.6562 531.492 85.6562C531.258 85.6562 531.047 85.6198 530.859 85.5469C530.672 85.474 530.513 85.375 530.383 85.25C530.253 85.1198 530.154 84.9688 530.086 84.7969C530.018 84.625 529.984 84.4401 529.984 84.2422ZM529.984 77.7891C529.984 77.5859 530.018 77.3984 530.086 77.2266C530.154 77.0495 530.253 76.8984 530.383 76.7734C530.513 76.6432 530.672 76.5417 530.859 76.4688C531.047 76.3906 531.258 76.3516 531.492 76.3516C531.727 76.3516 531.938 76.3906 532.125 76.4688C532.312 76.5417 532.469 76.6432 532.594 76.7734C532.724 76.8984 532.823 77.0495 532.891 77.2266C532.964 77.3984 533 77.5859 533 77.7891C533 77.987 532.964 78.1719 532.891 78.3438C532.823 78.5156 532.724 78.6667 532.594 78.7969C532.469 78.9219 532.312 79.0208 532.125 79.0938C531.938 79.1667 531.727 79.2031 531.492 79.2031C531.258 79.2031 531.047 79.1667 530.859 79.0938C530.672 79.0208 530.513 78.9219 530.383 78.7969C530.253 78.6667 530.154 78.5156 530.086 78.3438C530.018 78.1719 529.984 77.987 529.984 77.7891ZM554.305 81.1719C554.305 81.9062 554.219 82.5547 554.047 83.1172C553.88 83.6745 553.638 84.1432 553.32 84.5234C553.003 84.8984 552.615 85.1823 552.156 85.375C551.698 85.5677 551.182 85.6641 550.609 85.6641C550.042 85.6641 549.529 85.5677 549.07 85.375C548.612 85.1823 548.221 84.8984 547.898 84.5234C547.581 84.1432 547.333 83.6745 547.156 83.1172C546.984 82.5547 546.898 81.9062 546.898 81.1719V78.4531C546.898 77.7188 546.984 77.0729 547.156 76.5156C547.328 75.9531 547.573 75.4844 547.891 75.1094C548.214 74.7292 548.602 74.4427 549.055 74.25C549.513 74.0573 550.026 73.9609 550.594 73.9609C551.167 73.9609 551.682 74.0573 552.141 74.25C552.599 74.4427 552.987 74.7292 553.305 75.1094C553.628 75.4844 553.875 75.9531 554.047 76.5156C554.219 77.0729 554.305 77.7188 554.305 78.4531V81.1719ZM549.086 80.2344L552.117 77.9766C552.102 77.2109 551.969 76.6432 551.719 76.2734C551.469 75.9036 551.094 75.7188 550.594 75.7188C550.089 75.7188 549.711 75.9141 549.461 76.3047C549.211 76.6953 549.086 77.2969 549.086 78.1094V80.2344ZM552.117 79.4531L549.086 81.7031C549.112 82.4531 549.25 83.0104 549.5 83.375C549.75 83.7344 550.12 83.9141 550.609 83.9141C551.12 83.9141 551.497 83.7161 551.742 83.3203C551.992 82.9245 552.117 82.3177 552.117 81.5V79.4531ZM558.703 84.2422C558.703 84.0391 558.737 83.8516 558.805 83.6797C558.872 83.5026 558.971 83.3516 559.102 83.2266C559.232 83.0964 559.391 82.9948 559.578 82.9219C559.766 82.8438 559.977 82.8047 560.211 82.8047C560.445 82.8047 560.656 82.8438 560.844 82.9219C561.031 82.9948 561.188 83.0964 561.312 83.2266C561.443 83.3516 561.542 83.5026 561.609 83.6797C561.682 83.8516 561.719 84.0391 561.719 84.2422C561.719 84.4401 561.682 84.625 561.609 84.7969C561.542 84.9688 561.443 85.1198 561.312 85.25C561.188 85.375 561.031 85.474 560.844 85.5469C560.656 85.6198 560.445 85.6562 560.211 85.6562C559.977 85.6562 559.766 85.6198 559.578 85.5469C559.391 85.474 559.232 85.375 559.102 85.25C558.971 85.1198 558.872 84.9688 558.805 84.7969C558.737 84.625 558.703 84.4401 558.703 84.2422ZM573.547 75.3359L569.117 85.5H566.828L571.266 75.8984H565.555V74.125H573.547V75.3359ZM575.836 79.8984L576.484 74.125H582.797V75.9688H578.273L578 78.4688C578.161 78.375 578.391 78.2786 578.688 78.1797C578.984 78.0807 579.326 78.0312 579.711 78.0312C580.258 78.0312 580.745 78.1198 581.172 78.2969C581.604 78.4688 581.966 78.7188 582.258 79.0469C582.555 79.375 582.781 79.776 582.938 80.25C583.094 80.724 583.172 81.2604 583.172 81.8594C583.172 82.3698 583.096 82.8542 582.945 83.3125C582.794 83.7708 582.562 84.1745 582.25 84.5234C581.938 84.8724 581.544 85.1484 581.07 85.3516C580.596 85.5547 580.036 85.6562 579.391 85.6562C578.901 85.6562 578.427 85.5833 577.969 85.4375C577.516 85.2917 577.112 85.0781 576.758 84.7969C576.404 84.5156 576.115 84.1719 575.891 83.7656C575.672 83.3542 575.555 82.8854 575.539 82.3594H577.68C577.732 82.8542 577.909 83.237 578.211 83.5078C578.518 83.7786 578.909 83.9141 579.383 83.9141C579.674 83.9141 579.922 83.8594 580.125 83.75C580.333 83.6406 580.5 83.4896 580.625 83.2969C580.755 83.1042 580.849 82.875 580.906 82.6094C580.969 82.3438 581 82.0573 581 81.75C581 81.4479 580.961 81.1719 580.883 80.9219C580.81 80.6667 580.695 80.4479 580.539 80.2656C580.383 80.0833 580.188 79.9427 579.953 79.8438C579.719 79.7448 579.443 79.6953 579.125 79.6953C578.911 79.6953 578.727 79.7135 578.57 79.75C578.414 79.7865 578.276 79.8333 578.156 79.8906C578.036 79.9479 577.93 80.0156 577.836 80.0938C577.742 80.1667 577.654 80.2448 577.57 80.3281L575.836 79.8984ZM596.438 87.0781C596.693 87.0885 596.901 87.0208 597.062 86.875C597.229 86.7344 597.359 86.5469 597.453 86.3125C597.547 86.0781 597.612 85.8151 597.648 85.5234C597.685 85.237 597.703 84.9531 597.703 84.6719V83.3984C597.703 83.0964 597.737 82.8099 597.805 82.5391C597.878 82.2682 597.987 82.0156 598.133 81.7812C598.279 81.5469 598.461 81.3385 598.68 81.1562C598.904 80.9688 599.169 80.8099 599.477 80.6797C598.867 80.4193 598.419 80.0469 598.133 79.5625C597.846 79.0781 597.703 78.5339 597.703 77.9297V76.6562C597.703 76.375 597.695 76.0911 597.68 75.8047C597.669 75.513 597.625 75.25 597.547 75.0156C597.469 74.7812 597.344 74.5938 597.172 74.4531C597 74.3073 596.755 74.2396 596.438 74.25L596.703 73.0234C597.068 73.0234 597.393 73.0755 597.68 73.1797C597.971 73.2839 598.227 73.4245 598.445 73.6016C598.664 73.7786 598.852 73.987 599.008 74.2266C599.164 74.4609 599.292 74.7135 599.391 74.9844C599.49 75.2552 599.56 75.5339 599.602 75.8203C599.648 76.1068 599.672 76.3854 599.672 76.6562V77.9297C599.672 78.6328 599.831 79.1354 600.148 79.4375C600.471 79.7396 600.966 79.8906 601.633 79.8906V81.4531C600.966 81.4531 600.471 81.6042 600.148 81.9062C599.831 82.2083 599.672 82.7057 599.672 83.3984V84.6719C599.672 84.9427 599.646 85.2214 599.594 85.5078C599.542 85.7943 599.464 86.0729 599.359 86.3438C599.255 86.6146 599.122 86.8698 598.961 87.1094C598.799 87.349 598.609 87.5573 598.391 87.7344C598.172 87.9115 597.922 88.0521 597.641 88.1562C597.359 88.2604 597.047 88.3125 596.703 88.3125L596.438 87.0781ZM609 85.3281C609 85.625 608.958 85.9297 608.875 86.2422C608.797 86.5547 608.688 86.8568 608.547 87.1484C608.406 87.4401 608.237 87.7161 608.039 87.9766C607.846 88.237 607.638 88.4688 607.414 88.6719L606.266 88.0781C606.365 87.8906 606.456 87.7005 606.539 87.5078C606.628 87.3151 606.703 87.112 606.766 86.8984C606.828 86.6849 606.878 86.4583 606.914 86.2188C606.951 85.9792 606.969 85.7161 606.969 85.4297V83.6016H609.008L609 85.3281ZM347.164 91.5H350.266V106.938H347.164V105.75H348.898V92.6875H347.164V91.5Z" fill="#D9EBFF"/>
<path opacity="0.4" d="M264 19.5C118.173 19.5 116.496 123.5 264 123.5" stroke="#B3BFD8" stroke-width="2"/>
<path d="M209 25.5942C135.963 44.0534 135.371 99.2067 209 117.517" stroke="#B3BFD8" stroke-width="2"/>
<circle cx="208.815" cy="117.5" r="5" fill="black" stroke="#D9EBFF" stroke-width="2"/>
<circle cx="208.815" cy="25.5" r="5" fill="black" stroke="#D9EBFF" stroke-width="2"/>
<path d="M212.815 8.74095C212.829 8.65734 212.85 8.54587 212.878 8.40652C212.906 8.26717 212.99 8.00241 213.129 7.61223C213.268 7.22205 213.408 6.89459 213.547 6.62982C213.686 6.36506 213.916 6.10727 214.237 5.85644C214.557 5.60561 214.878 5.48717 215.198 5.5011C215.7 5.5011 216.118 5.62651 216.452 5.87734C216.787 6.12817 216.996 6.36506 217.079 6.58802C217.163 6.81098 217.205 6.95729 217.205 7.02697C217.205 7.05484 217.212 7.06877 217.226 7.06877L217.456 6.83885C218.306 5.94702 219.274 5.5011 220.361 5.5011C221.114 5.5011 221.72 5.68922 222.18 6.06546C222.639 6.4417 222.876 6.99213 222.89 7.71674C222.904 8.44135 222.64 9.53524 222.096 10.9984C221.553 12.4616 221.288 13.3464 221.302 13.653C221.302 14.0153 221.42 14.1964 221.657 14.1964C221.741 14.1964 221.803 14.1895 221.845 14.1755C222.249 14.1059 222.612 13.8411 222.932 13.3813C223.253 12.9214 223.496 12.364 223.664 11.7091C223.692 11.5976 223.831 11.5419 224.082 11.5419C224.36 11.5419 224.5 11.5976 224.5 11.7091C224.5 11.723 224.472 11.8275 224.416 12.0226C224.305 12.4267 224.151 12.8239 223.956 13.214C223.761 13.6042 223.441 13.9944 222.995 14.3846C222.549 14.7747 222.068 14.9629 221.553 14.9489C220.898 14.9489 220.424 14.7608 220.131 14.3846C219.839 14.0083 219.692 13.6182 219.692 13.214C219.692 12.9493 219.943 12.1132 220.445 10.7058C220.946 9.29835 221.204 8.2393 221.218 7.52862C221.218 6.70647 220.912 6.29539 220.298 6.29539H220.194C218.996 6.29539 217.985 6.9991 217.163 8.40652L217.017 8.65734L216.327 11.4583C215.867 13.2837 215.602 14.2661 215.533 14.4055C215.352 14.7817 215.052 14.9698 214.634 14.9698C214.453 14.9698 214.306 14.928 214.195 14.8444C214.083 14.7608 214.007 14.6772 213.965 14.5936C213.923 14.51 213.909 14.4403 213.923 14.3846C213.923 14.2034 214.188 13.0677 214.718 10.9775C215.247 8.88727 215.526 7.75158 215.554 7.57043C215.568 7.50075 215.575 7.3405 215.575 7.08967C215.575 6.54621 215.407 6.27448 215.073 6.27448C214.543 6.27448 214.104 6.97123 213.756 8.36471C213.672 8.64341 213.631 8.78973 213.631 8.80366C213.603 8.88727 213.47 8.92907 213.233 8.92907H212.941C212.857 8.84547 212.815 8.78276 212.815 8.74095Z" fill="#D9EBFF"/>
<path d="M231.75 17.8876C231.573 17.858 230.938 17.8433 229.844 17.8433C228.701 17.8433 228.041 17.858 227.864 17.8876H227.731V17.2078H228.189C228.386 17.2078 228.519 17.2078 228.588 17.2078C228.657 17.2078 228.741 17.198 228.839 17.1783C228.938 17.1586 229.007 17.1339 229.046 17.1044C229.085 17.0748 229.12 17.0354 229.149 16.9862C229.159 16.9664 229.164 16.7004 229.164 16.1881V15.4492H225.337V14.7695L227.568 11.3558C229.076 9.07011 229.839 7.92236 229.859 7.91251C229.878 7.89281 229.982 7.88296 230.169 7.88296H230.435L230.524 7.97162V14.7695H231.883V15.4492H230.524V16.2029C230.524 16.6069 230.524 16.8433 230.524 16.9123C230.524 16.9812 230.553 17.0403 230.612 17.0896C230.691 17.1586 230.972 17.198 231.455 17.2078H231.883V17.8876H231.75ZM229.253 14.7695V9.83364L226.016 14.7547L227.627 14.7695H229.253Z" fill="#D9EBFF"/>
<path d="M214.815 105.741C214.829 105.657 214.85 105.546 214.878 105.407C214.906 105.267 214.99 105.002 215.129 104.612C215.268 104.222 215.408 103.895 215.547 103.63C215.686 103.365 215.916 103.107 216.237 102.856C216.557 102.606 216.878 102.487 217.198 102.501C217.7 102.501 218.118 102.627 218.452 102.877C218.787 103.128 218.996 103.365 219.079 103.588C219.163 103.811 219.205 103.957 219.205 104.027C219.205 104.055 219.212 104.069 219.226 104.069L219.456 103.839C220.306 102.947 221.274 102.501 222.361 102.501C223.114 102.501 223.72 102.689 224.18 103.065C224.639 103.442 224.876 103.992 224.89 104.717C224.904 105.441 224.64 106.535 224.096 107.998C223.553 109.462 223.288 110.346 223.302 110.653C223.302 111.015 223.42 111.196 223.657 111.196C223.741 111.196 223.803 111.189 223.845 111.176C224.249 111.106 224.612 110.841 224.932 110.381C225.253 109.921 225.496 109.364 225.664 108.709C225.692 108.598 225.831 108.542 226.082 108.542C226.36 108.542 226.5 108.598 226.5 108.709C226.5 108.723 226.472 108.828 226.416 109.023C226.305 109.427 226.151 109.824 225.956 110.214C225.761 110.604 225.441 110.994 224.995 111.385C224.549 111.775 224.068 111.963 223.553 111.949C222.898 111.949 222.424 111.761 222.131 111.385C221.839 111.008 221.692 110.618 221.692 110.214C221.692 109.949 221.943 109.113 222.445 107.706C222.946 106.298 223.204 105.239 223.218 104.529C223.218 103.706 222.912 103.295 222.298 103.295H222.194C220.996 103.295 219.985 103.999 219.163 105.407L219.017 105.657L218.327 108.458C217.867 110.284 217.602 111.266 217.533 111.405C217.352 111.782 217.052 111.97 216.634 111.97C216.453 111.97 216.306 111.928 216.195 111.844C216.083 111.761 216.007 111.677 215.965 111.594C215.923 111.51 215.909 111.44 215.923 111.385C215.923 111.203 216.188 110.068 216.718 107.977C217.247 105.887 217.526 104.752 217.554 104.57C217.568 104.501 217.575 104.341 217.575 104.09C217.575 103.546 217.407 103.274 217.073 103.274C216.543 103.274 216.104 103.971 215.756 105.365C215.672 105.643 215.631 105.79 215.631 105.804C215.603 105.887 215.47 105.929 215.233 105.929H214.941C214.857 105.845 214.815 105.783 214.815 105.741Z" fill="#D9EBFF"/>
<path d="M229.347 112.567C229.347 112.804 229.268 113.001 229.11 113.159C228.952 113.316 228.76 113.395 228.534 113.395H228.43C228.883 114.173 229.484 114.562 230.233 114.562C230.923 114.562 231.425 114.267 231.741 113.676C231.928 113.351 232.021 112.72 232.021 111.784C232.021 110.769 231.888 110.085 231.622 109.73C231.366 109.405 231.08 109.242 230.765 109.242H230.677C229.908 109.242 229.327 109.577 228.933 110.247C228.893 110.316 228.859 110.356 228.829 110.366C228.8 110.375 228.726 110.385 228.608 110.395C228.44 110.395 228.347 110.366 228.327 110.306C228.307 110.267 228.297 109.405 228.297 107.72V105.814C228.297 105.321 228.322 105.075 228.371 105.075C228.391 105.055 228.411 105.046 228.43 105.046C228.44 105.046 228.544 105.085 228.741 105.164C228.938 105.243 229.209 105.321 229.553 105.4C229.898 105.479 230.268 105.518 230.662 105.518C231.361 105.518 232.031 105.38 232.672 105.105C232.75 105.065 232.814 105.046 232.864 105.046C232.942 105.046 232.982 105.134 232.982 105.312V105.504C232.174 106.459 231.164 106.937 229.952 106.937C229.647 106.937 229.371 106.908 229.125 106.848L228.977 106.819V109.361C229.164 109.223 229.312 109.114 229.42 109.036C229.529 108.957 229.706 108.878 229.952 108.799C230.199 108.72 230.45 108.681 230.706 108.681C231.504 108.681 232.179 109.001 232.731 109.641C233.282 110.282 233.558 111.04 233.558 111.917C233.558 112.824 233.243 113.597 232.612 114.237C231.982 114.878 231.213 115.203 230.307 115.213C229.509 115.213 228.869 114.947 228.386 114.415C227.903 113.883 227.662 113.282 227.662 112.612C227.662 112.375 227.716 112.188 227.824 112.05C227.933 111.912 228.046 111.824 228.164 111.784C228.282 111.745 228.396 111.725 228.504 111.725C228.75 111.725 228.952 111.809 229.11 111.976C229.268 112.144 229.347 112.341 229.347 112.567Z" fill="#D9EBFF"/>
</svg>
