<svg width="700" height="124" viewBox="0 0 700 124" fill="none" xmlns="http://www.w3.org/2000/svg">
<rect width="700" height="123" transform="translate(0 0.5)" fill="#0A0D12"/>
<path d="M335.094 39.6562C334.5 39.6562 333.953 39.5547 333.453 39.3516C332.958 39.1484 332.534 38.8646 332.18 38.5C331.826 38.1354 331.549 37.7031 331.352 37.2031C331.154 36.7031 331.055 36.1589 331.055 35.5703V35.2422C331.055 34.5599 331.164 33.9505 331.383 33.4141C331.602 32.8724 331.891 32.4167 332.25 32.0469C332.615 31.6719 333.026 31.3854 333.484 31.1875C333.948 30.9896 334.422 30.8906 334.906 30.8906C335.516 30.8906 336.047 30.9974 336.5 31.2109C336.958 31.4193 337.339 31.7109 337.641 32.0859C337.943 32.4557 338.167 32.8932 338.312 33.3984C338.464 33.9036 338.539 34.4505 338.539 35.0391V35.6875H332.5C332.516 36.0729 332.589 36.4349 332.719 36.7734C332.854 37.112 333.036 37.4089 333.266 37.6641C333.5 37.9141 333.779 38.112 334.102 38.2578C334.424 38.4036 334.781 38.4766 335.172 38.4766C335.688 38.4766 336.146 38.3724 336.547 38.1641C336.948 37.9557 337.281 37.6797 337.547 37.3359L338.43 38.0234C338.289 38.237 338.112 38.4427 337.898 38.6406C337.69 38.8333 337.448 39.0052 337.172 39.1562C336.896 39.3073 336.583 39.4271 336.234 39.5156C335.885 39.6094 335.505 39.6562 335.094 39.6562ZM334.906 32.0781C334.615 32.0781 334.339 32.1328 334.078 32.2422C333.818 32.3464 333.583 32.5026 333.375 32.7109C333.167 32.9141 332.99 33.1667 332.844 33.4688C332.703 33.7656 332.604 34.1094 332.547 34.5H337.094V34.3906C337.078 34.1094 337.023 33.8307 336.93 33.5547C336.841 33.2786 336.708 33.0312 336.531 32.8125C336.354 32.5938 336.13 32.4167 335.859 32.2812C335.594 32.1458 335.276 32.0781 334.906 32.0781ZM345.656 39.5H344.211V29.9688L341.234 31.1016V29.7812L345.539 28.125H345.656V39.5ZM353.484 38.5625C353.484 38.4062 353.508 38.2604 353.555 38.125C353.607 37.9896 353.68 37.8724 353.773 37.7734C353.867 37.6693 353.984 37.5885 354.125 37.5312C354.266 37.474 354.43 37.4453 354.617 37.4453C354.805 37.4453 354.969 37.474 355.109 37.5312C355.255 37.5885 355.375 37.6693 355.469 37.7734C355.568 37.8724 355.641 37.9896 355.688 38.125C355.74 38.2604 355.766 38.4062 355.766 38.5625C355.766 38.7135 355.74 38.8568 355.688 38.9922C355.641 39.1224 355.568 39.237 355.469 39.3359C355.375 39.4349 355.255 39.5104 355.109 39.5625C354.969 39.6198 354.805 39.6484 354.617 39.6484C354.43 39.6484 354.266 39.6198 354.125 39.5625C353.984 39.5104 353.867 39.4349 353.773 39.3359C353.68 39.237 353.607 39.1224 353.555 38.9922C353.508 38.8568 353.484 38.7135 353.484 38.5625ZM353.484 31.7188C353.484 31.5625 353.508 31.4167 353.555 31.2812C353.607 31.1458 353.68 31.0286 353.773 30.9297C353.867 30.8255 353.984 30.7448 354.125 30.6875C354.266 30.6302 354.43 30.6016 354.617 30.6016C354.805 30.6016 354.969 30.6302 355.109 30.6875C355.255 30.7448 355.375 30.8255 355.469 30.9297C355.568 31.0286 355.641 31.1458 355.688 31.2812C355.74 31.4167 355.766 31.5625 355.766 31.7188C355.766 31.8698 355.74 32.013 355.688 32.1484C355.641 32.2786 355.568 32.3932 355.469 32.4922C355.375 32.5911 355.255 32.6693 355.109 32.7266C354.969 32.7786 354.805 32.8047 354.617 32.8047C354.43 32.8047 354.266 32.7786 354.125 32.7266C353.984 32.6693 353.867 32.5911 353.773 32.4922C353.68 32.3932 353.607 32.2786 353.555 32.1484C353.508 32.013 353.484 31.8698 353.484 31.7188ZM374.859 27.6875H373.133V40.75H374.859V41.9375H371.766V26.5H374.859V27.6875ZM356.859 61.3594C356.521 61.349 356.214 61.2917 355.938 61.1875C355.661 61.0833 355.414 60.9427 355.195 60.7656C354.977 60.5885 354.786 60.3828 354.625 60.1484C354.469 59.9141 354.336 59.6615 354.227 59.3906C354.122 59.125 354.044 58.849 353.992 58.5625C353.94 58.2812 353.914 58.0026 353.914 57.7266V56.4062C353.914 55.6562 353.734 55.112 353.375 54.7734C353.021 54.4349 352.477 54.263 351.742 54.2578V53.125C352.477 53.125 353.021 52.9583 353.375 52.625C353.734 52.2865 353.914 51.7396 353.914 50.9844V49.6562C353.914 49.3802 353.938 49.1016 353.984 48.8203C354.031 48.5339 354.104 48.2578 354.203 47.9922C354.302 47.7214 354.427 47.4688 354.578 47.2344C354.734 47 354.922 46.7943 355.141 46.6172C355.359 46.4401 355.609 46.2995 355.891 46.1953C356.177 46.0911 356.5 46.0339 356.859 46.0234L357.023 46.9219C356.648 46.9323 356.349 47.0208 356.125 47.1875C355.906 47.3542 355.74 47.5677 355.625 47.8281C355.516 48.0833 355.445 48.3724 355.414 48.6953C355.383 49.0182 355.367 49.3385 355.367 49.6562V50.9844C355.362 51.6094 355.216 52.1589 354.93 52.6328C354.643 53.1016 354.198 53.4583 353.594 53.7031C354.198 53.9427 354.643 54.2995 354.93 54.7734C355.216 55.2422 355.362 55.7865 355.367 56.4062V57.7266C355.367 58.0495 355.393 58.3698 355.445 58.6875C355.497 59.0104 355.586 59.2995 355.711 59.5547C355.841 59.8151 356.01 60.0286 356.219 60.1953C356.432 60.362 356.701 60.4505 357.023 60.4609L356.859 61.3594ZM371.094 50.0469L371.195 51.2969C371.503 50.8594 371.88 50.5182 372.328 50.2734C372.776 50.0234 373.276 49.8958 373.828 49.8906C374.271 49.8906 374.672 49.9531 375.031 50.0781C375.396 50.2031 375.706 50.3984 375.961 50.6641C376.216 50.9297 376.411 51.2682 376.547 51.6797C376.688 52.0859 376.758 52.5703 376.758 53.1328V58.5H375.312V53.1641C375.312 52.7891 375.271 52.4714 375.188 52.2109C375.104 51.9505 374.979 51.7396 374.812 51.5781C374.651 51.4167 374.451 51.2995 374.211 51.2266C373.977 51.1536 373.706 51.1172 373.398 51.1172C372.914 51.1172 372.487 51.2396 372.117 51.4844C371.753 51.724 371.461 52.0417 371.242 52.4375V58.5H369.797V50.0469H371.094ZM379 54.1953C379 53.5859 379.089 53.0208 379.266 52.5C379.443 51.974 379.695 51.5182 380.023 51.1328C380.357 50.7474 380.76 50.4453 381.234 50.2266C381.708 50.0026 382.242 49.8906 382.836 49.8906C383.435 49.8906 383.971 50.0026 384.445 50.2266C384.924 50.4453 385.328 50.7474 385.656 51.1328C385.99 51.5182 386.245 51.974 386.422 52.5C386.599 53.0208 386.688 53.5859 386.688 54.1953V54.3672C386.688 54.9766 386.599 55.5417 386.422 56.0625C386.245 56.5833 385.99 57.0365 385.656 57.4219C385.328 57.8073 384.927 58.1094 384.453 58.3281C383.979 58.5469 383.445 58.6562 382.852 58.6562C382.253 58.6562 381.714 58.5469 381.234 58.3281C380.76 58.1094 380.357 57.8073 380.023 57.4219C379.695 57.0365 379.443 56.5833 379.266 56.0625C379.089 55.5417 379 54.9766 379 54.3672V54.1953ZM380.445 54.3672C380.445 54.7839 380.495 55.1823 380.594 55.5625C380.693 55.9375 380.841 56.2682 381.039 56.5547C381.242 56.8411 381.495 57.0677 381.797 57.2344C382.099 57.401 382.451 57.4844 382.852 57.4844C383.247 57.4844 383.594 57.401 383.891 57.2344C384.193 57.0677 384.443 56.8411 384.641 56.5547C384.844 56.2682 384.995 55.9375 385.094 55.5625C385.193 55.1823 385.242 54.7839 385.242 54.3672V54.1953C385.242 53.7839 385.19 53.3906 385.086 53.0156C384.987 52.6354 384.836 52.3021 384.633 52.0156C384.435 51.7292 384.185 51.5026 383.883 51.3359C383.586 51.1641 383.237 51.0781 382.836 51.0781C382.435 51.0781 382.086 51.1641 381.789 51.3359C381.492 51.5026 381.242 51.7292 381.039 52.0156C380.841 52.3021 380.693 52.6354 380.594 53.0156C380.495 53.3906 380.445 53.7839 380.445 54.1953V54.3672ZM388.742 54.2031C388.742 53.5729 388.82 52.9948 388.977 52.4688C389.138 51.9375 389.365 51.4818 389.656 51.1016C389.953 50.7214 390.31 50.4245 390.727 50.2109C391.143 49.9974 391.609 49.8906 392.125 49.8906C392.63 49.8906 393.07 49.9766 393.445 50.1484C393.826 50.3151 394.154 50.5599 394.43 50.8828V46.5H395.875V58.5H394.547L394.484 57.6094C394.203 57.9531 393.867 58.2135 393.477 58.3906C393.086 58.5677 392.63 58.6562 392.109 58.6562C391.599 58.6562 391.135 58.5469 390.719 58.3281C390.307 58.1094 389.956 57.8073 389.664 57.4219C389.372 57.0365 389.146 56.5833 388.984 56.0625C388.823 55.5365 388.742 54.9714 388.742 54.3672V54.2031ZM390.188 54.3672C390.188 54.7786 390.232 55.1693 390.32 55.5391C390.409 55.9089 390.544 56.2344 390.727 56.5156C390.914 56.7969 391.151 57.0208 391.438 57.1875C391.724 57.349 392.068 57.4297 392.469 57.4297C392.714 57.4297 392.935 57.401 393.133 57.3438C393.331 57.2865 393.51 57.2057 393.672 57.1016C393.833 56.9922 393.977 56.8646 394.102 56.7188C394.227 56.5677 394.336 56.401 394.43 56.2188V52.2969C394.242 51.9531 393.99 51.6719 393.672 51.4531C393.354 51.2292 392.958 51.1172 392.484 51.1172C392.078 51.1172 391.729 51.2005 391.438 51.3672C391.151 51.5339 390.914 51.7604 390.727 52.0469C390.544 52.3281 390.409 52.6562 390.32 53.0312C390.232 53.401 390.188 53.7917 390.188 54.2031V54.3672ZM402.359 58.6562C401.766 58.6562 401.219 58.5547 400.719 58.3516C400.224 58.1484 399.799 57.8646 399.445 57.5C399.091 57.1354 398.815 56.7031 398.617 56.2031C398.419 55.7031 398.32 55.1589 398.32 54.5703V54.2422C398.32 53.5599 398.43 52.9505 398.648 52.4141C398.867 51.8724 399.156 51.4167 399.516 51.0469C399.88 50.6719 400.292 50.3854 400.75 50.1875C401.214 49.9896 401.688 49.8906 402.172 49.8906C402.781 49.8906 403.312 49.9974 403.766 50.2109C404.224 50.4193 404.604 50.7109 404.906 51.0859C405.208 51.4557 405.432 51.8932 405.578 52.3984C405.729 52.9036 405.805 53.4505 405.805 54.0391V54.6875H399.766C399.781 55.0729 399.854 55.4349 399.984 55.7734C400.12 56.112 400.302 56.4089 400.531 56.6641C400.766 56.9141 401.044 57.112 401.367 57.2578C401.69 57.4036 402.047 57.4766 402.438 57.4766C402.953 57.4766 403.411 57.3724 403.812 57.1641C404.214 56.9557 404.547 56.6797 404.812 56.3359L405.695 57.0234C405.555 57.237 405.378 57.4427 405.164 57.6406C404.956 57.8333 404.714 58.0052 404.438 58.1562C404.161 58.3073 403.849 58.4271 403.5 58.5156C403.151 58.6094 402.771 58.6562 402.359 58.6562ZM402.172 51.0781C401.88 51.0781 401.604 51.1328 401.344 51.2422C401.083 51.3464 400.849 51.5026 400.641 51.7109C400.432 51.9141 400.255 52.1667 400.109 52.4688C399.969 52.7656 399.87 53.1094 399.812 53.5H404.359V53.3906C404.344 53.1094 404.289 52.8307 404.195 52.5547C404.107 52.2786 403.974 52.0312 403.797 51.8125C403.62 51.5938 403.396 51.4167 403.125 51.2812C402.859 51.1458 402.542 51.0781 402.172 51.0781ZM408.234 47.125H415.109V48.3828H412.383V57.25H415.109V58.5H408.234V57.25H410.898V48.3828H408.234V47.125ZM417.57 54.2031C417.57 53.5729 417.648 52.9948 417.805 52.4688C417.966 51.9375 418.193 51.4818 418.484 51.1016C418.781 50.7214 419.138 50.4245 419.555 50.2109C419.971 49.9974 420.438 49.8906 420.953 49.8906C421.458 49.8906 421.898 49.9766 422.273 50.1484C422.654 50.3151 422.982 50.5599 423.258 50.8828V46.5H424.703V58.5H423.375L423.312 57.6094C423.031 57.9531 422.695 58.2135 422.305 58.3906C421.914 58.5677 421.458 58.6562 420.938 58.6562C420.427 58.6562 419.964 58.5469 419.547 58.3281C419.135 58.1094 418.784 57.8073 418.492 57.4219C418.201 57.0365 417.974 56.5833 417.812 56.0625C417.651 55.5365 417.57 54.9714 417.57 54.3672V54.2031ZM419.016 54.3672C419.016 54.7786 419.06 55.1693 419.148 55.5391C419.237 55.9089 419.372 56.2344 419.555 56.5156C419.742 56.7969 419.979 57.0208 420.266 57.1875C420.552 57.349 420.896 57.4297 421.297 57.4297C421.542 57.4297 421.763 57.401 421.961 57.3438C422.159 57.2865 422.339 57.2057 422.5 57.1016C422.661 56.9922 422.805 56.8646 422.93 56.7188C423.055 56.5677 423.164 56.401 423.258 56.2188V52.2969C423.07 51.9531 422.818 51.6719 422.5 51.4531C422.182 51.2292 421.786 51.1172 421.312 51.1172C420.906 51.1172 420.557 51.2005 420.266 51.3672C419.979 51.5339 419.742 51.7604 419.555 52.0469C419.372 52.3281 419.237 52.6562 419.148 53.0312C419.06 53.401 419.016 53.7917 419.016 54.2031V54.3672ZM430.359 57.5625C430.359 57.4062 430.383 57.2604 430.43 57.125C430.482 56.9896 430.555 56.8724 430.648 56.7734C430.742 56.6693 430.859 56.5885 431 56.5312C431.141 56.474 431.305 56.4453 431.492 56.4453C431.68 56.4453 431.844 56.474 431.984 56.5312C432.13 56.5885 432.25 56.6693 432.344 56.7734C432.443 56.8724 432.516 56.9896 432.562 57.125C432.615 57.2604 432.641 57.4062 432.641 57.5625C432.641 57.7135 432.615 57.8568 432.562 57.9922C432.516 58.1224 432.443 58.237 432.344 58.3359C432.25 58.4349 432.13 58.5104 431.984 58.5625C431.844 58.6198 431.68 58.6484 431.492 58.6484C431.305 58.6484 431.141 58.6198 431 58.5625C430.859 58.5104 430.742 58.4349 430.648 58.3359C430.555 58.237 430.482 58.1224 430.43 57.9922C430.383 57.8568 430.359 57.7135 430.359 57.5625ZM430.359 50.7188C430.359 50.5625 430.383 50.4167 430.43 50.2812C430.482 50.1458 430.555 50.0286 430.648 49.9297C430.742 49.8255 430.859 49.7448 431 49.6875C431.141 49.6302 431.305 49.6016 431.492 49.6016C431.68 49.6016 431.844 49.6302 431.984 49.6875C432.13 49.7448 432.25 49.8255 432.344 49.9297C432.443 50.0286 432.516 50.1458 432.562 50.2812C432.615 50.4167 432.641 50.5625 432.641 50.7188C432.641 50.8698 432.615 51.013 432.562 51.1484C432.516 51.2786 432.443 51.3932 432.344 51.4922C432.25 51.5911 432.13 51.6693 431.984 51.7266C431.844 51.7786 431.68 51.8047 431.492 51.8047C431.305 51.8047 431.141 51.7786 431 51.7266C430.859 51.6693 430.742 51.5911 430.648 51.4922C430.555 51.3932 430.482 51.2786 430.43 51.1484C430.383 51.013 430.359 50.8698 430.359 50.7188ZM449.258 47.3516L449.094 50.2422H448.078L448.086 47.4766V46.5H449.258V47.3516ZM452.047 47.3516L451.883 50.2422H450.875L450.883 47.4766V46.5H452.055L452.047 47.3516ZM457.578 50.0469L457.68 51.2969C457.987 50.8594 458.365 50.5182 458.812 50.2734C459.26 50.0234 459.76 49.8958 460.312 49.8906C460.755 49.8906 461.156 49.9531 461.516 50.0781C461.88 50.2031 462.19 50.3984 462.445 50.6641C462.701 50.9297 462.896 51.2682 463.031 51.6797C463.172 52.0859 463.242 52.5703 463.242 53.1328V58.5H461.797V53.1641C461.797 52.7891 461.755 52.4714 461.672 52.2109C461.589 51.9505 461.464 51.7396 461.297 51.5781C461.135 51.4167 460.935 51.2995 460.695 51.2266C460.461 51.1536 460.19 51.1172 459.883 51.1172C459.398 51.1172 458.971 51.2396 458.602 51.4844C458.237 51.724 457.945 52.0417 457.727 52.4375V58.5H456.281V50.0469H457.578ZM471.75 54.6797H473.336V55.8594H471.75V58.5H470.305V55.8594H465.117V55.0078L470.211 47.125H471.75V54.6797ZM466.719 54.6797H470.305V49.0469L470.07 49.4844L466.719 54.6797ZM478.086 47.3516L477.922 50.2422H476.906L476.914 47.4766V46.5H478.086V47.3516ZM480.875 47.3516L480.711 50.2422H479.703L479.711 47.4766V46.5H480.883L480.875 47.3516ZM488.773 58.1641C488.773 58.4089 488.742 58.6641 488.68 58.9297C488.622 59.2005 488.534 59.4661 488.414 59.7266C488.299 59.9922 488.159 60.2448 487.992 60.4844C487.826 60.724 487.633 60.9375 487.414 61.125L486.516 60.6328C486.766 60.2682 486.943 59.8802 487.047 59.4688C487.151 59.0573 487.203 58.6302 487.203 58.1875V56.7891H488.773V58.1641ZM507.75 48V50.0469H510.969V51.1641H507.75V55.7578C507.75 56.0859 507.792 56.3568 507.875 56.5703C507.958 56.7839 508.073 56.9557 508.219 57.0859C508.365 57.2109 508.531 57.2995 508.719 57.3516C508.911 57.4036 509.115 57.4297 509.328 57.4297C509.484 57.4297 509.646 57.4219 509.812 57.4062C509.979 57.3854 510.141 57.362 510.297 57.3359C510.458 57.3099 510.607 57.2839 510.742 57.2578C510.883 57.2266 510.997 57.2005 511.086 57.1797L511.289 58.2031C511.169 58.276 511.023 58.3411 510.852 58.3984C510.68 58.4505 510.492 58.4948 510.289 58.5312C510.086 58.5729 509.87 58.6042 509.641 58.625C509.417 58.6458 509.193 58.6562 508.969 58.6562C508.594 58.6562 508.242 58.6042 507.914 58.5C507.591 58.3906 507.31 58.2214 507.07 57.9922C506.831 57.7578 506.641 57.4583 506.5 57.0938C506.365 56.724 506.297 56.2786 506.297 55.7578V51.1641H504.078V50.0469H506.297V48H507.75ZM516.844 57.5625C516.844 57.4062 516.867 57.2604 516.914 57.125C516.966 56.9896 517.039 56.8724 517.133 56.7734C517.227 56.6693 517.344 56.5885 517.484 56.5312C517.625 56.474 517.789 56.4453 517.977 56.4453C518.164 56.4453 518.328 56.474 518.469 56.5312C518.615 56.5885 518.734 56.6693 518.828 56.7734C518.927 56.8724 519 56.9896 519.047 57.125C519.099 57.2604 519.125 57.4062 519.125 57.5625C519.125 57.7135 519.099 57.8568 519.047 57.9922C519 58.1224 518.927 58.237 518.828 58.3359C518.734 58.4349 518.615 58.5104 518.469 58.5625C518.328 58.6198 518.164 58.6484 517.977 58.6484C517.789 58.6484 517.625 58.6198 517.484 58.5625C517.344 58.5104 517.227 58.4349 517.133 58.3359C517.039 58.237 516.966 58.1224 516.914 57.9922C516.867 57.8568 516.844 57.7135 516.844 57.5625ZM516.844 50.7188C516.844 50.5625 516.867 50.4167 516.914 50.2812C516.966 50.1458 517.039 50.0286 517.133 49.9297C517.227 49.8255 517.344 49.7448 517.484 49.6875C517.625 49.6302 517.789 49.6016 517.977 49.6016C518.164 49.6016 518.328 49.6302 518.469 49.6875C518.615 49.7448 518.734 49.8255 518.828 49.9297C518.927 50.0286 519 50.1458 519.047 50.2812C519.099 50.4167 519.125 50.5625 519.125 50.7188C519.125 50.8698 519.099 51.013 519.047 51.1484C519 51.2786 518.927 51.3932 518.828 51.4922C518.734 51.5911 518.615 51.6693 518.469 51.7266C518.328 51.7786 518.164 51.8047 517.977 51.8047C517.789 51.8047 517.625 51.7786 517.484 51.7266C517.344 51.6693 517.227 51.5911 517.133 51.4922C517.039 51.3932 516.966 51.2786 516.914 51.1484C516.867 51.013 516.844 50.8698 516.844 50.7188ZM540.297 54.1484C540.297 54.8724 540.214 55.5156 540.047 56.0781C539.88 56.6354 539.641 57.1068 539.328 57.4922C539.016 57.8724 538.633 58.1615 538.18 58.3594C537.727 58.5573 537.208 58.6562 536.625 58.6562C536.047 58.6562 535.529 58.5573 535.07 58.3594C534.617 58.1615 534.232 57.8724 533.914 57.4922C533.596 57.1068 533.352 56.6354 533.18 56.0781C533.013 55.5156 532.93 54.8724 532.93 54.1484V51.4844C532.93 50.7604 533.013 50.1198 533.18 49.5625C533.346 49 533.586 48.526 533.898 48.1406C534.216 47.7552 534.602 47.4635 535.055 47.2656C535.513 47.0625 536.031 46.9609 536.609 46.9609C537.193 46.9609 537.711 47.0625 538.164 47.2656C538.622 47.4635 539.008 47.7552 539.32 48.1406C539.638 48.526 539.88 49 540.047 49.5625C540.214 50.1198 540.297 50.7604 540.297 51.4844V54.1484ZM534.383 53.8594L538.812 50.4609C538.729 49.7057 538.508 49.1328 538.148 48.7422C537.794 48.3464 537.281 48.1484 536.609 48.1484C535.849 48.1484 535.286 48.4062 534.922 48.9219C534.562 49.4323 534.383 50.1797 534.383 51.1641V53.8594ZM538.844 51.8438L534.422 55.2266C534.51 55.9609 534.737 56.5208 535.102 56.9062C535.466 57.2917 535.974 57.4844 536.625 57.4844C537.391 57.4844 537.951 57.224 538.305 56.7031C538.664 56.1823 538.844 55.4323 538.844 54.4531V51.8438ZM545.281 57.5625C545.281 57.4062 545.305 57.2604 545.352 57.125C545.404 56.9896 545.477 56.8724 545.57 56.7734C545.664 56.6693 545.781 56.5885 545.922 56.5312C546.062 56.474 546.227 56.4453 546.414 56.4453C546.602 56.4453 546.766 56.474 546.906 56.5312C547.052 56.5885 547.172 56.6693 547.266 56.7734C547.365 56.8724 547.438 56.9896 547.484 57.125C547.536 57.2604 547.562 57.4062 547.562 57.5625C547.562 57.7135 547.536 57.8568 547.484 57.9922C547.438 58.1224 547.365 58.237 547.266 58.3359C547.172 58.4349 547.052 58.5104 546.906 58.5625C546.766 58.6198 546.602 58.6484 546.414 58.6484C546.227 58.6484 546.062 58.6198 545.922 58.5625C545.781 58.5104 545.664 58.4349 545.57 58.3359C545.477 58.237 545.404 58.1224 545.352 57.9922C545.305 57.8568 545.281 57.7135 545.281 57.5625ZM559.352 58.5H551.898V57.4609L555.625 53.3203C555.958 52.9505 556.237 52.6224 556.461 52.3359C556.685 52.0495 556.865 51.7865 557 51.5469C557.135 51.3021 557.232 51.0729 557.289 50.8594C557.346 50.6406 557.375 50.4167 557.375 50.1875C557.375 49.9062 557.328 49.6432 557.234 49.3984C557.146 49.1484 557.013 48.9323 556.836 48.75C556.664 48.5677 556.453 48.4245 556.203 48.3203C555.958 48.2109 555.68 48.1562 555.367 48.1562C554.987 48.1562 554.656 48.2109 554.375 48.3203C554.099 48.4297 553.867 48.5859 553.68 48.7891C553.497 48.987 553.359 49.2292 553.266 49.5156C553.177 49.8021 553.133 50.1224 553.133 50.4766H551.68C551.68 49.9974 551.763 49.5469 551.93 49.125C552.096 48.6979 552.336 48.3255 552.648 48.0078C552.966 47.6901 553.352 47.4375 553.805 47.25C554.263 47.0625 554.784 46.9688 555.367 46.9688C555.904 46.9688 556.385 47.0495 556.812 47.2109C557.245 47.3672 557.609 47.5859 557.906 47.8672C558.203 48.1484 558.43 48.4818 558.586 48.8672C558.747 49.2526 558.828 49.6719 558.828 50.125C558.828 50.4635 558.771 50.7995 558.656 51.1328C558.542 51.4609 558.385 51.7865 558.188 52.1094C557.995 52.4323 557.768 52.7526 557.508 53.0703C557.253 53.3828 556.982 53.6953 556.695 54.0078L553.641 57.3203H559.352V58.5ZM562.5 52.7969L563.07 47.125H568.906V48.5312H564.289L563.969 51.5625C564.193 51.4323 564.461 51.3177 564.773 51.2188C565.086 51.1198 565.448 51.0703 565.859 51.0703C566.385 51.0703 566.857 51.1615 567.273 51.3438C567.69 51.526 568.044 51.7839 568.336 52.1172C568.628 52.4453 568.852 52.8438 569.008 53.3125C569.164 53.7812 569.242 54.3021 569.242 54.875C569.242 55.4167 569.169 55.9193 569.023 56.3828C568.878 56.8464 568.656 57.2474 568.359 57.5859C568.068 57.9193 567.698 58.1823 567.25 58.375C566.802 58.5625 566.276 58.6562 565.672 58.6562C565.208 58.6562 564.771 58.5911 564.359 58.4609C563.948 58.3307 563.581 58.1354 563.258 57.875C562.94 57.6146 562.677 57.2865 562.469 56.8906C562.266 56.4948 562.138 56.0339 562.086 55.5078H563.461C563.549 56.1536 563.786 56.6432 564.172 56.9766C564.562 57.3099 565.062 57.4766 565.672 57.4766C566.016 57.4766 566.32 57.4167 566.586 57.2969C566.852 57.1719 567.073 56.9974 567.25 56.7734C567.432 56.5443 567.568 56.2708 567.656 55.9531C567.75 55.6354 567.797 55.2812 567.797 54.8906C567.797 54.5365 567.745 54.2057 567.641 53.8984C567.542 53.5911 567.396 53.3255 567.203 53.1016C567.01 52.8724 566.773 52.6927 566.492 52.5625C566.211 52.4323 565.888 52.3672 565.523 52.3672C565.284 52.3672 565.076 52.3854 564.898 52.4219C564.727 52.4531 564.57 52.5 564.43 52.5625C564.289 52.625 564.156 52.7005 564.031 52.7891C563.911 52.8776 563.786 52.9792 563.656 53.0938L562.5 52.7969ZM582.367 60.4609C582.685 60.4505 582.951 60.362 583.164 60.1953C583.378 60.0286 583.547 59.8151 583.672 59.5547C583.802 59.2995 583.893 59.0104 583.945 58.6875C584.003 58.3698 584.031 58.0495 584.031 57.7266V56.4062C584.031 55.7865 584.174 55.2422 584.461 54.7734C584.747 54.2995 585.193 53.9427 585.797 53.7031C585.193 53.4583 584.747 53.1016 584.461 52.6328C584.174 52.1589 584.031 51.6094 584.031 50.9844V49.6562C584.031 49.3385 584.013 49.0182 583.977 48.6953C583.945 48.3724 583.872 48.0833 583.758 47.8281C583.648 47.5677 583.484 47.3542 583.266 47.1875C583.047 47.0208 582.75 46.9323 582.375 46.9219L582.531 46.0234C582.891 46.0339 583.211 46.0911 583.492 46.1953C583.779 46.2995 584.031 46.4401 584.25 46.6172C584.469 46.7943 584.654 47 584.805 47.2344C584.961 47.4688 585.089 47.7214 585.188 47.9922C585.286 48.2578 585.359 48.5339 585.406 48.8203C585.453 49.1016 585.477 49.3802 585.477 49.6562V50.9844C585.477 51.7396 585.656 52.2865 586.016 52.625C586.375 52.9583 586.919 53.125 587.648 53.125V54.2578C586.919 54.263 586.375 54.4349 586.016 54.7734C585.656 55.112 585.477 55.6562 585.477 56.4062V57.7266C585.477 58.1432 585.419 58.5625 585.305 58.9844C585.19 59.4115 585.01 59.7995 584.766 60.1484C584.526 60.4974 584.221 60.7839 583.852 61.0078C583.482 61.2318 583.042 61.349 582.531 61.3594L582.367 60.4609ZM594.477 58.1641C594.477 58.4089 594.445 58.6641 594.383 58.9297C594.326 59.2005 594.237 59.4661 594.117 59.7266C594.003 59.9922 593.862 60.2448 593.695 60.4844C593.529 60.724 593.336 60.9375 593.117 61.125L592.219 60.6328C592.469 60.2682 592.646 59.8802 592.75 59.4688C592.854 59.0573 592.906 58.6302 592.906 58.1875V56.7891H594.477V58.1641ZM356.562 80.3125C356.219 80.3125 355.906 80.2604 355.625 80.1562C355.344 80.0521 355.091 79.9115 354.867 79.7344C354.648 79.5573 354.458 79.349 354.297 79.1094C354.141 78.8698 354.008 78.6146 353.898 78.3438C353.794 78.0729 353.716 77.7943 353.664 77.5078C353.617 77.2266 353.594 76.9479 353.594 76.6719V75.3984C353.594 74.7057 353.432 74.2083 353.109 73.9062C352.786 73.6042 352.294 73.4531 351.633 73.4531V71.8906C352.294 71.8906 352.786 71.7396 353.109 71.4375C353.432 71.1354 353.594 70.6328 353.594 69.9297V68.6562C353.594 68.3854 353.615 68.1068 353.656 67.8203C353.703 67.5339 353.776 67.2552 353.875 66.9844C353.974 66.7135 354.099 66.4609 354.25 66.2266C354.406 65.987 354.594 65.7786 354.812 65.6016C355.036 65.4245 355.292 65.2839 355.578 65.1797C355.87 65.0755 356.198 65.0234 356.562 65.0234L356.828 66.25C356.51 66.2396 356.266 66.3073 356.094 66.4531C355.922 66.5938 355.797 66.7812 355.719 67.0156C355.641 67.25 355.594 67.513 355.578 67.8047C355.568 68.0911 355.562 68.375 355.562 68.6562V69.9297C355.562 70.5495 355.409 71.099 355.102 71.5781C354.799 72.0573 354.328 72.4219 353.688 72.6719C354.333 72.9219 354.807 73.2839 355.109 73.7578C355.411 74.2318 355.562 74.7786 355.562 75.3984V76.6719C355.562 76.9531 355.578 77.237 355.609 77.5234C355.646 77.8151 355.711 78.0781 355.805 78.3125C355.898 78.5469 356.026 78.7344 356.188 78.875C356.354 79.0208 356.568 79.0885 356.828 79.0781L356.562 80.3125ZM371.508 69.0469L371.641 70.2188C371.943 69.7969 372.31 69.4714 372.742 69.2422C373.174 69.0078 373.654 68.8906 374.18 68.8906C374.607 68.8906 374.997 68.9531 375.352 69.0781C375.706 69.2031 376.01 69.4036 376.266 69.6797C376.526 69.9505 376.727 70.3021 376.867 70.7344C377.013 71.1615 377.086 71.6823 377.086 72.2969V77.5H374.914V72.3281C374.914 71.9948 374.875 71.7214 374.797 71.5078C374.724 71.2891 374.617 71.1172 374.477 70.9922C374.336 70.8672 374.167 70.7812 373.969 70.7344C373.771 70.6823 373.547 70.6562 373.297 70.6562C372.927 70.6562 372.612 70.7318 372.352 70.8828C372.091 71.0286 371.88 71.2318 371.719 71.4922V77.5H369.539V69.0469H371.508ZM378.852 73.1953C378.852 72.5807 378.94 72.013 379.117 71.4922C379.294 70.9661 379.552 70.5104 379.891 70.125C380.234 69.7396 380.651 69.4375 381.141 69.2188C381.635 69 382.201 68.8906 382.836 68.8906C383.471 68.8906 384.036 69 384.531 69.2188C385.026 69.4375 385.443 69.7396 385.781 70.125C386.125 70.5104 386.385 70.9661 386.562 71.4922C386.74 72.013 386.828 72.5807 386.828 73.1953V73.3594C386.828 73.9792 386.74 74.5521 386.562 75.0781C386.385 75.599 386.128 76.0521 385.789 76.4375C385.451 76.8229 385.034 77.125 384.539 77.3438C384.044 77.5573 383.482 77.6641 382.852 77.6641C382.216 77.6641 381.648 77.5573 381.148 77.3438C380.654 77.125 380.234 76.8229 379.891 76.4375C379.552 76.0521 379.294 75.599 379.117 75.0781C378.94 74.5521 378.852 73.9792 378.852 73.3594V73.1953ZM381.023 73.3594C381.023 73.7135 381.057 74.0469 381.125 74.3594C381.193 74.6667 381.299 74.9375 381.445 75.1719C381.591 75.401 381.779 75.5833 382.008 75.7188C382.242 75.8542 382.523 75.9219 382.852 75.9219C383.169 75.9219 383.443 75.8542 383.672 75.7188C383.901 75.5833 384.086 75.401 384.227 75.1719C384.372 74.9375 384.479 74.6667 384.547 74.3594C384.615 74.0469 384.648 73.7135 384.648 73.3594V73.1953C384.648 72.8516 384.615 72.526 384.547 72.2188C384.479 71.9115 384.372 71.6406 384.227 71.4062C384.086 71.1719 383.901 70.987 383.672 70.8516C383.443 70.7161 383.164 70.6484 382.836 70.6484C382.513 70.6484 382.237 70.7161 382.008 70.8516C381.779 70.987 381.591 71.1719 381.445 71.4062C381.299 71.6406 381.193 71.9115 381.125 72.2188C381.057 72.526 381.023 72.8516 381.023 73.1953V73.3594ZM388.531 73.2109C388.531 72.5703 388.604 71.9844 388.75 71.4531C388.901 70.9219 389.12 70.4661 389.406 70.0859C389.693 69.7057 390.039 69.4115 390.445 69.2031C390.857 68.9948 391.326 68.8906 391.852 68.8906C392.294 68.8906 392.682 68.9714 393.016 69.1328C393.354 69.2891 393.654 69.513 393.914 69.8047V65.5H396.094V77.5H394.133L394.023 76.6172C393.758 76.9453 393.445 77.2005 393.086 77.3828C392.727 77.5651 392.31 77.6562 391.836 77.6562C391.32 77.6562 390.857 77.5495 390.445 77.3359C390.039 77.1172 389.693 76.8177 389.406 76.4375C389.125 76.0573 388.909 75.6068 388.758 75.0859C388.607 74.5599 388.531 73.9896 388.531 73.375V73.2109ZM390.703 73.375C390.703 73.7292 390.732 74.0599 390.789 74.3672C390.852 74.6693 390.951 74.9349 391.086 75.1641C391.221 75.388 391.396 75.5651 391.609 75.6953C391.823 75.8255 392.083 75.8906 392.391 75.8906C392.766 75.8906 393.076 75.8099 393.32 75.6484C393.57 75.487 393.768 75.2656 393.914 74.9844V71.5625C393.768 71.276 393.573 71.0547 393.328 70.8984C393.083 70.737 392.776 70.6562 392.406 70.6562C392.099 70.6562 391.836 70.724 391.617 70.8594C391.404 70.9896 391.229 71.1719 391.094 71.4062C390.958 71.6354 390.859 71.9062 390.797 72.2188C390.734 72.526 390.703 72.8568 390.703 73.2109V73.375ZM402.469 77.6562C401.818 77.6562 401.227 77.5495 400.695 77.3359C400.164 77.1224 399.708 76.8333 399.328 76.4688C398.948 76.099 398.654 75.6667 398.445 75.1719C398.242 74.6719 398.141 74.138 398.141 73.5703V73.2578C398.141 72.612 398.242 72.0234 398.445 71.4922C398.648 70.9557 398.932 70.4948 399.297 70.1094C399.661 69.724 400.094 69.4245 400.594 69.2109C401.094 68.9974 401.638 68.8906 402.227 68.8906C402.836 68.8906 403.378 68.9922 403.852 69.1953C404.331 69.3932 404.734 69.6745 405.062 70.0391C405.396 70.4036 405.648 70.8438 405.82 71.3594C405.992 71.8698 406.078 72.4349 406.078 73.0547V73.9766H400.344C400.385 74.263 400.469 74.526 400.594 74.7656C400.724 75 400.888 75.2031 401.086 75.375C401.284 75.5469 401.51 75.6797 401.766 75.7734C402.021 75.8672 402.299 75.9141 402.602 75.9141C402.815 75.9141 403.026 75.8932 403.234 75.8516C403.448 75.8099 403.651 75.75 403.844 75.6719C404.036 75.5885 404.216 75.487 404.383 75.3672C404.549 75.2474 404.695 75.1068 404.82 74.9453L405.906 76.1172C405.771 76.3099 405.594 76.5 405.375 76.6875C405.161 76.8698 404.906 77.0339 404.609 77.1797C404.318 77.3203 403.992 77.4349 403.633 77.5234C403.273 77.612 402.885 77.6562 402.469 77.6562ZM402.211 70.6484C401.966 70.6484 401.742 70.6927 401.539 70.7812C401.336 70.8646 401.156 70.987 401 71.1484C400.849 71.3099 400.721 71.5026 400.617 71.7266C400.513 71.9505 400.435 72.2005 400.383 72.4766H403.945V72.3047C403.935 72.0755 403.891 71.8594 403.812 71.6562C403.734 71.4531 403.622 71.2786 403.477 71.1328C403.331 70.9818 403.151 70.8646 402.938 70.7812C402.729 70.6927 402.487 70.6484 402.211 70.6484ZM408.383 66.125H414.961V67.8984H412.742V75.7344H414.961V77.5H408.383V75.7344H410.547V67.8984H408.383V66.125ZM417.359 73.2109C417.359 72.5703 417.432 71.9844 417.578 71.4531C417.729 70.9219 417.948 70.4661 418.234 70.0859C418.521 69.7057 418.867 69.4115 419.273 69.2031C419.685 68.9948 420.154 68.8906 420.68 68.8906C421.122 68.8906 421.51 68.9714 421.844 69.1328C422.182 69.2891 422.482 69.513 422.742 69.8047V65.5H424.922V77.5H422.961L422.852 76.6172C422.586 76.9453 422.273 77.2005 421.914 77.3828C421.555 77.5651 421.138 77.6562 420.664 77.6562C420.148 77.6562 419.685 77.5495 419.273 77.3359C418.867 77.1172 418.521 76.8177 418.234 76.4375C417.953 76.0573 417.737 75.6068 417.586 75.0859C417.435 74.5599 417.359 73.9896 417.359 73.375V73.2109ZM419.531 73.375C419.531 73.7292 419.56 74.0599 419.617 74.3672C419.68 74.6693 419.779 74.9349 419.914 75.1641C420.049 75.388 420.224 75.5651 420.438 75.6953C420.651 75.8255 420.911 75.8906 421.219 75.8906C421.594 75.8906 421.904 75.8099 422.148 75.6484C422.398 75.487 422.596 75.2656 422.742 74.9844V71.5625C422.596 71.276 422.401 71.0547 422.156 70.8984C421.911 70.737 421.604 70.6562 421.234 70.6562C420.927 70.6562 420.664 70.724 420.445 70.8594C420.232 70.9896 420.057 71.1719 419.922 71.4062C419.786 71.6354 419.688 71.9062 419.625 72.2188C419.562 72.526 419.531 72.8568 419.531 73.2109V73.375ZM429.5 76.2422C429.5 76.0391 429.534 75.8516 429.602 75.6797C429.669 75.5026 429.768 75.3516 429.898 75.2266C430.029 75.0964 430.188 74.9948 430.375 74.9219C430.562 74.8438 430.773 74.8047 431.008 74.8047C431.242 74.8047 431.453 74.8438 431.641 74.9219C431.828 74.9948 431.984 75.0964 432.109 75.2266C432.24 75.3516 432.339 75.5026 432.406 75.6797C432.479 75.8516 432.516 76.0391 432.516 76.2422C432.516 76.4401 432.479 76.625 432.406 76.7969C432.339 76.9688 432.24 77.1198 432.109 77.25C431.984 77.375 431.828 77.474 431.641 77.5469C431.453 77.6198 431.242 77.6562 431.008 77.6562C430.773 77.6562 430.562 77.6198 430.375 77.5469C430.188 77.474 430.029 77.375 429.898 77.25C429.768 77.1198 429.669 76.9688 429.602 76.7969C429.534 76.625 429.5 76.4401 429.5 76.2422ZM429.5 69.7891C429.5 69.5859 429.534 69.3984 429.602 69.2266C429.669 69.0495 429.768 68.8984 429.898 68.7734C430.029 68.6432 430.188 68.5417 430.375 68.4688C430.562 68.3906 430.773 68.3516 431.008 68.3516C431.242 68.3516 431.453 68.3906 431.641 68.4688C431.828 68.5417 431.984 68.6432 432.109 68.7734C432.24 68.8984 432.339 69.0495 432.406 69.2266C432.479 69.3984 432.516 69.5859 432.516 69.7891C432.516 69.987 432.479 70.1719 432.406 70.3438C432.339 70.5156 432.24 70.6667 432.109 70.7969C431.984 70.9219 431.828 71.0208 431.641 71.0938C431.453 71.1667 431.242 71.2031 431.008 71.2031C430.773 71.2031 430.562 71.1667 430.375 71.0938C430.188 71.0208 430.029 70.9219 429.898 70.7969C429.768 70.6667 429.669 70.5156 429.602 70.3438C429.534 70.1719 429.5 69.987 429.5 69.7891ZM449.117 66.3438L448.891 69.625H447.508V65.5H449.117V66.3438ZM452.328 66.3438L452.109 69.625H450.727V65.5H452.328V66.3438ZM457.992 69.0469L458.125 70.2188C458.427 69.7969 458.794 69.4714 459.227 69.2422C459.659 69.0078 460.138 68.8906 460.664 68.8906C461.091 68.8906 461.482 68.9531 461.836 69.0781C462.19 69.2031 462.495 69.4036 462.75 69.6797C463.01 69.9505 463.211 70.3021 463.352 70.7344C463.497 71.1615 463.57 71.6823 463.57 72.2969V77.5H461.398V72.3281C461.398 71.9948 461.359 71.7214 461.281 71.5078C461.208 71.2891 461.102 71.1172 460.961 70.9922C460.82 70.8672 460.651 70.7812 460.453 70.7344C460.255 70.6823 460.031 70.6562 459.781 70.6562C459.411 70.6562 459.096 70.7318 458.836 70.8828C458.576 71.0286 458.365 71.2318 458.203 71.4922V77.5H456.023V69.0469H457.992ZM465.742 71.8984L466.391 66.125H472.703V67.9688H468.18L467.906 70.4688C468.068 70.375 468.297 70.2786 468.594 70.1797C468.891 70.0807 469.232 70.0312 469.617 70.0312C470.164 70.0312 470.651 70.1198 471.078 70.2969C471.51 70.4688 471.872 70.7188 472.164 71.0469C472.461 71.375 472.688 71.776 472.844 72.25C473 72.724 473.078 73.2604 473.078 73.8594C473.078 74.3698 473.003 74.8542 472.852 75.3125C472.701 75.7708 472.469 76.1745 472.156 76.5234C471.844 76.8724 471.451 77.1484 470.977 77.3516C470.503 77.5547 469.943 77.6562 469.297 77.6562C468.807 77.6562 468.333 77.5833 467.875 77.4375C467.422 77.2917 467.018 77.0781 466.664 76.7969C466.31 76.5156 466.021 76.1719 465.797 75.7656C465.578 75.3542 465.461 74.8854 465.445 74.3594H467.586C467.638 74.8542 467.815 75.237 468.117 75.5078C468.424 75.7786 468.815 75.9141 469.289 75.9141C469.581 75.9141 469.828 75.8594 470.031 75.75C470.24 75.6406 470.406 75.4896 470.531 75.2969C470.661 75.1042 470.755 74.875 470.812 74.6094C470.875 74.3438 470.906 74.0573 470.906 73.75C470.906 73.4479 470.867 73.1719 470.789 72.9219C470.716 72.6667 470.602 72.4479 470.445 72.2656C470.289 72.0833 470.094 71.9427 469.859 71.8438C469.625 71.7448 469.349 71.6953 469.031 71.6953C468.818 71.6953 468.633 71.7135 468.477 71.75C468.32 71.7865 468.182 71.8333 468.062 71.8906C467.943 71.9479 467.836 72.0156 467.742 72.0938C467.648 72.1667 467.56 72.2448 467.477 72.3281L465.742 71.8984ZM477.945 66.3438L477.719 69.625H476.336V65.5H477.945V66.3438ZM481.156 66.3438L480.938 69.625H479.555V65.5H481.156V66.3438ZM489.297 77.3281C489.297 77.625 489.255 77.9297 489.172 78.2422C489.094 78.5547 488.984 78.8568 488.844 79.1484C488.703 79.4401 488.534 79.7161 488.336 79.9766C488.143 80.237 487.935 80.4688 487.711 80.6719L486.562 80.0781C486.661 79.8906 486.753 79.7005 486.836 79.5078C486.924 79.3151 487 79.112 487.062 78.8984C487.125 78.6849 487.174 78.4583 487.211 78.2188C487.247 77.9792 487.266 77.7161 487.266 77.4297V75.6016H489.305L489.297 77.3281ZM508.055 66.9766V69.0469H511.211V70.6484H508.055V74.2812C508.055 74.5885 508.089 74.8464 508.156 75.0547C508.229 75.2578 508.331 75.4219 508.461 75.5469C508.591 75.6667 508.747 75.7526 508.93 75.8047C509.117 75.8568 509.326 75.8828 509.555 75.8828C509.721 75.8828 509.891 75.875 510.062 75.8594C510.24 75.8438 510.406 75.8255 510.562 75.8047C510.724 75.7786 510.872 75.7526 511.008 75.7266C511.148 75.7005 511.268 75.6745 511.367 75.6484L511.578 77.1406C511.427 77.2292 511.25 77.3073 511.047 77.375C510.844 77.4375 510.628 77.4896 510.398 77.5312C510.169 77.5729 509.93 77.6042 509.68 77.625C509.435 77.651 509.193 77.6641 508.953 77.6641C508.49 77.6641 508.068 77.6042 507.688 77.4844C507.312 77.3594 506.99 77.1693 506.719 76.9141C506.453 76.6536 506.247 76.3255 506.102 75.9297C505.956 75.5286 505.883 75.0495 505.883 74.4922V70.6484H503.953V69.0469H505.883V66.9766H508.055ZM515.984 76.2422C515.984 76.0391 516.018 75.8516 516.086 75.6797C516.154 75.5026 516.253 75.3516 516.383 75.2266C516.513 75.0964 516.672 74.9948 516.859 74.9219C517.047 74.8438 517.258 74.8047 517.492 74.8047C517.727 74.8047 517.938 74.8438 518.125 74.9219C518.312 74.9948 518.469 75.0964 518.594 75.2266C518.724 75.3516 518.823 75.5026 518.891 75.6797C518.964 75.8516 519 76.0391 519 76.2422C519 76.4401 518.964 76.625 518.891 76.7969C518.823 76.9688 518.724 77.1198 518.594 77.25C518.469 77.375 518.312 77.474 518.125 77.5469C517.938 77.6198 517.727 77.6562 517.492 77.6562C517.258 77.6562 517.047 77.6198 516.859 77.5469C516.672 77.474 516.513 77.375 516.383 77.25C516.253 77.1198 516.154 76.9688 516.086 76.7969C516.018 76.625 515.984 76.4401 515.984 76.2422ZM515.984 69.7891C515.984 69.5859 516.018 69.3984 516.086 69.2266C516.154 69.0495 516.253 68.8984 516.383 68.7734C516.513 68.6432 516.672 68.5417 516.859 68.4688C517.047 68.3906 517.258 68.3516 517.492 68.3516C517.727 68.3516 517.938 68.3906 518.125 68.4688C518.312 68.5417 518.469 68.6432 518.594 68.7734C518.724 68.8984 518.823 69.0495 518.891 69.2266C518.964 69.3984 519 69.5859 519 69.7891C519 69.987 518.964 70.1719 518.891 70.3438C518.823 70.5156 518.724 70.6667 518.594 70.7969C518.469 70.9219 518.312 71.0208 518.125 71.0938C517.938 71.1667 517.727 71.2031 517.492 71.2031C517.258 71.2031 517.047 71.1667 516.859 71.0938C516.672 71.0208 516.513 70.9219 516.383 70.7969C516.253 70.6667 516.154 70.5156 516.086 70.3438C516.018 70.1719 515.984 69.987 515.984 69.7891ZM540.305 73.1719C540.305 73.9062 540.219 74.5547 540.047 75.1172C539.88 75.6745 539.638 76.1432 539.32 76.5234C539.003 76.8984 538.615 77.1823 538.156 77.375C537.698 77.5677 537.182 77.6641 536.609 77.6641C536.042 77.6641 535.529 77.5677 535.07 77.375C534.612 77.1823 534.221 76.8984 533.898 76.5234C533.581 76.1432 533.333 75.6745 533.156 75.1172C532.984 74.5547 532.898 73.9062 532.898 73.1719V70.4531C532.898 69.7188 532.984 69.0729 533.156 68.5156C533.328 67.9531 533.573 67.4844 533.891 67.1094C534.214 66.7292 534.602 66.4427 535.055 66.25C535.513 66.0573 536.026 65.9609 536.594 65.9609C537.167 65.9609 537.682 66.0573 538.141 66.25C538.599 66.4427 538.987 66.7292 539.305 67.1094C539.628 67.4844 539.875 67.9531 540.047 68.5156C540.219 69.0729 540.305 69.7188 540.305 70.4531V73.1719ZM535.086 72.2344L538.117 69.9766C538.102 69.2109 537.969 68.6432 537.719 68.2734C537.469 67.9036 537.094 67.7188 536.594 67.7188C536.089 67.7188 535.711 67.9141 535.461 68.3047C535.211 68.6953 535.086 69.2969 535.086 70.1094V72.2344ZM538.117 71.4531L535.086 73.7031C535.112 74.4531 535.25 75.0104 535.5 75.375C535.75 75.7344 536.12 75.9141 536.609 75.9141C537.12 75.9141 537.497 75.7161 537.742 75.3203C537.992 74.9245 538.117 74.3177 538.117 73.5V71.4531ZM544.703 76.2422C544.703 76.0391 544.737 75.8516 544.805 75.6797C544.872 75.5026 544.971 75.3516 545.102 75.2266C545.232 75.0964 545.391 74.9948 545.578 74.9219C545.766 74.8438 545.977 74.8047 546.211 74.8047C546.445 74.8047 546.656 74.8438 546.844 74.9219C547.031 74.9948 547.188 75.0964 547.312 75.2266C547.443 75.3516 547.542 75.5026 547.609 75.6797C547.682 75.8516 547.719 76.0391 547.719 76.2422C547.719 76.4401 547.682 76.625 547.609 76.7969C547.542 76.9688 547.443 77.1198 547.312 77.25C547.188 77.375 547.031 77.474 546.844 77.5469C546.656 77.6198 546.445 77.6562 546.211 77.6562C545.977 77.6562 545.766 77.6198 545.578 77.5469C545.391 77.474 545.232 77.375 545.102 77.25C544.971 77.1198 544.872 76.9688 544.805 76.7969C544.737 76.625 544.703 76.4401 544.703 76.2422ZM559.547 67.3359L555.117 77.5H552.828L557.266 67.8984H551.555V66.125H559.547V67.3359ZM561.836 71.8984L562.484 66.125H568.797V67.9688H564.273L564 70.4688C564.161 70.375 564.391 70.2786 564.688 70.1797C564.984 70.0807 565.326 70.0312 565.711 70.0312C566.258 70.0312 566.745 70.1198 567.172 70.2969C567.604 70.4688 567.966 70.7188 568.258 71.0469C568.555 71.375 568.781 71.776 568.938 72.25C569.094 72.724 569.172 73.2604 569.172 73.8594C569.172 74.3698 569.096 74.8542 568.945 75.3125C568.794 75.7708 568.562 76.1745 568.25 76.5234C567.938 76.8724 567.544 77.1484 567.07 77.3516C566.596 77.5547 566.036 77.6562 565.391 77.6562C564.901 77.6562 564.427 77.5833 563.969 77.4375C563.516 77.2917 563.112 77.0781 562.758 76.7969C562.404 76.5156 562.115 76.1719 561.891 75.7656C561.672 75.3542 561.555 74.8854 561.539 74.3594H563.68C563.732 74.8542 563.909 75.237 564.211 75.5078C564.518 75.7786 564.909 75.9141 565.383 75.9141C565.674 75.9141 565.922 75.8594 566.125 75.75C566.333 75.6406 566.5 75.4896 566.625 75.2969C566.755 75.1042 566.849 74.875 566.906 74.6094C566.969 74.3438 567 74.0573 567 73.75C567 73.4479 566.961 73.1719 566.883 72.9219C566.81 72.6667 566.695 72.4479 566.539 72.2656C566.383 72.0833 566.188 71.9427 565.953 71.8438C565.719 71.7448 565.443 71.6953 565.125 71.6953C564.911 71.6953 564.727 71.7135 564.57 71.75C564.414 71.7865 564.276 71.8333 564.156 71.8906C564.036 71.9479 563.93 72.0156 563.836 72.0938C563.742 72.1667 563.654 72.2448 563.57 72.3281L561.836 71.8984ZM582.438 79.0781C582.693 79.0885 582.901 79.0208 583.062 78.875C583.229 78.7344 583.359 78.5469 583.453 78.3125C583.547 78.0781 583.612 77.8151 583.648 77.5234C583.685 77.237 583.703 76.9531 583.703 76.6719V75.3984C583.703 75.0964 583.737 74.8099 583.805 74.5391C583.878 74.2682 583.987 74.0156 584.133 73.7812C584.279 73.5469 584.461 73.3385 584.68 73.1562C584.904 72.9688 585.169 72.8099 585.477 72.6797C584.867 72.4193 584.419 72.0469 584.133 71.5625C583.846 71.0781 583.703 70.5339 583.703 69.9297V68.6562C583.703 68.375 583.695 68.0911 583.68 67.8047C583.669 67.513 583.625 67.25 583.547 67.0156C583.469 66.7812 583.344 66.5938 583.172 66.4531C583 66.3073 582.755 66.2396 582.438 66.25L582.703 65.0234C583.068 65.0234 583.393 65.0755 583.68 65.1797C583.971 65.2839 584.227 65.4245 584.445 65.6016C584.664 65.7786 584.852 65.987 585.008 66.2266C585.164 66.4609 585.292 66.7135 585.391 66.9844C585.49 67.2552 585.56 67.5339 585.602 67.8203C585.648 68.1068 585.672 68.3854 585.672 68.6562V69.9297C585.672 70.6328 585.831 71.1354 586.148 71.4375C586.471 71.7396 586.966 71.8906 587.633 71.8906V73.4531C586.966 73.4531 586.471 73.6042 586.148 73.9062C585.831 74.2083 585.672 74.7057 585.672 75.3984V76.6719C585.672 76.9427 585.646 77.2214 585.594 77.5078C585.542 77.7943 585.464 78.0729 585.359 78.3438C585.255 78.6146 585.122 78.8698 584.961 79.1094C584.799 79.349 584.609 79.5573 584.391 79.7344C584.172 79.9115 583.922 80.0521 583.641 80.1562C583.359 80.2604 583.047 80.3125 582.703 80.3125L582.438 79.0781ZM595 77.3281C595 77.625 594.958 77.9297 594.875 78.2422C594.797 78.5547 594.688 78.8568 594.547 79.1484C594.406 79.4401 594.237 79.7161 594.039 79.9766C593.846 80.237 593.638 80.4688 593.414 80.6719L592.266 80.0781C592.365 79.8906 592.456 79.7005 592.539 79.5078C592.628 79.3151 592.703 79.112 592.766 78.8984C592.828 78.6849 592.878 78.4583 592.914 78.2188C592.951 77.9792 592.969 77.7161 592.969 77.4297V75.6016H595.008L595 77.3281ZM333.164 83.5H336.266V98.9375H333.164V97.75H334.898V84.6875H333.164V83.5Z" fill="#D9EBFF"/>
<path opacity="0.4" d="M250 11.5C104.173 11.5 102.496 115.5 250 115.5" stroke="#B3BFD8" stroke-width="2"/>
<path d="M250 115.5C228.471 115.5 210.119 113.284 194.931 109.5" stroke="#B3BFD8" stroke-width="2"/>
<circle cx="194.815" cy="109.5" r="5" fill="black" stroke="#D9EBFF" stroke-width="2"/>
<circle cx="194.815" cy="17.5" r="5" fill="black" stroke="#D9EBFF" stroke-width="2"/>
<path d="M200.815 97.741C200.829 97.6573 200.85 97.5459 200.878 97.4065C200.906 97.2672 200.99 97.0024 201.129 96.6122C201.268 96.2221 201.408 95.8946 201.547 95.6298C201.686 95.3651 201.916 95.1073 202.237 94.8564C202.557 94.6056 202.878 94.4872 203.198 94.5011C203.7 94.5011 204.118 94.6265 204.452 94.8773C204.787 95.1282 204.996 95.3651 205.079 95.588C205.163 95.811 205.205 95.9573 205.205 96.027C205.205 96.0548 205.212 96.0688 205.226 96.0688L205.456 95.8388C206.306 94.947 207.274 94.5011 208.361 94.5011C209.114 94.5011 209.72 94.6892 210.18 95.0655C210.639 95.4417 210.876 95.9921 210.89 96.7167C210.904 97.4414 210.64 98.5352 210.096 99.9984C209.553 101.462 209.288 102.346 209.302 102.653C209.302 103.015 209.42 103.196 209.657 103.196C209.741 103.196 209.803 103.189 209.845 103.176C210.249 103.106 210.612 102.841 210.932 102.381C211.253 101.921 211.496 101.364 211.664 100.709C211.692 100.598 211.831 100.542 212.082 100.542C212.36 100.542 212.5 100.598 212.5 100.709C212.5 100.723 212.472 100.828 212.416 101.023C212.305 101.427 212.151 101.824 211.956 102.214C211.761 102.604 211.441 102.994 210.995 103.385C210.549 103.775 210.068 103.963 209.553 103.949C208.898 103.949 208.424 103.761 208.131 103.385C207.839 103.008 207.692 102.618 207.692 102.214C207.692 101.949 207.943 101.113 208.445 99.7058C208.946 98.2983 209.204 97.2393 209.218 96.5286C209.218 95.7065 208.912 95.2954 208.298 95.2954H208.194C206.996 95.2954 205.985 95.9991 205.163 97.4065L205.017 97.6573L204.327 100.458C203.867 102.284 203.602 103.266 203.533 103.405C203.352 103.782 203.052 103.97 202.634 103.97C202.453 103.97 202.306 103.928 202.195 103.844C202.083 103.761 202.007 103.677 201.965 103.594C201.923 103.51 201.909 103.44 201.923 103.385C201.923 103.203 202.188 102.068 202.718 99.9775C203.247 97.8873 203.526 96.7516 203.554 96.5704C203.568 96.5008 203.575 96.3405 203.575 96.0897C203.575 95.5462 203.407 95.2745 203.073 95.2745C202.543 95.2745 202.104 95.9712 201.756 97.3647C201.672 97.6434 201.631 97.7897 201.631 97.8037C201.603 97.8873 201.47 97.9291 201.233 97.9291H200.941C200.857 97.8455 200.815 97.7828 200.815 97.741Z" fill="#D9EBFF"/>
<path d="M215.347 104.567C215.347 104.804 215.268 105.001 215.11 105.159C214.952 105.316 214.76 105.395 214.534 105.395H214.43C214.883 106.173 215.484 106.562 216.233 106.562C216.923 106.562 217.425 106.267 217.741 105.676C217.928 105.351 218.021 104.72 218.021 103.784C218.021 102.769 217.888 102.085 217.622 101.73C217.366 101.405 217.08 101.242 216.765 101.242H216.677C215.908 101.242 215.327 101.577 214.933 102.247C214.893 102.316 214.859 102.356 214.829 102.366C214.8 102.375 214.726 102.385 214.608 102.395C214.44 102.395 214.347 102.366 214.327 102.306C214.307 102.267 214.297 101.405 214.297 99.7203V97.814C214.297 97.3214 214.322 97.0751 214.371 97.0751C214.391 97.0554 214.411 97.0455 214.43 97.0455C214.44 97.0455 214.544 97.0849 214.741 97.1637C214.938 97.2426 215.209 97.3214 215.553 97.4002C215.898 97.479 216.268 97.5184 216.662 97.5184C217.361 97.5184 218.031 97.3805 218.672 97.1046C218.75 97.0652 218.814 97.0455 218.864 97.0455C218.942 97.0455 218.982 97.1342 218.982 97.3115V97.5036C218.174 98.4593 217.164 98.9371 215.952 98.9371C215.647 98.9371 215.371 98.9075 215.125 98.8484L214.977 98.8189V101.361C215.164 101.223 215.312 101.114 215.42 101.036C215.529 100.957 215.706 100.878 215.952 100.799C216.199 100.72 216.45 100.681 216.706 100.681C217.504 100.681 218.179 101.001 218.731 101.641C219.282 102.282 219.558 103.04 219.558 103.917C219.558 104.824 219.243 105.597 218.612 106.237C217.982 106.878 217.213 107.203 216.307 107.213C215.509 107.213 214.869 106.947 214.386 106.415C213.903 105.883 213.662 105.282 213.662 104.612C213.662 104.375 213.716 104.188 213.824 104.05C213.933 103.912 214.046 103.824 214.164 103.784C214.282 103.745 214.396 103.725 214.504 103.725C214.75 103.725 214.952 103.809 215.11 103.976C215.268 104.144 215.347 104.341 215.347 104.567Z" fill="#D9EBFF"/>
<circle cx="250" cy="115.5" r="5" fill="black" stroke="#D9EBFF" stroke-width="2"/>
<path d="M245 99.741C245.014 99.6573 245.035 99.5459 245.063 99.4065C245.091 99.2672 245.174 99.0024 245.314 98.6122C245.453 98.2221 245.592 97.8946 245.732 97.6298C245.871 97.3651 246.101 97.1073 246.421 96.8564C246.742 96.6056 247.062 96.4872 247.383 96.5011C247.885 96.5011 248.303 96.6265 248.637 96.8773C248.971 97.1282 249.18 97.3651 249.264 97.588C249.348 97.811 249.389 97.9573 249.389 98.027C249.389 98.0548 249.396 98.0688 249.41 98.0688L249.64 97.8388C250.49 96.947 251.459 96.5011 252.546 96.5011C253.298 96.5011 253.904 96.6892 254.364 97.0655C254.824 97.4417 255.061 97.9921 255.075 98.7167C255.089 99.4414 254.824 100.535 254.281 101.998C253.737 103.462 253.472 104.346 253.486 104.653C253.486 105.015 253.605 105.196 253.842 105.196C253.925 105.196 253.988 105.189 254.03 105.176C254.434 105.106 254.796 104.841 255.117 104.381C255.437 103.921 255.681 103.364 255.848 102.709C255.876 102.598 256.016 102.542 256.266 102.542C256.545 102.542 256.684 102.598 256.684 102.709C256.684 102.723 256.657 102.828 256.601 103.023C256.489 103.427 256.336 103.824 256.141 104.214C255.946 104.604 255.625 104.994 255.179 105.385C254.733 105.775 254.253 105.963 253.737 105.949C253.082 105.949 252.608 105.761 252.316 105.385C252.023 105.008 251.877 104.618 251.877 104.214C251.877 103.949 252.128 103.113 252.629 101.706C253.131 100.298 253.389 99.2393 253.403 98.5286C253.403 97.7065 253.096 97.2954 252.483 97.2954H252.379C251.18 97.2954 250.17 97.9991 249.348 99.4065L249.201 99.6573L248.512 102.458C248.052 104.284 247.787 105.266 247.717 105.405C247.536 105.782 247.237 105.97 246.818 105.97C246.637 105.97 246.491 105.928 246.38 105.844C246.268 105.761 246.191 105.677 246.15 105.594C246.108 105.51 246.094 105.44 246.108 105.385C246.108 105.203 246.373 104.068 246.902 101.977C247.432 99.8873 247.71 98.7516 247.738 98.5704C247.752 98.5008 247.759 98.3405 247.759 98.0897C247.759 97.5462 247.592 97.2745 247.257 97.2745C246.728 97.2745 246.289 97.9712 245.941 99.3647C245.857 99.6434 245.815 99.7897 245.815 99.8037C245.787 99.8873 245.655 99.9291 245.418 99.9291H245.125C245.042 99.8455 245 99.7828 245 99.741Z" fill="#D9EBFF"/>
<path d="M258.984 102.045C258.718 102.045 258.511 101.962 258.364 101.794C258.216 101.627 258.137 101.41 258.127 101.144C258.127 100.602 258.364 100.119 258.837 99.6957C259.309 99.2721 259.881 99.0603 260.551 99.0603C260.896 99.0603 261.112 99.0652 261.201 99.0751C261.93 99.1933 262.487 99.4544 262.871 99.8583C263.255 100.262 263.452 100.701 263.462 101.174C263.462 101.686 263.295 102.183 262.96 102.666C262.625 103.149 262.162 103.499 261.57 103.715L261.526 103.745C261.526 103.755 261.57 103.77 261.659 103.789C261.748 103.809 261.891 103.853 262.088 103.922C262.285 103.991 262.472 104.095 262.649 104.233C263.457 104.755 263.861 105.444 263.861 106.301C263.861 107.08 263.556 107.76 262.945 108.341C262.334 108.922 261.561 109.213 260.625 109.213C259.836 109.213 259.157 109.001 258.585 108.577C258.014 108.154 257.728 107.617 257.728 106.966C257.728 106.691 257.817 106.469 257.994 106.301C258.172 106.134 258.393 106.045 258.659 106.035C258.935 106.035 259.162 106.124 259.339 106.301C259.516 106.479 259.605 106.7 259.605 106.966C259.605 107.075 259.59 107.173 259.561 107.262C259.531 107.351 259.497 107.43 259.457 107.498C259.418 107.567 259.364 107.627 259.295 107.676C259.226 107.725 259.167 107.764 259.117 107.794C259.068 107.824 259.019 107.843 258.97 107.853C258.92 107.863 258.881 107.878 258.851 107.897L258.792 107.912C259.295 108.356 259.905 108.577 260.625 108.577C261.167 108.577 261.575 108.316 261.851 107.794C262.019 107.469 262.102 106.971 262.102 106.301V106.006C262.102 105.07 261.787 104.444 261.157 104.129C261.009 104.07 260.708 104.036 260.255 104.026L259.635 104.011L259.59 103.981C259.57 103.952 259.561 103.873 259.561 103.745C259.561 103.568 259.6 103.479 259.679 103.479C259.955 103.479 260.24 103.454 260.536 103.405C260.871 103.356 261.176 103.149 261.452 102.784C261.728 102.42 261.866 101.868 261.866 101.129V101.011C261.866 100.449 261.694 100.06 261.349 99.8435C261.132 99.7056 260.9 99.6366 260.654 99.6366C260.339 99.6366 260.048 99.6908 259.782 99.7992C259.516 99.9076 259.329 100.021 259.221 100.139C259.112 100.257 259.058 100.316 259.058 100.316H259.103C259.132 100.326 259.171 100.336 259.221 100.346C259.27 100.356 259.319 100.38 259.369 100.42C259.418 100.459 259.477 100.494 259.546 100.523C259.615 100.553 259.664 100.607 259.694 100.686C259.723 100.765 259.763 100.839 259.812 100.908C259.861 100.976 259.876 101.075 259.856 101.203C259.856 101.42 259.787 101.612 259.649 101.779C259.511 101.947 259.29 102.036 258.984 102.045Z" fill="#D9EBFF"/>
</svg>
