<svg width="700" height="208" viewBox="0 0 700 208" fill="none" xmlns="http://www.w3.org/2000/svg">
<rect width="700" height="208" fill="#0A0D12"/>
<path d="M389 178.737C89.4999 -47.6665 584.116 -47.579 284 179" stroke="#B3BFD8" stroke-width="2"/>
<circle cx="337" cy="134" r="5" fill="black" stroke="#D9EBFF" stroke-width="2"/>
<circle cx="285" cy="179" r="5" fill="black" stroke="#D9EBFF" stroke-width="2"/>
<circle cx="389" cy="179" r="5" fill="black" stroke="#D9EBFF" stroke-width="2"/>
<rect x="289" y="45.4142" width="7.5" height="7.5" transform="rotate(45 289 45.4142)" fill="black" stroke="#B3BFD8" stroke-width="2"/>
<rect x="384" y="45.4142" width="7.5" height="7.5" transform="rotate(45 384 45.4142)" fill="black" stroke="#B3BFD8" stroke-width="2"/>
<circle cx="336" cy="9" r="5" fill="#0A0D12" stroke="#3491FF" stroke-width="2"/>
<path d="M275 192.241C275.014 192.157 275.035 192.046 275.063 191.907C275.091 191.767 275.174 191.502 275.314 191.112C275.453 190.722 275.592 190.395 275.732 190.13C275.871 189.865 276.101 189.607 276.421 189.356C276.742 189.106 277.062 188.987 277.383 189.001C277.885 189.001 278.303 189.127 278.637 189.377C278.971 189.628 279.18 189.865 279.264 190.088C279.348 190.311 279.389 190.457 279.389 190.527C279.389 190.555 279.396 190.569 279.41 190.569L279.64 190.339C280.49 189.447 281.459 189.001 282.546 189.001C283.298 189.001 283.904 189.189 284.364 189.565C284.824 189.942 285.061 190.492 285.075 191.217C285.089 191.941 284.824 193.035 284.281 194.498C283.737 195.962 283.472 196.846 283.486 197.153C283.486 197.515 283.605 197.696 283.842 197.696C283.925 197.696 283.988 197.689 284.03 197.676C284.434 197.606 284.796 197.341 285.117 196.881C285.437 196.421 285.681 195.864 285.848 195.209C285.876 195.098 286.016 195.042 286.266 195.042C286.545 195.042 286.684 195.098 286.684 195.209C286.684 195.223 286.657 195.328 286.601 195.523C286.489 195.927 286.336 196.324 286.141 196.714C285.946 197.104 285.625 197.494 285.179 197.885C284.733 198.275 284.253 198.463 283.737 198.449C283.082 198.449 282.608 198.261 282.316 197.885C282.023 197.508 281.877 197.118 281.877 196.714C281.877 196.449 282.128 195.613 282.629 194.206C283.131 192.798 283.389 191.739 283.403 191.029C283.403 190.206 283.096 189.795 282.483 189.795H282.379C281.18 189.795 280.17 190.499 279.348 191.907L279.201 192.157L278.512 194.958C278.052 196.784 277.787 197.766 277.717 197.905C277.536 198.282 277.237 198.47 276.818 198.47C276.637 198.47 276.491 198.428 276.38 198.344C276.268 198.261 276.191 198.177 276.15 198.094C276.108 198.01 276.094 197.94 276.108 197.885C276.108 197.703 276.373 196.568 276.902 194.477C277.432 192.387 277.71 191.252 277.738 191.07C277.752 191.001 277.759 190.841 277.759 190.59C277.759 190.046 277.592 189.774 277.257 189.774C276.728 189.774 276.289 190.471 275.941 191.865C275.857 192.143 275.815 192.29 275.815 192.304C275.787 192.387 275.655 192.429 275.418 192.429H275.125C275.042 192.345 275 192.283 275 192.241Z" fill="#D9EBFF"/>
<path d="M288.526 192.743C289.078 191.945 289.832 191.546 290.787 191.546C291.26 191.546 291.733 191.674 292.206 191.93C292.679 192.186 293.063 192.639 293.359 193.289C293.723 194.107 293.905 195.23 293.905 196.659C293.905 198.186 293.694 199.353 293.27 200.161C293.073 200.575 292.802 200.905 292.457 201.151C292.112 201.397 291.812 201.55 291.556 201.609C291.3 201.668 291.048 201.703 290.802 201.713C290.546 201.713 290.29 201.683 290.034 201.624C289.777 201.565 289.477 201.407 289.132 201.151C288.787 200.895 288.516 200.565 288.319 200.161C287.896 199.353 287.684 198.186 287.684 196.659C287.684 194.944 287.965 193.639 288.526 192.743ZM291.851 192.565C291.556 192.25 291.206 192.092 290.802 192.092C290.388 192.092 290.034 192.25 289.738 192.565C289.492 192.821 289.329 193.176 289.25 193.629C289.171 194.082 289.132 195.028 289.132 196.467C289.132 198.023 289.171 199.048 289.25 199.54C289.329 200.033 289.506 200.422 289.782 200.708C290.058 201.003 290.398 201.151 290.802 201.151C291.196 201.151 291.531 201.003 291.807 200.708C292.093 200.412 292.27 199.998 292.339 199.466C292.408 198.934 292.447 197.934 292.457 196.467C292.457 195.038 292.418 194.097 292.339 193.644C292.26 193.191 292.098 192.831 291.851 192.565Z" fill="#D9EBFF"/>
<path d="M290 143.729C290 142.935 290.132 142.21 290.397 141.555C290.662 140.9 291.003 140.357 291.421 139.925C291.839 139.493 292.306 139.131 292.822 138.838C293.337 138.545 293.825 138.329 294.285 138.19C294.745 138.051 295.184 137.988 295.602 138.002H295.665C296.292 138.002 296.835 138.155 297.295 138.462C297.755 138.768 297.985 139.221 297.985 139.82C297.985 141.075 297.211 141.897 295.665 142.287C294.982 142.468 294.048 142.566 292.864 142.58C292.348 142.58 292.083 142.593 292.069 142.621C292.069 142.649 292.028 142.893 291.944 143.353C291.86 143.813 291.812 144.217 291.798 144.565C291.798 145.22 291.944 145.736 292.237 146.112C292.529 146.488 292.968 146.683 293.553 146.697C294.139 146.711 294.787 146.579 295.497 146.3C296.208 146.021 296.849 145.562 297.42 144.921C297.546 144.781 297.629 144.712 297.671 144.712C297.727 144.712 297.817 144.774 297.943 144.9C298.068 145.025 298.138 145.123 298.152 145.192C298.166 145.262 298.103 145.373 297.964 145.527C297.824 145.68 297.615 145.868 297.337 146.091C297.058 146.314 296.738 146.53 296.375 146.739C296.013 146.948 295.574 147.122 295.058 147.262C294.543 147.401 294.013 147.471 293.47 147.471C292.369 147.471 291.519 147.101 290.92 146.363C290.321 145.624 290.014 144.746 290 143.729ZM296.981 139.862C296.898 139.138 296.424 138.775 295.56 138.775C295.1 138.775 294.675 138.873 294.285 139.068C293.895 139.263 293.581 139.5 293.344 139.779C293.107 140.057 292.905 140.343 292.738 140.636C292.571 140.928 292.46 141.179 292.404 141.388C292.348 141.597 292.313 141.729 292.299 141.785C292.299 141.799 292.439 141.806 292.717 141.806C294.292 141.806 295.393 141.639 296.02 141.304C296.647 140.97 296.967 140.489 296.981 139.862Z" fill="#D9EBFF"/>
<path d="M300.342 141.743C300.894 140.945 301.648 140.546 302.603 140.546C303.076 140.546 303.549 140.674 304.022 140.931C304.495 141.187 304.879 141.64 305.175 142.29C305.539 143.108 305.721 144.231 305.721 145.659C305.721 147.187 305.509 148.354 305.086 149.162C304.889 149.576 304.618 149.906 304.273 150.152C303.928 150.398 303.628 150.551 303.372 150.61C303.115 150.669 302.864 150.704 302.618 150.714C302.362 150.714 302.106 150.684 301.849 150.625C301.593 150.566 301.293 150.408 300.948 150.152C300.603 149.896 300.332 149.566 300.135 149.162C299.712 148.354 299.5 147.187 299.5 145.659C299.5 143.945 299.781 142.64 300.342 141.743ZM303.667 141.566C303.372 141.251 303.022 141.093 302.618 141.093C302.204 141.093 301.849 141.251 301.554 141.566C301.308 141.822 301.145 142.177 301.066 142.63C300.987 143.083 300.948 144.029 300.948 145.467C300.948 147.024 300.987 148.049 301.066 148.541C301.145 149.034 301.322 149.423 301.598 149.709C301.874 150.004 302.214 150.152 302.618 150.152C303.012 150.152 303.347 150.004 303.623 149.709C303.909 149.413 304.086 148.999 304.155 148.467C304.224 147.935 304.263 146.935 304.273 145.467C304.273 144.039 304.234 143.098 304.155 142.645C304.076 142.192 303.913 141.832 303.667 141.566Z" fill="#D9EBFF"/>
<rect x="361" y="150.414" width="7.5" height="7.5" transform="rotate(45 361 150.414)" fill="black" stroke="#B3BFD8" stroke-width="2"/>
<path d="M391 40.7302C391 39.9357 391.132 39.211 391.397 38.5559C391.662 37.9009 392.003 37.3573 392.422 36.9253C392.84 36.4932 393.307 36.1308 393.822 35.8381C394.338 35.5455 394.826 35.3294 395.286 35.1901C395.746 35.0507 396.185 34.988 396.603 35.0019H396.666C397.293 35.0019 397.836 35.1552 398.296 35.4618C398.756 35.7685 398.986 36.2214 398.986 36.8207C398.986 38.0751 398.213 38.8974 396.666 39.2877C395.983 39.4688 395.049 39.5664 393.864 39.5803C393.348 39.5803 393.084 39.5943 393.07 39.6222C393.07 39.65 393.028 39.8939 392.944 40.3539C392.861 40.8138 392.812 41.218 392.798 41.5664C392.798 42.2215 392.944 42.7372 393.237 43.1135C393.53 43.4898 393.969 43.6849 394.554 43.6988C395.139 43.7128 395.788 43.5804 396.498 43.3016C397.209 43.0229 397.85 42.563 398.422 41.9218C398.547 41.7825 398.631 41.7128 398.673 41.7128C398.728 41.7128 398.819 41.7755 398.944 41.9009C399.07 42.0264 399.139 42.1239 399.153 42.1936C399.167 42.2633 399.105 42.3748 398.965 42.5281C398.826 42.6814 398.617 42.8696 398.338 43.0926C398.059 43.3156 397.739 43.5316 397.376 43.7407C397.014 43.9497 396.575 44.1239 396.059 44.2633C395.544 44.4027 395.014 44.4724 394.47 44.4724C393.369 44.4724 392.519 44.103 391.92 43.3644C391.321 42.6257 391.014 41.7476 391 40.7302ZM397.983 36.8625C397.899 36.1378 397.425 35.7754 396.561 35.7754C396.101 35.7754 395.676 35.873 395.286 36.0681C394.896 36.2632 394.582 36.5002 394.345 36.7789C394.108 37.0577 393.906 37.3434 393.739 37.6361C393.571 37.9288 393.46 38.1796 393.404 38.3887C393.348 38.5978 393.314 38.7302 393.3 38.7859C393.3 38.7998 393.439 38.8068 393.718 38.8068C395.293 38.8068 396.394 38.6396 397.021 38.3051C397.648 37.9706 397.969 37.4897 397.983 36.8625Z" fill="#D9EBFF"/>
<path d="M403.073 38.8475L402.881 38.9214C402.743 38.9706 402.546 39.0199 402.29 39.0692C402.034 39.1185 401.748 39.1529 401.433 39.1727H401.152V38.4927H401.433C401.896 38.473 402.324 38.3991 402.719 38.271C403.113 38.1429 403.389 38.0247 403.546 37.9163C403.704 37.8079 403.842 37.6995 403.96 37.5911C403.98 37.5616 404.039 37.5468 404.138 37.5468C404.226 37.5468 404.31 37.5763 404.389 37.6355V42.0549L404.404 46.4891C404.473 46.558 404.532 46.6024 404.581 46.6221C404.63 46.6418 404.749 46.6615 404.936 46.6812C405.123 46.7009 405.428 46.7108 405.852 46.7108H406.236V47.3907H406.074C405.867 47.3611 405.084 47.3463 403.724 47.3463C402.384 47.3463 401.61 47.3611 401.403 47.3907H401.226V46.7108H401.61C401.827 46.7108 402.014 46.7108 402.172 46.7108C402.329 46.7108 402.453 46.7058 402.541 46.696C402.63 46.6861 402.709 46.6714 402.778 46.6517C402.847 46.6319 402.886 46.6221 402.896 46.6221C402.906 46.6221 402.935 46.5975 402.985 46.5482C403.034 46.4989 403.064 46.4792 403.073 46.4891V38.8475Z" fill="#D9EBFF"/>
<rect x="313" y="150.414" width="7.5" height="7.5" transform="rotate(45 313 150.414)" fill="black" stroke="#B3BFD8" stroke-width="2"/>
<path d="M380 193.241C380.014 193.157 380.035 193.046 380.063 192.907C380.091 192.767 380.174 192.502 380.314 192.112C380.453 191.722 380.592 191.395 380.732 191.13C380.871 190.865 381.101 190.607 381.421 190.356C381.742 190.106 382.062 189.987 382.383 190.001C382.885 190.001 383.303 190.127 383.637 190.377C383.971 190.628 384.18 190.865 384.264 191.088C384.348 191.311 384.389 191.457 384.389 191.527C384.389 191.555 384.396 191.569 384.41 191.569L384.64 191.339C385.49 190.447 386.459 190.001 387.546 190.001C388.298 190.001 388.904 190.189 389.364 190.565C389.824 190.942 390.061 191.492 390.075 192.217C390.089 192.941 389.824 194.035 389.281 195.498C388.737 196.962 388.472 197.846 388.486 198.153C388.486 198.515 388.605 198.696 388.842 198.696C388.925 198.696 388.988 198.689 389.03 198.676C389.434 198.606 389.796 198.341 390.117 197.881C390.437 197.421 390.681 196.864 390.848 196.209C390.876 196.098 391.016 196.042 391.266 196.042C391.545 196.042 391.684 196.098 391.684 196.209C391.684 196.223 391.657 196.328 391.601 196.523C391.489 196.927 391.336 197.324 391.141 197.714C390.946 198.104 390.625 198.494 390.179 198.885C389.733 199.275 389.253 199.463 388.737 199.449C388.082 199.449 387.608 199.261 387.316 198.885C387.023 198.508 386.877 198.118 386.877 197.714C386.877 197.449 387.128 196.613 387.629 195.206C388.131 193.798 388.389 192.739 388.403 192.029C388.403 191.206 388.096 190.795 387.483 190.795H387.379C386.18 190.795 385.17 191.499 384.348 192.907L384.201 193.157L383.512 195.958C383.052 197.784 382.787 198.766 382.717 198.905C382.536 199.282 382.237 199.47 381.818 199.47C381.637 199.47 381.491 199.428 381.38 199.344C381.268 199.261 381.191 199.177 381.15 199.094C381.108 199.01 381.094 198.94 381.108 198.885C381.108 198.703 381.373 197.568 381.902 195.477C382.432 193.387 382.71 192.252 382.738 192.07C382.752 192.001 382.759 191.841 382.759 191.59C382.759 191.046 382.592 190.774 382.257 190.774C381.728 190.774 381.289 191.471 380.941 192.865C380.857 193.143 380.815 193.29 380.815 193.304C380.787 193.387 380.655 193.429 380.418 193.429H380.125C380.042 193.345 380 193.283 380 193.241Z" fill="#D9EBFF"/>
<path d="M395.255 193.846L395.063 193.92C394.925 193.969 394.728 194.018 394.472 194.068C394.216 194.117 393.93 194.151 393.615 194.171H393.334V193.491H393.615C394.078 193.472 394.506 193.398 394.901 193.27C395.295 193.142 395.57 193.023 395.728 192.915C395.886 192.807 396.024 192.698 396.142 192.59C396.162 192.56 396.221 192.546 396.319 192.546C396.408 192.546 396.492 192.575 396.57 192.634V197.053L396.585 201.486C396.654 201.555 396.713 201.599 396.763 201.619C396.812 201.639 396.93 201.659 397.117 201.678C397.304 201.698 397.61 201.708 398.033 201.708H398.418V202.388H398.255C398.048 202.358 397.265 202.343 395.905 202.343C394.566 202.343 393.792 202.358 393.585 202.388H393.408V201.708H393.792C394.009 201.708 394.196 201.708 394.354 201.708C394.511 201.708 394.635 201.703 394.723 201.693C394.812 201.683 394.891 201.668 394.96 201.649C395.029 201.629 395.068 201.619 395.078 201.619C395.088 201.619 395.117 201.595 395.167 201.545C395.216 201.496 395.245 201.476 395.255 201.486V193.846Z" fill="#D9EBFF"/>
<path d="M327 110.241C327.014 110.157 327.035 110.046 327.063 109.907C327.091 109.767 327.174 109.502 327.314 109.112C327.453 108.722 327.592 108.395 327.732 108.13C327.871 107.865 328.101 107.607 328.421 107.356C328.742 107.106 329.062 106.987 329.383 107.001C329.885 107.001 330.303 107.127 330.637 107.377C330.971 107.628 331.18 107.865 331.264 108.088C331.348 108.311 331.389 108.457 331.389 108.527C331.389 108.555 331.396 108.569 331.41 108.569L331.64 108.339C332.49 107.447 333.459 107.001 334.546 107.001C335.298 107.001 335.904 107.189 336.364 107.565C336.824 107.942 337.061 108.492 337.075 109.217C337.089 109.941 336.824 111.035 336.281 112.498C335.737 113.962 335.472 114.846 335.486 115.153C335.486 115.515 335.605 115.696 335.842 115.696C335.925 115.696 335.988 115.689 336.03 115.676C336.434 115.606 336.796 115.341 337.117 114.881C337.437 114.421 337.681 113.864 337.848 113.209C337.876 113.098 338.016 113.042 338.266 113.042C338.545 113.042 338.684 113.098 338.684 113.209C338.684 113.223 338.657 113.328 338.601 113.523C338.489 113.927 338.336 114.324 338.141 114.714C337.946 115.104 337.625 115.494 337.179 115.885C336.733 116.275 336.253 116.463 335.737 116.449C335.082 116.449 334.608 116.261 334.316 115.885C334.023 115.508 333.877 115.118 333.877 114.714C333.877 114.449 334.128 113.613 334.629 112.206C335.131 110.798 335.389 109.739 335.403 109.029C335.403 108.206 335.096 107.795 334.483 107.795H334.379C333.18 107.795 332.17 108.499 331.348 109.907L331.201 110.157L330.512 112.958C330.052 114.784 329.787 115.766 329.717 115.905C329.536 116.282 329.237 116.47 328.819 116.47C328.637 116.47 328.491 116.428 328.38 116.344C328.268 116.261 328.191 116.177 328.15 116.094C328.108 116.01 328.094 115.94 328.108 115.885C328.108 115.703 328.373 114.568 328.902 112.477C329.432 110.387 329.71 109.252 329.738 109.07C329.752 109.001 329.759 108.841 329.759 108.59C329.759 108.046 329.592 107.774 329.257 107.774C328.728 107.774 328.289 108.471 327.941 109.865C327.857 110.143 327.815 110.29 327.815 110.304C327.787 110.387 327.655 110.429 327.418 110.429H327.125C327.042 110.345 327 110.283 327 110.241Z" fill="#D9EBFF"/>
<path d="M340.718 113.048C340.452 113.048 340.24 112.959 340.083 112.782C339.925 112.605 339.846 112.388 339.846 112.132C339.846 111.432 340.107 110.826 340.63 110.314C341.152 109.802 341.802 109.546 342.58 109.546C343.477 109.546 344.226 109.821 344.827 110.373C345.428 110.925 345.733 111.639 345.743 112.516C345.743 112.94 345.644 113.343 345.447 113.728C345.25 114.112 345.014 114.447 344.738 114.733C344.462 115.018 344.068 115.383 343.556 115.826C343.201 116.132 342.708 116.585 342.078 117.186L341.206 118.013L342.329 118.028C343.876 118.028 344.698 118.003 344.797 117.954C344.866 117.934 344.984 117.496 345.152 116.639V116.595H345.743V116.639C345.733 116.668 345.669 117.117 345.551 117.984C345.432 118.851 345.359 119.304 345.329 119.343V119.388H339.846V118.929C339.846 118.861 339.876 118.787 339.935 118.708C339.994 118.629 340.142 118.457 340.378 118.191C340.664 117.875 340.91 117.599 341.117 117.363C341.206 117.265 341.373 117.082 341.62 116.816C341.866 116.55 342.034 116.368 342.122 116.269C342.211 116.171 342.354 116.008 342.551 115.782C342.748 115.555 342.886 115.388 342.965 115.279C343.043 115.171 343.157 115.023 343.304 114.836C343.452 114.649 343.556 114.491 343.615 114.363C343.674 114.235 343.748 114.092 343.836 113.935C343.925 113.777 343.989 113.619 344.029 113.462C344.068 113.304 344.102 113.156 344.132 113.018C344.162 112.88 344.176 112.718 344.176 112.531C344.176 111.91 344.009 111.373 343.674 110.92C343.339 110.467 342.861 110.24 342.24 110.24C341.915 110.24 341.63 110.324 341.383 110.491C341.137 110.659 340.965 110.821 340.866 110.979C340.768 111.137 340.718 111.23 340.718 111.26C340.718 111.27 340.743 111.275 340.792 111.275C340.97 111.275 341.152 111.343 341.339 111.481C341.526 111.619 341.62 111.846 341.62 112.161C341.62 112.408 341.541 112.614 341.383 112.782C341.226 112.949 341.004 113.038 340.718 113.048Z" fill="#D9EBFF"/>
<path d="M327 22.241C327.014 22.1573 327.035 22.0459 327.063 21.9065C327.091 21.7672 327.174 21.5024 327.314 21.1122C327.453 20.7221 327.592 20.3946 327.732 20.1298C327.871 19.8651 328.101 19.6073 328.421 19.3564C328.742 19.1056 329.062 18.9872 329.383 19.0011C329.885 19.0011 330.303 19.1265 330.637 19.3773C330.971 19.6282 331.18 19.8651 331.264 20.088C331.348 20.311 331.389 20.4573 331.389 20.527C331.389 20.5548 331.396 20.5688 331.41 20.5688L331.64 20.3388C332.49 19.447 333.459 19.0011 334.546 19.0011C335.298 19.0011 335.904 19.1892 336.364 19.5655C336.824 19.9417 337.061 20.4921 337.075 21.2167C337.089 21.9414 336.824 23.0352 336.281 24.4984C335.737 25.9616 335.472 26.8464 335.486 27.153C335.486 27.5153 335.605 27.6964 335.842 27.6964C335.925 27.6964 335.988 27.6895 336.03 27.6755C336.434 27.6059 336.796 27.3411 337.117 26.8813C337.437 26.4214 337.681 25.864 337.848 25.2091C337.876 25.0976 338.016 25.0419 338.266 25.0419C338.545 25.0419 338.684 25.0976 338.684 25.2091C338.684 25.223 338.657 25.3275 338.601 25.5226C338.489 25.9267 338.336 26.3239 338.141 26.714C337.946 27.1042 337.625 27.4944 337.179 27.8846C336.733 28.2747 336.253 28.4629 335.737 28.4489C335.082 28.4489 334.608 28.2608 334.316 27.8846C334.023 27.5083 333.877 27.1182 333.877 26.714C333.877 26.4493 334.128 25.6132 334.629 24.2058C335.131 22.7983 335.389 21.7393 335.403 21.0286C335.403 20.2065 335.096 19.7954 334.483 19.7954H334.379C333.18 19.7954 332.17 20.4991 331.348 21.9065L331.201 22.1573L330.512 24.9583C330.052 26.7837 329.787 27.7661 329.717 27.9055C329.536 28.2817 329.237 28.4698 328.818 28.4698C328.637 28.4698 328.491 28.428 328.38 28.3444C328.268 28.2608 328.191 28.1772 328.15 28.0936C328.108 28.01 328.094 27.9403 328.108 27.8846C328.108 27.7034 328.373 26.5677 328.902 24.4775C329.432 22.3873 329.71 21.2516 329.738 21.0704C329.752 21.0008 329.759 20.8405 329.759 20.5897C329.759 20.0462 329.592 19.7745 329.257 19.7745C328.728 19.7745 328.289 20.4712 327.941 21.8647C327.857 22.1434 327.815 22.2897 327.815 22.3037C327.787 22.3873 327.655 22.4291 327.418 22.4291H327.125C327.042 22.3455 327 22.2828 327 22.241Z" fill="#3491FF"/>
<path d="M340.984 24.5454C340.718 24.5454 340.511 24.4617 340.364 24.2942C340.216 24.1267 340.137 23.91 340.127 23.644C340.127 23.1021 340.364 22.6194 340.837 22.1957C341.309 21.7721 341.881 21.5603 342.551 21.5603C342.896 21.5603 343.112 21.5652 343.201 21.5751C343.93 21.6933 344.487 21.9544 344.871 22.3583C345.255 22.7622 345.452 23.2006 345.462 23.6735C345.462 24.1858 345.295 24.6834 344.96 25.1661C344.625 25.6488 344.162 25.9986 343.57 26.2153L343.526 26.2449C343.526 26.2547 343.57 26.2695 343.659 26.2892C343.748 26.3089 343.891 26.3533 344.088 26.4222C344.285 26.4912 344.472 26.5946 344.649 26.7326C345.457 27.2547 345.861 27.9444 345.861 28.8015C345.861 29.5798 345.556 30.2596 344.945 30.8408C344.334 31.4221 343.561 31.7127 342.625 31.7127C341.836 31.7127 341.157 31.5009 340.585 31.0773C340.014 30.6536 339.728 30.1167 339.728 29.4665C339.728 29.1906 339.817 28.969 339.994 28.8015C340.172 28.634 340.393 28.5453 340.659 28.5355C340.935 28.5355 341.162 28.6241 341.339 28.8015C341.516 28.9788 341.605 29.2005 341.605 29.4665C341.605 29.5748 341.59 29.6734 341.561 29.762C341.531 29.8507 341.497 29.9295 341.457 29.9985C341.418 30.0674 341.364 30.1266 341.295 30.1758C341.226 30.2251 341.167 30.2645 341.117 30.294C341.068 30.3236 341.019 30.3433 340.97 30.3532C340.92 30.363 340.881 30.3778 340.851 30.3975L340.792 30.4123C341.295 30.8556 341.905 31.0773 342.625 31.0773C343.167 31.0773 343.575 30.8162 343.851 30.294C344.019 29.9689 344.102 29.4714 344.102 28.8015V28.5059C344.102 27.57 343.787 26.9444 343.157 26.6291C343.009 26.57 342.708 26.5355 342.255 26.5257L341.635 26.5109L341.59 26.4813C341.57 26.4518 341.561 26.373 341.561 26.2449C341.561 26.0676 341.6 25.9789 341.679 25.9789C341.955 25.9789 342.24 25.9543 342.536 25.905C342.871 25.8557 343.176 25.6488 343.452 25.2843C343.728 24.9198 343.866 24.3681 343.866 23.6292V23.511C343.866 22.9494 343.694 22.5603 343.349 22.3435C343.132 22.2056 342.9 22.1366 342.654 22.1366C342.339 22.1366 342.048 22.1908 341.782 22.2992C341.516 22.4076 341.329 22.5209 341.221 22.6391C341.112 22.7573 341.058 22.8164 341.058 22.8164H341.103C341.132 22.8263 341.171 22.8361 341.221 22.846C341.27 22.8558 341.319 22.8805 341.369 22.9199C341.418 22.9593 341.477 22.9937 341.546 23.0233C341.615 23.0529 341.664 23.107 341.694 23.1859C341.723 23.2647 341.763 23.3386 341.812 23.4075C341.861 23.4765 341.876 23.575 341.856 23.7031C341.856 23.9198 341.787 24.1119 341.649 24.2794C341.511 24.4469 341.29 24.5356 340.984 24.5454Z" fill="#3491FF"/>
<path d="M265 40.7302C265 39.9357 265.132 39.211 265.397 38.5559C265.662 37.9009 266.003 37.3573 266.422 36.9253C266.84 36.4932 267.307 36.1308 267.822 35.8381C268.338 35.5455 268.826 35.3294 269.286 35.1901C269.746 35.0507 270.185 34.988 270.603 35.0019H270.666C271.293 35.0019 271.836 35.1552 272.296 35.4618C272.756 35.7685 272.986 36.2214 272.986 36.8207C272.986 38.0751 272.213 38.8974 270.666 39.2877C269.983 39.4688 269.049 39.5664 267.864 39.5803C267.348 39.5803 267.084 39.5943 267.07 39.6222C267.07 39.65 267.028 39.8939 266.944 40.3539C266.861 40.8138 266.812 41.218 266.798 41.5664C266.798 42.2215 266.944 42.7372 267.237 43.1135C267.53 43.4898 267.969 43.6849 268.554 43.6988C269.139 43.7128 269.788 43.5804 270.498 43.3016C271.209 43.0229 271.85 42.563 272.422 41.9218C272.547 41.7825 272.631 41.7128 272.673 41.7128C272.728 41.7128 272.819 41.7755 272.944 41.9009C273.07 42.0264 273.139 42.1239 273.153 42.1936C273.167 42.2633 273.105 42.3748 272.965 42.5281C272.826 42.6814 272.617 42.8696 272.338 43.0926C272.059 43.3156 271.739 43.5316 271.376 43.7407C271.014 43.9497 270.575 44.1239 270.059 44.2633C269.544 44.4027 269.014 44.4724 268.47 44.4724C267.369 44.4724 266.519 44.103 265.92 43.3644C265.321 42.6257 265.014 41.7476 265 40.7302ZM271.983 36.8625C271.899 36.1378 271.425 35.7754 270.561 35.7754C270.101 35.7754 269.676 35.873 269.286 36.0681C268.896 36.2632 268.582 36.5002 268.345 36.7789C268.108 37.0577 267.906 37.3434 267.739 37.6361C267.571 37.9288 267.46 38.1796 267.404 38.3887C267.348 38.5978 267.314 38.7302 267.3 38.7859C267.3 38.7998 267.439 38.8068 267.718 38.8068C269.293 38.8068 270.394 38.6396 271.021 38.3051C271.648 37.9706 271.969 37.4897 271.983 36.8625Z" fill="#D9EBFF"/>
<path d="M275.536 41.0498C275.27 41.0498 275.058 40.9611 274.901 40.7837C274.743 40.6064 274.664 40.3896 274.664 40.1334C274.664 39.4338 274.925 38.8278 275.448 38.3154C275.97 37.803 276.62 37.5468 277.399 37.5468C278.295 37.5468 279.044 37.8227 279.645 38.3745C280.246 38.9263 280.552 39.6407 280.562 40.5177C280.562 40.9414 280.463 41.3454 280.266 41.7297C280.069 42.114 279.832 42.449 279.557 42.7348C279.281 43.0205 278.886 43.3851 278.374 43.8286C278.019 44.134 277.527 44.5873 276.896 45.1884L276.024 46.0161L277.147 46.0309C278.694 46.0309 279.517 46.0062 279.616 45.957C279.685 45.9373 279.803 45.4988 279.97 44.6415V44.5971H280.562V44.6415C280.552 44.671 280.488 45.1194 280.369 45.9865C280.251 46.8537 280.177 47.3069 280.148 47.3463V47.3907H274.664V46.9325C274.664 46.8635 274.694 46.7896 274.753 46.7108C274.812 46.6319 274.96 46.4595 275.196 46.1935C275.482 45.8781 275.728 45.6022 275.935 45.3657C276.024 45.2672 276.191 45.0849 276.438 44.8189C276.684 44.5528 276.852 44.3705 276.94 44.272C277.029 44.1734 277.172 44.0108 277.369 43.7842C277.566 43.5576 277.704 43.3901 277.783 43.2817C277.862 43.1733 277.975 43.0255 278.123 42.8382C278.271 42.651 278.374 42.4934 278.433 42.3653C278.492 42.2372 278.566 42.0943 278.655 41.9366C278.744 41.779 278.808 41.6213 278.847 41.4637C278.886 41.306 278.921 41.1582 278.951 41.0202C278.98 40.8823 278.995 40.7197 278.995 40.5325C278.995 39.9117 278.827 39.3747 278.492 38.9214C278.157 38.4681 277.679 38.2415 277.059 38.2415C276.733 38.2415 276.448 38.3252 276.201 38.4927C275.955 38.6603 275.783 38.8228 275.684 38.9805C275.585 39.1382 275.536 39.2318 275.536 39.2613C275.536 39.2712 275.561 39.2761 275.61 39.2761C275.787 39.2761 275.97 39.3451 276.157 39.483C276.344 39.621 276.438 39.8476 276.438 40.163C276.438 40.4093 276.359 40.6162 276.201 40.7837C276.044 40.9513 275.822 41.0399 275.536 41.0498Z" fill="#D9EBFF"/>
<path d="M365 143.729C365 142.935 365.132 142.21 365.397 141.555C365.662 140.9 366.003 140.357 366.421 139.925C366.839 139.493 367.306 139.131 367.822 138.838C368.337 138.545 368.825 138.329 369.285 138.19C369.745 138.051 370.184 137.988 370.602 138.002H370.665C371.292 138.002 371.835 138.155 372.295 138.462C372.755 138.768 372.985 139.221 372.985 139.82C372.985 141.075 372.211 141.897 370.665 142.287C369.982 142.468 369.048 142.566 367.864 142.58C367.348 142.58 367.083 142.593 367.069 142.621C367.069 142.649 367.028 142.893 366.944 143.353C366.86 143.813 366.812 144.217 366.798 144.565C366.798 145.22 366.944 145.736 367.237 146.112C367.529 146.488 367.968 146.683 368.553 146.697C369.139 146.711 369.787 146.579 370.497 146.3C371.208 146.021 371.849 145.562 372.42 144.921C372.546 144.781 372.629 144.712 372.671 144.712C372.727 144.712 372.817 144.774 372.943 144.9C373.068 145.025 373.138 145.123 373.152 145.192C373.166 145.262 373.103 145.373 372.964 145.527C372.824 145.68 372.615 145.868 372.337 146.091C372.058 146.314 371.738 146.53 371.375 146.739C371.013 146.948 370.574 147.122 370.058 147.262C369.543 147.401 369.013 147.471 368.47 147.471C367.369 147.471 366.519 147.101 365.92 146.363C365.321 145.624 365.014 144.746 365 143.729ZM371.981 139.862C371.898 139.138 371.424 138.775 370.56 138.775C370.1 138.775 369.675 138.873 369.285 139.068C368.895 139.263 368.581 139.5 368.344 139.779C368.107 140.057 367.905 140.343 367.738 140.636C367.571 140.928 367.46 141.179 367.404 141.388C367.348 141.597 367.313 141.729 367.299 141.785C367.299 141.799 367.439 141.806 367.717 141.806C369.292 141.806 370.393 141.639 371.02 141.304C371.647 140.97 371.967 140.489 371.981 139.862Z" fill="#D9EBFF"/>
<path d="M375.8 143.546C375.534 143.546 375.327 143.462 375.18 143.295C375.032 143.128 374.953 142.911 374.943 142.645C374.943 142.103 375.18 141.62 375.652 141.197C376.125 140.773 376.697 140.561 377.367 140.561C377.712 140.561 377.928 140.566 378.017 140.576C378.746 140.694 379.303 140.955 379.687 141.359C380.071 141.763 380.268 142.201 380.278 142.674C380.278 143.187 380.11 143.684 379.776 144.167C379.441 144.65 378.978 144.999 378.386 145.216L378.342 145.246C378.342 145.256 378.386 145.27 378.475 145.29C378.564 145.31 378.707 145.354 378.904 145.423C379.101 145.492 379.288 145.595 379.465 145.733C380.273 146.256 380.677 146.945 380.677 147.802C380.677 148.581 380.372 149.26 379.761 149.842C379.15 150.423 378.377 150.714 377.441 150.714C376.652 150.714 375.973 150.502 375.401 150.078C374.83 149.654 374.544 149.118 374.544 148.467C374.544 148.191 374.633 147.97 374.81 147.802C374.987 147.635 375.209 147.546 375.475 147.536C375.751 147.536 375.978 147.625 376.155 147.802C376.332 147.98 376.421 148.201 376.421 148.467C376.421 148.576 376.406 148.674 376.377 148.763C376.347 148.852 376.313 148.93 376.273 148.999C376.234 149.068 376.18 149.127 376.111 149.177C376.042 149.226 375.983 149.265 375.933 149.295C375.884 149.324 375.835 149.344 375.785 149.354C375.736 149.364 375.697 149.379 375.667 149.398L375.608 149.413C376.111 149.856 376.721 150.078 377.441 150.078C377.982 150.078 378.391 149.817 378.667 149.295C378.835 148.97 378.918 148.472 378.918 147.802V147.507C378.918 146.571 378.603 145.945 377.973 145.63C377.825 145.571 377.524 145.536 377.071 145.526L376.45 145.512L376.406 145.482C376.386 145.453 376.377 145.374 376.377 145.246C376.377 145.068 376.416 144.98 376.495 144.98C376.771 144.98 377.056 144.955 377.352 144.906C377.687 144.857 377.992 144.65 378.268 144.285C378.544 143.921 378.682 143.369 378.682 142.63V142.512C378.682 141.95 378.51 141.561 378.165 141.344C377.948 141.206 377.716 141.137 377.47 141.137C377.155 141.137 376.864 141.192 376.598 141.3C376.332 141.408 376.145 141.522 376.037 141.64C375.928 141.758 375.874 141.817 375.874 141.817H375.918C375.948 141.827 375.987 141.837 376.037 141.847C376.086 141.857 376.135 141.881 376.184 141.921C376.234 141.96 376.293 141.995 376.362 142.024C376.431 142.054 376.48 142.108 376.51 142.187C376.539 142.265 376.579 142.339 376.628 142.408C376.677 142.477 376.692 142.576 376.672 142.704C376.672 142.921 376.603 143.113 376.465 143.28C376.327 143.448 376.106 143.536 375.8 143.546Z" fill="#D9EBFF"/>
</svg>
