<svg width="700" height="213" viewBox="0 0 700 213" fill="none" xmlns="http://www.w3.org/2000/svg">
<g clip-path="url(#clip0_588_10437)">
<rect width="700" height="213" fill="#0A0D12"/>
<path d="M274.5 7H425.5M274.5 7L350 50.6667L425.5 7M274.5 7L199 82.6667L274.5 158.333M425.5 7L501 82.6667L425.5 158.333M425.5 158.333L350 202L274.5 158.333M425.5 158.333H274.5" stroke="#4A5467" stroke-width="2"/>
<path d="M199 82.6665L274.5 158.333" stroke="#B3BFD8" stroke-width="2"/>
<circle cx="200" cy="83" r="5" fill="black" stroke="#D9EBFF" stroke-width="2"/>
<circle cx="275" cy="7" r="5" fill="black" stroke="#D9EBFF" stroke-width="2"/>
<circle cx="425" cy="7" r="5" fill="black" stroke="#D9EBFF" stroke-width="2"/>
<circle cx="350" cy="51" r="5" fill="black" stroke="#D9EBFF" stroke-width="2"/>
<circle cx="350" cy="202" r="5" fill="black" stroke="#D9EBFF" stroke-width="2"/>
<circle cx="426" cy="158" r="5" fill="black" stroke="#D9EBFF" stroke-width="2"/>
<circle cx="501" cy="83" r="5" fill="black" stroke="#D9EBFF" stroke-width="2"/>
<circle cx="274" cy="158" r="5" fill="black" stroke="#D9EBFF" stroke-width="2"/>
<g clip-path="url(#clip1_588_10437)">
<path d="M181.288 65.1525C181.302 65.1107 181.316 65.055 181.33 64.9853C181.344 64.9157 181.379 64.7624 181.434 64.5255C181.49 64.2886 181.56 64.0726 181.643 63.8775C181.727 63.6824 181.832 63.4525 181.957 63.1877C182.082 62.923 182.222 62.7139 182.375 62.5607C182.528 62.4074 182.709 62.2541 182.919 62.1008C183.128 61.9475 183.357 61.8848 183.608 61.9127C184.653 61.9127 185.322 62.3586 185.615 63.2504L185.824 63.0623C186.688 62.2959 187.51 61.9127 188.29 61.9127C189.196 61.9127 189.907 62.2402 190.422 62.8951C190.938 63.55 191.196 64.3443 191.196 65.278C191.196 66.7829 190.666 68.1694 189.607 69.4375C188.548 70.7056 187.35 71.3466 186.012 71.3605C185.705 71.3605 185.434 71.3187 185.197 71.2351C185.044 71.1654 184.883 71.0609 184.716 70.9216C184.549 70.7822 184.417 70.6638 184.319 70.5662L184.173 70.399C184.159 70.413 184.005 71.0191 183.713 72.2175C183.42 73.4159 183.274 74.0221 183.274 74.036C183.274 74.1196 183.33 74.1684 183.441 74.1823C183.553 74.1963 183.81 74.2172 184.214 74.245H184.737C184.821 74.3426 184.862 74.4053 184.862 74.4332C184.862 74.461 184.842 74.5864 184.8 74.8094C184.758 74.9766 184.716 75.0811 184.674 75.1229C184.632 75.1647 184.542 75.1926 184.403 75.2065C184.375 75.2065 184.298 75.2065 184.173 75.2065C184.047 75.2065 183.81 75.1996 183.462 75.1856C183.114 75.1717 182.682 75.1647 182.166 75.1647C181.191 75.1647 180.57 75.1787 180.306 75.2065H180.139C180.041 75.109 179.992 75.0324 179.992 74.9766C180.02 74.6004 180.111 74.3565 180.264 74.245H180.682C181.156 74.2311 181.427 74.1475 181.497 73.9942C181.539 73.9106 181.964 72.2454 182.772 68.9986C183.58 65.7517 184.005 64.0308 184.047 63.8357C184.061 63.766 184.068 63.6685 184.068 63.5431C184.068 62.9717 183.894 62.6861 183.546 62.6861C183.239 62.6861 182.981 62.8812 182.772 63.2713C182.563 63.6615 182.403 64.0865 182.291 64.5464C182.18 65.0062 182.096 65.2571 182.041 65.2989C182.013 65.3267 181.901 65.3407 181.706 65.3407H181.414C181.33 65.2571 181.288 65.1943 181.288 65.1525ZM184.528 69.0195C184.835 70.0785 185.35 70.608 186.075 70.608C186.493 70.608 186.897 70.4478 187.287 70.1273C187.677 69.8068 187.998 69.4027 188.249 68.915C188.499 68.4412 188.75 67.6887 189.001 66.6575C189.252 65.6263 189.384 64.8599 189.398 64.3583V64.2328C189.398 63.2017 188.973 62.6861 188.123 62.6861C187.97 62.6861 187.817 62.707 187.663 62.7488C187.51 62.7906 187.357 62.8533 187.203 62.9369C187.05 63.0205 186.911 63.1111 186.785 63.2086C186.66 63.3062 186.542 63.4107 186.43 63.5222C186.319 63.6336 186.214 63.7382 186.117 63.8357C186.019 63.9332 185.942 64.0308 185.887 64.1283C185.831 64.2259 185.775 64.2956 185.719 64.3374L185.657 64.421C185.657 64.4349 185.636 64.5324 185.594 64.7136C185.552 64.8947 185.476 65.2013 185.364 65.6333C185.253 66.0653 185.155 66.4276 185.071 66.7202C184.709 68.1973 184.528 68.9637 184.528 69.0195Z" fill="#D9EBFF"/>
<path d="M191.76 65.1525C191.774 65.1107 191.788 65.0549 191.802 64.9852C191.816 64.9156 191.85 64.7623 191.906 64.5254C191.962 64.2885 192.031 64.0725 192.115 63.8774C192.199 63.6823 192.303 63.4524 192.429 63.1877C192.554 62.9229 192.693 62.7139 192.847 62.5606C193 62.4073 193.181 62.254 193.39 62.1007C193.599 61.9475 193.829 61.8847 194.08 61.9126C194.484 61.9126 194.839 61.9962 195.146 62.1634C195.453 62.3307 195.668 62.4839 195.794 62.6233C195.919 62.7626 195.996 62.902 196.024 63.0413C196.052 63.1249 196.073 63.1668 196.087 63.1668C196.1 63.1668 196.156 63.118 196.254 63.0204C196.923 62.2958 197.696 61.9335 198.574 61.9335H198.637C199.305 61.9335 199.807 62.2192 200.142 62.7905C200.253 63.0553 200.309 63.3131 200.309 63.5639C200.309 63.9819 200.218 64.3164 200.037 64.5672C199.856 64.818 199.675 64.9783 199.494 65.048C199.312 65.1176 199.138 65.1455 198.971 65.1316C198.692 65.1316 198.469 65.0549 198.302 64.9016C198.135 64.7484 198.051 64.5463 198.051 64.2955C198.051 63.6266 198.442 63.1807 199.222 62.9577C198.915 62.7766 198.664 62.686 198.469 62.686C197.689 62.686 196.971 63.2016 196.316 64.2328C196.177 64.4557 196.073 64.6856 196.003 64.9225C195.933 65.1594 195.696 66.0861 195.292 67.7025C194.818 69.6534 194.547 70.6916 194.477 70.817C194.296 71.1932 193.996 71.3813 193.578 71.3813C193.397 71.3813 193.251 71.3395 193.139 71.2559C193.028 71.1723 192.951 71.0887 192.909 71.0051C192.868 70.9215 192.854 70.8518 192.868 70.7961C192.868 70.6149 193.146 69.4165 193.704 67.2009C194.261 64.9852 194.54 63.752 194.54 63.5012C194.54 62.9577 194.359 62.686 193.996 62.686C193.704 62.686 193.453 62.8811 193.244 63.2713C193.035 63.6614 192.868 64.0865 192.742 64.5463C192.617 65.0062 192.54 65.257 192.512 65.2988C192.484 65.3267 192.373 65.3406 192.178 65.3406H191.885C191.802 65.257 191.76 65.1943 191.76 65.1525Z" fill="#D9EBFF"/>
<path d="M201.584 67.6398C201.584 66.8456 201.716 66.1209 201.981 65.466C202.246 64.8111 202.587 64.2676 203.005 63.8356C203.423 63.4036 203.89 63.0413 204.406 62.7487C204.921 62.4561 205.409 62.2401 205.869 62.1007C206.329 61.9614 206.768 61.8987 207.186 61.9126H207.249C207.876 61.9126 208.419 62.0659 208.879 62.3725C209.339 62.679 209.569 63.1319 209.569 63.7311C209.569 64.9852 208.795 65.8074 207.249 66.1976C206.566 66.3787 205.632 66.4763 204.448 66.4902C203.932 66.4902 203.667 66.5041 203.653 66.532C203.653 66.5599 203.612 66.8037 203.528 67.2636C203.444 67.7234 203.396 68.1276 203.382 68.4759C203.382 69.1309 203.528 69.6465 203.821 70.0227C204.113 70.3989 204.552 70.594 205.137 70.608C205.723 70.6219 206.371 70.4895 207.081 70.2108C207.792 69.9321 208.433 69.4723 209.004 68.8313C209.13 68.6919 209.213 68.6222 209.255 68.6222C209.311 68.6222 209.401 68.685 209.527 68.8104C209.652 68.9358 209.722 69.0333 209.736 69.103C209.75 69.1727 209.687 69.2842 209.548 69.4374C209.408 69.5907 209.199 69.7788 208.921 70.0018C208.642 70.2248 208.321 70.4407 207.959 70.6498C207.597 70.8588 207.158 71.033 206.642 71.1723C206.127 71.3117 205.597 71.3813 205.054 71.3813C203.953 71.3813 203.103 71.0121 202.504 70.2735C201.904 69.535 201.598 68.6571 201.584 67.6398ZM208.565 63.7729C208.482 63.0483 208.008 62.686 207.144 62.686C206.684 62.686 206.259 62.7835 205.869 62.9786C205.479 63.1737 205.165 63.4106 204.928 63.6893C204.691 63.968 204.489 64.2537 204.322 64.5463C204.155 64.8389 204.043 65.0898 203.988 65.2988C203.932 65.5078 203.897 65.6402 203.883 65.6959C203.883 65.7099 204.023 65.7168 204.301 65.7168C205.876 65.7168 206.977 65.5496 207.604 65.2152C208.231 64.8807 208.551 64.4 208.565 63.7729Z" fill="#D9EBFF"/>
<path d="M214.125 63.2086C214.125 62.8602 213.993 62.686 213.728 62.686C213.394 62.686 213.045 62.8881 212.683 63.2922C212.321 63.6963 212.021 64.3164 211.784 65.1525C211.77 65.1664 211.756 65.1873 211.743 65.2152C211.729 65.243 211.722 65.2639 211.722 65.2779C211.722 65.2918 211.708 65.3058 211.68 65.3197C211.652 65.3336 211.631 65.3406 211.617 65.3406C211.603 65.3406 211.575 65.3406 211.534 65.3406C211.492 65.3406 211.436 65.3406 211.366 65.3406H211.074C210.99 65.257 210.948 65.1943 210.948 65.1525C210.948 65.0549 211.004 64.8529 211.115 64.5463C211.227 64.2397 211.394 63.8774 211.617 63.4594C211.84 63.0413 212.147 62.686 212.537 62.3934C212.927 62.1007 213.366 61.9475 213.854 61.9335C214.439 61.9335 214.892 62.1007 215.212 62.4352C215.533 62.7696 215.7 63.1598 215.714 63.6057C215.714 63.8426 215.693 64.0237 215.651 64.1492C215.651 64.2328 215.547 64.5393 215.338 65.0689C215.129 65.5984 214.913 66.2185 214.69 66.9292C214.467 67.6398 214.341 68.2599 214.314 68.7895C214.314 69.1657 214.348 69.4723 214.418 69.7092C214.599 70.3084 215.038 70.608 215.735 70.608C216.25 70.608 216.731 70.3711 217.177 69.8973C217.623 69.4235 217.971 68.8731 218.222 68.246C218.473 67.6189 218.675 67.0406 218.828 66.5111C218.982 65.9816 219.058 65.5984 219.058 65.3615C219.058 65.041 219.003 64.7623 218.891 64.5254C218.78 64.2885 218.654 64.1074 218.515 63.9819C218.376 63.8565 218.25 63.7311 218.139 63.6057C218.027 63.4803 217.971 63.327 217.971 63.1458C217.971 62.8393 218.104 62.5536 218.369 62.2889C218.633 62.0241 218.919 61.8917 219.226 61.8917C219.49 61.8917 219.727 62.0171 219.936 62.268C220.145 62.5188 220.257 62.9229 220.271 63.4803C220.271 63.8565 220.187 64.4348 220.02 65.2152C219.853 65.9955 219.595 66.8665 219.246 67.828C218.898 68.7895 218.403 69.6186 217.762 70.3153C217.121 71.0121 216.383 71.3674 215.547 71.3813C214.655 71.3813 213.944 71.1514 213.415 70.6916C212.899 70.2457 212.641 69.5838 212.641 68.7059C212.641 68.2739 212.697 67.828 212.809 67.3681C212.92 66.9083 213.206 66.0931 213.666 64.9225C213.972 64.0307 214.125 63.4594 214.125 63.2086Z" fill="#D9EBFF"/>
</g>
<g clip-path="url(#clip2_588_10437)">
<path d="M254.711 173.829C254.711 172.31 255.31 170.944 256.509 169.732C257.707 168.519 259.003 167.913 260.397 167.913C261.177 167.913 261.79 168.08 262.236 168.415C262.682 168.749 262.912 169.188 262.926 169.732C262.926 170.136 262.794 170.477 262.529 170.756C262.264 171.035 261.93 171.181 261.526 171.195C261.261 171.195 261.052 171.125 260.899 170.986C260.745 170.847 260.669 170.638 260.669 170.359C260.669 170.08 260.745 169.843 260.899 169.648C261.052 169.453 261.205 169.307 261.358 169.209C261.512 169.112 261.609 169.07 261.651 169.084H261.672C261.672 169.056 261.63 169.014 261.547 168.958C261.463 168.902 261.317 168.847 261.108 168.791C260.899 168.735 260.662 168.707 260.397 168.707C259.979 168.707 259.582 168.805 259.205 169C258.913 169.125 258.613 169.341 258.306 169.648C257.693 170.261 257.247 171.125 256.969 172.24C256.69 173.355 256.544 174.163 256.53 174.665C256.53 175.306 256.711 175.787 257.073 176.107C257.38 176.442 257.784 176.609 258.286 176.609H258.369C259.93 176.609 261.219 176.017 262.236 174.832C262.362 174.693 262.445 174.623 262.487 174.623C262.543 174.623 262.634 174.686 262.759 174.811C262.884 174.937 262.954 175.034 262.968 175.104C262.982 175.174 262.919 175.278 262.78 175.418C262.641 175.557 262.439 175.752 262.174 176.003C261.909 176.254 261.595 176.463 261.233 176.63C260.871 176.797 260.425 176.971 259.895 177.153C259.366 177.334 258.808 177.41 258.223 177.383C257.178 177.383 256.334 177.048 255.693 176.379C255.052 175.71 254.725 174.86 254.711 173.829Z" fill="#D9EBFF"/>
<path d="M263.49 171.153C263.49 171.042 263.553 170.826 263.678 170.505C263.804 170.185 263.978 169.822 264.201 169.418C264.424 169.014 264.731 168.666 265.121 168.373C265.511 168.08 265.922 167.927 266.354 167.913C266.995 167.913 267.476 168.087 267.796 168.436C268.117 168.784 268.277 169.195 268.277 169.669C268.277 169.92 268.04 170.7 267.567 172.01C267.093 173.32 266.856 174.303 266.856 174.958C266.856 175.557 266.953 175.975 267.148 176.212C267.344 176.449 267.636 176.575 268.026 176.588C268.417 176.602 268.786 176.484 269.134 176.233C269.483 175.982 269.741 175.745 269.908 175.522L270.138 175.167C270.166 175.111 270.43 174.052 270.932 171.99C271.35 170.317 271.601 169.342 271.685 169.063C271.768 168.784 271.866 168.582 271.977 168.457C272.214 168.248 272.465 168.143 272.73 168.143C272.967 168.143 273.141 168.213 273.252 168.352C273.364 168.492 273.42 168.624 273.42 168.749L271.831 175.397C271.817 175.467 271.81 175.578 271.81 175.731C271.81 176.08 271.859 176.31 271.956 176.421C272.054 176.533 272.2 176.595 272.395 176.609C272.702 176.568 272.946 176.352 273.127 175.961C273.308 175.571 273.517 174.958 273.754 174.122C273.782 174.01 273.921 173.955 274.172 173.955C274.437 173.955 274.569 174.017 274.569 174.143C274.555 174.212 274.542 174.31 274.528 174.435C274.514 174.561 274.451 174.784 274.339 175.104C274.228 175.425 274.11 175.724 273.984 176.003C273.859 176.282 273.684 176.547 273.462 176.797C273.239 177.048 272.988 177.223 272.709 177.32C272.597 177.348 272.43 177.362 272.207 177.362C271.287 177.362 270.653 176.972 270.305 176.191C270.277 176.205 270.2 176.275 270.075 176.4C269.95 176.526 269.824 176.63 269.699 176.714C269.573 176.797 269.42 176.902 269.239 177.027C269.058 177.153 268.856 177.236 268.633 177.278C268.41 177.32 268.173 177.355 267.922 177.383C267.309 177.383 266.765 177.257 266.291 177.007C265.567 176.575 265.204 175.836 265.204 174.791C265.204 173.996 265.448 172.958 265.936 171.676C266.424 170.394 266.668 169.579 266.668 169.23C266.668 169.216 266.668 169.202 266.668 169.188C266.668 169.063 266.668 168.979 266.668 168.938C266.668 168.896 266.64 168.847 266.584 168.791C266.528 168.735 266.452 168.708 266.354 168.708H266.27C265.95 168.708 265.657 168.84 265.393 169.105C265.128 169.37 264.919 169.655 264.765 169.962C264.612 170.268 264.494 170.561 264.41 170.84C264.326 171.119 264.271 171.272 264.243 171.3C264.215 171.328 264.103 171.342 263.908 171.342H263.616C263.532 171.258 263.49 171.195 263.49 171.153Z" fill="#D9EBFF"/>
<path d="M275.469 171.153C275.483 171.112 275.497 171.056 275.511 170.986C275.524 170.916 275.559 170.763 275.615 170.526C275.671 170.289 275.741 170.073 275.824 169.878C275.908 169.683 276.012 169.453 276.138 169.188C276.263 168.924 276.402 168.715 276.556 168.561C276.709 168.408 276.89 168.255 277.099 168.101C277.308 167.948 277.538 167.885 277.789 167.913C278.193 167.913 278.549 167.997 278.855 168.164C279.162 168.331 279.378 168.485 279.503 168.624C279.629 168.763 279.705 168.903 279.733 169.042C279.761 169.126 279.782 169.167 279.796 169.167C279.81 169.167 279.866 169.119 279.963 169.021C280.632 168.296 281.406 167.934 282.283 167.934H282.346C283.015 167.934 283.517 168.22 283.851 168.791C283.963 169.056 284.019 169.314 284.019 169.565C284.019 169.983 283.928 170.317 283.747 170.568C283.566 170.819 283.384 170.979 283.203 171.049C283.022 171.119 282.848 171.146 282.681 171.132C282.402 171.132 282.179 171.056 282.012 170.903C281.845 170.749 281.761 170.547 281.761 170.296C281.761 169.627 282.151 169.181 282.932 168.958C282.625 168.777 282.374 168.687 282.179 168.687C281.399 168.687 280.681 169.202 280.026 170.234C279.886 170.457 279.782 170.687 279.712 170.923C279.643 171.16 279.406 172.087 279.002 173.704C278.528 175.655 278.256 176.693 278.186 176.818C278.005 177.195 277.705 177.383 277.287 177.383C277.106 177.383 276.96 177.341 276.848 177.257C276.737 177.174 276.66 177.09 276.618 177.007C276.577 176.923 276.563 176.853 276.577 176.797C276.577 176.616 276.855 175.418 277.413 173.202C277.97 170.986 278.249 169.753 278.249 169.502C278.249 168.958 278.068 168.687 277.705 168.687C277.413 168.687 277.162 168.882 276.953 169.272C276.744 169.662 276.577 170.087 276.451 170.547C276.326 171.007 276.249 171.258 276.221 171.3C276.193 171.328 276.082 171.342 275.887 171.342H275.594C275.511 171.258 275.469 171.195 275.469 171.153Z" fill="#D9EBFF"/>
<path d="M284.896 171.153C284.91 171.112 284.924 171.056 284.938 170.986C284.952 170.916 284.987 170.763 285.043 170.526C285.099 170.289 285.168 170.073 285.252 169.878C285.335 169.683 285.44 169.453 285.565 169.188C285.691 168.924 285.83 168.715 285.983 168.561C286.137 168.408 286.318 168.255 286.527 168.101C286.736 167.948 286.966 167.885 287.217 167.913C287.621 167.913 287.976 167.997 288.283 168.164C288.59 168.331 288.806 168.485 288.931 168.624C289.056 168.763 289.133 168.903 289.161 169.042C289.189 169.126 289.21 169.167 289.224 169.167C289.238 169.167 289.293 169.119 289.391 169.021C290.06 168.296 290.833 167.934 291.711 167.934H291.774C292.443 167.934 292.945 168.22 293.279 168.791C293.391 169.056 293.446 169.314 293.446 169.565C293.446 169.983 293.356 170.317 293.175 170.568C292.993 170.819 292.812 170.979 292.631 171.049C292.45 171.119 292.276 171.146 292.108 171.132C291.83 171.132 291.607 171.056 291.439 170.903C291.272 170.749 291.189 170.547 291.189 170.296C291.189 169.627 291.579 169.181 292.359 168.958C292.053 168.777 291.802 168.687 291.607 168.687C290.826 168.687 290.109 169.202 289.454 170.234C289.314 170.457 289.21 170.687 289.14 170.923C289.07 171.16 288.833 172.087 288.429 173.704C287.955 175.655 287.684 176.693 287.614 176.818C287.433 177.195 287.133 177.383 286.715 177.383C286.534 177.383 286.388 177.341 286.276 177.257C286.165 177.174 286.088 177.09 286.046 177.007C286.004 176.923 285.99 176.853 286.004 176.797C286.004 176.616 286.283 175.418 286.841 173.202C287.398 170.986 287.677 169.753 287.677 169.502C287.677 168.958 287.496 168.687 287.133 168.687C286.841 168.687 286.59 168.882 286.381 169.272C286.172 169.662 286.004 170.087 285.879 170.547C285.754 171.007 285.677 171.258 285.649 171.3C285.621 171.328 285.51 171.342 285.315 171.342H285.022C284.938 171.258 284.896 171.195 284.896 171.153Z" fill="#D9EBFF"/>
</g>
<path d="M238.645 122.645C219.118 142.171 219.118 173.829 238.645 193.356C258.171 212.882 289.829 212.882 309.355 193.356C328.882 173.829 328.882 142.171 309.355 122.645C299.72 113.01 287.131 108.129 274.503 108.003M274.503 108.003L284.608 97.8976M274.503 108.003L284.887 118.387" stroke="#B3BFD8" stroke-width="2" stroke-linecap="round" stroke-linejoin="round"/>
<path d="M437.69 151.982C437.69 151.843 437.718 151.683 437.773 151.502C437.829 151.32 437.913 151.23 438.024 151.23C438.038 151.23 438.54 151.195 439.529 151.125C440.518 151.056 441.027 151.014 441.055 151C441.222 151 441.305 151.063 441.305 151.188C441.305 151.313 441.069 152.31 440.595 154.177C440.483 154.651 440.365 155.138 440.239 155.64C440.114 156.141 440.01 156.518 439.926 156.768L439.842 157.165C439.842 157.207 439.884 157.186 439.968 157.103C440.651 156.545 441.354 156.267 442.079 156.267C442.943 156.267 443.639 156.587 444.169 157.228C444.698 157.869 444.97 158.677 444.984 159.653C444.984 161.199 444.433 162.599 443.333 163.853C442.232 165.107 441.048 165.734 439.78 165.734C439.083 165.734 438.449 165.47 437.878 164.94C437.307 164.411 437.014 163.554 437 162.37V162.181C437 161.889 437.056 161.485 437.167 160.969C437.279 160.454 437.62 159.081 438.191 156.852C438.888 154.107 439.236 152.651 439.236 152.484C439.236 152.317 438.972 152.219 438.442 152.191C438.372 152.191 438.317 152.191 438.275 152.191H438.17C438.031 152.191 437.94 152.191 437.899 152.191C437.857 152.191 437.808 152.17 437.752 152.129C437.697 152.087 437.676 152.038 437.69 151.982ZM443.186 158.712V158.587C443.186 157.556 442.761 157.04 441.911 157.04C441.675 157.04 441.431 157.096 441.18 157.207C440.929 157.319 440.699 157.465 440.49 157.646C440.281 157.827 440.1 157.994 439.947 158.148C439.794 158.301 439.668 158.454 439.571 158.608L439.445 158.775L439.006 160.572C438.7 161.77 438.547 162.62 438.547 163.122C438.547 163.791 438.714 164.292 439.048 164.627C439.271 164.85 439.55 164.961 439.884 164.961C440.344 164.961 440.811 164.738 441.284 164.292C441.633 163.972 441.911 163.582 442.12 163.122C442.329 162.662 442.559 161.931 442.81 160.927C443.061 159.924 443.186 159.186 443.186 158.712Z" fill="#D9EBFF"/>
<path d="M361 203.936C361 202.528 361.529 201.191 362.588 199.923C363.647 198.655 364.839 198.014 366.162 198C366.873 198 367.5 198.341 368.043 199.024C368.266 198.606 368.587 198.397 369.005 198.397C369.186 198.397 369.346 198.453 369.485 198.564C369.625 198.676 369.694 198.815 369.694 198.982C369.694 199.163 369.437 200.278 368.921 202.326C368.406 204.374 368.141 205.531 368.127 205.796C368.127 206.144 368.176 206.374 368.273 206.485C368.371 206.597 368.517 206.66 368.712 206.673C368.837 206.66 368.977 206.597 369.13 206.485C369.423 206.207 369.708 205.538 369.987 204.479C370.071 204.2 370.14 204.054 370.196 204.04C370.224 204.026 370.293 204.019 370.405 204.019H370.489C370.753 204.019 370.886 204.082 370.886 204.207C370.886 204.291 370.851 204.479 370.781 204.772C370.711 205.064 370.572 205.44 370.363 205.9C370.154 206.36 369.931 206.708 369.694 206.945C369.513 207.126 369.29 207.273 369.026 207.384C368.914 207.412 368.747 207.426 368.524 207.426C368.05 207.426 367.653 207.321 367.333 207.112C367.012 206.903 366.803 206.687 366.706 206.464L366.58 206.151C366.566 206.137 366.538 206.144 366.497 206.172C366.469 206.2 366.441 206.228 366.413 206.255C365.591 207.036 364.755 207.426 363.905 207.426C363.139 207.426 362.463 207.147 361.878 206.59C361.293 206.033 361 205.148 361 203.936ZM367.646 200.362C367.646 200.278 367.611 200.125 367.542 199.902C367.472 199.679 367.312 199.435 367.061 199.17C366.81 198.906 366.49 198.766 366.1 198.752C365.612 198.752 365.145 198.968 364.699 199.4C364.253 199.832 363.905 200.397 363.654 201.093C363.25 202.194 362.965 203.336 362.797 204.521C362.797 204.563 362.797 204.639 362.797 204.751C362.797 204.862 362.79 204.946 362.776 205.001C362.776 205.628 362.902 206.06 363.153 206.297C363.403 206.534 363.703 206.66 364.051 206.673C364.581 206.673 365.103 206.444 365.619 205.984C366.134 205.524 366.441 205.169 366.538 204.918C366.566 204.862 366.754 204.117 367.103 202.682C367.451 201.246 367.632 200.473 367.646 200.362Z" fill="#D9EBFF"/>
</g>
<defs>
<clipPath id="clip0_588_10437">
<rect width="700" height="213" fill="white"/>
</clipPath>
<clipPath id="clip1_588_10437">
<rect width="40.671" height="16.749" fill="white" transform="translate(180 60)"/>
</clipPath>
<clipPath id="clip2_588_10437">
<rect width="39.906" height="13.419" fill="white" transform="translate(254 166)"/>
</clipPath>
</defs>
</svg>
