<svg width="700" height="223" viewBox="0 0 700 223" fill="none" xmlns="http://www.w3.org/2000/svg">
<g clip-path="url(#clip0_189_42)">
<rect width="700" height="222" transform="translate(0 0.5)" fill="#0A0D12"/>
<path d="M228.779 115.457L228.779 217.457" stroke="#B3BFD8" stroke-width="4"/>
<path d="M179.778 12.9569C299.279 -5.04309 343.607 62.8787 228.779 115.792" stroke="#3491FF" stroke-width="4"/>
<path d="M234.279 35.4572C267.421 49.2973 264.279 85.4572 228.778 115.792" stroke="#20C831" stroke-width="4"/>
<circle cx="228.779" cy="115.457" r="5" fill="black" stroke="#D9EBFF" stroke-width="2"/>
<path d="M425.141 115.457L425.141 217.457" stroke="#B3BFD8" stroke-width="4"/>
<path opacity="0.4" d="M376.14 12.9569C495.641 -5.04309 539.968 62.8787 425.14 115.792" stroke="#3491FF" stroke-width="4"/>
<path opacity="0.4" d="M430.64 35.4567C463.782 49.2968 460.64 85.4567 425.14 115.791" stroke="#20C831" stroke-width="4"/>
<path d="M376.141 12.9571L424.804 115.457" stroke="#3491FF" stroke-width="4"/>
<path d="M430.642 35.4569L424.804 115.457" stroke="#20C831" stroke-width="4"/>
<circle cx="425.141" cy="115.457" r="5" fill="black" stroke="#D9EBFF" stroke-width="2"/>
</g>
<defs>
<clipPath id="clip0_189_42">
<rect width="700" height="222" fill="white" transform="translate(0 0.5)"/>
</clipPath>
</defs>
</svg>
