<svg width="700" height="203" viewBox="0 0 700 203" fill="none" xmlns="http://www.w3.org/2000/svg">
<rect width="700" height="203" fill="#0A0D12"/>
<line x1="333.447" y1="61.1467" x2="215.765" y2="38.7311" stroke="#3491FF" stroke-width="2.80195"/>
<rect x="333.008" y="52.1847" width="11.7177" height="11.7177" transform="rotate(45 333.008 52.1847)" fill="#0A0D12" stroke="#3491FF" stroke-width="2.80195"/>
<line x1="334.036" y1="153.674" x2="474.134" y2="187.298" stroke="#3491FF" stroke-width="2.80195"/>
<rect x="333.008" y="147.451" width="11.7177" height="11.7177" transform="rotate(45 333.008 147.451)" fill="#0A0D12" stroke="#3491FF" stroke-width="2.80195"/>
<path d="M215.326 38.7559C333.709 59.7705 333.008 157.138 473.106 186.559" stroke="#B3BFD8" stroke-width="2.80195"/>
<circle cx="473.807" cy="188.661" r="7.00488" fill="black" stroke="#D9EBFF" stroke-width="2.80195"/>
<circle cx="216.026" cy="38.7553" r="7.00488" fill="black" stroke="#D9EBFF" stroke-width="2.80195"/>
<path d="M203.418 15.2768C203.437 15.1597 203.467 15.0035 203.506 14.8083C203.545 14.6131 203.662 14.2421 203.857 13.6955C204.052 13.1489 204.248 12.6901 204.443 12.3192C204.638 11.9483 204.96 11.5871 205.409 11.2357C205.858 10.8843 206.307 10.7183 206.756 10.7379C207.459 10.7379 208.045 10.9136 208.513 11.265C208.982 11.6164 209.275 11.9483 209.392 12.2606C209.509 12.573 209.568 12.778 209.568 12.8756C209.568 12.9146 209.577 12.9341 209.597 12.9341L209.919 12.612C211.11 11.3626 212.467 10.7379 213.989 10.7379C215.044 10.7379 215.893 11.0014 216.537 11.5285C217.181 12.0556 217.513 12.8268 217.533 13.8419C217.552 14.8571 217.181 16.3896 216.42 18.4395C215.659 20.4893 215.288 21.729 215.307 22.1585C215.307 22.6661 215.473 22.9198 215.805 22.9198C215.922 22.9198 216.01 22.9101 216.068 22.8906C216.635 22.7929 217.142 22.422 217.591 21.7778C218.04 21.1335 218.382 20.3527 218.616 19.4351C218.655 19.2789 218.85 19.2008 219.202 19.2008C219.592 19.2008 219.788 19.2789 219.788 19.4351C219.788 19.4546 219.748 19.601 219.67 19.8744C219.514 20.4405 219.299 20.9969 219.026 21.5435C218.753 22.0901 218.304 22.6368 217.679 23.1834C217.054 23.73 216.381 23.9936 215.659 23.9741C214.741 23.9741 214.077 23.7105 213.667 23.1834C213.257 22.6563 213.052 22.1097 213.052 21.5435C213.052 21.1726 213.404 20.0012 214.106 18.0295C214.809 16.0577 215.17 14.574 215.19 13.5784C215.19 12.4266 214.76 11.8506 213.901 11.8506H213.755C212.076 11.8506 210.661 12.8365 209.509 14.8083L209.304 15.1597L208.338 19.0837C207.693 21.6411 207.322 23.0175 207.225 23.2127C206.971 23.7398 206.551 24.0033 205.966 24.0033C205.712 24.0033 205.507 23.9448 205.351 23.8276C205.195 23.7105 205.087 23.5934 205.029 23.4762C204.97 23.3591 204.95 23.2615 204.97 23.1834C204.97 22.9296 205.341 21.3385 206.083 18.4102C206.825 15.4818 207.215 13.8907 207.254 13.6369C207.274 13.5393 207.283 13.3148 207.283 12.9634C207.283 12.202 207.049 11.8214 206.581 11.8214C205.839 11.8214 205.224 12.7975 204.736 14.7497C204.619 15.1402 204.56 15.3452 204.56 15.3647C204.521 15.4818 204.336 15.5404 204.004 15.5404H203.594C203.477 15.4232 203.418 15.3354 203.418 15.2768Z" fill="#D9EBFF"/>
<path d="M222.368 15.9795C223.141 14.8615 224.197 14.3025 225.535 14.3025C226.198 14.3025 226.86 14.482 227.523 14.8408C228.186 15.1997 228.724 15.8346 229.138 16.7455C229.649 17.8911 229.904 19.4646 229.904 21.4659C229.904 23.6053 229.607 25.2409 229.014 26.3727C228.738 26.9524 228.358 27.4148 227.875 27.7598C227.392 28.1049 226.971 28.3188 226.612 28.4016C226.253 28.4844 225.901 28.5327 225.556 28.5465C225.197 28.5465 224.838 28.5051 224.48 28.4223C224.121 28.3395 223.7 28.1187 223.217 27.7598C222.734 27.4009 222.354 26.9386 222.078 26.3727C221.484 25.2409 221.188 23.6053 221.188 21.4659C221.188 19.0643 221.581 17.2355 222.368 15.9795ZM227.026 15.7311C226.612 15.2894 226.122 15.0686 225.556 15.0686C224.976 15.0686 224.48 15.2894 224.066 15.7311C223.72 16.0899 223.493 16.5868 223.382 17.2217C223.272 17.8566 223.217 19.1817 223.217 21.1968C223.217 23.3776 223.272 24.813 223.382 25.5031C223.493 26.1932 223.741 26.7384 224.128 27.1387C224.514 27.5528 224.99 27.7598 225.556 27.7598C226.108 27.7598 226.578 27.5528 226.964 27.1387C227.364 26.7246 227.613 26.1449 227.709 25.3996C227.806 24.6543 227.861 23.2533 227.875 21.1968C227.875 19.1955 227.82 17.8773 227.709 17.2424C227.599 16.6075 227.371 16.1037 227.026 15.7311Z" fill="#D9EBFF"/>
<path d="M461.197 163.78C461.217 163.663 461.246 163.506 461.285 163.311C461.324 163.116 461.441 162.745 461.637 162.198C461.832 161.652 462.027 161.193 462.222 160.822C462.417 160.451 462.74 160.09 463.189 159.739C463.638 159.387 464.087 159.221 464.536 159.241C465.238 159.241 465.824 159.417 466.293 159.768C466.761 160.119 467.054 160.451 467.171 160.764C467.288 161.076 467.347 161.281 467.347 161.379C467.347 161.418 467.357 161.437 467.376 161.437L467.698 161.115C468.889 159.866 470.246 159.241 471.769 159.241C472.823 159.241 473.672 159.504 474.316 160.031C474.961 160.559 475.292 161.33 475.312 162.345C475.331 163.36 474.961 164.893 474.199 166.942C473.438 168.992 473.067 170.232 473.086 170.661C473.086 171.169 473.252 171.423 473.584 171.423C473.701 171.423 473.789 171.413 473.848 171.393C474.414 171.296 474.922 170.925 475.371 170.281C475.82 169.636 476.161 168.856 476.395 167.938C476.434 167.782 476.63 167.704 476.981 167.704C477.372 167.704 477.567 167.782 477.567 167.938C477.567 167.958 477.528 168.104 477.45 168.377C477.293 168.943 477.079 169.5 476.805 170.046C476.532 170.593 476.083 171.14 475.458 171.686C474.834 172.233 474.16 172.497 473.438 172.477C472.52 172.477 471.856 172.213 471.447 171.686C471.037 171.159 470.832 170.613 470.832 170.046C470.832 169.676 471.183 168.504 471.886 166.532C472.589 164.561 472.95 163.077 472.969 162.081C472.969 160.929 472.54 160.354 471.681 160.354H471.534C469.855 160.354 468.44 161.339 467.288 163.311L467.083 163.663L466.117 167.587C465.473 170.144 465.102 171.52 465.004 171.716C464.75 172.243 464.331 172.506 463.745 172.506C463.491 172.506 463.286 172.448 463.13 172.331C462.974 172.213 462.866 172.096 462.808 171.979C462.749 171.862 462.73 171.764 462.749 171.686C462.749 171.433 463.12 169.841 463.862 166.913C464.604 163.985 464.994 162.394 465.033 162.14C465.053 162.042 465.063 161.818 465.063 161.466C465.063 160.705 464.828 160.324 464.36 160.324C463.618 160.324 463.003 161.3 462.515 163.253C462.398 163.643 462.339 163.848 462.339 163.868C462.3 163.985 462.115 164.043 461.783 164.043H461.373C461.256 163.926 461.197 163.838 461.197 163.78Z" fill="#D9EBFF"/>
<path d="M482.569 164.627L482.3 164.731C482.107 164.8 481.831 164.869 481.472 164.938C481.113 165.007 480.713 165.055 480.271 165.083H479.878V164.13H480.271C480.92 164.103 481.52 163.999 482.073 163.82C482.625 163.641 483.011 163.475 483.232 163.323C483.453 163.171 483.646 163.019 483.812 162.868C483.839 162.826 483.922 162.805 484.06 162.805C484.184 162.805 484.302 162.847 484.412 162.93V169.12L484.433 175.331C484.529 175.428 484.612 175.49 484.681 175.517C484.75 175.545 484.916 175.573 485.178 175.6C485.44 175.628 485.868 175.642 486.462 175.642H487V176.594H486.772C486.482 176.553 485.385 176.532 483.48 176.532C481.603 176.532 480.52 176.553 480.23 176.594H479.981V175.642H480.52C480.823 175.642 481.086 175.642 481.307 175.642C481.527 175.642 481.7 175.635 481.824 175.621C481.948 175.607 482.059 175.586 482.155 175.559C482.252 175.531 482.307 175.517 482.321 175.517C482.335 175.517 482.376 175.483 482.445 175.414C482.514 175.345 482.556 175.317 482.569 175.331V164.627Z" fill="#D9EBFF"/>
<path d="M315.496 34.4432C315.496 32.3153 316.336 30.4021 318.014 28.7037C319.693 27.0052 321.509 26.156 323.461 26.156C324.554 26.156 325.413 26.3903 326.038 26.8588C326.663 27.3273 326.985 27.9423 327.005 28.7037C327.005 29.2698 326.819 29.7481 326.448 30.1386C326.077 30.529 325.609 30.734 325.043 30.7535C324.672 30.7535 324.379 30.6559 324.164 30.4607C323.949 30.2654 323.842 29.9726 323.842 29.5822C323.842 29.1917 323.949 28.8598 324.164 28.5865C324.379 28.3132 324.594 28.1082 324.808 27.9716C325.023 27.8349 325.16 27.7763 325.218 27.7959H325.248C325.248 27.7568 325.189 27.6983 325.072 27.6202C324.955 27.5421 324.75 27.464 324.457 27.3859C324.164 27.3078 323.832 27.2688 323.461 27.2688C322.876 27.2688 322.319 27.4054 321.792 27.6787C321.382 27.8544 320.962 28.157 320.533 28.5865C319.674 29.4455 319.049 30.6559 318.659 32.2177C318.268 33.7795 318.063 34.9118 318.044 35.6146C318.044 36.5126 318.298 37.1861 318.805 37.6352C319.235 38.1037 319.801 38.338 320.504 38.338H320.621C322.807 38.338 324.613 37.5083 326.038 35.8489C326.214 35.6536 326.331 35.556 326.39 35.556C326.468 35.556 326.595 35.6439 326.77 35.8196C326.946 35.9953 327.044 36.1319 327.063 36.2295C327.083 36.3272 326.995 36.4736 326.8 36.6688C326.604 36.864 326.321 37.1373 325.95 37.4887C325.579 37.8401 325.14 38.133 324.633 38.3672C324.125 38.6015 323.5 38.8455 322.758 39.0993C322.017 39.3531 321.236 39.4605 320.416 39.4215C318.952 39.4215 317.77 38.9529 316.872 38.0158C315.974 37.0788 315.516 35.8879 315.496 34.4432Z" fill="#3491FF"/>
<path d="M327.854 30.6949C327.873 30.6364 327.893 30.5583 327.912 30.4607C327.932 30.3631 327.981 30.1483 328.059 29.8164C328.137 29.4846 328.234 29.182 328.352 28.9086C328.469 28.6353 328.615 28.3132 328.791 27.9423C328.967 27.5714 329.162 27.2785 329.377 27.0638C329.591 26.849 329.845 26.6343 330.138 26.4195C330.431 26.2048 330.753 26.1169 331.104 26.156C332.568 26.156 333.506 26.7807 333.915 28.0301L334.208 27.7666C335.419 26.6928 336.571 26.156 337.664 26.156C338.933 26.156 339.928 26.6148 340.651 27.5323C341.373 28.4499 341.734 29.5626 341.734 30.8706C341.734 32.9791 340.992 34.9215 339.509 36.6981C338.025 38.4746 336.346 39.3726 334.472 39.3922C334.042 39.3922 333.662 39.3336 333.33 39.2165C333.115 39.1189 332.891 38.9724 332.656 38.7772C332.422 38.582 332.237 38.416 332.1 38.2794L331.895 38.0451C331.875 38.0646 331.661 38.9139 331.251 40.5928C330.841 42.2717 330.636 43.1209 330.636 43.1405C330.636 43.2576 330.714 43.3259 330.87 43.3455C331.026 43.365 331.387 43.3943 331.953 43.4333H332.686C332.803 43.57 332.861 43.6578 332.861 43.6969C332.861 43.7359 332.832 43.9116 332.773 44.224C332.715 44.4582 332.656 44.6047 332.598 44.6632C332.539 44.7218 332.412 44.7608 332.217 44.7804C332.178 44.7804 332.071 44.7804 331.895 44.7804C331.719 44.7804 331.387 44.7706 330.899 44.7511C330.411 44.7315 329.806 44.7218 329.084 44.7218C327.717 44.7218 326.848 44.7413 326.477 44.7804H326.243C326.107 44.6437 326.038 44.5363 326.038 44.4582C326.077 43.9311 326.204 43.5895 326.419 43.4333H327.005C327.668 43.4138 328.049 43.2966 328.147 43.0819C328.205 42.9648 328.801 40.6318 329.933 36.0831C331.065 31.5344 331.661 29.1234 331.719 28.8501C331.739 28.7525 331.748 28.6158 331.748 28.4401C331.748 27.6397 331.504 27.2395 331.016 27.2395C330.587 27.2395 330.226 27.5128 329.933 28.0594C329.64 28.606 329.416 29.2015 329.259 29.8457C329.103 30.49 328.986 30.8414 328.908 30.8999C328.869 30.939 328.713 30.9585 328.439 30.9585H328.029C327.912 30.8414 327.854 30.7535 327.854 30.6949ZM332.393 36.1124C332.822 37.5961 333.545 38.338 334.56 38.338C335.145 38.338 335.712 38.1135 336.258 37.6644C336.805 37.2154 337.254 36.6493 337.605 35.966C337.957 35.3022 338.308 34.248 338.659 32.8034C339.011 31.3587 339.196 30.285 339.216 29.5822V29.4065C339.216 27.9618 338.62 27.2395 337.43 27.2395C337.215 27.2395 337 27.2688 336.785 27.3273C336.571 27.3859 336.356 27.4737 336.141 27.5909C335.926 27.708 335.731 27.8349 335.555 27.9716C335.38 28.1082 335.214 28.2546 335.058 28.4108C334.901 28.567 334.755 28.7134 334.618 28.8501C334.482 28.9867 334.374 29.1234 334.296 29.26C334.218 29.3967 334.14 29.4943 334.062 29.5529L333.974 29.67C333.974 29.6895 333.945 29.8262 333.886 30.08C333.828 30.3338 333.72 30.7633 333.564 31.3685C333.408 31.9737 333.271 32.4812 333.154 32.8912C332.647 34.9606 332.393 36.0343 332.393 36.1124Z" fill="#3491FF"/>
<path d="M343.909 31.3976C344.682 30.2796 345.737 29.7206 347.076 29.7206C347.739 29.7206 348.401 29.9001 349.064 30.2589C349.726 30.6178 350.265 31.2527 350.679 32.1637C351.189 33.3093 351.445 34.8827 351.445 36.8841C351.445 39.0234 351.148 40.659 350.555 41.7908C350.278 42.3705 349.899 42.8329 349.416 43.1779C348.933 43.523 348.512 43.7369 348.153 43.8197C347.794 43.9025 347.442 43.9509 347.097 43.9647C346.738 43.9647 346.379 43.9233 346.02 43.8404C345.662 43.7576 345.241 43.5368 344.758 43.1779C344.274 42.8191 343.895 42.3567 343.619 41.7908C343.025 40.659 342.729 39.0234 342.729 36.8841C342.729 34.4825 343.122 32.6536 343.909 31.3976ZM348.567 31.1492C348.153 30.7075 347.663 30.4867 347.097 30.4867C346.517 30.4867 346.02 30.7075 345.606 31.1492C345.261 31.508 345.034 32.0049 344.923 32.6398C344.813 33.2747 344.758 34.5998 344.758 36.6149C344.758 38.7957 344.813 40.2311 344.923 40.9212C345.034 41.6114 345.282 42.1566 345.668 42.5568C346.055 42.9709 346.531 43.1779 347.097 43.1779C347.649 43.1779 348.118 42.9709 348.505 42.5568C348.905 42.1427 349.154 41.5631 349.25 40.8177C349.347 40.0724 349.402 38.6715 349.416 36.6149C349.416 34.6136 349.361 33.2955 349.25 32.6605C349.14 32.0256 348.912 31.5219 348.567 31.1492Z" fill="#3491FF"/>
<path d="M315.496 181.545C315.496 179.417 316.336 177.504 318.014 175.806C319.693 174.107 321.509 173.258 323.461 173.258C324.554 173.258 325.413 173.492 326.038 173.961C326.663 174.429 326.985 175.044 327.005 175.806C327.005 176.372 326.819 176.85 326.448 177.241C326.077 177.631 325.609 177.836 325.043 177.856C324.672 177.856 324.379 177.758 324.164 177.563C323.949 177.367 323.842 177.075 323.842 176.684C323.842 176.294 323.949 175.962 324.164 175.689C324.379 175.415 324.594 175.21 324.808 175.074C325.023 174.937 325.16 174.878 325.218 174.898H325.248C325.248 174.859 325.189 174.8 325.072 174.722C324.955 174.644 324.75 174.566 324.457 174.488C324.164 174.41 323.832 174.371 323.461 174.371C322.876 174.371 322.319 174.507 321.792 174.781C321.382 174.956 320.962 175.259 320.533 175.689C319.674 176.548 319.049 177.758 318.659 179.32C318.268 180.882 318.063 182.014 318.044 182.717C318.044 183.615 318.298 184.288 318.805 184.737C319.235 185.206 319.801 185.44 320.504 185.44H320.621C322.807 185.44 324.613 184.61 326.038 182.951C326.214 182.756 326.331 182.658 326.39 182.658C326.468 182.658 326.595 182.746 326.77 182.922C326.946 183.097 327.044 183.234 327.063 183.332C327.083 183.429 326.995 183.576 326.8 183.771C326.604 183.966 326.321 184.239 325.95 184.591C325.579 184.942 325.14 185.235 324.633 185.469C324.125 185.704 323.5 185.948 322.758 186.201C322.017 186.455 321.236 186.563 320.416 186.524C318.952 186.524 317.77 186.055 316.872 185.118C315.974 184.181 315.516 182.99 315.496 181.545Z" fill="#3491FF"/>
<path d="M327.854 177.797C327.873 177.738 327.893 177.66 327.912 177.563C327.932 177.465 327.981 177.25 328.059 176.918C328.137 176.587 328.234 176.284 328.352 176.011C328.469 175.737 328.615 175.415 328.791 175.044C328.967 174.673 329.162 174.381 329.377 174.166C329.591 173.951 329.845 173.736 330.138 173.522C330.431 173.307 330.753 173.219 331.104 173.258C332.568 173.258 333.506 173.883 333.915 175.132L334.208 174.869C335.419 173.795 336.571 173.258 337.664 173.258C338.933 173.258 339.928 173.717 340.651 174.634C341.373 175.552 341.734 176.665 341.734 177.973C341.734 180.081 340.992 182.024 339.509 183.8C338.025 185.577 336.346 186.475 334.472 186.494C334.042 186.494 333.662 186.436 333.33 186.319C333.115 186.221 332.891 186.074 332.656 185.879C332.422 185.684 332.237 185.518 332.1 185.381L331.895 185.147C331.875 185.167 331.661 186.016 331.251 187.695C330.841 189.374 330.636 190.223 330.636 190.243C330.636 190.36 330.714 190.428 330.87 190.448C331.026 190.467 331.387 190.496 331.953 190.535H332.686C332.803 190.672 332.861 190.76 332.861 190.799C332.861 190.838 332.832 191.014 332.773 191.326C332.715 191.56 332.656 191.707 332.598 191.765C332.539 191.824 332.412 191.863 332.217 191.882C332.178 191.882 332.071 191.882 331.895 191.882C331.719 191.882 331.387 191.873 330.899 191.853C330.411 191.834 329.806 191.824 329.084 191.824C327.717 191.824 326.848 191.843 326.477 191.882H326.243C326.107 191.746 326.038 191.638 326.038 191.56C326.077 191.033 326.204 190.692 326.419 190.535H327.005C327.668 190.516 328.049 190.399 328.147 190.184C328.205 190.067 328.801 187.734 329.933 183.185C331.065 178.636 331.661 176.225 331.719 175.952C331.739 175.855 331.748 175.718 331.748 175.542C331.748 174.742 331.504 174.342 331.016 174.342C330.587 174.342 330.226 174.615 329.933 175.161C329.64 175.708 329.416 176.304 329.259 176.948C329.103 177.592 328.986 177.943 328.908 178.002C328.869 178.041 328.713 178.061 328.439 178.061H328.029C327.912 177.943 327.854 177.856 327.854 177.797ZM332.393 183.214C332.822 184.698 333.545 185.44 334.56 185.44C335.145 185.44 335.712 185.216 336.258 184.766C336.805 184.317 337.254 183.751 337.605 183.068C337.957 182.404 338.308 181.35 338.659 179.905C339.011 178.461 339.196 177.387 339.216 176.684V176.509C339.216 175.064 338.62 174.342 337.43 174.342C337.215 174.342 337 174.371 336.785 174.429C336.571 174.488 336.356 174.576 336.141 174.693C335.926 174.81 335.731 174.937 335.555 175.074C335.38 175.21 335.214 175.357 335.058 175.513C334.901 175.669 334.755 175.815 334.618 175.952C334.482 176.089 334.374 176.225 334.296 176.362C334.218 176.499 334.14 176.596 334.062 176.655L333.974 176.772C333.974 176.792 333.945 176.928 333.886 177.182C333.828 177.436 333.72 177.865 333.564 178.471C333.408 179.076 333.271 179.583 333.154 179.993C332.647 182.063 332.393 183.136 332.393 183.214Z" fill="#3491FF"/>
<path d="M346.331 178.645L346.062 178.748C345.869 178.817 345.593 178.886 345.234 178.955C344.875 179.024 344.475 179.072 344.033 179.1H343.64V178.148H344.033C344.682 178.12 345.282 178.017 345.834 177.837C346.386 177.658 346.773 177.492 346.994 177.34C347.214 177.188 347.408 177.037 347.573 176.885C347.601 176.843 347.684 176.823 347.822 176.823C347.946 176.823 348.063 176.864 348.174 176.947V183.137L348.194 189.348C348.291 189.445 348.374 189.507 348.443 189.535C348.512 189.562 348.677 189.59 348.94 189.617C349.202 189.645 349.63 189.659 350.223 189.659H350.762V190.611H350.534C350.244 190.57 349.147 190.549 347.242 190.549C345.365 190.549 344.281 190.57 343.991 190.611H343.743V189.659H344.281C344.585 189.659 344.847 189.659 345.068 189.659C345.289 189.659 345.461 189.652 345.586 189.638C345.71 189.624 345.82 189.604 345.917 189.576C346.014 189.548 346.069 189.535 346.083 189.535C346.096 189.535 346.138 189.5 346.207 189.431C346.276 189.362 346.317 189.335 346.331 189.348V178.645Z" fill="#3491FF"/>
</svg>
