<svg width="700" height="222" viewBox="0 0 700 222" fill="none" xmlns="http://www.w3.org/2000/svg">
<g clip-path="url(#clip0_588_10490)">
<rect width="700" height="222" fill="#0A0D12"/>
<path opacity="0.4" d="M362 123L362 222" stroke="#B3BFD8" stroke-width="4"/>
<path d="M192.999 34.5001C192.998 111 330.149 60.1681 362.438 123.34" stroke="#B3BFD8" stroke-width="4"/>
<path opacity="0.5" d="M441.105 -17.3994L362 123" stroke="#20C831" stroke-width="4"/>
<path d="M193.001 111L193 34.5" stroke="#3491FF" stroke-width="2"/>
<path d="M330.149 60.168L362 123" stroke="#3491FF" stroke-width="2"/>
<rect x="330" y="54.5858" width="7.65686" height="7.65686" transform="rotate(45 330 54.5858)" fill="#0A0D12" stroke="#3491FF" stroke-width="2"/>
<rect x="193" y="105.586" width="7.65686" height="7.65686" transform="rotate(45 193 105.586)" fill="#0A0D12" stroke="#3491FF" stroke-width="2"/>
<circle cx="362" cy="122" r="5" fill="black" stroke="#D9EBFF" stroke-width="2"/>
<circle cx="193" cy="34" r="5" fill="black" stroke="#D9EBFF" stroke-width="2"/>
<path d="M323.514 122.54C323.533 122.423 323.562 122.267 323.602 122.072C323.641 121.877 323.758 121.506 323.953 120.959C324.148 120.413 324.343 119.954 324.539 119.583C324.734 119.212 325.056 118.851 325.505 118.499C325.954 118.148 326.403 117.982 326.852 118.002C327.555 118.002 328.14 118.177 328.609 118.529C329.078 118.88 329.37 119.212 329.488 119.524C329.605 119.837 329.663 120.042 329.663 120.139C329.663 120.178 329.673 120.198 329.693 120.198L330.015 119.876C331.205 118.626 332.562 118.002 334.085 118.002C335.139 118.002 335.988 118.265 336.633 118.792C337.277 119.319 337.609 120.09 337.628 121.106C337.648 122.121 337.277 123.653 336.516 125.703C335.754 127.753 335.383 128.993 335.403 129.422C335.403 129.93 335.569 130.184 335.901 130.184C336.018 130.184 336.106 130.174 336.164 130.154C336.73 130.057 337.238 129.686 337.687 129.041C338.136 128.397 338.478 127.616 338.712 126.699C338.751 126.543 338.946 126.465 339.298 126.465C339.688 126.465 339.883 126.543 339.883 126.699C339.883 126.718 339.844 126.865 339.766 127.138C339.61 127.704 339.395 128.261 339.122 128.807C338.849 129.354 338.4 129.9 337.775 130.447C337.15 130.994 336.477 131.257 335.754 131.238C334.837 131.238 334.173 130.974 333.763 130.447C333.353 129.92 333.148 129.373 333.148 128.807C333.148 128.436 333.499 127.265 334.202 125.293C334.905 123.321 335.266 121.838 335.286 120.842C335.286 119.69 334.856 119.114 333.997 119.114H333.851C332.172 119.114 330.756 120.1 329.605 122.072L329.4 122.423L328.433 126.347C327.789 128.905 327.418 130.281 327.321 130.476C327.067 131.003 326.647 131.267 326.061 131.267C325.808 131.267 325.603 131.208 325.446 131.091C325.29 130.974 325.183 130.857 325.124 130.74C325.066 130.623 325.046 130.525 325.066 130.447C325.066 130.193 325.437 128.602 326.178 125.674C326.92 122.745 327.311 121.154 327.35 120.901C327.369 120.803 327.379 120.578 327.379 120.227C327.379 119.466 327.145 119.085 326.676 119.085C325.934 119.085 325.319 120.061 324.831 122.013C324.714 122.404 324.656 122.609 324.656 122.628C324.617 122.745 324.431 122.804 324.099 122.804H323.689C323.572 122.687 323.514 122.599 323.514 122.54Z" fill="#D9EBFF"/>
<path d="M342.464 123.243C343.236 122.125 344.292 121.566 345.631 121.566C346.294 121.566 346.956 121.746 347.619 122.104C348.281 122.463 348.82 123.098 349.234 124.009C349.744 125.155 350 126.728 350 128.73C350 130.869 349.703 132.505 349.109 133.636C348.833 134.216 348.454 134.678 347.971 135.023C347.488 135.369 347.067 135.582 346.708 135.665C346.349 135.748 345.997 135.796 345.652 135.81C345.293 135.81 344.934 135.769 344.575 135.686C344.216 135.603 343.795 135.382 343.312 135.023C342.829 134.665 342.45 134.202 342.174 133.636C341.58 132.505 341.283 130.869 341.283 128.73C341.283 126.328 341.677 124.499 342.464 123.243ZM347.122 122.995C346.708 122.553 346.218 122.332 345.652 122.332C345.072 122.332 344.575 122.553 344.161 122.995C343.816 123.354 343.588 123.85 343.478 124.485C343.368 125.12 343.312 126.445 343.312 128.46C343.312 130.641 343.368 132.077 343.478 132.767C343.588 133.457 343.837 134.002 344.223 134.402C344.61 134.816 345.086 135.023 345.652 135.023C346.204 135.023 346.673 134.816 347.06 134.402C347.46 133.988 347.708 133.409 347.805 132.663C347.902 131.918 347.957 130.517 347.971 128.46C347.971 126.459 347.915 125.141 347.805 124.506C347.695 123.871 347.467 123.367 347.122 122.995Z" fill="#D9EBFF"/>
<path d="M180 10.5405C180.02 10.4234 180.049 10.2672 180.088 10.072C180.127 9.87674 180.244 9.50581 180.439 8.95918C180.634 8.41256 180.83 7.95378 181.025 7.58286C181.22 7.21193 181.542 6.85077 181.991 6.49936C182.44 6.14796 182.889 5.98202 183.338 6.00154C184.041 6.00154 184.627 6.17724 185.095 6.52865C185.564 6.88005 185.857 7.21193 185.974 7.52429C186.091 7.83665 186.15 8.04163 186.15 8.13924C186.15 8.17829 186.159 8.19781 186.179 8.19781L186.501 7.87569C187.692 6.62626 189.049 6.00154 190.571 6.00154C191.626 6.00154 192.475 6.26509 193.119 6.7922C193.763 7.3193 194.095 8.09044 194.115 9.1056C194.134 10.1208 193.763 11.6533 193.002 13.7031C192.241 15.753 191.87 16.9927 191.889 17.4221C191.889 17.9297 192.055 18.1835 192.387 18.1835C192.504 18.1835 192.592 18.1738 192.651 18.1542C193.217 18.0566 193.724 17.6857 194.173 17.0415C194.622 16.3972 194.964 15.6163 195.198 14.6988C195.237 14.5426 195.432 14.4645 195.784 14.4645C196.174 14.4645 196.37 14.5426 196.37 14.6988C196.37 14.7183 196.33 14.8647 196.252 15.138C196.096 15.7042 195.881 16.2606 195.608 16.8072C195.335 17.3538 194.886 17.9004 194.261 18.4471C193.636 18.9937 192.963 19.2572 192.241 19.2377C191.323 19.2377 190.659 18.9742 190.249 18.4471C189.839 17.92 189.634 17.3733 189.634 16.8072C189.634 16.4363 189.986 15.2649 190.689 13.2932C191.391 11.3214 191.752 9.83769 191.772 8.84205C191.772 7.69023 191.343 7.11432 190.484 7.11432H190.337C188.658 7.11432 187.243 8.1002 186.091 10.072L185.886 10.4234L184.92 14.3474C184.275 16.9048 183.904 18.2811 183.807 18.4764C183.553 19.0035 183.133 19.267 182.548 19.267C182.294 19.267 182.089 19.2084 181.933 19.0913C181.777 18.9742 181.669 18.857 181.611 18.7399C181.552 18.6228 181.533 18.5252 181.552 18.4471C181.552 18.1933 181.923 16.6022 182.665 13.6738C183.407 10.7455 183.797 9.15441 183.836 8.90062C183.856 8.80301 183.865 8.5785 183.865 8.22709C183.865 7.46572 183.631 7.08503 183.163 7.08503C182.421 7.08503 181.806 8.06115 181.318 10.0134C181.201 10.4038 181.142 10.6088 181.142 10.6283C181.103 10.7455 180.918 10.8041 180.586 10.8041H180.176C180.059 10.6869 180 10.5991 180 10.5405Z" fill="#D9EBFF"/>
<path d="M201.372 11.3881L201.103 11.4916C200.91 11.5606 200.634 11.6297 200.275 11.6987C199.916 11.7677 199.516 11.816 199.074 11.8436H198.681V10.8912H199.074C199.723 10.8636 200.323 10.7601 200.875 10.5807C201.427 10.4012 201.814 10.2356 202.035 10.0838C202.256 9.93196 202.449 9.78014 202.614 9.62831C202.642 9.58691 202.725 9.5662 202.863 9.5662C202.987 9.5662 203.104 9.60761 203.215 9.69042V15.8808L203.235 22.0918C203.332 22.1884 203.415 22.2506 203.484 22.2782C203.553 22.3058 203.719 22.3334 203.981 22.361C204.243 22.3886 204.671 22.4024 205.264 22.4024H205.803V23.3547H205.575C205.285 23.3133 204.188 23.2926 202.283 23.2926C200.406 23.2926 199.323 23.3133 199.033 23.3547H198.784V22.4024H199.323C199.626 22.4024 199.888 22.4024 200.109 22.4024C200.33 22.4024 200.503 22.3955 200.627 22.3817C200.751 22.3679 200.861 22.3472 200.958 22.3196C201.055 22.292 201.11 22.2782 201.124 22.2782C201.138 22.2782 201.179 22.2436 201.248 22.1746C201.317 22.1056 201.358 22.078 201.372 22.0918V11.3881Z" fill="#D9EBFF"/>
<path d="M305.025 40.2963C305.025 38.1683 305.865 36.2551 307.544 34.5567C309.223 32.8582 311.038 32.009 312.991 32.009C314.084 32.009 314.943 32.2433 315.567 32.7118C316.192 33.1804 316.514 33.7953 316.534 34.5567C316.534 35.1228 316.348 35.6011 315.977 35.9916C315.607 36.382 315.138 36.587 314.572 36.6065C314.201 36.6065 313.908 36.5089 313.693 36.3137C313.479 36.1185 313.371 35.8256 313.371 35.4352C313.371 35.0447 313.479 34.7129 313.693 34.4395C313.908 34.1662 314.123 33.9613 314.338 33.8246C314.552 33.6879 314.689 33.6294 314.748 33.6489H314.777C314.777 33.6098 314.718 33.5513 314.601 33.4732C314.484 33.3951 314.279 33.317 313.986 33.2389C313.693 33.1608 313.361 33.1218 312.991 33.1218C312.405 33.1218 311.848 33.2584 311.321 33.5318C310.911 33.7075 310.492 34.0101 310.062 34.4395C309.203 35.2985 308.578 36.5089 308.188 38.0707C307.798 39.6325 307.593 40.7648 307.573 41.4676C307.573 42.3656 307.827 43.0392 308.334 43.4882C308.764 43.9567 309.33 44.191 310.033 44.191H310.15C312.337 44.191 314.142 43.3613 315.567 41.7019C315.743 41.5067 315.86 41.409 315.919 41.409C315.997 41.409 316.124 41.4969 316.3 41.6726C316.475 41.8483 316.573 41.985 316.592 42.0826C316.612 42.1802 316.524 42.3266 316.329 42.5218C316.134 42.717 315.851 42.9904 315.48 43.3418C315.109 43.6932 314.669 43.986 314.162 44.2203C313.654 44.4545 313.03 44.6986 312.288 44.9524C311.546 45.2062 310.765 45.3135 309.945 45.2745C308.481 45.2745 307.3 44.8059 306.402 43.8689C305.504 42.9318 305.045 41.7409 305.025 40.2963Z" fill="#3491FF"/>
<path d="M317.383 36.548C317.403 36.4894 317.422 36.4113 317.442 36.3137C317.461 36.2161 317.51 36.0013 317.588 35.6695C317.666 35.3376 317.764 35.035 317.881 34.7617C317.998 34.4884 318.144 34.1662 318.32 33.7953C318.496 33.4244 318.691 33.1315 318.906 32.9168C319.121 32.7021 319.374 32.4873 319.667 32.2726C319.96 32.0578 320.282 31.97 320.634 32.009C322.098 32.009 323.035 32.6337 323.445 33.8832L323.738 33.6196C324.948 32.5459 326.1 32.009 327.193 32.009C328.462 32.009 329.458 32.4678 330.18 33.3853C330.902 34.3029 331.263 35.4157 331.263 36.7237C331.263 38.8321 330.522 40.7746 329.038 42.5511C327.554 44.3276 325.875 45.2257 324.001 45.2452C323.572 45.2452 323.191 45.1866 322.859 45.0695C322.644 44.9719 322.42 44.8255 322.186 44.6302C321.951 44.435 321.766 44.2691 321.629 44.1324L321.424 43.8982C321.405 43.9177 321.19 44.7669 320.78 46.4458C320.37 48.1248 320.165 48.974 320.165 48.9935C320.165 49.1106 320.243 49.179 320.399 49.1985C320.555 49.218 320.917 49.2473 321.483 49.2863H322.215C322.332 49.423 322.391 49.5108 322.391 49.5499C322.391 49.5889 322.361 49.7646 322.303 50.077C322.244 50.3113 322.186 50.4577 322.127 50.5162C322.068 50.5748 321.942 50.6139 321.746 50.6334C321.707 50.6334 321.6 50.6334 321.424 50.6334C321.249 50.6334 320.917 50.6236 320.429 50.6041C319.941 50.5846 319.335 50.5748 318.613 50.5748C317.246 50.5748 316.378 50.5943 316.007 50.6334H315.772C315.636 50.4967 315.567 50.3893 315.567 50.3113C315.607 49.7842 315.733 49.4425 315.948 49.2863H316.534C317.198 49.2668 317.578 49.1497 317.676 48.9349C317.734 48.8178 318.33 46.4849 319.462 41.9362C320.595 37.3874 321.19 34.9764 321.249 34.7031C321.268 34.6055 321.278 34.4688 321.278 34.2931C321.278 33.4927 321.034 33.0925 320.546 33.0925C320.116 33.0925 319.755 33.3658 319.462 33.9124C319.169 34.4591 318.945 35.0545 318.789 35.6987C318.633 36.343 318.515 36.6944 318.437 36.753C318.398 36.792 318.242 36.8115 317.969 36.8115H317.559C317.442 36.6944 317.383 36.6065 317.383 36.548ZM321.922 41.9654C322.352 43.4491 323.074 44.191 324.089 44.191C324.675 44.191 325.241 43.9665 325.787 43.5175C326.334 43.0685 326.783 42.5023 327.135 41.819C327.486 41.1553 327.837 40.101 328.189 38.6564C328.54 37.2117 328.726 36.138 328.745 35.4352V35.2595C328.745 33.8148 328.15 33.0925 326.959 33.0925C326.744 33.0925 326.529 33.1218 326.315 33.1804C326.1 33.2389 325.885 33.3268 325.67 33.4439C325.456 33.561 325.26 33.6879 325.085 33.8246C324.909 33.9613 324.743 34.1077 324.587 34.2638C324.431 34.42 324.284 34.5664 324.148 34.7031C324.011 34.8398 323.904 34.9764 323.825 35.1131C323.747 35.2497 323.669 35.3473 323.591 35.4059L323.503 35.523C323.503 35.5426 323.474 35.6792 323.415 35.933C323.357 36.1868 323.25 36.6163 323.093 37.2215C322.937 37.8267 322.801 38.3343 322.683 38.7442C322.176 40.8136 321.922 41.8873 321.922 41.9654Z" fill="#3491FF"/>
<path d="M333.438 37.2507C334.211 36.1327 335.267 35.5737 336.606 35.5737C337.268 35.5737 337.931 35.7531 338.593 36.112C339.256 36.4708 339.794 37.1057 340.208 38.0167C340.719 39.1623 340.974 40.7357 340.974 42.7371C340.974 44.8764 340.677 46.512 340.084 47.6438C339.808 48.2235 339.428 48.6859 338.945 49.031C338.462 49.376 338.041 49.5899 337.682 49.6728C337.323 49.7556 336.971 49.8039 336.626 49.8177C336.267 49.8177 335.909 49.7763 335.55 49.6935C335.191 49.6106 334.77 49.3898 334.287 49.031C333.804 48.6721 333.424 48.2097 333.148 47.6438C332.555 46.512 332.258 44.8764 332.258 42.7371C332.258 40.3355 332.651 38.5067 333.438 37.2507ZM338.096 37.0022C337.682 36.5605 337.192 36.3397 336.626 36.3397C336.047 36.3397 335.55 36.5605 335.136 37.0022C334.791 37.3611 334.563 37.858 334.452 38.4929C334.342 39.1278 334.287 40.4528 334.287 42.4679C334.287 44.6487 334.342 46.0842 334.452 46.7743C334.563 47.4644 334.811 48.0096 335.198 48.4098C335.584 48.8239 336.06 49.031 336.626 49.031C337.178 49.031 337.648 48.8239 338.034 48.4098C338.434 47.9958 338.683 47.4161 338.779 46.6708C338.876 45.9254 338.931 44.5245 338.945 42.4679C338.945 40.4666 338.89 39.1485 338.779 38.5136C338.669 37.8787 338.441 37.3749 338.096 37.0022Z" fill="#3491FF"/>
<path d="M175 131.296C175 129.168 175.839 127.255 177.518 125.557C179.197 123.858 181.013 123.009 182.965 123.009C184.058 123.009 184.917 123.243 185.542 123.712C186.167 124.18 186.489 124.795 186.508 125.557C186.508 126.123 186.323 126.601 185.952 126.992C185.581 127.382 185.113 127.587 184.546 127.607C184.176 127.607 183.883 127.509 183.668 127.314C183.453 127.118 183.346 126.826 183.346 126.435C183.346 126.045 183.453 125.713 183.668 125.44C183.883 125.166 184.097 124.961 184.312 124.825C184.527 124.688 184.664 124.629 184.722 124.649H184.751C184.751 124.61 184.693 124.551 184.576 124.473C184.459 124.395 184.254 124.317 183.961 124.239C183.668 124.161 183.336 124.122 182.965 124.122C182.379 124.122 181.823 124.258 181.296 124.532C180.886 124.707 180.466 125.01 180.037 125.44C179.178 126.299 178.553 127.509 178.163 129.071C177.772 130.633 177.567 131.765 177.548 132.468C177.548 133.366 177.801 134.039 178.309 134.488C178.739 134.957 179.305 135.191 180.007 135.191H180.125C182.311 135.191 184.117 134.361 185.542 132.702C185.718 132.507 185.835 132.409 185.893 132.409C185.972 132.409 186.098 132.497 186.274 132.673C186.45 132.848 186.548 132.985 186.567 133.083C186.587 133.18 186.499 133.327 186.303 133.522C186.108 133.717 185.825 133.99 185.454 134.342C185.083 134.693 184.644 134.986 184.136 135.22C183.629 135.455 183.004 135.699 182.262 135.952C181.52 136.206 180.74 136.314 179.92 136.274C178.455 136.274 177.274 135.806 176.376 134.869C175.478 133.932 175.02 132.741 175 131.296Z" fill="#3491FF"/>
<path d="M187.358 127.548C187.377 127.489 187.397 127.411 187.416 127.314C187.436 127.216 187.485 127.001 187.563 126.669C187.641 126.338 187.738 126.035 187.855 125.762C187.973 125.488 188.119 125.166 188.295 124.795C188.47 124.424 188.666 124.132 188.88 123.917C189.095 123.702 189.349 123.487 189.642 123.273C189.935 123.058 190.257 122.97 190.608 123.009C192.072 123.009 193.009 123.634 193.419 124.883L193.712 124.62C194.923 123.546 196.074 123.009 197.168 123.009C198.437 123.009 199.432 123.468 200.155 124.385C200.877 125.303 201.238 126.416 201.238 127.724C201.238 129.832 200.496 131.775 199.013 133.551C197.529 135.328 195.85 136.226 193.976 136.245C193.546 136.245 193.166 136.187 192.834 136.069C192.619 135.972 192.394 135.825 192.16 135.63C191.926 135.435 191.74 135.269 191.604 135.132L191.399 134.898C191.379 134.918 191.165 135.767 190.755 137.446C190.345 139.125 190.14 139.974 190.14 139.993C190.14 140.111 190.218 140.179 190.374 140.198C190.53 140.218 190.891 140.247 191.457 140.286H192.189C192.307 140.423 192.365 140.511 192.365 140.55C192.365 140.589 192.336 140.765 192.277 141.077C192.219 141.311 192.16 141.458 192.102 141.516C192.043 141.575 191.916 141.614 191.721 141.633C191.682 141.633 191.575 141.633 191.399 141.633C191.223 141.633 190.891 141.624 190.403 141.604C189.915 141.585 189.31 141.575 188.588 141.575C187.221 141.575 186.352 141.594 185.981 141.633H185.747C185.61 141.497 185.542 141.389 185.542 141.311C185.581 140.784 185.708 140.443 185.923 140.286H186.508C187.172 140.267 187.553 140.15 187.651 139.935C187.709 139.818 188.305 137.485 189.437 132.936C190.569 128.387 191.165 125.976 191.223 125.703C191.243 125.605 191.252 125.469 191.252 125.293C191.252 124.493 191.008 124.093 190.52 124.093C190.091 124.093 189.73 124.366 189.437 124.912C189.144 125.459 188.919 126.055 188.763 126.699C188.607 127.343 188.49 127.694 188.412 127.753C188.373 127.792 188.217 127.812 187.943 127.812H187.533C187.416 127.694 187.358 127.607 187.358 127.548ZM191.897 132.965C192.326 134.449 193.048 135.191 194.064 135.191C194.649 135.191 195.215 134.966 195.762 134.517C196.309 134.068 196.758 133.502 197.109 132.819C197.461 132.155 197.812 131.101 198.163 129.656C198.515 128.212 198.7 127.138 198.72 126.435V126.259C198.72 124.815 198.124 124.093 196.933 124.093C196.719 124.093 196.504 124.122 196.289 124.18C196.074 124.239 195.86 124.327 195.645 124.444C195.43 124.561 195.235 124.688 195.059 124.825C194.884 124.961 194.718 125.108 194.561 125.264C194.405 125.42 194.259 125.566 194.122 125.703C193.986 125.84 193.878 125.976 193.8 126.113C193.722 126.25 193.644 126.347 193.566 126.406L193.478 126.523C193.478 126.543 193.449 126.679 193.39 126.933C193.332 127.187 193.224 127.616 193.068 128.221C192.912 128.827 192.775 129.334 192.658 129.744C192.15 131.814 191.897 132.887 191.897 132.965Z" fill="#3491FF"/>
<path d="M205.835 128.396L205.566 128.499C205.373 128.568 205.096 128.637 204.738 128.706C204.379 128.775 203.978 128.823 203.537 128.851H203.143V127.899H203.537C204.186 127.871 204.786 127.768 205.338 127.588C205.89 127.409 206.277 127.243 206.497 127.091C206.718 126.939 206.911 126.788 207.077 126.636C207.105 126.594 207.188 126.574 207.326 126.574C207.45 126.574 207.567 126.615 207.678 126.698V132.888L207.698 139.099C207.795 139.196 207.878 139.258 207.947 139.286C208.016 139.313 208.181 139.341 208.444 139.368C208.706 139.396 209.134 139.41 209.727 139.41H210.265V140.362H210.038C209.748 140.321 208.651 140.3 206.746 140.3C204.869 140.3 203.785 140.321 203.495 140.362H203.247V139.41H203.785C204.089 139.41 204.351 139.41 204.572 139.41C204.793 139.41 204.965 139.403 205.09 139.389C205.214 139.375 205.324 139.355 205.421 139.327C205.517 139.299 205.573 139.286 205.586 139.286C205.6 139.286 205.642 139.251 205.711 139.182C205.78 139.113 205.821 139.085 205.835 139.099V128.396Z" fill="#3491FF"/>
<path d="M378 126.495C378 124.573 378.712 122.844 380.135 121.31C381.558 119.775 383.097 119.008 384.752 119.008C385.679 119.008 386.407 119.22 386.937 119.643C387.466 120.066 387.74 120.622 387.756 121.31C387.756 121.821 387.599 122.253 387.284 122.606C386.97 122.959 386.573 123.144 386.093 123.162C385.778 123.162 385.53 123.074 385.348 122.897C385.166 122.721 385.075 122.456 385.075 122.104C385.075 121.751 385.166 121.451 385.348 121.204C385.53 120.957 385.712 120.772 385.894 120.648C386.076 120.525 386.192 120.472 386.242 120.49H386.267C386.267 120.454 386.217 120.402 386.118 120.331C386.018 120.26 385.845 120.19 385.596 120.119C385.348 120.049 385.067 120.013 384.752 120.013C384.256 120.013 383.784 120.137 383.337 120.384C382.99 120.543 382.634 120.816 382.27 121.204C381.542 121.98 381.012 123.074 380.681 124.485C380.35 125.896 380.176 126.919 380.16 127.554C380.16 128.365 380.375 128.973 380.805 129.379C381.169 129.802 381.649 130.014 382.245 130.014H382.344C384.198 130.014 385.729 129.264 386.937 127.765C387.086 127.589 387.185 127.501 387.235 127.501C387.301 127.501 387.409 127.58 387.557 127.739C387.706 127.898 387.789 128.021 387.806 128.109C387.822 128.197 387.748 128.33 387.582 128.506C387.417 128.682 387.177 128.929 386.862 129.247C386.548 129.564 386.176 129.829 385.745 130.041C385.315 130.252 384.785 130.473 384.157 130.702C383.528 130.931 382.866 131.028 382.171 130.993C380.929 130.993 379.928 130.57 379.167 129.723C378.405 128.876 378.017 127.801 378 126.495Z" fill="#D9EBFF"/>
<path d="M388.426 123.109C388.426 122.968 388.501 122.694 388.65 122.289C388.799 121.883 389.006 121.425 389.27 120.913C389.535 120.402 389.899 119.961 390.363 119.59C390.826 119.22 391.314 119.026 391.827 119.008C392.589 119.008 393.16 119.229 393.54 119.67C393.921 120.11 394.111 120.631 394.111 121.23C394.111 121.548 393.83 122.536 393.267 124.194C392.704 125.852 392.423 127.095 392.423 127.924C392.423 128.682 392.539 129.212 392.771 129.511C393.002 129.811 393.35 129.97 393.813 129.988C394.277 130.005 394.715 129.855 395.129 129.538C395.543 129.22 395.849 128.921 396.047 128.638L396.321 128.189C396.354 128.118 396.668 126.778 397.264 124.167C397.76 122.051 398.058 120.816 398.158 120.463C398.257 120.11 398.373 119.855 398.505 119.696C398.786 119.431 399.084 119.299 399.399 119.299C399.68 119.299 399.887 119.387 400.019 119.564C400.152 119.74 400.218 119.908 400.218 120.066L398.331 128.48C398.315 128.568 398.307 128.709 398.307 128.903C398.307 129.344 398.364 129.635 398.48 129.776C398.596 129.917 398.77 129.996 399.002 130.014C399.366 129.961 399.655 129.688 399.87 129.194C400.086 128.7 400.334 127.924 400.615 126.866C400.648 126.725 400.814 126.654 401.112 126.654C401.426 126.654 401.583 126.733 401.583 126.892C401.567 126.98 401.55 127.104 401.534 127.263C401.517 127.421 401.443 127.704 401.31 128.109C401.178 128.515 401.037 128.894 400.888 129.247C400.739 129.6 400.532 129.935 400.268 130.252C400.003 130.57 399.705 130.79 399.374 130.914C399.242 130.949 399.043 130.966 398.778 130.966C397.686 130.966 396.933 130.473 396.519 129.485C396.486 129.503 396.395 129.591 396.246 129.749C396.097 129.908 395.948 130.041 395.799 130.146C395.65 130.252 395.468 130.384 395.253 130.543C395.038 130.702 394.798 130.808 394.533 130.861C394.268 130.914 393.987 130.958 393.689 130.993C392.961 130.993 392.316 130.834 391.753 130.517C390.892 129.97 390.462 129.035 390.462 127.712C390.462 126.707 390.752 125.393 391.331 123.77C391.91 122.148 392.2 121.116 392.2 120.675C392.2 120.657 392.2 120.64 392.2 120.622C392.2 120.463 392.2 120.357 392.2 120.305C392.2 120.252 392.167 120.19 392.1 120.119C392.034 120.049 391.943 120.013 391.827 120.013H391.728C391.347 120.013 391 120.181 390.685 120.516C390.371 120.851 390.123 121.213 389.941 121.601C389.759 121.989 389.618 122.359 389.519 122.712C389.419 123.065 389.353 123.259 389.32 123.294C389.287 123.329 389.155 123.347 388.923 123.347H388.575C388.476 123.241 388.426 123.162 388.426 123.109Z" fill="#D9EBFF"/>
<path d="M402.651 123.109C402.667 123.056 402.684 122.985 402.7 122.897C402.717 122.809 402.758 122.615 402.825 122.315C402.891 122.015 402.974 121.742 403.073 121.495C403.172 121.248 403.296 120.957 403.445 120.622C403.594 120.287 403.76 120.022 403.942 119.828C404.124 119.634 404.339 119.44 404.587 119.246C404.835 119.052 405.108 118.973 405.406 119.008C405.886 119.008 406.308 119.114 406.672 119.326C407.037 119.537 407.293 119.731 407.442 119.908C407.591 120.084 407.682 120.26 407.715 120.437C407.748 120.543 407.773 120.596 407.79 120.596C407.806 120.596 407.872 120.534 407.988 120.41C408.783 119.493 409.701 119.035 410.744 119.035H410.818C411.613 119.035 412.208 119.396 412.606 120.119C412.738 120.454 412.804 120.781 412.804 121.098C412.804 121.627 412.697 122.051 412.481 122.368C412.266 122.686 412.051 122.888 411.836 122.977C411.621 123.065 411.414 123.1 411.215 123.082C410.884 123.082 410.62 122.985 410.421 122.791C410.222 122.597 410.123 122.342 410.123 122.024C410.123 121.178 410.586 120.613 411.513 120.331C411.149 120.102 410.851 119.987 410.62 119.987C409.693 119.987 408.84 120.64 408.063 121.945C407.897 122.227 407.773 122.518 407.69 122.818C407.607 123.118 407.326 124.291 406.846 126.337C406.284 128.806 405.961 130.12 405.878 130.279C405.663 130.755 405.307 130.993 404.811 130.993C404.595 130.993 404.422 130.94 404.289 130.834C404.157 130.728 404.066 130.623 404.016 130.517C403.967 130.411 403.95 130.323 403.967 130.252C403.967 130.023 404.298 128.506 404.96 125.702C405.622 122.897 405.953 121.336 405.953 121.019C405.953 120.331 405.737 119.987 405.307 119.987C404.96 119.987 404.662 120.234 404.413 120.728C404.165 121.222 403.967 121.76 403.818 122.342C403.669 122.924 403.578 123.241 403.545 123.294C403.511 123.329 403.379 123.347 403.147 123.347H402.8C402.7 123.241 402.651 123.162 402.651 123.109Z" fill="#D9EBFF"/>
<path d="M413.847 123.109C413.863 123.056 413.88 122.985 413.896 122.897C413.913 122.809 413.954 122.615 414.021 122.315C414.087 122.015 414.169 121.742 414.269 121.495C414.368 121.248 414.492 120.957 414.641 120.622C414.79 120.287 414.956 120.022 415.138 119.828C415.32 119.634 415.535 119.44 415.783 119.246C416.031 119.052 416.304 118.973 416.602 119.008C417.082 119.008 417.504 119.114 417.868 119.326C418.232 119.537 418.489 119.731 418.638 119.908C418.787 120.084 418.878 120.26 418.911 120.437C418.944 120.543 418.969 120.596 418.985 120.596C419.002 120.596 419.068 120.534 419.184 120.41C419.978 119.493 420.897 119.035 421.94 119.035H422.014C422.808 119.035 423.404 119.396 423.801 120.119C423.934 120.454 424 120.781 424 121.098C424 121.627 423.892 122.051 423.677 122.368C423.462 122.686 423.247 122.888 423.032 122.977C422.817 123.065 422.61 123.1 422.411 123.082C422.08 123.082 421.815 122.985 421.617 122.791C421.418 122.597 421.319 122.342 421.319 122.024C421.319 121.178 421.782 120.613 422.709 120.331C422.345 120.102 422.047 119.987 421.815 119.987C420.889 119.987 420.036 120.64 419.258 121.945C419.093 122.227 418.969 122.518 418.886 122.818C418.803 123.118 418.522 124.291 418.042 126.337C417.479 128.806 417.157 130.12 417.074 130.279C416.859 130.755 416.503 130.993 416.006 130.993C415.791 130.993 415.618 130.94 415.485 130.834C415.353 130.728 415.262 130.623 415.212 130.517C415.162 130.411 415.146 130.323 415.162 130.252C415.162 130.023 415.493 128.506 416.155 125.702C416.817 122.897 417.148 121.336 417.148 121.019C417.148 120.331 416.933 119.987 416.503 119.987C416.155 119.987 415.858 120.234 415.609 120.728C415.361 121.222 415.162 121.76 415.013 122.342C414.865 122.924 414.774 123.241 414.74 123.294C414.707 123.329 414.575 123.347 414.343 123.347H413.996C413.896 123.241 413.847 123.162 413.847 123.109Z" fill="#D9EBFF"/>
</g>
<defs>
<clipPath id="clip0_588_10490">
<rect width="700" height="222" fill="white"/>
</clipPath>
</defs>
</svg>
