<svg width="700" height="222" viewBox="0 0 700 222" fill="none" xmlns="http://www.w3.org/2000/svg">
<rect width="700" height="222" fill="#0A0D12"/>
<path d="M223 108.999C223 36 171.715 36 133 36" stroke="#20C831" stroke-width="4"/>
<path d="M223 108.499C223 72.4994 172 72.9994 133.5 72.9994" stroke="#3491FF" stroke-width="4"/>
<path d="M223 108.999L223 210.999" stroke="#B3BFD8" stroke-width="4"/>
<circle cx="223" cy="108.999" r="5" fill="black" stroke="#D9EBFF" stroke-width="2"/>
<path opacity="0.4" d="M363 109C363 36.001 311.715 36.001 273 36.001" stroke="#20C831" stroke-width="4"/>
<path opacity="0.4" d="M363 109.5C363 73.4999 312 73.9999 273.5 73.9999" stroke="#3491FF" stroke-width="4"/>
<path d="M363 36L363 82" stroke="#20C831" stroke-width="2"/>
<rect x="363" y="31.5858" width="6.24264" height="6.24264" transform="rotate(45 363 31.5858)" fill="#0A0D12" stroke="#20C831" stroke-width="2"/>
<path d="M363 74L363 109" stroke="#3491FF" stroke-width="2"/>
<rect x="363" y="69.5858" width="6.24264" height="6.24264" transform="rotate(45 363 69.5858)" fill="#0A0D12" stroke="#3491FF" stroke-width="2"/>
<path d="M363 109L363 211" stroke="#B3BFD8" stroke-width="4"/>
<circle cx="363" cy="109" r="5" fill="black" stroke="#D9EBFF" stroke-width="2"/>
<path d="M504 38L504 84" stroke="#20C831" stroke-width="4"/>
<path d="M504 76L504 111" stroke="#3491FF" stroke-width="4"/>
<path d="M504 111L504 213" stroke="#B3BFD8" stroke-width="4"/>
<circle cx="504" cy="111" r="5" fill="black" stroke="#D9EBFF" stroke-width="2"/>
<path d="M515.503 23.9555C515.391 23.1309 515.438 22.3999 515.644 21.7626C515.85 21.1254 516.14 20.5443 516.515 20.0195C516.909 19.4947 517.312 18.9981 517.724 18.5295C518.137 18.0609 518.483 17.6017 518.764 17.1519C519.046 16.7021 519.186 16.2241 519.186 15.7181C519.186 15.0433 518.98 14.4998 518.568 14.0874C518.174 13.6751 517.621 13.4689 516.909 13.4689C516.328 13.4689 515.803 13.6001 515.335 13.8625C514.866 14.1249 514.426 14.481 514.013 14.9309L512.214 13.2721C512.832 12.5599 513.573 11.9789 514.435 11.529C515.297 11.0605 516.253 10.8262 517.303 10.8262C518.764 10.8262 519.964 11.2198 520.901 12.007C521.857 12.7942 522.335 13.9562 522.335 15.4931C522.335 16.2054 522.185 16.8426 521.885 17.4049C521.604 17.9672 521.248 18.492 520.817 18.9793C520.404 19.4666 519.992 19.9539 519.58 20.4413C519.167 20.9286 518.839 21.4534 518.596 22.0157C518.352 22.5779 518.268 23.2246 518.343 23.9555H515.503ZM516.937 30.3375C516.356 30.3375 515.859 30.1313 515.447 29.719C515.053 29.3066 514.857 28.7818 514.857 28.1446C514.857 27.5073 515.053 26.9825 515.447 26.5702C515.859 26.1578 516.356 25.9517 516.937 25.9517C517.537 25.9517 518.034 26.1578 518.427 26.5702C518.839 26.9825 519.046 27.5073 519.046 28.1446C519.046 28.7818 518.839 29.3066 518.427 29.719C518.034 30.1313 517.537 30.3375 516.937 30.3375Z" fill="#D9EBFF"/>
<path d="M502.168 23.9555C502.056 23.1309 502.103 22.3999 502.309 21.7626C502.515 21.1254 502.806 20.5443 503.18 20.0195C503.574 19.4947 503.977 18.9981 504.389 18.5295C504.802 18.0609 505.148 17.6017 505.43 17.1519C505.711 16.7021 505.851 16.2241 505.851 15.7181C505.851 15.0433 505.645 14.4998 505.233 14.0874C504.839 13.6751 504.286 13.4689 503.574 13.4689C502.993 13.4689 502.468 13.6001 502 13.8625C501.531 14.1249 501.091 14.481 500.678 14.9309L498.879 13.2721C499.497 12.5599 500.238 11.9789 501.1 11.529C501.962 11.0605 502.918 10.8262 503.968 10.8262C505.43 10.8262 506.629 11.2198 507.566 12.007C508.522 12.7942 509 13.9562 509 15.4931C509 16.2054 508.85 16.8426 508.55 17.4049C508.269 17.9672 507.913 18.492 507.482 18.9793C507.07 19.4666 506.657 19.9539 506.245 20.4413C505.833 20.9286 505.505 21.4534 505.261 22.0157C505.017 22.5779 504.933 23.2246 505.008 23.9555H502.168ZM503.602 30.3375C503.021 30.3375 502.524 30.1313 502.112 29.719C501.718 29.3066 501.522 28.7818 501.522 28.1446C501.522 27.5073 501.718 26.9825 502.112 26.5702C502.524 26.1578 503.021 25.9517 503.602 25.9517C504.202 25.9517 504.699 26.1578 505.092 26.5702C505.505 26.9825 505.711 27.5073 505.711 28.1446C505.711 28.7818 505.505 29.3066 505.092 29.719C504.699 30.1313 504.202 30.3375 503.602 30.3375Z" fill="#D9EBFF"/>
<path d="M488.832 23.9555C488.72 23.1309 488.767 22.3999 488.973 21.7626C489.179 21.1254 489.47 20.5443 489.844 20.0195C490.238 19.4947 490.641 18.9981 491.053 18.5295C491.466 18.0609 491.812 17.6017 492.094 17.1519C492.375 16.7021 492.515 16.2241 492.515 15.7181C492.515 15.0433 492.309 14.4998 491.897 14.0874C491.503 13.6751 490.95 13.4689 490.238 13.4689C489.657 13.4689 489.132 13.6001 488.664 13.8625C488.195 14.1249 487.755 14.481 487.342 14.9309L485.543 13.2721C486.161 12.5599 486.902 11.9789 487.764 11.529C488.626 11.0605 489.582 10.8262 490.632 10.8262C492.094 10.8262 493.293 11.2198 494.23 12.007C495.186 12.7942 495.664 13.9562 495.664 15.4931C495.664 16.2054 495.514 16.8426 495.214 17.4049C494.933 17.9672 494.577 18.492 494.146 18.9793C493.734 19.4666 493.321 19.9539 492.909 20.4413C492.497 20.9286 492.169 21.4534 491.925 22.0157C491.681 22.5779 491.597 23.2246 491.672 23.9555H488.832ZM490.266 30.3375C489.685 30.3375 489.188 30.1313 488.776 29.719C488.383 29.3066 488.186 28.7818 488.186 28.1446C488.186 27.5073 488.383 26.9825 488.776 26.5702C489.188 26.1578 489.685 25.9517 490.266 25.9517C490.866 25.9517 491.363 26.1578 491.756 26.5702C492.169 26.9825 492.375 27.5073 492.375 28.1446C492.375 28.7818 492.169 29.3066 491.756 29.719C491.363 30.1313 490.866 30.3375 490.266 30.3375Z" fill="#D9EBFF"/>
</svg>
