<svg width="701" height="177" viewBox="0 0 701 177" fill="none" xmlns="http://www.w3.org/2000/svg">
<rect width="700" height="176" transform="translate(0.294922 0.75)" fill="#0A0D12"/>
<path d="M437.333 55.5292H642.402L664.692 11.7941H680.295L664.692 89.1716C663.577 94.0311 659.119 103.75 650.203 103.75H418.387C399.44 103.75 388.295 93.6573 388.295 89.1716C388.295 84.686 408.356 55.5292 437.333 55.5292Z" stroke="#B3BFD8" stroke-width="2"/>
<path d="M540.982 47.8781H499.355L566.616 9.75001H578.875L540.982 47.8781Z" stroke="#B3BFD8" stroke-width="2"/>
<g filter="url(#filter0_dd_23_399)">
<path d="M543.727 90.75H497.295L581.934 159.75H594.295L543.727 90.75Z" fill="#0A0D12"/>
<path d="M543.727 90.75H497.295L581.934 159.75H594.295L543.727 90.75Z" stroke="#B3BFD8" stroke-width="2" stroke-linejoin="round"/>
</g>
<path d="M375.935 76.9278H247.512C219.222 76.9278 219.222 48.0997 247.512 48.0997C247.512 37.7512 255.702 27.4026 268.358 27.4026C278.483 27.4026 282.503 33.8089 283.247 37.012C286.225 24.4459 295.903 20.75 302.604 20.75C309.304 20.75 322.704 20.75 322.704 40.7079C333.127 37.012 343.55 37.7512 348.017 51.7956C356.95 49.5781 367.373 51.7956 371.84 57.7091C380.178 57.7091 369.606 57.7091 378.54 57.7091C388.069 57.7091 391.693 60.173 393.43 62.1441" stroke="#B3BFD8" stroke-width="2"/>
<path d="M191.995 97.3142C217.507 97.3142 220.573 132.75 191.995 132.75H42.7394C11.8639 132.75 16.5244 102.542 42.7394 102.542C42.7394 86.2768 61.9638 79.3058 72.4498 83.9531C75.3626 67.1066 110.899 68.2684 113.811 83.9531C120.802 70.0112 144.104 70.5921 151.095 86.2768C156.338 65.9447 191.995 65.9447 191.995 97.3142Z" stroke="#B3BFD8" stroke-width="2"/>
<circle cx="388.295" cy="89.75" r="4" fill="black" stroke="#D9EBFF" stroke-width="2"/>
<circle cx="414.295" cy="103.75" r="4" fill="black" stroke="#D9EBFF" stroke-width="2"/>
<circle cx="498.295" cy="90.75" r="4" fill="black" stroke="#D9EBFF" stroke-width="2"/>
<circle cx="498.295" cy="46.75" r="4" fill="black" stroke="#D9EBFF" stroke-width="2"/>
<circle cx="539.295" cy="46.75" r="4" fill="black" stroke="#D9EBFF" stroke-width="2"/>
<circle cx="577.295" cy="7.75" r="4" fill="black" stroke="#D9EBFF" stroke-width="2"/>
<circle cx="565.295" cy="7.75" r="4" fill="black" stroke="#D9EBFF" stroke-width="2"/>
<circle cx="542.295" cy="90.75" r="4" fill="black" stroke="#D9EBFF" stroke-width="2"/>
<circle cx="593.295" cy="158.75" r="4" fill="black" stroke="#D9EBFF" stroke-width="2"/>
<circle cx="579.295" cy="158.75" r="4" fill="black" stroke="#D9EBFF" stroke-width="2"/>
<circle cx="434.295" cy="55.75" r="4" fill="black" stroke="#D9EBFF" stroke-width="2"/>
<circle cx="642.295" cy="54.75" r="4" fill="black" stroke="#D9EBFF" stroke-width="2"/>
<circle cx="664.295" cy="11.75" r="4" fill="black" stroke="#D9EBFF" stroke-width="2"/>
<circle cx="680.295" cy="11.75" r="4" fill="black" stroke="#D9EBFF" stroke-width="2"/>
<circle cx="664.295" cy="87.75" r="4" fill="black" stroke="#D9EBFF" stroke-width="2"/>
<circle cx="651.295" cy="103.75" r="4" fill="black" stroke="#D9EBFF" stroke-width="2"/>
<circle cx="392.295" cy="61.75" r="4" fill="black" stroke="#D9EBFF" stroke-width="2"/>
<circle cx="371.295" cy="56.75" r="4" fill="black" stroke="#D9EBFF" stroke-width="2"/>
<circle cx="323.295" cy="40.75" r="4" fill="black" stroke="#D9EBFF" stroke-width="2"/>
<circle cx="348.295" cy="51.75" r="4" fill="black" stroke="#D9EBFF" stroke-width="2"/>
<circle cx="282.295" cy="35.75" r="4" fill="black" stroke="#D9EBFF" stroke-width="2"/>
<circle cx="247.295" cy="47.75" r="4" fill="black" stroke="#D9EBFF" stroke-width="2"/>
<circle cx="243.295" cy="76.75" r="4" fill="black" stroke="#D9EBFF" stroke-width="2"/>
<circle cx="194.295" cy="132.75" r="4" fill="black" stroke="#D9EBFF" stroke-width="2"/>
<circle cx="192.295" cy="96.75" r="4" fill="black" stroke="#D9EBFF" stroke-width="2"/>
<circle cx="150.295" cy="84.75" r="4" fill="black" stroke="#D9EBFF" stroke-width="2"/>
<circle cx="114.295" cy="82.75" r="4" fill="black" stroke="#D9EBFF" stroke-width="2"/>
<circle cx="71.2949" cy="82.75" r="4" fill="black" stroke="#D9EBFF" stroke-width="2"/>
<circle cx="42.2949" cy="102.75" r="4" fill="black" stroke="#D9EBFF" stroke-width="2"/>
<circle cx="40.2949" cy="132.75" r="4" fill="black" stroke="#D9EBFF" stroke-width="2"/>
<circle cx="374.295" cy="76.75" r="4" fill="black" stroke="#D9EBFF" stroke-width="2"/>
<defs>
<filter id="filter0_dd_23_399" x="496.295" y="89.75" width="103" height="75" filterUnits="userSpaceOnUse" color-interpolation-filters="sRGB">
<feFlood flood-opacity="0" result="BackgroundImageFix"/>
<feColorMatrix in="SourceAlpha" type="matrix" values="0 0 0 0 0 0 0 0 0 0 0 0 0 0 0 0 0 0 127 0" result="hardAlpha"/>
<feOffset dx="4"/>
<feColorMatrix type="matrix" values="0 0 0 0 0.0392157 0 0 0 0 0.0509804 0 0 0 0 0.0705882 0 0 0 1 0"/>
<feBlend mode="normal" in2="BackgroundImageFix" result="effect1_dropShadow_23_399"/>
<feColorMatrix in="SourceAlpha" type="matrix" values="0 0 0 0 0 0 0 0 0 0 0 0 0 0 0 0 0 0 127 0" result="hardAlpha"/>
<feOffset dy="4"/>
<feColorMatrix type="matrix" values="0 0 0 0 0.0392157 0 0 0 0 0.0509804 0 0 0 0 0.0705882 0 0 0 1 0"/>
<feBlend mode="normal" in2="effect1_dropShadow_23_399" result="effect2_dropShadow_23_399"/>
<feBlend mode="normal" in="SourceGraphic" in2="effect2_dropShadow_23_399" result="shape"/>
</filter>
</defs>
</svg>
