<svg width="700" height="301" viewBox="0 0 700 301" fill="none" xmlns="http://www.w3.org/2000/svg">
<rect width="700" height="300" transform="translate(0 0.5)" fill="#0A0D12"/>
<path d="M149 6.5C292.999 6.5 481.97 6.50006 496.151 257.5" stroke="#EB5757"/>
<path d="M151 149.501C288.86 149.501 468.178 147.846 493.881 258" stroke="#B3BFD8"/>
<path d="M486 235.5L497 288.5" stroke="#20C831"/>
<path d="M477 221.5L497 288.5" stroke="#20C831"/>
<path d="M460 203.5L497 288.5" stroke="#20C831"/>
<path d="M466 208.5L497 288.5" stroke="#20C831"/>
<path d="M472 215.5L497 288.5" stroke="#20C831"/>
<path d="M482 229.5L497 288.5" stroke="#20C831"/>
<path d="M490 246.5L497 288.5" stroke="#20C831"/>
<path d="M454 198.5L497 288.5" stroke="#20C831"/>
<path d="M448 194.5L497.032 288.483" stroke="#20C831"/>
<path d="M441 189.5L497 288.5" stroke="#20C831"/>
<path d="M434 185.5L497 288.5" stroke="#20C831"/>
<path d="M428 182.5L497 288.5" stroke="#20C831"/>
<path d="M422 180.5L497 288.5" stroke="#20C831"/>
<path d="M416 177.5L497 288.5" stroke="#20C831"/>
<path d="M410 175.5L497 288.5" stroke="#20C831"/>
<path d="M404 173.5L497 288.5" stroke="#20C831"/>
<path d="M398 171.5L497 288.5" stroke="#20C831"/>
<path d="M390 168.5L497 288.5" stroke="#20C831"/>
<path d="M384 167.5L497 288.5" stroke="#20C831"/>
<path d="M377 165.5L497 288.5" stroke="#20C831"/>
<path d="M370 163.5L497 288.5" stroke="#20C831"/>
<path d="M364 162.5L497 288.5" stroke="#20C831"/>
<path d="M357 161.5L497 288.5" stroke="#20C831"/>
<path d="M349 159.5L497 288.5" stroke="#20C831"/>
<path d="M342 158.5L497 288.5" stroke="#20C831"/>
<path d="M335 157.5L497 288.5" stroke="#20C831"/>
<path d="M328 156.5L497 288.5" stroke="#20C831"/>
<path d="M321 155.5L497 288.5" stroke="#20C831"/>
<path d="M314 155.5L497 288.5" stroke="#20C831"/>
<path d="M307 154.5L497 288.5" stroke="#20C831"/>
<path d="M299 153.5L497 288.5" stroke="#20C831"/>
<path d="M290 152.5L497 288.5" stroke="#20C831"/>
<path d="M283 152.5L497 288.5" stroke="#20C831"/>
<path d="M274 151.5L497 288.5" stroke="#20C831"/>
<path d="M266 151.5L497 288.5" stroke="#20C831"/>
<path d="M258 151.5L497 288.5" stroke="#20C831"/>
<path d="M248 150.5L497 288.5" stroke="#20C831"/>
<path d="M234 150.5L497 288.5" stroke="#20C831"/>
<path d="M241 150.5L497 288.5" stroke="#20C831"/>
<path d="M226 150.5L497 288.5" stroke="#20C831"/>
<path d="M216 149.5L497 288.5" stroke="#20C831"/>
<path d="M208 149.5L497 288.5" stroke="#20C831"/>
<path d="M200 149.5L497 288.5" stroke="#20C831"/>
<path d="M191 149.5L497 288.5" stroke="#20C831"/>
<path d="M181 149.5L497 288.5" stroke="#20C831"/>
<path d="M172 149.5L497 288.5" stroke="#20C831"/>
<path d="M162 149.5L497 288.5" stroke="#20C831"/>
<path d="M151 149.5L497 288.5" stroke="#20C831"/>
<path d="M493 254.5L497 288.5" stroke="#20C831"/>
<circle cx="497" cy="288.5" r="5" fill="black" stroke="#D9EBFF" stroke-width="2"/>
</svg>
