<svg width="700" height="105" viewBox="0 0 700 105" fill="none" xmlns="http://www.w3.org/2000/svg">
<rect width="700" height="104" transform="translate(0 0.5)" fill="#0A0D12"/>
<path d="M432.5 76.0284C182.722 130.398 287.377 -38.3329 305.619 20.4998" stroke="#B3BFD8"/>
<path d="M308 42.5V98.5" stroke="#EB5757"/>
<path d="M305 18.5L308 42.5" stroke="#20C831"/>
<path d="M300 10.5L308 42.5" stroke="#20C831"/>
<path d="M292 7.5L308 42.5" stroke="#20C831"/>
<path d="M286 9.5L308 42.5" stroke="#20C831"/>
<path d="M281 13.5L308 42.5" stroke="#20C831"/>
<path d="M277 18.5L308 42.5" stroke="#20C831"/>
<path d="M273 24.5L308 42.5" stroke="#20C831"/>
<path d="M270 30.5L308 42.5" stroke="#20C831"/>
<path d="M269 37.5L308 42.5" stroke="#20C831"/>
<path d="M268 43.5L308 42.5" stroke="#20C831"/>
<path d="M269 50.5L308 42.5" stroke="#20C831"/>
<path d="M271 56.5L308 42.5" stroke="#20C831"/>
<path d="M274 62.5L308 42.5" stroke="#20C831"/>
<path d="M278 67.5L308 42.5" stroke="#20C831"/>
<path d="M283 71.5L308 42.5" stroke="#20C831"/>
<path d="M288 75.5L308 42.5" stroke="#20C831"/>
<path d="M293 77.5L308 42.5" stroke="#20C831"/>
<path d="M298 79.5L308 42.5" stroke="#20C831"/>
<path d="M303 81.5L308 42.5" stroke="#20C831"/>
<circle cx="308" cy="42.5" r="5" fill="black" stroke="#D9EBFF" stroke-width="2"/>
</svg>
