<svg width="701" height="221" viewBox="0 0 701 221" fill="none" xmlns="http://www.w3.org/2000/svg">
<g clip-path="url(#clip0_89_359)">
<rect width="700" height="220" transform="translate(0.132812 0.5)" fill="#0A0D12"/>
<path d="M0.132812 26.0264C206.567 106.042 441.778 173.842 708.633 226.499" stroke="#B3BFD8"/>
<path d="M462.133 -1617.5V862.5" stroke="#EB5757"/>
<path d="M236.133 107.5L458.183 -1621.5" stroke="#20C831"/>
<path d="M258.133 114.5L458.179 -1621.5" stroke="#20C831"/>
<path d="M284.133 122.5L458.183 -1621.5" stroke="#20C831"/>
<path d="M307.109 128.865L458.181 -1621.5" stroke="#20C831"/>
<path d="M330.822 136.769L458.182 -1621.5" stroke="#20C831"/>
<path d="M354.133 142.5L458.18 -1621.5" stroke="#20C831"/>
<path d="M378.133 149.5L458.182 -1621.5" stroke="#20C831"/>
<path d="M402.133 155.5L458.178 -1621.5" stroke="#20C831"/>
<path d="M425.133 162.5L458.182 -1621.5" stroke="#20C831"/>
<path d="M476.133 174.5L458.183 -1621.5" stroke="#20C831"/>
<path d="M449.375 168.383L458.18 -1621.5" stroke="#20C831"/>
</g>
<defs>
<clipPath id="clip0_89_359">
<rect width="700" height="220" fill="white" transform="translate(0.132812 0.5)"/>
</clipPath>
</defs>
</svg>
