<svg width="701" height="221" viewBox="0 0 701 221" fill="none" xmlns="http://www.w3.org/2000/svg">
<g clip-path="url(#clip0_89_304)">
<rect width="700" height="220" transform="translate(0.132812 0.5)" fill="#0A0D12"/>
<path d="M0.132812 26.0264C206.567 106.042 441.778 173.842 708.633 226.499" stroke="#B3BFD8"/>
<path d="M462.133 -1617.5V862.5" stroke="#EB5757"/>
<path d="M236.271 109.409L458.183 -1621.5" stroke="#20C831"/>
<path d="M258.828 115.645L458.179 -1621.5" stroke="#20C831"/>
<path d="M283.4 120.961L458.183 -1621.5" stroke="#20C831"/>
<path d="M307.109 128.865L458.181 -1621.5" stroke="#20C831"/>
<path d="M330.822 136.769L458.182 -1621.5" stroke="#20C831"/>
<path d="M354.531 144.672L458.18 -1621.5" stroke="#20C831"/>
<path d="M378.133 148.5L458.182 -1621.5" stroke="#20C831"/>
<path d="M402.133 155.5L458.178 -1621.5" stroke="#20C831"/>
<path d="M425.666 160.479L458.182 -1621.5" stroke="#20C831"/>
<path d="M476.74 173.959L458.183 -1621.5" stroke="#20C831"/>
<path d="M448.633 168.383L457.438 -1621.5" stroke="#20C831"/>
<circle cx="236.633" cy="108" r="2.5" fill="#B3BFD8"/>
<circle cx="258.633" cy="115" r="2.5" fill="#B3BFD8"/>
<circle cx="283.633" cy="123" r="2.5" fill="#B3BFD8"/>
<circle cx="307.633" cy="130" r="2.5" fill="#B3BFD8"/>
<circle cx="330.633" cy="136" r="2.5" fill="#B3BFD8"/>
<circle cx="354.633" cy="143" r="2.5" fill="#B3BFD8"/>
<circle cx="377.633" cy="149" r="2.5" fill="#B3BFD8"/>
<circle cx="401.633" cy="156" r="2.5" fill="#B3BFD8"/>
<circle cx="425.633" cy="162" r="2.5" fill="#B3BFD8"/>
<circle cx="448.633" cy="168" r="2.5" fill="#B3BFD8"/>
<circle cx="476.633" cy="175" r="2.5" fill="#B3BFD8"/>
</g>
<defs>
<clipPath id="clip0_89_304">
<rect width="700" height="220" fill="white" transform="translate(0.132812 0.5)"/>
</clipPath>
</defs>
</svg>
