<svg width="701" height="221" viewBox="0 0 701 221" fill="none" xmlns="http://www.w3.org/2000/svg">
<g clip-path="url(#clip0_89_332)">
<rect width="700" height="220" transform="translate(0.132812 0.5)" fill="#0A0D12"/>
<path d="M0.132812 26.0264C136.752 78.9814 285.975 126.586 448.633 167.991" stroke="#20C831"/>
<path d="M476.633 175.024C467.256 172.7 457.922 170.356 448.633 167.991" stroke="#EB5757"/>
<path d="M708.633 226.499C628.47 210.681 551.162 193.496 476.633 175.024" stroke="#B3BFD8"/>
<path d="M462.133 -1617.5V862.5" stroke="#EB5757"/>
<circle cx="236.633" cy="108" r="2.5" fill="#B3BFD8"/>
<circle cx="258.633" cy="115" r="2.5" fill="#B3BFD8"/>
<circle cx="283.633" cy="123" r="2.5" fill="#B3BFD8"/>
<circle cx="307.633" cy="130" r="2.5" fill="#B3BFD8"/>
<circle cx="330.633" cy="136" r="2.5" fill="#B3BFD8"/>
<circle cx="354.633" cy="143" r="2.5" fill="#B3BFD8"/>
<circle cx="377.633" cy="149" r="2.5" fill="#B3BFD8"/>
<circle cx="401.633" cy="156" r="2.5" fill="#B3BFD8"/>
<circle cx="425.633" cy="162" r="2.5" fill="#B3BFD8"/>
<circle cx="448.633" cy="168" r="2.5" fill="#B3BFD8"/>
<circle cx="476.633" cy="175" r="2.5" fill="#B3BFD8"/>
</g>
<defs>
<clipPath id="clip0_89_332">
<rect width="700" height="220" fill="white" transform="translate(0.132812 0.5)"/>
</clipPath>
</defs>
</svg>
