<svg width="700" height="103" viewBox="0 0 700 103" fill="none" xmlns="http://www.w3.org/2000/svg">
<rect width="700" height="102" transform="translate(0 0.75)" fill="#0A0D12"/>
<path d="M283 51.25L301.5 42.75H322L341 49.75L359.5 59.25L379.5 63.75L399.5 60.25L417.5 51.25" stroke="#B3BFD8" stroke-width="2"/>
<path d="M53.5 52.25L98.5 44.75L142.5 63.75L187.5 52.75" stroke="#B3BFD8" stroke-width="2"/>
<path d="M513 52.9332C569.569 16.1637 581.589 93.9454 647.35 52.9332" stroke="#B3BFD8" stroke-width="2"/>
<circle cx="187.35" cy="51.9332" r="3" fill="#0A0D12" stroke="#D9EBFF" stroke-width="2"/>
<circle cx="142.134" cy="63.4869" r="3" fill="#0A0D12" stroke="#D9EBFF" stroke-width="2"/>
<circle cx="98.3405" cy="44.6981" r="3" fill="#0A0D12" stroke="#D9EBFF" stroke-width="2"/>
<circle cx="53" cy="51.9332" r="3" fill="#0A0D12" stroke="#D9EBFF" stroke-width="2"/>
<circle cx="644.244" cy="55.344" r="3" fill="#0A0D12" stroke="#D9EBFF" stroke-width="2"/>
<circle cx="640.042" cy="57.6053" r="3" fill="#0A0D12" stroke="#D9EBFF" stroke-width="2"/>
<circle cx="635.731" cy="59.6522" r="3" fill="#0A0D12" stroke="#D9EBFF" stroke-width="2"/>
<circle cx="631.31" cy="61.447" r="3" fill="#0A0D12" stroke="#D9EBFF" stroke-width="2"/>
<circle cx="626.781" cy="62.9458" r="3" fill="#0A0D12" stroke="#D9EBFF" stroke-width="2"/>
<circle cx="622.151" cy="64.1006" r="3" fill="#0A0D12" stroke="#D9EBFF" stroke-width="2"/>
<circle cx="617.439" cy="64.8628" r="3" fill="#0A0D12" stroke="#D9EBFF" stroke-width="2"/>
<circle cx="612.675" cy="65.1896" r="3" fill="#0A0D12" stroke="#D9EBFF" stroke-width="2"/>
<circle cx="607.899" cy="65.0541" r="3" fill="#0A0D12" stroke="#D9EBFF" stroke-width="2"/>
<circle cx="603.157" cy="64.454" r="3" fill="#0A0D12" stroke="#D9EBFF" stroke-width="2"/>
<circle cx="598.491" cy="63.416" r="3" fill="#0A0D12" stroke="#D9EBFF" stroke-width="2"/>
<circle cx="593.927" cy="61.9923" r="3" fill="#0A0D12" stroke="#D9EBFF" stroke-width="2"/>
<circle cx="589.473" cy="60.252" r="3" fill="#0A0D12" stroke="#D9EBFF" stroke-width="2"/>
<circle cx="585.121" cy="58.2711" r="3" fill="#0A0D12" stroke="#D9EBFF" stroke-width="2"/>
<circle cx="580.847" cy="56.1271" r="3" fill="#0A0D12" stroke="#D9EBFF" stroke-width="2"/>
<circle cx="576.618" cy="53.8961" r="3" fill="#0A0D12" stroke="#D9EBFF" stroke-width="2"/>
<circle cx="572.395" cy="51.6536" r="3" fill="#0A0D12" stroke="#D9EBFF" stroke-width="2"/>
<circle cx="568.137" cy="49.4779" r="3" fill="#0A0D12" stroke="#D9EBFF" stroke-width="2"/>
<circle cx="563.805" cy="47.4529" r="3" fill="#0A0D12" stroke="#D9EBFF" stroke-width="2"/>
<circle cx="559.368" cy="45.6711" r="3" fill="#0A0D12" stroke="#D9EBFF" stroke-width="2"/>
<circle cx="554.808" cy="44.2313" r="3" fill="#0A0D12" stroke="#D9EBFF" stroke-width="2"/>
<circle cx="550.133" cy="43.2313" r="3" fill="#0A0D12" stroke="#D9EBFF" stroke-width="2"/>
<circle cx="545.378" cy="42.75" r="3" fill="#0A0D12" stroke="#D9EBFF" stroke-width="2"/>
<circle cx="540.604" cy="42.8278" r="3" fill="#0A0D12" stroke="#D9EBFF" stroke-width="2"/>
<circle cx="535.873" cy="43.4575" r="3" fill="#0A0D12" stroke="#D9EBFF" stroke-width="2"/>
<circle cx="531.24" cy="44.5922" r="3" fill="#0A0D12" stroke="#D9EBFF" stroke-width="2"/>
<circle cx="526.737" cy="46.165" r="3" fill="#0A0D12" stroke="#D9EBFF" stroke-width="2"/>
<circle cx="522.378" cy="48.1052" r="3" fill="#0A0D12" stroke="#D9EBFF" stroke-width="2"/>
<circle cx="518.128" cy="50.3681" r="3" fill="#0A0D12" stroke="#D9EBFF" stroke-width="2"/>
<circle cx="514" cy="52.75" r="3" fill="#0A0D12" stroke="#D9EBFF" stroke-width="2"/>
<circle cx="417.35" cy="51.9332" r="3" fill="#0A0D12" stroke="#D9EBFF" stroke-width="2"/>
<circle cx="399.567" cy="60.7541" r="3" fill="#0A0D12" stroke="#D9EBFF" stroke-width="2"/>
<circle cx="379.368" cy="64.2198" r="3" fill="#0A0D12" stroke="#D9EBFF" stroke-width="2"/>
<circle cx="359.386" cy="59.6716" r="3" fill="#0A0D12" stroke="#D9EBFF" stroke-width="2"/>
<circle cx="341.054" cy="50.5121" r="3" fill="#0A0D12" stroke="#D9EBFF" stroke-width="2"/>
<circle cx="322.054" cy="42.834" r="3" fill="#0A0D12" stroke="#D9EBFF" stroke-width="2"/>
<circle cx="301.566" cy="43.2534" r="3" fill="#0A0D12" stroke="#D9EBFF" stroke-width="2"/>
<circle cx="283" cy="51.9332" r="3" fill="#0A0D12" stroke="#D9EBFF" stroke-width="2"/>
</svg>
