<svg width="700" height="223" viewBox="0 0 700 223" fill="none" xmlns="http://www.w3.org/2000/svg">
<rect width="700" height="222" transform="translate(0 0.5)" fill="#0A0D12"/>
<path d="M450 211.5H250L250 11.5H450V211.5Z" stroke="#B3BFD8" stroke-width="2"/>
<path d="M350 182.211L279.289 111.5L350 40.7893L420.71 111.5L350 182.211Z" stroke="#B3BFD8" stroke-width="2"/>
<circle cx="250" cy="11.5" r="5" fill="black" stroke="#D9EBFF" stroke-width="2"/>
<circle cx="350" cy="40.7897" r="5" transform="rotate(45 350 40.7897)" fill="black" stroke="#D9EBFF" stroke-width="2"/>
<circle cx="450" cy="11.5" r="5" fill="black" stroke="#D9EBFF" stroke-width="2"/>
<circle cx="420.711" cy="111.501" r="5" transform="rotate(45 420.711 111.501)" fill="black" stroke="#D9EBFF" stroke-width="2"/>
<circle cx="250" cy="211.5" r="5" fill="black" stroke="#D9EBFF" stroke-width="2"/>
<circle cx="279.289" cy="111.5" r="5" transform="rotate(45 279.289 111.5)" fill="black" stroke="#D9EBFF" stroke-width="2"/>
<circle cx="450" cy="211.5" r="5" fill="black" stroke="#D9EBFF" stroke-width="2"/>
<circle cx="350" cy="182.211" r="5" transform="rotate(45 350 182.211)" fill="black" stroke="#D9EBFF" stroke-width="2"/>
<path d="M221 8.74095C221.014 8.65734 221.035 8.54587 221.063 8.40652C221.091 8.26717 221.174 8.00241 221.314 7.61223C221.453 7.22205 221.592 6.89459 221.732 6.62982C221.871 6.36506 222.101 6.10727 222.421 5.85644C222.742 5.60561 223.062 5.48717 223.383 5.5011C223.885 5.5011 224.303 5.62651 224.637 5.87734C224.971 6.12817 225.18 6.36506 225.264 6.58802C225.348 6.81098 225.389 6.95729 225.389 7.02697C225.389 7.05484 225.396 7.06877 225.41 7.06877L225.64 6.83885C226.49 5.94702 227.459 5.5011 228.546 5.5011C229.298 5.5011 229.904 5.68922 230.364 6.06546C230.824 6.4417 231.061 6.99213 231.075 7.71674C231.089 8.44135 230.824 9.53524 230.281 10.9984C229.737 12.4616 229.472 13.3464 229.486 13.653C229.486 14.0153 229.605 14.1964 229.842 14.1964C229.925 14.1964 229.988 14.1895 230.03 14.1755C230.434 14.1059 230.796 13.8411 231.117 13.3813C231.437 12.9214 231.681 12.364 231.848 11.7091C231.876 11.5976 232.016 11.5419 232.266 11.5419C232.545 11.5419 232.684 11.5976 232.684 11.7091C232.684 11.723 232.657 11.8275 232.601 12.0226C232.489 12.4267 232.336 12.8239 232.141 13.214C231.946 13.6042 231.625 13.9944 231.179 14.3846C230.733 14.7747 230.253 14.9629 229.737 14.9489C229.082 14.9489 228.608 14.7608 228.316 14.3846C228.023 14.0083 227.877 13.6182 227.877 13.214C227.877 12.9493 228.128 12.1132 228.629 10.7058C229.131 9.29835 229.389 8.2393 229.403 7.52862C229.403 6.70647 229.096 6.29539 228.483 6.29539H228.379C227.18 6.29539 226.17 6.9991 225.348 8.40652L225.201 8.65734L224.512 11.4583C224.052 13.2837 223.787 14.2661 223.717 14.4055C223.536 14.7817 223.237 14.9698 222.818 14.9698C222.637 14.9698 222.491 14.928 222.38 14.8444C222.268 14.7608 222.191 14.6772 222.15 14.5936C222.108 14.51 222.094 14.4403 222.108 14.3846C222.108 14.2034 222.373 13.0677 222.902 10.9775C223.432 8.88727 223.71 7.75158 223.738 7.57043C223.752 7.50075 223.759 7.3405 223.759 7.08967C223.759 6.54621 223.592 6.27448 223.257 6.27448C222.728 6.27448 222.289 6.97123 221.941 8.36471C221.857 8.64341 221.815 8.78973 221.815 8.80366C221.787 8.88727 221.655 8.92907 221.418 8.92907H221.125C221.042 8.84547 221 8.78276 221 8.74095Z" fill="#D9EBFF"/>
<path d="M234.526 9.24252C235.078 8.44452 235.832 8.04551 236.787 8.04551C237.26 8.04551 237.733 8.17359 238.206 8.42974C238.679 8.68589 239.063 9.13908 239.359 9.78931C239.723 10.607 239.905 11.7301 239.905 13.1587C239.905 14.6857 239.694 15.8532 239.27 16.661C239.073 17.0748 238.802 17.4049 238.457 17.6512C238.112 17.8975 237.812 18.0502 237.556 18.1093C237.3 18.1684 237.048 18.2029 236.802 18.2127C236.546 18.2127 236.29 18.1832 236.034 18.1241C235.777 18.0649 235.477 17.9073 235.132 17.6512C234.787 17.395 234.516 17.065 234.319 16.661C233.896 15.8532 233.684 14.6857 233.684 13.1587C233.684 11.4444 233.965 10.1391 234.526 9.24252ZM237.851 9.06519C237.556 8.74993 237.206 8.5923 236.802 8.5923C236.388 8.5923 236.034 8.74993 235.738 9.06519C235.492 9.32134 235.329 9.67601 235.25 10.1292C235.171 10.5824 235.132 11.5282 235.132 12.9666C235.132 14.5232 235.171 15.5478 235.25 16.0404C235.329 16.533 235.506 16.9221 235.782 17.2078C236.058 17.5034 236.398 17.6512 236.802 17.6512C237.196 17.6512 237.531 17.5034 237.807 17.2078C238.093 16.9123 238.27 16.4985 238.339 15.9665C238.408 15.4345 238.447 14.4345 238.457 12.9666C238.457 11.538 238.418 10.5972 238.339 10.144C238.26 9.69079 238.098 9.33119 237.851 9.06519Z" fill="#D9EBFF"/>
<path d="M221 208.741C221.014 208.657 221.035 208.546 221.063 208.407C221.091 208.267 221.174 208.002 221.314 207.612C221.453 207.222 221.592 206.895 221.732 206.63C221.871 206.365 222.101 206.107 222.421 205.856C222.742 205.606 223.062 205.487 223.383 205.501C223.885 205.501 224.303 205.627 224.637 205.877C224.971 206.128 225.18 206.365 225.264 206.588C225.348 206.811 225.389 206.957 225.389 207.027C225.389 207.055 225.396 207.069 225.41 207.069L225.64 206.839C226.49 205.947 227.459 205.501 228.546 205.501C229.298 205.501 229.904 205.689 230.364 206.065C230.824 206.442 231.061 206.992 231.075 207.717C231.089 208.441 230.824 209.535 230.281 210.998C229.737 212.462 229.472 213.346 229.486 213.653C229.486 214.015 229.605 214.196 229.842 214.196C229.925 214.196 229.988 214.189 230.03 214.176C230.434 214.106 230.796 213.841 231.117 213.381C231.437 212.921 231.681 212.364 231.848 211.709C231.876 211.598 232.016 211.542 232.266 211.542C232.545 211.542 232.684 211.598 232.684 211.709C232.684 211.723 232.657 211.828 232.601 212.023C232.489 212.427 232.336 212.824 232.141 213.214C231.946 213.604 231.625 213.994 231.179 214.385C230.733 214.775 230.253 214.963 229.737 214.949C229.082 214.949 228.608 214.761 228.316 214.385C228.023 214.008 227.877 213.618 227.877 213.214C227.877 212.949 228.128 212.113 228.629 210.706C229.131 209.298 229.389 208.239 229.403 207.529C229.403 206.706 229.096 206.295 228.483 206.295H228.379C227.18 206.295 226.17 206.999 225.348 208.407L225.201 208.657L224.512 211.458C224.052 213.284 223.787 214.266 223.717 214.405C223.536 214.782 223.237 214.97 222.818 214.97C222.637 214.97 222.491 214.928 222.38 214.844C222.268 214.761 222.191 214.677 222.15 214.594C222.108 214.51 222.094 214.44 222.108 214.385C222.108 214.203 222.373 213.068 222.902 210.977C223.432 208.887 223.71 207.752 223.738 207.57C223.752 207.501 223.759 207.341 223.759 207.09C223.759 206.546 223.592 206.274 223.257 206.274C222.728 206.274 222.289 206.971 221.941 208.365C221.857 208.643 221.815 208.79 221.815 208.804C221.787 208.887 221.655 208.929 221.418 208.929H221.125C221.042 208.845 221 208.783 221 208.741Z" fill="#D9EBFF"/>
<path d="M236.255 209.346L236.063 209.42C235.925 209.469 235.728 209.518 235.472 209.568C235.216 209.617 234.93 209.651 234.615 209.671H234.334V208.991H234.615C235.078 208.972 235.506 208.898 235.901 208.77C236.295 208.642 236.57 208.523 236.728 208.415C236.886 208.307 237.024 208.198 237.142 208.09C237.162 208.06 237.221 208.046 237.319 208.046C237.408 208.046 237.492 208.075 237.57 208.134V212.553L237.585 216.986C237.654 217.055 237.713 217.099 237.763 217.119C237.812 217.139 237.93 217.159 238.117 217.178C238.304 217.198 238.61 217.208 239.033 217.208H239.418V217.888H239.255C239.048 217.858 238.265 217.843 236.905 217.843C235.566 217.843 234.792 217.858 234.585 217.888H234.408V217.208H234.792C235.009 217.208 235.196 217.208 235.354 217.208C235.511 217.208 235.635 217.203 235.723 217.193C235.812 217.183 235.891 217.168 235.96 217.149C236.029 217.129 236.068 217.119 236.078 217.119C236.088 217.119 236.117 217.095 236.167 217.045C236.216 216.996 236.245 216.976 236.255 216.986V209.346Z" fill="#D9EBFF"/>
<path d="M460 208.741C460.014 208.657 460.035 208.546 460.063 208.407C460.091 208.267 460.174 208.002 460.314 207.612C460.453 207.222 460.592 206.895 460.732 206.63C460.871 206.365 461.101 206.107 461.421 205.856C461.742 205.606 462.062 205.487 462.383 205.501C462.885 205.501 463.303 205.627 463.637 205.877C463.971 206.128 464.18 206.365 464.264 206.588C464.348 206.811 464.389 206.957 464.389 207.027C464.389 207.055 464.396 207.069 464.41 207.069L464.64 206.839C465.49 205.947 466.459 205.501 467.546 205.501C468.298 205.501 468.904 205.689 469.364 206.065C469.824 206.442 470.061 206.992 470.075 207.717C470.089 208.441 469.824 209.535 469.281 210.998C468.737 212.462 468.472 213.346 468.486 213.653C468.486 214.015 468.605 214.196 468.842 214.196C468.925 214.196 468.988 214.189 469.03 214.176C469.434 214.106 469.796 213.841 470.117 213.381C470.437 212.921 470.681 212.364 470.848 211.709C470.876 211.598 471.016 211.542 471.266 211.542C471.545 211.542 471.684 211.598 471.684 211.709C471.684 211.723 471.657 211.828 471.601 212.023C471.489 212.427 471.336 212.824 471.141 213.214C470.946 213.604 470.625 213.994 470.179 214.385C469.733 214.775 469.253 214.963 468.737 214.949C468.082 214.949 467.608 214.761 467.316 214.385C467.023 214.008 466.877 213.618 466.877 213.214C466.877 212.949 467.128 212.113 467.629 210.706C468.131 209.298 468.389 208.239 468.403 207.529C468.403 206.706 468.096 206.295 467.483 206.295H467.379C466.18 206.295 465.17 206.999 464.348 208.407L464.201 208.657L463.512 211.458C463.052 213.284 462.787 214.266 462.717 214.405C462.536 214.782 462.237 214.97 461.819 214.97C461.637 214.97 461.491 214.928 461.38 214.844C461.268 214.761 461.191 214.677 461.15 214.594C461.108 214.51 461.094 214.44 461.108 214.385C461.108 214.203 461.373 213.068 461.902 210.977C462.432 208.887 462.71 207.752 462.738 207.57C462.752 207.501 462.759 207.341 462.759 207.09C462.759 206.546 462.592 206.274 462.257 206.274C461.728 206.274 461.289 206.971 460.941 208.365C460.857 208.643 460.815 208.79 460.815 208.804C460.787 208.887 460.655 208.929 460.418 208.929H460.125C460.042 208.845 460 208.783 460 208.741Z" fill="#D9EBFF"/>
<path d="M473.718 211.548C473.452 211.548 473.24 211.459 473.083 211.282C472.925 211.105 472.846 210.888 472.846 210.632C472.846 209.932 473.107 209.326 473.63 208.814C474.152 208.302 474.802 208.046 475.58 208.046C476.477 208.046 477.226 208.321 477.827 208.873C478.428 209.425 478.733 210.139 478.743 211.016C478.743 211.44 478.644 211.843 478.447 212.228C478.25 212.612 478.014 212.947 477.738 213.233C477.462 213.518 477.068 213.883 476.556 214.326C476.201 214.632 475.708 215.085 475.078 215.686L474.206 216.513L475.329 216.528C476.876 216.528 477.698 216.503 477.797 216.454C477.866 216.434 477.984 215.996 478.152 215.139V215.095H478.743V215.139C478.733 215.168 478.669 215.617 478.551 216.484C478.432 217.351 478.359 217.804 478.329 217.843V217.888H472.846V217.429C472.846 217.361 472.876 217.287 472.935 217.208C472.994 217.129 473.142 216.957 473.378 216.691C473.664 216.375 473.91 216.099 474.117 215.863C474.206 215.765 474.373 215.582 474.62 215.316C474.866 215.05 475.034 214.868 475.122 214.769C475.211 214.671 475.354 214.508 475.551 214.282C475.748 214.055 475.886 213.888 475.965 213.779C476.043 213.671 476.157 213.523 476.304 213.336C476.452 213.149 476.556 212.991 476.615 212.863C476.674 212.735 476.748 212.592 476.836 212.435C476.925 212.277 476.989 212.119 477.029 211.962C477.068 211.804 477.102 211.656 477.132 211.518C477.162 211.38 477.176 211.218 477.176 211.031C477.176 210.41 477.009 209.873 476.674 209.42C476.339 208.967 475.861 208.74 475.24 208.74C474.915 208.74 474.63 208.824 474.383 208.991C474.137 209.159 473.965 209.321 473.866 209.479C473.768 209.637 473.718 209.73 473.718 209.76C473.718 209.77 473.743 209.775 473.792 209.775C473.97 209.775 474.152 209.843 474.339 209.981C474.526 210.119 474.62 210.346 474.62 210.661C474.62 210.908 474.541 211.114 474.383 211.282C474.226 211.449 474.004 211.538 473.718 211.548Z" fill="#D9EBFF"/>
<path d="M460 8.74095C460.014 8.65734 460.035 8.54587 460.063 8.40652C460.091 8.26717 460.174 8.00241 460.314 7.61223C460.453 7.22205 460.592 6.89459 460.732 6.62982C460.871 6.36506 461.101 6.10727 461.421 5.85644C461.742 5.60561 462.062 5.48717 462.383 5.5011C462.885 5.5011 463.303 5.62651 463.637 5.87734C463.971 6.12817 464.18 6.36506 464.264 6.58802C464.348 6.81098 464.389 6.95729 464.389 7.02697C464.389 7.05484 464.396 7.06877 464.41 7.06877L464.64 6.83885C465.49 5.94702 466.459 5.5011 467.546 5.5011C468.298 5.5011 468.904 5.68922 469.364 6.06546C469.824 6.4417 470.061 6.99213 470.075 7.71674C470.089 8.44135 469.824 9.53524 469.281 10.9984C468.737 12.4616 468.472 13.3464 468.486 13.653C468.486 14.0153 468.605 14.1964 468.842 14.1964C468.925 14.1964 468.988 14.1895 469.03 14.1755C469.434 14.1059 469.796 13.8411 470.117 13.3813C470.437 12.9214 470.681 12.364 470.848 11.7091C470.876 11.5976 471.016 11.5419 471.266 11.5419C471.545 11.5419 471.684 11.5976 471.684 11.7091C471.684 11.723 471.657 11.8275 471.601 12.0226C471.489 12.4267 471.336 12.8239 471.141 13.214C470.946 13.6042 470.625 13.9944 470.179 14.3846C469.733 14.7747 469.253 14.9629 468.737 14.9489C468.082 14.9489 467.608 14.7608 467.316 14.3846C467.023 14.0083 466.877 13.6182 466.877 13.214C466.877 12.9493 467.128 12.1132 467.629 10.7058C468.131 9.29835 468.389 8.2393 468.403 7.52862C468.403 6.70647 468.096 6.29539 467.483 6.29539H467.379C466.18 6.29539 465.17 6.9991 464.348 8.40652L464.201 8.65734L463.512 11.4583C463.052 13.2837 462.787 14.2661 462.717 14.4055C462.536 14.7817 462.237 14.9698 461.818 14.9698C461.637 14.9698 461.491 14.928 461.38 14.8444C461.268 14.7608 461.191 14.6772 461.15 14.5936C461.108 14.51 461.094 14.4403 461.108 14.3846C461.108 14.2034 461.373 13.0677 461.902 10.9775C462.432 8.88727 462.71 7.75158 462.738 7.57043C462.752 7.50075 462.759 7.3405 462.759 7.08967C462.759 6.54621 462.592 6.27448 462.257 6.27448C461.728 6.27448 461.289 6.97123 460.941 8.36471C460.857 8.64341 460.815 8.78973 460.815 8.80366C460.787 8.88727 460.655 8.92907 460.418 8.92907H460.125C460.042 8.84547 460 8.78276 460 8.74095Z" fill="#D9EBFF"/>
<path d="M473.984 11.0454C473.718 11.0454 473.511 10.9617 473.364 10.7942C473.216 10.6267 473.137 10.41 473.127 10.144C473.127 9.60212 473.364 9.11937 473.837 8.69574C474.309 8.27211 474.881 8.06029 475.551 8.06029C475.896 8.06029 476.112 8.06522 476.201 8.07507C476.93 8.19329 477.487 8.45437 477.871 8.8583C478.255 9.26223 478.452 9.70064 478.462 10.1735C478.462 10.6858 478.295 11.1834 477.96 11.6661C477.625 12.1488 477.162 12.4986 476.57 12.7153L476.526 12.7449C476.526 12.7547 476.57 12.7695 476.659 12.7892C476.748 12.8089 476.891 12.8533 477.088 12.9222C477.285 12.9912 477.472 13.0946 477.649 13.2326C478.457 13.7547 478.861 14.4444 478.861 15.3015C478.861 16.0798 478.556 16.7596 477.945 17.3408C477.334 17.9221 476.561 18.2127 475.625 18.2127C474.836 18.2127 474.157 18.0009 473.585 17.5773C473.014 17.1536 472.728 16.6167 472.728 15.9665C472.728 15.6906 472.817 15.469 472.994 15.3015C473.172 15.134 473.393 15.0453 473.659 15.0355C473.935 15.0355 474.162 15.1241 474.339 15.3015C474.516 15.4788 474.605 15.7005 474.605 15.9665C474.605 16.0748 474.59 16.1734 474.561 16.262C474.531 16.3507 474.497 16.4295 474.457 16.4985C474.418 16.5674 474.364 16.6266 474.295 16.6758C474.226 16.7251 474.167 16.7645 474.117 16.794C474.068 16.8236 474.019 16.8433 473.97 16.8532C473.92 16.863 473.881 16.8778 473.851 16.8975L473.792 16.9123C474.295 17.3556 474.905 17.5773 475.625 17.5773C476.167 17.5773 476.575 17.3162 476.851 16.794C477.019 16.4689 477.102 15.9714 477.102 15.3015V15.0059C477.102 14.07 476.787 13.4444 476.157 13.1291C476.009 13.07 475.708 13.0355 475.255 13.0257L474.635 13.0109L474.59 12.9813C474.57 12.9518 474.561 12.873 474.561 12.7449C474.561 12.5676 474.6 12.4789 474.679 12.4789C474.955 12.4789 475.24 12.4543 475.536 12.405C475.871 12.3557 476.176 12.1488 476.452 11.7843C476.728 11.4198 476.866 10.8681 476.866 10.1292V10.011C476.866 9.44942 476.694 9.06026 476.349 8.84352C476.132 8.70559 475.9 8.63663 475.654 8.63663C475.339 8.63663 475.048 8.69082 474.782 8.79919C474.516 8.90756 474.329 9.02086 474.221 9.13908C474.112 9.2573 474.058 9.31641 474.058 9.31641H474.103C474.132 9.32627 474.171 9.33612 474.221 9.34597C474.27 9.35582 474.319 9.38045 474.369 9.41986C474.418 9.45927 474.477 9.49375 474.546 9.5233C474.615 9.55286 474.664 9.60705 474.694 9.68586C474.723 9.76468 474.763 9.83857 474.812 9.90753C474.861 9.97649 474.876 10.075 474.856 10.2031C474.856 10.4198 474.787 10.6119 474.649 10.7794C474.511 10.9469 474.29 11.0356 473.984 11.0454Z" fill="#D9EBFF"/>
<path d="M340 21.741C340.014 21.6573 340.035 21.5459 340.063 21.4065C340.091 21.2672 340.174 21.0024 340.314 20.6122C340.453 20.2221 340.592 19.8946 340.732 19.6298C340.871 19.3651 341.101 19.1073 341.421 18.8564C341.742 18.6056 342.062 18.4872 342.383 18.5011C342.885 18.5011 343.303 18.6265 343.637 18.8773C343.971 19.1282 344.18 19.3651 344.264 19.588C344.348 19.811 344.389 19.9573 344.389 20.027C344.389 20.0548 344.396 20.0688 344.41 20.0688L344.64 19.8388C345.49 18.947 346.459 18.5011 347.546 18.5011C348.298 18.5011 348.904 18.6892 349.364 19.0655C349.824 19.4417 350.061 19.9921 350.075 20.7167C350.089 21.4414 349.824 22.5352 349.281 23.9984C348.737 25.4616 348.472 26.3464 348.486 26.653C348.486 27.0153 348.605 27.1964 348.842 27.1964C348.925 27.1964 348.988 27.1895 349.03 27.1755C349.434 27.1059 349.796 26.8411 350.117 26.3813C350.437 25.9214 350.681 25.364 350.848 24.7091C350.876 24.5976 351.015 24.5419 351.266 24.5419C351.545 24.5419 351.684 24.5976 351.684 24.7091C351.684 24.723 351.657 24.8275 351.601 25.0226C351.489 25.4267 351.336 25.8239 351.141 26.214C350.946 26.6042 350.625 26.9944 350.179 27.3846C349.733 27.7747 349.253 27.9629 348.737 27.9489C348.082 27.9489 347.608 27.7608 347.316 27.3846C347.023 27.0083 346.877 26.6182 346.877 26.214C346.877 25.9493 347.128 25.1132 347.629 23.7058C348.131 22.2983 348.389 21.2393 348.403 20.5286C348.403 19.7065 348.096 19.2954 347.483 19.2954H347.379C346.18 19.2954 345.17 19.9991 344.348 21.4065L344.201 21.6573L343.512 24.4583C343.052 26.2837 342.787 27.2661 342.717 27.4055C342.536 27.7817 342.237 27.9698 341.818 27.9698C341.637 27.9698 341.491 27.928 341.38 27.8444C341.268 27.7608 341.191 27.6772 341.15 27.5936C341.108 27.51 341.094 27.4403 341.108 27.3846C341.108 27.2034 341.373 26.0677 341.902 23.9775C342.432 21.8873 342.71 20.7516 342.738 20.5704C342.752 20.5008 342.759 20.3405 342.759 20.0897C342.759 19.5462 342.592 19.2745 342.257 19.2745C341.728 19.2745 341.289 19.9712 340.941 21.3647C340.857 21.6434 340.815 21.7897 340.815 21.8037C340.787 21.8873 340.655 21.9291 340.418 21.9291H340.125C340.042 21.8455 340 21.7828 340 21.741Z" fill="#D9EBFF"/>
<path d="M352.92 24.1193C352.93 24.0996 353.014 23.5627 353.172 22.5085L353.408 20.9273C353.408 20.9076 353.506 20.8977 353.704 20.8977H353.999V20.9568C353.999 21.0554 354.073 21.1391 354.221 21.2081C354.369 21.277 354.625 21.3214 354.989 21.3411C355.354 21.3608 356.186 21.3706 357.487 21.3706H359.275V21.947L358.27 23.3213C358.181 23.4395 358.033 23.6366 357.827 23.9124C357.62 24.1883 357.487 24.3705 357.428 24.4592C357.368 24.5479 357.265 24.7055 357.117 24.9321C356.969 25.1587 356.871 25.336 356.822 25.4641C356.772 25.5922 356.703 25.7744 356.615 26.0109C356.526 26.2473 356.462 26.4739 356.423 26.6907C356.383 26.9074 356.344 27.1734 356.304 27.4887C356.265 27.8039 356.235 28.1389 356.216 28.4936C356.196 28.8483 356.181 29.2522 356.171 29.7054C356.171 29.8433 356.171 29.9812 356.171 30.1192C356.171 30.2571 356.166 30.3753 356.157 30.4738V30.6068C356.117 30.7743 356.024 30.9172 355.876 31.0354C355.728 31.1536 355.561 31.2127 355.373 31.2127C355.265 31.2127 355.162 31.1979 355.063 31.1684C354.965 31.1388 354.861 31.0452 354.753 30.8876C354.644 30.73 354.59 30.5329 354.59 30.2965C354.59 28.7399 355.068 27.1242 356.024 25.4493C356.221 25.1341 356.634 24.538 357.265 23.6612L357.945 22.7302H356.57C354.856 22.7302 353.955 22.7598 353.866 22.8189C353.807 22.8484 353.753 22.9666 353.704 23.1735C353.654 23.3804 353.605 23.5922 353.556 23.809L353.511 24.1193V24.1637H352.92V24.1193Z" fill="#D9EBFF"/>
<path d="M412 88.741C412.014 88.6573 412.035 88.5459 412.063 88.4065C412.091 88.2672 412.174 88.0024 412.314 87.6122C412.453 87.2221 412.592 86.8946 412.732 86.6298C412.871 86.3651 413.101 86.1073 413.421 85.8564C413.742 85.6056 414.062 85.4872 414.383 85.5011C414.885 85.5011 415.303 85.6265 415.637 85.8773C415.971 86.1282 416.18 86.3651 416.264 86.588C416.348 86.811 416.389 86.9573 416.389 87.027C416.389 87.0548 416.396 87.0688 416.41 87.0688L416.64 86.8388C417.49 85.947 418.459 85.5011 419.546 85.5011C420.298 85.5011 420.904 85.6892 421.364 86.0655C421.824 86.4417 422.061 86.9921 422.075 87.7167C422.089 88.4414 421.824 89.5352 421.281 90.9984C420.737 92.4616 420.472 93.3464 420.486 93.653C420.486 94.0153 420.605 94.1964 420.842 94.1964C420.925 94.1964 420.988 94.1895 421.03 94.1755C421.434 94.1059 421.796 93.8411 422.117 93.3813C422.437 92.9214 422.681 92.364 422.848 91.7091C422.876 91.5976 423.016 91.5419 423.266 91.5419C423.545 91.5419 423.684 91.5976 423.684 91.7091C423.684 91.723 423.657 91.8275 423.601 92.0226C423.489 92.4267 423.336 92.8239 423.141 93.214C422.946 93.6042 422.625 93.9944 422.179 94.3846C421.733 94.7747 421.253 94.9629 420.737 94.9489C420.082 94.9489 419.608 94.7608 419.316 94.3846C419.023 94.0083 418.877 93.6182 418.877 93.214C418.877 92.9493 419.128 92.1132 419.629 90.7058C420.131 89.2983 420.389 88.2393 420.403 87.5286C420.403 86.7065 420.096 86.2954 419.483 86.2954H419.379C418.18 86.2954 417.17 86.9991 416.348 88.4065L416.201 88.6573L415.512 91.4583C415.052 93.2837 414.787 94.2661 414.717 94.4055C414.536 94.7817 414.237 94.9698 413.818 94.9698C413.637 94.9698 413.491 94.928 413.38 94.8444C413.268 94.7608 413.191 94.6772 413.15 94.5936C413.108 94.51 413.094 94.4403 413.108 94.3846C413.108 94.2034 413.373 93.0677 413.902 90.9775C414.432 88.8873 414.71 87.7516 414.738 87.5704C414.752 87.5008 414.759 87.3405 414.759 87.0897C414.759 86.5462 414.592 86.2745 414.257 86.2745C413.728 86.2745 413.289 86.9712 412.941 88.3647C412.857 88.6434 412.815 88.7897 412.815 88.8037C412.787 88.8873 412.655 88.9291 412.418 88.9291H412.125C412.042 88.8455 412 88.7828 412 88.741Z" fill="#D9EBFF"/>
<path d="M424.728 93.2621C424.728 91.6563 425.127 90.3853 425.925 89.4494C426.723 88.5135 427.61 88.0455 428.585 88.0455C429.265 88.0455 429.753 88.2228 430.048 88.5775C430.344 88.9322 430.492 89.3263 430.492 89.7598C430.492 90.006 430.423 90.2031 430.285 90.3509C430.147 90.4986 429.955 90.5725 429.708 90.5725C429.482 90.5725 429.295 90.5036 429.147 90.3656C428.999 90.2277 428.925 90.0356 428.925 89.7893C428.925 89.3558 429.157 89.0947 429.62 89.0061C429.403 88.7893 429.098 88.6662 428.703 88.6366C428.004 88.6366 427.428 88.9322 426.974 89.5233C426.511 90.1735 426.28 91.1686 426.28 92.5084L426.295 92.5676C426.344 92.5084 426.383 92.4444 426.413 92.3754C426.817 91.7843 427.344 91.4888 427.994 91.4888H428.053C428.506 91.4888 428.905 91.5824 429.25 91.7695C429.487 91.9075 429.723 92.1045 429.96 92.3607C430.196 92.6168 430.388 92.8976 430.536 93.203C430.743 93.6858 430.846 94.2128 430.846 94.7842V95.0502C430.846 95.2768 430.822 95.4887 430.772 95.6857C430.664 96.267 430.349 96.8334 429.827 97.3852C429.304 97.9369 428.644 98.2127 427.846 98.2127C427.57 98.2127 427.304 98.1733 427.048 98.0945C426.792 98.0157 426.516 97.8679 426.221 97.6512C425.925 97.4344 425.674 97.1438 425.467 96.7793C425.26 96.4147 425.083 95.9369 424.935 95.3458C424.787 94.7547 424.718 94.0601 424.728 93.2621ZM427.905 92.0208C427.61 92.0208 427.354 92.1045 427.137 92.272C426.92 92.4395 426.753 92.6611 426.635 92.937C426.516 93.2129 426.433 93.4936 426.383 93.7793C426.334 94.0651 426.304 94.3705 426.295 94.6956C426.295 95.5133 426.354 96.0995 426.472 96.4541C426.59 96.8088 426.777 97.0945 427.034 97.3113C427.27 97.4886 427.531 97.5773 427.817 97.5773C428.319 97.5773 428.703 97.3901 428.969 97.0157C429.098 96.8384 429.186 96.6167 429.235 96.3507C429.285 96.0847 429.309 95.5675 429.309 94.799C429.309 94.0109 429.285 93.4838 429.235 93.2178C429.186 92.9518 429.098 92.7301 428.969 92.5528C428.703 92.1981 428.349 92.0208 427.905 92.0208Z" fill="#D9EBFF"/>
<path d="M340 195.741C340.014 195.657 340.035 195.546 340.063 195.407C340.091 195.267 340.174 195.002 340.314 194.612C340.453 194.222 340.592 193.895 340.732 193.63C340.871 193.365 341.101 193.107 341.421 192.856C341.742 192.606 342.062 192.487 342.383 192.501C342.885 192.501 343.303 192.627 343.637 192.877C343.971 193.128 344.18 193.365 344.264 193.588C344.348 193.811 344.389 193.957 344.389 194.027C344.389 194.055 344.396 194.069 344.41 194.069L344.64 193.839C345.49 192.947 346.459 192.501 347.546 192.501C348.298 192.501 348.904 192.689 349.364 193.065C349.824 193.442 350.061 193.992 350.075 194.717C350.089 195.441 349.824 196.535 349.281 197.998C348.737 199.462 348.472 200.346 348.486 200.653C348.486 201.015 348.605 201.196 348.842 201.196C348.925 201.196 348.988 201.189 349.03 201.176C349.434 201.106 349.796 200.841 350.117 200.381C350.437 199.921 350.681 199.364 350.848 198.709C350.876 198.598 351.016 198.542 351.266 198.542C351.545 198.542 351.684 198.598 351.684 198.709C351.684 198.723 351.657 198.828 351.601 199.023C351.489 199.427 351.336 199.824 351.141 200.214C350.946 200.604 350.625 200.994 350.179 201.385C349.733 201.775 349.253 201.963 348.737 201.949C348.082 201.949 347.608 201.761 347.316 201.385C347.023 201.008 346.877 200.618 346.877 200.214C346.877 199.949 347.128 199.113 347.629 197.706C348.131 196.298 348.389 195.239 348.403 194.529C348.403 193.706 348.096 193.295 347.483 193.295H347.379C346.18 193.295 345.17 193.999 344.348 195.407L344.201 195.657L343.512 198.458C343.052 200.284 342.787 201.266 342.717 201.405C342.536 201.782 342.237 201.97 341.818 201.97C341.637 201.97 341.491 201.928 341.38 201.844C341.268 201.761 341.191 201.677 341.15 201.594C341.108 201.51 341.094 201.44 341.108 201.385C341.108 201.203 341.373 200.068 341.902 197.977C342.432 195.887 342.71 194.752 342.738 194.57C342.752 194.501 342.759 194.341 342.759 194.09C342.759 193.546 342.592 193.274 342.257 193.274C341.728 193.274 341.289 193.971 340.941 195.365C340.857 195.643 340.815 195.79 340.815 195.804C340.787 195.887 340.655 195.929 340.418 195.929H340.125C340.042 195.845 340 195.783 340 195.741Z" fill="#D9EBFF"/>
<path d="M354.531 202.567C354.531 202.804 354.452 203.001 354.295 203.159C354.137 203.316 353.945 203.395 353.718 203.395H353.615C354.068 204.173 354.669 204.562 355.418 204.562C356.107 204.562 356.61 204.267 356.925 203.676C357.112 203.351 357.206 202.72 357.206 201.784C357.206 200.769 357.073 200.085 356.807 199.73C356.551 199.405 356.265 199.242 355.95 199.242H355.861C355.093 199.242 354.511 199.577 354.117 200.247C354.078 200.316 354.043 200.356 354.014 200.366C353.984 200.375 353.91 200.385 353.792 200.395C353.625 200.395 353.531 200.366 353.511 200.306C353.492 200.267 353.482 199.405 353.482 197.72V195.814C353.482 195.321 353.506 195.075 353.556 195.075C353.575 195.055 353.595 195.046 353.615 195.046C353.625 195.046 353.728 195.085 353.925 195.164C354.122 195.243 354.393 195.321 354.738 195.4C355.083 195.479 355.452 195.518 355.846 195.518C356.546 195.518 357.216 195.38 357.856 195.105C357.935 195.065 357.999 195.046 358.048 195.046C358.127 195.046 358.166 195.134 358.166 195.312V195.504C357.359 196.459 356.349 196.937 355.137 196.937C354.832 196.937 354.556 196.908 354.309 196.848L354.162 196.819V199.361C354.349 199.223 354.497 199.114 354.605 199.036C354.713 198.957 354.891 198.878 355.137 198.799C355.383 198.72 355.634 198.681 355.891 198.681C356.689 198.681 357.364 199.001 357.915 199.641C358.467 200.282 358.743 201.04 358.743 201.917C358.743 202.824 358.428 203.597 357.797 204.237C357.166 204.878 356.398 205.203 355.492 205.213C354.694 205.213 354.053 204.947 353.571 204.415C353.088 203.883 352.846 203.282 352.846 202.612C352.846 202.375 352.901 202.188 353.009 202.05C353.117 201.912 353.231 201.824 353.349 201.784C353.467 201.745 353.58 201.725 353.689 201.725C353.935 201.725 354.137 201.809 354.295 201.976C354.452 202.144 354.531 202.341 354.531 202.567Z" fill="#D9EBFF"/>
<path d="M269 88.741C269.014 88.6573 269.035 88.5459 269.063 88.4065C269.091 88.2672 269.174 88.0024 269.314 87.6122C269.453 87.2221 269.592 86.8946 269.732 86.6298C269.871 86.3651 270.101 86.1073 270.421 85.8564C270.742 85.6056 271.062 85.4872 271.383 85.5011C271.885 85.5011 272.303 85.6265 272.637 85.8773C272.971 86.1282 273.18 86.3651 273.264 86.588C273.348 86.811 273.389 86.9573 273.389 87.027C273.389 87.0548 273.396 87.0688 273.41 87.0688L273.64 86.8388C274.49 85.947 275.459 85.5011 276.546 85.5011C277.298 85.5011 277.904 85.6892 278.364 86.0655C278.824 86.4417 279.061 86.9921 279.075 87.7167C279.089 88.4414 278.824 89.5352 278.281 90.9984C277.737 92.4616 277.472 93.3464 277.486 93.653C277.486 94.0153 277.605 94.1964 277.842 94.1964C277.925 94.1964 277.988 94.1895 278.03 94.1755C278.434 94.1059 278.796 93.8411 279.117 93.3813C279.437 92.9214 279.681 92.364 279.848 91.7091C279.876 91.5976 280.016 91.5419 280.266 91.5419C280.545 91.5419 280.684 91.5976 280.684 91.7091C280.684 91.723 280.657 91.8275 280.601 92.0226C280.489 92.4267 280.336 92.8239 280.141 93.214C279.946 93.6042 279.625 93.9944 279.179 94.3846C278.733 94.7747 278.253 94.9629 277.737 94.9489C277.082 94.9489 276.608 94.7608 276.316 94.3846C276.023 94.0083 275.877 93.6182 275.877 93.214C275.877 92.9493 276.128 92.1132 276.629 90.7058C277.131 89.2983 277.389 88.2393 277.403 87.5286C277.403 86.7065 277.096 86.2954 276.483 86.2954H276.379C275.18 86.2954 274.17 86.9991 273.348 88.4065L273.201 88.6573L272.512 91.4583C272.052 93.2837 271.787 94.2661 271.717 94.4055C271.536 94.7817 271.237 94.9698 270.818 94.9698C270.637 94.9698 270.491 94.928 270.38 94.8444C270.268 94.7608 270.191 94.6772 270.15 94.5936C270.108 94.51 270.094 94.4403 270.108 94.3846C270.108 94.2034 270.373 93.0677 270.902 90.9775C271.432 88.8873 271.71 87.7516 271.738 87.5704C271.752 87.5008 271.759 87.3405 271.759 87.0897C271.759 86.5462 271.592 86.2745 271.257 86.2745C270.728 86.2745 270.289 86.9712 269.941 88.3647C269.857 88.6434 269.815 88.7897 269.815 88.8037C269.787 88.8873 269.655 88.9291 269.418 88.9291H269.125C269.042 88.8455 269 88.7828 269 88.741Z" fill="#D9EBFF"/>
<path d="M287.935 97.8876C287.758 97.858 287.122 97.8433 286.029 97.8433C284.886 97.8433 284.226 97.858 284.048 97.8876H283.915V97.2078H284.373C284.57 97.2078 284.703 97.2078 284.772 97.2078C284.841 97.2078 284.925 97.198 285.024 97.1783C285.122 97.1586 285.191 97.1339 285.231 97.1044C285.27 97.0748 285.304 97.0354 285.334 96.9862C285.344 96.9664 285.349 96.7004 285.349 96.1881V95.4492H281.521V94.7695L283.753 91.3558C285.26 89.0701 286.024 87.9224 286.043 87.9125C286.063 87.8928 286.166 87.883 286.354 87.883H286.62L286.708 87.9716V94.7695H288.068V95.4492H286.708V96.2029C286.708 96.6069 286.708 96.8433 286.708 96.9123C286.708 96.9812 286.738 97.0403 286.797 97.0896C286.876 97.1586 287.157 97.198 287.639 97.2078H288.068V97.8876H287.935ZM285.437 94.7695V89.8336L282.201 94.7547L283.812 94.7695H285.437Z" fill="#D9EBFF"/>
</svg>
