<svg width="700" height="223" viewBox="0 0 700 223" fill="none" xmlns="http://www.w3.org/2000/svg">
<rect width="700" height="222" transform="translate(0 0.5)" fill="#0A0D12"/>
<circle cx="349" cy="111.5" r="100" fill="#0E4559" stroke="#B3BFD8" stroke-width="2"/>
<path d="M451 10.5C451 9.94772 450.552 9.5 450 9.5L441 9.50001C440.448 9.5 440 9.94771 440 10.5C440 11.0523 440.448 11.5 441 11.5L449 11.5L449 19.5C449 20.0523 449.448 20.5 450 20.5C450.552 20.5 451 20.0523 451 19.5L451 10.5ZM349.707 112.207L450.707 11.2071L449.293 9.79289L348.293 110.793L349.707 112.207Z" fill="#EB5757"/>
<circle cx="349" cy="111.5" r="5" fill="#EB5757"/>
</svg>
