<svg width="700" height="223" viewBox="0 0 700 223" fill="none" xmlns="http://www.w3.org/2000/svg">
<rect width="700" height="222" transform="translate(0 0.5)" fill="#0A0D12"/>
<circle cx="131" cy="111.5" r="100" fill="#0E4559" stroke="#B3BFD8" stroke-width="2"/>
<path fill-rule="evenodd" clip-rule="evenodd" d="M452 111.5C452 166.728 407.228 211.5 352 211.5C296.772 211.5 252 166.728 252 111.5C252 56.2715 296.772 11.5 352 11.5C407.228 11.5 452 56.2715 452 111.5ZM352 186.5C393.421 186.5 427 152.921 427 111.5C427 70.0786 393.421 36.5 352 36.5C310.579 36.5 277 70.0786 277 111.5C277 152.921 310.579 186.5 352 186.5Z" fill="#0E4559" stroke="#B3BFD8" stroke-width="2"/>
<path d="M623 111.5C623 139.114 600.614 161.5 573 161.5C545.386 161.5 523 139.114 523 111.5C523 83.8858 545.386 61.5 573 61.5C600.614 61.5 623 83.8858 623 111.5Z" fill="#0E4559"/>
<path fill-rule="evenodd" clip-rule="evenodd" d="M673 111.5C673 166.728 628.228 211.5 573 211.5C517.772 211.5 473 166.728 473 111.5C473 56.2715 517.772 11.5 573 11.5C628.228 11.5 673 56.2715 673 111.5ZM573 186.5C614.421 186.5 648 152.921 648 111.5C648 70.0786 614.421 36.5 573 36.5C531.579 36.5 498 70.0786 498 111.5C498 152.921 531.579 186.5 573 186.5Z" fill="#0E4559"/>
<path fill-rule="evenodd" clip-rule="evenodd" d="M573 211.5C628.228 211.5 673 166.728 673 111.5C673 56.2715 628.228 11.5 573 11.5C517.772 11.5 473 56.2715 473 111.5C473 166.728 517.772 211.5 573 211.5ZM573 186.5C614.421 186.5 648 152.921 648 111.5C648 70.0786 614.421 36.5 573 36.5C531.579 36.5 498 70.0786 498 111.5C498 152.921 531.579 186.5 573 186.5ZM623 111.5C623 139.114 600.614 161.5 573 161.5C545.386 161.5 523 139.114 523 111.5C523 83.8858 545.386 61.5 573 61.5C600.614 61.5 623 83.8858 623 111.5Z" fill="#0E4559"/>
<path d="M673 111.5C673 166.728 628.228 211.5 573 211.5C517.772 211.5 473 166.728 473 111.5C473 56.2715 517.772 11.5 573 11.5C628.228 11.5 673 56.2715 673 111.5ZM648 111.5C648 152.921 614.421 186.5 573 186.5C531.579 186.5 498 152.921 498 111.5C498 70.0786 531.579 36.5 573 36.5C614.421 36.5 648 70.0786 648 111.5ZM623 111.5C623 139.114 600.614 161.5 573 161.5C545.386 161.5 523 139.114 523 111.5C523 83.8858 545.386 61.5 573 61.5C600.614 61.5 623 83.8858 623 111.5Z" stroke="#B3BFD8" stroke-width="2"/>
<path d="M674 10.5C674 9.94772 673.552 9.5 673 9.5L664 9.50001C663.448 9.5 663 9.94771 663 10.5C663 11.0523 663.448 11.5 664 11.5L672 11.5L672 19.5C672 20.0523 672.448 20.5 673 20.5C673.552 20.5 674 20.0523 674 19.5L674 10.5ZM572.707 112.207L673.707 11.2071L672.293 9.79289L571.293 110.793L572.707 112.207Z" fill="#EB5757"/>
<path d="M453 10.5C453 9.94772 452.552 9.5 452 9.5L443 9.50001C442.448 9.5 442 9.94771 442 10.5C442 11.0523 442.448 11.5 443 11.5L451 11.5L451 19.5C451 20.0523 451.448 20.5 452 20.5C452.552 20.5 453 20.0523 453 19.5L453 10.5ZM351.707 112.207L452.707 11.2071L451.293 9.79289L350.293 110.793L351.707 112.207Z" fill="#EB5757"/>
<path d="M233 10.5C233 9.94772 232.552 9.5 232 9.5L223 9.50001C222.448 9.5 222 9.94771 222 10.5C222 11.0523 222.448 11.5 223 11.5L231 11.5L231 19.5C231 20.0523 231.448 20.5 232 20.5C232.552 20.5 233 20.0523 233 19.5L233 10.5ZM131.707 112.207L232.707 11.2071L231.293 9.79289L130.293 110.793L131.707 112.207Z" fill="#EB5757"/>
<circle cx="572" cy="111.5" r="5" fill="#EB5757"/>
<circle cx="352" cy="111.5" r="5" fill="#EB5757"/>
<circle cx="131" cy="111.5" r="5" fill="#EB5757"/>
</svg>
