<svg width="700" height="223" viewBox="0 0 700 223" fill="none" xmlns="http://www.w3.org/2000/svg">
<rect width="700" height="222" transform="translate(0 0.5)" fill="#0A0D12"/>
<path d="M422 55L368.5 9.5L328 42.5L340 47.5L357.5 25L382.5 40L305 77L328 14.5L259 22.5L305 28L206 70L248 210L305 157L251.5 183.5L248 160.5L271 152L262 169L293.5 152L271 65.5L259 70L278 133.5L248 144.5L244.5 133.5L251.5 101.5L254 128.5L259 96L241.5 87.5L235 113.5L224 80.5L291 52V92.5L335 87.5L298 120.5L305 144.5L316.5 133.5L312.5 120.5L328 108.5L337.5 144.5L293.5 191.5L376.5 144.5L355 140L345.5 101.5L382.5 80.5L386 92.5L357.5 106L363 124L386 133.5L379 113.5L412 101.5L398.5 65.5L418 87.5L469.5 62.5L448 25L402 22.5L418 35.5H436.5L443 47.5L422 55Z" fill="#0E4559" stroke="#B3BFD8" stroke-width="2"/>
<circle cx="349" cy="90.5" r="5" fill="#EB5757"/>
<path d="M477.932 34.8617C478.132 34.3468 477.877 33.7675 477.362 33.5677L468.971 30.3123C468.456 30.1126 467.877 30.368 467.677 30.8829C467.477 31.3978 467.733 31.9771 468.248 32.1769L475.706 35.0706L472.812 42.5289C472.613 43.0438 472.868 43.6231 473.383 43.8229C473.898 44.0227 474.477 43.7672 474.677 43.2523L477.932 34.8617ZM350.403 91.415L477.403 35.415L476.597 33.585L349.597 89.585L350.403 91.415Z" fill="#EB5757"/>
<circle cx="305" cy="103.5" r="5" fill="#EB5757"/>
<path d="M242.187 8.51756C241.644 8.41453 241.121 8.77087 241.018 9.31346L239.339 18.1555C239.236 18.6981 239.592 19.2215 240.135 19.3245C240.677 19.4275 241.201 19.0712 241.304 18.5286L242.796 10.669L250.655 12.1613C251.198 12.2643 251.721 11.908 251.824 11.3654C251.927 10.8228 251.571 10.2994 251.029 10.1964L242.187 8.51756ZM306.827 102.937L242.827 8.93721L241.173 10.0628L305.173 104.063L306.827 102.937Z" fill="#EB5757"/>
<path d="M359.672 176.445C360.194 176.626 360.764 176.35 360.945 175.828L363.895 167.325C364.076 166.803 363.8 166.233 363.278 166.052C362.756 165.871 362.186 166.148 362.005 166.669L359.383 174.227L351.825 171.605C351.303 171.424 350.733 171.7 350.552 172.222C350.371 172.744 350.648 173.314 351.169 173.495L359.672 176.445ZM343.1 142.936L359.1 175.936L360.9 175.064L344.9 142.064L343.1 142.936Z" fill="#EB5757"/>
<circle cx="344" cy="142.5" r="5" fill="#EB5757"/>
<path d="M209.096 165.073C208.86 165.572 209.073 166.168 209.573 166.404L217.709 170.251C218.208 170.487 218.804 170.274 219.04 169.775C219.276 169.276 219.063 168.679 218.564 168.443L211.332 165.023L214.751 157.791C214.987 157.292 214.774 156.696 214.275 156.46C213.776 156.224 213.179 156.437 212.943 156.936L209.096 165.073ZM399.663 96.5585L209.663 164.558L210.337 166.442L400.337 98.4415L399.663 96.5585Z" fill="#EB5757"/>
<circle cx="400" cy="97.5" r="5" fill="#EB5757"/>
<path d="M387.917 3.10041C387.696 2.59414 387.107 2.36262 386.6 2.5833L378.35 6.17957C377.844 6.40026 377.612 6.98958 377.833 7.49585C378.054 8.00213 378.643 8.23365 379.149 8.01296L386.483 4.81628L389.68 12.1498C389.9 12.6561 390.49 12.8876 390.996 12.667C391.502 12.4463 391.734 11.857 391.513 11.3507L387.917 3.10041ZM365.931 59.8657L387.931 3.86565L386.069 3.13435L364.069 59.1343L365.931 59.8657Z" fill="#EB5757"/>
<circle cx="365" cy="59.5" r="5" fill="#EB5757"/>
<path d="M140.568 72.5981C140.07 72.8366 139.86 73.4337 140.098 73.9318L143.985 82.0494C144.223 82.5475 144.82 82.758 145.318 82.5195C145.817 82.281 146.027 81.6838 145.789 81.1857L142.334 73.9701L149.549 70.5154C150.048 70.2769 150.258 69.6797 150.019 69.1816C149.781 68.6834 149.184 68.473 148.686 68.7115L140.568 72.5981ZM263.332 115.557L141.332 72.5569L140.668 74.4431L262.668 117.443L263.332 115.557Z" fill="#EB5757"/>
<circle cx="263" cy="116.5" r="5" fill="#EB5757"/>
</svg>
