<svg width="700" height="102" viewBox="0 0 700 102" fill="none" xmlns="http://www.w3.org/2000/svg">
<rect width="700" height="102" fill="#0A0D12"/>
<line x1="362.122" y1="89.5221" x2="405.644" y2="9.52211" stroke="#38A0FF" stroke-width="2"/>
<line x1="522.237" y1="9.49664" x2="569.191" y2="90.0976" stroke="#38A0FF" stroke-width="2"/>
<rect x="522" y="5.58579" width="6.24264" height="6.24264" transform="rotate(45 522 5.58579)" fill="#0A0D12" stroke="#38A0FF" stroke-width="2"/>
<rect x="405" y="5.58579" width="6.24264" height="6.24264" transform="rotate(45 405 5.58579)" fill="#0A0D12" stroke="#38A0FF" stroke-width="2"/>
<path d="M362.5 88.4951C406.284 7.16178 520.084 7.16177 567.5 88.4951" stroke="#B3BFD8" stroke-width="2"/>
<circle cx="567.5" cy="88.4951" r="4.5" fill="black" stroke="#D9EBFF" stroke-width="2"/>
<circle cx="560.763" cy="78.0854" r="4.5" fill="black" stroke="#D9EBFF" stroke-width="2"/>
<circle cx="552.982" cy="68.2804" r="4.5" fill="black" stroke="#D9EBFF" stroke-width="2"/>
<circle cx="544.258" cy="59.3042" r="4.5" fill="black" stroke="#D9EBFF" stroke-width="2"/>
<circle cx="534.657" cy="51.2717" r="4.5" fill="black" stroke="#D9EBFF" stroke-width="2"/>
<circle cx="524.271" cy="44.2852" r="4.5" fill="black" stroke="#D9EBFF" stroke-width="2"/>
<circle cx="513.207" cy="38.4313" r="4.5" fill="black" stroke="#D9EBFF" stroke-width="2"/>
<circle cx="501.587" cy="33.7795" r="4.5" fill="black" stroke="#D9EBFF" stroke-width="2"/>
<circle cx="489.539" cy="30.383" r="4.5" fill="black" stroke="#D9EBFF" stroke-width="2"/>
<circle cx="477.199" cy="28.2809" r="4.5" fill="black" stroke="#D9EBFF" stroke-width="2"/>
<circle cx="464.707" cy="27.5" r="4.5" fill="black" stroke="#D9EBFF" stroke-width="2"/>
<circle cx="452.202" cy="28.056" r="4.5" fill="black" stroke="#D9EBFF" stroke-width="2"/>
<circle cx="439.829" cy="29.9539" r="4.5" fill="black" stroke="#D9EBFF" stroke-width="2"/>
<circle cx="427.736" cy="33.1858" r="4.5" fill="black" stroke="#D9EBFF" stroke-width="2"/>
<circle cx="416.073" cy="37.7284" r="4.5" fill="black" stroke="#D9EBFF" stroke-width="2"/>
<circle cx="404.985" cy="43.5388" r="4.5" fill="black" stroke="#D9EBFF" stroke-width="2"/>
<circle cx="394.617" cy="50.551" r="4.5" fill="black" stroke="#D9EBFF" stroke-width="2"/>
<circle cx="385.094" cy="58.6747" r="4.5" fill="black" stroke="#D9EBFF" stroke-width="2"/>
<circle cx="376.522" cy="67.7961" r="4.5" fill="black" stroke="#D9EBFF" stroke-width="2"/>
<circle cx="368.976" cy="77.7834" r="4.5" fill="black" stroke="#D9EBFF" stroke-width="2"/>
<circle cx="362.5" cy="88.4951" r="4.5" fill="black" stroke="#D9EBFF" stroke-width="2"/>
<path d="M132 89C175.784 7.66666 289.584 7.66665 337 89" stroke="#B3BFD8" stroke-width="2"/>
<line x1="131.122" y1="89.5221" x2="174.644" y2="9.52211" stroke="#38A0FF" stroke-width="2"/>
<line x1="291.237" y1="9.49664" x2="338.191" y2="90.0976" stroke="#38A0FF" stroke-width="2"/>
<rect x="291" y="5.58579" width="6.24264" height="6.24264" transform="rotate(45 291 5.58579)" fill="#0A0D12" stroke="#38A0FF" stroke-width="2"/>
<rect x="174" y="5.58579" width="6.24264" height="6.24264" transform="rotate(45 174 5.58579)" fill="#0A0D12" stroke="#38A0FF" stroke-width="2"/>
<circle cx="336.5" cy="88.4951" r="4.5" fill="black" stroke="#D9EBFF" stroke-width="2"/>
<circle cx="131.5" cy="88.4951" r="4.5" fill="black" stroke="#D9EBFF" stroke-width="2"/>
</svg>
