<svg width="700" height="226" viewBox="0 0 700 226" fill="none" xmlns="http://www.w3.org/2000/svg">
<rect width="700" height="225" transform="translate(0 0.5)" fill="#0A0D12"/>
<path d="M400 63.5L300 63.5L300 163.5L400 163.5L400 63.5ZM400 63.5L449.5 14M250 213.5H450V13.5H250L250 213.5Z" stroke="#B3BFD8" stroke-width="2"/>
<circle cx="250" cy="13.5" r="5" fill="black" stroke="#D9EBFF" stroke-width="2"/>
<circle cx="299.656" cy="63.1569" r="5" transform="rotate(45 299.656 63.1569)" fill="black" stroke="#D9EBFF" stroke-width="2"/>
<circle cx="450" cy="13.5" r="5" fill="black" stroke="#D9EBFF" stroke-width="2"/>
<circle cx="399.656" cy="63.1569" r="5" transform="rotate(45 399.656 63.1569)" fill="black" stroke="#D9EBFF" stroke-width="2"/>
<circle cx="250" cy="213.5" r="5" fill="black" stroke="#D9EBFF" stroke-width="2"/>
<circle cx="299.656" cy="163.157" r="5" transform="rotate(45 299.656 163.157)" fill="black" stroke="#D9EBFF" stroke-width="2"/>
<circle cx="450" cy="213.5" r="5" fill="black" stroke="#D9EBFF" stroke-width="2"/>
<circle cx="399.656" cy="163.157" r="5" transform="rotate(45 399.656 163.157)" fill="black" stroke="#D9EBFF" stroke-width="2"/>
<path d="M221 11.741C221.014 11.6573 221.035 11.5459 221.063 11.4065C221.091 11.2672 221.174 11.0024 221.314 10.6122C221.453 10.2221 221.592 9.89459 221.732 9.62982C221.871 9.36506 222.101 9.10727 222.421 8.85644C222.742 8.60561 223.062 8.48717 223.383 8.5011C223.885 8.5011 224.303 8.62651 224.637 8.87734C224.971 9.12817 225.18 9.36506 225.264 9.58802C225.348 9.81098 225.389 9.95729 225.389 10.027C225.389 10.0548 225.396 10.0688 225.41 10.0688L225.64 9.83885C226.49 8.94702 227.459 8.5011 228.546 8.5011C229.298 8.5011 229.904 8.68922 230.364 9.06546C230.824 9.4417 231.061 9.99213 231.075 10.7167C231.089 11.4414 230.824 12.5352 230.281 13.9984C229.737 15.4616 229.472 16.3464 229.486 16.653C229.486 17.0153 229.605 17.1964 229.842 17.1964C229.925 17.1964 229.988 17.1895 230.03 17.1755C230.434 17.1059 230.796 16.8411 231.117 16.3813C231.437 15.9214 231.681 15.364 231.848 14.7091C231.876 14.5976 232.016 14.5419 232.266 14.5419C232.545 14.5419 232.684 14.5976 232.684 14.7091C232.684 14.723 232.657 14.8275 232.601 15.0226C232.489 15.4267 232.336 15.8239 232.141 16.214C231.946 16.6042 231.625 16.9944 231.179 17.3846C230.733 17.7747 230.253 17.9629 229.737 17.9489C229.082 17.9489 228.608 17.7608 228.316 17.3846C228.023 17.0083 227.877 16.6182 227.877 16.214C227.877 15.9493 228.128 15.1132 228.629 13.7058C229.131 12.2983 229.389 11.2393 229.403 10.5286C229.403 9.70647 229.096 9.29539 228.483 9.29539H228.379C227.18 9.29539 226.17 9.9991 225.348 11.4065L225.201 11.6573L224.512 14.4583C224.052 16.2837 223.787 17.2661 223.717 17.4055C223.536 17.7817 223.237 17.9698 222.818 17.9698C222.637 17.9698 222.491 17.928 222.38 17.8444C222.268 17.7608 222.191 17.6772 222.15 17.5936C222.108 17.51 222.094 17.4403 222.108 17.3846C222.108 17.2034 222.373 16.0677 222.902 13.9775C223.432 11.8873 223.71 10.7516 223.738 10.5704C223.752 10.5008 223.759 10.3405 223.759 10.0897C223.759 9.54621 223.592 9.27448 223.257 9.27448C222.728 9.27448 222.289 9.97123 221.941 11.3647C221.857 11.6434 221.815 11.7897 221.815 11.8037C221.787 11.8873 221.655 11.9291 221.418 11.9291H221.125C221.042 11.8455 221 11.7828 221 11.741Z" fill="#D9EBFF"/>
<path d="M234.526 12.2425C235.078 11.4445 235.832 11.0455 236.787 11.0455C237.26 11.0455 237.733 11.1736 238.206 11.4297C238.679 11.6859 239.063 12.1391 239.359 12.7893C239.723 13.607 239.905 14.7301 239.905 16.1587C239.905 17.6857 239.694 18.8532 239.27 19.661C239.073 20.0748 238.802 20.4049 238.457 20.6512C238.112 20.8975 237.812 21.0502 237.556 21.1093C237.3 21.1684 237.048 21.2029 236.802 21.2127C236.546 21.2127 236.29 21.1832 236.034 21.1241C235.777 21.0649 235.477 20.9073 235.132 20.6512C234.787 20.395 234.516 20.065 234.319 19.661C233.896 18.8532 233.684 17.6857 233.684 16.1587C233.684 14.4444 233.965 13.1391 234.526 12.2425ZM237.851 12.0652C237.556 11.7499 237.206 11.5923 236.802 11.5923C236.388 11.5923 236.034 11.7499 235.738 12.0652C235.492 12.3213 235.329 12.676 235.25 13.1292C235.171 13.5824 235.132 14.5282 235.132 15.9666C235.132 17.5232 235.171 18.5478 235.25 19.0404C235.329 19.533 235.506 19.9221 235.782 20.2078C236.058 20.5034 236.398 20.6512 236.802 20.6512C237.196 20.6512 237.531 20.5034 237.807 20.2078C238.093 19.9123 238.27 19.4985 238.339 18.9665C238.408 18.4345 238.447 17.4345 238.457 15.9666C238.457 14.538 238.418 13.5972 238.339 13.144C238.26 12.6908 238.098 12.3312 237.851 12.0652Z" fill="#D9EBFF"/>
<path d="M221 211.741C221.014 211.657 221.035 211.546 221.063 211.407C221.091 211.267 221.174 211.002 221.314 210.612C221.453 210.222 221.592 209.895 221.732 209.63C221.871 209.365 222.101 209.107 222.421 208.856C222.742 208.606 223.062 208.487 223.383 208.501C223.885 208.501 224.303 208.627 224.637 208.877C224.971 209.128 225.18 209.365 225.264 209.588C225.348 209.811 225.389 209.957 225.389 210.027C225.389 210.055 225.396 210.069 225.41 210.069L225.64 209.839C226.49 208.947 227.459 208.501 228.546 208.501C229.298 208.501 229.904 208.689 230.364 209.065C230.824 209.442 231.061 209.992 231.075 210.717C231.089 211.441 230.824 212.535 230.281 213.998C229.737 215.462 229.472 216.346 229.486 216.653C229.486 217.015 229.605 217.196 229.842 217.196C229.925 217.196 229.988 217.189 230.03 217.176C230.434 217.106 230.796 216.841 231.117 216.381C231.437 215.921 231.681 215.364 231.848 214.709C231.876 214.598 232.016 214.542 232.266 214.542C232.545 214.542 232.684 214.598 232.684 214.709C232.684 214.723 232.657 214.828 232.601 215.023C232.489 215.427 232.336 215.824 232.141 216.214C231.946 216.604 231.625 216.994 231.179 217.385C230.733 217.775 230.253 217.963 229.737 217.949C229.082 217.949 228.608 217.761 228.316 217.385C228.023 217.008 227.877 216.618 227.877 216.214C227.877 215.949 228.128 215.113 228.629 213.706C229.131 212.298 229.389 211.239 229.403 210.529C229.403 209.706 229.096 209.295 228.483 209.295H228.379C227.18 209.295 226.17 209.999 225.348 211.407L225.201 211.657L224.512 214.458C224.052 216.284 223.787 217.266 223.717 217.405C223.536 217.782 223.237 217.97 222.818 217.97C222.637 217.97 222.491 217.928 222.38 217.844C222.268 217.761 222.191 217.677 222.15 217.594C222.108 217.51 222.094 217.44 222.108 217.385C222.108 217.203 222.373 216.068 222.902 213.977C223.432 211.887 223.71 210.752 223.738 210.57C223.752 210.501 223.759 210.341 223.759 210.09C223.759 209.546 223.592 209.274 223.257 209.274C222.728 209.274 222.289 209.971 221.941 211.365C221.857 211.643 221.815 211.79 221.815 211.804C221.787 211.887 221.655 211.929 221.418 211.929H221.125C221.042 211.845 221 211.783 221 211.741Z" fill="#D9EBFF"/>
<path d="M236.255 212.346L236.063 212.42C235.925 212.469 235.728 212.518 235.472 212.568C235.216 212.617 234.93 212.651 234.615 212.671H234.334V211.991H234.615C235.078 211.972 235.506 211.898 235.901 211.77C236.295 211.642 236.57 211.523 236.728 211.415C236.886 211.307 237.024 211.198 237.142 211.09C237.162 211.06 237.221 211.046 237.319 211.046C237.408 211.046 237.492 211.075 237.57 211.134V215.553L237.585 219.986C237.654 220.055 237.713 220.099 237.763 220.119C237.812 220.139 237.93 220.159 238.117 220.178C238.304 220.198 238.61 220.208 239.033 220.208H239.418V220.888H239.255C239.048 220.858 238.265 220.843 236.905 220.843C235.566 220.843 234.792 220.858 234.585 220.888H234.408V220.208H234.792C235.009 220.208 235.196 220.208 235.354 220.208C235.511 220.208 235.635 220.203 235.723 220.193C235.812 220.183 235.891 220.168 235.96 220.149C236.029 220.129 236.068 220.119 236.078 220.119C236.088 220.119 236.117 220.095 236.167 220.045C236.216 219.996 236.245 219.976 236.255 219.986V212.346Z" fill="#D9EBFF"/>
<path d="M460 211.741C460.014 211.657 460.035 211.546 460.063 211.407C460.091 211.267 460.174 211.002 460.314 210.612C460.453 210.222 460.592 209.895 460.732 209.63C460.871 209.365 461.101 209.107 461.421 208.856C461.742 208.606 462.062 208.487 462.383 208.501C462.885 208.501 463.303 208.627 463.637 208.877C463.971 209.128 464.18 209.365 464.264 209.588C464.348 209.811 464.389 209.957 464.389 210.027C464.389 210.055 464.396 210.069 464.41 210.069L464.64 209.839C465.49 208.947 466.459 208.501 467.546 208.501C468.298 208.501 468.904 208.689 469.364 209.065C469.824 209.442 470.061 209.992 470.075 210.717C470.089 211.441 469.824 212.535 469.281 213.998C468.737 215.462 468.472 216.346 468.486 216.653C468.486 217.015 468.605 217.196 468.842 217.196C468.925 217.196 468.988 217.189 469.03 217.176C469.434 217.106 469.796 216.841 470.117 216.381C470.437 215.921 470.681 215.364 470.848 214.709C470.876 214.598 471.016 214.542 471.266 214.542C471.545 214.542 471.684 214.598 471.684 214.709C471.684 214.723 471.657 214.828 471.601 215.023C471.489 215.427 471.336 215.824 471.141 216.214C470.946 216.604 470.625 216.994 470.179 217.385C469.733 217.775 469.253 217.963 468.737 217.949C468.082 217.949 467.608 217.761 467.316 217.385C467.023 217.008 466.877 216.618 466.877 216.214C466.877 215.949 467.128 215.113 467.629 213.706C468.131 212.298 468.389 211.239 468.403 210.529C468.403 209.706 468.096 209.295 467.483 209.295H467.379C466.18 209.295 465.17 209.999 464.348 211.407L464.201 211.657L463.512 214.458C463.052 216.284 462.787 217.266 462.717 217.405C462.536 217.782 462.237 217.97 461.819 217.97C461.637 217.97 461.491 217.928 461.38 217.844C461.268 217.761 461.191 217.677 461.15 217.594C461.108 217.51 461.094 217.44 461.108 217.385C461.108 217.203 461.373 216.068 461.902 213.977C462.432 211.887 462.71 210.752 462.738 210.57C462.752 210.501 462.759 210.341 462.759 210.09C462.759 209.546 462.592 209.274 462.257 209.274C461.728 209.274 461.289 209.971 460.941 211.365C460.857 211.643 460.815 211.79 460.815 211.804C460.787 211.887 460.655 211.929 460.418 211.929H460.125C460.042 211.845 460 211.783 460 211.741Z" fill="#D9EBFF"/>
<path d="M473.718 214.548C473.452 214.548 473.24 214.459 473.083 214.282C472.925 214.105 472.846 213.888 472.846 213.632C472.846 212.932 473.107 212.326 473.63 211.814C474.152 211.302 474.802 211.046 475.58 211.046C476.477 211.046 477.226 211.321 477.827 211.873C478.428 212.425 478.733 213.139 478.743 214.016C478.743 214.44 478.644 214.843 478.447 215.228C478.25 215.612 478.014 215.947 477.738 216.233C477.462 216.518 477.068 216.883 476.556 217.326C476.201 217.632 475.708 218.085 475.078 218.686L474.206 219.513L475.329 219.528C476.876 219.528 477.698 219.503 477.797 219.454C477.866 219.434 477.984 218.996 478.152 218.139V218.095H478.743V218.139C478.733 218.168 478.669 218.617 478.551 219.484C478.432 220.351 478.359 220.804 478.329 220.843V220.888H472.846V220.429C472.846 220.361 472.876 220.287 472.935 220.208C472.994 220.129 473.142 219.957 473.378 219.691C473.664 219.375 473.91 219.099 474.117 218.863C474.206 218.765 474.373 218.582 474.62 218.316C474.866 218.05 475.034 217.868 475.122 217.769C475.211 217.671 475.354 217.508 475.551 217.282C475.748 217.055 475.886 216.888 475.965 216.779C476.043 216.671 476.157 216.523 476.304 216.336C476.452 216.149 476.556 215.991 476.615 215.863C476.674 215.735 476.748 215.592 476.836 215.435C476.925 215.277 476.989 215.119 477.029 214.962C477.068 214.804 477.102 214.656 477.132 214.518C477.162 214.38 477.176 214.218 477.176 214.031C477.176 213.41 477.009 212.873 476.674 212.42C476.339 211.967 475.861 211.74 475.24 211.74C474.915 211.74 474.63 211.824 474.383 211.991C474.137 212.159 473.965 212.321 473.866 212.479C473.768 212.637 473.718 212.73 473.718 212.76C473.718 212.77 473.743 212.775 473.792 212.775C473.97 212.775 474.152 212.843 474.339 212.981C474.526 213.119 474.62 213.346 474.62 213.661C474.62 213.908 474.541 214.114 474.383 214.282C474.226 214.449 474.004 214.538 473.718 214.548Z" fill="#D9EBFF"/>
<path d="M460 11.741C460.014 11.6573 460.035 11.5459 460.063 11.4065C460.091 11.2672 460.174 11.0024 460.314 10.6122C460.453 10.2221 460.592 9.89459 460.732 9.62982C460.871 9.36506 461.101 9.10727 461.421 8.85644C461.742 8.60561 462.062 8.48717 462.383 8.5011C462.885 8.5011 463.303 8.62651 463.637 8.87734C463.971 9.12817 464.18 9.36506 464.264 9.58802C464.348 9.81098 464.389 9.95729 464.389 10.027C464.389 10.0548 464.396 10.0688 464.41 10.0688L464.64 9.83885C465.49 8.94702 466.459 8.5011 467.546 8.5011C468.298 8.5011 468.904 8.68922 469.364 9.06546C469.824 9.4417 470.061 9.99213 470.075 10.7167C470.089 11.4414 469.824 12.5352 469.281 13.9984C468.737 15.4616 468.472 16.3464 468.486 16.653C468.486 17.0153 468.605 17.1964 468.842 17.1964C468.925 17.1964 468.988 17.1895 469.03 17.1755C469.434 17.1059 469.796 16.8411 470.117 16.3813C470.437 15.9214 470.681 15.364 470.848 14.7091C470.876 14.5976 471.016 14.5419 471.266 14.5419C471.545 14.5419 471.684 14.5976 471.684 14.7091C471.684 14.723 471.657 14.8275 471.601 15.0226C471.489 15.4267 471.336 15.8239 471.141 16.214C470.946 16.6042 470.625 16.9944 470.179 17.3846C469.733 17.7747 469.253 17.9629 468.737 17.9489C468.082 17.9489 467.608 17.7608 467.316 17.3846C467.023 17.0083 466.877 16.6182 466.877 16.214C466.877 15.9493 467.128 15.1132 467.629 13.7058C468.131 12.2983 468.389 11.2393 468.403 10.5286C468.403 9.70647 468.096 9.29539 467.483 9.29539H467.379C466.18 9.29539 465.17 9.9991 464.348 11.4065L464.201 11.6573L463.512 14.4583C463.052 16.2837 462.787 17.2661 462.717 17.4055C462.536 17.7817 462.237 17.9698 461.818 17.9698C461.637 17.9698 461.491 17.928 461.38 17.8444C461.268 17.7608 461.191 17.6772 461.15 17.5936C461.108 17.51 461.094 17.4403 461.108 17.3846C461.108 17.2034 461.373 16.0677 461.902 13.9775C462.432 11.8873 462.71 10.7516 462.738 10.5704C462.752 10.5008 462.759 10.3405 462.759 10.0897C462.759 9.54621 462.592 9.27448 462.257 9.27448C461.728 9.27448 461.289 9.97123 460.941 11.3647C460.857 11.6434 460.815 11.7897 460.815 11.8037C460.787 11.8873 460.655 11.9291 460.418 11.9291H460.125C460.042 11.8455 460 11.7828 460 11.741Z" fill="#D9EBFF"/>
<path d="M473.984 14.0454C473.718 14.0454 473.511 13.9617 473.364 13.7942C473.216 13.6267 473.137 13.41 473.127 13.144C473.127 12.6021 473.364 12.1194 473.837 11.6957C474.309 11.2721 474.881 11.0603 475.551 11.0603C475.896 11.0603 476.112 11.0652 476.201 11.0751C476.93 11.1933 477.487 11.4544 477.871 11.8583C478.255 12.2622 478.452 12.7006 478.462 13.1735C478.462 13.6858 478.295 14.1834 477.96 14.6661C477.625 15.1488 477.162 15.4986 476.57 15.7153L476.526 15.7449C476.526 15.7547 476.57 15.7695 476.659 15.7892C476.748 15.8089 476.891 15.8533 477.088 15.9222C477.285 15.9912 477.472 16.0946 477.649 16.2326C478.457 16.7547 478.861 17.4444 478.861 18.3015C478.861 19.0798 478.556 19.7596 477.945 20.3408C477.334 20.9221 476.561 21.2127 475.625 21.2127C474.836 21.2127 474.157 21.0009 473.585 20.5773C473.014 20.1536 472.728 19.6167 472.728 18.9665C472.728 18.6906 472.817 18.469 472.994 18.3015C473.172 18.134 473.393 18.0453 473.659 18.0355C473.935 18.0355 474.162 18.1241 474.339 18.3015C474.516 18.4788 474.605 18.7005 474.605 18.9665C474.605 19.0748 474.59 19.1734 474.561 19.262C474.531 19.3507 474.497 19.4295 474.457 19.4985C474.418 19.5674 474.364 19.6266 474.295 19.6758C474.226 19.7251 474.167 19.7645 474.117 19.794C474.068 19.8236 474.019 19.8433 473.97 19.8532C473.92 19.863 473.881 19.8778 473.851 19.8975L473.792 19.9123C474.295 20.3556 474.905 20.5773 475.625 20.5773C476.167 20.5773 476.575 20.3162 476.851 19.794C477.019 19.4689 477.102 18.9714 477.102 18.3015V18.0059C477.102 17.07 476.787 16.4444 476.157 16.1291C476.009 16.07 475.708 16.0355 475.255 16.0257L474.635 16.0109L474.59 15.9813C474.57 15.9518 474.561 15.873 474.561 15.7449C474.561 15.5676 474.6 15.4789 474.679 15.4789C474.955 15.4789 475.24 15.4543 475.536 15.405C475.871 15.3557 476.176 15.1488 476.452 14.7843C476.728 14.4198 476.866 13.8681 476.866 13.1292V13.011C476.866 12.4494 476.694 12.0603 476.349 11.8435C476.132 11.7056 475.9 11.6366 475.654 11.6366C475.339 11.6366 475.048 11.6908 474.782 11.7992C474.516 11.9076 474.329 12.0209 474.221 12.1391C474.112 12.2573 474.058 12.3164 474.058 12.3164H474.103C474.132 12.3263 474.171 12.3361 474.221 12.346C474.27 12.3558 474.319 12.3805 474.369 12.4199C474.418 12.4593 474.477 12.4937 474.546 12.5233C474.615 12.5529 474.664 12.607 474.694 12.6859C474.723 12.7647 474.763 12.8386 474.812 12.9075C474.861 12.9765 474.876 13.075 474.856 13.2031C474.856 13.4198 474.787 13.6119 474.649 13.7794C474.511 13.9469 474.29 14.0356 473.984 14.0454Z" fill="#D9EBFF"/>
<path d="M409 62.741C409.014 62.6573 409.035 62.5459 409.063 62.4065C409.091 62.2672 409.174 62.0024 409.314 61.6122C409.453 61.2221 409.592 60.8946 409.732 60.6298C409.871 60.3651 410.101 60.1073 410.421 59.8564C410.742 59.6056 411.062 59.4872 411.383 59.5011C411.885 59.5011 412.303 59.6265 412.637 59.8773C412.971 60.1282 413.18 60.3651 413.264 60.588C413.348 60.811 413.389 60.9573 413.389 61.027C413.389 61.0548 413.396 61.0688 413.41 61.0688L413.64 60.8388C414.49 59.947 415.459 59.5011 416.546 59.5011C417.298 59.5011 417.904 59.6892 418.364 60.0655C418.824 60.4417 419.061 60.9921 419.075 61.7167C419.089 62.4414 418.824 63.5352 418.281 64.9984C417.737 66.4616 417.472 67.3464 417.486 67.653C417.486 68.0153 417.605 68.1964 417.842 68.1964C417.925 68.1964 417.988 68.1895 418.03 68.1755C418.434 68.1059 418.796 67.8411 419.117 67.3813C419.437 66.9214 419.681 66.364 419.848 65.7091C419.876 65.5976 420.016 65.5419 420.266 65.5419C420.545 65.5419 420.684 65.5976 420.684 65.7091C420.684 65.723 420.657 65.8275 420.601 66.0226C420.489 66.4267 420.336 66.8239 420.141 67.214C419.946 67.6042 419.625 67.9944 419.179 68.3846C418.733 68.7747 418.253 68.9629 417.737 68.9489C417.082 68.9489 416.608 68.7608 416.316 68.3846C416.023 68.0083 415.877 67.6182 415.877 67.214C415.877 66.9493 416.128 66.1132 416.629 64.7058C417.131 63.2983 417.389 62.2393 417.403 61.5286C417.403 60.7065 417.096 60.2954 416.483 60.2954H416.379C415.18 60.2954 414.17 60.9991 413.348 62.4065L413.201 62.6573L412.512 65.4583C412.052 67.2837 411.787 68.2661 411.717 68.4055C411.536 68.7817 411.237 68.9698 410.818 68.9698C410.637 68.9698 410.491 68.928 410.38 68.8444C410.268 68.7608 410.191 68.6772 410.15 68.5936C410.108 68.51 410.094 68.4403 410.108 68.3846C410.108 68.2034 410.373 67.0677 410.902 64.9775C411.432 62.8873 411.71 61.7516 411.738 61.5704C411.752 61.5008 411.759 61.3405 411.759 61.0897C411.759 60.5462 411.592 60.2745 411.257 60.2745C410.728 60.2745 410.289 60.9712 409.941 62.3647C409.857 62.6434 409.815 62.7897 409.815 62.8037C409.787 62.8873 409.655 62.9291 409.418 62.9291H409.125C409.042 62.8455 409 62.7828 409 62.741Z" fill="#D9EBFF"/>
<path d="M427.935 71.8876C427.758 71.858 427.122 71.8433 426.029 71.8433C424.886 71.8433 424.226 71.858 424.048 71.8876H423.915V71.2078H424.373C424.57 71.2078 424.703 71.2078 424.772 71.2078C424.841 71.2078 424.925 71.198 425.024 71.1783C425.122 71.1586 425.191 71.1339 425.231 71.1044C425.27 71.0748 425.304 71.0354 425.334 70.9862C425.344 70.9664 425.349 70.7004 425.349 70.1881V69.4492H421.521V68.7695L423.753 65.3558C425.26 63.0701 426.024 61.9224 426.043 61.9125C426.063 61.8928 426.166 61.883 426.354 61.883H426.62L426.708 61.9716V68.7695H428.068V69.4492H426.708V70.2029C426.708 70.6069 426.708 70.8433 426.708 70.9123C426.708 70.9812 426.738 71.0403 426.797 71.0896C426.876 71.1586 427.157 71.198 427.639 71.2078H428.068V71.8876H427.935ZM425.437 68.7695V63.8336L422.201 68.7547L423.812 68.7695H425.437Z" fill="#D9EBFF"/>
<path d="M409 161.741C409.014 161.657 409.035 161.546 409.063 161.407C409.091 161.267 409.174 161.002 409.314 160.612C409.453 160.222 409.592 159.895 409.732 159.63C409.871 159.365 410.101 159.107 410.421 158.856C410.742 158.606 411.062 158.487 411.383 158.501C411.885 158.501 412.303 158.627 412.637 158.877C412.971 159.128 413.18 159.365 413.264 159.588C413.348 159.811 413.389 159.957 413.389 160.027C413.389 160.055 413.396 160.069 413.41 160.069L413.64 159.839C414.49 158.947 415.459 158.501 416.546 158.501C417.298 158.501 417.904 158.689 418.364 159.065C418.824 159.442 419.061 159.992 419.075 160.717C419.089 161.441 418.824 162.535 418.281 163.998C417.737 165.462 417.472 166.346 417.486 166.653C417.486 167.015 417.605 167.196 417.842 167.196C417.925 167.196 417.988 167.189 418.03 167.176C418.434 167.106 418.796 166.841 419.117 166.381C419.437 165.921 419.681 165.364 419.848 164.709C419.876 164.598 420.016 164.542 420.266 164.542C420.545 164.542 420.684 164.598 420.684 164.709C420.684 164.723 420.657 164.828 420.601 165.023C420.489 165.427 420.336 165.824 420.141 166.214C419.946 166.604 419.625 166.994 419.179 167.385C418.733 167.775 418.253 167.963 417.737 167.949C417.082 167.949 416.608 167.761 416.316 167.385C416.023 167.008 415.877 166.618 415.877 166.214C415.877 165.949 416.128 165.113 416.629 163.706C417.131 162.298 417.389 161.239 417.403 160.529C417.403 159.706 417.096 159.295 416.483 159.295H416.379C415.18 159.295 414.17 159.999 413.348 161.407L413.201 161.657L412.512 164.458C412.052 166.284 411.787 167.266 411.717 167.405C411.536 167.782 411.237 167.97 410.818 167.97C410.637 167.97 410.491 167.928 410.38 167.844C410.268 167.761 410.191 167.677 410.15 167.594C410.108 167.51 410.094 167.44 410.108 167.385C410.108 167.203 410.373 166.068 410.902 163.977C411.432 161.887 411.71 160.752 411.738 160.57C411.752 160.501 411.759 160.341 411.759 160.09C411.759 159.546 411.592 159.274 411.257 159.274C410.728 159.274 410.289 159.971 409.941 161.365C409.857 161.643 409.815 161.79 409.815 161.804C409.787 161.887 409.655 161.929 409.418 161.929H409.125C409.042 161.845 409 161.783 409 161.741Z" fill="#D9EBFF"/>
<path d="M423.531 168.567C423.531 168.804 423.452 169.001 423.295 169.159C423.137 169.316 422.945 169.395 422.718 169.395H422.615C423.068 170.173 423.669 170.562 424.418 170.562C425.107 170.562 425.61 170.267 425.925 169.676C426.112 169.351 426.206 168.72 426.206 167.784C426.206 166.769 426.073 166.085 425.807 165.73C425.551 165.405 425.265 165.242 424.95 165.242H424.861C424.093 165.242 423.511 165.577 423.117 166.247C423.078 166.316 423.043 166.356 423.014 166.366C422.984 166.375 422.91 166.385 422.792 166.395C422.625 166.395 422.531 166.366 422.511 166.306C422.492 166.267 422.482 165.405 422.482 163.72V161.814C422.482 161.321 422.506 161.075 422.556 161.075C422.575 161.055 422.595 161.046 422.615 161.046C422.625 161.046 422.728 161.085 422.925 161.164C423.122 161.243 423.393 161.321 423.738 161.4C424.083 161.479 424.452 161.518 424.846 161.518C425.546 161.518 426.216 161.38 426.856 161.105C426.935 161.065 426.999 161.046 427.048 161.046C427.127 161.046 427.166 161.134 427.166 161.312V161.504C426.359 162.459 425.349 162.937 424.137 162.937C423.832 162.937 423.556 162.908 423.309 162.848L423.162 162.819V165.361C423.349 165.223 423.497 165.114 423.605 165.036C423.713 164.957 423.891 164.878 424.137 164.799C424.383 164.72 424.634 164.681 424.891 164.681C425.689 164.681 426.364 165.001 426.915 165.641C427.467 166.282 427.743 167.04 427.743 167.917C427.743 168.824 427.428 169.597 426.797 170.237C426.166 170.878 425.398 171.203 424.492 171.213C423.694 171.213 423.053 170.947 422.571 170.415C422.088 169.883 421.846 169.282 421.846 168.612C421.846 168.375 421.901 168.188 422.009 168.05C422.117 167.912 422.231 167.824 422.349 167.784C422.467 167.745 422.58 167.725 422.689 167.725C422.935 167.725 423.137 167.809 423.295 167.976C423.452 168.144 423.531 168.341 423.531 168.567Z" fill="#D9EBFF"/>
<path d="M271 161.741C271.014 161.657 271.035 161.546 271.063 161.407C271.091 161.267 271.174 161.002 271.314 160.612C271.453 160.222 271.592 159.895 271.732 159.63C271.871 159.365 272.101 159.107 272.421 158.856C272.742 158.606 273.062 158.487 273.383 158.501C273.885 158.501 274.303 158.627 274.637 158.877C274.971 159.128 275.18 159.365 275.264 159.588C275.348 159.811 275.389 159.957 275.389 160.027C275.389 160.055 275.396 160.069 275.41 160.069L275.64 159.839C276.49 158.947 277.459 158.501 278.546 158.501C279.298 158.501 279.904 158.689 280.364 159.065C280.824 159.442 281.061 159.992 281.075 160.717C281.089 161.441 280.824 162.535 280.281 163.998C279.737 165.462 279.472 166.346 279.486 166.653C279.486 167.015 279.605 167.196 279.842 167.196C279.925 167.196 279.988 167.189 280.03 167.176C280.434 167.106 280.796 166.841 281.117 166.381C281.437 165.921 281.681 165.364 281.848 164.709C281.876 164.598 282.016 164.542 282.266 164.542C282.545 164.542 282.684 164.598 282.684 164.709C282.684 164.723 282.657 164.828 282.601 165.023C282.489 165.427 282.336 165.824 282.141 166.214C281.946 166.604 281.625 166.994 281.179 167.385C280.733 167.775 280.253 167.963 279.737 167.949C279.082 167.949 278.608 167.761 278.316 167.385C278.023 167.008 277.877 166.618 277.877 166.214C277.877 165.949 278.128 165.113 278.629 163.706C279.131 162.298 279.389 161.239 279.403 160.529C279.403 159.706 279.096 159.295 278.483 159.295H278.379C277.18 159.295 276.17 159.999 275.348 161.407L275.201 161.657L274.512 164.458C274.052 166.284 273.787 167.266 273.717 167.405C273.536 167.782 273.237 167.97 272.818 167.97C272.637 167.97 272.491 167.928 272.38 167.844C272.268 167.761 272.191 167.677 272.15 167.594C272.108 167.51 272.094 167.44 272.108 167.385C272.108 167.203 272.373 166.068 272.902 163.977C273.432 161.887 273.71 160.752 273.738 160.57C273.752 160.501 273.759 160.341 273.759 160.09C273.759 159.546 273.592 159.274 273.257 159.274C272.728 159.274 272.289 159.971 271.941 161.365C271.857 161.643 271.815 161.79 271.815 161.804C271.787 161.887 271.655 161.929 271.418 161.929H271.125C271.042 161.845 271 161.783 271 161.741Z" fill="#D9EBFF"/>
<path d="M283.728 166.262C283.728 164.656 284.127 163.385 284.925 162.449C285.723 161.513 286.61 161.046 287.585 161.046C288.265 161.046 288.753 161.223 289.048 161.578C289.344 161.932 289.492 162.326 289.492 162.76C289.492 163.006 289.423 163.203 289.285 163.351C289.147 163.499 288.955 163.573 288.708 163.573C288.482 163.573 288.295 163.504 288.147 163.366C287.999 163.228 287.925 163.036 287.925 162.789C287.925 162.356 288.157 162.095 288.62 162.006C288.403 161.789 288.098 161.666 287.703 161.637C287.004 161.637 286.428 161.932 285.974 162.523C285.511 163.174 285.28 164.169 285.28 165.508L285.295 165.568C285.344 165.508 285.383 165.444 285.413 165.375C285.817 164.784 286.344 164.489 286.994 164.489H287.053C287.506 164.489 287.905 164.582 288.25 164.77C288.487 164.907 288.723 165.105 288.96 165.361C289.196 165.617 289.388 165.898 289.536 166.203C289.743 166.686 289.846 167.213 289.846 167.784V168.05C289.846 168.277 289.822 168.489 289.772 168.686C289.664 169.267 289.349 169.833 288.827 170.385C288.304 170.937 287.644 171.213 286.846 171.213C286.57 171.213 286.304 171.173 286.048 171.094C285.792 171.016 285.516 170.868 285.221 170.651C284.925 170.434 284.674 170.144 284.467 169.779C284.26 169.415 284.083 168.937 283.935 168.346C283.787 167.755 283.718 167.06 283.728 166.262ZM286.905 165.021C286.61 165.021 286.354 165.105 286.137 165.272C285.92 165.439 285.753 165.661 285.635 165.937C285.516 166.213 285.433 166.494 285.383 166.779C285.334 167.065 285.304 167.37 285.295 167.696C285.295 168.513 285.354 169.099 285.472 169.454C285.59 169.809 285.777 170.095 286.034 170.311C286.27 170.489 286.531 170.577 286.817 170.577C287.319 170.577 287.703 170.39 287.969 170.016C288.098 169.838 288.186 169.617 288.235 169.351C288.285 169.085 288.309 168.567 288.309 167.799C288.309 167.011 288.285 166.484 288.235 166.218C288.186 165.952 288.098 165.73 287.969 165.553C287.703 165.198 287.349 165.021 286.905 165.021Z" fill="#D9EBFF"/>
<path d="M271 62.741C271.014 62.6573 271.035 62.5459 271.063 62.4065C271.091 62.2672 271.174 62.0024 271.314 61.6122C271.453 61.2221 271.592 60.8946 271.732 60.6298C271.871 60.3651 272.101 60.1073 272.421 59.8564C272.742 59.6056 273.062 59.4872 273.383 59.5011C273.885 59.5011 274.303 59.6265 274.637 59.8773C274.971 60.1282 275.18 60.3651 275.264 60.588C275.348 60.811 275.389 60.9573 275.389 61.027C275.389 61.0548 275.396 61.0688 275.41 61.0688L275.64 60.8388C276.49 59.947 277.459 59.5011 278.546 59.5011C279.298 59.5011 279.904 59.6892 280.364 60.0655C280.824 60.4417 281.061 60.9921 281.075 61.7167C281.089 62.4414 280.824 63.5352 280.281 64.9984C279.737 66.4616 279.472 67.3464 279.486 67.653C279.486 68.0153 279.605 68.1964 279.842 68.1964C279.925 68.1964 279.988 68.1895 280.03 68.1755C280.434 68.1059 280.796 67.8411 281.117 67.3813C281.437 66.9214 281.681 66.364 281.848 65.7091C281.876 65.5976 282.015 65.5419 282.266 65.5419C282.545 65.5419 282.684 65.5976 282.684 65.7091C282.684 65.723 282.657 65.8275 282.601 66.0226C282.489 66.4267 282.336 66.8239 282.141 67.214C281.946 67.6042 281.625 67.9944 281.179 68.3846C280.733 68.7747 280.253 68.9629 279.737 68.9489C279.082 68.9489 278.608 68.7608 278.316 68.3846C278.023 68.0083 277.877 67.6182 277.877 67.214C277.877 66.9493 278.128 66.1132 278.629 64.7058C279.131 63.2983 279.389 62.2393 279.403 61.5286C279.403 60.7065 279.096 60.2954 278.483 60.2954H278.379C277.18 60.2954 276.17 60.9991 275.348 62.4065L275.201 62.6573L274.512 65.4583C274.052 67.2837 273.787 68.2661 273.717 68.4055C273.536 68.7817 273.237 68.9698 272.818 68.9698C272.637 68.9698 272.491 68.928 272.38 68.8444C272.268 68.7608 272.191 68.6772 272.15 68.5936C272.108 68.51 272.094 68.4403 272.108 68.3846C272.108 68.2034 272.373 67.0677 272.902 64.9775C273.432 62.8873 273.71 61.7516 273.738 61.5704C273.752 61.5008 273.759 61.3405 273.759 61.0897C273.759 60.5462 273.592 60.2745 273.257 60.2745C272.728 60.2745 272.289 60.9712 271.941 62.3647C271.857 62.6434 271.815 62.7897 271.815 62.8037C271.787 62.8873 271.655 62.9291 271.418 62.9291H271.125C271.042 62.8455 271 62.7828 271 62.741Z" fill="#D9EBFF"/>
<path d="M283.92 65.1193C283.93 65.0996 284.014 64.5627 284.172 63.5085L284.408 61.9273C284.408 61.9076 284.506 61.8977 284.704 61.8977H284.999V61.9568C284.999 62.0554 285.073 62.1391 285.221 62.2081C285.369 62.277 285.625 62.3214 285.989 62.3411C286.354 62.3608 287.186 62.3706 288.487 62.3706H290.275V62.947L289.27 64.3213C289.181 64.4395 289.033 64.6366 288.827 64.9124C288.62 65.1883 288.487 65.3705 288.428 65.4592C288.368 65.5479 288.265 65.7055 288.117 65.9321C287.969 66.1587 287.871 66.336 287.822 66.4641C287.772 66.5922 287.703 66.7744 287.615 67.0109C287.526 67.2473 287.462 67.4739 287.423 67.6907C287.383 67.9074 287.344 68.1734 287.304 68.4887C287.265 68.8039 287.235 69.1389 287.216 69.4936C287.196 69.8483 287.181 70.2522 287.171 70.7054C287.171 70.8433 287.171 70.9812 287.171 71.1192C287.171 71.2571 287.166 71.3753 287.157 71.4738V71.6068C287.117 71.7743 287.024 71.9172 286.876 72.0354C286.728 72.1536 286.561 72.2127 286.373 72.2127C286.265 72.2127 286.162 72.1979 286.063 72.1684C285.965 72.1388 285.861 72.0452 285.753 71.8876C285.644 71.73 285.59 71.5329 285.59 71.2965C285.59 69.7399 286.068 68.1242 287.024 66.4493C287.221 66.1341 287.634 65.538 288.265 64.6612L288.945 63.7302H287.57C285.856 63.7302 284.955 63.7598 284.866 63.8189C284.807 63.8484 284.753 63.9666 284.704 64.1735C284.654 64.3804 284.605 64.5922 284.556 64.809L284.511 65.1193V65.1637H283.92V65.1193Z" fill="#D9EBFF"/>
</svg>
