<svg width="700" height="268" viewBox="0 0 700 268" fill="none" xmlns="http://www.w3.org/2000/svg">
<rect width="700" height="267" transform="translate(0 0.5)" fill="#0A0D12"/>
<path opacity="0.5" d="M400 106.5L300 106.5L300 206.5L400 206.5L400 106.5ZM400 106.5L449.5 57M250 256.5H450V56.5H250L250 256.5Z" stroke="#B3BFD8" stroke-width="2"/>
<path d="M250 256.5H450V56.5" stroke="#B3BFD8" stroke-width="2"/>
<circle cx="250" cy="56.5" r="5" fill="black" stroke="#D9EBFF" stroke-width="2"/>
<circle cx="299.656" cy="106.157" r="5" transform="rotate(45 299.656 106.157)" fill="black" stroke="#D9EBFF" stroke-width="2"/>
<circle cx="450" cy="56.5" r="5" fill="black" stroke="#D9EBFF" stroke-width="2"/>
<circle cx="399.656" cy="106.157" r="5" transform="rotate(45 399.656 106.157)" fill="black" stroke="#D9EBFF" stroke-width="2"/>
<circle cx="250" cy="256.5" r="5" fill="black" stroke="#D9EBFF" stroke-width="2"/>
<circle cx="299.656" cy="206.157" r="5" transform="rotate(45 299.656 206.157)" fill="black" stroke="#D9EBFF" stroke-width="2"/>
<circle cx="450" cy="256.5" r="5" fill="black" stroke="#D9EBFF" stroke-width="2"/>
<circle cx="399.656" cy="206.157" r="5" transform="rotate(45 399.656 206.157)" fill="black" stroke="#D9EBFF" stroke-width="2"/>
<path d="M431 42.3294C431 40.8104 431.599 39.4446 432.798 38.2322C433.996 37.0197 435.292 36.4135 436.686 36.4135C437.466 36.4135 438.08 36.5808 438.525 36.9152C438.971 37.2497 439.201 37.6887 439.215 38.2322C439.215 38.6363 439.083 38.9778 438.818 39.2565C438.553 39.5352 438.219 39.6815 437.815 39.6955C437.55 39.6955 437.341 39.6258 437.188 39.4864C437.034 39.3471 436.958 39.138 436.958 38.8593C436.958 38.5806 437.034 38.3437 437.188 38.1486C437.341 37.9535 437.494 37.8071 437.648 37.7096C437.801 37.612 437.898 37.5702 437.94 37.5842H437.961C437.961 37.5563 437.919 37.5145 437.836 37.4587C437.752 37.403 437.606 37.3472 437.397 37.2915C437.188 37.2358 436.951 37.2079 436.686 37.2079C436.268 37.2079 435.871 37.3054 435.494 37.5005C435.202 37.626 434.902 37.842 434.596 38.1486C433.982 38.7618 433.536 39.6258 433.258 40.7407C432.979 41.8556 432.833 42.6639 432.819 43.1656C432.819 43.8066 433 44.2874 433.362 44.6079C433.669 44.9424 434.073 45.1096 434.575 45.1096H434.658C436.219 45.1096 437.508 44.5174 438.525 43.3328C438.651 43.1934 438.735 43.1238 438.776 43.1238C438.832 43.1238 438.923 43.1865 439.048 43.3119C439.174 43.4373 439.243 43.5349 439.257 43.6045C439.271 43.6742 439.208 43.7787 439.069 43.9181C438.93 44.0575 438.728 44.2526 438.463 44.5034C438.198 44.7543 437.884 44.9633 437.522 45.1305C437.16 45.2978 436.714 45.472 436.184 45.6532C435.655 45.8343 435.097 45.911 434.512 45.8831C433.467 45.8831 432.624 45.5486 431.982 44.8797C431.341 44.2108 431.014 43.3607 431 42.3294Z" fill="#D9EBFF"/>
<path d="M439.779 39.6534C439.779 39.5419 439.842 39.3259 439.967 39.0054C440.093 38.6848 440.267 38.3225 440.49 37.9183C440.713 37.5142 441.02 37.1658 441.41 36.8731C441.8 36.5805 442.211 36.4272 442.643 36.4132C443.284 36.4132 443.765 36.5874 444.086 36.9358C444.406 37.2842 444.566 37.6954 444.566 38.1692C444.566 38.42 444.329 39.2005 443.856 40.5104C443.382 41.8204 443.145 42.8029 443.145 43.4579C443.145 44.0572 443.242 44.4753 443.438 44.7122C443.633 44.9491 443.925 45.0745 444.315 45.0885C444.706 45.1024 445.075 44.9839 445.423 44.7331C445.772 44.4822 446.03 44.2453 446.197 44.0223L446.427 43.667C446.455 43.6112 446.719 42.5521 447.221 40.4895C447.639 38.8172 447.89 37.8417 447.974 37.563C448.057 37.2842 448.155 37.0822 448.266 36.9567C448.503 36.7477 448.754 36.6432 449.019 36.6432C449.256 36.6432 449.43 36.7129 449.542 36.8522C449.653 36.9916 449.709 37.124 449.709 37.2494L448.12 43.8969C448.106 43.9666 448.099 44.0781 448.099 44.2314C448.099 44.5798 448.148 44.8097 448.245 44.9212C448.343 45.0327 448.489 45.0954 448.684 45.1094C448.991 45.0676 449.235 44.8515 449.416 44.4613C449.597 44.0711 449.806 43.4579 450.043 42.6218C450.071 42.5103 450.21 42.4545 450.461 42.4545C450.726 42.4545 450.858 42.5172 450.858 42.6427C450.845 42.7124 450.831 42.8099 450.817 42.9353C450.803 43.0608 450.74 43.2837 450.629 43.6043C450.517 43.9248 450.399 44.2244 450.273 44.5031C450.148 44.7819 449.974 45.0466 449.751 45.2975C449.528 45.5483 449.277 45.7225 448.998 45.8201C448.887 45.848 448.719 45.8619 448.496 45.8619C447.577 45.8619 446.942 45.4717 446.594 44.6913C446.566 44.7052 446.49 44.7749 446.364 44.9003C446.239 45.0257 446.113 45.1303 445.988 45.2139C445.862 45.2975 445.709 45.402 445.528 45.5274C445.347 45.6529 445.145 45.7365 444.922 45.7783C444.699 45.8201 444.462 45.8549 444.211 45.8828C443.598 45.8828 443.054 45.7574 442.58 45.5065C441.856 45.0745 441.493 44.3359 441.493 43.2907C441.493 42.4963 441.737 41.4581 442.225 40.176C442.713 38.8939 442.957 38.0786 442.957 37.7302C442.957 37.7163 442.957 37.7023 442.957 37.6884C442.957 37.563 442.957 37.4793 442.957 37.4375C442.957 37.3957 442.929 37.347 442.873 37.2912C442.817 37.2355 442.741 37.2076 442.643 37.2076H442.56C442.239 37.2076 441.946 37.34 441.682 37.6048C441.417 37.8696 441.208 38.1552 441.054 38.4618C440.901 38.7684 440.783 39.0611 440.699 39.3398C440.615 39.6185 440.56 39.7718 440.532 39.7997C440.504 39.8276 440.392 39.8415 440.197 39.8415H439.905C439.821 39.7579 439.779 39.6952 439.779 39.6534Z" fill="#D9EBFF"/>
<path d="M451.758 39.6534C451.772 39.6116 451.786 39.5558 451.8 39.4861C451.814 39.4165 451.848 39.2632 451.904 39.0263C451.96 38.7893 452.03 38.5733 452.113 38.3782C452.197 38.1831 452.301 37.9532 452.427 37.6884C452.552 37.4236 452.692 37.2146 452.845 37.0613C452.998 36.908 453.179 36.7547 453.388 36.6014C453.597 36.4481 453.827 36.3854 454.078 36.4132C454.482 36.4132 454.838 36.4969 455.144 36.6641C455.451 36.8313 455.667 36.9846 455.792 37.124C455.918 37.2633 455.994 37.4027 456.022 37.5421C456.05 37.6257 456.071 37.6675 456.085 37.6675C456.099 37.6675 456.155 37.6187 456.252 37.5212C456.921 36.7965 457.695 36.4341 458.573 36.4341H458.635C459.304 36.4341 459.806 36.7198 460.14 37.2912C460.252 37.556 460.308 37.8138 460.308 38.0647C460.308 38.4827 460.217 38.8172 460.036 39.0681C459.855 39.3189 459.674 39.4792 459.492 39.5489C459.311 39.6185 459.137 39.6464 458.97 39.6325C458.691 39.6325 458.468 39.5558 458.301 39.4025C458.134 39.2492 458.05 39.0472 458.05 38.7963C458.05 38.1274 458.44 37.6814 459.221 37.4584C458.914 37.2773 458.663 37.1867 458.468 37.1867C457.688 37.1867 456.97 37.7023 456.315 38.7336C456.176 38.9566 456.071 39.1865 456.001 39.4234C455.932 39.6603 455.695 40.5871 455.291 42.2037C454.817 44.1547 454.545 45.193 454.475 45.3184C454.294 45.6947 453.995 45.8828 453.576 45.8828C453.395 45.8828 453.249 45.841 453.137 45.7574C453.026 45.6738 452.949 45.5902 452.908 45.5065C452.866 45.4229 452.852 45.3532 452.866 45.2975C452.866 45.1163 453.144 43.9178 453.702 41.702C454.259 39.4861 454.538 38.2528 454.538 38.002C454.538 37.4584 454.357 37.1867 453.995 37.1867C453.702 37.1867 453.451 37.3818 453.242 37.772C453.033 38.1622 452.866 38.5873 452.74 39.0472C452.615 39.5071 452.538 39.7579 452.51 39.7997C452.482 39.8276 452.371 39.8415 452.176 39.8415H451.883C451.8 39.7579 451.758 39.6952 451.758 39.6534Z" fill="#D9EBFF"/>
<path d="M461.186 39.6534C461.199 39.6116 461.213 39.5558 461.227 39.4861C461.241 39.4165 461.276 39.2632 461.332 39.0263C461.388 38.7893 461.457 38.5733 461.541 38.3782C461.625 38.1831 461.729 37.9532 461.854 37.6884C461.98 37.4236 462.119 37.2146 462.273 37.0613C462.426 36.908 462.607 36.7547 462.816 36.6014C463.025 36.4481 463.255 36.3854 463.506 36.4132C463.91 36.4132 464.265 36.4969 464.572 36.6641C464.879 36.8313 465.095 36.9846 465.22 37.124C465.345 37.2633 465.422 37.4027 465.45 37.5421C465.478 37.6257 465.499 37.6675 465.513 37.6675C465.527 37.6675 465.582 37.6187 465.68 37.5212C466.349 36.7965 467.122 36.4341 468 36.4341H468.063C468.732 36.4341 469.234 36.7198 469.568 37.2912C469.68 37.556 469.735 37.8138 469.735 38.0647C469.735 38.4827 469.645 38.8172 469.464 39.0681C469.282 39.3189 469.101 39.4792 468.92 39.5489C468.739 39.6185 468.565 39.6464 468.397 39.6325C468.119 39.6325 467.896 39.5558 467.729 39.4025C467.561 39.2492 467.478 39.0472 467.478 38.7963C467.478 38.1274 467.868 37.6814 468.648 37.4584C468.342 37.2773 468.091 37.1867 467.896 37.1867C467.115 37.1867 466.398 37.7023 465.743 38.7336C465.603 38.9566 465.499 39.1865 465.429 39.4234C465.359 39.6603 465.122 40.5871 464.718 42.2037C464.245 44.1547 463.973 45.193 463.903 45.3184C463.722 45.6947 463.422 45.8828 463.004 45.8828C462.823 45.8828 462.677 45.841 462.565 45.7574C462.454 45.6738 462.377 45.5902 462.335 45.5065C462.293 45.4229 462.28 45.3532 462.293 45.2975C462.293 45.1163 462.572 43.9178 463.13 41.702C463.687 39.4861 463.966 38.2528 463.966 38.002C463.966 37.4584 463.785 37.1867 463.422 37.1867C463.13 37.1867 462.879 37.3818 462.67 37.772C462.461 38.1622 462.293 38.5873 462.168 39.0472C462.043 39.5071 461.966 39.7579 461.938 39.7997C461.91 39.8276 461.799 39.8415 461.604 39.8415H461.311C461.227 39.7579 461.186 39.6952 461.186 39.6534Z" fill="#D9EBFF"/>
<path d="M450 106.5C477.614 106.5 500 84.1142 500 56.5C500 28.8858 477.614 6.50001 450 6.50001C422.386 6.50001 400 28.8858 400 56.5C400 70.1263 405.451 82.4794 414.291 91.498M414.291 91.498L400 91.498M414.291 91.498L414.291 76.8125" stroke="#B3BFD8" stroke-width="2" stroke-linecap="round" stroke-linejoin="round"/>
</svg>
