<svg width="700" height="221" viewBox="0 0 700 221" fill="none" xmlns="http://www.w3.org/2000/svg">
<rect width="700" height="220" transform="translate(0 0.5)" fill="#0A0D12"/>
<path opacity="0.5" d="M400 61.5L300 61.5L300 161.5L400 161.5L400 61.5ZM400 61.5L449.5 12M250 211.5H450V11.5H250L250 211.5Z" stroke="#B3BFD8" stroke-width="2"/>
<path d="M250 211.5H450V11.5M400 161.5L400 61.5L449.5 12" stroke="#B3BFD8" stroke-width="2"/>
<circle cx="250" cy="11.5" r="5" fill="black" stroke="#D9EBFF" stroke-width="2"/>
<circle cx="299.656" cy="61.1569" r="5" transform="rotate(45 299.656 61.1569)" fill="black" stroke="#D9EBFF" stroke-width="2"/>
<circle cx="450" cy="11.5" r="5" fill="black" stroke="#D9EBFF" stroke-width="2"/>
<circle cx="399.656" cy="61.1569" r="5" transform="rotate(45 399.656 61.1569)" fill="black" stroke="#D9EBFF" stroke-width="2"/>
<circle cx="250" cy="211.5" r="5" fill="black" stroke="#D9EBFF" stroke-width="2"/>
<circle cx="299.656" cy="161.157" r="5" transform="rotate(45 299.656 161.157)" fill="black" stroke="#D9EBFF" stroke-width="2"/>
<circle cx="450" cy="211.5" r="5" fill="black" stroke="#D9EBFF" stroke-width="2"/>
<circle cx="399.656" cy="161.157" r="5" transform="rotate(45 399.656 161.157)" fill="black" stroke="#D9EBFF" stroke-width="2"/>
<g clip-path="url(#clip0_219_244)">
<path d="M380.711 177.329C380.711 175.81 381.31 174.445 382.509 173.232C383.707 172.02 385.003 171.414 386.397 171.414C387.177 171.414 387.79 171.581 388.236 171.915C388.682 172.25 388.912 172.689 388.926 173.232C388.926 173.636 388.794 173.978 388.529 174.256C388.264 174.535 387.93 174.682 387.526 174.695C387.261 174.695 387.052 174.626 386.899 174.486C386.745 174.347 386.669 174.138 386.669 173.859C386.669 173.581 386.745 173.344 386.899 173.149C387.052 172.953 387.205 172.807 387.358 172.71C387.512 172.612 387.609 172.57 387.651 172.584H387.672C387.672 172.556 387.63 172.514 387.547 172.459C387.463 172.403 387.317 172.347 387.108 172.291C386.899 172.236 386.662 172.208 386.397 172.208C385.979 172.208 385.582 172.305 385.205 172.501C384.913 172.626 384.613 172.842 384.306 173.149C383.693 173.762 383.247 174.626 382.969 175.741C382.69 176.856 382.544 177.664 382.53 178.166C382.53 178.807 382.711 179.287 383.073 179.608C383.38 179.942 383.784 180.11 384.286 180.11H384.369C385.93 180.11 387.219 179.517 388.236 178.333C388.362 178.193 388.445 178.124 388.487 178.124C388.543 178.124 388.634 178.186 388.759 178.312C388.884 178.437 388.954 178.535 388.968 178.605C388.982 178.674 388.919 178.779 388.78 178.918C388.641 179.057 388.439 179.253 388.174 179.503C387.909 179.754 387.595 179.963 387.233 180.131C386.871 180.298 386.425 180.472 385.895 180.653C385.366 180.834 384.808 180.911 384.223 180.883C383.178 180.883 382.334 180.549 381.693 179.88C381.052 179.211 380.725 178.361 380.711 177.329Z" fill="#D9EBFF"/>
<path d="M389.49 174.653C389.49 174.542 389.553 174.326 389.678 174.005C389.804 173.685 389.978 173.322 390.201 172.918C390.424 172.514 390.731 172.166 391.121 171.873C391.511 171.58 391.922 171.427 392.354 171.413C392.995 171.413 393.476 171.587 393.796 171.936C394.117 172.284 394.277 172.695 394.277 173.169C394.277 173.42 394.04 174.2 393.567 175.51C393.093 176.82 392.856 177.803 392.856 178.458C392.856 179.057 392.953 179.475 393.148 179.712C393.344 179.949 393.636 180.075 394.026 180.088C394.417 180.102 394.786 179.984 395.134 179.733C395.483 179.482 395.741 179.245 395.908 179.022L396.138 178.667C396.166 178.611 396.43 177.552 396.932 175.49C397.35 173.817 397.601 172.842 397.685 172.563C397.768 172.284 397.866 172.082 397.977 171.957C398.214 171.748 398.465 171.643 398.73 171.643C398.967 171.643 399.141 171.713 399.252 171.852C399.364 171.992 399.42 172.124 399.42 172.249L397.831 178.897C397.817 178.967 397.81 179.078 397.81 179.231C397.81 179.58 397.859 179.81 397.956 179.921C398.054 180.033 398.2 180.095 398.395 180.109C398.702 180.068 398.946 179.852 399.127 179.461C399.308 179.071 399.517 178.458 399.754 177.622C399.782 177.51 399.921 177.455 400.172 177.455C400.437 177.455 400.569 177.517 400.569 177.643C400.555 177.712 400.542 177.81 400.528 177.935C400.514 178.061 400.451 178.284 400.339 178.604C400.228 178.925 400.11 179.224 399.984 179.503C399.859 179.782 399.684 180.047 399.462 180.297C399.239 180.548 398.988 180.723 398.709 180.82C398.597 180.848 398.43 180.862 398.207 180.862C397.287 180.862 396.653 180.472 396.305 179.691C396.277 179.705 396.2 179.775 396.075 179.9C395.95 180.026 395.824 180.13 395.699 180.214C395.573 180.297 395.42 180.402 395.239 180.527C395.058 180.653 394.856 180.736 394.633 180.778C394.41 180.82 394.173 180.855 393.922 180.883C393.309 180.883 392.765 180.757 392.291 180.507C391.567 180.075 391.204 179.336 391.204 178.291C391.204 177.496 391.448 176.458 391.936 175.176C392.424 173.894 392.668 173.079 392.668 172.73C392.668 172.716 392.668 172.702 392.668 172.688C392.668 172.563 392.668 172.479 392.668 172.438C392.668 172.396 392.64 172.347 392.584 172.291C392.528 172.235 392.452 172.208 392.354 172.208H392.27C391.95 172.208 391.657 172.34 391.393 172.605C391.128 172.87 390.919 173.155 390.765 173.462C390.612 173.768 390.494 174.061 390.41 174.34C390.326 174.619 390.271 174.772 390.243 174.8C390.215 174.828 390.103 174.842 389.908 174.842H389.616C389.532 174.758 389.49 174.695 389.49 174.653Z" fill="#D9EBFF"/>
<path d="M401.469 174.653C401.483 174.612 401.497 174.556 401.511 174.486C401.524 174.416 401.559 174.263 401.615 174.026C401.671 173.789 401.741 173.573 401.824 173.378C401.908 173.183 402.012 172.953 402.138 172.688C402.263 172.424 402.402 172.215 402.556 172.061C402.709 171.908 402.89 171.755 403.099 171.601C403.308 171.448 403.538 171.385 403.789 171.413C404.193 171.413 404.549 171.497 404.855 171.664C405.162 171.831 405.378 171.985 405.503 172.124C405.629 172.263 405.705 172.403 405.733 172.542C405.761 172.626 405.782 172.667 405.796 172.667C405.81 172.667 405.866 172.619 405.963 172.521C406.632 171.796 407.406 171.434 408.283 171.434H408.346C409.015 171.434 409.517 171.72 409.851 172.291C409.963 172.556 410.019 172.814 410.019 173.065C410.019 173.483 409.928 173.817 409.747 174.068C409.566 174.319 409.384 174.479 409.203 174.549C409.022 174.619 408.848 174.646 408.681 174.632C408.402 174.632 408.179 174.556 408.012 174.403C407.845 174.249 407.761 174.047 407.761 173.796C407.761 173.127 408.151 172.681 408.932 172.458C408.625 172.277 408.374 172.187 408.179 172.187C407.399 172.187 406.681 172.702 406.026 173.734C405.886 173.957 405.782 174.187 405.712 174.423C405.643 174.66 405.406 175.587 405.002 177.204C404.528 179.155 404.256 180.193 404.186 180.318C404.005 180.695 403.705 180.883 403.287 180.883C403.106 180.883 402.96 180.841 402.848 180.757C402.737 180.674 402.66 180.59 402.618 180.507C402.577 180.423 402.563 180.353 402.577 180.297C402.577 180.116 402.855 178.918 403.413 176.702C403.97 174.486 404.249 173.253 404.249 173.002C404.249 172.458 404.068 172.187 403.705 172.187C403.413 172.187 403.162 172.382 402.953 172.772C402.744 173.162 402.577 173.587 402.451 174.047C402.326 174.507 402.249 174.758 402.221 174.8C402.193 174.828 402.082 174.842 401.887 174.842H401.594C401.511 174.758 401.469 174.695 401.469 174.653Z" fill="#D9EBFF"/>
<path d="M410.896 174.653C410.91 174.612 410.924 174.556 410.938 174.486C410.952 174.416 410.987 174.263 411.043 174.026C411.099 173.789 411.168 173.573 411.252 173.378C411.335 173.183 411.44 172.953 411.565 172.688C411.691 172.424 411.83 172.215 411.983 172.061C412.137 171.908 412.318 171.755 412.527 171.601C412.736 171.448 412.966 171.385 413.217 171.413C413.621 171.413 413.976 171.497 414.283 171.664C414.59 171.831 414.806 171.985 414.931 172.124C415.056 172.263 415.133 172.403 415.161 172.542C415.189 172.626 415.21 172.667 415.224 172.667C415.238 172.667 415.293 172.619 415.391 172.521C416.06 171.796 416.833 171.434 417.711 171.434H417.774C418.443 171.434 418.945 171.72 419.279 172.291C419.391 172.556 419.446 172.814 419.446 173.065C419.446 173.483 419.356 173.817 419.175 174.068C418.993 174.319 418.812 174.479 418.631 174.549C418.45 174.619 418.276 174.646 418.108 174.632C417.83 174.632 417.607 174.556 417.439 174.403C417.272 174.249 417.189 174.047 417.189 173.796C417.189 173.127 417.579 172.681 418.359 172.458C418.053 172.277 417.802 172.187 417.607 172.187C416.826 172.187 416.109 172.702 415.454 173.734C415.314 173.957 415.21 174.187 415.14 174.423C415.07 174.66 414.833 175.587 414.429 177.204C413.955 179.155 413.684 180.193 413.614 180.318C413.433 180.695 413.133 180.883 412.715 180.883C412.534 180.883 412.388 180.841 412.276 180.757C412.165 180.674 412.088 180.59 412.046 180.507C412.004 180.423 411.99 180.353 412.004 180.297C412.004 180.116 412.283 178.918 412.841 176.702C413.398 174.486 413.677 173.253 413.677 173.002C413.677 172.458 413.496 172.187 413.133 172.187C412.841 172.187 412.59 172.382 412.381 172.772C412.172 173.162 412.004 173.587 411.879 174.047C411.754 174.507 411.677 174.758 411.649 174.8C411.621 174.828 411.51 174.842 411.315 174.842H411.022C410.938 174.758 410.896 174.695 410.896 174.653Z" fill="#D9EBFF"/>
</g>
<defs>
<clipPath id="clip0_219_244">
<rect width="39.906" height="13.419" fill="white" transform="translate(380 169.5)"/>
</clipPath>
</defs>
</svg>
