<svg width="700" height="276" viewBox="0 0 700 276" fill="none" xmlns="http://www.w3.org/2000/svg">
<rect width="700" height="275" transform="translate(0 0.5)" fill="#0A0D12"/>
<path d="M400 61.5L300 61.5L300 161.5L400 161.5L400 61.5ZM400 61.5L449.5 12M250 211.5H450V11.5H250L250 211.5Z" stroke="#B3BFD8" stroke-width="2"/>
<circle cx="250" cy="11.5" r="5" fill="black" stroke="#D9EBFF" stroke-width="2"/>
<circle cx="299.656" cy="61.1569" r="5" transform="rotate(45 299.656 61.1569)" fill="black" stroke="#D9EBFF" stroke-width="2"/>
<circle cx="450" cy="11.5" r="5" fill="black" stroke="#D9EBFF" stroke-width="2"/>
<circle cx="399.656" cy="61.1569" r="5" transform="rotate(45 399.656 61.1569)" fill="black" stroke="#D9EBFF" stroke-width="2"/>
<circle cx="250" cy="211.5" r="5" fill="black" stroke="#D9EBFF" stroke-width="2"/>
<circle cx="299.656" cy="161.157" r="5" transform="rotate(45 299.656 161.157)" fill="black" stroke="#D9EBFF" stroke-width="2"/>
<circle cx="450" cy="211.5" r="5" fill="black" stroke="#D9EBFF" stroke-width="2"/>
<circle cx="399.656" cy="161.157" r="5" transform="rotate(45 399.656 161.157)" fill="black" stroke="#D9EBFF" stroke-width="2"/>
<path d="M221 9.74095C221.014 9.65734 221.035 9.54587 221.063 9.40652C221.091 9.26717 221.174 9.00241 221.314 8.61223C221.453 8.22205 221.592 7.89459 221.732 7.62982C221.871 7.36506 222.101 7.10727 222.421 6.85644C222.742 6.60561 223.062 6.48717 223.383 6.5011C223.885 6.5011 224.303 6.62651 224.637 6.87734C224.971 7.12817 225.18 7.36506 225.264 7.58802C225.348 7.81098 225.389 7.95729 225.389 8.02697C225.389 8.05484 225.396 8.06877 225.41 8.06877L225.64 7.83885C226.49 6.94702 227.459 6.5011 228.546 6.5011C229.298 6.5011 229.904 6.68922 230.364 7.06546C230.824 7.4417 231.061 7.99213 231.075 8.71674C231.089 9.44135 230.824 10.5352 230.281 11.9984C229.737 13.4616 229.472 14.3464 229.486 14.653C229.486 15.0153 229.605 15.1964 229.842 15.1964C229.925 15.1964 229.988 15.1895 230.03 15.1755C230.434 15.1059 230.796 14.8411 231.117 14.3813C231.437 13.9214 231.681 13.364 231.848 12.7091C231.876 12.5976 232.016 12.5419 232.266 12.5419C232.545 12.5419 232.684 12.5976 232.684 12.7091C232.684 12.723 232.657 12.8275 232.601 13.0226C232.489 13.4267 232.336 13.8239 232.141 14.214C231.946 14.6042 231.625 14.9944 231.179 15.3846C230.733 15.7747 230.253 15.9629 229.737 15.9489C229.082 15.9489 228.608 15.7608 228.316 15.3846C228.023 15.0083 227.877 14.6182 227.877 14.214C227.877 13.9493 228.128 13.1132 228.629 11.7058C229.131 10.2983 229.389 9.2393 229.403 8.52862C229.403 7.70647 229.096 7.29539 228.483 7.29539H228.379C227.18 7.29539 226.17 7.9991 225.348 9.40652L225.201 9.65734L224.512 12.4583C224.052 14.2837 223.787 15.2661 223.717 15.4055C223.536 15.7817 223.237 15.9698 222.818 15.9698C222.637 15.9698 222.491 15.928 222.38 15.8444C222.268 15.7608 222.191 15.6772 222.15 15.5936C222.108 15.51 222.094 15.4403 222.108 15.3846C222.108 15.2034 222.373 14.0677 222.902 11.9775C223.432 9.88727 223.71 8.75158 223.738 8.57043C223.752 8.50075 223.759 8.3405 223.759 8.08967C223.759 7.54621 223.592 7.27448 223.257 7.27448C222.728 7.27448 222.289 7.97123 221.941 9.36471C221.857 9.64341 221.815 9.78973 221.815 9.80366C221.787 9.88727 221.655 9.92907 221.418 9.92907H221.125C221.042 9.84547 221 9.78276 221 9.74095Z" fill="#D9EBFF"/>
<path d="M234.526 10.2425C235.078 9.44452 235.832 9.04551 236.787 9.04551C237.26 9.04551 237.733 9.17359 238.206 9.42974C238.679 9.68589 239.063 10.1391 239.359 10.7893C239.723 11.607 239.905 12.7301 239.905 14.1587C239.905 15.6857 239.694 16.8532 239.27 17.661C239.073 18.0748 238.802 18.4049 238.457 18.6512C238.112 18.8975 237.812 19.0502 237.556 19.1093C237.3 19.1684 237.048 19.2029 236.802 19.2127C236.546 19.2127 236.29 19.1832 236.034 19.1241C235.777 19.0649 235.477 18.9073 235.132 18.6512C234.787 18.395 234.516 18.065 234.319 17.661C233.896 16.8532 233.684 15.6857 233.684 14.1587C233.684 12.4444 233.965 11.1391 234.526 10.2425ZM237.851 10.0652C237.556 9.74993 237.206 9.5923 236.802 9.5923C236.388 9.5923 236.034 9.74993 235.738 10.0652C235.492 10.3213 235.329 10.676 235.25 11.1292C235.171 11.5824 235.132 12.5282 235.132 13.9666C235.132 15.5232 235.171 16.5478 235.25 17.0404C235.329 17.533 235.506 17.9221 235.782 18.2078C236.058 18.5034 236.398 18.6512 236.802 18.6512C237.196 18.6512 237.531 18.5034 237.807 18.2078C238.093 17.9123 238.27 17.4985 238.339 16.9665C238.408 16.4345 238.447 15.4345 238.457 13.9666C238.457 12.538 238.418 11.5972 238.339 11.144C238.26 10.6908 238.098 10.3312 237.851 10.0652Z" fill="#D9EBFF"/>
<path d="M221 209.741C221.014 209.657 221.035 209.546 221.063 209.407C221.091 209.267 221.174 209.002 221.314 208.612C221.453 208.222 221.592 207.895 221.732 207.63C221.871 207.365 222.101 207.107 222.421 206.856C222.742 206.606 223.062 206.487 223.383 206.501C223.885 206.501 224.303 206.627 224.637 206.877C224.971 207.128 225.18 207.365 225.264 207.588C225.348 207.811 225.389 207.957 225.389 208.027C225.389 208.055 225.396 208.069 225.41 208.069L225.64 207.839C226.49 206.947 227.459 206.501 228.546 206.501C229.298 206.501 229.904 206.689 230.364 207.065C230.824 207.442 231.061 207.992 231.075 208.717C231.089 209.441 230.824 210.535 230.281 211.998C229.737 213.462 229.472 214.346 229.486 214.653C229.486 215.015 229.605 215.196 229.842 215.196C229.925 215.196 229.988 215.189 230.03 215.176C230.434 215.106 230.796 214.841 231.117 214.381C231.437 213.921 231.681 213.364 231.848 212.709C231.876 212.598 232.016 212.542 232.266 212.542C232.545 212.542 232.684 212.598 232.684 212.709C232.684 212.723 232.657 212.828 232.601 213.023C232.489 213.427 232.336 213.824 232.141 214.214C231.946 214.604 231.625 214.994 231.179 215.385C230.733 215.775 230.253 215.963 229.737 215.949C229.082 215.949 228.608 215.761 228.316 215.385C228.023 215.008 227.877 214.618 227.877 214.214C227.877 213.949 228.128 213.113 228.629 211.706C229.131 210.298 229.389 209.239 229.403 208.529C229.403 207.706 229.096 207.295 228.483 207.295H228.379C227.18 207.295 226.17 207.999 225.348 209.407L225.201 209.657L224.512 212.458C224.052 214.284 223.787 215.266 223.717 215.405C223.536 215.782 223.237 215.97 222.818 215.97C222.637 215.97 222.491 215.928 222.38 215.844C222.268 215.761 222.191 215.677 222.15 215.594C222.108 215.51 222.094 215.44 222.108 215.385C222.108 215.203 222.373 214.068 222.902 211.977C223.432 209.887 223.71 208.752 223.738 208.57C223.752 208.501 223.759 208.341 223.759 208.09C223.759 207.546 223.592 207.274 223.257 207.274C222.728 207.274 222.289 207.971 221.941 209.365C221.857 209.643 221.815 209.79 221.815 209.804C221.787 209.887 221.655 209.929 221.418 209.929H221.125C221.042 209.845 221 209.783 221 209.741Z" fill="#D9EBFF"/>
<path d="M236.255 210.346L236.063 210.42C235.925 210.469 235.728 210.518 235.472 210.568C235.216 210.617 234.93 210.651 234.615 210.671H234.334V209.991H234.615C235.078 209.972 235.506 209.898 235.901 209.77C236.295 209.642 236.57 209.523 236.728 209.415C236.886 209.307 237.024 209.198 237.142 209.09C237.162 209.06 237.221 209.046 237.319 209.046C237.408 209.046 237.492 209.075 237.57 209.134V213.553L237.585 217.986C237.654 218.055 237.713 218.099 237.763 218.119C237.812 218.139 237.93 218.159 238.117 218.178C238.304 218.198 238.61 218.208 239.033 218.208H239.418V218.888H239.255C239.048 218.858 238.265 218.843 236.905 218.843C235.566 218.843 234.792 218.858 234.585 218.888H234.408V218.208H234.792C235.009 218.208 235.196 218.208 235.354 218.208C235.511 218.208 235.635 218.203 235.723 218.193C235.812 218.183 235.891 218.168 235.96 218.149C236.029 218.129 236.068 218.119 236.078 218.119C236.088 218.119 236.117 218.095 236.167 218.045C236.216 217.996 236.245 217.976 236.255 217.986V210.346Z" fill="#D9EBFF"/>
<path d="M460 209.741C460.014 209.657 460.035 209.546 460.063 209.407C460.091 209.267 460.174 209.002 460.314 208.612C460.453 208.222 460.592 207.895 460.732 207.63C460.871 207.365 461.101 207.107 461.421 206.856C461.742 206.606 462.062 206.487 462.383 206.501C462.885 206.501 463.303 206.627 463.637 206.877C463.971 207.128 464.18 207.365 464.264 207.588C464.348 207.811 464.389 207.957 464.389 208.027C464.389 208.055 464.396 208.069 464.41 208.069L464.64 207.839C465.49 206.947 466.459 206.501 467.546 206.501C468.298 206.501 468.904 206.689 469.364 207.065C469.824 207.442 470.061 207.992 470.075 208.717C470.089 209.441 469.824 210.535 469.281 211.998C468.737 213.462 468.472 214.346 468.486 214.653C468.486 215.015 468.605 215.196 468.842 215.196C468.925 215.196 468.988 215.189 469.03 215.176C469.434 215.106 469.796 214.841 470.117 214.381C470.437 213.921 470.681 213.364 470.848 212.709C470.876 212.598 471.016 212.542 471.266 212.542C471.545 212.542 471.684 212.598 471.684 212.709C471.684 212.723 471.657 212.828 471.601 213.023C471.489 213.427 471.336 213.824 471.141 214.214C470.946 214.604 470.625 214.994 470.179 215.385C469.733 215.775 469.253 215.963 468.737 215.949C468.082 215.949 467.608 215.761 467.316 215.385C467.023 215.008 466.877 214.618 466.877 214.214C466.877 213.949 467.128 213.113 467.629 211.706C468.131 210.298 468.389 209.239 468.403 208.529C468.403 207.706 468.096 207.295 467.483 207.295H467.379C466.18 207.295 465.17 207.999 464.348 209.407L464.201 209.657L463.512 212.458C463.052 214.284 462.787 215.266 462.717 215.405C462.536 215.782 462.237 215.97 461.819 215.97C461.637 215.97 461.491 215.928 461.38 215.844C461.268 215.761 461.191 215.677 461.15 215.594C461.108 215.51 461.094 215.44 461.108 215.385C461.108 215.203 461.373 214.068 461.902 211.977C462.432 209.887 462.71 208.752 462.738 208.57C462.752 208.501 462.759 208.341 462.759 208.09C462.759 207.546 462.592 207.274 462.257 207.274C461.728 207.274 461.289 207.971 460.941 209.365C460.857 209.643 460.815 209.79 460.815 209.804C460.787 209.887 460.655 209.929 460.418 209.929H460.125C460.042 209.845 460 209.783 460 209.741Z" fill="#D9EBFF"/>
<path d="M473.718 212.548C473.452 212.548 473.24 212.459 473.083 212.282C472.925 212.105 472.846 211.888 472.846 211.632C472.846 210.932 473.107 210.326 473.63 209.814C474.152 209.302 474.802 209.046 475.58 209.046C476.477 209.046 477.226 209.321 477.827 209.873C478.428 210.425 478.733 211.139 478.743 212.016C478.743 212.44 478.644 212.843 478.447 213.228C478.25 213.612 478.014 213.947 477.738 214.233C477.462 214.518 477.068 214.883 476.556 215.326C476.201 215.632 475.708 216.085 475.078 216.686L474.206 217.513L475.329 217.528C476.876 217.528 477.698 217.503 477.797 217.454C477.866 217.434 477.984 216.996 478.152 216.139V216.095H478.743V216.139C478.733 216.168 478.669 216.617 478.551 217.484C478.432 218.351 478.359 218.804 478.329 218.843V218.888H472.846V218.429C472.846 218.361 472.876 218.287 472.935 218.208C472.994 218.129 473.142 217.957 473.378 217.691C473.664 217.375 473.91 217.099 474.117 216.863C474.206 216.765 474.373 216.582 474.62 216.316C474.866 216.05 475.034 215.868 475.122 215.769C475.211 215.671 475.354 215.508 475.551 215.282C475.748 215.055 475.886 214.888 475.965 214.779C476.043 214.671 476.157 214.523 476.304 214.336C476.452 214.149 476.556 213.991 476.615 213.863C476.674 213.735 476.748 213.592 476.836 213.435C476.925 213.277 476.989 213.119 477.029 212.962C477.068 212.804 477.102 212.656 477.132 212.518C477.162 212.38 477.176 212.218 477.176 212.031C477.176 211.41 477.009 210.873 476.674 210.42C476.339 209.967 475.861 209.74 475.24 209.74C474.915 209.74 474.63 209.824 474.383 209.991C474.137 210.159 473.965 210.321 473.866 210.479C473.768 210.637 473.718 210.73 473.718 210.76C473.718 210.77 473.743 210.775 473.792 210.775C473.97 210.775 474.152 210.843 474.339 210.981C474.526 211.119 474.62 211.346 474.62 211.661C474.62 211.908 474.541 212.114 474.383 212.282C474.226 212.449 474.004 212.538 473.718 212.548Z" fill="#D9EBFF"/>
<path d="M460 9.74095C460.014 9.65734 460.035 9.54587 460.063 9.40652C460.091 9.26717 460.174 9.00241 460.314 8.61223C460.453 8.22205 460.592 7.89459 460.732 7.62982C460.871 7.36506 461.101 7.10727 461.421 6.85644C461.742 6.60561 462.062 6.48717 462.383 6.5011C462.885 6.5011 463.303 6.62651 463.637 6.87734C463.971 7.12817 464.18 7.36506 464.264 7.58802C464.348 7.81098 464.389 7.95729 464.389 8.02697C464.389 8.05484 464.396 8.06877 464.41 8.06877L464.64 7.83885C465.49 6.94702 466.459 6.5011 467.546 6.5011C468.298 6.5011 468.904 6.68922 469.364 7.06546C469.824 7.4417 470.061 7.99213 470.075 8.71674C470.089 9.44135 469.824 10.5352 469.281 11.9984C468.737 13.4616 468.472 14.3464 468.486 14.653C468.486 15.0153 468.605 15.1964 468.842 15.1964C468.925 15.1964 468.988 15.1895 469.03 15.1755C469.434 15.1059 469.796 14.8411 470.117 14.3813C470.437 13.9214 470.681 13.364 470.848 12.7091C470.876 12.5976 471.016 12.5419 471.266 12.5419C471.545 12.5419 471.684 12.5976 471.684 12.7091C471.684 12.723 471.657 12.8275 471.601 13.0226C471.489 13.4267 471.336 13.8239 471.141 14.214C470.946 14.6042 470.625 14.9944 470.179 15.3846C469.733 15.7747 469.253 15.9629 468.737 15.9489C468.082 15.9489 467.608 15.7608 467.316 15.3846C467.023 15.0083 466.877 14.6182 466.877 14.214C466.877 13.9493 467.128 13.1132 467.629 11.7058C468.131 10.2983 468.389 9.2393 468.403 8.52862C468.403 7.70647 468.096 7.29539 467.483 7.29539H467.379C466.18 7.29539 465.17 7.9991 464.348 9.40652L464.201 9.65734L463.512 12.4583C463.052 14.2837 462.787 15.2661 462.717 15.4055C462.536 15.7817 462.237 15.9698 461.818 15.9698C461.637 15.9698 461.491 15.928 461.38 15.8444C461.268 15.7608 461.191 15.6772 461.15 15.5936C461.108 15.51 461.094 15.4403 461.108 15.3846C461.108 15.2034 461.373 14.0677 461.902 11.9775C462.432 9.88727 462.71 8.75158 462.738 8.57043C462.752 8.50075 462.759 8.3405 462.759 8.08967C462.759 7.54621 462.592 7.27448 462.257 7.27448C461.728 7.27448 461.289 7.97123 460.941 9.36471C460.857 9.64341 460.815 9.78973 460.815 9.80366C460.787 9.88727 460.655 9.92907 460.418 9.92907H460.125C460.042 9.84547 460 9.78276 460 9.74095Z" fill="#D9EBFF"/>
<path d="M473.984 12.0454C473.718 12.0454 473.511 11.9617 473.364 11.7942C473.216 11.6267 473.137 11.41 473.127 11.144C473.127 10.6021 473.364 10.1194 473.837 9.69574C474.309 9.27211 474.881 9.06029 475.551 9.06029C475.896 9.06029 476.112 9.06522 476.201 9.07507C476.93 9.19329 477.487 9.45437 477.871 9.8583C478.255 10.2622 478.452 10.7006 478.462 11.1735C478.462 11.6858 478.295 12.1834 477.96 12.6661C477.625 13.1488 477.162 13.4986 476.57 13.7153L476.526 13.7449C476.526 13.7547 476.57 13.7695 476.659 13.7892C476.748 13.8089 476.891 13.8533 477.088 13.9222C477.285 13.9912 477.472 14.0946 477.649 14.2326C478.457 14.7547 478.861 15.4444 478.861 16.3015C478.861 17.0798 478.556 17.7596 477.945 18.3408C477.334 18.9221 476.561 19.2127 475.625 19.2127C474.836 19.2127 474.157 19.0009 473.585 18.5773C473.014 18.1536 472.728 17.6167 472.728 16.9665C472.728 16.6906 472.817 16.469 472.994 16.3015C473.172 16.134 473.393 16.0453 473.659 16.0355C473.935 16.0355 474.162 16.1241 474.339 16.3015C474.516 16.4788 474.605 16.7005 474.605 16.9665C474.605 17.0748 474.59 17.1734 474.561 17.262C474.531 17.3507 474.497 17.4295 474.457 17.4985C474.418 17.5674 474.364 17.6266 474.295 17.6758C474.226 17.7251 474.167 17.7645 474.117 17.794C474.068 17.8236 474.019 17.8433 473.97 17.8532C473.92 17.863 473.881 17.8778 473.851 17.8975L473.792 17.9123C474.295 18.3556 474.905 18.5773 475.625 18.5773C476.167 18.5773 476.575 18.3162 476.851 17.794C477.019 17.4689 477.102 16.9714 477.102 16.3015V16.0059C477.102 15.07 476.787 14.4444 476.157 14.1291C476.009 14.07 475.708 14.0355 475.255 14.0257L474.635 14.0109L474.59 13.9813C474.57 13.9518 474.561 13.873 474.561 13.7449C474.561 13.5676 474.6 13.4789 474.679 13.4789C474.955 13.4789 475.24 13.4543 475.536 13.405C475.871 13.3557 476.176 13.1488 476.452 12.7843C476.728 12.4198 476.866 11.8681 476.866 11.1292V11.011C476.866 10.4494 476.694 10.0603 476.349 9.84352C476.132 9.70559 475.9 9.63663 475.654 9.63663C475.339 9.63663 475.048 9.69082 474.782 9.79919C474.516 9.90756 474.329 10.0209 474.221 10.1391C474.112 10.2573 474.058 10.3164 474.058 10.3164H474.103C474.132 10.3263 474.171 10.3361 474.221 10.346C474.27 10.3558 474.319 10.3805 474.369 10.4199C474.418 10.4593 474.477 10.4937 474.546 10.5233C474.615 10.5529 474.664 10.607 474.694 10.6859C474.723 10.7647 474.763 10.8386 474.812 10.9075C474.861 10.9765 474.876 11.075 474.856 11.2031C474.856 11.4198 474.787 11.6119 474.649 11.7794C474.511 11.9469 474.29 12.0356 473.984 12.0454Z" fill="#D9EBFF"/>
<path d="M409 60.741C409.014 60.6573 409.035 60.5459 409.063 60.4065C409.091 60.2672 409.174 60.0024 409.314 59.6122C409.453 59.2221 409.592 58.8946 409.732 58.6298C409.871 58.3651 410.101 58.1073 410.421 57.8564C410.742 57.6056 411.062 57.4872 411.383 57.5011C411.885 57.5011 412.303 57.6265 412.637 57.8773C412.971 58.1282 413.18 58.3651 413.264 58.588C413.348 58.811 413.389 58.9573 413.389 59.027C413.389 59.0548 413.396 59.0688 413.41 59.0688L413.64 58.8388C414.49 57.947 415.459 57.5011 416.546 57.5011C417.298 57.5011 417.904 57.6892 418.364 58.0655C418.824 58.4417 419.061 58.9921 419.075 59.7167C419.089 60.4414 418.824 61.5352 418.281 62.9984C417.737 64.4616 417.472 65.3464 417.486 65.653C417.486 66.0153 417.605 66.1964 417.842 66.1964C417.925 66.1964 417.988 66.1895 418.03 66.1755C418.434 66.1059 418.796 65.8411 419.117 65.3813C419.437 64.9214 419.681 64.364 419.848 63.7091C419.876 63.5976 420.016 63.5419 420.266 63.5419C420.545 63.5419 420.684 63.5976 420.684 63.7091C420.684 63.723 420.657 63.8275 420.601 64.0226C420.489 64.4267 420.336 64.8239 420.141 65.214C419.946 65.6042 419.625 65.9944 419.179 66.3846C418.733 66.7747 418.253 66.9629 417.737 66.9489C417.082 66.9489 416.608 66.7608 416.316 66.3846C416.023 66.0083 415.877 65.6182 415.877 65.214C415.877 64.9493 416.128 64.1132 416.629 62.7058C417.131 61.2983 417.389 60.2393 417.403 59.5286C417.403 58.7065 417.096 58.2954 416.483 58.2954H416.379C415.18 58.2954 414.17 58.9991 413.348 60.4065L413.201 60.6573L412.512 63.4583C412.052 65.2837 411.787 66.2661 411.717 66.4055C411.536 66.7817 411.237 66.9698 410.818 66.9698C410.637 66.9698 410.491 66.928 410.38 66.8444C410.268 66.7608 410.191 66.6772 410.15 66.5936C410.108 66.51 410.094 66.4403 410.108 66.3846C410.108 66.2034 410.373 65.0677 410.902 62.9775C411.432 60.8873 411.71 59.7516 411.738 59.5704C411.752 59.5008 411.759 59.3405 411.759 59.0897C411.759 58.5462 411.592 58.2745 411.257 58.2745C410.728 58.2745 410.289 58.9712 409.941 60.3647C409.857 60.6434 409.815 60.7897 409.815 60.8037C409.787 60.8873 409.655 60.9291 409.418 60.9291H409.125C409.042 60.8455 409 60.7828 409 60.741Z" fill="#D9EBFF"/>
<path d="M427.935 69.8876C427.758 69.858 427.122 69.8433 426.029 69.8433C424.886 69.8433 424.226 69.858 424.048 69.8876H423.915V69.2078H424.373C424.57 69.2078 424.703 69.2078 424.772 69.2078C424.841 69.2078 424.925 69.198 425.024 69.1783C425.122 69.1586 425.191 69.1339 425.231 69.1044C425.27 69.0748 425.304 69.0354 425.334 68.9862C425.344 68.9664 425.349 68.7004 425.349 68.1881V67.4492H421.521V66.7695L423.753 63.3558C425.26 61.0701 426.024 59.9224 426.043 59.9125C426.063 59.8928 426.166 59.883 426.354 59.883H426.62L426.708 59.9716V66.7695H428.068V67.4492H426.708V68.2029C426.708 68.6069 426.708 68.8433 426.708 68.9123C426.708 68.9812 426.738 69.0403 426.797 69.0896C426.876 69.1586 427.157 69.198 427.639 69.2078H428.068V69.8876H427.935ZM425.437 66.7695V61.8336L422.201 66.7547L423.812 66.7695H425.437Z" fill="#D9EBFF"/>
<path d="M409 159.741C409.014 159.657 409.035 159.546 409.063 159.407C409.091 159.267 409.174 159.002 409.314 158.612C409.453 158.222 409.592 157.895 409.732 157.63C409.871 157.365 410.101 157.107 410.421 156.856C410.742 156.606 411.062 156.487 411.383 156.501C411.885 156.501 412.303 156.627 412.637 156.877C412.971 157.128 413.18 157.365 413.264 157.588C413.348 157.811 413.389 157.957 413.389 158.027C413.389 158.055 413.396 158.069 413.41 158.069L413.64 157.839C414.49 156.947 415.459 156.501 416.546 156.501C417.298 156.501 417.904 156.689 418.364 157.065C418.824 157.442 419.061 157.992 419.075 158.717C419.089 159.441 418.824 160.535 418.281 161.998C417.737 163.462 417.472 164.346 417.486 164.653C417.486 165.015 417.605 165.196 417.842 165.196C417.925 165.196 417.988 165.189 418.03 165.176C418.434 165.106 418.796 164.841 419.117 164.381C419.437 163.921 419.681 163.364 419.848 162.709C419.876 162.598 420.016 162.542 420.266 162.542C420.545 162.542 420.684 162.598 420.684 162.709C420.684 162.723 420.657 162.828 420.601 163.023C420.489 163.427 420.336 163.824 420.141 164.214C419.946 164.604 419.625 164.994 419.179 165.385C418.733 165.775 418.253 165.963 417.737 165.949C417.082 165.949 416.608 165.761 416.316 165.385C416.023 165.008 415.877 164.618 415.877 164.214C415.877 163.949 416.128 163.113 416.629 161.706C417.131 160.298 417.389 159.239 417.403 158.529C417.403 157.706 417.096 157.295 416.483 157.295H416.379C415.18 157.295 414.17 157.999 413.348 159.407L413.201 159.657L412.512 162.458C412.052 164.284 411.787 165.266 411.717 165.405C411.536 165.782 411.237 165.97 410.818 165.97C410.637 165.97 410.491 165.928 410.38 165.844C410.268 165.761 410.191 165.677 410.15 165.594C410.108 165.51 410.094 165.44 410.108 165.385C410.108 165.203 410.373 164.068 410.902 161.977C411.432 159.887 411.71 158.752 411.738 158.57C411.752 158.501 411.759 158.341 411.759 158.09C411.759 157.546 411.592 157.274 411.257 157.274C410.728 157.274 410.289 157.971 409.941 159.365C409.857 159.643 409.815 159.79 409.815 159.804C409.787 159.887 409.655 159.929 409.418 159.929H409.125C409.042 159.845 409 159.783 409 159.741Z" fill="#D9EBFF"/>
<path d="M423.531 166.567C423.531 166.804 423.452 167.001 423.295 167.159C423.137 167.316 422.945 167.395 422.718 167.395H422.615C423.068 168.173 423.669 168.562 424.418 168.562C425.107 168.562 425.61 168.267 425.925 167.676C426.112 167.351 426.206 166.72 426.206 165.784C426.206 164.769 426.073 164.085 425.807 163.73C425.551 163.405 425.265 163.242 424.95 163.242H424.861C424.093 163.242 423.511 163.577 423.117 164.247C423.078 164.316 423.043 164.356 423.014 164.366C422.984 164.375 422.91 164.385 422.792 164.395C422.625 164.395 422.531 164.366 422.511 164.306C422.492 164.267 422.482 163.405 422.482 161.72V159.814C422.482 159.321 422.506 159.075 422.556 159.075C422.575 159.055 422.595 159.046 422.615 159.046C422.625 159.046 422.728 159.085 422.925 159.164C423.122 159.243 423.393 159.321 423.738 159.4C424.083 159.479 424.452 159.518 424.846 159.518C425.546 159.518 426.216 159.38 426.856 159.105C426.935 159.065 426.999 159.046 427.048 159.046C427.127 159.046 427.166 159.134 427.166 159.312V159.504C426.359 160.459 425.349 160.937 424.137 160.937C423.832 160.937 423.556 160.908 423.309 160.848L423.162 160.819V163.361C423.349 163.223 423.497 163.114 423.605 163.036C423.713 162.957 423.891 162.878 424.137 162.799C424.383 162.72 424.634 162.681 424.891 162.681C425.689 162.681 426.364 163.001 426.915 163.641C427.467 164.282 427.743 165.04 427.743 165.917C427.743 166.824 427.428 167.597 426.797 168.237C426.166 168.878 425.398 169.203 424.492 169.213C423.694 169.213 423.053 168.947 422.571 168.415C422.088 167.883 421.846 167.282 421.846 166.612C421.846 166.375 421.901 166.188 422.009 166.05C422.117 165.912 422.231 165.824 422.349 165.784C422.467 165.745 422.58 165.725 422.689 165.725C422.935 165.725 423.137 165.809 423.295 165.976C423.452 166.144 423.531 166.341 423.531 166.567Z" fill="#D9EBFF"/>
<path d="M271 159.741C271.014 159.657 271.035 159.546 271.063 159.407C271.091 159.267 271.174 159.002 271.314 158.612C271.453 158.222 271.592 157.895 271.732 157.63C271.871 157.365 272.101 157.107 272.421 156.856C272.742 156.606 273.062 156.487 273.383 156.501C273.885 156.501 274.303 156.627 274.637 156.877C274.971 157.128 275.18 157.365 275.264 157.588C275.348 157.811 275.389 157.957 275.389 158.027C275.389 158.055 275.396 158.069 275.41 158.069L275.64 157.839C276.49 156.947 277.459 156.501 278.546 156.501C279.298 156.501 279.904 156.689 280.364 157.065C280.824 157.442 281.061 157.992 281.075 158.717C281.089 159.441 280.824 160.535 280.281 161.998C279.737 163.462 279.472 164.346 279.486 164.653C279.486 165.015 279.605 165.196 279.842 165.196C279.925 165.196 279.988 165.189 280.03 165.176C280.434 165.106 280.796 164.841 281.117 164.381C281.437 163.921 281.681 163.364 281.848 162.709C281.876 162.598 282.016 162.542 282.266 162.542C282.545 162.542 282.684 162.598 282.684 162.709C282.684 162.723 282.657 162.828 282.601 163.023C282.489 163.427 282.336 163.824 282.141 164.214C281.946 164.604 281.625 164.994 281.179 165.385C280.733 165.775 280.253 165.963 279.737 165.949C279.082 165.949 278.608 165.761 278.316 165.385C278.023 165.008 277.877 164.618 277.877 164.214C277.877 163.949 278.128 163.113 278.629 161.706C279.131 160.298 279.389 159.239 279.403 158.529C279.403 157.706 279.096 157.295 278.483 157.295H278.379C277.18 157.295 276.17 157.999 275.348 159.407L275.201 159.657L274.512 162.458C274.052 164.284 273.787 165.266 273.717 165.405C273.536 165.782 273.237 165.97 272.818 165.97C272.637 165.97 272.491 165.928 272.38 165.844C272.268 165.761 272.191 165.677 272.15 165.594C272.108 165.51 272.094 165.44 272.108 165.385C272.108 165.203 272.373 164.068 272.902 161.977C273.432 159.887 273.71 158.752 273.738 158.57C273.752 158.501 273.759 158.341 273.759 158.09C273.759 157.546 273.592 157.274 273.257 157.274C272.728 157.274 272.289 157.971 271.941 159.365C271.857 159.643 271.815 159.79 271.815 159.804C271.787 159.887 271.655 159.929 271.418 159.929H271.125C271.042 159.845 271 159.783 271 159.741Z" fill="#D9EBFF"/>
<path d="M283.728 164.262C283.728 162.656 284.127 161.385 284.925 160.449C285.723 159.513 286.61 159.046 287.585 159.046C288.265 159.046 288.753 159.223 289.048 159.578C289.344 159.932 289.492 160.326 289.492 160.76C289.492 161.006 289.423 161.203 289.285 161.351C289.147 161.499 288.955 161.573 288.708 161.573C288.482 161.573 288.295 161.504 288.147 161.366C287.999 161.228 287.925 161.036 287.925 160.789C287.925 160.356 288.157 160.095 288.62 160.006C288.403 159.789 288.098 159.666 287.703 159.637C287.004 159.637 286.428 159.932 285.974 160.523C285.511 161.174 285.28 162.169 285.28 163.508L285.295 163.568C285.344 163.508 285.383 163.444 285.413 163.375C285.817 162.784 286.344 162.489 286.994 162.489H287.053C287.506 162.489 287.905 162.582 288.25 162.77C288.487 162.907 288.723 163.105 288.96 163.361C289.196 163.617 289.388 163.898 289.536 164.203C289.743 164.686 289.846 165.213 289.846 165.784V166.05C289.846 166.277 289.822 166.489 289.772 166.686C289.664 167.267 289.349 167.833 288.827 168.385C288.304 168.937 287.644 169.213 286.846 169.213C286.57 169.213 286.304 169.173 286.048 169.094C285.792 169.016 285.516 168.868 285.221 168.651C284.925 168.434 284.674 168.144 284.467 167.779C284.26 167.415 284.083 166.937 283.935 166.346C283.787 165.755 283.718 165.06 283.728 164.262ZM286.905 163.021C286.61 163.021 286.354 163.105 286.137 163.272C285.92 163.439 285.753 163.661 285.635 163.937C285.516 164.213 285.433 164.494 285.383 164.779C285.334 165.065 285.304 165.37 285.295 165.696C285.295 166.513 285.354 167.099 285.472 167.454C285.59 167.809 285.777 168.095 286.034 168.311C286.27 168.489 286.531 168.577 286.817 168.577C287.319 168.577 287.703 168.39 287.969 168.016C288.098 167.838 288.186 167.617 288.235 167.351C288.285 167.085 288.309 166.567 288.309 165.799C288.309 165.011 288.285 164.484 288.235 164.218C288.186 163.952 288.098 163.73 287.969 163.553C287.703 163.198 287.349 163.021 286.905 163.021Z" fill="#D9EBFF"/>
<path d="M271 60.741C271.014 60.6573 271.035 60.5459 271.063 60.4065C271.091 60.2672 271.174 60.0024 271.314 59.6122C271.453 59.2221 271.592 58.8946 271.732 58.6298C271.871 58.3651 272.101 58.1073 272.421 57.8564C272.742 57.6056 273.062 57.4872 273.383 57.5011C273.885 57.5011 274.303 57.6265 274.637 57.8773C274.971 58.1282 275.18 58.3651 275.264 58.588C275.348 58.811 275.389 58.9573 275.389 59.027C275.389 59.0548 275.396 59.0688 275.41 59.0688L275.64 58.8388C276.49 57.947 277.459 57.5011 278.546 57.5011C279.298 57.5011 279.904 57.6892 280.364 58.0655C280.824 58.4417 281.061 58.9921 281.075 59.7167C281.089 60.4414 280.824 61.5352 280.281 62.9984C279.737 64.4616 279.472 65.3464 279.486 65.653C279.486 66.0153 279.605 66.1964 279.842 66.1964C279.925 66.1964 279.988 66.1895 280.03 66.1755C280.434 66.1059 280.796 65.8411 281.117 65.3813C281.437 64.9214 281.681 64.364 281.848 63.7091C281.876 63.5976 282.015 63.5419 282.266 63.5419C282.545 63.5419 282.684 63.5976 282.684 63.7091C282.684 63.723 282.657 63.8275 282.601 64.0226C282.489 64.4267 282.336 64.8239 282.141 65.214C281.946 65.6042 281.625 65.9944 281.179 66.3846C280.733 66.7747 280.253 66.9629 279.737 66.9489C279.082 66.9489 278.608 66.7608 278.316 66.3846C278.023 66.0083 277.877 65.6182 277.877 65.214C277.877 64.9493 278.128 64.1132 278.629 62.7058C279.131 61.2983 279.389 60.2393 279.403 59.5286C279.403 58.7065 279.096 58.2954 278.483 58.2954H278.379C277.18 58.2954 276.17 58.9991 275.348 60.4065L275.201 60.6573L274.512 63.4583C274.052 65.2837 273.787 66.2661 273.717 66.4055C273.536 66.7817 273.237 66.9698 272.818 66.9698C272.637 66.9698 272.491 66.928 272.38 66.8444C272.268 66.7608 272.191 66.6772 272.15 66.5936C272.108 66.51 272.094 66.4403 272.108 66.3846C272.108 66.2034 272.373 65.0677 272.902 62.9775C273.432 60.8873 273.71 59.7516 273.738 59.5704C273.752 59.5008 273.759 59.3405 273.759 59.0897C273.759 58.5462 273.592 58.2745 273.257 58.2745C272.728 58.2745 272.289 58.9712 271.941 60.3647C271.857 60.6434 271.815 60.7897 271.815 60.8037C271.787 60.8873 271.655 60.9291 271.418 60.9291H271.125C271.042 60.8455 271 60.7828 271 60.741Z" fill="#D9EBFF"/>
<path d="M283.92 63.1193C283.93 63.0996 284.014 62.5627 284.172 61.5085L284.408 59.9273C284.408 59.9076 284.506 59.8977 284.704 59.8977H284.999V59.9568C284.999 60.0554 285.073 60.1391 285.221 60.2081C285.369 60.277 285.625 60.3214 285.989 60.3411C286.354 60.3608 287.186 60.3706 288.487 60.3706H290.275V60.947L289.27 62.3213C289.181 62.4395 289.033 62.6366 288.827 62.9124C288.62 63.1883 288.487 63.3705 288.428 63.4592C288.368 63.5479 288.265 63.7055 288.117 63.9321C287.969 64.1587 287.871 64.336 287.822 64.4641C287.772 64.5922 287.703 64.7744 287.615 65.0109C287.526 65.2473 287.462 65.4739 287.423 65.6907C287.383 65.9074 287.344 66.1734 287.304 66.4887C287.265 66.8039 287.235 67.1389 287.216 67.4936C287.196 67.8483 287.181 68.2522 287.171 68.7054C287.171 68.8433 287.171 68.9812 287.171 69.1192C287.171 69.2571 287.166 69.3753 287.157 69.4738V69.6068C287.117 69.7743 287.024 69.9172 286.876 70.0354C286.728 70.1536 286.561 70.2127 286.373 70.2127C286.265 70.2127 286.162 70.1979 286.063 70.1684C285.965 70.1388 285.861 70.0452 285.753 69.8876C285.644 69.73 285.59 69.5329 285.59 69.2965C285.59 67.7399 286.068 66.1242 287.024 64.4493C287.221 64.1341 287.634 63.538 288.265 62.6612L288.945 61.7302H287.57C285.856 61.7302 284.955 61.7598 284.866 61.8189C284.807 61.8484 284.753 61.9666 284.704 62.1735C284.654 62.3804 284.605 62.5922 284.556 62.809L284.511 63.1193V63.1637H283.92V63.1193Z" fill="#D9EBFF"/>
<path d="M150 261.852C150 260.334 150.599 258.968 151.797 257.756C152.996 256.544 154.292 255.937 155.685 255.937C156.465 255.937 157.078 256.105 157.524 256.439C157.97 256.773 158.2 257.212 158.214 257.756C158.214 258.16 158.082 258.501 157.817 258.78C157.552 259.059 157.218 259.205 156.814 259.219C156.549 259.219 156.34 259.149 156.187 259.01C156.033 258.871 155.957 258.662 155.957 258.383C155.957 258.104 156.033 257.867 156.187 257.672C156.34 257.477 156.493 257.331 156.646 257.233C156.8 257.136 156.897 257.094 156.939 257.108H156.96C156.96 257.08 156.918 257.038 156.835 256.982C156.751 256.927 156.605 256.871 156.396 256.815C156.187 256.76 155.95 256.732 155.685 256.732C155.267 256.732 154.87 256.829 154.494 257.024C154.201 257.15 153.901 257.366 153.595 257.672C152.982 258.285 152.536 259.149 152.257 260.264C151.979 261.379 151.832 262.187 151.818 262.688C151.818 263.329 152 263.81 152.362 264.131C152.668 264.465 153.072 264.632 153.574 264.632H153.658C155.218 264.632 156.507 264.04 157.524 262.856C157.65 262.716 157.733 262.647 157.775 262.647C157.831 262.647 157.921 262.709 158.047 262.835C158.172 262.96 158.242 263.058 158.256 263.127C158.27 263.197 158.207 263.301 158.068 263.441C157.928 263.58 157.726 263.775 157.462 264.026C157.197 264.277 156.883 264.486 156.521 264.653C156.159 264.82 155.713 264.994 155.183 265.176C154.654 265.357 154.097 265.433 153.511 265.406C152.466 265.406 151.623 265.071 150.982 264.402C150.341 263.733 150.014 262.883 150 261.852Z" fill="#D9EBFF"/>
<path d="M158.778 259.177C158.778 258.982 158.883 258.648 159.092 258.174C159.301 257.7 159.635 257.205 160.095 256.69C160.555 256.174 161.07 255.924 161.642 255.937C162.213 255.937 162.673 256.098 163.021 256.418C163.37 256.739 163.551 257.185 163.565 257.756C163.537 258.021 163.516 258.167 163.502 258.195C163.502 258.237 163.39 258.557 163.168 259.156C162.945 259.755 162.715 260.431 162.478 261.184C162.241 261.936 162.129 262.535 162.143 262.981C162.143 263.58 162.241 263.998 162.436 264.235C162.631 264.472 162.924 264.597 163.314 264.611C163.634 264.611 163.934 264.535 164.213 264.381C164.491 264.228 164.707 264.068 164.86 263.901C165.014 263.733 165.202 263.504 165.425 263.211C165.425 263.197 165.46 263.058 165.529 262.793C165.599 262.528 165.697 262.117 165.822 261.56C165.947 261.002 166.08 260.487 166.219 260.013C166.749 257.923 167.041 256.829 167.097 256.732C167.278 256.355 167.578 256.167 167.996 256.167C168.177 256.167 168.323 256.216 168.435 256.314C168.546 256.411 168.623 256.495 168.664 256.564C168.706 256.634 168.72 256.697 168.706 256.753C168.706 256.934 168.365 258.397 167.682 261.142C166.999 263.887 166.609 265.392 166.512 265.656C166.121 266.813 165.446 267.732 164.484 268.415C163.523 269.098 162.561 269.446 161.6 269.46C160.973 269.46 160.423 269.307 159.949 269C159.475 268.694 159.238 268.234 159.238 267.621C159.238 267.314 159.287 267.057 159.384 266.848C159.482 266.639 159.614 266.485 159.782 266.388C159.949 266.29 160.088 266.221 160.2 266.179C160.311 266.137 160.429 266.116 160.555 266.116C161.168 266.116 161.475 266.409 161.475 266.994C161.475 267.273 161.391 267.516 161.224 267.725C161.057 267.935 160.896 268.074 160.743 268.144C160.59 268.213 160.499 268.248 160.471 268.248L160.409 268.269C160.436 268.339 160.569 268.422 160.806 268.52C161.043 268.617 161.279 268.666 161.516 268.666H161.684C161.92 268.666 162.102 268.652 162.227 268.624C162.687 268.499 163.112 268.234 163.502 267.83C163.892 267.426 164.192 266.994 164.401 266.534C164.61 266.074 164.77 265.684 164.881 265.364C164.993 265.043 165.049 264.834 165.049 264.737L164.923 264.82C164.84 264.876 164.707 264.953 164.526 265.05C164.345 265.148 164.164 265.231 163.983 265.301C163.704 265.371 163.432 265.406 163.168 265.406C162.527 265.406 161.962 265.252 161.475 264.946C160.987 264.639 160.666 264.144 160.513 263.462C160.499 263.364 160.492 263.148 160.492 262.814C160.492 262.02 160.736 260.982 161.224 259.7C161.711 258.418 161.955 257.603 161.955 257.254C161.955 257.24 161.955 257.226 161.955 257.212C161.955 257.087 161.955 257.003 161.955 256.962C161.955 256.92 161.927 256.871 161.872 256.815C161.816 256.76 161.739 256.732 161.642 256.732H161.558C161.238 256.732 160.945 256.864 160.68 257.129C160.416 257.394 160.207 257.679 160.053 257.986C159.9 258.292 159.782 258.585 159.698 258.864C159.614 259.142 159.559 259.296 159.531 259.323C159.503 259.351 159.391 259.365 159.196 259.365H158.904C158.82 259.282 158.778 259.219 158.778 259.177Z" fill="#D9EBFF"/>
<path d="M169.459 261.852C169.459 260.334 170.058 258.968 171.256 257.756C172.454 256.544 173.75 255.937 175.144 255.937C175.924 255.937 176.537 256.105 176.983 256.439C177.429 256.773 177.659 257.212 177.673 257.756C177.673 258.16 177.54 258.501 177.276 258.78C177.011 259.059 176.676 259.205 176.272 259.219C176.008 259.219 175.799 259.149 175.645 259.01C175.492 258.871 175.415 258.662 175.415 258.383C175.415 258.104 175.492 257.867 175.645 257.672C175.799 257.477 175.952 257.331 176.105 257.233C176.258 257.136 176.356 257.094 176.398 257.108H176.419C176.419 257.08 176.377 257.038 176.293 256.982C176.21 256.927 176.063 256.871 175.854 256.815C175.645 256.76 175.408 256.732 175.144 256.732C174.726 256.732 174.329 256.829 173.952 257.024C173.66 257.15 173.36 257.366 173.054 257.672C172.44 258.285 171.995 259.149 171.716 260.264C171.437 261.379 171.291 262.187 171.277 262.688C171.277 263.329 171.458 263.81 171.82 264.131C172.127 264.465 172.531 264.632 173.033 264.632H173.116C174.677 264.632 175.966 264.04 176.983 262.856C177.108 262.716 177.192 262.647 177.234 262.647C177.289 262.647 177.38 262.709 177.505 262.835C177.631 262.96 177.701 263.058 177.714 263.127C177.728 263.197 177.666 263.301 177.526 263.441C177.387 263.58 177.185 263.775 176.92 264.026C176.655 264.277 176.342 264.486 175.98 264.653C175.617 264.82 175.172 264.994 174.642 265.176C174.113 265.357 173.555 265.433 172.97 265.406C171.925 265.406 171.082 265.071 170.441 264.402C169.8 263.733 169.473 262.883 169.459 261.852Z" fill="#D9EBFF"/>
<path d="M180.243 263.942C180.243 264.402 180.418 264.632 180.766 264.632C181.282 264.632 181.72 263.901 182.083 262.438C182.166 262.159 182.236 262.013 182.292 261.999C182.32 261.985 182.389 261.978 182.501 261.978H182.584C182.71 261.978 182.793 261.978 182.835 261.978C182.877 261.978 182.912 261.992 182.94 262.02C182.968 262.047 182.981 262.096 182.981 262.166C182.968 262.249 182.947 262.361 182.919 262.5C182.891 262.64 182.814 262.904 182.689 263.295C182.563 263.685 182.424 264.012 182.271 264.277C182.118 264.542 181.902 264.799 181.623 265.05C181.344 265.301 181.024 265.419 180.661 265.406C180.16 265.406 179.693 265.252 179.261 264.946C178.829 264.639 178.606 264.124 178.592 263.399C178.592 263.232 178.599 263.113 178.613 263.044L179.972 257.651C180.85 254.098 181.288 252.266 181.288 252.154C181.288 252.113 181.282 252.078 181.268 252.05C181.254 252.022 181.226 251.994 181.184 251.966C181.142 251.938 181.107 251.924 181.079 251.924C181.052 251.924 180.996 251.918 180.912 251.904C180.829 251.89 180.773 251.883 180.745 251.883C180.717 251.883 180.655 251.876 180.557 251.862C180.459 251.848 180.39 251.848 180.348 251.862C180.209 251.862 180.118 251.862 180.076 251.862C180.034 251.862 179.979 251.855 179.909 251.841C179.839 251.827 179.798 251.806 179.784 251.778C179.77 251.75 179.763 251.709 179.763 251.653C179.763 251.625 179.777 251.527 179.805 251.36C179.874 251.095 179.951 250.949 180.034 250.921C180.118 250.893 180.62 250.852 181.539 250.796C181.748 250.782 181.985 250.768 182.25 250.754C182.515 250.74 182.724 250.719 182.877 250.691C183.03 250.663 183.107 250.657 183.107 250.67C183.274 250.67 183.358 250.726 183.358 250.838C183.358 250.991 182.849 253.081 181.832 257.108C180.815 261.135 180.292 263.246 180.264 263.441C180.264 263.469 180.264 263.524 180.264 263.608C180.264 263.692 180.257 263.761 180.243 263.817V263.942Z" fill="#D9EBFF"/>
<path d="M184.863 261.664C184.863 260.87 184.995 260.145 185.26 259.491C185.524 258.836 185.866 258.292 186.284 257.86C186.702 257.428 187.169 257.066 187.684 256.773C188.2 256.481 188.687 256.265 189.147 256.126C189.607 255.986 190.046 255.924 190.464 255.937H190.527C191.154 255.937 191.697 256.091 192.157 256.397C192.617 256.704 192.847 257.157 192.847 257.756C192.847 259.01 192.073 259.832 190.527 260.222C189.844 260.403 188.91 260.501 187.726 260.515C187.21 260.515 186.946 260.529 186.932 260.557C186.932 260.584 186.89 260.828 186.806 261.288C186.723 261.748 186.674 262.152 186.66 262.5C186.66 263.155 186.806 263.671 187.099 264.047C187.392 264.423 187.83 264.618 188.416 264.632C189.001 264.646 189.649 264.514 190.359 264.235C191.07 263.956 191.711 263.497 192.282 262.856C192.408 262.716 192.491 262.647 192.533 262.647C192.589 262.647 192.679 262.709 192.805 262.835C192.93 262.96 193 263.058 193.014 263.127C193.028 263.197 192.965 263.308 192.826 263.462C192.686 263.615 192.477 263.803 192.199 264.026C191.92 264.249 191.6 264.465 191.237 264.674C190.875 264.883 190.436 265.057 189.921 265.197C189.405 265.336 188.875 265.406 188.332 265.406C187.231 265.406 186.381 265.036 185.782 264.298C185.183 263.559 184.876 262.681 184.863 261.664ZM191.843 257.798C191.76 257.073 191.286 256.711 190.422 256.711C189.962 256.711 189.537 256.808 189.147 257.003C188.757 257.198 188.444 257.435 188.207 257.714C187.97 257.993 187.768 258.278 187.601 258.571C187.433 258.864 187.322 259.114 187.266 259.323C187.21 259.532 187.176 259.665 187.162 259.72C187.162 259.734 187.301 259.741 187.58 259.741C189.154 259.741 190.255 259.574 190.882 259.24C191.509 258.905 191.829 258.425 191.843 257.798Z" fill="#D9EBFF"/>
<path d="M196.525 259.135C196.525 258.689 196.637 258.237 196.86 257.777C197.083 257.317 197.473 256.892 198.03 256.502C198.587 256.112 199.263 255.924 200.057 255.937C200.921 255.937 201.548 256.126 201.938 256.502C202.329 256.878 202.531 257.296 202.545 257.756C202.545 258.202 202.426 258.529 202.189 258.738C201.952 258.947 201.688 259.059 201.395 259.073C201.214 259.073 201.047 259.017 200.893 258.905C200.74 258.794 200.657 258.613 200.643 258.362C200.643 258.139 200.705 257.944 200.831 257.777C200.956 257.61 201.075 257.484 201.186 257.401C201.298 257.317 201.388 257.275 201.458 257.275C201.472 257.275 201.479 257.268 201.479 257.254C201.479 257.212 201.43 257.15 201.332 257.066C201.235 256.982 201.061 256.906 200.81 256.836C200.559 256.767 200.287 256.725 199.995 256.711C199.326 256.711 198.838 256.892 198.532 257.254C198.225 257.616 198.065 257.986 198.051 258.362C198.051 258.71 198.183 258.954 198.448 259.093C198.713 259.233 199.096 259.351 199.598 259.449C200.099 259.546 200.461 259.651 200.684 259.762C201.604 260.166 202.064 260.835 202.064 261.769C202.064 262.159 201.987 262.549 201.834 262.939C201.681 263.329 201.451 263.72 201.144 264.11C200.838 264.5 200.399 264.806 199.828 265.029C199.256 265.252 198.601 265.371 197.863 265.385C196.79 265.385 196.031 265.183 195.585 264.778C195.139 264.374 194.909 263.901 194.895 263.357C194.895 262.814 195.041 262.424 195.334 262.187C195.626 261.95 195.933 261.831 196.253 261.831C196.462 261.831 196.658 261.894 196.839 262.02C197.02 262.145 197.117 262.361 197.131 262.668C197.131 263.03 197.006 263.336 196.755 263.587C196.504 263.838 196.288 263.963 196.107 263.963C196.079 263.977 196.058 263.984 196.044 263.984C196.031 263.984 196.024 263.998 196.024 264.026C196.037 264.068 196.093 264.124 196.191 264.193C196.288 264.263 196.504 264.354 196.839 264.465C197.173 264.576 197.556 264.625 197.988 264.611C198.49 264.611 198.922 264.535 199.284 264.381C199.646 264.228 199.911 264.033 200.078 263.796C200.246 263.559 200.364 263.343 200.434 263.148C200.503 262.953 200.538 262.779 200.538 262.626C200.538 262.236 200.392 261.943 200.099 261.748C199.807 261.553 199.472 261.434 199.096 261.393C198.72 261.351 198.309 261.246 197.863 261.079C197.417 260.912 197.09 260.668 196.88 260.348C196.644 259.999 196.525 259.595 196.525 259.135Z" fill="#D9EBFF"/>
<path d="M210.571 257.923C210.571 257.742 210.668 257.603 210.863 257.505H224.177C224.386 257.616 224.49 257.756 224.49 257.923C224.49 258.076 224.393 258.209 224.198 258.32L217.551 258.341H210.905C210.682 258.271 210.571 258.132 210.571 257.923ZM210.571 261.978C210.571 261.769 210.682 261.629 210.905 261.56H224.198C224.393 261.699 224.49 261.838 224.49 261.978C224.49 262.159 224.386 262.298 224.177 262.396H210.863C210.668 262.298 210.571 262.159 210.571 261.978Z" fill="#D9EBFF"/>
<path d="M233.457 259.95C233.457 258.989 233.527 258.076 233.666 257.212C233.805 256.348 233.965 255.603 234.147 254.976C234.328 254.349 234.586 253.736 234.92 253.137C235.254 252.538 235.519 252.071 235.714 251.736C235.909 251.402 236.202 251.04 236.592 250.65C236.982 250.259 237.212 250.023 237.282 249.939C237.351 249.855 237.526 249.709 237.804 249.5H238.16C238.355 249.5 238.452 249.563 238.452 249.688C238.452 249.73 238.334 249.876 238.097 250.127C237.86 250.378 237.574 250.747 237.24 251.235C236.906 251.722 236.564 252.322 236.216 253.032C235.867 253.743 235.575 254.704 235.338 255.917C235.101 257.129 234.983 258.473 234.983 259.95C234.983 261.427 235.101 262.765 235.338 263.963C235.575 265.162 235.86 266.13 236.195 266.869C236.529 267.607 236.871 268.206 237.219 268.666C237.567 269.126 237.86 269.495 238.097 269.774C238.334 270.052 238.452 270.199 238.452 270.213C238.452 270.338 238.348 270.401 238.139 270.401H237.804L237.219 269.899C235.909 268.715 234.955 267.238 234.356 265.468C233.756 263.699 233.457 261.859 233.457 259.95Z" fill="#D9EBFF"/>
<path d="M240.062 259.177C240.075 259.093 240.096 258.982 240.124 258.843C240.152 258.703 240.236 258.439 240.375 258.048C240.514 257.658 240.654 257.331 240.793 257.066C240.932 256.801 241.162 256.544 241.483 256.293C241.803 256.042 242.124 255.924 242.444 255.937C242.946 255.937 243.364 256.063 243.698 256.314C244.033 256.564 244.242 256.801 244.325 257.024C244.409 257.247 244.451 257.394 244.451 257.463C244.451 257.491 244.458 257.505 244.472 257.505L244.702 257.275C245.551 256.383 246.52 255.937 247.607 255.937C248.359 255.937 248.965 256.126 249.425 256.502C249.885 256.878 250.122 257.428 250.136 258.153C250.15 258.877 249.885 259.971 249.341 261.434C248.798 262.897 248.533 263.782 248.547 264.089C248.547 264.451 248.666 264.632 248.903 264.632C248.986 264.632 249.049 264.625 249.091 264.611C249.495 264.542 249.857 264.277 250.178 263.817C250.498 263.357 250.742 262.8 250.909 262.145C250.937 262.034 251.076 261.978 251.327 261.978C251.606 261.978 251.745 262.034 251.745 262.145C251.745 262.159 251.717 262.263 251.661 262.458C251.55 262.863 251.397 263.26 251.202 263.65C251.007 264.04 250.686 264.43 250.24 264.82C249.794 265.21 249.314 265.399 248.798 265.385C248.143 265.385 247.669 265.197 247.377 264.82C247.084 264.444 246.938 264.054 246.938 263.65C246.938 263.385 247.189 262.549 247.69 261.142C248.192 259.734 248.45 258.675 248.464 257.965C248.464 257.143 248.157 256.732 247.544 256.732H247.44C246.241 256.732 245.231 257.435 244.409 258.843L244.263 259.093L243.573 261.894C243.113 263.72 242.848 264.702 242.779 264.841C242.598 265.217 242.298 265.406 241.88 265.406C241.699 265.406 241.552 265.364 241.441 265.28C241.33 265.197 241.253 265.113 241.211 265.029C241.169 264.946 241.155 264.876 241.169 264.82C241.169 264.639 241.434 263.504 241.964 261.413C242.493 259.323 242.772 258.188 242.8 258.007C242.813 257.937 242.82 257.777 242.82 257.526C242.82 256.982 242.653 256.711 242.319 256.711C241.789 256.711 241.35 257.407 241.002 258.801C240.918 259.08 240.877 259.226 240.877 259.24C240.849 259.323 240.716 259.365 240.48 259.365H240.187C240.103 259.282 240.062 259.219 240.062 259.177Z" fill="#D9EBFF"/>
<path d="M255.316 259.782L255.124 259.856C254.986 259.905 254.789 259.954 254.532 260.004C254.276 260.053 253.991 260.087 253.675 260.107H253.395V259.427H253.675C254.138 259.408 254.567 259.334 254.961 259.206C255.355 259.078 255.631 258.959 255.789 258.851C255.946 258.743 256.084 258.634 256.202 258.526C256.222 258.496 256.281 258.482 256.38 258.482C256.468 258.482 256.552 258.511 256.631 258.57V262.989L256.646 267.422C256.715 267.491 256.774 267.535 256.823 267.555C256.872 267.574 256.99 267.594 257.178 267.614C257.365 267.633 257.67 267.643 258.094 267.643H258.478V268.323H258.315C258.108 268.294 257.325 268.279 255.966 268.279C254.626 268.279 253.853 268.294 253.646 268.323H253.469V267.643H253.853C254.069 267.643 254.257 267.643 254.414 267.643C254.572 267.643 254.695 267.638 254.784 267.629C254.872 267.619 254.951 267.604 255.02 267.584C255.089 267.565 255.128 267.555 255.138 267.555C255.148 267.555 255.178 267.53 255.227 267.481C255.276 267.432 255.306 267.412 255.316 267.422V259.782Z" fill="#D9EBFF"/>
<path d="M263.282 264.444C263.282 264.444 263.282 264.27 263.282 263.922C263.282 263.573 263.394 263.274 263.617 263.023C263.84 262.772 264.139 262.647 264.515 262.647C264.906 262.647 265.254 262.821 265.561 263.169C265.867 263.517 266.027 264.131 266.041 265.008C266.041 265.496 265.979 265.97 265.853 266.43C265.728 266.889 265.581 267.287 265.414 267.621C265.247 267.955 265.066 268.241 264.871 268.478C264.676 268.715 264.509 268.903 264.369 269.042C264.23 269.182 264.139 269.244 264.097 269.23C264.042 269.23 263.951 269.168 263.826 269.042C263.7 268.917 263.638 268.826 263.638 268.771C263.638 268.715 263.714 268.603 263.868 268.436C264.021 268.269 264.195 268.06 264.39 267.809C264.585 267.558 264.766 267.21 264.934 266.764C265.101 266.318 265.212 265.81 265.268 265.238V264.987L265.247 265.008C265.219 265.022 265.184 265.036 265.143 265.05C265.101 265.064 265.059 265.085 265.017 265.113C264.975 265.141 264.913 265.155 264.829 265.155C264.745 265.155 264.662 265.162 264.578 265.176C264.202 265.176 263.895 265.057 263.659 264.82L263.282 264.444Z" fill="#D9EBFF"/>
<path d="M271.413 259.177C271.427 259.093 271.448 258.982 271.475 258.843C271.503 258.703 271.587 258.439 271.726 258.048C271.866 257.658 272.005 257.331 272.144 257.066C272.284 256.801 272.514 256.544 272.834 256.293C273.154 256.042 273.475 255.924 273.795 255.937C274.297 255.937 274.715 256.063 275.049 256.314C275.384 256.564 275.593 256.801 275.677 257.024C275.76 257.247 275.802 257.394 275.802 257.463C275.802 257.491 275.809 257.505 275.823 257.505L276.053 257.275C276.903 256.383 277.871 255.937 278.958 255.937C279.71 255.937 280.316 256.126 280.776 256.502C281.236 256.878 281.473 257.428 281.487 258.153C281.501 258.877 281.236 259.971 280.693 261.434C280.149 262.897 279.885 263.782 279.898 264.089C279.898 264.451 280.017 264.632 280.254 264.632C280.337 264.632 280.4 264.625 280.442 264.611C280.846 264.542 281.208 264.277 281.529 263.817C281.849 263.357 282.093 262.8 282.26 262.145C282.288 262.034 282.427 261.978 282.678 261.978C282.957 261.978 283.096 262.034 283.096 262.145C283.096 262.159 283.068 262.263 283.013 262.458C282.901 262.863 282.748 263.26 282.553 263.65C282.358 264.04 282.037 264.43 281.591 264.82C281.146 265.21 280.665 265.399 280.149 265.385C279.494 265.385 279.021 265.197 278.728 264.82C278.435 264.444 278.289 264.054 278.289 263.65C278.289 263.385 278.54 262.549 279.042 261.142C279.543 259.734 279.801 258.675 279.815 257.965C279.815 257.143 279.508 256.732 278.895 256.732H278.791C277.592 256.732 276.582 257.435 275.76 258.843L275.614 259.093L274.924 261.894C274.464 263.72 274.2 264.702 274.13 264.841C273.949 265.217 273.649 265.406 273.231 265.406C273.05 265.406 272.904 265.364 272.792 265.28C272.681 265.197 272.604 265.113 272.562 265.029C272.52 264.946 272.507 264.876 272.52 264.82C272.52 264.639 272.785 263.504 273.315 261.413C273.844 259.323 274.123 258.188 274.151 258.007C274.165 257.937 274.172 257.777 274.172 257.526C274.172 256.982 274.004 256.711 273.67 256.711C273.141 256.711 272.702 257.407 272.353 258.801C272.27 259.08 272.228 259.226 272.228 259.24C272.2 259.323 272.068 259.365 271.831 259.365H271.538C271.455 259.282 271.413 259.219 271.413 259.177Z" fill="#D9EBFF"/>
<path d="M285.13 261.984C284.864 261.984 284.652 261.895 284.495 261.718C284.337 261.54 284.258 261.324 284.258 261.068C284.258 260.368 284.519 259.762 285.041 259.25C285.564 258.738 286.214 258.482 286.992 258.482C287.888 258.482 288.637 258.758 289.238 259.309C289.839 259.861 290.144 260.575 290.154 261.452C290.154 261.875 290.056 262.279 289.859 262.664C289.662 263.048 289.425 263.383 289.149 263.668C288.874 263.954 288.479 264.319 287.967 264.762C287.613 265.067 287.12 265.52 286.49 266.121L285.618 266.949L286.741 266.964C288.287 266.964 289.11 266.939 289.208 266.89C289.277 266.87 289.396 266.432 289.563 265.575V265.53H290.154V265.575C290.144 265.604 290.08 266.052 289.962 266.919C289.844 267.786 289.77 268.239 289.74 268.279V268.323H284.258V267.865C284.258 267.796 284.288 267.722 284.347 267.643C284.406 267.565 284.554 267.392 284.79 267.126C285.076 266.811 285.322 266.535 285.529 266.299C285.618 266.2 285.785 266.018 286.031 265.752C286.278 265.486 286.445 265.304 286.534 265.205C286.623 265.107 286.765 264.944 286.962 264.718C287.159 264.491 287.297 264.323 287.376 264.215C287.455 264.107 287.568 263.959 287.716 263.772C287.864 263.585 287.967 263.427 288.026 263.299C288.085 263.171 288.159 263.028 288.248 262.87C288.337 262.713 288.401 262.555 288.44 262.398C288.479 262.24 288.514 262.092 288.544 261.954C288.573 261.816 288.588 261.654 288.588 261.467C288.588 260.846 288.42 260.309 288.085 259.856C287.75 259.403 287.273 259.176 286.652 259.176C286.327 259.176 286.041 259.26 285.795 259.427C285.549 259.595 285.376 259.757 285.278 259.915C285.179 260.073 285.13 260.166 285.13 260.196C285.13 260.206 285.155 260.211 285.204 260.211C285.381 260.211 285.564 260.28 285.751 260.417C285.938 260.555 286.031 260.782 286.031 261.097C286.031 261.343 285.953 261.55 285.795 261.718C285.637 261.885 285.416 261.974 285.13 261.984Z" fill="#D9EBFF"/>
<path d="M294.634 264.444C294.634 264.444 294.634 264.27 294.634 263.922C294.634 263.573 294.745 263.274 294.968 263.023C295.191 262.772 295.49 262.647 295.867 262.647C296.257 262.647 296.605 262.821 296.912 263.169C297.218 263.517 297.379 264.131 297.392 265.008C297.392 265.496 297.33 265.97 297.204 266.43C297.079 266.889 296.933 267.287 296.765 267.621C296.598 267.955 296.417 268.241 296.222 268.478C296.027 268.715 295.86 268.903 295.72 269.042C295.581 269.182 295.49 269.244 295.449 269.23C295.393 269.23 295.302 269.168 295.177 269.042C295.052 268.917 294.989 268.826 294.989 268.771C294.989 268.715 295.065 268.603 295.219 268.436C295.372 268.269 295.546 268.06 295.741 267.809C295.936 267.558 296.117 267.21 296.285 266.764C296.452 266.318 296.563 265.81 296.619 265.238V264.987L296.598 265.008C296.57 265.022 296.535 265.036 296.494 265.05C296.452 265.064 296.41 265.085 296.368 265.113C296.326 265.141 296.264 265.155 296.18 265.155C296.097 265.155 296.013 265.162 295.929 265.176C295.553 265.176 295.247 265.057 295.01 264.82L294.634 264.444Z" fill="#D9EBFF"/>
<path d="M302.743 259.177C302.757 259.093 302.778 258.982 302.806 258.843C302.834 258.703 302.917 258.439 303.057 258.048C303.196 257.658 303.335 257.331 303.475 257.066C303.614 256.801 303.844 256.544 304.164 256.293C304.485 256.042 304.805 255.924 305.126 255.937C305.627 255.937 306.045 256.063 306.38 256.314C306.714 256.564 306.923 256.801 307.007 257.024C307.09 257.247 307.132 257.394 307.132 257.463C307.132 257.491 307.139 257.505 307.153 257.505L307.383 257.275C308.233 256.383 309.201 255.937 310.288 255.937C311.041 255.937 311.647 256.126 312.107 256.502C312.566 256.878 312.803 257.428 312.817 258.153C312.831 258.877 312.566 259.971 312.023 261.434C311.48 262.897 311.215 263.782 311.229 264.089C311.229 264.451 311.347 264.632 311.584 264.632C311.668 264.632 311.73 264.625 311.772 264.611C312.176 264.542 312.539 264.277 312.859 263.817C313.18 263.357 313.423 262.8 313.591 262.145C313.618 262.034 313.758 261.978 314.009 261.978C314.287 261.978 314.427 262.034 314.427 262.145C314.427 262.159 314.399 262.263 314.343 262.458C314.232 262.863 314.078 263.26 313.883 263.65C313.688 264.04 313.368 264.43 312.922 264.82C312.476 265.21 311.995 265.399 311.48 265.385C310.825 265.385 310.351 265.197 310.058 264.82C309.766 264.444 309.619 264.054 309.619 263.65C309.619 263.385 309.87 262.549 310.372 261.142C310.873 259.734 311.131 258.675 311.145 257.965C311.145 257.143 310.839 256.732 310.226 256.732H310.121C308.923 256.732 307.913 257.435 307.09 258.843L306.944 259.093L306.254 261.894C305.795 263.72 305.53 264.702 305.46 264.841C305.279 265.217 304.979 265.406 304.561 265.406C304.38 265.406 304.234 265.364 304.122 265.28C304.011 265.197 303.934 265.113 303.893 265.029C303.851 264.946 303.837 264.876 303.851 264.82C303.851 264.639 304.116 263.504 304.645 261.413C305.175 259.323 305.453 258.188 305.481 258.007C305.495 257.937 305.502 257.777 305.502 257.526C305.502 256.982 305.335 256.711 305 256.711C304.471 256.711 304.032 257.407 303.684 258.801C303.6 259.08 303.558 259.226 303.558 259.24C303.53 259.323 303.398 259.365 303.161 259.365H302.868C302.785 259.282 302.743 259.219 302.743 259.177Z" fill="#D9EBFF"/>
<path d="M316.726 261.481C316.46 261.481 316.253 261.398 316.106 261.23C315.958 261.063 315.879 260.846 315.869 260.58C315.869 260.038 316.106 259.555 316.579 259.132C317.051 258.708 317.623 258.496 318.293 258.496C318.637 258.496 318.854 258.501 318.943 258.511C319.672 258.629 320.228 258.891 320.613 259.294C320.997 259.698 321.194 260.137 321.204 260.61C321.204 261.122 321.036 261.619 320.701 262.102C320.366 262.585 319.903 262.934 319.312 263.151L319.268 263.181C319.268 263.191 319.312 263.205 319.401 263.225C319.49 263.245 319.632 263.289 319.829 263.358C320.027 263.427 320.214 263.53 320.391 263.668C321.199 264.19 321.603 264.88 321.603 265.737C321.603 266.515 321.297 267.195 320.687 267.776C320.076 268.358 319.302 268.648 318.367 268.648C317.578 268.648 316.899 268.436 316.327 268.013C315.756 267.589 315.47 267.052 315.47 266.402C315.47 266.126 315.559 265.905 315.736 265.737C315.914 265.57 316.135 265.481 316.401 265.471C316.677 265.471 316.904 265.56 317.081 265.737C317.258 265.914 317.347 266.136 317.347 266.402C317.347 266.51 317.332 266.609 317.303 266.698C317.273 266.786 317.239 266.865 317.199 266.934C317.16 267.003 317.106 267.062 317.037 267.111C316.968 267.161 316.909 267.2 316.859 267.23C316.81 267.259 316.761 267.279 316.712 267.289C316.662 267.299 316.623 267.313 316.593 267.333L316.534 267.348C317.037 267.791 317.647 268.013 318.367 268.013C318.908 268.013 319.317 267.752 319.593 267.23C319.761 266.904 319.844 266.407 319.844 265.737V265.442C319.844 264.506 319.529 263.88 318.899 263.565C318.751 263.506 318.45 263.471 317.997 263.461L317.377 263.447L317.332 263.417C317.312 263.388 317.303 263.309 317.303 263.181C317.303 263.003 317.342 262.915 317.421 262.915C317.697 262.915 317.982 262.89 318.278 262.841C318.613 262.792 318.918 262.585 319.194 262.22C319.47 261.856 319.608 261.304 319.608 260.565V260.447C319.608 259.885 319.435 259.496 319.091 259.28C318.874 259.142 318.642 259.073 318.396 259.073C318.081 259.073 317.79 259.127 317.524 259.235C317.258 259.344 317.071 259.457 316.963 259.575C316.854 259.693 316.8 259.752 316.8 259.752H316.845C316.874 259.762 316.914 259.772 316.963 259.782C317.012 259.792 317.061 259.817 317.111 259.856C317.16 259.895 317.219 259.93 317.288 259.959C317.357 259.989 317.406 260.043 317.436 260.122C317.465 260.201 317.505 260.275 317.554 260.344C317.603 260.413 317.618 260.511 317.598 260.639C317.598 260.856 317.529 261.048 317.391 261.215C317.253 261.383 317.032 261.472 316.726 261.481Z" fill="#D9EBFF"/>
<path d="M325.985 264.444C325.985 264.444 325.985 264.27 325.985 263.922C325.985 263.573 326.096 263.274 326.319 263.023C326.542 262.772 326.842 262.647 327.218 262.647C327.608 262.647 327.956 262.821 328.263 263.169C328.569 263.517 328.73 264.131 328.744 265.008C328.744 265.496 328.681 265.97 328.556 266.43C328.43 266.889 328.284 267.287 328.117 267.621C327.949 267.955 327.768 268.241 327.573 268.478C327.378 268.715 327.211 268.903 327.072 269.042C326.932 269.182 326.842 269.244 326.8 269.23C326.744 269.23 326.654 269.168 326.528 269.042C326.403 268.917 326.34 268.826 326.34 268.771C326.34 268.715 326.417 268.603 326.57 268.436C326.723 268.269 326.897 268.06 327.092 267.809C327.288 267.558 327.469 267.21 327.636 266.764C327.803 266.318 327.915 265.81 327.97 265.238V264.987L327.949 265.008C327.922 265.022 327.887 265.036 327.845 265.05C327.803 265.064 327.761 265.085 327.72 265.113C327.678 265.141 327.615 265.155 327.531 265.155C327.448 265.155 327.364 265.162 327.281 265.176C326.904 265.176 326.598 265.057 326.361 264.82L325.985 264.444Z" fill="#D9EBFF"/>
<path d="M334.094 259.177C334.108 259.093 334.129 258.982 334.157 258.843C334.185 258.703 334.268 258.439 334.408 258.048C334.547 257.658 334.686 257.331 334.826 257.066C334.965 256.801 335.195 256.544 335.515 256.293C335.836 256.042 336.156 255.924 336.477 255.937C336.979 255.937 337.397 256.063 337.731 256.314C338.065 256.564 338.274 256.801 338.358 257.024C338.442 257.247 338.483 257.394 338.483 257.463C338.483 257.491 338.49 257.505 338.504 257.505L338.734 257.275C339.584 256.383 340.553 255.937 341.639 255.937C342.392 255.937 342.998 256.126 343.458 256.502C343.918 256.878 344.154 257.428 344.168 258.153C344.182 258.877 343.918 259.971 343.374 261.434C342.831 262.897 342.566 263.782 342.58 264.089C342.58 264.451 342.698 264.632 342.935 264.632C343.019 264.632 343.082 264.625 343.123 264.611C343.527 264.542 343.89 264.277 344.21 263.817C344.531 263.357 344.775 262.8 344.942 262.145C344.97 262.034 345.109 261.978 345.36 261.978C345.638 261.978 345.778 262.034 345.778 262.145C345.778 262.159 345.75 262.263 345.694 262.458C345.583 262.863 345.429 263.26 345.234 263.65C345.039 264.04 344.719 264.43 344.273 264.82C343.827 265.21 343.346 265.399 342.831 265.385C342.176 265.385 341.702 265.197 341.41 264.82C341.117 264.444 340.971 264.054 340.971 263.65C340.971 263.385 341.221 262.549 341.723 261.142C342.225 259.734 342.482 258.675 342.496 257.965C342.496 257.143 342.19 256.732 341.577 256.732H341.472C340.274 256.732 339.264 257.435 338.442 258.843L338.295 259.093L337.606 261.894C337.146 263.72 336.881 264.702 336.811 264.841C336.63 265.217 336.331 265.406 335.913 265.406C335.731 265.406 335.585 265.364 335.474 265.28C335.362 265.197 335.286 265.113 335.244 265.029C335.202 264.946 335.188 264.876 335.202 264.82C335.202 264.639 335.467 263.504 335.996 261.413C336.526 259.323 336.804 258.188 336.832 258.007C336.846 257.937 336.853 257.777 336.853 257.526C336.853 256.982 336.686 256.711 336.352 256.711C335.822 256.711 335.383 257.407 335.035 258.801C334.951 259.08 334.909 259.226 334.909 259.24C334.881 259.323 334.749 259.365 334.512 259.365H334.22C334.136 259.282 334.094 259.219 334.094 259.177Z" fill="#D9EBFF"/>
<path d="M353.028 268.323C352.85 268.294 352.215 268.279 351.122 268.279C349.979 268.279 349.319 268.294 349.141 268.323H349.008V267.643H349.467C349.664 267.643 349.797 267.643 349.866 267.643C349.934 267.643 350.018 267.633 350.117 267.614C350.215 267.594 350.284 267.569 350.324 267.54C350.363 267.51 350.398 267.471 350.427 267.422C350.437 267.402 350.442 267.136 350.442 266.624V265.885H346.615V265.205L348.846 261.792C350.353 259.506 351.117 258.359 351.136 258.349C351.156 258.329 351.259 258.319 351.447 258.319H351.713L351.801 258.408V265.205H353.161V265.885H351.801V266.639C351.801 267.042 351.801 267.279 351.801 267.348C351.801 267.417 351.831 267.476 351.89 267.525C351.969 267.594 352.25 267.633 352.732 267.643H353.161V268.323H353.028ZM350.531 265.205V260.27L347.294 265.19L348.905 265.205H350.531Z" fill="#D9EBFF"/>
<path d="M357.315 264.444C357.315 264.444 357.315 264.27 357.315 263.922C357.315 263.573 357.427 263.274 357.649 263.023C357.872 262.772 358.172 262.647 358.548 262.647C358.938 262.647 359.287 262.821 359.593 263.169C359.9 263.517 360.06 264.131 360.074 265.008C360.074 265.496 360.011 265.97 359.886 266.43C359.76 266.889 359.614 267.287 359.447 267.621C359.28 267.955 359.099 268.241 358.903 268.478C358.708 268.715 358.541 268.903 358.402 269.042C358.263 269.182 358.172 269.244 358.13 269.23C358.074 269.23 357.984 269.168 357.858 269.042C357.733 268.917 357.67 268.826 357.67 268.771C357.67 268.715 357.747 268.603 357.9 268.436C358.054 268.269 358.228 268.06 358.423 267.809C358.618 267.558 358.799 267.21 358.966 266.764C359.133 266.318 359.245 265.81 359.301 265.238V264.987L359.28 265.008C359.252 265.022 359.217 265.036 359.175 265.05C359.133 265.064 359.092 265.085 359.05 265.113C359.008 265.141 358.945 265.155 358.862 265.155C358.778 265.155 358.694 265.162 358.611 265.176C358.235 265.176 357.928 265.057 357.691 264.82L357.315 264.444Z" fill="#D9EBFF"/>
<path d="M365.425 259.177C365.438 259.093 365.459 258.982 365.487 258.843C365.515 258.703 365.599 258.439 365.738 258.048C365.877 257.658 366.017 257.331 366.156 257.066C366.295 256.801 366.525 256.544 366.846 256.293C367.166 256.042 367.487 255.924 367.807 255.937C368.309 255.937 368.727 256.063 369.061 256.314C369.396 256.564 369.605 256.801 369.688 257.024C369.772 257.247 369.814 257.394 369.814 257.463C369.814 257.491 369.821 257.505 369.835 257.505L370.065 257.275C370.914 256.383 371.883 255.937 372.97 255.937C373.722 255.937 374.328 256.126 374.788 256.502C375.248 256.878 375.485 257.428 375.499 258.153C375.513 258.877 375.248 259.971 374.704 261.434C374.161 262.897 373.896 263.782 373.91 264.089C373.91 264.451 374.029 264.632 374.266 264.632C374.349 264.632 374.412 264.625 374.454 264.611C374.858 264.542 375.22 264.277 375.541 263.817C375.861 263.357 376.105 262.8 376.272 262.145C376.3 262.034 376.439 261.978 376.69 261.978C376.969 261.978 377.108 262.034 377.108 262.145C377.108 262.159 377.08 262.263 377.024 262.458C376.913 262.863 376.76 263.26 376.565 263.65C376.37 264.04 376.049 264.43 375.603 264.82C375.157 265.21 374.677 265.399 374.161 265.385C373.506 265.385 373.032 265.197 372.74 264.82C372.447 264.444 372.301 264.054 372.301 263.65C372.301 263.385 372.552 262.549 373.053 261.142C373.555 259.734 373.813 258.675 373.827 257.965C373.827 257.143 373.52 256.732 372.907 256.732H372.803C371.604 256.732 370.594 257.435 369.772 258.843L369.626 259.093L368.936 261.894C368.476 263.72 368.211 264.702 368.142 264.841C367.961 265.217 367.661 265.406 367.243 265.406C367.062 265.406 366.915 265.364 366.804 265.28C366.693 265.197 366.616 265.113 366.574 265.029C366.532 264.946 366.518 264.876 366.532 264.82C366.532 264.639 366.797 263.504 367.327 261.413C367.856 259.323 368.135 258.188 368.163 258.007C368.176 257.937 368.183 257.777 368.183 257.526C368.183 256.982 368.016 256.711 367.682 256.711C367.152 256.711 366.713 257.407 366.365 258.801C366.281 259.08 366.24 259.226 366.24 259.24C366.212 259.323 366.079 259.365 365.843 259.365H365.55C365.466 259.282 365.425 259.219 365.425 259.177Z" fill="#D9EBFF"/>
<path d="M379.955 266.003C379.955 266.24 379.876 266.437 379.718 266.594C379.561 266.752 379.368 266.831 379.142 266.831H379.038C379.492 267.609 380.093 267.998 380.841 267.998C381.531 267.998 382.033 267.702 382.348 267.111C382.536 266.786 382.629 266.156 382.629 265.22C382.629 264.205 382.496 263.521 382.23 263.166C381.974 262.841 381.688 262.678 381.373 262.678H381.285C380.516 262.678 379.935 263.013 379.541 263.683C379.501 263.752 379.467 263.792 379.437 263.801C379.408 263.811 379.334 263.821 379.216 263.831C379.048 263.831 378.955 263.801 378.935 263.742C378.915 263.703 378.905 262.841 378.905 261.156V259.25C378.905 258.758 378.93 258.511 378.979 258.511C378.999 258.492 379.019 258.482 379.038 258.482C379.048 258.482 379.152 258.521 379.349 258.6C379.546 258.679 379.817 258.758 380.161 258.836C380.506 258.915 380.876 258.955 381.27 258.955C381.969 258.955 382.639 258.817 383.279 258.541C383.358 258.501 383.422 258.482 383.471 258.482C383.55 258.482 383.59 258.57 383.59 258.748V258.94C382.782 259.895 381.772 260.373 380.56 260.373C380.255 260.373 379.979 260.344 379.733 260.284L379.585 260.255V262.797C379.772 262.659 379.92 262.55 380.028 262.471C380.137 262.393 380.314 262.314 380.56 262.235C380.807 262.156 381.058 262.117 381.314 262.117C382.112 262.117 382.787 262.437 383.338 263.077C383.89 263.718 384.166 264.476 384.166 265.353C384.166 266.259 383.851 267.033 383.22 267.673C382.59 268.313 381.821 268.638 380.915 268.648C380.117 268.648 379.477 268.382 378.994 267.85C378.511 267.318 378.27 266.717 378.27 266.047C378.27 265.811 378.324 265.624 378.433 265.486C378.541 265.348 378.654 265.259 378.772 265.22C378.891 265.181 379.004 265.161 379.112 265.161C379.359 265.161 379.561 265.245 379.718 265.412C379.876 265.58 379.955 265.777 379.955 266.003Z" fill="#D9EBFF"/>
<path d="M388.666 264.444C388.666 264.444 388.666 264.27 388.666 263.922C388.666 263.573 388.778 263.274 389.001 263.023C389.224 262.772 389.523 262.647 389.899 262.647C390.29 262.647 390.638 262.821 390.944 263.169C391.251 263.517 391.411 264.131 391.425 265.008C391.425 265.496 391.362 265.97 391.237 266.43C391.112 266.889 390.965 267.287 390.798 267.621C390.631 267.955 390.45 268.241 390.255 268.478C390.06 268.715 389.892 268.903 389.753 269.042C389.614 269.182 389.523 269.244 389.481 269.23C389.426 269.23 389.335 269.168 389.21 269.042C389.084 268.917 389.022 268.826 389.022 268.771C389.022 268.715 389.098 268.603 389.251 268.436C389.405 268.269 389.579 268.06 389.774 267.809C389.969 267.558 390.15 267.21 390.317 266.764C390.485 266.318 390.596 265.81 390.652 265.238V264.987L390.631 265.008C390.603 265.022 390.568 265.036 390.526 265.05C390.485 265.064 390.443 265.085 390.401 265.113C390.359 265.141 390.297 265.155 390.213 265.155C390.129 265.155 390.046 265.162 389.962 265.176C389.586 265.176 389.279 265.057 389.042 264.82L388.666 264.444Z" fill="#D9EBFF"/>
<path d="M396.776 259.177C396.79 259.093 396.811 258.982 396.838 258.843C396.866 258.703 396.95 258.439 397.089 258.048C397.229 257.658 397.368 257.331 397.507 257.066C397.647 256.801 397.877 256.544 398.197 256.293C398.517 256.042 398.838 255.924 399.158 255.937C399.66 255.937 400.078 256.063 400.412 256.314C400.747 256.564 400.956 256.801 401.04 257.024C401.123 257.247 401.165 257.394 401.165 257.463C401.165 257.491 401.172 257.505 401.186 257.505L401.416 257.275C402.266 256.383 403.234 255.937 404.321 255.937C405.073 255.937 405.679 256.126 406.139 256.502C406.599 256.878 406.836 257.428 406.85 258.153C406.864 258.877 406.599 259.971 406.056 261.434C405.512 262.897 405.248 263.782 405.261 264.089C405.261 264.451 405.38 264.632 405.617 264.632C405.7 264.632 405.763 264.625 405.805 264.611C406.209 264.542 406.571 264.277 406.892 263.817C407.212 263.357 407.456 262.8 407.623 262.145C407.651 262.034 407.79 261.978 408.041 261.978C408.32 261.978 408.459 262.034 408.459 262.145C408.459 262.159 408.431 262.263 408.376 262.458C408.264 262.863 408.111 263.26 407.916 263.65C407.721 264.04 407.4 264.43 406.954 264.82C406.509 265.21 406.028 265.399 405.512 265.385C404.857 265.385 404.384 265.197 404.091 264.82C403.798 264.444 403.652 264.054 403.652 263.65C403.652 263.385 403.903 262.549 404.405 261.142C404.906 259.734 405.164 258.675 405.178 257.965C405.178 257.143 404.871 256.732 404.258 256.732H404.154C402.955 256.732 401.945 257.435 401.123 258.843L400.977 259.093L400.287 261.894C399.827 263.72 399.563 264.702 399.493 264.841C399.312 265.217 399.012 265.406 398.594 265.406C398.413 265.406 398.267 265.364 398.155 265.28C398.044 265.197 397.967 265.113 397.925 265.029C397.883 264.946 397.87 264.876 397.883 264.82C397.883 264.639 398.148 263.504 398.678 261.413C399.207 259.323 399.486 258.188 399.514 258.007C399.528 257.937 399.535 257.777 399.535 257.526C399.535 256.982 399.367 256.711 399.033 256.711C398.504 256.711 398.065 257.407 397.716 258.801C397.633 259.08 397.591 259.226 397.591 259.24C397.563 259.323 397.431 259.365 397.194 259.365H396.901C396.818 259.282 396.776 259.219 396.776 259.177Z" fill="#D9EBFF"/>
<path d="M409.503 263.698C409.503 262.092 409.902 260.821 410.7 259.885C411.498 258.95 412.384 258.482 413.36 258.482C414.04 258.482 414.527 258.659 414.823 259.014C415.118 259.368 415.266 259.762 415.266 260.196C415.266 260.442 415.197 260.639 415.059 260.787C414.921 260.935 414.729 261.009 414.483 261.009C414.256 261.009 414.069 260.94 413.921 260.802C413.774 260.664 413.7 260.472 413.7 260.225C413.7 259.792 413.931 259.531 414.394 259.442C414.177 259.225 413.872 259.102 413.478 259.073C412.779 259.073 412.202 259.368 411.749 259.959C411.286 260.61 411.055 261.605 411.055 262.944L411.069 263.003C411.119 262.944 411.158 262.88 411.188 262.811C411.591 262.22 412.119 261.925 412.769 261.925H412.828C413.281 261.925 413.68 262.018 414.025 262.205C414.261 262.343 414.498 262.54 414.734 262.797C414.97 263.053 415.163 263.333 415.31 263.639C415.517 264.122 415.621 264.649 415.621 265.22V265.486C415.621 265.712 415.596 265.924 415.547 266.121C415.438 266.703 415.123 267.269 414.601 267.821C414.079 268.372 413.419 268.648 412.621 268.648C412.345 268.648 412.079 268.609 411.823 268.53C411.567 268.451 411.291 268.303 410.995 268.087C410.7 267.87 410.449 267.579 410.242 267.215C410.035 266.85 409.858 266.373 409.71 265.781C409.562 265.19 409.493 264.496 409.503 263.698ZM412.68 262.457C412.384 262.457 412.128 262.54 411.912 262.708C411.695 262.875 411.527 263.097 411.409 263.373C411.291 263.649 411.207 263.929 411.158 264.215C411.109 264.501 411.079 264.806 411.069 265.131C411.069 265.949 411.128 266.535 411.247 266.89C411.365 267.244 411.552 267.53 411.808 267.747C412.045 267.924 412.306 268.013 412.591 268.013C413.094 268.013 413.478 267.826 413.744 267.451C413.872 267.274 413.961 267.052 414.01 266.786C414.059 266.52 414.084 266.003 414.084 265.235C414.084 264.447 414.059 263.92 414.01 263.654C413.961 263.388 413.872 263.166 413.744 262.989C413.478 262.634 413.123 262.457 412.68 262.457Z" fill="#D9EBFF"/>
<path d="M419.997 264.444C419.997 264.444 419.997 264.27 419.997 263.922C419.997 263.573 420.108 263.274 420.331 263.023C420.554 262.772 420.853 262.647 421.23 262.647C421.62 262.647 421.968 262.821 422.275 263.169C422.581 263.517 422.742 264.131 422.755 265.008C422.755 265.496 422.693 265.97 422.567 266.43C422.442 266.889 422.296 267.287 422.128 267.621C421.961 267.955 421.78 268.241 421.585 268.478C421.39 268.715 421.223 268.903 421.083 269.042C420.944 269.182 420.853 269.244 420.812 269.23C420.756 269.23 420.665 269.168 420.54 269.042C420.415 268.917 420.352 268.826 420.352 268.771C420.352 268.715 420.429 268.603 420.582 268.436C420.735 268.269 420.909 268.06 421.104 267.809C421.299 267.558 421.48 267.21 421.648 266.764C421.815 266.318 421.926 265.81 421.982 265.238V264.987L421.961 265.008C421.933 265.022 421.899 265.036 421.857 265.05C421.815 265.064 421.773 265.085 421.731 265.113C421.69 265.141 421.627 265.155 421.543 265.155C421.46 265.155 421.376 265.162 421.292 265.176C420.916 265.176 420.61 265.057 420.373 264.82L419.997 264.444Z" fill="#D9EBFF"/>
<path d="M428.106 259.177C428.12 259.093 428.141 258.982 428.169 258.843C428.197 258.703 428.28 258.439 428.42 258.048C428.559 257.658 428.698 257.331 428.838 257.066C428.977 256.801 429.207 256.544 429.527 256.293C429.848 256.042 430.168 255.924 430.489 255.937C430.99 255.937 431.408 256.063 431.743 256.314C432.077 256.564 432.286 256.801 432.37 257.024C432.453 257.247 432.495 257.394 432.495 257.463C432.495 257.491 432.502 257.505 432.516 257.505L432.746 257.275C433.596 256.383 434.564 255.937 435.651 255.937C436.404 255.937 437.01 256.126 437.47 256.502C437.929 256.878 438.166 257.428 438.18 258.153C438.194 258.877 437.929 259.971 437.386 261.434C436.843 262.897 436.578 263.782 436.592 264.089C436.592 264.451 436.71 264.632 436.947 264.632C437.031 264.632 437.093 264.625 437.135 264.611C437.539 264.542 437.902 264.277 438.222 263.817C438.543 263.357 438.786 262.8 438.954 262.145C438.981 262.034 439.121 261.978 439.372 261.978C439.65 261.978 439.79 262.034 439.79 262.145C439.79 262.159 439.762 262.263 439.706 262.458C439.595 262.863 439.441 263.26 439.246 263.65C439.051 264.04 438.731 264.43 438.285 264.82C437.839 265.21 437.358 265.399 436.843 265.385C436.188 265.385 435.714 265.197 435.421 264.82C435.129 264.444 434.982 264.054 434.982 263.65C434.982 263.385 435.233 262.549 435.735 261.142C436.236 259.734 436.494 258.675 436.508 257.965C436.508 257.143 436.202 256.732 435.589 256.732H435.484C434.286 256.732 433.276 257.435 432.453 258.843L432.307 259.093L431.617 261.894C431.158 263.72 430.893 264.702 430.823 264.841C430.642 265.217 430.342 265.406 429.924 265.406C429.743 265.406 429.597 265.364 429.486 265.28C429.374 265.197 429.297 265.113 429.256 265.029C429.214 264.946 429.2 264.876 429.214 264.82C429.214 264.639 429.479 263.504 430.008 261.413C430.538 259.323 430.816 258.188 430.844 258.007C430.858 257.937 430.865 257.777 430.865 257.526C430.865 256.982 430.698 256.711 430.363 256.711C429.834 256.711 429.395 257.407 429.047 258.801C428.963 259.08 428.921 259.226 428.921 259.24C428.893 259.323 428.761 259.365 428.524 259.365H428.231C428.148 259.282 428.106 259.219 428.106 259.177Z" fill="#D9EBFF"/>
<path d="M441.025 261.555C441.035 261.536 441.119 260.999 441.277 259.945L441.513 258.363C441.513 258.344 441.612 258.334 441.809 258.334H442.104V258.393C442.104 258.492 442.178 258.575 442.326 258.644C442.474 258.713 442.73 258.758 443.094 258.777C443.459 258.797 444.291 258.807 445.591 258.807H447.379V259.383L446.375 260.757C446.286 260.876 446.138 261.073 445.931 261.348C445.724 261.624 445.591 261.806 445.532 261.895C445.473 261.984 445.37 262.141 445.222 262.368C445.074 262.595 444.976 262.772 444.927 262.9C444.877 263.028 444.808 263.21 444.72 263.447C444.631 263.683 444.567 263.91 444.528 264.126C444.488 264.343 444.449 264.609 444.409 264.924C444.37 265.24 444.34 265.575 444.321 265.929C444.301 266.284 444.286 266.688 444.276 267.141C444.276 267.279 444.276 267.417 444.276 267.555C444.276 267.693 444.271 267.811 444.262 267.909V268.042C444.222 268.21 444.129 268.353 443.981 268.471C443.833 268.589 443.666 268.648 443.478 268.648C443.37 268.648 443.267 268.633 443.168 268.604C443.07 268.574 442.966 268.481 442.858 268.323C442.749 268.165 442.695 267.968 442.695 267.732C442.695 266.176 443.173 264.56 444.129 262.885C444.326 262.57 444.739 261.974 445.37 261.097L446.05 260.166H444.675C442.961 260.166 442.06 260.196 441.971 260.255C441.912 260.284 441.858 260.403 441.809 260.61C441.759 260.816 441.71 261.028 441.661 261.245L441.616 261.555V261.6H441.025V261.555Z" fill="#D9EBFF"/>
<path d="M451.348 264.444C451.348 264.444 451.348 264.27 451.348 263.922C451.348 263.573 451.459 263.274 451.682 263.023C451.905 262.772 452.205 262.647 452.581 262.647C452.971 262.647 453.319 262.821 453.626 263.169C453.932 263.517 454.093 264.131 454.107 265.008C454.107 265.496 454.044 265.97 453.919 266.43C453.793 266.889 453.647 267.287 453.48 267.621C453.312 267.955 453.131 268.241 452.936 268.478C452.741 268.715 452.574 268.903 452.435 269.042C452.295 269.182 452.205 269.244 452.163 269.23C452.107 269.23 452.017 269.168 451.891 269.042C451.766 268.917 451.703 268.826 451.703 268.771C451.703 268.715 451.78 268.603 451.933 268.436C452.086 268.269 452.26 268.06 452.456 267.809C452.651 267.558 452.832 267.21 452.999 266.764C453.166 266.318 453.278 265.81 453.333 265.238V264.987L453.312 265.008C453.285 265.022 453.25 265.036 453.208 265.05C453.166 265.064 453.124 265.085 453.083 265.113C453.041 265.141 452.978 265.155 452.894 265.155C452.811 265.155 452.727 265.162 452.644 265.176C452.267 265.176 451.961 265.057 451.724 264.82L451.348 264.444Z" fill="#D9EBFF"/>
<path d="M459.457 259.177C459.471 259.093 459.492 258.982 459.52 258.843C459.548 258.703 459.631 258.439 459.771 258.048C459.91 257.658 460.049 257.331 460.189 257.066C460.328 256.801 460.558 256.544 460.879 256.293C461.199 256.042 461.519 255.924 461.84 255.937C462.342 255.937 462.76 256.063 463.094 256.314C463.428 256.564 463.637 256.801 463.721 257.024C463.805 257.247 463.846 257.394 463.846 257.463C463.846 257.491 463.853 257.505 463.867 257.505L464.097 257.275C464.947 256.383 465.916 255.937 467.002 255.937C467.755 255.937 468.361 256.126 468.821 256.502C469.281 256.878 469.517 257.428 469.531 258.153C469.545 258.877 469.281 259.971 468.737 261.434C468.194 262.897 467.929 263.782 467.943 264.089C467.943 264.451 468.061 264.632 468.298 264.632C468.382 264.632 468.445 264.625 468.486 264.611C468.89 264.542 469.253 264.277 469.573 263.817C469.894 263.357 470.138 262.8 470.305 262.145C470.333 262.034 470.472 261.978 470.723 261.978C471.001 261.978 471.141 262.034 471.141 262.145C471.141 262.159 471.113 262.263 471.057 262.458C470.946 262.863 470.792 263.26 470.597 263.65C470.402 264.04 470.082 264.43 469.636 264.82C469.19 265.21 468.709 265.399 468.194 265.385C467.539 265.385 467.065 265.197 466.773 264.82C466.48 264.444 466.334 264.054 466.334 263.65C466.334 263.385 466.584 262.549 467.086 261.142C467.588 259.734 467.845 258.675 467.859 257.965C467.859 257.143 467.553 256.732 466.94 256.732H466.835C465.637 256.732 464.627 257.435 463.805 258.843L463.658 259.093L462.969 261.894C462.509 263.72 462.244 264.702 462.174 264.841C461.993 265.217 461.694 265.406 461.276 265.406C461.094 265.406 460.948 265.364 460.837 265.28C460.725 265.197 460.649 265.113 460.607 265.029C460.565 264.946 460.551 264.876 460.565 264.82C460.565 264.639 460.83 263.504 461.359 261.413C461.889 259.323 462.167 258.188 462.195 258.007C462.209 257.937 462.216 257.777 462.216 257.526C462.216 256.982 462.049 256.711 461.715 256.711C461.185 256.711 460.746 257.407 460.398 258.801C460.314 259.08 460.272 259.226 460.272 259.24C460.245 259.323 460.112 259.365 459.875 259.365H459.583C459.499 259.282 459.457 259.219 459.457 259.177Z" fill="#D9EBFF"/>
<path d="M478.391 268.323C478.213 268.294 477.578 268.279 476.485 268.279C475.342 268.279 474.682 268.294 474.504 268.323H474.371V267.643H474.83C475.027 267.643 475.16 267.643 475.229 267.643C475.298 267.643 475.381 267.633 475.48 267.614C475.578 267.594 475.647 267.569 475.687 267.54C475.726 267.51 475.761 267.471 475.79 267.422C475.8 267.402 475.805 267.136 475.805 266.624V265.885H471.978V265.205L474.209 261.792C475.716 259.506 476.48 258.359 476.499 258.349C476.519 258.329 476.622 258.319 476.81 258.319H477.076L477.164 258.408V265.205H478.524V265.885H477.164V266.639C477.164 267.042 477.164 267.279 477.164 267.348C477.164 267.417 477.194 267.476 477.253 267.525C477.332 267.594 477.613 267.633 478.095 267.643H478.524V268.323H478.391ZM475.894 265.205V260.27L472.657 265.19L474.268 265.205H475.894Z" fill="#D9EBFF"/>
<path d="M482.678 264.444C482.678 264.444 482.678 264.27 482.678 263.922C482.678 263.573 482.79 263.274 483.012 263.023C483.235 262.772 483.535 262.647 483.911 262.647C484.301 262.647 484.65 262.821 484.956 263.169C485.263 263.517 485.423 264.131 485.437 265.008C485.437 265.496 485.374 265.97 485.249 266.43C485.123 266.889 484.977 267.287 484.81 267.621C484.643 267.955 484.462 268.241 484.267 268.478C484.071 268.715 483.904 268.903 483.765 269.042C483.626 269.182 483.535 269.244 483.493 269.23C483.437 269.23 483.347 269.168 483.221 269.042C483.096 268.917 483.033 268.826 483.033 268.771C483.033 268.715 483.11 268.603 483.263 268.436C483.417 268.269 483.591 268.06 483.786 267.809C483.981 267.558 484.162 267.21 484.329 266.764C484.496 266.318 484.608 265.81 484.664 265.238V264.987L484.643 265.008C484.615 265.022 484.58 265.036 484.538 265.05C484.496 265.064 484.455 265.085 484.413 265.113C484.371 265.141 484.308 265.155 484.225 265.155C484.141 265.155 484.057 265.162 483.974 265.176C483.598 265.176 483.291 265.057 483.054 264.82L482.678 264.444Z" fill="#D9EBFF"/>
<path d="M490.808 259.177C490.822 259.093 490.843 258.982 490.871 258.843C490.899 258.703 490.983 258.439 491.122 258.048C491.261 257.658 491.401 257.331 491.54 257.066C491.679 256.801 491.909 256.544 492.23 256.293C492.55 256.042 492.871 255.924 493.191 255.937C493.693 255.937 494.111 256.063 494.445 256.314C494.78 256.564 494.989 256.801 495.072 257.024C495.156 257.247 495.198 257.394 495.198 257.463C495.198 257.491 495.205 257.505 495.219 257.505L495.448 257.275C496.298 256.383 497.267 255.937 498.354 255.937C499.106 255.937 499.712 256.126 500.172 256.502C500.632 256.878 500.869 257.428 500.883 258.153C500.897 258.877 500.632 259.971 500.088 261.434C499.545 262.897 499.28 263.782 499.294 264.089C499.294 264.451 499.413 264.632 499.649 264.632C499.733 264.632 499.796 264.625 499.838 264.611C500.242 264.542 500.604 264.277 500.924 263.817C501.245 263.357 501.489 262.8 501.656 262.145C501.684 262.034 501.823 261.978 502.074 261.978C502.353 261.978 502.492 262.034 502.492 262.145C502.492 262.159 502.464 262.263 502.408 262.458C502.297 262.863 502.144 263.26 501.949 263.65C501.754 264.04 501.433 264.43 500.987 264.82C500.541 265.21 500.061 265.399 499.545 265.385C498.89 265.385 498.416 265.197 498.124 264.82C497.831 264.444 497.685 264.054 497.685 263.65C497.685 263.385 497.936 262.549 498.437 261.142C498.939 259.734 499.197 258.675 499.211 257.965C499.211 257.143 498.904 256.732 498.291 256.732H498.186C496.988 256.732 495.978 257.435 495.156 258.843L495.009 259.093L494.32 261.894C493.86 263.72 493.595 264.702 493.526 264.841C493.344 265.217 493.045 265.406 492.627 265.406C492.446 265.406 492.299 265.364 492.188 265.28C492.076 265.197 492 265.113 491.958 265.029C491.916 264.946 491.902 264.876 491.916 264.82C491.916 264.639 492.181 263.504 492.71 261.413C493.24 259.323 493.519 258.188 493.546 258.007C493.56 257.937 493.567 257.777 493.567 257.526C493.567 256.982 493.4 256.711 493.066 256.711C492.536 256.711 492.097 257.407 491.749 258.801C491.665 259.08 491.624 259.226 491.624 259.24C491.596 259.323 491.463 259.365 491.226 259.365H490.934C490.85 259.282 490.808 259.219 490.808 259.177Z" fill="#D9EBFF"/>
<path d="M504.792 261.481C504.526 261.481 504.319 261.398 504.171 261.23C504.023 261.063 503.945 260.846 503.935 260.58C503.935 260.038 504.171 259.555 504.644 259.132C505.117 258.708 505.688 258.496 506.358 258.496C506.703 258.496 506.92 258.501 507.008 258.511C507.737 258.629 508.294 258.891 508.678 259.294C509.062 259.698 509.259 260.137 509.269 260.61C509.269 261.122 509.102 261.619 508.767 262.102C508.432 262.585 507.969 262.934 507.378 263.151L507.333 263.181C507.333 263.191 507.378 263.205 507.466 263.225C507.555 263.245 507.698 263.289 507.895 263.358C508.092 263.427 508.279 263.53 508.456 263.668C509.264 264.19 509.668 264.88 509.668 265.737C509.668 266.515 509.363 267.195 508.752 267.776C508.141 268.358 507.368 268.648 506.432 268.648C505.644 268.648 504.964 268.436 504.393 268.013C503.821 267.589 503.536 267.052 503.536 266.402C503.536 266.126 503.624 265.905 503.802 265.737C503.979 265.57 504.201 265.481 504.467 265.471C504.743 265.471 504.969 265.56 505.146 265.737C505.324 265.914 505.412 266.136 505.412 266.402C505.412 266.51 505.398 266.609 505.368 266.698C505.338 266.786 505.304 266.865 505.265 266.934C505.225 267.003 505.171 267.062 505.102 267.111C505.033 267.161 504.974 267.2 504.925 267.23C504.875 267.259 504.826 267.279 504.777 267.289C504.728 267.299 504.688 267.313 504.659 267.333L504.6 267.348C505.102 267.791 505.713 268.013 506.432 268.013C506.974 268.013 507.383 267.752 507.658 267.23C507.826 266.904 507.91 266.407 507.91 265.737V265.442C507.91 264.506 507.594 263.88 506.964 263.565C506.816 263.506 506.516 263.471 506.063 263.461L505.442 263.447L505.398 263.417C505.378 263.388 505.368 263.309 505.368 263.181C505.368 263.003 505.407 262.915 505.486 262.915C505.762 262.915 506.048 262.89 506.343 262.841C506.678 262.792 506.984 262.585 507.259 262.22C507.535 261.856 507.673 261.304 507.673 260.565V260.447C507.673 259.885 507.501 259.496 507.156 259.28C506.939 259.142 506.708 259.073 506.462 259.073C506.146 259.073 505.856 259.127 505.59 259.235C505.324 259.344 505.137 259.457 505.028 259.575C504.92 259.693 504.866 259.752 504.866 259.752H504.91C504.94 259.762 504.979 259.772 505.028 259.782C505.077 259.792 505.127 259.817 505.176 259.856C505.225 259.895 505.284 259.93 505.353 259.959C505.422 259.989 505.471 260.043 505.501 260.122C505.531 260.201 505.57 260.275 505.619 260.344C505.669 260.413 505.683 260.511 505.664 260.639C505.664 260.856 505.595 261.048 505.457 261.215C505.319 261.383 505.097 261.472 504.792 261.481Z" fill="#D9EBFF"/>
<path d="M514.029 264.444C514.029 264.444 514.029 264.27 514.029 263.922C514.029 263.573 514.141 263.274 514.364 263.023C514.587 262.772 514.886 262.647 515.262 262.647C515.653 262.647 516.001 262.821 516.307 263.169C516.614 263.517 516.774 264.131 516.788 265.008C516.788 265.496 516.725 265.97 516.6 266.43C516.475 266.889 516.328 267.287 516.161 267.621C515.994 267.955 515.813 268.241 515.618 268.478C515.423 268.715 515.255 268.903 515.116 269.042C514.977 269.182 514.886 269.244 514.844 269.23C514.789 269.23 514.698 269.168 514.573 269.042C514.447 268.917 514.385 268.826 514.385 268.771C514.385 268.715 514.461 268.603 514.614 268.436C514.768 268.269 514.942 268.06 515.137 267.809C515.332 267.558 515.513 267.21 515.68 266.764C515.848 266.318 515.959 265.81 516.015 265.238V264.987L515.994 265.008C515.966 265.022 515.931 265.036 515.889 265.05C515.848 265.064 515.806 265.085 515.764 265.113C515.722 265.141 515.66 265.155 515.576 265.155C515.492 265.155 515.409 265.162 515.325 265.176C514.949 265.176 514.642 265.057 514.405 264.82L514.029 264.444Z" fill="#D9EBFF"/>
<path d="M522.139 259.177C522.153 259.093 522.174 258.982 522.201 258.843C522.229 258.703 522.313 258.439 522.452 258.048C522.592 257.658 522.731 257.331 522.87 257.066C523.01 256.801 523.24 256.544 523.56 256.293C523.881 256.042 524.201 255.924 524.521 255.937C525.023 255.937 525.441 256.063 525.776 256.314C526.11 256.564 526.319 256.801 526.403 257.024C526.486 257.247 526.528 257.394 526.528 257.463C526.528 257.491 526.535 257.505 526.549 257.505L526.779 257.275C527.629 256.383 528.597 255.937 529.684 255.937C530.436 255.937 531.043 256.126 531.502 256.502C531.962 256.878 532.199 257.428 532.213 258.153C532.227 258.877 531.962 259.971 531.419 261.434C530.875 262.897 530.611 263.782 530.624 264.089C530.624 264.451 530.743 264.632 530.98 264.632C531.063 264.632 531.126 264.625 531.168 264.611C531.572 264.542 531.934 264.277 532.255 263.817C532.575 263.357 532.819 262.8 532.986 262.145C533.014 262.034 533.153 261.978 533.404 261.978C533.683 261.978 533.822 262.034 533.822 262.145C533.822 262.159 533.794 262.263 533.739 262.458C533.627 262.863 533.474 263.26 533.279 263.65C533.084 264.04 532.763 264.43 532.317 264.82C531.872 265.21 531.391 265.399 530.875 265.385C530.22 265.385 529.747 265.197 529.454 264.82C529.161 264.444 529.015 264.054 529.015 263.65C529.015 263.385 529.266 262.549 529.768 261.142C530.269 259.734 530.527 258.675 530.541 257.965C530.541 257.143 530.234 256.732 529.621 256.732H529.517C528.318 256.732 527.308 257.435 526.486 258.843L526.34 259.093L525.65 261.894C525.19 263.72 524.926 264.702 524.856 264.841C524.675 265.217 524.375 265.406 523.957 265.406C523.776 265.406 523.63 265.364 523.518 265.28C523.407 265.197 523.33 265.113 523.288 265.029C523.246 264.946 523.233 264.876 523.247 264.82C523.247 264.639 523.511 263.504 524.041 261.413C524.57 259.323 524.849 258.188 524.877 258.007C524.891 257.937 524.898 257.777 524.898 257.526C524.898 256.982 524.73 256.711 524.396 256.711C523.867 256.711 523.428 257.407 523.079 258.801C522.996 259.08 522.954 259.226 522.954 259.24C522.926 259.323 522.794 259.365 522.557 259.365H522.264C522.181 259.282 522.139 259.219 522.139 259.177Z" fill="#D9EBFF"/>
<path d="M535.664 259.679C536.216 258.881 536.969 258.482 537.925 258.482C538.398 258.482 538.871 258.61 539.343 258.866C539.816 259.122 540.2 259.575 540.496 260.225C540.861 261.043 541.043 262.166 541.043 263.594C541.043 265.121 540.831 266.289 540.407 267.097C540.21 267.51 539.939 267.84 539.595 268.087C539.25 268.333 538.949 268.486 538.693 268.545C538.437 268.604 538.186 268.638 537.94 268.648C537.684 268.648 537.427 268.619 537.171 268.56C536.915 268.5 536.615 268.343 536.27 268.087C535.925 267.831 535.654 267.5 535.457 267.097C535.034 266.289 534.822 265.121 534.822 263.594C534.822 261.88 535.102 260.575 535.664 259.679ZM538.989 259.501C538.693 259.186 538.344 259.028 537.94 259.028C537.526 259.028 537.171 259.186 536.876 259.501C536.629 259.757 536.467 260.112 536.388 260.565C536.309 261.018 536.27 261.964 536.27 263.402C536.27 264.959 536.309 265.983 536.388 266.476C536.467 266.969 536.644 267.358 536.92 267.643C537.196 267.939 537.536 268.087 537.94 268.087C538.334 268.087 538.669 267.939 538.944 267.643C539.23 267.348 539.407 266.934 539.476 266.402C539.545 265.87 539.585 264.87 539.595 263.402C539.595 261.974 539.555 261.033 539.476 260.58C539.398 260.127 539.235 259.767 538.989 259.501Z" fill="#D9EBFF"/>
<path d="M545.004 249.521L545.088 249.5C545.157 249.5 545.227 249.5 545.297 249.5H545.548L546.133 250.002C547.443 251.186 548.397 252.663 548.996 254.433C549.595 256.202 549.895 258.041 549.895 259.95C549.895 260.898 549.825 261.811 549.686 262.688C549.547 263.566 549.386 264.312 549.205 264.925C549.024 265.538 548.766 266.151 548.432 266.764C548.098 267.377 547.833 267.844 547.638 268.164C547.443 268.485 547.157 268.84 546.781 269.23C546.405 269.621 546.182 269.85 546.112 269.92C546.042 269.99 545.882 270.122 545.631 270.317C545.589 270.359 545.562 270.387 545.548 270.401H545.297C545.185 270.401 545.109 270.401 545.067 270.401C545.025 270.401 544.99 270.38 544.962 270.338C544.935 270.296 544.914 270.234 544.9 270.15C544.914 270.136 544.99 270.045 545.13 269.878C547.289 267.635 548.369 264.326 548.369 259.95C548.369 255.575 547.289 252.266 545.13 250.023C544.99 249.855 544.914 249.765 544.9 249.751C544.9 249.639 544.935 249.563 545.004 249.521Z" fill="#D9EBFF"/>
</svg>
