<svg width="700" height="224" viewBox="0 0 700 224" fill="none" xmlns="http://www.w3.org/2000/svg">
<rect width="700" height="223" transform="translate(0 0.5)" fill="#0A0D12"/>
<path d="M400 61.5L300 61.5L300 161.5L400 161.5L400 61.5ZM400 61.5L449.5 12M250 211.5H450V11.5H250L250 211.5Z" stroke="#B3BFD8" stroke-width="2"/>
<circle cx="250" cy="11.5" r="5" fill="black" stroke="#D9EBFF" stroke-width="2"/>
<circle cx="299.656" cy="61.1569" r="5" transform="rotate(45 299.656 61.1569)" fill="black" stroke="#D9EBFF" stroke-width="2"/>
<circle cx="450" cy="11.5" r="5" fill="black" stroke="#D9EBFF" stroke-width="2"/>
<circle cx="399.656" cy="61.1569" r="5" transform="rotate(45 399.656 61.1569)" fill="black" stroke="#D9EBFF" stroke-width="2"/>
<circle cx="250" cy="211.5" r="5" fill="black" stroke="#D9EBFF" stroke-width="2"/>
<circle cx="299.656" cy="161.157" r="5" transform="rotate(45 299.656 161.157)" fill="black" stroke="#D9EBFF" stroke-width="2"/>
<circle cx="450" cy="211.5" r="5" fill="black" stroke="#D9EBFF" stroke-width="2"/>
<circle cx="399.656" cy="161.157" r="5" transform="rotate(45 399.656 161.157)" fill="black" stroke="#D9EBFF" stroke-width="2"/>
<path d="M439.707 96.7929C439.317 96.4024 438.683 96.4024 438.293 96.7929L431.929 103.157C431.538 103.547 431.538 104.181 431.929 104.571C432.319 104.962 432.953 104.962 433.343 104.571L439 98.9142L444.657 104.571C445.047 104.962 445.681 104.962 446.071 104.571C446.462 104.181 446.462 103.547 446.071 103.157L439.707 96.7929ZM440 121.5L440 97.5L438 97.5L438 121.5L440 121.5Z" fill="#3491FF"/>
<path d="M419 57.4706C419 58.0228 419.448 58.4706 420 58.4706H429C429.552 58.4706 430 58.0228 430 57.4706C430 56.9183 429.552 56.4706 429 56.4706H421V48.4706C421 47.9183 420.552 47.4706 420 47.4706C419.448 47.4706 419 47.9183 419 48.4706V57.4706ZM436.264 39.7929L419.293 56.7635L420.707 58.1777L437.678 41.2071L436.264 39.7929Z" fill="#3491FF"/>
<path d="M410.293 122.207C410.683 122.598 411.317 122.598 411.707 122.207L418.071 115.843C418.462 115.453 418.462 114.819 418.071 114.429C417.681 114.038 417.047 114.038 416.657 114.429L411 120.086L405.343 114.429C404.953 114.038 404.319 114.038 403.929 114.429C403.538 114.819 403.538 115.453 403.929 115.843L410.293 122.207ZM410 97.5L410 121.5L412 121.5L412 97.5L410 97.5Z" fill="#3491FF"/>
<path d="M260.293 122.207C260.683 122.598 261.317 122.598 261.707 122.207L268.071 115.843C268.462 115.453 268.462 114.819 268.071 114.429C267.681 114.038 267.047 114.038 266.657 114.429L261 120.086L255.343 114.429C254.953 114.038 254.319 114.038 253.929 114.429C253.538 114.819 253.538 115.453 253.929 115.843L260.293 122.207ZM260 97.5L260 121.5L262 121.5L262 97.5L260 97.5Z" fill="#3491FF"/>
<path d="M337.293 170.793C336.902 171.183 336.902 171.817 337.293 172.207L343.657 178.571C344.047 178.962 344.681 178.962 345.071 178.571C345.462 178.181 345.462 177.547 345.071 177.157L339.414 171.5L345.071 165.843C345.462 165.453 345.462 164.819 345.071 164.429C344.681 164.038 344.047 164.038 343.657 164.429L337.293 170.793ZM362 170.5L338 170.5L338 172.5L362 172.5L362 170.5Z" fill="#3491FF"/>
<path d="M289.707 96.7929C289.317 96.4024 288.683 96.4024 288.293 96.7929L281.929 103.157C281.538 103.547 281.538 104.181 281.929 104.571C282.319 104.962 282.953 104.962 283.343 104.571L289 98.9142L294.657 104.571C295.047 104.962 295.681 104.962 296.071 104.571C296.462 104.181 296.462 103.547 296.071 103.157L289.707 96.7929ZM290 121.5L290 97.5L288 97.5L288 121.5L290 121.5Z" fill="#3491FF"/>
<path d="M362.707 51.2071C363.098 50.8166 363.098 50.1834 362.707 49.7929L356.343 43.4289C355.953 43.0384 355.319 43.0384 354.929 43.4289C354.538 43.8195 354.538 44.4526 354.929 44.8431L360.586 50.5L354.929 56.1569C354.538 56.5474 354.538 57.1805 354.929 57.5711C355.319 57.9616 355.953 57.9616 356.343 57.5711L362.707 51.2071ZM338 51.5L362 51.5V49.5L338 49.5V51.5Z" fill="#3491FF"/>
<path d="M362.707 201.207C363.098 200.817 363.098 200.183 362.707 199.793L356.343 193.429C355.953 193.038 355.319 193.038 354.929 193.429C354.538 193.819 354.538 194.453 354.929 194.843L360.586 200.5L354.929 206.157C354.538 206.547 354.538 207.181 354.929 207.571C355.319 207.962 355.953 207.962 356.343 207.571L362.707 201.207ZM338 201.5H362V199.5H338V201.5Z" fill="#3491FF"/>
<path d="M337.293 21.7929C336.902 22.1834 336.902 22.8166 337.293 23.2071L343.657 29.5711C344.047 29.9616 344.681 29.9616 345.071 29.5711C345.462 29.1805 345.462 28.5474 345.071 28.1569L339.414 22.5L345.071 16.8431C345.462 16.4526 345.462 15.8195 345.071 15.4289C344.681 15.0384 344.047 15.0384 343.657 15.4289L337.293 21.7929ZM362 21.5L338 21.5L338 23.5L362 23.5L362 21.5Z" fill="#3491FF"/>
<path d="M421.971 24.5001C421.971 23.9479 421.523 23.5001 420.971 23.5001H411.971C411.418 23.5001 410.971 23.9479 410.971 24.5001C410.971 25.0524 411.418 25.5001 411.971 25.5001H419.971V33.5001C419.971 34.0524 420.418 34.5001 420.971 34.5001C421.523 34.5001 421.971 34.0524 421.971 33.5001V24.5001ZM404.707 42.1778L421.678 25.2072L420.263 23.793L403.293 40.7636L404.707 42.1778Z" fill="#3491FF"/>
</svg>
