<svg width="700" height="264" viewBox="0 0 700 264" fill="none" xmlns="http://www.w3.org/2000/svg">
<rect width="700" height="263" transform="translate(0 0.5)" fill="#0A0D12"/>
<path d="M400 60.5L300 60.5L300 160.5L400 160.5L400 60.5ZM400 60.5L449.5 11M250 210.5H450V10.5H250L250 210.5Z" stroke="#B3BFD8" stroke-width="2"/>
<circle cx="250" cy="10.5" r="5" fill="black" stroke="#D9EBFF" stroke-width="2"/>
<circle cx="299.656" cy="60.1569" r="5" transform="rotate(45 299.656 60.1569)" fill="black" stroke="#D9EBFF" stroke-width="2"/>
<circle cx="450" cy="10.5" r="5" fill="black" stroke="#D9EBFF" stroke-width="2"/>
<circle cx="399.656" cy="60.1569" r="5" transform="rotate(45 399.656 60.1569)" fill="black" stroke="#D9EBFF" stroke-width="2"/>
<circle cx="250" cy="210.5" r="5" fill="black" stroke="#D9EBFF" stroke-width="2"/>
<circle cx="299.656" cy="160.157" r="5" transform="rotate(45 299.656 160.157)" fill="black" stroke="#D9EBFF" stroke-width="2"/>
<circle cx="450" cy="210.5" r="5" fill="black" stroke="#D9EBFF" stroke-width="2"/>
<circle cx="399.656" cy="160.157" r="5" transform="rotate(45 399.656 160.157)" fill="black" stroke="#D9EBFF" stroke-width="2"/>
<path d="M221 8.74095C221.014 8.65734 221.035 8.54587 221.063 8.40652C221.091 8.26717 221.174 8.00241 221.314 7.61223C221.453 7.22205 221.592 6.89459 221.732 6.62982C221.871 6.36506 222.101 6.10727 222.421 5.85644C222.742 5.60561 223.062 5.48717 223.383 5.5011C223.885 5.5011 224.303 5.62651 224.637 5.87734C224.971 6.12817 225.18 6.36506 225.264 6.58802C225.348 6.81098 225.389 6.95729 225.389 7.02697C225.389 7.05484 225.396 7.06877 225.41 7.06877L225.64 6.83885C226.49 5.94702 227.459 5.5011 228.546 5.5011C229.298 5.5011 229.904 5.68922 230.364 6.06546C230.824 6.4417 231.061 6.99213 231.075 7.71674C231.089 8.44135 230.824 9.53524 230.281 10.9984C229.737 12.4616 229.472 13.3464 229.486 13.653C229.486 14.0153 229.605 14.1964 229.842 14.1964C229.925 14.1964 229.988 14.1895 230.03 14.1755C230.434 14.1059 230.796 13.8411 231.117 13.3813C231.437 12.9214 231.681 12.364 231.848 11.7091C231.876 11.5976 232.016 11.5419 232.266 11.5419C232.545 11.5419 232.684 11.5976 232.684 11.7091C232.684 11.723 232.657 11.8275 232.601 12.0226C232.489 12.4267 232.336 12.8239 232.141 13.214C231.946 13.6042 231.625 13.9944 231.179 14.3846C230.733 14.7747 230.253 14.9629 229.737 14.9489C229.082 14.9489 228.608 14.7608 228.316 14.3846C228.023 14.0083 227.877 13.6182 227.877 13.214C227.877 12.9493 228.128 12.1132 228.629 10.7058C229.131 9.29835 229.389 8.2393 229.403 7.52862C229.403 6.70647 229.096 6.29539 228.483 6.29539H228.379C227.18 6.29539 226.17 6.9991 225.348 8.40652L225.201 8.65734L224.512 11.4583C224.052 13.2837 223.787 14.2661 223.717 14.4055C223.536 14.7817 223.237 14.9698 222.818 14.9698C222.637 14.9698 222.491 14.928 222.38 14.8444C222.268 14.7608 222.191 14.6772 222.15 14.5936C222.108 14.51 222.094 14.4403 222.108 14.3846C222.108 14.2034 222.373 13.0677 222.902 10.9775C223.432 8.88727 223.71 7.75158 223.738 7.57043C223.752 7.50075 223.759 7.3405 223.759 7.08967C223.759 6.54621 223.592 6.27448 223.257 6.27448C222.728 6.27448 222.289 6.97123 221.941 8.36471C221.857 8.64341 221.815 8.78973 221.815 8.80366C221.787 8.88727 221.655 8.92907 221.418 8.92907H221.125C221.042 8.84547 221 8.78276 221 8.74095Z" fill="#D9EBFF"/>
<path d="M234.526 9.24252C235.078 8.44452 235.832 8.04551 236.787 8.04551C237.26 8.04551 237.733 8.17359 238.206 8.42974C238.679 8.68589 239.063 9.13908 239.359 9.78931C239.723 10.607 239.905 11.7301 239.905 13.1587C239.905 14.6857 239.694 15.8532 239.27 16.661C239.073 17.0748 238.802 17.4049 238.457 17.6512C238.112 17.8975 237.812 18.0502 237.556 18.1093C237.3 18.1684 237.048 18.2029 236.802 18.2127C236.546 18.2127 236.29 18.1832 236.034 18.1241C235.777 18.0649 235.477 17.9073 235.132 17.6512C234.787 17.395 234.516 17.065 234.319 16.661C233.896 15.8532 233.684 14.6857 233.684 13.1587C233.684 11.4444 233.965 10.1391 234.526 9.24252ZM237.851 9.06519C237.556 8.74993 237.206 8.5923 236.802 8.5923C236.388 8.5923 236.034 8.74993 235.738 9.06519C235.492 9.32134 235.329 9.67601 235.25 10.1292C235.171 10.5824 235.132 11.5282 235.132 12.9666C235.132 14.5232 235.171 15.5478 235.25 16.0404C235.329 16.533 235.506 16.9221 235.782 17.2078C236.058 17.5034 236.398 17.6512 236.802 17.6512C237.196 17.6512 237.531 17.5034 237.807 17.2078C238.093 16.9123 238.27 16.4985 238.339 15.9665C238.408 15.4345 238.447 14.4345 238.457 12.9666C238.457 11.538 238.418 10.5972 238.339 10.144C238.26 9.69079 238.098 9.33119 237.851 9.06519Z" fill="#D9EBFF"/>
<path d="M221 208.741C221.014 208.657 221.035 208.546 221.063 208.407C221.091 208.267 221.174 208.002 221.314 207.612C221.453 207.222 221.592 206.895 221.732 206.63C221.871 206.365 222.101 206.107 222.421 205.856C222.742 205.606 223.062 205.487 223.383 205.501C223.885 205.501 224.303 205.627 224.637 205.877C224.971 206.128 225.18 206.365 225.264 206.588C225.348 206.811 225.389 206.957 225.389 207.027C225.389 207.055 225.396 207.069 225.41 207.069L225.64 206.839C226.49 205.947 227.459 205.501 228.546 205.501C229.298 205.501 229.904 205.689 230.364 206.065C230.824 206.442 231.061 206.992 231.075 207.717C231.089 208.441 230.824 209.535 230.281 210.998C229.737 212.462 229.472 213.346 229.486 213.653C229.486 214.015 229.605 214.196 229.842 214.196C229.925 214.196 229.988 214.189 230.03 214.176C230.434 214.106 230.796 213.841 231.117 213.381C231.437 212.921 231.681 212.364 231.848 211.709C231.876 211.598 232.016 211.542 232.266 211.542C232.545 211.542 232.684 211.598 232.684 211.709C232.684 211.723 232.657 211.828 232.601 212.023C232.489 212.427 232.336 212.824 232.141 213.214C231.946 213.604 231.625 213.994 231.179 214.385C230.733 214.775 230.253 214.963 229.737 214.949C229.082 214.949 228.608 214.761 228.316 214.385C228.023 214.008 227.877 213.618 227.877 213.214C227.877 212.949 228.128 212.113 228.629 210.706C229.131 209.298 229.389 208.239 229.403 207.529C229.403 206.706 229.096 206.295 228.483 206.295H228.379C227.18 206.295 226.17 206.999 225.348 208.407L225.201 208.657L224.512 211.458C224.052 213.284 223.787 214.266 223.717 214.405C223.536 214.782 223.237 214.97 222.818 214.97C222.637 214.97 222.491 214.928 222.38 214.844C222.268 214.761 222.191 214.677 222.15 214.594C222.108 214.51 222.094 214.44 222.108 214.385C222.108 214.203 222.373 213.068 222.902 210.977C223.432 208.887 223.71 207.752 223.738 207.57C223.752 207.501 223.759 207.341 223.759 207.09C223.759 206.546 223.592 206.274 223.257 206.274C222.728 206.274 222.289 206.971 221.941 208.365C221.857 208.643 221.815 208.79 221.815 208.804C221.787 208.887 221.655 208.929 221.418 208.929H221.125C221.042 208.845 221 208.783 221 208.741Z" fill="#D9EBFF"/>
<path d="M236.255 209.346L236.063 209.42C235.925 209.469 235.728 209.518 235.472 209.568C235.216 209.617 234.93 209.651 234.615 209.671H234.334V208.991H234.615C235.078 208.972 235.506 208.898 235.901 208.77C236.295 208.642 236.57 208.523 236.728 208.415C236.886 208.307 237.024 208.198 237.142 208.09C237.162 208.06 237.221 208.046 237.319 208.046C237.408 208.046 237.492 208.075 237.57 208.134V212.553L237.585 216.986C237.654 217.055 237.713 217.099 237.763 217.119C237.812 217.139 237.93 217.159 238.117 217.178C238.304 217.198 238.61 217.208 239.033 217.208H239.418V217.888H239.255C239.048 217.858 238.265 217.843 236.905 217.843C235.566 217.843 234.792 217.858 234.585 217.888H234.408V217.208H234.792C235.009 217.208 235.196 217.208 235.354 217.208C235.511 217.208 235.635 217.203 235.723 217.193C235.812 217.183 235.891 217.168 235.96 217.149C236.029 217.129 236.068 217.119 236.078 217.119C236.088 217.119 236.117 217.095 236.167 217.045C236.216 216.996 236.245 216.976 236.255 216.986V209.346Z" fill="#D9EBFF"/>
<path d="M460 208.741C460.014 208.657 460.035 208.546 460.063 208.407C460.091 208.267 460.174 208.002 460.314 207.612C460.453 207.222 460.592 206.895 460.732 206.63C460.871 206.365 461.101 206.107 461.421 205.856C461.742 205.606 462.062 205.487 462.383 205.501C462.885 205.501 463.303 205.627 463.637 205.877C463.971 206.128 464.18 206.365 464.264 206.588C464.348 206.811 464.389 206.957 464.389 207.027C464.389 207.055 464.396 207.069 464.41 207.069L464.64 206.839C465.49 205.947 466.459 205.501 467.546 205.501C468.298 205.501 468.904 205.689 469.364 206.065C469.824 206.442 470.061 206.992 470.075 207.717C470.089 208.441 469.824 209.535 469.281 210.998C468.737 212.462 468.472 213.346 468.486 213.653C468.486 214.015 468.605 214.196 468.842 214.196C468.925 214.196 468.988 214.189 469.03 214.176C469.434 214.106 469.796 213.841 470.117 213.381C470.437 212.921 470.681 212.364 470.848 211.709C470.876 211.598 471.016 211.542 471.266 211.542C471.545 211.542 471.684 211.598 471.684 211.709C471.684 211.723 471.657 211.828 471.601 212.023C471.489 212.427 471.336 212.824 471.141 213.214C470.946 213.604 470.625 213.994 470.179 214.385C469.733 214.775 469.253 214.963 468.737 214.949C468.082 214.949 467.608 214.761 467.316 214.385C467.023 214.008 466.877 213.618 466.877 213.214C466.877 212.949 467.128 212.113 467.629 210.706C468.131 209.298 468.389 208.239 468.403 207.529C468.403 206.706 468.096 206.295 467.483 206.295H467.379C466.18 206.295 465.17 206.999 464.348 208.407L464.201 208.657L463.512 211.458C463.052 213.284 462.787 214.266 462.717 214.405C462.536 214.782 462.237 214.97 461.819 214.97C461.637 214.97 461.491 214.928 461.38 214.844C461.268 214.761 461.191 214.677 461.15 214.594C461.108 214.51 461.094 214.44 461.108 214.385C461.108 214.203 461.373 213.068 461.902 210.977C462.432 208.887 462.71 207.752 462.738 207.57C462.752 207.501 462.759 207.341 462.759 207.09C462.759 206.546 462.592 206.274 462.257 206.274C461.728 206.274 461.289 206.971 460.941 208.365C460.857 208.643 460.815 208.79 460.815 208.804C460.787 208.887 460.655 208.929 460.418 208.929H460.125C460.042 208.845 460 208.783 460 208.741Z" fill="#D9EBFF"/>
<path d="M473.718 211.548C473.452 211.548 473.24 211.459 473.083 211.282C472.925 211.105 472.846 210.888 472.846 210.632C472.846 209.932 473.107 209.326 473.63 208.814C474.152 208.302 474.802 208.046 475.58 208.046C476.477 208.046 477.226 208.321 477.827 208.873C478.428 209.425 478.733 210.139 478.743 211.016C478.743 211.44 478.644 211.843 478.447 212.228C478.25 212.612 478.014 212.947 477.738 213.233C477.462 213.518 477.068 213.883 476.556 214.326C476.201 214.632 475.708 215.085 475.078 215.686L474.206 216.513L475.329 216.528C476.876 216.528 477.698 216.503 477.797 216.454C477.866 216.434 477.984 215.996 478.152 215.139V215.095H478.743V215.139C478.733 215.168 478.669 215.617 478.551 216.484C478.432 217.351 478.359 217.804 478.329 217.843V217.888H472.846V217.429C472.846 217.361 472.876 217.287 472.935 217.208C472.994 217.129 473.142 216.957 473.378 216.691C473.664 216.375 473.91 216.099 474.117 215.863C474.206 215.765 474.373 215.582 474.62 215.316C474.866 215.05 475.034 214.868 475.122 214.769C475.211 214.671 475.354 214.508 475.551 214.282C475.748 214.055 475.886 213.888 475.965 213.779C476.043 213.671 476.157 213.523 476.304 213.336C476.452 213.149 476.556 212.991 476.615 212.863C476.674 212.735 476.748 212.592 476.836 212.435C476.925 212.277 476.989 212.119 477.029 211.962C477.068 211.804 477.102 211.656 477.132 211.518C477.162 211.38 477.176 211.218 477.176 211.031C477.176 210.41 477.009 209.873 476.674 209.42C476.339 208.967 475.861 208.74 475.24 208.74C474.915 208.74 474.63 208.824 474.383 208.991C474.137 209.159 473.965 209.321 473.866 209.479C473.768 209.637 473.718 209.73 473.718 209.76C473.718 209.77 473.743 209.775 473.792 209.775C473.97 209.775 474.152 209.843 474.339 209.981C474.526 210.119 474.62 210.346 474.62 210.661C474.62 210.908 474.541 211.114 474.383 211.282C474.226 211.449 474.004 211.538 473.718 211.548Z" fill="#D9EBFF"/>
<path d="M460 8.74095C460.014 8.65734 460.035 8.54587 460.063 8.40652C460.091 8.26717 460.174 8.00241 460.314 7.61223C460.453 7.22205 460.592 6.89459 460.732 6.62982C460.871 6.36506 461.101 6.10727 461.421 5.85644C461.742 5.60561 462.062 5.48717 462.383 5.5011C462.885 5.5011 463.303 5.62651 463.637 5.87734C463.971 6.12817 464.18 6.36506 464.264 6.58802C464.348 6.81098 464.389 6.95729 464.389 7.02697C464.389 7.05484 464.396 7.06877 464.41 7.06877L464.64 6.83885C465.49 5.94702 466.459 5.5011 467.546 5.5011C468.298 5.5011 468.904 5.68922 469.364 6.06546C469.824 6.4417 470.061 6.99213 470.075 7.71674C470.089 8.44135 469.824 9.53524 469.281 10.9984C468.737 12.4616 468.472 13.3464 468.486 13.653C468.486 14.0153 468.605 14.1964 468.842 14.1964C468.925 14.1964 468.988 14.1895 469.03 14.1755C469.434 14.1059 469.796 13.8411 470.117 13.3813C470.437 12.9214 470.681 12.364 470.848 11.7091C470.876 11.5976 471.016 11.5419 471.266 11.5419C471.545 11.5419 471.684 11.5976 471.684 11.7091C471.684 11.723 471.657 11.8275 471.601 12.0226C471.489 12.4267 471.336 12.8239 471.141 13.214C470.946 13.6042 470.625 13.9944 470.179 14.3846C469.733 14.7747 469.253 14.9629 468.737 14.9489C468.082 14.9489 467.608 14.7608 467.316 14.3846C467.023 14.0083 466.877 13.6182 466.877 13.214C466.877 12.9493 467.128 12.1132 467.629 10.7058C468.131 9.29835 468.389 8.2393 468.403 7.52862C468.403 6.70647 468.096 6.29539 467.483 6.29539H467.379C466.18 6.29539 465.17 6.9991 464.348 8.40652L464.201 8.65734L463.512 11.4583C463.052 13.2837 462.787 14.2661 462.717 14.4055C462.536 14.7817 462.237 14.9698 461.818 14.9698C461.637 14.9698 461.491 14.928 461.38 14.8444C461.268 14.7608 461.191 14.6772 461.15 14.5936C461.108 14.51 461.094 14.4403 461.108 14.3846C461.108 14.2034 461.373 13.0677 461.902 10.9775C462.432 8.88727 462.71 7.75158 462.738 7.57043C462.752 7.50075 462.759 7.3405 462.759 7.08967C462.759 6.54621 462.592 6.27448 462.257 6.27448C461.728 6.27448 461.289 6.97123 460.941 8.36471C460.857 8.64341 460.815 8.78973 460.815 8.80366C460.787 8.88727 460.655 8.92907 460.418 8.92907H460.125C460.042 8.84547 460 8.78276 460 8.74095Z" fill="#D9EBFF"/>
<path d="M473.984 11.0454C473.718 11.0454 473.511 10.9617 473.364 10.7942C473.216 10.6267 473.137 10.41 473.127 10.144C473.127 9.60212 473.364 9.11937 473.837 8.69574C474.309 8.27211 474.881 8.06029 475.551 8.06029C475.896 8.06029 476.112 8.06522 476.201 8.07507C476.93 8.19329 477.487 8.45437 477.871 8.8583C478.255 9.26223 478.452 9.70064 478.462 10.1735C478.462 10.6858 478.295 11.1834 477.96 11.6661C477.625 12.1488 477.162 12.4986 476.57 12.7153L476.526 12.7449C476.526 12.7547 476.57 12.7695 476.659 12.7892C476.748 12.8089 476.891 12.8533 477.088 12.9222C477.285 12.9912 477.472 13.0946 477.649 13.2326C478.457 13.7547 478.861 14.4444 478.861 15.3015C478.861 16.0798 478.556 16.7596 477.945 17.3408C477.334 17.9221 476.561 18.2127 475.625 18.2127C474.836 18.2127 474.157 18.0009 473.585 17.5773C473.014 17.1536 472.728 16.6167 472.728 15.9665C472.728 15.6906 472.817 15.469 472.994 15.3015C473.172 15.134 473.393 15.0453 473.659 15.0355C473.935 15.0355 474.162 15.1241 474.339 15.3015C474.516 15.4788 474.605 15.7005 474.605 15.9665C474.605 16.0748 474.59 16.1734 474.561 16.262C474.531 16.3507 474.497 16.4295 474.457 16.4985C474.418 16.5674 474.364 16.6266 474.295 16.6758C474.226 16.7251 474.167 16.7645 474.117 16.794C474.068 16.8236 474.019 16.8433 473.97 16.8532C473.92 16.863 473.881 16.8778 473.851 16.8975L473.792 16.9123C474.295 17.3556 474.905 17.5773 475.625 17.5773C476.167 17.5773 476.575 17.3162 476.851 16.794C477.019 16.4689 477.102 15.9714 477.102 15.3015V15.0059C477.102 14.07 476.787 13.4444 476.157 13.1291C476.009 13.07 475.708 13.0355 475.255 13.0257L474.635 13.0109L474.59 12.9813C474.57 12.9518 474.561 12.873 474.561 12.7449C474.561 12.5676 474.6 12.4789 474.679 12.4789C474.955 12.4789 475.24 12.4543 475.536 12.405C475.871 12.3557 476.176 12.1488 476.452 11.7843C476.728 11.4198 476.866 10.8681 476.866 10.1292V10.011C476.866 9.44942 476.694 9.06026 476.349 8.84352C476.132 8.70559 475.9 8.63663 475.654 8.63663C475.339 8.63663 475.048 8.69082 474.782 8.79919C474.516 8.90756 474.329 9.02086 474.221 9.13908C474.112 9.2573 474.058 9.31641 474.058 9.31641H474.103C474.132 9.32627 474.171 9.33612 474.221 9.34597C474.27 9.35582 474.319 9.38045 474.369 9.41986C474.418 9.45927 474.477 9.49375 474.546 9.5233C474.615 9.55286 474.664 9.60705 474.694 9.68586C474.723 9.76468 474.763 9.83857 474.812 9.90753C474.861 9.97649 474.876 10.075 474.856 10.2031C474.856 10.4198 474.787 10.6119 474.649 10.7794C474.511 10.9469 474.29 11.0356 473.984 11.0454Z" fill="#D9EBFF"/>
<path d="M409 59.741C409.014 59.6573 409.035 59.5459 409.063 59.4065C409.091 59.2672 409.174 59.0024 409.314 58.6122C409.453 58.2221 409.592 57.8946 409.732 57.6298C409.871 57.3651 410.101 57.1073 410.421 56.8564C410.742 56.6056 411.062 56.4872 411.383 56.5011C411.885 56.5011 412.303 56.6265 412.637 56.8773C412.971 57.1282 413.18 57.3651 413.264 57.588C413.348 57.811 413.389 57.9573 413.389 58.027C413.389 58.0548 413.396 58.0688 413.41 58.0688L413.64 57.8388C414.49 56.947 415.459 56.5011 416.546 56.5011C417.298 56.5011 417.904 56.6892 418.364 57.0655C418.824 57.4417 419.061 57.9921 419.075 58.7167C419.089 59.4414 418.824 60.5352 418.281 61.9984C417.737 63.4616 417.472 64.3464 417.486 64.653C417.486 65.0153 417.605 65.1964 417.842 65.1964C417.925 65.1964 417.988 65.1895 418.03 65.1755C418.434 65.1059 418.796 64.8411 419.117 64.3813C419.437 63.9214 419.681 63.364 419.848 62.7091C419.876 62.5976 420.016 62.5419 420.266 62.5419C420.545 62.5419 420.684 62.5976 420.684 62.7091C420.684 62.723 420.657 62.8275 420.601 63.0226C420.489 63.4267 420.336 63.8239 420.141 64.214C419.946 64.6042 419.625 64.9944 419.179 65.3846C418.733 65.7747 418.253 65.9629 417.737 65.9489C417.082 65.9489 416.608 65.7608 416.316 65.3846C416.023 65.0083 415.877 64.6182 415.877 64.214C415.877 63.9493 416.128 63.1132 416.629 61.7058C417.131 60.2983 417.389 59.2393 417.403 58.5286C417.403 57.7065 417.096 57.2954 416.483 57.2954H416.379C415.18 57.2954 414.17 57.9991 413.348 59.4065L413.201 59.6573L412.512 62.4583C412.052 64.2837 411.787 65.2661 411.717 65.4055C411.536 65.7817 411.237 65.9698 410.818 65.9698C410.637 65.9698 410.491 65.928 410.38 65.8444C410.268 65.7608 410.191 65.6772 410.15 65.5936C410.108 65.51 410.094 65.4403 410.108 65.3846C410.108 65.2034 410.373 64.0677 410.902 61.9775C411.432 59.8873 411.71 58.7516 411.738 58.5704C411.752 58.5008 411.759 58.3405 411.759 58.0897C411.759 57.5462 411.592 57.2745 411.257 57.2745C410.728 57.2745 410.289 57.9712 409.941 59.3647C409.857 59.6434 409.815 59.7897 409.815 59.8037C409.787 59.8873 409.655 59.9291 409.418 59.9291H409.125C409.042 59.8455 409 59.7828 409 59.741Z" fill="#D9EBFF"/>
<path d="M427.935 68.8876C427.758 68.858 427.122 68.8433 426.029 68.8433C424.886 68.8433 424.226 68.858 424.048 68.8876H423.915V68.2078H424.373C424.57 68.2078 424.703 68.2078 424.772 68.2078C424.841 68.2078 424.925 68.198 425.024 68.1783C425.122 68.1586 425.191 68.1339 425.231 68.1044C425.27 68.0748 425.304 68.0354 425.334 67.9862C425.344 67.9664 425.349 67.7004 425.349 67.1881V66.4492H421.521V65.7695L423.753 62.3558C425.26 60.0701 426.024 58.9224 426.043 58.9125C426.063 58.8928 426.166 58.883 426.354 58.883H426.62L426.708 58.9716V65.7695H428.068V66.4492H426.708V67.2029C426.708 67.6069 426.708 67.8433 426.708 67.9123C426.708 67.9812 426.738 68.0403 426.797 68.0896C426.876 68.1586 427.157 68.198 427.639 68.2078H428.068V68.8876H427.935ZM425.437 65.7695V60.8336L422.201 65.7547L423.812 65.7695H425.437Z" fill="#D9EBFF"/>
<path d="M409 158.741C409.014 158.657 409.035 158.546 409.063 158.407C409.091 158.267 409.174 158.002 409.314 157.612C409.453 157.222 409.592 156.895 409.732 156.63C409.871 156.365 410.101 156.107 410.421 155.856C410.742 155.606 411.062 155.487 411.383 155.501C411.885 155.501 412.303 155.627 412.637 155.877C412.971 156.128 413.18 156.365 413.264 156.588C413.348 156.811 413.389 156.957 413.389 157.027C413.389 157.055 413.396 157.069 413.41 157.069L413.64 156.839C414.49 155.947 415.459 155.501 416.546 155.501C417.298 155.501 417.904 155.689 418.364 156.065C418.824 156.442 419.061 156.992 419.075 157.717C419.089 158.441 418.824 159.535 418.281 160.998C417.737 162.462 417.472 163.346 417.486 163.653C417.486 164.015 417.605 164.196 417.842 164.196C417.925 164.196 417.988 164.189 418.03 164.176C418.434 164.106 418.796 163.841 419.117 163.381C419.437 162.921 419.681 162.364 419.848 161.709C419.876 161.598 420.016 161.542 420.266 161.542C420.545 161.542 420.684 161.598 420.684 161.709C420.684 161.723 420.657 161.828 420.601 162.023C420.489 162.427 420.336 162.824 420.141 163.214C419.946 163.604 419.625 163.994 419.179 164.385C418.733 164.775 418.253 164.963 417.737 164.949C417.082 164.949 416.608 164.761 416.316 164.385C416.023 164.008 415.877 163.618 415.877 163.214C415.877 162.949 416.128 162.113 416.629 160.706C417.131 159.298 417.389 158.239 417.403 157.529C417.403 156.706 417.096 156.295 416.483 156.295H416.379C415.18 156.295 414.17 156.999 413.348 158.407L413.201 158.657L412.512 161.458C412.052 163.284 411.787 164.266 411.717 164.405C411.536 164.782 411.237 164.97 410.818 164.97C410.637 164.97 410.491 164.928 410.38 164.844C410.268 164.761 410.191 164.677 410.15 164.594C410.108 164.51 410.094 164.44 410.108 164.385C410.108 164.203 410.373 163.068 410.902 160.977C411.432 158.887 411.71 157.752 411.738 157.57C411.752 157.501 411.759 157.341 411.759 157.09C411.759 156.546 411.592 156.274 411.257 156.274C410.728 156.274 410.289 156.971 409.941 158.365C409.857 158.643 409.815 158.79 409.815 158.804C409.787 158.887 409.655 158.929 409.418 158.929H409.125C409.042 158.845 409 158.783 409 158.741Z" fill="#D9EBFF"/>
<path d="M423.531 165.567C423.531 165.804 423.452 166.001 423.295 166.159C423.137 166.316 422.945 166.395 422.718 166.395H422.615C423.068 167.173 423.669 167.562 424.418 167.562C425.107 167.562 425.61 167.267 425.925 166.676C426.112 166.351 426.206 165.72 426.206 164.784C426.206 163.769 426.073 163.085 425.807 162.73C425.551 162.405 425.265 162.242 424.95 162.242H424.861C424.093 162.242 423.511 162.577 423.117 163.247C423.078 163.316 423.043 163.356 423.014 163.366C422.984 163.375 422.91 163.385 422.792 163.395C422.625 163.395 422.531 163.366 422.511 163.306C422.492 163.267 422.482 162.405 422.482 160.72V158.814C422.482 158.321 422.506 158.075 422.556 158.075C422.575 158.055 422.595 158.046 422.615 158.046C422.625 158.046 422.728 158.085 422.925 158.164C423.122 158.243 423.393 158.321 423.738 158.4C424.083 158.479 424.452 158.518 424.846 158.518C425.546 158.518 426.216 158.38 426.856 158.105C426.935 158.065 426.999 158.046 427.048 158.046C427.127 158.046 427.166 158.134 427.166 158.312V158.504C426.359 159.459 425.349 159.937 424.137 159.937C423.832 159.937 423.556 159.908 423.309 159.848L423.162 159.819V162.361C423.349 162.223 423.497 162.114 423.605 162.036C423.713 161.957 423.891 161.878 424.137 161.799C424.383 161.72 424.634 161.681 424.891 161.681C425.689 161.681 426.364 162.001 426.915 162.641C427.467 163.282 427.743 164.04 427.743 164.917C427.743 165.824 427.428 166.597 426.797 167.237C426.166 167.878 425.398 168.203 424.492 168.213C423.694 168.213 423.053 167.947 422.571 167.415C422.088 166.883 421.846 166.282 421.846 165.612C421.846 165.375 421.901 165.188 422.009 165.05C422.117 164.912 422.231 164.824 422.349 164.784C422.467 164.745 422.58 164.725 422.689 164.725C422.935 164.725 423.137 164.809 423.295 164.976C423.452 165.144 423.531 165.341 423.531 165.567Z" fill="#D9EBFF"/>
<path d="M271 158.741C271.014 158.657 271.035 158.546 271.063 158.407C271.091 158.267 271.174 158.002 271.314 157.612C271.453 157.222 271.592 156.895 271.732 156.63C271.871 156.365 272.101 156.107 272.421 155.856C272.742 155.606 273.062 155.487 273.383 155.501C273.885 155.501 274.303 155.627 274.637 155.877C274.971 156.128 275.18 156.365 275.264 156.588C275.348 156.811 275.389 156.957 275.389 157.027C275.389 157.055 275.396 157.069 275.41 157.069L275.64 156.839C276.49 155.947 277.459 155.501 278.546 155.501C279.298 155.501 279.904 155.689 280.364 156.065C280.824 156.442 281.061 156.992 281.075 157.717C281.089 158.441 280.824 159.535 280.281 160.998C279.737 162.462 279.472 163.346 279.486 163.653C279.486 164.015 279.605 164.196 279.842 164.196C279.925 164.196 279.988 164.189 280.03 164.176C280.434 164.106 280.796 163.841 281.117 163.381C281.437 162.921 281.681 162.364 281.848 161.709C281.876 161.598 282.016 161.542 282.266 161.542C282.545 161.542 282.684 161.598 282.684 161.709C282.684 161.723 282.657 161.828 282.601 162.023C282.489 162.427 282.336 162.824 282.141 163.214C281.946 163.604 281.625 163.994 281.179 164.385C280.733 164.775 280.253 164.963 279.737 164.949C279.082 164.949 278.608 164.761 278.316 164.385C278.023 164.008 277.877 163.618 277.877 163.214C277.877 162.949 278.128 162.113 278.629 160.706C279.131 159.298 279.389 158.239 279.403 157.529C279.403 156.706 279.096 156.295 278.483 156.295H278.379C277.18 156.295 276.17 156.999 275.348 158.407L275.201 158.657L274.512 161.458C274.052 163.284 273.787 164.266 273.717 164.405C273.536 164.782 273.237 164.97 272.818 164.97C272.637 164.97 272.491 164.928 272.38 164.844C272.268 164.761 272.191 164.677 272.15 164.594C272.108 164.51 272.094 164.44 272.108 164.385C272.108 164.203 272.373 163.068 272.902 160.977C273.432 158.887 273.71 157.752 273.738 157.57C273.752 157.501 273.759 157.341 273.759 157.09C273.759 156.546 273.592 156.274 273.257 156.274C272.728 156.274 272.289 156.971 271.941 158.365C271.857 158.643 271.815 158.79 271.815 158.804C271.787 158.887 271.655 158.929 271.418 158.929H271.125C271.042 158.845 271 158.783 271 158.741Z" fill="#D9EBFF"/>
<path d="M283.728 163.262C283.728 161.656 284.127 160.385 284.925 159.449C285.723 158.513 286.61 158.046 287.585 158.046C288.265 158.046 288.753 158.223 289.048 158.578C289.344 158.932 289.492 159.326 289.492 159.76C289.492 160.006 289.423 160.203 289.285 160.351C289.147 160.499 288.955 160.573 288.708 160.573C288.482 160.573 288.295 160.504 288.147 160.366C287.999 160.228 287.925 160.036 287.925 159.789C287.925 159.356 288.157 159.095 288.62 159.006C288.403 158.789 288.098 158.666 287.703 158.637C287.004 158.637 286.428 158.932 285.974 159.523C285.511 160.174 285.28 161.169 285.28 162.508L285.295 162.568C285.344 162.508 285.383 162.444 285.413 162.375C285.817 161.784 286.344 161.489 286.994 161.489H287.053C287.506 161.489 287.905 161.582 288.25 161.77C288.487 161.907 288.723 162.105 288.96 162.361C289.196 162.617 289.388 162.898 289.536 163.203C289.743 163.686 289.846 164.213 289.846 164.784V165.05C289.846 165.277 289.822 165.489 289.772 165.686C289.664 166.267 289.349 166.833 288.827 167.385C288.304 167.937 287.644 168.213 286.846 168.213C286.57 168.213 286.304 168.173 286.048 168.094C285.792 168.016 285.516 167.868 285.221 167.651C284.925 167.434 284.674 167.144 284.467 166.779C284.26 166.415 284.083 165.937 283.935 165.346C283.787 164.755 283.718 164.06 283.728 163.262ZM286.905 162.021C286.61 162.021 286.354 162.105 286.137 162.272C285.92 162.439 285.753 162.661 285.635 162.937C285.516 163.213 285.433 163.494 285.383 163.779C285.334 164.065 285.304 164.37 285.295 164.696C285.295 165.513 285.354 166.099 285.472 166.454C285.59 166.809 285.777 167.095 286.034 167.311C286.27 167.489 286.531 167.577 286.817 167.577C287.319 167.577 287.703 167.39 287.969 167.016C288.098 166.838 288.186 166.617 288.235 166.351C288.285 166.085 288.309 165.567 288.309 164.799C288.309 164.011 288.285 163.484 288.235 163.218C288.186 162.952 288.098 162.73 287.969 162.553C287.703 162.198 287.349 162.021 286.905 162.021Z" fill="#D9EBFF"/>
<path d="M271 59.741C271.014 59.6573 271.035 59.5459 271.063 59.4065C271.091 59.2672 271.174 59.0024 271.314 58.6122C271.453 58.2221 271.592 57.8946 271.732 57.6298C271.871 57.3651 272.101 57.1073 272.421 56.8564C272.742 56.6056 273.062 56.4872 273.383 56.5011C273.885 56.5011 274.303 56.6265 274.637 56.8773C274.971 57.1282 275.18 57.3651 275.264 57.588C275.348 57.811 275.389 57.9573 275.389 58.027C275.389 58.0548 275.396 58.0688 275.41 58.0688L275.64 57.8388C276.49 56.947 277.459 56.5011 278.546 56.5011C279.298 56.5011 279.904 56.6892 280.364 57.0655C280.824 57.4417 281.061 57.9921 281.075 58.7167C281.089 59.4414 280.824 60.5352 280.281 61.9984C279.737 63.4616 279.472 64.3464 279.486 64.653C279.486 65.0153 279.605 65.1964 279.842 65.1964C279.925 65.1964 279.988 65.1895 280.03 65.1755C280.434 65.1059 280.796 64.8411 281.117 64.3813C281.437 63.9214 281.681 63.364 281.848 62.7091C281.876 62.5976 282.015 62.5419 282.266 62.5419C282.545 62.5419 282.684 62.5976 282.684 62.7091C282.684 62.723 282.657 62.8275 282.601 63.0226C282.489 63.4267 282.336 63.8239 282.141 64.214C281.946 64.6042 281.625 64.9944 281.179 65.3846C280.733 65.7747 280.253 65.9629 279.737 65.9489C279.082 65.9489 278.608 65.7608 278.316 65.3846C278.023 65.0083 277.877 64.6182 277.877 64.214C277.877 63.9493 278.128 63.1132 278.629 61.7058C279.131 60.2983 279.389 59.2393 279.403 58.5286C279.403 57.7065 279.096 57.2954 278.483 57.2954H278.379C277.18 57.2954 276.17 57.9991 275.348 59.4065L275.201 59.6573L274.512 62.4583C274.052 64.2837 273.787 65.2661 273.717 65.4055C273.536 65.7817 273.237 65.9698 272.818 65.9698C272.637 65.9698 272.491 65.928 272.38 65.8444C272.268 65.7608 272.191 65.6772 272.15 65.5936C272.108 65.51 272.094 65.4403 272.108 65.3846C272.108 65.2034 272.373 64.0677 272.902 61.9775C273.432 59.8873 273.71 58.7516 273.738 58.5704C273.752 58.5008 273.759 58.3405 273.759 58.0897C273.759 57.5462 273.592 57.2745 273.257 57.2745C272.728 57.2745 272.289 57.9712 271.941 59.3647C271.857 59.6434 271.815 59.7897 271.815 59.8037C271.787 59.8873 271.655 59.9291 271.418 59.9291H271.125C271.042 59.8455 271 59.7828 271 59.741Z" fill="#D9EBFF"/>
<path d="M283.92 62.1193C283.93 62.0996 284.014 61.5627 284.172 60.5085L284.408 58.9273C284.408 58.9076 284.506 58.8977 284.704 58.8977H284.999V58.9568C284.999 59.0554 285.073 59.1391 285.221 59.2081C285.369 59.277 285.625 59.3214 285.989 59.3411C286.354 59.3608 287.186 59.3706 288.487 59.3706H290.275V59.947L289.27 61.3213C289.181 61.4395 289.033 61.6366 288.827 61.9124C288.62 62.1883 288.487 62.3705 288.428 62.4592C288.368 62.5479 288.265 62.7055 288.117 62.9321C287.969 63.1587 287.871 63.336 287.822 63.4641C287.772 63.5922 287.703 63.7744 287.615 64.0109C287.526 64.2473 287.462 64.4739 287.423 64.6907C287.383 64.9074 287.344 65.1734 287.304 65.4887C287.265 65.8039 287.235 66.1389 287.216 66.4936C287.196 66.8483 287.181 67.2522 287.171 67.7054C287.171 67.8433 287.171 67.9812 287.171 68.1192C287.171 68.2571 287.166 68.3753 287.157 68.4738V68.6068C287.117 68.7743 287.024 68.9172 286.876 69.0354C286.728 69.1536 286.561 69.2127 286.373 69.2127C286.265 69.2127 286.162 69.1979 286.063 69.1684C285.965 69.1388 285.861 69.0452 285.753 68.8876C285.644 68.73 285.59 68.5329 285.59 68.2965C285.59 66.7399 286.068 65.1242 287.024 63.4493C287.221 63.1341 287.634 62.538 288.265 61.6612L288.945 60.7302H287.57C285.856 60.7302 284.955 60.7598 284.866 60.8189C284.807 60.8484 284.753 60.9666 284.704 61.1735C284.654 61.3804 284.605 61.5922 284.556 61.809L284.511 62.1193V62.1637H283.92V62.1193Z" fill="#D9EBFF"/>
<path d="M244 249.852C244 248.334 244.599 246.968 245.797 245.756C246.996 244.544 248.292 243.937 249.685 243.937C250.465 243.937 251.078 244.105 251.524 244.439C251.97 244.773 252.2 245.212 252.214 245.756C252.214 246.16 252.082 246.501 251.817 246.78C251.552 247.059 251.218 247.205 250.814 247.219C250.549 247.219 250.34 247.149 250.187 247.01C250.033 246.871 249.957 246.662 249.957 246.383C249.957 246.104 250.033 245.867 250.187 245.672C250.34 245.477 250.493 245.331 250.646 245.233C250.8 245.136 250.897 245.094 250.939 245.108H250.96C250.96 245.08 250.918 245.038 250.835 244.982C250.751 244.927 250.605 244.871 250.396 244.815C250.187 244.76 249.95 244.732 249.685 244.732C249.267 244.732 248.87 244.829 248.494 245.024C248.201 245.15 247.901 245.366 247.595 245.672C246.982 246.285 246.536 247.149 246.257 248.264C245.979 249.379 245.832 250.187 245.818 250.688C245.818 251.329 246 251.81 246.362 252.131C246.668 252.465 247.072 252.632 247.574 252.632H247.658C249.218 252.632 250.507 252.04 251.524 250.856C251.65 250.716 251.733 250.647 251.775 250.647C251.831 250.647 251.921 250.709 252.047 250.835C252.172 250.96 252.242 251.058 252.256 251.127C252.27 251.197 252.207 251.301 252.068 251.441C251.928 251.58 251.726 251.775 251.462 252.026C251.197 252.277 250.883 252.486 250.521 252.653C250.159 252.82 249.713 252.994 249.183 253.176C248.654 253.357 248.097 253.433 247.511 253.406C246.466 253.406 245.623 253.071 244.982 252.402C244.341 251.733 244.014 250.883 244 249.852Z" fill="#D9EBFF"/>
<path d="M252.778 247.177C252.778 246.982 252.883 246.648 253.092 246.174C253.301 245.7 253.635 245.205 254.095 244.69C254.555 244.174 255.07 243.924 255.642 243.937C256.213 243.937 256.673 244.098 257.021 244.418C257.37 244.739 257.551 245.185 257.565 245.756C257.537 246.021 257.516 246.167 257.502 246.195C257.502 246.237 257.39 246.557 257.168 247.156C256.945 247.755 256.715 248.431 256.478 249.184C256.241 249.936 256.129 250.535 256.143 250.981C256.143 251.58 256.241 251.998 256.436 252.235C256.631 252.472 256.924 252.597 257.314 252.611C257.634 252.611 257.934 252.535 258.213 252.381C258.491 252.228 258.707 252.068 258.86 251.901C259.014 251.733 259.202 251.504 259.425 251.211C259.425 251.197 259.46 251.058 259.529 250.793C259.599 250.528 259.697 250.117 259.822 249.56C259.947 249.002 260.08 248.487 260.219 248.013C260.749 245.923 261.041 244.829 261.097 244.732C261.278 244.355 261.578 244.167 261.996 244.167C262.177 244.167 262.323 244.216 262.435 244.314C262.546 244.411 262.623 244.495 262.664 244.564C262.706 244.634 262.72 244.697 262.706 244.753C262.706 244.934 262.365 246.397 261.682 249.142C260.999 251.887 260.609 253.392 260.512 253.656C260.121 254.813 259.446 255.732 258.484 256.415C257.523 257.098 256.561 257.446 255.6 257.46C254.973 257.46 254.423 257.307 253.949 257C253.475 256.694 253.238 256.234 253.238 255.621C253.238 255.314 253.287 255.057 253.384 254.848C253.482 254.639 253.614 254.485 253.782 254.388C253.949 254.29 254.088 254.221 254.2 254.179C254.311 254.137 254.429 254.116 254.555 254.116C255.168 254.116 255.475 254.409 255.475 254.994C255.475 255.273 255.391 255.516 255.224 255.725C255.057 255.935 254.896 256.074 254.743 256.144C254.59 256.213 254.499 256.248 254.471 256.248L254.409 256.269C254.436 256.339 254.569 256.422 254.806 256.52C255.043 256.617 255.279 256.666 255.516 256.666H255.684C255.92 256.666 256.102 256.652 256.227 256.624C256.687 256.499 257.112 256.234 257.502 255.83C257.892 255.426 258.192 254.994 258.401 254.534C258.61 254.074 258.77 253.684 258.881 253.364C258.993 253.043 259.049 252.834 259.049 252.737L258.923 252.82C258.84 252.876 258.707 252.953 258.526 253.05C258.345 253.148 258.164 253.231 257.983 253.301C257.704 253.371 257.432 253.406 257.168 253.406C256.527 253.406 255.962 253.252 255.475 252.946C254.987 252.639 254.666 252.144 254.513 251.462C254.499 251.364 254.492 251.148 254.492 250.814C254.492 250.02 254.736 248.982 255.224 247.7C255.711 246.418 255.955 245.603 255.955 245.254C255.955 245.24 255.955 245.226 255.955 245.212C255.955 245.087 255.955 245.003 255.955 244.962C255.955 244.92 255.927 244.871 255.872 244.815C255.816 244.76 255.739 244.732 255.642 244.732H255.558C255.238 244.732 254.945 244.864 254.68 245.129C254.416 245.394 254.207 245.679 254.053 245.986C253.9 246.292 253.782 246.585 253.698 246.864C253.614 247.142 253.559 247.296 253.531 247.323C253.503 247.351 253.391 247.365 253.196 247.365H252.904C252.82 247.282 252.778 247.219 252.778 247.177Z" fill="#D9EBFF"/>
<path d="M263.459 249.852C263.459 248.334 264.058 246.968 265.256 245.756C266.454 244.544 267.75 243.937 269.144 243.937C269.924 243.937 270.537 244.105 270.983 244.439C271.429 244.773 271.659 245.212 271.673 245.756C271.673 246.16 271.54 246.501 271.276 246.78C271.011 247.059 270.676 247.205 270.272 247.219C270.008 247.219 269.799 247.149 269.645 247.01C269.492 246.871 269.415 246.662 269.415 246.383C269.415 246.104 269.492 245.867 269.645 245.672C269.799 245.477 269.952 245.331 270.105 245.233C270.258 245.136 270.356 245.094 270.398 245.108H270.419C270.419 245.08 270.377 245.038 270.293 244.982C270.21 244.927 270.063 244.871 269.854 244.815C269.645 244.76 269.408 244.732 269.144 244.732C268.726 244.732 268.329 244.829 267.952 245.024C267.66 245.15 267.36 245.366 267.054 245.672C266.44 246.285 265.995 247.149 265.716 248.264C265.437 249.379 265.291 250.187 265.277 250.688C265.277 251.329 265.458 251.81 265.82 252.131C266.127 252.465 266.531 252.632 267.033 252.632H267.116C268.677 252.632 269.966 252.04 270.983 250.856C271.108 250.716 271.192 250.647 271.234 250.647C271.289 250.647 271.38 250.709 271.505 250.835C271.631 250.96 271.701 251.058 271.714 251.127C271.728 251.197 271.666 251.301 271.526 251.441C271.387 251.58 271.185 251.775 270.92 252.026C270.655 252.277 270.342 252.486 269.98 252.653C269.617 252.82 269.172 252.994 268.642 253.176C268.113 253.357 267.555 253.433 266.97 253.406C265.925 253.406 265.082 253.071 264.441 252.402C263.8 251.733 263.473 250.883 263.459 249.852Z" fill="#D9EBFF"/>
<path d="M274.243 251.942C274.243 252.402 274.418 252.632 274.766 252.632C275.282 252.632 275.72 251.901 276.083 250.438C276.166 250.159 276.236 250.013 276.292 249.999C276.32 249.985 276.389 249.978 276.501 249.978H276.584C276.71 249.978 276.793 249.978 276.835 249.978C276.877 249.978 276.912 249.992 276.94 250.02C276.968 250.047 276.981 250.096 276.981 250.166C276.968 250.249 276.947 250.361 276.919 250.5C276.891 250.64 276.814 250.904 276.689 251.295C276.563 251.685 276.424 252.012 276.271 252.277C276.118 252.542 275.902 252.799 275.623 253.05C275.344 253.301 275.024 253.419 274.661 253.406C274.16 253.406 273.693 253.252 273.261 252.946C272.829 252.639 272.606 252.124 272.592 251.399C272.592 251.232 272.599 251.113 272.613 251.044L273.972 245.651C274.85 242.098 275.288 240.266 275.288 240.154C275.288 240.113 275.282 240.078 275.268 240.05C275.254 240.022 275.226 239.994 275.184 239.966C275.142 239.938 275.107 239.924 275.079 239.924C275.052 239.924 274.996 239.918 274.912 239.904C274.829 239.89 274.773 239.883 274.745 239.883C274.717 239.883 274.655 239.876 274.557 239.862C274.459 239.848 274.39 239.848 274.348 239.862C274.209 239.862 274.118 239.862 274.076 239.862C274.034 239.862 273.979 239.855 273.909 239.841C273.839 239.827 273.798 239.806 273.784 239.778C273.77 239.75 273.763 239.709 273.763 239.653C273.763 239.625 273.777 239.527 273.805 239.36C273.874 239.095 273.951 238.949 274.034 238.921C274.118 238.893 274.62 238.852 275.539 238.796C275.748 238.782 275.985 238.768 276.25 238.754C276.515 238.74 276.724 238.719 276.877 238.691C277.03 238.663 277.107 238.657 277.107 238.67C277.274 238.67 277.358 238.726 277.358 238.838C277.358 238.991 276.849 241.081 275.832 245.108C274.815 249.135 274.292 251.246 274.264 251.441C274.264 251.469 274.264 251.524 274.264 251.608C274.264 251.692 274.257 251.761 274.243 251.817V251.942Z" fill="#D9EBFF"/>
<path d="M278.863 249.664C278.863 248.87 278.995 248.145 279.26 247.491C279.524 246.836 279.866 246.292 280.284 245.86C280.702 245.428 281.169 245.066 281.684 244.773C282.2 244.481 282.687 244.265 283.147 244.126C283.607 243.986 284.046 243.924 284.464 243.937H284.527C285.154 243.937 285.697 244.091 286.157 244.397C286.617 244.704 286.847 245.157 286.847 245.756C286.847 247.01 286.073 247.832 284.527 248.222C283.844 248.403 282.91 248.501 281.726 248.515C281.21 248.515 280.946 248.529 280.932 248.557C280.932 248.584 280.89 248.828 280.806 249.288C280.723 249.748 280.674 250.152 280.66 250.5C280.66 251.155 280.806 251.671 281.099 252.047C281.392 252.423 281.83 252.618 282.416 252.632C283.001 252.646 283.649 252.514 284.359 252.235C285.07 251.956 285.711 251.497 286.282 250.856C286.408 250.716 286.491 250.647 286.533 250.647C286.589 250.647 286.679 250.709 286.805 250.835C286.93 250.96 287 251.058 287.014 251.127C287.028 251.197 286.965 251.308 286.826 251.462C286.686 251.615 286.477 251.803 286.199 252.026C285.92 252.249 285.6 252.465 285.237 252.674C284.875 252.883 284.436 253.057 283.921 253.197C283.405 253.336 282.875 253.406 282.332 253.406C281.231 253.406 280.381 253.036 279.782 252.298C279.183 251.559 278.876 250.681 278.863 249.664ZM285.843 245.798C285.76 245.073 285.286 244.711 284.422 244.711C283.962 244.711 283.537 244.808 283.147 245.003C282.757 245.198 282.444 245.435 282.207 245.714C281.97 245.993 281.768 246.278 281.601 246.571C281.433 246.864 281.322 247.114 281.266 247.323C281.21 247.532 281.176 247.665 281.162 247.72C281.162 247.734 281.301 247.741 281.58 247.741C283.154 247.741 284.255 247.574 284.882 247.24C285.509 246.905 285.829 246.425 285.843 245.798Z" fill="#D9EBFF"/>
<path d="M290.525 247.135C290.525 246.689 290.637 246.237 290.86 245.777C291.083 245.317 291.473 244.892 292.03 244.502C292.587 244.112 293.263 243.924 294.057 243.937C294.921 243.937 295.548 244.126 295.938 244.502C296.329 244.878 296.531 245.296 296.545 245.756C296.545 246.202 296.426 246.529 296.189 246.738C295.952 246.947 295.688 247.059 295.395 247.073C295.214 247.073 295.047 247.017 294.893 246.905C294.74 246.794 294.657 246.613 294.643 246.362C294.643 246.139 294.705 245.944 294.831 245.777C294.956 245.61 295.075 245.484 295.186 245.401C295.298 245.317 295.388 245.275 295.458 245.275C295.472 245.275 295.479 245.268 295.479 245.254C295.479 245.212 295.43 245.15 295.332 245.066C295.235 244.982 295.061 244.906 294.81 244.836C294.559 244.767 294.287 244.725 293.995 244.711C293.326 244.711 292.838 244.892 292.532 245.254C292.225 245.616 292.065 245.986 292.051 246.362C292.051 246.71 292.183 246.954 292.448 247.093C292.713 247.233 293.096 247.351 293.598 247.449C294.099 247.546 294.461 247.651 294.684 247.762C295.604 248.166 296.064 248.835 296.064 249.769C296.064 250.159 295.987 250.549 295.834 250.939C295.681 251.329 295.451 251.72 295.144 252.11C294.838 252.5 294.399 252.806 293.828 253.029C293.256 253.252 292.601 253.371 291.863 253.385C290.79 253.385 290.031 253.183 289.585 252.778C289.139 252.374 288.909 251.901 288.895 251.357C288.895 250.814 289.041 250.424 289.334 250.187C289.626 249.95 289.933 249.831 290.253 249.831C290.462 249.831 290.658 249.894 290.839 250.02C291.02 250.145 291.117 250.361 291.131 250.668C291.131 251.03 291.006 251.336 290.755 251.587C290.504 251.838 290.288 251.963 290.107 251.963C290.079 251.977 290.058 251.984 290.044 251.984C290.031 251.984 290.024 251.998 290.024 252.026C290.037 252.068 290.093 252.124 290.191 252.193C290.288 252.263 290.504 252.354 290.839 252.465C291.173 252.576 291.556 252.625 291.988 252.611C292.49 252.611 292.922 252.535 293.284 252.381C293.646 252.228 293.911 252.033 294.078 251.796C294.246 251.559 294.364 251.343 294.434 251.148C294.503 250.953 294.538 250.779 294.538 250.626C294.538 250.236 294.392 249.943 294.099 249.748C293.807 249.553 293.472 249.434 293.096 249.393C292.72 249.351 292.309 249.246 291.863 249.079C291.417 248.912 291.09 248.668 290.88 248.348C290.644 247.999 290.525 247.595 290.525 247.135Z" fill="#D9EBFF"/>
<path d="M304.571 245.923C304.571 245.742 304.668 245.603 304.863 245.505H318.177C318.386 245.616 318.49 245.756 318.49 245.923C318.49 246.076 318.393 246.209 318.198 246.32L311.551 246.341H304.905C304.682 246.271 304.571 246.132 304.571 245.923ZM304.571 249.978C304.571 249.769 304.682 249.629 304.905 249.56H318.198C318.393 249.699 318.49 249.838 318.49 249.978C318.49 250.159 318.386 250.298 318.177 250.396H304.863C304.668 250.298 304.571 250.159 304.571 249.978Z" fill="#D9EBFF"/>
<path d="M327.457 247.95C327.457 246.989 327.527 246.076 327.666 245.212C327.805 244.348 327.965 243.603 328.147 242.976C328.328 242.349 328.586 241.736 328.92 241.137C329.254 240.538 329.519 240.071 329.714 239.736C329.909 239.402 330.202 239.04 330.592 238.65C330.982 238.259 331.212 238.023 331.282 237.939C331.351 237.855 331.526 237.709 331.804 237.5H332.16C332.355 237.5 332.452 237.563 332.452 237.688C332.452 237.73 332.334 237.876 332.097 238.127C331.86 238.378 331.574 238.747 331.24 239.235C330.906 239.722 330.564 240.322 330.216 241.032C329.867 241.743 329.575 242.704 329.338 243.917C329.101 245.129 328.983 246.473 328.983 247.95C328.983 249.427 329.101 250.765 329.338 251.963C329.575 253.162 329.86 254.13 330.195 254.869C330.529 255.607 330.871 256.206 331.219 256.666C331.567 257.126 331.86 257.495 332.097 257.774C332.334 258.052 332.452 258.199 332.452 258.213C332.452 258.338 332.348 258.401 332.139 258.401H331.804L331.219 257.899C329.909 256.715 328.955 255.238 328.356 253.468C327.756 251.699 327.457 249.859 327.457 247.95Z" fill="#D9EBFF"/>
<path d="M334.062 247.177C334.075 247.093 334.096 246.982 334.124 246.843C334.152 246.703 334.236 246.439 334.375 246.048C334.514 245.658 334.654 245.331 334.793 245.066C334.932 244.801 335.162 244.544 335.483 244.293C335.803 244.042 336.124 243.924 336.444 243.937C336.946 243.937 337.364 244.063 337.698 244.314C338.033 244.564 338.242 244.801 338.325 245.024C338.409 245.247 338.451 245.394 338.451 245.463C338.451 245.491 338.458 245.505 338.472 245.505L338.702 245.275C339.551 244.383 340.52 243.937 341.607 243.937C342.359 243.937 342.965 244.126 343.425 244.502C343.885 244.878 344.122 245.428 344.136 246.153C344.15 246.877 343.885 247.971 343.342 249.434C342.798 250.897 342.533 251.782 342.547 252.089C342.547 252.451 342.666 252.632 342.903 252.632C342.986 252.632 343.049 252.625 343.091 252.611C343.495 252.542 343.857 252.277 344.178 251.817C344.498 251.357 344.742 250.8 344.909 250.145C344.937 250.034 345.076 249.978 345.327 249.978C345.606 249.978 345.745 250.034 345.745 250.145C345.745 250.159 345.717 250.263 345.661 250.458C345.55 250.863 345.397 251.26 345.202 251.65C345.007 252.04 344.686 252.43 344.24 252.82C343.794 253.21 343.314 253.399 342.798 253.385C342.143 253.385 341.669 253.197 341.377 252.82C341.084 252.444 340.938 252.054 340.938 251.65C340.938 251.385 341.189 250.549 341.69 249.142C342.192 247.734 342.45 246.675 342.464 245.965C342.464 245.143 342.157 244.732 341.544 244.732H341.44C340.241 244.732 339.231 245.435 338.409 246.843L338.263 247.093L337.573 249.894C337.113 251.72 336.848 252.702 336.779 252.841C336.598 253.217 336.298 253.406 335.88 253.406C335.699 253.406 335.552 253.364 335.441 253.28C335.33 253.197 335.253 253.113 335.211 253.029C335.169 252.946 335.155 252.876 335.169 252.82C335.169 252.639 335.434 251.504 335.964 249.413C336.493 247.323 336.772 246.188 336.8 246.007C336.813 245.937 336.82 245.777 336.82 245.526C336.82 244.982 336.653 244.711 336.319 244.711C335.789 244.711 335.35 245.407 335.002 246.801C334.918 247.08 334.877 247.226 334.877 247.24C334.849 247.323 334.716 247.365 334.48 247.365H334.187C334.103 247.282 334.062 247.219 334.062 247.177Z" fill="#D9EBFF"/>
<path d="M349.316 247.782L349.124 247.856C348.986 247.905 348.789 247.954 348.532 248.004C348.276 248.053 347.991 248.087 347.675 248.107H347.395V247.427H347.675C348.138 247.408 348.567 247.334 348.961 247.206C349.355 247.078 349.631 246.959 349.789 246.851C349.946 246.743 350.084 246.634 350.202 246.526C350.222 246.496 350.281 246.482 350.38 246.482C350.468 246.482 350.552 246.511 350.631 246.57V250.989L350.646 255.422C350.715 255.491 350.774 255.535 350.823 255.555C350.872 255.574 350.99 255.594 351.178 255.614C351.365 255.633 351.67 255.643 352.094 255.643H352.478V256.323H352.315C352.108 256.294 351.325 256.279 349.966 256.279C348.626 256.279 347.853 256.294 347.646 256.323H347.469V255.643H347.853C348.069 255.643 348.257 255.643 348.414 255.643C348.572 255.643 348.695 255.638 348.784 255.629C348.872 255.619 348.951 255.604 349.02 255.584C349.089 255.565 349.128 255.555 349.138 255.555C349.148 255.555 349.178 255.53 349.227 255.481C349.276 255.432 349.306 255.412 349.316 255.422V247.782Z" fill="#D9EBFF"/>
<path d="M357.282 252.444C357.282 252.444 357.282 252.27 357.282 251.922C357.282 251.573 357.394 251.274 357.617 251.023C357.84 250.772 358.139 250.647 358.515 250.647C358.906 250.647 359.254 250.821 359.561 251.169C359.867 251.517 360.027 252.131 360.041 253.008C360.041 253.496 359.979 253.97 359.853 254.43C359.728 254.889 359.581 255.287 359.414 255.621C359.247 255.955 359.066 256.241 358.871 256.478C358.676 256.715 358.509 256.903 358.369 257.042C358.23 257.182 358.139 257.244 358.097 257.23C358.042 257.23 357.951 257.168 357.826 257.042C357.7 256.917 357.638 256.826 357.638 256.771C357.638 256.715 357.714 256.603 357.868 256.436C358.021 256.269 358.195 256.06 358.39 255.809C358.585 255.558 358.766 255.21 358.934 254.764C359.101 254.318 359.212 253.81 359.268 253.238V252.987L359.247 253.008C359.219 253.022 359.184 253.036 359.143 253.05C359.101 253.064 359.059 253.085 359.017 253.113C358.975 253.141 358.913 253.155 358.829 253.155C358.745 253.155 358.662 253.162 358.578 253.176C358.202 253.176 357.895 253.057 357.659 252.82L357.282 252.444Z" fill="#D9EBFF"/>
<path d="M365.413 247.177C365.427 247.093 365.448 246.982 365.475 246.843C365.503 246.703 365.587 246.439 365.726 246.048C365.866 245.658 366.005 245.331 366.144 245.066C366.284 244.801 366.514 244.544 366.834 244.293C367.154 244.042 367.475 243.924 367.795 243.937C368.297 243.937 368.715 244.063 369.049 244.314C369.384 244.564 369.593 244.801 369.677 245.024C369.76 245.247 369.802 245.394 369.802 245.463C369.802 245.491 369.809 245.505 369.823 245.505L370.053 245.275C370.903 244.383 371.871 243.937 372.958 243.937C373.71 243.937 374.317 244.126 374.776 244.502C375.236 244.878 375.473 245.428 375.487 246.153C375.501 246.877 375.236 247.971 374.693 249.434C374.149 250.897 373.885 251.782 373.898 252.089C373.898 252.451 374.017 252.632 374.254 252.632C374.337 252.632 374.4 252.625 374.442 252.611C374.846 252.542 375.208 252.277 375.529 251.817C375.849 251.357 376.093 250.8 376.26 250.145C376.288 250.034 376.427 249.978 376.678 249.978C376.957 249.978 377.096 250.034 377.096 250.145C377.096 250.159 377.068 250.263 377.013 250.458C376.901 250.863 376.748 251.26 376.553 251.65C376.358 252.04 376.037 252.43 375.591 252.82C375.146 253.21 374.665 253.399 374.149 253.385C373.494 253.385 373.021 253.197 372.728 252.82C372.435 252.444 372.289 252.054 372.289 251.65C372.289 251.385 372.54 250.549 373.042 249.142C373.543 247.734 373.801 246.675 373.815 245.965C373.815 245.143 373.508 244.732 372.895 244.732H372.791C371.592 244.732 370.582 245.435 369.76 246.843L369.614 247.093L368.924 249.894C368.464 251.72 368.2 252.702 368.13 252.841C367.949 253.217 367.649 253.406 367.231 253.406C367.05 253.406 366.904 253.364 366.792 253.28C366.681 253.197 366.604 253.113 366.562 253.029C366.521 252.946 366.507 252.876 366.521 252.82C366.521 252.639 366.785 251.504 367.315 249.413C367.844 247.323 368.123 246.188 368.151 246.007C368.165 245.937 368.172 245.777 368.172 245.526C368.172 244.982 368.004 244.711 367.67 244.711C367.141 244.711 366.702 245.407 366.353 246.801C366.27 247.08 366.228 247.226 366.228 247.24C366.2 247.323 366.068 247.365 365.831 247.365H365.538C365.455 247.282 365.413 247.219 365.413 247.177Z" fill="#D9EBFF"/>
<path d="M379.13 249.984C378.864 249.984 378.652 249.895 378.495 249.718C378.337 249.54 378.258 249.324 378.258 249.068C378.258 248.368 378.519 247.762 379.041 247.25C379.564 246.738 380.214 246.482 380.992 246.482C381.888 246.482 382.637 246.758 383.238 247.309C383.839 247.861 384.144 248.575 384.154 249.452C384.154 249.875 384.056 250.279 383.859 250.664C383.662 251.048 383.425 251.383 383.149 251.668C382.874 251.954 382.48 252.319 381.967 252.762C381.613 253.067 381.12 253.52 380.49 254.121L379.618 254.949L380.741 254.964C382.287 254.964 383.11 254.939 383.208 254.89C383.277 254.87 383.396 254.432 383.563 253.575V253.53H384.154V253.575C384.144 253.604 384.08 254.052 383.962 254.919C383.844 255.786 383.77 256.239 383.74 256.279V256.323H378.258V255.865C378.258 255.796 378.288 255.722 378.347 255.643C378.406 255.565 378.554 255.392 378.79 255.126C379.076 254.811 379.322 254.535 379.529 254.299C379.618 254.2 379.785 254.018 380.031 253.752C380.278 253.486 380.445 253.304 380.534 253.205C380.623 253.107 380.765 252.944 380.962 252.718C381.159 252.491 381.297 252.323 381.376 252.215C381.455 252.107 381.568 251.959 381.716 251.772C381.864 251.585 381.967 251.427 382.026 251.299C382.085 251.171 382.159 251.028 382.248 250.87C382.337 250.713 382.401 250.555 382.44 250.398C382.479 250.24 382.514 250.092 382.544 249.954C382.573 249.816 382.588 249.654 382.588 249.467C382.588 248.846 382.42 248.309 382.085 247.856C381.751 247.403 381.273 247.176 380.652 247.176C380.327 247.176 380.041 247.26 379.795 247.427C379.549 247.595 379.376 247.757 379.278 247.915C379.179 248.073 379.13 248.166 379.13 248.196C379.13 248.206 379.155 248.211 379.204 248.211C379.381 248.211 379.564 248.28 379.751 248.417C379.938 248.555 380.031 248.782 380.031 249.097C380.031 249.343 379.953 249.55 379.795 249.718C379.637 249.885 379.416 249.974 379.13 249.984Z" fill="#D9EBFF"/>
<path d="M388.634 252.444C388.634 252.444 388.634 252.27 388.634 251.922C388.634 251.573 388.745 251.274 388.968 251.023C389.191 250.772 389.49 250.647 389.867 250.647C390.257 250.647 390.605 250.821 390.912 251.169C391.218 251.517 391.379 252.131 391.392 253.008C391.392 253.496 391.33 253.97 391.204 254.43C391.079 254.889 390.933 255.287 390.765 255.621C390.598 255.955 390.417 256.241 390.222 256.478C390.027 256.715 389.86 256.903 389.72 257.042C389.581 257.182 389.49 257.244 389.449 257.23C389.393 257.23 389.302 257.168 389.177 257.042C389.052 256.917 388.989 256.826 388.989 256.771C388.989 256.715 389.065 256.603 389.219 256.436C389.372 256.269 389.546 256.06 389.741 255.809C389.936 255.558 390.117 255.21 390.285 254.764C390.452 254.318 390.563 253.81 390.619 253.238V252.987L390.598 253.008C390.57 253.022 390.535 253.036 390.494 253.05C390.452 253.064 390.41 253.085 390.368 253.113C390.326 253.141 390.264 253.155 390.18 253.155C390.097 253.155 390.013 253.162 389.929 253.176C389.553 253.176 389.247 253.057 389.01 252.82L388.634 252.444Z" fill="#D9EBFF"/>
<path d="M396.743 247.177C396.757 247.093 396.778 246.982 396.806 246.843C396.834 246.703 396.917 246.439 397.057 246.048C397.196 245.658 397.335 245.331 397.475 245.066C397.614 244.801 397.844 244.544 398.164 244.293C398.485 244.042 398.805 243.924 399.126 243.937C399.627 243.937 400.045 244.063 400.38 244.314C400.714 244.564 400.923 244.801 401.007 245.024C401.09 245.247 401.132 245.394 401.132 245.463C401.132 245.491 401.139 245.505 401.153 245.505L401.383 245.275C402.233 244.383 403.201 243.937 404.288 243.937C405.041 243.937 405.647 244.126 406.107 244.502C406.566 244.878 406.803 245.428 406.817 246.153C406.831 246.877 406.566 247.971 406.023 249.434C405.48 250.897 405.215 251.782 405.229 252.089C405.229 252.451 405.347 252.632 405.584 252.632C405.668 252.632 405.73 252.625 405.772 252.611C406.176 252.542 406.539 252.277 406.859 251.817C407.18 251.357 407.423 250.8 407.591 250.145C407.618 250.034 407.758 249.978 408.009 249.978C408.287 249.978 408.427 250.034 408.427 250.145C408.427 250.159 408.399 250.263 408.343 250.458C408.232 250.863 408.078 251.26 407.883 251.65C407.688 252.04 407.368 252.43 406.922 252.82C406.476 253.21 405.995 253.399 405.48 253.385C404.825 253.385 404.351 253.197 404.058 252.82C403.766 252.444 403.619 252.054 403.619 251.65C403.619 251.385 403.87 250.549 404.372 249.142C404.873 247.734 405.131 246.675 405.145 245.965C405.145 245.143 404.839 244.732 404.226 244.732H404.121C402.923 244.732 401.913 245.435 401.09 246.843L400.944 247.093L400.254 249.894C399.795 251.72 399.53 252.702 399.46 252.841C399.279 253.217 398.979 253.406 398.561 253.406C398.38 253.406 398.234 253.364 398.122 253.28C398.011 253.197 397.934 253.113 397.893 253.029C397.851 252.946 397.837 252.876 397.851 252.82C397.851 252.639 398.116 251.504 398.645 249.413C399.175 247.323 399.453 246.188 399.481 246.007C399.495 245.937 399.502 245.777 399.502 245.526C399.502 244.982 399.335 244.711 399 244.711C398.471 244.711 398.032 245.407 397.684 246.801C397.6 247.08 397.558 247.226 397.558 247.24C397.53 247.323 397.398 247.365 397.161 247.365H396.868C396.785 247.282 396.743 247.219 396.743 247.177Z" fill="#D9EBFF"/>
<path d="M410.726 249.481C410.46 249.481 410.253 249.398 410.106 249.23C409.958 249.063 409.879 248.846 409.869 248.58C409.869 248.038 410.106 247.555 410.579 247.132C411.051 246.708 411.623 246.496 412.293 246.496C412.637 246.496 412.854 246.501 412.943 246.511C413.672 246.629 414.228 246.891 414.613 247.294C414.997 247.698 415.194 248.137 415.204 248.61C415.204 249.122 415.036 249.619 414.701 250.102C414.366 250.585 413.903 250.934 413.312 251.151L413.268 251.181C413.268 251.191 413.312 251.205 413.401 251.225C413.49 251.245 413.632 251.289 413.829 251.358C414.027 251.427 414.214 251.53 414.391 251.668C415.199 252.19 415.603 252.88 415.603 253.737C415.603 254.515 415.297 255.195 414.687 255.776C414.076 256.358 413.302 256.648 412.367 256.648C411.578 256.648 410.899 256.436 410.327 256.013C409.756 255.589 409.47 255.052 409.47 254.402C409.47 254.126 409.559 253.905 409.736 253.737C409.914 253.57 410.135 253.481 410.401 253.471C410.677 253.471 410.904 253.56 411.081 253.737C411.258 253.914 411.347 254.136 411.347 254.402C411.347 254.51 411.332 254.609 411.303 254.698C411.273 254.786 411.239 254.865 411.199 254.934C411.16 255.003 411.106 255.062 411.037 255.111C410.968 255.161 410.909 255.2 410.859 255.23C410.81 255.259 410.761 255.279 410.712 255.289C410.662 255.299 410.623 255.313 410.593 255.333L410.534 255.348C411.037 255.791 411.647 256.013 412.367 256.013C412.908 256.013 413.317 255.752 413.593 255.23C413.761 254.904 413.844 254.407 413.844 253.737V253.442C413.844 252.506 413.529 251.88 412.899 251.565C412.751 251.506 412.45 251.471 411.997 251.461L411.377 251.447L411.332 251.417C411.312 251.388 411.303 251.309 411.303 251.181C411.303 251.003 411.342 250.915 411.421 250.915C411.697 250.915 411.982 250.89 412.278 250.841C412.613 250.792 412.918 250.585 413.194 250.22C413.47 249.856 413.608 249.304 413.608 248.565V248.447C413.608 247.885 413.435 247.496 413.091 247.28C412.874 247.142 412.642 247.073 412.396 247.073C412.081 247.073 411.79 247.127 411.524 247.235C411.258 247.344 411.071 247.457 410.963 247.575C410.854 247.693 410.8 247.752 410.8 247.752H410.845C410.874 247.762 410.914 247.772 410.963 247.782C411.012 247.792 411.061 247.817 411.111 247.856C411.16 247.895 411.219 247.93 411.288 247.959C411.357 247.989 411.406 248.043 411.436 248.122C411.465 248.201 411.505 248.275 411.554 248.344C411.603 248.413 411.618 248.511 411.598 248.639C411.598 248.856 411.529 249.048 411.391 249.215C411.253 249.383 411.032 249.472 410.726 249.481Z" fill="#D9EBFF"/>
<path d="M419.985 252.444C419.985 252.444 419.985 252.27 419.985 251.922C419.985 251.573 420.096 251.274 420.319 251.023C420.542 250.772 420.842 250.647 421.218 250.647C421.608 250.647 421.956 250.821 422.263 251.169C422.569 251.517 422.73 252.131 422.744 253.008C422.744 253.496 422.681 253.97 422.556 254.43C422.43 254.889 422.284 255.287 422.117 255.621C421.949 255.955 421.768 256.241 421.573 256.478C421.378 256.715 421.211 256.903 421.072 257.042C420.932 257.182 420.842 257.244 420.8 257.23C420.744 257.23 420.654 257.168 420.528 257.042C420.403 256.917 420.34 256.826 420.34 256.771C420.34 256.715 420.417 256.603 420.57 256.436C420.723 256.269 420.897 256.06 421.092 255.809C421.288 255.558 421.469 255.21 421.636 254.764C421.803 254.318 421.915 253.81 421.97 253.238V252.987L421.949 253.008C421.922 253.022 421.887 253.036 421.845 253.05C421.803 253.064 421.761 253.085 421.72 253.113C421.678 253.141 421.615 253.155 421.531 253.155C421.448 253.155 421.364 253.162 421.281 253.176C420.904 253.176 420.598 253.057 420.361 252.82L419.985 252.444Z" fill="#D9EBFF"/>
<path d="M428.094 247.177C428.108 247.093 428.129 246.982 428.157 246.843C428.185 246.703 428.268 246.439 428.408 246.048C428.547 245.658 428.686 245.331 428.826 245.066C428.965 244.801 429.195 244.544 429.516 244.293C429.836 244.042 430.156 243.924 430.477 243.937C430.979 243.937 431.397 244.063 431.731 244.314C432.065 244.564 432.274 244.801 432.358 245.024C432.442 245.247 432.483 245.394 432.483 245.463C432.483 245.491 432.49 245.505 432.504 245.505L432.734 245.275C433.584 244.383 434.553 243.937 435.639 243.937C436.392 243.937 436.998 244.126 437.458 244.502C437.918 244.878 438.155 245.428 438.168 246.153C438.182 246.877 437.918 247.971 437.374 249.434C436.831 250.897 436.566 251.782 436.58 252.089C436.58 252.451 436.698 252.632 436.935 252.632C437.019 252.632 437.082 252.625 437.123 252.611C437.527 252.542 437.89 252.277 438.21 251.817C438.531 251.357 438.775 250.8 438.942 250.145C438.97 250.034 439.109 249.978 439.36 249.978C439.638 249.978 439.778 250.034 439.778 250.145C439.778 250.159 439.75 250.263 439.694 250.458C439.583 250.863 439.429 251.26 439.234 251.65C439.039 252.04 438.719 252.43 438.273 252.82C437.827 253.21 437.346 253.399 436.831 253.385C436.176 253.385 435.702 253.197 435.41 252.82C435.117 252.444 434.971 252.054 434.971 251.65C434.971 251.385 435.221 250.549 435.723 249.142C436.225 247.734 436.482 246.675 436.496 245.965C436.496 245.143 436.19 244.732 435.577 244.732H435.472C434.274 244.732 433.264 245.435 432.442 246.843L432.295 247.093L431.606 249.894C431.146 251.72 430.881 252.702 430.811 252.841C430.63 253.217 430.331 253.406 429.913 253.406C429.731 253.406 429.585 253.364 429.474 253.28C429.362 253.197 429.286 253.113 429.244 253.029C429.202 252.946 429.188 252.876 429.202 252.82C429.202 252.639 429.467 251.504 429.996 249.413C430.526 247.323 430.804 246.188 430.832 246.007C430.846 245.937 430.853 245.777 430.853 245.526C430.853 244.982 430.686 244.711 430.352 244.711C429.822 244.711 429.383 245.407 429.035 246.801C428.951 247.08 428.909 247.226 428.909 247.24C428.882 247.323 428.749 247.365 428.512 247.365H428.22C428.136 247.282 428.094 247.219 428.094 247.177Z" fill="#D9EBFF"/>
<path d="M441.619 247.679C442.171 246.881 442.925 246.482 443.88 246.482C444.353 246.482 444.826 246.61 445.299 246.866C445.772 247.122 446.156 247.575 446.452 248.225C446.816 249.043 446.998 250.166 446.998 251.594C446.998 253.121 446.786 254.289 446.363 255.097C446.166 255.51 445.895 255.84 445.55 256.087C445.205 256.333 444.905 256.486 444.649 256.545C444.393 256.604 444.141 256.638 443.895 256.648C443.639 256.648 443.383 256.619 443.127 256.56C442.871 256.5 442.57 256.343 442.225 256.087C441.881 255.831 441.61 255.5 441.413 255.097C440.989 254.289 440.777 253.121 440.777 251.594C440.777 249.88 441.058 248.575 441.619 247.679ZM444.944 247.501C444.649 247.186 444.299 247.028 443.895 247.028C443.481 247.028 443.127 247.186 442.831 247.501C442.585 247.757 442.422 248.112 442.344 248.565C442.265 249.018 442.225 249.964 442.225 251.402C442.225 252.959 442.265 253.983 442.344 254.476C442.422 254.969 442.6 255.358 442.876 255.643C443.151 255.939 443.491 256.087 443.895 256.087C444.289 256.087 444.624 255.939 444.9 255.643C445.186 255.348 445.363 254.934 445.432 254.402C445.501 253.87 445.54 252.87 445.55 251.402C445.55 249.974 445.511 249.033 445.432 248.58C445.353 248.127 445.191 247.767 444.944 247.501Z" fill="#D9EBFF"/>
<path d="M450.939 237.521L451.022 237.5C451.092 237.5 451.162 237.5 451.231 237.5H451.482L452.067 238.002C453.377 239.186 454.332 240.663 454.931 242.433C455.53 244.202 455.83 246.041 455.83 247.95C455.83 248.898 455.76 249.811 455.621 250.688C455.481 251.566 455.321 252.312 455.14 252.925C454.959 253.538 454.701 254.151 454.367 254.764C454.032 255.377 453.767 255.844 453.572 256.164C453.377 256.485 453.092 256.84 452.715 257.23C452.339 257.621 452.116 257.85 452.047 257.92C451.977 257.99 451.817 258.122 451.566 258.317C451.524 258.359 451.496 258.387 451.482 258.401H451.231C451.12 258.401 451.043 258.401 451.002 258.401C450.96 258.401 450.925 258.38 450.897 258.338C450.869 258.296 450.848 258.234 450.834 258.15C450.848 258.136 450.925 258.045 451.064 257.878C453.224 255.635 454.304 252.326 454.304 247.95C454.304 243.575 453.224 240.266 451.064 238.023C450.925 237.855 450.848 237.765 450.834 237.751C450.834 237.639 450.869 237.563 450.939 237.521Z" fill="#D9EBFF"/>
<path d="M396.743 247.177C396.757 247.094 396.778 246.982 396.806 246.843C396.834 246.703 396.917 246.439 397.057 246.049C397.196 245.658 397.335 245.331 397.475 245.066C397.614 244.802 397.844 244.544 398.164 244.293C398.485 244.042 398.805 243.924 399.126 243.938C399.627 243.938 400.045 244.063 400.38 244.314C400.714 244.565 400.923 244.802 401.007 245.024C401.091 245.247 401.132 245.394 401.132 245.463C401.132 245.491 401.139 245.505 401.153 245.505L401.383 245.275C402.233 244.384 403.202 243.938 404.288 243.938C405.041 243.938 405.647 244.126 406.107 244.502C406.567 244.878 406.803 245.429 406.817 246.153C406.831 246.878 406.567 247.971 406.023 249.435C405.48 250.898 405.215 251.782 405.229 252.089C405.229 252.451 405.347 252.632 405.584 252.632C405.668 252.632 405.731 252.625 405.772 252.611C406.176 252.542 406.539 252.277 406.859 251.817C407.18 251.357 407.423 250.8 407.591 250.145C407.619 250.034 407.758 249.978 408.009 249.978C408.287 249.978 408.427 250.034 408.427 250.145C408.427 250.159 408.399 250.264 408.343 250.459C408.232 250.863 408.078 251.26 407.883 251.65C407.688 252.04 407.368 252.43 406.922 252.82C406.476 253.211 405.995 253.399 405.48 253.385C404.825 253.385 404.351 253.197 404.058 252.82C403.766 252.444 403.62 252.054 403.62 251.65C403.62 251.385 403.87 250.549 404.372 249.142C404.874 247.735 405.131 246.676 405.145 245.965C405.145 245.143 404.839 244.732 404.226 244.732H404.121C402.923 244.732 401.913 245.436 401.091 246.843L400.944 247.094L400.255 249.894C399.795 251.72 399.53 252.702 399.46 252.841C399.279 253.218 398.98 253.406 398.562 253.406C398.38 253.406 398.234 253.364 398.123 253.28C398.011 253.197 397.935 253.113 397.893 253.029C397.851 252.946 397.837 252.876 397.851 252.82C397.851 252.639 398.116 251.504 398.645 249.414C399.175 247.324 399.453 246.188 399.481 246.007C399.495 245.937 399.502 245.777 399.502 245.526C399.502 244.983 399.335 244.711 399 244.711C398.471 244.711 398.032 245.408 397.684 246.801C397.6 247.08 397.558 247.226 397.558 247.24C397.53 247.324 397.398 247.365 397.161 247.365H396.869C396.785 247.282 396.743 247.219 396.743 247.177Z" fill="#3491FF"/>
<path d="M410.726 249.482C410.46 249.482 410.254 249.398 410.106 249.23C409.958 249.063 409.879 248.846 409.869 248.58C409.869 248.038 410.106 247.556 410.579 247.132C411.052 246.708 411.623 246.497 412.293 246.497C412.638 246.497 412.854 246.502 412.943 246.511C413.672 246.63 414.229 246.891 414.613 247.295C414.997 247.698 415.194 248.137 415.204 248.61C415.204 249.122 415.036 249.619 414.701 250.102C414.367 250.585 413.903 250.935 413.312 251.151L413.268 251.181C413.268 251.191 413.312 251.206 413.401 251.225C413.49 251.245 413.633 251.289 413.83 251.358C414.027 251.427 414.214 251.531 414.391 251.669C415.199 252.191 415.603 252.88 415.603 253.737C415.603 254.516 415.297 255.195 414.687 255.777C414.076 256.358 413.303 256.648 412.367 256.648C411.579 256.648 410.899 256.437 410.327 256.013C409.756 255.589 409.47 255.052 409.47 254.402C409.47 254.126 409.559 253.905 409.736 253.737C409.914 253.57 410.135 253.481 410.401 253.471C410.677 253.471 410.904 253.56 411.081 253.737C411.258 253.915 411.347 254.136 411.347 254.402C411.347 254.511 411.332 254.609 411.303 254.698C411.273 254.786 411.239 254.865 411.199 254.934C411.16 255.003 411.106 255.062 411.037 255.112C410.968 255.161 410.909 255.2 410.859 255.23C410.81 255.259 410.761 255.279 410.712 255.289C410.662 255.299 410.623 255.313 410.593 255.333L410.534 255.348C411.037 255.791 411.648 256.013 412.367 256.013C412.909 256.013 413.317 255.752 413.593 255.23C413.761 254.905 413.844 254.407 413.844 253.737V253.442C413.844 252.506 413.529 251.88 412.899 251.565C412.751 251.506 412.45 251.472 411.997 251.462L411.377 251.447L411.332 251.417C411.313 251.388 411.303 251.309 411.303 251.181C411.303 251.004 411.342 250.915 411.421 250.915C411.697 250.915 411.983 250.89 412.278 250.841C412.613 250.792 412.918 250.585 413.194 250.22C413.47 249.856 413.608 249.304 413.608 248.565V248.447C413.608 247.886 413.436 247.497 413.091 247.28C412.874 247.142 412.643 247.073 412.396 247.073C412.081 247.073 411.79 247.127 411.524 247.235C411.258 247.344 411.071 247.457 410.963 247.575C410.855 247.694 410.8 247.753 410.8 247.753H410.845C410.874 247.763 410.914 247.772 410.963 247.782C411.012 247.792 411.061 247.817 411.111 247.856C411.16 247.896 411.219 247.93 411.288 247.96C411.357 247.989 411.406 248.043 411.436 248.122C411.465 248.201 411.505 248.275 411.554 248.344C411.603 248.413 411.618 248.511 411.598 248.639C411.598 248.856 411.529 249.048 411.391 249.216C411.254 249.383 411.032 249.472 410.726 249.482Z" fill="#3491FF"/>
</svg>
