<svg width="700" height="262" viewBox="0 0 700 262" fill="none" xmlns="http://www.w3.org/2000/svg">
<rect width="700" height="261" transform="translate(0 0.5)" fill="#0A0D12"/>
<path d="M400 59.5L300 59.5L300 159.5L400 159.5L400 59.5ZM400 59.5L449.5 10M250 209.5H450V9.5H250L250 209.5Z" stroke="#B3BFD8" stroke-width="2"/>
<path d="M400 59.5L449.5 10" stroke="#EB5757" stroke-width="2"/>
<circle cx="250" cy="9.5" r="5" fill="black" stroke="#D9EBFF" stroke-width="2"/>
<circle cx="299.656" cy="59.1569" r="5" transform="rotate(45 299.656 59.1569)" fill="black" stroke="#D9EBFF" stroke-width="2"/>
<circle cx="450" cy="9.5" r="5" fill="black" stroke="#D9EBFF" stroke-width="2"/>
<rect x="426.751" y="28.2707" width="7.5" height="7.5" transform="rotate(45 426.751 28.2707)" fill="black" stroke="#EB5757" stroke-width="2"/>
<circle cx="399.656" cy="59.1569" r="5" transform="rotate(45 399.656 59.1569)" fill="black" stroke="#D9EBFF" stroke-width="2"/>
<circle cx="250" cy="209.5" r="5" fill="black" stroke="#D9EBFF" stroke-width="2"/>
<circle cx="299.656" cy="159.157" r="5" transform="rotate(45 299.656 159.157)" fill="black" stroke="#D9EBFF" stroke-width="2"/>
<circle cx="450" cy="209.5" r="5" fill="black" stroke="#D9EBFF" stroke-width="2"/>
<circle cx="399.656" cy="159.157" r="5" transform="rotate(45 399.656 159.157)" fill="black" stroke="#D9EBFF" stroke-width="2"/>
<path d="M276 246.852C276 245.334 276.599 243.968 277.797 242.756C278.996 241.544 280.292 240.937 281.685 240.937C282.465 240.937 283.078 241.105 283.524 241.439C283.97 241.773 284.2 242.212 284.214 242.756C284.214 243.16 284.082 243.501 283.817 243.78C283.552 244.059 283.218 244.205 282.814 244.219C282.549 244.219 282.34 244.149 282.187 244.01C282.033 243.871 281.957 243.662 281.957 243.383C281.957 243.104 282.033 242.867 282.187 242.672C282.34 242.477 282.493 242.331 282.646 242.233C282.8 242.136 282.897 242.094 282.939 242.108H282.96C282.96 242.08 282.918 242.038 282.835 241.982C282.751 241.927 282.605 241.871 282.396 241.815C282.187 241.76 281.95 241.732 281.685 241.732C281.267 241.732 280.87 241.829 280.494 242.024C280.201 242.15 279.901 242.366 279.595 242.672C278.982 243.285 278.536 244.149 278.257 245.264C277.979 246.379 277.832 247.187 277.818 247.688C277.818 248.329 278 248.81 278.362 249.131C278.668 249.465 279.072 249.632 279.574 249.632H279.658C281.218 249.632 282.507 249.04 283.524 247.856C283.65 247.716 283.733 247.647 283.775 247.647C283.831 247.647 283.921 247.709 284.047 247.835C284.172 247.96 284.242 248.058 284.256 248.127C284.27 248.197 284.207 248.301 284.068 248.441C283.928 248.58 283.726 248.775 283.462 249.026C283.197 249.277 282.883 249.486 282.521 249.653C282.159 249.82 281.713 249.994 281.183 250.176C280.654 250.357 280.097 250.433 279.511 250.406C278.466 250.406 277.623 250.071 276.982 249.402C276.341 248.733 276.014 247.883 276 246.852Z" fill="#D9EBFF"/>
<path d="M284.778 244.177C284.792 244.135 284.806 244.08 284.82 244.01C284.834 243.94 284.869 243.787 284.925 243.55C284.98 243.313 285.05 243.097 285.134 242.902C285.217 242.707 285.322 242.477 285.447 242.212C285.573 241.948 285.712 241.739 285.865 241.585C286.018 241.432 286.2 241.279 286.409 241.126C286.618 240.972 286.848 240.91 287.098 240.937C287.502 240.937 287.858 241.021 288.164 241.188C288.471 241.355 288.687 241.509 288.812 241.648C288.938 241.787 289.014 241.927 289.042 242.066C289.07 242.15 289.091 242.191 289.105 242.191C289.119 242.191 289.174 242.143 289.272 242.045C289.941 241.321 290.714 240.958 291.592 240.958H291.655C292.324 240.958 292.825 241.244 293.16 241.815C293.271 242.08 293.327 242.338 293.327 242.589C293.327 243.007 293.236 243.341 293.055 243.592C292.874 243.843 292.693 244.003 292.512 244.073C292.33 244.142 292.156 244.17 291.989 244.156C291.71 244.156 291.487 244.08 291.32 243.926C291.153 243.773 291.069 243.571 291.069 243.32C291.069 242.651 291.46 242.205 292.24 241.982C291.933 241.801 291.683 241.711 291.487 241.711C290.707 241.711 289.99 242.226 289.335 243.257C289.195 243.48 289.091 243.71 289.021 243.947C288.952 244.184 288.715 245.111 288.311 246.727C287.837 248.678 287.565 249.716 287.495 249.841C287.314 250.217 287.015 250.406 286.597 250.406C286.416 250.406 286.269 250.364 286.158 250.28C286.046 250.197 285.97 250.113 285.928 250.029C285.886 249.946 285.872 249.876 285.886 249.82C285.886 249.639 286.165 248.441 286.722 246.225C287.279 244.01 287.558 242.777 287.558 242.526C287.558 241.982 287.377 241.711 287.015 241.711C286.722 241.711 286.471 241.906 286.262 242.296C286.053 242.686 285.886 243.111 285.761 243.571C285.635 244.031 285.559 244.282 285.531 244.323C285.503 244.351 285.391 244.365 285.196 244.365H284.904C284.82 244.282 284.778 244.219 284.778 244.177Z" fill="#D9EBFF"/>
<path d="M297.988 250.406C296.943 250.406 296.1 250.064 295.459 249.381C294.818 248.699 294.497 247.877 294.497 246.915C294.497 246.009 294.706 245.152 295.124 244.344C295.542 243.536 296.114 242.832 296.838 242.233C297.897 241.383 298.977 240.958 300.078 240.958C300.524 240.958 300.802 240.965 300.914 240.979C301.095 241.021 301.276 241.07 301.457 241.126C301.638 241.181 301.882 241.293 302.189 241.46C302.495 241.627 302.746 241.836 302.941 242.087C303.136 242.338 303.317 242.679 303.485 243.111C303.652 243.543 303.735 244.031 303.735 244.574C303.735 246.065 303.136 247.41 301.938 248.608C300.74 249.806 299.423 250.406 297.988 250.406ZM296.316 247.668C296.316 248.364 296.497 248.866 296.859 249.172C297.221 249.479 297.632 249.632 298.092 249.632C298.705 249.632 299.283 249.409 299.827 248.963C300.37 248.517 300.802 247.932 301.123 247.208C301.248 246.915 301.408 246.4 301.603 245.661C301.799 244.923 301.896 244.282 301.896 243.738C301.896 243.125 301.771 242.658 301.52 242.338C301.185 241.92 300.74 241.711 300.182 241.711C299.304 241.711 298.531 242.115 297.862 242.923C297.347 243.536 296.964 244.351 296.713 245.368C296.462 246.386 296.33 247.152 296.316 247.668Z" fill="#D9EBFF"/>
<path d="M306.661 244.135C306.661 243.689 306.773 243.237 306.996 242.777C307.219 242.317 307.609 241.892 308.166 241.502C308.724 241.112 309.399 240.924 310.194 240.937C311.058 240.937 311.685 241.126 312.075 241.502C312.465 241.878 312.667 242.296 312.681 242.756C312.681 243.202 312.562 243.529 312.326 243.738C312.089 243.947 311.824 244.059 311.531 244.073C311.35 244.073 311.183 244.017 311.03 243.905C310.876 243.794 310.793 243.613 310.779 243.362C310.779 243.139 310.842 242.944 310.967 242.777C311.092 242.61 311.211 242.484 311.322 242.401C311.434 242.317 311.524 242.275 311.594 242.275C311.608 242.275 311.615 242.268 311.615 242.254C311.615 242.212 311.566 242.15 311.469 242.066C311.371 241.982 311.197 241.906 310.946 241.836C310.695 241.767 310.424 241.725 310.131 241.711C309.462 241.711 308.974 241.892 308.668 242.254C308.361 242.616 308.201 242.986 308.187 243.362C308.187 243.71 308.32 243.954 308.584 244.093C308.849 244.233 309.232 244.351 309.734 244.449C310.236 244.546 310.598 244.651 310.821 244.762C311.74 245.166 312.2 245.835 312.2 246.769C312.2 247.159 312.124 247.549 311.97 247.939C311.817 248.329 311.587 248.72 311.281 249.11C310.974 249.5 310.535 249.806 309.964 250.029C309.393 250.252 308.738 250.371 307.999 250.385C306.926 250.385 306.167 250.183 305.721 249.778C305.275 249.374 305.045 248.901 305.031 248.357C305.031 247.814 305.178 247.424 305.47 247.187C305.763 246.95 306.069 246.831 306.39 246.831C306.599 246.831 306.794 246.894 306.975 247.02C307.156 247.145 307.254 247.361 307.268 247.668C307.268 248.03 307.142 248.336 306.891 248.587C306.641 248.838 306.425 248.963 306.243 248.963C306.216 248.977 306.195 248.984 306.181 248.984C306.167 248.984 306.16 248.998 306.16 249.026C306.174 249.068 306.23 249.124 306.327 249.193C306.425 249.263 306.641 249.354 306.975 249.465C307.309 249.576 307.693 249.625 308.125 249.611C308.626 249.611 309.058 249.535 309.42 249.381C309.783 249.228 310.047 249.033 310.215 248.796C310.382 248.559 310.5 248.343 310.57 248.148C310.64 247.953 310.674 247.779 310.674 247.626C310.674 247.236 310.528 246.943 310.236 246.748C309.943 246.553 309.608 246.434 309.232 246.393C308.856 246.351 308.445 246.246 307.999 246.079C307.553 245.912 307.226 245.668 307.017 245.348C306.78 244.999 306.661 244.595 306.661 244.135Z" fill="#D9EBFF"/>
<path d="M316.485 244.135C316.485 243.689 316.596 243.237 316.819 242.777C317.042 242.317 317.432 241.892 317.99 241.502C318.547 241.112 319.223 240.924 320.017 240.937C320.881 240.937 321.508 241.126 321.898 241.502C322.288 241.878 322.49 242.296 322.504 242.756C322.504 243.202 322.386 243.529 322.149 243.738C321.912 243.947 321.647 244.059 321.355 244.073C321.174 244.073 321.006 244.017 320.853 243.905C320.7 243.794 320.616 243.613 320.602 243.362C320.602 243.139 320.665 242.944 320.79 242.777C320.916 242.61 321.034 242.484 321.146 242.401C321.257 242.317 321.348 242.275 321.417 242.275C321.431 242.275 321.438 242.268 321.438 242.254C321.438 242.212 321.39 242.15 321.292 242.066C321.194 241.982 321.02 241.906 320.77 241.836C320.519 241.767 320.247 241.725 319.954 241.711C319.286 241.711 318.798 241.892 318.491 242.254C318.185 242.616 318.025 242.986 318.011 243.362C318.011 243.71 318.143 243.954 318.408 244.093C318.672 244.233 319.056 244.351 319.557 244.449C320.059 244.546 320.421 244.651 320.644 244.762C321.564 245.166 322.024 245.835 322.024 246.769C322.024 247.159 321.947 247.549 321.794 247.939C321.64 248.329 321.41 248.72 321.104 249.11C320.797 249.5 320.358 249.806 319.787 250.029C319.216 250.252 318.561 250.371 317.823 250.385C316.75 250.385 315.99 250.183 315.544 249.778C315.098 249.374 314.869 248.901 314.855 248.357C314.855 247.814 315.001 247.424 315.294 247.187C315.586 246.95 315.893 246.831 316.213 246.831C316.422 246.831 316.617 246.894 316.798 247.02C316.98 247.145 317.077 247.361 317.091 247.668C317.091 248.03 316.966 248.336 316.715 248.587C316.464 248.838 316.248 248.963 316.067 248.963C316.039 248.977 316.018 248.984 316.004 248.984C315.99 248.984 315.983 248.998 315.983 249.026C315.997 249.068 316.053 249.124 316.15 249.193C316.248 249.263 316.464 249.354 316.798 249.465C317.133 249.576 317.516 249.625 317.948 249.611C318.45 249.611 318.881 249.535 319.244 249.381C319.606 249.228 319.871 249.033 320.038 248.796C320.205 248.559 320.324 248.343 320.393 248.148C320.463 247.953 320.498 247.779 320.498 247.626C320.498 247.236 320.351 246.943 320.059 246.748C319.766 246.553 319.432 246.434 319.056 246.393C318.679 246.351 318.268 246.246 317.823 246.079C317.377 245.912 317.049 245.668 316.84 245.348C316.603 244.999 316.485 244.595 316.485 244.135Z" fill="#D9EBFF"/>
<path d="M327.395 237.635C327.395 237.301 327.527 237.008 327.792 236.757C328.057 236.506 328.363 236.374 328.712 236.36C328.963 236.36 329.172 236.444 329.339 236.611C329.506 236.778 329.597 236.987 329.611 237.238C329.611 237.558 329.471 237.851 329.193 238.116C328.914 238.381 328.607 238.52 328.273 238.534C328.064 238.534 327.869 238.464 327.688 238.325C327.507 238.186 327.409 237.956 327.395 237.635ZM323.988 244.177C323.988 244.066 324.051 243.85 324.176 243.529C324.302 243.209 324.469 242.853 324.678 242.463C324.887 242.073 325.194 241.718 325.598 241.397C326.002 241.077 326.42 240.924 326.852 240.937C327.395 240.937 327.848 241.098 328.21 241.418C328.572 241.739 328.761 242.171 328.775 242.714C328.775 242.951 328.677 243.341 328.482 243.884C328.287 244.428 328.008 245.159 327.646 246.079C327.284 246.999 326.991 247.786 326.768 248.441C326.698 248.747 326.664 248.97 326.664 249.11C326.664 249.458 326.782 249.632 327.019 249.632C327.144 249.632 327.277 249.611 327.416 249.569C327.555 249.528 327.716 249.43 327.897 249.277C328.078 249.124 328.266 248.88 328.461 248.545C328.656 248.211 328.83 247.8 328.984 247.312C329.025 247.145 329.06 247.047 329.088 247.02C329.116 246.992 329.234 246.978 329.443 246.978C329.722 246.978 329.861 247.047 329.861 247.187C329.861 247.298 329.799 247.514 329.673 247.835C329.548 248.155 329.374 248.511 329.151 248.901C328.928 249.291 328.614 249.639 328.21 249.946C327.806 250.252 327.374 250.406 326.914 250.406C326.468 250.406 326.057 250.259 325.681 249.967C325.305 249.674 325.11 249.228 325.096 248.629C325.096 248.392 325.131 248.169 325.2 247.96C325.27 247.751 325.57 246.957 326.099 245.577C326.629 244.17 326.935 243.327 327.019 243.048C327.102 242.77 327.151 242.498 327.165 242.233C327.165 241.899 327.047 241.732 326.81 241.732H326.768C326.35 241.732 325.967 241.962 325.619 242.421C325.27 242.881 325.005 243.466 324.824 244.177C324.81 244.191 324.796 244.212 324.782 244.24C324.769 244.268 324.762 244.289 324.762 244.302C324.762 244.316 324.748 244.33 324.72 244.344C324.692 244.358 324.671 244.365 324.657 244.365C324.643 244.365 324.615 244.365 324.573 244.365C324.532 244.365 324.476 244.365 324.406 244.365H324.114C324.03 244.282 323.988 244.219 323.988 244.177Z" fill="#D9EBFF"/>
<path d="M331.22 244.177C331.234 244.093 331.255 243.982 331.283 243.843C331.31 243.703 331.394 243.439 331.533 243.048C331.673 242.658 331.812 242.331 331.951 242.066C332.091 241.801 332.321 241.544 332.641 241.293C332.962 241.042 333.282 240.924 333.603 240.937C334.104 240.937 334.522 241.063 334.857 241.314C335.191 241.564 335.4 241.801 335.484 242.024C335.567 242.247 335.609 242.394 335.609 242.463C335.609 242.491 335.616 242.505 335.63 242.505L335.86 242.275C336.71 241.383 337.678 240.937 338.765 240.937C339.518 240.937 340.124 241.126 340.583 241.502C341.043 241.878 341.28 242.428 341.294 243.153C341.308 243.877 341.043 244.971 340.5 246.434C339.956 247.897 339.692 248.782 339.706 249.089C339.706 249.451 339.824 249.632 340.061 249.632C340.145 249.632 340.207 249.625 340.249 249.611C340.653 249.542 341.015 249.277 341.336 248.817C341.656 248.357 341.9 247.8 342.067 247.145C342.095 247.034 342.235 246.978 342.485 246.978C342.764 246.978 342.903 247.034 342.903 247.145C342.903 247.159 342.876 247.263 342.82 247.458C342.708 247.863 342.555 248.26 342.36 248.65C342.165 249.04 341.844 249.43 341.399 249.82C340.953 250.21 340.472 250.399 339.956 250.385C339.302 250.385 338.828 250.197 338.535 249.82C338.243 249.444 338.096 249.054 338.096 248.65C338.096 248.385 338.347 247.549 338.849 246.142C339.35 244.734 339.608 243.675 339.622 242.965C339.622 242.143 339.315 241.732 338.702 241.732H338.598C337.4 241.732 336.389 242.435 335.567 243.843L335.421 244.093L334.731 246.894C334.271 248.72 334.007 249.702 333.937 249.841C333.756 250.217 333.456 250.406 333.038 250.406C332.857 250.406 332.711 250.364 332.599 250.28C332.488 250.197 332.411 250.113 332.369 250.029C332.328 249.946 332.314 249.876 332.328 249.82C332.328 249.639 332.592 248.504 333.122 246.413C333.651 244.323 333.93 243.188 333.958 243.007C333.972 242.937 333.979 242.777 333.979 242.526C333.979 241.982 333.812 241.711 333.477 241.711C332.948 241.711 332.509 242.407 332.16 243.801C332.077 244.08 332.035 244.226 332.035 244.24C332.007 244.323 331.875 244.365 331.638 244.365H331.345C331.262 244.282 331.22 244.219 331.22 244.177Z" fill="#D9EBFF"/>
<path d="M349.822 249.277C349.613 249.458 349.306 249.653 348.902 249.862C348.498 250.071 348.073 250.176 347.627 250.176C346.749 250.176 346.046 249.862 345.516 249.235C344.987 248.608 344.715 247.807 344.701 246.831C344.701 245.368 345.237 244.024 346.31 242.798C347.383 241.571 348.575 240.951 349.884 240.937C350.539 240.937 351.145 241.272 351.703 241.941L351.765 241.857C351.793 241.815 351.828 241.773 351.87 241.732C351.912 241.69 351.974 241.634 352.058 241.564C352.142 241.495 352.232 241.446 352.33 241.418C352.427 241.39 352.539 241.369 352.664 241.355C352.859 241.355 353.019 241.418 353.145 241.544C353.27 241.669 353.34 241.801 353.354 241.941C353.354 242.15 352.957 243.836 352.163 246.999C351.368 250.162 350.95 251.778 350.908 251.848C350.658 252.6 350.121 253.22 349.299 253.708C348.477 254.196 347.536 254.446 346.478 254.46C344.513 254.46 343.53 253.987 343.53 253.039C343.53 252.677 343.656 252.356 343.907 252.078C344.158 251.799 344.478 251.66 344.868 251.66C345.077 251.66 345.272 251.722 345.453 251.848C345.635 251.973 345.732 252.189 345.746 252.496C345.746 252.635 345.732 252.767 345.704 252.893C345.676 253.018 345.628 253.116 345.558 253.185C345.488 253.255 345.432 253.325 345.391 253.394C345.349 253.464 345.3 253.52 345.244 253.562L345.203 253.603H345.223C345.363 253.645 345.781 253.666 346.478 253.666C347.007 253.666 347.425 253.582 347.732 253.415C348.052 253.262 348.352 253.032 348.63 252.725C348.909 252.419 349.104 252.092 349.216 251.743C349.299 251.478 349.411 251.046 349.55 250.447C349.731 249.778 349.822 249.388 349.822 249.277ZM351.347 243.32L351.264 243.09C351.222 242.937 351.187 242.832 351.159 242.777C351.131 242.721 351.09 242.623 351.034 242.484C350.978 242.345 350.908 242.247 350.825 242.191C350.741 242.136 350.651 242.059 350.553 241.962C350.456 241.864 350.33 241.801 350.177 241.773C350.024 241.746 349.87 241.725 349.717 241.711C349.104 241.711 348.512 242.08 347.941 242.819C347.523 243.362 347.174 244.191 346.896 245.306C346.617 246.42 346.478 247.229 346.478 247.73C346.478 248.831 346.909 249.381 347.773 249.381C348.554 249.381 349.32 248.894 350.072 247.918L350.24 247.709L351.347 243.32Z" fill="#D9EBFF"/>
<path d="M356.113 244.135C356.113 243.689 356.224 243.237 356.447 242.777C356.67 242.317 357.06 241.892 357.618 241.502C358.175 241.112 358.851 240.924 359.645 240.937C360.509 240.937 361.136 241.126 361.526 241.502C361.916 241.878 362.118 242.296 362.132 242.756C362.132 243.202 362.014 243.529 361.777 243.738C361.54 243.947 361.275 244.059 360.983 244.073C360.802 244.073 360.634 244.017 360.481 243.905C360.328 243.794 360.244 243.613 360.23 243.362C360.23 243.139 360.293 242.944 360.418 242.777C360.544 242.61 360.662 242.484 360.774 242.401C360.885 242.317 360.976 242.275 361.045 242.275C361.059 242.275 361.066 242.268 361.066 242.254C361.066 242.212 361.017 242.15 360.92 242.066C360.822 241.982 360.648 241.906 360.397 241.836C360.147 241.767 359.875 241.725 359.582 241.711C358.913 241.711 358.426 241.892 358.119 242.254C357.813 242.616 357.652 242.986 357.639 243.362C357.639 243.71 357.771 243.954 358.036 244.093C358.3 244.233 358.684 244.351 359.185 244.449C359.687 244.546 360.049 244.651 360.272 244.762C361.192 245.166 361.651 245.835 361.651 246.769C361.651 247.159 361.575 247.549 361.422 247.939C361.268 248.329 361.038 248.72 360.732 249.11C360.425 249.5 359.986 249.806 359.415 250.029C358.844 250.252 358.189 250.371 357.45 250.385C356.378 250.385 355.618 250.183 355.172 249.778C354.726 249.374 354.496 248.901 354.483 248.357C354.483 247.814 354.629 247.424 354.921 247.187C355.214 246.95 355.521 246.831 355.841 246.831C356.05 246.831 356.245 246.894 356.426 247.02C356.607 247.145 356.705 247.361 356.719 247.668C356.719 248.03 356.593 248.336 356.343 248.587C356.092 248.838 355.876 248.963 355.695 248.963C355.667 248.977 355.646 248.984 355.632 248.984C355.618 248.984 355.611 248.998 355.611 249.026C355.625 249.068 355.681 249.124 355.778 249.193C355.876 249.263 356.092 249.354 356.426 249.465C356.761 249.576 357.144 249.625 357.576 249.611C358.077 249.611 358.509 249.535 358.872 249.381C359.234 249.228 359.499 249.033 359.666 248.796C359.833 248.559 359.952 248.343 360.021 248.148C360.091 247.953 360.126 247.779 360.126 247.626C360.126 247.236 359.979 246.943 359.687 246.748C359.394 246.553 359.06 246.434 358.684 246.393C358.307 246.351 357.896 246.246 357.45 246.079C357.005 245.912 356.677 245.668 356.468 245.348C356.231 244.999 356.113 244.595 356.113 244.135Z" fill="#D9EBFF"/>
<path d="M370.158 242.923C370.158 242.742 370.256 242.603 370.451 242.505H383.765C383.974 242.616 384.078 242.756 384.078 242.923C384.078 243.076 383.981 243.209 383.785 243.32L377.139 243.341H370.493C370.27 243.271 370.158 243.132 370.158 242.923ZM370.158 246.978C370.158 246.769 370.27 246.629 370.493 246.56H383.785C383.981 246.699 384.078 246.838 384.078 246.978C384.078 247.159 383.974 247.298 383.765 247.396H370.451C370.256 247.298 370.158 247.159 370.158 246.978Z" fill="#D9EBFF"/>
<path d="M393.024 244.95C393.024 243.989 393.093 243.076 393.233 242.212C393.372 241.348 393.532 240.603 393.713 239.976C393.894 239.349 394.152 238.736 394.487 238.137C394.821 237.538 395.086 237.071 395.281 236.736C395.476 236.402 395.769 236.04 396.159 235.65C396.549 235.259 396.779 235.023 396.848 234.939C396.918 234.855 397.092 234.709 397.371 234.5H397.726C397.921 234.5 398.019 234.563 398.019 234.688C398.019 234.73 397.9 234.876 397.664 235.127C397.427 235.378 397.141 235.747 396.807 236.235C396.472 236.722 396.131 237.322 395.782 238.032C395.434 238.743 395.142 239.704 394.905 240.917C394.668 242.129 394.549 243.473 394.549 244.95C394.549 246.427 394.668 247.765 394.905 248.963C395.142 250.162 395.427 251.13 395.762 251.869C396.096 252.607 396.437 253.206 396.786 253.666C397.134 254.126 397.427 254.495 397.664 254.774C397.9 255.052 398.019 255.199 398.019 255.213C398.019 255.338 397.914 255.401 397.705 255.401H397.371L396.786 254.899C395.476 253.715 394.521 252.238 393.922 250.468C393.323 248.699 393.024 246.859 393.024 244.95Z" fill="#D9EBFF"/>
<path d="M400.025 246.664C400.025 245.87 400.158 245.145 400.422 244.491C400.687 243.836 401.029 243.292 401.447 242.86C401.865 242.428 402.331 242.066 402.847 241.773C403.363 241.481 403.85 241.265 404.31 241.126C404.77 240.986 405.209 240.924 405.627 240.937H405.689C406.317 240.937 406.86 241.091 407.32 241.397C407.78 241.704 408.009 242.157 408.009 242.756C408.009 244.01 407.236 244.832 405.689 245.222C405.007 245.403 404.073 245.501 402.889 245.515C402.373 245.515 402.108 245.529 402.095 245.557C402.095 245.584 402.053 245.828 401.969 246.288C401.886 246.748 401.837 247.152 401.823 247.5C401.823 248.155 401.969 248.671 402.262 249.047C402.554 249.423 402.993 249.618 403.578 249.632C404.164 249.646 404.812 249.514 405.522 249.235C406.233 248.956 406.874 248.497 407.445 247.856C407.571 247.716 407.654 247.647 407.696 247.647C407.752 247.647 407.842 247.709 407.968 247.835C408.093 247.96 408.163 248.058 408.177 248.127C408.191 248.197 408.128 248.308 407.989 248.462C407.849 248.615 407.64 248.803 407.362 249.026C407.083 249.249 406.762 249.465 406.4 249.674C406.038 249.883 405.599 250.057 405.083 250.197C404.568 250.336 404.038 250.406 403.495 250.406C402.394 250.406 401.544 250.036 400.945 249.298C400.346 248.559 400.039 247.681 400.025 246.664ZM407.006 242.798C406.923 242.073 406.449 241.711 405.585 241.711C405.125 241.711 404.7 241.808 404.31 242.003C403.92 242.198 403.606 242.435 403.369 242.714C403.133 242.993 402.931 243.278 402.763 243.571C402.596 243.864 402.485 244.114 402.429 244.323C402.373 244.532 402.338 244.665 402.324 244.72C402.324 244.734 402.464 244.741 402.742 244.741C404.317 244.741 405.418 244.574 406.045 244.24C406.672 243.905 406.992 243.425 407.006 242.798Z" fill="#D9EBFF"/>
<path d="M410.367 244.679C410.918 243.881 411.672 243.482 412.628 243.482C413.1 243.482 413.573 243.61 414.046 243.866C414.519 244.122 414.903 244.575 415.199 245.225C415.563 246.043 415.746 247.166 415.746 248.594C415.746 250.121 415.534 251.289 415.11 252.097C414.913 252.51 414.642 252.84 414.297 253.087C413.953 253.333 413.652 253.486 413.396 253.545C413.14 253.604 412.889 253.638 412.642 253.648C412.386 253.648 412.13 253.619 411.874 253.56C411.618 253.5 411.317 253.343 410.973 253.087C410.628 252.831 410.357 252.5 410.16 252.097C409.736 251.289 409.524 250.121 409.524 248.594C409.524 246.88 409.805 245.575 410.367 244.679ZM413.692 244.501C413.396 244.186 413.046 244.028 412.642 244.028C412.229 244.028 411.874 244.186 411.578 244.501C411.332 244.757 411.17 245.112 411.091 245.565C411.012 246.018 410.973 246.964 410.973 248.402C410.973 249.959 411.012 250.983 411.091 251.476C411.17 251.969 411.347 252.358 411.623 252.643C411.899 252.939 412.238 253.087 412.642 253.087C413.036 253.087 413.371 252.939 413.647 252.643C413.933 252.348 414.11 251.934 414.179 251.402C414.248 250.87 414.288 249.87 414.297 248.402C414.297 246.974 414.258 246.033 414.179 245.58C414.1 245.127 413.938 244.767 413.692 244.501Z" fill="#D9EBFF"/>
<path d="M419.693 234.521L419.777 234.5C419.846 234.5 419.916 234.5 419.986 234.5H420.236L420.822 235.002C422.131 236.186 423.086 237.663 423.685 239.433C424.284 241.202 424.584 243.041 424.584 244.95C424.584 245.898 424.514 246.811 424.375 247.688C424.235 248.566 424.075 249.312 423.894 249.925C423.713 250.538 423.455 251.151 423.121 251.764C422.786 252.377 422.522 252.844 422.327 253.164C422.131 253.485 421.846 253.84 421.47 254.23C421.093 254.621 420.87 254.85 420.801 254.92C420.731 254.99 420.571 255.122 420.32 255.317C420.278 255.359 420.25 255.387 420.236 255.401H419.986C419.874 255.401 419.798 255.401 419.756 255.401C419.714 255.401 419.679 255.38 419.651 255.338C419.623 255.296 419.602 255.234 419.589 255.15C419.602 255.136 419.679 255.045 419.818 254.878C421.978 252.635 423.058 249.326 423.058 244.95C423.058 240.575 421.978 237.266 419.818 235.023C419.679 234.855 419.602 234.765 419.589 234.751C419.589 234.639 419.623 234.563 419.693 234.521Z" fill="#D9EBFF"/>
<path d="M400 33.2291C400 32.4348 400.132 31.7102 400.397 31.0553C400.662 30.4004 401.003 29.8569 401.421 29.4249C401.839 28.9929 402.306 28.6306 402.822 28.338C403.337 28.0454 403.825 27.8294 404.285 27.69C404.745 27.5507 405.184 27.488 405.602 27.5019H405.665C406.292 27.5019 406.835 27.6552 407.295 27.9618C407.755 28.2683 407.985 28.7212 407.985 29.3204C407.985 30.5745 407.211 31.3967 405.665 31.7869C404.982 31.968 404.048 32.0656 402.864 32.0795C402.348 32.0795 402.083 32.0934 402.069 32.1213C402.069 32.1492 402.028 32.393 401.944 32.8529C401.86 33.3127 401.812 33.7168 401.798 34.0652C401.798 34.7202 401.944 35.2357 402.237 35.612C402.529 35.9882 402.968 36.1833 403.553 36.1973C404.139 36.2112 404.787 36.0788 405.497 35.8001C406.208 35.5214 406.849 35.0616 407.42 34.4206C407.546 34.2812 407.629 34.2115 407.671 34.2115C407.727 34.2115 407.817 34.2742 407.943 34.3997C408.068 34.5251 408.138 34.6226 408.152 34.6923C408.166 34.762 408.103 34.8734 407.964 35.0267C407.824 35.18 407.615 35.3681 407.337 35.5911C407.058 35.814 406.738 36.03 406.375 36.2391C406.013 36.4481 405.574 36.6223 405.058 36.7616C404.543 36.901 404.013 36.9706 403.47 36.9706C402.369 36.9706 401.519 36.6014 400.92 35.8628C400.321 35.1243 400.014 34.2464 400 33.2291ZM406.981 29.3622C406.898 28.6376 406.424 28.2753 405.56 28.2753C405.1 28.2753 404.675 28.3728 404.285 28.5679C403.895 28.763 403.581 28.9999 403.344 29.2786C403.107 29.5573 402.905 29.843 402.738 30.1356C402.571 30.4282 402.46 30.679 402.404 30.8881C402.348 31.0971 402.313 31.2295 402.299 31.2852C402.299 31.2991 402.439 31.3061 402.717 31.3061C404.292 31.3061 405.393 31.1389 406.02 30.8045C406.647 30.47 406.967 29.9893 406.981 29.3622Z" fill="#D9EBFF"/>
<path d="M410.342 31.2433C410.894 30.4453 411.648 30.0463 412.603 30.0463C413.076 30.0463 413.549 30.1744 414.022 30.4305C414.495 30.6867 414.879 31.1399 415.175 31.7901C415.539 32.6078 415.721 33.7309 415.721 35.1595C415.721 36.6865 415.509 37.854 415.086 38.6618C414.889 39.0756 414.618 39.4057 414.273 39.652C413.928 39.8983 413.628 40.051 413.372 40.1101C413.115 40.1692 412.864 40.2037 412.618 40.2135C412.362 40.2135 412.106 40.184 411.849 40.1249C411.593 40.0657 411.293 39.9081 410.948 39.652C410.603 39.3958 410.332 39.0658 410.135 38.6618C409.712 37.854 409.5 36.6865 409.5 35.1595C409.5 33.4452 409.781 32.1399 410.342 31.2433ZM413.667 31.066C413.372 30.7507 413.022 30.5931 412.618 30.5931C412.204 30.5931 411.849 30.7507 411.554 31.066C411.308 31.3221 411.145 31.6768 411.066 32.13C410.987 32.5832 410.948 33.529 410.948 34.9674C410.948 36.524 410.987 37.5486 411.066 38.0412C411.145 38.5338 411.322 38.9229 411.598 39.2086C411.874 39.5042 412.214 39.652 412.618 39.652C413.012 39.652 413.347 39.5042 413.623 39.2086C413.909 38.9131 414.086 38.4993 414.155 37.9673C414.224 37.4353 414.263 36.4353 414.273 34.9674C414.273 33.5388 414.234 32.598 414.155 32.1448C414.076 31.6916 413.913 31.332 413.667 31.066Z" fill="#D9EBFF"/>
</svg>
