<svg width="700" height="262" viewBox="0 0 700 262" fill="none" xmlns="http://www.w3.org/2000/svg">
<rect width="700" height="261" transform="translate(0 0.5)" fill="#0A0D12"/>
<path d="M450 10.5H250L250 210.5H450V10.5ZM450 10.5L400 160.5L300 160.5L300 60.5L450 10.5Z" stroke="#B3BFD8" stroke-width="2"/>
<path d="M300 60.5L450 10.5L400 160.5" stroke="#EB5757" stroke-width="2"/>
<circle cx="250" cy="10.5" r="5" fill="black" stroke="#D9EBFF" stroke-width="2"/>
<circle cx="299.656" cy="60.1569" r="5" transform="rotate(45 299.656 60.1569)" fill="black" stroke="#D9EBFF" stroke-width="2"/>
<circle cx="450" cy="10.5" r="5" fill="black" stroke="#D9EBFF" stroke-width="2"/>
<circle cx="250" cy="210.5" r="5" fill="black" stroke="#D9EBFF" stroke-width="2"/>
<circle cx="299.656" cy="160.157" r="5" transform="rotate(45 299.656 160.157)" fill="black" stroke="#D9EBFF" stroke-width="2"/>
<circle cx="450" cy="210.5" r="5" fill="black" stroke="#D9EBFF" stroke-width="2"/>
<circle cx="399.656" cy="160.157" r="5" transform="rotate(45 399.656 160.157)" fill="black" stroke="#D9EBFF" stroke-width="2"/>
<path d="M260.723 247.852C260.723 246.334 261.322 244.968 262.52 243.756C263.718 242.544 265.014 241.937 266.408 241.937C267.188 241.937 267.801 242.105 268.247 242.439C268.693 242.773 268.923 243.212 268.937 243.756C268.937 244.16 268.804 244.501 268.54 244.78C268.275 245.059 267.94 245.205 267.536 245.219C267.272 245.219 267.063 245.149 266.909 245.01C266.756 244.871 266.679 244.662 266.679 244.383C266.679 244.104 266.756 243.867 266.909 243.672C267.063 243.477 267.216 243.331 267.369 243.233C267.522 243.136 267.62 243.094 267.662 243.108H267.683C267.683 243.08 267.641 243.038 267.557 242.982C267.474 242.927 267.327 242.871 267.118 242.815C266.909 242.76 266.672 242.732 266.408 242.732C265.99 242.732 265.593 242.829 265.216 243.024C264.924 243.15 264.624 243.366 264.318 243.672C263.705 244.285 263.259 245.149 262.98 246.264C262.701 247.379 262.555 248.187 262.541 248.688C262.541 249.329 262.722 249.81 263.084 250.131C263.391 250.465 263.795 250.632 264.297 250.632H264.38C265.941 250.632 267.23 250.04 268.247 248.856C268.372 248.716 268.456 248.647 268.498 248.647C268.553 248.647 268.644 248.709 268.769 248.835C268.895 248.96 268.965 249.058 268.978 249.127C268.992 249.197 268.93 249.301 268.79 249.441C268.651 249.58 268.449 249.775 268.184 250.026C267.919 250.277 267.606 250.486 267.244 250.653C266.881 250.82 266.436 250.994 265.906 251.176C265.377 251.357 264.819 251.433 264.234 251.406C263.189 251.406 262.346 251.071 261.705 250.402C261.064 249.733 260.737 248.883 260.723 247.852Z" fill="#D9EBFF"/>
<path d="M269.501 245.177C269.515 245.135 269.529 245.08 269.543 245.01C269.557 244.94 269.592 244.787 269.647 244.55C269.703 244.313 269.773 244.097 269.856 243.902C269.94 243.707 270.044 243.477 270.17 243.212C270.295 242.948 270.435 242.739 270.588 242.585C270.741 242.432 270.922 242.279 271.131 242.126C271.34 241.972 271.57 241.91 271.821 241.937C272.225 241.937 272.58 242.021 272.887 242.188C273.193 242.355 273.409 242.509 273.535 242.648C273.66 242.787 273.737 242.927 273.765 243.066C273.793 243.15 273.814 243.191 273.827 243.191C273.841 243.191 273.897 243.143 273.995 243.045C274.663 242.321 275.437 241.958 276.315 241.958H276.377C277.046 241.958 277.548 242.244 277.882 242.815C277.994 243.08 278.049 243.338 278.049 243.589C278.049 244.007 277.959 244.341 277.778 244.592C277.597 244.843 277.415 245.003 277.234 245.073C277.053 245.142 276.879 245.17 276.712 245.156C276.433 245.156 276.21 245.08 276.043 244.926C275.876 244.773 275.792 244.571 275.792 244.32C275.792 243.651 276.182 243.205 276.963 242.982C276.656 242.801 276.405 242.711 276.21 242.711C275.43 242.711 274.712 243.226 274.057 244.257C273.918 244.48 273.814 244.71 273.744 244.947C273.674 245.184 273.437 246.111 273.033 247.727C272.559 249.678 272.288 250.716 272.218 250.841C272.037 251.217 271.737 251.406 271.319 251.406C271.138 251.406 270.992 251.364 270.88 251.28C270.769 251.197 270.692 251.113 270.651 251.029C270.609 250.946 270.595 250.876 270.609 250.82C270.609 250.639 270.887 249.441 271.445 247.225C272.002 245.01 272.281 243.777 272.281 243.526C272.281 242.982 272.1 242.711 271.737 242.711C271.445 242.711 271.194 242.906 270.985 243.296C270.776 243.686 270.609 244.111 270.483 244.571C270.358 245.031 270.281 245.282 270.253 245.323C270.226 245.351 270.114 245.365 269.919 245.365H269.626C269.543 245.282 269.501 245.219 269.501 245.177Z" fill="#D9EBFF"/>
<path d="M282.71 251.406C281.665 251.406 280.822 251.064 280.181 250.381C279.54 249.699 279.22 248.877 279.22 247.915C279.22 247.009 279.429 246.152 279.847 245.344C280.265 244.536 280.836 243.832 281.561 243.233C282.62 242.383 283.7 241.958 284.8 241.958C285.246 241.958 285.525 241.965 285.636 241.979C285.818 242.021 285.999 242.07 286.18 242.126C286.361 242.181 286.605 242.293 286.911 242.46C287.218 242.627 287.469 242.836 287.664 243.087C287.859 243.338 288.04 243.679 288.207 244.111C288.374 244.543 288.458 245.031 288.458 245.574C288.458 247.065 287.859 248.41 286.661 249.608C285.462 250.806 284.145 251.406 282.71 251.406ZM281.038 248.668C281.038 249.364 281.219 249.866 281.582 250.172C281.944 250.479 282.355 250.632 282.815 250.632C283.428 250.632 284.006 250.409 284.55 249.963C285.093 249.517 285.525 248.932 285.845 248.208C285.971 247.915 286.131 247.4 286.326 246.661C286.521 245.923 286.619 245.282 286.619 244.738C286.619 244.125 286.493 243.658 286.243 243.338C285.908 242.92 285.462 242.711 284.905 242.711C284.027 242.711 283.254 243.115 282.585 243.923C282.069 244.536 281.686 245.351 281.435 246.368C281.185 247.386 281.052 248.152 281.038 248.668Z" fill="#D9EBFF"/>
<path d="M291.384 245.135C291.384 244.689 291.496 244.237 291.719 243.777C291.941 243.317 292.332 242.892 292.889 242.502C293.446 242.112 294.122 241.924 294.916 241.937C295.78 241.937 296.407 242.126 296.797 242.502C297.188 242.878 297.39 243.296 297.404 243.756C297.404 244.202 297.285 244.529 297.048 244.738C296.811 244.947 296.547 245.059 296.254 245.073C296.073 245.073 295.906 245.017 295.752 244.905C295.599 244.794 295.516 244.613 295.502 244.362C295.502 244.139 295.564 243.944 295.69 243.777C295.815 243.61 295.934 243.484 296.045 243.401C296.156 243.317 296.247 243.275 296.317 243.275C296.331 243.275 296.338 243.268 296.338 243.254C296.338 243.212 296.289 243.15 296.191 243.066C296.094 242.982 295.92 242.906 295.669 242.836C295.418 242.767 295.146 242.725 294.854 242.711C294.185 242.711 293.697 242.892 293.391 243.254C293.084 243.616 292.924 243.986 292.91 244.362C292.91 244.71 293.042 244.954 293.307 245.093C293.572 245.233 293.955 245.351 294.457 245.449C294.958 245.546 295.32 245.651 295.543 245.762C296.463 246.166 296.923 246.835 296.923 247.769C296.923 248.159 296.846 248.549 296.693 248.939C296.54 249.329 296.31 249.72 296.003 250.11C295.697 250.5 295.258 250.806 294.686 251.029C294.115 251.252 293.46 251.371 292.722 251.385C291.649 251.385 290.889 251.183 290.444 250.778C289.998 250.374 289.768 249.901 289.754 249.357C289.754 248.814 289.9 248.424 290.193 248.187C290.485 247.95 290.792 247.831 291.112 247.831C291.321 247.831 291.517 247.894 291.698 248.02C291.879 248.145 291.976 248.361 291.99 248.668C291.99 249.03 291.865 249.336 291.614 249.587C291.363 249.838 291.147 249.963 290.966 249.963C290.938 249.977 290.917 249.984 290.903 249.984C290.889 249.984 290.883 249.998 290.883 250.026C290.896 250.068 290.952 250.124 291.05 250.193C291.147 250.263 291.363 250.354 291.698 250.465C292.032 250.576 292.415 250.625 292.847 250.611C293.349 250.611 293.781 250.535 294.143 250.381C294.505 250.228 294.77 250.033 294.937 249.796C295.104 249.559 295.223 249.343 295.293 249.148C295.362 248.953 295.397 248.779 295.397 248.626C295.397 248.236 295.251 247.943 294.958 247.748C294.666 247.553 294.331 247.434 293.955 247.393C293.579 247.351 293.168 247.246 292.722 247.079C292.276 246.912 291.948 246.668 291.739 246.348C291.503 245.999 291.384 245.595 291.384 245.135Z" fill="#D9EBFF"/>
<path d="M301.208 245.135C301.208 244.689 301.319 244.237 301.542 243.777C301.765 243.317 302.155 242.892 302.712 242.502C303.27 242.112 303.946 241.924 304.74 241.937C305.604 241.937 306.231 242.126 306.621 242.502C307.011 242.878 307.213 243.296 307.227 243.756C307.227 244.202 307.108 244.529 306.872 244.738C306.635 244.947 306.37 245.059 306.077 245.073C305.896 245.073 305.729 245.017 305.576 244.905C305.423 244.794 305.339 244.613 305.325 244.362C305.325 244.139 305.388 243.944 305.513 243.777C305.638 243.61 305.757 243.484 305.868 243.401C305.98 243.317 306.07 243.275 306.14 243.275C306.154 243.275 306.161 243.268 306.161 243.254C306.161 243.212 306.112 243.15 306.015 243.066C305.917 242.982 305.743 242.906 305.492 242.836C305.241 242.767 304.97 242.725 304.677 242.711C304.008 242.711 303.521 242.892 303.214 243.254C302.907 243.616 302.747 243.986 302.733 244.362C302.733 244.71 302.866 244.954 303.13 245.093C303.395 245.233 303.778 245.351 304.28 245.449C304.782 245.546 305.144 245.651 305.367 245.762C306.286 246.166 306.746 246.835 306.746 247.769C306.746 248.159 306.67 248.549 306.516 248.939C306.363 249.329 306.133 249.72 305.827 250.11C305.52 250.5 305.081 250.806 304.51 251.029C303.939 251.252 303.284 251.371 302.545 251.385C301.472 251.385 300.713 251.183 300.267 250.778C299.821 250.374 299.591 249.901 299.577 249.357C299.577 248.814 299.724 248.424 300.016 248.187C300.309 247.95 300.615 247.831 300.936 247.831C301.145 247.831 301.34 247.894 301.521 248.02C301.702 248.145 301.8 248.361 301.814 248.668C301.814 249.03 301.688 249.336 301.437 249.587C301.187 249.838 300.971 249.963 300.789 249.963C300.762 249.977 300.741 249.984 300.727 249.984C300.713 249.984 300.706 249.998 300.706 250.026C300.72 250.068 300.776 250.124 300.873 250.193C300.971 250.263 301.187 250.354 301.521 250.465C301.855 250.576 302.239 250.625 302.671 250.611C303.172 250.611 303.604 250.535 303.966 250.381C304.329 250.228 304.593 250.033 304.761 249.796C304.928 249.559 305.046 249.343 305.116 249.148C305.186 248.953 305.22 248.779 305.22 248.626C305.22 248.236 305.074 247.943 304.782 247.748C304.489 247.553 304.155 247.434 303.778 247.393C303.402 247.351 302.991 247.246 302.545 247.079C302.099 246.912 301.772 246.668 301.563 246.348C301.326 245.999 301.208 245.595 301.208 245.135Z" fill="#D9EBFF"/>
<path d="M312.118 238.635C312.118 238.301 312.25 238.008 312.515 237.757C312.78 237.506 313.086 237.374 313.434 237.36C313.685 237.36 313.894 237.444 314.062 237.611C314.229 237.778 314.319 237.987 314.333 238.238C314.333 238.558 314.194 238.851 313.915 239.116C313.637 239.381 313.33 239.52 312.996 239.534C312.787 239.534 312.591 239.464 312.41 239.325C312.229 239.186 312.132 238.956 312.118 238.635ZM308.711 245.177C308.711 245.066 308.774 244.85 308.899 244.529C309.024 244.209 309.192 243.853 309.401 243.463C309.61 243.073 309.916 242.718 310.32 242.397C310.724 242.077 311.142 241.924 311.574 241.937C312.118 241.937 312.571 242.098 312.933 242.418C313.295 242.739 313.483 243.171 313.497 243.714C313.497 243.951 313.4 244.341 313.205 244.884C313.009 245.428 312.731 246.159 312.369 247.079C312.006 247.999 311.714 248.786 311.491 249.441C311.421 249.747 311.386 249.97 311.386 250.11C311.386 250.458 311.505 250.632 311.742 250.632C311.867 250.632 311.999 250.611 312.139 250.569C312.278 250.528 312.438 250.43 312.619 250.277C312.8 250.124 312.989 249.88 313.184 249.545C313.379 249.211 313.553 248.8 313.706 248.312C313.748 248.145 313.783 248.047 313.811 248.02C313.839 247.992 313.957 247.978 314.166 247.978C314.445 247.978 314.584 248.047 314.584 248.187C314.584 248.298 314.521 248.514 314.396 248.835C314.271 249.155 314.096 249.511 313.873 249.901C313.65 250.291 313.337 250.639 312.933 250.946C312.529 251.252 312.097 251.406 311.637 251.406C311.191 251.406 310.78 251.259 310.404 250.967C310.028 250.674 309.833 250.228 309.819 249.629C309.819 249.392 309.853 249.169 309.923 248.96C309.993 248.751 310.292 247.957 310.822 246.577C311.351 245.17 311.658 244.327 311.742 244.048C311.825 243.77 311.874 243.498 311.888 243.233C311.888 242.899 311.769 242.732 311.533 242.732H311.491C311.073 242.732 310.69 242.962 310.341 243.421C309.993 243.881 309.728 244.466 309.547 245.177C309.533 245.191 309.519 245.212 309.505 245.24C309.491 245.268 309.484 245.289 309.484 245.302C309.484 245.316 309.47 245.33 309.442 245.344C309.415 245.358 309.394 245.365 309.38 245.365C309.366 245.365 309.338 245.365 309.296 245.365C309.254 245.365 309.199 245.365 309.129 245.365H308.836C308.753 245.282 308.711 245.219 308.711 245.177Z" fill="#D9EBFF"/>
<path d="M315.943 245.177C315.957 245.093 315.977 244.982 316.005 244.843C316.033 244.703 316.117 244.439 316.256 244.048C316.395 243.658 316.535 243.331 316.674 243.066C316.813 242.801 317.043 242.544 317.364 242.293C317.684 242.042 318.005 241.924 318.325 241.937C318.827 241.937 319.245 242.063 319.579 242.314C319.914 242.564 320.123 242.801 320.206 243.024C320.29 243.247 320.332 243.394 320.332 243.463C320.332 243.491 320.339 243.505 320.353 243.505L320.583 243.275C321.433 242.383 322.401 241.937 323.488 241.937C324.24 241.937 324.846 242.126 325.306 242.502C325.766 242.878 326.003 243.428 326.017 244.153C326.031 244.877 325.766 245.971 325.223 247.434C324.679 248.897 324.414 249.782 324.428 250.089C324.428 250.451 324.547 250.632 324.784 250.632C324.867 250.632 324.93 250.625 324.972 250.611C325.376 250.542 325.738 250.277 326.059 249.817C326.379 249.357 326.623 248.8 326.79 248.145C326.818 248.034 326.957 247.978 327.208 247.978C327.487 247.978 327.626 248.034 327.626 248.145C327.626 248.159 327.598 248.263 327.543 248.458C327.431 248.863 327.278 249.26 327.083 249.65C326.888 250.04 326.567 250.43 326.121 250.82C325.675 251.21 325.195 251.399 324.679 251.385C324.024 251.385 323.55 251.197 323.258 250.82C322.965 250.444 322.819 250.054 322.819 249.65C322.819 249.385 323.07 248.549 323.571 247.142C324.073 245.734 324.331 244.675 324.345 243.965C324.345 243.143 324.038 242.732 323.425 242.732H323.321C322.122 242.732 321.112 243.435 320.29 244.843L320.144 245.093L319.454 247.894C318.994 249.72 318.729 250.702 318.66 250.841C318.479 251.217 318.179 251.406 317.761 251.406C317.58 251.406 317.433 251.364 317.322 251.28C317.211 251.197 317.134 251.113 317.092 251.029C317.05 250.946 317.036 250.876 317.05 250.82C317.05 250.639 317.315 249.504 317.845 247.413C318.374 245.323 318.653 244.188 318.681 244.007C318.695 243.937 318.701 243.777 318.701 243.526C318.701 242.982 318.534 242.711 318.2 242.711C317.67 242.711 317.231 243.407 316.883 244.801C316.8 245.08 316.758 245.226 316.758 245.24C316.73 245.323 316.597 245.365 316.361 245.365H316.068C315.984 245.282 315.943 245.219 315.943 245.177Z" fill="#D9EBFF"/>
<path d="M334.544 250.277C334.335 250.458 334.029 250.653 333.625 250.862C333.221 251.071 332.796 251.176 332.35 251.176C331.472 251.176 330.768 250.862 330.239 250.235C329.709 249.608 329.438 248.807 329.424 247.831C329.424 246.368 329.96 245.024 331.033 243.798C332.106 242.571 333.297 241.951 334.607 241.937C335.262 241.937 335.868 242.272 336.425 242.941L336.488 242.857C336.516 242.815 336.551 242.773 336.593 242.732C336.634 242.69 336.697 242.634 336.781 242.564C336.864 242.495 336.955 242.446 337.052 242.418C337.15 242.39 337.261 242.369 337.387 242.355C337.582 242.355 337.742 242.418 337.868 242.544C337.993 242.669 338.063 242.801 338.077 242.941C338.077 243.15 337.679 244.836 336.885 247.999C336.091 251.162 335.673 252.778 335.631 252.848C335.38 253.6 334.844 254.22 334.022 254.708C333.2 255.196 332.259 255.446 331.2 255.46C329.235 255.46 328.253 254.987 328.253 254.039C328.253 253.677 328.379 253.356 328.629 253.078C328.88 252.799 329.201 252.66 329.591 252.66C329.8 252.66 329.995 252.722 330.176 252.848C330.357 252.973 330.455 253.189 330.469 253.496C330.469 253.635 330.455 253.767 330.427 253.893C330.399 254.018 330.35 254.116 330.281 254.185C330.211 254.255 330.155 254.325 330.113 254.394C330.072 254.464 330.023 254.52 329.967 254.562L329.925 254.603H329.946C330.085 254.645 330.503 254.666 331.2 254.666C331.73 254.666 332.148 254.582 332.454 254.415C332.775 254.262 333.074 254.032 333.353 253.725C333.632 253.419 333.827 253.092 333.938 252.743C334.022 252.478 334.133 252.046 334.273 251.447C334.454 250.778 334.544 250.388 334.544 250.277ZM336.07 244.32L335.986 244.09C335.945 243.937 335.91 243.832 335.882 243.777C335.854 243.721 335.812 243.623 335.757 243.484C335.701 243.345 335.631 243.247 335.548 243.191C335.464 243.136 335.373 243.059 335.276 242.962C335.178 242.864 335.053 242.801 334.9 242.773C334.746 242.746 334.593 242.725 334.44 242.711C333.827 242.711 333.235 243.08 332.663 243.819C332.245 244.362 331.897 245.191 331.618 246.306C331.339 247.42 331.2 248.229 331.2 248.73C331.2 249.831 331.632 250.381 332.496 250.381C333.276 250.381 334.043 249.894 334.795 248.918L334.962 248.709L336.07 244.32Z" fill="#D9EBFF"/>
<path d="M340.835 245.135C340.835 244.689 340.947 244.237 341.17 243.777C341.393 243.317 341.783 242.892 342.34 242.502C342.898 242.112 343.573 241.924 344.368 241.937C345.232 241.937 345.859 242.126 346.249 242.502C346.639 242.878 346.841 243.296 346.855 243.756C346.855 244.202 346.736 244.529 346.5 244.738C346.263 244.947 345.998 245.059 345.705 245.073C345.524 245.073 345.357 245.017 345.204 244.905C345.05 244.794 344.967 244.613 344.953 244.362C344.953 244.139 345.016 243.944 345.141 243.777C345.266 243.61 345.385 243.484 345.496 243.401C345.608 243.317 345.698 243.275 345.768 243.275C345.782 243.275 345.789 243.268 345.789 243.254C345.789 243.212 345.74 243.15 345.643 243.066C345.545 242.982 345.371 242.906 345.12 242.836C344.869 242.767 344.598 242.725 344.305 242.711C343.636 242.711 343.148 242.892 342.842 243.254C342.535 243.616 342.375 243.986 342.361 244.362C342.361 244.71 342.494 244.954 342.758 245.093C343.023 245.233 343.406 245.351 343.908 245.449C344.409 245.546 344.772 245.651 344.995 245.762C345.914 246.166 346.374 246.835 346.374 247.769C346.374 248.159 346.298 248.549 346.144 248.939C345.991 249.329 345.761 249.72 345.455 250.11C345.148 250.5 344.709 250.806 344.138 251.029C343.566 251.252 342.912 251.371 342.173 251.385C341.1 251.385 340.341 251.183 339.895 250.778C339.449 250.374 339.219 249.901 339.205 249.357C339.205 248.814 339.351 248.424 339.644 248.187C339.937 247.95 340.243 247.831 340.564 247.831C340.773 247.831 340.968 247.894 341.149 248.02C341.33 248.145 341.428 248.361 341.442 248.668C341.442 249.03 341.316 249.336 341.065 249.587C340.815 249.838 340.599 249.963 340.417 249.963C340.39 249.977 340.369 249.984 340.355 249.984C340.341 249.984 340.334 249.998 340.334 250.026C340.348 250.068 340.403 250.124 340.501 250.193C340.599 250.263 340.815 250.354 341.149 250.465C341.483 250.576 341.867 250.625 342.298 250.611C342.8 250.611 343.232 250.535 343.594 250.381C343.957 250.228 344.221 250.033 344.389 249.796C344.556 249.559 344.674 249.343 344.744 249.148C344.814 248.953 344.848 248.779 344.848 248.626C344.848 248.236 344.702 247.943 344.409 247.748C344.117 247.553 343.782 247.434 343.406 247.393C343.03 247.351 342.619 247.246 342.173 247.079C341.727 246.912 341.4 246.668 341.191 246.348C340.954 245.999 340.835 245.595 340.835 245.135Z" fill="#D9EBFF"/>
<path d="M354.881 243.923C354.881 243.742 354.978 243.603 355.173 243.505H368.487C368.696 243.616 368.801 243.756 368.801 243.923C368.801 244.076 368.703 244.209 368.508 244.32L361.862 244.341H355.215C354.992 244.271 354.881 244.132 354.881 243.923ZM354.881 247.978C354.881 247.769 354.992 247.629 355.215 247.56H368.508C368.703 247.699 368.801 247.838 368.801 247.978C368.801 248.159 368.696 248.298 368.487 248.396H355.173C354.978 248.298 354.881 248.159 354.881 247.978Z" fill="#D9EBFF"/>
<path d="M377.746 245.95C377.746 244.989 377.816 244.076 377.955 243.212C378.095 242.348 378.255 241.603 378.436 240.976C378.617 240.349 378.875 239.736 379.209 239.137C379.544 238.538 379.808 238.071 380.004 237.736C380.199 237.402 380.491 237.04 380.881 236.65C381.272 236.259 381.501 236.023 381.571 235.939C381.641 235.855 381.815 235.709 382.094 235.5H382.449C382.644 235.5 382.742 235.563 382.742 235.688C382.742 235.73 382.623 235.876 382.386 236.127C382.149 236.378 381.864 236.747 381.529 237.235C381.195 237.722 380.853 238.322 380.505 239.032C380.157 239.743 379.864 240.704 379.627 241.917C379.39 243.129 379.272 244.473 379.272 245.95C379.272 247.427 379.39 248.765 379.627 249.963C379.864 251.162 380.15 252.13 380.484 252.869C380.819 253.607 381.16 254.206 381.508 254.666C381.857 255.126 382.149 255.495 382.386 255.774C382.623 256.052 382.742 256.199 382.742 256.213C382.742 256.338 382.637 256.401 382.428 256.401H382.094L381.508 255.899C380.199 254.715 379.244 253.238 378.645 251.468C378.046 249.699 377.746 247.859 377.746 245.95Z" fill="#D9EBFF"/>
<path d="M384.748 247.664C384.748 246.87 384.88 246.145 385.145 245.491C385.41 244.836 385.751 244.292 386.169 243.86C386.587 243.428 387.054 243.066 387.57 242.773C388.085 242.481 388.573 242.265 389.033 242.126C389.492 241.986 389.931 241.924 390.349 241.937H390.412C391.039 241.937 391.583 242.091 392.042 242.397C392.502 242.704 392.732 243.157 392.732 243.756C392.732 245.01 391.959 245.832 390.412 246.222C389.729 246.403 388.796 246.501 387.611 246.515C387.096 246.515 386.831 246.529 386.817 246.557C386.817 246.584 386.775 246.828 386.692 247.288C386.608 247.748 386.559 248.152 386.545 248.5C386.545 249.155 386.692 249.671 386.984 250.047C387.277 250.423 387.716 250.618 388.301 250.632C388.886 250.646 389.534 250.514 390.245 250.235C390.956 249.956 391.596 249.497 392.168 248.856C392.293 248.716 392.377 248.647 392.419 248.647C392.474 248.647 392.565 248.709 392.69 248.835C392.816 248.96 392.885 249.058 392.899 249.127C392.913 249.197 392.851 249.308 392.711 249.462C392.572 249.615 392.363 249.803 392.084 250.026C391.806 250.249 391.485 250.465 391.123 250.674C390.76 250.883 390.322 251.057 389.806 251.197C389.29 251.336 388.761 251.406 388.218 251.406C387.117 251.406 386.267 251.036 385.668 250.298C385.068 249.559 384.762 248.681 384.748 247.664ZM391.729 243.798C391.645 243.073 391.172 242.711 390.308 242.711C389.848 242.711 389.423 242.808 389.033 243.003C388.643 243.198 388.329 243.435 388.092 243.714C387.855 243.993 387.653 244.278 387.486 244.571C387.319 244.864 387.207 245.114 387.152 245.323C387.096 245.532 387.061 245.665 387.047 245.72C387.047 245.734 387.186 245.741 387.465 245.741C389.04 245.741 390.14 245.574 390.767 245.24C391.394 244.905 391.715 244.425 391.729 243.798Z" fill="#D9EBFF"/>
<path d="M395.089 245.679C395.641 244.881 396.395 244.482 397.35 244.482C397.823 244.482 398.296 244.61 398.769 244.866C399.242 245.122 399.626 245.575 399.921 246.225C400.286 247.043 400.468 248.166 400.468 249.594C400.468 251.121 400.256 252.289 399.833 253.097C399.636 253.51 399.365 253.84 399.02 254.087C398.675 254.333 398.375 254.486 398.119 254.545C397.863 254.604 397.611 254.638 397.365 254.648C397.109 254.648 396.853 254.619 396.597 254.56C396.341 254.5 396.04 254.343 395.695 254.087C395.35 253.831 395.08 253.5 394.883 253.097C394.459 252.289 394.247 251.121 394.247 249.594C394.247 247.88 394.528 246.575 395.089 245.679ZM398.414 245.501C398.119 245.186 397.769 245.028 397.365 245.028C396.951 245.028 396.597 245.186 396.301 245.501C396.055 245.757 395.892 246.112 395.813 246.565C395.735 247.018 395.695 247.964 395.695 249.402C395.695 250.959 395.735 251.983 395.813 252.476C395.892 252.969 396.07 253.358 396.345 253.643C396.621 253.939 396.961 254.087 397.365 254.087C397.759 254.087 398.094 253.939 398.37 253.643C398.656 253.348 398.833 252.934 398.902 252.402C398.971 251.87 399.01 250.87 399.02 249.402C399.02 247.974 398.981 247.033 398.902 246.58C398.823 246.127 398.66 245.767 398.414 245.501Z" fill="#D9EBFF"/>
<path d="M404.792 250.444C404.792 250.444 404.792 250.27 404.792 249.922C404.792 249.573 404.903 249.274 405.126 249.023C405.349 248.772 405.649 248.647 406.025 248.647C406.415 248.647 406.764 248.821 407.07 249.169C407.377 249.517 407.537 250.131 407.551 251.008C407.551 251.496 407.488 251.97 407.363 252.43C407.237 252.889 407.091 253.287 406.924 253.621C406.757 253.955 406.575 254.241 406.38 254.478C406.185 254.715 406.018 254.903 405.879 255.042C405.739 255.182 405.649 255.244 405.607 255.23C405.551 255.23 405.461 255.168 405.335 255.042C405.21 254.917 405.147 254.826 405.147 254.771C405.147 254.715 405.224 254.603 405.377 254.436C405.53 254.269 405.705 254.06 405.9 253.809C406.095 253.558 406.276 253.21 406.443 252.764C406.61 252.318 406.722 251.81 406.777 251.238V250.987L406.757 251.008C406.729 251.022 406.694 251.036 406.652 251.05C406.61 251.064 406.568 251.085 406.527 251.113C406.485 251.141 406.422 251.155 406.339 251.155C406.255 251.155 406.171 251.162 406.088 251.176C405.712 251.176 405.405 251.057 405.168 250.82L404.792 250.444Z" fill="#D9EBFF"/>
<path d="M413.278 247.664C413.278 246.87 413.41 246.145 413.675 245.491C413.939 244.836 414.281 244.292 414.699 243.86C415.117 243.428 415.584 243.066 416.099 242.773C416.615 242.481 417.102 242.265 417.562 242.126C418.022 241.986 418.461 241.924 418.879 241.937H418.942C419.569 241.937 420.112 242.091 420.572 242.397C421.032 242.704 421.262 243.157 421.262 243.756C421.262 245.01 420.488 245.832 418.942 246.222C418.259 246.403 417.325 246.501 416.141 246.515C415.625 246.515 415.361 246.529 415.347 246.557C415.347 246.584 415.305 246.828 415.221 247.288C415.138 247.748 415.089 248.152 415.075 248.5C415.075 249.155 415.221 249.671 415.514 250.047C415.807 250.423 416.246 250.618 416.831 250.632C417.416 250.646 418.064 250.514 418.775 250.235C419.485 249.956 420.126 249.497 420.697 248.856C420.823 248.716 420.906 248.647 420.948 248.647C421.004 248.647 421.095 248.709 421.22 248.835C421.345 248.96 421.415 249.058 421.429 249.127C421.443 249.197 421.38 249.308 421.241 249.462C421.101 249.615 420.892 249.803 420.614 250.026C420.335 250.249 420.015 250.465 419.652 250.674C419.29 250.883 418.851 251.057 418.336 251.197C417.82 251.336 417.291 251.406 416.747 251.406C415.646 251.406 414.796 251.036 414.197 250.298C413.598 249.559 413.292 248.681 413.278 247.664ZM420.258 243.798C420.175 243.073 419.701 242.711 418.837 242.711C418.377 242.711 417.952 242.808 417.562 243.003C417.172 243.198 416.859 243.435 416.622 243.714C416.385 243.993 416.183 244.278 416.016 244.571C415.848 244.864 415.737 245.114 415.681 245.323C415.625 245.532 415.591 245.665 415.577 245.72C415.577 245.734 415.716 245.741 415.995 245.741C417.569 245.741 418.67 245.574 419.297 245.24C419.924 244.905 420.245 244.425 420.258 243.798Z" fill="#D9EBFF"/>
<path d="M425.348 245.782L425.156 245.856C425.018 245.905 424.821 245.954 424.565 246.004C424.309 246.053 424.023 246.087 423.708 246.107H423.427V245.427H423.708C424.171 245.408 424.599 245.334 424.993 245.206C425.387 245.078 425.663 244.959 425.821 244.851C425.978 244.743 426.116 244.634 426.235 244.526C426.254 244.496 426.313 244.482 426.412 244.482C426.5 244.482 426.584 244.511 426.663 244.57V248.989L426.678 253.422C426.747 253.491 426.806 253.535 426.855 253.555C426.904 253.574 427.023 253.594 427.21 253.614C427.397 253.633 427.702 253.643 428.126 253.643H428.51V254.323H428.348C428.141 254.294 427.358 254.279 425.998 254.279C424.658 254.279 423.885 254.294 423.678 254.323H423.501V253.643H423.885C424.102 253.643 424.289 253.643 424.447 253.643C424.604 253.643 424.727 253.638 424.816 253.629C424.905 253.619 424.983 253.604 425.052 253.584C425.121 253.565 425.161 253.555 425.171 253.555C425.18 253.555 425.21 253.53 425.259 253.481C425.308 253.432 425.338 253.412 425.348 253.422V245.782Z" fill="#D9EBFF"/>
<path d="M432.966 235.521L433.05 235.5C433.119 235.5 433.189 235.5 433.259 235.5H433.51L434.095 236.002C435.405 237.186 436.359 238.663 436.958 240.433C437.557 242.202 437.857 244.041 437.857 245.95C437.857 246.898 437.787 247.811 437.648 248.688C437.509 249.566 437.348 250.312 437.167 250.925C436.986 251.538 436.728 252.151 436.394 252.764C436.059 253.377 435.795 253.844 435.6 254.164C435.405 254.485 435.119 254.84 434.743 255.23C434.367 255.621 434.144 255.85 434.074 255.92C434.004 255.99 433.844 256.122 433.593 256.317C433.551 256.359 433.524 256.387 433.51 256.401H433.259C433.147 256.401 433.071 256.401 433.029 256.401C432.987 256.401 432.952 256.38 432.924 256.338C432.896 256.296 432.876 256.234 432.862 256.15C432.876 256.136 432.952 256.045 433.092 255.878C435.251 253.635 436.331 250.326 436.331 245.95C436.331 241.575 435.251 238.266 433.092 236.023C432.952 235.855 432.876 235.765 432.862 235.751C432.862 235.639 432.896 235.563 432.966 235.521Z" fill="#D9EBFF"/>
<path d="M365 52.2302C365 51.4357 365.132 50.711 365.397 50.0559C365.662 49.4009 366.003 48.8573 366.422 48.4253C366.84 47.9932 367.307 47.6308 367.822 47.3381C368.338 47.0455 368.826 46.8294 369.286 46.6901C369.746 46.5507 370.185 46.488 370.603 46.5019H370.666C371.293 46.5019 371.836 46.6552 372.296 46.9618C372.756 47.2685 372.986 47.7214 372.986 48.3207C372.986 49.5751 372.213 50.3974 370.666 50.7877C369.983 50.9688 369.049 51.0664 367.864 51.0803C367.348 51.0803 367.084 51.0943 367.07 51.1222C367.07 51.15 367.028 51.3939 366.944 51.8539C366.861 52.3138 366.812 52.718 366.798 53.0664C366.798 53.7215 366.944 54.2372 367.237 54.6135C367.53 54.9898 367.969 55.1849 368.554 55.1988C369.139 55.2128 369.788 55.0804 370.498 54.8016C371.209 54.5229 371.85 54.063 372.422 53.4218C372.547 53.2825 372.631 53.2128 372.673 53.2128C372.728 53.2128 372.819 53.2755 372.944 53.4009C373.07 53.5264 373.139 53.6239 373.153 53.6936C373.167 53.7633 373.105 53.8748 372.965 54.0281C372.826 54.1814 372.617 54.3696 372.338 54.5926C372.059 54.8156 371.739 55.0316 371.376 55.2407C371.014 55.4497 370.575 55.6239 370.059 55.7633C369.544 55.9027 369.014 55.9724 368.47 55.9724C367.369 55.9724 366.519 55.603 365.92 54.8644C365.321 54.1257 365.014 53.2476 365 52.2302ZM371.983 48.3625C371.899 47.6378 371.425 47.2754 370.561 47.2754C370.101 47.2754 369.676 47.373 369.286 47.5681C368.896 47.7632 368.582 48.0002 368.345 48.2789C368.108 48.5577 367.906 48.8434 367.739 49.1361C367.571 49.4288 367.46 49.6796 367.404 49.8887C367.348 50.0978 367.314 50.2302 367.3 50.2859C367.3 50.2998 367.439 50.3068 367.718 50.3068C369.293 50.3068 370.394 50.1396 371.021 49.8051C371.648 49.4706 371.969 48.9897 371.983 48.3625Z" fill="#D9EBFF"/>
<path d="M377.073 50.3475L376.881 50.4214C376.743 50.4707 376.546 50.5199 376.29 50.5692C376.034 50.6185 375.748 50.6529 375.433 50.6727H375.152V49.9927H375.433C375.896 49.973 376.324 49.8991 376.719 49.771C377.113 49.6429 377.389 49.5247 377.546 49.4163C377.704 49.3079 377.842 49.1995 377.96 49.0911C377.98 49.0616 378.039 49.0468 378.138 49.0468C378.226 49.0468 378.31 49.0763 378.389 49.1355V53.5549L378.404 57.9891C378.473 58.058 378.532 58.1024 378.581 58.1221C378.63 58.1418 378.749 58.1615 378.936 58.1812C379.123 58.2009 379.428 58.2108 379.852 58.2108H380.236V58.8907H380.074C379.867 58.8611 379.084 58.8463 377.724 58.8463C376.384 58.8463 375.61 58.8611 375.403 58.8907H375.226V58.2108H375.61C375.827 58.2108 376.014 58.2108 376.172 58.2108C376.329 58.2108 376.453 58.2058 376.541 58.196C376.63 58.1861 376.709 58.1714 376.778 58.1517C376.847 58.1319 376.886 58.1221 376.896 58.1221C376.906 58.1221 376.935 58.0975 376.985 58.0482C377.034 57.9989 377.064 57.9792 377.073 57.9891V50.3475Z" fill="#D9EBFF"/>
<path d="M400 85.2291C400 84.4348 400.132 83.7102 400.397 83.0553C400.662 82.4004 401.003 81.8569 401.421 81.4249C401.839 80.9929 402.306 80.6306 402.822 80.338C403.337 80.0454 403.825 79.8294 404.285 79.69C404.745 79.5507 405.184 79.488 405.602 79.5019H405.665C406.292 79.5019 406.835 79.6552 407.295 79.9618C407.755 80.2683 407.985 80.7212 407.985 81.3204C407.985 82.5745 407.211 83.3967 405.665 83.7869C404.982 83.968 404.048 84.0656 402.864 84.0795C402.348 84.0795 402.083 84.0934 402.069 84.1213C402.069 84.1492 402.028 84.393 401.944 84.8529C401.86 85.3127 401.812 85.7168 401.798 86.0652C401.798 86.7202 401.944 87.2357 402.237 87.612C402.529 87.9882 402.968 88.1833 403.553 88.1973C404.139 88.2112 404.787 88.0788 405.497 87.8001C406.208 87.5214 406.849 87.0616 407.42 86.4206C407.546 86.2812 407.629 86.2115 407.671 86.2115C407.727 86.2115 407.817 86.2742 407.943 86.3997C408.068 86.5251 408.138 86.6226 408.152 86.6923C408.166 86.762 408.103 86.8734 407.964 87.0267C407.824 87.18 407.615 87.3681 407.337 87.5911C407.058 87.814 406.738 88.03 406.375 88.2391C406.013 88.4481 405.574 88.6223 405.058 88.7616C404.543 88.901 404.013 88.9706 403.47 88.9706C402.369 88.9706 401.519 88.6014 400.92 87.8628C400.321 87.1243 400.014 86.2464 400 85.2291ZM406.981 81.3622C406.898 80.6376 406.424 80.2753 405.56 80.2753C405.1 80.2753 404.675 80.3728 404.285 80.5679C403.895 80.763 403.581 80.9999 403.344 81.2786C403.107 81.5573 402.905 81.843 402.738 82.1356C402.571 82.4282 402.46 82.679 402.404 82.8881C402.348 83.0971 402.313 83.2295 402.299 83.2852C402.299 83.2991 402.439 83.3061 402.717 83.3061C404.292 83.3061 405.393 83.1389 406.02 82.8045C406.647 82.47 406.967 81.9893 406.981 81.3622Z" fill="#D9EBFF"/>
<path d="M410.342 83.2433C410.894 82.4453 411.648 82.0463 412.603 82.0463C413.076 82.0463 413.549 82.1744 414.022 82.4305C414.495 82.6867 414.879 83.1399 415.175 83.7901C415.539 84.6078 415.721 85.7309 415.721 87.1595C415.721 88.6865 415.509 89.854 415.086 90.6618C414.889 91.0756 414.618 91.4057 414.273 91.652C413.928 91.8983 413.628 92.051 413.372 92.1101C413.115 92.1692 412.864 92.2037 412.618 92.2135C412.362 92.2135 412.106 92.184 411.849 92.1249C411.593 92.0657 411.293 91.9081 410.948 91.652C410.603 91.3958 410.332 91.0658 410.135 90.6618C409.712 89.854 409.5 88.6865 409.5 87.1595C409.5 85.4452 409.781 84.1399 410.342 83.2433ZM413.667 83.066C413.372 82.7507 413.022 82.5931 412.618 82.5931C412.204 82.5931 411.849 82.7507 411.554 83.066C411.308 83.3221 411.145 83.6768 411.066 84.13C410.987 84.5832 410.948 85.529 410.948 86.9674C410.948 88.524 410.987 89.5486 411.066 90.0412C411.145 90.5338 411.322 90.9229 411.598 91.2086C411.874 91.5042 412.214 91.652 412.618 91.652C413.012 91.652 413.347 91.5042 413.623 91.2086C413.909 90.9131 414.086 90.4993 414.155 89.9673C414.224 89.4353 414.263 88.4353 414.273 86.9674C414.273 85.5388 414.234 84.598 414.155 84.1448C414.076 83.6916 413.913 83.332 413.667 83.066Z" fill="#D9EBFF"/>
<rect x="425.001" y="80.5714" width="7.5" height="7.5" transform="rotate(45 425.001 80.5714)" fill="black" stroke="#EB5757" stroke-width="2"/>
<rect x="373.314" y="30.5714" width="7.5" height="7.5" transform="rotate(45 373.314 30.5714)" fill="black" stroke="#EB5757" stroke-width="2"/>
</svg>
