<svg width="700" height="275" viewBox="0 0 700 275" fill="none" xmlns="http://www.w3.org/2000/svg">
<rect width="700" height="274" transform="translate(0 0.5)" fill="#0A0D12"/>
<path d="M400 60.5L300 60.5L300 160.5L400 160.5L400 60.5ZM400 60.5L449.5 11M250 210.5H450V10.5H250L250 210.5Z" stroke="#B3BFD8" stroke-width="2"/>
<circle cx="250" cy="10.5" r="5" fill="black" stroke="#D9EBFF" stroke-width="2"/>
<circle cx="299.656" cy="60.1569" r="5" transform="rotate(45 299.656 60.1569)" fill="black" stroke="#D9EBFF" stroke-width="2"/>
<circle cx="450" cy="10.5" r="5" fill="black" stroke="#D9EBFF" stroke-width="2"/>
<circle cx="399.656" cy="60.1569" r="5" transform="rotate(45 399.656 60.1569)" fill="black" stroke="#D9EBFF" stroke-width="2"/>
<circle cx="250" cy="210.5" r="5" fill="black" stroke="#D9EBFF" stroke-width="2"/>
<circle cx="299.656" cy="160.157" r="5" transform="rotate(45 299.656 160.157)" fill="black" stroke="#D9EBFF" stroke-width="2"/>
<circle cx="450" cy="210.5" r="5" fill="black" stroke="#D9EBFF" stroke-width="2"/>
<circle cx="399.656" cy="160.157" r="5" transform="rotate(45 399.656 160.157)" fill="black" stroke="#D9EBFF" stroke-width="2"/>
<path d="M221 8.74095C221.014 8.65734 221.035 8.54587 221.063 8.40652C221.091 8.26717 221.174 8.00241 221.314 7.61223C221.453 7.22205 221.592 6.89459 221.732 6.62982C221.871 6.36506 222.101 6.10727 222.421 5.85644C222.742 5.60561 223.062 5.48717 223.383 5.5011C223.885 5.5011 224.303 5.62651 224.637 5.87734C224.971 6.12817 225.18 6.36506 225.264 6.58802C225.348 6.81098 225.389 6.95729 225.389 7.02697C225.389 7.05484 225.396 7.06877 225.41 7.06877L225.64 6.83885C226.49 5.94702 227.459 5.5011 228.546 5.5011C229.298 5.5011 229.904 5.68922 230.364 6.06546C230.824 6.4417 231.061 6.99213 231.075 7.71674C231.089 8.44135 230.824 9.53524 230.281 10.9984C229.737 12.4616 229.472 13.3464 229.486 13.653C229.486 14.0153 229.605 14.1964 229.842 14.1964C229.925 14.1964 229.988 14.1895 230.03 14.1755C230.434 14.1059 230.796 13.8411 231.117 13.3813C231.437 12.9214 231.681 12.364 231.848 11.7091C231.876 11.5976 232.016 11.5419 232.266 11.5419C232.545 11.5419 232.684 11.5976 232.684 11.7091C232.684 11.723 232.657 11.8275 232.601 12.0226C232.489 12.4267 232.336 12.8239 232.141 13.214C231.946 13.6042 231.625 13.9944 231.179 14.3846C230.733 14.7747 230.253 14.9629 229.737 14.9489C229.082 14.9489 228.608 14.7608 228.316 14.3846C228.023 14.0083 227.877 13.6182 227.877 13.214C227.877 12.9493 228.128 12.1132 228.629 10.7058C229.131 9.29835 229.389 8.2393 229.403 7.52862C229.403 6.70647 229.096 6.29539 228.483 6.29539H228.379C227.18 6.29539 226.17 6.9991 225.348 8.40652L225.201 8.65734L224.512 11.4583C224.052 13.2837 223.787 14.2661 223.717 14.4055C223.536 14.7817 223.237 14.9698 222.818 14.9698C222.637 14.9698 222.491 14.928 222.38 14.8444C222.268 14.7608 222.191 14.6772 222.15 14.5936C222.108 14.51 222.094 14.4403 222.108 14.3846C222.108 14.2034 222.373 13.0677 222.902 10.9775C223.432 8.88727 223.71 7.75158 223.738 7.57043C223.752 7.50075 223.759 7.3405 223.759 7.08967C223.759 6.54621 223.592 6.27448 223.257 6.27448C222.728 6.27448 222.289 6.97123 221.941 8.36471C221.857 8.64341 221.815 8.78973 221.815 8.80366C221.787 8.88727 221.655 8.92907 221.418 8.92907H221.125C221.042 8.84547 221 8.78276 221 8.74095Z" fill="#D9EBFF"/>
<path d="M234.526 9.24252C235.078 8.44452 235.832 8.04551 236.787 8.04551C237.26 8.04551 237.733 8.17359 238.206 8.42974C238.679 8.68589 239.063 9.13908 239.359 9.78931C239.723 10.607 239.905 11.7301 239.905 13.1587C239.905 14.6857 239.694 15.8532 239.27 16.661C239.073 17.0748 238.802 17.4049 238.457 17.6512C238.112 17.8975 237.812 18.0502 237.556 18.1093C237.3 18.1684 237.048 18.2029 236.802 18.2127C236.546 18.2127 236.29 18.1832 236.034 18.1241C235.777 18.0649 235.477 17.9073 235.132 17.6512C234.787 17.395 234.516 17.065 234.319 16.661C233.896 15.8532 233.684 14.6857 233.684 13.1587C233.684 11.4444 233.965 10.1391 234.526 9.24252ZM237.851 9.06519C237.556 8.74993 237.206 8.5923 236.802 8.5923C236.388 8.5923 236.034 8.74993 235.738 9.06519C235.492 9.32134 235.329 9.67601 235.25 10.1292C235.171 10.5824 235.132 11.5282 235.132 12.9666C235.132 14.5232 235.171 15.5478 235.25 16.0404C235.329 16.533 235.506 16.9221 235.782 17.2078C236.058 17.5034 236.398 17.6512 236.802 17.6512C237.196 17.6512 237.531 17.5034 237.807 17.2078C238.093 16.9123 238.27 16.4985 238.339 15.9665C238.408 15.4345 238.447 14.4345 238.457 12.9666C238.457 11.538 238.418 10.5972 238.339 10.144C238.26 9.69079 238.098 9.33119 237.851 9.06519Z" fill="#D9EBFF"/>
<path d="M221 208.741C221.014 208.657 221.035 208.546 221.063 208.407C221.091 208.267 221.174 208.002 221.314 207.612C221.453 207.222 221.592 206.895 221.732 206.63C221.871 206.365 222.101 206.107 222.421 205.856C222.742 205.606 223.062 205.487 223.383 205.501C223.885 205.501 224.303 205.627 224.637 205.877C224.971 206.128 225.18 206.365 225.264 206.588C225.348 206.811 225.389 206.957 225.389 207.027C225.389 207.055 225.396 207.069 225.41 207.069L225.64 206.839C226.49 205.947 227.459 205.501 228.546 205.501C229.298 205.501 229.904 205.689 230.364 206.065C230.824 206.442 231.061 206.992 231.075 207.717C231.089 208.441 230.824 209.535 230.281 210.998C229.737 212.462 229.472 213.346 229.486 213.653C229.486 214.015 229.605 214.196 229.842 214.196C229.925 214.196 229.988 214.189 230.03 214.176C230.434 214.106 230.796 213.841 231.117 213.381C231.437 212.921 231.681 212.364 231.848 211.709C231.876 211.598 232.016 211.542 232.266 211.542C232.545 211.542 232.684 211.598 232.684 211.709C232.684 211.723 232.657 211.828 232.601 212.023C232.489 212.427 232.336 212.824 232.141 213.214C231.946 213.604 231.625 213.994 231.179 214.385C230.733 214.775 230.253 214.963 229.737 214.949C229.082 214.949 228.608 214.761 228.316 214.385C228.023 214.008 227.877 213.618 227.877 213.214C227.877 212.949 228.128 212.113 228.629 210.706C229.131 209.298 229.389 208.239 229.403 207.529C229.403 206.706 229.096 206.295 228.483 206.295H228.379C227.18 206.295 226.17 206.999 225.348 208.407L225.201 208.657L224.512 211.458C224.052 213.284 223.787 214.266 223.717 214.405C223.536 214.782 223.237 214.97 222.818 214.97C222.637 214.97 222.491 214.928 222.38 214.844C222.268 214.761 222.191 214.677 222.15 214.594C222.108 214.51 222.094 214.44 222.108 214.385C222.108 214.203 222.373 213.068 222.902 210.977C223.432 208.887 223.71 207.752 223.738 207.57C223.752 207.501 223.759 207.341 223.759 207.09C223.759 206.546 223.592 206.274 223.257 206.274C222.728 206.274 222.289 206.971 221.941 208.365C221.857 208.643 221.815 208.79 221.815 208.804C221.787 208.887 221.655 208.929 221.418 208.929H221.125C221.042 208.845 221 208.783 221 208.741Z" fill="#D9EBFF"/>
<path d="M236.255 209.346L236.063 209.42C235.925 209.469 235.728 209.518 235.472 209.568C235.216 209.617 234.93 209.651 234.615 209.671H234.334V208.991H234.615C235.078 208.972 235.506 208.898 235.901 208.77C236.295 208.642 236.57 208.523 236.728 208.415C236.886 208.307 237.024 208.198 237.142 208.09C237.162 208.06 237.221 208.046 237.319 208.046C237.408 208.046 237.492 208.075 237.57 208.134V212.553L237.585 216.986C237.654 217.055 237.713 217.099 237.763 217.119C237.812 217.139 237.93 217.159 238.117 217.178C238.304 217.198 238.61 217.208 239.033 217.208H239.418V217.888H239.255C239.048 217.858 238.265 217.843 236.905 217.843C235.566 217.843 234.792 217.858 234.585 217.888H234.408V217.208H234.792C235.009 217.208 235.196 217.208 235.354 217.208C235.511 217.208 235.635 217.203 235.723 217.193C235.812 217.183 235.891 217.168 235.96 217.149C236.029 217.129 236.068 217.119 236.078 217.119C236.088 217.119 236.117 217.095 236.167 217.045C236.216 216.996 236.245 216.976 236.255 216.986V209.346Z" fill="#D9EBFF"/>
<path d="M460 208.741C460.014 208.657 460.035 208.546 460.063 208.407C460.091 208.267 460.174 208.002 460.314 207.612C460.453 207.222 460.592 206.895 460.732 206.63C460.871 206.365 461.101 206.107 461.421 205.856C461.742 205.606 462.062 205.487 462.383 205.501C462.885 205.501 463.303 205.627 463.637 205.877C463.971 206.128 464.18 206.365 464.264 206.588C464.348 206.811 464.389 206.957 464.389 207.027C464.389 207.055 464.396 207.069 464.41 207.069L464.64 206.839C465.49 205.947 466.459 205.501 467.546 205.501C468.298 205.501 468.904 205.689 469.364 206.065C469.824 206.442 470.061 206.992 470.075 207.717C470.089 208.441 469.824 209.535 469.281 210.998C468.737 212.462 468.472 213.346 468.486 213.653C468.486 214.015 468.605 214.196 468.842 214.196C468.925 214.196 468.988 214.189 469.03 214.176C469.434 214.106 469.796 213.841 470.117 213.381C470.437 212.921 470.681 212.364 470.848 211.709C470.876 211.598 471.016 211.542 471.266 211.542C471.545 211.542 471.684 211.598 471.684 211.709C471.684 211.723 471.657 211.828 471.601 212.023C471.489 212.427 471.336 212.824 471.141 213.214C470.946 213.604 470.625 213.994 470.179 214.385C469.733 214.775 469.253 214.963 468.737 214.949C468.082 214.949 467.608 214.761 467.316 214.385C467.023 214.008 466.877 213.618 466.877 213.214C466.877 212.949 467.128 212.113 467.629 210.706C468.131 209.298 468.389 208.239 468.403 207.529C468.403 206.706 468.096 206.295 467.483 206.295H467.379C466.18 206.295 465.17 206.999 464.348 208.407L464.201 208.657L463.512 211.458C463.052 213.284 462.787 214.266 462.717 214.405C462.536 214.782 462.237 214.97 461.819 214.97C461.637 214.97 461.491 214.928 461.38 214.844C461.268 214.761 461.191 214.677 461.15 214.594C461.108 214.51 461.094 214.44 461.108 214.385C461.108 214.203 461.373 213.068 461.902 210.977C462.432 208.887 462.71 207.752 462.738 207.57C462.752 207.501 462.759 207.341 462.759 207.09C462.759 206.546 462.592 206.274 462.257 206.274C461.728 206.274 461.289 206.971 460.941 208.365C460.857 208.643 460.815 208.79 460.815 208.804C460.787 208.887 460.655 208.929 460.418 208.929H460.125C460.042 208.845 460 208.783 460 208.741Z" fill="#D9EBFF"/>
<path d="M473.718 211.548C473.452 211.548 473.24 211.459 473.083 211.282C472.925 211.105 472.846 210.888 472.846 210.632C472.846 209.932 473.107 209.326 473.63 208.814C474.152 208.302 474.802 208.046 475.58 208.046C476.477 208.046 477.226 208.321 477.827 208.873C478.428 209.425 478.733 210.139 478.743 211.016C478.743 211.44 478.644 211.843 478.447 212.228C478.25 212.612 478.014 212.947 477.738 213.233C477.462 213.518 477.068 213.883 476.556 214.326C476.201 214.632 475.708 215.085 475.078 215.686L474.206 216.513L475.329 216.528C476.876 216.528 477.698 216.503 477.797 216.454C477.866 216.434 477.984 215.996 478.152 215.139V215.095H478.743V215.139C478.733 215.168 478.669 215.617 478.551 216.484C478.432 217.351 478.359 217.804 478.329 217.843V217.888H472.846V217.429C472.846 217.361 472.876 217.287 472.935 217.208C472.994 217.129 473.142 216.957 473.378 216.691C473.664 216.375 473.91 216.099 474.117 215.863C474.206 215.765 474.373 215.582 474.62 215.316C474.866 215.05 475.034 214.868 475.122 214.769C475.211 214.671 475.354 214.508 475.551 214.282C475.748 214.055 475.886 213.888 475.965 213.779C476.043 213.671 476.157 213.523 476.304 213.336C476.452 213.149 476.556 212.991 476.615 212.863C476.674 212.735 476.748 212.592 476.836 212.435C476.925 212.277 476.989 212.119 477.029 211.962C477.068 211.804 477.102 211.656 477.132 211.518C477.162 211.38 477.176 211.218 477.176 211.031C477.176 210.41 477.009 209.873 476.674 209.42C476.339 208.967 475.861 208.74 475.24 208.74C474.915 208.74 474.63 208.824 474.383 208.991C474.137 209.159 473.965 209.321 473.866 209.479C473.768 209.637 473.718 209.73 473.718 209.76C473.718 209.77 473.743 209.775 473.792 209.775C473.97 209.775 474.152 209.843 474.339 209.981C474.526 210.119 474.62 210.346 474.62 210.661C474.62 210.908 474.541 211.114 474.383 211.282C474.226 211.449 474.004 211.538 473.718 211.548Z" fill="#D9EBFF"/>
<path d="M460 8.74095C460.014 8.65734 460.035 8.54587 460.063 8.40652C460.091 8.26717 460.174 8.00241 460.314 7.61223C460.453 7.22205 460.592 6.89459 460.732 6.62982C460.871 6.36506 461.101 6.10727 461.421 5.85644C461.742 5.60561 462.062 5.48717 462.383 5.5011C462.885 5.5011 463.303 5.62651 463.637 5.87734C463.971 6.12817 464.18 6.36506 464.264 6.58802C464.348 6.81098 464.389 6.95729 464.389 7.02697C464.389 7.05484 464.396 7.06877 464.41 7.06877L464.64 6.83885C465.49 5.94702 466.459 5.5011 467.546 5.5011C468.298 5.5011 468.904 5.68922 469.364 6.06546C469.824 6.4417 470.061 6.99213 470.075 7.71674C470.089 8.44135 469.824 9.53524 469.281 10.9984C468.737 12.4616 468.472 13.3464 468.486 13.653C468.486 14.0153 468.605 14.1964 468.842 14.1964C468.925 14.1964 468.988 14.1895 469.03 14.1755C469.434 14.1059 469.796 13.8411 470.117 13.3813C470.437 12.9214 470.681 12.364 470.848 11.7091C470.876 11.5976 471.016 11.5419 471.266 11.5419C471.545 11.5419 471.684 11.5976 471.684 11.7091C471.684 11.723 471.657 11.8275 471.601 12.0226C471.489 12.4267 471.336 12.8239 471.141 13.214C470.946 13.6042 470.625 13.9944 470.179 14.3846C469.733 14.7747 469.253 14.9629 468.737 14.9489C468.082 14.9489 467.608 14.7608 467.316 14.3846C467.023 14.0083 466.877 13.6182 466.877 13.214C466.877 12.9493 467.128 12.1132 467.629 10.7058C468.131 9.29835 468.389 8.2393 468.403 7.52862C468.403 6.70647 468.096 6.29539 467.483 6.29539H467.379C466.18 6.29539 465.17 6.9991 464.348 8.40652L464.201 8.65734L463.512 11.4583C463.052 13.2837 462.787 14.2661 462.717 14.4055C462.536 14.7817 462.237 14.9698 461.818 14.9698C461.637 14.9698 461.491 14.928 461.38 14.8444C461.268 14.7608 461.191 14.6772 461.15 14.5936C461.108 14.51 461.094 14.4403 461.108 14.3846C461.108 14.2034 461.373 13.0677 461.902 10.9775C462.432 8.88727 462.71 7.75158 462.738 7.57043C462.752 7.50075 462.759 7.3405 462.759 7.08967C462.759 6.54621 462.592 6.27448 462.257 6.27448C461.728 6.27448 461.289 6.97123 460.941 8.36471C460.857 8.64341 460.815 8.78973 460.815 8.80366C460.787 8.88727 460.655 8.92907 460.418 8.92907H460.125C460.042 8.84547 460 8.78276 460 8.74095Z" fill="#D9EBFF"/>
<path d="M473.984 11.0454C473.718 11.0454 473.511 10.9617 473.364 10.7942C473.216 10.6267 473.137 10.41 473.127 10.144C473.127 9.60212 473.364 9.11937 473.837 8.69574C474.309 8.27211 474.881 8.06029 475.551 8.06029C475.896 8.06029 476.112 8.06522 476.201 8.07507C476.93 8.19329 477.487 8.45437 477.871 8.8583C478.255 9.26223 478.452 9.70064 478.462 10.1735C478.462 10.6858 478.295 11.1834 477.96 11.6661C477.625 12.1488 477.162 12.4986 476.57 12.7153L476.526 12.7449C476.526 12.7547 476.57 12.7695 476.659 12.7892C476.748 12.8089 476.891 12.8533 477.088 12.9222C477.285 12.9912 477.472 13.0946 477.649 13.2326C478.457 13.7547 478.861 14.4444 478.861 15.3015C478.861 16.0798 478.556 16.7596 477.945 17.3408C477.334 17.9221 476.561 18.2127 475.625 18.2127C474.836 18.2127 474.157 18.0009 473.585 17.5773C473.014 17.1536 472.728 16.6167 472.728 15.9665C472.728 15.6906 472.817 15.469 472.994 15.3015C473.172 15.134 473.393 15.0453 473.659 15.0355C473.935 15.0355 474.162 15.1241 474.339 15.3015C474.516 15.4788 474.605 15.7005 474.605 15.9665C474.605 16.0748 474.59 16.1734 474.561 16.262C474.531 16.3507 474.497 16.4295 474.457 16.4985C474.418 16.5674 474.364 16.6266 474.295 16.6758C474.226 16.7251 474.167 16.7645 474.117 16.794C474.068 16.8236 474.019 16.8433 473.97 16.8532C473.92 16.863 473.881 16.8778 473.851 16.8975L473.792 16.9123C474.295 17.3556 474.905 17.5773 475.625 17.5773C476.167 17.5773 476.575 17.3162 476.851 16.794C477.019 16.4689 477.102 15.9714 477.102 15.3015V15.0059C477.102 14.07 476.787 13.4444 476.157 13.1291C476.009 13.07 475.708 13.0355 475.255 13.0257L474.635 13.0109L474.59 12.9813C474.57 12.9518 474.561 12.873 474.561 12.7449C474.561 12.5676 474.6 12.4789 474.679 12.4789C474.955 12.4789 475.24 12.4543 475.536 12.405C475.871 12.3557 476.176 12.1488 476.452 11.7843C476.728 11.4198 476.866 10.8681 476.866 10.1292V10.011C476.866 9.44942 476.694 9.06026 476.349 8.84352C476.132 8.70559 475.9 8.63663 475.654 8.63663C475.339 8.63663 475.048 8.69082 474.782 8.79919C474.516 8.90756 474.329 9.02086 474.221 9.13908C474.112 9.2573 474.058 9.31641 474.058 9.31641H474.103C474.132 9.32627 474.171 9.33612 474.221 9.34597C474.27 9.35582 474.319 9.38045 474.369 9.41986C474.418 9.45927 474.477 9.49375 474.546 9.5233C474.615 9.55286 474.664 9.60705 474.694 9.68586C474.723 9.76468 474.763 9.83857 474.812 9.90753C474.861 9.97649 474.876 10.075 474.856 10.2031C474.856 10.4198 474.787 10.6119 474.649 10.7794C474.511 10.9469 474.29 11.0356 473.984 11.0454Z" fill="#D9EBFF"/>
<path d="M409 59.741C409.014 59.6573 409.035 59.5459 409.063 59.4065C409.091 59.2672 409.174 59.0024 409.314 58.6122C409.453 58.2221 409.592 57.8946 409.732 57.6298C409.871 57.3651 410.101 57.1073 410.421 56.8564C410.742 56.6056 411.062 56.4872 411.383 56.5011C411.885 56.5011 412.303 56.6265 412.637 56.8773C412.971 57.1282 413.18 57.3651 413.264 57.588C413.348 57.811 413.389 57.9573 413.389 58.027C413.389 58.0548 413.396 58.0688 413.41 58.0688L413.64 57.8388C414.49 56.947 415.459 56.5011 416.546 56.5011C417.298 56.5011 417.904 56.6892 418.364 57.0655C418.824 57.4417 419.061 57.9921 419.075 58.7167C419.089 59.4414 418.824 60.5352 418.281 61.9984C417.737 63.4616 417.472 64.3464 417.486 64.653C417.486 65.0153 417.605 65.1964 417.842 65.1964C417.925 65.1964 417.988 65.1895 418.03 65.1755C418.434 65.1059 418.796 64.8411 419.117 64.3813C419.437 63.9214 419.681 63.364 419.848 62.7091C419.876 62.5976 420.016 62.5419 420.266 62.5419C420.545 62.5419 420.684 62.5976 420.684 62.7091C420.684 62.723 420.657 62.8275 420.601 63.0226C420.489 63.4267 420.336 63.8239 420.141 64.214C419.946 64.6042 419.625 64.9944 419.179 65.3846C418.733 65.7747 418.253 65.9629 417.737 65.9489C417.082 65.9489 416.608 65.7608 416.316 65.3846C416.023 65.0083 415.877 64.6182 415.877 64.214C415.877 63.9493 416.128 63.1132 416.629 61.7058C417.131 60.2983 417.389 59.2393 417.403 58.5286C417.403 57.7065 417.096 57.2954 416.483 57.2954H416.379C415.18 57.2954 414.17 57.9991 413.348 59.4065L413.201 59.6573L412.512 62.4583C412.052 64.2837 411.787 65.2661 411.717 65.4055C411.536 65.7817 411.237 65.9698 410.818 65.9698C410.637 65.9698 410.491 65.928 410.38 65.8444C410.268 65.7608 410.191 65.6772 410.15 65.5936C410.108 65.51 410.094 65.4403 410.108 65.3846C410.108 65.2034 410.373 64.0677 410.902 61.9775C411.432 59.8873 411.71 58.7516 411.738 58.5704C411.752 58.5008 411.759 58.3405 411.759 58.0897C411.759 57.5462 411.592 57.2745 411.257 57.2745C410.728 57.2745 410.289 57.9712 409.941 59.3647C409.857 59.6434 409.815 59.7897 409.815 59.8037C409.787 59.8873 409.655 59.9291 409.418 59.9291H409.125C409.042 59.8455 409 59.7828 409 59.741Z" fill="#D9EBFF"/>
<path d="M427.935 68.8876C427.758 68.858 427.122 68.8433 426.029 68.8433C424.886 68.8433 424.226 68.858 424.048 68.8876H423.915V68.2078H424.373C424.57 68.2078 424.703 68.2078 424.772 68.2078C424.841 68.2078 424.925 68.198 425.024 68.1783C425.122 68.1586 425.191 68.1339 425.231 68.1044C425.27 68.0748 425.304 68.0354 425.334 67.9862C425.344 67.9664 425.349 67.7004 425.349 67.1881V66.4492H421.521V65.7695L423.753 62.3558C425.26 60.0701 426.024 58.9224 426.043 58.9125C426.063 58.8928 426.166 58.883 426.354 58.883H426.62L426.708 58.9716V65.7695H428.068V66.4492H426.708V67.2029C426.708 67.6069 426.708 67.8433 426.708 67.9123C426.708 67.9812 426.738 68.0403 426.797 68.0896C426.876 68.1586 427.157 68.198 427.639 68.2078H428.068V68.8876H427.935ZM425.437 65.7695V60.8336L422.201 65.7547L423.812 65.7695H425.437Z" fill="#D9EBFF"/>
<path d="M409 158.741C409.014 158.657 409.035 158.546 409.063 158.407C409.091 158.267 409.174 158.002 409.314 157.612C409.453 157.222 409.592 156.895 409.732 156.63C409.871 156.365 410.101 156.107 410.421 155.856C410.742 155.606 411.062 155.487 411.383 155.501C411.885 155.501 412.303 155.627 412.637 155.877C412.971 156.128 413.18 156.365 413.264 156.588C413.348 156.811 413.389 156.957 413.389 157.027C413.389 157.055 413.396 157.069 413.41 157.069L413.64 156.839C414.49 155.947 415.459 155.501 416.546 155.501C417.298 155.501 417.904 155.689 418.364 156.065C418.824 156.442 419.061 156.992 419.075 157.717C419.089 158.441 418.824 159.535 418.281 160.998C417.737 162.462 417.472 163.346 417.486 163.653C417.486 164.015 417.605 164.196 417.842 164.196C417.925 164.196 417.988 164.189 418.03 164.176C418.434 164.106 418.796 163.841 419.117 163.381C419.437 162.921 419.681 162.364 419.848 161.709C419.876 161.598 420.016 161.542 420.266 161.542C420.545 161.542 420.684 161.598 420.684 161.709C420.684 161.723 420.657 161.828 420.601 162.023C420.489 162.427 420.336 162.824 420.141 163.214C419.946 163.604 419.625 163.994 419.179 164.385C418.733 164.775 418.253 164.963 417.737 164.949C417.082 164.949 416.608 164.761 416.316 164.385C416.023 164.008 415.877 163.618 415.877 163.214C415.877 162.949 416.128 162.113 416.629 160.706C417.131 159.298 417.389 158.239 417.403 157.529C417.403 156.706 417.096 156.295 416.483 156.295H416.379C415.18 156.295 414.17 156.999 413.348 158.407L413.201 158.657L412.512 161.458C412.052 163.284 411.787 164.266 411.717 164.405C411.536 164.782 411.237 164.97 410.818 164.97C410.637 164.97 410.491 164.928 410.38 164.844C410.268 164.761 410.191 164.677 410.15 164.594C410.108 164.51 410.094 164.44 410.108 164.385C410.108 164.203 410.373 163.068 410.902 160.977C411.432 158.887 411.71 157.752 411.738 157.57C411.752 157.501 411.759 157.341 411.759 157.09C411.759 156.546 411.592 156.274 411.257 156.274C410.728 156.274 410.289 156.971 409.941 158.365C409.857 158.643 409.815 158.79 409.815 158.804C409.787 158.887 409.655 158.929 409.418 158.929H409.125C409.042 158.845 409 158.783 409 158.741Z" fill="#D9EBFF"/>
<path d="M423.531 165.567C423.531 165.804 423.452 166.001 423.295 166.159C423.137 166.316 422.945 166.395 422.718 166.395H422.615C423.068 167.173 423.669 167.562 424.418 167.562C425.107 167.562 425.61 167.267 425.925 166.676C426.112 166.351 426.206 165.72 426.206 164.784C426.206 163.769 426.073 163.085 425.807 162.73C425.551 162.405 425.265 162.242 424.95 162.242H424.861C424.093 162.242 423.511 162.577 423.117 163.247C423.078 163.316 423.043 163.356 423.014 163.366C422.984 163.375 422.91 163.385 422.792 163.395C422.625 163.395 422.531 163.366 422.511 163.306C422.492 163.267 422.482 162.405 422.482 160.72V158.814C422.482 158.321 422.506 158.075 422.556 158.075C422.575 158.055 422.595 158.046 422.615 158.046C422.625 158.046 422.728 158.085 422.925 158.164C423.122 158.243 423.393 158.321 423.738 158.4C424.083 158.479 424.452 158.518 424.846 158.518C425.546 158.518 426.216 158.38 426.856 158.105C426.935 158.065 426.999 158.046 427.048 158.046C427.127 158.046 427.166 158.134 427.166 158.312V158.504C426.359 159.459 425.349 159.937 424.137 159.937C423.832 159.937 423.556 159.908 423.309 159.848L423.162 159.819V162.361C423.349 162.223 423.497 162.114 423.605 162.036C423.713 161.957 423.891 161.878 424.137 161.799C424.383 161.72 424.634 161.681 424.891 161.681C425.689 161.681 426.364 162.001 426.915 162.641C427.467 163.282 427.743 164.04 427.743 164.917C427.743 165.824 427.428 166.597 426.797 167.237C426.166 167.878 425.398 168.203 424.492 168.213C423.694 168.213 423.053 167.947 422.571 167.415C422.088 166.883 421.846 166.282 421.846 165.612C421.846 165.375 421.901 165.188 422.009 165.05C422.117 164.912 422.231 164.824 422.349 164.784C422.467 164.745 422.58 164.725 422.689 164.725C422.935 164.725 423.137 164.809 423.295 164.976C423.452 165.144 423.531 165.341 423.531 165.567Z" fill="#D9EBFF"/>
<path d="M271 158.741C271.014 158.657 271.035 158.546 271.063 158.407C271.091 158.267 271.174 158.002 271.314 157.612C271.453 157.222 271.592 156.895 271.732 156.63C271.871 156.365 272.101 156.107 272.421 155.856C272.742 155.606 273.062 155.487 273.383 155.501C273.885 155.501 274.303 155.627 274.637 155.877C274.971 156.128 275.18 156.365 275.264 156.588C275.348 156.811 275.389 156.957 275.389 157.027C275.389 157.055 275.396 157.069 275.41 157.069L275.64 156.839C276.49 155.947 277.459 155.501 278.546 155.501C279.298 155.501 279.904 155.689 280.364 156.065C280.824 156.442 281.061 156.992 281.075 157.717C281.089 158.441 280.824 159.535 280.281 160.998C279.737 162.462 279.472 163.346 279.486 163.653C279.486 164.015 279.605 164.196 279.842 164.196C279.925 164.196 279.988 164.189 280.03 164.176C280.434 164.106 280.796 163.841 281.117 163.381C281.437 162.921 281.681 162.364 281.848 161.709C281.876 161.598 282.016 161.542 282.266 161.542C282.545 161.542 282.684 161.598 282.684 161.709C282.684 161.723 282.657 161.828 282.601 162.023C282.489 162.427 282.336 162.824 282.141 163.214C281.946 163.604 281.625 163.994 281.179 164.385C280.733 164.775 280.253 164.963 279.737 164.949C279.082 164.949 278.608 164.761 278.316 164.385C278.023 164.008 277.877 163.618 277.877 163.214C277.877 162.949 278.128 162.113 278.629 160.706C279.131 159.298 279.389 158.239 279.403 157.529C279.403 156.706 279.096 156.295 278.483 156.295H278.379C277.18 156.295 276.17 156.999 275.348 158.407L275.201 158.657L274.512 161.458C274.052 163.284 273.787 164.266 273.717 164.405C273.536 164.782 273.237 164.97 272.818 164.97C272.637 164.97 272.491 164.928 272.38 164.844C272.268 164.761 272.191 164.677 272.15 164.594C272.108 164.51 272.094 164.44 272.108 164.385C272.108 164.203 272.373 163.068 272.902 160.977C273.432 158.887 273.71 157.752 273.738 157.57C273.752 157.501 273.759 157.341 273.759 157.09C273.759 156.546 273.592 156.274 273.257 156.274C272.728 156.274 272.289 156.971 271.941 158.365C271.857 158.643 271.815 158.79 271.815 158.804C271.787 158.887 271.655 158.929 271.418 158.929H271.125C271.042 158.845 271 158.783 271 158.741Z" fill="#D9EBFF"/>
<path d="M283.728 163.262C283.728 161.656 284.127 160.385 284.925 159.449C285.723 158.513 286.61 158.046 287.585 158.046C288.265 158.046 288.753 158.223 289.048 158.578C289.344 158.932 289.492 159.326 289.492 159.76C289.492 160.006 289.423 160.203 289.285 160.351C289.147 160.499 288.955 160.573 288.708 160.573C288.482 160.573 288.295 160.504 288.147 160.366C287.999 160.228 287.925 160.036 287.925 159.789C287.925 159.356 288.157 159.095 288.62 159.006C288.403 158.789 288.098 158.666 287.703 158.637C287.004 158.637 286.428 158.932 285.974 159.523C285.511 160.174 285.28 161.169 285.28 162.508L285.295 162.568C285.344 162.508 285.383 162.444 285.413 162.375C285.817 161.784 286.344 161.489 286.994 161.489H287.053C287.506 161.489 287.905 161.582 288.25 161.77C288.487 161.907 288.723 162.105 288.96 162.361C289.196 162.617 289.388 162.898 289.536 163.203C289.743 163.686 289.846 164.213 289.846 164.784V165.05C289.846 165.277 289.822 165.489 289.772 165.686C289.664 166.267 289.349 166.833 288.827 167.385C288.304 167.937 287.644 168.213 286.846 168.213C286.57 168.213 286.304 168.173 286.048 168.094C285.792 168.016 285.516 167.868 285.221 167.651C284.925 167.434 284.674 167.144 284.467 166.779C284.26 166.415 284.083 165.937 283.935 165.346C283.787 164.755 283.718 164.06 283.728 163.262ZM286.905 162.021C286.61 162.021 286.354 162.105 286.137 162.272C285.92 162.439 285.753 162.661 285.635 162.937C285.516 163.213 285.433 163.494 285.383 163.779C285.334 164.065 285.304 164.37 285.295 164.696C285.295 165.513 285.354 166.099 285.472 166.454C285.59 166.809 285.777 167.095 286.034 167.311C286.27 167.489 286.531 167.577 286.817 167.577C287.319 167.577 287.703 167.39 287.969 167.016C288.098 166.838 288.186 166.617 288.235 166.351C288.285 166.085 288.309 165.567 288.309 164.799C288.309 164.011 288.285 163.484 288.235 163.218C288.186 162.952 288.098 162.73 287.969 162.553C287.703 162.198 287.349 162.021 286.905 162.021Z" fill="#D9EBFF"/>
<path d="M271 59.741C271.014 59.6573 271.035 59.5459 271.063 59.4065C271.091 59.2672 271.174 59.0024 271.314 58.6122C271.453 58.2221 271.592 57.8946 271.732 57.6298C271.871 57.3651 272.101 57.1073 272.421 56.8564C272.742 56.6056 273.062 56.4872 273.383 56.5011C273.885 56.5011 274.303 56.6265 274.637 56.8773C274.971 57.1282 275.18 57.3651 275.264 57.588C275.348 57.811 275.389 57.9573 275.389 58.027C275.389 58.0548 275.396 58.0688 275.41 58.0688L275.64 57.8388C276.49 56.947 277.459 56.5011 278.546 56.5011C279.298 56.5011 279.904 56.6892 280.364 57.0655C280.824 57.4417 281.061 57.9921 281.075 58.7167C281.089 59.4414 280.824 60.5352 280.281 61.9984C279.737 63.4616 279.472 64.3464 279.486 64.653C279.486 65.0153 279.605 65.1964 279.842 65.1964C279.925 65.1964 279.988 65.1895 280.03 65.1755C280.434 65.1059 280.796 64.8411 281.117 64.3813C281.437 63.9214 281.681 63.364 281.848 62.7091C281.876 62.5976 282.015 62.5419 282.266 62.5419C282.545 62.5419 282.684 62.5976 282.684 62.7091C282.684 62.723 282.657 62.8275 282.601 63.0226C282.489 63.4267 282.336 63.8239 282.141 64.214C281.946 64.6042 281.625 64.9944 281.179 65.3846C280.733 65.7747 280.253 65.9629 279.737 65.9489C279.082 65.9489 278.608 65.7608 278.316 65.3846C278.023 65.0083 277.877 64.6182 277.877 64.214C277.877 63.9493 278.128 63.1132 278.629 61.7058C279.131 60.2983 279.389 59.2393 279.403 58.5286C279.403 57.7065 279.096 57.2954 278.483 57.2954H278.379C277.18 57.2954 276.17 57.9991 275.348 59.4065L275.201 59.6573L274.512 62.4583C274.052 64.2837 273.787 65.2661 273.717 65.4055C273.536 65.7817 273.237 65.9698 272.818 65.9698C272.637 65.9698 272.491 65.928 272.38 65.8444C272.268 65.7608 272.191 65.6772 272.15 65.5936C272.108 65.51 272.094 65.4403 272.108 65.3846C272.108 65.2034 272.373 64.0677 272.902 61.9775C273.432 59.8873 273.71 58.7516 273.738 58.5704C273.752 58.5008 273.759 58.3405 273.759 58.0897C273.759 57.5462 273.592 57.2745 273.257 57.2745C272.728 57.2745 272.289 57.9712 271.941 59.3647C271.857 59.6434 271.815 59.7897 271.815 59.8037C271.787 59.8873 271.655 59.9291 271.418 59.9291H271.125C271.042 59.8455 271 59.7828 271 59.741Z" fill="#D9EBFF"/>
<path d="M283.92 62.1193C283.93 62.0996 284.014 61.5627 284.172 60.5085L284.408 58.9273C284.408 58.9076 284.506 58.8977 284.704 58.8977H284.999V58.9568C284.999 59.0554 285.073 59.1391 285.221 59.2081C285.369 59.277 285.625 59.3214 285.989 59.3411C286.354 59.3608 287.186 59.3706 288.487 59.3706H290.275V59.947L289.27 61.3213C289.181 61.4395 289.033 61.6366 288.827 61.9124C288.62 62.1883 288.487 62.3705 288.428 62.4592C288.368 62.5479 288.265 62.7055 288.117 62.9321C287.969 63.1587 287.871 63.336 287.822 63.4641C287.772 63.5922 287.703 63.7744 287.615 64.0109C287.526 64.2473 287.462 64.4739 287.423 64.6907C287.383 64.9074 287.344 65.1734 287.304 65.4887C287.265 65.8039 287.235 66.1389 287.216 66.4936C287.196 66.8483 287.181 67.2522 287.171 67.7054C287.171 67.8433 287.171 67.9812 287.171 68.1192C287.171 68.2571 287.166 68.3753 287.157 68.4738V68.6068C287.117 68.7743 287.024 68.9172 286.876 69.0354C286.728 69.1536 286.561 69.2127 286.373 69.2127C286.265 69.2127 286.162 69.1979 286.063 69.1684C285.965 69.1388 285.861 69.0452 285.753 68.8876C285.644 68.73 285.59 68.5329 285.59 68.2965C285.59 66.7399 286.068 65.1242 287.024 63.4493C287.221 63.1341 287.634 62.538 288.265 61.6612L288.945 60.7302H287.57C285.856 60.7302 284.955 60.7598 284.866 60.8189C284.807 60.8484 284.753 60.9666 284.704 61.1735C284.654 61.3804 284.605 61.5922 284.556 61.809L284.511 62.1193V62.1637H283.92V62.1193Z" fill="#D9EBFF"/>
<path d="M173 258.852C173 257.334 173.599 255.968 174.797 254.756C175.996 253.544 177.292 252.937 178.685 252.937C179.465 252.937 180.078 253.105 180.524 253.439C180.97 253.773 181.2 254.212 181.214 254.756C181.214 255.16 181.082 255.501 180.817 255.78C180.552 256.059 180.218 256.205 179.814 256.219C179.549 256.219 179.34 256.149 179.187 256.01C179.033 255.871 178.957 255.662 178.957 255.383C178.957 255.104 179.033 254.867 179.187 254.672C179.34 254.477 179.493 254.331 179.646 254.233C179.8 254.136 179.897 254.094 179.939 254.108H179.96C179.96 254.08 179.918 254.038 179.835 253.982C179.751 253.927 179.605 253.871 179.396 253.815C179.187 253.76 178.95 253.732 178.685 253.732C178.267 253.732 177.87 253.829 177.494 254.024C177.201 254.15 176.901 254.366 176.595 254.672C175.982 255.285 175.536 256.149 175.257 257.264C174.979 258.379 174.832 259.187 174.818 259.688C174.818 260.329 175 260.81 175.362 261.131C175.668 261.465 176.072 261.632 176.574 261.632H176.658C178.218 261.632 179.507 261.04 180.524 259.856C180.65 259.716 180.733 259.647 180.775 259.647C180.831 259.647 180.921 259.709 181.047 259.835C181.172 259.96 181.242 260.058 181.256 260.127C181.27 260.197 181.207 260.301 181.068 260.441C180.928 260.58 180.726 260.775 180.462 261.026C180.197 261.277 179.883 261.486 179.521 261.653C179.159 261.82 178.713 261.994 178.183 262.176C177.654 262.357 177.097 262.433 176.511 262.406C175.466 262.406 174.623 262.071 173.982 261.402C173.341 260.733 173.014 259.883 173 258.852Z" fill="#D9EBFF"/>
<path d="M181.778 256.177C181.778 255.982 181.883 255.648 182.092 255.174C182.301 254.7 182.635 254.205 183.095 253.69C183.555 253.174 184.07 252.924 184.642 252.937C185.213 252.937 185.673 253.098 186.021 253.418C186.37 253.739 186.551 254.185 186.565 254.756C186.537 255.021 186.516 255.167 186.502 255.195C186.502 255.237 186.39 255.557 186.168 256.156C185.945 256.755 185.715 257.431 185.478 258.184C185.241 258.936 185.129 259.535 185.143 259.981C185.143 260.58 185.241 260.998 185.436 261.235C185.631 261.472 185.924 261.597 186.314 261.611C186.634 261.611 186.934 261.535 187.213 261.381C187.491 261.228 187.707 261.068 187.86 260.901C188.014 260.733 188.202 260.504 188.425 260.211C188.425 260.197 188.46 260.058 188.529 259.793C188.599 259.528 188.697 259.117 188.822 258.56C188.947 258.002 189.08 257.487 189.219 257.013C189.749 254.923 190.041 253.829 190.097 253.732C190.278 253.355 190.578 253.167 190.996 253.167C191.177 253.167 191.323 253.216 191.435 253.314C191.546 253.411 191.623 253.495 191.664 253.564C191.706 253.634 191.72 253.697 191.706 253.753C191.706 253.934 191.365 255.397 190.682 258.142C189.999 260.887 189.609 262.392 189.512 262.656C189.121 263.813 188.446 264.732 187.484 265.415C186.523 266.098 185.561 266.446 184.6 266.46C183.973 266.46 183.423 266.307 182.949 266C182.475 265.694 182.238 265.234 182.238 264.621C182.238 264.314 182.287 264.057 182.384 263.848C182.482 263.639 182.614 263.485 182.782 263.388C182.949 263.29 183.088 263.221 183.2 263.179C183.311 263.137 183.429 263.116 183.555 263.116C184.168 263.116 184.475 263.409 184.475 263.994C184.475 264.273 184.391 264.516 184.224 264.725C184.057 264.935 183.896 265.074 183.743 265.144C183.59 265.213 183.499 265.248 183.471 265.248L183.409 265.269C183.436 265.339 183.569 265.422 183.806 265.52C184.043 265.617 184.279 265.666 184.516 265.666H184.684C184.92 265.666 185.102 265.652 185.227 265.624C185.687 265.499 186.112 265.234 186.502 264.83C186.892 264.426 187.192 263.994 187.401 263.534C187.61 263.074 187.77 262.684 187.881 262.364C187.993 262.043 188.049 261.834 188.049 261.737L187.923 261.82C187.84 261.876 187.707 261.953 187.526 262.05C187.345 262.148 187.164 262.231 186.983 262.301C186.704 262.371 186.432 262.406 186.168 262.406C185.527 262.406 184.962 262.252 184.475 261.946C183.987 261.639 183.666 261.144 183.513 260.462C183.499 260.364 183.492 260.148 183.492 259.814C183.492 259.02 183.736 257.982 184.224 256.7C184.711 255.418 184.955 254.603 184.955 254.254C184.955 254.24 184.955 254.226 184.955 254.212C184.955 254.087 184.955 254.003 184.955 253.962C184.955 253.92 184.927 253.871 184.872 253.815C184.816 253.76 184.739 253.732 184.642 253.732H184.558C184.238 253.732 183.945 253.864 183.68 254.129C183.416 254.394 183.207 254.679 183.053 254.986C182.9 255.292 182.782 255.585 182.698 255.864C182.614 256.142 182.559 256.296 182.531 256.323C182.503 256.351 182.391 256.365 182.196 256.365H181.904C181.82 256.282 181.778 256.219 181.778 256.177Z" fill="#D9EBFF"/>
<path d="M192.459 258.852C192.459 257.334 193.058 255.968 194.256 254.756C195.454 253.544 196.75 252.937 198.144 252.937C198.924 252.937 199.537 253.105 199.983 253.439C200.429 253.773 200.659 254.212 200.673 254.756C200.673 255.16 200.54 255.501 200.276 255.78C200.011 256.059 199.676 256.205 199.272 256.219C199.008 256.219 198.799 256.149 198.645 256.01C198.492 255.871 198.415 255.662 198.415 255.383C198.415 255.104 198.492 254.867 198.645 254.672C198.799 254.477 198.952 254.331 199.105 254.233C199.258 254.136 199.356 254.094 199.398 254.108H199.419C199.419 254.08 199.377 254.038 199.293 253.982C199.21 253.927 199.063 253.871 198.854 253.815C198.645 253.76 198.408 253.732 198.144 253.732C197.726 253.732 197.329 253.829 196.952 254.024C196.66 254.15 196.36 254.366 196.054 254.672C195.44 255.285 194.995 256.149 194.716 257.264C194.437 258.379 194.291 259.187 194.277 259.688C194.277 260.329 194.458 260.81 194.82 261.131C195.127 261.465 195.531 261.632 196.033 261.632H196.116C197.677 261.632 198.966 261.04 199.983 259.856C200.108 259.716 200.192 259.647 200.234 259.647C200.289 259.647 200.38 259.709 200.505 259.835C200.631 259.96 200.701 260.058 200.714 260.127C200.728 260.197 200.666 260.301 200.526 260.441C200.387 260.58 200.185 260.775 199.92 261.026C199.655 261.277 199.342 261.486 198.98 261.653C198.617 261.82 198.172 261.994 197.642 262.176C197.113 262.357 196.555 262.433 195.97 262.406C194.925 262.406 194.082 262.071 193.441 261.402C192.8 260.733 192.473 259.883 192.459 258.852Z" fill="#D9EBFF"/>
<path d="M203.243 260.942C203.243 261.402 203.418 261.632 203.766 261.632C204.282 261.632 204.72 260.901 205.083 259.438C205.166 259.159 205.236 259.013 205.292 258.999C205.32 258.985 205.389 258.978 205.501 258.978H205.584C205.71 258.978 205.793 258.978 205.835 258.978C205.877 258.978 205.912 258.992 205.94 259.02C205.968 259.047 205.981 259.096 205.981 259.166C205.968 259.249 205.947 259.361 205.919 259.5C205.891 259.64 205.814 259.904 205.689 260.295C205.563 260.685 205.424 261.012 205.271 261.277C205.118 261.542 204.902 261.799 204.623 262.05C204.344 262.301 204.024 262.419 203.661 262.406C203.16 262.406 202.693 262.252 202.261 261.946C201.829 261.639 201.606 261.124 201.592 260.399C201.592 260.232 201.599 260.113 201.613 260.044L202.972 254.651C203.85 251.098 204.288 249.266 204.288 249.154C204.288 249.113 204.282 249.078 204.268 249.05C204.254 249.022 204.226 248.994 204.184 248.966C204.142 248.938 204.107 248.924 204.079 248.924C204.052 248.924 203.996 248.918 203.912 248.904C203.829 248.89 203.773 248.883 203.745 248.883C203.717 248.883 203.655 248.876 203.557 248.862C203.459 248.848 203.39 248.848 203.348 248.862C203.209 248.862 203.118 248.862 203.076 248.862C203.034 248.862 202.979 248.855 202.909 248.841C202.839 248.827 202.798 248.806 202.784 248.778C202.77 248.75 202.763 248.709 202.763 248.653C202.763 248.625 202.777 248.527 202.805 248.36C202.874 248.095 202.951 247.949 203.034 247.921C203.118 247.893 203.62 247.852 204.539 247.796C204.748 247.782 204.985 247.768 205.25 247.754C205.515 247.74 205.724 247.719 205.877 247.691C206.03 247.663 206.107 247.657 206.107 247.67C206.274 247.67 206.358 247.726 206.358 247.838C206.358 247.991 205.849 250.081 204.832 254.108C203.815 258.135 203.292 260.246 203.264 260.441C203.264 260.469 203.264 260.524 203.264 260.608C203.264 260.692 203.257 260.761 203.243 260.817V260.942Z" fill="#D9EBFF"/>
<path d="M207.863 258.664C207.863 257.87 207.995 257.145 208.26 256.491C208.524 255.836 208.866 255.292 209.284 254.86C209.702 254.428 210.169 254.066 210.684 253.773C211.2 253.481 211.687 253.265 212.147 253.126C212.607 252.986 213.046 252.924 213.464 252.937H213.527C214.154 252.937 214.697 253.091 215.157 253.397C215.617 253.704 215.847 254.157 215.847 254.756C215.847 256.01 215.073 256.832 213.527 257.222C212.844 257.403 211.91 257.501 210.726 257.515C210.21 257.515 209.946 257.529 209.932 257.557C209.932 257.584 209.89 257.828 209.806 258.288C209.723 258.748 209.674 259.152 209.66 259.5C209.66 260.155 209.806 260.671 210.099 261.047C210.392 261.423 210.83 261.618 211.416 261.632C212.001 261.646 212.649 261.514 213.359 261.235C214.07 260.956 214.711 260.497 215.282 259.856C215.408 259.716 215.491 259.647 215.533 259.647C215.589 259.647 215.679 259.709 215.805 259.835C215.93 259.96 216 260.058 216.014 260.127C216.028 260.197 215.965 260.308 215.826 260.462C215.686 260.615 215.477 260.803 215.199 261.026C214.92 261.249 214.6 261.465 214.237 261.674C213.875 261.883 213.436 262.057 212.921 262.197C212.405 262.336 211.875 262.406 211.332 262.406C210.231 262.406 209.381 262.036 208.782 261.298C208.183 260.559 207.876 259.681 207.863 258.664ZM214.843 254.798C214.76 254.073 214.286 253.711 213.422 253.711C212.962 253.711 212.537 253.808 212.147 254.003C211.757 254.198 211.444 254.435 211.207 254.714C210.97 254.993 210.768 255.278 210.601 255.571C210.433 255.864 210.322 256.114 210.266 256.323C210.21 256.532 210.176 256.665 210.162 256.72C210.162 256.734 210.301 256.741 210.58 256.741C212.154 256.741 213.255 256.574 213.882 256.24C214.509 255.905 214.829 255.425 214.843 254.798Z" fill="#D9EBFF"/>
<path d="M219.525 256.135C219.525 255.689 219.637 255.237 219.86 254.777C220.083 254.317 220.473 253.892 221.03 253.502C221.587 253.112 222.263 252.924 223.057 252.937C223.921 252.937 224.548 253.126 224.938 253.502C225.329 253.878 225.531 254.296 225.545 254.756C225.545 255.202 225.426 255.529 225.189 255.738C224.952 255.947 224.688 256.059 224.395 256.073C224.214 256.073 224.047 256.017 223.893 255.905C223.74 255.794 223.657 255.613 223.643 255.362C223.643 255.139 223.705 254.944 223.831 254.777C223.956 254.61 224.075 254.484 224.186 254.401C224.298 254.317 224.388 254.275 224.458 254.275C224.472 254.275 224.479 254.268 224.479 254.254C224.479 254.212 224.43 254.15 224.332 254.066C224.235 253.982 224.061 253.906 223.81 253.836C223.559 253.767 223.287 253.725 222.995 253.711C222.326 253.711 221.838 253.892 221.532 254.254C221.225 254.616 221.065 254.986 221.051 255.362C221.051 255.71 221.183 255.954 221.448 256.093C221.713 256.233 222.096 256.351 222.598 256.449C223.099 256.546 223.461 256.651 223.684 256.762C224.604 257.166 225.064 257.835 225.064 258.769C225.064 259.159 224.987 259.549 224.834 259.939C224.681 260.329 224.451 260.72 224.144 261.11C223.838 261.5 223.399 261.806 222.828 262.029C222.256 262.252 221.601 262.371 220.863 262.385C219.79 262.385 219.031 262.183 218.585 261.778C218.139 261.374 217.909 260.901 217.895 260.357C217.895 259.814 218.041 259.424 218.334 259.187C218.626 258.95 218.933 258.831 219.253 258.831C219.462 258.831 219.658 258.894 219.839 259.02C220.02 259.145 220.117 259.361 220.131 259.668C220.131 260.03 220.006 260.336 219.755 260.587C219.504 260.838 219.288 260.963 219.107 260.963C219.079 260.977 219.058 260.984 219.044 260.984C219.031 260.984 219.024 260.998 219.024 261.026C219.037 261.068 219.093 261.124 219.191 261.193C219.288 261.263 219.504 261.354 219.839 261.465C220.173 261.576 220.556 261.625 220.988 261.611C221.49 261.611 221.922 261.535 222.284 261.381C222.646 261.228 222.911 261.033 223.078 260.796C223.246 260.559 223.364 260.343 223.434 260.148C223.503 259.953 223.538 259.779 223.538 259.626C223.538 259.236 223.392 258.943 223.099 258.748C222.807 258.553 222.472 258.434 222.096 258.393C221.72 258.351 221.309 258.246 220.863 258.079C220.417 257.912 220.09 257.668 219.88 257.348C219.644 256.999 219.525 256.595 219.525 256.135Z" fill="#D9EBFF"/>
<path d="M233.571 254.923C233.571 254.742 233.668 254.603 233.863 254.505H247.177C247.386 254.616 247.49 254.756 247.49 254.923C247.49 255.076 247.393 255.209 247.198 255.32L240.551 255.341H233.905C233.682 255.271 233.571 255.132 233.571 254.923ZM233.571 258.978C233.571 258.769 233.682 258.629 233.905 258.56H247.198C247.393 258.699 247.49 258.838 247.49 258.978C247.49 259.159 247.386 259.298 247.177 259.396H233.863C233.668 259.298 233.571 259.159 233.571 258.978Z" fill="#D9EBFF"/>
<path d="M256.457 256.95C256.457 255.989 256.527 255.076 256.666 254.212C256.805 253.348 256.965 252.603 257.147 251.976C257.328 251.349 257.586 250.736 257.92 250.137C258.254 249.538 258.519 249.071 258.714 248.736C258.909 248.402 259.202 248.04 259.592 247.65C259.982 247.259 260.212 247.023 260.282 246.939C260.351 246.855 260.526 246.709 260.804 246.5H261.16C261.355 246.5 261.452 246.563 261.452 246.688C261.452 246.73 261.334 246.876 261.097 247.127C260.86 247.378 260.574 247.747 260.24 248.235C259.906 248.722 259.564 249.322 259.216 250.032C258.867 250.743 258.575 251.704 258.338 252.917C258.101 254.129 257.983 255.473 257.983 256.95C257.983 258.427 258.101 259.765 258.338 260.963C258.575 262.162 258.86 263.13 259.195 263.869C259.529 264.607 259.871 265.206 260.219 265.666C260.567 266.126 260.86 266.495 261.097 266.774C261.334 267.052 261.452 267.199 261.452 267.213C261.452 267.338 261.348 267.401 261.139 267.401H260.804L260.219 266.899C258.909 265.715 257.955 264.238 257.356 262.468C256.756 260.699 256.457 258.859 256.457 256.95Z" fill="#D9EBFF"/>
<path d="M263.062 256.177C263.075 256.093 263.096 255.982 263.124 255.843C263.152 255.703 263.236 255.439 263.375 255.048C263.514 254.658 263.654 254.331 263.793 254.066C263.932 253.801 264.162 253.544 264.483 253.293C264.803 253.042 265.124 252.924 265.444 252.937C265.946 252.937 266.364 253.063 266.698 253.314C267.033 253.564 267.242 253.801 267.325 254.024C267.409 254.247 267.451 254.394 267.451 254.463C267.451 254.491 267.458 254.505 267.472 254.505L267.702 254.275C268.551 253.383 269.52 252.937 270.607 252.937C271.359 252.937 271.965 253.126 272.425 253.502C272.885 253.878 273.122 254.428 273.136 255.153C273.15 255.877 272.885 256.971 272.342 258.434C271.798 259.897 271.533 260.782 271.547 261.089C271.547 261.451 271.666 261.632 271.903 261.632C271.986 261.632 272.049 261.625 272.091 261.611C272.495 261.542 272.857 261.277 273.178 260.817C273.498 260.357 273.742 259.8 273.909 259.145C273.937 259.034 274.076 258.978 274.327 258.978C274.606 258.978 274.745 259.034 274.745 259.145C274.745 259.159 274.717 259.263 274.661 259.458C274.55 259.863 274.397 260.26 274.202 260.65C274.007 261.04 273.686 261.43 273.24 261.82C272.794 262.21 272.314 262.399 271.798 262.385C271.143 262.385 270.669 262.197 270.377 261.82C270.084 261.444 269.938 261.054 269.938 260.65C269.938 260.385 270.189 259.549 270.69 258.142C271.192 256.734 271.45 255.675 271.464 254.965C271.464 254.143 271.157 253.732 270.544 253.732H270.44C269.241 253.732 268.231 254.435 267.409 255.843L267.263 256.093L266.573 258.894C266.113 260.72 265.848 261.702 265.779 261.841C265.598 262.217 265.298 262.406 264.88 262.406C264.699 262.406 264.552 262.364 264.441 262.28C264.33 262.197 264.253 262.113 264.211 262.029C264.169 261.946 264.155 261.876 264.169 261.82C264.169 261.639 264.434 260.504 264.964 258.413C265.493 256.323 265.772 255.188 265.8 255.007C265.813 254.937 265.82 254.777 265.82 254.526C265.82 253.982 265.653 253.711 265.319 253.711C264.789 253.711 264.35 254.407 264.002 255.801C263.918 256.08 263.877 256.226 263.877 256.24C263.849 256.323 263.716 256.365 263.48 256.365H263.187C263.103 256.282 263.062 256.219 263.062 256.177Z" fill="#D9EBFF"/>
<path d="M278.316 256.782L278.124 256.856C277.986 256.905 277.789 256.954 277.532 257.004C277.276 257.053 276.991 257.087 276.675 257.107H276.395V256.427H276.675C277.138 256.408 277.567 256.334 277.961 256.206C278.355 256.078 278.631 255.959 278.789 255.851C278.946 255.743 279.084 255.634 279.202 255.526C279.222 255.496 279.281 255.482 279.38 255.482C279.468 255.482 279.552 255.511 279.631 255.57V259.989L279.646 264.422C279.715 264.491 279.774 264.535 279.823 264.555C279.872 264.574 279.99 264.594 280.178 264.614C280.365 264.633 280.67 264.643 281.094 264.643H281.478V265.323H281.315C281.108 265.294 280.325 265.279 278.966 265.279C277.626 265.279 276.853 265.294 276.646 265.323H276.469V264.643H276.853C277.069 264.643 277.257 264.643 277.414 264.643C277.572 264.643 277.695 264.638 277.784 264.629C277.872 264.619 277.951 264.604 278.02 264.584C278.089 264.565 278.128 264.555 278.138 264.555C278.148 264.555 278.178 264.53 278.227 264.481C278.276 264.432 278.306 264.412 278.316 264.422V256.782Z" fill="#D9EBFF"/>
<path d="M286.282 261.444C286.282 261.444 286.282 261.27 286.282 260.922C286.282 260.573 286.394 260.274 286.617 260.023C286.84 259.772 287.139 259.647 287.515 259.647C287.906 259.647 288.254 259.821 288.561 260.169C288.867 260.517 289.027 261.131 289.041 262.008C289.041 262.496 288.979 262.97 288.853 263.43C288.728 263.889 288.581 264.287 288.414 264.621C288.247 264.955 288.066 265.241 287.871 265.478C287.676 265.715 287.509 265.903 287.369 266.042C287.23 266.182 287.139 266.244 287.097 266.23C287.042 266.23 286.951 266.168 286.826 266.042C286.7 265.917 286.638 265.826 286.638 265.771C286.638 265.715 286.714 265.603 286.868 265.436C287.021 265.269 287.195 265.06 287.39 264.809C287.585 264.558 287.766 264.21 287.934 263.764C288.101 263.318 288.212 262.81 288.268 262.238V261.987L288.247 262.008C288.219 262.022 288.184 262.036 288.143 262.05C288.101 262.064 288.059 262.085 288.017 262.113C287.975 262.141 287.913 262.155 287.829 262.155C287.745 262.155 287.662 262.162 287.578 262.176C287.202 262.176 286.895 262.057 286.659 261.82L286.282 261.444Z" fill="#D9EBFF"/>
<path d="M294.413 256.177C294.427 256.093 294.448 255.982 294.475 255.843C294.503 255.703 294.587 255.439 294.726 255.048C294.866 254.658 295.005 254.331 295.144 254.066C295.284 253.801 295.514 253.544 295.834 253.293C296.154 253.042 296.475 252.924 296.795 252.937C297.297 252.937 297.715 253.063 298.049 253.314C298.384 253.564 298.593 253.801 298.677 254.024C298.76 254.247 298.802 254.394 298.802 254.463C298.802 254.491 298.809 254.505 298.823 254.505L299.053 254.275C299.903 253.383 300.871 252.937 301.958 252.937C302.71 252.937 303.316 253.126 303.776 253.502C304.236 253.878 304.473 254.428 304.487 255.153C304.501 255.877 304.236 256.971 303.693 258.434C303.149 259.897 302.885 260.782 302.898 261.089C302.898 261.451 303.017 261.632 303.254 261.632C303.337 261.632 303.4 261.625 303.442 261.611C303.846 261.542 304.208 261.277 304.529 260.817C304.849 260.357 305.093 259.8 305.26 259.145C305.288 259.034 305.427 258.978 305.678 258.978C305.957 258.978 306.096 259.034 306.096 259.145C306.096 259.159 306.068 259.263 306.013 259.458C305.901 259.863 305.748 260.26 305.553 260.65C305.358 261.04 305.037 261.43 304.591 261.82C304.146 262.21 303.665 262.399 303.149 262.385C302.494 262.385 302.021 262.197 301.728 261.82C301.435 261.444 301.289 261.054 301.289 260.65C301.289 260.385 301.54 259.549 302.042 258.142C302.543 256.734 302.801 255.675 302.815 254.965C302.815 254.143 302.508 253.732 301.895 253.732H301.791C300.592 253.732 299.582 254.435 298.76 255.843L298.614 256.093L297.924 258.894C297.464 260.72 297.2 261.702 297.13 261.841C296.949 262.217 296.649 262.406 296.231 262.406C296.05 262.406 295.904 262.364 295.792 262.28C295.681 262.197 295.604 262.113 295.562 262.029C295.52 261.946 295.507 261.876 295.52 261.82C295.52 261.639 295.785 260.504 296.315 258.413C296.844 256.323 297.123 255.188 297.151 255.007C297.165 254.937 297.172 254.777 297.172 254.526C297.172 253.982 297.004 253.711 296.67 253.711C296.141 253.711 295.702 254.407 295.353 255.801C295.27 256.08 295.228 256.226 295.228 256.24C295.2 256.323 295.068 256.365 294.831 256.365H294.538C294.455 256.282 294.413 256.219 294.413 256.177Z" fill="#D9EBFF"/>
<path d="M308.13 258.984C307.864 258.984 307.652 258.895 307.495 258.718C307.337 258.54 307.258 258.324 307.258 258.068C307.258 257.368 307.519 256.762 308.041 256.25C308.564 255.738 309.214 255.482 309.992 255.482C310.888 255.482 311.637 255.758 312.238 256.309C312.839 256.861 313.144 257.575 313.154 258.452C313.154 258.875 313.056 259.279 312.859 259.664C312.662 260.048 312.425 260.383 312.149 260.668C311.874 260.954 311.479 261.319 310.967 261.762C310.613 262.067 310.12 262.52 309.49 263.121L308.618 263.949L309.741 263.964C311.287 263.964 312.11 263.939 312.208 263.89C312.277 263.87 312.396 263.432 312.563 262.575V262.53H313.154V262.575C313.144 262.604 313.08 263.052 312.962 263.919C312.844 264.786 312.77 265.239 312.74 265.279V265.323H307.258V264.865C307.258 264.796 307.288 264.722 307.347 264.643C307.406 264.565 307.554 264.392 307.79 264.126C308.076 263.811 308.322 263.535 308.529 263.299C308.618 263.2 308.785 263.018 309.031 262.752C309.278 262.486 309.445 262.304 309.534 262.205C309.623 262.107 309.765 261.944 309.962 261.718C310.159 261.491 310.297 261.323 310.376 261.215C310.455 261.107 310.568 260.959 310.716 260.772C310.864 260.585 310.967 260.427 311.026 260.299C311.085 260.171 311.159 260.028 311.248 259.87C311.337 259.713 311.401 259.555 311.44 259.398C311.479 259.24 311.514 259.092 311.544 258.954C311.573 258.816 311.588 258.654 311.588 258.467C311.588 257.846 311.42 257.309 311.085 256.856C310.75 256.403 310.273 256.176 309.652 256.176C309.327 256.176 309.041 256.26 308.795 256.427C308.549 256.595 308.376 256.757 308.278 256.915C308.179 257.073 308.13 257.166 308.13 257.196C308.13 257.206 308.155 257.211 308.204 257.211C308.381 257.211 308.564 257.28 308.751 257.417C308.938 257.555 309.031 257.782 309.031 258.097C309.031 258.343 308.953 258.55 308.795 258.718C308.637 258.885 308.416 258.974 308.13 258.984Z" fill="#D9EBFF"/>
<path d="M317.634 261.444C317.634 261.444 317.634 261.27 317.634 260.922C317.634 260.573 317.745 260.274 317.968 260.023C318.191 259.772 318.49 259.647 318.867 259.647C319.257 259.647 319.605 259.821 319.912 260.169C320.218 260.517 320.379 261.131 320.392 262.008C320.392 262.496 320.33 262.97 320.204 263.43C320.079 263.889 319.933 264.287 319.765 264.621C319.598 264.955 319.417 265.241 319.222 265.478C319.027 265.715 318.86 265.903 318.72 266.042C318.581 266.182 318.49 266.244 318.449 266.23C318.393 266.23 318.302 266.168 318.177 266.042C318.052 265.917 317.989 265.826 317.989 265.771C317.989 265.715 318.065 265.603 318.219 265.436C318.372 265.269 318.546 265.06 318.741 264.809C318.936 264.558 319.117 264.21 319.285 263.764C319.452 263.318 319.563 262.81 319.619 262.238V261.987L319.598 262.008C319.57 262.022 319.535 262.036 319.494 262.05C319.452 262.064 319.41 262.085 319.368 262.113C319.326 262.141 319.264 262.155 319.18 262.155C319.097 262.155 319.013 262.162 318.929 262.176C318.553 262.176 318.247 262.057 318.01 261.82L317.634 261.444Z" fill="#D9EBFF"/>
<path d="M325.743 256.177C325.757 256.093 325.778 255.982 325.806 255.843C325.834 255.703 325.917 255.439 326.057 255.048C326.196 254.658 326.335 254.331 326.475 254.066C326.614 253.801 326.844 253.544 327.164 253.293C327.485 253.042 327.805 252.924 328.126 252.937C328.627 252.937 329.045 253.063 329.38 253.314C329.714 253.564 329.923 253.801 330.007 254.024C330.09 254.247 330.132 254.394 330.132 254.463C330.132 254.491 330.139 254.505 330.153 254.505L330.383 254.275C331.233 253.383 332.201 252.937 333.288 252.937C334.041 252.937 334.647 253.126 335.107 253.502C335.566 253.878 335.803 254.428 335.817 255.153C335.831 255.877 335.566 256.971 335.023 258.434C334.48 259.897 334.215 260.782 334.229 261.089C334.229 261.451 334.347 261.632 334.584 261.632C334.668 261.632 334.73 261.625 334.772 261.611C335.176 261.542 335.539 261.277 335.859 260.817C336.18 260.357 336.423 259.8 336.591 259.145C336.618 259.034 336.758 258.978 337.009 258.978C337.287 258.978 337.427 259.034 337.427 259.145C337.427 259.159 337.399 259.263 337.343 259.458C337.232 259.863 337.078 260.26 336.883 260.65C336.688 261.04 336.368 261.43 335.922 261.82C335.476 262.21 334.995 262.399 334.48 262.385C333.825 262.385 333.351 262.197 333.058 261.82C332.766 261.444 332.619 261.054 332.619 260.65C332.619 260.385 332.87 259.549 333.372 258.142C333.873 256.734 334.131 255.675 334.145 254.965C334.145 254.143 333.839 253.732 333.226 253.732H333.121C331.923 253.732 330.913 254.435 330.09 255.843L329.944 256.093L329.254 258.894C328.795 260.72 328.53 261.702 328.46 261.841C328.279 262.217 327.979 262.406 327.561 262.406C327.38 262.406 327.234 262.364 327.122 262.28C327.011 262.197 326.934 262.113 326.893 262.029C326.851 261.946 326.837 261.876 326.851 261.82C326.851 261.639 327.116 260.504 327.645 258.413C328.175 256.323 328.453 255.188 328.481 255.007C328.495 254.937 328.502 254.777 328.502 254.526C328.502 253.982 328.335 253.711 328 253.711C327.471 253.711 327.032 254.407 326.684 255.801C326.6 256.08 326.558 256.226 326.558 256.24C326.53 256.323 326.398 256.365 326.161 256.365H325.868C325.785 256.282 325.743 256.219 325.743 256.177Z" fill="#D9EBFF"/>
<path d="M339.726 258.481C339.46 258.481 339.253 258.398 339.106 258.23C338.958 258.063 338.879 257.846 338.869 257.58C338.869 257.038 339.106 256.555 339.579 256.132C340.051 255.708 340.623 255.496 341.293 255.496C341.637 255.496 341.854 255.501 341.943 255.511C342.672 255.629 343.228 255.891 343.613 256.294C343.997 256.698 344.194 257.137 344.204 257.61C344.204 258.122 344.036 258.619 343.701 259.102C343.366 259.585 342.903 259.934 342.312 260.151L342.268 260.181C342.268 260.191 342.312 260.205 342.401 260.225C342.49 260.245 342.632 260.289 342.829 260.358C343.027 260.427 343.214 260.53 343.391 260.668C344.199 261.19 344.603 261.88 344.603 262.737C344.603 263.515 344.297 264.195 343.687 264.776C343.076 265.358 342.302 265.648 341.367 265.648C340.578 265.648 339.899 265.436 339.327 265.013C338.756 264.589 338.47 264.052 338.47 263.402C338.47 263.126 338.559 262.905 338.736 262.737C338.914 262.57 339.135 262.481 339.401 262.471C339.677 262.471 339.904 262.56 340.081 262.737C340.258 262.914 340.347 263.136 340.347 263.402C340.347 263.51 340.332 263.609 340.303 263.698C340.273 263.786 340.239 263.865 340.199 263.934C340.16 264.003 340.106 264.062 340.037 264.111C339.968 264.161 339.909 264.2 339.859 264.23C339.81 264.259 339.761 264.279 339.712 264.289C339.662 264.299 339.623 264.313 339.593 264.333L339.534 264.348C340.037 264.791 340.647 265.013 341.367 265.013C341.908 265.013 342.317 264.752 342.593 264.23C342.761 263.904 342.844 263.407 342.844 262.737V262.442C342.844 261.506 342.529 260.88 341.899 260.565C341.751 260.506 341.45 260.471 340.997 260.461L340.377 260.447L340.332 260.417C340.312 260.388 340.303 260.309 340.303 260.181C340.303 260.003 340.342 259.915 340.421 259.915C340.697 259.915 340.982 259.89 341.278 259.841C341.613 259.792 341.918 259.585 342.194 259.22C342.47 258.856 342.608 258.304 342.608 257.565V257.447C342.608 256.885 342.435 256.496 342.091 256.28C341.874 256.142 341.642 256.073 341.396 256.073C341.081 256.073 340.79 256.127 340.524 256.235C340.258 256.344 340.071 256.457 339.963 256.575C339.854 256.693 339.8 256.752 339.8 256.752H339.845C339.874 256.762 339.914 256.772 339.963 256.782C340.012 256.792 340.061 256.817 340.111 256.856C340.16 256.895 340.219 256.93 340.288 256.959C340.357 256.989 340.406 257.043 340.436 257.122C340.465 257.201 340.505 257.275 340.554 257.344C340.603 257.413 340.618 257.511 340.598 257.639C340.598 257.856 340.529 258.048 340.391 258.215C340.253 258.383 340.032 258.472 339.726 258.481Z" fill="#D9EBFF"/>
<path d="M348.985 261.444C348.985 261.444 348.985 261.27 348.985 260.922C348.985 260.573 349.096 260.274 349.319 260.023C349.542 259.772 349.842 259.647 350.218 259.647C350.608 259.647 350.956 259.821 351.263 260.169C351.569 260.517 351.73 261.131 351.744 262.008C351.744 262.496 351.681 262.97 351.556 263.43C351.43 263.889 351.284 264.287 351.117 264.621C350.949 264.955 350.768 265.241 350.573 265.478C350.378 265.715 350.211 265.903 350.072 266.042C349.932 266.182 349.842 266.244 349.8 266.23C349.744 266.23 349.654 266.168 349.528 266.042C349.403 265.917 349.34 265.826 349.34 265.771C349.34 265.715 349.417 265.603 349.57 265.436C349.723 265.269 349.897 265.06 350.092 264.809C350.288 264.558 350.469 264.21 350.636 263.764C350.803 263.318 350.915 262.81 350.97 262.238V261.987L350.949 262.008C350.922 262.022 350.887 262.036 350.845 262.05C350.803 262.064 350.761 262.085 350.72 262.113C350.678 262.141 350.615 262.155 350.531 262.155C350.448 262.155 350.364 262.162 350.281 262.176C349.904 262.176 349.598 262.057 349.361 261.82L348.985 261.444Z" fill="#D9EBFF"/>
<path d="M357.094 256.177C357.108 256.093 357.129 255.982 357.157 255.843C357.185 255.703 357.268 255.439 357.408 255.048C357.547 254.658 357.686 254.331 357.826 254.066C357.965 253.801 358.195 253.544 358.516 253.293C358.836 253.042 359.156 252.924 359.477 252.937C359.979 252.937 360.397 253.063 360.731 253.314C361.065 253.564 361.274 253.801 361.358 254.024C361.442 254.247 361.483 254.394 361.483 254.463C361.483 254.491 361.49 254.505 361.504 254.505L361.734 254.275C362.584 253.383 363.553 252.937 364.639 252.937C365.392 252.937 365.998 253.126 366.458 253.502C366.918 253.878 367.155 254.428 367.168 255.153C367.182 255.877 366.918 256.971 366.374 258.434C365.831 259.897 365.566 260.782 365.58 261.089C365.58 261.451 365.698 261.632 365.935 261.632C366.019 261.632 366.082 261.625 366.123 261.611C366.527 261.542 366.89 261.277 367.21 260.817C367.531 260.357 367.775 259.8 367.942 259.145C367.97 259.034 368.109 258.978 368.36 258.978C368.638 258.978 368.778 259.034 368.778 259.145C368.778 259.159 368.75 259.263 368.694 259.458C368.583 259.863 368.429 260.26 368.234 260.65C368.039 261.04 367.719 261.43 367.273 261.82C366.827 262.21 366.346 262.399 365.831 262.385C365.176 262.385 364.702 262.197 364.41 261.82C364.117 261.444 363.971 261.054 363.971 260.65C363.971 260.385 364.221 259.549 364.723 258.142C365.225 256.734 365.482 255.675 365.496 254.965C365.496 254.143 365.19 253.732 364.577 253.732H364.472C363.274 253.732 362.264 254.435 361.442 255.843L361.295 256.093L360.606 258.894C360.146 260.72 359.881 261.702 359.811 261.841C359.63 262.217 359.331 262.406 358.913 262.406C358.731 262.406 358.585 262.364 358.474 262.28C358.362 262.197 358.286 262.113 358.244 262.029C358.202 261.946 358.188 261.876 358.202 261.82C358.202 261.639 358.467 260.504 358.996 258.413C359.526 256.323 359.804 255.188 359.832 255.007C359.846 254.937 359.853 254.777 359.853 254.526C359.853 253.982 359.686 253.711 359.352 253.711C358.822 253.711 358.383 254.407 358.035 255.801C357.951 256.08 357.909 256.226 357.909 256.24C357.882 256.323 357.749 256.365 357.512 256.365H357.22C357.136 256.282 357.094 256.219 357.094 256.177Z" fill="#D9EBFF"/>
<path d="M370.619 256.679C371.171 255.881 371.925 255.482 372.88 255.482C373.353 255.482 373.826 255.61 374.299 255.866C374.772 256.122 375.156 256.575 375.452 257.225C375.816 258.043 375.998 259.166 375.998 260.594C375.998 262.121 375.786 263.289 375.363 264.097C375.166 264.51 374.895 264.84 374.55 265.087C374.205 265.333 373.905 265.486 373.649 265.545C373.393 265.604 373.141 265.638 372.895 265.648C372.639 265.648 372.383 265.619 372.127 265.56C371.871 265.5 371.57 265.343 371.225 265.087C370.881 264.831 370.61 264.5 370.413 264.097C369.989 263.289 369.777 262.121 369.777 260.594C369.777 258.88 370.058 257.575 370.619 256.679ZM373.944 256.501C373.649 256.186 373.299 256.028 372.895 256.028C372.481 256.028 372.127 256.186 371.831 256.501C371.585 256.757 371.422 257.112 371.344 257.565C371.265 258.018 371.225 258.964 371.225 260.402C371.225 261.959 371.265 262.983 371.344 263.476C371.422 263.969 371.6 264.358 371.876 264.643C372.151 264.939 372.491 265.087 372.895 265.087C373.289 265.087 373.624 264.939 373.9 264.643C374.186 264.348 374.363 263.934 374.432 263.402C374.501 262.87 374.54 261.87 374.55 260.402C374.55 258.974 374.511 258.033 374.432 257.58C374.353 257.127 374.191 256.767 373.944 256.501Z" fill="#D9EBFF"/>
<path d="M379.939 246.521L380.022 246.5C380.092 246.5 380.162 246.5 380.231 246.5H380.482L381.067 247.002C382.377 248.186 383.332 249.663 383.931 251.433C384.53 253.202 384.83 255.041 384.83 256.95C384.83 257.898 384.76 258.811 384.621 259.688C384.481 260.566 384.321 261.312 384.14 261.925C383.959 262.538 383.701 263.151 383.367 263.764C383.032 264.377 382.767 264.844 382.572 265.164C382.377 265.485 382.092 265.84 381.715 266.23C381.339 266.621 381.116 266.85 381.047 266.92C380.977 266.99 380.817 267.122 380.566 267.317C380.524 267.359 380.496 267.387 380.482 267.401H380.231C380.12 267.401 380.043 267.401 380.002 267.401C379.96 267.401 379.925 267.38 379.897 267.338C379.869 267.296 379.848 267.234 379.834 267.15C379.848 267.136 379.925 267.045 380.064 266.878C382.224 264.635 383.304 261.326 383.304 256.95C383.304 252.575 382.224 249.266 380.064 247.023C379.925 246.855 379.848 246.765 379.834 246.751C379.834 246.639 379.869 246.563 379.939 246.521Z" fill="#D9EBFF"/>
<path d="M388.466 261.444C388.466 261.444 388.466 261.27 388.466 260.922C388.466 260.573 388.578 260.274 388.801 260.023C389.024 259.772 389.323 259.647 389.7 259.647C390.09 259.647 390.438 259.821 390.745 260.169C391.051 260.517 391.211 261.131 391.225 262.008C391.225 262.496 391.163 262.97 391.037 263.43C390.912 263.889 390.765 264.287 390.598 264.621C390.431 264.955 390.25 265.241 390.055 265.478C389.86 265.715 389.693 265.903 389.553 266.042C389.414 266.182 389.323 266.244 389.281 266.23C389.226 266.23 389.135 266.168 389.01 266.042C388.884 265.917 388.822 265.826 388.822 265.771C388.822 265.715 388.898 265.603 389.052 265.436C389.205 265.269 389.379 265.06 389.574 264.809C389.769 264.558 389.95 264.21 390.118 263.764C390.285 263.318 390.396 262.81 390.452 262.238V261.987L390.431 262.008C390.403 262.022 390.368 262.036 390.327 262.05C390.285 262.064 390.243 262.085 390.201 262.113C390.159 262.141 390.097 262.155 390.013 262.155C389.929 262.155 389.846 262.162 389.762 262.176C389.386 262.176 389.079 262.057 388.843 261.82L388.466 261.444Z" fill="#D9EBFF"/>
<path d="M398.102 256.95C398.102 255.989 398.171 255.076 398.311 254.212C398.45 253.348 398.61 252.603 398.791 251.976C398.972 251.349 399.23 250.736 399.565 250.137C399.899 249.538 400.164 249.071 400.359 248.736C400.554 248.402 400.847 248.04 401.237 247.65C401.627 247.259 401.857 247.023 401.926 246.939C401.996 246.855 402.17 246.709 402.449 246.5H402.804C402.999 246.5 403.097 246.563 403.097 246.688C403.097 246.73 402.978 246.876 402.742 247.127C402.505 247.378 402.219 247.747 401.885 248.235C401.55 248.722 401.209 249.322 400.861 250.032C400.512 250.743 400.22 251.704 399.983 252.917C399.746 254.129 399.627 255.473 399.627 256.95C399.627 258.427 399.746 259.765 399.983 260.963C400.22 262.162 400.505 263.13 400.84 263.869C401.174 264.607 401.515 265.206 401.864 265.666C402.212 266.126 402.505 266.495 402.742 266.774C402.978 267.052 403.097 267.199 403.097 267.213C403.097 267.338 402.992 267.401 402.783 267.401H402.449L401.864 266.899C400.554 265.715 399.6 264.238 399 262.468C398.401 260.699 398.102 258.859 398.102 256.95Z" fill="#D9EBFF"/>
<path d="M404.706 256.177C404.72 256.093 404.741 255.982 404.769 255.843C404.797 255.703 404.88 255.439 405.02 255.048C405.159 254.658 405.298 254.331 405.438 254.066C405.577 253.801 405.807 253.544 406.128 253.293C406.448 253.042 406.768 252.924 407.089 252.937C407.591 252.937 408.009 253.063 408.343 253.314C408.677 253.564 408.886 253.801 408.97 254.024C409.054 254.247 409.095 254.394 409.095 254.463C409.095 254.491 409.102 254.505 409.116 254.505L409.346 254.275C410.196 253.383 411.165 252.937 412.251 252.937C413.004 252.937 413.61 253.126 414.07 253.502C414.53 253.878 414.767 254.428 414.78 255.153C414.794 255.877 414.53 256.971 413.986 258.434C413.443 259.897 413.178 260.782 413.192 261.089C413.192 261.451 413.31 261.632 413.547 261.632C413.631 261.632 413.694 261.625 413.735 261.611C414.139 261.542 414.502 261.277 414.822 260.817C415.143 260.357 415.387 259.8 415.554 259.145C415.582 259.034 415.721 258.978 415.972 258.978C416.25 258.978 416.39 259.034 416.39 259.145C416.39 259.159 416.362 259.263 416.306 259.458C416.195 259.863 416.041 260.26 415.846 260.65C415.651 261.04 415.331 261.43 414.885 261.82C414.439 262.21 413.958 262.399 413.443 262.385C412.788 262.385 412.314 262.197 412.022 261.82C411.729 261.444 411.583 261.054 411.583 260.65C411.583 260.385 411.833 259.549 412.335 258.142C412.837 256.734 413.094 255.675 413.108 254.965C413.108 254.143 412.802 253.732 412.189 253.732H412.084C410.886 253.732 409.876 254.435 409.054 255.843L408.907 256.093L408.218 258.894C407.758 260.72 407.493 261.702 407.423 261.841C407.242 262.217 406.943 262.406 406.525 262.406C406.344 262.406 406.197 262.364 406.086 262.28C405.974 262.197 405.898 262.113 405.856 262.029C405.814 261.946 405.8 261.876 405.814 261.82C405.814 261.639 406.079 260.504 406.608 258.413C407.138 256.323 407.416 255.188 407.444 255.007C407.458 254.937 407.465 254.777 407.465 254.526C407.465 253.982 407.298 253.711 406.964 253.711C406.434 253.711 405.995 254.407 405.647 255.801C405.563 256.08 405.521 256.226 405.521 256.24C405.494 256.323 405.361 256.365 405.124 256.365H404.832C404.748 256.282 404.706 256.219 404.706 256.177Z" fill="#D9EBFF"/>
<path d="M417.434 260.698C417.434 259.092 417.833 257.821 418.63 256.885C419.428 255.95 420.315 255.482 421.29 255.482C421.97 255.482 422.458 255.659 422.753 256.014C423.049 256.368 423.197 256.762 423.197 257.196C423.197 257.442 423.128 257.639 422.99 257.787C422.852 257.935 422.66 258.009 422.413 258.009C422.187 258.009 422 257.94 421.852 257.802C421.704 257.664 421.63 257.472 421.63 257.225C421.63 256.792 421.862 256.531 422.325 256.442C422.108 256.225 421.803 256.102 421.409 256.073C420.709 256.073 420.133 256.368 419.68 256.959C419.217 257.61 418.985 258.605 418.985 259.944L419 260.003C419.049 259.944 419.089 259.88 419.118 259.811C419.522 259.22 420.049 258.925 420.699 258.925H420.758C421.211 258.925 421.61 259.018 421.955 259.205C422.192 259.343 422.428 259.54 422.665 259.797C422.901 260.053 423.093 260.333 423.241 260.639C423.448 261.122 423.551 261.649 423.551 262.22V262.486C423.551 262.712 423.527 262.924 423.477 263.121C423.369 263.703 423.054 264.269 422.532 264.821C422.009 265.372 421.349 265.648 420.551 265.648C420.276 265.648 420.01 265.609 419.754 265.53C419.497 265.451 419.222 265.303 418.926 265.087C418.63 264.87 418.379 264.579 418.172 264.215C417.966 263.85 417.788 263.373 417.64 262.781C417.493 262.19 417.424 261.496 417.434 260.698ZM420.611 259.457C420.315 259.457 420.059 259.54 419.842 259.708C419.625 259.875 419.458 260.097 419.34 260.373C419.222 260.649 419.138 260.929 419.089 261.215C419.039 261.501 419.01 261.806 419 262.131C419 262.949 419.059 263.535 419.177 263.89C419.295 264.244 419.483 264.53 419.739 264.747C419.975 264.924 420.236 265.013 420.522 265.013C421.024 265.013 421.409 264.826 421.674 264.451C421.803 264.274 421.891 264.052 421.94 263.786C421.99 263.52 422.014 263.003 422.014 262.235C422.014 261.447 421.99 260.92 421.94 260.654C421.891 260.388 421.803 260.166 421.674 259.989C421.409 259.634 421.054 259.457 420.611 259.457Z" fill="#D9EBFF"/>
<path d="M427.948 261.444C427.948 261.444 427.948 261.27 427.948 260.922C427.948 260.573 428.059 260.274 428.282 260.023C428.505 259.772 428.805 259.647 429.181 259.647C429.571 259.647 429.92 259.821 430.226 260.169C430.533 260.517 430.693 261.131 430.707 262.008C430.707 262.496 430.644 262.97 430.519 263.43C430.393 263.889 430.247 264.287 430.08 264.621C429.913 264.955 429.732 265.241 429.536 265.478C429.341 265.715 429.174 265.903 429.035 266.042C428.895 266.182 428.805 266.244 428.763 266.23C428.707 266.23 428.617 266.168 428.491 266.042C428.366 265.917 428.303 265.826 428.303 265.771C428.303 265.715 428.38 265.603 428.533 265.436C428.686 265.269 428.861 265.06 429.056 264.809C429.251 264.558 429.432 264.21 429.599 263.764C429.766 263.318 429.878 262.81 429.934 262.238V261.987L429.913 262.008C429.885 262.022 429.85 262.036 429.808 262.05C429.766 262.064 429.725 262.085 429.683 262.113C429.641 262.141 429.578 262.155 429.495 262.155C429.411 262.155 429.327 262.162 429.244 262.176C428.868 262.176 428.561 262.057 428.324 261.82L427.948 261.444Z" fill="#D9EBFF"/>
<path d="M436.057 256.177C436.071 256.093 436.092 255.982 436.12 255.843C436.148 255.703 436.232 255.439 436.371 255.048C436.51 254.658 436.65 254.331 436.789 254.066C436.928 253.801 437.158 253.544 437.479 253.293C437.799 253.042 438.12 252.924 438.44 252.937C438.942 252.937 439.36 253.063 439.694 253.314C440.029 253.564 440.238 253.801 440.321 254.024C440.405 254.247 440.447 254.394 440.447 254.463C440.447 254.491 440.454 254.505 440.468 254.505L440.697 254.275C441.547 253.383 442.516 252.937 443.603 252.937C444.355 252.937 444.961 253.126 445.421 253.502C445.881 253.878 446.118 254.428 446.132 255.153C446.146 255.877 445.881 256.971 445.337 258.434C444.794 259.897 444.529 260.782 444.543 261.089C444.543 261.451 444.662 261.632 444.898 261.632C444.982 261.632 445.045 261.625 445.087 261.611C445.491 261.542 445.853 261.277 446.173 260.817C446.494 260.357 446.738 259.8 446.905 259.145C446.933 259.034 447.072 258.978 447.323 258.978C447.602 258.978 447.741 259.034 447.741 259.145C447.741 259.159 447.713 259.263 447.657 259.458C447.546 259.863 447.393 260.26 447.198 260.65C447.003 261.04 446.682 261.43 446.236 261.82C445.79 262.21 445.31 262.399 444.794 262.385C444.139 262.385 443.665 262.197 443.373 261.82C443.08 261.444 442.934 261.054 442.934 260.65C442.934 260.385 443.185 259.549 443.686 258.142C444.188 256.734 444.446 255.675 444.46 254.965C444.46 254.143 444.153 253.732 443.54 253.732H443.435C442.237 253.732 441.227 254.435 440.405 255.843L440.259 256.093L439.569 258.894C439.109 260.72 438.844 261.702 438.775 261.841C438.593 262.217 438.294 262.406 437.876 262.406C437.695 262.406 437.548 262.364 437.437 262.28C437.325 262.197 437.249 262.113 437.207 262.029C437.165 261.946 437.151 261.876 437.165 261.82C437.165 261.639 437.43 260.504 437.959 258.413C438.489 256.323 438.768 255.188 438.795 255.007C438.809 254.937 438.816 254.777 438.816 254.526C438.816 253.982 438.649 253.711 438.315 253.711C437.785 253.711 437.346 254.407 436.998 255.801C436.914 256.08 436.873 256.226 436.873 256.24C436.845 256.323 436.712 256.365 436.475 256.365H436.183C436.099 256.282 436.057 256.219 436.057 256.177Z" fill="#D9EBFF"/>
<path d="M450.588 263.003C450.588 263.24 450.509 263.437 450.351 263.594C450.193 263.752 450.001 263.831 449.775 263.831H449.671C450.125 264.609 450.725 264.998 451.474 264.998C452.164 264.998 452.666 264.702 452.981 264.111C453.169 263.786 453.262 263.156 453.262 262.22C453.262 261.205 453.129 260.521 452.863 260.166C452.607 259.841 452.321 259.678 452.006 259.678H451.917C451.149 259.678 450.568 260.013 450.174 260.683C450.134 260.752 450.1 260.792 450.07 260.801C450.041 260.811 449.967 260.821 449.849 260.831C449.681 260.831 449.588 260.801 449.568 260.742C449.548 260.703 449.538 259.841 449.538 258.156V256.25C449.538 255.758 449.563 255.511 449.612 255.511C449.632 255.492 449.652 255.482 449.671 255.482C449.681 255.482 449.785 255.521 449.982 255.6C450.179 255.679 450.45 255.758 450.794 255.836C451.139 255.915 451.509 255.955 451.903 255.955C452.602 255.955 453.272 255.817 453.912 255.541C453.991 255.501 454.055 255.482 454.104 255.482C454.183 255.482 454.223 255.57 454.223 255.748V255.94C453.415 256.895 452.405 257.373 451.193 257.373C450.888 257.373 450.612 257.344 450.366 257.284L450.218 257.255V259.797C450.405 259.659 450.553 259.55 450.661 259.471C450.77 259.393 450.947 259.314 451.193 259.235C451.44 259.156 451.691 259.117 451.947 259.117C452.745 259.117 453.42 259.437 453.971 260.077C454.523 260.718 454.799 261.476 454.799 262.353C454.799 263.259 454.484 264.033 453.853 264.673C453.223 265.313 452.454 265.638 451.548 265.648C450.75 265.648 450.11 265.382 449.627 264.85C449.144 264.318 448.903 263.717 448.903 263.047C448.903 262.811 448.957 262.624 449.065 262.486C449.174 262.348 449.287 262.259 449.405 262.22C449.524 262.181 449.637 262.161 449.745 262.161C449.992 262.161 450.193 262.245 450.351 262.412C450.509 262.58 450.588 262.777 450.588 263.003Z" fill="#D9EBFF"/>
<path d="M459.278 261.444C459.278 261.444 459.278 261.27 459.278 260.922C459.278 260.573 459.39 260.274 459.613 260.023C459.836 259.772 460.135 259.647 460.511 259.647C460.902 259.647 461.25 259.821 461.556 260.169C461.863 260.517 462.023 261.131 462.037 262.008C462.037 262.496 461.974 262.97 461.849 263.43C461.724 263.889 461.577 264.287 461.41 264.621C461.243 264.955 461.062 265.241 460.867 265.478C460.672 265.715 460.504 265.903 460.365 266.042C460.226 266.182 460.135 266.244 460.093 266.23C460.038 266.23 459.947 266.168 459.822 266.042C459.696 265.917 459.634 265.826 459.634 265.771C459.634 265.715 459.71 265.603 459.863 265.436C460.017 265.269 460.191 265.06 460.386 264.809C460.581 264.558 460.762 264.21 460.929 263.764C461.097 263.318 461.208 262.81 461.264 262.238V261.987L461.243 262.008C461.215 262.022 461.18 262.036 461.138 262.05C461.097 262.064 461.055 262.085 461.013 262.113C460.971 262.141 460.909 262.155 460.825 262.155C460.741 262.155 460.658 262.162 460.574 262.176C460.198 262.176 459.891 262.057 459.654 261.82L459.278 261.444Z" fill="#D9EBFF"/>
<path d="M467.388 256.177C467.402 256.093 467.423 255.982 467.451 255.843C467.478 255.703 467.562 255.439 467.701 255.048C467.841 254.658 467.98 254.331 468.119 254.066C468.259 253.801 468.489 253.544 468.809 253.293C469.13 253.042 469.45 252.924 469.77 252.937C470.272 252.937 470.69 253.063 471.025 253.314C471.359 253.564 471.568 253.801 471.652 254.024C471.735 254.247 471.777 254.394 471.777 254.463C471.777 254.491 471.784 254.505 471.798 254.505L472.028 254.275C472.878 253.383 473.846 252.937 474.933 252.937C475.685 252.937 476.292 253.126 476.751 253.502C477.211 253.878 477.448 254.428 477.462 255.153C477.476 255.877 477.211 256.971 476.668 258.434C476.124 259.897 475.86 260.782 475.874 261.089C475.874 261.451 475.992 261.632 476.229 261.632C476.312 261.632 476.375 261.625 476.417 261.611C476.821 261.542 477.183 261.277 477.504 260.817C477.824 260.357 478.068 259.8 478.235 259.145C478.263 259.034 478.403 258.978 478.653 258.978C478.932 258.978 479.071 259.034 479.071 259.145C479.071 259.159 479.043 259.263 478.988 259.458C478.876 259.863 478.723 260.26 478.528 260.65C478.333 261.04 478.012 261.43 477.566 261.82C477.121 262.21 476.64 262.399 476.124 262.385C475.469 262.385 474.996 262.197 474.703 261.82C474.41 261.444 474.264 261.054 474.264 260.65C474.264 260.385 474.515 259.549 475.017 258.142C475.518 256.734 475.776 255.675 475.79 254.965C475.79 254.143 475.483 253.732 474.87 253.732H474.766C473.567 253.732 472.557 254.435 471.735 255.843L471.589 256.093L470.899 258.894C470.439 260.72 470.175 261.702 470.105 261.841C469.924 262.217 469.624 262.406 469.206 262.406C469.025 262.406 468.879 262.364 468.767 262.28C468.656 262.197 468.579 262.113 468.537 262.029C468.496 261.946 468.482 261.876 468.496 261.82C468.496 261.639 468.76 260.504 469.29 258.413C469.819 256.323 470.098 255.188 470.126 255.007C470.14 254.937 470.147 254.777 470.147 254.526C470.147 253.982 469.979 253.711 469.645 253.711C469.116 253.711 468.677 254.407 468.328 255.801C468.245 256.08 468.203 256.226 468.203 256.24C468.175 256.323 468.043 256.365 467.806 256.365H467.513C467.43 256.282 467.388 256.219 467.388 256.177Z" fill="#D9EBFF"/>
<path d="M486.321 265.323C486.144 265.294 485.509 265.279 484.415 265.279C483.272 265.279 482.612 265.294 482.435 265.323H482.302V264.643H482.76C482.957 264.643 483.09 264.643 483.159 264.643C483.228 264.643 483.312 264.633 483.41 264.614C483.509 264.594 483.578 264.569 483.617 264.54C483.657 264.51 483.691 264.471 483.721 264.422C483.73 264.402 483.735 264.136 483.735 263.624V262.885H479.908V262.205L482.139 258.792C483.647 256.506 484.41 255.359 484.43 255.349C484.45 255.329 484.553 255.319 484.74 255.319H485.006L485.095 255.408V262.205H486.454V262.885H485.095V263.639C485.095 264.042 485.095 264.279 485.095 264.348C485.095 264.417 485.124 264.476 485.184 264.525C485.262 264.594 485.543 264.633 486.026 264.643H486.454V265.323H486.321ZM483.824 262.205V257.27L480.588 262.19L482.199 262.205H483.824Z" fill="#D9EBFF"/>
<path d="M490.629 261.444C490.629 261.444 490.629 261.27 490.629 260.922C490.629 260.573 490.741 260.274 490.964 260.023C491.187 259.772 491.486 259.647 491.863 259.647C492.253 259.647 492.601 259.821 492.908 260.169C493.214 260.517 493.374 261.131 493.388 262.008C493.388 262.496 493.326 262.97 493.2 263.43C493.075 263.889 492.929 264.287 492.761 264.621C492.594 264.955 492.413 265.241 492.218 265.478C492.023 265.715 491.856 265.903 491.716 266.042C491.577 266.182 491.486 266.244 491.445 266.23C491.389 266.23 491.298 266.168 491.173 266.042C491.047 265.917 490.985 265.826 490.985 265.771C490.985 265.715 491.061 265.603 491.215 265.436C491.368 265.269 491.542 265.06 491.737 264.809C491.932 264.558 492.113 264.21 492.281 263.764C492.448 263.318 492.559 262.81 492.615 262.238V261.987L492.594 262.008C492.566 262.022 492.531 262.036 492.49 262.05C492.448 262.064 492.406 262.085 492.364 262.113C492.322 262.141 492.26 262.155 492.176 262.155C492.093 262.155 492.009 262.162 491.925 262.176C491.549 262.176 491.243 262.057 491.006 261.82L490.629 261.444Z" fill="#D9EBFF"/>
<path d="M498.739 256.177C498.753 256.093 498.774 255.982 498.802 255.843C498.83 255.703 498.913 255.439 499.052 255.048C499.192 254.658 499.331 254.331 499.471 254.066C499.61 253.801 499.84 253.544 500.16 253.293C500.481 253.042 500.801 252.924 501.122 252.937C501.623 252.937 502.041 253.063 502.376 253.314C502.71 253.564 502.919 253.801 503.003 254.024C503.086 254.247 503.128 254.394 503.128 254.463C503.128 254.491 503.135 254.505 503.149 254.505L503.379 254.275C504.229 253.383 505.197 252.937 506.284 252.937C507.037 252.937 507.643 253.126 508.103 253.502C508.562 253.878 508.799 254.428 508.813 255.153C508.827 255.877 508.562 256.971 508.019 258.434C507.476 259.897 507.211 260.782 507.225 261.089C507.225 261.451 507.343 261.632 507.58 261.632C507.664 261.632 507.726 261.625 507.768 261.611C508.172 261.542 508.535 261.277 508.855 260.817C509.175 260.357 509.419 259.8 509.586 259.145C509.614 259.034 509.754 258.978 510.005 258.978C510.283 258.978 510.423 259.034 510.423 259.145C510.423 259.159 510.395 259.263 510.339 259.458C510.227 259.863 510.074 260.26 509.879 260.65C509.684 261.04 509.364 261.43 508.918 261.82C508.472 262.21 507.991 262.399 507.476 262.385C506.821 262.385 506.347 262.197 506.054 261.82C505.762 261.444 505.615 261.054 505.615 260.65C505.615 260.385 505.866 259.549 506.368 258.142C506.869 256.734 507.127 255.675 507.141 254.965C507.141 254.143 506.835 253.732 506.221 253.732H506.117C504.919 253.732 503.908 254.435 503.086 255.843L502.94 256.093L502.25 258.894C501.79 260.72 501.526 261.702 501.456 261.841C501.275 262.217 500.975 262.406 500.557 262.406C500.376 262.406 500.23 262.364 500.118 262.28C500.007 262.197 499.93 262.113 499.889 262.029C499.847 261.946 499.833 261.876 499.847 261.82C499.847 261.639 500.111 260.504 500.641 258.413C501.17 256.323 501.449 255.188 501.477 255.007C501.491 254.937 501.498 254.777 501.498 254.526C501.498 253.982 501.331 253.711 500.996 253.711C500.467 253.711 500.028 254.407 499.68 255.801C499.596 256.08 499.554 256.226 499.554 256.24C499.526 256.323 499.394 256.365 499.157 256.365H498.864C498.781 256.282 498.739 256.219 498.739 256.177Z" fill="#D9EBFF"/>
<path d="M511.658 258.555C511.668 258.536 511.752 257.999 511.91 256.945L512.146 255.363C512.146 255.344 512.245 255.334 512.442 255.334H512.737V255.393C512.737 255.492 512.811 255.575 512.959 255.644C513.106 255.713 513.363 255.758 513.727 255.777C514.092 255.797 514.924 255.807 516.224 255.807H518.012V256.383L517.008 257.757C516.919 257.876 516.771 258.073 516.564 258.348C516.357 258.624 516.224 258.806 516.165 258.895C516.106 258.984 516.003 259.141 515.855 259.368C515.707 259.595 515.609 259.772 515.559 259.9C515.51 260.028 515.441 260.21 515.353 260.447C515.264 260.683 515.2 260.91 515.16 261.126C515.121 261.343 515.082 261.609 515.042 261.924C515.003 262.24 514.973 262.575 514.954 262.929C514.934 263.284 514.919 263.688 514.909 264.141C514.909 264.279 514.909 264.417 514.909 264.555C514.909 264.693 514.904 264.811 514.895 264.909V265.042C514.855 265.21 514.762 265.353 514.614 265.471C514.466 265.589 514.298 265.648 514.111 265.648C514.003 265.648 513.9 265.633 513.801 265.604C513.702 265.574 513.599 265.481 513.491 265.323C513.382 265.165 513.328 264.968 513.328 264.732C513.328 263.176 513.806 261.56 514.762 259.885C514.959 259.57 515.372 258.974 516.003 258.097L516.682 257.166H515.308C513.594 257.166 512.693 257.196 512.604 257.255C512.545 257.284 512.491 257.403 512.442 257.61C512.392 257.816 512.343 258.028 512.294 258.245L512.249 258.555V258.6H511.658V258.555Z" fill="#D9EBFF"/>
<path d="M521.584 246.521L521.667 246.5C521.737 246.5 521.806 246.5 521.876 246.5H522.127L522.712 247.002C524.022 248.186 524.976 249.663 525.576 251.433C526.175 253.202 526.474 255.041 526.474 256.95C526.474 257.898 526.405 258.811 526.265 259.688C526.126 260.566 525.966 261.312 525.785 261.925C525.603 262.538 525.346 263.151 525.011 263.764C524.677 264.377 524.412 264.844 524.217 265.164C524.022 265.485 523.736 265.84 523.36 266.23C522.984 266.621 522.761 266.85 522.691 266.92C522.622 266.99 522.461 267.122 522.211 267.317C522.169 267.359 522.141 267.387 522.127 267.401H521.876C521.765 267.401 521.688 267.401 521.646 267.401C521.604 267.401 521.57 267.38 521.542 267.338C521.514 267.296 521.493 267.234 521.479 267.15C521.493 267.136 521.57 267.045 521.709 266.878C523.869 264.635 524.949 261.326 524.949 256.95C524.949 252.575 523.869 249.266 521.709 247.023C521.57 246.855 521.493 246.765 521.479 246.751C521.479 246.639 521.514 246.563 521.584 246.521Z" fill="#D9EBFF"/>
</svg>
