<svg width="700" height="257" viewBox="0 0 700 257" fill="none" xmlns="http://www.w3.org/2000/svg">
<rect width="700" height="256" transform="translate(0 0.5)" fill="#0A0D12"/>
<path fill-rule="evenodd" clip-rule="evenodd" d="M368 212.5H568V12.5H368L368 212.5ZM418 62.5L518 62.5L518 162.5L418 162.5L418 62.5Z" fill="#AEB6C0"/>
<path fill-rule="evenodd" clip-rule="evenodd" d="M368 212.5H568V12.5H368L368 212.5ZM418 62.5L518 62.5L518 162.5L418 162.5L418 62.5Z" fill="#AEB6C0"/>
<path fill-rule="evenodd" clip-rule="evenodd" d="M102 212.5H302V12.5H102L102 212.5Z" fill="#AEB6C0"/>
<path d="M137.974 238.95C137.974 237.989 138.043 237.076 138.183 236.212C138.322 235.348 138.482 234.603 138.663 233.976C138.844 233.349 139.102 232.736 139.437 232.137C139.771 231.538 140.036 231.071 140.231 230.736C140.426 230.402 140.719 230.04 141.109 229.65C141.499 229.259 141.729 229.023 141.798 228.939C141.868 228.855 142.042 228.709 142.321 228.5H142.676C142.871 228.5 142.969 228.563 142.969 228.688C142.969 228.73 142.85 228.876 142.614 229.127C142.377 229.378 142.091 229.747 141.757 230.235C141.422 230.722 141.081 231.322 140.733 232.032C140.384 232.743 140.092 233.704 139.855 234.917C139.618 236.129 139.499 237.473 139.499 238.95C139.499 240.427 139.618 241.765 139.855 242.963C140.092 244.162 140.377 245.13 140.712 245.869C141.046 246.607 141.387 247.206 141.736 247.666C142.084 248.126 142.377 248.495 142.614 248.774C142.85 249.052 142.969 249.199 142.969 249.213C142.969 249.338 142.864 249.401 142.655 249.401H142.321L141.736 248.899C140.426 247.715 139.472 246.238 138.872 244.468C138.273 242.699 137.974 240.859 137.974 238.95Z" fill="#D9EBFF"/>
<path d="M144.578 238.177C144.592 238.093 144.613 237.982 144.641 237.843C144.669 237.703 144.752 237.439 144.892 237.048C145.031 236.658 145.17 236.331 145.31 236.066C145.449 235.801 145.679 235.544 146 235.293C146.32 235.042 146.64 234.924 146.961 234.937C147.463 234.937 147.881 235.063 148.215 235.314C148.549 235.564 148.758 235.801 148.842 236.024C148.926 236.247 148.967 236.394 148.967 236.463C148.967 236.491 148.974 236.505 148.988 236.505L149.218 236.275C150.068 235.383 151.037 234.937 152.123 234.937C152.876 234.937 153.482 235.126 153.942 235.502C154.402 235.878 154.639 236.428 154.652 237.153C154.666 237.877 154.402 238.971 153.858 240.434C153.315 241.897 153.05 242.782 153.064 243.089C153.064 243.451 153.182 243.632 153.419 243.632C153.503 243.632 153.566 243.625 153.607 243.611C154.012 243.542 154.374 243.277 154.694 242.817C155.015 242.357 155.259 241.8 155.426 241.145C155.454 241.034 155.593 240.978 155.844 240.978C156.122 240.978 156.262 241.034 156.262 241.145C156.262 241.159 156.234 241.263 156.178 241.458C156.067 241.863 155.913 242.26 155.718 242.65C155.523 243.04 155.203 243.43 154.757 243.82C154.311 244.21 153.83 244.399 153.315 244.385C152.66 244.385 152.186 244.197 151.894 243.82C151.601 243.444 151.455 243.054 151.455 242.65C151.455 242.385 151.705 241.549 152.207 240.142C152.709 238.734 152.966 237.675 152.98 236.965C152.98 236.143 152.674 235.732 152.061 235.732H151.956C150.758 235.732 149.748 236.435 148.926 237.843L148.779 238.093L148.09 240.894C147.63 242.72 147.365 243.702 147.295 243.841C147.114 244.217 146.815 244.406 146.397 244.406C146.216 244.406 146.069 244.364 145.958 244.28C145.846 244.197 145.77 244.113 145.728 244.029C145.686 243.946 145.672 243.876 145.686 243.82C145.686 243.639 145.951 242.504 146.48 240.413C147.01 238.323 147.288 237.188 147.316 237.007C147.33 236.937 147.337 236.777 147.337 236.526C147.337 235.982 147.17 235.711 146.836 235.711C146.306 235.711 145.867 236.407 145.519 237.801C145.435 238.08 145.393 238.226 145.393 238.24C145.366 238.323 145.233 238.365 144.996 238.365H144.704C144.62 238.282 144.578 238.219 144.578 238.177Z" fill="#D9EBFF"/>
<path d="M159.832 238.782L159.64 238.856C159.502 238.905 159.305 238.954 159.049 239.004C158.793 239.053 158.507 239.087 158.192 239.107H157.911V238.427H158.192C158.655 238.408 159.084 238.334 159.478 238.206C159.872 238.078 160.148 237.959 160.305 237.851C160.463 237.743 160.601 237.634 160.719 237.526C160.739 237.496 160.798 237.482 160.896 237.482C160.985 237.482 161.069 237.511 161.148 237.57V241.989L161.162 246.422C161.231 246.491 161.29 246.535 161.34 246.555C161.389 246.574 161.507 246.594 161.694 246.614C161.881 246.633 162.187 246.643 162.61 246.643H162.995V247.323H162.832C162.625 247.294 161.842 247.279 160.483 247.279C159.143 247.279 158.369 247.294 158.163 247.323H157.985V246.643H158.369C158.586 246.643 158.773 246.643 158.931 246.643C159.089 246.643 159.212 246.638 159.3 246.629C159.389 246.619 159.468 246.604 159.537 246.584C159.606 246.565 159.645 246.555 159.655 246.555C159.665 246.555 159.694 246.53 159.744 246.481C159.793 246.432 159.823 246.412 159.832 246.422V238.782Z" fill="#D9EBFF"/>
<path d="M167.799 243.444C167.799 243.444 167.799 243.27 167.799 242.922C167.799 242.573 167.911 242.274 168.133 242.023C168.356 241.772 168.656 241.647 169.032 241.647C169.422 241.647 169.771 241.821 170.077 242.169C170.384 242.517 170.544 243.131 170.558 244.008C170.558 244.496 170.495 244.97 170.37 245.43C170.244 245.889 170.098 246.287 169.931 246.621C169.764 246.955 169.583 247.241 169.388 247.478C169.192 247.715 169.025 247.903 168.886 248.042C168.747 248.182 168.656 248.244 168.614 248.23C168.558 248.23 168.468 248.168 168.342 248.042C168.217 247.917 168.154 247.826 168.154 247.771C168.154 247.715 168.231 247.603 168.384 247.436C168.538 247.269 168.712 247.06 168.907 246.809C169.102 246.558 169.283 246.21 169.45 245.764C169.617 245.318 169.729 244.81 169.785 244.238V243.987L169.764 244.008C169.736 244.022 169.701 244.036 169.659 244.05C169.617 244.064 169.576 244.085 169.534 244.113C169.492 244.141 169.429 244.155 169.346 244.155C169.262 244.155 169.179 244.162 169.095 244.176C168.719 244.176 168.412 244.057 168.175 243.82L167.799 243.444Z" fill="#D9EBFF"/>
<path d="M175.929 238.177C175.943 238.093 175.964 237.982 175.992 237.843C176.02 237.703 176.104 237.439 176.243 237.048C176.382 236.658 176.522 236.331 176.661 236.066C176.8 235.801 177.03 235.544 177.351 235.293C177.671 235.042 177.992 234.924 178.312 234.937C178.814 234.937 179.232 235.063 179.566 235.314C179.901 235.564 180.11 235.801 180.193 236.024C180.277 236.247 180.319 236.394 180.319 236.463C180.319 236.491 180.326 236.505 180.34 236.505L180.569 236.275C181.419 235.383 182.388 234.937 183.475 234.937C184.227 234.937 184.833 235.126 185.293 235.502C185.753 235.878 185.99 236.428 186.004 237.153C186.018 237.877 185.753 238.971 185.209 240.434C184.666 241.897 184.401 242.782 184.415 243.089C184.415 243.451 184.534 243.632 184.771 243.632C184.854 243.632 184.917 243.625 184.959 243.611C185.363 243.542 185.725 243.277 186.045 242.817C186.366 242.357 186.61 241.8 186.777 241.145C186.805 241.034 186.944 240.978 187.195 240.978C187.474 240.978 187.613 241.034 187.613 241.145C187.613 241.159 187.585 241.263 187.529 241.458C187.418 241.863 187.265 242.26 187.07 242.65C186.875 243.04 186.554 243.43 186.108 243.82C185.662 244.21 185.182 244.399 184.666 244.385C184.011 244.385 183.537 244.197 183.245 243.82C182.952 243.444 182.806 243.054 182.806 242.65C182.806 242.385 183.057 241.549 183.558 240.142C184.06 238.734 184.318 237.675 184.332 236.965C184.332 236.143 184.025 235.732 183.412 235.732H183.307C182.109 235.732 181.099 236.435 180.277 237.843L180.131 238.093L179.441 240.894C178.981 242.72 178.716 243.702 178.647 243.841C178.465 244.217 178.166 244.406 177.748 244.406C177.567 244.406 177.42 244.364 177.309 244.28C177.197 244.197 177.121 244.113 177.079 244.029C177.037 243.946 177.023 243.876 177.037 243.82C177.037 243.639 177.302 242.504 177.831 240.413C178.361 238.323 178.64 237.188 178.667 237.007C178.681 236.937 178.688 236.777 178.688 236.526C178.688 235.982 178.521 235.711 178.187 235.711C177.657 235.711 177.218 236.407 176.87 237.801C176.786 238.08 176.745 238.226 176.745 238.24C176.717 238.323 176.584 238.365 176.348 238.365H176.055C175.971 238.282 175.929 238.219 175.929 238.177Z" fill="#D9EBFF"/>
<path d="M189.647 240.984C189.381 240.984 189.169 240.895 189.011 240.718C188.854 240.54 188.775 240.324 188.775 240.068C188.775 239.368 189.036 238.762 189.558 238.25C190.08 237.738 190.73 237.482 191.509 237.482C192.405 237.482 193.154 237.758 193.755 238.309C194.356 238.861 194.661 239.575 194.671 240.452C194.671 240.875 194.572 241.279 194.375 241.664C194.178 242.048 193.942 242.383 193.666 242.668C193.39 242.954 192.996 243.319 192.484 243.762C192.129 244.067 191.637 244.52 191.006 245.121L190.134 245.949L191.257 245.964C192.804 245.964 193.627 245.939 193.725 245.89C193.794 245.87 193.912 245.432 194.08 244.575V244.53H194.671V244.575C194.661 244.604 194.597 245.052 194.479 245.919C194.361 246.786 194.287 247.239 194.257 247.279V247.323H188.775V246.865C188.775 246.796 188.805 246.722 188.864 246.643C188.923 246.565 189.071 246.392 189.307 246.126C189.593 245.811 189.839 245.535 190.046 245.299C190.134 245.2 190.302 245.018 190.548 244.752C190.794 244.486 190.962 244.304 191.051 244.205C191.139 244.107 191.282 243.944 191.479 243.718C191.676 243.491 191.814 243.323 191.893 243.215C191.972 243.107 192.085 242.959 192.233 242.772C192.381 242.585 192.484 242.427 192.543 242.299C192.602 242.171 192.676 242.028 192.765 241.87C192.853 241.713 192.917 241.555 192.957 241.398C192.996 241.24 193.031 241.092 193.06 240.954C193.09 240.816 193.105 240.654 193.105 240.467C193.105 239.846 192.937 239.309 192.602 238.856C192.267 238.403 191.789 238.176 191.169 238.176C190.844 238.176 190.558 238.26 190.312 238.427C190.065 238.595 189.893 238.757 189.795 238.915C189.696 239.073 189.647 239.166 189.647 239.196C189.647 239.206 189.671 239.211 189.721 239.211C189.898 239.211 190.08 239.28 190.267 239.417C190.455 239.555 190.548 239.782 190.548 240.097C190.548 240.343 190.469 240.55 190.312 240.718C190.154 240.885 189.932 240.974 189.647 240.984Z" fill="#D9EBFF"/>
<path d="M199.15 243.444C199.15 243.444 199.15 243.27 199.15 242.922C199.15 242.573 199.262 242.274 199.485 242.023C199.708 241.772 200.007 241.647 200.383 241.647C200.774 241.647 201.122 241.821 201.428 242.169C201.735 242.517 201.895 243.131 201.909 244.008C201.909 244.496 201.846 244.97 201.721 245.43C201.596 245.889 201.449 246.287 201.282 246.621C201.115 246.955 200.934 247.241 200.739 247.478C200.544 247.715 200.376 247.903 200.237 248.042C200.098 248.182 200.007 248.244 199.965 248.23C199.91 248.23 199.819 248.168 199.694 248.042C199.568 247.917 199.506 247.826 199.506 247.771C199.506 247.715 199.582 247.603 199.736 247.436C199.889 247.269 200.063 247.06 200.258 246.809C200.453 246.558 200.634 246.21 200.801 245.764C200.969 245.318 201.08 244.81 201.136 244.238V243.987L201.115 244.008C201.087 244.022 201.052 244.036 201.01 244.05C200.969 244.064 200.927 244.085 200.885 244.113C200.843 244.141 200.781 244.155 200.697 244.155C200.613 244.155 200.53 244.162 200.446 244.176C200.07 244.176 199.763 244.057 199.526 243.82L199.15 243.444Z" fill="#D9EBFF"/>
<path d="M207.26 238.177C207.274 238.093 207.295 237.982 207.322 237.843C207.35 237.703 207.434 237.439 207.573 237.048C207.713 236.658 207.852 236.331 207.991 236.066C208.131 235.801 208.361 235.544 208.681 235.293C209.002 235.042 209.322 234.924 209.642 234.937C210.144 234.937 210.562 235.063 210.897 235.314C211.231 235.564 211.44 235.801 211.524 236.024C211.607 236.247 211.649 236.394 211.649 236.463C211.649 236.491 211.656 236.505 211.67 236.505L211.9 236.275C212.75 235.383 213.718 234.937 214.805 234.937C215.557 234.937 216.164 235.126 216.623 235.502C217.083 235.878 217.32 236.428 217.334 237.153C217.348 237.877 217.083 238.971 216.54 240.434C215.996 241.897 215.732 242.782 215.746 243.089C215.746 243.451 215.864 243.632 216.101 243.632C216.184 243.632 216.247 243.625 216.289 243.611C216.693 243.542 217.055 243.277 217.376 242.817C217.696 242.357 217.94 241.8 218.107 241.145C218.135 241.034 218.275 240.978 218.525 240.978C218.804 240.978 218.943 241.034 218.943 241.145C218.943 241.159 218.915 241.263 218.86 241.458C218.748 241.863 218.595 242.26 218.4 242.65C218.205 243.04 217.884 243.43 217.438 243.82C216.993 244.21 216.512 244.399 215.996 244.385C215.341 244.385 214.868 244.197 214.575 243.82C214.282 243.444 214.136 243.054 214.136 242.65C214.136 242.385 214.387 241.549 214.889 240.142C215.39 238.734 215.648 237.675 215.662 236.965C215.662 236.143 215.355 235.732 214.742 235.732H214.638C213.439 235.732 212.429 236.435 211.607 237.843L211.461 238.093L210.771 240.894C210.311 242.72 210.047 243.702 209.977 243.841C209.796 244.217 209.496 244.406 209.078 244.406C208.897 244.406 208.751 244.364 208.639 244.28C208.528 244.197 208.451 244.113 208.409 244.029C208.368 243.946 208.354 243.876 208.368 243.82C208.368 243.639 208.632 242.504 209.162 240.413C209.691 238.323 209.97 237.188 209.998 237.007C210.012 236.937 210.019 236.777 210.019 236.526C210.019 235.982 209.851 235.711 209.517 235.711C208.988 235.711 208.549 236.407 208.2 237.801C208.117 238.08 208.075 238.226 208.075 238.24C208.047 238.323 207.915 238.365 207.678 238.365H207.385C207.302 238.282 207.26 238.219 207.26 238.177Z" fill="#D9EBFF"/>
<path d="M221.243 240.481C220.977 240.481 220.77 240.398 220.622 240.23C220.475 240.063 220.396 239.846 220.386 239.58C220.386 239.038 220.622 238.555 221.095 238.132C221.568 237.708 222.14 237.496 222.809 237.496C223.154 237.496 223.371 237.501 223.46 237.511C224.189 237.629 224.745 237.891 225.129 238.294C225.514 238.698 225.711 239.137 225.72 239.61C225.72 240.122 225.553 240.619 225.218 241.102C224.883 241.585 224.42 241.934 223.829 242.151L223.785 242.181C223.785 242.191 223.829 242.205 223.918 242.225C224.006 242.245 224.149 242.289 224.346 242.358C224.543 242.427 224.73 242.53 224.908 242.668C225.716 243.19 226.119 243.88 226.119 244.737C226.119 245.515 225.814 246.195 225.203 246.776C224.593 247.358 223.819 247.648 222.883 247.648C222.095 247.648 221.415 247.436 220.844 247.013C220.273 246.589 219.987 246.052 219.987 245.402C219.987 245.126 220.076 244.905 220.253 244.737C220.43 244.57 220.652 244.481 220.918 244.471C221.194 244.471 221.42 244.56 221.598 244.737C221.775 244.914 221.864 245.136 221.864 245.402C221.864 245.51 221.849 245.609 221.819 245.698C221.79 245.786 221.755 245.865 221.716 245.934C221.677 246.003 221.622 246.062 221.553 246.111C221.484 246.161 221.425 246.2 221.376 246.23C221.327 246.259 221.278 246.279 221.228 246.289C221.179 246.299 221.14 246.313 221.11 246.333L221.051 246.348C221.553 246.791 222.164 247.013 222.883 247.013C223.425 247.013 223.834 246.752 224.11 246.23C224.277 245.904 224.361 245.407 224.361 244.737V244.442C224.361 243.506 224.046 242.88 223.415 242.565C223.268 242.506 222.967 242.471 222.514 242.461L221.893 242.447L221.849 242.417C221.829 242.388 221.819 242.309 221.819 242.181C221.819 242.003 221.859 241.915 221.938 241.915C222.213 241.915 222.499 241.89 222.795 241.841C223.13 241.792 223.435 241.585 223.711 241.22C223.987 240.856 224.125 240.304 224.125 239.565V239.447C224.125 238.885 223.952 238.496 223.607 238.28C223.391 238.142 223.159 238.073 222.913 238.073C222.598 238.073 222.307 238.127 222.041 238.235C221.775 238.344 221.588 238.457 221.48 238.575C221.371 238.693 221.317 238.752 221.317 238.752H221.361C221.391 238.762 221.43 238.772 221.48 238.782C221.529 238.792 221.578 238.817 221.627 238.856C221.677 238.895 221.736 238.93 221.805 238.959C221.874 238.989 221.923 239.043 221.952 239.122C221.982 239.201 222.021 239.275 222.071 239.344C222.12 239.413 222.135 239.511 222.115 239.639C222.115 239.856 222.046 240.048 221.908 240.215C221.77 240.383 221.548 240.472 221.243 240.481Z" fill="#D9EBFF"/>
<path d="M230.501 243.444C230.501 243.444 230.501 243.27 230.501 242.922C230.501 242.573 230.613 242.274 230.836 242.023C231.059 241.772 231.358 241.647 231.735 241.647C232.125 241.647 232.473 241.821 232.78 242.169C233.086 242.517 233.246 243.131 233.26 244.008C233.26 244.496 233.198 244.97 233.072 245.43C232.947 245.889 232.801 246.287 232.633 246.621C232.466 246.955 232.285 247.241 232.09 247.478C231.895 247.715 231.728 247.903 231.588 248.042C231.449 248.182 231.358 248.244 231.317 248.23C231.261 248.23 231.17 248.168 231.045 248.042C230.919 247.917 230.857 247.826 230.857 247.771C230.857 247.715 230.933 247.603 231.087 247.436C231.24 247.269 231.414 247.06 231.609 246.809C231.804 246.558 231.985 246.21 232.153 245.764C232.32 245.318 232.431 244.81 232.487 244.238V243.987L232.466 244.008C232.438 244.022 232.403 244.036 232.362 244.05C232.32 244.064 232.278 244.085 232.236 244.113C232.194 244.141 232.132 244.155 232.048 244.155C231.965 244.155 231.881 244.162 231.797 244.176C231.421 244.176 231.115 244.057 230.878 243.82L230.501 243.444Z" fill="#D9EBFF"/>
<path d="M238.611 238.177C238.625 238.093 238.646 237.982 238.674 237.843C238.702 237.703 238.785 237.439 238.924 237.048C239.064 236.658 239.203 236.331 239.343 236.066C239.482 235.801 239.712 235.544 240.032 235.293C240.353 235.042 240.673 234.924 240.994 234.937C241.495 234.937 241.913 235.063 242.248 235.314C242.582 235.564 242.791 235.801 242.875 236.024C242.958 236.247 243 236.394 243 236.463C243 236.491 243.007 236.505 243.021 236.505L243.251 236.275C244.101 235.383 245.069 234.937 246.156 234.937C246.909 234.937 247.515 235.126 247.975 235.502C248.434 235.878 248.671 236.428 248.685 237.153C248.699 237.877 248.434 238.971 247.891 240.434C247.348 241.897 247.083 242.782 247.097 243.089C247.097 243.451 247.215 243.632 247.452 243.632C247.536 243.632 247.598 243.625 247.64 243.611C248.044 243.542 248.406 243.277 248.727 242.817C249.047 242.357 249.291 241.8 249.459 241.145C249.486 241.034 249.626 240.978 249.877 240.978C250.155 240.978 250.295 241.034 250.295 241.145C250.295 241.159 250.267 241.263 250.211 241.458C250.099 241.863 249.946 242.26 249.751 242.65C249.556 243.04 249.236 243.43 248.79 243.82C248.344 244.21 247.863 244.399 247.348 244.385C246.693 244.385 246.219 244.197 245.926 243.82C245.634 243.444 245.487 243.054 245.487 242.65C245.487 242.385 245.738 241.549 246.24 240.142C246.741 238.734 246.999 237.675 247.013 236.965C247.013 236.143 246.707 235.732 246.093 235.732H245.989C244.791 235.732 243.78 236.435 242.958 237.843L242.812 238.093L242.122 240.894C241.663 242.72 241.398 243.702 241.328 243.841C241.147 244.217 240.847 244.406 240.429 244.406C240.248 244.406 240.102 244.364 239.99 244.28C239.879 244.197 239.802 244.113 239.761 244.029C239.719 243.946 239.705 243.876 239.719 243.82C239.719 243.639 239.983 242.504 240.513 240.413C241.042 238.323 241.321 237.188 241.349 237.007C241.363 236.937 241.37 236.777 241.37 236.526C241.37 235.982 241.203 235.711 240.868 235.711C240.339 235.711 239.9 236.407 239.552 237.801C239.468 238.08 239.426 238.226 239.426 238.24C239.398 238.323 239.266 238.365 239.029 238.365H238.736C238.653 238.282 238.611 238.219 238.611 238.177Z" fill="#D9EBFF"/>
<path d="M252.136 238.679C252.688 237.881 253.441 237.482 254.397 237.482C254.87 237.482 255.343 237.61 255.816 237.866C256.289 238.122 256.673 238.575 256.968 239.225C257.333 240.043 257.515 241.166 257.515 242.594C257.515 244.121 257.303 245.289 256.88 246.097C256.683 246.51 256.412 246.84 256.067 247.087C255.722 247.333 255.422 247.486 255.165 247.545C254.909 247.604 254.658 247.638 254.412 247.648C254.156 247.648 253.9 247.619 253.643 247.56C253.387 247.5 253.087 247.343 252.742 247.087C252.397 246.831 252.126 246.5 251.929 246.097C251.506 245.289 251.294 244.121 251.294 242.594C251.294 240.88 251.575 239.575 252.136 238.679ZM255.461 238.501C255.165 238.186 254.816 238.028 254.412 238.028C253.998 238.028 253.643 238.186 253.348 238.501C253.102 238.757 252.939 239.112 252.86 239.565C252.781 240.018 252.742 240.964 252.742 242.402C252.742 243.959 252.781 244.983 252.86 245.476C252.939 245.969 253.116 246.358 253.392 246.643C253.668 246.939 254.008 247.087 254.412 247.087C254.806 247.087 255.141 246.939 255.417 246.643C255.702 246.348 255.88 245.934 255.949 245.402C256.018 244.87 256.057 243.87 256.067 242.402C256.067 240.974 256.027 240.033 255.949 239.58C255.87 239.127 255.707 238.767 255.461 238.501Z" fill="#D9EBFF"/>
<path d="M261.456 228.521L261.539 228.5C261.609 228.5 261.679 228.5 261.748 228.5H261.999L262.584 229.002C263.894 230.186 264.848 231.663 265.448 233.433C266.047 235.202 266.346 237.041 266.346 238.95C266.346 239.898 266.277 240.811 266.137 241.688C265.998 242.566 265.838 243.312 265.657 243.925C265.475 244.538 265.218 245.151 264.883 245.764C264.549 246.377 264.284 246.844 264.089 247.164C263.894 247.485 263.608 247.84 263.232 248.23C262.856 248.621 262.633 248.85 262.563 248.92C262.494 248.99 262.333 249.122 262.083 249.317C262.041 249.359 262.013 249.387 261.999 249.401H261.748C261.637 249.401 261.56 249.401 261.518 249.401C261.476 249.401 261.442 249.38 261.414 249.338C261.386 249.296 261.365 249.234 261.351 249.15C261.365 249.136 261.442 249.045 261.581 248.878C263.741 246.635 264.821 243.326 264.821 238.95C264.821 234.575 263.741 231.266 261.581 229.023C261.442 228.855 261.365 228.765 261.351 228.751C261.351 228.639 261.386 228.563 261.456 228.521Z" fill="#D9EBFF"/>
<path d="M333 238.95C333 237.989 333.07 237.076 333.209 236.212C333.348 235.348 333.509 234.603 333.69 233.976C333.871 233.349 334.129 232.736 334.463 232.137C334.797 231.538 335.062 231.071 335.257 230.736C335.452 230.402 335.745 230.04 336.135 229.65C336.525 229.259 336.755 229.023 336.825 228.939C336.895 228.855 337.069 228.709 337.347 228.5H337.703C337.898 228.5 337.995 228.563 337.995 228.688C337.995 228.73 337.877 228.876 337.64 229.127C337.403 229.378 337.117 229.747 336.783 230.235C336.449 230.722 336.107 231.322 335.759 232.032C335.411 232.743 335.118 233.704 334.881 234.917C334.644 236.129 334.526 237.473 334.526 238.95C334.526 240.427 334.644 241.765 334.881 242.963C335.118 244.162 335.404 245.13 335.738 245.869C336.072 246.607 336.414 247.206 336.762 247.666C337.11 248.126 337.403 248.495 337.64 248.774C337.877 249.052 337.995 249.199 337.995 249.213C337.995 249.338 337.891 249.401 337.682 249.401H337.347L336.762 248.899C335.452 247.715 334.498 246.238 333.899 244.468C333.3 242.699 333 240.859 333 238.95Z" fill="#D9EBFF"/>
<path d="M339.605 238.177C339.619 238.093 339.639 237.982 339.667 237.843C339.695 237.703 339.779 237.439 339.918 237.048C340.058 236.658 340.197 236.331 340.336 236.066C340.476 235.801 340.705 235.544 341.026 235.293C341.346 235.042 341.667 234.924 341.987 234.937C342.489 234.937 342.907 235.063 343.241 235.314C343.576 235.564 343.785 235.801 343.868 236.024C343.952 236.247 343.994 236.394 343.994 236.463C343.994 236.491 344.001 236.505 344.015 236.505L344.245 236.275C345.095 235.383 346.063 234.937 347.15 234.937C347.902 234.937 348.508 235.126 348.968 235.502C349.428 235.878 349.665 236.428 349.679 237.153C349.693 237.877 349.428 238.971 348.885 240.434C348.341 241.897 348.076 242.782 348.09 243.089C348.09 243.451 348.209 243.632 348.446 243.632C348.529 243.632 348.592 243.625 348.634 243.611C349.038 243.542 349.4 243.277 349.721 242.817C350.041 242.357 350.285 241.8 350.452 241.145C350.48 241.034 350.619 240.978 350.87 240.978C351.149 240.978 351.288 241.034 351.288 241.145C351.288 241.159 351.26 241.263 351.205 241.458C351.093 241.863 350.94 242.26 350.745 242.65C350.55 243.04 350.229 243.43 349.783 243.82C349.337 244.21 348.857 244.399 348.341 244.385C347.686 244.385 347.213 244.197 346.92 243.82C346.627 243.444 346.481 243.054 346.481 242.65C346.481 242.385 346.732 241.549 347.233 240.142C347.735 238.734 347.993 237.675 348.007 236.965C348.007 236.143 347.7 235.732 347.087 235.732H346.983C345.784 235.732 344.774 236.435 343.952 237.843L343.806 238.093L343.116 240.894C342.656 242.72 342.391 243.702 342.322 243.841C342.141 244.217 341.841 244.406 341.423 244.406C341.242 244.406 341.096 244.364 340.984 244.28C340.873 244.197 340.796 244.113 340.754 244.029C340.712 243.946 340.698 243.876 340.712 243.82C340.712 243.639 340.977 242.504 341.507 240.413C342.036 238.323 342.315 237.188 342.343 237.007C342.357 236.937 342.364 236.777 342.364 236.526C342.364 235.982 342.196 235.711 341.862 235.711C341.332 235.711 340.894 236.407 340.545 237.801C340.462 238.08 340.42 238.226 340.42 238.24C340.392 238.323 340.26 238.365 340.023 238.365H339.73C339.646 238.282 339.605 238.219 339.605 238.177Z" fill="#D9EBFF"/>
<path d="M354.859 238.782L354.667 238.856C354.529 238.905 354.332 238.954 354.076 239.004C353.819 239.053 353.534 239.087 353.219 239.107H352.938V238.427H353.219C353.682 238.408 354.11 238.334 354.504 238.206C354.898 238.078 355.174 237.959 355.332 237.851C355.489 237.743 355.627 237.634 355.745 237.526C355.765 237.496 355.824 237.482 355.923 237.482C356.011 237.482 356.095 237.511 356.174 237.57V241.989L356.189 246.422C356.258 246.491 356.317 246.535 356.366 246.555C356.415 246.574 356.533 246.594 356.721 246.614C356.908 246.633 357.213 246.643 357.637 246.643H358.021V247.323H357.858C357.652 247.294 356.868 247.279 355.509 247.279C354.169 247.279 353.396 247.294 353.189 247.323H353.012V246.643H353.396C353.613 246.643 353.8 246.643 353.957 246.643C354.115 246.643 354.238 246.638 354.327 246.629C354.415 246.619 354.494 246.604 354.563 246.584C354.632 246.565 354.672 246.555 354.681 246.555C354.691 246.555 354.721 246.53 354.77 246.481C354.819 246.432 354.849 246.412 354.859 246.422V238.782Z" fill="#D9EBFF"/>
<path d="M362.825 243.444C362.825 243.444 362.825 243.27 362.825 242.922C362.825 242.573 362.937 242.274 363.16 242.023C363.383 241.772 363.682 241.647 364.059 241.647C364.449 241.647 364.797 241.821 365.104 242.169C365.41 242.517 365.57 243.131 365.584 244.008C365.584 244.496 365.522 244.97 365.396 245.43C365.271 245.889 365.125 246.287 364.957 246.621C364.79 246.955 364.609 247.241 364.414 247.478C364.219 247.715 364.052 247.903 363.912 248.042C363.773 248.182 363.682 248.244 363.641 248.23C363.585 248.23 363.494 248.168 363.369 248.042C363.243 247.917 363.181 247.826 363.181 247.771C363.181 247.715 363.257 247.603 363.411 247.436C363.564 247.269 363.738 247.06 363.933 246.809C364.128 246.558 364.309 246.21 364.477 245.764C364.644 245.318 364.755 244.81 364.811 244.238V243.987L364.79 244.008C364.762 244.022 364.727 244.036 364.686 244.05C364.644 244.064 364.602 244.085 364.56 244.113C364.518 244.141 364.456 244.155 364.372 244.155C364.288 244.155 364.205 244.162 364.121 244.176C363.745 244.176 363.439 244.057 363.202 243.82L362.825 243.444Z" fill="#D9EBFF"/>
<path d="M370.956 238.177C370.97 238.093 370.991 237.982 371.019 237.843C371.046 237.703 371.13 237.439 371.269 237.048C371.409 236.658 371.548 236.331 371.687 236.066C371.827 235.801 372.057 235.544 372.377 235.293C372.698 235.042 373.018 234.924 373.339 234.937C373.84 234.937 374.258 235.063 374.593 235.314C374.927 235.564 375.136 235.801 375.22 236.024C375.303 236.247 375.345 236.394 375.345 236.463C375.345 236.491 375.352 236.505 375.366 236.505L375.596 236.275C376.446 235.383 377.414 234.937 378.501 234.937C379.253 234.937 379.86 235.126 380.319 235.502C380.779 235.878 381.016 236.428 381.03 237.153C381.044 237.877 380.779 238.971 380.236 240.434C379.692 241.897 379.428 242.782 379.442 243.089C379.442 243.451 379.56 243.632 379.797 243.632C379.88 243.632 379.943 243.625 379.985 243.611C380.389 243.542 380.751 243.277 381.072 242.817C381.392 242.357 381.636 241.8 381.803 241.145C381.831 241.034 381.971 240.978 382.221 240.978C382.5 240.978 382.639 241.034 382.639 241.145C382.639 241.159 382.612 241.263 382.556 241.458C382.444 241.863 382.291 242.26 382.096 242.65C381.901 243.04 381.58 243.43 381.135 243.82C380.689 244.21 380.208 244.399 379.692 244.385C379.037 244.385 378.564 244.197 378.271 243.82C377.979 243.444 377.832 243.054 377.832 242.65C377.832 242.385 378.083 241.549 378.585 240.142C379.086 238.734 379.344 237.675 379.358 236.965C379.358 236.143 379.051 235.732 378.438 235.732H378.334C377.136 235.732 376.125 236.435 375.303 237.843L375.157 238.093L374.467 240.894C374.007 242.72 373.743 243.702 373.673 243.841C373.492 244.217 373.192 244.406 372.774 244.406C372.593 244.406 372.447 244.364 372.335 244.28C372.224 244.197 372.147 244.113 372.105 244.029C372.064 243.946 372.05 243.876 372.064 243.82C372.064 243.639 372.328 242.504 372.858 240.413C373.387 238.323 373.666 237.188 373.694 237.007C373.708 236.937 373.715 236.777 373.715 236.526C373.715 235.982 373.548 235.711 373.213 235.711C372.684 235.711 372.245 236.407 371.896 237.801C371.813 238.08 371.771 238.226 371.771 238.24C371.743 238.323 371.611 238.365 371.374 238.365H371.081C370.998 238.282 370.956 238.219 370.956 238.177Z" fill="#D9EBFF"/>
<path d="M384.673 240.984C384.407 240.984 384.195 240.895 384.038 240.718C383.88 240.54 383.801 240.324 383.801 240.068C383.801 239.368 384.062 238.762 384.585 238.25C385.107 237.738 385.757 237.482 386.535 237.482C387.432 237.482 388.18 237.758 388.781 238.309C389.382 238.861 389.687 239.575 389.697 240.452C389.697 240.875 389.599 241.279 389.402 241.664C389.205 242.048 388.968 242.383 388.692 242.668C388.417 242.954 388.023 243.319 387.51 243.762C387.156 244.067 386.663 244.52 386.033 245.121L385.161 245.949L386.284 245.964C387.83 245.964 388.653 245.939 388.752 245.89C388.821 245.87 388.939 245.432 389.106 244.575V244.53H389.697V244.575C389.687 244.604 389.623 245.052 389.505 245.919C389.387 246.786 389.313 247.239 389.284 247.279V247.323H383.801V246.865C383.801 246.796 383.831 246.722 383.89 246.643C383.949 246.565 384.097 246.392 384.333 246.126C384.619 245.811 384.865 245.535 385.072 245.299C385.161 245.2 385.328 245.018 385.575 244.752C385.821 244.486 385.988 244.304 386.077 244.205C386.166 244.107 386.308 243.944 386.506 243.718C386.703 243.491 386.84 243.323 386.919 243.215C386.998 243.107 387.111 242.959 387.259 242.772C387.407 242.585 387.51 242.427 387.569 242.299C387.629 242.171 387.702 242.028 387.791 241.87C387.88 241.713 387.944 241.555 387.983 241.398C388.023 241.24 388.057 241.092 388.087 240.954C388.116 240.816 388.131 240.654 388.131 240.467C388.131 239.846 387.963 239.309 387.629 238.856C387.294 238.403 386.816 238.176 386.195 238.176C385.87 238.176 385.584 238.26 385.338 238.427C385.092 238.595 384.919 238.757 384.821 238.915C384.722 239.073 384.673 239.166 384.673 239.196C384.673 239.206 384.698 239.211 384.747 239.211C384.924 239.211 385.107 239.28 385.294 239.417C385.481 239.555 385.575 239.782 385.575 240.097C385.575 240.343 385.496 240.55 385.338 240.718C385.181 240.885 384.959 240.974 384.673 240.984Z" fill="#D9EBFF"/>
<path d="M394.177 243.444C394.177 243.444 394.177 243.27 394.177 242.922C394.177 242.573 394.288 242.274 394.511 242.023C394.734 241.772 395.034 241.647 395.41 241.647C395.8 241.647 396.148 241.821 396.455 242.169C396.761 242.517 396.922 243.131 396.936 244.008C396.936 244.496 396.873 244.97 396.747 245.43C396.622 245.889 396.476 246.287 396.309 246.621C396.141 246.955 395.96 247.241 395.765 247.478C395.57 247.715 395.403 247.903 395.263 248.042C395.124 248.182 395.034 248.244 394.992 248.23C394.936 248.23 394.845 248.168 394.72 248.042C394.595 247.917 394.532 247.826 394.532 247.771C394.532 247.715 394.609 247.603 394.762 247.436C394.915 247.269 395.089 247.06 395.284 246.809C395.479 246.558 395.661 246.21 395.828 245.764C395.995 245.318 396.106 244.81 396.162 244.238V243.987L396.141 244.008C396.113 244.022 396.079 244.036 396.037 244.05C395.995 244.064 395.953 244.085 395.911 244.113C395.87 244.141 395.807 244.155 395.723 244.155C395.64 244.155 395.556 244.162 395.472 244.176C395.096 244.176 394.79 244.057 394.553 243.82L394.177 243.444Z" fill="#D9EBFF"/>
<path d="M402.286 238.177C402.3 238.093 402.321 237.982 402.349 237.843C402.377 237.703 402.46 237.439 402.6 237.048C402.739 236.658 402.878 236.331 403.018 236.066C403.157 235.801 403.387 235.544 403.707 235.293C404.028 235.042 404.348 234.924 404.669 234.937C405.17 234.937 405.588 235.063 405.923 235.314C406.257 235.564 406.466 235.801 406.55 236.024C406.634 236.247 406.675 236.394 406.675 236.463C406.675 236.491 406.682 236.505 406.696 236.505L406.926 236.275C407.776 235.383 408.745 234.937 409.831 234.937C410.584 234.937 411.19 235.126 411.65 235.502C412.11 235.878 412.346 236.428 412.36 237.153C412.374 237.877 412.11 238.971 411.566 240.434C411.023 241.897 410.758 242.782 410.772 243.089C410.772 243.451 410.89 243.632 411.127 243.632C411.211 243.632 411.273 243.625 411.315 243.611C411.719 243.542 412.082 243.277 412.402 242.817C412.723 242.357 412.966 241.8 413.134 241.145C413.162 241.034 413.301 240.978 413.552 240.978C413.83 240.978 413.97 241.034 413.97 241.145C413.97 241.159 413.942 241.263 413.886 241.458C413.775 241.863 413.621 242.26 413.426 242.65C413.231 243.04 412.911 243.43 412.465 243.82C412.019 244.21 411.538 244.399 411.023 244.385C410.368 244.385 409.894 244.197 409.601 243.82C409.309 243.444 409.163 243.054 409.163 242.65C409.163 242.385 409.413 241.549 409.915 240.142C410.417 238.734 410.674 237.675 410.688 236.965C410.688 236.143 410.382 235.732 409.769 235.732H409.664C408.466 235.732 407.456 236.435 406.634 237.843L406.487 238.093L405.797 240.894C405.338 242.72 405.073 243.702 405.003 243.841C404.822 244.217 404.523 244.406 404.105 244.406C403.923 244.406 403.777 244.364 403.666 244.28C403.554 244.197 403.478 244.113 403.436 244.029C403.394 243.946 403.38 243.876 403.394 243.82C403.394 243.639 403.659 242.504 404.188 240.413C404.718 238.323 404.996 237.188 405.024 237.007C405.038 236.937 405.045 236.777 405.045 236.526C405.045 235.982 404.878 235.711 404.543 235.711C404.014 235.711 403.575 236.407 403.227 237.801C403.143 238.08 403.101 238.226 403.101 238.24C403.073 238.323 402.941 238.365 402.704 238.365H402.412C402.328 238.282 402.286 238.219 402.286 238.177Z" fill="#D9EBFF"/>
<path d="M416.269 240.481C416.003 240.481 415.797 240.398 415.649 240.23C415.501 240.063 415.422 239.846 415.412 239.58C415.412 239.038 415.649 238.555 416.122 238.132C416.595 237.708 417.166 237.496 417.836 237.496C418.181 237.496 418.397 237.501 418.486 237.511C419.215 237.629 419.772 237.891 420.156 238.294C420.54 238.698 420.737 239.137 420.747 239.61C420.747 240.122 420.579 240.619 420.244 241.102C419.909 241.585 419.446 241.934 418.855 242.151L418.811 242.181C418.811 242.191 418.855 242.205 418.944 242.225C419.033 242.245 419.176 242.289 419.373 242.358C419.57 242.427 419.757 242.53 419.934 242.668C420.742 243.19 421.146 243.88 421.146 244.737C421.146 245.515 420.84 246.195 420.23 246.776C419.619 247.358 418.846 247.648 417.91 247.648C417.122 247.648 416.442 247.436 415.87 247.013C415.299 246.589 415.013 246.052 415.013 245.402C415.013 245.126 415.102 244.905 415.279 244.737C415.457 244.57 415.678 244.481 415.944 244.471C416.22 244.471 416.447 244.56 416.624 244.737C416.801 244.914 416.89 245.136 416.89 245.402C416.89 245.51 416.875 245.609 416.846 245.698C416.816 245.786 416.782 245.865 416.742 245.934C416.703 246.003 416.649 246.062 416.58 246.111C416.511 246.161 416.452 246.2 416.402 246.23C416.353 246.259 416.304 246.279 416.255 246.289C416.205 246.299 416.166 246.313 416.136 246.333L416.077 246.348C416.58 246.791 417.191 247.013 417.91 247.013C418.452 247.013 418.86 246.752 419.136 246.23C419.304 245.904 419.387 245.407 419.387 244.737V244.442C419.387 243.506 419.072 242.88 418.442 242.565C418.294 242.506 417.993 242.471 417.54 242.461L416.92 242.447L416.875 242.417C416.856 242.388 416.846 242.309 416.846 242.181C416.846 242.003 416.885 241.915 416.964 241.915C417.24 241.915 417.525 241.89 417.821 241.841C418.156 241.792 418.461 241.585 418.737 241.22C419.013 240.856 419.151 240.304 419.151 239.565V239.447C419.151 238.885 418.979 238.496 418.634 238.28C418.417 238.142 418.186 238.073 417.939 238.073C417.624 238.073 417.333 238.127 417.067 238.235C416.801 238.344 416.614 238.457 416.506 238.575C416.398 238.693 416.343 238.752 416.343 238.752H416.388C416.417 238.762 416.457 238.772 416.506 238.782C416.555 238.792 416.604 238.817 416.654 238.856C416.703 238.895 416.762 238.93 416.831 238.959C416.9 238.989 416.949 239.043 416.979 239.122C417.008 239.201 417.048 239.275 417.097 239.344C417.146 239.413 417.161 239.511 417.141 239.639C417.141 239.856 417.072 240.048 416.934 240.215C416.797 240.383 416.575 240.472 416.269 240.481Z" fill="#D9EBFF"/>
<path d="M425.528 243.444C425.528 243.444 425.528 243.27 425.528 242.922C425.528 242.573 425.639 242.274 425.862 242.023C426.085 241.772 426.385 241.647 426.761 241.647C427.151 241.647 427.499 241.821 427.806 242.169C428.113 242.517 428.273 243.131 428.287 244.008C428.287 244.496 428.224 244.97 428.099 245.43C427.973 245.889 427.827 246.287 427.66 246.621C427.493 246.955 427.311 247.241 427.116 247.478C426.921 247.715 426.754 247.903 426.615 248.042C426.475 248.182 426.385 248.244 426.343 248.23C426.287 248.23 426.197 248.168 426.071 248.042C425.946 247.917 425.883 247.826 425.883 247.771C425.883 247.715 425.96 247.603 426.113 247.436C426.266 247.269 426.441 247.06 426.636 246.809C426.831 246.558 427.012 246.21 427.179 245.764C427.346 245.318 427.458 244.81 427.513 244.238V243.987L427.493 244.008C427.465 244.022 427.43 244.036 427.388 244.05C427.346 244.064 427.304 244.085 427.263 244.113C427.221 244.141 427.158 244.155 427.075 244.155C426.991 244.155 426.907 244.162 426.824 244.176C426.447 244.176 426.141 244.057 425.904 243.82L425.528 243.444Z" fill="#D9EBFF"/>
<path d="M433.637 238.177C433.651 238.093 433.672 237.982 433.7 237.843C433.728 237.703 433.812 237.439 433.951 237.048C434.09 236.658 434.23 236.331 434.369 236.066C434.508 235.801 434.738 235.544 435.059 235.293C435.379 235.042 435.7 234.924 436.02 234.937C436.522 234.937 436.94 235.063 437.274 235.314C437.609 235.564 437.818 235.801 437.901 236.024C437.985 236.247 438.027 236.394 438.027 236.463C438.027 236.491 438.033 236.505 438.047 236.505L438.277 236.275C439.127 235.383 440.096 234.937 441.183 234.937C441.935 234.937 442.541 235.126 443.001 235.502C443.461 235.878 443.698 236.428 443.712 237.153C443.725 237.877 443.461 238.971 442.917 240.434C442.374 241.897 442.109 242.782 442.123 243.089C442.123 243.451 442.242 243.632 442.478 243.632C442.562 243.632 442.625 243.625 442.667 243.611C443.071 243.542 443.433 243.277 443.753 242.817C444.074 242.357 444.318 241.8 444.485 241.145C444.513 241.034 444.652 240.978 444.903 240.978C445.182 240.978 445.321 241.034 445.321 241.145C445.321 241.159 445.293 241.263 445.237 241.458C445.126 241.863 444.973 242.26 444.777 242.65C444.582 243.04 444.262 243.43 443.816 243.82C443.37 244.21 442.889 244.399 442.374 244.385C441.719 244.385 441.245 244.197 440.953 243.82C440.66 243.444 440.514 243.054 440.514 242.65C440.514 242.385 440.765 241.549 441.266 240.142C441.768 238.734 442.026 237.675 442.039 236.965C442.039 236.143 441.733 235.732 441.12 235.732H441.015C439.817 235.732 438.807 236.435 437.985 237.843L437.838 238.093L437.149 240.894C436.689 242.72 436.424 243.702 436.354 243.841C436.173 244.217 435.874 244.406 435.456 244.406C435.275 244.406 435.128 244.364 435.017 244.28C434.905 244.197 434.829 244.113 434.787 244.029C434.745 243.946 434.731 243.876 434.745 243.82C434.745 243.639 435.01 242.504 435.539 240.413C436.069 238.323 436.347 237.188 436.375 237.007C436.389 236.937 436.396 236.777 436.396 236.526C436.396 235.982 436.229 235.711 435.895 235.711C435.365 235.711 434.926 236.407 434.578 237.801C434.494 238.08 434.452 238.226 434.452 238.24C434.425 238.323 434.292 238.365 434.055 238.365H433.763C433.679 238.282 433.637 238.219 433.637 238.177Z" fill="#D9EBFF"/>
<path d="M447.163 238.679C447.714 237.881 448.468 237.482 449.423 237.482C449.896 237.482 450.369 237.61 450.842 237.866C451.315 238.122 451.699 238.575 451.995 239.225C452.359 240.043 452.541 241.166 452.541 242.594C452.541 244.121 452.33 245.289 451.906 246.097C451.709 246.51 451.438 246.84 451.093 247.087C450.748 247.333 450.448 247.486 450.192 247.545C449.936 247.604 449.684 247.638 449.438 247.648C449.182 247.648 448.926 247.619 448.67 247.56C448.414 247.5 448.113 247.343 447.768 247.087C447.424 246.831 447.153 246.5 446.956 246.097C446.532 245.289 446.32 244.121 446.32 242.594C446.32 240.88 446.601 239.575 447.163 238.679ZM450.487 238.501C450.192 238.186 449.842 238.028 449.438 238.028C449.024 238.028 448.67 238.186 448.374 238.501C448.128 238.757 447.965 239.112 447.887 239.565C447.808 240.018 447.768 240.964 447.768 242.402C447.768 243.959 447.808 244.983 447.887 245.476C447.965 245.969 448.143 246.358 448.419 246.643C448.694 246.939 449.034 247.087 449.438 247.087C449.832 247.087 450.167 246.939 450.443 246.643C450.729 246.348 450.906 245.934 450.975 245.402C451.044 244.87 451.083 243.87 451.093 242.402C451.093 240.974 451.054 240.033 450.975 239.58C450.896 239.127 450.734 238.767 450.487 238.501Z" fill="#D9EBFF"/>
<path d="M456.482 228.521L456.566 228.5C456.635 228.5 456.705 228.5 456.775 228.5H457.025L457.611 229.002C458.92 230.186 459.875 231.663 460.474 233.433C461.073 235.202 461.373 237.041 461.373 238.95C461.373 239.898 461.303 240.811 461.164 241.688C461.024 242.566 460.864 243.312 460.683 243.925C460.502 244.538 460.244 245.151 459.91 245.764C459.575 246.377 459.311 246.844 459.115 247.164C458.92 247.485 458.635 247.84 458.258 248.23C457.882 248.621 457.659 248.85 457.59 248.92C457.52 248.99 457.36 249.122 457.109 249.317C457.067 249.359 457.039 249.387 457.025 249.401H456.775C456.663 249.401 456.586 249.401 456.545 249.401C456.503 249.401 456.468 249.38 456.44 249.338C456.412 249.296 456.391 249.234 456.377 249.15C456.391 249.136 456.468 249.045 456.607 248.878C458.767 246.635 459.847 243.326 459.847 238.95C459.847 234.575 458.767 231.266 456.607 229.023C456.468 228.855 456.391 228.765 456.377 228.751C456.377 228.639 456.412 228.563 456.482 228.521Z" fill="#D9EBFF"/>
<path d="M465.009 243.444C465.009 243.444 465.009 243.27 465.009 242.922C465.009 242.573 465.121 242.274 465.344 242.023C465.567 241.772 465.866 241.647 466.243 241.647C466.633 241.647 466.981 241.821 467.288 242.169C467.594 242.517 467.754 243.131 467.768 244.008C467.768 244.496 467.706 244.97 467.58 245.43C467.455 245.889 467.309 246.287 467.141 246.621C466.974 246.955 466.793 247.241 466.598 247.478C466.403 247.715 466.236 247.903 466.096 248.042C465.957 248.182 465.866 248.244 465.825 248.23C465.769 248.23 465.678 248.168 465.553 248.042C465.427 247.917 465.365 247.826 465.365 247.771C465.365 247.715 465.441 247.603 465.595 247.436C465.748 247.269 465.922 247.06 466.117 246.809C466.312 246.558 466.493 246.21 466.661 245.764C466.828 245.318 466.939 244.81 466.995 244.238V243.987L466.974 244.008C466.946 244.022 466.911 244.036 466.87 244.05C466.828 244.064 466.786 244.085 466.744 244.113C466.702 244.141 466.64 244.155 466.556 244.155C466.473 244.155 466.389 244.162 466.305 244.176C465.929 244.176 465.623 244.057 465.386 243.82L465.009 243.444Z" fill="#D9EBFF"/>
<path d="M474.645 238.95C474.645 237.989 474.714 237.076 474.854 236.212C474.993 235.348 475.153 234.603 475.334 233.976C475.516 233.349 475.773 232.736 476.108 232.137C476.442 231.538 476.707 231.071 476.902 230.736C477.097 230.402 477.39 230.04 477.78 229.65C478.17 229.259 478.4 229.023 478.47 228.939C478.539 228.855 478.713 228.709 478.992 228.5H479.347C479.542 228.5 479.64 228.563 479.64 228.688C479.64 228.73 479.522 228.876 479.285 229.127C479.048 229.378 478.762 229.747 478.428 230.235C478.093 230.722 477.752 231.322 477.404 232.032C477.055 232.743 476.763 233.704 476.526 234.917C476.289 236.129 476.17 237.473 476.17 238.95C476.17 240.427 476.289 241.765 476.526 242.963C476.763 244.162 477.048 245.13 477.383 245.869C477.717 246.607 478.059 247.206 478.407 247.666C478.755 248.126 479.048 248.495 479.285 248.774C479.522 249.052 479.64 249.199 479.64 249.213C479.64 249.338 479.536 249.401 479.327 249.401H478.992L478.407 248.899C477.097 247.715 476.143 246.238 475.543 244.468C474.944 242.699 474.645 240.859 474.645 238.95Z" fill="#D9EBFF"/>
<path d="M481.249 238.177C481.263 238.093 481.284 237.982 481.312 237.843C481.34 237.703 481.424 237.439 481.563 237.048C481.702 236.658 481.842 236.331 481.981 236.066C482.12 235.801 482.35 235.544 482.671 235.293C482.991 235.042 483.312 234.924 483.632 234.937C484.134 234.937 484.552 235.063 484.886 235.314C485.221 235.564 485.43 235.801 485.513 236.024C485.597 236.247 485.639 236.394 485.639 236.463C485.639 236.491 485.646 236.505 485.659 236.505L485.889 236.275C486.739 235.383 487.708 234.937 488.795 234.937C489.547 234.937 490.153 235.126 490.613 235.502C491.073 235.878 491.31 236.428 491.324 237.153C491.338 237.877 491.073 238.971 490.529 240.434C489.986 241.897 489.721 242.782 489.735 243.089C489.735 243.451 489.854 243.632 490.09 243.632C490.174 243.632 490.237 243.625 490.279 243.611C490.683 243.542 491.045 243.277 491.365 242.817C491.686 242.357 491.93 241.8 492.097 241.145C492.125 241.034 492.264 240.978 492.515 240.978C492.794 240.978 492.933 241.034 492.933 241.145C492.933 241.159 492.905 241.263 492.849 241.458C492.738 241.863 492.585 242.26 492.39 242.65C492.194 243.04 491.874 243.43 491.428 243.82C490.982 244.21 490.501 244.399 489.986 244.385C489.331 244.385 488.857 244.197 488.565 243.82C488.272 243.444 488.126 243.054 488.126 242.65C488.126 242.385 488.377 241.549 488.878 240.142C489.38 238.734 489.638 237.675 489.652 236.965C489.652 236.143 489.345 235.732 488.732 235.732H488.627C487.429 235.732 486.419 236.435 485.597 237.843L485.45 238.093L484.761 240.894C484.301 242.72 484.036 243.702 483.966 243.841C483.785 244.217 483.486 244.406 483.068 244.406C482.887 244.406 482.74 244.364 482.629 244.28C482.517 244.197 482.441 244.113 482.399 244.029C482.357 243.946 482.343 243.876 482.357 243.82C482.357 243.639 482.622 242.504 483.151 240.413C483.681 238.323 483.96 237.188 483.987 237.007C484.001 236.937 484.008 236.777 484.008 236.526C484.008 235.982 483.841 235.711 483.507 235.711C482.977 235.711 482.538 236.407 482.19 237.801C482.106 238.08 482.065 238.226 482.065 238.24C482.037 238.323 481.904 238.365 481.667 238.365H481.375C481.291 238.282 481.249 238.219 481.249 238.177Z" fill="#D9EBFF"/>
<path d="M493.977 242.698C493.977 241.092 494.376 239.821 495.174 238.885C495.972 237.95 496.858 237.482 497.833 237.482C498.513 237.482 499.001 237.659 499.296 238.014C499.592 238.368 499.74 238.762 499.74 239.196C499.74 239.442 499.671 239.639 499.533 239.787C499.395 239.935 499.203 240.009 498.956 240.009C498.73 240.009 498.543 239.94 498.395 239.802C498.247 239.664 498.173 239.472 498.173 239.225C498.173 238.792 498.405 238.531 498.868 238.442C498.651 238.225 498.346 238.102 497.952 238.073C497.252 238.073 496.676 238.368 496.223 238.959C495.76 239.61 495.528 240.605 495.528 241.944L495.543 242.003C495.592 241.944 495.632 241.88 495.661 241.811C496.065 241.22 496.592 240.925 497.242 240.925H497.301C497.755 240.925 498.154 241.018 498.498 241.205C498.735 241.343 498.971 241.54 499.208 241.797C499.444 242.053 499.636 242.333 499.784 242.639C499.991 243.122 500.094 243.649 500.094 244.22V244.486C500.094 244.712 500.07 244.924 500.02 245.121C499.912 245.703 499.597 246.269 499.075 246.821C498.553 247.372 497.893 247.648 497.095 247.648C496.819 247.648 496.553 247.609 496.297 247.53C496.04 247.451 495.765 247.303 495.469 247.087C495.174 246.87 494.922 246.579 494.715 246.215C494.509 245.85 494.331 245.373 494.184 244.781C494.036 244.19 493.967 243.496 493.977 242.698ZM497.154 241.457C496.858 241.457 496.602 241.54 496.385 241.708C496.169 241.875 496.001 242.097 495.883 242.373C495.765 242.649 495.681 242.929 495.632 243.215C495.582 243.501 495.553 243.806 495.543 244.131C495.543 244.949 495.602 245.535 495.72 245.89C495.839 246.244 496.026 246.53 496.282 246.747C496.518 246.924 496.779 247.013 497.065 247.013C497.567 247.013 497.952 246.826 498.218 246.451C498.346 246.274 498.434 246.052 498.484 245.786C498.533 245.52 498.557 245.003 498.557 244.235C498.557 243.447 498.533 242.92 498.484 242.654C498.434 242.388 498.346 242.166 498.218 241.989C497.952 241.634 497.597 241.457 497.154 241.457Z" fill="#D9EBFF"/>
<path d="M504.491 243.444C504.491 243.444 504.491 243.27 504.491 242.922C504.491 242.573 504.603 242.274 504.825 242.023C505.048 241.772 505.348 241.647 505.724 241.647C506.114 241.647 506.463 241.821 506.769 242.169C507.076 242.517 507.236 243.131 507.25 244.008C507.25 244.496 507.187 244.97 507.062 245.43C506.936 245.889 506.79 246.287 506.623 246.621C506.456 246.955 506.275 247.241 506.08 247.478C505.884 247.715 505.717 247.903 505.578 248.042C505.439 248.182 505.348 248.244 505.306 248.23C505.25 248.23 505.16 248.168 505.035 248.042C504.909 247.917 504.846 247.826 504.846 247.771C504.846 247.715 504.923 247.603 505.076 247.436C505.23 247.269 505.404 247.06 505.599 246.809C505.794 246.558 505.975 246.21 506.142 245.764C506.309 245.318 506.421 244.81 506.477 244.238V243.987L506.456 244.008C506.428 244.022 506.393 244.036 506.351 244.05C506.309 244.064 506.268 244.085 506.226 244.113C506.184 244.141 506.121 244.155 506.038 244.155C505.954 244.155 505.871 244.162 505.787 244.176C505.411 244.176 505.104 244.057 504.867 243.82L504.491 243.444Z" fill="#D9EBFF"/>
<path d="M512.601 238.177C512.615 238.093 512.635 237.982 512.663 237.843C512.691 237.703 512.775 237.439 512.914 237.048C513.053 236.658 513.193 236.331 513.332 236.066C513.471 235.801 513.701 235.544 514.022 235.293C514.342 235.042 514.663 234.924 514.983 234.937C515.485 234.937 515.903 235.063 516.237 235.314C516.572 235.564 516.781 235.801 516.864 236.024C516.948 236.247 516.99 236.394 516.99 236.463C516.99 236.491 516.997 236.505 517.011 236.505L517.241 236.275C518.091 235.383 519.059 234.937 520.146 234.937C520.898 234.937 521.504 235.126 521.964 235.502C522.424 235.878 522.661 236.428 522.675 237.153C522.689 237.877 522.424 238.971 521.881 240.434C521.337 241.897 521.072 242.782 521.086 243.089C521.086 243.451 521.205 243.632 521.442 243.632C521.525 243.632 521.588 243.625 521.63 243.611C522.034 243.542 522.396 243.277 522.717 242.817C523.037 242.357 523.281 241.8 523.448 241.145C523.476 241.034 523.615 240.978 523.866 240.978C524.145 240.978 524.284 241.034 524.284 241.145C524.284 241.159 524.256 241.263 524.201 241.458C524.089 241.863 523.936 242.26 523.741 242.65C523.546 243.04 523.225 243.43 522.779 243.82C522.333 244.21 521.853 244.399 521.337 244.385C520.682 244.385 520.208 244.197 519.916 243.82C519.623 243.444 519.477 243.054 519.477 242.65C519.477 242.385 519.728 241.549 520.229 240.142C520.731 238.734 520.989 237.675 521.003 236.965C521.003 236.143 520.696 235.732 520.083 235.732H519.979C518.78 235.732 517.77 236.435 516.948 237.843L516.802 238.093L516.112 240.894C515.652 242.72 515.387 243.702 515.318 243.841C515.137 244.217 514.837 244.406 514.419 244.406C514.238 244.406 514.092 244.364 513.98 244.28C513.869 244.197 513.792 244.113 513.75 244.029C513.708 243.946 513.694 243.876 513.708 243.82C513.708 243.639 513.973 242.504 514.503 240.413C515.032 238.323 515.311 237.188 515.339 237.007C515.353 236.937 515.359 236.777 515.359 236.526C515.359 235.982 515.192 235.711 514.858 235.711C514.328 235.711 513.889 236.407 513.541 237.801C513.458 238.08 513.416 238.226 513.416 238.24C513.388 238.323 513.255 238.365 513.019 238.365H512.726C512.642 238.282 512.601 238.219 512.601 238.177Z" fill="#D9EBFF"/>
<path d="M527.131 245.003C527.131 245.24 527.052 245.437 526.894 245.594C526.737 245.752 526.544 245.831 526.318 245.831H526.214C526.668 246.609 527.269 246.998 528.017 246.998C528.707 246.998 529.209 246.702 529.524 246.111C529.712 245.786 529.805 245.156 529.805 244.22C529.805 243.205 529.672 242.521 529.406 242.166C529.15 241.841 528.864 241.678 528.549 241.678H528.461C527.692 241.678 527.111 242.013 526.717 242.683C526.677 242.752 526.643 242.792 526.613 242.801C526.584 242.811 526.51 242.821 526.392 242.831C526.224 242.831 526.131 242.801 526.111 242.742C526.091 242.703 526.081 241.841 526.081 240.156V238.25C526.081 237.758 526.106 237.511 526.155 237.511C526.175 237.492 526.195 237.482 526.214 237.482C526.224 237.482 526.328 237.521 526.525 237.6C526.722 237.679 526.993 237.758 527.338 237.836C527.682 237.915 528.052 237.955 528.446 237.955C529.145 237.955 529.815 237.817 530.455 237.541C530.534 237.501 530.598 237.482 530.648 237.482C530.726 237.482 530.766 237.57 530.766 237.748V237.94C529.958 238.895 528.948 239.373 527.736 239.373C527.431 239.373 527.155 239.344 526.909 239.284L526.761 239.255V241.797C526.948 241.659 527.096 241.55 527.205 241.471C527.313 241.393 527.49 241.314 527.736 241.235C527.983 241.156 528.234 241.117 528.49 241.117C529.288 241.117 529.963 241.437 530.515 242.077C531.066 242.718 531.342 243.476 531.342 244.353C531.342 245.259 531.027 246.033 530.396 246.673C529.766 247.313 528.997 247.638 528.091 247.648C527.293 247.648 526.653 247.382 526.17 246.85C525.687 246.318 525.446 245.717 525.446 245.047C525.446 244.811 525.5 244.624 525.609 244.486C525.717 244.348 525.83 244.259 525.948 244.22C526.067 244.181 526.18 244.161 526.288 244.161C526.535 244.161 526.737 244.245 526.894 244.412C527.052 244.58 527.131 244.777 527.131 245.003Z" fill="#D9EBFF"/>
<path d="M535.821 243.444C535.821 243.444 535.821 243.27 535.821 242.922C535.821 242.573 535.933 242.274 536.156 242.023C536.379 241.772 536.678 241.647 537.055 241.647C537.445 241.647 537.793 241.821 538.1 242.169C538.406 242.517 538.566 243.131 538.58 244.008C538.58 244.496 538.518 244.97 538.392 245.43C538.267 245.889 538.12 246.287 537.953 246.621C537.786 246.955 537.605 247.241 537.41 247.478C537.215 247.715 537.048 247.903 536.908 248.042C536.769 248.182 536.678 248.244 536.636 248.23C536.581 248.23 536.49 248.168 536.365 248.042C536.239 247.917 536.177 247.826 536.177 247.771C536.177 247.715 536.253 247.603 536.407 247.436C536.56 247.269 536.734 247.06 536.929 246.809C537.124 246.558 537.305 246.21 537.473 245.764C537.64 245.318 537.751 244.81 537.807 244.238V243.987L537.786 244.008C537.758 244.022 537.723 244.036 537.682 244.05C537.64 244.064 537.598 244.085 537.556 244.113C537.514 244.141 537.452 244.155 537.368 244.155C537.284 244.155 537.201 244.162 537.117 244.176C536.741 244.176 536.434 244.057 536.198 243.82L535.821 243.444Z" fill="#D9EBFF"/>
<path d="M543.931 238.177C543.945 238.093 543.966 237.982 543.994 237.843C544.021 237.703 544.105 237.439 544.244 237.048C544.384 236.658 544.523 236.331 544.662 236.066C544.802 235.801 545.032 235.544 545.352 235.293C545.673 235.042 545.993 234.924 546.314 234.937C546.815 234.937 547.233 235.063 547.568 235.314C547.902 235.564 548.111 235.801 548.195 236.024C548.278 236.247 548.32 236.394 548.32 236.463C548.32 236.491 548.327 236.505 548.341 236.505L548.571 236.275C549.421 235.383 550.389 234.937 551.476 234.937C552.229 234.937 552.835 235.126 553.294 235.502C553.754 235.878 553.991 236.428 554.005 237.153C554.019 237.877 553.754 238.971 553.211 240.434C552.667 241.897 552.403 242.782 552.417 243.089C552.417 243.451 552.535 243.632 552.772 243.632C552.856 243.632 552.918 243.625 552.96 243.611C553.364 243.542 553.726 243.277 554.047 242.817C554.367 242.357 554.611 241.8 554.778 241.145C554.806 241.034 554.946 240.978 555.196 240.978C555.475 240.978 555.614 241.034 555.614 241.145C555.614 241.159 555.587 241.263 555.531 241.458C555.419 241.863 555.266 242.26 555.071 242.65C554.876 243.04 554.555 243.43 554.11 243.82C553.664 244.21 553.183 244.399 552.667 244.385C552.013 244.385 551.539 244.197 551.246 243.82C550.954 243.444 550.807 243.054 550.807 242.65C550.807 242.385 551.058 241.549 551.56 240.142C552.061 238.734 552.319 237.675 552.333 236.965C552.333 236.143 552.026 235.732 551.413 235.732H551.309C550.111 235.732 549.1 236.435 548.278 237.843L548.132 238.093L547.442 240.894C546.982 242.72 546.718 243.702 546.648 243.841C546.467 244.217 546.167 244.406 545.749 244.406C545.568 244.406 545.422 244.364 545.31 244.28C545.199 244.197 545.122 244.113 545.08 244.029C545.039 243.946 545.025 243.876 545.039 243.82C545.039 243.639 545.303 242.504 545.833 240.413C546.362 238.323 546.641 237.188 546.669 237.007C546.683 236.937 546.69 236.777 546.69 236.526C546.69 235.982 546.523 235.711 546.188 235.711C545.659 235.711 545.22 236.407 544.871 237.801C544.788 238.08 544.746 238.226 544.746 238.24C544.718 238.323 544.586 238.365 544.349 238.365H544.056C543.973 238.282 543.931 238.219 543.931 238.177Z" fill="#D9EBFF"/>
<path d="M562.864 247.323C562.687 247.294 562.052 247.279 560.958 247.279C559.815 247.279 559.155 247.294 558.978 247.323H558.845V246.643H559.303C559.5 246.643 559.633 246.643 559.702 246.643C559.771 246.643 559.855 246.633 559.953 246.614C560.052 246.594 560.121 246.569 560.16 246.54C560.2 246.51 560.234 246.471 560.264 246.422C560.274 246.402 560.278 246.136 560.278 245.624V244.885H556.451V244.205L558.683 240.792C560.19 238.506 560.953 237.359 560.973 237.349C560.993 237.329 561.096 237.319 561.283 237.319H561.549L561.638 237.408V244.205H562.997V244.885H561.638V245.639C561.638 246.042 561.638 246.279 561.638 246.348C561.638 246.417 561.668 246.476 561.727 246.525C561.805 246.594 562.086 246.633 562.569 246.643H562.997V247.323H562.864ZM560.367 244.205V239.27L557.131 244.19L558.742 244.205H560.367Z" fill="#D9EBFF"/>
<path d="M567.173 243.444C567.173 243.444 567.173 243.27 567.173 242.922C567.173 242.573 567.284 242.274 567.507 242.023C567.73 241.772 568.03 241.647 568.406 241.647C568.796 241.647 569.144 241.821 569.451 242.169C569.757 242.517 569.918 243.131 569.931 244.008C569.931 244.496 569.869 244.97 569.743 245.43C569.618 245.889 569.472 246.287 569.304 246.621C569.137 246.955 568.956 247.241 568.761 247.478C568.566 247.715 568.399 247.903 568.259 248.042C568.12 248.182 568.03 248.244 567.988 248.23C567.932 248.23 567.841 248.168 567.716 248.042C567.591 247.917 567.528 247.826 567.528 247.771C567.528 247.715 567.605 247.603 567.758 247.436C567.911 247.269 568.085 247.06 568.28 246.809C568.475 246.558 568.657 246.21 568.824 245.764C568.991 245.318 569.102 244.81 569.158 244.238V243.987L569.137 244.008C569.109 244.022 569.075 244.036 569.033 244.05C568.991 244.064 568.949 244.085 568.907 244.113C568.866 244.141 568.803 244.155 568.719 244.155C568.636 244.155 568.552 244.162 568.468 244.176C568.092 244.176 567.786 244.057 567.549 243.82L567.173 243.444Z" fill="#D9EBFF"/>
<path d="M575.282 238.177C575.296 238.093 575.317 237.982 575.345 237.843C575.373 237.703 575.456 237.439 575.596 237.048C575.735 236.658 575.874 236.331 576.014 236.066C576.153 235.801 576.383 235.544 576.703 235.293C577.024 235.042 577.344 234.924 577.665 234.937C578.166 234.937 578.584 235.063 578.919 235.314C579.253 235.564 579.462 235.801 579.546 236.024C579.629 236.247 579.671 236.394 579.671 236.463C579.671 236.491 579.678 236.505 579.692 236.505L579.922 236.275C580.772 235.383 581.74 234.937 582.827 234.937C583.58 234.937 584.186 235.126 584.646 235.502C585.105 235.878 585.342 236.428 585.356 237.153C585.37 237.877 585.105 238.971 584.562 240.434C584.019 241.897 583.754 242.782 583.768 243.089C583.768 243.451 583.886 243.632 584.123 243.632C584.207 243.632 584.269 243.625 584.311 243.611C584.715 243.542 585.078 243.277 585.398 242.817C585.719 242.357 585.962 241.8 586.13 241.145C586.157 241.034 586.297 240.978 586.548 240.978C586.826 240.978 586.966 241.034 586.966 241.145C586.966 241.159 586.938 241.263 586.882 241.458C586.771 241.863 586.617 242.26 586.422 242.65C586.227 243.04 585.907 243.43 585.461 243.82C585.015 244.21 584.534 244.399 584.019 244.385C583.364 244.385 582.89 244.197 582.597 243.82C582.305 243.444 582.158 243.054 582.158 242.65C582.158 242.385 582.409 241.549 582.911 240.142C583.413 238.734 583.67 237.675 583.684 236.965C583.684 236.143 583.378 235.732 582.765 235.732H582.66C581.462 235.732 580.452 236.435 579.629 237.843L579.483 238.093L578.793 240.894C578.334 242.72 578.069 243.702 577.999 243.841C577.818 244.217 577.518 244.406 577.1 244.406C576.919 244.406 576.773 244.364 576.662 244.28C576.55 244.197 576.473 244.113 576.432 244.029C576.39 243.946 576.376 243.876 576.39 243.82C576.39 243.639 576.655 242.504 577.184 240.413C577.714 238.323 577.992 237.188 578.02 237.007C578.034 236.937 578.041 236.777 578.041 236.526C578.041 235.982 577.874 235.711 577.539 235.711C577.01 235.711 576.571 236.407 576.223 237.801C576.139 238.08 576.097 238.226 576.097 238.24C576.069 238.323 575.937 238.365 575.7 238.365H575.408C575.324 238.282 575.282 238.219 575.282 238.177Z" fill="#D9EBFF"/>
<path d="M588.201 240.555C588.211 240.536 588.295 239.999 588.453 238.945L588.689 237.363C588.689 237.344 588.788 237.334 588.985 237.334H589.28V237.393C589.28 237.492 589.354 237.575 589.502 237.644C589.65 237.713 589.906 237.758 590.27 237.777C590.635 237.797 591.467 237.807 592.768 237.807H594.556V238.383L593.551 239.757C593.462 239.876 593.314 240.073 593.107 240.348C592.901 240.624 592.768 240.806 592.708 240.895C592.649 240.984 592.546 241.141 592.398 241.368C592.25 241.595 592.152 241.772 592.103 241.9C592.053 242.028 591.984 242.21 591.896 242.447C591.807 242.683 591.743 242.91 591.704 243.126C591.664 243.343 591.625 243.609 591.585 243.924C591.546 244.24 591.516 244.575 591.497 244.929C591.477 245.284 591.462 245.688 591.452 246.141C591.452 246.279 591.452 246.417 591.452 246.555C591.452 246.693 591.447 246.811 591.438 246.909V247.042C591.398 247.21 591.305 247.353 591.157 247.471C591.009 247.589 590.842 247.648 590.654 247.648C590.546 247.648 590.443 247.633 590.344 247.604C590.246 247.574 590.142 247.481 590.034 247.323C589.925 247.165 589.871 246.968 589.871 246.732C589.871 245.176 590.349 243.56 591.305 241.885C591.502 241.57 591.915 240.974 592.546 240.097L593.226 239.166H591.851C590.137 239.166 589.236 239.196 589.147 239.255C589.088 239.284 589.034 239.403 588.985 239.61C588.935 239.816 588.886 240.028 588.837 240.245L588.793 240.555V240.6H588.201V240.555Z" fill="#D9EBFF"/>
<path d="M598.127 228.521L598.21 228.5C598.28 228.5 598.35 228.5 598.419 228.5H598.67L599.255 229.002C600.565 230.186 601.52 231.663 602.119 233.433C602.718 235.202 603.017 237.041 603.017 238.95C603.017 239.898 602.948 240.811 602.808 241.688C602.669 242.566 602.509 243.312 602.328 243.925C602.147 244.538 601.889 245.151 601.554 245.764C601.22 246.377 600.955 246.844 600.76 247.164C600.565 247.485 600.279 247.84 599.903 248.23C599.527 248.621 599.304 248.85 599.234 248.92C599.165 248.99 599.005 249.122 598.754 249.317C598.712 249.359 598.684 249.387 598.67 249.401H598.419C598.308 249.401 598.231 249.401 598.189 249.401C598.148 249.401 598.113 249.38 598.085 249.338C598.057 249.296 598.036 249.234 598.022 249.15C598.036 249.136 598.113 249.045 598.252 248.878C600.412 246.635 601.492 243.326 601.492 238.95C601.492 234.575 600.412 231.266 598.252 229.023C598.113 228.855 598.036 228.765 598.022 228.751C598.022 228.639 598.057 228.563 598.127 228.521Z" fill="#D9EBFF"/>
</svg>
