<svg width="700" height="212" viewBox="0 0 700 212" fill="none" xmlns="http://www.w3.org/2000/svg">
<rect width="700" height="211" transform="translate(0 0.5)" fill="#0A0D12"/>
<path d="M325 81.5V131.5H375V81.5H325Z" fill="#0E4559"/>
<path fill-rule="evenodd" clip-rule="evenodd" d="M250 206.5H450V6.5H250L250 206.5ZM350 177.211L279.289 106.5L350 35.7893L420.71 106.5L350 177.211Z" fill="#0E4559"/>
<path d="M325 81.5V131.5H375V81.5H325Z" stroke="#B3BFD8" stroke-width="2"/>
<path fill-rule="evenodd" clip-rule="evenodd" d="M250 206.5H450V6.5H250L250 206.5ZM350 177.211L279.289 106.5L350 35.7893L420.71 106.5L350 177.211Z" stroke="#B3BFD8" stroke-width="2"/>
<path d="M450 206.5H250L250 6.5H450V206.5Z" stroke="#B3BFD8" stroke-width="2"/>
<path d="M350 177.211L279.289 106.5L350 35.7893L420.71 106.5L350 177.211Z" stroke="#B3BFD8" stroke-width="2"/>
<path d="M325 131.5L325 81.5L375 81.5L375 131.5L325 131.5Z" stroke="#B3BFD8" stroke-width="2"/>
<circle cx="350" cy="106.5" r="5" fill="#EB5757"/>
<path d="M483.707 107.207C484.098 106.817 484.098 106.183 483.707 105.793L477.343 99.4289C476.953 99.0384 476.319 99.0384 475.929 99.4289C475.538 99.8195 475.538 100.453 475.929 100.843L481.586 106.5L475.929 112.157C475.538 112.547 475.538 113.181 475.929 113.571C476.319 113.962 476.953 113.962 477.343 113.571L483.707 107.207ZM350 107.5H483V105.5H350V107.5Z" fill="#EB5757"/>
</svg>
