<svg width="700" height="224" viewBox="0 0 700 224" fill="none" xmlns="http://www.w3.org/2000/svg">
<rect width="700" height="223" transform="translate(0 0.5)" fill="#0A0D12"/>
<path d="M532 211.5H132L132 11.5H532V211.5Z" stroke="#B3BFD8" stroke-width="2"/>
<path d="M232 182.211L161.289 111.5L232 40.7893L302.71 111.5L232 182.211Z" stroke="#B3BFD8" stroke-width="2"/>
<circle cx="132" cy="11.5" r="5" fill="black" stroke="#D9EBFF" stroke-width="2"/>
<circle cx="532" cy="11.5" r="5" fill="black" stroke="#D9EBFF" stroke-width="2"/>
<circle cx="532" cy="211.5" r="5" fill="black" stroke="#D9EBFF" stroke-width="2"/>
<circle cx="232" cy="40.7891" r="5" fill="black" stroke="#D9EBFF" stroke-width="2"/>
<circle cx="302.711" cy="111.5" r="5" fill="black" stroke="#D9EBFF" stroke-width="2"/>
<circle cx="132" cy="211.5" r="5" fill="black" stroke="#D9EBFF" stroke-width="2"/>
<circle cx="161.289" cy="111.5" r="5" fill="black" stroke="#D9EBFF" stroke-width="2"/>
<circle cx="232" cy="182.211" r="5" fill="black" stroke="#D9EBFF" stroke-width="2"/>
<path d="M411.487 111.5L350 49.5H489L427.513 111.5L489 173.5H350L411.487 111.5Z" stroke="#B3BFD8" stroke-width="2"/>
<circle cx="350" cy="49.5" r="5" fill="black" stroke="#D9EBFF" stroke-width="2"/>
<circle cx="489" cy="49.5" r="5" fill="black" stroke="#D9EBFF" stroke-width="2"/>
<circle cx="489" cy="173.5" r="5" fill="black" stroke="#D9EBFF" stroke-width="2"/>
<circle cx="350" cy="173.5" r="5" fill="black" stroke="#D9EBFF" stroke-width="2"/>
<circle cx="411" cy="111.5" r="5" fill="black" stroke="#D9EBFF" stroke-width="2"/>
<circle cx="428" cy="111.5" r="5" fill="black" stroke="#D9EBFF" stroke-width="2"/>
<path opacity="0.4" d="M198.5 101.5L231.5 68.5L264.5 101.5H198.5Z" stroke="#B3BFD8" stroke-width="2"/>
<path opacity="0.4" d="M264.5 121.5L231.5 154.5L198.5 121.5L264.5 121.5Z" stroke="#B3BFD8" stroke-width="2"/>
<path opacity="0.4" d="M410.5 83.5H428L445.5 66H393L410.5 83.5Z" stroke="#B3BFD8" stroke-width="2"/>
<path opacity="0.4" d="M411 160.5V130.5L382 160.5H411Z" stroke="#B3BFD8" stroke-width="2"/>
<path opacity="0.4" d="M428 160V130.5L457.5 160H428Z" stroke="#B3BFD8" stroke-width="2"/>
<circle cx="411" cy="83.5" r="5" fill="black" stroke="#D9EBFF" stroke-width="2"/>
<circle cx="393" cy="66.5" r="5" fill="black" stroke="#D9EBFF" stroke-width="2"/>
<circle cx="231.5" cy="153.5" r="5" fill="black" stroke="#D9EBFF" stroke-width="2"/>
<circle cx="231.5" cy="69.5" r="5" fill="black" stroke="#D9EBFF" stroke-width="2"/>
<circle cx="265" cy="101.5" r="5" fill="black" stroke="#D9EBFF" stroke-width="2"/>
<circle cx="199" cy="101.5" r="5" fill="black" stroke="#D9EBFF" stroke-width="2"/>
<circle cx="199" cy="121.5" r="5" fill="black" stroke="#D9EBFF" stroke-width="2"/>
<circle cx="265" cy="121.5" r="5" fill="black" stroke="#D9EBFF" stroke-width="2"/>
<circle cx="428" cy="83.5" r="5" fill="black" stroke="#D9EBFF" stroke-width="2"/>
<circle cx="446" cy="66.5" r="5" fill="black" stroke="#D9EBFF" stroke-width="2"/>
<circle cx="428" cy="130.5" r="5" fill="black" stroke="#D9EBFF" stroke-width="2"/>
<circle cx="428" cy="160.5" r="5" fill="black" stroke="#D9EBFF" stroke-width="2"/>
<circle cx="458" cy="160.5" r="5" fill="black" stroke="#D9EBFF" stroke-width="2"/>
<circle cx="4" cy="4" r="5" transform="matrix(-1 0 0 1 415 126.5)" fill="black" stroke="#D9EBFF" stroke-width="2"/>
<circle cx="4" cy="4" r="5" transform="matrix(-1 0 0 1 415 156.5)" fill="black" stroke="#D9EBFF" stroke-width="2"/>
<circle cx="4" cy="4" r="5" transform="matrix(-1 0 0 1 385 156.5)" fill="black" stroke="#D9EBFF" stroke-width="2"/>
<path d="M100 108.807C100 106.417 100.989 104.269 102.967 102.361C104.945 100.454 107.084 99.5 109.384 99.5C110.672 99.5 111.684 99.7631 112.42 100.289C113.156 100.815 113.536 101.506 113.559 102.361C113.559 102.997 113.34 103.534 112.903 103.973C112.466 104.411 111.914 104.641 111.247 104.663C110.81 104.663 110.465 104.554 110.212 104.334C109.959 104.115 109.833 103.786 109.833 103.348C109.833 102.909 109.959 102.537 110.212 102.23C110.465 101.923 110.718 101.692 110.971 101.539C111.224 101.386 111.385 101.32 111.454 101.342H111.489C111.489 101.298 111.42 101.232 111.282 101.144C111.144 101.057 110.902 100.969 110.557 100.881C110.212 100.794 109.821 100.75 109.384 100.75C108.694 100.75 108.039 100.903 107.418 101.21C106.935 101.407 106.44 101.747 105.934 102.23C104.922 103.194 104.186 104.554 103.726 106.308C103.266 108.062 103.025 109.333 103.002 110.122C103.002 111.131 103.301 111.887 103.899 112.392C104.405 112.918 105.072 113.181 105.9 113.181H106.038C108.614 113.181 110.741 112.249 112.42 110.386C112.627 110.166 112.765 110.057 112.834 110.057C112.926 110.057 113.076 110.155 113.283 110.353C113.49 110.55 113.605 110.703 113.628 110.813C113.651 110.923 113.548 111.087 113.317 111.306C113.087 111.526 112.754 111.833 112.317 112.227C111.88 112.622 111.362 112.951 110.764 113.214C110.166 113.477 109.43 113.751 108.556 114.036C107.682 114.321 106.762 114.442 105.796 114.398C104.071 114.398 102.68 113.872 101.622 112.819C100.564 111.767 100.023 110.429 100 108.807Z" fill="#D9EBFF"/>
<path d="M116.121 105.387C117.032 104.131 118.276 103.503 119.853 103.503C120.634 103.503 121.414 103.705 122.195 104.108C122.975 104.511 123.61 105.224 124.097 106.247C124.699 107.533 125 109.301 125 111.548C125 113.951 124.65 115.788 123.951 117.059C123.626 117.71 123.179 118.229 122.61 118.616C122.04 119.004 121.544 119.244 121.122 119.337C120.699 119.43 120.284 119.484 119.878 119.5C119.455 119.5 119.032 119.453 118.609 119.36C118.186 119.267 117.69 119.019 117.121 118.616C116.552 118.213 116.105 117.694 115.78 117.059C115.08 115.788 114.731 113.951 114.731 111.548C114.731 108.851 115.194 106.797 116.121 105.387ZM121.609 105.108C121.122 104.612 120.544 104.364 119.878 104.364C119.195 104.364 118.609 104.612 118.121 105.108C117.715 105.511 117.446 106.069 117.316 106.782C117.186 107.495 117.121 108.983 117.121 111.246C117.121 113.695 117.186 115.307 117.316 116.082C117.446 116.857 117.739 117.469 118.195 117.919C118.65 118.384 119.211 118.616 119.878 118.616C120.528 118.616 121.081 118.384 121.536 117.919C122.008 117.454 122.301 116.803 122.414 115.966C122.528 115.129 122.593 113.555 122.61 111.246C122.61 108.998 122.544 107.518 122.414 106.805C122.284 106.092 122.016 105.526 121.609 105.108Z" fill="#D9EBFF"/>
<path d="M174 59.0513C174 56.5988 174.94 54.3938 176.821 52.4363C178.701 50.4788 180.734 49.5 182.921 49.5C184.145 49.5 185.107 49.77 185.807 50.31C186.507 50.85 186.867 51.5588 186.889 52.4363C186.889 53.0888 186.682 53.64 186.266 54.09C185.851 54.54 185.326 54.7763 184.692 54.7988C184.276 54.7988 183.948 54.6863 183.708 54.4613C183.467 54.2363 183.347 53.8988 183.347 53.4488C183.347 52.9988 183.467 52.6163 183.708 52.3013C183.948 51.9863 184.189 51.75 184.429 51.5925C184.67 51.435 184.823 51.3675 184.889 51.39H184.921C184.921 51.345 184.856 51.2775 184.725 51.1875C184.593 51.0975 184.364 51.0075 184.036 50.9175C183.708 50.8275 183.336 50.7825 182.921 50.7825C182.265 50.7825 181.642 50.94 181.051 51.255C180.592 51.4575 180.122 51.8063 179.641 52.3013C178.679 53.2913 177.979 54.6863 177.542 56.4863C177.105 58.2863 176.875 59.5913 176.853 60.4013C176.853 61.4363 177.138 62.2125 177.706 62.73C178.187 63.27 178.821 63.54 179.608 63.54H179.74C182.188 63.54 184.211 62.5838 185.807 60.6713C186.004 60.4463 186.135 60.3338 186.201 60.3338C186.288 60.3338 186.43 60.435 186.627 60.6375C186.824 60.84 186.933 60.9975 186.955 61.11C186.977 61.2225 186.878 61.3913 186.66 61.6163C186.441 61.8413 186.124 62.1563 185.709 62.5613C185.293 62.9663 184.801 63.3038 184.233 63.5738C183.664 63.8438 182.965 64.125 182.134 64.4175C181.303 64.71 180.428 64.8338 179.51 64.7888C177.87 64.7888 176.547 64.2488 175.541 63.1688C174.536 62.0888 174.022 60.7163 174 59.0513Z" fill="#D9EBFF"/>
<path d="M192.038 55.7082L191.736 55.8275C191.52 55.907 191.211 55.9865 190.809 56.0661C190.407 56.1456 189.959 56.2013 189.464 56.2331H189.023V55.1355H189.464C190.191 55.1037 190.863 54.9844 191.481 54.7776C192.1 54.5708 192.533 54.3799 192.78 54.2049C193.027 54.0299 193.244 53.8549 193.429 53.6799C193.46 53.6322 193.553 53.6084 193.707 53.6084C193.846 53.6084 193.978 53.6561 194.102 53.7515V60.8861L194.125 68.0445C194.233 68.1558 194.326 68.2274 194.403 68.2592C194.48 68.291 194.666 68.3228 194.959 68.3547C195.253 68.3865 195.732 68.4024 196.397 68.4024H197V69.5H196.745C196.42 69.4523 195.191 69.4284 193.058 69.4284C190.956 69.4284 189.742 69.4523 189.418 69.5H189.139V68.4024H189.742C190.082 68.4024 190.376 68.4024 190.623 68.4024C190.871 68.4024 191.064 68.3944 191.203 68.3785C191.342 68.3626 191.466 68.3387 191.574 68.3069C191.682 68.2751 191.744 68.2592 191.76 68.2592C191.775 68.2592 191.821 68.2194 191.899 68.1399C191.976 68.0604 192.022 68.0286 192.038 68.0445V55.7082Z" fill="#D9EBFF"/>
<path d="M409 32.0513C409 29.5988 409.92 27.3938 411.759 25.4363C413.599 23.4788 415.588 22.5 417.727 22.5C418.925 22.5 419.866 22.77 420.551 23.31C421.235 23.85 421.588 24.5588 421.61 25.4363C421.61 26.0888 421.406 26.64 421 27.09C420.594 27.54 420.08 27.7763 419.46 27.7988C419.053 27.7988 418.733 27.6863 418.497 27.4613C418.262 27.2363 418.144 26.8988 418.144 26.4488C418.144 25.9988 418.262 25.6163 418.497 25.3013C418.733 24.9863 418.968 24.75 419.203 24.5925C419.438 24.435 419.588 24.3675 419.652 24.39H419.684C419.684 24.345 419.62 24.2775 419.492 24.1875C419.364 24.0975 419.139 24.0075 418.818 23.9175C418.497 23.8275 418.134 23.7825 417.727 23.7825C417.086 23.7825 416.476 23.94 415.898 24.255C415.449 24.4575 414.989 24.8063 414.519 25.3013C413.578 26.2913 412.893 27.6863 412.465 29.4863C412.037 31.2863 411.813 32.5913 411.791 33.4013C411.791 34.4363 412.07 35.2125 412.626 35.73C413.096 36.27 413.717 36.54 414.487 36.54H414.615C417.011 36.54 418.989 35.5838 420.551 33.6713C420.743 33.4463 420.872 33.3338 420.936 33.3338C421.021 33.3338 421.16 33.435 421.353 33.6375C421.545 33.84 421.652 33.9975 421.674 34.11C421.695 34.2225 421.599 34.3913 421.385 34.6163C421.171 34.8413 420.861 35.1563 420.455 35.5613C420.048 35.9663 419.567 36.3038 419.011 36.5738C418.455 36.8438 417.77 37.125 416.957 37.4175C416.144 37.71 415.289 37.8338 414.39 37.7888C412.786 37.7888 411.492 37.2488 410.508 36.1688C409.524 35.0888 409.021 33.7163 409 32.0513Z" fill="#D9EBFF"/>
<path d="M424.287 32.2635C423.879 32.2635 423.554 32.1203 423.312 31.834C423.07 31.5477 422.949 31.1977 422.949 30.7841C422.949 29.6547 423.35 28.6763 424.151 27.8492C424.953 27.022 425.951 26.6084 427.146 26.6084C428.522 26.6084 429.671 27.0538 430.594 27.9446C431.516 28.8354 431.985 29.9887 432 31.4045C432 32.0885 431.849 32.7407 431.546 33.3611C431.244 33.9815 430.881 34.5224 430.457 34.9837C430.034 35.445 429.429 36.0336 428.643 36.7494C428.098 37.2426 427.342 37.9743 426.374 38.9447L425.036 40.2809L426.76 40.3048C429.134 40.3048 430.397 40.265 430.548 40.1855C430.654 40.1536 430.836 39.4458 431.093 38.0618V37.9902H432V38.0618C431.985 38.1095 431.887 38.8333 431.705 40.2332C431.524 41.633 431.41 42.3648 431.365 42.4284V42.5H422.949V41.7603C422.949 41.6489 422.994 41.5296 423.085 41.4024C423.176 41.2751 423.403 40.9967 423.766 40.5672C424.204 40.0582 424.582 39.6128 424.9 39.231C425.036 39.0719 425.293 38.7776 425.671 38.3481C426.049 37.9186 426.306 37.6243 426.442 37.4653C426.578 37.3062 426.798 37.0437 427.1 36.6778C427.403 36.312 427.614 36.0415 427.735 35.8666C427.856 35.6916 428.03 35.453 428.257 35.1507C428.484 34.8485 428.643 34.594 428.733 34.3872C428.824 34.1804 428.938 33.9497 429.074 33.6952C429.21 33.4407 429.308 33.1861 429.369 32.9316C429.429 32.6771 429.482 32.4385 429.527 32.2158C429.573 31.9931 429.595 31.7306 429.595 31.4283C429.595 30.4262 429.338 29.5592 428.824 28.8275C428.31 28.0957 427.577 27.7298 426.624 27.7298C426.125 27.7298 425.686 27.8651 425.308 28.1355C424.93 28.4059 424.665 28.6684 424.514 28.9229C424.363 29.1774 424.287 29.3286 424.287 29.3763C424.287 29.3922 424.325 29.4001 424.401 29.4001C424.673 29.4001 424.953 29.5115 425.24 29.7342C425.527 29.9569 425.671 30.3228 425.671 30.8318C425.671 31.2295 425.55 31.5636 425.308 31.834C425.066 32.1044 424.726 32.2476 424.287 32.2635Z" fill="#D9EBFF"/>
</svg>
