<svg width="700" height="228" viewBox="0 0 700 228" fill="none" xmlns="http://www.w3.org/2000/svg">
<rect width="700" height="227" transform="translate(0 0.5)" fill="#0A0D12"/>
<path d="M532 214.5H132L132 14.5H532V214.5Z" fill="#0E4559" stroke="#B3BFD8" stroke-width="2"/>
<path d="M232 185.211L161.289 114.5L232 43.7893L302.71 114.5L232 185.211Z" fill="#0E4559" stroke="#B3BFD8" stroke-width="2"/>
<circle cx="132" cy="14.5" r="5" fill="black" stroke="#D9EBFF" stroke-width="2"/>
<circle cx="532" cy="14.5" r="5" fill="black" stroke="#D9EBFF" stroke-width="2"/>
<circle cx="532" cy="214.5" r="5" fill="black" stroke="#D9EBFF" stroke-width="2"/>
<circle cx="232" cy="43.7891" r="5" fill="black" stroke="#D9EBFF" stroke-width="2"/>
<circle cx="302.711" cy="114.5" r="5" fill="black" stroke="#D9EBFF" stroke-width="2"/>
<circle cx="132" cy="214.5" r="5" fill="black" stroke="#D9EBFF" stroke-width="2"/>
<circle cx="161.289" cy="114.5" r="5" fill="black" stroke="#D9EBFF" stroke-width="2"/>
<circle cx="232" cy="185.211" r="5" fill="black" stroke="#D9EBFF" stroke-width="2"/>
<path d="M411.487 114.5L350 52.5H489L427.513 114.5L489 176.5H350L411.487 114.5Z" fill="#0A0D12" stroke="#B3BFD8" stroke-width="2"/>
<circle cx="350" cy="52.5" r="5" fill="black" stroke="#D9EBFF" stroke-width="2"/>
<circle cx="489" cy="52.5" r="5" fill="black" stroke="#D9EBFF" stroke-width="2"/>
<circle cx="489" cy="176.5" r="5" fill="black" stroke="#D9EBFF" stroke-width="2"/>
<circle cx="350" cy="176.5" r="5" fill="black" stroke="#D9EBFF" stroke-width="2"/>
<circle cx="411" cy="114.5" r="5" fill="black" stroke="#D9EBFF" stroke-width="2"/>
<circle cx="428" cy="114.5" r="5" fill="black" stroke="#D9EBFF" stroke-width="2"/>
<path d="M100 111.807C100 109.417 100.989 107.269 102.967 105.361C104.945 103.454 107.084 102.5 109.384 102.5C110.672 102.5 111.684 102.763 112.42 103.289C113.156 103.815 113.536 104.506 113.559 105.361C113.559 105.997 113.34 106.534 112.903 106.973C112.466 107.411 111.914 107.641 111.247 107.663C110.81 107.663 110.465 107.554 110.212 107.334C109.959 107.115 109.833 106.786 109.833 106.348C109.833 105.909 109.959 105.537 110.212 105.23C110.465 104.923 110.718 104.692 110.971 104.539C111.224 104.386 111.385 104.32 111.454 104.342H111.489C111.489 104.298 111.42 104.232 111.282 104.144C111.144 104.057 110.902 103.969 110.557 103.881C110.212 103.794 109.821 103.75 109.384 103.75C108.694 103.75 108.039 103.903 107.418 104.21C106.935 104.407 106.44 104.747 105.934 105.23C104.922 106.194 104.186 107.554 103.726 109.308C103.266 111.062 103.025 112.333 103.002 113.122C103.002 114.131 103.301 114.887 103.899 115.392C104.405 115.918 105.072 116.181 105.9 116.181H106.038C108.614 116.181 110.741 115.249 112.42 113.386C112.627 113.166 112.765 113.057 112.834 113.057C112.926 113.057 113.076 113.155 113.283 113.353C113.49 113.55 113.605 113.703 113.628 113.813C113.651 113.923 113.548 114.087 113.317 114.306C113.087 114.526 112.754 114.833 112.317 115.227C111.88 115.622 111.362 115.951 110.764 116.214C110.166 116.477 109.43 116.751 108.556 117.036C107.682 117.321 106.762 117.442 105.796 117.398C104.071 117.398 102.68 116.872 101.622 115.819C100.564 114.767 100.023 113.429 100 111.807Z" fill="#D9EBFF"/>
<path d="M116.121 108.387C117.032 107.131 118.276 106.503 119.853 106.503C120.634 106.503 121.414 106.705 122.195 107.108C122.975 107.511 123.61 108.224 124.097 109.247C124.699 110.533 125 112.301 125 114.548C125 116.951 124.65 118.788 123.951 120.059C123.626 120.71 123.179 121.229 122.61 121.616C122.04 122.004 121.544 122.244 121.122 122.337C120.699 122.43 120.284 122.484 119.878 122.5C119.455 122.5 119.032 122.453 118.609 122.36C118.186 122.267 117.69 122.019 117.121 121.616C116.552 121.213 116.105 120.694 115.78 120.059C115.08 118.788 114.731 116.951 114.731 114.548C114.731 111.851 115.194 109.797 116.121 108.387ZM121.609 108.108C121.122 107.612 120.544 107.364 119.878 107.364C119.195 107.364 118.609 107.612 118.121 108.108C117.715 108.511 117.446 109.069 117.316 109.782C117.186 110.495 117.121 111.983 117.121 114.246C117.121 116.695 117.186 118.307 117.316 119.082C117.446 119.857 117.739 120.469 118.195 120.919C118.65 121.384 119.211 121.616 119.878 121.616C120.528 121.616 121.081 121.384 121.536 120.919C122.008 120.454 122.301 119.803 122.414 118.966C122.528 118.129 122.593 116.555 122.61 114.246C122.61 111.998 122.544 110.518 122.414 109.805C122.284 109.092 122.016 108.526 121.609 108.108Z" fill="#D9EBFF"/>
<path d="M174 62.0513C174 59.5988 174.94 57.3938 176.821 55.4363C178.701 53.4788 180.734 52.5 182.921 52.5C184.145 52.5 185.107 52.77 185.807 53.31C186.507 53.85 186.867 54.5588 186.889 55.4363C186.889 56.0888 186.682 56.64 186.266 57.09C185.851 57.54 185.326 57.7763 184.692 57.7988C184.276 57.7988 183.948 57.6863 183.708 57.4613C183.467 57.2363 183.347 56.8988 183.347 56.4488C183.347 55.9988 183.467 55.6163 183.708 55.3013C183.948 54.9863 184.189 54.75 184.429 54.5925C184.67 54.435 184.823 54.3675 184.889 54.39H184.921C184.921 54.345 184.856 54.2775 184.725 54.1875C184.593 54.0975 184.364 54.0075 184.036 53.9175C183.708 53.8275 183.336 53.7825 182.921 53.7825C182.265 53.7825 181.642 53.94 181.051 54.255C180.592 54.4575 180.122 54.8063 179.641 55.3013C178.679 56.2913 177.979 57.6863 177.542 59.4863C177.105 61.2863 176.875 62.5913 176.853 63.4013C176.853 64.4363 177.138 65.2125 177.706 65.73C178.187 66.27 178.821 66.54 179.608 66.54H179.74C182.188 66.54 184.211 65.5838 185.807 63.6713C186.004 63.4463 186.135 63.3338 186.201 63.3338C186.288 63.3338 186.43 63.435 186.627 63.6375C186.824 63.84 186.933 63.9975 186.955 64.11C186.977 64.2225 186.878 64.3913 186.66 64.6163C186.441 64.8413 186.124 65.1563 185.709 65.5613C185.293 65.9663 184.801 66.3038 184.233 66.5738C183.664 66.8438 182.965 67.125 182.134 67.4175C181.303 67.71 180.428 67.8338 179.51 67.7888C177.87 67.7888 176.547 67.2488 175.541 66.1688C174.536 65.0888 174.022 63.7163 174 62.0513Z" fill="#D9EBFF"/>
<path d="M192.038 58.7082L191.736 58.8275C191.52 58.907 191.211 58.9865 190.809 59.0661C190.407 59.1456 189.959 59.2013 189.464 59.2331H189.023V58.1355H189.464C190.191 58.1037 190.863 57.9844 191.481 57.7776C192.1 57.5708 192.533 57.3799 192.78 57.2049C193.027 57.0299 193.244 56.8549 193.429 56.6799C193.46 56.6322 193.553 56.6084 193.707 56.6084C193.846 56.6084 193.978 56.6561 194.102 56.7515V63.8861L194.125 71.0445C194.233 71.1558 194.326 71.2274 194.403 71.2592C194.48 71.291 194.666 71.3228 194.959 71.3547C195.253 71.3865 195.732 71.4024 196.397 71.4024H197V72.5H196.745C196.42 72.4523 195.191 72.4284 193.058 72.4284C190.956 72.4284 189.742 72.4523 189.418 72.5H189.139V71.4024H189.742C190.082 71.4024 190.376 71.4024 190.623 71.4024C190.871 71.4024 191.064 71.3944 191.203 71.3785C191.342 71.3626 191.466 71.3387 191.574 71.3069C191.682 71.2751 191.744 71.2592 191.76 71.2592C191.775 71.2592 191.821 71.2194 191.899 71.1399C191.976 71.0604 192.022 71.0286 192.038 71.0445V58.7082Z" fill="#D9EBFF"/>
<path d="M409 35.0513C409 32.5988 409.92 30.3938 411.759 28.4363C413.599 26.4788 415.588 25.5 417.727 25.5C418.925 25.5 419.866 25.77 420.551 26.31C421.235 26.85 421.588 27.5588 421.61 28.4363C421.61 29.0888 421.406 29.64 421 30.09C420.594 30.54 420.08 30.7763 419.46 30.7988C419.053 30.7988 418.733 30.6863 418.497 30.4613C418.262 30.2363 418.144 29.8988 418.144 29.4488C418.144 28.9988 418.262 28.6163 418.497 28.3013C418.733 27.9863 418.968 27.75 419.203 27.5925C419.438 27.435 419.588 27.3675 419.652 27.39H419.684C419.684 27.345 419.62 27.2775 419.492 27.1875C419.364 27.0975 419.139 27.0075 418.818 26.9175C418.497 26.8275 418.134 26.7825 417.727 26.7825C417.086 26.7825 416.476 26.94 415.898 27.255C415.449 27.4575 414.989 27.8063 414.519 28.3013C413.578 29.2913 412.893 30.6863 412.465 32.4863C412.037 34.2863 411.813 35.5913 411.791 36.4013C411.791 37.4363 412.07 38.2125 412.626 38.73C413.096 39.27 413.717 39.54 414.487 39.54H414.615C417.011 39.54 418.989 38.5838 420.551 36.6713C420.743 36.4463 420.872 36.3338 420.936 36.3338C421.021 36.3338 421.16 36.435 421.353 36.6375C421.545 36.84 421.652 36.9975 421.674 37.11C421.695 37.2225 421.599 37.3913 421.385 37.6163C421.171 37.8413 420.861 38.1563 420.455 38.5613C420.048 38.9663 419.567 39.3038 419.011 39.5738C418.455 39.8438 417.77 40.125 416.957 40.4175C416.144 40.71 415.289 40.8338 414.39 40.7888C412.786 40.7888 411.492 40.2488 410.508 39.1688C409.524 38.0888 409.021 36.7163 409 35.0513Z" fill="#D9EBFF"/>
<path d="M424.287 35.2635C423.879 35.2635 423.554 35.1203 423.312 34.834C423.07 34.5477 422.949 34.1977 422.949 33.7841C422.949 32.6547 423.35 31.6763 424.151 30.8492C424.953 30.022 425.951 29.6084 427.146 29.6084C428.522 29.6084 429.671 30.0538 430.594 30.9446C431.516 31.8354 431.985 32.9887 432 34.4045C432 35.0885 431.849 35.7407 431.546 36.3611C431.244 36.9815 430.881 37.5224 430.457 37.9837C430.034 38.445 429.429 39.0336 428.643 39.7494C428.098 40.2426 427.342 40.9743 426.374 41.9447L425.036 43.2809L426.76 43.3048C429.134 43.3048 430.397 43.265 430.548 43.1855C430.654 43.1536 430.836 42.4458 431.093 41.0618V40.9902H432V41.0618C431.985 41.1095 431.887 41.8333 431.705 43.2332C431.524 44.633 431.41 45.3648 431.365 45.4284V45.5H422.949V44.7603C422.949 44.6489 422.994 44.5296 423.085 44.4024C423.176 44.2751 423.403 43.9967 423.766 43.5672C424.204 43.0582 424.582 42.6128 424.9 42.231C425.036 42.0719 425.293 41.7776 425.671 41.3481C426.049 40.9186 426.306 40.6243 426.442 40.4653C426.578 40.3062 426.798 40.0437 427.1 39.6778C427.403 39.312 427.614 39.0415 427.735 38.8666C427.856 38.6916 428.03 38.453 428.257 38.1507C428.484 37.8485 428.643 37.594 428.733 37.3872C428.824 37.1804 428.938 36.9497 429.074 36.6952C429.21 36.4407 429.308 36.1861 429.369 35.9316C429.429 35.6771 429.482 35.4385 429.527 35.2158C429.573 34.9931 429.595 34.7306 429.595 34.4283C429.595 33.4262 429.338 32.5592 428.824 31.8275C428.31 31.0957 427.577 30.7298 426.624 30.7298C426.125 30.7298 425.686 30.8651 425.308 31.1355C424.93 31.4059 424.665 31.6684 424.514 31.9229C424.363 32.1774 424.287 32.3286 424.287 32.3763C424.287 32.3922 424.325 32.4001 424.401 32.4001C424.673 32.4001 424.953 32.5115 425.24 32.7342C425.527 32.9569 425.671 33.3228 425.671 33.8318C425.671 34.2295 425.55 34.5636 425.308 34.834C425.066 35.1044 424.726 35.2476 424.287 35.2635Z" fill="#D9EBFF"/>
</svg>
