<svg width="700" height="130" viewBox="0 0 700 130" fill="none" xmlns="http://www.w3.org/2000/svg">
<rect width="700" height="129" transform="translate(0 0.5)" fill="#0A0D12"/>
<path d="M450 126.5H250L250 26.5H450V126.5Z" fill="#0E4559" stroke="#B3BFD8" stroke-width="2"/>
<circle cx="350" cy="76.5" r="5" fill="#EB5757"/>
<path d="M424 3.5C424 2.94771 423.552 2.5 423 2.5L414 2.5C413.448 2.5 413 2.94771 413 3.5C413 4.05228 413.448 4.5 414 4.5L422 4.5L422 12.5C422 13.0523 422.448 13.5 423 13.5C423.552 13.5 424 13.0523 424 12.5L424 3.5ZM350.707 77.2071L423.707 4.2071L422.293 2.79289L349.293 75.7929L350.707 77.2071Z" fill="#EB5757"/>
</svg>
