<svg width="700" height="133" viewBox="0 0 700 133" fill="none" xmlns="http://www.w3.org/2000/svg">
<rect width="700" height="132" transform="translate(0 0.5)" fill="#0A0D12"/>
<path d="M450 127.5H250L250 27.5H450V127.5Z" fill="#0E4559" stroke="#B3BFD8" stroke-width="2"/>
<path d="M302.355 112.566L267 77.2109L302.355 41.8556L337.711 77.2109L302.355 112.566Z" fill="#0E4559" stroke="#B3BFD8" stroke-width="2"/>
<circle cx="303" cy="77.5" r="5" fill="#EB5757"/>
<path d="M377 4.5C377 3.94771 376.552 3.5 376 3.5L367 3.5C366.448 3.5 366 3.94771 366 4.5C366 5.05228 366.448 5.5 367 5.5L375 5.5L375 13.5C375 14.0523 375.448 14.5 376 14.5C376.552 14.5 377 14.0523 377 13.5L377 4.5ZM303.707 78.2071L376.707 5.2071L375.293 3.79289L302.293 76.7929L303.707 78.2071Z" fill="#EB5757"/>
</svg>
