<svg width="700" height="132" viewBox="0 0 700 132" fill="none" xmlns="http://www.w3.org/2000/svg">
<rect width="700" height="131" transform="translate(0 0.5)" fill="#0A0D12"/>
<path d="M450 126.5H250L250 26.5H450V126.5Z" fill="#0E4559" stroke="#B3BFD8" stroke-width="2"/>
<path d="M389.743 76.5L359 45.5H428.5L397.757 76.5L428.5 107.5H359L389.743 76.5Z" fill="#0A0D12" stroke="#B3BFD8" stroke-width="2"/>
<circle cx="395" cy="60.5" r="5" fill="#EB5757"/>
<path d="M451 5.5C451 4.94771 450.552 4.5 450 4.5L441 4.5C440.448 4.5 440 4.94772 440 5.5C440 6.05229 440.448 6.5 441 6.5L449 6.5L449 14.5C449 15.0523 449.448 15.5 450 15.5C450.552 15.5 451 15.0523 451 14.5L451 5.5ZM395.707 61.2071L450.707 6.20711L449.293 4.79289L394.293 59.7929L395.707 61.2071Z" fill="#EB5757"/>
</svg>
