<svg width="700" height="218" viewBox="0 0 700 218" fill="none" xmlns="http://www.w3.org/2000/svg">
<rect width="700" height="217" transform="translate(0 0.5)" fill="#0A0D12"/>
<path d="M532 209.5H132L132 9.5H532V209.5Z" fill="#0E4559" stroke="#B3BFD8" stroke-width="2"/>
<circle cx="132" cy="9.5" r="5" fill="black" stroke="#D9EBFF" stroke-width="2"/>
<circle cx="532" cy="9.5" r="5" fill="black" stroke="#D9EBFF" stroke-width="2"/>
<circle cx="532" cy="209.5" r="5" fill="black" stroke="#D9EBFF" stroke-width="2"/>
<circle cx="132" cy="209.5" r="5" fill="black" stroke="#D9EBFF" stroke-width="2"/>
<path d="M411.487 109.5L350 47.5H489L427.513 109.5L489 171.5H350L411.487 109.5Z" fill="#0A0D12"/>
<circle cx="411" cy="109.5" r="5" fill="black" stroke="#D9EBFF" stroke-width="2"/>
<circle cx="428" cy="109.5" r="5" fill="black" stroke="#D9EBFF" stroke-width="2"/>
<path d="M198.5 99.5L231.5 66.5L264.5 99.5H198.5Z" fill="#0A0D12" stroke="#B3BFD8" stroke-width="2"/>
<path d="M264.5 119.5L231.5 152.5L198.5 119.5L264.5 119.5Z" fill="#0E4559" stroke="#B3BFD8" stroke-width="2"/>
<path d="M410.5 81.5H428L445.5 64H393L410.5 81.5Z" fill="#0E4559" stroke="#B3BFD8" stroke-width="2"/>
<circle cx="411" cy="81.5" r="5" fill="black" stroke="#D9EBFF" stroke-width="2"/>
<circle cx="393" cy="64.5" r="5" fill="black" stroke="#D9EBFF" stroke-width="2"/>
<circle cx="231.5" cy="151.5" r="5" fill="black" stroke="#D9EBFF" stroke-width="2"/>
<circle cx="231.5" cy="67.5" r="5" fill="black" stroke="#D9EBFF" stroke-width="2"/>
<circle cx="265" cy="99.5" r="5" fill="black" stroke="#D9EBFF" stroke-width="2"/>
<circle cx="199" cy="99.5" r="5" fill="black" stroke="#D9EBFF" stroke-width="2"/>
<circle cx="199" cy="119.5" r="5" fill="black" stroke="#D9EBFF" stroke-width="2"/>
<circle cx="265" cy="119.5" r="5" fill="black" stroke="#D9EBFF" stroke-width="2"/>
<circle cx="428" cy="81.5" r="5" fill="black" stroke="#D9EBFF" stroke-width="2"/>
<circle cx="446" cy="64.5" r="5" fill="black" stroke="#D9EBFF" stroke-width="2"/>
<path d="M428 158V128.5L457.5 158H428Z" stroke="#B3BFD8" stroke-width="2"/>
<circle cx="428" cy="128.5" r="5" fill="black" stroke="#D9EBFF" stroke-width="2"/>
<circle cx="428" cy="158.5" r="5" fill="black" stroke="#D9EBFF" stroke-width="2"/>
<circle cx="458" cy="158.5" r="5" fill="black" stroke="#D9EBFF" stroke-width="2"/>
<path d="M411 158.5V128.5L382 158.5H411Z" fill="#0E4559" stroke="#B3BFD8" stroke-width="2"/>
<circle cx="4" cy="4" r="5" transform="matrix(-1 0 0 1 415 124.5)" fill="black" stroke="#D9EBFF" stroke-width="2"/>
<circle cx="4" cy="4" r="5" transform="matrix(-1 0 0 1 415 154.5)" fill="black" stroke="#D9EBFF" stroke-width="2"/>
<circle cx="4" cy="4" r="5" transform="matrix(-1 0 0 1 385 154.5)" fill="black" stroke="#D9EBFF" stroke-width="2"/>
<path d="M187 69.807C187 67.4172 187.952 65.2686 189.857 63.3612C191.761 61.4537 193.821 60.5 196.035 60.5C197.276 60.5 198.25 60.7631 198.959 61.2893C199.667 61.8155 200.033 62.5061 200.055 63.3612C200.055 63.997 199.844 64.5341 199.424 64.9726C199.003 65.4111 198.471 65.6413 197.829 65.6632C197.408 65.6632 197.076 65.5536 196.833 65.3344C196.589 65.1151 196.467 64.7863 196.467 64.3478C196.467 63.9093 196.589 63.5366 196.833 63.2296C197.076 62.9227 197.32 62.6925 197.563 62.539C197.807 62.3855 197.962 62.3197 198.029 62.3417H198.062C198.062 62.2978 197.995 62.232 197.862 62.1443C197.73 62.0566 197.497 61.9689 197.165 61.8812C196.833 61.7936 196.456 61.7497 196.035 61.7497C195.371 61.7497 194.74 61.9032 194.142 62.2101C193.677 62.4074 193.201 62.7473 192.714 63.2296C191.739 64.1943 191.031 65.5536 190.588 67.3076C190.145 69.0616 189.912 70.3332 189.89 71.1225C189.89 72.131 190.178 72.8874 190.754 73.3917C191.241 73.9179 191.883 74.1809 192.68 74.1809H192.813C195.294 74.1809 197.342 73.2492 198.959 71.3856C199.158 71.1663 199.291 71.0567 199.357 71.0567C199.446 71.0567 199.59 71.1554 199.789 71.3527C199.988 71.55 200.099 71.7035 200.121 71.8131C200.143 71.9227 200.044 72.0871 199.822 72.3064C199.601 72.5256 199.28 72.8326 198.859 73.2272C198.438 73.6219 197.94 73.9507 197.364 74.2138C196.788 74.4769 196.08 74.751 195.238 75.036C194.397 75.321 193.511 75.4416 192.581 75.3978C190.92 75.3978 189.58 74.8716 188.561 73.8192C187.543 72.7668 187.022 71.4294 187 69.807Z" fill="#D9EBFF"/>
<path d="M203.25 69.2232C202.827 69.2232 202.498 69.0915 202.263 68.828C202.029 68.5645 201.903 68.2235 201.888 67.8049C201.888 66.9524 202.263 66.1929 203.015 65.5263C203.766 64.8598 204.675 64.5265 205.739 64.5265C206.287 64.5265 206.632 64.5343 206.773 64.5498C207.931 64.7358 208.816 65.1466 209.426 65.7821C210.037 66.4176 210.35 67.1074 210.366 67.8514C210.366 68.6575 210.1 69.4403 209.567 70.1998C209.035 70.9593 208.299 71.5096 207.36 71.8506L207.289 71.8971C207.289 71.9126 207.36 71.9359 207.501 71.9669C207.642 71.9979 207.869 72.0676 208.182 72.1761C208.495 72.2846 208.792 72.4474 209.074 72.6644C210.358 73.4859 211 74.571 211 75.9195C211 77.1441 210.515 78.2136 209.544 79.1282C208.573 80.0427 207.344 80.5 205.857 80.5C204.604 80.5 203.524 80.1667 202.616 79.5002C201.708 78.8337 201.254 77.9889 201.254 76.9658C201.254 76.5318 201.394 76.1831 201.676 75.9195C201.958 75.656 202.31 75.5165 202.733 75.501C203.172 75.501 203.532 75.6405 203.813 75.9195C204.095 76.1986 204.236 76.5473 204.236 76.9658C204.236 77.1363 204.213 77.2914 204.166 77.4309C204.119 77.5704 204.064 77.6944 204.001 77.8029C203.939 77.9114 203.853 78.0044 203.743 78.0819C203.633 78.1594 203.539 78.2214 203.461 78.2679C203.383 78.3144 203.305 78.3454 203.226 78.3609C203.148 78.3764 203.085 78.3997 203.038 78.4307L202.944 78.4539C203.743 79.1514 204.714 79.5002 205.857 79.5002C206.718 79.5002 207.368 79.0894 207.806 78.2679C208.072 77.7564 208.205 76.9736 208.205 75.9195V75.4545C208.205 73.982 207.704 72.9977 206.702 72.5016C206.467 72.4086 205.99 72.3544 205.27 72.3389L204.283 72.3156L204.213 72.2691C204.181 72.2226 204.166 72.0986 204.166 71.8971C204.166 71.6181 204.228 71.4786 204.354 71.4786C204.792 71.4786 205.246 71.4398 205.716 71.3623C206.248 71.2848 206.733 70.9593 207.172 70.3858C207.61 69.8123 207.829 68.9442 207.829 67.7817V67.5957C207.829 66.7121 207.555 66.0999 207.007 65.7588C206.663 65.5418 206.295 65.4333 205.904 65.4333C205.403 65.4333 204.941 65.5186 204.518 65.6891C204.095 65.8596 203.798 66.0379 203.626 66.2239C203.453 66.4099 203.367 66.5029 203.367 66.5029H203.438C203.485 66.5184 203.547 66.5339 203.626 66.5494C203.704 66.5649 203.782 66.6036 203.86 66.6656C203.939 66.7276 204.033 66.7819 204.142 66.8284C204.252 66.8749 204.33 66.9601 204.377 67.0842C204.424 67.2082 204.487 67.3244 204.565 67.4329C204.643 67.5414 204.667 67.6964 204.635 67.8979C204.635 68.239 204.526 68.5412 204.307 68.8047C204.087 69.0682 203.735 69.2077 203.25 69.2232Z" fill="#D9EBFF"/>
<path d="M187 149.574C187 147.244 187.979 145.149 189.936 143.289C191.893 141.43 194.009 140.5 196.285 140.5C197.559 140.5 198.56 140.757 199.289 141.27C200.017 141.783 200.392 142.456 200.415 143.289C200.415 143.909 200.199 144.433 199.766 144.861C199.334 145.288 198.788 145.512 198.128 145.534C197.696 145.534 197.354 145.427 197.104 145.213C196.854 144.999 196.728 144.679 196.728 144.251C196.728 143.824 196.854 143.46 197.104 143.161C197.354 142.862 197.605 142.638 197.855 142.488C198.105 142.338 198.265 142.274 198.333 142.296H198.367C198.367 142.253 198.299 142.189 198.162 142.103C198.026 142.018 197.787 141.932 197.445 141.847C197.104 141.761 196.717 141.718 196.285 141.718C195.602 141.718 194.953 141.868 194.339 142.167C193.861 142.36 193.372 142.691 192.871 143.161C191.87 144.102 191.142 145.427 190.687 147.137C190.231 148.847 189.992 150.087 189.97 150.856C189.97 151.839 190.266 152.577 190.857 153.069C191.358 153.582 192.018 153.838 192.837 153.838H192.974C195.522 153.838 197.627 152.93 199.289 151.113C199.493 150.899 199.63 150.792 199.698 150.792C199.789 150.792 199.937 150.888 200.142 151.081C200.347 151.273 200.461 151.423 200.483 151.53C200.506 151.636 200.404 151.797 200.176 152.01C199.949 152.224 199.619 152.523 199.186 152.908C198.754 153.293 198.242 153.614 197.65 153.87C197.058 154.127 196.33 154.394 195.465 154.672C194.601 154.95 193.69 155.067 192.735 155.024C191.028 155.024 189.651 154.511 188.604 153.485C187.558 152.459 187.023 151.155 187 149.574Z" fill="#D9EBFF"/>
<path d="M211.783 159.5C211.493 159.455 210.455 159.432 208.67 159.432C206.803 159.432 205.725 159.455 205.436 159.5H205.219V158.457H205.967C206.288 158.457 206.506 158.457 206.618 158.457C206.731 158.457 206.868 158.442 207.029 158.412C207.189 158.382 207.302 158.344 207.366 158.299C207.431 158.253 207.487 158.193 207.535 158.117C207.551 158.087 207.559 157.679 207.559 156.893V155.76H201.309V154.717L204.953 149.481C207.415 145.975 208.662 144.214 208.694 144.199C208.726 144.169 208.895 144.154 209.201 144.154H209.635L209.78 144.29V154.717H212V155.76H209.78V156.916C209.78 157.535 209.78 157.898 209.78 158.004C209.78 158.11 209.828 158.2 209.925 158.276C210.053 158.382 210.512 158.442 211.3 158.457H212V159.5H211.783ZM207.704 154.717V147.146L202.419 154.694L205.05 154.717H207.704Z" fill="#D9EBFF"/>
<path d="M408 31.807C408 29.4172 408.96 27.2686 410.879 25.3612C412.799 23.4537 414.875 22.5 417.107 22.5C418.357 22.5 419.339 22.7631 420.053 23.2893C420.767 23.8155 421.136 24.5061 421.158 25.3612C421.158 25.997 420.946 26.5341 420.522 26.9726C420.098 27.4111 419.562 27.6413 418.915 27.6632C418.491 27.6632 418.156 27.5536 417.91 27.3344C417.665 27.1151 417.542 26.7863 417.542 26.3478C417.542 25.9093 417.665 25.5366 417.91 25.2296C418.156 24.9227 418.401 24.6925 418.647 24.539C418.892 24.3855 419.049 24.3197 419.116 24.3417H419.149C419.149 24.2978 419.082 24.232 418.948 24.1443C418.814 24.0566 418.58 23.9689 418.245 23.8812C417.91 23.7936 417.531 23.7497 417.107 23.7497C416.437 23.7497 415.801 23.9032 415.198 24.2101C414.73 24.4074 414.25 24.7473 413.759 25.2296C412.777 26.1943 412.062 27.5536 411.616 29.3076C411.169 31.0616 410.935 32.3332 410.913 33.1225C410.913 34.131 411.203 34.8874 411.783 35.3917C412.274 35.9179 412.922 36.1809 413.725 36.1809H413.859C416.359 36.1809 418.424 35.2492 420.053 33.3856C420.254 33.1663 420.388 33.0567 420.455 33.0567C420.544 33.0567 420.689 33.1554 420.89 33.3527C421.091 33.55 421.203 33.7035 421.225 33.8131C421.247 33.9227 421.147 34.0871 420.923 34.3064C420.7 34.5256 420.377 34.8326 419.953 35.2272C419.528 35.6219 419.026 35.9507 418.446 36.2138C417.866 36.4769 417.151 36.751 416.303 37.036C415.455 37.321 414.562 37.4416 413.625 37.3978C411.951 37.3978 410.6 36.8716 409.574 35.8192C408.547 34.7668 408.022 33.4294 408 31.807Z" fill="#D9EBFF"/>
<path d="M425.254 38.3381C425.254 38.7101 425.128 39.0201 424.875 39.2681C424.623 39.5161 424.315 39.6401 423.952 39.6401H423.786C424.512 40.8647 425.475 41.477 426.674 41.477C427.779 41.477 428.584 41.0119 429.088 40.0819C429.388 39.5704 429.538 38.5783 429.538 37.1058C429.538 35.5092 429.325 34.4319 428.899 33.8739C428.489 33.3623 428.031 33.1066 427.526 33.1066H427.384C426.153 33.1066 425.222 33.6336 424.591 34.6877C424.528 34.7962 424.473 34.8582 424.425 34.8737C424.378 34.8892 424.26 34.9047 424.07 34.9202C423.802 34.9202 423.652 34.8737 423.621 34.7807C423.589 34.7187 423.573 33.3623 423.573 30.7117V27.7123C423.573 26.9373 423.613 26.5498 423.692 26.5498C423.723 26.5188 423.755 26.5033 423.786 26.5033C423.802 26.5033 423.968 26.5653 424.283 26.6893C424.599 26.8133 425.033 26.9373 425.585 27.0613C426.138 27.1853 426.729 27.2473 427.361 27.2473C428.481 27.2473 429.554 27.0303 430.58 26.5963C430.706 26.5343 430.809 26.5033 430.887 26.5033C431.014 26.5033 431.077 26.6428 431.077 26.9218V27.2241C429.783 28.7276 428.165 29.4794 426.224 29.4794C425.735 29.4794 425.293 29.4329 424.899 29.3399L424.662 29.2934V33.2926C424.962 33.0756 425.199 32.9051 425.372 32.7811C425.546 32.6571 425.83 32.5331 426.224 32.4091C426.619 32.285 427.021 32.223 427.432 32.223C428.71 32.223 429.791 32.7268 430.674 33.7344C431.558 34.7419 432 35.9355 432 37.315C432 38.7411 431.495 39.9579 430.485 40.9654C429.475 41.973 428.244 42.4845 426.792 42.5C425.514 42.5 424.488 42.0815 423.715 41.2444C422.942 40.4074 422.555 39.4619 422.555 38.4078C422.555 38.0358 422.642 37.7413 422.816 37.5243C422.989 37.3073 423.171 37.1678 423.36 37.1058C423.55 37.0438 423.731 37.0128 423.905 37.0128C424.299 37.0128 424.623 37.1445 424.875 37.408C425.128 37.6715 425.254 37.9815 425.254 38.3381Z" fill="#D9EBFF"/>
<path d="M384 186.807C384 184.417 384.953 182.269 386.86 180.361C388.766 178.454 390.828 177.5 393.044 177.5C394.286 177.5 395.261 177.763 395.97 178.289C396.68 178.815 397.045 179.506 397.068 180.361C397.068 180.997 396.857 181.534 396.436 181.973C396.015 182.411 395.483 182.641 394.84 182.663C394.419 182.663 394.086 182.554 393.842 182.334C393.598 182.115 393.477 181.786 393.477 181.348C393.477 180.909 393.598 180.537 393.842 180.23C394.086 179.923 394.33 179.692 394.574 179.539C394.818 179.386 394.973 179.32 395.039 179.342H395.073C395.073 179.298 395.006 179.232 394.873 179.144C394.74 179.057 394.507 178.969 394.175 178.881C393.842 178.794 393.465 178.75 393.044 178.75C392.379 178.75 391.747 178.903 391.149 179.21C390.683 179.407 390.207 179.747 389.719 180.23C388.744 181.194 388.034 182.554 387.591 184.308C387.148 186.062 386.915 187.333 386.893 188.122C386.893 189.131 387.181 189.887 387.757 190.392C388.245 190.918 388.888 191.181 389.686 191.181H389.819C392.302 191.181 394.352 190.249 395.97 188.386C396.17 188.166 396.303 188.057 396.369 188.057C396.458 188.057 396.602 188.155 396.802 188.353C397.001 188.55 397.112 188.703 397.134 188.813C397.156 188.923 397.057 189.087 396.835 189.306C396.613 189.526 396.292 189.833 395.871 190.227C395.449 190.622 394.951 190.951 394.374 191.214C393.798 191.477 393.089 191.751 392.246 192.036C391.404 192.321 390.517 192.442 389.586 192.398C387.924 192.398 386.582 191.872 385.563 190.819C384.543 189.767 384.022 188.429 384 186.807Z" fill="#D9EBFF"/>
<path d="M398.267 189.711C398.267 187.184 398.902 185.185 400.172 183.712C401.441 182.24 402.852 181.503 404.403 181.503C405.485 181.503 406.26 181.782 406.731 182.34C407.201 182.898 407.436 183.518 407.436 184.2C407.436 184.588 407.326 184.898 407.107 185.13C406.887 185.363 406.582 185.479 406.19 185.479C405.829 185.479 405.532 185.371 405.297 185.154C405.061 184.937 404.944 184.634 404.944 184.247C404.944 183.565 405.312 183.154 406.049 183.015C405.704 182.674 405.218 182.48 404.591 182.433C403.479 182.433 402.562 182.898 401.841 183.828C401.104 184.851 400.736 186.417 400.736 188.525L400.759 188.618C400.838 188.525 400.9 188.424 400.947 188.316C401.59 187.386 402.428 186.921 403.463 186.921H403.557C404.278 186.921 404.913 187.068 405.461 187.363C405.837 187.58 406.213 187.89 406.589 188.293C406.966 188.696 407.271 189.137 407.506 189.618C407.835 190.377 408 191.207 408 192.106V192.524C408 192.881 407.961 193.214 407.882 193.524C407.71 194.439 407.209 195.33 406.378 196.198C405.547 197.066 404.497 197.5 403.228 197.5C402.789 197.5 402.366 197.438 401.958 197.314C401.551 197.19 401.112 196.957 400.642 196.616C400.172 196.275 399.772 195.818 399.443 195.245C399.114 194.671 398.832 193.919 398.597 192.989C398.362 192.059 398.252 190.966 398.267 189.711ZM403.322 187.758C402.852 187.758 402.444 187.89 402.099 188.153C401.755 188.417 401.488 188.765 401.3 189.199C401.112 189.633 400.979 190.075 400.9 190.525C400.822 190.974 400.775 191.455 400.759 191.966C400.759 193.253 400.853 194.175 401.041 194.733C401.23 195.291 401.527 195.741 401.935 196.082C402.311 196.361 402.726 196.5 403.181 196.5C403.98 196.5 404.591 196.206 405.014 195.617C405.218 195.338 405.359 194.989 405.438 194.57C405.516 194.152 405.555 193.338 405.555 192.129C405.555 190.889 405.516 190.06 405.438 189.641C405.359 189.223 405.218 188.874 405.014 188.595C404.591 188.037 404.027 187.758 403.322 187.758Z" fill="#D9EBFF"/>
<path d="M429 186.807C429 184.417 429.927 182.269 431.781 180.361C433.634 178.454 435.639 177.5 437.794 177.5C439.002 177.5 439.95 177.763 440.64 178.289C441.329 178.815 441.685 179.506 441.707 180.361C441.707 180.997 441.502 181.534 441.092 181.973C440.683 182.411 440.166 182.641 439.54 182.663C439.131 182.663 438.808 182.554 438.57 182.334C438.333 182.115 438.215 181.786 438.215 181.348C438.215 180.909 438.333 180.537 438.57 180.23C438.808 179.923 439.045 179.692 439.282 179.539C439.519 179.386 439.67 179.32 439.734 179.342H439.767C439.767 179.298 439.702 179.232 439.573 179.144C439.443 179.057 439.217 178.969 438.894 178.881C438.57 178.794 438.204 178.75 437.794 178.75C437.148 178.75 436.533 178.903 435.951 179.21C435.499 179.407 435.035 179.747 434.561 180.23C433.613 181.194 432.923 182.554 432.492 184.308C432.061 186.062 431.834 187.333 431.813 188.122C431.813 189.131 432.093 189.887 432.654 190.392C433.128 190.918 433.753 191.181 434.529 191.181H434.658C437.072 191.181 439.066 190.249 440.64 188.386C440.834 188.166 440.963 188.057 441.028 188.057C441.114 188.057 441.254 188.155 441.448 188.353C441.642 188.55 441.75 188.703 441.771 188.813C441.793 188.923 441.696 189.087 441.48 189.306C441.265 189.526 440.952 189.833 440.543 190.227C440.133 190.622 439.648 190.951 439.088 191.214C438.527 191.477 437.838 191.751 437.018 192.036C436.199 192.321 435.337 192.442 434.432 192.398C432.815 192.398 431.511 191.872 430.52 190.819C429.528 189.767 429.022 188.429 429 186.807Z" fill="#D9EBFF"/>
<path d="M443.171 186.34C443.186 186.309 443.315 185.464 443.559 183.805L443.925 181.317C443.925 181.286 444.077 181.271 444.382 181.271H444.839V181.364C444.839 181.519 444.954 181.651 445.182 181.759C445.411 181.868 445.807 181.937 446.371 181.968C446.935 181.999 448.222 182.015 450.234 182.015H453V182.922L451.446 185.084C451.308 185.27 451.08 185.58 450.76 186.014C450.44 186.448 450.234 186.735 450.143 186.874C450.051 187.014 449.891 187.262 449.663 187.618C449.434 187.975 449.282 188.254 449.205 188.455C449.129 188.657 449.023 188.944 448.885 189.316C448.748 189.688 448.649 190.044 448.588 190.385C448.527 190.726 448.466 191.145 448.405 191.641C448.344 192.137 448.299 192.664 448.268 193.222C448.238 193.78 448.215 194.415 448.2 195.128C448.2 195.345 448.2 195.562 448.2 195.779C448.2 195.996 448.192 196.182 448.177 196.337V196.547C448.116 196.81 447.971 197.035 447.742 197.221C447.514 197.407 447.255 197.5 446.965 197.5C446.798 197.5 446.638 197.477 446.485 197.43C446.333 197.384 446.173 197.236 446.005 196.988C445.837 196.74 445.754 196.43 445.754 196.058C445.754 193.609 446.493 191.067 447.971 188.432C448.276 187.936 448.916 186.998 449.891 185.619L450.943 184.154H448.817C446.165 184.154 444.771 184.2 444.634 184.293C444.542 184.34 444.458 184.526 444.382 184.851C444.306 185.177 444.23 185.51 444.154 185.851L444.085 186.34V186.409H443.171V186.34Z" fill="#D9EBFF"/>
<path d="M100 106.807C100 104.417 100.989 102.269 102.967 100.361C104.945 98.4537 107.084 97.5 109.384 97.5C110.672 97.5 111.684 97.7631 112.42 98.2893C113.156 98.8155 113.536 99.5061 113.559 100.361C113.559 100.997 113.34 101.534 112.903 101.973C112.466 102.411 111.914 102.641 111.247 102.663C110.81 102.663 110.465 102.554 110.212 102.334C109.959 102.115 109.833 101.786 109.833 101.348C109.833 100.909 109.959 100.537 110.212 100.23C110.465 99.9227 110.718 99.6925 110.971 99.539C111.224 99.3855 111.385 99.3197 111.454 99.3417H111.489C111.489 99.2978 111.42 99.232 111.282 99.1443C111.144 99.0566 110.902 98.9689 110.557 98.8812C110.212 98.7936 109.821 98.7497 109.384 98.7497C108.694 98.7497 108.039 98.9032 107.418 99.2101C106.935 99.4074 106.44 99.7473 105.934 100.23C104.922 101.194 104.186 102.554 103.726 104.308C103.266 106.062 103.025 107.333 103.002 108.122C103.002 109.131 103.301 109.887 103.899 110.392C104.405 110.918 105.072 111.181 105.9 111.181H106.038C108.614 111.181 110.741 110.249 112.42 108.386C112.627 108.166 112.765 108.057 112.834 108.057C112.926 108.057 113.076 108.155 113.283 108.353C113.49 108.55 113.605 108.703 113.628 108.813C113.651 108.923 113.548 109.087 113.317 109.306C113.087 109.526 112.754 109.833 112.317 110.227C111.88 110.622 111.362 110.951 110.764 111.214C110.166 111.477 109.43 111.751 108.556 112.036C107.682 112.321 106.762 112.442 105.796 112.398C104.071 112.398 102.68 111.872 101.622 110.819C100.564 109.767 100.023 108.429 100 106.807Z" fill="#D9EBFF"/>
<path d="M116.121 103.387C117.032 102.131 118.276 101.503 119.853 101.503C120.634 101.503 121.414 101.705 122.195 102.108C122.975 102.511 123.61 103.224 124.097 104.247C124.699 105.533 125 107.301 125 109.548C125 111.951 124.65 113.788 123.951 115.059C123.626 115.71 123.179 116.229 122.61 116.616C122.04 117.004 121.544 117.244 121.122 117.337C120.699 117.43 120.284 117.484 119.878 117.5C119.455 117.5 119.032 117.453 118.609 117.36C118.186 117.267 117.69 117.019 117.121 116.616C116.552 116.213 116.105 115.694 115.78 115.059C115.08 113.788 114.731 111.951 114.731 109.548C114.731 106.851 115.194 104.797 116.121 103.387ZM121.609 103.108C121.122 102.612 120.544 102.364 119.878 102.364C119.195 102.364 118.609 102.612 118.121 103.108C117.715 103.511 117.446 104.069 117.316 104.782C117.186 105.495 117.121 106.983 117.121 109.246C117.121 111.695 117.186 113.307 117.316 114.082C117.446 114.857 117.739 115.469 118.195 115.919C118.65 116.384 119.211 116.616 119.878 116.616C120.528 116.616 121.081 116.384 121.536 115.919C122.008 115.454 122.301 114.803 122.414 113.966C122.528 113.129 122.593 111.555 122.61 109.246C122.61 106.998 122.544 105.518 122.414 104.805C122.284 104.092 122.016 103.526 121.609 103.108Z" fill="#D9EBFF"/>
</svg>
