<svg width="700" height="127" viewBox="0 0 700 127" fill="none" xmlns="http://www.w3.org/2000/svg">
<rect width="700" height="126" transform="translate(0 0.5)" fill="#0A0D12"/>
<path d="M315 121.5H115L115 21.5H315V121.5Z" fill="#0E4559" stroke="#B3BFD8" stroke-width="2"/>
<path d="M254.743 71.5L224 40.5H293.5L262.757 71.5L293.5 102.5H224L254.743 71.5Z" fill="#0A0D12"/>
<path d="M148.25 66.5L164.75 50L181.25 66.5H148.25Z" fill="#0A0D12" stroke="#B3BFD8" stroke-width="2"/>
<path d="M254.743 71.5L224 40.5H293.5L262.757 71.5L293.5 102.5H224L254.743 71.5Z" fill="#0A0D12" stroke="#B3BFD8" stroke-width="2"/>
<path d="M587 121.5H387L387 21.5H587V121.5Z" fill="#AEB6C0"/>
<path d="M526.743 71.5L496 40.5H565.5L534.757 71.5L565.5 102.5H496L526.743 71.5Z" fill="#0A0D12"/>
<path d="M420.25 66.5L436.75 50L453.25 66.5H420.25Z" fill="#0A0D12"/>
<path d="M526.743 71.5L496 40.5H565.5L534.757 71.5L565.5 102.5H496L526.743 71.5Z" fill="#0A0D12"/>
<circle cx="165" cy="60.5" r="3" fill="#EB5757"/>
<path d="M221 5.5C221 4.94771 220.552 4.5 220 4.5L211 4.5C210.448 4.5 210 4.94772 210 5.5C210 6.05229 210.448 6.5 211 6.5L219 6.5L219 14.5C219 15.0523 219.448 15.5 220 15.5C220.552 15.5 221 15.0523 221 14.5L221 5.5ZM165.707 61.2071L220.707 6.20711L219.293 4.79289L164.293 59.7929L165.707 61.2071Z" fill="#EB5757"/>
</svg>
