<svg width="700" height="134" viewBox="0 0 700 134" fill="none" xmlns="http://www.w3.org/2000/svg">
<rect width="700" height="133" transform="translate(0 0.5)" fill="#0A0D12"/>
<path d="M315 128.5H115L115 28.5H315V128.5Z" fill="#0E4559" stroke="#B3BFD8" stroke-width="2"/>
<path d="M254.743 78.5L224 47.5H293.5L262.757 78.5L293.5 109.5H224L254.743 78.5Z" fill="#0A0D12"/>
<path d="M148.25 73.5L164.75 57L181.25 73.5H148.25Z" fill="#0A0D12" stroke="#B3BFD8" stroke-width="2"/>
<path d="M254.743 78.5L224 47.5H293.5L262.757 78.5L293.5 109.5H224L254.743 78.5Z" fill="#0A0D12" stroke="#B3BFD8" stroke-width="2"/>
<path d="M587 128.5H387L387 28.5H587V128.5Z" fill="#AEB6C0"/>
<path d="M526.743 78.5L496 47.5H565.5L534.757 78.5L565.5 109.5H496L526.743 78.5Z" fill="#0A0D12"/>
<path d="M420.25 73.5L436.75 57L453.25 73.5H420.25Z" fill="#0A0D12"/>
<path d="M526.743 78.5L496 47.5H565.5L534.757 78.5L565.5 109.5H496L526.743 78.5Z" fill="#0A0D12"/>
<path d="M254.422 64.7944H263.001L271.579 56.2158H245.844L254.422 64.7944Z" fill="#0E4559" stroke="#B3BFD8" stroke-width="2"/>
<path d="M254.667 102.539V87.833L240.451 102.539H254.667Z" fill="#0E4559" stroke="#B3BFD8" stroke-width="2"/>
<path d="M525.971 64.7944H534.55L543.128 56.2158H517.393L525.971 64.7944Z" fill="#AEB6C0"/>
<path d="M526.216 103.539V88.833L512 103.539H526.216Z" fill="#AEB6C0"/>
<circle cx="260" cy="60.5" r="3" fill="#EB5757"/>
<path d="M316 5.5C316 4.94771 315.552 4.5 315 4.5L306 4.5C305.448 4.5 305 4.94772 305 5.5C305 6.05229 305.448 6.5 306 6.5L314 6.5L314 14.5C314 15.0523 314.448 15.5 315 15.5C315.552 15.5 316 15.0523 316 14.5L316 5.5ZM260.707 61.2071L315.707 6.20711L314.293 4.79289L259.293 59.7929L260.707 61.2071Z" fill="#EB5757"/>
</svg>
