<svg width="700" height="263" viewBox="0 0 700 263" fill="none" xmlns="http://www.w3.org/2000/svg">
<g clip-path="url(#clip0_219_1233)">
<rect width="700" height="262" transform="translate(0 0.5)" fill="#0A0D12"/>
<path d="M400 60.5L300 60.5L300 160.5L400 160.5L400 60.5ZM400 60.5L449.5 11M250 210.5H450V10.5H250L250 210.5Z" stroke="#B3BFD8" stroke-width="2"/>
<path d="M400 60.5L449.5 11" stroke="#EB5757" stroke-width="2"/>
<path d="M450 210.5H250L250 10.5H450V210.5Z" stroke="#20C831" stroke-width="2"/>
<circle cx="250" cy="10.5" r="5" fill="black" stroke="#D9EBFF" stroke-width="2"/>
<circle cx="299.656" cy="60.1569" r="5" transform="rotate(45 299.656 60.1569)" fill="black" stroke="#D9EBFF" stroke-width="2"/>
<circle cx="450" cy="10.5" r="5" fill="black" stroke="#D9EBFF" stroke-width="2"/>
<circle cx="399.656" cy="60.1569" r="5" transform="rotate(45 399.656 60.1569)" fill="black" stroke="#D9EBFF" stroke-width="2"/>
<circle cx="250" cy="210.5" r="5" fill="black" stroke="#D9EBFF" stroke-width="2"/>
<circle cx="299.656" cy="160.157" r="5" transform="rotate(45 299.656 160.157)" fill="black" stroke="#D9EBFF" stroke-width="2"/>
<circle cx="450" cy="210.5" r="5" fill="black" stroke="#D9EBFF" stroke-width="2"/>
<circle cx="399.656" cy="160.157" r="5" transform="rotate(45 399.656 160.157)" fill="black" stroke="#D9EBFF" stroke-width="2"/>
<path d="M275 248.352C275 246.834 275.599 245.468 276.797 244.256C277.996 243.044 279.292 242.437 280.685 242.437C281.465 242.437 282.078 242.605 282.524 242.939C282.97 243.273 283.2 243.712 283.214 244.256C283.214 244.66 283.082 245.001 282.817 245.28C282.552 245.559 282.218 245.705 281.814 245.719C281.549 245.719 281.34 245.649 281.187 245.51C281.033 245.371 280.957 245.162 280.957 244.883C280.957 244.604 281.033 244.367 281.187 244.172C281.34 243.977 281.493 243.831 281.646 243.733C281.8 243.636 281.897 243.594 281.939 243.608H281.96C281.96 243.58 281.918 243.538 281.835 243.482C281.751 243.427 281.605 243.371 281.396 243.315C281.187 243.26 280.95 243.232 280.685 243.232C280.267 243.232 279.87 243.329 279.494 243.524C279.201 243.65 278.901 243.866 278.595 244.172C277.982 244.785 277.536 245.649 277.257 246.764C276.979 247.879 276.832 248.687 276.818 249.188C276.818 249.829 277 250.31 277.362 250.631C277.668 250.965 278.072 251.132 278.574 251.132H278.658C280.218 251.132 281.507 250.54 282.524 249.356C282.65 249.216 282.733 249.147 282.775 249.147C282.831 249.147 282.921 249.209 283.047 249.335C283.172 249.46 283.242 249.558 283.256 249.627C283.27 249.697 283.207 249.801 283.068 249.941C282.928 250.08 282.726 250.275 282.462 250.526C282.197 250.777 281.883 250.986 281.521 251.153C281.159 251.32 280.713 251.494 280.183 251.676C279.654 251.857 279.097 251.933 278.511 251.906C277.466 251.906 276.623 251.571 275.982 250.902C275.341 250.233 275.014 249.383 275 248.352Z" fill="#D9EBFF"/>
<path d="M283.778 245.677C283.792 245.635 283.806 245.58 283.82 245.51C283.834 245.44 283.869 245.287 283.925 245.05C283.98 244.813 284.05 244.597 284.134 244.402C284.217 244.207 284.322 243.977 284.447 243.712C284.573 243.448 284.712 243.239 284.865 243.085C285.018 242.932 285.2 242.779 285.409 242.626C285.618 242.472 285.848 242.41 286.098 242.437C286.502 242.437 286.858 242.521 287.164 242.688C287.471 242.855 287.687 243.009 287.812 243.148C287.938 243.287 288.014 243.427 288.042 243.566C288.07 243.65 288.091 243.691 288.105 243.691C288.119 243.691 288.174 243.643 288.272 243.545C288.941 242.821 289.714 242.458 290.592 242.458H290.655C291.324 242.458 291.825 242.744 292.16 243.315C292.271 243.58 292.327 243.838 292.327 244.089C292.327 244.507 292.236 244.841 292.055 245.092C291.874 245.343 291.693 245.503 291.512 245.573C291.33 245.642 291.156 245.67 290.989 245.656C290.71 245.656 290.487 245.58 290.32 245.426C290.153 245.273 290.069 245.071 290.069 244.82C290.069 244.151 290.46 243.705 291.24 243.482C290.933 243.301 290.683 243.211 290.487 243.211C289.707 243.211 288.99 243.726 288.335 244.757C288.195 244.98 288.091 245.21 288.021 245.447C287.952 245.684 287.715 246.611 287.311 248.227C286.837 250.178 286.565 251.216 286.495 251.341C286.314 251.717 286.015 251.906 285.597 251.906C285.416 251.906 285.269 251.864 285.158 251.78C285.046 251.697 284.97 251.613 284.928 251.529C284.886 251.446 284.872 251.376 284.886 251.32C284.886 251.139 285.165 249.941 285.722 247.725C286.279 245.51 286.558 244.277 286.558 244.026C286.558 243.482 286.377 243.211 286.015 243.211C285.722 243.211 285.471 243.406 285.262 243.796C285.053 244.186 284.886 244.611 284.761 245.071C284.635 245.531 284.559 245.782 284.531 245.823C284.503 245.851 284.391 245.865 284.196 245.865H283.904C283.82 245.782 283.778 245.719 283.778 245.677Z" fill="#D9EBFF"/>
<path d="M296.988 251.906C295.943 251.906 295.1 251.564 294.459 250.881C293.818 250.199 293.497 249.377 293.497 248.415C293.497 247.509 293.706 246.652 294.124 245.844C294.542 245.036 295.114 244.332 295.838 243.733C296.897 242.883 297.977 242.458 299.078 242.458C299.524 242.458 299.802 242.465 299.914 242.479C300.095 242.521 300.276 242.57 300.457 242.626C300.638 242.681 300.882 242.793 301.189 242.96C301.495 243.127 301.746 243.336 301.941 243.587C302.136 243.838 302.317 244.179 302.485 244.611C302.652 245.043 302.735 245.531 302.735 246.074C302.735 247.565 302.136 248.91 300.938 250.108C299.74 251.306 298.423 251.906 296.988 251.906ZM295.316 249.168C295.316 249.864 295.497 250.366 295.859 250.672C296.221 250.979 296.632 251.132 297.092 251.132C297.705 251.132 298.283 250.909 298.827 250.463C299.37 250.017 299.802 249.432 300.123 248.708C300.248 248.415 300.408 247.9 300.603 247.161C300.799 246.423 300.896 245.782 300.896 245.238C300.896 244.625 300.771 244.158 300.52 243.838C300.185 243.42 299.74 243.211 299.182 243.211C298.304 243.211 297.531 243.615 296.862 244.423C296.347 245.036 295.964 245.851 295.713 246.868C295.462 247.886 295.33 248.652 295.316 249.168Z" fill="#D9EBFF"/>
<path d="M305.661 245.635C305.661 245.189 305.773 244.737 305.996 244.277C306.219 243.817 306.609 243.392 307.166 243.002C307.724 242.612 308.399 242.424 309.194 242.437C310.058 242.437 310.685 242.626 311.075 243.002C311.465 243.378 311.667 243.796 311.681 244.256C311.681 244.702 311.562 245.029 311.326 245.238C311.089 245.447 310.824 245.559 310.531 245.573C310.35 245.573 310.183 245.517 310.03 245.405C309.876 245.294 309.793 245.113 309.779 244.862C309.779 244.639 309.842 244.444 309.967 244.277C310.092 244.11 310.211 243.984 310.322 243.901C310.434 243.817 310.524 243.775 310.594 243.775C310.608 243.775 310.615 243.768 310.615 243.754C310.615 243.712 310.566 243.65 310.469 243.566C310.371 243.482 310.197 243.406 309.946 243.336C309.695 243.267 309.424 243.225 309.131 243.211C308.462 243.211 307.974 243.392 307.668 243.754C307.361 244.116 307.201 244.486 307.187 244.862C307.187 245.21 307.32 245.454 307.584 245.593C307.849 245.733 308.232 245.851 308.734 245.949C309.236 246.046 309.598 246.151 309.821 246.262C310.74 246.666 311.2 247.335 311.2 248.269C311.2 248.659 311.124 249.049 310.97 249.439C310.817 249.829 310.587 250.22 310.281 250.61C309.974 251 309.535 251.306 308.964 251.529C308.393 251.752 307.738 251.871 306.999 251.885C305.926 251.885 305.167 251.683 304.721 251.278C304.275 250.874 304.045 250.401 304.031 249.857C304.031 249.314 304.178 248.924 304.47 248.687C304.763 248.45 305.069 248.331 305.39 248.331C305.599 248.331 305.794 248.394 305.975 248.52C306.156 248.645 306.254 248.861 306.268 249.168C306.268 249.53 306.142 249.836 305.891 250.087C305.641 250.338 305.425 250.463 305.243 250.463C305.216 250.477 305.195 250.484 305.181 250.484C305.167 250.484 305.16 250.498 305.16 250.526C305.174 250.568 305.23 250.624 305.327 250.693C305.425 250.763 305.641 250.854 305.975 250.965C306.309 251.076 306.693 251.125 307.125 251.111C307.626 251.111 308.058 251.035 308.42 250.881C308.783 250.728 309.047 250.533 309.215 250.296C309.382 250.059 309.5 249.843 309.57 249.648C309.64 249.453 309.674 249.279 309.674 249.126C309.674 248.736 309.528 248.443 309.236 248.248C308.943 248.053 308.608 247.934 308.232 247.893C307.856 247.851 307.445 247.746 306.999 247.579C306.553 247.412 306.226 247.168 306.017 246.848C305.78 246.499 305.661 246.095 305.661 245.635Z" fill="#D9EBFF"/>
<path d="M315.485 245.635C315.485 245.189 315.596 244.737 315.819 244.277C316.042 243.817 316.432 243.392 316.99 243.002C317.547 242.612 318.223 242.424 319.017 242.437C319.881 242.437 320.508 242.626 320.898 243.002C321.288 243.378 321.49 243.796 321.504 244.256C321.504 244.702 321.386 245.029 321.149 245.238C320.912 245.447 320.647 245.559 320.355 245.573C320.174 245.573 320.006 245.517 319.853 245.405C319.7 245.294 319.616 245.113 319.602 244.862C319.602 244.639 319.665 244.444 319.79 244.277C319.916 244.11 320.034 243.984 320.146 243.901C320.257 243.817 320.348 243.775 320.417 243.775C320.431 243.775 320.438 243.768 320.438 243.754C320.438 243.712 320.39 243.65 320.292 243.566C320.194 243.482 320.02 243.406 319.77 243.336C319.519 243.267 319.247 243.225 318.954 243.211C318.286 243.211 317.798 243.392 317.491 243.754C317.185 244.116 317.025 244.486 317.011 244.862C317.011 245.21 317.143 245.454 317.408 245.593C317.672 245.733 318.056 245.851 318.557 245.949C319.059 246.046 319.421 246.151 319.644 246.262C320.564 246.666 321.024 247.335 321.024 248.269C321.024 248.659 320.947 249.049 320.794 249.439C320.64 249.829 320.41 250.22 320.104 250.61C319.797 251 319.358 251.306 318.787 251.529C318.216 251.752 317.561 251.871 316.823 251.885C315.75 251.885 314.99 251.683 314.544 251.278C314.098 250.874 313.869 250.401 313.855 249.857C313.855 249.314 314.001 248.924 314.294 248.687C314.586 248.45 314.893 248.331 315.213 248.331C315.422 248.331 315.617 248.394 315.798 248.52C315.98 248.645 316.077 248.861 316.091 249.168C316.091 249.53 315.966 249.836 315.715 250.087C315.464 250.338 315.248 250.463 315.067 250.463C315.039 250.477 315.018 250.484 315.004 250.484C314.99 250.484 314.983 250.498 314.983 250.526C314.997 250.568 315.053 250.624 315.15 250.693C315.248 250.763 315.464 250.854 315.798 250.965C316.133 251.076 316.516 251.125 316.948 251.111C317.45 251.111 317.881 251.035 318.244 250.881C318.606 250.728 318.871 250.533 319.038 250.296C319.205 250.059 319.324 249.843 319.393 249.648C319.463 249.453 319.498 249.279 319.498 249.126C319.498 248.736 319.351 248.443 319.059 248.248C318.766 248.053 318.432 247.934 318.056 247.893C317.679 247.851 317.268 247.746 316.823 247.579C316.377 247.412 316.049 247.168 315.84 246.848C315.603 246.499 315.485 246.095 315.485 245.635Z" fill="#D9EBFF"/>
<path d="M326.395 239.135C326.395 238.801 326.527 238.508 326.792 238.257C327.057 238.006 327.363 237.874 327.712 237.86C327.963 237.86 328.172 237.944 328.339 238.111C328.506 238.278 328.597 238.487 328.611 238.738C328.611 239.058 328.471 239.351 328.193 239.616C327.914 239.881 327.607 240.02 327.273 240.034C327.064 240.034 326.869 239.964 326.688 239.825C326.507 239.686 326.409 239.456 326.395 239.135ZM322.988 245.677C322.988 245.566 323.051 245.35 323.176 245.029C323.302 244.709 323.469 244.353 323.678 243.963C323.887 243.573 324.194 243.218 324.598 242.897C325.002 242.577 325.42 242.424 325.852 242.437C326.395 242.437 326.848 242.598 327.21 242.918C327.572 243.239 327.761 243.671 327.775 244.214C327.775 244.451 327.677 244.841 327.482 245.384C327.287 245.928 327.008 246.659 326.646 247.579C326.284 248.499 325.991 249.286 325.768 249.941C325.698 250.247 325.664 250.47 325.664 250.61C325.664 250.958 325.782 251.132 326.019 251.132C326.144 251.132 326.277 251.111 326.416 251.069C326.555 251.028 326.716 250.93 326.897 250.777C327.078 250.624 327.266 250.38 327.461 250.045C327.656 249.711 327.83 249.3 327.984 248.812C328.025 248.645 328.06 248.547 328.088 248.52C328.116 248.492 328.234 248.478 328.443 248.478C328.722 248.478 328.861 248.547 328.861 248.687C328.861 248.798 328.799 249.014 328.673 249.335C328.548 249.655 328.374 250.011 328.151 250.401C327.928 250.791 327.614 251.139 327.21 251.446C326.806 251.752 326.374 251.906 325.914 251.906C325.468 251.906 325.057 251.759 324.681 251.467C324.305 251.174 324.11 250.728 324.096 250.129C324.096 249.892 324.131 249.669 324.2 249.46C324.27 249.251 324.57 248.457 325.099 247.077C325.629 245.67 325.935 244.827 326.019 244.548C326.102 244.27 326.151 243.998 326.165 243.733C326.165 243.399 326.047 243.232 325.81 243.232H325.768C325.35 243.232 324.967 243.462 324.619 243.921C324.27 244.381 324.005 244.966 323.824 245.677C323.81 245.691 323.796 245.712 323.782 245.74C323.769 245.768 323.762 245.789 323.762 245.802C323.762 245.816 323.748 245.83 323.72 245.844C323.692 245.858 323.671 245.865 323.657 245.865C323.643 245.865 323.615 245.865 323.573 245.865C323.532 245.865 323.476 245.865 323.406 245.865H323.114C323.03 245.782 322.988 245.719 322.988 245.677Z" fill="#D9EBFF"/>
<path d="M330.22 245.677C330.234 245.593 330.255 245.482 330.283 245.343C330.31 245.203 330.394 244.939 330.533 244.548C330.673 244.158 330.812 243.831 330.951 243.566C331.091 243.301 331.321 243.044 331.641 242.793C331.962 242.542 332.282 242.424 332.603 242.437C333.104 242.437 333.522 242.563 333.857 242.814C334.191 243.064 334.4 243.301 334.484 243.524C334.567 243.747 334.609 243.894 334.609 243.963C334.609 243.991 334.616 244.005 334.63 244.005L334.86 243.775C335.71 242.883 336.678 242.437 337.765 242.437C338.518 242.437 339.124 242.626 339.583 243.002C340.043 243.378 340.28 243.928 340.294 244.653C340.308 245.377 340.043 246.471 339.5 247.934C338.956 249.397 338.692 250.282 338.706 250.589C338.706 250.951 338.824 251.132 339.061 251.132C339.145 251.132 339.207 251.125 339.249 251.111C339.653 251.042 340.015 250.777 340.336 250.317C340.656 249.857 340.9 249.3 341.067 248.645C341.095 248.534 341.235 248.478 341.485 248.478C341.764 248.478 341.903 248.534 341.903 248.645C341.903 248.659 341.876 248.763 341.82 248.958C341.708 249.363 341.555 249.76 341.36 250.15C341.165 250.54 340.844 250.93 340.399 251.32C339.953 251.71 339.472 251.899 338.956 251.885C338.302 251.885 337.828 251.697 337.535 251.32C337.243 250.944 337.096 250.554 337.096 250.15C337.096 249.885 337.347 249.049 337.849 247.642C338.35 246.234 338.608 245.175 338.622 244.465C338.622 243.643 338.315 243.232 337.702 243.232H337.598C336.4 243.232 335.389 243.935 334.567 245.343L334.421 245.593L333.731 248.394C333.271 250.22 333.007 251.202 332.937 251.341C332.756 251.717 332.456 251.906 332.038 251.906C331.857 251.906 331.711 251.864 331.599 251.78C331.488 251.697 331.411 251.613 331.369 251.529C331.328 251.446 331.314 251.376 331.328 251.32C331.328 251.139 331.592 250.004 332.122 247.913C332.651 245.823 332.93 244.688 332.958 244.507C332.972 244.437 332.979 244.277 332.979 244.026C332.979 243.482 332.812 243.211 332.477 243.211C331.948 243.211 331.509 243.907 331.16 245.301C331.077 245.58 331.035 245.726 331.035 245.74C331.007 245.823 330.875 245.865 330.638 245.865H330.345C330.262 245.782 330.22 245.719 330.22 245.677Z" fill="#D9EBFF"/>
<path d="M348.822 250.777C348.613 250.958 348.306 251.153 347.902 251.362C347.498 251.571 347.073 251.676 346.627 251.676C345.749 251.676 345.046 251.362 344.516 250.735C343.987 250.108 343.715 249.307 343.701 248.331C343.701 246.868 344.237 245.524 345.31 244.298C346.383 243.071 347.575 242.451 348.884 242.437C349.539 242.437 350.145 242.772 350.703 243.441L350.765 243.357C350.793 243.315 350.828 243.273 350.87 243.232C350.912 243.19 350.974 243.134 351.058 243.064C351.142 242.995 351.232 242.946 351.33 242.918C351.427 242.89 351.539 242.869 351.664 242.855C351.859 242.855 352.019 242.918 352.145 243.044C352.27 243.169 352.34 243.301 352.354 243.441C352.354 243.65 351.957 245.336 351.163 248.499C350.368 251.662 349.95 253.278 349.908 253.348C349.658 254.1 349.121 254.72 348.299 255.208C347.477 255.696 346.536 255.946 345.478 255.96C343.513 255.96 342.53 255.487 342.53 254.539C342.53 254.177 342.656 253.856 342.907 253.578C343.158 253.299 343.478 253.16 343.868 253.16C344.077 253.16 344.272 253.222 344.453 253.348C344.635 253.473 344.732 253.689 344.746 253.996C344.746 254.135 344.732 254.267 344.704 254.393C344.676 254.518 344.628 254.616 344.558 254.685C344.488 254.755 344.432 254.825 344.391 254.894C344.349 254.964 344.3 255.02 344.244 255.062L344.203 255.103H344.223C344.363 255.145 344.781 255.166 345.478 255.166C346.007 255.166 346.425 255.082 346.732 254.915C347.052 254.762 347.352 254.532 347.63 254.225C347.909 253.919 348.104 253.592 348.216 253.243C348.299 252.978 348.411 252.546 348.55 251.947C348.731 251.278 348.822 250.888 348.822 250.777ZM350.347 244.82L350.264 244.59C350.222 244.437 350.187 244.332 350.159 244.277C350.131 244.221 350.09 244.123 350.034 243.984C349.978 243.845 349.908 243.747 349.825 243.691C349.741 243.636 349.651 243.559 349.553 243.462C349.456 243.364 349.33 243.301 349.177 243.273C349.024 243.246 348.87 243.225 348.717 243.211C348.104 243.211 347.512 243.58 346.941 244.319C346.523 244.862 346.174 245.691 345.896 246.806C345.617 247.92 345.478 248.729 345.478 249.23C345.478 250.331 345.909 250.881 346.773 250.881C347.554 250.881 348.32 250.394 349.072 249.418L349.24 249.209L350.347 244.82Z" fill="#D9EBFF"/>
<path d="M355.113 245.635C355.113 245.189 355.224 244.737 355.447 244.277C355.67 243.817 356.06 243.392 356.618 243.002C357.175 242.612 357.851 242.424 358.645 242.437C359.509 242.437 360.136 242.626 360.526 243.002C360.916 243.378 361.118 243.796 361.132 244.256C361.132 244.702 361.014 245.029 360.777 245.238C360.54 245.447 360.275 245.559 359.983 245.573C359.802 245.573 359.634 245.517 359.481 245.405C359.328 245.294 359.244 245.113 359.23 244.862C359.23 244.639 359.293 244.444 359.418 244.277C359.544 244.11 359.662 243.984 359.774 243.901C359.885 243.817 359.976 243.775 360.045 243.775C360.059 243.775 360.066 243.768 360.066 243.754C360.066 243.712 360.017 243.65 359.92 243.566C359.822 243.482 359.648 243.406 359.397 243.336C359.147 243.267 358.875 243.225 358.582 243.211C357.913 243.211 357.426 243.392 357.119 243.754C356.813 244.116 356.652 244.486 356.639 244.862C356.639 245.21 356.771 245.454 357.036 245.593C357.3 245.733 357.684 245.851 358.185 245.949C358.687 246.046 359.049 246.151 359.272 246.262C360.192 246.666 360.651 247.335 360.651 248.269C360.651 248.659 360.575 249.049 360.422 249.439C360.268 249.829 360.038 250.22 359.732 250.61C359.425 251 358.986 251.306 358.415 251.529C357.844 251.752 357.189 251.871 356.45 251.885C355.378 251.885 354.618 251.683 354.172 251.278C353.726 250.874 353.496 250.401 353.483 249.857C353.483 249.314 353.629 248.924 353.921 248.687C354.214 248.45 354.521 248.331 354.841 248.331C355.05 248.331 355.245 248.394 355.426 248.52C355.607 248.645 355.705 248.861 355.719 249.168C355.719 249.53 355.593 249.836 355.343 250.087C355.092 250.338 354.876 250.463 354.695 250.463C354.667 250.477 354.646 250.484 354.632 250.484C354.618 250.484 354.611 250.498 354.611 250.526C354.625 250.568 354.681 250.624 354.778 250.693C354.876 250.763 355.092 250.854 355.426 250.965C355.761 251.076 356.144 251.125 356.576 251.111C357.077 251.111 357.509 251.035 357.872 250.881C358.234 250.728 358.499 250.533 358.666 250.296C358.833 250.059 358.952 249.843 359.021 249.648C359.091 249.453 359.126 249.279 359.126 249.126C359.126 248.736 358.979 248.443 358.687 248.248C358.394 248.053 358.06 247.934 357.684 247.893C357.307 247.851 356.896 247.746 356.45 247.579C356.005 247.412 355.677 247.168 355.468 246.848C355.231 246.499 355.113 246.095 355.113 245.635Z" fill="#D9EBFF"/>
<path d="M369.158 244.423C369.158 244.242 369.256 244.103 369.451 244.005H382.765C382.974 244.116 383.078 244.256 383.078 244.423C383.078 244.576 382.981 244.709 382.785 244.82L376.139 244.841H369.493C369.27 244.771 369.158 244.632 369.158 244.423ZM369.158 248.478C369.158 248.269 369.27 248.129 369.493 248.06H382.785C382.981 248.199 383.078 248.338 383.078 248.478C383.078 248.659 382.974 248.798 382.765 248.896H369.451C369.256 248.798 369.158 248.659 369.158 248.478Z" fill="#D9EBFF"/>
<path d="M392.024 246.45C392.024 245.489 392.093 244.576 392.233 243.712C392.372 242.848 392.532 242.103 392.713 241.476C392.894 240.849 393.152 240.236 393.487 239.637C393.821 239.038 394.086 238.571 394.281 238.236C394.476 237.902 394.769 237.54 395.159 237.15C395.549 236.759 395.779 236.523 395.848 236.439C395.918 236.355 396.092 236.209 396.371 236H396.726C396.921 236 397.019 236.063 397.019 236.188C397.019 236.23 396.9 236.376 396.664 236.627C396.427 236.878 396.141 237.247 395.807 237.735C395.472 238.222 395.131 238.822 394.782 239.532C394.434 240.243 394.142 241.204 393.905 242.417C393.668 243.629 393.549 244.973 393.549 246.45C393.549 247.927 393.668 249.265 393.905 250.463C394.142 251.662 394.427 252.63 394.762 253.369C395.096 254.107 395.437 254.706 395.786 255.166C396.134 255.626 396.427 255.995 396.664 256.274C396.9 256.552 397.019 256.699 397.019 256.713C397.019 256.838 396.914 256.901 396.705 256.901H396.371L395.786 256.399C394.476 255.215 393.521 253.738 392.922 251.968C392.323 250.199 392.024 248.359 392.024 246.45Z" fill="#D9EBFF"/>
<path d="M399.025 248.164C399.025 247.37 399.158 246.645 399.422 245.991C399.687 245.336 400.029 244.792 400.447 244.36C400.865 243.928 401.331 243.566 401.847 243.273C402.363 242.981 402.85 242.765 403.31 242.626C403.77 242.486 404.209 242.424 404.627 242.437H404.689C405.317 242.437 405.86 242.591 406.32 242.897C406.78 243.204 407.009 243.657 407.009 244.256C407.009 245.51 406.236 246.332 404.689 246.722C404.007 246.903 403.073 247.001 401.889 247.015C401.373 247.015 401.108 247.029 401.095 247.057C401.095 247.084 401.053 247.328 400.969 247.788C400.886 248.248 400.837 248.652 400.823 249C400.823 249.655 400.969 250.171 401.262 250.547C401.554 250.923 401.993 251.118 402.578 251.132C403.164 251.146 403.812 251.014 404.522 250.735C405.233 250.456 405.874 249.997 406.445 249.356C406.571 249.216 406.654 249.147 406.696 249.147C406.752 249.147 406.842 249.209 406.968 249.335C407.093 249.46 407.163 249.558 407.177 249.627C407.191 249.697 407.128 249.808 406.989 249.962C406.849 250.115 406.64 250.303 406.362 250.526C406.083 250.749 405.762 250.965 405.4 251.174C405.038 251.383 404.599 251.557 404.083 251.697C403.568 251.836 403.038 251.906 402.495 251.906C401.394 251.906 400.544 251.536 399.945 250.798C399.346 250.059 399.039 249.181 399.025 248.164ZM406.006 244.298C405.923 243.573 405.449 243.211 404.585 243.211C404.125 243.211 403.7 243.308 403.31 243.503C402.92 243.698 402.606 243.935 402.369 244.214C402.133 244.493 401.931 244.778 401.763 245.071C401.596 245.364 401.485 245.614 401.429 245.823C401.373 246.032 401.338 246.165 401.324 246.22C401.324 246.234 401.464 246.241 401.742 246.241C403.317 246.241 404.418 246.074 405.045 245.74C405.672 245.405 405.992 244.925 406.006 244.298Z" fill="#D9EBFF"/>
<path d="M409.367 246.179C409.918 245.381 410.672 244.982 411.628 244.982C412.1 244.982 412.573 245.11 413.046 245.366C413.519 245.622 413.903 246.075 414.199 246.725C414.563 247.543 414.746 248.666 414.746 250.094C414.746 251.621 414.534 252.789 414.11 253.597C413.913 254.01 413.642 254.34 413.297 254.587C412.953 254.833 412.652 254.986 412.396 255.045C412.14 255.104 411.889 255.138 411.642 255.148C411.386 255.148 411.13 255.119 410.874 255.06C410.618 255 410.317 254.843 409.973 254.587C409.628 254.331 409.357 254 409.16 253.597C408.736 252.789 408.524 251.621 408.524 250.094C408.524 248.38 408.805 247.075 409.367 246.179ZM412.692 246.001C412.396 245.686 412.046 245.528 411.642 245.528C411.229 245.528 410.874 245.686 410.578 246.001C410.332 246.257 410.17 246.612 410.091 247.065C410.012 247.518 409.973 248.464 409.973 249.902C409.973 251.459 410.012 252.483 410.091 252.976C410.17 253.469 410.347 253.858 410.623 254.143C410.899 254.439 411.238 254.587 411.642 254.587C412.036 254.587 412.371 254.439 412.647 254.143C412.933 253.848 413.11 253.434 413.179 252.902C413.248 252.37 413.288 251.37 413.297 249.902C413.297 248.474 413.258 247.533 413.179 247.08C413.1 246.627 412.938 246.267 412.692 246.001Z" fill="#D9EBFF"/>
<path d="M418.693 236.021L418.777 236C418.846 236 418.916 236 418.986 236H419.236L419.822 236.502C421.131 237.686 422.086 239.163 422.685 240.933C423.284 242.702 423.584 244.541 423.584 246.45C423.584 247.398 423.514 248.311 423.375 249.188C423.235 250.066 423.075 250.812 422.894 251.425C422.713 252.038 422.455 252.651 422.121 253.264C421.786 253.877 421.522 254.344 421.327 254.664C421.131 254.985 420.846 255.34 420.47 255.73C420.093 256.121 419.87 256.35 419.801 256.42C419.731 256.49 419.571 256.622 419.32 256.817C419.278 256.859 419.25 256.887 419.236 256.901H418.986C418.874 256.901 418.798 256.901 418.756 256.901C418.714 256.901 418.679 256.88 418.651 256.838C418.623 256.796 418.602 256.734 418.589 256.65C418.602 256.636 418.679 256.545 418.818 256.378C420.978 254.135 422.058 250.826 422.058 246.45C422.058 242.075 420.978 238.766 418.818 236.523C418.679 236.355 418.602 236.265 418.589 236.251C418.589 236.139 418.623 236.063 418.693 236.021Z" fill="#D9EBFF"/>
<path d="M399 34.7291C399 33.9348 399.132 33.2102 399.397 32.5553C399.662 31.9004 400.003 31.3569 400.421 30.9249C400.839 30.4929 401.306 30.1306 401.822 29.838C402.337 29.5454 402.825 29.3294 403.285 29.19C403.745 29.0507 404.184 28.988 404.602 29.0019H404.665C405.292 29.0019 405.835 29.1552 406.295 29.4618C406.755 29.7683 406.985 30.2212 406.985 30.8204C406.985 32.0745 406.211 32.8967 404.665 33.2869C403.982 33.468 403.048 33.5656 401.864 33.5795C401.348 33.5795 401.083 33.5934 401.069 33.6213C401.069 33.6492 401.028 33.893 400.944 34.3529C400.86 34.8127 400.812 35.2168 400.798 35.5652C400.798 36.2202 400.944 36.7357 401.237 37.112C401.529 37.4882 401.968 37.6833 402.553 37.6973C403.139 37.7112 403.787 37.5788 404.497 37.3001C405.208 37.0214 405.849 36.5616 406.42 35.9206C406.546 35.7812 406.629 35.7115 406.671 35.7115C406.727 35.7115 406.817 35.7742 406.943 35.8997C407.068 36.0251 407.138 36.1226 407.152 36.1923C407.166 36.262 407.103 36.3734 406.964 36.5267C406.824 36.68 406.615 36.8681 406.337 37.0911C406.058 37.314 405.738 37.53 405.375 37.7391C405.013 37.9481 404.574 38.1223 404.058 38.2616C403.543 38.401 403.013 38.4706 402.47 38.4706C401.369 38.4706 400.519 38.1014 399.92 37.3628C399.321 36.6243 399.014 35.7464 399 34.7291ZM405.981 30.8622C405.898 30.1376 405.424 29.7753 404.56 29.7753C404.1 29.7753 403.675 29.8728 403.285 30.0679C402.895 30.263 402.581 30.4999 402.344 30.7786C402.107 31.0573 401.905 31.343 401.738 31.6356C401.571 31.9282 401.46 32.179 401.404 32.3881C401.348 32.5971 401.313 32.7295 401.299 32.7852C401.299 32.7991 401.439 32.8061 401.717 32.8061C403.292 32.8061 404.393 32.6389 405.02 32.3045C405.647 31.97 405.967 31.4893 405.981 30.8622Z" fill="#D9EBFF"/>
<path d="M409.342 32.7433C409.894 31.9453 410.648 31.5463 411.603 31.5463C412.076 31.5463 412.549 31.6744 413.022 31.9305C413.495 32.1867 413.879 32.6399 414.175 33.2901C414.539 34.1078 414.721 35.2309 414.721 36.6595C414.721 38.1865 414.509 39.354 414.086 40.1618C413.889 40.5756 413.618 40.9057 413.273 41.152C412.928 41.3983 412.628 41.551 412.372 41.6101C412.115 41.6692 411.864 41.7037 411.618 41.7135C411.362 41.7135 411.106 41.684 410.849 41.6249C410.593 41.5657 410.293 41.4081 409.948 41.152C409.603 40.8958 409.332 40.5658 409.135 40.1618C408.712 39.354 408.5 38.1865 408.5 36.6595C408.5 34.9452 408.781 33.6399 409.342 32.7433ZM412.667 32.566C412.372 32.2507 412.022 32.0931 411.618 32.0931C411.204 32.0931 410.849 32.2507 410.554 32.566C410.308 32.8221 410.145 33.1768 410.066 33.63C409.987 34.0832 409.948 35.029 409.948 36.4674C409.948 38.024 409.987 39.0486 410.066 39.5412C410.145 40.0338 410.322 40.4229 410.598 40.7086C410.874 41.0042 411.214 41.152 411.618 41.152C412.012 41.152 412.347 41.0042 412.623 40.7086C412.909 40.4131 413.086 39.9993 413.155 39.4673C413.224 38.9353 413.263 37.9353 413.273 36.4674C413.273 35.0388 413.234 34.098 413.155 33.6448C413.076 33.1916 412.913 32.832 412.667 32.566Z" fill="#D9EBFF"/>
</g>
<defs>
<clipPath id="clip0_219_1233">
<rect width="700" height="262" fill="white" transform="translate(0 0.5)"/>
</clipPath>
</defs>
</svg>
