<svg width="700" height="223" viewBox="0 0 700 223" fill="none" xmlns="http://www.w3.org/2000/svg">
<rect width="700" height="222" transform="translate(0 0.5)" fill="#0A0D12"/>
<path d="M297.5 57.5H265.5L315.717 107M297.5 57.5L347 107H392.5M297.5 57.5H343L392.5 107M392.5 107L451.5 166H420.5M420.5 166L382 126.5H335.5M420.5 166H375L335.5 126.5M335.5 126.5H289.5L270 107H315.717M335.5 126.5L315.717 107" stroke="#E68A00" stroke-width="2"/>
<path d="M477 214.5H223L223 14.5H477V214.5Z" stroke="#20C831" stroke-width="2"/>
<circle cx="223" cy="14.5" r="5" fill="black" stroke="#D9EBFF" stroke-width="2"/>
<circle cx="477" cy="14.5" r="5" fill="black" stroke="#D9EBFF" stroke-width="2"/>
<circle cx="223" cy="214.5" r="5" fill="black" stroke="#D9EBFF" stroke-width="2"/>
<circle cx="477" cy="214.5" r="5" fill="black" stroke="#D9EBFF" stroke-width="2"/>
<circle cx="289" cy="126.5" r="5" fill="black" stroke="#D9EBFF" stroke-width="2"/>
<circle cx="336" cy="126.5" r="5" fill="black" stroke="#D9EBFF" stroke-width="2"/>
<circle cx="381" cy="126.5" r="5" fill="black" stroke="#D9EBFF" stroke-width="2"/>
<circle cx="420" cy="165.5" r="5" fill="black" stroke="#D9EBFF" stroke-width="2"/>
<circle cx="451" cy="165.5" r="5" fill="black" stroke="#D9EBFF" stroke-width="2"/>
<circle cx="375" cy="165.5" r="5" fill="black" stroke="#D9EBFF" stroke-width="2"/>
<circle cx="299" cy="57.5" r="5" transform="rotate(-180 299 57.5)" fill="black" stroke="#D9EBFF" stroke-width="2"/>
<circle cx="268" cy="57.5" r="5" transform="rotate(-180 268 57.5)" fill="black" stroke="#D9EBFF" stroke-width="2"/>
<circle cx="343" cy="57.5" r="5" transform="rotate(-180 343 57.5)" fill="black" stroke="#D9EBFF" stroke-width="2"/>
<circle cx="347" cy="106.5" r="5" transform="rotate(-180 347 106.5)" fill="black" stroke="#D9EBFF" stroke-width="2"/>
<circle cx="316" cy="106.5" r="5" transform="rotate(-180 316 106.5)" fill="black" stroke="#D9EBFF" stroke-width="2"/>
<circle cx="270" cy="106.5" r="5" transform="rotate(-180 270 106.5)" fill="black" stroke="#D9EBFF" stroke-width="2"/>
<circle cx="391" cy="106.5" r="5" transform="rotate(-180 391 106.5)" fill="black" stroke="#D9EBFF" stroke-width="2"/>
</svg>
