<svg width="700" height="202" viewBox="0 0 700 202" fill="none" xmlns="http://www.w3.org/2000/svg">
<rect width="700" height="202" fill="#0A0D12"/>
<path d="M350 9L297.5 100M350 9L402.5 100M350 9L350 191M455 191L297.5 100M455 191H350M455 191L402.5 100M245 191L297.5 100M245 191H350M245 191L402.5 100M297.5 100H402.5M297.5 100L350 191M350 191L402.5 100" stroke="#B3BFD8" stroke-width="2"/>
<circle cx="350" cy="9" r="5" fill="black" stroke="#D9EBFF" stroke-width="2"/>
<circle cx="350" cy="191" r="5" fill="black" stroke="#D9EBFF" stroke-width="2"/>
<circle cx="455" cy="191" r="5" fill="black" stroke="#D9EBFF" stroke-width="2"/>
<circle cx="245" cy="191" r="5" fill="black" stroke="#D9EBFF" stroke-width="2"/>
<circle cx="298" cy="100" r="5" fill="black" stroke="#D9EBFF" stroke-width="2"/>
<circle cx="402" cy="100" r="5" fill="black" stroke="#D9EBFF" stroke-width="2"/>
<circle cx="350" cy="100" r="5" fill="black" stroke="#D9EBFF" stroke-width="2"/>
<circle cx="350" cy="130" r="5" fill="black" stroke="#D9EBFF" stroke-width="2"/>
<circle cx="377" cy="146" r="5" fill="black" stroke="#D9EBFF" stroke-width="2"/>
<circle cx="324" cy="146" r="5" fill="black" stroke="#D9EBFF" stroke-width="2"/>
</svg>
