<svg width="700" height="72" viewBox="0 0 700 72" fill="none" xmlns="http://www.w3.org/2000/svg">
<g clip-path="url(#clip0_230_75)">
<rect width="700" height="72" fill="#0A0D12"/>
<path fill-rule="evenodd" clip-rule="evenodd" d="M287.585 121.635L280.242 134.338H289.548L296.891 121.635H287.585ZM247.173 121.635L254.516 134.338H245.21L237.867 121.635H247.173ZM322.464 61.2972H331.77L345.97 36.7326V61.2972H354.03V36.7326L368.23 61.2972H377.536L350 13.6621L322.464 61.2972ZM412.415 121.635H403.109L410.452 134.338H419.758L412.415 121.635ZM354.03 121.635H345.97V134.338H354.03V121.635ZM452.827 121.635H462.133L454.79 134.338H445.485L452.827 121.635ZM497.012 61.2972H487.706L511.751 19.7013L518.733 19.7013L542.778 61.2972H533.472L519.273 36.7326V61.2972H511.212V36.7326L497.012 61.2972ZM511.212 121.635V134.338H519.273V121.635H511.212ZM568.351 121.635L575.694 134.338H585L577.657 121.635H568.351ZM212.294 61.2972H202.988L188.788 36.7327L188.788 61.2972H180.727V36.7327L166.528 61.2972H157.222L181.267 19.7013C181.987 18.4561 183.317 17.689 184.758 17.689C186.198 17.689 187.529 18.4561 188.249 19.7013L212.294 61.2972ZM122.343 121.635L115 134.338H124.306L131.649 121.635H122.343ZM180.727 121.635V134.338H188.788V121.635H180.727Z" fill="#D9EBFF"/>
</g>
<defs>
<clipPath id="clip0_230_75">
<rect width="700" height="72" fill="white"/>
</clipPath>
</defs>
</svg>
