<svg width="700" height="127" viewBox="0 0 700 127" fill="none" xmlns="http://www.w3.org/2000/svg">
<rect width="700" height="126" transform="translate(0 0.25)" fill="#0A0D12"/>
<path d="M152 15.25V65.25M152 65.25L107 110.25M152 65.25L197 110.25M310 15.25V110.25H405M310 15.25H405V110.25M310 15.25L405 110.25M541 62.75L588.5 110.25H493.5L541 62.75ZM541 62.75L588.5 15.25H493.5L541 62.75Z" stroke="#B3BFD8" stroke-width="2"/>
<circle cx="310" cy="110.25" r="5" fill="black" stroke="#D9EBFF" stroke-width="2"/>
<circle cx="310" cy="15.25" r="5" fill="black" stroke="#D9EBFF" stroke-width="2"/>
<circle cx="405" cy="110.25" r="5" fill="black" stroke="#D9EBFF" stroke-width="2"/>
<circle cx="405" cy="15.25" r="5" fill="black" stroke="#D9EBFF" stroke-width="2"/>
<circle cx="589" cy="15.25" r="5" fill="black" stroke="#D9EBFF" stroke-width="2"/>
<circle cx="494" cy="15.25" r="5" fill="black" stroke="#D9EBFF" stroke-width="2"/>
<circle cx="494" cy="110.25" r="5" fill="black" stroke="#D9EBFF" stroke-width="2"/>
<circle cx="541" cy="62.25" r="5" fill="black" stroke="#D9EBFF" stroke-width="2"/>
<circle cx="589" cy="110.25" r="5" fill="black" stroke="#D9EBFF" stroke-width="2"/>
<circle cx="152" cy="14.25" r="5" fill="black" stroke="#D9EBFF" stroke-width="2"/>
<circle cx="197" cy="110.25" r="5" fill="black" stroke="#D9EBFF" stroke-width="2"/>
<circle cx="107" cy="110.25" r="5" fill="black" stroke="#D9EBFF" stroke-width="2"/>
<circle cx="152" cy="66.25" r="5" fill="black" stroke="#D9EBFF" stroke-width="2"/>
</svg>
