<svg width="701" height="270" viewBox="0 0 701 270" fill="none" xmlns="http://www.w3.org/2000/svg">
<rect width="700" height="269" transform="translate(0.794922 0.75)" fill="#0A0D12"/>
<path d="M416.795 248.75H566.795L643.795 171.75V21.75H493.795L416.795 98.75V248.75Z" stroke="#B3BFD8" stroke-width="2"/>
<path d="M440.795 98.75H566.795V224.75" stroke="#B3BFD8" stroke-width="2"/>
<path d="M590.795 74.75L619.795 45.75" stroke="#B3BFD8" stroke-width="2"/>
<circle cx="566.795" cy="98.75" r="5" fill="black" stroke="#D9EBFF" stroke-width="2"/>
<circle cx="590.795" cy="74.75" r="5" fill="black" stroke="#D9EBFF" stroke-width="2"/>
<circle cx="619.795" cy="45.75" r="5" fill="black" stroke="#D9EBFF" stroke-width="2"/>
<circle cx="416.795" cy="98.75" r="5" fill="black" stroke="#D9EBFF" stroke-width="2"/>
<circle cx="440.795" cy="98.75" r="5" fill="black" stroke="#D9EBFF" stroke-width="2"/>
<circle cx="416.795" cy="248.75" r="5" fill="black" stroke="#D9EBFF" stroke-width="2"/>
<circle cx="566.795" cy="248.75" r="5" fill="black" stroke="#D9EBFF" stroke-width="2"/>
<circle cx="566.795" cy="224.75" r="5" fill="black" stroke="#D9EBFF" stroke-width="2"/>
<circle cx="643.795" cy="171.75" r="5" fill="black" stroke="#D9EBFF" stroke-width="2"/>
<circle cx="643.795" cy="21.75" r="5" fill="black" stroke="#D9EBFF" stroke-width="2"/>
<circle cx="493.795" cy="21.75" r="5" fill="black" stroke="#D9EBFF" stroke-width="2"/>
<path d="M79.7949 98.75H229.795V248.75H79.7949V98.75Z" stroke="#B3BFD8" stroke-width="2"/>
<path d="M253.795 248.75L306.795 195.75V45.75" stroke="#B3BFD8" stroke-width="2"/>
<path d="M79.7949 66.75L132.795 13.75H282.795L229.795 66.75" stroke="#B3BFD8" stroke-width="2"/>
<circle cx="229.795" cy="98.75" r="5" fill="black" stroke="#D9EBFF" stroke-width="2"/>
<circle cx="79.7949" cy="98.75" r="5" fill="black" stroke="#D9EBFF" stroke-width="2"/>
<circle cx="229.795" cy="66.75" r="5" fill="black" stroke="#D9EBFF" stroke-width="2"/>
<circle cx="79.7949" cy="66.75" r="5" fill="black" stroke="#D9EBFF" stroke-width="2"/>
<circle cx="79.7949" cy="248.75" r="5" fill="black" stroke="#D9EBFF" stroke-width="2"/>
<circle cx="229.795" cy="248.75" r="5" fill="black" stroke="#D9EBFF" stroke-width="2"/>
<circle cx="253.795" cy="248.75" r="5" fill="black" stroke="#D9EBFF" stroke-width="2"/>
<circle cx="306.795" cy="195.75" r="5" fill="black" stroke="#D9EBFF" stroke-width="2"/>
<circle cx="306.795" cy="45.75" r="5" fill="black" stroke="#D9EBFF" stroke-width="2"/>
<circle cx="282.795" cy="13.75" r="5" fill="black" stroke="#D9EBFF" stroke-width="2"/>
<circle cx="132.795" cy="13.75" r="5" fill="black" stroke="#D9EBFF" stroke-width="2"/>
</svg>
