<svg width="701" height="230" viewBox="0 0 701 230" fill="none" xmlns="http://www.w3.org/2000/svg">
<rect width="700" height="229" transform="translate(0.794922 0.75)" fill="#0A0D12"/>
<path d="M248.795 64.75H398.795M248.795 64.75V214.75H398.795M248.795 64.75L301.795 11.75H487.795M398.795 64.75V214.75M398.795 64.75L487.795 11.75M398.795 214.75L487.795 161.75V11.75" stroke="#B3BFD8" stroke-width="2"/>
<path d="M487.795 11.75V161.75" stroke="#3491FF" stroke-width="2"/>
<circle cx="398.795" cy="64.75" r="5" fill="black" stroke="#D9EBFF" stroke-width="2"/>
<circle cx="248.795" cy="64.75" r="5" fill="black" stroke="#D9EBFF" stroke-width="2"/>
<circle cx="248.795" cy="214.75" r="5" fill="black" stroke="#D9EBFF" stroke-width="2"/>
<circle cx="398.795" cy="214.75" r="5" fill="black" stroke="#D9EBFF" stroke-width="2"/>
<circle cx="487.795" cy="161.75" r="5" fill="black" stroke="#3491FF" stroke-width="2"/>
<circle cx="487.795" cy="11.75" r="5" fill="black" stroke="#3491FF" stroke-width="2"/>
<circle cx="301.795" cy="11.75" r="5" fill="black" stroke="#D9EBFF" stroke-width="2"/>
<line x1="478.795" y1="101.75" x2="443.795" y2="101.75" stroke="#3491FF" stroke-width="2" stroke-linecap="round" stroke-linejoin="round"/>
<line x1="471.795" y1="109.336" x2="479.381" y2="101.75" stroke="#3491FF" stroke-width="2" stroke-linecap="round" stroke-linejoin="round"/>
<line x1="479.381" y1="101.75" x2="471.795" y2="94.1642" stroke="#3491FF" stroke-width="2" stroke-linecap="round" stroke-linejoin="round"/>
<path d="M502.756 116.675L502.28 115.796L502.756 116.675L511.701 111.824C513.29 110.962 513.11 108.625 511.407 108.017L488.591 99.8738L488.255 100.816L488.591 99.8738C486.93 99.281 485.326 100.885 485.919 102.546L494.062 125.362C494.669 127.065 497.006 127.246 497.869 125.656L502.72 116.711C502.728 116.696 502.741 116.683 502.756 116.675Z" fill="#D9EBFF" stroke="#0A0D12" stroke-width="2"/>
<path d="M506.224 118.409L505.517 119.117L506.224 119.824L507.401 121.001L508.109 121.708L508.81 121.007V122.765L507.052 122.765L507.753 122.064L507.046 121.357L505.869 120.179L505.161 119.472L504.454 120.179L501.332 123.302C500.616 124.017 500.616 125.178 501.332 125.893L504.454 129.016L505.161 129.723L505.869 129.016L507.046 127.838L507.753 127.131L507.052 126.43H508.81V128.188L508.109 127.487L507.401 128.194L506.224 129.371L505.517 130.078L506.224 130.786L509.346 133.908C510.062 134.624 511.223 134.624 511.938 133.908L515.061 130.786L515.768 130.078L515.061 129.371L513.883 128.194L513.176 127.487L512.475 128.188V126.43H514.233L513.531 127.131L514.239 127.838L515.416 129.016L516.123 129.723L516.83 129.016L519.953 125.893C520.669 125.178 520.669 124.017 519.953 123.302L516.83 120.179L516.123 119.472L515.416 120.179L514.239 121.357L513.532 122.064L514.233 122.765L512.475 122.765V121.007L513.176 121.708L513.883 121.001L515.061 119.824L515.768 119.117L515.061 118.409L511.938 115.287C511.223 114.571 510.062 114.571 509.346 115.287L506.224 118.409Z" fill="#D9EBFF" stroke="#0A0D12" stroke-width="2"/>
</svg>
