<svg width="701" height="271" viewBox="0 0 701 271" fill="none" xmlns="http://www.w3.org/2000/svg">
<rect width="700" height="270" transform="translate(0.794922 0.75)" fill="#0A0D12"/>
<path d="M248.795 107.75H398.795M248.795 107.75V257.75H398.795M248.795 107.75L342.795 13.75H492.795M398.795 107.75V257.75M398.795 107.75L492.795 13.75M398.795 257.75L492.795 163.75V13.75" stroke="#B3BFD8" stroke-width="2"/>
<path d="M342.795 13.75H492.795V163.75" stroke="#3491FF" stroke-width="2"/>
<circle cx="398.795" cy="107.75" r="5" fill="black" stroke="#D9EBFF" stroke-width="2"/>
<circle cx="248.795" cy="107.75" r="5" fill="black" stroke="#D9EBFF" stroke-width="2"/>
<circle cx="248.795" cy="257.75" r="5" fill="black" stroke="#D9EBFF" stroke-width="2"/>
<circle cx="398.795" cy="257.75" r="5" fill="black" stroke="#D9EBFF" stroke-width="2"/>
<circle cx="492.795" cy="163.75" r="5" fill="black" stroke="#3491FF" stroke-width="2"/>
<circle cx="492.795" cy="13.75" r="5" fill="black" stroke="#3491FF" stroke-width="2"/>
<circle cx="342.795" cy="13.75" r="5" fill="black" stroke="#3491FF" stroke-width="2"/>
<path d="M430.756 27.6749L430.28 26.7959L430.756 27.6749L439.701 22.8237C441.29 21.9616 441.11 19.6245 439.407 19.0167L416.591 10.8738L416.255 11.8157L416.591 10.8738C414.93 10.281 413.326 11.8847 413.919 13.5458L422.062 36.3619C422.669 38.065 425.006 38.2455 425.869 36.6559L430.72 27.7115C430.728 27.696 430.741 27.6833 430.756 27.6749Z" fill="#D9EBFF" stroke="#0A0D12" stroke-width="2"/>
<line x1="401.958" y1="28.1642" x2="377.209" y2="52.9129" stroke="#3491FF" stroke-width="2" stroke-linecap="round" stroke-linejoin="round"/>
<line x1="402.372" y1="38.4779" x2="402.372" y2="27.75" stroke="#3491FF" stroke-width="2" stroke-linecap="round" stroke-linejoin="round"/>
<line x1="402.372" y1="27.75" x2="391.644" y2="27.75" stroke="#3491FF" stroke-width="2" stroke-linecap="round" stroke-linejoin="round"/>
<path d="M435.224 29.4094L434.517 30.1165L435.224 30.8236L436.401 32.0013L437.109 32.7084L437.81 32.0072V33.7648L436.052 33.7648L436.753 33.0636L436.046 32.3565L434.869 31.1789L434.161 30.4718L433.454 31.1789L430.332 34.3015C429.616 35.0173 429.616 36.1777 430.332 36.8934L433.454 40.016L434.161 40.7231L434.869 40.016L436.046 38.8384L436.753 38.1313L436.052 37.4302H437.81V39.1877L437.109 38.4866L436.401 39.1937L435.224 40.3713L434.517 41.0784L435.224 41.7855L438.346 44.9082C439.062 45.6239 440.223 45.6239 440.938 44.9082L444.061 41.7855L444.768 41.0784L444.061 40.3713L442.883 39.1937L442.176 38.4866L441.475 39.1877V37.4302H443.233L442.531 38.1313L443.239 38.8384L444.416 40.016L445.123 40.7231L445.83 40.016L448.953 36.8934C449.669 36.1777 449.669 35.0173 448.953 34.3015L445.83 31.1789L445.123 30.4718L444.416 31.1789L443.239 32.3565L442.532 33.0636L443.233 33.7648L441.475 33.7648V32.0072L442.176 32.7084L442.883 32.0013L444.061 30.8236L444.768 30.1165L444.061 29.4094L440.938 26.2868C440.223 25.5711 439.062 25.5711 438.346 26.2868L435.224 29.4094Z" fill="#D9EBFF" stroke="#0A0D12" stroke-width="2"/>
</svg>
