<svg width="701" height="352" viewBox="0 0 701 352" fill="none" xmlns="http://www.w3.org/2000/svg">
<rect width="700" height="351" transform="translate(0.794922 0.75)" fill="#0A0D12"/>
<path d="M228.795 104.75H378.795M228.795 104.75V254.75H378.795M228.795 104.75L322.795 10.75H472.795M378.795 104.75V254.75M378.795 104.75L472.795 10.75M378.795 254.75L472.795 160.75V10.75" stroke="#B3BFD8" stroke-width="2"/>
<path d="M378.795 254.75V104.75L472.795 10.75V160.75L378.795 254.75Z" stroke="#3491FF" stroke-width="2"/>
<circle cx="378.795" cy="104.75" r="5" fill="black" stroke="#3491FF" stroke-width="2"/>
<circle cx="228.795" cy="104.75" r="5" fill="black" stroke="#D9EBFF" stroke-width="2"/>
<circle cx="228.795" cy="254.75" r="5" fill="black" stroke="#D9EBFF" stroke-width="2"/>
<circle cx="378.795" cy="254.75" r="5" fill="black" stroke="#3491FF" stroke-width="2"/>
<circle cx="472.795" cy="160.75" r="5" fill="black" stroke="#3491FF" stroke-width="2"/>
<circle cx="472.795" cy="10.75" r="5" fill="black" stroke="#3491FF" stroke-width="2"/>
<circle cx="322.795" cy="10.75" r="5" fill="black" stroke="#D9EBFF" stroke-width="2"/>
<rect x="239.795" y="306.75" width="133" height="37" rx="3" fill="#0A0D12" stroke="#B3BFD8" stroke-width="2"/>
<path d="M261.883 334.038C260.891 334.038 259.979 333.854 259.147 333.486C258.315 333.118 257.587 332.59 256.963 331.902C256.355 331.198 255.875 330.342 255.523 329.334C255.187 328.31 255.019 327.158 255.019 325.878C255.019 324.614 255.195 323.478 255.547 322.47C255.899 321.462 256.387 320.606 257.011 319.902C257.635 319.198 258.371 318.662 259.219 318.294C260.067 317.91 260.995 317.718 262.003 317.718C262.963 317.718 263.803 317.918 264.523 318.318C265.259 318.702 265.859 319.15 266.323 319.662L265.243 320.958C264.827 320.51 264.355 320.15 263.827 319.878C263.299 319.606 262.699 319.47 262.027 319.47C261.275 319.47 260.595 319.622 259.987 319.926C259.379 320.214 258.859 320.638 258.427 321.198C257.995 321.742 257.659 322.406 257.419 323.19C257.195 323.974 257.083 324.854 257.083 325.83C257.083 326.822 257.195 327.718 257.419 328.518C257.659 329.302 257.987 329.974 258.403 330.534C258.819 331.094 259.323 331.526 259.915 331.83C260.523 332.134 261.203 332.286 261.955 332.286C262.723 332.286 263.395 332.134 263.971 331.83C264.547 331.51 265.091 331.07 265.603 330.51L266.707 331.758C266.083 332.478 265.379 333.038 264.595 333.438C263.811 333.838 262.907 334.038 261.883 334.038ZM273.986 334.038C273.266 334.038 272.578 333.902 271.922 333.63C271.282 333.358 270.714 332.966 270.218 332.454C269.722 331.926 269.322 331.286 269.018 330.534C268.73 329.766 268.586 328.902 268.586 327.942C268.586 326.966 268.73 326.102 269.018 325.35C269.322 324.582 269.722 323.934 270.218 323.406C270.714 322.878 271.282 322.478 271.922 322.206C272.578 321.934 273.266 321.798 273.986 321.798C274.706 321.798 275.386 321.934 276.026 322.206C276.682 322.478 277.258 322.878 277.754 323.406C278.25 323.934 278.642 324.582 278.93 325.35C279.234 326.102 279.386 326.966 279.386 327.942C279.386 328.902 279.234 329.766 278.93 330.534C278.642 331.286 278.25 331.926 277.754 332.454C277.258 332.966 276.682 333.358 276.026 333.63C275.386 333.902 274.706 334.038 273.986 334.038ZM273.986 332.406C274.482 332.406 274.938 332.302 275.354 332.094C275.77 331.87 276.122 331.566 276.41 331.182C276.714 330.782 276.946 330.31 277.106 329.766C277.266 329.222 277.346 328.614 277.346 327.942C277.346 327.27 277.266 326.662 277.106 326.118C276.946 325.558 276.714 325.078 276.41 324.678C276.122 324.278 275.77 323.974 275.354 323.766C274.938 323.542 274.482 323.43 273.986 323.43C273.49 323.43 273.034 323.542 272.618 323.766C272.202 323.974 271.842 324.278 271.538 324.678C271.25 325.078 271.026 325.558 270.866 326.118C270.706 326.662 270.626 327.27 270.626 327.942C270.626 328.614 270.706 329.222 270.866 329.766C271.026 330.31 271.25 330.782 271.538 331.182C271.842 331.566 272.202 331.87 272.618 332.094C273.034 332.302 273.49 332.406 273.986 332.406ZM282.458 333.75V322.086H284.09L284.258 323.766H284.33C284.842 323.206 285.394 322.742 285.986 322.374C286.594 321.99 287.25 321.798 287.954 321.798C288.85 321.798 289.546 321.998 290.042 322.398C290.554 322.782 290.93 323.326 291.17 324.03C291.778 323.358 292.386 322.822 292.994 322.422C293.618 322.006 294.29 321.798 295.01 321.798C296.21 321.798 297.098 322.182 297.674 322.95C298.266 323.718 298.562 324.854 298.562 326.358V333.75H296.594V326.622C296.594 325.518 296.418 324.726 296.066 324.246C295.714 323.75 295.17 323.502 294.434 323.502C293.554 323.502 292.578 324.102 291.506 325.302V333.75H289.538V326.622C289.538 325.518 289.362 324.726 289.01 324.246C288.658 323.75 288.106 323.502 287.354 323.502C286.474 323.502 285.498 324.102 284.426 325.302V333.75H282.458ZM302.357 333.75V322.086H303.989L304.157 323.766H304.229C304.741 323.206 305.293 322.742 305.885 322.374C306.493 321.99 307.149 321.798 307.853 321.798C308.749 321.798 309.445 321.998 309.941 322.398C310.453 322.782 310.829 323.326 311.069 324.03C311.677 323.358 312.285 322.822 312.893 322.422C313.517 322.006 314.189 321.798 314.909 321.798C316.109 321.798 316.997 322.182 317.573 322.95C318.165 323.718 318.461 324.854 318.461 326.358V333.75H316.493V326.622C316.493 325.518 316.317 324.726 315.965 324.246C315.613 323.75 315.069 323.502 314.333 323.502C313.453 323.502 312.477 324.102 311.405 325.302V333.75H309.437V326.622C309.437 325.518 309.261 324.726 308.909 324.246C308.557 323.75 308.005 323.502 307.253 323.502C306.373 323.502 305.397 324.102 304.325 325.302V333.75H302.357ZM324.943 334.038C323.967 334.038 323.151 333.75 322.495 333.174C321.855 332.598 321.535 331.782 321.535 330.726C321.535 329.446 322.103 328.47 323.239 327.798C324.375 327.11 326.191 326.63 328.687 326.358C328.687 325.99 328.647 325.63 328.567 325.278C328.503 324.926 328.383 324.614 328.207 324.342C328.031 324.07 327.783 323.854 327.463 323.694C327.159 323.518 326.767 323.43 326.287 323.43C325.615 323.43 324.983 323.558 324.391 323.814C323.799 324.07 323.271 324.358 322.807 324.678L322.039 323.31C322.583 322.958 323.247 322.622 324.031 322.302C324.815 321.966 325.679 321.798 326.623 321.798C328.047 321.798 329.079 322.238 329.719 323.118C330.359 323.982 330.679 325.142 330.679 326.598V333.75H329.047L328.879 332.358H328.807C328.247 332.822 327.647 333.222 327.007 333.558C326.367 333.878 325.679 334.038 324.943 334.038ZM325.519 332.454C326.079 332.454 326.607 332.326 327.103 332.07C327.599 331.798 328.127 331.406 328.687 330.894V327.654C327.711 327.782 326.887 327.934 326.215 328.11C325.559 328.286 325.023 328.494 324.607 328.734C324.207 328.974 323.911 329.254 323.719 329.574C323.543 329.878 323.455 330.214 323.455 330.582C323.455 331.254 323.655 331.734 324.055 332.022C324.455 332.31 324.943 332.454 325.519 332.454ZM334.349 333.75V322.086H335.981L336.149 323.766H336.221C336.781 323.206 337.365 322.742 337.973 322.374C338.597 321.99 339.317 321.798 340.133 321.798C341.365 321.798 342.261 322.182 342.821 322.95C343.397 323.718 343.685 324.854 343.685 326.358V333.75H341.717V326.622C341.717 325.518 341.541 324.726 341.189 324.246C340.837 323.75 340.277 323.502 339.509 323.502C338.901 323.502 338.365 323.654 337.901 323.958C337.437 324.262 336.909 324.71 336.317 325.302V333.75H334.349ZM351.458 334.038C349.986 334.038 348.81 333.51 347.93 332.454C347.066 331.398 346.634 329.894 346.634 327.942C346.634 326.998 346.77 326.15 347.042 325.398C347.33 324.63 347.706 323.982 348.17 323.454C348.634 322.926 349.17 322.518 349.778 322.23C350.386 321.942 351.026 321.798 351.698 321.798C352.37 321.798 352.954 321.918 353.45 322.158C353.946 322.398 354.45 322.726 354.962 323.142L354.866 321.15V316.662H356.858V333.75H355.226L355.058 332.382H354.986C354.522 332.83 353.986 333.222 353.378 333.558C352.786 333.878 352.146 334.038 351.458 334.038ZM351.89 332.382C352.434 332.382 352.946 332.254 353.426 331.998C353.906 331.726 354.386 331.318 354.866 330.774V324.678C354.37 324.23 353.89 323.918 353.426 323.742C352.978 323.55 352.514 323.454 352.034 323.454C351.57 323.454 351.13 323.566 350.714 323.79C350.314 323.998 349.962 324.302 349.658 324.702C349.354 325.086 349.114 325.55 348.938 326.094C348.762 326.638 348.674 327.246 348.674 327.918C348.674 329.326 348.954 330.422 349.514 331.206C350.074 331.99 350.866 332.382 351.89 332.382Z" fill="#D9EBFF"/>
<path d="M436.551 334.038C435.559 334.038 434.647 333.854 433.815 333.486C432.983 333.118 432.255 332.59 431.631 331.902C431.023 331.198 430.543 330.342 430.191 329.334C429.855 328.31 429.687 327.158 429.687 325.878C429.687 324.614 429.863 323.478 430.215 322.47C430.567 321.462 431.055 320.606 431.679 319.902C432.303 319.198 433.039 318.662 433.887 318.294C434.735 317.91 435.663 317.718 436.671 317.718C437.631 317.718 438.471 317.918 439.191 318.318C439.927 318.702 440.527 319.15 440.991 319.662L439.911 320.958C439.495 320.51 439.023 320.15 438.495 319.878C437.967 319.606 437.367 319.47 436.695 319.47C435.943 319.47 435.263 319.622 434.655 319.926C434.047 320.214 433.527 320.638 433.095 321.198C432.663 321.742 432.327 322.406 432.087 323.19C431.863 323.974 431.751 324.854 431.751 325.83C431.751 326.822 431.863 327.718 432.087 328.518C432.327 329.302 432.655 329.974 433.071 330.534C433.487 331.094 433.991 331.526 434.583 331.83C435.191 332.134 435.871 332.286 436.623 332.286C437.391 332.286 438.063 332.134 438.639 331.83C439.215 331.51 439.759 331.07 440.271 330.51L441.375 331.758C440.751 332.478 440.047 333.038 439.263 333.438C438.479 333.838 437.575 334.038 436.551 334.038Z" fill="#D9EBFF"/>
<path d="M390.014 331.254V326.574H385.646V325.086H390.014V320.406H391.574V325.086H395.942V326.574H391.574V331.254H390.014Z" fill="#D9EBFF"/>
<rect x="408.795" y="306.75" width="53" height="37" rx="3" stroke="#B3BFD8" stroke-width="2"/>
<path d="M390.756 203.675L390.28 202.796L390.756 203.675L399.701 198.824C401.29 197.962 401.11 195.625 399.407 195.017L376.591 186.874L376.255 187.816L376.591 186.874C374.93 186.281 373.326 187.885 373.919 189.546L382.062 212.362C382.669 214.065 385.006 214.246 385.869 212.656L390.72 203.711C390.728 203.696 390.741 203.683 390.756 203.675Z" fill="#D9EBFF" stroke="#0A0D12" stroke-width="2"/>
</svg>
