<svg width="1033" height="340" viewBox="0 0 1033 340" fill="none" xmlns="http://www.w3.org/2000/svg">
<rect width="1032" height="339" transform="translate(0.794922 0.25)" fill="#0A0D12"/>
<path d="M394.795 100.25H544.795M394.795 100.25V250.25H544.795M394.795 100.25L488.795 6.25H638.795M544.795 100.25V250.25M544.795 100.25L638.795 6.25M544.795 250.25L638.795 156.25V6.25" stroke="#B3BFD8" stroke-width="2"/>
<path d="M561.795 206.25V110.348L621.795 50.25V146.152L561.795 206.25Z" stroke="#3491FF" stroke-width="2"/>
<rect x="561.795" y="49.75" width="60" height="157" stroke="#3491FF"/>
<path d="M559.795 47.75H563.795V51.75H559.795V47.75ZM619.795 47.75H623.795V51.75H619.795V47.75ZM559.795 204.75H563.795V208.75H559.795V204.75ZM619.795 203.75H623.795V207.75H619.795V203.75Z" fill="#0A0D12" stroke="#3491FF"/>
<rect x="474.795" y="296.25" width="85" height="37" rx="3" fill="#0A0D12" stroke="#B3BFD8" stroke-width="2"/>
<path d="M500.807 323.538C499.703 323.538 498.679 323.33 497.735 322.914C496.791 322.498 495.975 321.93 495.287 321.21L496.487 319.818C497.047 320.41 497.703 320.89 498.455 321.258C499.223 321.61 500.015 321.786 500.831 321.786C501.871 321.786 502.679 321.554 503.255 321.09C503.831 320.61 504.119 319.986 504.119 319.218C504.119 318.818 504.047 318.482 503.903 318.21C503.775 317.922 503.591 317.682 503.351 317.49C503.127 317.282 502.855 317.098 502.535 316.938C502.215 316.778 501.871 316.61 501.503 316.434L499.247 315.45C498.879 315.29 498.503 315.098 498.119 314.874C497.735 314.65 497.391 314.378 497.087 314.058C496.783 313.738 496.535 313.362 496.343 312.93C496.151 312.482 496.055 311.97 496.055 311.394C496.055 310.802 496.175 310.25 496.415 309.738C496.671 309.226 497.015 308.786 497.447 308.418C497.895 308.034 498.415 307.738 499.007 307.53C499.615 307.322 500.279 307.218 500.999 307.218C501.943 307.218 502.815 307.402 503.615 307.77C504.415 308.122 505.095 308.586 505.655 309.162L504.575 310.458C504.095 309.994 503.559 309.634 502.967 309.378C502.391 309.106 501.735 308.97 500.999 308.97C500.119 308.97 499.407 309.178 498.863 309.594C498.335 309.994 498.071 310.554 498.071 311.274C498.071 311.658 498.143 311.986 498.287 312.258C498.447 312.514 498.655 312.746 498.911 312.954C499.167 313.146 499.447 313.322 499.751 313.482C500.055 313.626 500.367 313.762 500.687 313.89L502.919 314.85C503.367 315.042 503.791 315.266 504.191 315.522C504.591 315.762 504.935 316.05 505.223 316.386C505.511 316.706 505.735 317.09 505.895 317.538C506.071 317.97 506.159 318.474 506.159 319.05C506.159 319.674 506.031 320.258 505.775 320.802C505.535 321.346 505.183 321.826 504.719 322.242C504.255 322.642 503.695 322.962 503.039 323.202C502.383 323.426 501.639 323.538 500.807 323.538ZM509.068 323.25V306.162H511.036V310.818L510.964 313.218C511.524 312.69 512.108 312.242 512.716 311.874C513.324 311.49 514.036 311.298 514.852 311.298C516.084 311.298 516.98 311.682 517.54 312.45C518.116 313.218 518.404 314.354 518.404 315.858V323.25H516.436V316.122C516.436 315.018 516.26 314.226 515.908 313.746C515.556 313.25 514.996 313.002 514.228 313.002C513.62 313.002 513.084 313.154 512.62 313.458C512.156 313.762 511.628 314.21 511.036 314.802V323.25H509.068ZM522.122 323.25V311.586H524.09V323.25H522.122ZM523.13 309.186C522.746 309.186 522.418 309.066 522.146 308.826C521.89 308.586 521.762 308.282 521.762 307.914C521.762 307.53 521.89 307.226 522.146 307.002C522.418 306.762 522.746 306.642 523.13 306.642C523.514 306.642 523.834 306.762 524.09 307.002C524.362 307.226 524.498 307.53 524.498 307.914C524.498 308.282 524.362 308.586 524.09 308.826C523.834 309.066 523.514 309.186 523.13 309.186ZM528.365 323.25V313.194H526.781V311.706L528.365 311.586V309.738C528.365 308.538 528.637 307.594 529.181 306.906C529.741 306.218 530.605 305.874 531.773 305.874C532.141 305.874 532.485 305.914 532.805 305.994C533.141 306.058 533.445 306.146 533.717 306.258L533.285 307.77C532.853 307.578 532.413 307.482 531.965 307.482C530.877 307.482 530.333 308.234 530.333 309.738V311.586H534.605L534.845 308.322H536.477V311.586H539.645V313.194H536.477V319.674C536.477 320.394 536.613 320.954 536.885 321.354C537.157 321.738 537.629 321.93 538.301 321.93C538.509 321.93 538.733 321.898 538.973 321.834C539.213 321.77 539.429 321.698 539.621 321.618L540.005 323.106C539.685 323.218 539.333 323.314 538.949 323.394C538.581 323.49 538.213 323.538 537.845 323.538C537.221 323.538 536.693 323.442 536.261 323.25C535.845 323.058 535.501 322.794 535.229 322.458C534.973 322.122 534.789 321.714 534.677 321.234C534.565 320.754 534.509 320.226 534.509 319.65V313.194H530.333V323.25H528.365Z" fill="#D9EBFF"/>
<path d="M622.695 35H621.695V36V39.587V40.587H622.695H625.462L610.587 55.4623V52.6949V51.6949H609.587H606H605V52.6949V62.2065C605 63.7493 606.251 65 607.794 65H617.305H618.305V64V60.413V59.413H617.305H614.538L629.413 44.5377V47.3051V48.3051H630.413H634H635V47.3051V37.7935C635 36.2507 633.749 35 632.206 35H622.695Z" fill="#D9EBFF" stroke="#0A0D12" stroke-width="2"/>
<path d="M65.7949 100.25H215.795M65.7949 100.25V250.25H215.795M65.7949 100.25L159.795 6.25H309.795M215.795 100.25V250.25M215.795 100.25L309.795 6.25M215.795 250.25L309.795 156.25V6.25" stroke="#B3BFD8" stroke-width="2"/>
<path d="M215.795 250.25V100.25L309.795 6.25V156.25L215.795 250.25Z" stroke="#3491FF" stroke-width="2"/>
<path d="M295.756 222.175L295.28 221.296L295.756 222.175L304.701 217.324C306.29 216.462 306.11 214.125 304.407 213.517L281.591 205.374L281.255 206.316L281.591 205.374C279.93 204.781 278.326 206.385 278.919 208.046L287.062 230.862C287.669 232.565 290.006 232.746 290.869 231.156L295.72 222.211C295.728 222.196 295.741 222.183 295.756 222.175Z" fill="#D9EBFF" stroke="#0A0D12" stroke-width="2"/>
<rect x="76.7949" y="296.25" width="133" height="37" rx="3" fill="#0A0D12" stroke="#B3BFD8" stroke-width="2"/>
<path d="M98.8835 323.538C97.8915 323.538 96.9795 323.354 96.1475 322.986C95.3155 322.618 94.5875 322.09 93.9635 321.402C93.3555 320.698 92.8755 319.842 92.5235 318.834C92.1875 317.81 92.0195 316.658 92.0195 315.378C92.0195 314.114 92.1955 312.978 92.5475 311.97C92.8995 310.962 93.3875 310.106 94.0115 309.402C94.6355 308.698 95.3715 308.162 96.2195 307.794C97.0675 307.41 97.9955 307.218 99.0035 307.218C99.9635 307.218 100.803 307.418 101.523 307.818C102.259 308.202 102.859 308.65 103.323 309.162L102.243 310.458C101.827 310.01 101.355 309.65 100.827 309.378C100.299 309.106 99.6995 308.97 99.0275 308.97C98.2755 308.97 97.5955 309.122 96.9875 309.426C96.3795 309.714 95.8595 310.138 95.4275 310.698C94.9955 311.242 94.6595 311.906 94.4195 312.69C94.1955 313.474 94.0835 314.354 94.0835 315.33C94.0835 316.322 94.1955 317.218 94.4195 318.018C94.6595 318.802 94.9875 319.474 95.4035 320.034C95.8195 320.594 96.3235 321.026 96.9155 321.33C97.5235 321.634 98.2035 321.786 98.9555 321.786C99.7235 321.786 100.395 321.634 100.971 321.33C101.547 321.01 102.091 320.57 102.603 320.01L103.707 321.258C103.083 321.978 102.379 322.538 101.595 322.938C100.811 323.338 99.9075 323.538 98.8835 323.538ZM110.986 323.538C110.266 323.538 109.578 323.402 108.922 323.13C108.282 322.858 107.714 322.466 107.218 321.954C106.722 321.426 106.322 320.786 106.018 320.034C105.73 319.266 105.586 318.402 105.586 317.442C105.586 316.466 105.73 315.602 106.018 314.85C106.322 314.082 106.722 313.434 107.218 312.906C107.714 312.378 108.282 311.978 108.922 311.706C109.578 311.434 110.266 311.298 110.986 311.298C111.706 311.298 112.386 311.434 113.026 311.706C113.682 311.978 114.258 312.378 114.754 312.906C115.25 313.434 115.642 314.082 115.93 314.85C116.234 315.602 116.386 316.466 116.386 317.442C116.386 318.402 116.234 319.266 115.93 320.034C115.642 320.786 115.25 321.426 114.754 321.954C114.258 322.466 113.682 322.858 113.026 323.13C112.386 323.402 111.706 323.538 110.986 323.538ZM110.986 321.906C111.482 321.906 111.938 321.802 112.354 321.594C112.77 321.37 113.122 321.066 113.41 320.682C113.714 320.282 113.946 319.81 114.106 319.266C114.266 318.722 114.346 318.114 114.346 317.442C114.346 316.77 114.266 316.162 114.106 315.618C113.946 315.058 113.714 314.578 113.41 314.178C113.122 313.778 112.77 313.474 112.354 313.266C111.938 313.042 111.482 312.93 110.986 312.93C110.49 312.93 110.034 313.042 109.618 313.266C109.202 313.474 108.842 313.778 108.538 314.178C108.25 314.578 108.026 315.058 107.866 315.618C107.706 316.162 107.626 316.77 107.626 317.442C107.626 318.114 107.706 318.722 107.866 319.266C108.026 319.81 108.25 320.282 108.538 320.682C108.842 321.066 109.202 321.37 109.618 321.594C110.034 321.802 110.49 321.906 110.986 321.906ZM119.458 323.25V311.586H121.09L121.258 313.266H121.33C121.842 312.706 122.394 312.242 122.986 311.874C123.594 311.49 124.25 311.298 124.954 311.298C125.85 311.298 126.546 311.498 127.042 311.898C127.554 312.282 127.93 312.826 128.17 313.53C128.778 312.858 129.386 312.322 129.994 311.922C130.618 311.506 131.29 311.298 132.01 311.298C133.21 311.298 134.098 311.682 134.674 312.45C135.266 313.218 135.562 314.354 135.562 315.858V323.25H133.594V316.122C133.594 315.018 133.418 314.226 133.066 313.746C132.714 313.25 132.17 313.002 131.434 313.002C130.554 313.002 129.578 313.602 128.506 314.802V323.25H126.538V316.122C126.538 315.018 126.362 314.226 126.01 313.746C125.658 313.25 125.106 313.002 124.354 313.002C123.474 313.002 122.498 313.602 121.426 314.802V323.25H119.458ZM139.357 323.25V311.586H140.989L141.157 313.266H141.229C141.741 312.706 142.293 312.242 142.885 311.874C143.493 311.49 144.149 311.298 144.853 311.298C145.749 311.298 146.445 311.498 146.941 311.898C147.453 312.282 147.829 312.826 148.069 313.53C148.677 312.858 149.285 312.322 149.893 311.922C150.517 311.506 151.189 311.298 151.909 311.298C153.109 311.298 153.997 311.682 154.573 312.45C155.165 313.218 155.461 314.354 155.461 315.858V323.25H153.493V316.122C153.493 315.018 153.317 314.226 152.965 313.746C152.613 313.25 152.069 313.002 151.333 313.002C150.453 313.002 149.477 313.602 148.405 314.802V323.25H146.437V316.122C146.437 315.018 146.261 314.226 145.909 313.746C145.557 313.25 145.005 313.002 144.253 313.002C143.373 313.002 142.397 313.602 141.325 314.802V323.25H139.357ZM161.943 323.538C160.967 323.538 160.151 323.25 159.495 322.674C158.855 322.098 158.535 321.282 158.535 320.226C158.535 318.946 159.103 317.97 160.239 317.298C161.375 316.61 163.191 316.13 165.687 315.858C165.687 315.49 165.647 315.13 165.567 314.778C165.503 314.426 165.383 314.114 165.207 313.842C165.031 313.57 164.783 313.354 164.463 313.194C164.159 313.018 163.767 312.93 163.287 312.93C162.615 312.93 161.983 313.058 161.391 313.314C160.799 313.57 160.271 313.858 159.807 314.178L159.039 312.81C159.583 312.458 160.247 312.122 161.031 311.802C161.815 311.466 162.679 311.298 163.623 311.298C165.047 311.298 166.079 311.738 166.719 312.618C167.359 313.482 167.679 314.642 167.679 316.098V323.25H166.047L165.879 321.858H165.807C165.247 322.322 164.647 322.722 164.007 323.058C163.367 323.378 162.679 323.538 161.943 323.538ZM162.519 321.954C163.079 321.954 163.607 321.826 164.103 321.57C164.599 321.298 165.127 320.906 165.687 320.394V317.154C164.711 317.282 163.887 317.434 163.215 317.61C162.559 317.786 162.023 317.994 161.607 318.234C161.207 318.474 160.911 318.754 160.719 319.074C160.543 319.378 160.455 319.714 160.455 320.082C160.455 320.754 160.655 321.234 161.055 321.522C161.455 321.81 161.943 321.954 162.519 321.954ZM171.349 323.25V311.586H172.981L173.149 313.266H173.221C173.781 312.706 174.365 312.242 174.973 311.874C175.597 311.49 176.317 311.298 177.133 311.298C178.365 311.298 179.261 311.682 179.821 312.45C180.397 313.218 180.685 314.354 180.685 315.858V323.25H178.717V316.122C178.717 315.018 178.541 314.226 178.189 313.746C177.837 313.25 177.277 313.002 176.509 313.002C175.901 313.002 175.365 313.154 174.901 313.458C174.437 313.762 173.909 314.21 173.317 314.802V323.25H171.349ZM188.458 323.538C186.986 323.538 185.81 323.01 184.93 321.954C184.066 320.898 183.634 319.394 183.634 317.442C183.634 316.498 183.77 315.65 184.042 314.898C184.33 314.13 184.706 313.482 185.17 312.954C185.634 312.426 186.17 312.018 186.778 311.73C187.386 311.442 188.026 311.298 188.698 311.298C189.37 311.298 189.954 311.418 190.45 311.658C190.946 311.898 191.45 312.226 191.962 312.642L191.866 310.65V306.162H193.858V323.25H192.226L192.058 321.882H191.986C191.522 322.33 190.986 322.722 190.378 323.058C189.786 323.378 189.146 323.538 188.458 323.538ZM188.89 321.882C189.434 321.882 189.946 321.754 190.426 321.498C190.906 321.226 191.386 320.818 191.866 320.274V314.178C191.37 313.73 190.89 313.418 190.426 313.242C189.978 313.05 189.514 312.954 189.034 312.954C188.57 312.954 188.13 313.066 187.714 313.29C187.314 313.498 186.962 313.802 186.658 314.202C186.354 314.586 186.114 315.05 185.938 315.594C185.762 316.138 185.674 316.746 185.674 317.418C185.674 318.826 185.954 319.922 186.514 320.706C187.074 321.49 187.866 321.882 188.89 321.882Z" fill="#D9EBFF"/>
<path d="M271.159 323.25L266.119 307.506H268.255L270.775 316.002C271.063 316.946 271.311 317.818 271.519 318.618C271.743 319.418 272.007 320.282 272.311 321.21H272.407C272.695 320.282 272.951 319.418 273.175 318.618C273.399 317.818 273.647 316.946 273.919 316.002L276.439 307.506H278.479L273.487 323.25H271.159Z" fill="#D9EBFF"/>
<path d="M227.014 320.754V316.074H222.646V314.586H227.014V309.906H228.574V314.586H232.942V316.074H228.574V320.754H227.014Z" fill="#D9EBFF"/>
<rect x="245.795" y="296.25" width="53" height="37" rx="3" stroke="#B3BFD8" stroke-width="2"/>
<path d="M726.795 99.75H876.795M726.795 99.75V249.75H876.795M726.795 99.75L820.795 5.75H970.795M876.795 99.75V249.75M876.795 99.75L970.795 5.75M876.795 249.75L970.795 155.75V5.75" stroke="#3491FF" stroke-width="2"/>
<path d="M893.795 205.75V109.848L953.795 49.75V145.652L893.795 205.75Z" stroke="#3491FF" stroke-width="2"/>
<path d="M931.756 224.675L931.28 223.796L931.756 224.675L940.701 219.824C942.29 218.962 942.11 216.625 940.407 216.017L917.591 207.874L917.255 208.816L917.591 207.874C915.93 207.281 914.326 208.885 914.919 210.546L923.062 233.362C923.669 235.065 926.006 235.246 926.869 233.656L931.72 224.711C931.728 224.696 931.741 224.683 931.756 224.675Z" fill="#D9EBFF" stroke="#0A0D12" stroke-width="2"/>
<rect x="737.795" y="295.75" width="133" height="37" rx="3" fill="#0A0D12" stroke="#B3BFD8" stroke-width="2"/>
<path d="M759.883 323.038C758.891 323.038 757.979 322.854 757.147 322.486C756.315 322.118 755.587 321.59 754.963 320.902C754.355 320.198 753.875 319.342 753.523 318.334C753.187 317.31 753.019 316.158 753.019 314.878C753.019 313.614 753.195 312.478 753.547 311.47C753.899 310.462 754.387 309.606 755.011 308.902C755.635 308.198 756.371 307.662 757.219 307.294C758.067 306.91 758.995 306.718 760.003 306.718C760.963 306.718 761.803 306.918 762.523 307.318C763.259 307.702 763.859 308.15 764.323 308.662L763.243 309.958C762.827 309.51 762.355 309.15 761.827 308.878C761.299 308.606 760.699 308.47 760.027 308.47C759.275 308.47 758.595 308.622 757.987 308.926C757.379 309.214 756.859 309.638 756.427 310.198C755.995 310.742 755.659 311.406 755.419 312.19C755.195 312.974 755.083 313.854 755.083 314.83C755.083 315.822 755.195 316.718 755.419 317.518C755.659 318.302 755.987 318.974 756.403 319.534C756.819 320.094 757.323 320.526 757.915 320.83C758.523 321.134 759.203 321.286 759.955 321.286C760.723 321.286 761.395 321.134 761.971 320.83C762.547 320.51 763.091 320.07 763.603 319.51L764.707 320.758C764.083 321.478 763.379 322.038 762.595 322.438C761.811 322.838 760.907 323.038 759.883 323.038ZM771.986 323.038C771.266 323.038 770.578 322.902 769.922 322.63C769.282 322.358 768.714 321.966 768.218 321.454C767.722 320.926 767.322 320.286 767.018 319.534C766.73 318.766 766.586 317.902 766.586 316.942C766.586 315.966 766.73 315.102 767.018 314.35C767.322 313.582 767.722 312.934 768.218 312.406C768.714 311.878 769.282 311.478 769.922 311.206C770.578 310.934 771.266 310.798 771.986 310.798C772.706 310.798 773.386 310.934 774.026 311.206C774.682 311.478 775.258 311.878 775.754 312.406C776.25 312.934 776.642 313.582 776.93 314.35C777.234 315.102 777.386 315.966 777.386 316.942C777.386 317.902 777.234 318.766 776.93 319.534C776.642 320.286 776.25 320.926 775.754 321.454C775.258 321.966 774.682 322.358 774.026 322.63C773.386 322.902 772.706 323.038 771.986 323.038ZM771.986 321.406C772.482 321.406 772.938 321.302 773.354 321.094C773.77 320.87 774.122 320.566 774.41 320.182C774.714 319.782 774.946 319.31 775.106 318.766C775.266 318.222 775.346 317.614 775.346 316.942C775.346 316.27 775.266 315.662 775.106 315.118C774.946 314.558 774.714 314.078 774.41 313.678C774.122 313.278 773.77 312.974 773.354 312.766C772.938 312.542 772.482 312.43 771.986 312.43C771.49 312.43 771.034 312.542 770.618 312.766C770.202 312.974 769.842 313.278 769.538 313.678C769.25 314.078 769.026 314.558 768.866 315.118C768.706 315.662 768.626 316.27 768.626 316.942C768.626 317.614 768.706 318.222 768.866 318.766C769.026 319.31 769.25 319.782 769.538 320.182C769.842 320.566 770.202 320.87 770.618 321.094C771.034 321.302 771.49 321.406 771.986 321.406ZM780.458 322.75V311.086H782.09L782.258 312.766H782.33C782.842 312.206 783.394 311.742 783.986 311.374C784.594 310.99 785.25 310.798 785.954 310.798C786.85 310.798 787.546 310.998 788.042 311.398C788.554 311.782 788.93 312.326 789.17 313.03C789.778 312.358 790.386 311.822 790.994 311.422C791.618 311.006 792.29 310.798 793.01 310.798C794.21 310.798 795.098 311.182 795.674 311.95C796.266 312.718 796.562 313.854 796.562 315.358V322.75H794.594V315.622C794.594 314.518 794.418 313.726 794.066 313.246C793.714 312.75 793.17 312.502 792.434 312.502C791.554 312.502 790.578 313.102 789.506 314.302V322.75H787.538V315.622C787.538 314.518 787.362 313.726 787.01 313.246C786.658 312.75 786.106 312.502 785.354 312.502C784.474 312.502 783.498 313.102 782.426 314.302V322.75H780.458ZM800.357 322.75V311.086H801.989L802.157 312.766H802.229C802.741 312.206 803.293 311.742 803.885 311.374C804.493 310.99 805.149 310.798 805.853 310.798C806.749 310.798 807.445 310.998 807.941 311.398C808.453 311.782 808.829 312.326 809.069 313.03C809.677 312.358 810.285 311.822 810.893 311.422C811.517 311.006 812.189 310.798 812.909 310.798C814.109 310.798 814.997 311.182 815.573 311.95C816.165 312.718 816.461 313.854 816.461 315.358V322.75H814.493V315.622C814.493 314.518 814.317 313.726 813.965 313.246C813.613 312.75 813.069 312.502 812.333 312.502C811.453 312.502 810.477 313.102 809.405 314.302V322.75H807.437V315.622C807.437 314.518 807.261 313.726 806.909 313.246C806.557 312.75 806.005 312.502 805.253 312.502C804.373 312.502 803.397 313.102 802.325 314.302V322.75H800.357ZM822.943 323.038C821.967 323.038 821.151 322.75 820.495 322.174C819.855 321.598 819.535 320.782 819.535 319.726C819.535 318.446 820.103 317.47 821.239 316.798C822.375 316.11 824.191 315.63 826.687 315.358C826.687 314.99 826.647 314.63 826.567 314.278C826.503 313.926 826.383 313.614 826.207 313.342C826.031 313.07 825.783 312.854 825.463 312.694C825.159 312.518 824.767 312.43 824.287 312.43C823.615 312.43 822.983 312.558 822.391 312.814C821.799 313.07 821.271 313.358 820.807 313.678L820.039 312.31C820.583 311.958 821.247 311.622 822.031 311.302C822.815 310.966 823.679 310.798 824.623 310.798C826.047 310.798 827.079 311.238 827.719 312.118C828.359 312.982 828.679 314.142 828.679 315.598V322.75H827.047L826.879 321.358H826.807C826.247 321.822 825.647 322.222 825.007 322.558C824.367 322.878 823.679 323.038 822.943 323.038ZM823.519 321.454C824.079 321.454 824.607 321.326 825.103 321.07C825.599 320.798 826.127 320.406 826.687 319.894V316.654C825.711 316.782 824.887 316.934 824.215 317.11C823.559 317.286 823.023 317.494 822.607 317.734C822.207 317.974 821.911 318.254 821.719 318.574C821.543 318.878 821.455 319.214 821.455 319.582C821.455 320.254 821.655 320.734 822.055 321.022C822.455 321.31 822.943 321.454 823.519 321.454ZM832.349 322.75V311.086H833.981L834.149 312.766H834.221C834.781 312.206 835.365 311.742 835.973 311.374C836.597 310.99 837.317 310.798 838.133 310.798C839.365 310.798 840.261 311.182 840.821 311.95C841.397 312.718 841.685 313.854 841.685 315.358V322.75H839.717V315.622C839.717 314.518 839.541 313.726 839.189 313.246C838.837 312.75 838.277 312.502 837.509 312.502C836.901 312.502 836.365 312.654 835.901 312.958C835.437 313.262 834.909 313.71 834.317 314.302V322.75H832.349ZM849.458 323.038C847.986 323.038 846.81 322.51 845.93 321.454C845.066 320.398 844.634 318.894 844.634 316.942C844.634 315.998 844.77 315.15 845.042 314.398C845.33 313.63 845.706 312.982 846.17 312.454C846.634 311.926 847.17 311.518 847.778 311.23C848.386 310.942 849.026 310.798 849.698 310.798C850.37 310.798 850.954 310.918 851.45 311.158C851.946 311.398 852.45 311.726 852.962 312.142L852.866 310.15V305.662H854.858V322.75H853.226L853.058 321.382H852.986C852.522 321.83 851.986 322.222 851.378 322.558C850.786 322.878 850.146 323.038 849.458 323.038ZM849.89 321.382C850.434 321.382 850.946 321.254 851.426 320.998C851.906 320.726 852.386 320.318 852.866 319.774V313.678C852.37 313.23 851.89 312.918 851.426 312.742C850.978 312.55 850.514 312.454 850.034 312.454C849.57 312.454 849.13 312.566 848.714 312.79C848.314 312.998 847.962 313.302 847.658 313.702C847.354 314.086 847.114 314.55 846.938 315.094C846.762 315.638 846.674 316.246 846.674 316.918C846.674 318.326 846.954 319.422 847.514 320.206C848.074 320.99 848.866 321.382 849.89 321.382Z" fill="#D9EBFF"/>
<path d="M929.127 322.75V307.006H938.199V308.686H931.119V313.63H937.095V315.334H931.119V321.046H938.439V322.75H929.127Z" fill="#D9EBFF"/>
<path d="M888.014 320.254V315.574H883.646V314.086H888.014V309.406H889.574V314.086H893.942V315.574H889.574V320.254H888.014Z" fill="#D9EBFF"/>
<rect x="906.795" y="295.75" width="53" height="37" rx="3" stroke="#B3BFD8" stroke-width="2"/>
<rect x="726.795" y="5.75" width="244" height="244" stroke="#3491FF"/>
<path d="M724.795 3.75H728.795V7.75H724.795V3.75ZM968.795 3.75H972.795V7.75H968.795V3.75ZM724.795 247.75H728.795V251.75H724.795V247.75ZM968.795 246.75H972.795V250.75H968.795V246.75Z" fill="#0A0D12" stroke="#3491FF"/>
</svg>
