<svg width="701" height="271" viewBox="0 0 701 271" fill="none" xmlns="http://www.w3.org/2000/svg">
<rect width="700" height="270" transform="translate(0.794922 0.75)" fill="#0A0D12"/>
<path d="M248.795 106.75H398.795M248.795 106.75V256.75H398.795M248.795 106.75L342.795 12.75H492.795M398.795 106.75V256.75M398.795 106.75L492.795 12.75M398.795 256.75L492.795 162.75V12.75" stroke="#B3BFD8" stroke-width="2"/>
<path d="M415.795 212.75V116.848L475.795 56.75V152.652L415.795 212.75Z" stroke="#B3BFD8" stroke-width="2"/>
<circle cx="398.795" cy="106.75" r="5" fill="black" stroke="#D9EBFF" stroke-width="2"/>
<circle cx="415.795" cy="116.75" r="5" fill="black" stroke="#D9EBFF" stroke-width="2"/>
<circle cx="415.795" cy="212.75" r="5" fill="black" stroke="#D9EBFF" stroke-width="2"/>
<circle cx="475.795" cy="152.75" r="5" fill="black" stroke="#D9EBFF" stroke-width="2"/>
<circle cx="475.795" cy="56.75" r="5" fill="black" stroke="#D9EBFF" stroke-width="2"/>
<circle cx="248.795" cy="106.75" r="5" fill="black" stroke="#D9EBFF" stroke-width="2"/>
<circle cx="248.795" cy="256.75" r="5" fill="black" stroke="#D9EBFF" stroke-width="2"/>
<circle cx="398.795" cy="256.75" r="5" fill="black" stroke="#D9EBFF" stroke-width="2"/>
<circle cx="492.795" cy="162.75" r="5" fill="black" stroke="#D9EBFF" stroke-width="2"/>
<circle cx="492.795" cy="12.75" r="5" fill="black" stroke="#D9EBFF" stroke-width="2"/>
<circle cx="342.795" cy="12.75" r="5" fill="black" stroke="#D9EBFF" stroke-width="2"/>
</svg>
