<svg width="701" height="271" viewBox="0 0 701 271" fill="none" xmlns="http://www.w3.org/2000/svg">
<rect width="700" height="270" transform="translate(0.794922 0.75)" fill="#0A0D12"/>
<path d="M248.795 106.75H398.795M248.795 106.75V256.75H398.795M248.795 106.75L342.795 12.75H492.795M398.795 106.75V256.75M398.795 106.75L492.795 12.75M398.795 256.75L492.795 162.75V12.75" stroke="#B3BFD8" stroke-width="2"/>
<path d="M475.795 56.75L415.795 116.848V152.652V212.75L475.795 152.652V56.75Z" stroke="#B3BFD8" stroke-width="2"/>
<path d="M474.795 152.75L423.795 152.75" stroke="#3491FF" stroke-width="2"/>
<circle cx="398.795" cy="106.75" r="5" fill="black" stroke="#D9EBFF" stroke-width="2"/>
<circle cx="415.795" cy="116.75" r="5" fill="black" stroke="#D9EBFF" stroke-width="2"/>
<circle cx="415.795" cy="212.75" r="5" fill="black" stroke="#D9EBFF" stroke-width="2"/>
<circle cx="475.795" cy="152.75" r="5" fill="black" stroke="#3491FF" stroke-width="2"/>
<circle cx="424.795" cy="152.75" r="5" fill="black" stroke="#3491FF" stroke-width="2"/>
<circle cx="475.795" cy="56.75" r="5" fill="black" stroke="#D9EBFF" stroke-width="2"/>
<circle cx="248.795" cy="106.75" r="5" fill="black" stroke="#D9EBFF" stroke-width="2"/>
<circle cx="248.795" cy="256.75" r="5" fill="black" stroke="#D9EBFF" stroke-width="2"/>
<circle cx="398.795" cy="256.75" r="5" fill="black" stroke="#D9EBFF" stroke-width="2"/>
<circle cx="492.795" cy="162.75" r="5" fill="black" stroke="#D9EBFF" stroke-width="2"/>
<circle cx="492.795" cy="12.75" r="5" fill="black" stroke="#D9EBFF" stroke-width="2"/>
<circle cx="342.795" cy="12.75" r="5" fill="black" stroke="#D9EBFF" stroke-width="2"/>
<path fill-rule="evenodd" clip-rule="evenodd" d="M440.633 157.497C443.475 158.355 445.486 159.86 446.429 161.896C447.216 163.594 447.151 165.429 446.5 167.14L449.795 170.435L443.408 176.822L440.113 173.526C438.402 174.178 436.567 174.243 434.869 173.456C432.832 172.513 431.326 170.499 430.468 167.654L426.371 154.589C426.129 153.816 426.859 153.09 427.63 153.337L440.633 157.497ZM440.156 158.971C445.34 160.523 446.456 164.119 444.644 167.475L447.605 170.435L443.408 174.631L440.448 171.671C437.092 173.483 433.497 172.367 431.944 167.183L428.118 155.848L435.999 163.729C435.911 163.923 435.862 164.139 435.862 164.366C435.862 165.222 436.556 165.915 437.411 165.915C438.266 165.915 438.96 165.222 438.96 164.366C438.96 163.511 438.266 162.817 437.411 162.817C437.184 162.817 436.968 162.866 436.774 162.954L428.893 155.073L440.156 158.971Z" fill="#0A0D12"/>
<path d="M444.644 167.475C446.456 164.119 445.34 160.523 440.156 158.971L428.893 155.073L436.774 162.954C436.968 162.866 437.184 162.817 437.411 162.817C438.266 162.817 438.96 163.511 438.96 164.366C438.96 165.222 438.266 165.915 437.411 165.915C436.556 165.915 435.862 165.222 435.862 164.366C435.862 164.139 435.911 163.923 435.999 163.729L428.118 155.848L431.944 167.183C433.497 172.367 437.092 173.483 440.448 171.671L443.408 174.631L447.605 170.435L444.644 167.475Z" fill="#D9EBFF"/>
</svg>
