<svg width="701" height="238" viewBox="0 0 701 238" fill="none" xmlns="http://www.w3.org/2000/svg">
<rect width="700" height="237" transform="translate(0.294922 0.5)" fill="#0A0D12"/>
<path d="M274.795 22.5H425.795M274.795 22.5L350.295 66.1667L425.795 22.5M274.795 22.5L199.295 98.1667L274.795 173.833M425.795 22.5L501.295 98.1667L425.795 173.833M425.795 173.833L350.295 217.5L274.795 173.833M425.795 173.833H274.795" stroke="#B3BFD8" stroke-width="2"/>
<circle cx="200.295" cy="98.5" r="5" fill="black" stroke="#D9EBFF" stroke-width="2"/>
<circle cx="275.295" cy="22.5" r="5" fill="black" stroke="#D9EBFF" stroke-width="2"/>
<circle cx="425.295" cy="22.5" r="5" fill="black" stroke="#D9EBFF" stroke-width="2"/>
<circle cx="350.295" cy="66.5" r="5" fill="black" stroke="#D9EBFF" stroke-width="2"/>
<circle cx="350.295" cy="217.5" r="5" fill="black" stroke="#D9EBFF" stroke-width="2"/>
<circle cx="426.295" cy="173.5" r="5" fill="black" stroke="#D9EBFF" stroke-width="2"/>
<circle cx="274.295" cy="173.5" r="5" fill="black" stroke="#D9EBFF" stroke-width="2"/>
<circle cx="501.295" cy="98.5" r="5" fill="black" stroke="#D9EBFF" stroke-width="2"/>
</svg>
