<svg width="701" height="256" viewBox="0 0 701 256" fill="none" xmlns="http://www.w3.org/2000/svg">
<rect width="700" height="255" transform="translate(0.294922 0.75)" fill="#0A0D12"/>
<path d="M274.795 31.75H425.795M274.795 31.75L350.295 75.4167L425.795 31.75M274.795 31.75L199.295 107.417L274.795 183.083M425.795 31.75L501.295 107.417L425.795 183.083M425.795 183.083L350.295 226.75L274.795 183.083M425.795 183.083H274.795" stroke="#B3BFD8" stroke-width="2"/>
<circle cx="200.295" cy="107.75" r="5" fill="black" stroke="#D9EBFF" stroke-width="2"/>
<circle cx="275.295" cy="31.75" r="5" fill="black" stroke="#D9EBFF" stroke-width="2"/>
<circle cx="425.295" cy="31.75" r="5" fill="black" stroke="#D9EBFF" stroke-width="2"/>
<circle cx="350.295" cy="75.75" r="5" fill="black" stroke="#D9EBFF" stroke-width="2"/>
<circle cx="350.295" cy="226.75" r="5" fill="black" stroke="#D9EBFF" stroke-width="2"/>
<circle cx="426.295" cy="182.75" r="5" fill="black" stroke="#D9EBFF" stroke-width="2"/>
<circle cx="274.295" cy="182.75" r="5" fill="black" stroke="#D9EBFF" stroke-width="2"/>
<circle cx="501.295" cy="107.75" r="5" fill="black" stroke="#D9EBFF" stroke-width="2"/>
<path d="M169.295 104.991C169.309 104.907 169.33 104.796 169.358 104.657C169.385 104.517 169.469 104.252 169.608 103.862C169.748 103.472 169.887 103.145 170.027 102.88C170.166 102.615 170.396 102.357 170.716 102.106C171.037 101.856 171.357 101.737 171.678 101.751C172.179 101.751 172.597 101.877 172.932 102.127C173.266 102.378 173.475 102.615 173.559 102.838C173.643 103.061 173.684 103.207 173.684 103.277C173.684 103.305 173.691 103.319 173.705 103.319L173.935 103.089C174.785 102.197 175.754 101.751 176.841 101.751C177.593 101.751 178.199 101.939 178.659 102.315C179.119 102.692 179.356 103.242 179.37 103.967C179.384 104.691 179.119 105.785 178.576 107.248C178.032 108.712 177.767 109.596 177.781 109.903C177.781 110.265 177.9 110.446 178.137 110.446C178.22 110.446 178.283 110.439 178.325 110.426C178.729 110.356 179.091 110.091 179.412 109.631C179.732 109.171 179.976 108.614 180.143 107.959C180.171 107.848 180.31 107.792 180.561 107.792C180.84 107.792 180.979 107.848 180.979 107.959C180.979 107.973 180.951 108.078 180.896 108.273C180.784 108.677 180.631 109.074 180.436 109.464C180.241 109.854 179.92 110.244 179.474 110.635C179.028 111.025 178.548 111.213 178.032 111.199C177.377 111.199 176.903 111.011 176.611 110.635C176.318 110.258 176.172 109.868 176.172 109.464C176.172 109.199 176.423 108.363 176.924 106.956C177.426 105.548 177.684 104.489 177.698 103.779C177.698 102.956 177.391 102.545 176.778 102.545H176.673C175.475 102.545 174.465 103.249 173.643 104.657L173.496 104.907L172.807 107.708C172.347 109.534 172.082 110.516 172.012 110.655C171.831 111.032 171.531 111.22 171.113 111.22C170.932 111.22 170.786 111.178 170.674 111.094C170.563 111.011 170.486 110.927 170.445 110.844C170.403 110.76 170.389 110.69 170.403 110.635C170.403 110.453 170.668 109.318 171.197 107.227C171.727 105.137 172.005 104.002 172.033 103.82C172.047 103.751 172.054 103.591 172.054 103.34C172.054 102.796 171.887 102.524 171.552 102.524C171.023 102.524 170.584 103.221 170.236 104.615C170.152 104.893 170.11 105.04 170.11 105.054C170.082 105.137 169.95 105.179 169.713 105.179H169.42C169.337 105.095 169.295 105.033 169.295 104.991Z" fill="#D9EBFF"/>
<path d="M182.821 105.493C183.373 104.695 184.126 104.296 185.082 104.296C185.555 104.296 186.028 104.424 186.501 104.68C186.974 104.936 187.358 105.389 187.653 106.039C188.018 106.857 188.2 107.98 188.2 109.409C188.2 110.936 187.988 112.103 187.565 112.911C187.368 113.325 187.097 113.655 186.752 113.901C186.407 114.147 186.107 114.3 185.851 114.359C185.594 114.418 185.343 114.453 185.097 114.463C184.841 114.463 184.585 114.433 184.328 114.374C184.072 114.315 183.772 114.157 183.427 113.901C183.082 113.645 182.811 113.315 182.614 112.911C182.191 112.103 181.979 110.936 181.979 109.409C181.979 107.694 182.26 106.389 182.821 105.493ZM186.146 105.315C185.851 105 185.501 104.842 185.097 104.842C184.683 104.842 184.328 105 184.033 105.315C183.787 105.571 183.624 105.926 183.545 106.379C183.466 106.832 183.427 107.778 183.427 109.217C183.427 110.773 183.466 111.798 183.545 112.29C183.624 112.783 183.801 113.172 184.077 113.458C184.353 113.753 184.693 113.901 185.097 113.901C185.491 113.901 185.826 113.753 186.102 113.458C186.388 113.162 186.565 112.748 186.634 112.216C186.703 111.684 186.742 110.684 186.752 109.217C186.752 107.788 186.713 106.847 186.634 106.394C186.555 105.941 186.392 105.581 186.146 105.315Z" fill="#D9EBFF"/>
<path d="M261.295 193.991C261.309 193.907 261.33 193.796 261.358 193.657C261.385 193.517 261.469 193.252 261.608 192.862C261.748 192.472 261.887 192.145 262.027 191.88C262.166 191.615 262.396 191.357 262.716 191.106C263.037 190.856 263.357 190.737 263.678 190.751C264.179 190.751 264.597 190.877 264.932 191.127C265.266 191.378 265.475 191.615 265.559 191.838C265.643 192.061 265.684 192.207 265.684 192.277C265.684 192.305 265.691 192.319 265.705 192.319L265.935 192.089C266.785 191.197 267.754 190.751 268.841 190.751C269.593 190.751 270.199 190.939 270.659 191.315C271.119 191.692 271.356 192.242 271.37 192.967C271.384 193.691 271.119 194.785 270.576 196.248C270.032 197.712 269.767 198.596 269.781 198.903C269.781 199.265 269.9 199.446 270.137 199.446C270.22 199.446 270.283 199.439 270.325 199.426C270.729 199.356 271.091 199.091 271.412 198.631C271.732 198.171 271.976 197.614 272.143 196.959C272.171 196.848 272.31 196.792 272.561 196.792C272.84 196.792 272.979 196.848 272.979 196.959C272.979 196.973 272.951 197.078 272.896 197.273C272.784 197.677 272.631 198.074 272.436 198.464C272.241 198.854 271.92 199.244 271.474 199.635C271.028 200.025 270.548 200.213 270.032 200.199C269.377 200.199 268.903 200.011 268.611 199.635C268.318 199.258 268.172 198.868 268.172 198.464C268.172 198.199 268.423 197.363 268.924 195.956C269.426 194.548 269.684 193.489 269.698 192.779C269.698 191.956 269.391 191.545 268.778 191.545H268.673C267.475 191.545 266.465 192.249 265.643 193.657L265.496 193.907L264.807 196.708C264.347 198.534 264.082 199.516 264.012 199.655C263.831 200.032 263.531 200.22 263.113 200.22C262.932 200.22 262.786 200.178 262.674 200.094C262.563 200.011 262.486 199.927 262.445 199.844C262.403 199.76 262.389 199.69 262.403 199.635C262.403 199.453 262.668 198.318 263.197 196.227C263.727 194.137 264.005 193.002 264.033 192.82C264.047 192.751 264.054 192.591 264.054 192.34C264.054 191.796 263.887 191.524 263.552 191.524C263.023 191.524 262.584 192.221 262.236 193.615C262.152 193.893 262.11 194.04 262.11 194.054C262.082 194.137 261.95 194.179 261.713 194.179H261.42C261.337 194.095 261.295 194.033 261.295 193.991Z" fill="#D9EBFF"/>
<path d="M276.55 194.596L276.358 194.67C276.22 194.719 276.023 194.768 275.767 194.818C275.511 194.867 275.225 194.901 274.91 194.921H274.629V194.241H274.91C275.373 194.222 275.801 194.148 276.195 194.02C276.59 193.892 276.865 193.773 277.023 193.665C277.181 193.557 277.319 193.448 277.437 193.34C277.457 193.31 277.516 193.296 277.614 193.296C277.703 193.296 277.787 193.325 277.865 193.384V197.803L277.88 202.236C277.949 202.305 278.008 202.349 278.057 202.369C278.107 202.389 278.225 202.409 278.412 202.428C278.599 202.448 278.905 202.458 279.328 202.458H279.713V203.138H279.55C279.343 203.108 278.56 203.093 277.2 203.093C275.86 203.093 275.087 203.108 274.88 203.138H274.703V202.458H275.087C275.304 202.458 275.491 202.458 275.649 202.458C275.806 202.458 275.929 202.453 276.018 202.443C276.107 202.433 276.186 202.418 276.255 202.399C276.324 202.379 276.363 202.369 276.373 202.369C276.383 202.369 276.412 202.345 276.461 202.295C276.511 202.246 276.54 202.226 276.55 202.236V194.596Z" fill="#D9EBFF"/>
<path d="M341.295 238.991C341.309 238.907 341.33 238.796 341.358 238.657C341.385 238.517 341.469 238.252 341.608 237.862C341.748 237.472 341.887 237.145 342.027 236.88C342.166 236.615 342.396 236.357 342.716 236.106C343.037 235.856 343.357 235.737 343.678 235.751C344.179 235.751 344.597 235.877 344.932 236.127C345.266 236.378 345.475 236.615 345.559 236.838C345.643 237.061 345.684 237.207 345.684 237.277C345.684 237.305 345.691 237.319 345.705 237.319L345.935 237.089C346.785 236.197 347.754 235.751 348.841 235.751C349.593 235.751 350.199 235.939 350.659 236.315C351.119 236.692 351.356 237.242 351.37 237.967C351.384 238.691 351.119 239.785 350.576 241.248C350.032 242.712 349.767 243.596 349.781 243.903C349.781 244.265 349.9 244.446 350.137 244.446C350.22 244.446 350.283 244.439 350.325 244.426C350.729 244.356 351.091 244.091 351.412 243.631C351.732 243.171 351.976 242.614 352.143 241.959C352.171 241.848 352.31 241.792 352.561 241.792C352.84 241.792 352.979 241.848 352.979 241.959C352.979 241.973 352.951 242.078 352.896 242.273C352.784 242.677 352.631 243.074 352.436 243.464C352.241 243.854 351.92 244.244 351.474 244.635C351.028 245.025 350.548 245.213 350.032 245.199C349.377 245.199 348.903 245.011 348.611 244.635C348.318 244.258 348.172 243.868 348.172 243.464C348.172 243.199 348.423 242.363 348.924 240.956C349.426 239.548 349.684 238.489 349.698 237.779C349.698 236.956 349.391 236.545 348.778 236.545H348.673C347.475 236.545 346.465 237.249 345.643 238.657L345.496 238.907L344.807 241.708C344.347 243.534 344.082 244.516 344.012 244.655C343.831 245.032 343.531 245.22 343.113 245.22C342.932 245.22 342.786 245.178 342.674 245.094C342.563 245.011 342.486 244.927 342.445 244.844C342.403 244.76 342.389 244.69 342.403 244.635C342.403 244.453 342.668 243.318 343.197 241.227C343.727 239.137 344.005 238.002 344.033 237.82C344.047 237.751 344.054 237.591 344.054 237.34C344.054 236.796 343.887 236.524 343.552 236.524C343.023 236.524 342.584 237.221 342.236 238.615C342.152 238.893 342.11 239.04 342.11 239.054C342.082 239.137 341.95 239.179 341.713 239.179H341.42C341.337 239.095 341.295 239.033 341.295 238.991Z" fill="#D9EBFF"/>
<path d="M355.013 241.798C354.747 241.798 354.535 241.709 354.378 241.532C354.22 241.355 354.141 241.138 354.141 240.882C354.141 240.182 354.402 239.576 354.925 239.064C355.447 238.552 356.097 238.296 356.875 238.296C357.772 238.296 358.521 238.571 359.121 239.123C359.722 239.675 360.028 240.389 360.038 241.266C360.038 241.69 359.939 242.093 359.742 242.478C359.545 242.862 359.309 243.197 359.033 243.483C358.757 243.768 358.363 244.133 357.851 244.576C357.496 244.882 357.003 245.335 356.373 245.936L355.501 246.763L356.624 246.778C358.171 246.778 358.993 246.753 359.092 246.704C359.161 246.684 359.279 246.246 359.447 245.389V245.345H360.038V245.389C360.028 245.418 359.964 245.867 359.846 246.734C359.727 247.601 359.653 248.054 359.624 248.093V248.138H354.141V247.679C354.141 247.611 354.171 247.537 354.23 247.458C354.289 247.379 354.437 247.207 354.673 246.941C354.959 246.625 355.205 246.349 355.412 246.113C355.501 246.015 355.668 245.832 355.915 245.566C356.161 245.3 356.328 245.118 356.417 245.019C356.506 244.921 356.649 244.758 356.846 244.532C357.043 244.305 357.181 244.138 357.259 244.029C357.338 243.921 357.452 243.773 357.599 243.586C357.747 243.399 357.851 243.241 357.91 243.113C357.969 242.985 358.043 242.842 358.131 242.685C358.22 242.527 358.284 242.369 358.323 242.212C358.363 242.054 358.397 241.906 358.427 241.768C358.456 241.63 358.471 241.468 358.471 241.281C358.471 240.66 358.304 240.123 357.969 239.67C357.634 239.217 357.156 238.99 356.535 238.99C356.21 238.99 355.925 239.074 355.678 239.241C355.432 239.409 355.26 239.571 355.161 239.729C355.062 239.887 355.013 239.98 355.013 240.01C355.013 240.02 355.038 240.025 355.087 240.025C355.264 240.025 355.447 240.093 355.634 240.231C355.821 240.369 355.915 240.596 355.915 240.911C355.915 241.158 355.836 241.364 355.678 241.532C355.521 241.699 355.299 241.788 355.013 241.798Z" fill="#D9EBFF"/>
<path d="M420.295 194.991C420.309 194.907 420.33 194.796 420.358 194.657C420.385 194.517 420.469 194.252 420.608 193.862C420.748 193.472 420.887 193.145 421.027 192.88C421.166 192.615 421.396 192.357 421.716 192.106C422.037 191.856 422.357 191.737 422.678 191.751C423.179 191.751 423.597 191.877 423.932 192.127C424.266 192.378 424.475 192.615 424.559 192.838C424.643 193.061 424.684 193.207 424.684 193.277C424.684 193.305 424.691 193.319 424.705 193.319L424.935 193.089C425.785 192.197 426.754 191.751 427.841 191.751C428.593 191.751 429.199 191.939 429.659 192.315C430.119 192.692 430.356 193.242 430.37 193.967C430.384 194.691 430.119 195.785 429.576 197.248C429.032 198.712 428.767 199.596 428.781 199.903C428.781 200.265 428.9 200.446 429.137 200.446C429.22 200.446 429.283 200.439 429.325 200.426C429.729 200.356 430.091 200.091 430.412 199.631C430.732 199.171 430.976 198.614 431.143 197.959C431.171 197.848 431.31 197.792 431.561 197.792C431.84 197.792 431.979 197.848 431.979 197.959C431.979 197.973 431.951 198.078 431.896 198.273C431.784 198.677 431.631 199.074 431.436 199.464C431.241 199.854 430.92 200.244 430.474 200.635C430.028 201.025 429.548 201.213 429.032 201.199C428.377 201.199 427.903 201.011 427.611 200.635C427.318 200.258 427.172 199.868 427.172 199.464C427.172 199.199 427.423 198.363 427.924 196.956C428.426 195.548 428.684 194.489 428.698 193.779C428.698 192.956 428.391 192.545 427.778 192.545H427.673C426.475 192.545 425.465 193.249 424.643 194.657L424.496 194.907L423.807 197.708C423.347 199.534 423.082 200.516 423.012 200.655C422.831 201.032 422.531 201.22 422.113 201.22C421.932 201.22 421.786 201.178 421.674 201.094C421.563 201.011 421.486 200.927 421.445 200.844C421.403 200.76 421.389 200.69 421.403 200.635C421.403 200.453 421.668 199.318 422.197 197.227C422.727 195.137 423.005 194.002 423.033 193.82C423.047 193.751 423.054 193.591 423.054 193.34C423.054 192.796 422.887 192.524 422.552 192.524C422.023 192.524 421.584 193.221 421.236 194.615C421.152 194.893 421.11 195.04 421.11 195.054C421.082 195.137 420.95 195.179 420.713 195.179H420.42C420.337 195.095 420.295 195.033 420.295 194.991Z" fill="#D9EBFF"/>
<path d="M434.279 197.295C434.013 197.295 433.806 197.212 433.659 197.044C433.511 196.877 433.432 196.66 433.422 196.394C433.422 195.852 433.659 195.369 434.131 194.946C434.604 194.522 435.176 194.31 435.846 194.31C436.19 194.31 436.407 194.315 436.496 194.325C437.225 194.443 437.782 194.704 438.166 195.108C438.55 195.512 438.747 195.951 438.757 196.424C438.757 196.936 438.589 197.433 438.254 197.916C437.92 198.399 437.456 198.749 436.865 198.965L436.821 198.995C436.821 199.005 436.865 199.02 436.954 199.039C437.043 199.059 437.186 199.103 437.383 199.172C437.58 199.241 437.767 199.345 437.944 199.483C438.752 200.005 439.156 200.694 439.156 201.551C439.156 202.33 438.851 203.01 438.24 203.591C437.629 204.172 436.856 204.463 435.92 204.463C435.131 204.463 434.452 204.251 433.88 203.827C433.309 203.404 433.023 202.867 433.023 202.216C433.023 201.941 433.112 201.719 433.289 201.551C433.466 201.384 433.688 201.295 433.954 201.285C434.23 201.285 434.457 201.374 434.634 201.551C434.811 201.729 434.9 201.95 434.9 202.216C434.9 202.325 434.885 202.423 434.856 202.512C434.826 202.601 434.792 202.68 434.752 202.748C434.713 202.817 434.659 202.877 434.59 202.926C434.521 202.975 434.461 203.014 434.412 203.044C434.363 203.074 434.314 203.093 434.264 203.103C434.215 203.113 434.176 203.128 434.146 203.147L434.087 203.162C434.59 203.606 435.2 203.827 435.92 203.827C436.461 203.827 436.87 203.566 437.146 203.044C437.314 202.719 437.397 202.221 437.397 201.551V201.256C437.397 200.32 437.082 199.694 436.452 199.379C436.304 199.32 436.003 199.286 435.55 199.276L434.929 199.261L434.885 199.231C434.865 199.202 434.856 199.123 434.856 198.995C434.856 198.818 434.895 198.729 434.974 198.729C435.25 198.729 435.535 198.704 435.831 198.655C436.166 198.606 436.471 198.399 436.747 198.034C437.023 197.67 437.161 197.118 437.161 196.379V196.261C437.161 195.699 436.989 195.31 436.644 195.094C436.427 194.956 436.195 194.887 435.949 194.887C435.634 194.887 435.343 194.941 435.077 195.049C434.811 195.158 434.624 195.271 434.516 195.389C434.407 195.507 434.353 195.566 434.353 195.566H434.397C434.427 195.576 434.466 195.586 434.516 195.596C434.565 195.606 434.614 195.63 434.663 195.67C434.713 195.709 434.772 195.744 434.841 195.773C434.91 195.803 434.959 195.857 434.989 195.936C435.018 196.015 435.058 196.089 435.107 196.158C435.156 196.226 435.171 196.325 435.151 196.453C435.151 196.67 435.082 196.862 434.944 197.029C434.806 197.197 434.585 197.286 434.279 197.295Z" fill="#D9EBFF"/>
<path d="M511.295 105.991C511.309 105.907 511.33 105.796 511.358 105.657C511.385 105.517 511.469 105.252 511.608 104.862C511.748 104.472 511.887 104.145 512.027 103.88C512.166 103.615 512.396 103.357 512.716 103.106C513.037 102.856 513.357 102.737 513.678 102.751C514.179 102.751 514.597 102.877 514.932 103.127C515.266 103.378 515.475 103.615 515.559 103.838C515.643 104.061 515.684 104.207 515.684 104.277C515.684 104.305 515.691 104.319 515.705 104.319L515.935 104.089C516.785 103.197 517.754 102.751 518.841 102.751C519.593 102.751 520.199 102.939 520.659 103.315C521.119 103.692 521.356 104.242 521.37 104.967C521.384 105.691 521.119 106.785 520.576 108.248C520.032 109.712 519.767 110.596 519.781 110.903C519.781 111.265 519.9 111.446 520.137 111.446C520.22 111.446 520.283 111.439 520.325 111.426C520.729 111.356 521.091 111.091 521.412 110.631C521.732 110.171 521.976 109.614 522.143 108.959C522.171 108.848 522.31 108.792 522.561 108.792C522.84 108.792 522.979 108.848 522.979 108.959C522.979 108.973 522.951 109.078 522.896 109.273C522.784 109.677 522.631 110.074 522.436 110.464C522.241 110.854 521.92 111.244 521.474 111.635C521.028 112.025 520.548 112.213 520.032 112.199C519.377 112.199 518.903 112.011 518.611 111.635C518.318 111.258 518.172 110.868 518.172 110.464C518.172 110.199 518.423 109.363 518.924 107.956C519.426 106.548 519.684 105.489 519.698 104.779C519.698 103.956 519.391 103.545 518.778 103.545H518.673C517.475 103.545 516.465 104.249 515.643 105.657L515.496 105.907L514.807 108.708C514.347 110.534 514.082 111.516 514.012 111.655C513.831 112.032 513.531 112.22 513.113 112.22C512.932 112.22 512.786 112.178 512.674 112.094C512.563 112.011 512.486 111.927 512.445 111.844C512.403 111.76 512.389 111.69 512.403 111.635C512.403 111.453 512.668 110.318 513.197 108.227C513.727 106.137 514.005 105.002 514.033 104.82C514.047 104.751 514.054 104.591 514.054 104.34C514.054 103.796 513.887 103.524 513.552 103.524C513.023 103.524 512.584 104.221 512.236 105.615C512.152 105.893 512.11 106.04 512.11 106.054C512.082 106.137 511.95 106.179 511.713 106.179H511.42C511.337 106.095 511.295 106.033 511.295 105.991Z" fill="#D9EBFF"/>
<path d="M530.23 115.138C530.052 115.108 529.417 115.093 528.323 115.093C527.181 115.093 526.521 115.108 526.343 115.138H526.21V114.458H526.668C526.865 114.458 526.998 114.458 527.067 114.458C527.136 114.458 527.22 114.448 527.319 114.428C527.417 114.409 527.486 114.384 527.525 114.354C527.565 114.325 527.599 114.285 527.629 114.236C527.639 114.216 527.644 113.95 527.644 113.438V112.699H523.816V112.019L526.048 108.606C527.555 106.32 528.319 105.172 528.338 105.163C528.358 105.143 528.461 105.133 528.649 105.133H528.915L529.003 105.222V112.019H530.363V112.699H529.003V113.453C529.003 113.857 529.003 114.093 529.003 114.162C529.003 114.231 529.033 114.29 529.092 114.34C529.171 114.409 529.452 114.448 529.934 114.458H530.363V115.138H530.23ZM527.732 112.019V107.084L524.496 112.005L526.107 112.019H527.732Z" fill="#D9EBFF"/>
<path d="M419.295 16.991C419.309 16.9073 419.33 16.7959 419.358 16.6565C419.385 16.5172 419.469 16.2524 419.608 15.8622C419.748 15.4721 419.887 15.1446 420.027 14.8798C420.166 14.6151 420.396 14.3573 420.716 14.1064C421.037 13.8556 421.357 13.7372 421.678 13.7511C422.179 13.7511 422.597 13.8765 422.932 14.1273C423.266 14.3782 423.475 14.6151 423.559 14.838C423.643 15.061 423.684 15.2073 423.684 15.277C423.684 15.3048 423.691 15.3188 423.705 15.3188L423.935 15.0888C424.785 14.197 425.754 13.7511 426.841 13.7511C427.593 13.7511 428.199 13.9392 428.659 14.3155C429.119 14.6917 429.356 15.2421 429.37 15.9667C429.384 16.6914 429.119 17.7852 428.576 19.2484C428.032 20.7116 427.767 21.5964 427.781 21.903C427.781 22.2653 427.9 22.4464 428.137 22.4464C428.22 22.4464 428.283 22.4395 428.325 22.4255C428.729 22.3559 429.091 22.0911 429.412 21.6313C429.732 21.1714 429.976 20.614 430.143 19.9591C430.171 19.8476 430.31 19.7919 430.561 19.7919C430.84 19.7919 430.979 19.8476 430.979 19.9591C430.979 19.973 430.951 20.0775 430.896 20.2726C430.784 20.6767 430.631 21.0739 430.436 21.464C430.241 21.8542 429.92 22.2444 429.474 22.6346C429.028 23.0247 428.548 23.2129 428.032 23.1989C427.377 23.1989 426.903 23.0108 426.611 22.6346C426.318 22.2583 426.172 21.8682 426.172 21.464C426.172 21.1993 426.423 20.3632 426.924 18.9558C427.426 17.5483 427.684 16.4893 427.698 15.7786C427.698 14.9565 427.391 14.5454 426.778 14.5454H426.673C425.475 14.5454 424.465 15.2491 423.643 16.6565L423.496 16.9073L422.807 19.7083C422.347 21.5337 422.082 22.5161 422.012 22.6555C421.831 23.0317 421.531 23.2198 421.113 23.2198C420.932 23.2198 420.786 23.178 420.674 23.0944C420.563 23.0108 420.486 22.9272 420.445 22.8436C420.403 22.76 420.389 22.6903 420.403 22.6346C420.403 22.4534 420.668 21.3177 421.197 19.2275C421.727 17.1373 422.005 16.0016 422.033 15.8204C422.047 15.7508 422.054 15.5905 422.054 15.3397C422.054 14.7962 421.887 14.5245 421.552 14.5245C421.023 14.5245 420.584 15.2212 420.236 16.6147C420.152 16.8934 420.11 17.0397 420.11 17.0537C420.082 17.1373 419.95 17.1791 419.713 17.1791H419.42C419.337 17.0955 419.295 17.0328 419.295 16.991Z" fill="#D9EBFF"/>
<path d="M433.826 23.8175C433.826 24.0539 433.747 24.251 433.59 24.4086C433.432 24.5662 433.24 24.645 433.013 24.645H432.91C433.363 25.4233 433.964 25.8125 434.713 25.8125C435.402 25.8125 435.905 25.5169 436.22 24.9258C436.407 24.6007 436.501 23.9702 436.501 23.0342C436.501 22.0195 436.368 21.3348 436.102 20.9801C435.846 20.655 435.56 20.4924 435.245 20.4924H435.156C434.388 20.4924 433.806 20.8274 433.412 21.4973C433.373 21.5663 433.338 21.6057 433.309 21.6156C433.279 21.6254 433.205 21.6353 433.087 21.6451C432.92 21.6451 432.826 21.6156 432.806 21.5565C432.787 21.517 432.777 20.655 432.777 18.9703V17.064C432.777 16.5714 432.801 16.3251 432.851 16.3251C432.87 16.3054 432.89 16.2955 432.91 16.2955C432.92 16.2955 433.023 16.3349 433.22 16.4137C433.417 16.4926 433.688 16.5714 434.033 16.6502C434.378 16.729 434.747 16.7684 435.141 16.7684C435.841 16.7684 436.511 16.6305 437.151 16.3546C437.23 16.3152 437.294 16.2955 437.343 16.2955C437.422 16.2955 437.461 16.3842 437.461 16.5615V16.7536C436.654 17.7093 435.644 18.1871 434.432 18.1871C434.126 18.1871 433.851 18.1575 433.604 18.0984L433.457 18.0689V20.6107C433.644 20.4727 433.792 20.3644 433.9 20.2856C434.008 20.2067 434.186 20.1279 434.432 20.0491C434.678 19.9703 434.929 19.9309 435.186 19.9309C435.984 19.9309 436.658 20.2511 437.21 20.8914C437.762 21.5318 438.038 22.2904 438.038 23.1672C438.038 24.0736 437.722 24.847 437.092 25.4874C436.461 26.1278 435.693 26.4529 434.787 26.4627C433.989 26.4627 433.348 26.1967 432.865 25.6647C432.383 25.1327 432.141 24.5317 432.141 23.8618C432.141 23.6254 432.195 23.4382 432.304 23.3002C432.412 23.1623 432.526 23.0737 432.644 23.0342C432.762 22.9948 432.875 22.9751 432.984 22.9751C433.23 22.9751 433.432 23.0589 433.59 23.2264C433.747 23.3938 433.826 23.5909 433.826 23.8175Z" fill="#D9EBFF"/>
<path d="M265.295 13.991C265.309 13.9073 265.33 13.7959 265.358 13.6565C265.386 13.5172 265.469 13.2524 265.608 12.8622C265.748 12.4721 265.887 12.1446 266.027 11.8798C266.166 11.6151 266.396 11.3573 266.716 11.1064C267.037 10.8556 267.357 10.7372 267.678 10.7511C268.179 10.7511 268.597 10.8765 268.932 11.1273C269.266 11.3782 269.475 11.6151 269.559 11.838C269.643 12.061 269.684 12.2073 269.684 12.277C269.684 12.3048 269.691 12.3188 269.705 12.3188L269.935 12.0888C270.785 11.197 271.754 10.7511 272.841 10.7511C273.593 10.7511 274.199 10.9392 274.659 11.3155C275.119 11.6917 275.356 12.2421 275.37 12.9667C275.384 13.6914 275.119 14.7852 274.576 16.2484C274.032 17.7116 273.767 18.5964 273.781 18.903C273.781 19.2653 273.9 19.4464 274.137 19.4464C274.22 19.4464 274.283 19.4395 274.325 19.4255C274.729 19.3559 275.091 19.0911 275.412 18.6313C275.732 18.1714 275.976 17.614 276.143 16.9591C276.171 16.8476 276.31 16.7919 276.561 16.7919C276.84 16.7919 276.979 16.8476 276.979 16.9591C276.979 16.973 276.951 17.0775 276.896 17.2726C276.784 17.6767 276.631 18.0739 276.436 18.464C276.241 18.8542 275.92 19.2444 275.474 19.6346C275.028 20.0247 274.548 20.2129 274.032 20.1989C273.377 20.1989 272.903 20.0108 272.611 19.6346C272.318 19.2583 272.172 18.8682 272.172 18.464C272.172 18.1993 272.423 17.3632 272.924 15.9558C273.426 14.5483 273.684 13.4893 273.698 12.7786C273.698 11.9565 273.391 11.5454 272.778 11.5454H272.673C271.475 11.5454 270.465 12.2491 269.643 13.6565L269.496 13.9073L268.807 16.7083C268.347 18.5337 268.082 19.5161 268.012 19.6555C267.831 20.0317 267.531 20.2198 267.113 20.2198C266.932 20.2198 266.786 20.178 266.674 20.0944C266.563 20.0108 266.486 19.9272 266.445 19.8436C266.403 19.76 266.389 19.6903 266.403 19.6346C266.403 19.4534 266.668 18.3177 267.197 16.2275C267.727 14.1373 268.005 13.0016 268.033 12.8204C268.047 12.7508 268.054 12.5905 268.054 12.3397C268.054 11.7962 267.887 11.5245 267.552 11.5245C267.023 11.5245 266.584 12.2212 266.236 13.6147C266.152 13.8934 266.11 14.0397 266.11 14.0537C266.082 14.1373 265.95 14.1791 265.713 14.1791H265.42C265.337 14.0955 265.295 14.0328 265.295 13.991Z" fill="#D9EBFF"/>
<path d="M278.215 16.3693C278.225 16.3496 278.309 15.8127 278.466 14.7585L278.703 13.1773C278.703 13.1576 278.801 13.1477 278.998 13.1477H279.294V13.2068C279.294 13.3054 279.368 13.3891 279.516 13.4581C279.663 13.527 279.92 13.5714 280.284 13.5911C280.649 13.6108 281.481 13.6206 282.782 13.6206H284.57V14.197L283.565 15.5713C283.476 15.6895 283.328 15.8866 283.121 16.1624C282.915 16.4383 282.782 16.6205 282.722 16.7092C282.663 16.7979 282.56 16.9555 282.412 17.1821C282.264 17.4087 282.166 17.586 282.117 17.7141C282.067 17.8422 281.998 18.0244 281.91 18.2609C281.821 18.4973 281.757 18.7239 281.718 18.9407C281.678 19.1574 281.639 19.4234 281.599 19.7387C281.56 20.0539 281.53 20.3889 281.511 20.7436C281.491 21.0983 281.476 21.5022 281.466 21.9554C281.466 22.0933 281.466 22.2312 281.466 22.3692C281.466 22.5071 281.461 22.6253 281.452 22.7238V22.8568C281.412 23.0243 281.319 23.1672 281.171 23.2854C281.023 23.4036 280.856 23.4627 280.668 23.4627C280.56 23.4627 280.457 23.4479 280.358 23.4184C280.259 23.3888 280.156 23.2952 280.048 23.1376C279.939 22.98 279.885 22.7829 279.885 22.5465C279.885 20.9899 280.363 19.3742 281.319 17.6993C281.516 17.3841 281.929 16.788 282.56 15.9112L283.24 14.9802H281.865C280.151 14.9802 279.25 15.0098 279.161 15.0689C279.102 15.0984 279.048 15.2166 278.998 15.4235C278.949 15.6304 278.9 15.8422 278.851 16.059L278.806 16.3693V16.4137H278.215V16.3693Z" fill="#D9EBFF"/>
<path d="M341.295 91.991C341.309 91.9073 341.33 91.7959 341.358 91.6565C341.386 91.5172 341.469 91.2524 341.608 90.8622C341.748 90.4721 341.887 90.1446 342.027 89.8798C342.166 89.6151 342.396 89.3573 342.716 89.1064C343.037 88.8556 343.357 88.7372 343.678 88.7511C344.179 88.7511 344.597 88.8765 344.932 89.1273C345.266 89.3782 345.475 89.6151 345.559 89.838C345.643 90.061 345.684 90.2073 345.684 90.277C345.684 90.3048 345.691 90.3188 345.705 90.3188L345.935 90.0888C346.785 89.197 347.754 88.7511 348.841 88.7511C349.593 88.7511 350.199 88.9392 350.659 89.3155C351.119 89.6917 351.356 90.2421 351.37 90.9667C351.384 91.6914 351.119 92.7852 350.576 94.2484C350.032 95.7116 349.767 96.5964 349.781 96.903C349.781 97.2653 349.9 97.4464 350.137 97.4464C350.22 97.4464 350.283 97.4395 350.325 97.4255C350.729 97.3559 351.091 97.0911 351.412 96.6313C351.732 96.1714 351.976 95.614 352.143 94.9591C352.171 94.8476 352.31 94.7919 352.561 94.7919C352.84 94.7919 352.979 94.8476 352.979 94.9591C352.979 94.973 352.951 95.0775 352.896 95.2726C352.784 95.6767 352.631 96.0739 352.436 96.464C352.241 96.8542 351.92 97.2444 351.474 97.6346C351.028 98.0247 350.548 98.2129 350.032 98.1989C349.377 98.1989 348.903 98.0108 348.611 97.6346C348.318 97.2583 348.172 96.8682 348.172 96.464C348.172 96.1993 348.423 95.3632 348.924 93.9558C349.426 92.5483 349.684 91.4893 349.698 90.7786C349.698 89.9565 349.391 89.5454 348.778 89.5454H348.673C347.475 89.5454 346.465 90.2491 345.643 91.6565L345.496 91.9073L344.807 94.7083C344.347 96.5337 344.082 97.5161 344.012 97.6555C343.831 98.0317 343.531 98.2198 343.113 98.2198C342.932 98.2198 342.786 98.178 342.674 98.0944C342.563 98.0108 342.486 97.9272 342.445 97.8436C342.403 97.76 342.389 97.6903 342.403 97.6346C342.403 97.4534 342.668 96.3177 343.197 94.2275C343.727 92.1373 344.005 91.0016 344.033 90.8204C344.047 90.7508 344.054 90.5905 344.054 90.3397C344.054 89.7962 343.887 89.5245 343.552 89.5245C343.023 89.5245 342.584 90.2212 342.236 91.6147C342.152 91.8934 342.11 92.0397 342.11 92.0537C342.082 92.1373 341.95 92.1791 341.713 92.1791H341.42C341.337 92.0955 341.295 92.0328 341.295 91.991Z" fill="#D9EBFF"/>
<path d="M354.023 96.5121C354.023 94.9063 354.422 93.6353 355.22 92.6994C356.018 91.7635 356.905 91.2955 357.88 91.2955C358.56 91.2955 359.048 91.4728 359.343 91.8275C359.639 92.1822 359.786 92.5763 359.786 93.0098C359.786 93.256 359.718 93.4531 359.58 93.6009C359.442 93.7486 359.25 93.8225 359.003 93.8225C358.777 93.8225 358.589 93.7536 358.442 93.6156C358.294 93.4777 358.22 93.2856 358.22 93.0393C358.22 92.6058 358.452 92.3447 358.915 92.2561C358.698 92.0393 358.392 91.9162 357.998 91.8866C357.299 91.8866 356.723 92.1822 356.269 92.7733C355.806 93.4235 355.575 94.4186 355.575 95.7584L355.59 95.8176C355.639 95.7584 355.678 95.6944 355.708 95.6254C356.112 95.0343 356.639 94.7388 357.289 94.7388H357.348C357.801 94.7388 358.2 94.8324 358.545 95.0195C358.782 95.1575 359.018 95.3545 359.254 95.6107C359.491 95.8668 359.683 96.1476 359.831 96.453C360.038 96.9358 360.141 97.4628 360.141 98.0342V98.3002C360.141 98.5268 360.117 98.7387 360.067 98.9357C359.959 99.517 359.644 100.083 359.121 100.635C358.599 101.187 357.939 101.463 357.141 101.463C356.865 101.463 356.599 101.423 356.343 101.344C356.087 101.266 355.811 101.118 355.516 100.901C355.22 100.684 354.969 100.394 354.762 100.029C354.555 99.6647 354.378 99.1869 354.23 98.5958C354.082 98.0047 354.013 97.3101 354.023 96.5121ZM357.2 95.2708C356.905 95.2708 356.649 95.3545 356.432 95.522C356.215 95.6895 356.048 95.9111 355.929 96.187C355.811 96.4629 355.727 96.7436 355.678 97.0293C355.629 97.3151 355.599 97.6205 355.59 97.9456C355.59 98.7633 355.649 99.3495 355.767 99.7041C355.885 100.059 356.072 100.345 356.328 100.561C356.565 100.739 356.826 100.827 357.112 100.827C357.614 100.827 357.998 100.64 358.264 100.266C358.392 100.088 358.481 99.8667 358.53 99.6007C358.58 99.3347 358.604 98.8175 358.604 98.049C358.604 97.2609 358.58 96.7338 358.53 96.4678C358.481 96.2018 358.392 95.9801 358.264 95.8028C357.998 95.4481 357.644 95.2708 357.2 95.2708Z" fill="#D9EBFF"/>
</svg>
