<svg width="701" height="203" viewBox="0 0 701 203" fill="none" xmlns="http://www.w3.org/2000/svg">
<rect width="700" height="203" transform="translate(0.294922)" fill="#0A0D12"/>
<line x1="333.742" y1="61.1465" x2="216.06" y2="38.7309" stroke="#3491FF" stroke-width="2.80195"/>
<rect x="333.303" y="52.185" width="11.7177" height="11.7177" transform="rotate(45 333.303 52.185)" fill="#0A0D12" stroke="#3491FF" stroke-width="2.80195"/>
<line x1="334.331" y1="153.674" x2="474.428" y2="187.298" stroke="#3491FF" stroke-width="2.80195"/>
<rect x="333.303" y="147.451" width="11.7177" height="11.7177" transform="rotate(45 333.303 147.451)" fill="#0A0D12" stroke="#3491FF" stroke-width="2.80195"/>
<path d="M215.621 38.7556C334.004 59.7703 333.303 157.138 473.401 186.559" stroke="#B3BFD8" stroke-width="2.80195"/>
<circle cx="474.101" cy="188.66" r="7.00488" fill="black" stroke="#D9EBFF" stroke-width="2.80195"/>
<circle cx="216.321" cy="38.7556" r="7.00488" fill="black" stroke="#D9EBFF" stroke-width="2.80195"/>
<path d="M203.713 15.2766C203.732 15.1594 203.762 15.0033 203.801 14.808C203.84 14.6128 203.957 14.2419 204.152 13.6953C204.347 13.1486 204.543 12.6899 204.738 12.3189C204.933 11.948 205.255 11.5868 205.704 11.2354C206.153 10.884 206.602 10.7181 207.051 10.7376C207.754 10.7376 208.34 10.9133 208.808 11.2647C209.277 11.6161 209.57 11.948 209.687 12.2604C209.804 12.5727 209.862 12.7777 209.862 12.8753C209.862 12.9144 209.872 12.9339 209.892 12.9339L210.214 12.6118C211.405 11.3623 212.762 10.7376 214.284 10.7376C215.338 10.7376 216.188 11.0012 216.832 11.5283C217.476 12.0554 217.808 12.8265 217.828 13.8417C217.847 14.8569 217.476 16.3894 216.715 18.4392C215.953 20.4891 215.583 21.7287 215.602 22.1582C215.602 22.6658 215.768 22.9196 216.1 22.9196C216.217 22.9196 216.305 22.9098 216.363 22.8903C216.93 22.7927 217.437 22.4218 217.886 21.7775C218.335 21.1333 218.677 20.3524 218.911 19.4349C218.95 19.2787 219.145 19.2006 219.497 19.2006C219.887 19.2006 220.082 19.2787 220.082 19.4349C220.082 19.4544 220.043 19.6008 219.965 19.8741C219.809 20.4403 219.594 20.9966 219.321 21.5433C219.048 22.0899 218.599 22.6365 217.974 23.1832C217.349 23.7298 216.676 23.9933 215.953 23.9738C215.036 23.9738 214.372 23.7103 213.962 23.1832C213.552 22.656 213.347 22.1094 213.347 21.5433C213.347 21.1723 213.699 20.001 214.401 18.0292C215.104 16.0575 215.465 14.5738 215.485 13.5781C215.485 12.4263 215.055 11.8504 214.196 11.8504H214.05C212.371 11.8504 210.956 12.8363 209.804 14.808L209.599 15.1594L208.633 19.0835C207.988 21.6409 207.617 23.0172 207.52 23.2124C207.266 23.7395 206.846 24.0031 206.261 24.0031C206.007 24.0031 205.802 23.9445 205.646 23.8274C205.489 23.7103 205.382 23.5931 205.323 23.476C205.265 23.3589 205.245 23.2612 205.265 23.1832C205.265 22.9294 205.636 21.3383 206.378 18.4099C207.12 15.4816 207.51 13.8905 207.549 13.6367C207.569 13.5391 207.578 13.3146 207.578 12.9632C207.578 12.2018 207.344 11.8211 206.876 11.8211C206.134 11.8211 205.519 12.7972 205.031 14.7495C204.914 15.1399 204.855 15.3449 204.855 15.3644C204.816 15.4816 204.63 15.5401 204.299 15.5401H203.889C203.771 15.423 203.713 15.3351 203.713 15.2766Z" fill="#D9EBFF"/>
<path d="M222.663 15.9793C223.436 14.8613 224.492 14.3023 225.83 14.3023C226.493 14.3023 227.155 14.4817 227.818 14.8406C228.48 15.1994 229.019 15.8343 229.433 16.7453C229.943 17.8909 230.199 19.4644 230.199 21.4657C230.199 23.6051 229.902 25.2406 229.309 26.3724C229.033 26.9521 228.653 27.4145 228.17 27.7596C227.687 28.1046 227.266 28.3186 226.907 28.4014C226.548 28.4842 226.196 28.5325 225.851 28.5463C225.492 28.5463 225.133 28.5049 224.775 28.4221C224.416 28.3393 223.995 28.1184 223.512 27.7596C223.029 27.4007 222.649 26.9383 222.373 26.3724C221.779 25.2406 221.483 23.6051 221.483 21.4657C221.483 19.0641 221.876 17.2353 222.663 15.9793ZM227.321 15.7308C226.907 15.2892 226.417 15.0683 225.851 15.0683C225.271 15.0683 224.775 15.2892 224.36 15.7308C224.015 16.0897 223.788 16.5866 223.677 17.2215C223.567 17.8564 223.512 19.1814 223.512 21.1966C223.512 23.3773 223.567 24.8128 223.677 25.5029C223.788 26.193 224.036 26.7382 224.423 27.1385C224.809 27.5525 225.285 27.7596 225.851 27.7596C226.403 27.7596 226.872 27.5525 227.259 27.1385C227.659 26.7244 227.908 26.1447 228.004 25.3994C228.101 24.654 228.156 23.2531 228.17 21.1966C228.17 19.1952 228.115 17.8771 228.004 17.2422C227.894 16.6073 227.666 16.1035 227.321 15.7308Z" fill="#D9EBFF"/>
<path d="M461.492 163.78C461.512 163.663 461.541 163.507 461.58 163.311C461.619 163.116 461.736 162.745 461.931 162.199C462.127 161.652 462.322 161.193 462.517 160.822C462.712 160.451 463.034 160.09 463.483 159.739C463.932 159.387 464.382 159.222 464.831 159.241C465.533 159.241 466.119 159.417 466.588 159.768C467.056 160.12 467.349 160.451 467.466 160.764C467.583 161.076 467.642 161.281 467.642 161.379C467.642 161.418 467.652 161.437 467.671 161.437L467.993 161.115C469.184 159.866 470.541 159.241 472.064 159.241C473.118 159.241 473.967 159.505 474.611 160.032C475.255 160.559 475.587 161.33 475.607 162.345C475.626 163.36 475.255 164.893 474.494 166.943C473.733 168.992 473.362 170.232 473.381 170.662C473.381 171.169 473.547 171.423 473.879 171.423C473.996 171.423 474.084 171.413 474.143 171.394C474.709 171.296 475.216 170.925 475.665 170.281C476.114 169.637 476.456 168.856 476.69 167.938C476.729 167.782 476.925 167.704 477.276 167.704C477.666 167.704 477.862 167.782 477.862 167.938C477.862 167.958 477.823 168.104 477.745 168.378C477.588 168.944 477.374 169.5 477.1 170.047C476.827 170.593 476.378 171.14 475.753 171.687C475.129 172.233 474.455 172.497 473.733 172.477C472.815 172.477 472.151 172.214 471.741 171.687C471.331 171.159 471.126 170.613 471.126 170.047C471.126 169.676 471.478 168.504 472.181 166.533C472.884 164.561 473.245 163.077 473.264 162.082C473.264 160.93 472.835 160.354 471.976 160.354H471.829C470.15 160.354 468.735 161.34 467.583 163.311L467.378 163.663L466.412 167.587C465.768 170.144 465.397 171.521 465.299 171.716C465.045 172.243 464.626 172.507 464.04 172.507C463.786 172.507 463.581 172.448 463.425 172.331C463.269 172.214 463.161 172.097 463.103 171.979C463.044 171.862 463.025 171.765 463.044 171.687C463.044 171.433 463.415 169.842 464.157 166.913C464.899 163.985 465.289 162.394 465.328 162.14C465.348 162.043 465.358 161.818 465.358 161.467C465.358 160.705 465.123 160.325 464.655 160.325C463.913 160.325 463.298 161.301 462.81 163.253C462.693 163.643 462.634 163.848 462.634 163.868C462.595 163.985 462.41 164.044 462.078 164.044H461.668C461.551 163.926 461.492 163.839 461.492 163.78Z" fill="#D9EBFF"/>
<path d="M482.864 164.628L482.595 164.731C482.402 164.8 482.126 164.869 481.767 164.938C481.408 165.007 481.008 165.055 480.566 165.083H480.173V164.131H480.566C481.215 164.103 481.815 164 482.367 163.82C482.92 163.641 483.306 163.475 483.527 163.323C483.748 163.171 483.941 163.02 484.107 162.868C484.134 162.826 484.217 162.806 484.355 162.806C484.479 162.806 484.597 162.847 484.707 162.93V169.12L484.728 175.331C484.824 175.428 484.907 175.49 484.976 175.518C485.045 175.545 485.211 175.573 485.473 175.6C485.735 175.628 486.163 175.642 486.757 175.642H487.295V176.594H487.067C486.777 176.553 485.68 176.532 483.775 176.532C481.898 176.532 480.815 176.553 480.525 176.594H480.276V175.642H480.815C481.118 175.642 481.381 175.642 481.601 175.642C481.822 175.642 481.995 175.635 482.119 175.621C482.243 175.607 482.354 175.587 482.45 175.559C482.547 175.531 482.602 175.518 482.616 175.518C482.63 175.518 482.671 175.483 482.74 175.414C482.809 175.345 482.851 175.318 482.864 175.331V164.628Z" fill="#D9EBFF"/>
<path d="M315.791 34.4431C315.791 32.3152 316.63 30.402 318.309 28.7035C319.988 27.0051 321.804 26.1559 323.756 26.1559C324.849 26.1559 325.708 26.3901 326.333 26.8587C326.958 27.3272 327.28 27.9422 327.299 28.7035C327.299 29.2697 327.114 29.748 326.743 30.1384C326.372 30.5289 325.904 30.7339 325.337 30.7534C324.967 30.7534 324.674 30.6558 324.459 30.4606C324.244 30.2653 324.137 29.9725 324.137 29.582C324.137 29.1916 324.244 28.8597 324.459 28.5864C324.674 28.3131 324.888 28.1081 325.103 27.9714C325.318 27.8348 325.455 27.7762 325.513 27.7957H325.542C325.542 27.7567 325.484 27.6981 325.367 27.62C325.25 27.542 325.045 27.4639 324.752 27.3858C324.459 27.3077 324.127 27.2686 323.756 27.2686C323.17 27.2686 322.614 27.4053 322.087 27.6786C321.677 27.8543 321.257 28.1569 320.828 28.5864C319.969 29.4454 319.344 30.6558 318.954 32.2176C318.563 33.7794 318.358 34.9117 318.339 35.6145C318.339 36.5125 318.592 37.186 319.1 37.635C319.53 38.1036 320.096 38.3378 320.799 38.3378H320.916C323.102 38.3378 324.908 37.5081 326.333 35.8487C326.509 35.6535 326.626 35.5559 326.685 35.5559C326.763 35.5559 326.89 35.6437 327.065 35.8194C327.241 35.9951 327.339 36.1318 327.358 36.2294C327.378 36.327 327.29 36.4734 327.094 36.6687C326.899 36.8639 326.616 37.1372 326.245 37.4886C325.874 37.84 325.435 38.1329 324.927 38.3671C324.42 38.6014 323.795 38.8454 323.053 39.0992C322.311 39.353 321.531 39.4604 320.711 39.4213C319.246 39.4213 318.065 38.9528 317.167 38.0157C316.269 37.0786 315.811 35.8878 315.791 34.4431Z" fill="#3491FF"/>
<path d="M328.149 30.6948C328.168 30.6363 328.188 30.5582 328.207 30.4606C328.227 30.3629 328.276 30.1482 328.354 29.8163C328.432 29.4844 328.529 29.1818 328.647 28.9085C328.764 28.6352 328.91 28.3131 329.086 27.9422C329.261 27.5712 329.457 27.2784 329.671 27.0637C329.886 26.8489 330.14 26.6342 330.433 26.4194C330.726 26.2047 331.048 26.1168 331.399 26.1559C332.863 26.1559 333.8 26.7806 334.21 28.03L334.503 27.7665C335.714 26.6927 336.865 26.1559 337.959 26.1559C339.228 26.1559 340.223 26.6146 340.946 27.5322C341.668 28.4497 342.029 29.5625 342.029 30.8705C342.029 32.9789 341.287 34.9214 339.804 36.698C338.32 38.4745 336.641 39.3725 334.767 39.392C334.337 39.392 333.957 39.3335 333.625 39.2163C333.41 39.1187 333.185 38.9723 332.951 38.7771C332.717 38.5819 332.531 38.4159 332.395 38.2793L332.19 38.045C332.17 38.0645 331.956 38.9137 331.546 40.5927C331.136 42.2716 330.931 43.1208 330.931 43.1403C330.931 43.2575 331.009 43.3258 331.165 43.3453C331.321 43.3649 331.682 43.3941 332.248 43.4332H332.98C333.098 43.5698 333.156 43.6577 333.156 43.6967C333.156 43.7358 333.127 43.9115 333.068 44.2238C333.01 44.4581 332.951 44.6045 332.893 44.6631C332.834 44.7217 332.707 44.7607 332.512 44.7802C332.473 44.7802 332.366 44.7802 332.19 44.7802C332.014 44.7802 331.682 44.7705 331.194 44.7509C330.706 44.7314 330.101 44.7217 329.379 44.7217C328.012 44.7217 327.143 44.7412 326.772 44.7802H326.538C326.401 44.6436 326.333 44.5362 326.333 44.4581C326.372 43.931 326.499 43.5894 326.714 43.4332H327.299C327.963 43.4137 328.344 43.2965 328.442 43.0818C328.5 42.9646 329.096 40.6317 330.228 36.083C331.36 31.5343 331.956 29.1233 332.014 28.85C332.034 28.7523 332.043 28.6157 332.043 28.44C332.043 27.6396 331.799 27.2394 331.311 27.2394C330.882 27.2394 330.521 27.5127 330.228 28.0593C329.935 28.6059 329.71 29.2014 329.554 29.8456C329.398 30.4898 329.281 30.8412 329.203 30.8998C329.164 30.9388 329.008 30.9584 328.734 30.9584H328.324C328.207 30.8412 328.149 30.7534 328.149 30.6948ZM332.688 36.1123C333.117 37.596 333.839 38.3378 334.855 38.3378C335.44 38.3378 336.006 38.1133 336.553 37.6643C337.1 37.2153 337.549 36.6492 337.9 35.9659C338.252 35.3021 338.603 34.2479 338.954 32.8032C339.306 31.3586 339.491 30.2848 339.511 29.582V29.4063C339.511 27.9617 338.915 27.2394 337.724 27.2394C337.51 27.2394 337.295 27.2686 337.08 27.3272C336.865 27.3858 336.651 27.4736 336.436 27.5908C336.221 27.7079 336.026 27.8348 335.85 27.9714C335.675 28.1081 335.509 28.2545 335.352 28.4107C335.196 28.5669 335.05 28.7133 334.913 28.85C334.777 28.9866 334.669 29.1233 334.591 29.2599C334.513 29.3966 334.435 29.4942 334.357 29.5528L334.269 29.6699C334.269 29.6894 334.24 29.8261 334.181 30.0799C334.123 30.3337 334.015 30.7631 333.859 31.3683C333.703 31.9735 333.566 32.4811 333.449 32.8911C332.941 34.9605 332.688 36.0342 332.688 36.1123Z" fill="#3491FF"/>
<path d="M344.204 31.3975C344.977 30.2795 346.032 29.7205 347.371 29.7205C348.034 29.7205 348.696 29.9 349.359 30.2588C350.021 30.6177 350.56 31.2526 350.974 32.1635C351.484 33.3091 351.74 34.8826 351.74 36.8839C351.74 39.0233 351.443 40.6589 350.849 41.7907C350.573 42.3704 350.194 42.8327 349.711 43.1778C349.228 43.5229 348.807 43.7368 348.448 43.8196C348.089 43.9024 347.737 43.9507 347.392 43.9645C347.033 43.9645 346.674 43.9231 346.315 43.8403C345.956 43.7575 345.536 43.5367 345.052 43.1778C344.569 42.8189 344.19 42.3566 343.914 41.7907C343.32 40.6589 343.024 39.0233 343.024 36.8839C343.024 34.4823 343.417 32.6535 344.204 31.3975ZM348.862 31.1491C348.448 30.7074 347.958 30.4866 347.392 30.4866C346.812 30.4866 346.315 30.7074 345.901 31.1491C345.556 31.5079 345.328 32.0048 345.218 32.6397C345.108 33.2746 345.052 34.5996 345.052 36.6148C345.052 38.7956 345.108 40.231 345.218 40.9211C345.328 41.6112 345.577 42.1564 345.963 42.5567C346.35 42.9708 346.826 43.1778 347.392 43.1778C347.944 43.1778 348.413 42.9708 348.8 42.5567C349.2 42.1426 349.448 41.5629 349.545 40.8176C349.642 40.0723 349.697 38.6713 349.711 36.6148C349.711 34.6135 349.656 33.2953 349.545 32.6604C349.435 32.0255 349.207 31.5217 348.862 31.1491Z" fill="#3491FF"/>
<path d="M315.791 181.546C315.791 179.418 316.63 177.504 318.309 175.806C319.988 174.108 321.804 173.258 323.756 173.258C324.849 173.258 325.708 173.493 326.333 173.961C326.958 174.43 327.28 175.045 327.299 175.806C327.299 176.372 327.114 176.85 326.743 177.241C326.372 177.631 325.904 177.836 325.337 177.856C324.967 177.856 324.674 177.758 324.459 177.563C324.244 177.368 324.137 177.075 324.137 176.684C324.137 176.294 324.244 175.962 324.459 175.689C324.674 175.416 324.888 175.211 325.103 175.074C325.318 174.937 325.455 174.879 325.513 174.898H325.542C325.542 174.859 325.484 174.801 325.367 174.722C325.25 174.644 325.045 174.566 324.752 174.488C324.459 174.41 324.127 174.371 323.756 174.371C323.17 174.371 322.614 174.508 322.087 174.781C321.677 174.957 321.257 175.259 320.828 175.689C319.969 176.548 319.344 177.758 318.954 179.32C318.563 180.882 318.358 182.014 318.339 182.717C318.339 183.615 318.592 184.288 319.1 184.737C319.53 185.206 320.096 185.44 320.799 185.44H320.916C323.102 185.44 324.908 184.611 326.333 182.951C326.509 182.756 326.626 182.658 326.685 182.658C326.763 182.658 326.89 182.746 327.065 182.922C327.241 183.098 327.339 183.234 327.358 183.332C327.378 183.429 327.29 183.576 327.094 183.771C326.899 183.966 326.616 184.24 326.245 184.591C325.874 184.942 325.435 185.235 324.927 185.47C324.42 185.704 323.795 185.948 323.053 186.202C322.311 186.455 321.531 186.563 320.711 186.524C319.246 186.524 318.065 186.055 317.167 185.118C316.269 184.181 315.811 182.99 315.791 181.546Z" fill="#3491FF"/>
<path d="M328.149 177.797C328.168 177.739 328.188 177.661 328.207 177.563C328.227 177.465 328.276 177.251 328.354 176.919C328.432 176.587 328.529 176.284 328.647 176.011C328.764 175.738 328.91 175.416 329.086 175.045C329.261 174.674 329.457 174.381 329.671 174.166C329.886 173.951 330.14 173.737 330.433 173.522C330.726 173.307 331.048 173.219 331.399 173.258C332.863 173.258 333.8 173.883 334.21 175.132L334.503 174.869C335.714 173.795 336.865 173.258 337.959 173.258C339.228 173.258 340.223 173.717 340.946 174.635C341.668 175.552 342.029 176.665 342.029 177.973C342.029 180.081 341.287 182.024 339.804 183.8C338.32 185.577 336.641 186.475 334.767 186.494C334.337 186.494 333.957 186.436 333.625 186.319C333.41 186.221 333.185 186.075 332.951 185.88C332.717 185.684 332.531 185.518 332.395 185.382L332.19 185.147C332.17 185.167 331.956 186.016 331.546 187.695C331.136 189.374 330.931 190.223 330.931 190.243C330.931 190.36 331.009 190.428 331.165 190.448C331.321 190.467 331.682 190.497 332.248 190.536H332.98C333.098 190.672 333.156 190.76 333.156 190.799C333.156 190.838 333.127 191.014 333.068 191.326C333.01 191.561 332.951 191.707 332.893 191.766C332.834 191.824 332.707 191.863 332.512 191.883C332.473 191.883 332.366 191.883 332.19 191.883C332.014 191.883 331.682 191.873 331.194 191.853C330.706 191.834 330.101 191.824 329.379 191.824C328.012 191.824 327.143 191.844 326.772 191.883H326.538C326.401 191.746 326.333 191.639 326.333 191.561C326.372 191.033 326.499 190.692 326.714 190.536H327.299C327.963 190.516 328.344 190.399 328.442 190.184C328.5 190.067 329.096 187.734 330.228 183.185C331.36 178.637 331.956 176.226 332.014 175.952C332.034 175.855 332.043 175.718 332.043 175.542C332.043 174.742 331.799 174.342 331.311 174.342C330.882 174.342 330.521 174.615 330.228 175.162C329.935 175.708 329.71 176.304 329.554 176.948C329.398 177.592 329.281 177.944 329.203 178.002C329.164 178.041 329.008 178.061 328.734 178.061H328.324C328.207 177.944 328.149 177.856 328.149 177.797ZM332.688 183.215C333.117 184.698 333.839 185.44 334.855 185.44C335.44 185.44 336.006 185.216 336.553 184.767C337.1 184.318 337.549 183.752 337.9 183.068C338.252 182.405 338.603 181.35 338.954 179.906C339.306 178.461 339.491 177.387 339.511 176.684V176.509C339.511 175.064 338.915 174.342 337.724 174.342C337.51 174.342 337.295 174.371 337.08 174.43C336.865 174.488 336.651 174.576 336.436 174.693C336.221 174.81 336.026 174.937 335.85 175.074C335.675 175.211 335.509 175.357 335.352 175.513C335.196 175.669 335.05 175.816 334.913 175.952C334.777 176.089 334.669 176.226 334.591 176.362C334.513 176.499 334.435 176.597 334.357 176.655L334.269 176.772C334.269 176.792 334.24 176.928 334.181 177.182C334.123 177.436 334.015 177.866 333.859 178.471C333.703 179.076 333.566 179.584 333.449 179.994C332.941 182.063 332.688 183.137 332.688 183.215Z" fill="#3491FF"/>
<path d="M346.626 178.645L346.357 178.748C346.164 178.817 345.887 178.886 345.529 178.955C345.17 179.024 344.769 179.073 344.328 179.1H343.934V178.148H344.328C344.977 178.12 345.577 178.017 346.129 177.837C346.681 177.658 347.068 177.492 347.288 177.341C347.509 177.189 347.702 177.037 347.868 176.885C347.896 176.844 347.979 176.823 348.117 176.823C348.241 176.823 348.358 176.864 348.469 176.947V183.138L348.489 189.349C348.586 189.445 348.669 189.507 348.738 189.535C348.807 189.562 348.972 189.59 349.235 189.618C349.497 189.645 349.925 189.659 350.518 189.659H351.056V190.611H350.829C350.539 190.57 349.442 190.549 347.537 190.549C345.66 190.549 344.576 190.57 344.286 190.611H344.038V189.659H344.576C344.88 189.659 345.142 189.659 345.363 189.659C345.584 189.659 345.756 189.652 345.881 189.638C346.005 189.625 346.115 189.604 346.212 189.576C346.308 189.549 346.364 189.535 346.377 189.535C346.391 189.535 346.433 189.5 346.502 189.431C346.571 189.362 346.612 189.335 346.626 189.349V178.645Z" fill="#3491FF"/>
</svg>
