<svg width="700" height="141" viewBox="0 0 700 141" fill="none" xmlns="http://www.w3.org/2000/svg">
<rect width="700" height="140" transform="translate(0 0.25)" fill="#0A0D12"/>
<path d="M91 124.25L136 79.25L181 124.25M136 13.25V63.25M294 29.25V124.25H389V29.25H294ZM541 77.25L588.5 124.75H493.5L541 77.25ZM541 62.25L588.5 14.75H493.5L541 62.25Z" stroke="#B3BFD8" stroke-width="2"/>
<path d="M310 11.25L405 106.25" stroke="#0A0D12" stroke-width="2"/>
<path d="M310 15.25L405 110.25" stroke="#0A0D12" stroke-width="2"/>
<path d="M310 17.25L405 112.25" stroke="#0A0D12" stroke-width="2"/>
<path d="M310 13.25L405 108.25" stroke="#B3BFD8" stroke-width="2"/>
<circle cx="294" cy="124.25" r="5" fill="black" stroke="#D9EBFF" stroke-width="2"/>
<circle cx="294" cy="29.25" r="5" fill="black" stroke="#D9EBFF" stroke-width="2"/>
<circle cx="310" cy="13.25" r="5" fill="black" stroke="#D9EBFF" stroke-width="2"/>
<circle cx="405" cy="108.25" r="5" fill="black" stroke="#D9EBFF" stroke-width="2"/>
<circle cx="389" cy="124.25" r="5" fill="black" stroke="#D9EBFF" stroke-width="2"/>
<circle cx="389" cy="29.25" r="5" fill="black" stroke="#D9EBFF" stroke-width="2"/>
<circle cx="136" cy="13.25" r="5" fill="black" stroke="#D9EBFF" stroke-width="2"/>
<circle cx="136" cy="63.25" r="5" fill="black" stroke="#D9EBFF" stroke-width="2"/>
<circle cx="181" cy="123.25" r="5" fill="black" stroke="#D9EBFF" stroke-width="2"/>
<circle cx="91" cy="123.25" r="5" fill="black" stroke="#D9EBFF" stroke-width="2"/>
<circle cx="136" cy="80.25" r="5" fill="black" stroke="#D9EBFF" stroke-width="2"/>
<circle cx="589" cy="15.25" r="5" fill="black" stroke="#D9EBFF" stroke-width="2"/>
<circle cx="494" cy="15.25" r="5" fill="black" stroke="#D9EBFF" stroke-width="2"/>
<circle cx="494" cy="124.25" r="5" fill="black" stroke="#D9EBFF" stroke-width="2"/>
<circle cx="541" cy="79.25" r="5" fill="black" stroke="#D9EBFF" stroke-width="2"/>
<circle cx="541" cy="61.25" r="5" fill="black" stroke="#D9EBFF" stroke-width="2"/>
<circle cx="589" cy="124.25" r="5" fill="black" stroke="#D9EBFF" stroke-width="2"/>
</svg>
