<svg width="701" height="259" viewBox="0 0 701 259" fill="none" xmlns="http://www.w3.org/2000/svg">
<rect width="700" height="259" transform="translate(0.294922)" fill="#0A0D12"/>
<mask id="mask0_99_617" style="mask-type:alpha" maskUnits="userSpaceOnUse" x="199" y="32" width="303" height="152">
<path d="M425.795 32L350.295 75.6667L274.795 32L199.295 107.667L274.795 183.333H425.795L501.295 107.667L425.795 32Z" fill="#C4C4C4"/>
</mask>
<g mask="url(#mask0_99_617)">
<path d="M68.5879 210.21L428.505 -149.707M79.9014 221.524L439.819 -138.393M91.2148 232.838L451.132 -127.08M125.156 266.779L485.074 -93.1385M147.783 289.406L507.701 -70.5112M136.47 278.093L496.387 -81.8248M159.098 300.72L519.015 -59.1974M113.843 255.465L473.76 -104.452M102.529 244.151L462.447 -115.766M170.411 312.034L530.328 -47.8837M181.725 323.347L541.642 -36.57M193.038 334.661L552.955 -25.2563M226.979 368.602L586.897 8.68481M249.607 391.23L609.525 31.3122M238.293 379.916L598.21 19.9985M260.921 402.543L620.838 42.6259M215.666 357.288L575.583 -2.62891M204.353 345.975L564.27 -13.9426" stroke="#2D9CDB" stroke-width="2"/>
</g>
<path d="M274.795 32H425.795M274.795 32L350.295 75.6667L425.795 32M274.795 32L199.295 107.667L274.795 183.333M425.795 32L501.295 107.667L425.795 183.333M425.795 183.333L350.295 227L274.795 183.333M425.795 183.333H274.795" stroke="#B3BFD8" stroke-width="2"/>
<circle cx="200.295" cy="108" r="5" fill="black" stroke="#D9EBFF" stroke-width="2"/>
<circle cx="275.295" cy="32" r="5" fill="black" stroke="#D9EBFF" stroke-width="2"/>
<circle cx="425.295" cy="32" r="5" fill="black" stroke="#D9EBFF" stroke-width="2"/>
<circle cx="350.295" cy="76" r="5" fill="black" stroke="#D9EBFF" stroke-width="2"/>
<circle cx="350.295" cy="227" r="5" fill="black" stroke="#D9EBFF" stroke-width="2"/>
<circle cx="426.295" cy="183" r="5" fill="black" stroke="#D9EBFF" stroke-width="2"/>
<circle cx="274.295" cy="183" r="5" fill="black" stroke="#D9EBFF" stroke-width="2"/>
<circle cx="501.295" cy="108" r="5" fill="black" stroke="#D9EBFF" stroke-width="2"/>
<path d="M169.295 105.241C169.309 105.157 169.33 105.046 169.358 104.907C169.385 104.767 169.469 104.502 169.608 104.112C169.748 103.722 169.887 103.395 170.027 103.13C170.166 102.865 170.396 102.607 170.716 102.356C171.037 102.106 171.357 101.987 171.678 102.001C172.179 102.001 172.597 102.127 172.932 102.377C173.266 102.628 173.475 102.865 173.559 103.088C173.643 103.311 173.684 103.457 173.684 103.527C173.684 103.555 173.691 103.569 173.705 103.569L173.935 103.339C174.785 102.447 175.754 102.001 176.841 102.001C177.593 102.001 178.199 102.189 178.659 102.565C179.119 102.942 179.356 103.492 179.37 104.217C179.384 104.941 179.119 106.035 178.576 107.498C178.032 108.962 177.767 109.846 177.781 110.153C177.781 110.515 177.9 110.696 178.137 110.696C178.22 110.696 178.283 110.689 178.325 110.676C178.729 110.606 179.091 110.341 179.412 109.881C179.732 109.421 179.976 108.864 180.143 108.209C180.171 108.098 180.31 108.042 180.561 108.042C180.84 108.042 180.979 108.098 180.979 108.209C180.979 108.223 180.951 108.328 180.896 108.523C180.784 108.927 180.631 109.324 180.436 109.714C180.241 110.104 179.92 110.494 179.474 110.885C179.028 111.275 178.548 111.463 178.032 111.449C177.377 111.449 176.903 111.261 176.611 110.885C176.318 110.508 176.172 110.118 176.172 109.714C176.172 109.449 176.423 108.613 176.924 107.206C177.426 105.798 177.684 104.739 177.698 104.029C177.698 103.206 177.391 102.795 176.778 102.795H176.673C175.475 102.795 174.465 103.499 173.643 104.907L173.496 105.157L172.807 107.958C172.347 109.784 172.082 110.766 172.012 110.905C171.831 111.282 171.531 111.47 171.113 111.47C170.932 111.47 170.786 111.428 170.674 111.344C170.563 111.261 170.486 111.177 170.445 111.094C170.403 111.01 170.389 110.94 170.403 110.885C170.403 110.703 170.668 109.568 171.197 107.477C171.727 105.387 172.005 104.252 172.033 104.07C172.047 104.001 172.054 103.841 172.054 103.59C172.054 103.046 171.887 102.774 171.552 102.774C171.023 102.774 170.584 103.471 170.236 104.865C170.152 105.143 170.11 105.29 170.11 105.304C170.082 105.387 169.95 105.429 169.713 105.429H169.42C169.337 105.345 169.295 105.283 169.295 105.241Z" fill="#D9EBFF"/>
<path d="M182.821 105.743C183.373 104.945 184.126 104.546 185.082 104.546C185.555 104.546 186.028 104.674 186.501 104.93C186.974 105.186 187.358 105.639 187.653 106.289C188.018 107.107 188.2 108.23 188.2 109.659C188.2 111.186 187.988 112.353 187.565 113.161C187.368 113.575 187.097 113.905 186.752 114.151C186.407 114.397 186.107 114.55 185.851 114.609C185.594 114.668 185.343 114.703 185.097 114.713C184.841 114.713 184.585 114.683 184.328 114.624C184.072 114.565 183.772 114.407 183.427 114.151C183.082 113.895 182.811 113.565 182.614 113.161C182.191 112.353 181.979 111.186 181.979 109.659C181.979 107.944 182.26 106.639 182.821 105.743ZM186.146 105.565C185.851 105.25 185.501 105.092 185.097 105.092C184.683 105.092 184.328 105.25 184.033 105.565C183.787 105.821 183.624 106.176 183.545 106.629C183.466 107.082 183.427 108.028 183.427 109.467C183.427 111.023 183.466 112.048 183.545 112.54C183.624 113.033 183.801 113.422 184.077 113.708C184.353 114.003 184.693 114.151 185.097 114.151C185.491 114.151 185.826 114.003 186.102 113.708C186.388 113.412 186.565 112.998 186.634 112.466C186.703 111.934 186.742 110.934 186.752 109.467C186.752 108.038 186.713 107.097 186.634 106.644C186.555 106.191 186.392 105.831 186.146 105.565Z" fill="#D9EBFF"/>
<path d="M261.295 194.241C261.309 194.157 261.33 194.046 261.358 193.907C261.385 193.767 261.469 193.502 261.608 193.112C261.748 192.722 261.887 192.395 262.027 192.13C262.166 191.865 262.396 191.607 262.716 191.356C263.037 191.106 263.357 190.987 263.678 191.001C264.179 191.001 264.597 191.127 264.932 191.377C265.266 191.628 265.475 191.865 265.559 192.088C265.643 192.311 265.684 192.457 265.684 192.527C265.684 192.555 265.691 192.569 265.705 192.569L265.935 192.339C266.785 191.447 267.754 191.001 268.841 191.001C269.593 191.001 270.199 191.189 270.659 191.565C271.119 191.942 271.356 192.492 271.37 193.217C271.384 193.941 271.119 195.035 270.576 196.498C270.032 197.962 269.767 198.846 269.781 199.153C269.781 199.515 269.9 199.696 270.137 199.696C270.22 199.696 270.283 199.689 270.325 199.676C270.729 199.606 271.091 199.341 271.412 198.881C271.732 198.421 271.976 197.864 272.143 197.209C272.171 197.098 272.31 197.042 272.561 197.042C272.84 197.042 272.979 197.098 272.979 197.209C272.979 197.223 272.951 197.328 272.896 197.523C272.784 197.927 272.631 198.324 272.436 198.714C272.241 199.104 271.92 199.494 271.474 199.885C271.028 200.275 270.548 200.463 270.032 200.449C269.377 200.449 268.903 200.261 268.611 199.885C268.318 199.508 268.172 199.118 268.172 198.714C268.172 198.449 268.423 197.613 268.924 196.206C269.426 194.798 269.684 193.739 269.698 193.029C269.698 192.206 269.391 191.795 268.778 191.795H268.673C267.475 191.795 266.465 192.499 265.643 193.907L265.496 194.157L264.807 196.958C264.347 198.784 264.082 199.766 264.012 199.905C263.831 200.282 263.531 200.47 263.113 200.47C262.932 200.47 262.786 200.428 262.674 200.344C262.563 200.261 262.486 200.177 262.445 200.094C262.403 200.01 262.389 199.94 262.403 199.885C262.403 199.703 262.668 198.568 263.197 196.477C263.727 194.387 264.005 193.252 264.033 193.07C264.047 193.001 264.054 192.841 264.054 192.59C264.054 192.046 263.887 191.774 263.552 191.774C263.023 191.774 262.584 192.471 262.236 193.865C262.152 194.143 262.11 194.29 262.11 194.304C262.082 194.387 261.95 194.429 261.713 194.429H261.42C261.337 194.345 261.295 194.283 261.295 194.241Z" fill="#D9EBFF"/>
<path d="M276.55 194.846L276.358 194.92C276.22 194.969 276.023 195.018 275.767 195.068C275.511 195.117 275.225 195.151 274.91 195.171H274.629V194.491H274.91C275.373 194.472 275.801 194.398 276.195 194.27C276.59 194.142 276.865 194.023 277.023 193.915C277.181 193.807 277.319 193.698 277.437 193.59C277.457 193.56 277.516 193.546 277.614 193.546C277.703 193.546 277.787 193.575 277.865 193.634V198.053L277.88 202.486C277.949 202.555 278.008 202.599 278.057 202.619C278.107 202.639 278.225 202.659 278.412 202.678C278.599 202.698 278.905 202.708 279.328 202.708H279.713V203.388H279.55C279.343 203.358 278.56 203.343 277.2 203.343C275.86 203.343 275.087 203.358 274.88 203.388H274.703V202.708H275.087C275.304 202.708 275.491 202.708 275.649 202.708C275.806 202.708 275.929 202.703 276.018 202.693C276.107 202.683 276.186 202.668 276.255 202.649C276.324 202.629 276.363 202.619 276.373 202.619C276.383 202.619 276.412 202.595 276.461 202.545C276.511 202.496 276.54 202.476 276.55 202.486V194.846Z" fill="#D9EBFF"/>
<path d="M341.295 239.241C341.309 239.157 341.33 239.046 341.358 238.907C341.385 238.767 341.469 238.502 341.608 238.112C341.748 237.722 341.887 237.395 342.027 237.13C342.166 236.865 342.396 236.607 342.716 236.356C343.037 236.106 343.357 235.987 343.678 236.001C344.179 236.001 344.597 236.127 344.932 236.377C345.266 236.628 345.475 236.865 345.559 237.088C345.643 237.311 345.684 237.457 345.684 237.527C345.684 237.555 345.691 237.569 345.705 237.569L345.935 237.339C346.785 236.447 347.754 236.001 348.841 236.001C349.593 236.001 350.199 236.189 350.659 236.565C351.119 236.942 351.356 237.492 351.37 238.217C351.384 238.941 351.119 240.035 350.576 241.498C350.032 242.962 349.767 243.846 349.781 244.153C349.781 244.515 349.9 244.696 350.137 244.696C350.22 244.696 350.283 244.689 350.325 244.676C350.729 244.606 351.091 244.341 351.412 243.881C351.732 243.421 351.976 242.864 352.143 242.209C352.171 242.098 352.31 242.042 352.561 242.042C352.84 242.042 352.979 242.098 352.979 242.209C352.979 242.223 352.951 242.328 352.896 242.523C352.784 242.927 352.631 243.324 352.436 243.714C352.241 244.104 351.92 244.494 351.474 244.885C351.028 245.275 350.548 245.463 350.032 245.449C349.377 245.449 348.903 245.261 348.611 244.885C348.318 244.508 348.172 244.118 348.172 243.714C348.172 243.449 348.423 242.613 348.924 241.206C349.426 239.798 349.684 238.739 349.698 238.029C349.698 237.206 349.391 236.795 348.778 236.795H348.673C347.475 236.795 346.465 237.499 345.643 238.907L345.496 239.157L344.807 241.958C344.347 243.784 344.082 244.766 344.012 244.905C343.831 245.282 343.531 245.47 343.113 245.47C342.932 245.47 342.786 245.428 342.674 245.344C342.563 245.261 342.486 245.177 342.445 245.094C342.403 245.01 342.389 244.94 342.403 244.885C342.403 244.703 342.668 243.568 343.197 241.477C343.727 239.387 344.005 238.252 344.033 238.07C344.047 238.001 344.054 237.841 344.054 237.59C344.054 237.046 343.887 236.774 343.552 236.774C343.023 236.774 342.584 237.471 342.236 238.865C342.152 239.143 342.11 239.29 342.11 239.304C342.082 239.387 341.95 239.429 341.713 239.429H341.42C341.337 239.345 341.295 239.283 341.295 239.241Z" fill="#D9EBFF"/>
<path d="M355.013 242.048C354.747 242.048 354.535 241.959 354.378 241.782C354.22 241.605 354.141 241.388 354.141 241.132C354.141 240.432 354.402 239.826 354.925 239.314C355.447 238.802 356.097 238.546 356.875 238.546C357.772 238.546 358.521 238.821 359.121 239.373C359.722 239.925 360.028 240.639 360.038 241.516C360.038 241.94 359.939 242.343 359.742 242.728C359.545 243.112 359.309 243.447 359.033 243.733C358.757 244.018 358.363 244.383 357.851 244.826C357.496 245.132 357.003 245.585 356.373 246.186L355.501 247.013L356.624 247.028C358.171 247.028 358.993 247.003 359.092 246.954C359.161 246.934 359.279 246.496 359.447 245.639V245.595H360.038V245.639C360.028 245.668 359.964 246.117 359.846 246.984C359.727 247.851 359.653 248.304 359.624 248.343V248.388H354.141V247.929C354.141 247.861 354.171 247.787 354.23 247.708C354.289 247.629 354.437 247.457 354.673 247.191C354.959 246.875 355.205 246.599 355.412 246.363C355.501 246.265 355.668 246.082 355.915 245.816C356.161 245.55 356.328 245.368 356.417 245.269C356.506 245.171 356.649 245.008 356.846 244.782C357.043 244.555 357.181 244.388 357.259 244.279C357.338 244.171 357.452 244.023 357.599 243.836C357.747 243.649 357.851 243.491 357.91 243.363C357.969 243.235 358.043 243.092 358.131 242.935C358.22 242.777 358.284 242.619 358.323 242.462C358.363 242.304 358.397 242.156 358.427 242.018C358.456 241.88 358.471 241.718 358.471 241.531C358.471 240.91 358.304 240.373 357.969 239.92C357.634 239.467 357.156 239.24 356.535 239.24C356.21 239.24 355.925 239.324 355.678 239.491C355.432 239.659 355.26 239.821 355.161 239.979C355.062 240.137 355.013 240.23 355.013 240.26C355.013 240.27 355.038 240.275 355.087 240.275C355.264 240.275 355.447 240.343 355.634 240.481C355.821 240.619 355.915 240.846 355.915 241.161C355.915 241.408 355.836 241.614 355.678 241.782C355.521 241.949 355.299 242.038 355.013 242.048Z" fill="#D9EBFF"/>
<path d="M420.295 195.241C420.309 195.157 420.33 195.046 420.358 194.907C420.385 194.767 420.469 194.502 420.608 194.112C420.748 193.722 420.887 193.395 421.027 193.13C421.166 192.865 421.396 192.607 421.716 192.356C422.037 192.106 422.357 191.987 422.678 192.001C423.179 192.001 423.597 192.127 423.932 192.377C424.266 192.628 424.475 192.865 424.559 193.088C424.643 193.311 424.684 193.457 424.684 193.527C424.684 193.555 424.691 193.569 424.705 193.569L424.935 193.339C425.785 192.447 426.754 192.001 427.841 192.001C428.593 192.001 429.199 192.189 429.659 192.565C430.119 192.942 430.356 193.492 430.37 194.217C430.384 194.941 430.119 196.035 429.576 197.498C429.032 198.962 428.767 199.846 428.781 200.153C428.781 200.515 428.9 200.696 429.137 200.696C429.22 200.696 429.283 200.689 429.325 200.676C429.729 200.606 430.091 200.341 430.412 199.881C430.732 199.421 430.976 198.864 431.143 198.209C431.171 198.098 431.31 198.042 431.561 198.042C431.84 198.042 431.979 198.098 431.979 198.209C431.979 198.223 431.951 198.328 431.896 198.523C431.784 198.927 431.631 199.324 431.436 199.714C431.241 200.104 430.92 200.494 430.474 200.885C430.028 201.275 429.548 201.463 429.032 201.449C428.377 201.449 427.903 201.261 427.611 200.885C427.318 200.508 427.172 200.118 427.172 199.714C427.172 199.449 427.423 198.613 427.924 197.206C428.426 195.798 428.684 194.739 428.698 194.029C428.698 193.206 428.391 192.795 427.778 192.795H427.673C426.475 192.795 425.465 193.499 424.643 194.907L424.496 195.157L423.807 197.958C423.347 199.784 423.082 200.766 423.012 200.905C422.831 201.282 422.531 201.47 422.113 201.47C421.932 201.47 421.786 201.428 421.674 201.344C421.563 201.261 421.486 201.177 421.445 201.094C421.403 201.01 421.389 200.94 421.403 200.885C421.403 200.703 421.668 199.568 422.197 197.477C422.727 195.387 423.005 194.252 423.033 194.07C423.047 194.001 423.054 193.841 423.054 193.59C423.054 193.046 422.887 192.774 422.552 192.774C422.023 192.774 421.584 193.471 421.236 194.865C421.152 195.143 421.11 195.29 421.11 195.304C421.082 195.387 420.95 195.429 420.713 195.429H420.42C420.337 195.345 420.295 195.283 420.295 195.241Z" fill="#D9EBFF"/>
<path d="M434.279 197.545C434.013 197.545 433.806 197.462 433.659 197.294C433.511 197.127 433.432 196.91 433.422 196.644C433.422 196.102 433.659 195.619 434.131 195.196C434.604 194.772 435.176 194.56 435.846 194.56C436.19 194.56 436.407 194.565 436.496 194.575C437.225 194.693 437.782 194.954 438.166 195.358C438.55 195.762 438.747 196.201 438.757 196.674C438.757 197.186 438.589 197.683 438.254 198.166C437.92 198.649 437.456 198.999 436.865 199.215L436.821 199.245C436.821 199.255 436.865 199.27 436.954 199.289C437.043 199.309 437.186 199.353 437.383 199.422C437.58 199.491 437.767 199.595 437.944 199.733C438.752 200.255 439.156 200.944 439.156 201.801C439.156 202.58 438.851 203.26 438.24 203.841C437.629 204.422 436.856 204.713 435.92 204.713C435.131 204.713 434.452 204.501 433.88 204.077C433.309 203.654 433.023 203.117 433.023 202.466C433.023 202.191 433.112 201.969 433.289 201.801C433.466 201.634 433.688 201.545 433.954 201.535C434.23 201.535 434.457 201.624 434.634 201.801C434.811 201.979 434.9 202.2 434.9 202.466C434.9 202.575 434.885 202.673 434.856 202.762C434.826 202.851 434.792 202.93 434.752 202.998C434.713 203.067 434.659 203.127 434.59 203.176C434.521 203.225 434.461 203.264 434.412 203.294C434.363 203.324 434.314 203.343 434.264 203.353C434.215 203.363 434.176 203.378 434.146 203.397L434.087 203.412C434.59 203.856 435.2 204.077 435.92 204.077C436.461 204.077 436.87 203.816 437.146 203.294C437.314 202.969 437.397 202.471 437.397 201.801V201.506C437.397 200.57 437.082 199.944 436.452 199.629C436.304 199.57 436.003 199.536 435.55 199.526L434.929 199.511L434.885 199.481C434.865 199.452 434.856 199.373 434.856 199.245C434.856 199.068 434.895 198.979 434.974 198.979C435.25 198.979 435.535 198.954 435.831 198.905C436.166 198.856 436.471 198.649 436.747 198.284C437.023 197.92 437.161 197.368 437.161 196.629V196.511C437.161 195.949 436.989 195.56 436.644 195.344C436.427 195.206 436.195 195.137 435.949 195.137C435.634 195.137 435.343 195.191 435.077 195.299C434.811 195.408 434.624 195.521 434.516 195.639C434.407 195.757 434.353 195.816 434.353 195.816H434.397C434.427 195.826 434.466 195.836 434.516 195.846C434.565 195.856 434.614 195.88 434.663 195.92C434.713 195.959 434.772 195.994 434.841 196.023C434.91 196.053 434.959 196.107 434.989 196.186C435.018 196.265 435.058 196.339 435.107 196.408C435.156 196.476 435.171 196.575 435.151 196.703C435.151 196.92 435.082 197.112 434.944 197.279C434.806 197.447 434.585 197.536 434.279 197.545Z" fill="#D9EBFF"/>
<path d="M511.295 106.241C511.309 106.157 511.33 106.046 511.358 105.907C511.385 105.767 511.469 105.502 511.608 105.112C511.748 104.722 511.887 104.395 512.027 104.13C512.166 103.865 512.396 103.607 512.716 103.356C513.037 103.106 513.357 102.987 513.678 103.001C514.179 103.001 514.597 103.127 514.932 103.377C515.266 103.628 515.475 103.865 515.559 104.088C515.643 104.311 515.684 104.457 515.684 104.527C515.684 104.555 515.691 104.569 515.705 104.569L515.935 104.339C516.785 103.447 517.754 103.001 518.841 103.001C519.593 103.001 520.199 103.189 520.659 103.565C521.119 103.942 521.356 104.492 521.37 105.217C521.384 105.941 521.119 107.035 520.576 108.498C520.032 109.962 519.767 110.846 519.781 111.153C519.781 111.515 519.9 111.696 520.137 111.696C520.22 111.696 520.283 111.689 520.325 111.676C520.729 111.606 521.091 111.341 521.412 110.881C521.732 110.421 521.976 109.864 522.143 109.209C522.171 109.098 522.31 109.042 522.561 109.042C522.84 109.042 522.979 109.098 522.979 109.209C522.979 109.223 522.951 109.328 522.896 109.523C522.784 109.927 522.631 110.324 522.436 110.714C522.241 111.104 521.92 111.494 521.474 111.885C521.028 112.275 520.548 112.463 520.032 112.449C519.377 112.449 518.903 112.261 518.611 111.885C518.318 111.508 518.172 111.118 518.172 110.714C518.172 110.449 518.423 109.613 518.924 108.206C519.426 106.798 519.684 105.739 519.698 105.029C519.698 104.206 519.391 103.795 518.778 103.795H518.673C517.475 103.795 516.465 104.499 515.643 105.907L515.496 106.157L514.807 108.958C514.347 110.784 514.082 111.766 514.012 111.905C513.831 112.282 513.531 112.47 513.113 112.47C512.932 112.47 512.786 112.428 512.674 112.344C512.563 112.261 512.486 112.177 512.445 112.094C512.403 112.01 512.389 111.94 512.403 111.885C512.403 111.703 512.668 110.568 513.197 108.477C513.727 106.387 514.005 105.252 514.033 105.07C514.047 105.001 514.054 104.841 514.054 104.59C514.054 104.046 513.887 103.774 513.552 103.774C513.023 103.774 512.584 104.471 512.236 105.865C512.152 106.143 512.11 106.29 512.11 106.304C512.082 106.387 511.95 106.429 511.713 106.429H511.42C511.337 106.345 511.295 106.283 511.295 106.241Z" fill="#D9EBFF"/>
<path d="M530.23 115.388C530.052 115.358 529.417 115.343 528.323 115.343C527.181 115.343 526.521 115.358 526.343 115.388H526.21V114.708H526.668C526.865 114.708 526.998 114.708 527.067 114.708C527.136 114.708 527.22 114.698 527.319 114.678C527.417 114.659 527.486 114.634 527.525 114.604C527.565 114.575 527.599 114.535 527.629 114.486C527.639 114.466 527.644 114.2 527.644 113.688V112.949H523.816V112.269L526.048 108.856C527.555 106.57 528.319 105.422 528.338 105.413C528.358 105.393 528.461 105.383 528.649 105.383H528.915L529.003 105.472V112.269H530.363V112.949H529.003V113.703C529.003 114.107 529.003 114.343 529.003 114.412C529.003 114.481 529.033 114.54 529.092 114.59C529.171 114.659 529.452 114.698 529.934 114.708H530.363V115.388H530.23ZM527.732 112.269V107.334L524.496 112.255L526.107 112.269H527.732Z" fill="#D9EBFF"/>
<path d="M419.295 17.241C419.309 17.1573 419.33 17.0459 419.358 16.9065C419.385 16.7672 419.469 16.5024 419.608 16.1122C419.748 15.7221 419.887 15.3946 420.027 15.1298C420.166 14.8651 420.396 14.6073 420.716 14.3564C421.037 14.1056 421.357 13.9872 421.678 14.0011C422.179 14.0011 422.597 14.1265 422.932 14.3773C423.266 14.6282 423.475 14.8651 423.559 15.088C423.643 15.311 423.684 15.4573 423.684 15.527C423.684 15.5548 423.691 15.5688 423.705 15.5688L423.935 15.3388C424.785 14.447 425.754 14.0011 426.841 14.0011C427.593 14.0011 428.199 14.1892 428.659 14.5655C429.119 14.9417 429.356 15.4921 429.37 16.2167C429.384 16.9414 429.119 18.0352 428.576 19.4984C428.032 20.9616 427.767 21.8464 427.781 22.153C427.781 22.5153 427.9 22.6964 428.137 22.6964C428.22 22.6964 428.283 22.6895 428.325 22.6755C428.729 22.6059 429.091 22.3411 429.412 21.8813C429.732 21.4214 429.976 20.864 430.143 20.2091C430.171 20.0976 430.31 20.0419 430.561 20.0419C430.84 20.0419 430.979 20.0976 430.979 20.2091C430.979 20.223 430.951 20.3275 430.896 20.5226C430.784 20.9267 430.631 21.3239 430.436 21.714C430.241 22.1042 429.92 22.4944 429.474 22.8846C429.028 23.2747 428.548 23.4629 428.032 23.4489C427.377 23.4489 426.903 23.2608 426.611 22.8846C426.318 22.5083 426.172 22.1182 426.172 21.714C426.172 21.4493 426.423 20.6132 426.924 19.2058C427.426 17.7983 427.684 16.7393 427.698 16.0286C427.698 15.2065 427.391 14.7954 426.778 14.7954H426.673C425.475 14.7954 424.465 15.4991 423.643 16.9065L423.496 17.1573L422.807 19.9583C422.347 21.7837 422.082 22.7661 422.012 22.9055C421.831 23.2817 421.531 23.4698 421.113 23.4698C420.932 23.4698 420.786 23.428 420.674 23.3444C420.563 23.2608 420.486 23.1772 420.445 23.0936C420.403 23.01 420.389 22.9403 420.403 22.8846C420.403 22.7034 420.668 21.5677 421.197 19.4775C421.727 17.3873 422.005 16.2516 422.033 16.0704C422.047 16.0008 422.054 15.8405 422.054 15.5897C422.054 15.0462 421.887 14.7745 421.552 14.7745C421.023 14.7745 420.584 15.4712 420.236 16.8647C420.152 17.1434 420.11 17.2897 420.11 17.3037C420.082 17.3873 419.95 17.4291 419.713 17.4291H419.42C419.337 17.3455 419.295 17.2828 419.295 17.241Z" fill="#D9EBFF"/>
<path d="M433.826 24.0675C433.826 24.3039 433.747 24.501 433.59 24.6586C433.432 24.8162 433.24 24.895 433.013 24.895H432.91C433.363 25.6733 433.964 26.0625 434.713 26.0625C435.402 26.0625 435.905 25.7669 436.22 25.1758C436.407 24.8507 436.501 24.2202 436.501 23.2842C436.501 22.2695 436.368 21.5848 436.102 21.2301C435.846 20.905 435.56 20.7424 435.245 20.7424H435.156C434.388 20.7424 433.806 21.0774 433.412 21.7473C433.373 21.8163 433.338 21.8557 433.309 21.8656C433.279 21.8754 433.205 21.8853 433.087 21.8951C432.92 21.8951 432.826 21.8656 432.806 21.8065C432.787 21.767 432.777 20.905 432.777 19.2203V17.314C432.777 16.8214 432.801 16.5751 432.851 16.5751C432.87 16.5554 432.89 16.5455 432.91 16.5455C432.92 16.5455 433.023 16.5849 433.22 16.6637C433.417 16.7426 433.688 16.8214 434.033 16.9002C434.378 16.979 434.747 17.0184 435.141 17.0184C435.841 17.0184 436.511 16.8805 437.151 16.6046C437.23 16.5652 437.294 16.5455 437.343 16.5455C437.422 16.5455 437.461 16.6342 437.461 16.8115V17.0036C436.654 17.9593 435.644 18.4371 434.432 18.4371C434.126 18.4371 433.851 18.4075 433.604 18.3484L433.457 18.3189V20.8607C433.644 20.7227 433.792 20.6144 433.9 20.5356C434.008 20.4567 434.186 20.3779 434.432 20.2991C434.678 20.2203 434.929 20.1809 435.186 20.1809C435.984 20.1809 436.658 20.5011 437.21 21.1414C437.762 21.7818 438.038 22.5404 438.038 23.4172C438.038 24.3236 437.722 25.097 437.092 25.7374C436.461 26.3778 435.693 26.7029 434.787 26.7127C433.989 26.7127 433.348 26.4467 432.865 25.9147C432.383 25.3827 432.141 24.7817 432.141 24.1118C432.141 23.8754 432.195 23.6882 432.304 23.5502C432.412 23.4123 432.526 23.3237 432.644 23.2842C432.762 23.2448 432.875 23.2251 432.984 23.2251C433.23 23.2251 433.432 23.3089 433.59 23.4764C433.747 23.6438 433.826 23.8409 433.826 24.0675Z" fill="#D9EBFF"/>
<path d="M265.295 14.241C265.309 14.1573 265.33 14.0459 265.358 13.9065C265.386 13.7672 265.469 13.5024 265.608 13.1122C265.748 12.7221 265.887 12.3946 266.027 12.1298C266.166 11.8651 266.396 11.6073 266.716 11.3564C267.037 11.1056 267.357 10.9872 267.678 11.0011C268.179 11.0011 268.597 11.1265 268.932 11.3773C269.266 11.6282 269.475 11.8651 269.559 12.088C269.643 12.311 269.684 12.4573 269.684 12.527C269.684 12.5548 269.691 12.5688 269.705 12.5688L269.935 12.3388C270.785 11.447 271.754 11.0011 272.841 11.0011C273.593 11.0011 274.199 11.1892 274.659 11.5655C275.119 11.9417 275.356 12.4921 275.37 13.2167C275.384 13.9414 275.119 15.0352 274.576 16.4984C274.032 17.9616 273.767 18.8464 273.781 19.153C273.781 19.5153 273.9 19.6964 274.137 19.6964C274.22 19.6964 274.283 19.6895 274.325 19.6755C274.729 19.6059 275.091 19.3411 275.412 18.8813C275.732 18.4214 275.976 17.864 276.143 17.2091C276.171 17.0976 276.31 17.0419 276.561 17.0419C276.84 17.0419 276.979 17.0976 276.979 17.2091C276.979 17.223 276.951 17.3275 276.896 17.5226C276.784 17.9267 276.631 18.3239 276.436 18.714C276.241 19.1042 275.92 19.4944 275.474 19.8846C275.028 20.2747 274.548 20.4629 274.032 20.4489C273.377 20.4489 272.903 20.2608 272.611 19.8846C272.318 19.5083 272.172 19.1182 272.172 18.714C272.172 18.4493 272.423 17.6132 272.924 16.2058C273.426 14.7983 273.684 13.7393 273.698 13.0286C273.698 12.2065 273.391 11.7954 272.778 11.7954H272.673C271.475 11.7954 270.465 12.4991 269.643 13.9065L269.496 14.1573L268.807 16.9583C268.347 18.7837 268.082 19.7661 268.012 19.9055C267.831 20.2817 267.531 20.4698 267.113 20.4698C266.932 20.4698 266.786 20.428 266.674 20.3444C266.563 20.2608 266.486 20.1772 266.445 20.0936C266.403 20.01 266.389 19.9403 266.403 19.8846C266.403 19.7034 266.668 18.5677 267.197 16.4775C267.727 14.3873 268.005 13.2516 268.033 13.0704C268.047 13.0008 268.054 12.8405 268.054 12.5897C268.054 12.0462 267.887 11.7745 267.552 11.7745C267.023 11.7745 266.584 12.4712 266.236 13.8647C266.152 14.1434 266.11 14.2897 266.11 14.3037C266.082 14.3873 265.95 14.4291 265.713 14.4291H265.42C265.337 14.3455 265.295 14.2828 265.295 14.241Z" fill="#D9EBFF"/>
<path d="M278.215 16.6193C278.225 16.5996 278.309 16.0627 278.466 15.0085L278.703 13.4273C278.703 13.4076 278.801 13.3977 278.998 13.3977H279.294V13.4568C279.294 13.5554 279.368 13.6391 279.516 13.7081C279.663 13.777 279.92 13.8214 280.284 13.8411C280.649 13.8608 281.481 13.8706 282.782 13.8706H284.57V14.447L283.565 15.8213C283.476 15.9395 283.328 16.1366 283.121 16.4124C282.915 16.6883 282.782 16.8705 282.722 16.9592C282.663 17.0479 282.56 17.2055 282.412 17.4321C282.264 17.6587 282.166 17.836 282.117 17.9641C282.067 18.0922 281.998 18.2744 281.91 18.5109C281.821 18.7473 281.757 18.9739 281.718 19.1907C281.678 19.4074 281.639 19.6734 281.599 19.9887C281.56 20.3039 281.53 20.6389 281.511 20.9936C281.491 21.3483 281.476 21.7522 281.466 22.2054C281.466 22.3433 281.466 22.4812 281.466 22.6192C281.466 22.7571 281.461 22.8753 281.452 22.9738V23.1068C281.412 23.2743 281.319 23.4172 281.171 23.5354C281.023 23.6536 280.856 23.7127 280.668 23.7127C280.56 23.7127 280.457 23.6979 280.358 23.6684C280.259 23.6388 280.156 23.5452 280.048 23.3876C279.939 23.23 279.885 23.0329 279.885 22.7965C279.885 21.2399 280.363 19.6242 281.319 17.9493C281.516 17.6341 281.929 17.038 282.56 16.1612L283.24 15.2302H281.865C280.151 15.2302 279.25 15.2598 279.161 15.3189C279.102 15.3484 279.048 15.4666 278.998 15.6735C278.949 15.8804 278.9 16.0922 278.851 16.309L278.806 16.6193V16.6637H278.215V16.6193Z" fill="#D9EBFF"/>
<path d="M341.295 57.241C341.309 57.1573 341.33 57.0459 341.358 56.9065C341.386 56.7672 341.469 56.5024 341.608 56.1122C341.748 55.7221 341.887 55.3946 342.027 55.1298C342.166 54.8651 342.396 54.6073 342.716 54.3564C343.037 54.1056 343.357 53.9872 343.678 54.0011C344.179 54.0011 344.597 54.1265 344.932 54.3773C345.266 54.6282 345.475 54.8651 345.559 55.088C345.643 55.311 345.684 55.4573 345.684 55.527C345.684 55.5548 345.691 55.5688 345.705 55.5688L345.935 55.3388C346.785 54.447 347.754 54.0011 348.841 54.0011C349.593 54.0011 350.199 54.1892 350.659 54.5655C351.119 54.9417 351.356 55.4921 351.37 56.2167C351.384 56.9414 351.119 58.0352 350.576 59.4984C350.032 60.9616 349.767 61.8464 349.781 62.153C349.781 62.5153 349.9 62.6964 350.137 62.6964C350.22 62.6964 350.283 62.6895 350.325 62.6755C350.729 62.6059 351.091 62.3411 351.412 61.8813C351.732 61.4214 351.976 60.864 352.143 60.2091C352.171 60.0976 352.31 60.0419 352.561 60.0419C352.84 60.0419 352.979 60.0976 352.979 60.2091C352.979 60.223 352.951 60.3275 352.896 60.5226C352.784 60.9267 352.631 61.3239 352.436 61.714C352.241 62.1042 351.92 62.4944 351.474 62.8846C351.028 63.2747 350.548 63.4629 350.032 63.4489C349.377 63.4489 348.903 63.2608 348.611 62.8846C348.318 62.5083 348.172 62.1182 348.172 61.714C348.172 61.4493 348.423 60.6132 348.924 59.2058C349.426 57.7983 349.684 56.7393 349.698 56.0286C349.698 55.2065 349.391 54.7954 348.778 54.7954H348.673C347.475 54.7954 346.465 55.4991 345.643 56.9065L345.496 57.1573L344.807 59.9583C344.347 61.7837 344.082 62.7661 344.012 62.9055C343.831 63.2817 343.531 63.4698 343.113 63.4698C342.932 63.4698 342.786 63.428 342.674 63.3444C342.563 63.2608 342.486 63.1772 342.445 63.0936C342.403 63.01 342.389 62.9403 342.403 62.8846C342.403 62.7034 342.668 61.5677 343.197 59.4775C343.727 57.3873 344.005 56.2516 344.033 56.0704C344.047 56.0008 344.054 55.8405 344.054 55.5897C344.054 55.0462 343.887 54.7745 343.552 54.7745C343.023 54.7745 342.584 55.4712 342.236 56.8647C342.152 57.1434 342.11 57.2897 342.11 57.3037C342.082 57.3873 341.95 57.4291 341.713 57.4291H341.42C341.337 57.3455 341.295 57.2828 341.295 57.241Z" fill="#D9EBFF"/>
<path d="M354.023 61.7621C354.023 60.1563 354.422 58.8853 355.22 57.9494C356.018 57.0135 356.905 56.5455 357.88 56.5455C358.56 56.5455 359.048 56.7228 359.343 57.0775C359.639 57.4322 359.786 57.8263 359.786 58.2598C359.786 58.506 359.718 58.7031 359.58 58.8509C359.442 58.9986 359.25 59.0725 359.003 59.0725C358.777 59.0725 358.589 59.0036 358.442 58.8656C358.294 58.7277 358.22 58.5356 358.22 58.2893C358.22 57.8558 358.452 57.5947 358.915 57.5061C358.698 57.2893 358.392 57.1662 357.998 57.1366C357.299 57.1366 356.723 57.4322 356.269 58.0233C355.806 58.6735 355.575 59.6686 355.575 61.0084L355.59 61.0676C355.639 61.0084 355.678 60.9444 355.708 60.8754C356.112 60.2843 356.639 59.9888 357.289 59.9888H357.348C357.801 59.9888 358.2 60.0824 358.545 60.2695C358.782 60.4075 359.018 60.6045 359.254 60.8607C359.491 61.1168 359.683 61.3976 359.831 61.703C360.038 62.1858 360.141 62.7128 360.141 63.2842V63.5502C360.141 63.7768 360.117 63.9887 360.067 64.1857C359.959 64.767 359.644 65.3334 359.121 65.8852C358.599 66.4369 357.939 66.7127 357.141 66.7127C356.865 66.7127 356.599 66.6733 356.343 66.5945C356.087 66.5157 355.811 66.3679 355.516 66.1512C355.22 65.9344 354.969 65.6438 354.762 65.2793C354.555 64.9147 354.378 64.4369 354.23 63.8458C354.082 63.2547 354.013 62.5601 354.023 61.7621ZM357.2 60.5208C356.905 60.5208 356.649 60.6045 356.432 60.772C356.215 60.9395 356.048 61.1611 355.929 61.437C355.811 61.7129 355.727 61.9936 355.678 62.2793C355.629 62.5651 355.599 62.8705 355.59 63.1956C355.59 64.0133 355.649 64.5995 355.767 64.9541C355.885 65.3088 356.072 65.5945 356.328 65.8113C356.565 65.9886 356.826 66.0773 357.112 66.0773C357.614 66.0773 357.998 65.8901 358.264 65.5157C358.392 65.3384 358.481 65.1167 358.53 64.8507C358.58 64.5847 358.604 64.0675 358.604 63.299C358.604 62.5109 358.58 61.9838 358.53 61.7178C358.481 61.4518 358.392 61.2301 358.264 61.0528C357.998 60.6981 357.644 60.5208 357.2 60.5208Z" fill="#D9EBFF"/>
<path d="M469.295 149.411C469.295 156.955 463.436 163 456.295 163C449.154 163 443.295 156.955 443.295 149.411C443.295 146.059 445.369 142.21 448.235 138.441C450.805 135.061 453.878 131.91 456.286 129.442C456.289 129.439 456.292 129.436 456.295 129.433C456.298 129.436 456.301 129.439 456.304 129.442C458.712 131.91 461.785 135.061 464.355 138.441C467.221 142.21 469.295 146.059 469.295 149.411Z" fill="#0A0D12" stroke="#D9EBFF" stroke-width="2"/>
<line x1="449.295" y1="150" x2="463.295" y2="150" stroke="#D9EBFF" stroke-width="2"/>
<line x1="456.295" y1="143" x2="456.295" y2="157" stroke="#D9EBFF" stroke-width="2"/>
</svg>
