<svg width="701" height="260" viewBox="0 0 701 260" fill="none" xmlns="http://www.w3.org/2000/svg">
<rect width="700" height="259" transform="translate(0.294922 0.5)" fill="#0A0D12"/>
<mask id="mask0_142_0" style="mask-type:alpha" maskUnits="userSpaceOnUse" x="199" y="32" width="303" height="196">
<path d="M425.795 32.5L350.295 76.1667L274.795 32.5L199.295 108.167L274.795 183.833L350.295 227.5L425.795 183.833L501.295 108.167L425.795 32.5Z" fill="#C4C4C4"/>
</mask>
<g mask="url(#mask0_142_0)">
<path d="M68.5879 210.71L428.505 -149.207M79.9014 222.024L439.819 -137.893M91.2148 233.338L451.132 -126.58M125.156 267.279L485.074 -92.6385M147.783 289.906L507.701 -70.0112M136.47 278.593L496.387 -81.3248M159.098 301.22L519.015 -58.6974M113.843 255.965L473.76 -103.952M102.529 244.651L462.447 -115.266M170.411 312.534L530.328 -47.3837M181.725 323.847L541.642 -36.07M193.038 335.161L552.955 -24.7563M226.979 369.102L586.897 9.18481M249.607 391.73L609.525 31.8122M238.293 380.416L598.21 20.4985M260.921 403.043L620.838 43.1259M215.666 357.788L575.583 -2.12891M204.353 346.475L564.27 -13.4426" stroke="#2D9CDB" stroke-width="2"/>
</g>
<path d="M274.795 32.5H425.795M274.795 32.5L350.295 76.1667L425.795 32.5M274.795 32.5L199.295 108.167L274.795 183.833M425.795 32.5L501.295 108.167L425.795 183.833M425.795 183.833L350.295 227.5L274.795 183.833M425.795 183.833H274.795" stroke="#B3BFD8" stroke-width="2"/>
<circle cx="200.295" cy="108.5" r="5" fill="black" stroke="#D9EBFF" stroke-width="2"/>
<circle cx="275.295" cy="32.5" r="5" fill="black" stroke="#D9EBFF" stroke-width="2"/>
<circle cx="425.295" cy="32.5" r="5" fill="black" stroke="#D9EBFF" stroke-width="2"/>
<circle cx="350.295" cy="76.5" r="5" fill="black" stroke="#D9EBFF" stroke-width="2"/>
<circle cx="350.295" cy="227.5" r="5" fill="black" stroke="#D9EBFF" stroke-width="2"/>
<circle cx="426.295" cy="183.5" r="5" fill="black" stroke="#D9EBFF" stroke-width="2"/>
<circle cx="274.295" cy="183.5" r="5" fill="black" stroke="#D9EBFF" stroke-width="2"/>
<circle cx="501.295" cy="108.5" r="5" fill="black" stroke="#D9EBFF" stroke-width="2"/>
<path d="M169.295 105.741C169.309 105.657 169.33 105.546 169.358 105.407C169.385 105.267 169.469 105.002 169.608 104.612C169.748 104.222 169.887 103.895 170.027 103.63C170.166 103.365 170.396 103.107 170.716 102.856C171.037 102.606 171.357 102.487 171.678 102.501C172.179 102.501 172.597 102.627 172.932 102.877C173.266 103.128 173.475 103.365 173.559 103.588C173.643 103.811 173.684 103.957 173.684 104.027C173.684 104.055 173.691 104.069 173.705 104.069L173.935 103.839C174.785 102.947 175.754 102.501 176.841 102.501C177.593 102.501 178.199 102.689 178.659 103.065C179.119 103.442 179.356 103.992 179.37 104.717C179.384 105.441 179.119 106.535 178.576 107.998C178.032 109.462 177.767 110.346 177.781 110.653C177.781 111.015 177.9 111.196 178.137 111.196C178.22 111.196 178.283 111.189 178.325 111.176C178.729 111.106 179.091 110.841 179.412 110.381C179.732 109.921 179.976 109.364 180.143 108.709C180.171 108.598 180.31 108.542 180.561 108.542C180.84 108.542 180.979 108.598 180.979 108.709C180.979 108.723 180.951 108.828 180.896 109.023C180.784 109.427 180.631 109.824 180.436 110.214C180.241 110.604 179.92 110.994 179.474 111.385C179.028 111.775 178.548 111.963 178.032 111.949C177.377 111.949 176.903 111.761 176.611 111.385C176.318 111.008 176.172 110.618 176.172 110.214C176.172 109.949 176.423 109.113 176.924 107.706C177.426 106.298 177.684 105.239 177.698 104.529C177.698 103.706 177.391 103.295 176.778 103.295H176.673C175.475 103.295 174.465 103.999 173.643 105.407L173.496 105.657L172.807 108.458C172.347 110.284 172.082 111.266 172.012 111.405C171.831 111.782 171.531 111.97 171.113 111.97C170.932 111.97 170.786 111.928 170.674 111.844C170.563 111.761 170.486 111.677 170.445 111.594C170.403 111.51 170.389 111.44 170.403 111.385C170.403 111.203 170.668 110.068 171.197 107.977C171.727 105.887 172.005 104.752 172.033 104.57C172.047 104.501 172.054 104.341 172.054 104.09C172.054 103.546 171.887 103.274 171.552 103.274C171.023 103.274 170.584 103.971 170.236 105.365C170.152 105.643 170.11 105.79 170.11 105.804C170.082 105.887 169.95 105.929 169.713 105.929H169.42C169.337 105.845 169.295 105.783 169.295 105.741Z" fill="#D9EBFF"/>
<path d="M182.821 106.243C183.373 105.445 184.126 105.046 185.082 105.046C185.555 105.046 186.028 105.174 186.501 105.43C186.974 105.686 187.358 106.139 187.653 106.789C188.018 107.607 188.2 108.73 188.2 110.159C188.2 111.686 187.988 112.853 187.565 113.661C187.368 114.075 187.097 114.405 186.752 114.651C186.407 114.897 186.107 115.05 185.851 115.109C185.594 115.168 185.343 115.203 185.097 115.213C184.841 115.213 184.585 115.183 184.328 115.124C184.072 115.065 183.772 114.907 183.427 114.651C183.082 114.395 182.811 114.065 182.614 113.661C182.191 112.853 181.979 111.686 181.979 110.159C181.979 108.444 182.26 107.139 182.821 106.243ZM186.146 106.065C185.851 105.75 185.501 105.592 185.097 105.592C184.683 105.592 184.328 105.75 184.033 106.065C183.787 106.321 183.624 106.676 183.545 107.129C183.466 107.582 183.427 108.528 183.427 109.967C183.427 111.523 183.466 112.548 183.545 113.04C183.624 113.533 183.801 113.922 184.077 114.208C184.353 114.503 184.693 114.651 185.097 114.651C185.491 114.651 185.826 114.503 186.102 114.208C186.388 113.912 186.565 113.498 186.634 112.966C186.703 112.434 186.742 111.434 186.752 109.967C186.752 108.538 186.713 107.597 186.634 107.144C186.555 106.691 186.392 106.331 186.146 106.065Z" fill="#D9EBFF"/>
<path d="M261.295 194.741C261.309 194.657 261.33 194.546 261.358 194.407C261.385 194.267 261.469 194.002 261.608 193.612C261.748 193.222 261.887 192.895 262.027 192.63C262.166 192.365 262.396 192.107 262.716 191.856C263.037 191.606 263.357 191.487 263.678 191.501C264.179 191.501 264.597 191.627 264.932 191.877C265.266 192.128 265.475 192.365 265.559 192.588C265.643 192.811 265.684 192.957 265.684 193.027C265.684 193.055 265.691 193.069 265.705 193.069L265.935 192.839C266.785 191.947 267.754 191.501 268.841 191.501C269.593 191.501 270.199 191.689 270.659 192.065C271.119 192.442 271.356 192.992 271.37 193.717C271.384 194.441 271.119 195.535 270.576 196.998C270.032 198.462 269.767 199.346 269.781 199.653C269.781 200.015 269.9 200.196 270.137 200.196C270.22 200.196 270.283 200.189 270.325 200.176C270.729 200.106 271.091 199.841 271.412 199.381C271.732 198.921 271.976 198.364 272.143 197.709C272.171 197.598 272.31 197.542 272.561 197.542C272.84 197.542 272.979 197.598 272.979 197.709C272.979 197.723 272.951 197.828 272.896 198.023C272.784 198.427 272.631 198.824 272.436 199.214C272.241 199.604 271.92 199.994 271.474 200.385C271.028 200.775 270.548 200.963 270.032 200.949C269.377 200.949 268.903 200.761 268.611 200.385C268.318 200.008 268.172 199.618 268.172 199.214C268.172 198.949 268.423 198.113 268.924 196.706C269.426 195.298 269.684 194.239 269.698 193.529C269.698 192.706 269.391 192.295 268.778 192.295H268.673C267.475 192.295 266.465 192.999 265.643 194.407L265.496 194.657L264.807 197.458C264.347 199.284 264.082 200.266 264.012 200.405C263.831 200.782 263.531 200.97 263.113 200.97C262.932 200.97 262.786 200.928 262.674 200.844C262.563 200.761 262.486 200.677 262.445 200.594C262.403 200.51 262.389 200.44 262.403 200.385C262.403 200.203 262.668 199.068 263.197 196.977C263.727 194.887 264.005 193.752 264.033 193.57C264.047 193.501 264.054 193.341 264.054 193.09C264.054 192.546 263.887 192.274 263.552 192.274C263.023 192.274 262.584 192.971 262.236 194.365C262.152 194.643 262.11 194.79 262.11 194.804C262.082 194.887 261.95 194.929 261.713 194.929H261.42C261.337 194.845 261.295 194.783 261.295 194.741Z" fill="#D9EBFF"/>
<path d="M276.55 195.346L276.358 195.42C276.22 195.469 276.023 195.518 275.767 195.568C275.511 195.617 275.225 195.651 274.91 195.671H274.629V194.991H274.91C275.373 194.972 275.801 194.898 276.195 194.77C276.59 194.642 276.865 194.523 277.023 194.415C277.181 194.307 277.319 194.198 277.437 194.09C277.457 194.06 277.516 194.046 277.614 194.046C277.703 194.046 277.787 194.075 277.865 194.134V198.553L277.88 202.986C277.949 203.055 278.008 203.099 278.057 203.119C278.107 203.139 278.225 203.159 278.412 203.178C278.599 203.198 278.905 203.208 279.328 203.208H279.713V203.888H279.55C279.343 203.858 278.56 203.843 277.2 203.843C275.86 203.843 275.087 203.858 274.88 203.888H274.703V203.208H275.087C275.304 203.208 275.491 203.208 275.649 203.208C275.806 203.208 275.929 203.203 276.018 203.193C276.107 203.183 276.186 203.168 276.255 203.149C276.324 203.129 276.363 203.119 276.373 203.119C276.383 203.119 276.412 203.095 276.461 203.045C276.511 202.996 276.54 202.976 276.55 202.986V195.346Z" fill="#D9EBFF"/>
<path d="M341.295 239.741C341.309 239.657 341.33 239.546 341.358 239.407C341.385 239.267 341.469 239.002 341.608 238.612C341.748 238.222 341.887 237.895 342.027 237.63C342.166 237.365 342.396 237.107 342.716 236.856C343.037 236.606 343.357 236.487 343.678 236.501C344.179 236.501 344.597 236.627 344.932 236.877C345.266 237.128 345.475 237.365 345.559 237.588C345.643 237.811 345.684 237.957 345.684 238.027C345.684 238.055 345.691 238.069 345.705 238.069L345.935 237.839C346.785 236.947 347.754 236.501 348.841 236.501C349.593 236.501 350.199 236.689 350.659 237.065C351.119 237.442 351.356 237.992 351.37 238.717C351.384 239.441 351.119 240.535 350.576 241.998C350.032 243.462 349.767 244.346 349.781 244.653C349.781 245.015 349.9 245.196 350.137 245.196C350.22 245.196 350.283 245.189 350.325 245.176C350.729 245.106 351.091 244.841 351.412 244.381C351.732 243.921 351.976 243.364 352.143 242.709C352.171 242.598 352.31 242.542 352.561 242.542C352.84 242.542 352.979 242.598 352.979 242.709C352.979 242.723 352.951 242.828 352.896 243.023C352.784 243.427 352.631 243.824 352.436 244.214C352.241 244.604 351.92 244.994 351.474 245.385C351.028 245.775 350.548 245.963 350.032 245.949C349.377 245.949 348.903 245.761 348.611 245.385C348.318 245.008 348.172 244.618 348.172 244.214C348.172 243.949 348.423 243.113 348.924 241.706C349.426 240.298 349.684 239.239 349.698 238.529C349.698 237.706 349.391 237.295 348.778 237.295H348.673C347.475 237.295 346.465 237.999 345.643 239.407L345.496 239.657L344.807 242.458C344.347 244.284 344.082 245.266 344.012 245.405C343.831 245.782 343.531 245.97 343.113 245.97C342.932 245.97 342.786 245.928 342.674 245.844C342.563 245.761 342.486 245.677 342.445 245.594C342.403 245.51 342.389 245.44 342.403 245.385C342.403 245.203 342.668 244.068 343.197 241.977C343.727 239.887 344.005 238.752 344.033 238.57C344.047 238.501 344.054 238.341 344.054 238.09C344.054 237.546 343.887 237.274 343.552 237.274C343.023 237.274 342.584 237.971 342.236 239.365C342.152 239.643 342.11 239.79 342.11 239.804C342.082 239.887 341.95 239.929 341.713 239.929H341.42C341.337 239.845 341.295 239.783 341.295 239.741Z" fill="#D9EBFF"/>
<path d="M355.013 242.548C354.747 242.548 354.535 242.459 354.378 242.282C354.22 242.105 354.141 241.888 354.141 241.632C354.141 240.932 354.402 240.326 354.925 239.814C355.447 239.302 356.097 239.046 356.875 239.046C357.772 239.046 358.521 239.321 359.121 239.873C359.722 240.425 360.028 241.139 360.038 242.016C360.038 242.44 359.939 242.843 359.742 243.228C359.545 243.612 359.309 243.947 359.033 244.233C358.757 244.518 358.363 244.883 357.851 245.326C357.496 245.632 357.003 246.085 356.373 246.686L355.501 247.513L356.624 247.528C358.171 247.528 358.993 247.503 359.092 247.454C359.161 247.434 359.279 246.996 359.447 246.139V246.095H360.038V246.139C360.028 246.168 359.964 246.617 359.846 247.484C359.727 248.351 359.653 248.804 359.624 248.843V248.888H354.141V248.429C354.141 248.361 354.171 248.287 354.23 248.208C354.289 248.129 354.437 247.957 354.673 247.691C354.959 247.375 355.205 247.099 355.412 246.863C355.501 246.765 355.668 246.582 355.915 246.316C356.161 246.05 356.328 245.868 356.417 245.769C356.506 245.671 356.649 245.508 356.846 245.282C357.043 245.055 357.181 244.888 357.259 244.779C357.338 244.671 357.452 244.523 357.599 244.336C357.747 244.149 357.851 243.991 357.91 243.863C357.969 243.735 358.043 243.592 358.131 243.435C358.22 243.277 358.284 243.119 358.323 242.962C358.363 242.804 358.397 242.656 358.427 242.518C358.456 242.38 358.471 242.218 358.471 242.031C358.471 241.41 358.304 240.873 357.969 240.42C357.634 239.967 357.156 239.74 356.535 239.74C356.21 239.74 355.925 239.824 355.678 239.991C355.432 240.159 355.26 240.321 355.161 240.479C355.062 240.637 355.013 240.73 355.013 240.76C355.013 240.77 355.038 240.775 355.087 240.775C355.264 240.775 355.447 240.843 355.634 240.981C355.821 241.119 355.915 241.346 355.915 241.661C355.915 241.908 355.836 242.114 355.678 242.282C355.521 242.449 355.299 242.538 355.013 242.548Z" fill="#D9EBFF"/>
<path d="M420.295 195.741C420.309 195.657 420.33 195.546 420.358 195.407C420.385 195.267 420.469 195.002 420.608 194.612C420.748 194.222 420.887 193.895 421.027 193.63C421.166 193.365 421.396 193.107 421.716 192.856C422.037 192.606 422.357 192.487 422.678 192.501C423.179 192.501 423.597 192.627 423.932 192.877C424.266 193.128 424.475 193.365 424.559 193.588C424.643 193.811 424.684 193.957 424.684 194.027C424.684 194.055 424.691 194.069 424.705 194.069L424.935 193.839C425.785 192.947 426.754 192.501 427.841 192.501C428.593 192.501 429.199 192.689 429.659 193.065C430.119 193.442 430.356 193.992 430.37 194.717C430.384 195.441 430.119 196.535 429.576 197.998C429.032 199.462 428.767 200.346 428.781 200.653C428.781 201.015 428.9 201.196 429.137 201.196C429.22 201.196 429.283 201.189 429.325 201.176C429.729 201.106 430.091 200.841 430.412 200.381C430.732 199.921 430.976 199.364 431.143 198.709C431.171 198.598 431.31 198.542 431.561 198.542C431.84 198.542 431.979 198.598 431.979 198.709C431.979 198.723 431.951 198.828 431.896 199.023C431.784 199.427 431.631 199.824 431.436 200.214C431.241 200.604 430.92 200.994 430.474 201.385C430.028 201.775 429.548 201.963 429.032 201.949C428.377 201.949 427.903 201.761 427.611 201.385C427.318 201.008 427.172 200.618 427.172 200.214C427.172 199.949 427.423 199.113 427.924 197.706C428.426 196.298 428.684 195.239 428.698 194.529C428.698 193.706 428.391 193.295 427.778 193.295H427.673C426.475 193.295 425.465 193.999 424.643 195.407L424.496 195.657L423.807 198.458C423.347 200.284 423.082 201.266 423.012 201.405C422.831 201.782 422.531 201.97 422.113 201.97C421.932 201.97 421.786 201.928 421.674 201.844C421.563 201.761 421.486 201.677 421.445 201.594C421.403 201.51 421.389 201.44 421.403 201.385C421.403 201.203 421.668 200.068 422.197 197.977C422.727 195.887 423.005 194.752 423.033 194.57C423.047 194.501 423.054 194.341 423.054 194.09C423.054 193.546 422.887 193.274 422.552 193.274C422.023 193.274 421.584 193.971 421.236 195.365C421.152 195.643 421.11 195.79 421.11 195.804C421.082 195.887 420.95 195.929 420.713 195.929H420.42C420.337 195.845 420.295 195.783 420.295 195.741Z" fill="#D9EBFF"/>
<path d="M434.279 198.045C434.013 198.045 433.806 197.962 433.659 197.794C433.511 197.627 433.432 197.41 433.422 197.144C433.422 196.602 433.659 196.119 434.131 195.696C434.604 195.272 435.176 195.06 435.846 195.06C436.19 195.06 436.407 195.065 436.496 195.075C437.225 195.193 437.782 195.454 438.166 195.858C438.55 196.262 438.747 196.701 438.757 197.174C438.757 197.686 438.589 198.183 438.254 198.666C437.92 199.149 437.456 199.499 436.865 199.715L436.821 199.745C436.821 199.755 436.865 199.77 436.954 199.789C437.043 199.809 437.186 199.853 437.383 199.922C437.58 199.991 437.767 200.095 437.944 200.233C438.752 200.755 439.156 201.444 439.156 202.301C439.156 203.08 438.851 203.76 438.24 204.341C437.629 204.922 436.856 205.213 435.92 205.213C435.131 205.213 434.452 205.001 433.88 204.577C433.309 204.154 433.023 203.617 433.023 202.966C433.023 202.691 433.112 202.469 433.289 202.301C433.466 202.134 433.688 202.045 433.954 202.035C434.23 202.035 434.457 202.124 434.634 202.301C434.811 202.479 434.9 202.7 434.9 202.966C434.9 203.075 434.885 203.173 434.856 203.262C434.826 203.351 434.792 203.43 434.752 203.498C434.713 203.567 434.659 203.627 434.59 203.676C434.521 203.725 434.461 203.764 434.412 203.794C434.363 203.824 434.314 203.843 434.264 203.853C434.215 203.863 434.176 203.878 434.146 203.897L434.087 203.912C434.59 204.356 435.2 204.577 435.92 204.577C436.461 204.577 436.87 204.316 437.146 203.794C437.314 203.469 437.397 202.971 437.397 202.301V202.006C437.397 201.07 437.082 200.444 436.452 200.129C436.304 200.07 436.003 200.036 435.55 200.026L434.929 200.011L434.885 199.981C434.865 199.952 434.856 199.873 434.856 199.745C434.856 199.568 434.895 199.479 434.974 199.479C435.25 199.479 435.535 199.454 435.831 199.405C436.166 199.356 436.471 199.149 436.747 198.784C437.023 198.42 437.161 197.868 437.161 197.129V197.011C437.161 196.449 436.989 196.06 436.644 195.844C436.427 195.706 436.195 195.637 435.949 195.637C435.634 195.637 435.343 195.691 435.077 195.799C434.811 195.908 434.624 196.021 434.516 196.139C434.407 196.257 434.353 196.316 434.353 196.316H434.397C434.427 196.326 434.466 196.336 434.516 196.346C434.565 196.356 434.614 196.38 434.663 196.42C434.713 196.459 434.772 196.494 434.841 196.523C434.91 196.553 434.959 196.607 434.989 196.686C435.018 196.765 435.058 196.839 435.107 196.908C435.156 196.976 435.171 197.075 435.151 197.203C435.151 197.42 435.082 197.612 434.944 197.779C434.806 197.947 434.585 198.036 434.279 198.045Z" fill="#D9EBFF"/>
<path d="M511.295 106.741C511.309 106.657 511.33 106.546 511.358 106.407C511.385 106.267 511.469 106.002 511.608 105.612C511.748 105.222 511.887 104.895 512.027 104.63C512.166 104.365 512.396 104.107 512.716 103.856C513.037 103.606 513.357 103.487 513.678 103.501C514.179 103.501 514.597 103.627 514.932 103.877C515.266 104.128 515.475 104.365 515.559 104.588C515.643 104.811 515.684 104.957 515.684 105.027C515.684 105.055 515.691 105.069 515.705 105.069L515.935 104.839C516.785 103.947 517.754 103.501 518.841 103.501C519.593 103.501 520.199 103.689 520.659 104.065C521.119 104.442 521.356 104.992 521.37 105.717C521.384 106.441 521.119 107.535 520.576 108.998C520.032 110.462 519.767 111.346 519.781 111.653C519.781 112.015 519.9 112.196 520.137 112.196C520.22 112.196 520.283 112.189 520.325 112.176C520.729 112.106 521.091 111.841 521.412 111.381C521.732 110.921 521.976 110.364 522.143 109.709C522.171 109.598 522.31 109.542 522.561 109.542C522.84 109.542 522.979 109.598 522.979 109.709C522.979 109.723 522.951 109.828 522.896 110.023C522.784 110.427 522.631 110.824 522.436 111.214C522.241 111.604 521.92 111.994 521.474 112.385C521.028 112.775 520.548 112.963 520.032 112.949C519.377 112.949 518.903 112.761 518.611 112.385C518.318 112.008 518.172 111.618 518.172 111.214C518.172 110.949 518.423 110.113 518.924 108.706C519.426 107.298 519.684 106.239 519.698 105.529C519.698 104.706 519.391 104.295 518.778 104.295H518.673C517.475 104.295 516.465 104.999 515.643 106.407L515.496 106.657L514.807 109.458C514.347 111.284 514.082 112.266 514.012 112.405C513.831 112.782 513.531 112.97 513.113 112.97C512.932 112.97 512.786 112.928 512.674 112.844C512.563 112.761 512.486 112.677 512.445 112.594C512.403 112.51 512.389 112.44 512.403 112.385C512.403 112.203 512.668 111.068 513.197 108.977C513.727 106.887 514.005 105.752 514.033 105.57C514.047 105.501 514.054 105.341 514.054 105.09C514.054 104.546 513.887 104.274 513.552 104.274C513.023 104.274 512.584 104.971 512.236 106.365C512.152 106.643 512.11 106.79 512.11 106.804C512.082 106.887 511.95 106.929 511.713 106.929H511.42C511.337 106.845 511.295 106.783 511.295 106.741Z" fill="#D9EBFF"/>
<path d="M530.23 115.888C530.052 115.858 529.417 115.843 528.323 115.843C527.181 115.843 526.521 115.858 526.343 115.888H526.21V115.208H526.668C526.865 115.208 526.998 115.208 527.067 115.208C527.136 115.208 527.22 115.198 527.319 115.178C527.417 115.159 527.486 115.134 527.525 115.104C527.565 115.075 527.599 115.035 527.629 114.986C527.639 114.966 527.644 114.7 527.644 114.188V113.449H523.816V112.769L526.048 109.356C527.555 107.07 528.319 105.922 528.338 105.913C528.358 105.893 528.461 105.883 528.649 105.883H528.915L529.003 105.972V112.769H530.363V113.449H529.003V114.203C529.003 114.607 529.003 114.843 529.003 114.912C529.003 114.981 529.033 115.04 529.092 115.09C529.171 115.159 529.452 115.198 529.934 115.208H530.363V115.888H530.23ZM527.732 112.769V107.834L524.496 112.755L526.107 112.769H527.732Z" fill="#D9EBFF"/>
<path d="M419.295 17.741C419.309 17.6573 419.33 17.5459 419.358 17.4065C419.385 17.2672 419.469 17.0024 419.608 16.6122C419.748 16.2221 419.887 15.8946 420.027 15.6298C420.166 15.3651 420.396 15.1073 420.716 14.8564C421.037 14.6056 421.357 14.4872 421.678 14.5011C422.179 14.5011 422.597 14.6265 422.932 14.8773C423.266 15.1282 423.475 15.3651 423.559 15.588C423.643 15.811 423.684 15.9573 423.684 16.027C423.684 16.0548 423.691 16.0688 423.705 16.0688L423.935 15.8388C424.785 14.947 425.754 14.5011 426.841 14.5011C427.593 14.5011 428.199 14.6892 428.659 15.0655C429.119 15.4417 429.356 15.9921 429.37 16.7167C429.384 17.4414 429.119 18.5352 428.576 19.9984C428.032 21.4616 427.767 22.3464 427.781 22.653C427.781 23.0153 427.9 23.1964 428.137 23.1964C428.22 23.1964 428.283 23.1895 428.325 23.1755C428.729 23.1059 429.091 22.8411 429.412 22.3813C429.732 21.9214 429.976 21.364 430.143 20.7091C430.171 20.5976 430.31 20.5419 430.561 20.5419C430.84 20.5419 430.979 20.5976 430.979 20.7091C430.979 20.723 430.951 20.8275 430.896 21.0226C430.784 21.4267 430.631 21.8239 430.436 22.214C430.241 22.6042 429.92 22.9944 429.474 23.3846C429.028 23.7747 428.548 23.9629 428.032 23.9489C427.377 23.9489 426.903 23.7608 426.611 23.3846C426.318 23.0083 426.172 22.6182 426.172 22.214C426.172 21.9493 426.423 21.1132 426.924 19.7058C427.426 18.2983 427.684 17.2393 427.698 16.5286C427.698 15.7065 427.391 15.2954 426.778 15.2954H426.673C425.475 15.2954 424.465 15.9991 423.643 17.4065L423.496 17.6573L422.807 20.4583C422.347 22.2837 422.082 23.2661 422.012 23.4055C421.831 23.7817 421.531 23.9698 421.113 23.9698C420.932 23.9698 420.786 23.928 420.674 23.8444C420.563 23.7608 420.486 23.6772 420.445 23.5936C420.403 23.51 420.389 23.4403 420.403 23.3846C420.403 23.2034 420.668 22.0677 421.197 19.9775C421.727 17.8873 422.005 16.7516 422.033 16.5704C422.047 16.5008 422.054 16.3405 422.054 16.0897C422.054 15.5462 421.887 15.2745 421.552 15.2745C421.023 15.2745 420.584 15.9712 420.236 17.3647C420.152 17.6434 420.11 17.7897 420.11 17.8037C420.082 17.8873 419.95 17.9291 419.713 17.9291H419.42C419.337 17.8455 419.295 17.7828 419.295 17.741Z" fill="#D9EBFF"/>
<path d="M433.826 24.5675C433.826 24.8039 433.747 25.001 433.59 25.1586C433.432 25.3162 433.24 25.395 433.013 25.395H432.91C433.363 26.1733 433.964 26.5625 434.713 26.5625C435.402 26.5625 435.905 26.2669 436.22 25.6758C436.407 25.3507 436.501 24.7202 436.501 23.7842C436.501 22.7695 436.368 22.0848 436.102 21.7301C435.846 21.405 435.56 21.2424 435.245 21.2424H435.156C434.388 21.2424 433.806 21.5774 433.412 22.2473C433.373 22.3163 433.338 22.3557 433.309 22.3656C433.279 22.3754 433.205 22.3853 433.087 22.3951C432.92 22.3951 432.826 22.3656 432.806 22.3065C432.787 22.267 432.777 21.405 432.777 19.7203V17.814C432.777 17.3214 432.801 17.0751 432.851 17.0751C432.87 17.0554 432.89 17.0455 432.91 17.0455C432.92 17.0455 433.023 17.0849 433.22 17.1637C433.417 17.2426 433.688 17.3214 434.033 17.4002C434.378 17.479 434.747 17.5184 435.141 17.5184C435.841 17.5184 436.511 17.3805 437.151 17.1046C437.23 17.0652 437.294 17.0455 437.343 17.0455C437.422 17.0455 437.461 17.1342 437.461 17.3115V17.5036C436.654 18.4593 435.644 18.9371 434.432 18.9371C434.126 18.9371 433.851 18.9075 433.604 18.8484L433.457 18.8189V21.3607C433.644 21.2227 433.792 21.1144 433.9 21.0356C434.008 20.9567 434.186 20.8779 434.432 20.7991C434.678 20.7203 434.929 20.6809 435.186 20.6809C435.984 20.6809 436.658 21.0011 437.21 21.6414C437.762 22.2818 438.038 23.0404 438.038 23.9172C438.038 24.8236 437.722 25.597 437.092 26.2374C436.461 26.8778 435.693 27.2029 434.787 27.2127C433.989 27.2127 433.348 26.9467 432.865 26.4147C432.383 25.8827 432.141 25.2817 432.141 24.6118C432.141 24.3754 432.195 24.1882 432.304 24.0502C432.412 23.9123 432.526 23.8237 432.644 23.7842C432.762 23.7448 432.875 23.7251 432.984 23.7251C433.23 23.7251 433.432 23.8089 433.59 23.9764C433.747 24.1438 433.826 24.3409 433.826 24.5675Z" fill="#D9EBFF"/>
<path d="M265.295 14.741C265.309 14.6573 265.33 14.5459 265.358 14.4065C265.386 14.2672 265.469 14.0024 265.608 13.6122C265.748 13.2221 265.887 12.8946 266.027 12.6298C266.166 12.3651 266.396 12.1073 266.716 11.8564C267.037 11.6056 267.357 11.4872 267.678 11.5011C268.179 11.5011 268.597 11.6265 268.932 11.8773C269.266 12.1282 269.475 12.3651 269.559 12.588C269.643 12.811 269.684 12.9573 269.684 13.027C269.684 13.0548 269.691 13.0688 269.705 13.0688L269.935 12.8388C270.785 11.947 271.754 11.5011 272.841 11.5011C273.593 11.5011 274.199 11.6892 274.659 12.0655C275.119 12.4417 275.356 12.9921 275.37 13.7167C275.384 14.4414 275.119 15.5352 274.576 16.9984C274.032 18.4616 273.767 19.3464 273.781 19.653C273.781 20.0153 273.9 20.1964 274.137 20.1964C274.22 20.1964 274.283 20.1895 274.325 20.1755C274.729 20.1059 275.091 19.8411 275.412 19.3813C275.732 18.9214 275.976 18.364 276.143 17.7091C276.171 17.5976 276.31 17.5419 276.561 17.5419C276.84 17.5419 276.979 17.5976 276.979 17.7091C276.979 17.723 276.951 17.8275 276.896 18.0226C276.784 18.4267 276.631 18.8239 276.436 19.214C276.241 19.6042 275.92 19.9944 275.474 20.3846C275.028 20.7747 274.548 20.9629 274.032 20.9489C273.377 20.9489 272.903 20.7608 272.611 20.3846C272.318 20.0083 272.172 19.6182 272.172 19.214C272.172 18.9493 272.423 18.1132 272.924 16.7058C273.426 15.2983 273.684 14.2393 273.698 13.5286C273.698 12.7065 273.391 12.2954 272.778 12.2954H272.673C271.475 12.2954 270.465 12.9991 269.643 14.4065L269.496 14.6573L268.807 17.4583C268.347 19.2837 268.082 20.2661 268.012 20.4055C267.831 20.7817 267.531 20.9698 267.113 20.9698C266.932 20.9698 266.786 20.928 266.674 20.8444C266.563 20.7608 266.486 20.6772 266.445 20.5936C266.403 20.51 266.389 20.4403 266.403 20.3846C266.403 20.2034 266.668 19.0677 267.197 16.9775C267.727 14.8873 268.005 13.7516 268.033 13.5704C268.047 13.5008 268.054 13.3405 268.054 13.0897C268.054 12.5462 267.887 12.2745 267.552 12.2745C267.023 12.2745 266.584 12.9712 266.236 14.3647C266.152 14.6434 266.11 14.7897 266.11 14.8037C266.082 14.8873 265.95 14.9291 265.713 14.9291H265.42C265.337 14.8455 265.295 14.7828 265.295 14.741Z" fill="#D9EBFF"/>
<path d="M278.215 17.1193C278.225 17.0996 278.309 16.5627 278.466 15.5085L278.703 13.9273C278.703 13.9076 278.801 13.8977 278.998 13.8977H279.294V13.9568C279.294 14.0554 279.368 14.1391 279.516 14.2081C279.663 14.277 279.92 14.3214 280.284 14.3411C280.649 14.3608 281.481 14.3706 282.782 14.3706H284.57V14.947L283.565 16.3213C283.476 16.4395 283.328 16.6366 283.121 16.9124C282.915 17.1883 282.782 17.3705 282.722 17.4592C282.663 17.5479 282.56 17.7055 282.412 17.9321C282.264 18.1587 282.166 18.336 282.117 18.4641C282.067 18.5922 281.998 18.7744 281.91 19.0109C281.821 19.2473 281.757 19.4739 281.718 19.6907C281.678 19.9074 281.639 20.1734 281.599 20.4887C281.56 20.8039 281.53 21.1389 281.511 21.4936C281.491 21.8483 281.476 22.2522 281.466 22.7054C281.466 22.8433 281.466 22.9812 281.466 23.1192C281.466 23.2571 281.461 23.3753 281.452 23.4738V23.6068C281.412 23.7743 281.319 23.9172 281.171 24.0354C281.023 24.1536 280.856 24.2127 280.668 24.2127C280.56 24.2127 280.457 24.1979 280.358 24.1684C280.259 24.1388 280.156 24.0452 280.048 23.8876C279.939 23.73 279.885 23.5329 279.885 23.2965C279.885 21.7399 280.363 20.1242 281.319 18.4493C281.516 18.1341 281.929 17.538 282.56 16.6612L283.24 15.7302H281.865C280.151 15.7302 279.25 15.7598 279.161 15.8189C279.102 15.8484 279.048 15.9666 278.998 16.1735C278.949 16.3804 278.9 16.5922 278.851 16.809L278.806 17.1193V17.1637H278.215V17.1193Z" fill="#D9EBFF"/>
<path d="M341.295 57.741C341.309 57.6573 341.33 57.5459 341.358 57.4065C341.386 57.2672 341.469 57.0024 341.608 56.6122C341.748 56.2221 341.887 55.8946 342.027 55.6298C342.166 55.3651 342.396 55.1073 342.716 54.8564C343.037 54.6056 343.357 54.4872 343.678 54.5011C344.179 54.5011 344.597 54.6265 344.932 54.8773C345.266 55.1282 345.475 55.3651 345.559 55.588C345.643 55.811 345.684 55.9573 345.684 56.027C345.684 56.0548 345.691 56.0688 345.705 56.0688L345.935 55.8388C346.785 54.947 347.754 54.5011 348.841 54.5011C349.593 54.5011 350.199 54.6892 350.659 55.0655C351.119 55.4417 351.356 55.9921 351.37 56.7167C351.384 57.4414 351.119 58.5352 350.576 59.9984C350.032 61.4616 349.767 62.3464 349.781 62.653C349.781 63.0153 349.9 63.1964 350.137 63.1964C350.22 63.1964 350.283 63.1895 350.325 63.1755C350.729 63.1059 351.091 62.8411 351.412 62.3813C351.732 61.9214 351.976 61.364 352.143 60.7091C352.171 60.5976 352.31 60.5419 352.561 60.5419C352.84 60.5419 352.979 60.5976 352.979 60.7091C352.979 60.723 352.951 60.8275 352.896 61.0226C352.784 61.4267 352.631 61.8239 352.436 62.214C352.241 62.6042 351.92 62.9944 351.474 63.3846C351.028 63.7747 350.548 63.9629 350.032 63.9489C349.377 63.9489 348.903 63.7608 348.611 63.3846C348.318 63.0083 348.172 62.6182 348.172 62.214C348.172 61.9493 348.423 61.1132 348.924 59.7058C349.426 58.2983 349.684 57.2393 349.698 56.5286C349.698 55.7065 349.391 55.2954 348.778 55.2954H348.673C347.475 55.2954 346.465 55.9991 345.643 57.4065L345.496 57.6573L344.807 60.4583C344.347 62.2837 344.082 63.2661 344.012 63.4055C343.831 63.7817 343.531 63.9698 343.113 63.9698C342.932 63.9698 342.786 63.928 342.674 63.8444C342.563 63.7608 342.486 63.6772 342.445 63.5936C342.403 63.51 342.389 63.4403 342.403 63.3846C342.403 63.2034 342.668 62.0677 343.197 59.9775C343.727 57.8873 344.005 56.7516 344.033 56.5704C344.047 56.5008 344.054 56.3405 344.054 56.0897C344.054 55.5462 343.887 55.2745 343.552 55.2745C343.023 55.2745 342.584 55.9712 342.236 57.3647C342.152 57.6434 342.11 57.7897 342.11 57.8037C342.082 57.8873 341.95 57.9291 341.713 57.9291H341.42C341.337 57.8455 341.295 57.7828 341.295 57.741Z" fill="#D9EBFF"/>
<path d="M354.023 62.2621C354.023 60.6563 354.422 59.3853 355.22 58.4494C356.018 57.5135 356.905 57.0455 357.88 57.0455C358.56 57.0455 359.048 57.2228 359.343 57.5775C359.639 57.9322 359.786 58.3263 359.786 58.7598C359.786 59.006 359.718 59.2031 359.58 59.3509C359.442 59.4986 359.25 59.5725 359.003 59.5725C358.777 59.5725 358.589 59.5036 358.442 59.3656C358.294 59.2277 358.22 59.0356 358.22 58.7893C358.22 58.3558 358.452 58.0947 358.915 58.0061C358.698 57.7893 358.392 57.6662 357.998 57.6366C357.299 57.6366 356.723 57.9322 356.269 58.5233C355.806 59.1735 355.575 60.1686 355.575 61.5084L355.59 61.5676C355.639 61.5084 355.678 61.4444 355.708 61.3754C356.112 60.7843 356.639 60.4888 357.289 60.4888H357.348C357.801 60.4888 358.2 60.5824 358.545 60.7695C358.782 60.9075 359.018 61.1045 359.254 61.3607C359.491 61.6168 359.683 61.8976 359.831 62.203C360.038 62.6858 360.141 63.2128 360.141 63.7842V64.0502C360.141 64.2768 360.117 64.4887 360.067 64.6857C359.959 65.267 359.644 65.8334 359.121 66.3852C358.599 66.9369 357.939 67.2127 357.141 67.2127C356.865 67.2127 356.599 67.1733 356.343 67.0945C356.087 67.0157 355.811 66.8679 355.516 66.6512C355.22 66.4344 354.969 66.1438 354.762 65.7793C354.555 65.4147 354.378 64.9369 354.23 64.3458C354.082 63.7547 354.013 63.0601 354.023 62.2621ZM357.2 61.0208C356.905 61.0208 356.649 61.1045 356.432 61.272C356.215 61.4395 356.048 61.6611 355.929 61.937C355.811 62.2129 355.727 62.4936 355.678 62.7793C355.629 63.0651 355.599 63.3705 355.59 63.6956C355.59 64.5133 355.649 65.0995 355.767 65.4541C355.885 65.8088 356.072 66.0945 356.328 66.3113C356.565 66.4886 356.826 66.5773 357.112 66.5773C357.614 66.5773 357.998 66.3901 358.264 66.0157C358.392 65.8384 358.481 65.6167 358.53 65.3507C358.58 65.0847 358.604 64.5675 358.604 63.799C358.604 63.0109 358.58 62.4838 358.53 62.2178C358.481 61.9518 358.392 61.7301 358.264 61.5528C357.998 61.1981 357.644 61.0208 357.2 61.0208Z" fill="#D9EBFF"/>
<path d="M469.295 149.911C469.295 157.455 463.436 163.5 456.295 163.5C449.154 163.5 443.295 157.455 443.295 149.911C443.295 146.559 445.369 142.71 448.235 138.941C450.805 135.561 453.878 132.41 456.286 129.942C456.289 129.939 456.292 129.936 456.295 129.933C456.298 129.936 456.301 129.939 456.304 129.942C458.712 132.41 461.785 135.561 464.355 138.941C467.221 142.71 469.295 146.559 469.295 149.911Z" fill="#0A0D12" stroke="#D9EBFF" stroke-width="2"/>
<line x1="449.295" y1="150.5" x2="463.295" y2="150.5" stroke="#D9EBFF" stroke-width="2"/>
<line x1="456.295" y1="143.5" x2="456.295" y2="157.5" stroke="#D9EBFF" stroke-width="2"/>
</svg>
