<svg width="701" height="287" viewBox="0 0 701 287" fill="none" xmlns="http://www.w3.org/2000/svg">
<rect width="700" height="286" transform="translate(0.294922 0.5)" fill="#0A0D12"/>
<mask id="path-1-inside-1_142_33" fill="white">
<path d="M349.89 17.5L385.289 78.8125L420.688 140.125L456.086 201.438L491.485 262.75H396.795H349.89H301.795H208.295L243.694 201.438L279.092 140.125L314.491 78.8125L349.89 17.5Z"/>
</mask>
<path d="M349.89 17.5L350.872 17.3122C350.782 16.8417 350.371 16.5011 349.892 16.5C349.413 16.4989 349.001 16.8375 348.909 17.3076L349.89 17.5ZM420.688 139.125H279.092V141.125H420.688V139.125ZM314.491 79.8125H385.289V77.8125H314.491V79.8125ZM456.086 200.438H243.694V202.438H456.086V200.438ZM397.777 262.562L350.872 17.3122L348.908 17.6878L395.813 262.938L397.777 262.562ZM302.776 262.942L350.871 17.6924L348.909 17.3076L300.814 262.558L302.776 262.942ZM349.89 17.5L351.622 16.5C351.265 15.8812 350.605 15.5 349.89 15.5C349.176 15.5 348.515 15.8812 348.158 16.5L349.89 17.5ZM491.485 262.75V264.75H494.949L493.217 261.75L491.485 262.75ZM208.295 262.75L206.563 261.75L204.831 264.75H208.295V262.75ZM280.825 141.125L316.223 79.8125L312.759 77.8125L277.36 139.125L280.825 141.125ZM316.223 79.8125L351.622 18.5L348.158 16.5L312.759 77.8125L316.223 79.8125ZM348.158 18.5L383.557 79.8125L387.021 77.8125L351.622 16.5L348.158 18.5ZM383.557 79.8125L418.956 141.125L422.42 139.125L387.021 77.8125L383.557 79.8125ZM418.956 141.125L454.354 202.438L457.818 200.437L422.42 139.125L418.956 141.125ZM454.354 202.438L489.753 263.75L493.217 261.75L457.818 200.437L454.354 202.438ZM210.027 263.75L245.426 202.438L241.962 200.437L206.563 261.75L210.027 263.75ZM245.426 202.438L280.825 141.125L277.36 139.125L241.962 200.437L245.426 202.438ZM491.485 260.75H396.795V264.75H491.485V260.75ZM396.795 260.75H349.89V264.75H396.795V260.75ZM349.89 260.75H301.795V264.75H349.89V260.75ZM301.795 260.75H208.295V264.75H301.795V260.75Z" fill="#B3BFD8" mask="url(#path-1-inside-1_142_33)"/>
</svg>
