<svg width="701" height="256" viewBox="0 0 701 256" fill="none" xmlns="http://www.w3.org/2000/svg">
<rect width="700" height="256" transform="translate(0.294922)" fill="#0A0D12"/>
<path d="M182.295 10L175.795 21.25H180.087L182.295 10Z" fill="#0B46A7"/>
<path d="M182.295 10L182.555 9.84992C182.501 9.75714 182.402 9.7 182.295 9.7C182.188 9.7 182.089 9.75714 182.035 9.84992L182.295 10ZM208.295 55V55.3H208.815L208.555 54.8499L208.295 55ZM156.295 55L156.035 54.8499L155.775 55.3H156.295V55ZM195.295 32.5L195.555 32.3499L195.555 32.3499L195.295 32.5ZM175.795 21.25L175.535 21.0999L175.535 21.0999L175.795 21.25ZM169.555 32.6501L176.055 21.4001L175.535 21.0999L169.035 32.3499L169.555 32.6501ZM176.055 21.4001L182.555 10.1501L182.035 9.84992L175.535 21.0999L176.055 21.4001ZM182.035 10.1501L188.535 21.4001L189.055 21.0999L182.555 9.84992L182.035 10.1501ZM188.535 21.4001L195.035 32.6501L195.555 32.3499L189.055 21.0999L188.535 21.4001ZM195.035 32.6501L201.535 43.9001L202.055 43.5999L195.555 32.3499L195.035 32.6501ZM201.535 43.9001L208.035 55.1501L208.555 54.8499L202.055 43.5999L201.535 43.9001ZM156.555 55.1501L163.055 43.9001L162.535 43.5999L156.035 54.8499L156.555 55.1501ZM163.055 43.9001L169.555 32.6501L169.035 32.3499L162.535 43.5999L163.055 43.9001ZM208.295 54.7H190.908V55.3H208.295V54.7ZM190.908 54.7H182.295V55.3H190.908V54.7ZM182.295 54.7H173.464V55.3H182.295V54.7ZM173.464 54.7H156.295V55.3H173.464V54.7ZM175.795 21.55H180.087V20.95H175.795V21.55ZM180.381 21.3078L182.589 10.0578L182.001 9.94223L179.793 21.1922L180.381 21.3078ZM179.793 21.1922L177.585 32.4422L178.174 32.5578L180.381 21.3078L179.793 21.1922ZM177.879 32.2H169.295V32.8H177.879V32.2ZM177.879 32.8H186.601V32.2H177.879V32.8ZM186.896 32.4436L184.743 21.1936L184.153 21.3064L186.307 32.5564L186.896 32.4436ZM184.448 20.95H180.087V21.55H184.448V20.95ZM195.295 32.2H186.601V32.8H195.295V32.2ZM184.448 21.55H188.795V20.95H184.448V21.55ZM184.743 21.1936L182.59 9.94361L182 10.0564L184.153 21.3064L184.743 21.1936ZM186.307 32.5564L188.46 43.8064L189.049 43.6936L186.896 32.4436L186.307 32.5564ZM188.754 44.05H201.795V43.45H188.754V44.05ZM191.202 54.9436L189.049 43.6936L188.46 43.8064L190.613 55.0564L191.202 54.9436ZM188.754 43.45H175.671V44.05H188.754V43.45ZM175.966 43.8078L178.174 32.5578L177.585 32.4422L175.377 43.6922L175.966 43.8078ZM175.671 43.45H162.795V44.05H175.671V43.45ZM173.758 55.0578L175.966 43.8078L175.377 43.6922L173.169 54.9422L173.758 55.0578Z" fill="#B3BFD8"/>
<path d="M517.795 10L511.42 21.25H515.63L517.795 10Z" fill="#0B46A7"/>
<path d="M517.795 10L515.63 21.25H519.907L517.795 10Z" fill="#0B46A7"/>
<path d="M524.17 21.25L517.795 10L519.907 21.25H524.17Z" fill="#0B46A7"/>
<path d="M517.795 10L518.056 9.8521C518.003 9.7581 517.903 9.7 517.795 9.7C517.687 9.7 517.587 9.7581 517.534 9.8521L517.795 10ZM543.295 55V55.3H543.81L543.556 54.8521L543.295 55ZM492.295 55L492.034 54.8521L491.78 55.3H492.295V55ZM530.545 32.5L530.806 32.3521L530.806 32.3521L530.545 32.5ZM511.42 21.25L511.159 21.1021L511.159 21.1021L511.42 21.25ZM505.306 32.6479L511.681 21.3979L511.159 21.1021L504.784 32.3521L505.306 32.6479ZM511.681 21.3979L518.056 10.1479L517.534 9.8521L511.159 21.1021L511.681 21.3979ZM517.534 10.1479L523.909 21.3979L524.431 21.1021L518.056 9.8521L517.534 10.1479ZM523.909 21.3979L530.284 32.6479L530.806 32.3521L524.431 21.1021L523.909 21.3979ZM530.284 32.6479L536.659 43.8979L537.181 43.6021L530.806 32.3521L530.284 32.6479ZM536.659 43.8979L543.034 55.1479L543.556 54.8521L537.181 43.6021L536.659 43.8979ZM492.556 55.1479L498.931 43.8979L498.409 43.6021L492.034 54.8521L492.556 55.1479ZM498.931 43.8979L505.306 32.6479L504.784 32.3521L498.409 43.6021L498.931 43.8979ZM543.295 54.7H526.242V55.3H543.295V54.7ZM526.242 54.7H517.795V55.3H526.242V54.7ZM517.795 54.7H509.133V55.3H517.795V54.7ZM509.133 54.7H492.295V55.3H509.133V54.7ZM511.42 21.55H515.63V20.95H511.42V21.55ZM515.924 21.3067L518.09 10.0567L517.5 9.9433L515.335 21.1933L515.924 21.3067ZM515.335 21.1933L513.17 32.4433L513.759 32.5567L515.924 21.3067L515.335 21.1933ZM513.464 32.2H505.045V32.8H513.464V32.2ZM513.464 32.8H522.018V32.2H513.464V32.8ZM522.313 32.4447L520.202 21.1947L519.612 21.3053L521.724 32.5553L522.313 32.4447ZM519.907 20.95H515.63V21.55H519.907V20.95ZM530.545 32.2H522.018V32.8H530.545V32.2ZM519.907 21.55H524.17V20.95H519.907V21.55ZM520.202 21.1947L518.09 9.94465L517.5 10.0553L519.612 21.3053L520.202 21.1947ZM521.724 32.5553L523.835 43.8053L524.425 43.6947L522.313 32.4447L521.724 32.5553ZM524.13 44.05H536.92V43.45H524.13V44.05ZM526.537 54.9447L524.425 43.6947L523.835 43.8053L525.947 55.0553L526.537 54.9447ZM524.13 43.45H511.299V44.05H524.13V43.45ZM511.593 43.8067L513.759 32.5567L513.17 32.4433L511.004 43.6933L511.593 43.8067ZM511.299 43.45H498.67V44.05H511.299V43.45ZM509.428 55.0567L511.593 43.8067L511.004 43.6933L508.839 54.9433L509.428 55.0567Z" fill="#B3BFD8"/>
<path d="M323.17 21.25L316.795 10L318.907 21.25H323.17Z" fill="#0B46A7"/>
<path d="M316.795 10L317.056 9.8521C317.003 9.7581 316.903 9.7 316.795 9.7C316.687 9.7 316.587 9.7581 316.534 9.8521L316.795 10ZM342.295 55V55.3H342.81L342.556 54.8521L342.295 55ZM291.295 55L291.034 54.8521L290.78 55.3H291.295V55ZM329.545 32.5L329.806 32.3521L329.806 32.3521L329.545 32.5ZM310.42 21.25L310.159 21.1021L310.159 21.1021L310.42 21.25ZM304.306 32.6479L310.681 21.3979L310.159 21.1021L303.784 32.3521L304.306 32.6479ZM310.681 21.3979L317.056 10.1479L316.534 9.8521L310.159 21.1021L310.681 21.3979ZM316.534 10.1479L322.909 21.3979L323.431 21.1021L317.056 9.8521L316.534 10.1479ZM322.909 21.3979L329.284 32.6479L329.806 32.3521L323.431 21.1021L322.909 21.3979ZM329.284 32.6479L335.659 43.8979L336.181 43.6021L329.806 32.3521L329.284 32.6479ZM335.659 43.8979L342.034 55.1479L342.556 54.8521L336.181 43.6021L335.659 43.8979ZM291.556 55.1479L297.931 43.8979L297.409 43.6021L291.034 54.8521L291.556 55.1479ZM297.931 43.8979L304.306 32.6479L303.784 32.3521L297.409 43.6021L297.931 43.8979ZM342.295 54.7H325.242V55.3H342.295V54.7ZM325.242 54.7H316.795V55.3H325.242V54.7ZM316.795 54.7H308.133V55.3H316.795V54.7ZM308.133 54.7H291.295V55.3H308.133V54.7ZM310.42 21.55H314.63V20.95H310.42V21.55ZM314.924 21.3067L317.09 10.0567L316.5 9.9433L314.335 21.1933L314.924 21.3067ZM314.335 21.1933L312.17 32.4433L312.759 32.5567L314.924 21.3067L314.335 21.1933ZM312.464 32.2H304.045V32.8H312.464V32.2ZM312.464 32.8H321.018V32.2H312.464V32.8ZM321.313 32.4447L319.202 21.1947L318.612 21.3053L320.724 32.5553L321.313 32.4447ZM318.907 20.95H314.63V21.55H318.907V20.95ZM329.545 32.2H321.018V32.8H329.545V32.2ZM318.907 21.55H323.17V20.95H318.907V21.55ZM319.202 21.1947L317.09 9.94465L316.5 10.0553L318.612 21.3053L319.202 21.1947ZM320.724 32.5553L322.835 43.8053L323.425 43.6947L321.313 32.4447L320.724 32.5553ZM323.13 44.05H335.92V43.45H323.13V44.05ZM325.537 54.9447L323.425 43.6947L322.835 43.8053L324.947 55.0553L325.537 54.9447ZM323.13 43.45H310.299V44.05H323.13V43.45ZM310.593 43.8067L312.759 32.5567L312.17 32.4433L310.004 43.6933L310.593 43.8067ZM310.299 43.45H297.67V44.05H310.299V43.45ZM308.428 55.0567L310.593 43.8067L310.004 43.6933L307.839 54.9433L308.428 55.0567Z" fill="#B3BFD8"/>
<path d="M249.295 10L247.087 21.25H251.448L249.295 10Z" fill="#0B46A7"/>
<path d="M249.295 10L249.555 9.84992C249.501 9.75714 249.402 9.7 249.295 9.7C249.188 9.7 249.089 9.75714 249.035 9.84992L249.295 10ZM275.295 55V55.3H275.815L275.555 54.8499L275.295 55ZM223.295 55L223.035 54.8499L222.775 55.3H223.295V55ZM262.295 32.5L262.555 32.3499L262.555 32.3499L262.295 32.5ZM242.795 21.25L242.535 21.0999L242.535 21.0999L242.795 21.25ZM236.555 32.6501L243.055 21.4001L242.535 21.0999L236.035 32.3499L236.555 32.6501ZM243.055 21.4001L249.555 10.1501L249.035 9.84992L242.535 21.0999L243.055 21.4001ZM249.035 10.1501L255.535 21.4001L256.055 21.0999L249.555 9.84992L249.035 10.1501ZM255.535 21.4001L262.035 32.6501L262.555 32.3499L256.055 21.0999L255.535 21.4001ZM262.035 32.6501L268.535 43.9001L269.055 43.5999L262.555 32.3499L262.035 32.6501ZM268.535 43.9001L275.035 55.1501L275.555 54.8499L269.055 43.5999L268.535 43.9001ZM223.555 55.1501L230.055 43.9001L229.535 43.5999L223.035 54.8499L223.555 55.1501ZM230.055 43.9001L236.555 32.6501L236.035 32.3499L229.535 43.5999L230.055 43.9001ZM275.295 54.7H257.908V55.3H275.295V54.7ZM257.908 54.7H249.295V55.3H257.908V54.7ZM249.295 54.7H240.464V55.3H249.295V54.7ZM240.464 54.7H223.295V55.3H240.464V54.7ZM242.795 21.55H247.087V20.95H242.795V21.55ZM247.381 21.3078L249.589 10.0578L249.001 9.94223L246.793 21.1922L247.381 21.3078ZM246.793 21.1922L244.585 32.4422L245.174 32.5578L247.381 21.3078L246.793 21.1922ZM244.879 32.2H236.295V32.8H244.879V32.2ZM244.879 32.8H253.601V32.2H244.879V32.8ZM253.896 32.4436L251.743 21.1936L251.153 21.3064L253.307 32.5564L253.896 32.4436ZM251.448 20.95H247.087V21.55H251.448V20.95ZM262.295 32.2H253.601V32.8H262.295V32.2ZM251.448 21.55H255.795V20.95H251.448V21.55ZM251.743 21.1936L249.59 9.94361L249 10.0564L251.153 21.3064L251.743 21.1936ZM253.307 32.5564L255.46 43.8064L256.049 43.6936L253.896 32.4436L253.307 32.5564ZM255.754 44.05H268.795V43.45H255.754V44.05ZM258.202 54.9436L256.049 43.6936L255.46 43.8064L257.613 55.0564L258.202 54.9436ZM255.754 43.45H242.671V44.05H255.754V43.45ZM242.966 43.8078L245.174 32.5578L244.585 32.4422L242.377 43.6922L242.966 43.8078ZM242.671 43.45H229.795V44.05H242.671V43.45ZM240.758 55.0578L242.966 43.8078L242.377 43.6922L240.169 54.9422L240.758 55.0578Z" fill="#B3BFD8"/>
<path d="M182.295 71L175.795 82.25H180.087L182.295 71Z" fill="#0B46A7"/>
<path d="M175.795 82.25L169.295 93.5H177.879L180.087 82.25H175.795Z" fill="#0B46A7"/>
<path d="M182.295 71L182.555 70.8499C182.501 70.7571 182.402 70.7 182.295 70.7C182.188 70.7 182.089 70.7571 182.035 70.8499L182.295 71ZM208.295 116V116.3H208.815L208.555 115.85L208.295 116ZM156.295 116L156.035 115.85L155.775 116.3H156.295V116ZM195.295 93.5L195.555 93.3499L195.555 93.3499L195.295 93.5ZM175.795 82.25L175.535 82.0999L175.535 82.0999L175.795 82.25ZM169.555 93.6501L176.055 82.4001L175.535 82.0999L169.035 93.3499L169.555 93.6501ZM176.055 82.4001L182.555 71.1501L182.035 70.8499L175.535 82.0999L176.055 82.4001ZM182.035 71.1501L188.535 82.4001L189.055 82.0999L182.555 70.8499L182.035 71.1501ZM188.535 82.4001L195.035 93.6501L195.555 93.3499L189.055 82.0999L188.535 82.4001ZM195.035 93.6501L201.535 104.9L202.055 104.6L195.555 93.3499L195.035 93.6501ZM201.535 104.9L208.035 116.15L208.555 115.85L202.055 104.6L201.535 104.9ZM156.555 116.15L163.055 104.9L162.535 104.6L156.035 115.85L156.555 116.15ZM163.055 104.9L169.555 93.6501L169.035 93.3499L162.535 104.6L163.055 104.9ZM208.295 115.7H190.908V116.3H208.295V115.7ZM190.908 115.7H182.295V116.3H190.908V115.7ZM182.295 115.7H173.464V116.3H182.295V115.7ZM173.464 115.7H156.295V116.3H173.464V115.7ZM175.795 82.55H180.087V81.95H175.795V82.55ZM180.381 82.3078L182.589 71.0578L182.001 70.9422L179.793 82.1922L180.381 82.3078ZM179.793 82.1922L177.585 93.4422L178.174 93.5578L180.381 82.3078L179.793 82.1922ZM177.879 93.2H169.295V93.8H177.879V93.2ZM177.879 93.8H186.601V93.2H177.879V93.8ZM186.896 93.4436L184.743 82.1936L184.153 82.3064L186.307 93.5564L186.896 93.4436ZM184.448 81.95H180.087V82.55H184.448V81.95ZM195.295 93.2H186.601V93.8H195.295V93.2ZM184.448 82.55H188.795V81.95H184.448V82.55ZM184.743 82.1936L182.59 70.9436L182 71.0564L184.153 82.3064L184.743 82.1936ZM186.307 93.5564L188.46 104.806L189.049 104.694L186.896 93.4436L186.307 93.5564ZM188.754 105.05H201.795V104.45H188.754V105.05ZM191.202 115.944L189.049 104.694L188.46 104.806L190.613 116.056L191.202 115.944ZM188.754 104.45H175.671V105.05H188.754V104.45ZM175.966 104.808L178.174 93.5578L177.585 93.4422L175.377 104.692L175.966 104.808ZM175.671 104.45H162.795V105.05H175.671V104.45ZM173.758 116.058L175.966 104.808L175.377 104.692L173.169 115.942L173.758 116.058Z" fill="#B3BFD8"/>
<path d="M517.795 71L511.42 82.25H515.63L517.795 71Z" fill="#0B46A7"/>
<path d="M517.795 71L515.63 82.25H519.907L517.795 71Z" fill="#0B46A7"/>
<path d="M524.17 82.25L517.795 71L519.907 82.25H524.17Z" fill="#0B46A7"/>
<path d="M511.42 82.25L505.045 93.5H513.464L515.63 82.25H511.42Z" fill="#0B46A7"/>
<path d="M515.63 82.25L513.464 93.5H522.018L519.907 82.25H515.63Z" fill="#0B46A7"/>
<path d="M530.545 93.5L524.17 82.25H519.907L522.018 93.5H530.545Z" fill="#0B46A7"/>
<path d="M517.795 71L518.056 70.8521C518.003 70.7581 517.903 70.7 517.795 70.7C517.687 70.7 517.587 70.7581 517.534 70.8521L517.795 71ZM543.295 116V116.3H543.81L543.556 115.852L543.295 116ZM492.295 116L492.034 115.852L491.78 116.3H492.295V116ZM530.545 93.5L530.806 93.3521L530.806 93.3521L530.545 93.5ZM511.42 82.25L511.159 82.1021L511.159 82.1021L511.42 82.25ZM505.306 93.6479L511.681 82.3979L511.159 82.1021L504.784 93.3521L505.306 93.6479ZM511.681 82.3979L518.056 71.1479L517.534 70.8521L511.159 82.1021L511.681 82.3979ZM517.534 71.1479L523.909 82.3979L524.431 82.1021L518.056 70.8521L517.534 71.1479ZM523.909 82.3979L530.284 93.6479L530.806 93.3521L524.431 82.1021L523.909 82.3979ZM530.284 93.6479L536.659 104.898L537.181 104.602L530.806 93.3521L530.284 93.6479ZM536.659 104.898L543.034 116.148L543.556 115.852L537.181 104.602L536.659 104.898ZM492.556 116.148L498.931 104.898L498.409 104.602L492.034 115.852L492.556 116.148ZM498.931 104.898L505.306 93.6479L504.784 93.3521L498.409 104.602L498.931 104.898ZM543.295 115.7H526.242V116.3H543.295V115.7ZM526.242 115.7H517.795V116.3H526.242V115.7ZM517.795 115.7H509.133V116.3H517.795V115.7ZM509.133 115.7H492.295V116.3H509.133V115.7ZM511.42 82.55H515.63V81.95H511.42V82.55ZM515.924 82.3067L518.09 71.0567L517.5 70.9433L515.335 82.1933L515.924 82.3067ZM515.335 82.1933L513.17 93.4433L513.759 93.5567L515.924 82.3067L515.335 82.1933ZM513.464 93.2H505.045V93.8H513.464V93.2ZM513.464 93.8H522.018V93.2H513.464V93.8ZM522.313 93.4447L520.202 82.1947L519.612 82.3053L521.724 93.5553L522.313 93.4447ZM519.907 81.95H515.63V82.55H519.907V81.95ZM530.545 93.2H522.018V93.8H530.545V93.2ZM519.907 82.55H524.17V81.95H519.907V82.55ZM520.202 82.1947L518.09 70.9447L517.5 71.0553L519.612 82.3053L520.202 82.1947ZM521.724 93.5553L523.835 104.805L524.425 104.695L522.313 93.4447L521.724 93.5553ZM524.13 105.05H536.92V104.45H524.13V105.05ZM526.537 115.945L524.425 104.695L523.835 104.805L525.947 116.055L526.537 115.945ZM524.13 104.45H511.299V105.05H524.13V104.45ZM511.593 104.807L513.759 93.5567L513.17 93.4433L511.004 104.693L511.593 104.807ZM511.299 104.45H498.67V105.05H511.299V104.45ZM509.428 116.057L511.593 104.807L511.004 104.693L508.839 115.943L509.428 116.057Z" fill="#B3BFD8"/>
<path d="M323.17 82.25L316.795 71L318.907 82.25H323.17Z" fill="#0B46A7"/>
<path d="M329.545 93.5L323.17 82.25H318.907L321.018 93.5H329.545Z" fill="#0B46A7"/>
<path d="M316.795 71L317.056 70.8521C317.003 70.7581 316.903 70.7 316.795 70.7C316.687 70.7 316.587 70.7581 316.534 70.8521L316.795 71ZM342.295 116V116.3H342.81L342.556 115.852L342.295 116ZM291.295 116L291.034 115.852L290.78 116.3H291.295V116ZM329.545 93.5L329.806 93.3521L329.806 93.3521L329.545 93.5ZM310.42 82.25L310.159 82.1021L310.159 82.1021L310.42 82.25ZM304.306 93.6479L310.681 82.3979L310.159 82.1021L303.784 93.3521L304.306 93.6479ZM310.681 82.3979L317.056 71.1479L316.534 70.8521L310.159 82.1021L310.681 82.3979ZM316.534 71.1479L322.909 82.3979L323.431 82.1021L317.056 70.8521L316.534 71.1479ZM322.909 82.3979L329.284 93.6479L329.806 93.3521L323.431 82.1021L322.909 82.3979ZM329.284 93.6479L335.659 104.898L336.181 104.602L329.806 93.3521L329.284 93.6479ZM335.659 104.898L342.034 116.148L342.556 115.852L336.181 104.602L335.659 104.898ZM291.556 116.148L297.931 104.898L297.409 104.602L291.034 115.852L291.556 116.148ZM297.931 104.898L304.306 93.6479L303.784 93.3521L297.409 104.602L297.931 104.898ZM342.295 115.7H325.242V116.3H342.295V115.7ZM325.242 115.7H316.795V116.3H325.242V115.7ZM316.795 115.7H308.133V116.3H316.795V115.7ZM308.133 115.7H291.295V116.3H308.133V115.7ZM310.42 82.55H314.63V81.95H310.42V82.55ZM314.924 82.3067L317.09 71.0567L316.5 70.9433L314.335 82.1933L314.924 82.3067ZM314.335 82.1933L312.17 93.4433L312.759 93.5567L314.924 82.3067L314.335 82.1933ZM312.464 93.2H304.045V93.8H312.464V93.2ZM312.464 93.8H321.018V93.2H312.464V93.8ZM321.313 93.4447L319.202 82.1947L318.612 82.3053L320.724 93.5553L321.313 93.4447ZM318.907 81.95H314.63V82.55H318.907V81.95ZM329.545 93.2H321.018V93.8H329.545V93.2ZM318.907 82.55H323.17V81.95H318.907V82.55ZM319.202 82.1947L317.09 70.9447L316.5 71.0553L318.612 82.3053L319.202 82.1947ZM320.724 93.5553L322.835 104.805L323.425 104.695L321.313 93.4447L320.724 93.5553ZM323.13 105.05H335.92V104.45H323.13V105.05ZM325.537 115.945L323.425 104.695L322.835 104.805L324.947 116.055L325.537 115.945ZM323.13 104.45H310.299V105.05H323.13V104.45ZM310.593 104.807L312.759 93.5567L312.17 93.4433L310.004 104.693L310.593 104.807ZM310.299 104.45H297.67V105.05H310.299V104.45ZM308.428 116.057L310.593 104.807L310.004 104.693L307.839 115.943L308.428 116.057Z" fill="#B3BFD8"/>
<path d="M249.295 71L247.087 82.25H251.448L249.295 71Z" fill="#0B46A7"/>
<path d="M247.087 82.25L244.879 93.5H253.601L251.448 82.25H247.087Z" fill="#0B46A7"/>
<path d="M249.295 71L249.555 70.8499C249.501 70.7571 249.402 70.7 249.295 70.7C249.188 70.7 249.089 70.7571 249.035 70.8499L249.295 71ZM275.295 116V116.3H275.815L275.555 115.85L275.295 116ZM223.295 116L223.035 115.85L222.775 116.3H223.295V116ZM262.295 93.5L262.555 93.3499L262.555 93.3499L262.295 93.5ZM242.795 82.25L242.535 82.0999L242.535 82.0999L242.795 82.25ZM236.555 93.6501L243.055 82.4001L242.535 82.0999L236.035 93.3499L236.555 93.6501ZM243.055 82.4001L249.555 71.1501L249.035 70.8499L242.535 82.0999L243.055 82.4001ZM249.035 71.1501L255.535 82.4001L256.055 82.0999L249.555 70.8499L249.035 71.1501ZM255.535 82.4001L262.035 93.6501L262.555 93.3499L256.055 82.0999L255.535 82.4001ZM262.035 93.6501L268.535 104.9L269.055 104.6L262.555 93.3499L262.035 93.6501ZM268.535 104.9L275.035 116.15L275.555 115.85L269.055 104.6L268.535 104.9ZM223.555 116.15L230.055 104.9L229.535 104.6L223.035 115.85L223.555 116.15ZM230.055 104.9L236.555 93.6501L236.035 93.3499L229.535 104.6L230.055 104.9ZM275.295 115.7H257.908V116.3H275.295V115.7ZM257.908 115.7H249.295V116.3H257.908V115.7ZM249.295 115.7H240.464V116.3H249.295V115.7ZM240.464 115.7H223.295V116.3H240.464V115.7ZM242.795 82.55H247.087V81.95H242.795V82.55ZM247.381 82.3078L249.589 71.0578L249.001 70.9422L246.793 82.1922L247.381 82.3078ZM246.793 82.1922L244.585 93.4422L245.174 93.5578L247.381 82.3078L246.793 82.1922ZM244.879 93.2H236.295V93.8H244.879V93.2ZM244.879 93.8H253.601V93.2H244.879V93.8ZM253.896 93.4436L251.743 82.1936L251.153 82.3064L253.307 93.5564L253.896 93.4436ZM251.448 81.95H247.087V82.55H251.448V81.95ZM262.295 93.2H253.601V93.8H262.295V93.2ZM251.448 82.55H255.795V81.95H251.448V82.55ZM251.743 82.1936L249.59 70.9436L249 71.0564L251.153 82.3064L251.743 82.1936ZM253.307 93.5564L255.46 104.806L256.049 104.694L253.896 93.4436L253.307 93.5564ZM255.754 105.05H268.795V104.45H255.754V105.05ZM258.202 115.944L256.049 104.694L255.46 104.806L257.613 116.056L258.202 115.944ZM255.754 104.45H242.671V105.05H255.754V104.45ZM242.966 104.808L245.174 93.5578L244.585 93.4422L242.377 104.692L242.966 104.808ZM242.671 104.45H229.795V105.05H242.671V104.45ZM240.758 116.058L242.966 104.808L242.377 104.692L240.169 115.942L240.758 116.058Z" fill="#B3BFD8"/>
<path d="M182.295 132L175.795 143.25H180.087L182.295 132Z" fill="#0B46A7"/>
<path d="M175.795 143.25L169.295 154.5H177.879L180.087 143.25H175.795Z" fill="#0B46A7"/>
<path d="M169.295 154.5L162.795 165.75H175.671L177.879 154.5H169.295Z" fill="#0B46A7"/>
<path d="M182.295 132L182.555 131.85C182.501 131.757 182.402 131.7 182.295 131.7C182.188 131.7 182.089 131.757 182.035 131.85L182.295 132ZM208.295 177V177.3H208.815L208.555 176.85L208.295 177ZM156.295 177L156.035 176.85L155.775 177.3H156.295V177ZM195.295 154.5L195.555 154.35L195.555 154.35L195.295 154.5ZM175.795 143.25L175.535 143.1L175.535 143.1L175.795 143.25ZM169.555 154.65L176.055 143.4L175.535 143.1L169.035 154.35L169.555 154.65ZM176.055 143.4L182.555 132.15L182.035 131.85L175.535 143.1L176.055 143.4ZM182.035 132.15L188.535 143.4L189.055 143.1L182.555 131.85L182.035 132.15ZM188.535 143.4L195.035 154.65L195.555 154.35L189.055 143.1L188.535 143.4ZM195.035 154.65L201.535 165.9L202.055 165.6L195.555 154.35L195.035 154.65ZM201.535 165.9L208.035 177.15L208.555 176.85L202.055 165.6L201.535 165.9ZM156.555 177.15L163.055 165.9L162.535 165.6L156.035 176.85L156.555 177.15ZM163.055 165.9L169.555 154.65L169.035 154.35L162.535 165.6L163.055 165.9ZM208.295 176.7H190.908V177.3H208.295V176.7ZM190.908 176.7H182.295V177.3H190.908V176.7ZM182.295 176.7H173.464V177.3H182.295V176.7ZM173.464 176.7H156.295V177.3H173.464V176.7ZM175.795 143.55H180.087V142.95H175.795V143.55ZM180.381 143.308L182.589 132.058L182.001 131.942L179.793 143.192L180.381 143.308ZM179.793 143.192L177.585 154.442L178.174 154.558L180.381 143.308L179.793 143.192ZM177.879 154.2H169.295V154.8H177.879V154.2ZM177.879 154.8H186.601V154.2H177.879V154.8ZM186.896 154.444L184.743 143.194L184.153 143.306L186.307 154.556L186.896 154.444ZM184.448 142.95H180.087V143.55H184.448V142.95ZM195.295 154.2H186.601V154.8H195.295V154.2ZM184.448 143.55H188.795V142.95H184.448V143.55ZM184.743 143.194L182.59 131.944L182 132.056L184.153 143.306L184.743 143.194ZM186.307 154.556L188.46 165.806L189.049 165.694L186.896 154.444L186.307 154.556ZM188.754 166.05H201.795V165.45H188.754V166.05ZM191.202 176.944L189.049 165.694L188.46 165.806L190.613 177.056L191.202 176.944ZM188.754 165.45H175.671V166.05H188.754V165.45ZM175.966 165.808L178.174 154.558L177.585 154.442L175.377 165.692L175.966 165.808ZM175.671 165.45H162.795V166.05H175.671V165.45ZM173.758 177.058L175.966 165.808L175.377 165.692L173.169 176.942L173.758 177.058Z" fill="#B3BFD8"/>
<path d="M517.795 132L511.42 143.25H515.63L517.795 132Z" fill="#0B46A7"/>
<path d="M517.795 132L515.63 143.25H519.907L517.795 132Z" fill="#0B46A7"/>
<path d="M524.17 143.25L517.795 132L519.907 143.25H524.17Z" fill="#0B46A7"/>
<path d="M511.42 143.25L505.045 154.5H513.464L515.63 143.25H511.42Z" fill="#0B46A7"/>
<path d="M515.63 143.25L513.464 154.5H522.018L519.907 143.25H515.63Z" fill="#0B46A7"/>
<path d="M530.545 154.5L524.17 143.25H519.907L522.018 154.5H530.545Z" fill="#0B46A7"/>
<path d="M522.018 154.5H513.464L511.299 165.75H524.13L522.018 154.5Z" fill="#0B46A7"/>
<path d="M505.045 154.5L498.67 165.75H511.299L513.464 154.5H505.045Z" fill="#0B46A7"/>
<path d="M536.92 165.75L530.545 154.5H522.018L524.13 165.75H536.92Z" fill="#0B46A7"/>
<path d="M517.795 132L518.056 131.852C518.003 131.758 517.903 131.7 517.795 131.7C517.687 131.7 517.587 131.758 517.534 131.852L517.795 132ZM543.295 177V177.3H543.81L543.556 176.852L543.295 177ZM492.295 177L492.034 176.852L491.78 177.3H492.295V177ZM530.545 154.5L530.806 154.352L530.806 154.352L530.545 154.5ZM511.42 143.25L511.159 143.102L511.159 143.102L511.42 143.25ZM505.306 154.648L511.681 143.398L511.159 143.102L504.784 154.352L505.306 154.648ZM511.681 143.398L518.056 132.148L517.534 131.852L511.159 143.102L511.681 143.398ZM517.534 132.148L523.909 143.398L524.431 143.102L518.056 131.852L517.534 132.148ZM523.909 143.398L530.284 154.648L530.806 154.352L524.431 143.102L523.909 143.398ZM530.284 154.648L536.659 165.898L537.181 165.602L530.806 154.352L530.284 154.648ZM536.659 165.898L543.034 177.148L543.556 176.852L537.181 165.602L536.659 165.898ZM492.556 177.148L498.931 165.898L498.409 165.602L492.034 176.852L492.556 177.148ZM498.931 165.898L505.306 154.648L504.784 154.352L498.409 165.602L498.931 165.898ZM543.295 176.7H526.242V177.3H543.295V176.7ZM526.242 176.7H517.795V177.3H526.242V176.7ZM517.795 176.7H509.133V177.3H517.795V176.7ZM509.133 176.7H492.295V177.3H509.133V176.7ZM511.42 143.55H515.63V142.95H511.42V143.55ZM515.924 143.307L518.09 132.057L517.5 131.943L515.335 143.193L515.924 143.307ZM515.335 143.193L513.17 154.443L513.759 154.557L515.924 143.307L515.335 143.193ZM513.464 154.2H505.045V154.8H513.464V154.2ZM513.464 154.8H522.018V154.2H513.464V154.8ZM522.313 154.445L520.202 143.195L519.612 143.305L521.724 154.555L522.313 154.445ZM519.907 142.95H515.63V143.55H519.907V142.95ZM530.545 154.2H522.018V154.8H530.545V154.2ZM519.907 143.55H524.17V142.95H519.907V143.55ZM520.202 143.195L518.09 131.945L517.5 132.055L519.612 143.305L520.202 143.195ZM521.724 154.555L523.835 165.805L524.425 165.695L522.313 154.445L521.724 154.555ZM524.13 166.05H536.92V165.45H524.13V166.05ZM526.537 176.945L524.425 165.695L523.835 165.805L525.947 177.055L526.537 176.945ZM524.13 165.45H511.299V166.05H524.13V165.45ZM511.593 165.807L513.759 154.557L513.17 154.443L511.004 165.693L511.593 165.807ZM511.299 165.45H498.67V166.05H511.299V165.45ZM509.428 177.057L511.593 165.807L511.004 165.693L508.839 176.943L509.428 177.057Z" fill="#B3BFD8"/>
<path d="M384.295 10L377.795 21.25H382.087L384.295 10Z" fill="#0B46A7"/>
<path d="M384.295 10L382.087 21.25H386.448L384.295 10Z" fill="#0B46A7"/>
<path d="M384.295 10L384.555 9.84992C384.501 9.75714 384.402 9.7 384.295 9.7C384.188 9.7 384.089 9.75714 384.035 9.84992L384.295 10ZM410.295 55V55.3H410.815L410.555 54.8499L410.295 55ZM358.295 55L358.035 54.8499L357.775 55.3H358.295V55ZM397.295 32.5L397.555 32.3499L397.555 32.3499L397.295 32.5ZM377.795 21.25L377.535 21.0999L377.535 21.0999L377.795 21.25ZM371.555 32.6501L378.055 21.4001L377.535 21.0999L371.035 32.3499L371.555 32.6501ZM378.055 21.4001L384.555 10.1501L384.035 9.84992L377.535 21.0999L378.055 21.4001ZM384.035 10.1501L390.535 21.4001L391.055 21.0999L384.555 9.84992L384.035 10.1501ZM390.535 21.4001L397.035 32.6501L397.555 32.3499L391.055 21.0999L390.535 21.4001ZM397.035 32.6501L403.535 43.9001L404.055 43.5999L397.555 32.3499L397.035 32.6501ZM403.535 43.9001L410.035 55.1501L410.555 54.8499L404.055 43.5999L403.535 43.9001ZM358.555 55.1501L365.055 43.9001L364.535 43.5999L358.035 54.8499L358.555 55.1501ZM365.055 43.9001L371.555 32.6501L371.035 32.3499L364.535 43.5999L365.055 43.9001ZM410.295 54.7H392.908V55.3H410.295V54.7ZM392.908 54.7H384.295V55.3H392.908V54.7ZM384.295 54.7H375.464V55.3H384.295V54.7ZM375.464 54.7H358.295V55.3H375.464V54.7ZM377.795 21.55H382.087V20.95H377.795V21.55ZM382.381 21.3078L384.589 10.0578L384.001 9.94223L381.793 21.1922L382.381 21.3078ZM381.793 21.1922L379.585 32.4422L380.174 32.5578L382.381 21.3078L381.793 21.1922ZM379.879 32.2H371.295V32.8H379.879V32.2ZM379.879 32.8H388.601V32.2H379.879V32.8ZM388.896 32.4436L386.743 21.1936L386.153 21.3064L388.307 32.5564L388.896 32.4436ZM386.448 20.95H382.087V21.55H386.448V20.95ZM397.295 32.2H388.601V32.8H397.295V32.2ZM386.448 21.55H390.795V20.95H386.448V21.55ZM386.743 21.1936L384.59 9.94361L384 10.0564L386.153 21.3064L386.743 21.1936ZM388.307 32.5564L390.46 43.8064L391.049 43.6936L388.896 32.4436L388.307 32.5564ZM390.754 44.05H403.795V43.45H390.754V44.05ZM393.202 54.9436L391.049 43.6936L390.46 43.8064L392.613 55.0564L393.202 54.9436ZM390.754 43.45H377.671V44.05H390.754V43.45ZM377.966 43.8078L380.174 32.5578L379.585 32.4422L377.377 43.6922L377.966 43.8078ZM377.671 43.45H364.795V44.05H377.671V43.45ZM375.758 55.0578L377.966 43.8078L377.377 43.6922L375.169 54.9422L375.758 55.0578Z" fill="#B3BFD8"/>
<path d="M384.295 71L377.795 82.25H382.087L384.295 71Z" fill="#0B46A7"/>
<path d="M384.295 71L382.087 82.25H386.448L384.295 71Z" fill="#0B46A7"/>
<path d="M377.795 82.25L371.295 93.5H379.879L382.087 82.25H377.795Z" fill="#0B46A7"/>
<path d="M382.087 82.25L379.879 93.5H388.601L386.448 82.25H382.087Z" fill="#0B46A7"/>
<path d="M384.295 71L384.555 70.8499C384.501 70.7571 384.402 70.7 384.295 70.7C384.188 70.7 384.089 70.7571 384.035 70.8499L384.295 71ZM410.295 116V116.3H410.815L410.555 115.85L410.295 116ZM358.295 116L358.035 115.85L357.775 116.3H358.295V116ZM397.295 93.5L397.555 93.3499L397.555 93.3499L397.295 93.5ZM377.795 82.25L377.535 82.0999L377.535 82.0999L377.795 82.25ZM371.555 93.6501L378.055 82.4001L377.535 82.0999L371.035 93.3499L371.555 93.6501ZM378.055 82.4001L384.555 71.1501L384.035 70.8499L377.535 82.0999L378.055 82.4001ZM384.035 71.1501L390.535 82.4001L391.055 82.0999L384.555 70.8499L384.035 71.1501ZM390.535 82.4001L397.035 93.6501L397.555 93.3499L391.055 82.0999L390.535 82.4001ZM397.035 93.6501L403.535 104.9L404.055 104.6L397.555 93.3499L397.035 93.6501ZM403.535 104.9L410.035 116.15L410.555 115.85L404.055 104.6L403.535 104.9ZM358.555 116.15L365.055 104.9L364.535 104.6L358.035 115.85L358.555 116.15ZM365.055 104.9L371.555 93.6501L371.035 93.3499L364.535 104.6L365.055 104.9ZM410.295 115.7H392.908V116.3H410.295V115.7ZM392.908 115.7H384.295V116.3H392.908V115.7ZM384.295 115.7H375.464V116.3H384.295V115.7ZM375.464 115.7H358.295V116.3H375.464V115.7ZM377.795 82.55H382.087V81.95H377.795V82.55ZM382.381 82.3078L384.589 71.0578L384.001 70.9422L381.793 82.1922L382.381 82.3078ZM381.793 82.1922L379.585 93.4422L380.174 93.5578L382.381 82.3078L381.793 82.1922ZM379.879 93.2H371.295V93.8H379.879V93.2ZM379.879 93.8H388.601V93.2H379.879V93.8ZM388.896 93.4436L386.743 82.1936L386.153 82.3064L388.307 93.5564L388.896 93.4436ZM386.448 81.95H382.087V82.55H386.448V81.95ZM397.295 93.2H388.601V93.8H397.295V93.2ZM386.448 82.55H390.795V81.95H386.448V82.55ZM386.743 82.1936L384.59 70.9436L384 71.0564L386.153 82.3064L386.743 82.1936ZM388.307 93.5564L390.46 104.806L391.049 104.694L388.896 93.4436L388.307 93.5564ZM390.754 105.05H403.795V104.45H390.754V105.05ZM393.202 115.944L391.049 104.694L390.46 104.806L392.613 116.056L393.202 115.944ZM390.754 104.45H377.671V105.05H390.754V104.45ZM377.966 104.808L380.174 93.5578L379.585 93.4422L377.377 104.692L377.966 104.808ZM377.671 104.45H364.795V105.05H377.671V104.45ZM375.758 116.058L377.966 104.808L377.377 104.692L375.169 115.942L375.758 116.058Z" fill="#B3BFD8"/>
<path d="M384.295 132L377.795 143.25H382.087L384.295 132Z" fill="#0B46A7"/>
<path d="M384.295 132L382.087 143.25H386.448L384.295 132Z" fill="#0B46A7"/>
<path d="M377.795 143.25L371.295 154.5H379.879L382.087 143.25H377.795Z" fill="#0B46A7"/>
<path d="M382.087 143.25L379.879 154.5H388.601L386.448 143.25H382.087Z" fill="#0B46A7"/>
<path d="M388.601 154.5H379.879L377.671 165.75H390.754L388.601 154.5Z" fill="#0B46A7"/>
<path d="M371.295 154.5L364.795 165.75H377.671L379.879 154.5H371.295Z" fill="#0B46A7"/>
<path d="M384.295 132L384.555 131.85C384.501 131.757 384.402 131.7 384.295 131.7C384.188 131.7 384.089 131.757 384.035 131.85L384.295 132ZM410.295 177V177.3H410.815L410.555 176.85L410.295 177ZM358.295 177L358.035 176.85L357.775 177.3H358.295V177ZM397.295 154.5L397.555 154.35L397.555 154.35L397.295 154.5ZM377.795 143.25L377.535 143.1L377.535 143.1L377.795 143.25ZM371.555 154.65L378.055 143.4L377.535 143.1L371.035 154.35L371.555 154.65ZM378.055 143.4L384.555 132.15L384.035 131.85L377.535 143.1L378.055 143.4ZM384.035 132.15L390.535 143.4L391.055 143.1L384.555 131.85L384.035 132.15ZM390.535 143.4L397.035 154.65L397.555 154.35L391.055 143.1L390.535 143.4ZM397.035 154.65L403.535 165.9L404.055 165.6L397.555 154.35L397.035 154.65ZM403.535 165.9L410.035 177.15L410.555 176.85L404.055 165.6L403.535 165.9ZM358.555 177.15L365.055 165.9L364.535 165.6L358.035 176.85L358.555 177.15ZM365.055 165.9L371.555 154.65L371.035 154.35L364.535 165.6L365.055 165.9ZM410.295 176.7H392.908V177.3H410.295V176.7ZM392.908 176.7H384.295V177.3H392.908V176.7ZM384.295 176.7H375.464V177.3H384.295V176.7ZM375.464 176.7H358.295V177.3H375.464V176.7ZM377.795 143.55H382.087V142.95H377.795V143.55ZM382.381 143.308L384.589 132.058L384.001 131.942L381.793 143.192L382.381 143.308ZM381.793 143.192L379.585 154.442L380.174 154.558L382.381 143.308L381.793 143.192ZM379.879 154.2H371.295V154.8H379.879V154.2ZM379.879 154.8H388.601V154.2H379.879V154.8ZM388.896 154.444L386.743 143.194L386.153 143.306L388.307 154.556L388.896 154.444ZM386.448 142.95H382.087V143.55H386.448V142.95ZM397.295 154.2H388.601V154.8H397.295V154.2ZM386.448 143.55H390.795V142.95H386.448V143.55ZM386.743 143.194L384.59 131.944L384 132.056L386.153 143.306L386.743 143.194ZM388.307 154.556L390.46 165.806L391.049 165.694L388.896 154.444L388.307 154.556ZM390.754 166.05H403.795V165.45H390.754V166.05ZM393.202 176.944L391.049 165.694L390.46 165.806L392.613 177.056L393.202 176.944ZM390.754 165.45H377.671V166.05H390.754V165.45ZM377.966 165.808L380.174 154.558L379.585 154.442L377.377 165.692L377.966 165.808ZM377.671 165.45H364.795V166.05H377.671V165.45ZM375.758 177.058L377.966 165.808L377.377 165.692L375.169 176.942L375.758 177.058Z" fill="#B3BFD8"/>
<path d="M384.295 193L377.795 204.25H382.087L384.295 193Z" fill="#0B46A7"/>
<path d="M384.295 193L382.087 204.25H386.448L384.295 193Z" fill="#0B46A7"/>
<path d="M377.795 204.25L371.295 215.5H379.879L382.087 204.25H377.795Z" fill="#0B46A7"/>
<path d="M382.087 204.25L379.879 215.5H388.601L386.448 204.25H382.087Z" fill="#0B46A7"/>
<path d="M388.601 215.5H379.879L377.671 226.75H390.754L388.601 215.5Z" fill="#0B46A7"/>
<path d="M371.295 215.5L364.795 226.75H377.671L379.879 215.5H371.295Z" fill="#0B46A7"/>
<path d="M384.295 238H392.908L390.754 226.75H377.671L375.464 238H384.295Z" fill="#0B46A7"/>
<path d="M364.795 226.75L358.295 238H375.464L377.671 226.75H364.795Z" fill="#0B46A7"/>
<path d="M384.295 193L384.555 192.85C384.501 192.757 384.402 192.7 384.295 192.7C384.188 192.7 384.089 192.757 384.035 192.85L384.295 193ZM410.295 238V238.3H410.815L410.555 237.85L410.295 238ZM358.295 238L358.035 237.85L357.775 238.3H358.295V238ZM397.295 215.5L397.555 215.35L397.555 215.35L397.295 215.5ZM377.795 204.25L377.535 204.1L377.535 204.1L377.795 204.25ZM371.555 215.65L378.055 204.4L377.535 204.1L371.035 215.35L371.555 215.65ZM378.055 204.4L384.555 193.15L384.035 192.85L377.535 204.1L378.055 204.4ZM384.035 193.15L390.535 204.4L391.055 204.1L384.555 192.85L384.035 193.15ZM390.535 204.4L397.035 215.65L397.555 215.35L391.055 204.1L390.535 204.4ZM397.035 215.65L403.535 226.9L404.055 226.6L397.555 215.35L397.035 215.65ZM403.535 226.9L410.035 238.15L410.555 237.85L404.055 226.6L403.535 226.9ZM358.555 238.15L365.055 226.9L364.535 226.6L358.035 237.85L358.555 238.15ZM365.055 226.9L371.555 215.65L371.035 215.35L364.535 226.6L365.055 226.9ZM410.295 237.7H392.908V238.3H410.295V237.7ZM392.908 237.7H384.295V238.3H392.908V237.7ZM384.295 237.7H375.464V238.3H384.295V237.7ZM375.464 237.7H358.295V238.3H375.464V237.7ZM377.795 204.55H382.087V203.95H377.795V204.55ZM382.381 204.308L384.589 193.058L384.001 192.942L381.793 204.192L382.381 204.308ZM381.793 204.192L379.585 215.442L380.174 215.558L382.381 204.308L381.793 204.192ZM379.879 215.2H371.295V215.8H379.879V215.2ZM379.879 215.8H388.601V215.2H379.879V215.8ZM388.896 215.444L386.743 204.194L386.153 204.306L388.307 215.556L388.896 215.444ZM386.448 203.95H382.087V204.55H386.448V203.95ZM397.295 215.2H388.601V215.8H397.295V215.2ZM386.448 204.55H390.795V203.95H386.448V204.55ZM386.743 204.194L384.59 192.944L384 193.056L386.153 204.306L386.743 204.194ZM388.307 215.556L390.46 226.806L391.049 226.694L388.896 215.444L388.307 215.556ZM390.754 227.05H403.795V226.45H390.754V227.05ZM393.202 237.944L391.049 226.694L390.46 226.806L392.613 238.056L393.202 237.944ZM390.754 226.45H377.671V227.05H390.754V226.45ZM377.966 226.808L380.174 215.558L379.585 215.442L377.377 226.692L377.966 226.808ZM377.671 226.45H364.795V227.05H377.671V226.45ZM375.758 238.058L377.966 226.808L377.377 226.692L375.169 237.942L375.758 238.058Z" fill="#B3BFD8"/>
<path d="M451.295 10L457.795 21.25H453.503L451.295 10Z" fill="#0B46A7"/>
<path d="M451.295 10L453.503 21.25H449.142L451.295 10Z" fill="#0B46A7"/>
<path d="M451.295 10L451.035 9.84992C451.089 9.75714 451.188 9.7 451.295 9.7C451.402 9.7 451.501 9.75714 451.555 9.84992L451.295 10ZM425.295 55V55.3H424.775L425.035 54.8499L425.295 55ZM477.295 55L477.555 54.8499L477.815 55.3H477.295V55ZM438.295 32.5L438.035 32.3499L438.035 32.3499L438.295 32.5ZM457.795 21.25L458.055 21.0999L458.055 21.0999L457.795 21.25ZM464.035 32.6501L457.535 21.4001L458.055 21.0999L464.555 32.3499L464.035 32.6501ZM457.535 21.4001L451.035 10.1501L451.555 9.84992L458.055 21.0999L457.535 21.4001ZM451.555 10.1501L445.055 21.4001L444.535 21.0999L451.035 9.84992L451.555 10.1501ZM445.055 21.4001L438.555 32.6501L438.035 32.3499L444.535 21.0999L445.055 21.4001ZM438.555 32.6501L432.055 43.9001L431.535 43.5999L438.035 32.3499L438.555 32.6501ZM432.055 43.9001L425.555 55.1501L425.035 54.8499L431.535 43.5999L432.055 43.9001ZM477.035 55.1501L470.535 43.9001L471.055 43.5999L477.555 54.8499L477.035 55.1501ZM470.535 43.9001L464.035 32.6501L464.555 32.3499L471.055 43.5999L470.535 43.9001ZM425.295 54.7H442.682V55.3H425.295V54.7ZM442.682 54.7H451.295V55.3H442.682V54.7ZM451.295 54.7H460.126V55.3H451.295V54.7ZM460.126 54.7H477.295V55.3H460.126V54.7ZM457.795 21.55H453.503V20.95H457.795V21.55ZM453.208 21.3078L451.001 10.0578L451.589 9.94223L453.797 21.1922L453.208 21.3078ZM453.797 21.1922L456.005 32.4422L455.416 32.5578L453.208 21.3078L453.797 21.1922ZM455.711 32.2H464.295V32.8H455.711V32.2ZM455.711 32.8H446.989V32.2H455.711V32.8ZM446.694 32.4436L448.847 21.1936L449.436 21.3064L447.283 32.5564L446.694 32.4436ZM449.142 20.95H453.503V21.55H449.142V20.95ZM438.295 32.2H446.989V32.8H438.295V32.2ZM449.142 21.55H444.795V20.95H449.142V21.55ZM448.847 21.1936L451 9.94361L451.59 10.0564L449.436 21.3064L448.847 21.1936ZM447.283 32.5564L445.13 43.8064L444.541 43.6936L446.694 32.4436L447.283 32.5564ZM444.835 44.05H431.795V43.45H444.835V44.05ZM442.388 54.9436L444.541 43.6936L445.13 43.8064L442.977 55.0564L442.388 54.9436ZM444.835 43.45H457.918V44.05H444.835V43.45ZM457.624 43.8078L455.416 32.5578L456.005 32.4422L458.213 43.6922L457.624 43.8078ZM457.918 43.45H470.795V44.05H457.918V43.45ZM459.832 55.0578L457.624 43.8078L458.213 43.6922L460.421 54.9422L459.832 55.0578Z" fill="#B3BFD8"/>
<path d="M451.295 71L457.795 82.25H453.503L451.295 71Z" fill="#0B46A7"/>
<path d="M451.295 71L453.503 82.25H449.142L451.295 71Z" fill="#0B46A7"/>
<path d="M457.795 82.25L464.295 93.5H455.711L453.503 82.25H457.795Z" fill="#0B46A7"/>
<path d="M453.503 82.25L455.711 93.5H446.989L449.142 82.25H453.503Z" fill="#0B46A7"/>
<path d="M451.295 71L451.035 70.8499C451.089 70.7571 451.188 70.7 451.295 70.7C451.402 70.7 451.501 70.7571 451.555 70.8499L451.295 71ZM425.295 116V116.3H424.775L425.035 115.85L425.295 116ZM477.295 116L477.555 115.85L477.815 116.3H477.295V116ZM438.295 93.5L438.035 93.3499L438.035 93.3499L438.295 93.5ZM457.795 82.25L458.055 82.0999L458.055 82.0999L457.795 82.25ZM464.035 93.6501L457.535 82.4001L458.055 82.0999L464.555 93.3499L464.035 93.6501ZM457.535 82.4001L451.035 71.1501L451.555 70.8499L458.055 82.0999L457.535 82.4001ZM451.555 71.1501L445.055 82.4001L444.535 82.0999L451.035 70.8499L451.555 71.1501ZM445.055 82.4001L438.555 93.6501L438.035 93.3499L444.535 82.0999L445.055 82.4001ZM438.555 93.6501L432.055 104.9L431.535 104.6L438.035 93.3499L438.555 93.6501ZM432.055 104.9L425.555 116.15L425.035 115.85L431.535 104.6L432.055 104.9ZM477.035 116.15L470.535 104.9L471.055 104.6L477.555 115.85L477.035 116.15ZM470.535 104.9L464.035 93.6501L464.555 93.3499L471.055 104.6L470.535 104.9ZM425.295 115.7H442.682V116.3H425.295V115.7ZM442.682 115.7H451.295V116.3H442.682V115.7ZM451.295 115.7H460.126V116.3H451.295V115.7ZM460.126 115.7H477.295V116.3H460.126V115.7ZM457.795 82.55H453.503V81.95H457.795V82.55ZM453.208 82.3078L451.001 71.0578L451.589 70.9422L453.797 82.1922L453.208 82.3078ZM453.797 82.1922L456.005 93.4422L455.416 93.5578L453.208 82.3078L453.797 82.1922ZM455.711 93.2H464.295V93.8H455.711V93.2ZM455.711 93.8H446.989V93.2H455.711V93.8ZM446.694 93.4436L448.847 82.1936L449.436 82.3064L447.283 93.5564L446.694 93.4436ZM449.142 81.95H453.503V82.55H449.142V81.95ZM438.295 93.2H446.989V93.8H438.295V93.2ZM449.142 82.55H444.795V81.95H449.142V82.55ZM448.847 82.1936L451 70.9436L451.59 71.0564L449.436 82.3064L448.847 82.1936ZM447.283 93.5564L445.13 104.806L444.541 104.694L446.694 93.4436L447.283 93.5564ZM444.835 105.05H431.795V104.45H444.835V105.05ZM442.388 115.944L444.541 104.694L445.13 104.806L442.977 116.056L442.388 115.944ZM444.835 104.45H457.918V105.05H444.835V104.45ZM457.624 104.808L455.416 93.5578L456.005 93.4422L458.213 104.692L457.624 104.808ZM457.918 104.45H470.795V105.05H457.918V104.45ZM459.832 116.058L457.624 104.808L458.213 104.692L460.421 115.942L459.832 116.058Z" fill="#B3BFD8"/>
<path d="M451.295 132L457.795 143.25H453.503L451.295 132Z" fill="#0B46A7"/>
<path d="M451.295 132L453.503 143.25H449.142L451.295 132Z" fill="#0B46A7"/>
<path d="M457.795 143.25L464.295 154.5H455.711L453.503 143.25H457.795Z" fill="#0B46A7"/>
<path d="M453.503 143.25L455.711 154.5H446.989L449.142 143.25H453.503Z" fill="#0B46A7"/>
<path d="M446.989 154.5H455.711L457.918 165.75H444.835L446.989 154.5Z" fill="#0B46A7"/>
<path d="M464.295 154.5L470.795 165.75H457.918L455.711 154.5H464.295Z" fill="#0B46A7"/>
<path d="M451.295 132L451.035 131.85C451.089 131.757 451.188 131.7 451.295 131.7C451.402 131.7 451.501 131.757 451.555 131.85L451.295 132ZM425.295 177V177.3H424.775L425.035 176.85L425.295 177ZM477.295 177L477.555 176.85L477.815 177.3H477.295V177ZM438.295 154.5L438.035 154.35L438.035 154.35L438.295 154.5ZM457.795 143.25L458.055 143.1L458.055 143.1L457.795 143.25ZM464.035 154.65L457.535 143.4L458.055 143.1L464.555 154.35L464.035 154.65ZM457.535 143.4L451.035 132.15L451.555 131.85L458.055 143.1L457.535 143.4ZM451.555 132.15L445.055 143.4L444.535 143.1L451.035 131.85L451.555 132.15ZM445.055 143.4L438.555 154.65L438.035 154.35L444.535 143.1L445.055 143.4ZM438.555 154.65L432.055 165.9L431.535 165.6L438.035 154.35L438.555 154.65ZM432.055 165.9L425.555 177.15L425.035 176.85L431.535 165.6L432.055 165.9ZM477.035 177.15L470.535 165.9L471.055 165.6L477.555 176.85L477.035 177.15ZM470.535 165.9L464.035 154.65L464.555 154.35L471.055 165.6L470.535 165.9ZM425.295 176.7H442.682V177.3H425.295V176.7ZM442.682 176.7H451.295V177.3H442.682V176.7ZM451.295 176.7H460.126V177.3H451.295V176.7ZM460.126 176.7H477.295V177.3H460.126V176.7ZM457.795 143.55H453.503V142.95H457.795V143.55ZM453.208 143.308L451.001 132.058L451.589 131.942L453.797 143.192L453.208 143.308ZM453.797 143.192L456.005 154.442L455.416 154.558L453.208 143.308L453.797 143.192ZM455.711 154.2H464.295V154.8H455.711V154.2ZM455.711 154.8H446.989V154.2H455.711V154.8ZM446.694 154.444L448.847 143.194L449.436 143.306L447.283 154.556L446.694 154.444ZM449.142 142.95H453.503V143.55H449.142V142.95ZM438.295 154.2H446.989V154.8H438.295V154.2ZM449.142 143.55H444.795V142.95H449.142V143.55ZM448.847 143.194L451 131.944L451.59 132.056L449.436 143.306L448.847 143.194ZM447.283 154.556L445.13 165.806L444.541 165.694L446.694 154.444L447.283 154.556ZM444.835 166.05H431.795V165.45H444.835V166.05ZM442.388 176.944L444.541 165.694L445.13 165.806L442.977 177.056L442.388 176.944ZM444.835 165.45H457.918V166.05H444.835V165.45ZM457.624 165.808L455.416 154.558L456.005 154.442L458.213 165.692L457.624 165.808ZM457.918 165.45H470.795V166.05H457.918V165.45ZM459.832 177.058L457.624 165.808L458.213 165.692L460.421 176.942L459.832 177.058Z" fill="#B3BFD8"/>
<path d="M451.295 193L457.795 204.25H453.503L451.295 193Z" fill="#0B46A7"/>
<path d="M451.295 193L453.503 204.25H449.142L451.295 193Z" fill="#0B46A7"/>
<path d="M457.795 204.25L464.295 215.5H455.711L453.503 204.25H457.795Z" fill="#0B46A7"/>
<path d="M453.503 204.25L455.711 215.5H446.989L449.142 204.25H453.503Z" fill="#0B46A7"/>
<path d="M446.989 215.5H455.711L457.918 226.75H444.835L446.989 215.5Z" fill="#0B46A7"/>
<path d="M464.295 215.5L470.795 226.75H457.918L455.711 215.5H464.295Z" fill="#0B46A7"/>
<path d="M451.295 238H442.682L444.835 226.75H457.918L460.126 238H451.295Z" fill="#0B46A7"/>
<path d="M470.795 226.75L477.295 238H460.126L457.918 226.75H470.795Z" fill="#0B46A7"/>
<path d="M451.295 193L451.035 192.85C451.089 192.757 451.188 192.7 451.295 192.7C451.402 192.7 451.501 192.757 451.555 192.85L451.295 193ZM425.295 238V238.3H424.775L425.035 237.85L425.295 238ZM477.295 238L477.555 237.85L477.815 238.3H477.295V238ZM438.295 215.5L438.035 215.35L438.035 215.35L438.295 215.5ZM457.795 204.25L458.055 204.1L458.055 204.1L457.795 204.25ZM464.035 215.65L457.535 204.4L458.055 204.1L464.555 215.35L464.035 215.65ZM457.535 204.4L451.035 193.15L451.555 192.85L458.055 204.1L457.535 204.4ZM451.555 193.15L445.055 204.4L444.535 204.1L451.035 192.85L451.555 193.15ZM445.055 204.4L438.555 215.65L438.035 215.35L444.535 204.1L445.055 204.4ZM438.555 215.65L432.055 226.9L431.535 226.6L438.035 215.35L438.555 215.65ZM432.055 226.9L425.555 238.15L425.035 237.85L431.535 226.6L432.055 226.9ZM477.035 238.15L470.535 226.9L471.055 226.6L477.555 237.85L477.035 238.15ZM470.535 226.9L464.035 215.65L464.555 215.35L471.055 226.6L470.535 226.9ZM425.295 237.7H442.682V238.3H425.295V237.7ZM442.682 237.7H451.295V238.3H442.682V237.7ZM451.295 237.7H460.126V238.3H451.295V237.7ZM460.126 237.7H477.295V238.3H460.126V237.7ZM457.795 204.55H453.503V203.95H457.795V204.55ZM453.208 204.308L451.001 193.058L451.589 192.942L453.797 204.192L453.208 204.308ZM453.797 204.192L456.005 215.442L455.416 215.558L453.208 204.308L453.797 204.192ZM455.711 215.2H464.295V215.8H455.711V215.2ZM455.711 215.8H446.989V215.2H455.711V215.8ZM446.694 215.444L448.847 204.194L449.436 204.306L447.283 215.556L446.694 215.444ZM449.142 203.95H453.503V204.55H449.142V203.95ZM438.295 215.2H446.989V215.8H438.295V215.2ZM449.142 204.55H444.795V203.95H449.142V204.55ZM448.847 204.194L451 192.944L451.59 193.056L449.436 204.306L448.847 204.194ZM447.283 215.556L445.13 226.806L444.541 226.694L446.694 215.444L447.283 215.556ZM444.835 227.05H431.795V226.45H444.835V227.05ZM442.388 237.944L444.541 226.694L445.13 226.806L442.977 238.056L442.388 237.944ZM444.835 226.45H457.918V227.05H444.835V226.45ZM457.624 226.808L455.416 215.558L456.005 215.442L458.213 226.692L457.624 226.808ZM457.918 226.45H470.795V227.05H457.918V226.45ZM459.832 238.058L457.624 226.808L458.213 226.692L460.421 237.942L459.832 238.058Z" fill="#B3BFD8"/>
<path d="M323.17 143.25L316.795 132L318.907 143.25H323.17Z" fill="#0B46A7"/>
<path d="M329.545 154.5L323.17 143.25H318.907L321.018 154.5H329.545Z" fill="#0B46A7"/>
<path d="M335.92 165.75L329.545 154.5H321.018L323.13 165.75H335.92Z" fill="#0B46A7"/>
<path d="M316.795 132L317.056 131.852C317.003 131.758 316.903 131.7 316.795 131.7C316.687 131.7 316.587 131.758 316.534 131.852L316.795 132ZM342.295 177V177.3H342.81L342.556 176.852L342.295 177ZM291.295 177L291.034 176.852L290.78 177.3H291.295V177ZM329.545 154.5L329.806 154.352L329.806 154.352L329.545 154.5ZM310.42 143.25L310.159 143.102L310.159 143.102L310.42 143.25ZM304.306 154.648L310.681 143.398L310.159 143.102L303.784 154.352L304.306 154.648ZM310.681 143.398L317.056 132.148L316.534 131.852L310.159 143.102L310.681 143.398ZM316.534 132.148L322.909 143.398L323.431 143.102L317.056 131.852L316.534 132.148ZM322.909 143.398L329.284 154.648L329.806 154.352L323.431 143.102L322.909 143.398ZM329.284 154.648L335.659 165.898L336.181 165.602L329.806 154.352L329.284 154.648ZM335.659 165.898L342.034 177.148L342.556 176.852L336.181 165.602L335.659 165.898ZM291.556 177.148L297.931 165.898L297.409 165.602L291.034 176.852L291.556 177.148ZM297.931 165.898L304.306 154.648L303.784 154.352L297.409 165.602L297.931 165.898ZM342.295 176.7H325.242V177.3H342.295V176.7ZM325.242 176.7H316.795V177.3H325.242V176.7ZM316.795 176.7H308.133V177.3H316.795V176.7ZM308.133 176.7H291.295V177.3H308.133V176.7ZM310.42 143.55H314.63V142.95H310.42V143.55ZM314.924 143.307L317.09 132.057L316.5 131.943L314.335 143.193L314.924 143.307ZM314.335 143.193L312.17 154.443L312.759 154.557L314.924 143.307L314.335 143.193ZM312.464 154.2H304.045V154.8H312.464V154.2ZM312.464 154.8H321.018V154.2H312.464V154.8ZM321.313 154.445L319.202 143.195L318.612 143.305L320.724 154.555L321.313 154.445ZM318.907 142.95H314.63V143.55H318.907V142.95ZM329.545 154.2H321.018V154.8H329.545V154.2ZM318.907 143.55H323.17V142.95H318.907V143.55ZM319.202 143.195L317.09 131.945L316.5 132.055L318.612 143.305L319.202 143.195ZM320.724 154.555L322.835 165.805L323.425 165.695L321.313 154.445L320.724 154.555ZM323.13 166.05H335.92V165.45H323.13V166.05ZM325.537 176.945L323.425 165.695L322.835 165.805L324.947 177.055L325.537 176.945ZM323.13 165.45H310.299V166.05H323.13V165.45ZM310.593 165.807L312.759 154.557L312.17 154.443L310.004 165.693L310.593 165.807ZM310.299 165.45H297.67V166.05H310.299V165.45ZM308.428 177.057L310.593 165.807L310.004 165.693L307.839 176.943L308.428 177.057Z" fill="#B3BFD8"/>
<path d="M249.295 132L247.087 143.25H251.448L249.295 132Z" fill="#0B46A7"/>
<path d="M247.087 143.25L244.879 154.5H253.601L251.448 143.25H247.087Z" fill="#0B46A7"/>
<path d="M253.601 154.5H244.879L242.671 165.75H255.754L253.601 154.5Z" fill="#0B46A7"/>
<path d="M249.295 132L249.555 131.85C249.501 131.757 249.402 131.7 249.295 131.7C249.188 131.7 249.089 131.757 249.035 131.85L249.295 132ZM275.295 177V177.3H275.815L275.555 176.85L275.295 177ZM223.295 177L223.035 176.85L222.775 177.3H223.295V177ZM262.295 154.5L262.555 154.35L262.555 154.35L262.295 154.5ZM242.795 143.25L242.535 143.1L242.535 143.1L242.795 143.25ZM236.555 154.65L243.055 143.4L242.535 143.1L236.035 154.35L236.555 154.65ZM243.055 143.4L249.555 132.15L249.035 131.85L242.535 143.1L243.055 143.4ZM249.035 132.15L255.535 143.4L256.055 143.1L249.555 131.85L249.035 132.15ZM255.535 143.4L262.035 154.65L262.555 154.35L256.055 143.1L255.535 143.4ZM262.035 154.65L268.535 165.9L269.055 165.6L262.555 154.35L262.035 154.65ZM268.535 165.9L275.035 177.15L275.555 176.85L269.055 165.6L268.535 165.9ZM223.555 177.15L230.055 165.9L229.535 165.6L223.035 176.85L223.555 177.15ZM230.055 165.9L236.555 154.65L236.035 154.35L229.535 165.6L230.055 165.9ZM275.295 176.7H257.908V177.3H275.295V176.7ZM257.908 176.7H249.295V177.3H257.908V176.7ZM249.295 176.7H240.464V177.3H249.295V176.7ZM240.464 176.7H223.295V177.3H240.464V176.7ZM242.795 143.55H247.087V142.95H242.795V143.55ZM247.381 143.308L249.589 132.058L249.001 131.942L246.793 143.192L247.381 143.308ZM246.793 143.192L244.585 154.442L245.174 154.558L247.381 143.308L246.793 143.192ZM244.879 154.2H236.295V154.8H244.879V154.2ZM244.879 154.8H253.601V154.2H244.879V154.8ZM253.896 154.444L251.743 143.194L251.153 143.306L253.307 154.556L253.896 154.444ZM251.448 142.95H247.087V143.55H251.448V142.95ZM262.295 154.2H253.601V154.8H262.295V154.2ZM251.448 143.55H255.795V142.95H251.448V143.55ZM251.743 143.194L249.59 131.944L249 132.056L251.153 143.306L251.743 143.194ZM253.307 154.556L255.46 165.806L256.049 165.694L253.896 154.444L253.307 154.556ZM255.754 166.05H268.795V165.45H255.754V166.05ZM258.202 176.944L256.049 165.694L255.46 165.806L257.613 177.056L258.202 176.944ZM255.754 165.45H242.671V166.05H255.754V165.45ZM242.966 165.808L245.174 154.558L244.585 154.442L242.377 165.692L242.966 165.808ZM242.671 165.45H229.795V166.05H242.671V165.45ZM240.758 177.058L242.966 165.808L242.377 165.692L240.169 176.942L240.758 177.058Z" fill="#B3BFD8"/>
<path d="M182.295 193L175.795 204.25H180.087L182.295 193Z" fill="#0B46A7"/>
<path d="M175.795 204.25L169.295 215.5H177.879L180.087 204.25H175.795Z" fill="#0B46A7"/>
<path d="M169.295 215.5L162.795 226.75H175.671L177.879 215.5H169.295Z" fill="#0B46A7"/>
<path d="M162.795 226.75L156.295 238H173.464L175.671 226.75H162.795Z" fill="#0B46A7"/>
<path d="M182.295 193L182.555 192.85C182.501 192.757 182.402 192.7 182.295 192.7C182.188 192.7 182.089 192.757 182.035 192.85L182.295 193ZM208.295 238V238.3H208.815L208.555 237.85L208.295 238ZM156.295 238L156.035 237.85L155.775 238.3H156.295V238ZM195.295 215.5L195.555 215.35L195.555 215.35L195.295 215.5ZM175.795 204.25L175.535 204.1L175.535 204.1L175.795 204.25ZM169.555 215.65L176.055 204.4L175.535 204.1L169.035 215.35L169.555 215.65ZM176.055 204.4L182.555 193.15L182.035 192.85L175.535 204.1L176.055 204.4ZM182.035 193.15L188.535 204.4L189.055 204.1L182.555 192.85L182.035 193.15ZM188.535 204.4L195.035 215.65L195.555 215.35L189.055 204.1L188.535 204.4ZM195.035 215.65L201.535 226.9L202.055 226.6L195.555 215.35L195.035 215.65ZM201.535 226.9L208.035 238.15L208.555 237.85L202.055 226.6L201.535 226.9ZM156.555 238.15L163.055 226.9L162.535 226.6L156.035 237.85L156.555 238.15ZM163.055 226.9L169.555 215.65L169.035 215.35L162.535 226.6L163.055 226.9ZM208.295 237.7H190.908V238.3H208.295V237.7ZM190.908 237.7H182.295V238.3H190.908V237.7ZM182.295 237.7H173.464V238.3H182.295V237.7ZM173.464 237.7H156.295V238.3H173.464V237.7ZM175.795 204.55H180.087V203.95H175.795V204.55ZM180.381 204.308L182.589 193.058L182.001 192.942L179.793 204.192L180.381 204.308ZM179.793 204.192L177.585 215.442L178.174 215.558L180.381 204.308L179.793 204.192ZM177.879 215.2H169.295V215.8H177.879V215.2ZM177.879 215.8H186.601V215.2H177.879V215.8ZM186.896 215.444L184.743 204.194L184.153 204.306L186.307 215.556L186.896 215.444ZM184.448 203.95H180.087V204.55H184.448V203.95ZM195.295 215.2H186.601V215.8H195.295V215.2ZM184.448 204.55H188.795V203.95H184.448V204.55ZM184.743 204.194L182.59 192.944L182 193.056L184.153 204.306L184.743 204.194ZM186.307 215.556L188.46 226.806L189.049 226.694L186.896 215.444L186.307 215.556ZM188.754 227.05H201.795V226.45H188.754V227.05ZM191.202 237.944L189.049 226.694L188.46 226.806L190.613 238.056L191.202 237.944ZM188.754 226.45H175.671V227.05H188.754V226.45ZM175.966 226.808L178.174 215.558L177.585 215.442L175.377 226.692L175.966 226.808ZM175.671 226.45H162.795V227.05H175.671V226.45ZM173.758 238.058L175.966 226.808L175.377 226.692L173.169 237.942L173.758 238.058Z" fill="#B3BFD8"/>
<path d="M517.795 193L511.42 204.25H515.63L517.795 193Z" fill="#0B46A7"/>
<path d="M517.795 193L515.63 204.25H519.907L517.795 193Z" fill="#0B46A7"/>
<path d="M524.17 204.25L517.795 193L519.907 204.25H524.17Z" fill="#0B46A7"/>
<path d="M511.42 204.25L505.045 215.5H513.464L515.63 204.25H511.42Z" fill="#0B46A7"/>
<path d="M515.63 204.25L513.464 215.5H522.018L519.907 204.25H515.63Z" fill="#0B46A7"/>
<path d="M530.545 215.5L524.17 204.25H519.907L522.018 215.5H530.545Z" fill="#0B46A7"/>
<path d="M522.018 215.5H513.464L511.299 226.75H524.13L522.018 215.5Z" fill="#0B46A7"/>
<path d="M505.045 215.5L498.67 226.75H511.299L513.464 215.5H505.045Z" fill="#0B46A7"/>
<path d="M536.92 226.75L530.545 215.5H522.018L524.13 226.75H536.92Z" fill="#0B46A7"/>
<path d="M543.295 238L536.92 226.75H524.13L526.242 238H543.295Z" fill="#0B46A7"/>
<path d="M517.795 238H526.242L524.13 226.75H511.299L509.133 238H517.795Z" fill="#0B46A7"/>
<path d="M498.67 226.75L492.295 238H509.133L511.299 226.75H498.67Z" fill="#0B46A7"/>
<path d="M517.795 193L518.056 192.852C518.003 192.758 517.903 192.7 517.795 192.7C517.687 192.7 517.587 192.758 517.534 192.852L517.795 193ZM543.295 238V238.3H543.81L543.556 237.852L543.295 238ZM492.295 238L492.034 237.852L491.78 238.3H492.295V238ZM530.545 215.5L530.806 215.352L530.806 215.352L530.545 215.5ZM511.42 204.25L511.159 204.102L511.159 204.102L511.42 204.25ZM505.306 215.648L511.681 204.398L511.159 204.102L504.784 215.352L505.306 215.648ZM511.681 204.398L518.056 193.148L517.534 192.852L511.159 204.102L511.681 204.398ZM517.534 193.148L523.909 204.398L524.431 204.102L518.056 192.852L517.534 193.148ZM523.909 204.398L530.284 215.648L530.806 215.352L524.431 204.102L523.909 204.398ZM530.284 215.648L536.659 226.898L537.181 226.602L530.806 215.352L530.284 215.648ZM536.659 226.898L543.034 238.148L543.556 237.852L537.181 226.602L536.659 226.898ZM492.556 238.148L498.931 226.898L498.409 226.602L492.034 237.852L492.556 238.148ZM498.931 226.898L505.306 215.648L504.784 215.352L498.409 226.602L498.931 226.898ZM543.295 237.7H526.242V238.3H543.295V237.7ZM526.242 237.7H517.795V238.3H526.242V237.7ZM517.795 237.7H509.133V238.3H517.795V237.7ZM509.133 237.7H492.295V238.3H509.133V237.7ZM511.42 204.55H515.63V203.95H511.42V204.55ZM515.924 204.307L518.09 193.057L517.5 192.943L515.335 204.193L515.924 204.307ZM515.335 204.193L513.17 215.443L513.759 215.557L515.924 204.307L515.335 204.193ZM513.464 215.2H505.045V215.8H513.464V215.2ZM513.464 215.8H522.018V215.2H513.464V215.8ZM522.313 215.445L520.202 204.195L519.612 204.305L521.724 215.555L522.313 215.445ZM519.907 203.95H515.63V204.55H519.907V203.95ZM530.545 215.2H522.018V215.8H530.545V215.2ZM519.907 204.55H524.17V203.95H519.907V204.55ZM520.202 204.195L518.09 192.945L517.5 193.055L519.612 204.305L520.202 204.195ZM521.724 215.555L523.835 226.805L524.425 226.695L522.313 215.445L521.724 215.555ZM524.13 227.05H536.92V226.45H524.13V227.05ZM526.537 237.945L524.425 226.695L523.835 226.805L525.947 238.055L526.537 237.945ZM524.13 226.45H511.299V227.05H524.13V226.45ZM511.593 226.807L513.759 215.557L513.17 215.443L511.004 226.693L511.593 226.807ZM511.299 226.45H498.67V227.05H511.299V226.45ZM509.428 238.057L511.593 226.807L511.004 226.693L508.839 237.943L509.428 238.057Z" fill="#B3BFD8"/>
<path d="M323.17 204.25L316.795 193L318.907 204.25H323.17Z" fill="#0B46A7"/>
<path d="M329.545 215.5L323.17 204.25H318.907L321.018 215.5H329.545Z" fill="#0B46A7"/>
<path d="M335.92 226.75L329.545 215.5H321.018L323.13 226.75H335.92Z" fill="#0B46A7"/>
<path d="M342.295 238L335.92 226.75H323.13L325.242 238H342.295Z" fill="#0B46A7"/>
<path d="M316.795 193L317.056 192.852C317.003 192.758 316.903 192.7 316.795 192.7C316.687 192.7 316.587 192.758 316.534 192.852L316.795 193ZM342.295 238V238.3H342.81L342.556 237.852L342.295 238ZM291.295 238L291.034 237.852L290.78 238.3H291.295V238ZM329.545 215.5L329.806 215.352L329.806 215.352L329.545 215.5ZM310.42 204.25L310.159 204.102L310.159 204.102L310.42 204.25ZM304.306 215.648L310.681 204.398L310.159 204.102L303.784 215.352L304.306 215.648ZM310.681 204.398L317.056 193.148L316.534 192.852L310.159 204.102L310.681 204.398ZM316.534 193.148L322.909 204.398L323.431 204.102L317.056 192.852L316.534 193.148ZM322.909 204.398L329.284 215.648L329.806 215.352L323.431 204.102L322.909 204.398ZM329.284 215.648L335.659 226.898L336.181 226.602L329.806 215.352L329.284 215.648ZM335.659 226.898L342.034 238.148L342.556 237.852L336.181 226.602L335.659 226.898ZM291.556 238.148L297.931 226.898L297.409 226.602L291.034 237.852L291.556 238.148ZM297.931 226.898L304.306 215.648L303.784 215.352L297.409 226.602L297.931 226.898ZM342.295 237.7H325.242V238.3H342.295V237.7ZM325.242 237.7H316.795V238.3H325.242V237.7ZM316.795 237.7H308.133V238.3H316.795V237.7ZM308.133 237.7H291.295V238.3H308.133V237.7ZM310.42 204.55H314.63V203.95H310.42V204.55ZM314.924 204.307L317.09 193.057L316.5 192.943L314.335 204.193L314.924 204.307ZM314.335 204.193L312.17 215.443L312.759 215.557L314.924 204.307L314.335 204.193ZM312.464 215.2H304.045V215.8H312.464V215.2ZM312.464 215.8H321.018V215.2H312.464V215.8ZM321.313 215.445L319.202 204.195L318.612 204.305L320.724 215.555L321.313 215.445ZM318.907 203.95H314.63V204.55H318.907V203.95ZM329.545 215.2H321.018V215.8H329.545V215.2ZM318.907 204.55H323.17V203.95H318.907V204.55ZM319.202 204.195L317.09 192.945L316.5 193.055L318.612 204.305L319.202 204.195ZM320.724 215.555L322.835 226.805L323.425 226.695L321.313 215.445L320.724 215.555ZM323.13 227.05H335.92V226.45H323.13V227.05ZM325.537 237.945L323.425 226.695L322.835 226.805L324.947 238.055L325.537 237.945ZM323.13 226.45H310.299V227.05H323.13V226.45ZM310.593 226.807L312.759 215.557L312.17 215.443L310.004 226.693L310.593 226.807ZM310.299 226.45H297.67V227.05H310.299V226.45ZM308.428 238.057L310.593 226.807L310.004 226.693L307.839 237.943L308.428 238.057Z" fill="#B3BFD8"/>
<path d="M249.295 193L247.087 204.25H251.448L249.295 193Z" fill="#0B46A7"/>
<path d="M247.087 204.25L244.879 215.5H253.601L251.448 204.25H247.087Z" fill="#0B46A7"/>
<path d="M253.601 215.5H244.879L242.671 226.75H255.754L253.601 215.5Z" fill="#0B46A7"/>
<path d="M249.295 238H257.908L255.754 226.75H242.671L240.464 238H249.295Z" fill="#0B46A7"/>
<path d="M249.295 193L249.555 192.85C249.501 192.757 249.402 192.7 249.295 192.7C249.188 192.7 249.089 192.757 249.035 192.85L249.295 193ZM275.295 238V238.3H275.815L275.555 237.85L275.295 238ZM223.295 238L223.035 237.85L222.775 238.3H223.295V238ZM262.295 215.5L262.555 215.35L262.555 215.35L262.295 215.5ZM242.795 204.25L242.535 204.1L242.535 204.1L242.795 204.25ZM236.555 215.65L243.055 204.4L242.535 204.1L236.035 215.35L236.555 215.65ZM243.055 204.4L249.555 193.15L249.035 192.85L242.535 204.1L243.055 204.4ZM249.035 193.15L255.535 204.4L256.055 204.1L249.555 192.85L249.035 193.15ZM255.535 204.4L262.035 215.65L262.555 215.35L256.055 204.1L255.535 204.4ZM262.035 215.65L268.535 226.9L269.055 226.6L262.555 215.35L262.035 215.65ZM268.535 226.9L275.035 238.15L275.555 237.85L269.055 226.6L268.535 226.9ZM223.555 238.15L230.055 226.9L229.535 226.6L223.035 237.85L223.555 238.15ZM230.055 226.9L236.555 215.65L236.035 215.35L229.535 226.6L230.055 226.9ZM275.295 237.7H257.908V238.3H275.295V237.7ZM257.908 237.7H249.295V238.3H257.908V237.7ZM249.295 237.7H240.464V238.3H249.295V237.7ZM240.464 237.7H223.295V238.3H240.464V237.7ZM242.795 204.55H247.087V203.95H242.795V204.55ZM247.381 204.308L249.589 193.058L249.001 192.942L246.793 204.192L247.381 204.308ZM246.793 204.192L244.585 215.442L245.174 215.558L247.381 204.308L246.793 204.192ZM244.879 215.2H236.295V215.8H244.879V215.2ZM244.879 215.8H253.601V215.2H244.879V215.8ZM253.896 215.444L251.743 204.194L251.153 204.306L253.307 215.556L253.896 215.444ZM251.448 203.95H247.087V204.55H251.448V203.95ZM262.295 215.2H253.601V215.8H262.295V215.2ZM251.448 204.55H255.795V203.95H251.448V204.55ZM251.743 204.194L249.59 192.944L249 193.056L251.153 204.306L251.743 204.194ZM253.307 215.556L255.46 226.806L256.049 226.694L253.896 215.444L253.307 215.556ZM255.754 227.05H268.795V226.45H255.754V227.05ZM258.202 237.944L256.049 226.694L255.46 226.806L257.613 238.056L258.202 237.944ZM255.754 226.45H242.671V227.05H255.754V226.45ZM242.966 226.808L245.174 215.558L244.585 215.442L242.377 226.692L242.966 226.808ZM242.671 226.45H229.795V227.05H242.671V226.45ZM240.758 238.058L242.966 226.808L242.377 226.692L240.169 237.942L240.758 238.058Z" fill="#B3BFD8"/>
</svg>
