<svg width="701" height="205" viewBox="0 0 701 205" fill="none" xmlns="http://www.w3.org/2000/svg">
<rect width="700" height="204" transform="translate(0.294922 0.5)" fill="#0A0D12"/>
<path d="M93.7949 18.5L83.9199 35.75H90.4407L93.7949 18.5Z" fill="#0B46A7"/>
<path d="M93.7949 18.5L94.2288 18.2516C94.1398 18.096 93.9742 18 93.7949 18C93.6156 18 93.4501 18.096 93.361 18.2516L93.7949 18.5ZM133.295 87.5V88H134.157L133.729 87.2516L133.295 87.5ZM54.2949 87.5L53.861 87.2516L53.4326 88H54.2949V87.5ZM113.545 53L113.979 52.7516L113.979 52.7516L113.545 53ZM83.9199 35.75L83.486 35.5016L83.486 35.5016L83.9199 35.75ZM74.4788 53.2484L84.3538 35.9984L83.486 35.5016L73.611 52.7516L74.4788 53.2484ZM84.3538 35.9984L94.2288 18.7484L93.361 18.2516L83.486 35.5016L84.3538 35.9984ZM93.361 18.7484L103.236 35.9984L104.104 35.5016L94.2288 18.2516L93.361 18.7484ZM103.236 35.9984L113.111 53.2484L113.979 52.7516L104.104 35.5016L103.236 35.9984ZM113.111 53.2484L122.986 70.4984L123.854 70.0016L113.979 52.7516L113.111 53.2484ZM122.986 70.4984L132.861 87.7484L133.729 87.2516L123.854 70.0016L122.986 70.4984ZM54.7288 87.7484L64.6038 70.4984L63.736 70.0016L53.861 87.2516L54.7288 87.7484ZM64.6038 70.4984L74.4788 53.2484L73.611 52.7516L63.736 70.0016L64.6038 70.4984ZM133.295 87H106.88V88H133.295V87ZM106.88 87H93.7949V88H106.88V87ZM93.7949 87H80.3781V88H93.7949V87ZM80.3781 87H54.2949V88H80.3781V87ZM83.9199 36.25H90.4407V35.25H83.9199V36.25ZM90.9315 35.8454L94.2857 18.5954L93.3041 18.4046L89.9499 35.6546L90.9315 35.8454ZM89.9499 35.6546L86.5957 52.9046L87.5773 53.0954L90.9315 35.8454L89.9499 35.6546ZM87.0865 52.5H74.0449V53.5H87.0865V52.5ZM87.0865 53.5H100.337V52.5H87.0865V53.5ZM100.829 52.9068L97.5574 35.6568L96.5749 35.8432L99.8461 53.0932L100.829 52.9068ZM97.0661 35.25H90.4407V36.25H97.0661V35.25ZM113.545 52.5H100.337V53.5H113.545V52.5ZM97.0661 36.25H103.67V35.25H97.0661V36.25ZM97.5574 35.6568L94.2862 18.4068L93.3037 18.5932L96.5749 35.8432L97.5574 35.6568ZM99.8461 53.0932L103.117 70.3432L104.1 70.1568L100.829 52.9068L99.8461 53.0932ZM103.609 70.75H123.42V69.75H103.609V70.75ZM107.371 87.4068L104.1 70.1568L103.117 70.3432L106.388 87.5932L107.371 87.4068ZM103.609 69.75H83.7323V70.75H103.609V69.75ZM84.2231 70.3454L87.5773 53.0954L86.5957 52.9046L83.2415 70.1546L84.2231 70.3454ZM83.7323 69.75H64.1699V70.75H83.7323V69.75ZM80.8689 87.5954L84.2231 70.3454L83.2415 70.1546L79.8873 87.4046L80.8689 87.5954Z" fill="#B3BFD8"/>
<path d="M309.045 35.75L299.295 18.5L302.525 35.75H309.045Z" fill="#0B46A7"/>
<path d="M299.295 18.5L299.73 18.254C299.642 18.097 299.475 18 299.295 18C299.115 18 298.948 18.097 298.86 18.254L299.295 18.5ZM338.295 87.5V88H339.152L338.73 87.254L338.295 87.5ZM260.295 87.5L259.86 87.254L259.438 88H260.295V87.5ZM318.795 53L319.23 52.754L319.23 52.754L318.795 53ZM289.545 35.75L289.11 35.504L289.11 35.504L289.545 35.75ZM280.23 53.246L289.98 35.996L289.11 35.504L279.36 52.754L280.23 53.246ZM289.98 35.996L299.73 18.746L298.86 18.254L289.11 35.504L289.98 35.996ZM298.86 18.746L308.61 35.996L309.48 35.504L299.73 18.254L298.86 18.746ZM308.61 35.996L318.36 53.246L319.23 52.754L309.48 35.504L308.61 35.996ZM318.36 53.246L328.11 70.496L328.98 70.004L319.23 52.754L318.36 53.246ZM328.11 70.496L337.86 87.746L338.73 87.254L328.98 70.004L328.11 70.496ZM260.73 87.746L270.48 70.496L269.61 70.004L259.86 87.254L260.73 87.746ZM270.48 70.496L280.23 53.246L279.36 52.754L269.61 70.004L270.48 70.496ZM338.295 87H312.214V88H338.295V87ZM312.214 87H299.295V88H312.214V87ZM299.295 87H286.048V88H299.295V87ZM286.048 87H260.295V88H286.048V87ZM289.545 36.25H295.983V35.25H289.545V36.25ZM296.474 35.8443L299.786 18.5943L298.804 18.4057L295.492 35.6557L296.474 35.8443ZM295.492 35.6557L292.18 52.9057L293.162 53.0943L296.474 35.8443L295.492 35.6557ZM292.671 52.5H279.795V53.5H292.671V52.5ZM292.671 53.5H305.754V52.5H292.671V53.5ZM306.246 52.908L303.016 35.658L302.033 35.842L305.263 53.092L306.246 52.908ZM302.525 35.25H295.983V36.25H302.525V35.25ZM318.795 52.5H305.754V53.5H318.795V52.5ZM302.525 36.25H309.045V35.25H302.525V36.25ZM303.016 35.658L299.786 18.408L298.803 18.592L302.033 35.842L303.016 35.658ZM305.263 53.092L308.493 70.342L309.476 70.158L306.246 52.908L305.263 53.092ZM308.984 70.75H328.545V69.75H308.984V70.75ZM312.706 87.408L309.476 70.158L308.493 70.342L311.723 87.592L312.706 87.408ZM308.984 69.75H289.36V70.75H308.984V69.75ZM289.851 70.3443L293.162 53.0943L292.18 52.9057L288.869 70.1557L289.851 70.3443ZM289.36 69.75H270.045V70.75H289.36V69.75ZM286.539 87.5943L289.851 70.3443L288.869 70.1557L285.557 87.4057L286.539 87.5943Z" fill="#B3BFD8"/>
<path d="M195.795 18.5L192.441 35.75H199.066L195.795 18.5Z" fill="#0B46A7"/>
<path d="M195.795 18.5L196.229 18.2516C196.14 18.096 195.974 18 195.795 18C195.616 18 195.45 18.096 195.361 18.2516L195.795 18.5ZM235.295 87.5V88H236.157L235.729 87.2516L235.295 87.5ZM156.295 87.5L155.861 87.2516L155.433 88H156.295V87.5ZM215.545 53L215.979 52.7516L215.979 52.7516L215.545 53ZM185.92 35.75L185.486 35.5016L185.486 35.5016L185.92 35.75ZM176.479 53.2484L186.354 35.9984L185.486 35.5016L175.611 52.7516L176.479 53.2484ZM186.354 35.9984L196.229 18.7484L195.361 18.2516L185.486 35.5016L186.354 35.9984ZM195.361 18.7484L205.236 35.9984L206.104 35.5016L196.229 18.2516L195.361 18.7484ZM205.236 35.9984L215.111 53.2484L215.979 52.7516L206.104 35.5016L205.236 35.9984ZM215.111 53.2484L224.986 70.4984L225.854 70.0016L215.979 52.7516L215.111 53.2484ZM224.986 70.4984L234.861 87.7484L235.729 87.2516L225.854 70.0016L224.986 70.4984ZM156.729 87.7484L166.604 70.4984L165.736 70.0016L155.861 87.2516L156.729 87.7484ZM166.604 70.4984L176.479 53.2484L175.611 52.7516L165.736 70.0016L166.604 70.4984ZM235.295 87H208.88V88H235.295V87ZM208.88 87H195.795V88H208.88V87ZM195.795 87H182.378V88H195.795V87ZM182.378 87H156.295V88H182.378V87ZM185.92 36.25H192.441V35.25H185.92V36.25ZM192.932 35.8454L196.286 18.5954L195.304 18.4046L191.95 35.6546L192.932 35.8454ZM191.95 35.6546L188.596 52.9046L189.577 53.0954L192.932 35.8454L191.95 35.6546ZM189.087 52.5H176.045V53.5H189.087V52.5ZM189.087 53.5H202.337V52.5H189.087V53.5ZM202.829 52.9068L199.557 35.6568L198.575 35.8432L201.846 53.0932L202.829 52.9068ZM199.066 35.25H192.441V36.25H199.066V35.25ZM215.545 52.5H202.337V53.5H215.545V52.5ZM199.066 36.25H205.67V35.25H199.066V36.25ZM199.557 35.6568L196.286 18.4068L195.304 18.5932L198.575 35.8432L199.557 35.6568ZM201.846 53.0932L205.117 70.3432L206.1 70.1568L202.829 52.9068L201.846 53.0932ZM205.609 70.75H225.42V69.75H205.609V70.75ZM209.371 87.4068L206.1 70.1568L205.117 70.3432L208.388 87.5932L209.371 87.4068ZM205.609 69.75H185.732V70.75H205.609V69.75ZM186.223 70.3454L189.577 53.0954L188.596 52.9046L185.241 70.1546L186.223 70.3454ZM185.732 69.75H166.17V70.75H185.732V69.75ZM182.869 87.5954L186.223 70.3454L185.241 70.1546L181.887 87.4046L182.869 87.5954Z" fill="#B3BFD8"/>
<path d="M392.295 35.75L382.295 53H395.502L398.898 35.75H392.295Z" fill="#0B46A7"/>
<path d="M402.295 18.5L402.727 18.2492C402.638 18.095 402.473 18 402.295 18C402.117 18 401.952 18.095 401.862 18.2492L402.295 18.5ZM442.295 87.5V88H443.163L442.727 87.2492L442.295 87.5ZM362.295 87.5L361.862 87.2492L361.427 88H362.295V87.5ZM392.295 35.75L391.862 35.4992L391.862 35.4992L392.295 35.75ZM412.295 35.75L412.727 35.4992L412.727 35.4992L412.295 35.75ZM382.727 53.2508L392.727 36.0008L391.862 35.4992L381.862 52.7492L382.727 53.2508ZM392.727 36.0008L402.727 18.7508L401.862 18.2492L391.862 35.4992L392.727 36.0008ZM401.862 18.7508L411.862 36.0008L412.727 35.4992L402.727 18.2492L401.862 18.7508ZM411.862 36.0008L421.862 53.2508L422.727 52.7492L412.727 35.4992L411.862 36.0008ZM421.862 53.2508L431.862 70.5008L432.727 69.9992L422.727 52.7492L421.862 53.2508ZM431.862 70.5008L441.862 87.7508L442.727 87.2492L432.727 69.9992L431.862 70.5008ZM362.727 87.7508L372.727 70.5008L371.862 69.9992L361.862 87.2492L362.727 87.7508ZM372.727 70.5008L382.727 53.2508L381.862 52.7492L371.862 69.9992L372.727 70.5008ZM442.295 87H415.545V88H442.295V87ZM415.545 87H402.295V88H415.545V87ZM402.295 87H388.708V88H402.295V87ZM388.708 87H362.295V88H388.708V87ZM392.295 36.25H398.898V35.25H392.295V36.25ZM399.389 35.8466L402.786 18.5966L401.804 18.4034L398.408 35.6534L399.389 35.8466ZM398.408 35.6534L395.011 52.9034L395.992 53.0966L399.389 35.8466L398.408 35.6534ZM395.502 52.5H382.295V53.5H395.502V52.5ZM395.502 53.5H408.92V52.5H395.502V53.5ZM409.411 52.9057L406.099 35.6557L405.116 35.8443L408.429 53.0943L409.411 52.9057ZM405.608 35.25H398.898V36.25H405.608V35.25ZM422.295 52.5H408.92V53.5H422.295V52.5ZM405.608 36.25H412.295V35.25H405.608V36.25ZM406.099 35.6557L402.786 18.4057L401.804 18.5943L405.116 35.8443L406.099 35.6557ZM408.429 53.0943L411.742 70.3443L412.724 70.1557L409.411 52.9057L408.429 53.0943ZM412.233 70.75H432.295V69.75H412.233V70.75ZM416.036 87.4057L412.724 70.1557L411.742 70.3443L415.054 87.5943L416.036 87.4057ZM412.233 69.75H392.105V70.75H412.233V69.75ZM392.596 70.3466L395.992 53.0966L395.011 52.9034L391.614 70.1534L392.596 70.3466ZM392.105 69.75H372.295V70.75H392.105V69.75ZM389.199 87.5966L392.596 70.3466L391.614 70.1534L388.218 87.4034L389.199 87.5966Z" fill="#B3BFD8"/>
<path d="M626.795 53L617.045 35.75H610.525L613.754 53H626.795Z" fill="#0B46A7"/>
<path d="M607.295 18.5L607.73 18.254C607.642 18.097 607.475 18 607.295 18C607.115 18 606.948 18.097 606.86 18.254L607.295 18.5ZM646.295 87.5V88H647.152L646.73 87.254L646.295 87.5ZM568.295 87.5L567.86 87.254L567.438 88H568.295V87.5ZM626.795 53L627.23 52.754L627.23 52.754L626.795 53ZM588.23 53.246L597.98 35.996L597.11 35.504L587.36 52.754L588.23 53.246ZM597.98 35.996L607.73 18.746L606.86 18.254L597.11 35.504L597.98 35.996ZM606.86 18.746L616.61 35.996L617.48 35.504L607.73 18.254L606.86 18.746ZM616.61 35.996L626.36 53.246L627.23 52.754L617.48 35.504L616.61 35.996ZM626.36 53.246L636.11 70.496L636.98 70.004L627.23 52.754L626.36 53.246ZM636.11 70.496L645.86 87.746L646.73 87.254L636.98 70.004L636.11 70.496ZM568.73 87.746L578.48 70.496L577.61 70.004L567.86 87.254L568.73 87.746ZM578.48 70.496L588.23 53.246L587.36 52.754L577.61 70.004L578.48 70.496ZM646.295 87H620.214V88H646.295V87ZM620.214 87H607.295V88H620.214V87ZM607.295 87H594.048V88H607.295V87ZM594.048 87H568.295V88H594.048V87ZM597.545 36.25H603.983V35.25H597.545V36.25ZM604.474 35.8443L607.786 18.5943L606.804 18.4057L603.492 35.6557L604.474 35.8443ZM603.492 35.6557L600.18 52.9057L601.162 53.0943L604.474 35.8443L603.492 35.6557ZM600.671 52.5H587.795V53.5H600.671V52.5ZM600.671 53.5H613.754V52.5H600.671V53.5ZM614.246 52.908L611.016 35.658L610.033 35.842L613.263 53.092L614.246 52.908ZM610.525 35.25H603.983V36.25H610.525V35.25ZM626.795 52.5H613.754V53.5H626.795V52.5ZM610.525 36.25H617.045V35.25H610.525V36.25ZM611.016 35.658L607.786 18.408L606.803 18.592L610.033 35.842L611.016 35.658ZM613.263 53.092L616.493 70.342L617.476 70.158L614.246 52.908L613.263 53.092ZM616.984 70.75H636.545V69.75H616.984V70.75ZM620.706 87.408L617.476 70.158L616.493 70.342L619.723 87.592L620.706 87.408ZM616.984 69.75H597.36V70.75H616.984V69.75ZM597.851 70.3443L601.162 53.0943L600.18 52.9057L596.869 70.1557L597.851 70.3443ZM597.36 69.75H578.045V70.75H597.36V69.75ZM594.539 87.5943L597.851 70.3443L596.869 70.1557L593.557 87.4057L594.539 87.5943Z" fill="#B3BFD8"/>
<path d="M501.441 35.75L498.087 53H511.337L508.066 35.75H501.441Z" fill="#0B46A7"/>
<path d="M504.795 18.5L505.229 18.2516C505.14 18.096 504.974 18 504.795 18C504.616 18 504.45 18.096 504.361 18.2516L504.795 18.5ZM544.295 87.5V88H545.157L544.729 87.2516L544.295 87.5ZM465.295 87.5L464.861 87.2516L464.433 88H465.295V87.5ZM494.92 35.75L494.486 35.5016L494.486 35.5016L494.92 35.75ZM514.67 35.75L515.104 35.5016L515.104 35.5016L514.67 35.75ZM485.479 53.2484L495.354 35.9984L494.486 35.5016L484.611 52.7516L485.479 53.2484ZM495.354 35.9984L505.229 18.7484L504.361 18.2516L494.486 35.5016L495.354 35.9984ZM504.361 18.7484L514.236 35.9984L515.104 35.5016L505.229 18.2516L504.361 18.7484ZM514.236 35.9984L524.111 53.2484L524.979 52.7516L515.104 35.5016L514.236 35.9984ZM524.111 53.2484L533.986 70.4984L534.854 70.0016L524.979 52.7516L524.111 53.2484ZM533.986 70.4984L543.861 87.7484L544.729 87.2516L534.854 70.0016L533.986 70.4984ZM465.729 87.7484L475.604 70.4984L474.736 70.0016L464.861 87.2516L465.729 87.7484ZM475.604 70.4984L485.479 53.2484L484.611 52.7516L474.736 70.0016L475.604 70.4984ZM544.295 87H517.88V88H544.295V87ZM517.88 87H504.795V88H517.88V87ZM504.795 87H491.378V88H504.795V87ZM491.378 87H465.295V88H491.378V87ZM494.92 36.25H501.441V35.25H494.92V36.25ZM501.932 35.8454L505.286 18.5954L504.304 18.4046L500.95 35.6546L501.932 35.8454ZM500.95 35.6546L497.596 52.9046L498.577 53.0954L501.932 35.8454L500.95 35.6546ZM498.087 52.5H485.045V53.5H498.087V52.5ZM498.087 53.5H511.337V52.5H498.087V53.5ZM511.829 52.9068L508.557 35.6568L507.575 35.8432L510.846 53.0932L511.829 52.9068ZM508.066 35.25H501.441V36.25H508.066V35.25ZM524.545 52.5H511.337V53.5H524.545V52.5ZM508.066 36.25H514.67V35.25H508.066V36.25ZM508.557 35.6568L505.286 18.4068L504.304 18.5932L507.575 35.8432L508.557 35.6568ZM510.846 53.0932L514.117 70.3432L515.1 70.1568L511.829 52.9068L510.846 53.0932ZM514.609 70.75H534.42V69.75H514.609V70.75ZM518.371 87.4068L515.1 70.1568L514.117 70.3432L517.388 87.5932L518.371 87.4068ZM514.609 69.75H494.732V70.75H514.609V69.75ZM495.223 70.3454L498.577 53.0954L497.596 52.9046L494.241 70.1546L495.223 70.3454ZM494.732 69.75H475.17V70.75H494.732V69.75ZM491.869 87.5954L495.223 70.3454L494.241 70.1546L490.887 87.4046L491.869 87.5954Z" fill="#B3BFD8"/>
<path d="M74.0449 152L64.1699 169.25H83.7323L87.0865 152H74.0449Z" fill="#0B46A7"/>
<path d="M93.7949 117.5L94.2288 117.252C94.1398 117.096 93.9742 117 93.7949 117C93.6156 117 93.4501 117.096 93.361 117.252L93.7949 117.5ZM133.295 186.5V187H134.157L133.729 186.252L133.295 186.5ZM54.2949 186.5L53.861 186.252L53.4326 187H54.2949V186.5ZM83.9199 134.75L83.486 134.502L83.486 134.502L83.9199 134.75ZM103.67 134.75L104.104 134.502L104.104 134.502L103.67 134.75ZM74.4788 152.248L84.3538 134.998L83.486 134.502L73.611 151.752L74.4788 152.248ZM84.3538 134.998L94.2288 117.748L93.361 117.252L83.486 134.502L84.3538 134.998ZM93.361 117.748L103.236 134.998L104.104 134.502L94.2288 117.252L93.361 117.748ZM103.236 134.998L113.111 152.248L113.979 151.752L104.104 134.502L103.236 134.998ZM113.111 152.248L122.986 169.498L123.854 169.002L113.979 151.752L113.111 152.248ZM122.986 169.498L132.861 186.748L133.729 186.252L123.854 169.002L122.986 169.498ZM54.7288 186.748L64.6038 169.498L63.736 169.002L53.861 186.252L54.7288 186.748ZM64.6038 169.498L74.4788 152.248L73.611 151.752L63.736 169.002L64.6038 169.498ZM133.295 186H106.88V187H133.295V186ZM106.88 186H93.7949V187H106.88V186ZM93.7949 186H80.3781V187H93.7949V186ZM80.3781 186H54.2949V187H80.3781V186ZM83.9199 135.25H90.4407V134.25H83.9199V135.25ZM90.9315 134.845L94.2857 117.595L93.3041 117.405L89.9499 134.655L90.9315 134.845ZM89.9499 134.655L86.5957 151.905L87.5773 152.095L90.9315 134.845L89.9499 134.655ZM87.0865 151.5H74.0449V152.5H87.0865V151.5ZM87.0865 152.5H100.337V151.5H87.0865V152.5ZM100.829 151.907L97.5574 134.657L96.5749 134.843L99.8461 152.093L100.829 151.907ZM97.0661 134.25H90.4407V135.25H97.0661V134.25ZM113.545 151.5H100.337V152.5H113.545V151.5ZM97.0661 135.25H103.67V134.25H97.0661V135.25ZM97.5574 134.657L94.2862 117.407L93.3037 117.593L96.5749 134.843L97.5574 134.657ZM99.8461 152.093L103.117 169.343L104.1 169.157L100.829 151.907L99.8461 152.093ZM103.609 169.75H123.42V168.75H103.609V169.75ZM107.371 186.407L104.1 169.157L103.117 169.343L106.388 186.593L107.371 186.407ZM103.609 168.75H83.7323V169.75H103.609V168.75ZM84.2231 169.345L87.5773 152.095L86.5957 151.905L83.2415 169.155L84.2231 169.345ZM83.7323 168.75H64.1699V169.75H83.7323V168.75ZM80.8689 186.595L84.2231 169.345L83.2415 169.155L79.8873 186.405L80.8689 186.595Z" fill="#B3BFD8"/>
<path d="M328.545 169.25L318.795 152H305.754L308.984 169.25H328.545Z" fill="#0B46A7"/>
<path d="M299.295 117.5L299.73 117.254C299.642 117.097 299.475 117 299.295 117C299.115 117 298.948 117.097 298.86 117.254L299.295 117.5ZM338.295 186.5V187H339.152L338.73 186.254L338.295 186.5ZM260.295 186.5L259.86 186.254L259.438 187H260.295V186.5ZM318.795 152L319.23 151.754L319.23 151.754L318.795 152ZM280.23 152.246L289.98 134.996L289.11 134.504L279.36 151.754L280.23 152.246ZM289.98 134.996L299.73 117.746L298.86 117.254L289.11 134.504L289.98 134.996ZM298.86 117.746L308.61 134.996L309.48 134.504L299.73 117.254L298.86 117.746ZM308.61 134.996L318.36 152.246L319.23 151.754L309.48 134.504L308.61 134.996ZM318.36 152.246L328.11 169.496L328.98 169.004L319.23 151.754L318.36 152.246ZM328.11 169.496L337.86 186.746L338.73 186.254L328.98 169.004L328.11 169.496ZM260.73 186.746L270.48 169.496L269.61 169.004L259.86 186.254L260.73 186.746ZM270.48 169.496L280.23 152.246L279.36 151.754L269.61 169.004L270.48 169.496ZM338.295 186H312.214V187H338.295V186ZM312.214 186H299.295V187H312.214V186ZM299.295 186H286.048V187H299.295V186ZM286.048 186H260.295V187H286.048V186ZM289.545 135.25H295.983V134.25H289.545V135.25ZM296.474 134.844L299.786 117.594L298.804 117.406L295.492 134.656L296.474 134.844ZM295.492 134.656L292.18 151.906L293.162 152.094L296.474 134.844L295.492 134.656ZM292.671 151.5H279.795V152.5H292.671V151.5ZM292.671 152.5H305.754V151.5H292.671V152.5ZM306.246 151.908L303.016 134.658L302.033 134.842L305.263 152.092L306.246 151.908ZM302.525 134.25H295.983V135.25H302.525V134.25ZM318.795 151.5H305.754V152.5H318.795V151.5ZM302.525 135.25H309.045V134.25H302.525V135.25ZM303.016 134.658L299.786 117.408L298.803 117.592L302.033 134.842L303.016 134.658ZM305.263 152.092L308.493 169.342L309.476 169.158L306.246 151.908L305.263 152.092ZM308.984 169.75H328.545V168.75H308.984V169.75ZM312.706 186.408L309.476 169.158L308.493 169.342L311.723 186.592L312.706 186.408ZM308.984 168.75H289.36V169.75H308.984V168.75ZM289.851 169.344L293.162 152.094L292.18 151.906L288.869 169.156L289.851 169.344ZM289.36 168.75H270.045V169.75H289.36V168.75ZM286.539 186.594L289.851 169.344L288.869 169.156L285.557 186.406L286.539 186.594Z" fill="#B3BFD8"/>
<path d="M202.337 152H189.087L185.732 169.25H205.609L202.337 152Z" fill="#0B46A7"/>
<path d="M195.795 117.5L196.229 117.252C196.14 117.096 195.974 117 195.795 117C195.616 117 195.45 117.096 195.361 117.252L195.795 117.5ZM235.295 186.5V187H236.157L235.729 186.252L235.295 186.5ZM156.295 186.5L155.861 186.252L155.433 187H156.295V186.5ZM185.92 134.75L185.486 134.502L185.486 134.502L185.92 134.75ZM205.67 134.75L206.104 134.502L206.104 134.502L205.67 134.75ZM176.479 152.248L186.354 134.998L185.486 134.502L175.611 151.752L176.479 152.248ZM186.354 134.998L196.229 117.748L195.361 117.252L185.486 134.502L186.354 134.998ZM195.361 117.748L205.236 134.998L206.104 134.502L196.229 117.252L195.361 117.748ZM205.236 134.998L215.111 152.248L215.979 151.752L206.104 134.502L205.236 134.998ZM215.111 152.248L224.986 169.498L225.854 169.002L215.979 151.752L215.111 152.248ZM224.986 169.498L234.861 186.748L235.729 186.252L225.854 169.002L224.986 169.498ZM156.729 186.748L166.604 169.498L165.736 169.002L155.861 186.252L156.729 186.748ZM166.604 169.498L176.479 152.248L175.611 151.752L165.736 169.002L166.604 169.498ZM235.295 186H208.88V187H235.295V186ZM208.88 186H195.795V187H208.88V186ZM195.795 186H182.378V187H195.795V186ZM182.378 186H156.295V187H182.378V186ZM185.92 135.25H192.441V134.25H185.92V135.25ZM192.932 134.845L196.286 117.595L195.304 117.405L191.95 134.655L192.932 134.845ZM191.95 134.655L188.596 151.905L189.577 152.095L192.932 134.845L191.95 134.655ZM189.087 151.5H176.045V152.5H189.087V151.5ZM189.087 152.5H202.337V151.5H189.087V152.5ZM202.829 151.907L199.557 134.657L198.575 134.843L201.846 152.093L202.829 151.907ZM199.066 134.25H192.441V135.25H199.066V134.25ZM215.545 151.5H202.337V152.5H215.545V151.5ZM199.066 135.25H205.67V134.25H199.066V135.25ZM199.557 134.657L196.286 117.407L195.304 117.593L198.575 134.843L199.557 134.657ZM201.846 152.093L205.117 169.343L206.1 169.157L202.829 151.907L201.846 152.093ZM205.609 169.75H225.42V168.75H205.609V169.75ZM209.371 186.407L206.1 169.157L205.117 169.343L208.388 186.593L209.371 186.407ZM205.609 168.75H185.732V169.75H205.609V168.75ZM186.223 169.345L189.577 152.095L188.596 151.905L185.241 169.155L186.223 169.345ZM185.732 168.75H166.17V169.75H185.732V168.75ZM182.869 186.595L186.223 169.345L185.241 169.155L181.887 186.405L182.869 186.595Z" fill="#B3BFD8"/>
<path d="M371.17 169.25L361.295 186.5H387.378L390.732 169.25H371.17Z" fill="#0B46A7"/>
<path d="M400.795 117.5L401.229 117.252C401.14 117.096 400.974 117 400.795 117C400.616 117 400.45 117.096 400.361 117.252L400.795 117.5ZM440.295 186.5V187H441.157L440.729 186.252L440.295 186.5ZM361.295 186.5L360.861 186.252L360.433 187H361.295V186.5ZM390.92 134.75L390.486 134.502L390.486 134.502L390.92 134.75ZM410.67 134.75L411.104 134.502L411.104 134.502L410.67 134.75ZM381.479 152.248L391.354 134.998L390.486 134.502L380.611 151.752L381.479 152.248ZM391.354 134.998L401.229 117.748L400.361 117.252L390.486 134.502L391.354 134.998ZM400.361 117.748L410.236 134.998L411.104 134.502L401.229 117.252L400.361 117.748ZM410.236 134.998L420.111 152.248L420.979 151.752L411.104 134.502L410.236 134.998ZM420.111 152.248L429.986 169.498L430.854 169.002L420.979 151.752L420.111 152.248ZM429.986 169.498L439.861 186.748L440.729 186.252L430.854 169.002L429.986 169.498ZM361.729 186.748L371.604 169.498L370.736 169.002L360.861 186.252L361.729 186.748ZM371.604 169.498L381.479 152.248L380.611 151.752L370.736 169.002L371.604 169.498ZM440.295 186H413.88V187H440.295V186ZM413.88 186H400.795V187H413.88V186ZM400.795 186H387.378V187H400.795V186ZM387.378 186H361.295V187H387.378V186ZM390.92 135.25H397.441V134.25H390.92V135.25ZM397.932 134.845L401.286 117.595L400.304 117.405L396.95 134.655L397.932 134.845ZM396.95 134.655L393.596 151.905L394.577 152.095L397.932 134.845L396.95 134.655ZM394.087 151.5H381.045V152.5H394.087V151.5ZM394.087 152.5H407.337V151.5H394.087V152.5ZM407.829 151.907L404.557 134.657L403.575 134.843L406.846 152.093L407.829 151.907ZM404.066 134.25H397.441V135.25H404.066V134.25ZM420.545 151.5H407.337V152.5H420.545V151.5ZM404.066 135.25H410.67V134.25H404.066V135.25ZM404.557 134.657L401.286 117.407L400.304 117.593L403.575 134.843L404.557 134.657ZM406.846 152.093L410.117 169.343L411.1 169.157L407.829 151.907L406.846 152.093ZM410.609 169.75H430.42V168.75H410.609V169.75ZM414.371 186.407L411.1 169.157L410.117 169.343L413.388 186.593L414.371 186.407ZM410.609 168.75H390.732V169.75H410.609V168.75ZM391.223 169.345L394.577 152.095L393.596 151.905L390.241 169.155L391.223 169.345ZM390.732 168.75H371.17V169.75H390.732V168.75ZM387.869 186.595L391.223 169.345L390.241 169.155L386.887 186.405L387.869 186.595Z" fill="#B3BFD8"/>
<path d="M646.295 186.5L636.545 169.25H616.984L620.214 186.5H646.295Z" fill="#0B46A7"/>
<path d="M607.295 117.5L607.73 117.254C607.642 117.097 607.475 117 607.295 117C607.115 117 606.948 117.097 606.86 117.254L607.295 117.5ZM646.295 186.5V187H647.152L646.73 186.254L646.295 186.5ZM568.295 186.5L567.86 186.254L567.438 187H568.295V186.5ZM626.795 152L627.23 151.754L627.23 151.754L626.795 152ZM588.23 152.246L597.98 134.996L597.11 134.504L587.36 151.754L588.23 152.246ZM597.98 134.996L607.73 117.746L606.86 117.254L597.11 134.504L597.98 134.996ZM606.86 117.746L616.61 134.996L617.48 134.504L607.73 117.254L606.86 117.746ZM616.61 134.996L626.36 152.246L627.23 151.754L617.48 134.504L616.61 134.996ZM626.36 152.246L636.11 169.496L636.98 169.004L627.23 151.754L626.36 152.246ZM636.11 169.496L645.86 186.746L646.73 186.254L636.98 169.004L636.11 169.496ZM568.73 186.746L578.48 169.496L577.61 169.004L567.86 186.254L568.73 186.746ZM578.48 169.496L588.23 152.246L587.36 151.754L577.61 169.004L578.48 169.496ZM646.295 186H620.214V187H646.295V186ZM620.214 186H607.295V187H620.214V186ZM607.295 186H594.048V187H607.295V186ZM594.048 186H568.295V187H594.048V186ZM597.545 135.25H603.983V134.25H597.545V135.25ZM604.474 134.844L607.786 117.594L606.804 117.406L603.492 134.656L604.474 134.844ZM603.492 134.656L600.18 151.906L601.162 152.094L604.474 134.844L603.492 134.656ZM600.671 151.5H587.795V152.5H600.671V151.5ZM600.671 152.5H613.754V151.5H600.671V152.5ZM614.246 151.908L611.016 134.658L610.033 134.842L613.263 152.092L614.246 151.908ZM610.525 134.25H603.983V135.25H610.525V134.25ZM626.795 151.5H613.754V152.5H626.795V151.5ZM610.525 135.25H617.045V134.25H610.525V135.25ZM611.016 134.658L607.786 117.408L606.803 117.592L610.033 134.842L611.016 134.658ZM613.263 152.092L616.493 169.342L617.476 169.158L614.246 151.908L613.263 152.092ZM616.984 169.75H636.545V168.75H616.984V169.75ZM620.706 186.408L617.476 169.158L616.493 169.342L619.723 186.592L620.706 186.408ZM616.984 168.75H597.36V169.75H616.984V168.75ZM597.851 169.344L601.162 152.094L600.18 151.906L596.869 169.156L597.851 169.344ZM597.36 168.75H578.045V169.75H597.36V168.75ZM594.539 186.594L597.851 169.344L596.869 169.156L593.557 186.406L594.539 186.594Z" fill="#B3BFD8"/>
<path d="M504.795 186.5H517.88L514.609 169.25H494.732L491.378 186.5H504.795Z" fill="#0B46A7"/>
<path d="M504.795 117.5L505.229 117.252C505.14 117.096 504.974 117 504.795 117C504.616 117 504.45 117.096 504.361 117.252L504.795 117.5ZM544.295 186.5V187H545.157L544.729 186.252L544.295 186.5ZM465.295 186.5L464.861 186.252L464.433 187H465.295V186.5ZM494.92 134.75L494.486 134.502L494.486 134.502L494.92 134.75ZM514.67 134.75L515.104 134.502L515.104 134.502L514.67 134.75ZM485.479 152.248L495.354 134.998L494.486 134.502L484.611 151.752L485.479 152.248ZM495.354 134.998L505.229 117.748L504.361 117.252L494.486 134.502L495.354 134.998ZM504.361 117.748L514.236 134.998L515.104 134.502L505.229 117.252L504.361 117.748ZM514.236 134.998L524.111 152.248L524.979 151.752L515.104 134.502L514.236 134.998ZM524.111 152.248L533.986 169.498L534.854 169.002L524.979 151.752L524.111 152.248ZM533.986 169.498L543.861 186.748L544.729 186.252L534.854 169.002L533.986 169.498ZM465.729 186.748L475.604 169.498L474.736 169.002L464.861 186.252L465.729 186.748ZM475.604 169.498L485.479 152.248L484.611 151.752L474.736 169.002L475.604 169.498ZM544.295 186H517.88V187H544.295V186ZM517.88 186H504.795V187H517.88V186ZM504.795 186H491.378V187H504.795V186ZM491.378 186H465.295V187H491.378V186ZM494.92 135.25H501.441V134.25H494.92V135.25ZM501.932 134.845L505.286 117.595L504.304 117.405L500.95 134.655L501.932 134.845ZM500.95 134.655L497.596 151.905L498.577 152.095L501.932 134.845L500.95 134.655ZM498.087 151.5H485.045V152.5H498.087V151.5ZM498.087 152.5H511.337V151.5H498.087V152.5ZM511.829 151.907L508.557 134.657L507.575 134.843L510.846 152.093L511.829 151.907ZM508.066 134.25H501.441V135.25H508.066V134.25ZM524.545 151.5H511.337V152.5H524.545V151.5ZM508.066 135.25H514.67V134.25H508.066V135.25ZM508.557 134.657L505.286 117.407L504.304 117.593L507.575 134.843L508.557 134.657ZM510.846 152.093L514.117 169.343L515.1 169.157L511.829 151.907L510.846 152.093ZM514.609 169.75H534.42V168.75H514.609V169.75ZM518.371 186.407L515.1 169.157L514.117 169.343L517.388 186.593L518.371 186.407ZM514.609 168.75H494.732V169.75H514.609V168.75ZM495.223 169.345L498.577 152.095L497.596 151.905L494.241 169.155L495.223 169.345ZM494.732 168.75H475.17V169.75H494.732V168.75ZM491.869 186.595L495.223 169.345L494.241 169.155L490.887 186.405L491.869 186.595Z" fill="#B3BFD8"/>
</svg>
