<svg width="701" height="167" viewBox="0 0 701 167" fill="none" xmlns="http://www.w3.org/2000/svg">
<rect width="700" height="167" transform="translate(0.294922)" fill="#0A0D12"/>
<path d="M372.908 90.8145L406.965 30.9999" stroke="#B3BFD8" stroke-width="2"/>
<path d="M373.295 90.8147L439.78 73.0001" stroke="#B3BFD8" stroke-width="2"/>
<path d="M311.717 153.414L373.717 91.4139" stroke="#B3BFD8" stroke-width="2" stroke-linecap="round" stroke-linejoin="round"/>
<circle cx="439.32" cy="73.2861" r="5" fill="black" stroke="#D9EBFF" stroke-width="2"/>
<circle cx="406.295" cy="31" r="5" fill="black" stroke="#D9EBFF" stroke-width="2"/>
<path d="M308.274 91.0849C308.274 88.9341 309.1 87.0004 310.752 85.2837C312.404 83.567 314.19 82.7086 316.111 82.7086C317.187 82.7086 318.032 82.9454 318.646 83.419C319.261 83.8926 319.578 84.5141 319.597 85.2837C319.597 85.8559 319.415 86.3393 319.05 86.734C318.685 87.1286 318.224 87.3358 317.667 87.3555C317.302 87.3555 317.014 87.2569 316.802 87.0596C316.591 86.8622 316.486 86.5663 316.486 86.1716C316.486 85.777 316.591 85.4415 316.802 85.1653C317.014 84.889 317.225 84.6818 317.436 84.5437C317.648 84.4056 317.782 84.3464 317.84 84.3661H317.868C317.868 84.3267 317.811 84.2675 317.696 84.1885C317.58 84.1096 317.379 84.0307 317.091 83.9517C316.802 83.8728 316.476 83.8334 316.111 83.8334C315.535 83.8334 314.987 83.9715 314.469 84.2477C314.065 84.4253 313.652 84.7312 313.23 85.1653C312.385 86.0335 311.77 87.2569 311.386 88.8355C311.002 90.414 310.8 91.5585 310.781 92.2688C310.781 93.1765 311.031 93.8573 311.53 94.3111C311.953 94.7847 312.51 95.0215 313.201 95.0215H313.316C315.468 95.0215 317.244 94.1829 318.646 92.5056C318.819 92.3083 318.934 92.2097 318.992 92.2097C319.069 92.2097 319.194 92.2984 319.367 92.476C319.539 92.6536 319.636 92.7918 319.655 92.8904C319.674 92.9891 319.587 93.1371 319.395 93.3344C319.203 93.5317 318.925 93.808 318.56 94.1631C318.195 94.5183 317.763 94.8143 317.263 95.0511C316.764 95.2879 316.149 95.5345 315.42 95.791C314.69 96.0476 313.921 96.1561 313.115 96.1166C311.674 96.1166 310.512 95.643 309.629 94.6959C308.745 93.7488 308.294 92.5451 308.274 91.0849Z" fill="#D9EBFF"/>
<path d="M320.375 87.2963C320.375 87.1384 320.461 86.8326 320.634 86.3788C320.807 85.9249 321.047 85.4119 321.355 84.8397C321.662 84.2674 322.084 83.7741 322.622 83.3597C323.16 82.9454 323.727 82.7283 324.322 82.7086C325.206 82.7086 325.868 82.9552 326.31 83.4485C326.752 83.9418 326.973 84.5239 326.973 85.1948C326.973 85.55 326.646 86.655 325.993 88.5098C325.34 90.3647 325.014 91.7558 325.014 92.6832C325.014 93.5317 325.148 94.1236 325.417 94.4591C325.686 94.7945 326.089 94.9721 326.627 94.9918C327.165 95.0116 327.674 94.8439 328.154 94.4887C328.634 94.1335 328.989 93.798 329.22 93.4823L329.537 92.9792C329.575 92.9002 329.94 91.4006 330.632 88.4802C331.208 86.1124 331.554 84.7311 331.669 84.3365C331.784 83.9418 331.919 83.6557 332.072 83.4781C332.399 83.1822 332.744 83.0342 333.109 83.0342C333.436 83.0342 333.676 83.1328 333.83 83.3301C333.983 83.5275 334.06 83.7149 334.06 83.8925L331.871 93.3047C331.851 93.4034 331.842 93.5613 331.842 93.7783C331.842 94.2716 331.909 94.5972 332.043 94.7551C332.178 94.9129 332.38 95.0017 332.648 95.0214C333.071 94.9622 333.407 94.6564 333.657 94.1039C333.907 93.5514 334.195 92.6832 334.521 91.4993C334.56 91.3414 334.752 91.2625 335.097 91.2625C335.462 91.2625 335.645 91.3513 335.645 91.5289C335.626 91.6275 335.606 91.7656 335.587 91.9432C335.568 92.1208 335.482 92.4365 335.328 92.8904C335.174 93.3442 335.011 93.7685 334.838 94.1631C334.665 94.5577 334.425 94.9326 334.118 95.2878C333.81 95.643 333.465 95.8897 333.081 96.0278C332.927 96.0672 332.696 96.087 332.389 96.087C331.121 96.087 330.248 95.5345 329.767 94.4295C329.729 94.4492 329.623 94.5479 329.45 94.7255C329.278 94.903 329.105 95.051 328.932 95.1694C328.759 95.2878 328.548 95.4358 328.298 95.6134C328.048 95.791 327.77 95.9094 327.462 95.9686C327.155 96.0278 326.829 96.0771 326.483 96.1166C325.638 96.1166 324.889 95.939 324.236 95.5838C323.237 94.9721 322.737 93.9263 322.737 92.4464C322.737 91.3217 323.074 89.8516 323.746 88.0363C324.418 86.2209 324.754 85.0666 324.754 84.5733C324.754 84.5535 324.754 84.5338 324.754 84.5141C324.754 84.3365 324.754 84.2181 324.754 84.1589C324.754 84.0997 324.716 84.0306 324.639 83.9517C324.562 83.8728 324.457 83.8333 324.322 83.8333H324.207C323.765 83.8333 323.362 84.0208 322.997 84.3957C322.632 84.7706 322.344 85.1751 322.132 85.6092C321.921 86.0433 321.758 86.4577 321.643 86.8523C321.527 87.247 321.451 87.464 321.412 87.5035C321.374 87.543 321.22 87.5627 320.951 87.5627H320.548C320.433 87.4443 320.375 87.3555 320.375 87.2963Z" fill="#D9EBFF"/>
<path d="M336.884 87.2963C336.903 87.2371 336.922 87.1582 336.941 87.0595C336.961 86.9609 337.009 86.7438 337.085 86.4084C337.162 86.0729 337.258 85.7671 337.374 85.4908C337.489 85.2146 337.633 84.889 337.806 84.5141C337.979 84.1392 338.171 83.8432 338.382 83.6261C338.593 83.4091 338.843 83.192 339.131 82.975C339.419 82.7579 339.736 82.6691 340.082 82.7086C340.639 82.7086 341.129 82.827 341.551 83.0638C341.974 83.3005 342.271 83.5176 342.444 83.7149C342.617 83.9122 342.723 84.1096 342.761 84.3069C342.8 84.4253 342.828 84.4845 342.848 84.4845C342.867 84.4845 342.944 84.4154 343.078 84.2773C344 83.2512 345.066 82.7382 346.276 82.7382H346.363C347.285 82.7382 347.976 83.1427 348.437 83.9517C348.591 84.3266 348.667 84.6917 348.667 85.0468C348.667 85.6388 348.543 86.1124 348.293 86.4676C348.043 86.8227 347.794 87.0497 347.544 87.1483C347.294 87.247 347.054 87.2864 346.824 87.2667C346.439 87.2667 346.132 87.1582 345.902 86.9411C345.671 86.7241 345.556 86.438 345.556 86.0828C345.556 85.1356 346.094 84.5042 347.169 84.1885C346.747 83.932 346.401 83.8037 346.132 83.8037C345.056 83.8037 344.067 84.5338 343.165 85.994C342.972 86.3097 342.828 86.6353 342.732 86.9707C342.636 87.3062 342.31 88.6184 341.753 90.9073C341.1 93.6698 340.725 95.1398 340.629 95.3174C340.38 95.8502 339.967 96.1166 339.39 96.1166C339.141 96.1166 338.939 96.0574 338.785 95.939C338.632 95.8206 338.526 95.7022 338.468 95.5838C338.411 95.4654 338.392 95.3668 338.411 95.2878C338.411 95.0313 338.795 93.3343 339.563 90.1969C340.331 87.0595 340.716 85.3132 340.716 84.958C340.716 84.1885 340.466 83.8037 339.967 83.8037C339.563 83.8037 339.217 84.08 338.929 84.6325C338.641 85.185 338.411 85.7868 338.238 86.438C338.065 87.0891 337.959 87.4443 337.921 87.5035C337.883 87.543 337.729 87.5627 337.46 87.5627H337.057C336.941 87.4443 336.884 87.3555 336.884 87.2963Z" fill="#D9EBFF"/>
<path d="M349.877 87.2963C349.896 87.2371 349.915 87.1582 349.935 87.0595C349.954 86.9609 350.002 86.7438 350.079 86.4084C350.155 86.0729 350.251 85.7671 350.367 85.4908C350.482 85.2146 350.626 84.889 350.799 84.5141C350.972 84.1392 351.164 83.8432 351.375 83.6261C351.586 83.4091 351.836 83.192 352.124 82.975C352.412 82.7579 352.729 82.6691 353.075 82.7086C353.632 82.7086 354.122 82.827 354.544 83.0638C354.967 83.3005 355.265 83.5176 355.437 83.7149C355.61 83.9122 355.716 84.1096 355.754 84.3069C355.793 84.4253 355.822 84.4845 355.841 84.4845C355.86 84.4845 355.937 84.4154 356.071 84.2773C356.993 83.2512 358.059 82.7382 359.269 82.7382H359.356C360.278 82.7382 360.969 83.1427 361.43 83.9517C361.584 84.3266 361.661 84.6917 361.661 85.0468C361.661 85.6388 361.536 86.1124 361.286 86.4676C361.036 86.8227 360.787 87.0497 360.537 87.1483C360.287 87.247 360.047 87.2864 359.817 87.2667C359.433 87.2667 359.125 87.1582 358.895 86.9411C358.664 86.7241 358.549 86.438 358.549 86.0828C358.549 85.1356 359.087 84.5042 360.162 84.1885C359.74 83.932 359.394 83.8037 359.125 83.8037C358.05 83.8037 357.06 84.5338 356.158 85.994C355.966 86.3097 355.822 86.6353 355.726 86.9707C355.63 87.3062 355.303 88.6184 354.746 90.9073C354.093 93.6698 353.718 95.1398 353.622 95.3174C353.373 95.8502 352.96 96.1166 352.384 96.1166C352.134 96.1166 351.932 96.0574 351.778 95.939C351.625 95.8206 351.519 95.7022 351.462 95.5838C351.404 95.4654 351.385 95.3668 351.404 95.2878C351.404 95.0313 351.788 93.3343 352.556 90.1969C353.325 87.0595 353.709 85.3132 353.709 84.958C353.709 84.1885 353.459 83.8037 352.96 83.8037C352.556 83.8037 352.211 84.08 351.923 84.6325C351.634 85.185 351.404 85.7868 351.231 86.438C351.058 87.0891 350.953 87.4443 350.914 87.5035C350.876 87.543 350.722 87.5627 350.453 87.5627H350.05C349.935 87.4443 349.877 87.3555 349.877 87.2963Z" fill="#D9EBFF"/>
<g clip-path="url(#clip0_142_157)">
<path d="M246.07 151.075C246.089 151.018 246.108 150.941 246.127 150.846C246.146 150.75 246.194 150.54 246.271 150.214C246.348 149.889 246.444 149.592 246.559 149.324C246.674 149.057 246.818 148.741 246.991 148.377C247.163 148.014 247.355 147.727 247.566 147.516C247.777 147.306 248.027 147.095 248.314 146.885C248.602 146.674 248.919 146.588 249.264 146.626C250.703 146.626 251.624 147.239 252.027 148.463L252.315 148.205C253.504 147.153 254.637 146.626 255.711 146.626C256.958 146.626 257.937 147.076 258.647 147.975C259.356 148.875 259.711 149.966 259.711 151.248C259.711 153.314 258.982 155.218 257.524 156.96C256.066 158.701 254.416 159.581 252.574 159.6C252.152 159.6 251.778 159.543 251.451 159.428C251.24 159.332 251.02 159.189 250.79 158.998C250.559 158.806 250.377 158.644 250.243 158.51L250.041 158.28C250.022 158.299 249.811 159.131 249.408 160.777C249.005 162.423 248.804 163.255 248.804 163.274C248.804 163.389 248.88 163.456 249.034 163.475C249.187 163.494 249.542 163.523 250.099 163.561H250.818C250.933 163.695 250.991 163.781 250.991 163.82C250.991 163.858 250.962 164.03 250.905 164.336C250.847 164.566 250.79 164.709 250.732 164.767C250.674 164.824 250.55 164.863 250.358 164.882C250.319 164.882 250.214 164.882 250.041 164.882C249.869 164.882 249.542 164.872 249.063 164.853C248.583 164.834 247.988 164.824 247.278 164.824C245.935 164.824 245.081 164.843 244.717 164.882H244.487C244.352 164.748 244.285 164.643 244.285 164.566C244.324 164.049 244.448 163.714 244.659 163.561H245.235C245.887 163.542 246.261 163.427 246.357 163.217C246.415 163.102 247 160.815 248.113 156.357C249.226 151.898 249.811 149.535 249.869 149.267C249.888 149.171 249.897 149.037 249.897 148.865C249.897 148.081 249.657 147.688 249.178 147.688C248.756 147.688 248.401 147.956 248.113 148.492C247.825 149.028 247.604 149.612 247.451 150.243C247.298 150.874 247.182 151.219 247.106 151.276C247.067 151.315 246.914 151.334 246.645 151.334H246.242C246.127 151.219 246.07 151.133 246.07 151.075ZM250.531 156.386C250.953 157.84 251.663 158.567 252.66 158.567C253.236 158.567 253.792 158.347 254.33 157.907C254.867 157.467 255.308 156.912 255.653 156.242C255.999 155.591 256.344 154.558 256.69 153.142C257.035 151.726 257.217 150.674 257.236 149.985V149.812C257.236 148.396 256.651 147.688 255.481 147.688C255.27 147.688 255.059 147.717 254.848 147.775C254.637 147.832 254.425 147.918 254.214 148.033C254.003 148.148 253.811 148.272 253.639 148.406C253.466 148.54 253.303 148.683 253.15 148.837C252.996 148.99 252.852 149.133 252.718 149.267C252.584 149.401 252.478 149.535 252.401 149.669C252.324 149.803 252.248 149.899 252.171 149.956L252.085 150.071C252.085 150.09 252.056 150.224 251.998 150.473C251.941 150.721 251.835 151.142 251.682 151.736C251.528 152.329 251.394 152.826 251.279 153.228C250.78 155.257 250.531 156.309 250.531 156.386Z" fill="#D9EBFF"/>
<path d="M260.488 151.075C260.507 151.018 260.527 150.941 260.546 150.846C260.565 150.75 260.613 150.54 260.69 150.214C260.766 149.889 260.862 149.592 260.978 149.325C261.093 149.057 261.237 148.741 261.409 148.377C261.582 148.014 261.774 147.727 261.985 147.516C262.196 147.306 262.445 147.095 262.733 146.885C263.021 146.674 263.338 146.588 263.683 146.626C264.239 146.626 264.729 146.741 265.151 146.971C265.573 147.2 265.87 147.411 266.043 147.602C266.216 147.794 266.321 147.985 266.359 148.176C266.398 148.291 266.427 148.349 266.446 148.349C266.465 148.349 266.542 148.282 266.676 148.148C267.597 147.153 268.662 146.655 269.871 146.655H269.957C270.878 146.655 271.569 147.047 272.029 147.832C272.183 148.196 272.259 148.55 272.259 148.894C272.259 149.468 272.135 149.927 271.885 150.272C271.636 150.616 271.386 150.836 271.137 150.932C270.888 151.028 270.648 151.066 270.418 151.047C270.034 151.047 269.727 150.941 269.497 150.731C269.266 150.52 269.151 150.243 269.151 149.899C269.151 148.98 269.688 148.368 270.763 148.062C270.341 147.813 269.995 147.688 269.727 147.688C268.652 147.688 267.664 148.396 266.762 149.812C266.571 150.119 266.427 150.434 266.331 150.76C266.235 151.085 265.909 152.358 265.352 154.577C264.7 157.256 264.326 158.682 264.23 158.854C263.98 159.371 263.568 159.629 262.992 159.629C262.743 159.629 262.541 159.572 262.388 159.457C262.234 159.342 262.129 159.227 262.071 159.112C262.014 158.998 261.994 158.902 262.014 158.825C262.014 158.577 262.397 156.931 263.165 153.888C263.932 150.846 264.316 149.152 264.316 148.808C264.316 148.062 264.067 147.688 263.568 147.688C263.165 147.688 262.819 147.956 262.532 148.492C262.244 149.028 262.014 149.612 261.841 150.243C261.668 150.875 261.563 151.219 261.524 151.276C261.486 151.315 261.333 151.334 261.064 151.334H260.661C260.546 151.219 260.488 151.133 260.488 151.075Z" fill="#D9EBFF"/>
<path d="M274.015 154.491C274.015 153.4 274.197 152.405 274.561 151.506C274.926 150.607 275.396 149.86 275.972 149.267C276.547 148.674 277.19 148.176 277.9 147.775C278.61 147.373 279.281 147.076 279.915 146.885C280.548 146.693 281.152 146.607 281.728 146.626H281.814C282.678 146.626 283.426 146.837 284.059 147.258C284.692 147.679 285.009 148.301 285.009 149.124C285.009 150.846 283.944 151.975 281.814 152.511C280.874 152.759 279.588 152.893 277.958 152.912C277.248 152.912 276.883 152.932 276.864 152.97C276.864 153.008 276.806 153.343 276.691 153.974C276.576 154.606 276.509 155.161 276.49 155.639C276.49 156.539 276.691 157.247 277.094 157.763C277.497 158.28 278.101 158.548 278.907 158.567C279.713 158.586 280.605 158.404 281.584 158.022C282.562 157.639 283.445 157.007 284.232 156.127C284.404 155.936 284.519 155.84 284.577 155.84C284.654 155.84 284.779 155.926 284.951 156.099C285.124 156.271 285.22 156.405 285.239 156.5C285.258 156.596 285.172 156.749 284.98 156.96C284.788 157.17 284.5 157.428 284.117 157.735C283.733 158.041 283.292 158.337 282.793 158.624C282.294 158.911 281.689 159.151 280.98 159.342C280.27 159.533 279.54 159.629 278.792 159.629C277.276 159.629 276.106 159.122 275.281 158.108C274.456 157.094 274.034 155.888 274.015 154.491ZM283.627 149.181C283.512 148.186 282.86 147.688 281.67 147.688C281.037 147.688 280.452 147.822 279.915 148.09C279.377 148.358 278.946 148.683 278.62 149.066C278.293 149.449 278.015 149.841 277.785 150.243C277.555 150.645 277.401 150.989 277.324 151.276C277.248 151.563 277.2 151.745 277.18 151.822C277.18 151.841 277.372 151.85 277.756 151.85C279.924 151.85 281.44 151.621 282.303 151.162C283.167 150.702 283.608 150.042 283.627 149.181Z" fill="#D9EBFF"/>
<path d="M291.283 148.406C291.283 147.928 291.101 147.688 290.736 147.688C290.276 147.688 289.796 147.966 289.297 148.521C288.798 149.076 288.386 149.927 288.059 151.075C288.04 151.095 288.021 151.123 288.002 151.162C287.983 151.2 287.973 151.229 287.973 151.248C287.973 151.267 287.954 151.286 287.916 151.305C287.877 151.324 287.848 151.334 287.829 151.334C287.81 151.334 287.772 151.334 287.714 151.334C287.656 151.334 287.58 151.334 287.484 151.334H287.081C286.966 151.219 286.908 151.133 286.908 151.075C286.908 150.941 286.985 150.664 287.138 150.243C287.292 149.822 287.522 149.325 287.829 148.75C288.136 148.176 288.558 147.688 289.096 147.287C289.633 146.885 290.237 146.674 290.909 146.655C291.715 146.655 292.338 146.885 292.779 147.344C293.221 147.803 293.451 148.339 293.47 148.951C293.47 149.277 293.441 149.525 293.384 149.698C293.384 149.812 293.24 150.233 292.952 150.961C292.664 151.688 292.367 152.539 292.06 153.515C291.753 154.491 291.58 155.343 291.542 156.07C291.542 156.586 291.59 157.007 291.686 157.333C291.935 158.156 292.54 158.567 293.499 158.567C294.209 158.567 294.871 158.242 295.485 157.591C296.099 156.94 296.578 156.185 296.924 155.324C297.269 154.462 297.547 153.668 297.758 152.941C297.969 152.214 298.075 151.688 298.075 151.362C298.075 150.922 297.998 150.54 297.845 150.214C297.691 149.889 297.519 149.64 297.327 149.468C297.135 149.296 296.962 149.124 296.809 148.951C296.655 148.779 296.578 148.569 296.578 148.32C296.578 147.899 296.761 147.507 297.125 147.143C297.49 146.779 297.883 146.598 298.305 146.598C298.67 146.598 298.996 146.77 299.284 147.114C299.572 147.459 299.725 148.014 299.744 148.779C299.744 149.296 299.629 150.09 299.399 151.162C299.169 152.233 298.814 153.429 298.334 154.749C297.854 156.07 297.173 157.208 296.291 158.165C295.408 159.122 294.391 159.61 293.24 159.629C292.012 159.629 291.033 159.313 290.304 158.682C289.594 158.069 289.239 157.161 289.239 155.955C289.239 155.362 289.316 154.749 289.47 154.118C289.623 153.487 290.016 152.367 290.65 150.76C291.072 149.535 291.283 148.75 291.283 148.406Z" fill="#D9EBFF"/>
</g>
<path d="M400.295 15.1863C400.295 13.2454 401.045 11.4006 402.544 9.65188C404.044 7.90318 405.731 7.01922 407.606 7C408.612 7 409.5 7.47081 410.27 8.41242C410.585 7.83592 411.039 7.54767 411.631 7.54767C411.888 7.54767 412.115 7.62454 412.312 7.77827C412.509 7.932 412.608 8.12417 412.608 8.35477C412.608 8.60458 412.243 10.1419 411.513 12.9667C410.783 15.7916 410.408 17.3865 410.388 17.7517C410.388 18.2321 410.457 18.5491 410.595 18.7029C410.733 18.8566 410.94 18.9431 411.217 18.9623C411.394 18.9431 411.592 18.8566 411.809 18.7029C412.223 18.3186 412.628 17.3962 413.022 15.9357C413.141 15.5514 413.239 15.3496 413.318 15.3304C413.358 15.3112 413.456 15.3016 413.614 15.3016H413.733C414.107 15.3016 414.295 15.388 414.295 15.561C414.295 15.6763 414.246 15.9357 414.147 16.3392C414.048 16.7428 413.851 17.2616 413.555 17.8958C413.259 18.5299 412.943 19.0103 412.608 19.337C412.351 19.5868 412.036 19.7886 411.661 19.9423C411.503 19.9808 411.266 20 410.95 20C410.279 20 409.717 19.8559 409.263 19.5676C408.809 19.2794 408.513 18.9815 408.375 18.6741L408.198 18.2417C408.178 18.2225 408.138 18.2321 408.079 18.2705C408.04 18.3089 408 18.3474 407.961 18.3858C406.797 19.4619 405.613 20 404.409 20C403.324 20 402.367 19.6157 401.538 18.847C400.709 18.0783 400.295 16.8581 400.295 15.1863ZM409.707 10.2572C409.707 10.1419 409.658 9.93052 409.559 9.62306C409.461 9.3156 409.234 8.97931 408.878 8.61419C408.523 8.24908 408.069 8.05691 407.517 8.03769C406.826 8.03769 406.165 8.33555 405.534 8.93126C404.902 9.52698 404.409 10.3052 404.054 11.2661C403.482 12.7842 403.077 14.3599 402.84 15.9933C402.84 16.051 402.84 16.1567 402.84 16.3104C402.84 16.4642 402.831 16.5795 402.811 16.6563C402.811 17.5211 402.988 18.1168 403.344 18.4435C403.699 18.7701 404.123 18.9431 404.616 18.9623C405.366 18.9623 406.106 18.6452 406.836 18.0111C407.566 17.3769 408 16.8869 408.138 16.541C408.178 16.4642 408.444 15.4361 408.938 13.4568C409.431 11.4775 409.687 10.4109 409.707 10.2572Z" fill="#D9EBFF"/>
<path d="M434.245 45.3333C434.245 45.1442 434.284 44.9267 434.36 44.6809C434.437 44.435 434.552 44.3121 434.706 44.3121C434.725 44.3121 435.416 44.2648 436.779 44.1702C438.142 44.0757 438.843 44.0189 438.881 44C439.112 44 439.227 44.0851 439.227 44.2553C439.227 44.4255 438.901 45.7778 438.248 48.3121C438.094 48.9551 437.931 49.617 437.758 50.2979C437.585 50.9787 437.442 51.4894 437.326 51.8298L437.211 52.3688C437.211 52.4255 437.269 52.3972 437.384 52.2837C438.325 51.5272 439.294 51.1489 440.292 51.1489C441.483 51.1489 442.442 51.5839 443.172 52.4539C443.901 53.3239 444.276 54.4208 444.295 55.7447C444.295 57.844 443.537 59.7447 442.02 61.4468C440.503 63.1489 438.872 64 437.125 64C436.165 64 435.291 63.6407 434.504 62.922C433.717 62.2033 433.314 61.0402 433.295 59.4326V59.1773C433.295 58.7801 433.372 58.2317 433.525 57.5319C433.679 56.8322 434.149 54.9693 434.936 51.9433C435.896 48.2175 436.376 46.2411 436.376 46.0142C436.376 45.7872 436.011 45.6548 435.282 45.617C435.186 45.617 435.109 45.617 435.051 45.617H434.907C434.716 45.617 434.591 45.617 434.533 45.617C434.476 45.617 434.408 45.5887 434.332 45.5319C434.255 45.4752 434.226 45.409 434.245 45.3333ZM441.818 54.4681V54.2979C441.818 52.8983 441.233 52.1986 440.062 52.1986C439.736 52.1986 439.4 52.2742 439.054 52.4255C438.709 52.5768 438.392 52.7754 438.104 53.0213C437.816 53.2671 437.566 53.4941 437.355 53.7021C437.144 53.9102 436.971 54.1182 436.837 54.3262L436.664 54.5532L436.059 56.9929C435.637 58.6194 435.426 59.773 435.426 60.4539C435.426 61.3617 435.656 62.0426 436.117 62.4965C436.424 62.7991 436.808 62.9504 437.269 62.9504C437.902 62.9504 438.545 62.6478 439.198 62.0426C439.678 61.6076 440.062 61.078 440.35 60.4539C440.638 59.8298 440.955 58.8369 441.3 57.4752C441.646 56.1135 441.818 55.1111 441.818 54.4681Z" fill="#D9EBFF"/>
<circle cx="373.295" cy="91" r="5" fill="black" stroke="#D9EBFF" stroke-width="2"/>
<circle cx="311.295" cy="153" r="5" fill="black" stroke="#D9EBFF" stroke-width="2"/>
<defs>
<clipPath id="clip0_142_157">
<rect width="56" height="23" fill="white" transform="translate(244.295 144)"/>
</clipPath>
</defs>
</svg>
