<svg width="701" height="331" viewBox="0 0 701 331" fill="none" xmlns="http://www.w3.org/2000/svg">
<rect width="700" height="330" transform="translate(0.294922 0.5)" fill="#0A0D12"/>
<line x1="349.176" y1="170.018" x2="577.045" y2="108.961" stroke="#B3BFD8" stroke-width="2"/>
<line x1="349.425" y1="170.251" x2="491.518" y2="290.953" stroke="#B3BFD8" stroke-width="2"/>
<line x1="347.908" y1="170.315" x2="436.525" y2="14.6744" stroke="#B3BFD8" stroke-width="2"/>
<path d="M212.717 306.914L348.717 170.914" stroke="#B3BFD8" stroke-width="2" stroke-linecap="round" stroke-linejoin="round"/>
<circle cx="577.32" cy="108.786" r="5" fill="black" stroke="#D9EBFF" stroke-width="2"/>
<circle cx="436.295" cy="15.5" r="5" fill="black" stroke="#D9EBFF" stroke-width="2"/>
<circle cx="491.231" cy="291.076" r="5" fill="black" stroke="#D9EBFF" stroke-width="2"/>
<circle cx="212.295" cy="306.5" r="5" fill="black" stroke="#D9EBFF" stroke-width="2"/>
<path d="M294.274 152.585C294.274 150.434 295.1 148.5 296.752 146.784C298.404 145.067 300.19 144.209 302.111 144.209C303.187 144.209 304.032 144.445 304.646 144.919C305.261 145.393 305.578 146.014 305.597 146.784C305.597 147.356 305.415 147.839 305.05 148.234C304.685 148.629 304.224 148.836 303.667 148.856C303.302 148.856 303.014 148.757 302.802 148.56C302.591 148.362 302.486 148.066 302.486 147.672C302.486 147.277 302.591 146.942 302.802 146.665C303.014 146.389 303.225 146.182 303.436 146.044C303.648 145.906 303.782 145.846 303.84 145.866H303.868C303.868 145.827 303.811 145.767 303.696 145.689C303.58 145.61 303.379 145.531 303.091 145.452C302.802 145.373 302.476 145.333 302.111 145.333C301.535 145.333 300.987 145.471 300.469 145.748C300.065 145.925 299.652 146.231 299.23 146.665C298.385 147.533 297.77 148.757 297.386 150.335C297.002 151.914 296.8 153.058 296.781 153.769C296.781 154.677 297.031 155.357 297.53 155.811C297.953 156.285 298.51 156.521 299.201 156.521H299.316C301.468 156.521 303.244 155.683 304.646 154.006C304.819 153.808 304.934 153.71 304.992 153.71C305.069 153.71 305.194 153.798 305.367 153.976C305.539 154.154 305.636 154.292 305.655 154.39C305.674 154.489 305.587 154.637 305.395 154.834C305.203 155.032 304.925 155.308 304.56 155.663C304.195 156.018 303.763 156.314 303.263 156.551C302.764 156.788 302.149 157.035 301.42 157.291C300.69 157.548 299.921 157.656 299.115 157.617C297.674 157.617 296.512 157.143 295.629 156.196C294.745 155.249 294.294 154.045 294.274 152.585Z" fill="#D9EBFF"/>
<path d="M306.375 148.796C306.375 148.638 306.461 148.333 306.634 147.879C306.807 147.425 307.047 146.912 307.355 146.34C307.662 145.767 308.084 145.274 308.622 144.86C309.16 144.445 309.727 144.228 310.322 144.209C311.206 144.209 311.868 144.455 312.31 144.949C312.752 145.442 312.973 146.024 312.973 146.695C312.973 147.05 312.646 148.155 311.993 150.01C311.34 151.865 311.014 153.256 311.014 154.183C311.014 155.032 311.148 155.624 311.417 155.959C311.686 156.295 312.089 156.472 312.627 156.492C313.165 156.512 313.674 156.344 314.154 155.989C314.634 155.633 314.989 155.298 315.22 154.982L315.537 154.479C315.575 154.4 315.94 152.901 316.632 149.98C317.208 147.612 317.554 146.231 317.669 145.836C317.784 145.442 317.919 145.156 318.072 144.978C318.399 144.682 318.744 144.534 319.109 144.534C319.436 144.534 319.676 144.633 319.83 144.83C319.983 145.027 320.06 145.215 320.06 145.393L317.871 154.805C317.851 154.903 317.842 155.061 317.842 155.278C317.842 155.772 317.909 156.097 318.043 156.255C318.178 156.413 318.38 156.502 318.648 156.521C319.071 156.462 319.407 156.156 319.657 155.604C319.907 155.051 320.195 154.183 320.521 152.999C320.56 152.841 320.752 152.762 321.097 152.762C321.462 152.762 321.645 152.851 321.645 153.029C321.626 153.128 321.606 153.266 321.587 153.443C321.568 153.621 321.482 153.937 321.328 154.39C321.174 154.844 321.011 155.268 320.838 155.663C320.665 156.058 320.425 156.433 320.118 156.788C319.81 157.143 319.465 157.39 319.081 157.528C318.927 157.567 318.696 157.587 318.389 157.587C317.121 157.587 316.248 157.034 315.767 155.929C315.729 155.949 315.623 156.048 315.45 156.225C315.278 156.403 315.105 156.551 314.932 156.669C314.759 156.788 314.548 156.936 314.298 157.113C314.048 157.291 313.77 157.409 313.462 157.469C313.155 157.528 312.829 157.577 312.483 157.617C311.638 157.617 310.889 157.439 310.236 157.084C309.237 156.472 308.737 155.426 308.737 153.946C308.737 152.822 309.074 151.352 309.746 149.536C310.418 147.721 310.754 146.567 310.754 146.073C310.754 146.054 310.754 146.034 310.754 146.014C310.754 145.836 310.754 145.718 310.754 145.659C310.754 145.6 310.716 145.531 310.639 145.452C310.562 145.373 310.457 145.333 310.322 145.333H310.207C309.765 145.333 309.362 145.521 308.997 145.896C308.632 146.271 308.344 146.675 308.132 147.109C307.921 147.543 307.758 147.958 307.643 148.352C307.527 148.747 307.451 148.964 307.412 149.003C307.374 149.043 307.22 149.063 306.951 149.063H306.548C306.433 148.944 306.375 148.856 306.375 148.796Z" fill="#D9EBFF"/>
<path d="M322.884 148.796C322.903 148.737 322.922 148.658 322.941 148.56C322.961 148.461 323.009 148.244 323.085 147.908C323.162 147.573 323.258 147.267 323.374 146.991C323.489 146.715 323.633 146.389 323.806 146.014C323.979 145.639 324.171 145.343 324.382 145.126C324.593 144.909 324.843 144.692 325.131 144.475C325.419 144.258 325.736 144.169 326.082 144.209C326.639 144.209 327.129 144.327 327.551 144.564C327.974 144.801 328.271 145.018 328.444 145.215C328.617 145.412 328.723 145.61 328.761 145.807C328.8 145.925 328.828 145.984 328.848 145.984C328.867 145.984 328.944 145.915 329.078 145.777C330 144.751 331.066 144.238 332.276 144.238H332.363C333.285 144.238 333.976 144.643 334.437 145.452C334.591 145.827 334.667 146.192 334.667 146.547C334.667 147.139 334.543 147.612 334.293 147.968C334.043 148.323 333.794 148.55 333.544 148.648C333.294 148.747 333.054 148.786 332.824 148.767C332.439 148.767 332.132 148.658 331.902 148.441C331.671 148.224 331.556 147.938 331.556 147.583C331.556 146.636 332.094 146.004 333.169 145.688C332.747 145.432 332.401 145.304 332.132 145.304C331.056 145.304 330.067 146.034 329.165 147.494C328.972 147.81 328.828 148.135 328.732 148.471C328.636 148.806 328.31 150.118 327.753 152.407C327.1 155.17 326.725 156.64 326.629 156.817C326.38 157.35 325.967 157.617 325.39 157.617C325.141 157.617 324.939 157.557 324.785 157.439C324.632 157.321 324.526 157.202 324.468 157.084C324.411 156.965 324.392 156.867 324.411 156.788C324.411 156.531 324.795 154.834 325.563 151.697C326.331 148.56 326.716 146.813 326.716 146.458C326.716 145.688 326.466 145.304 325.967 145.304C325.563 145.304 325.217 145.58 324.929 146.132C324.641 146.685 324.411 147.287 324.238 147.938C324.065 148.589 323.959 148.944 323.921 149.003C323.883 149.043 323.729 149.063 323.46 149.063H323.057C322.941 148.944 322.884 148.856 322.884 148.796Z" fill="#D9EBFF"/>
<path d="M335.877 148.796C335.896 148.737 335.915 148.658 335.935 148.56C335.954 148.461 336.002 148.244 336.079 147.908C336.155 147.573 336.251 147.267 336.367 146.991C336.482 146.715 336.626 146.389 336.799 146.014C336.972 145.639 337.164 145.343 337.375 145.126C337.586 144.909 337.836 144.692 338.124 144.475C338.412 144.258 338.729 144.169 339.075 144.209C339.632 144.209 340.122 144.327 340.544 144.564C340.967 144.801 341.265 145.018 341.437 145.215C341.61 145.412 341.716 145.61 341.754 145.807C341.793 145.925 341.822 145.984 341.841 145.984C341.86 145.984 341.937 145.915 342.071 145.777C342.993 144.751 344.059 144.238 345.269 144.238H345.356C346.278 144.238 346.969 144.643 347.43 145.452C347.584 145.827 347.661 146.192 347.661 146.547C347.661 147.139 347.536 147.612 347.286 147.968C347.036 148.323 346.787 148.55 346.537 148.648C346.287 148.747 346.047 148.786 345.817 148.767C345.433 148.767 345.125 148.658 344.895 148.441C344.664 148.224 344.549 147.938 344.549 147.583C344.549 146.636 345.087 146.004 346.162 145.688C345.74 145.432 345.394 145.304 345.125 145.304C344.05 145.304 343.06 146.034 342.158 147.494C341.966 147.81 341.822 148.135 341.726 148.471C341.63 148.806 341.303 150.118 340.746 152.407C340.093 155.17 339.718 156.64 339.622 156.817C339.373 157.35 338.96 157.617 338.384 157.617C338.134 157.617 337.932 157.557 337.778 157.439C337.625 157.321 337.519 157.202 337.462 157.084C337.404 156.965 337.385 156.867 337.404 156.788C337.404 156.531 337.788 154.834 338.556 151.697C339.325 148.56 339.709 146.813 339.709 146.458C339.709 145.688 339.459 145.304 338.96 145.304C338.556 145.304 338.211 145.58 337.923 146.132C337.634 146.685 337.404 147.287 337.231 147.938C337.058 148.589 336.953 148.944 336.914 149.003C336.876 149.043 336.722 149.063 336.453 149.063H336.05C335.935 148.944 335.877 148.856 335.877 148.796Z" fill="#D9EBFF"/>
<g clip-path="url(#clip0_142_238)">
<path d="M144.07 303.575C144.089 303.518 144.108 303.441 144.127 303.346C144.146 303.25 144.194 303.04 144.271 302.714C144.348 302.389 144.444 302.092 144.559 301.824C144.674 301.557 144.818 301.241 144.991 300.877C145.163 300.514 145.355 300.227 145.566 300.016C145.777 299.806 146.027 299.595 146.314 299.385C146.602 299.174 146.919 299.088 147.264 299.126C148.703 299.126 149.624 299.739 150.027 300.963L150.315 300.705C151.504 299.653 152.637 299.126 153.711 299.126C154.958 299.126 155.937 299.576 156.647 300.475C157.356 301.375 157.711 302.466 157.711 303.748C157.711 305.814 156.982 307.718 155.524 309.46C154.066 311.201 152.416 312.081 150.574 312.1C150.152 312.1 149.778 312.043 149.451 311.928C149.24 311.832 149.02 311.689 148.79 311.498C148.559 311.306 148.377 311.144 148.243 311.01L148.041 310.78C148.022 310.799 147.811 311.631 147.408 313.277C147.005 314.923 146.804 315.755 146.804 315.774C146.804 315.889 146.88 315.956 147.034 315.975C147.187 315.994 147.542 316.023 148.099 316.061H148.818C148.933 316.195 148.991 316.281 148.991 316.32C148.991 316.358 148.962 316.53 148.905 316.836C148.847 317.066 148.79 317.209 148.732 317.267C148.674 317.324 148.55 317.363 148.358 317.382C148.319 317.382 148.214 317.382 148.041 317.382C147.869 317.382 147.542 317.372 147.063 317.353C146.583 317.334 145.988 317.324 145.278 317.324C143.935 317.324 143.081 317.343 142.717 317.382H142.487C142.352 317.248 142.285 317.143 142.285 317.066C142.324 316.549 142.448 316.214 142.659 316.061H143.235C143.887 316.042 144.261 315.927 144.357 315.717C144.415 315.602 145 313.315 146.113 308.857C147.226 304.398 147.811 302.035 147.869 301.767C147.888 301.671 147.897 301.537 147.897 301.365C147.897 300.581 147.657 300.188 147.178 300.188C146.756 300.188 146.401 300.456 146.113 300.992C145.825 301.528 145.604 302.112 145.451 302.743C145.298 303.374 145.182 303.719 145.106 303.776C145.067 303.815 144.914 303.834 144.645 303.834H144.242C144.127 303.719 144.07 303.633 144.07 303.575ZM148.531 308.886C148.953 310.34 149.663 311.067 150.66 311.067C151.236 311.067 151.792 310.847 152.33 310.407C152.867 309.967 153.308 309.412 153.653 308.742C153.999 308.091 154.344 307.058 154.69 305.642C155.035 304.226 155.217 303.174 155.236 302.485V302.312C155.236 300.896 154.651 300.188 153.481 300.188C153.27 300.188 153.059 300.217 152.848 300.275C152.637 300.332 152.425 300.418 152.214 300.533C152.003 300.648 151.811 300.772 151.639 300.906C151.466 301.04 151.303 301.183 151.15 301.337C150.996 301.49 150.852 301.633 150.718 301.767C150.584 301.901 150.478 302.035 150.401 302.169C150.324 302.303 150.248 302.399 150.171 302.456L150.085 302.571C150.085 302.59 150.056 302.724 149.998 302.973C149.941 303.221 149.835 303.642 149.682 304.236C149.528 304.829 149.394 305.326 149.279 305.728C148.78 307.757 148.531 308.809 148.531 308.886Z" fill="#D9EBFF"/>
<path d="M158.488 303.575C158.507 303.518 158.527 303.441 158.546 303.346C158.565 303.25 158.613 303.04 158.69 302.714C158.766 302.389 158.862 302.092 158.978 301.825C159.093 301.557 159.237 301.241 159.409 300.877C159.582 300.514 159.774 300.227 159.985 300.016C160.196 299.806 160.445 299.595 160.733 299.385C161.021 299.174 161.338 299.088 161.683 299.126C162.239 299.126 162.729 299.241 163.151 299.471C163.573 299.7 163.87 299.911 164.043 300.102C164.216 300.294 164.321 300.485 164.359 300.676C164.398 300.791 164.427 300.849 164.446 300.849C164.465 300.849 164.542 300.782 164.676 300.648C165.597 299.653 166.662 299.155 167.871 299.155H167.957C168.878 299.155 169.569 299.547 170.029 300.332C170.183 300.696 170.259 301.05 170.259 301.394C170.259 301.968 170.135 302.427 169.885 302.772C169.636 303.116 169.386 303.336 169.137 303.432C168.888 303.528 168.648 303.566 168.418 303.547C168.034 303.547 167.727 303.441 167.497 303.231C167.266 303.02 167.151 302.743 167.151 302.399C167.151 301.48 167.688 300.868 168.763 300.562C168.341 300.313 167.995 300.188 167.727 300.188C166.652 300.188 165.664 300.896 164.762 302.312C164.571 302.619 164.427 302.934 164.331 303.26C164.235 303.585 163.909 304.858 163.352 307.077C162.7 309.756 162.326 311.182 162.23 311.354C161.98 311.871 161.568 312.129 160.992 312.129C160.743 312.129 160.541 312.072 160.388 311.957C160.234 311.842 160.129 311.727 160.071 311.612C160.014 311.498 159.994 311.402 160.014 311.325C160.014 311.077 160.397 309.431 161.165 306.388C161.932 303.346 162.316 301.652 162.316 301.308C162.316 300.562 162.067 300.188 161.568 300.188C161.165 300.188 160.819 300.456 160.532 300.992C160.244 301.528 160.014 302.112 159.841 302.743C159.668 303.375 159.563 303.719 159.524 303.776C159.486 303.815 159.333 303.834 159.064 303.834H158.661C158.546 303.719 158.488 303.633 158.488 303.575Z" fill="#D9EBFF"/>
<path d="M172.015 306.991C172.015 305.9 172.197 304.905 172.561 304.006C172.926 303.107 173.396 302.36 173.972 301.767C174.547 301.174 175.19 300.676 175.9 300.275C176.61 299.873 177.281 299.576 177.915 299.385C178.548 299.193 179.152 299.107 179.728 299.126H179.814C180.678 299.126 181.426 299.337 182.059 299.758C182.692 300.179 183.009 300.801 183.009 301.624C183.009 303.346 181.944 304.475 179.814 305.011C178.874 305.259 177.588 305.393 175.958 305.412C175.248 305.412 174.883 305.432 174.864 305.47C174.864 305.508 174.806 305.843 174.691 306.474C174.576 307.106 174.509 307.661 174.49 308.139C174.49 309.039 174.691 309.747 175.094 310.263C175.497 310.78 176.101 311.048 176.907 311.067C177.713 311.086 178.605 310.904 179.584 310.522C180.562 310.139 181.445 309.507 182.232 308.627C182.404 308.436 182.519 308.34 182.577 308.34C182.654 308.34 182.779 308.426 182.951 308.599C183.124 308.771 183.22 308.905 183.239 309C183.258 309.096 183.172 309.249 182.98 309.46C182.788 309.67 182.5 309.928 182.117 310.235C181.733 310.541 181.292 310.837 180.793 311.124C180.294 311.411 179.689 311.651 178.98 311.842C178.27 312.033 177.54 312.129 176.792 312.129C175.276 312.129 174.106 311.622 173.281 310.608C172.456 309.594 172.034 308.388 172.015 306.991ZM181.627 301.681C181.512 300.686 180.86 300.188 179.67 300.188C179.037 300.188 178.452 300.322 177.915 300.59C177.377 300.858 176.946 301.183 176.62 301.566C176.293 301.949 176.015 302.341 175.785 302.743C175.555 303.145 175.401 303.489 175.324 303.776C175.248 304.063 175.2 304.245 175.18 304.322C175.18 304.341 175.372 304.35 175.756 304.35C177.924 304.35 179.44 304.121 180.303 303.662C181.167 303.202 181.608 302.542 181.627 301.681Z" fill="#D9EBFF"/>
<path d="M189.283 300.906C189.283 300.428 189.101 300.188 188.736 300.188C188.276 300.188 187.796 300.466 187.297 301.021C186.798 301.576 186.386 302.427 186.059 303.575C186.04 303.595 186.021 303.623 186.002 303.662C185.983 303.7 185.973 303.729 185.973 303.748C185.973 303.767 185.954 303.786 185.916 303.805C185.877 303.824 185.848 303.834 185.829 303.834C185.81 303.834 185.772 303.834 185.714 303.834C185.656 303.834 185.58 303.834 185.484 303.834H185.081C184.966 303.719 184.908 303.633 184.908 303.575C184.908 303.441 184.985 303.164 185.138 302.743C185.292 302.322 185.522 301.825 185.829 301.25C186.136 300.676 186.558 300.188 187.096 299.787C187.633 299.385 188.237 299.174 188.909 299.155C189.715 299.155 190.338 299.385 190.779 299.844C191.221 300.303 191.451 300.839 191.47 301.451C191.47 301.777 191.441 302.025 191.384 302.198C191.384 302.312 191.24 302.733 190.952 303.461C190.664 304.188 190.367 305.039 190.06 306.015C189.753 306.991 189.58 307.843 189.542 308.57C189.542 309.086 189.59 309.507 189.686 309.833C189.935 310.656 190.54 311.067 191.499 311.067C192.209 311.067 192.871 310.742 193.485 310.091C194.099 309.44 194.578 308.685 194.924 307.824C195.269 306.962 195.547 306.168 195.758 305.441C195.969 304.714 196.075 304.188 196.075 303.862C196.075 303.422 195.998 303.04 195.845 302.714C195.691 302.389 195.519 302.14 195.327 301.968C195.135 301.796 194.962 301.624 194.809 301.451C194.655 301.279 194.578 301.069 194.578 300.82C194.578 300.399 194.761 300.007 195.125 299.643C195.49 299.279 195.883 299.098 196.305 299.098C196.67 299.098 196.996 299.27 197.284 299.614C197.572 299.959 197.725 300.514 197.744 301.279C197.744 301.796 197.629 302.59 197.399 303.662C197.169 304.733 196.814 305.929 196.334 307.249C195.854 308.57 195.173 309.708 194.291 310.665C193.408 311.622 192.391 312.11 191.24 312.129C190.012 312.129 189.033 311.813 188.304 311.182C187.594 310.569 187.239 309.661 187.239 308.455C187.239 307.862 187.316 307.249 187.47 306.618C187.623 305.987 188.016 304.867 188.65 303.26C189.072 302.035 189.283 301.25 189.283 300.906Z" fill="#D9EBFF"/>
</g>
<line x1="348.777" y1="172.013" x2="206.684" y2="172.013" stroke="#B3BFD8" stroke-width="2"/>
<circle cx="206.046" cy="172.374" r="5" fill="black" stroke="#D9EBFF" stroke-width="2"/>
<circle cx="348.295" cy="170.5" r="5" fill="black" stroke="#D9EBFF" stroke-width="2"/>
<defs>
<clipPath id="clip0_142_238">
<rect width="56" height="23" fill="white" transform="translate(142.295 296.5)"/>
</clipPath>
</defs>
</svg>
