<svg width="701" height="330" viewBox="0 0 701 330" fill="none" xmlns="http://www.w3.org/2000/svg">
<rect width="700" height="330" transform="translate(0.897461)" fill="#0A0D12"/>
<line x1="349.778" y1="169.518" x2="577.648" y2="108.461" stroke="#B3BFD8" stroke-width="2"/>
<line x1="350.027" y1="169.751" x2="492.12" y2="290.453" stroke="#B3BFD8" stroke-width="2"/>
<line x1="348.511" y1="169.815" x2="437.128" y2="14.1744" stroke="#B3BFD8" stroke-width="2"/>
<circle cx="349.397" cy="168.5" r="97.5" fill="url(#paint0_radial_49_666)"/>
<path d="M212.32 305.414L279.898 237.836" stroke="#B3BFD8" stroke-width="2" stroke-linecap="round" stroke-linejoin="round"/>
<path d="M280.115 238.008C318.303 276.195 380.162 276.25 418.282 238.129C456.403 200.009 456.348 138.149 418.161 99.962C379.973 61.7746 318.114 61.7202 279.994 99.8404C261.183 118.651 251.668 143.242 251.443 167.916M251.443 167.916L238.943 155.416M251.443 167.916L263.921 155.438" stroke="#B3BFD8" stroke-width="2"/>
<path d="M276.319 241.414L347.319 170.414" stroke="#B3BFD8" stroke-width="2" stroke-linejoin="round" stroke-dasharray="8 8"/>
<circle cx="577.923" cy="108.286" r="5" fill="black" stroke="#D9EBFF" stroke-width="2"/>
<circle cx="436.897" cy="15" r="5" fill="black" stroke="#D9EBFF" stroke-width="2"/>
<circle cx="491.834" cy="290.576" r="5" fill="black" stroke="#D9EBFF" stroke-width="2"/>
<circle cx="211.897" cy="305" r="5" fill="black" stroke="#D9EBFF" stroke-width="2"/>
<g clip-path="url(#clip0_49_666)">
<path d="M321.877 152.085C321.877 149.934 322.703 148 324.355 146.284C326.007 144.567 327.793 143.709 329.714 143.709C330.789 143.709 331.634 143.945 332.249 144.419C332.864 144.893 333.18 145.514 333.2 146.284C333.2 146.856 333.017 147.339 332.652 147.734C332.287 148.129 331.826 148.336 331.269 148.356C330.904 148.356 330.616 148.257 330.405 148.06C330.194 147.862 330.088 147.566 330.088 147.172C330.088 146.777 330.194 146.442 330.405 146.165C330.616 145.889 330.828 145.682 331.039 145.544C331.25 145.406 331.385 145.346 331.442 145.366H331.471C331.471 145.327 331.413 145.267 331.298 145.189C331.183 145.11 330.981 145.031 330.693 144.952C330.405 144.873 330.078 144.833 329.714 144.833C329.137 144.833 328.59 144.971 328.071 145.248C327.668 145.425 327.255 145.731 326.832 146.165C325.987 147.033 325.373 148.257 324.989 149.835C324.604 151.414 324.403 152.558 324.384 153.269C324.384 154.177 324.633 154.857 325.133 155.311C325.555 155.785 326.112 156.021 326.804 156.021H326.919C329.07 156.021 330.847 155.183 332.249 153.506C332.422 153.308 332.537 153.21 332.595 153.21C332.671 153.21 332.796 153.298 332.969 153.476C333.142 153.654 333.238 153.792 333.257 153.89C333.276 153.989 333.19 154.137 332.998 154.334C332.806 154.532 332.527 154.808 332.162 155.163C331.798 155.518 331.365 155.814 330.866 156.051C330.367 156.288 329.752 156.535 329.022 156.791C328.292 157.048 327.524 157.156 326.717 157.117C325.277 157.117 324.115 156.643 323.231 155.696C322.348 154.749 321.896 153.545 321.877 152.085Z" fill="#D9EBFF"/>
<path d="M333.978 148.296C333.978 148.138 334.064 147.833 334.237 147.379C334.41 146.925 334.65 146.412 334.957 145.84C335.264 145.267 335.687 144.774 336.225 144.36C336.763 143.945 337.329 143.728 337.925 143.709C338.808 143.709 339.471 143.955 339.913 144.449C340.354 144.942 340.575 145.524 340.575 146.195C340.575 146.55 340.249 147.655 339.596 149.51C338.943 151.365 338.616 152.756 338.616 153.683C338.616 154.532 338.751 155.124 339.019 155.459C339.288 155.795 339.692 155.972 340.23 155.992C340.767 156.012 341.276 155.844 341.756 155.489C342.237 155.133 342.592 154.798 342.822 154.482L343.139 153.979C343.178 153.9 343.543 152.401 344.234 149.48C344.81 147.112 345.156 145.731 345.271 145.336C345.387 144.942 345.521 144.656 345.675 144.478C346.001 144.182 346.347 144.034 346.712 144.034C347.038 144.034 347.279 144.133 347.432 144.33C347.586 144.527 347.663 144.715 347.663 144.893L345.473 154.305C345.454 154.403 345.444 154.561 345.444 154.778C345.444 155.272 345.512 155.597 345.646 155.755C345.78 155.913 345.982 156.002 346.251 156.021C346.674 155.962 347.01 155.656 347.259 155.104C347.509 154.551 347.797 153.683 348.124 152.499C348.162 152.341 348.354 152.262 348.7 152.262C349.065 152.262 349.247 152.351 349.247 152.529C349.228 152.628 349.209 152.766 349.19 152.943C349.17 153.121 349.084 153.437 348.93 153.89C348.777 154.344 348.613 154.768 348.441 155.163C348.268 155.558 348.028 155.933 347.72 156.288C347.413 156.643 347.067 156.89 346.683 157.028C346.529 157.067 346.299 157.087 345.992 157.087C344.724 157.087 343.85 156.534 343.37 155.429C343.331 155.449 343.226 155.548 343.053 155.725C342.88 155.903 342.707 156.051 342.534 156.169C342.362 156.288 342.15 156.436 341.901 156.613C341.651 156.791 341.372 156.909 341.065 156.969C340.758 157.028 340.431 157.077 340.085 157.117C339.24 157.117 338.491 156.939 337.838 156.584C336.839 155.972 336.34 154.926 336.34 153.446C336.34 152.322 336.676 150.852 337.348 149.036C338.021 147.221 338.357 146.067 338.357 145.573C338.357 145.554 338.357 145.534 338.357 145.514C338.357 145.336 338.357 145.218 338.357 145.159C338.357 145.1 338.318 145.031 338.242 144.952C338.165 144.873 338.059 144.833 337.925 144.833H337.809C337.368 144.833 336.964 145.021 336.599 145.396C336.234 145.771 335.946 146.175 335.735 146.609C335.524 147.043 335.36 147.458 335.245 147.852C335.13 148.247 335.053 148.464 335.015 148.503C334.976 148.543 334.823 148.563 334.554 148.563H334.15C334.035 148.444 333.978 148.356 333.978 148.296Z" fill="#D9EBFF"/>
<path d="M350.486 148.296C350.506 148.237 350.525 148.158 350.544 148.06C350.563 147.961 350.611 147.744 350.688 147.408C350.765 147.073 350.861 146.767 350.976 146.491C351.091 146.215 351.235 145.889 351.408 145.514C351.581 145.139 351.773 144.843 351.984 144.626C352.196 144.409 352.445 144.192 352.734 143.975C353.022 143.758 353.339 143.669 353.684 143.709C354.241 143.709 354.731 143.827 355.154 144.064C355.576 144.301 355.874 144.518 356.047 144.715C356.22 144.912 356.325 145.11 356.364 145.307C356.402 145.425 356.431 145.484 356.45 145.484C356.469 145.484 356.546 145.415 356.681 145.277C357.603 144.251 358.669 143.738 359.879 143.738H359.965C360.887 143.738 361.579 144.143 362.039 144.952C362.193 145.327 362.27 145.692 362.27 146.047C362.27 146.639 362.145 147.112 361.895 147.468C361.646 147.823 361.396 148.05 361.146 148.148C360.897 148.247 360.657 148.286 360.426 148.267C360.042 148.267 359.735 148.158 359.504 147.941C359.274 147.724 359.158 147.438 359.158 147.083C359.158 146.136 359.696 145.504 360.772 145.188C360.349 144.932 360.004 144.804 359.735 144.804C358.659 144.804 357.67 145.534 356.767 146.994C356.575 147.31 356.431 147.635 356.335 147.971C356.239 148.306 355.912 149.618 355.355 151.907C354.702 154.67 354.328 156.14 354.232 156.317C353.982 156.85 353.569 157.117 352.993 157.117C352.743 157.117 352.542 157.057 352.388 156.939C352.234 156.821 352.129 156.702 352.071 156.584C352.013 156.465 351.994 156.367 352.013 156.288C352.013 156.031 352.397 154.334 353.166 151.197C353.934 148.06 354.318 146.313 354.318 145.958C354.318 145.188 354.068 144.804 353.569 144.804C353.166 144.804 352.82 145.08 352.532 145.632C352.244 146.185 352.013 146.787 351.84 147.438C351.668 148.089 351.562 148.444 351.524 148.503C351.485 148.543 351.331 148.563 351.063 148.563H350.659C350.544 148.444 350.486 148.356 350.486 148.296Z" fill="#D9EBFF"/>
<path d="M363.479 148.296C363.499 148.237 363.518 148.158 363.537 148.06C363.556 147.961 363.604 147.744 363.681 147.408C363.758 147.073 363.854 146.767 363.969 146.491C364.085 146.215 364.229 145.889 364.401 145.514C364.574 145.139 364.766 144.843 364.978 144.626C365.189 144.409 365.439 144.192 365.727 143.975C366.015 143.758 366.332 143.669 366.678 143.709C367.235 143.709 367.724 143.827 368.147 144.064C368.569 144.301 368.867 144.518 369.04 144.715C369.213 144.912 369.319 145.11 369.357 145.307C369.395 145.425 369.424 145.484 369.443 145.484C369.463 145.484 369.539 145.415 369.674 145.277C370.596 144.251 371.662 143.738 372.872 143.738H372.958C373.88 143.738 374.572 144.143 375.033 144.952C375.186 145.327 375.263 145.692 375.263 146.047C375.263 146.639 375.138 147.112 374.889 147.468C374.639 147.823 374.389 148.05 374.14 148.148C373.89 148.247 373.65 148.286 373.419 148.267C373.035 148.267 372.728 148.158 372.497 147.941C372.267 147.724 372.152 147.438 372.152 147.083C372.152 146.136 372.689 145.504 373.765 145.188C373.342 144.932 372.997 144.804 372.728 144.804C371.652 144.804 370.663 145.534 369.76 146.994C369.568 147.31 369.424 147.635 369.328 147.971C369.232 148.306 368.906 149.618 368.349 151.907C367.695 154.67 367.321 156.14 367.225 156.317C366.975 156.85 366.562 157.117 365.986 157.117C365.736 157.117 365.535 157.057 365.381 156.939C365.227 156.821 365.122 156.702 365.064 156.584C365.006 156.465 364.987 156.367 365.006 156.288C365.006 156.031 365.391 154.334 366.159 151.197C366.927 148.06 367.311 146.313 367.311 145.958C367.311 145.188 367.062 144.804 366.562 144.804C366.159 144.804 365.813 145.08 365.525 145.632C365.237 146.185 365.006 146.787 364.834 147.438C364.661 148.089 364.555 148.444 364.517 148.503C364.478 148.543 364.325 148.563 364.056 148.563H363.652C363.537 148.444 363.479 148.356 363.479 148.296Z" fill="#D9EBFF"/>
</g>
<g clip-path="url(#clip1_49_666)">
<path d="M143.672 302.075C143.691 302.018 143.71 301.941 143.73 301.846C143.749 301.75 143.797 301.54 143.874 301.214C143.95 300.889 144.046 300.592 144.161 300.324C144.276 300.057 144.42 299.741 144.593 299.377C144.766 299.014 144.958 298.727 145.169 298.516C145.38 298.306 145.629 298.095 145.917 297.885C146.205 297.674 146.521 297.588 146.867 297.626C148.306 297.626 149.227 298.239 149.63 299.463L149.917 299.205C151.107 298.153 152.239 297.626 153.314 297.626C154.561 297.626 155.539 298.076 156.249 298.975C156.959 299.875 157.314 300.966 157.314 302.248C157.314 304.314 156.585 306.218 155.127 307.96C153.668 309.701 152.018 310.581 150.176 310.6C149.754 310.6 149.38 310.543 149.054 310.428C148.843 310.332 148.622 310.189 148.392 309.998C148.162 309.806 147.98 309.644 147.845 309.51L147.644 309.28C147.625 309.299 147.414 310.131 147.011 311.777C146.608 313.423 146.406 314.255 146.406 314.274C146.406 314.389 146.483 314.456 146.636 314.475C146.79 314.494 147.145 314.523 147.701 314.561H148.421C148.536 314.695 148.594 314.781 148.594 314.82C148.594 314.858 148.565 315.03 148.507 315.336C148.45 315.566 148.392 315.709 148.335 315.767C148.277 315.824 148.152 315.863 147.96 315.882C147.922 315.882 147.816 315.882 147.644 315.882C147.471 315.882 147.145 315.872 146.665 315.853C146.186 315.834 145.591 315.824 144.881 315.824C143.538 315.824 142.684 315.843 142.319 315.882H142.089C141.955 315.748 141.888 315.643 141.888 315.566C141.926 315.049 142.051 314.714 142.262 314.561H142.837C143.49 314.542 143.864 314.427 143.96 314.217C144.017 314.102 144.603 311.815 145.715 307.357C146.828 302.898 147.414 300.535 147.471 300.267C147.49 300.171 147.5 300.037 147.5 299.865C147.5 299.081 147.26 298.688 146.78 298.688C146.358 298.688 146.003 298.956 145.715 299.492C145.428 300.028 145.207 300.612 145.054 301.243C144.9 301.874 144.785 302.219 144.708 302.276C144.67 302.315 144.516 302.334 144.248 302.334H143.845C143.73 302.219 143.672 302.133 143.672 302.075ZM148.133 307.386C148.555 308.84 149.265 309.567 150.263 309.567C150.838 309.567 151.395 309.347 151.932 308.907C152.469 308.467 152.911 307.912 153.256 307.242C153.601 306.591 153.947 305.558 154.292 304.142C154.637 302.726 154.82 301.674 154.839 300.985V300.812C154.839 299.396 154.254 298.688 153.083 298.688C152.872 298.688 152.661 298.717 152.45 298.775C152.239 298.832 152.028 298.918 151.817 299.033C151.606 299.148 151.414 299.272 151.241 299.406C151.069 299.54 150.906 299.683 150.752 299.837C150.599 299.99 150.455 300.133 150.32 300.267C150.186 300.401 150.081 300.535 150.004 300.669C149.927 300.803 149.85 300.899 149.774 300.956L149.687 301.071C149.687 301.09 149.658 301.224 149.601 301.473C149.543 301.721 149.438 302.142 149.284 302.736C149.131 303.329 148.996 303.826 148.881 304.228C148.382 306.257 148.133 307.309 148.133 307.386Z" fill="#D9EBFF"/>
<path d="M158.091 302.075C158.11 302.018 158.129 301.941 158.148 301.846C158.168 301.75 158.216 301.54 158.292 301.214C158.369 300.889 158.465 300.592 158.58 300.325C158.695 300.057 158.839 299.741 159.012 299.377C159.184 299.014 159.376 298.727 159.587 298.516C159.798 298.306 160.048 298.095 160.336 297.885C160.623 297.674 160.94 297.588 161.285 297.626C161.842 297.626 162.331 297.741 162.753 297.971C163.175 298.2 163.473 298.411 163.645 298.602C163.818 298.794 163.924 298.985 163.962 299.176C164 299.291 164.029 299.349 164.048 299.349C164.068 299.349 164.144 299.282 164.279 299.148C165.2 298.153 166.264 297.655 167.473 297.655H167.56C168.481 297.655 169.171 298.047 169.632 298.832C169.785 299.196 169.862 299.55 169.862 299.894C169.862 300.468 169.737 300.927 169.488 301.272C169.238 301.616 168.989 301.836 168.74 301.932C168.49 302.028 168.25 302.066 168.02 302.047C167.636 302.047 167.329 301.941 167.099 301.731C166.869 301.52 166.754 301.243 166.754 300.899C166.754 299.98 167.291 299.368 168.365 299.062C167.943 298.813 167.598 298.688 167.329 298.688C166.255 298.688 165.267 299.396 164.365 300.812C164.173 301.119 164.029 301.434 163.933 301.76C163.837 302.085 163.511 303.358 162.955 305.577C162.302 308.256 161.928 309.682 161.832 309.854C161.583 310.371 161.17 310.629 160.595 310.629C160.345 310.629 160.144 310.572 159.99 310.457C159.837 310.342 159.731 310.227 159.674 310.112C159.616 309.998 159.597 309.902 159.616 309.825C159.616 309.577 160 307.931 160.767 304.888C161.535 301.846 161.919 300.152 161.919 299.808C161.919 299.062 161.669 298.688 161.17 298.688C160.767 298.688 160.422 298.956 160.134 299.492C159.846 300.028 159.616 300.612 159.443 301.243C159.271 301.875 159.165 302.219 159.127 302.276C159.089 302.315 158.935 302.334 158.666 302.334H158.264C158.148 302.219 158.091 302.133 158.091 302.075Z" fill="#D9EBFF"/>
<path d="M171.617 305.491C171.617 304.4 171.799 303.405 172.164 302.506C172.529 301.607 172.999 300.86 173.574 300.267C174.15 299.674 174.793 299.176 175.503 298.775C176.212 298.373 176.884 298.076 177.517 297.885C178.15 297.693 178.755 297.607 179.33 297.626H179.417C180.28 297.626 181.028 297.837 181.662 298.258C182.295 298.679 182.611 299.301 182.611 300.124C182.611 301.846 181.546 302.975 179.417 303.511C178.477 303.759 177.191 303.893 175.56 303.912C174.85 303.912 174.486 303.932 174.466 303.97C174.466 304.008 174.409 304.343 174.294 304.974C174.179 305.606 174.111 306.161 174.092 306.639C174.092 307.539 174.294 308.247 174.697 308.763C175.1 309.28 175.704 309.548 176.51 309.567C177.316 309.586 178.208 309.404 179.186 309.022C180.165 308.639 181.048 308.007 181.834 307.127C182.007 306.936 182.122 306.84 182.18 306.84C182.256 306.84 182.381 306.926 182.554 307.099C182.726 307.271 182.822 307.405 182.842 307.5C182.861 307.596 182.774 307.749 182.583 307.96C182.391 308.17 182.103 308.428 181.719 308.735C181.335 309.041 180.894 309.337 180.395 309.624C179.896 309.911 179.292 310.151 178.582 310.342C177.872 310.533 177.143 310.629 176.395 310.629C174.879 310.629 173.709 310.122 172.884 309.108C172.058 308.094 171.636 306.888 171.617 305.491ZM181.23 300.181C181.115 299.186 180.462 298.688 179.273 298.688C178.64 298.688 178.054 298.822 177.517 299.09C176.98 299.358 176.548 299.683 176.222 300.066C175.896 300.449 175.618 300.841 175.387 301.243C175.157 301.645 175.004 301.989 174.927 302.276C174.85 302.563 174.802 302.745 174.783 302.822C174.783 302.841 174.975 302.85 175.359 302.85C177.527 302.85 179.043 302.621 179.906 302.162C180.769 301.702 181.211 301.042 181.23 300.181Z" fill="#D9EBFF"/>
<path d="M188.885 299.406C188.885 298.928 188.703 298.688 188.339 298.688C187.878 298.688 187.398 298.966 186.9 299.521C186.401 300.076 185.988 300.927 185.662 302.075C185.643 302.095 185.624 302.123 185.604 302.162C185.585 302.2 185.576 302.229 185.576 302.248C185.576 302.267 185.556 302.286 185.518 302.305C185.48 302.324 185.451 302.334 185.432 302.334C185.413 302.334 185.374 302.334 185.317 302.334C185.259 302.334 185.182 302.334 185.086 302.334H184.683C184.568 302.219 184.511 302.133 184.511 302.075C184.511 301.941 184.587 301.664 184.741 301.243C184.894 300.822 185.125 300.325 185.432 299.75C185.739 299.176 186.161 298.688 186.698 298.287C187.235 297.885 187.84 297.674 188.511 297.655C189.317 297.655 189.941 297.885 190.382 298.344C190.823 298.803 191.053 299.339 191.073 299.951C191.073 300.277 191.044 300.525 190.986 300.698C190.986 300.812 190.842 301.233 190.555 301.961C190.267 302.688 189.969 303.539 189.662 304.515C189.355 305.491 189.183 306.343 189.144 307.07C189.144 307.586 189.192 308.007 189.288 308.333C189.538 309.156 190.142 309.567 191.101 309.567C191.811 309.567 192.473 309.242 193.087 308.591C193.701 307.94 194.181 307.185 194.526 306.324C194.872 305.462 195.15 304.668 195.361 303.941C195.572 303.214 195.678 302.688 195.678 302.362C195.678 301.922 195.601 301.54 195.447 301.214C195.294 300.889 195.121 300.64 194.929 300.468C194.737 300.296 194.565 300.124 194.411 299.951C194.258 299.779 194.181 299.569 194.181 299.32C194.181 298.899 194.363 298.507 194.728 298.143C195.092 297.779 195.486 297.598 195.908 297.598C196.272 297.598 196.599 297.77 196.886 298.114C197.174 298.459 197.328 299.014 197.347 299.779C197.347 300.296 197.232 301.09 197.001 302.162C196.771 303.233 196.416 304.429 195.937 305.749C195.457 307.07 194.776 308.208 193.893 309.165C193.011 310.122 191.994 310.61 190.842 310.629C189.614 310.629 188.636 310.313 187.907 309.682C187.197 309.069 186.842 308.161 186.842 306.955C186.842 306.362 186.919 305.749 187.072 305.118C187.226 304.487 187.619 303.367 188.252 301.76C188.674 300.535 188.885 299.75 188.885 299.406Z" fill="#D9EBFF"/>
</g>
<line x1="349.38" y1="171.513" x2="207.287" y2="171.513" stroke="#B3BFD8" stroke-width="2"/>
<circle cx="206.648" cy="171.874" r="5" fill="black" stroke="#D9EBFF" stroke-width="2"/>
<circle cx="348.897" cy="170" r="5" fill="black" stroke="#D9EBFF" stroke-width="2"/>
<defs>
<radialGradient id="paint0_radial_49_666" cx="0" cy="0" r="1" gradientUnits="userSpaceOnUse" gradientTransform="translate(349.397 168.5) rotate(90) scale(97.5)">
<stop offset="0.28125" stop-color="#0A0D12" stop-opacity="0.75"/>
<stop offset="0.807292" stop-color="#0A0D12" stop-opacity="0.55"/>
<stop offset="1" stop-color="#0A0D12" stop-opacity="0.5"/>
</radialGradient>
<clipPath id="clip0_49_666">
<rect width="55" height="19" fill="white" transform="translate(320.897 141)"/>
</clipPath>
<clipPath id="clip1_49_666">
<rect width="56" height="23" fill="white" transform="translate(141.897 295)"/>
</clipPath>
</defs>
</svg>
