<svg width="701" height="255" viewBox="0 0 701 255" fill="none" xmlns="http://www.w3.org/2000/svg">
<rect width="700" height="255" transform="translate(0.897461)" fill="#0A0D12"/>
<path d="M275.397 31H426.397M275.397 31L350.897 74.6667L426.397 31M275.397 31L199.897 106.667L275.397 182.333M426.397 31L501.897 106.667L426.397 182.333M426.397 182.333L350.897 226L275.397 182.333M426.397 182.333H275.397" stroke="#B3BFD8" stroke-width="2"/>
<circle cx="200.897" cy="107" r="5" fill="black" stroke="#D9EBFF" stroke-width="2"/>
<circle cx="275.897" cy="31" r="5" fill="black" stroke="#D9EBFF" stroke-width="2"/>
<circle cx="425.897" cy="31" r="5" fill="black" stroke="#D9EBFF" stroke-width="2"/>
<circle cx="350.897" cy="75" r="5" fill="black" stroke="#D9EBFF" stroke-width="2"/>
<circle cx="350.897" cy="226" r="5" fill="black" stroke="#D9EBFF" stroke-width="2"/>
<circle cx="426.897" cy="182" r="5" fill="black" stroke="#D9EBFF" stroke-width="2"/>
<circle cx="274.897" cy="182" r="5" fill="black" stroke="#D9EBFF" stroke-width="2"/>
<circle cx="501.897" cy="107" r="5" fill="black" stroke="#D9EBFF" stroke-width="2"/>
<path d="M169.897 104.241C169.911 104.157 169.932 104.046 169.96 103.907C169.988 103.767 170.072 103.502 170.211 103.112C170.35 102.722 170.49 102.395 170.629 102.13C170.768 101.865 170.998 101.607 171.319 101.356C171.639 101.106 171.96 100.987 172.28 101.001C172.782 101.001 173.2 101.127 173.534 101.377C173.869 101.628 174.078 101.865 174.162 102.088C174.245 102.311 174.287 102.457 174.287 102.527C174.287 102.555 174.294 102.569 174.308 102.569L174.538 102.339C175.388 101.447 176.356 101.001 177.443 101.001C178.196 101.001 178.802 101.189 179.262 101.565C179.722 101.942 179.958 102.492 179.972 103.217C179.986 103.941 179.722 105.035 179.178 106.498C178.635 107.962 178.37 108.846 178.384 109.153C178.384 109.515 178.502 109.696 178.739 109.696C178.823 109.696 178.885 109.689 178.927 109.676C179.331 109.606 179.694 109.341 180.014 108.881C180.335 108.421 180.579 107.864 180.746 107.209C180.774 107.098 180.913 107.042 181.164 107.042C181.442 107.042 181.582 107.098 181.582 107.209C181.582 107.223 181.554 107.328 181.498 107.523C181.387 107.927 181.233 108.324 181.038 108.714C180.843 109.104 180.523 109.494 180.077 109.885C179.631 110.275 179.15 110.463 178.635 110.449C177.98 110.449 177.506 110.261 177.213 109.885C176.921 109.508 176.774 109.118 176.774 108.714C176.774 108.449 177.025 107.613 177.527 106.206C178.028 104.798 178.286 103.739 178.3 103.029C178.3 102.206 177.994 101.795 177.38 101.795H177.276C176.078 101.795 175.067 102.499 174.245 103.907L174.099 104.157L173.409 106.958C172.949 108.784 172.684 109.766 172.615 109.905C172.434 110.282 172.134 110.47 171.716 110.47C171.535 110.47 171.388 110.428 171.277 110.344C171.166 110.261 171.089 110.177 171.047 110.094C171.005 110.01 170.991 109.94 171.005 109.885C171.005 109.703 171.27 108.568 171.8 106.477C172.329 104.387 172.608 103.252 172.636 103.07C172.65 103.001 172.657 102.841 172.657 102.59C172.657 102.046 172.489 101.774 172.155 101.774C171.625 101.774 171.186 102.471 170.838 103.865C170.754 104.143 170.713 104.29 170.713 104.304C170.685 104.387 170.552 104.429 170.316 104.429H170.023C169.939 104.345 169.897 104.283 169.897 104.241Z" fill="#D9EBFF"/>
<path d="M183.424 104.743C183.975 103.945 184.729 103.546 185.685 103.546C186.158 103.546 186.63 103.674 187.103 103.93C187.576 104.186 187.96 104.639 188.256 105.289C188.621 106.107 188.803 107.23 188.803 108.659C188.803 110.186 188.591 111.353 188.167 112.161C187.97 112.575 187.699 112.905 187.355 113.151C187.01 113.397 186.709 113.55 186.453 113.609C186.197 113.668 185.946 113.703 185.699 113.713C185.443 113.713 185.187 113.683 184.931 113.624C184.675 113.565 184.374 113.407 184.03 113.151C183.685 112.895 183.414 112.565 183.217 112.161C182.793 111.353 182.581 110.186 182.581 108.659C182.581 106.944 182.862 105.639 183.424 104.743ZM186.749 104.565C186.453 104.25 186.103 104.092 185.699 104.092C185.286 104.092 184.931 104.25 184.635 104.565C184.389 104.821 184.227 105.176 184.148 105.629C184.069 106.082 184.03 107.028 184.03 108.467C184.03 110.023 184.069 111.048 184.148 111.54C184.227 112.033 184.404 112.422 184.68 112.708C184.956 113.003 185.296 113.151 185.699 113.151C186.094 113.151 186.428 113.003 186.704 112.708C186.99 112.412 187.167 111.998 187.236 111.466C187.305 110.934 187.345 109.934 187.355 108.467C187.355 107.038 187.315 106.097 187.236 105.644C187.158 105.191 186.995 104.831 186.749 104.565Z" fill="#D9EBFF"/>
<path d="M261.897 193.241C261.911 193.157 261.932 193.046 261.96 192.907C261.988 192.767 262.072 192.502 262.211 192.112C262.35 191.722 262.49 191.395 262.629 191.13C262.768 190.865 262.998 190.607 263.319 190.356C263.639 190.106 263.96 189.987 264.28 190.001C264.782 190.001 265.2 190.127 265.534 190.377C265.869 190.628 266.078 190.865 266.162 191.088C266.245 191.311 266.287 191.457 266.287 191.527C266.287 191.555 266.294 191.569 266.308 191.569L266.538 191.339C267.388 190.447 268.356 190.001 269.443 190.001C270.196 190.001 270.802 190.189 271.262 190.565C271.722 190.942 271.958 191.492 271.972 192.217C271.986 192.941 271.722 194.035 271.178 195.498C270.635 196.962 270.37 197.846 270.384 198.153C270.384 198.515 270.502 198.696 270.739 198.696C270.823 198.696 270.885 198.689 270.927 198.676C271.331 198.606 271.694 198.341 272.014 197.881C272.335 197.421 272.579 196.864 272.746 196.209C272.774 196.098 272.913 196.042 273.164 196.042C273.442 196.042 273.582 196.098 273.582 196.209C273.582 196.223 273.554 196.328 273.498 196.523C273.387 196.927 273.233 197.324 273.038 197.714C272.843 198.104 272.523 198.494 272.077 198.885C271.631 199.275 271.15 199.463 270.635 199.449C269.98 199.449 269.506 199.261 269.213 198.885C268.921 198.508 268.774 198.118 268.774 197.714C268.774 197.449 269.025 196.613 269.527 195.206C270.028 193.798 270.286 192.739 270.3 192.029C270.3 191.206 269.994 190.795 269.38 190.795H269.276C268.078 190.795 267.067 191.499 266.245 192.907L266.099 193.157L265.409 195.958C264.949 197.784 264.684 198.766 264.615 198.905C264.434 199.282 264.134 199.47 263.716 199.47C263.535 199.47 263.388 199.428 263.277 199.344C263.166 199.261 263.089 199.177 263.047 199.094C263.005 199.01 262.991 198.94 263.005 198.885C263.005 198.703 263.27 197.568 263.8 195.477C264.329 193.387 264.608 192.252 264.636 192.07C264.65 192.001 264.657 191.841 264.657 191.59C264.657 191.046 264.489 190.774 264.155 190.774C263.625 190.774 263.186 191.471 262.838 192.865C262.754 193.143 262.713 193.29 262.713 193.304C262.685 193.387 262.552 193.429 262.316 193.429H262.023C261.939 193.345 261.897 193.283 261.897 193.241Z" fill="#D9EBFF"/>
<path d="M277.153 193.846L276.961 193.92C276.823 193.969 276.626 194.018 276.369 194.068C276.113 194.117 275.828 194.151 275.512 194.171H275.232V193.491H275.512C275.975 193.472 276.404 193.398 276.798 193.27C277.192 193.142 277.468 193.023 277.626 192.915C277.783 192.807 277.921 192.698 278.039 192.59C278.059 192.56 278.118 192.546 278.217 192.546C278.305 192.546 278.389 192.575 278.468 192.634V197.053L278.483 201.486C278.552 201.555 278.611 201.599 278.66 201.619C278.709 201.639 278.827 201.659 279.015 201.678C279.202 201.698 279.507 201.708 279.931 201.708H280.315V202.388H280.153C279.946 202.358 279.162 202.343 277.803 202.343C276.463 202.343 275.69 202.358 275.483 202.388H275.305V201.708H275.69C275.906 201.708 276.094 201.708 276.251 201.708C276.409 201.708 276.532 201.703 276.621 201.693C276.709 201.683 276.788 201.668 276.857 201.649C276.926 201.629 276.965 201.619 276.975 201.619C276.985 201.619 277.015 201.595 277.064 201.545C277.113 201.496 277.143 201.476 277.153 201.486V193.846Z" fill="#D9EBFF"/>
<path d="M341.897 238.241C341.911 238.157 341.932 238.046 341.96 237.907C341.988 237.767 342.072 237.502 342.211 237.112C342.35 236.722 342.49 236.395 342.629 236.13C342.768 235.865 342.998 235.607 343.319 235.356C343.639 235.106 343.96 234.987 344.28 235.001C344.782 235.001 345.2 235.127 345.534 235.377C345.869 235.628 346.078 235.865 346.162 236.088C346.245 236.311 346.287 236.457 346.287 236.527C346.287 236.555 346.294 236.569 346.308 236.569L346.538 236.339C347.388 235.447 348.356 235.001 349.443 235.001C350.196 235.001 350.802 235.189 351.262 235.565C351.722 235.942 351.958 236.492 351.972 237.217C351.986 237.941 351.722 239.035 351.178 240.498C350.635 241.962 350.37 242.846 350.384 243.153C350.384 243.515 350.502 243.696 350.739 243.696C350.823 243.696 350.885 243.689 350.927 243.676C351.331 243.606 351.694 243.341 352.014 242.881C352.335 242.421 352.579 241.864 352.746 241.209C352.774 241.098 352.913 241.042 353.164 241.042C353.442 241.042 353.582 241.098 353.582 241.209C353.582 241.223 353.554 241.328 353.498 241.523C353.387 241.927 353.233 242.324 353.038 242.714C352.843 243.104 352.523 243.494 352.077 243.885C351.631 244.275 351.15 244.463 350.635 244.449C349.98 244.449 349.506 244.261 349.213 243.885C348.921 243.508 348.774 243.118 348.774 242.714C348.774 242.449 349.025 241.613 349.527 240.206C350.028 238.798 350.286 237.739 350.3 237.029C350.3 236.206 349.994 235.795 349.38 235.795H349.276C348.078 235.795 347.067 236.499 346.245 237.907L346.099 238.157L345.409 240.958C344.949 242.784 344.684 243.766 344.615 243.905C344.434 244.282 344.134 244.47 343.716 244.47C343.535 244.47 343.388 244.428 343.277 244.344C343.166 244.261 343.089 244.177 343.047 244.094C343.005 244.01 342.991 243.94 343.005 243.885C343.005 243.703 343.27 242.568 343.8 240.477C344.329 238.387 344.608 237.252 344.636 237.07C344.65 237.001 344.657 236.841 344.657 236.59C344.657 236.046 344.489 235.774 344.155 235.774C343.625 235.774 343.186 236.471 342.838 237.865C342.754 238.143 342.713 238.29 342.713 238.304C342.685 238.387 342.552 238.429 342.316 238.429H342.023C341.939 238.345 341.897 238.283 341.897 238.241Z" fill="#D9EBFF"/>
<path d="M355.616 241.048C355.35 241.048 355.138 240.959 354.98 240.782C354.823 240.605 354.744 240.388 354.744 240.132C354.744 239.432 355.005 238.826 355.527 238.314C356.049 237.802 356.699 237.546 357.478 237.546C358.374 237.546 359.123 237.821 359.724 238.373C360.325 238.925 360.63 239.639 360.64 240.516C360.64 240.94 360.542 241.343 360.345 241.728C360.148 242.112 359.911 242.447 359.635 242.733C359.359 243.018 358.965 243.383 358.453 243.826C358.098 244.132 357.606 244.585 356.975 245.186L356.103 246.013L357.227 246.028C358.773 246.028 359.596 246.003 359.694 245.954C359.763 245.934 359.882 245.496 360.049 244.639V244.595H360.64V244.639C360.63 244.668 360.566 245.117 360.448 245.984C360.33 246.851 360.256 247.304 360.226 247.343V247.388H354.744V246.929C354.744 246.861 354.773 246.787 354.833 246.708C354.892 246.629 355.039 246.457 355.276 246.191C355.562 245.875 355.808 245.599 356.015 245.363C356.103 245.265 356.271 245.082 356.517 244.816C356.764 244.55 356.931 244.368 357.02 244.269C357.108 244.171 357.251 244.008 357.448 243.782C357.645 243.555 357.783 243.388 357.862 243.279C357.941 243.171 358.054 243.023 358.202 242.836C358.35 242.649 358.453 242.491 358.512 242.363C358.571 242.235 358.645 242.092 358.734 241.935C358.823 241.777 358.887 241.619 358.926 241.462C358.965 241.304 359 241.156 359.029 241.018C359.059 240.88 359.074 240.718 359.074 240.531C359.074 239.91 358.906 239.373 358.571 238.92C358.236 238.467 357.759 238.24 357.138 238.24C356.813 238.24 356.527 238.324 356.281 238.491C356.034 238.659 355.862 238.821 355.764 238.979C355.665 239.137 355.616 239.23 355.616 239.26C355.616 239.27 355.64 239.275 355.69 239.275C355.867 239.275 356.049 239.343 356.236 239.481C356.424 239.619 356.517 239.846 356.517 240.161C356.517 240.408 356.438 240.614 356.281 240.782C356.123 240.949 355.901 241.038 355.616 241.048Z" fill="#D9EBFF"/>
<path d="M420.897 194.241C420.911 194.157 420.932 194.046 420.96 193.907C420.988 193.767 421.072 193.502 421.211 193.112C421.35 192.722 421.49 192.395 421.629 192.13C421.768 191.865 421.998 191.607 422.319 191.356C422.639 191.106 422.96 190.987 423.28 191.001C423.782 191.001 424.2 191.127 424.534 191.377C424.869 191.628 425.078 191.865 425.162 192.088C425.245 192.311 425.287 192.457 425.287 192.527C425.287 192.555 425.294 192.569 425.308 192.569L425.538 192.339C426.388 191.447 427.356 191.001 428.443 191.001C429.196 191.001 429.802 191.189 430.262 191.565C430.722 191.942 430.958 192.492 430.972 193.217C430.986 193.941 430.722 195.035 430.178 196.498C429.635 197.962 429.37 198.846 429.384 199.153C429.384 199.515 429.502 199.696 429.739 199.696C429.823 199.696 429.885 199.689 429.927 199.676C430.331 199.606 430.694 199.341 431.014 198.881C431.335 198.421 431.579 197.864 431.746 197.209C431.774 197.098 431.913 197.042 432.164 197.042C432.442 197.042 432.582 197.098 432.582 197.209C432.582 197.223 432.554 197.328 432.498 197.523C432.387 197.927 432.233 198.324 432.038 198.714C431.843 199.104 431.523 199.494 431.077 199.885C430.631 200.275 430.15 200.463 429.635 200.449C428.98 200.449 428.506 200.261 428.213 199.885C427.921 199.508 427.774 199.118 427.774 198.714C427.774 198.449 428.025 197.613 428.527 196.206C429.028 194.798 429.286 193.739 429.3 193.029C429.3 192.206 428.994 191.795 428.38 191.795H428.276C427.078 191.795 426.067 192.499 425.245 193.907L425.099 194.157L424.409 196.958C423.949 198.784 423.684 199.766 423.615 199.905C423.434 200.282 423.134 200.47 422.716 200.47C422.535 200.47 422.388 200.428 422.277 200.344C422.166 200.261 422.089 200.177 422.047 200.094C422.005 200.01 421.991 199.94 422.005 199.885C422.005 199.703 422.27 198.568 422.8 196.477C423.329 194.387 423.608 193.252 423.636 193.07C423.65 193.001 423.657 192.841 423.657 192.59C423.657 192.046 423.489 191.774 423.155 191.774C422.625 191.774 422.186 192.471 421.838 193.865C421.754 194.143 421.713 194.29 421.713 194.304C421.685 194.387 421.552 194.429 421.316 194.429H421.023C420.939 194.345 420.897 194.283 420.897 194.241Z" fill="#D9EBFF"/>
<path d="M434.882 196.545C434.616 196.545 434.409 196.462 434.261 196.294C434.113 196.127 434.034 195.91 434.025 195.644C434.025 195.102 434.261 194.619 434.734 194.196C435.207 193.772 435.778 193.56 436.448 193.56C436.793 193.56 437.01 193.565 437.098 193.575C437.827 193.693 438.384 193.954 438.768 194.358C439.153 194.762 439.35 195.201 439.359 195.674C439.359 196.186 439.192 196.683 438.857 197.166C438.522 197.649 438.059 197.999 437.468 198.215L437.424 198.245C437.424 198.255 437.468 198.27 437.557 198.289C437.645 198.309 437.788 198.353 437.985 198.422C438.182 198.491 438.369 198.595 438.547 198.733C439.355 199.255 439.758 199.944 439.758 200.801C439.758 201.58 439.453 202.26 438.842 202.841C438.231 203.422 437.458 203.713 436.522 203.713C435.734 203.713 435.054 203.501 434.483 203.077C433.911 202.654 433.626 202.117 433.626 201.466C433.626 201.191 433.714 200.969 433.892 200.801C434.069 200.634 434.291 200.545 434.557 200.535C434.832 200.535 435.059 200.624 435.236 200.801C435.414 200.979 435.502 201.2 435.502 201.466C435.502 201.575 435.488 201.673 435.458 201.762C435.429 201.851 435.394 201.93 435.355 201.998C435.315 202.067 435.261 202.127 435.192 202.176C435.123 202.225 435.064 202.264 435.015 202.294C434.966 202.324 434.916 202.343 434.867 202.353C434.818 202.363 434.778 202.378 434.749 202.397L434.69 202.412C435.192 202.856 435.803 203.077 436.522 203.077C437.064 203.077 437.473 202.816 437.749 202.294C437.916 201.969 438 201.471 438 200.801V200.506C438 199.57 437.685 198.944 437.054 198.629C436.906 198.57 436.606 198.536 436.153 198.526L435.532 198.511L435.488 198.481C435.468 198.452 435.458 198.373 435.458 198.245C435.458 198.068 435.497 197.979 435.576 197.979C435.852 197.979 436.138 197.954 436.433 197.905C436.768 197.856 437.074 197.649 437.35 197.284C437.626 196.92 437.763 196.368 437.763 195.629V195.511C437.763 194.949 437.591 194.56 437.246 194.344C437.029 194.206 436.798 194.137 436.552 194.137C436.236 194.137 435.946 194.191 435.68 194.299C435.414 194.408 435.227 194.521 435.118 194.639C435.01 194.757 434.956 194.816 434.956 194.816H435C435.03 194.826 435.069 194.836 435.118 194.846C435.167 194.856 435.217 194.88 435.266 194.92C435.315 194.959 435.374 194.994 435.443 195.023C435.512 195.053 435.562 195.107 435.591 195.186C435.621 195.265 435.66 195.339 435.709 195.408C435.759 195.476 435.773 195.575 435.754 195.703C435.754 195.92 435.685 196.112 435.547 196.279C435.409 196.447 435.187 196.536 434.882 196.545Z" fill="#D9EBFF"/>
<path d="M511.897 105.241C511.911 105.157 511.932 105.046 511.96 104.907C511.988 104.767 512.072 104.502 512.211 104.112C512.35 103.722 512.49 103.395 512.629 103.13C512.768 102.865 512.998 102.607 513.319 102.356C513.639 102.106 513.96 101.987 514.28 102.001C514.782 102.001 515.2 102.127 515.534 102.377C515.869 102.628 516.078 102.865 516.162 103.088C516.245 103.311 516.287 103.457 516.287 103.527C516.287 103.555 516.294 103.569 516.308 103.569L516.538 103.339C517.388 102.447 518.356 102.001 519.443 102.001C520.196 102.001 520.802 102.189 521.262 102.565C521.722 102.942 521.958 103.492 521.972 104.217C521.986 104.941 521.722 106.035 521.178 107.498C520.635 108.962 520.37 109.846 520.384 110.153C520.384 110.515 520.502 110.696 520.739 110.696C520.823 110.696 520.885 110.689 520.927 110.676C521.331 110.606 521.694 110.341 522.014 109.881C522.335 109.421 522.579 108.864 522.746 108.209C522.774 108.098 522.913 108.042 523.164 108.042C523.442 108.042 523.582 108.098 523.582 108.209C523.582 108.223 523.554 108.328 523.498 108.523C523.387 108.927 523.233 109.324 523.038 109.714C522.843 110.104 522.523 110.494 522.077 110.885C521.631 111.275 521.15 111.463 520.635 111.449C519.98 111.449 519.506 111.261 519.213 110.885C518.921 110.508 518.774 110.118 518.774 109.714C518.774 109.449 519.025 108.613 519.527 107.206C520.028 105.798 520.286 104.739 520.3 104.029C520.3 103.206 519.994 102.795 519.38 102.795H519.276C518.078 102.795 517.067 103.499 516.245 104.907L516.099 105.157L515.409 107.958C514.949 109.784 514.684 110.766 514.615 110.905C514.434 111.282 514.134 111.47 513.716 111.47C513.535 111.47 513.388 111.428 513.277 111.344C513.166 111.261 513.089 111.177 513.047 111.094C513.005 111.01 512.991 110.94 513.005 110.885C513.005 110.703 513.27 109.568 513.8 107.477C514.329 105.387 514.608 104.252 514.636 104.07C514.65 104.001 514.657 103.841 514.657 103.59C514.657 103.046 514.489 102.774 514.155 102.774C513.625 102.774 513.186 103.471 512.838 104.865C512.754 105.143 512.713 105.29 512.713 105.304C512.685 105.387 512.552 105.429 512.316 105.429H512.023C511.939 105.345 511.897 105.283 511.897 105.241Z" fill="#D9EBFF"/>
<path d="M530.832 114.388C530.655 114.358 530.02 114.343 528.926 114.343C527.783 114.343 527.123 114.358 526.946 114.388H526.813V113.708H527.271C527.468 113.708 527.601 113.708 527.67 113.708C527.739 113.708 527.823 113.698 527.921 113.678C528.02 113.659 528.089 113.634 528.128 113.604C528.167 113.575 528.202 113.535 528.231 113.486C528.241 113.466 528.246 113.2 528.246 112.688V111.949H524.419V111.269L526.65 107.856C528.158 105.57 528.921 104.422 528.941 104.413C528.96 104.393 529.064 104.383 529.251 104.383H529.517L529.606 104.472V111.269H530.965V111.949H529.606V112.703C529.606 113.107 529.606 113.343 529.606 113.412C529.606 113.481 529.635 113.54 529.694 113.59C529.773 113.659 530.054 113.698 530.537 113.708H530.965V114.388H530.832ZM528.335 111.269V106.334L525.099 111.255L526.709 111.269H528.335Z" fill="#D9EBFF"/>
<path d="M419.897 16.241C419.911 16.1573 419.932 16.0459 419.96 15.9065C419.988 15.7672 420.072 15.5024 420.211 15.1122C420.35 14.7221 420.49 14.3946 420.629 14.1298C420.768 13.8651 420.998 13.6073 421.319 13.3564C421.639 13.1056 421.96 12.9872 422.28 13.0011C422.782 13.0011 423.2 13.1265 423.534 13.3773C423.869 13.6282 424.078 13.8651 424.162 14.088C424.245 14.311 424.287 14.4573 424.287 14.527C424.287 14.5548 424.294 14.5688 424.308 14.5688L424.538 14.3388C425.388 13.447 426.356 13.0011 427.443 13.0011C428.196 13.0011 428.802 13.1892 429.262 13.5655C429.722 13.9417 429.958 14.4921 429.972 15.2167C429.986 15.9414 429.722 17.0352 429.178 18.4984C428.635 19.9616 428.37 20.8464 428.384 21.153C428.384 21.5153 428.502 21.6964 428.739 21.6964C428.823 21.6964 428.885 21.6895 428.927 21.6755C429.331 21.6059 429.694 21.3411 430.014 20.8813C430.335 20.4214 430.579 19.864 430.746 19.2091C430.774 19.0976 430.913 19.0419 431.164 19.0419C431.442 19.0419 431.582 19.0976 431.582 19.2091C431.582 19.223 431.554 19.3275 431.498 19.5226C431.387 19.9267 431.233 20.3239 431.038 20.714C430.843 21.1042 430.523 21.4944 430.077 21.8846C429.631 22.2747 429.15 22.4629 428.635 22.4489C427.98 22.4489 427.506 22.2608 427.213 21.8846C426.921 21.5083 426.774 21.1182 426.774 20.714C426.774 20.4493 427.025 19.6132 427.527 18.2058C428.028 16.7983 428.286 15.7393 428.3 15.0286C428.3 14.2065 427.994 13.7954 427.38 13.7954H427.276C426.078 13.7954 425.067 14.4991 424.245 15.9065L424.099 16.1573L423.409 18.9583C422.949 20.7837 422.684 21.7661 422.615 21.9055C422.434 22.2817 422.134 22.4698 421.716 22.4698C421.535 22.4698 421.388 22.428 421.277 22.3444C421.166 22.2608 421.089 22.1772 421.047 22.0936C421.005 22.01 420.991 21.9403 421.005 21.8846C421.005 21.7034 421.27 20.5677 421.8 18.4775C422.329 16.3873 422.608 15.2516 422.636 15.0704C422.65 15.0008 422.657 14.8405 422.657 14.5897C422.657 14.0462 422.489 13.7745 422.155 13.7745C421.625 13.7745 421.186 14.4712 420.838 15.8647C420.754 16.1434 420.713 16.2897 420.713 16.3037C420.685 16.3873 420.552 16.4291 420.316 16.4291H420.023C419.939 16.3455 419.897 16.2828 419.897 16.241Z" fill="#D9EBFF"/>
<path d="M434.429 23.0675C434.429 23.3039 434.35 23.501 434.192 23.6586C434.034 23.8162 433.842 23.895 433.616 23.895H433.512C433.965 24.6733 434.566 25.0625 435.315 25.0625C436.005 25.0625 436.507 24.7669 436.823 24.1758C437.01 23.8507 437.103 23.2202 437.103 22.2842C437.103 21.2695 436.97 20.5848 436.704 20.2301C436.448 19.905 436.162 19.7424 435.847 19.7424H435.759C434.99 19.7424 434.409 20.0774 434.015 20.7473C433.975 20.8163 433.941 20.8557 433.911 20.8656C433.882 20.8754 433.808 20.8853 433.69 20.8951C433.522 20.8951 433.429 20.8656 433.409 20.8065C433.389 20.767 433.379 19.905 433.379 18.2203V16.314C433.379 15.8214 433.404 15.5751 433.453 15.5751C433.473 15.5554 433.493 15.5455 433.512 15.5455C433.522 15.5455 433.626 15.5849 433.823 15.6637C434.02 15.7426 434.291 15.8214 434.635 15.9002C434.98 15.979 435.35 16.0184 435.744 16.0184C436.443 16.0184 437.113 15.8805 437.754 15.6046C437.832 15.5652 437.896 15.5455 437.946 15.5455C438.024 15.5455 438.064 15.6342 438.064 15.8115V16.0036C437.256 16.9593 436.246 17.4371 435.034 17.4371C434.729 17.4371 434.453 17.4075 434.207 17.3484L434.059 17.3189V19.8607C434.246 19.7227 434.394 19.6144 434.502 19.5356C434.611 19.4567 434.788 19.3779 435.034 19.2991C435.281 19.2203 435.532 19.1809 435.788 19.1809C436.586 19.1809 437.261 19.5011 437.813 20.1414C438.364 20.7818 438.64 21.5404 438.64 22.4172C438.64 23.3236 438.325 24.097 437.694 24.7374C437.064 25.3778 436.295 25.7029 435.389 25.7127C434.591 25.7127 433.951 25.4467 433.468 24.9147C432.985 24.3827 432.744 23.7817 432.744 23.1118C432.744 22.8754 432.798 22.6882 432.906 22.5502C433.015 22.4123 433.128 22.3237 433.246 22.2842C433.365 22.2448 433.478 22.2251 433.586 22.2251C433.832 22.2251 434.034 22.3089 434.192 22.4764C434.35 22.6438 434.429 22.8409 434.429 23.0675Z" fill="#D9EBFF"/>
<path d="M265.897 13.241C265.911 13.1573 265.932 13.0459 265.96 12.9065C265.988 12.7672 266.072 12.5024 266.211 12.1122C266.35 11.7221 266.49 11.3946 266.629 11.1298C266.768 10.8651 266.998 10.6073 267.319 10.3564C267.639 10.1056 267.96 9.98717 268.28 10.0011C268.782 10.0011 269.2 10.1265 269.534 10.3773C269.869 10.6282 270.078 10.8651 270.162 11.088C270.245 11.311 270.287 11.4573 270.287 11.527C270.287 11.5548 270.294 11.5688 270.308 11.5688L270.538 11.3388C271.388 10.447 272.356 10.0011 273.443 10.0011C274.196 10.0011 274.802 10.1892 275.262 10.5655C275.722 10.9417 275.958 11.4921 275.972 12.2167C275.986 12.9414 275.722 14.0352 275.178 15.4984C274.635 16.9616 274.37 17.8464 274.384 18.153C274.384 18.5153 274.502 18.6964 274.739 18.6964C274.823 18.6964 274.885 18.6895 274.927 18.6755C275.331 18.6059 275.694 18.3411 276.014 17.8813C276.335 17.4214 276.579 16.864 276.746 16.2091C276.774 16.0976 276.913 16.0419 277.164 16.0419C277.442 16.0419 277.582 16.0976 277.582 16.2091C277.582 16.223 277.554 16.3275 277.498 16.5226C277.387 16.9267 277.233 17.3239 277.038 17.714C276.843 18.1042 276.523 18.4944 276.077 18.8846C275.631 19.2747 275.15 19.4629 274.635 19.4489C273.98 19.4489 273.506 19.2608 273.213 18.8846C272.921 18.5083 272.774 18.1182 272.774 17.714C272.774 17.4493 273.025 16.6132 273.527 15.2058C274.028 13.7983 274.286 12.7393 274.3 12.0286C274.3 11.2065 273.994 10.7954 273.38 10.7954H273.276C272.078 10.7954 271.067 11.4991 270.245 12.9065L270.099 13.1573L269.409 15.9583C268.949 17.7837 268.684 18.7661 268.615 18.9055C268.434 19.2817 268.134 19.4698 267.716 19.4698C267.535 19.4698 267.388 19.428 267.277 19.3444C267.166 19.2608 267.089 19.1772 267.047 19.0936C267.005 19.01 266.991 18.9403 267.005 18.8846C267.005 18.7034 267.27 17.5677 267.8 15.4775C268.329 13.3873 268.608 12.2516 268.636 12.0704C268.65 12.0008 268.657 11.8405 268.657 11.5897C268.657 11.0462 268.489 10.7745 268.155 10.7745C267.625 10.7745 267.186 11.4712 266.838 12.8647C266.754 13.1434 266.713 13.2897 266.713 13.3037C266.685 13.3873 266.552 13.4291 266.316 13.4291H266.023C265.939 13.3455 265.897 13.2828 265.897 13.241Z" fill="#D9EBFF"/>
<path d="M278.818 15.6193C278.828 15.5996 278.911 15.0627 279.069 14.0085L279.305 12.4273C279.305 12.4076 279.404 12.3977 279.601 12.3977H279.897V12.4568C279.897 12.5554 279.97 12.6391 280.118 12.7081C280.266 12.777 280.522 12.8214 280.887 12.8411C281.251 12.8608 282.084 12.8706 283.384 12.8706H285.172V13.447L284.167 14.8213C284.079 14.9395 283.931 15.1366 283.724 15.4124C283.517 15.6883 283.384 15.8705 283.325 15.9592C283.266 16.0479 283.162 16.2055 283.015 16.4321C282.867 16.6587 282.768 16.836 282.719 16.9641C282.67 17.0922 282.601 17.2744 282.512 17.5109C282.424 17.7473 282.36 17.9739 282.32 18.1907C282.281 18.4074 282.241 18.6734 282.202 18.9887C282.162 19.3039 282.133 19.6389 282.113 19.9936C282.094 20.3483 282.079 20.7522 282.069 21.2054C282.069 21.3433 282.069 21.4812 282.069 21.6192C282.069 21.7571 282.064 21.8753 282.054 21.9738V22.1068C282.015 22.2743 281.921 22.4172 281.773 22.5354C281.626 22.6536 281.458 22.7127 281.271 22.7127C281.163 22.7127 281.059 22.6979 280.961 22.6684C280.862 22.6388 280.759 22.5452 280.65 22.3876C280.542 22.23 280.488 22.0329 280.488 21.7965C280.488 20.2399 280.965 18.6242 281.921 16.9493C282.118 16.6341 282.532 16.038 283.162 15.1612L283.842 14.2302H282.468C280.754 14.2302 279.852 14.2598 279.764 14.3189C279.704 14.3484 279.65 14.4666 279.601 14.6735C279.552 14.8804 279.502 15.0922 279.453 15.309L279.409 15.6193V15.6637H278.818V15.6193Z" fill="#D9EBFF"/>
<path d="M341.897 91.241C341.911 91.1573 341.932 91.0459 341.96 90.9065C341.988 90.7672 342.072 90.5024 342.211 90.1122C342.35 89.7221 342.49 89.3946 342.629 89.1298C342.768 88.8651 342.998 88.6073 343.319 88.3564C343.639 88.1056 343.96 87.9872 344.28 88.0011C344.782 88.0011 345.2 88.1265 345.534 88.3773C345.869 88.6282 346.078 88.8651 346.162 89.088C346.245 89.311 346.287 89.4573 346.287 89.527C346.287 89.5548 346.294 89.5688 346.308 89.5688L346.538 89.3388C347.388 88.447 348.356 88.0011 349.443 88.0011C350.196 88.0011 350.802 88.1892 351.262 88.5655C351.722 88.9417 351.958 89.4921 351.972 90.2167C351.986 90.9414 351.722 92.0352 351.178 93.4984C350.635 94.9616 350.37 95.8464 350.384 96.153C350.384 96.5153 350.502 96.6964 350.739 96.6964C350.823 96.6964 350.885 96.6895 350.927 96.6755C351.331 96.6059 351.694 96.3411 352.014 95.8813C352.335 95.4214 352.579 94.864 352.746 94.2091C352.774 94.0976 352.913 94.0419 353.164 94.0419C353.442 94.0419 353.582 94.0976 353.582 94.2091C353.582 94.223 353.554 94.3275 353.498 94.5226C353.387 94.9267 353.233 95.3239 353.038 95.714C352.843 96.1042 352.523 96.4944 352.077 96.8846C351.631 97.2747 351.15 97.4629 350.635 97.4489C349.98 97.4489 349.506 97.2608 349.213 96.8846C348.921 96.5083 348.774 96.1182 348.774 95.714C348.774 95.4493 349.025 94.6132 349.527 93.2058C350.028 91.7983 350.286 90.7393 350.3 90.0286C350.3 89.2065 349.994 88.7954 349.38 88.7954H349.276C348.078 88.7954 347.067 89.4991 346.245 90.9065L346.099 91.1573L345.409 93.9583C344.949 95.7837 344.684 96.7661 344.615 96.9055C344.434 97.2817 344.134 97.4698 343.716 97.4698C343.535 97.4698 343.388 97.428 343.277 97.3444C343.166 97.2608 343.089 97.1772 343.047 97.0936C343.005 97.01 342.991 96.9403 343.005 96.8846C343.005 96.7034 343.27 95.5677 343.8 93.4775C344.329 91.3873 344.608 90.2516 344.636 90.0704C344.65 90.0008 344.657 89.8405 344.657 89.5897C344.657 89.0462 344.489 88.7745 344.155 88.7745C343.625 88.7745 343.186 89.4712 342.838 90.8647C342.754 91.1434 342.713 91.2897 342.713 91.3037C342.685 91.3873 342.552 91.4291 342.316 91.4291H342.023C341.939 91.3455 341.897 91.2828 341.897 91.241Z" fill="#D9EBFF"/>
<path d="M354.626 95.7621C354.626 94.1563 355.025 92.8853 355.823 91.9494C356.621 91.0135 357.507 90.5455 358.483 90.5455C359.162 90.5455 359.65 90.7228 359.946 91.0775C360.241 91.4322 360.389 91.8263 360.389 92.2598C360.389 92.506 360.32 92.7031 360.182 92.8509C360.044 92.9986 359.852 93.0725 359.606 93.0725C359.379 93.0725 359.192 93.0036 359.044 92.8656C358.896 92.7277 358.823 92.5356 358.823 92.2893C358.823 91.8558 359.054 91.5947 359.517 91.5061C359.3 91.2893 358.995 91.1662 358.601 91.1366C357.901 91.1366 357.325 91.4322 356.872 92.0233C356.409 92.6735 356.177 93.6686 356.177 95.0084L356.192 95.0676C356.241 95.0084 356.281 94.9444 356.31 94.8754C356.714 94.2843 357.241 93.9888 357.892 93.9888H357.951C358.404 93.9888 358.803 94.0824 359.148 94.2695C359.384 94.4075 359.621 94.6045 359.857 94.8607C360.093 95.1168 360.286 95.3976 360.433 95.703C360.64 96.1858 360.744 96.7128 360.744 97.2842V97.5502C360.744 97.7768 360.719 97.9887 360.67 98.1857C360.561 98.767 360.246 99.3334 359.724 99.8852C359.202 100.437 358.542 100.713 357.744 100.713C357.468 100.713 357.202 100.673 356.946 100.594C356.69 100.516 356.414 100.368 356.118 100.151C355.823 99.9344 355.571 99.6438 355.365 99.2793C355.158 98.9147 354.98 98.4369 354.833 97.8458C354.685 97.2547 354.616 96.5601 354.626 95.7621ZM357.803 94.5208C357.507 94.5208 357.251 94.6045 357.034 94.772C356.818 94.9395 356.65 95.1611 356.532 95.437C356.414 95.7129 356.33 95.9936 356.281 96.2793C356.232 96.5651 356.202 96.8705 356.192 97.1956C356.192 98.0133 356.251 98.5995 356.369 98.9541C356.488 99.3088 356.675 99.5945 356.931 99.8113C357.167 99.9886 357.429 100.077 357.714 100.077C358.217 100.077 358.601 99.8901 358.867 99.5157C358.995 99.3384 359.084 99.1167 359.133 98.8507C359.182 98.5847 359.207 98.0675 359.207 97.299C359.207 96.5109 359.182 95.9838 359.133 95.7178C359.084 95.4518 358.995 95.2301 358.867 95.0528C358.601 94.6981 358.246 94.5208 357.803 94.5208Z" fill="#D9EBFF"/>
</svg>
