<svg width="701" height="213" viewBox="0 0 701 213" fill="none" xmlns="http://www.w3.org/2000/svg">
<rect width="700" height="213" transform="translate(0.897461)" fill="#0A0D12"/>
<path d="M275.397 8H426.397M275.397 8L350.897 51.6667L426.397 8M275.397 8L199.897 83.6667L275.397 159.333M426.397 8L501.897 83.6667L426.397 159.333M426.397 159.333L350.897 203L275.397 159.333M426.397 159.333H275.397" stroke="#4A5467" stroke-width="2"/>
<circle cx="200.897" cy="84" r="5" fill="black" stroke="#D9EBFF" stroke-width="2"/>
<circle cx="275.897" cy="8" r="5" fill="black" stroke="#D9EBFF" stroke-width="2"/>
<circle cx="425.897" cy="8" r="5" fill="black" stroke="#D9EBFF" stroke-width="2"/>
<circle cx="350.897" cy="52" r="5" fill="black" stroke="#D9EBFF" stroke-width="2"/>
<circle cx="350.897" cy="203" r="5" fill="black" stroke="#D9EBFF" stroke-width="2"/>
<circle cx="426.897" cy="159" r="5" fill="black" stroke="#D9EBFF" stroke-width="2"/>
<circle cx="274.897" cy="159" r="5" fill="black" stroke="#D9EBFF" stroke-width="2"/>
<circle cx="501.897" cy="84" r="5" fill="black" stroke="#D9EBFF" stroke-width="2"/>
<g clip-path="url(#clip0_143_0)">
<path d="M181.608 69.8289C181.608 68.3099 182.208 66.9441 183.406 65.7317C184.605 64.5193 185.901 63.913 187.294 63.913C188.075 63.913 188.688 64.0803 189.134 64.4147C189.58 64.7492 189.81 65.1882 189.824 65.7317C189.824 66.1358 189.691 66.4773 189.427 66.756C189.162 67.0347 188.827 67.181 188.423 67.195C188.158 67.195 187.949 67.1253 187.796 66.9859C187.643 66.8466 187.566 66.6375 187.566 66.3588C187.566 66.0801 187.643 65.8432 187.796 65.6481C187.949 65.453 188.103 65.3066 188.256 65.2091C188.409 65.1115 188.507 65.0697 188.549 65.0837H188.569C188.569 65.0558 188.528 65.014 188.444 64.9582C188.36 64.9025 188.214 64.8468 188.005 64.791C187.796 64.7353 187.559 64.7074 187.294 64.7074C186.876 64.7074 186.479 64.8049 186.103 65C185.81 65.1255 185.511 65.3415 185.204 65.6481C184.591 66.2613 184.145 67.1253 183.866 68.2402C183.587 69.3551 183.441 70.1634 183.427 70.6651C183.427 71.3061 183.608 71.7869 183.971 72.1075C184.277 72.4419 184.681 72.6092 185.183 72.6092H185.267C186.827 72.6092 188.117 72.0169 189.134 70.8323C189.259 70.6929 189.343 70.6233 189.385 70.6233C189.44 70.6233 189.531 70.686 189.656 70.8114C189.782 70.9368 189.852 71.0344 189.866 71.1041C189.879 71.1737 189.817 71.2783 189.677 71.4176C189.538 71.557 189.336 71.7521 189.071 72.0029C188.806 72.2538 188.493 72.4628 188.13 72.6301C187.768 72.7973 187.322 72.9715 186.793 73.1527C186.263 73.3338 185.706 73.4105 185.12 73.3826C184.075 73.3826 183.232 73.0481 182.591 72.3792C181.95 71.7103 181.622 70.8602 181.608 69.8289Z" fill="#D9EBFF"/>
<path d="M190.388 67.1532C190.388 67.0417 190.45 66.8257 190.576 66.5051C190.701 66.1846 190.875 65.8223 191.098 65.4181C191.321 65.014 191.628 64.6656 192.018 64.3729C192.408 64.0803 192.82 63.927 193.252 63.913C193.893 63.913 194.373 64.0872 194.694 64.4356C195.014 64.784 195.175 65.1951 195.175 65.669C195.175 65.9198 194.938 66.7002 194.464 68.0102C193.99 69.3202 193.753 70.3027 193.753 70.9577C193.753 71.557 193.851 71.9751 194.046 72.212C194.241 72.4489 194.534 72.5743 194.924 72.5882C195.314 72.6022 195.683 72.4837 196.032 72.2329C196.38 71.982 196.638 71.7451 196.805 71.5221L197.035 71.1668C197.063 71.111 197.328 70.0519 197.83 67.9893C198.248 66.317 198.499 65.3415 198.582 65.0628C198.666 64.784 198.763 64.582 198.875 64.4565C199.112 64.2475 199.363 64.143 199.627 64.143C199.864 64.143 200.038 64.2127 200.15 64.352C200.261 64.4914 200.317 64.6238 200.317 64.7492L198.728 71.3967C198.715 71.4664 198.708 71.5779 198.708 71.7312C198.708 72.0796 198.756 72.3095 198.854 72.421C198.951 72.5325 199.098 72.5952 199.293 72.6091C199.599 72.5673 199.843 72.3513 200.025 71.9611C200.206 71.5709 200.415 70.9577 200.652 70.1216C200.679 70.0101 200.819 69.9543 201.07 69.9543C201.334 69.9543 201.467 70.017 201.467 70.1425C201.453 70.2121 201.439 70.3097 201.425 70.4351C201.411 70.5605 201.348 70.7835 201.237 71.104C201.125 71.4246 201.007 71.7242 200.882 72.0029C200.756 72.2816 200.582 72.5464 200.359 72.7973C200.136 73.0481 199.885 73.2223 199.606 73.3199C199.495 73.3478 199.328 73.3617 199.105 73.3617C198.185 73.3617 197.551 72.9715 197.202 72.1911C197.175 72.205 197.098 72.2747 196.972 72.4001C196.847 72.5255 196.722 72.63 196.596 72.7137C196.471 72.7973 196.318 72.9018 196.136 73.0272C195.955 73.1527 195.753 73.2363 195.53 73.2781C195.307 73.3199 195.07 73.3547 194.819 73.3826C194.206 73.3826 193.663 73.2572 193.189 73.0063C192.464 72.5743 192.102 71.8357 192.102 70.7905C192.102 69.9961 192.346 68.9579 192.833 67.6758C193.321 66.3936 193.565 65.5784 193.565 65.23C193.565 65.216 193.565 65.2021 193.565 65.1882C193.565 65.0628 193.565 64.9791 193.565 64.9373C193.565 64.8955 193.537 64.8467 193.482 64.791C193.426 64.7353 193.349 64.7074 193.252 64.7074H193.168C192.847 64.7074 192.555 64.8398 192.29 65.1046C192.025 65.3693 191.816 65.655 191.663 65.9616C191.51 66.2682 191.391 66.5609 191.307 66.8396C191.224 67.1183 191.168 67.2716 191.14 67.2995C191.112 67.3274 191.001 67.3413 190.806 67.3413H190.513C190.43 67.2577 190.388 67.195 190.388 67.1532Z" fill="#D9EBFF"/>
<path d="M202.366 67.1532C202.38 67.1114 202.394 67.0556 202.408 66.9859C202.422 66.9163 202.457 66.763 202.513 66.526C202.568 66.2891 202.638 66.0731 202.722 65.878C202.805 65.6829 202.91 65.453 203.035 65.1882C203.161 64.9234 203.3 64.7143 203.453 64.5611C203.607 64.4078 203.788 64.2545 203.997 64.1012C204.206 63.9479 204.436 63.8852 204.687 63.913C205.091 63.913 205.446 63.9966 205.753 64.1639C206.059 64.3311 206.275 64.4844 206.401 64.6238C206.526 64.7631 206.603 64.9025 206.631 65.0418C206.659 65.1255 206.679 65.1673 206.693 65.1673C206.707 65.1673 206.763 65.1185 206.861 65.0209C207.53 64.2963 208.303 63.9339 209.181 63.9339H209.244C209.913 63.9339 210.414 64.2196 210.749 64.791C210.86 65.0558 210.916 65.3136 210.916 65.5645C210.916 65.9825 210.825 66.317 210.644 66.5678C210.463 66.8187 210.282 66.979 210.101 67.0486C209.92 67.1183 209.745 67.1462 209.578 67.1323C209.299 67.1323 209.076 67.0556 208.909 66.9023C208.742 66.749 208.658 66.5469 208.658 66.2961C208.658 65.6272 209.049 65.1812 209.829 64.9582C209.522 64.7771 209.272 64.6865 209.076 64.6865C208.296 64.6865 207.578 65.2021 206.923 66.2334C206.784 66.4564 206.679 66.6863 206.61 66.9232C206.54 67.1601 206.303 68.0869 205.899 69.7035C205.425 71.6545 205.153 72.6928 205.084 72.8182C204.903 73.1945 204.603 73.3826 204.185 73.3826C204.004 73.3826 203.857 73.3408 203.746 73.2572C203.634 73.1736 203.558 73.0899 203.516 73.0063C203.474 72.9227 203.46 72.853 203.474 72.7973C203.474 72.6161 203.753 71.4176 204.31 69.2018C204.868 66.9859 205.146 65.7526 205.146 65.5017C205.146 64.9582 204.965 64.6865 204.603 64.6865C204.31 64.6865 204.059 64.8816 203.85 65.2718C203.641 65.662 203.474 66.0871 203.349 66.5469C203.223 67.0068 203.147 67.2577 203.119 67.2995C203.091 67.3274 202.979 67.3413 202.784 67.3413H202.492C202.408 67.2577 202.366 67.195 202.366 67.1532Z" fill="#D9EBFF"/>
<path d="M211.794 67.1532C211.808 67.1114 211.822 67.0556 211.836 66.9859C211.85 66.9163 211.885 66.763 211.94 66.526C211.996 66.2891 212.066 66.0731 212.149 65.878C212.233 65.6829 212.337 65.453 212.463 65.1882C212.588 64.9234 212.728 64.7143 212.881 64.5611C213.034 64.4078 213.215 64.2545 213.424 64.1012C213.634 63.9479 213.863 63.8852 214.114 63.913C214.518 63.913 214.874 63.9966 215.18 64.1639C215.487 64.3311 215.703 64.4844 215.828 64.6238C215.954 64.7631 216.031 64.9025 216.058 65.0418C216.086 65.1255 216.107 65.1673 216.121 65.1673C216.135 65.1673 216.191 65.1185 216.288 65.0209C216.957 64.2963 217.731 63.9339 218.609 63.9339H218.671C219.34 63.9339 219.842 64.2196 220.177 64.791C220.288 65.0558 220.344 65.3136 220.344 65.5645C220.344 65.9825 220.253 66.317 220.072 66.5678C219.891 66.8187 219.71 66.979 219.528 67.0486C219.347 67.1183 219.173 67.1462 219.006 67.1323C218.727 67.1323 218.504 67.0556 218.337 66.9023C218.17 66.749 218.086 66.5469 218.086 66.2961C218.086 65.6272 218.476 65.1812 219.257 64.9582C218.95 64.7771 218.699 64.6865 218.504 64.6865C217.724 64.6865 217.006 65.2021 216.351 66.2334C216.212 66.4564 216.107 66.6863 216.037 66.9232C215.968 67.1601 215.731 68.0869 215.327 69.7035C214.853 71.6545 214.581 72.6928 214.511 72.8182C214.33 73.1945 214.031 73.3826 213.613 73.3826C213.431 73.3826 213.285 73.3408 213.174 73.2572C213.062 73.1736 212.985 73.0899 212.944 73.0063C212.902 72.9227 212.888 72.853 212.902 72.7973C212.902 72.6161 213.181 71.4176 213.738 69.2018C214.295 66.9859 214.574 65.7526 214.574 65.5017C214.574 64.9582 214.393 64.6865 214.031 64.6865C213.738 64.6865 213.487 64.8816 213.278 65.2718C213.069 65.662 212.902 66.0871 212.776 66.5469C212.651 67.0068 212.574 67.2577 212.546 67.2995C212.519 67.3274 212.407 67.3413 212.212 67.3413H211.919C211.836 67.2577 211.794 67.195 211.794 67.1532Z" fill="#D9EBFF"/>
</g>
<defs>
<clipPath id="clip0_143_0">
<rect width="39.906" height="13.419" fill="white" transform="translate(180.897 62)"/>
</clipPath>
</defs>
</svg>
