<svg width="701" height="233" viewBox="0 0 701 233" fill="none" xmlns="http://www.w3.org/2000/svg">
<rect width="700" height="233" transform="translate(0.897461)" fill="#0A0D12"/>
<path d="M200.626 120L205.898 125.271M200.626 120L195.354 125.271M200.626 120L200.626 186.5" stroke="#B3BFD8" stroke-width="2" stroke-linecap="round" stroke-linejoin="round"/>
<path d="M275.397 31H426.397M275.397 31L350.897 74.6667L426.397 31M275.397 31L199.897 106.667L275.397 182.333M426.397 31L501.897 106.667L426.397 182.333M426.397 182.333L350.897 226L275.397 182.333M426.397 182.333H275.397" stroke="#4A5467" stroke-width="2"/>
<circle cx="200.897" cy="107" r="5" fill="black" stroke="#D9EBFF" stroke-width="2"/>
<circle cx="275.897" cy="31" r="5" fill="black" stroke="#D9EBFF" stroke-width="2"/>
<circle cx="425.897" cy="31" r="5" fill="black" stroke="#D9EBFF" stroke-width="2"/>
<circle cx="350.897" cy="75" r="5" fill="black" stroke="#D9EBFF" stroke-width="2"/>
<circle cx="350.897" cy="226" r="5" fill="black" stroke="#D9EBFF" stroke-width="2"/>
<circle cx="426.897" cy="182" r="5" fill="black" stroke="#D9EBFF" stroke-width="2"/>
<circle cx="274.897" cy="182" r="5" fill="black" stroke="#D9EBFF" stroke-width="2"/>
<circle cx="501.897" cy="107" r="5" fill="black" stroke="#D9EBFF" stroke-width="2"/>
<path d="M199.897 157C172.283 157 149.897 134.614 149.897 107C149.897 79.3858 172.283 57 199.897 57C227.512 57 249.897 79.3858 249.897 107C249.897 120.626 244.447 132.979 235.607 141.998M235.607 141.998L249.897 141.998M235.607 141.998L235.607 127.313" stroke="#B3BFD8" stroke-width="2" stroke-linecap="round" stroke-linejoin="round"/>
<g clip-path="url(#clip0_49_829)">
<path d="M182.186 196.152C182.2 196.111 182.213 196.055 182.227 195.985C182.241 195.916 182.276 195.762 182.332 195.525C182.388 195.288 182.457 195.072 182.541 194.877C182.625 194.682 182.729 194.452 182.854 194.188C182.98 193.923 183.119 193.714 183.273 193.561C183.426 193.407 183.607 193.254 183.816 193.101C184.025 192.947 184.255 192.885 184.506 192.913C185.551 192.913 186.22 193.358 186.512 194.25L186.721 194.062C187.585 193.296 188.408 192.913 189.188 192.913C190.094 192.913 190.804 193.24 191.32 193.895C191.835 194.55 192.093 195.344 192.093 196.278C192.093 197.783 191.564 199.169 190.505 200.437C189.446 201.705 188.247 202.346 186.91 202.36C186.603 202.36 186.331 202.319 186.094 202.235C185.941 202.165 185.781 202.061 185.614 201.921C185.446 201.782 185.314 201.664 185.216 201.566L185.07 201.399C185.056 201.413 184.903 202.019 184.61 203.217C184.318 204.416 184.171 205.022 184.171 205.036C184.171 205.119 184.227 205.168 184.339 205.182C184.45 205.196 184.708 205.217 185.112 205.245H185.634C185.718 205.342 185.76 205.405 185.76 205.433C185.76 205.461 185.739 205.586 185.697 205.809C185.655 205.976 185.614 206.081 185.572 206.123C185.53 206.165 185.439 206.192 185.3 206.206C185.272 206.206 185.196 206.206 185.07 206.206C184.945 206.206 184.708 206.199 184.359 206.186C184.011 206.172 183.579 206.165 183.063 206.165C182.088 206.165 181.468 206.179 181.203 206.206H181.036C180.938 206.109 180.89 206.032 180.89 205.976C180.918 205.6 181.008 205.356 181.161 205.245H181.579C182.053 205.231 182.325 205.147 182.395 204.994C182.436 204.91 182.861 203.245 183.67 199.998C184.478 196.752 184.903 195.031 184.945 194.836C184.959 194.766 184.966 194.668 184.966 194.543C184.966 193.972 184.791 193.686 184.443 193.686C184.136 193.686 183.879 193.881 183.67 194.271C183.461 194.661 183.3 195.086 183.189 195.546C183.077 196.006 182.994 196.257 182.938 196.299C182.91 196.327 182.799 196.341 182.604 196.341H182.311C182.227 196.257 182.186 196.194 182.186 196.152ZM185.425 200.019C185.732 201.078 186.248 201.608 186.972 201.608C187.39 201.608 187.794 201.448 188.185 201.127C188.575 200.807 188.895 200.403 189.146 199.915C189.397 199.441 189.648 198.689 189.899 197.657C190.149 196.626 190.282 195.86 190.296 195.358V195.233C190.296 194.202 189.871 193.686 189.021 193.686C188.867 193.686 188.714 193.707 188.561 193.749C188.408 193.79 188.254 193.853 188.101 193.937C187.948 194.02 187.808 194.111 187.683 194.209C187.557 194.306 187.439 194.411 187.328 194.522C187.216 194.634 187.112 194.738 187.014 194.836C186.916 194.933 186.84 195.031 186.784 195.128C186.728 195.226 186.673 195.295 186.617 195.337L186.554 195.421C186.554 195.435 186.533 195.532 186.491 195.713C186.45 195.895 186.373 196.201 186.262 196.633C186.15 197.065 186.053 197.427 185.969 197.72C185.607 199.197 185.425 199.964 185.425 200.019Z" fill="#D9EBFF"/>
<path d="M192.657 196.152C192.671 196.111 192.685 196.055 192.699 195.985C192.713 195.916 192.748 195.762 192.804 195.525C192.859 195.288 192.929 195.072 193.013 194.877C193.096 194.682 193.201 194.452 193.326 194.188C193.452 193.923 193.591 193.714 193.744 193.561C193.897 193.407 194.079 193.254 194.288 193.101C194.497 192.947 194.727 192.885 194.977 192.913C195.381 192.913 195.737 192.996 196.043 193.163C196.35 193.331 196.566 193.484 196.691 193.623C196.817 193.763 196.893 193.902 196.921 194.041C196.949 194.125 196.97 194.167 196.984 194.167C196.998 194.167 197.054 194.118 197.151 194.02C197.82 193.296 198.593 192.933 199.471 192.933H199.534C200.203 192.933 200.705 193.219 201.039 193.79C201.151 194.055 201.206 194.313 201.206 194.564C201.206 194.982 201.116 195.316 200.935 195.567C200.753 195.818 200.572 195.978 200.391 196.048C200.21 196.118 200.036 196.145 199.869 196.132C199.59 196.132 199.367 196.055 199.2 195.902C199.032 195.748 198.949 195.546 198.949 195.295C198.949 194.627 199.339 194.181 200.119 193.958C199.813 193.777 199.562 193.686 199.367 193.686C198.587 193.686 197.869 194.202 197.214 195.233C197.075 195.456 196.97 195.686 196.9 195.922C196.831 196.159 196.594 197.086 196.19 198.702C195.716 200.653 195.444 201.692 195.375 201.817C195.193 202.193 194.894 202.381 194.476 202.381C194.295 202.381 194.148 202.339 194.037 202.256C193.925 202.172 193.849 202.089 193.807 202.005C193.765 201.921 193.751 201.852 193.765 201.796C193.765 201.615 194.044 200.416 194.601 198.201C195.159 195.985 195.437 194.752 195.437 194.501C195.437 193.958 195.256 193.686 194.894 193.686C194.601 193.686 194.35 193.881 194.141 194.271C193.932 194.661 193.765 195.086 193.64 195.546C193.514 196.006 193.438 196.257 193.41 196.299C193.382 196.327 193.27 196.341 193.075 196.341H192.783C192.699 196.257 192.657 196.194 192.657 196.152Z" fill="#D9EBFF"/>
<path d="M202.481 198.64C202.481 197.845 202.614 197.121 202.879 196.466C203.143 195.811 203.485 195.268 203.903 194.836C204.321 194.404 204.788 194.041 205.303 193.749C205.819 193.456 206.307 193.24 206.766 193.101C207.226 192.961 207.665 192.899 208.083 192.913H208.146C208.773 192.913 209.316 193.066 209.776 193.372C210.236 193.679 210.466 194.132 210.466 194.731C210.466 195.985 209.693 196.807 208.146 197.198C207.463 197.379 206.53 197.476 205.345 197.49C204.829 197.49 204.565 197.504 204.551 197.532C204.551 197.56 204.509 197.804 204.425 198.264C204.342 198.723 204.293 199.128 204.279 199.476C204.279 200.131 204.425 200.646 204.718 201.023C205.011 201.399 205.45 201.594 206.035 201.608C206.62 201.622 207.268 201.489 207.979 201.211C208.689 200.932 209.33 200.472 209.902 199.831C210.027 199.692 210.111 199.622 210.153 199.622C210.208 199.622 210.299 199.685 210.424 199.81C210.55 199.936 210.619 200.033 210.633 200.103C210.647 200.173 210.585 200.284 210.445 200.437C210.306 200.591 210.097 200.779 209.818 201.002C209.539 201.225 209.219 201.441 208.857 201.65C208.494 201.859 208.055 202.033 207.54 202.172C207.024 202.312 206.495 202.381 205.951 202.381C204.85 202.381 204 202.012 203.401 201.273C202.802 200.535 202.495 199.657 202.481 198.64ZM209.463 194.773C209.379 194.048 208.905 193.686 208.041 193.686C207.582 193.686 207.157 193.783 206.766 193.979C206.376 194.174 206.063 194.411 205.826 194.689C205.589 194.968 205.387 195.254 205.22 195.546C205.052 195.839 204.941 196.09 204.885 196.299C204.829 196.508 204.795 196.64 204.781 196.696C204.781 196.71 204.92 196.717 205.199 196.717C206.773 196.717 207.874 196.55 208.501 196.215C209.128 195.881 209.449 195.4 209.463 194.773Z" fill="#D9EBFF"/>
<path d="M215.023 194.209C215.023 193.86 214.89 193.686 214.626 193.686C214.291 193.686 213.943 193.888 213.581 194.292C213.218 194.696 212.919 195.316 212.682 196.152C212.668 196.166 212.654 196.187 212.64 196.215C212.626 196.243 212.619 196.264 212.619 196.278C212.619 196.292 212.605 196.306 212.577 196.32C212.549 196.334 212.529 196.341 212.515 196.341C212.501 196.341 212.473 196.341 212.431 196.341C212.389 196.341 212.333 196.341 212.264 196.341H211.971C211.888 196.257 211.846 196.194 211.846 196.152C211.846 196.055 211.901 195.853 212.013 195.546C212.124 195.24 212.292 194.877 212.515 194.459C212.738 194.041 213.044 193.686 213.434 193.393C213.824 193.101 214.263 192.947 214.751 192.933C215.336 192.933 215.789 193.101 216.11 193.435C216.43 193.77 216.597 194.16 216.611 194.606C216.611 194.843 216.591 195.024 216.549 195.149C216.549 195.233 216.444 195.539 216.235 196.069C216.026 196.598 215.81 197.218 215.587 197.929C215.364 198.64 215.239 199.26 215.211 199.789C215.211 200.166 215.246 200.472 215.315 200.709C215.497 201.308 215.936 201.608 216.632 201.608C217.148 201.608 217.629 201.371 218.075 200.897C218.52 200.423 218.869 199.873 219.12 199.246C219.371 198.619 219.573 198.041 219.726 197.511C219.879 196.982 219.956 196.598 219.956 196.361C219.956 196.041 219.9 195.762 219.789 195.525C219.677 195.288 219.552 195.107 219.412 194.982C219.273 194.856 219.148 194.731 219.036 194.606C218.925 194.48 218.869 194.327 218.869 194.146C218.869 193.839 219.001 193.554 219.266 193.289C219.531 193.024 219.816 192.892 220.123 192.892C220.388 192.892 220.625 193.017 220.834 193.268C221.043 193.519 221.154 193.923 221.168 194.48C221.168 194.856 221.085 195.435 220.917 196.215C220.75 196.995 220.492 197.866 220.144 198.828C219.796 199.789 219.301 200.619 218.66 201.315C218.019 202.012 217.28 202.367 216.444 202.381C215.552 202.381 214.842 202.151 214.312 201.692C213.797 201.246 213.539 200.584 213.539 199.706C213.539 199.274 213.595 198.828 213.706 198.368C213.817 197.908 214.103 197.093 214.563 195.922C214.87 195.031 215.023 194.459 215.023 194.209Z" fill="#D9EBFF"/>
</g>
<g clip-path="url(#clip1_49_829)">
<path d="M181.608 92.8289C181.608 91.3099 182.208 89.9441 183.406 88.7317C184.605 87.5193 185.901 86.913 187.294 86.913C188.075 86.913 188.688 87.0803 189.134 87.4147C189.58 87.7492 189.81 88.1882 189.824 88.7317C189.824 89.1359 189.691 89.4773 189.427 89.756C189.162 90.0347 188.827 90.1811 188.423 90.195C188.158 90.195 187.949 90.1253 187.796 89.986C187.643 89.8466 187.566 89.6376 187.566 89.3588C187.566 89.0801 187.643 88.8432 187.796 88.6481C187.949 88.453 188.103 88.3067 188.256 88.2091C188.409 88.1115 188.507 88.0697 188.549 88.0837H188.569C188.569 88.0558 188.528 88.014 188.444 87.9583C188.36 87.9025 188.214 87.8468 188.005 87.791C187.796 87.7353 187.559 87.7074 187.294 87.7074C186.876 87.7074 186.479 87.805 186.103 88.0001C185.81 88.1255 185.511 88.3415 185.204 88.6481C184.591 89.2613 184.145 90.1253 183.866 91.2402C183.587 92.3551 183.441 93.1634 183.427 93.6651C183.427 94.3061 183.608 94.7869 183.971 95.1075C184.277 95.4419 184.681 95.6092 185.183 95.6092H185.267C186.827 95.6092 188.117 95.0169 189.134 93.8323C189.259 93.693 189.343 93.6233 189.385 93.6233C189.44 93.6233 189.531 93.686 189.656 93.8114C189.782 93.9368 189.852 94.0344 189.866 94.1041C189.879 94.1737 189.817 94.2783 189.677 94.4176C189.538 94.557 189.336 94.7521 189.071 95.0029C188.806 95.2538 188.493 95.4628 188.13 95.6301C187.768 95.7973 187.322 95.9715 186.793 96.1527C186.263 96.3338 185.706 96.4105 185.12 96.3826C184.075 96.3826 183.232 96.0482 182.591 95.3792C181.95 94.7103 181.622 93.8602 181.608 92.8289Z" fill="#D9EBFF"/>
<path d="M190.388 90.1532C190.388 90.0417 190.45 89.8257 190.576 89.5052C190.701 89.1846 190.875 88.8223 191.098 88.4181C191.321 88.014 191.628 87.6656 192.018 87.3729C192.408 87.0803 192.82 86.927 193.252 86.913C193.893 86.913 194.373 87.0872 194.694 87.4357C195.014 87.7841 195.175 88.1952 195.175 88.669C195.175 88.9198 194.938 89.7003 194.464 91.0103C193.99 92.3203 193.753 93.3027 193.753 93.9577C193.753 94.557 193.851 94.9751 194.046 95.212C194.241 95.4489 194.534 95.5743 194.924 95.5883C195.314 95.6022 195.683 95.4837 196.032 95.2329C196.38 94.982 196.638 94.7451 196.805 94.5222L197.035 94.1668C197.063 94.111 197.328 93.0519 197.83 90.9894C198.248 89.317 198.499 88.3415 198.582 88.0628C198.666 87.7841 198.763 87.582 198.875 87.4566C199.112 87.2475 199.363 87.143 199.627 87.143C199.864 87.143 200.038 87.2127 200.15 87.352C200.261 87.4914 200.317 87.6238 200.317 87.7492L198.728 94.3967C198.715 94.4664 198.708 94.5779 198.708 94.7312C198.708 95.0796 198.756 95.3095 198.854 95.421C198.951 95.5325 199.098 95.5952 199.293 95.6092C199.599 95.5674 199.843 95.3514 200.025 94.9611C200.206 94.5709 200.415 93.9577 200.652 93.1216C200.679 93.0101 200.819 92.9543 201.07 92.9543C201.334 92.9543 201.467 93.0171 201.467 93.1425C201.453 93.2122 201.439 93.3097 201.425 93.4351C201.411 93.5606 201.348 93.7835 201.237 94.1041C201.125 94.4246 201.007 94.7242 200.882 95.0029C200.756 95.2817 200.582 95.5465 200.359 95.7973C200.136 96.0482 199.885 96.2224 199.606 96.3199C199.495 96.3478 199.328 96.3617 199.105 96.3617C198.185 96.3617 197.551 95.9715 197.202 95.1911C197.175 95.205 197.098 95.2747 196.972 95.4001C196.847 95.5256 196.722 95.6301 196.596 95.7137C196.471 95.7973 196.318 95.9018 196.136 96.0273C195.955 96.1527 195.753 96.2363 195.53 96.2781C195.307 96.3199 195.07 96.3547 194.819 96.3826C194.206 96.3826 193.663 96.2572 193.189 96.0063C192.464 95.5743 192.102 94.8357 192.102 93.7905C192.102 92.9962 192.346 91.9579 192.833 90.6758C193.321 89.3937 193.565 88.5784 193.565 88.23C193.565 88.2161 193.565 88.2021 193.565 88.1882C193.565 88.0628 193.565 87.9792 193.565 87.9373C193.565 87.8955 193.537 87.8468 193.482 87.791C193.426 87.7353 193.349 87.7074 193.252 87.7074H193.168C192.847 87.7074 192.555 87.8398 192.29 88.1046C192.025 88.3694 191.816 88.6551 191.663 88.9617C191.51 89.2682 191.391 89.5609 191.307 89.8396C191.224 90.1183 191.168 90.2716 191.14 90.2995C191.112 90.3274 191.001 90.3413 190.806 90.3413H190.513C190.43 90.2577 190.388 90.195 190.388 90.1532Z" fill="#D9EBFF"/>
<path d="M202.366 90.1532C202.38 90.1114 202.394 90.0556 202.408 89.986C202.422 89.9163 202.457 89.763 202.513 89.5261C202.568 89.2892 202.638 89.0731 202.722 88.878C202.805 88.6829 202.91 88.453 203.035 88.1882C203.161 87.9234 203.3 87.7144 203.453 87.5611C203.607 87.4078 203.788 87.2545 203.997 87.1012C204.206 86.9479 204.436 86.8852 204.687 86.913C205.091 86.913 205.446 86.9967 205.753 87.1639C206.059 87.3311 206.275 87.4844 206.401 87.6238C206.526 87.7631 206.603 87.9025 206.631 88.0419C206.659 88.1255 206.679 88.1673 206.693 88.1673C206.707 88.1673 206.763 88.1185 206.861 88.021C207.53 87.2963 208.303 86.934 209.181 86.934H209.244C209.913 86.934 210.414 87.2196 210.749 87.791C210.86 88.0558 210.916 88.3136 210.916 88.5645C210.916 88.9826 210.825 89.317 210.644 89.5679C210.463 89.8187 210.282 89.979 210.101 90.0487C209.92 90.1183 209.745 90.1462 209.578 90.1323C209.299 90.1323 209.076 90.0556 208.909 89.9023C208.742 89.749 208.658 89.547 208.658 89.2961C208.658 88.6272 209.049 88.1812 209.829 87.9583C209.522 87.7771 209.272 87.6865 209.076 87.6865C208.296 87.6865 207.578 88.2021 206.923 89.2334C206.784 89.4564 206.679 89.6863 206.61 89.9232C206.54 90.1602 206.303 91.0869 205.899 92.7035C205.425 94.6545 205.153 95.6928 205.084 95.8182C204.903 96.1945 204.603 96.3826 204.185 96.3826C204.004 96.3826 203.857 96.3408 203.746 96.2572C203.634 96.1736 203.558 96.09 203.516 96.0063C203.474 95.9227 203.46 95.8531 203.474 95.7973C203.474 95.6161 203.753 94.4176 204.31 92.2018C204.868 89.986 205.146 88.7526 205.146 88.5018C205.146 87.9583 204.965 87.6865 204.603 87.6865C204.31 87.6865 204.059 87.8816 203.85 88.2718C203.641 88.662 203.474 89.0871 203.349 89.547C203.223 90.0069 203.147 90.2577 203.119 90.2995C203.091 90.3274 202.979 90.3413 202.784 90.3413H202.492C202.408 90.2577 202.366 90.195 202.366 90.1532Z" fill="#D9EBFF"/>
<path d="M211.794 90.1532C211.808 90.1114 211.822 90.0556 211.836 89.986C211.85 89.9163 211.885 89.763 211.94 89.5261C211.996 89.2892 212.066 89.0731 212.149 88.878C212.233 88.6829 212.337 88.453 212.463 88.1882C212.588 87.9234 212.728 87.7144 212.881 87.5611C213.034 87.4078 213.215 87.2545 213.424 87.1012C213.634 86.9479 213.863 86.8852 214.114 86.913C214.518 86.913 214.874 86.9967 215.18 87.1639C215.487 87.3311 215.703 87.4844 215.828 87.6238C215.954 87.7631 216.031 87.9025 216.058 88.0419C216.086 88.1255 216.107 88.1673 216.121 88.1673C216.135 88.1673 216.191 88.1185 216.288 88.021C216.957 87.2963 217.731 86.934 218.609 86.934H218.671C219.34 86.934 219.842 87.2196 220.177 87.791C220.288 88.0558 220.344 88.3136 220.344 88.5645C220.344 88.9826 220.253 89.317 220.072 89.5679C219.891 89.8187 219.71 89.979 219.528 90.0487C219.347 90.1183 219.173 90.1462 219.006 90.1323C218.727 90.1323 218.504 90.0556 218.337 89.9023C218.17 89.749 218.086 89.547 218.086 89.2961C218.086 88.6272 218.476 88.1812 219.257 87.9583C218.95 87.7771 218.699 87.6865 218.504 87.6865C217.724 87.6865 217.006 88.2021 216.351 89.2334C216.212 89.4564 216.107 89.6863 216.037 89.9232C215.968 90.1602 215.731 91.0869 215.327 92.7035C214.853 94.6545 214.581 95.6928 214.511 95.8182C214.33 96.1945 214.031 96.3826 213.613 96.3826C213.431 96.3826 213.285 96.3408 213.174 96.2572C213.062 96.1736 212.985 96.09 212.944 96.0063C212.902 95.9227 212.888 95.8531 212.902 95.7973C212.902 95.6161 213.181 94.4176 213.738 92.2018C214.295 89.986 214.574 88.7526 214.574 88.5018C214.574 87.9583 214.393 87.6865 214.031 87.6865C213.738 87.6865 213.487 87.8816 213.278 88.2718C213.069 88.662 212.902 89.0871 212.776 89.547C212.651 90.0069 212.574 90.2577 212.546 90.2995C212.519 90.3274 212.407 90.3413 212.212 90.3413H211.919C211.836 90.2577 211.794 90.195 211.794 90.1532Z" fill="#D9EBFF"/>
</g>
<path d="M272.587 6.9823C272.587 6.84296 272.615 6.68273 272.671 6.5016C272.726 6.32047 272.81 6.2299 272.922 6.2299C272.935 6.2299 273.437 6.19507 274.426 6.1254C275.416 6.05573 275.924 6.01393 275.952 6C276.119 6 276.203 6.0627 276.203 6.1881C276.203 6.3135 275.966 7.30973 275.492 9.17678C275.381 9.65051 275.262 10.1382 275.137 10.6398C275.012 11.1414 274.907 11.5176 274.823 11.7684L274.74 12.1655C274.74 12.2073 274.782 12.1864 274.865 12.1028C275.548 11.5454 276.252 11.2668 276.976 11.2668C277.84 11.2668 278.537 11.5872 279.066 12.2282C279.596 12.8691 279.867 13.6772 279.881 14.6526C279.881 16.1991 279.331 17.5994 278.23 18.8534C277.129 20.1074 275.945 20.7344 274.677 20.7344C273.98 20.7344 273.347 20.4697 272.775 19.9402C272.204 19.4108 271.911 18.5539 271.897 17.3695V17.1814C271.897 16.8888 271.953 16.4848 272.065 15.9692C272.176 15.4537 272.517 14.0813 273.089 11.852C273.785 9.10712 274.134 7.65109 274.134 7.48389C274.134 7.31669 273.869 7.21916 273.34 7.19129C273.27 7.19129 273.214 7.19129 273.172 7.19129H273.068C272.929 7.19129 272.838 7.19129 272.796 7.19129C272.754 7.19129 272.706 7.17039 272.65 7.12859C272.594 7.08679 272.573 7.03803 272.587 6.9823ZM278.084 13.7121V13.5867C278.084 12.5556 277.659 12.0401 276.809 12.0401C276.572 12.0401 276.328 12.0958 276.077 12.2073C275.827 12.3187 275.597 12.465 275.388 12.6462C275.179 12.8273 274.998 12.9945 274.844 13.1478C274.691 13.301 274.566 13.4543 274.468 13.6076L274.343 13.7748L273.904 15.5722C273.597 16.7704 273.444 17.6203 273.444 18.1219C273.444 18.7907 273.611 19.2923 273.946 19.6267C274.169 19.8497 274.447 19.9611 274.782 19.9611C275.241 19.9611 275.708 19.7382 276.182 19.2923C276.53 18.9719 276.809 18.5817 277.018 18.1219C277.227 17.6621 277.457 16.9306 277.708 15.9275C277.958 14.9243 278.084 14.1858 278.084 13.7121Z" fill="#B3BFD8"/>
<path d="M269.897 167.936C269.897 166.528 270.427 165.191 271.486 163.923C272.545 162.655 273.736 162.014 275.06 162C275.77 162 276.397 162.341 276.941 163.024C277.164 162.606 277.484 162.397 277.902 162.397C278.083 162.397 278.243 162.453 278.383 162.564C278.522 162.676 278.592 162.815 278.592 162.982C278.592 163.163 278.334 164.278 277.819 166.326C277.303 168.374 277.038 169.531 277.024 169.796C277.024 170.144 277.073 170.374 277.171 170.485C277.268 170.597 277.414 170.66 277.61 170.673C277.735 170.66 277.874 170.597 278.028 170.485C278.32 170.207 278.606 169.538 278.884 168.479C278.968 168.2 279.038 168.054 279.093 168.04C279.121 168.026 279.191 168.019 279.302 168.019H279.386C279.651 168.019 279.783 168.082 279.783 168.207C279.783 168.291 279.748 168.479 279.679 168.772C279.609 169.064 279.47 169.44 279.261 169.9C279.052 170.36 278.829 170.708 278.592 170.945C278.411 171.126 278.188 171.273 277.923 171.384C277.812 171.412 277.644 171.426 277.421 171.426C276.948 171.426 276.551 171.321 276.23 171.112C275.91 170.903 275.701 170.687 275.603 170.464L275.478 170.151C275.464 170.137 275.436 170.144 275.394 170.172C275.366 170.2 275.338 170.228 275.311 170.255C274.488 171.036 273.652 171.426 272.803 171.426C272.036 171.426 271.36 171.147 270.775 170.59C270.19 170.033 269.897 169.148 269.897 167.936ZM276.544 164.362C276.544 164.278 276.509 164.125 276.439 163.902C276.369 163.679 276.209 163.435 275.958 163.17C275.708 162.906 275.387 162.766 274.997 162.752C274.509 162.752 274.043 162.968 273.597 163.4C273.151 163.832 272.803 164.397 272.552 165.093C272.148 166.194 271.862 167.336 271.695 168.521C271.695 168.563 271.695 168.639 271.695 168.751C271.695 168.862 271.688 168.946 271.674 169.001C271.674 169.628 271.799 170.06 272.05 170.297C272.301 170.534 272.601 170.66 272.949 170.673C273.478 170.673 274.001 170.444 274.516 169.984C275.032 169.524 275.338 169.169 275.436 168.918C275.464 168.862 275.652 168.117 276 166.682C276.349 165.246 276.53 164.473 276.544 164.362Z" fill="#B3BFD8"/>
<defs>
<clipPath id="clip0_49_829">
<rect width="40.671" height="16.749" fill="white" transform="translate(180.897 191)"/>
</clipPath>
<clipPath id="clip1_49_829">
<rect width="39.906" height="13.419" fill="white" transform="translate(180.897 85)"/>
</clipPath>
</defs>
</svg>
