<svg width="701" height="213" viewBox="0 0 701 213" fill="none" xmlns="http://www.w3.org/2000/svg">
<g clip-path="url(#clip0_49_857)">
<rect width="700" height="213" transform="translate(0.897461)" fill="#0A0D12"/>
<path d="M275.397 7H426.397M275.397 7L350.897 50.6667L426.397 7M275.397 7L199.897 82.6667L275.397 158.333M426.397 7L501.897 82.6667L426.397 158.333M426.397 158.333L350.897 202L275.397 158.333M426.397 158.333H275.397" stroke="#4A5467" stroke-width="2"/>
<path d="M199.897 82.6667L275.397 158.333" stroke="#B3BFD8" stroke-width="2"/>
<circle cx="200.897" cy="83" r="5" fill="black" stroke="#D9EBFF" stroke-width="2"/>
<circle cx="275.897" cy="7" r="5" fill="black" stroke="#D9EBFF" stroke-width="2"/>
<circle cx="425.897" cy="7" r="5" fill="black" stroke="#D9EBFF" stroke-width="2"/>
<circle cx="350.897" cy="51" r="5" fill="black" stroke="#D9EBFF" stroke-width="2"/>
<circle cx="350.897" cy="202" r="5" fill="black" stroke="#D9EBFF" stroke-width="2"/>
<circle cx="426.897" cy="158" r="5" fill="black" stroke="#D9EBFF" stroke-width="2"/>
<circle cx="501.897" cy="83" r="5" fill="black" stroke="#D9EBFF" stroke-width="2"/>
<circle cx="274.897" cy="158" r="5" fill="black" stroke="#D9EBFF" stroke-width="2"/>
<g clip-path="url(#clip1_49_857)">
<path d="M182.186 65.1524C182.2 65.1106 182.213 65.0549 182.227 64.9852C182.241 64.9155 182.276 64.7622 182.332 64.5254C182.388 64.2885 182.457 64.0725 182.541 63.8774C182.625 63.6823 182.729 63.4524 182.854 63.1876C182.98 62.9228 183.119 62.7138 183.273 62.5605C183.426 62.4073 183.607 62.254 183.816 62.1007C184.025 61.9474 184.255 61.8847 184.506 61.9126C185.551 61.9126 186.22 62.3585 186.512 63.2503L186.721 63.0622C187.585 62.2958 188.408 61.9126 189.188 61.9126C190.094 61.9126 190.804 62.24 191.32 62.895C191.835 63.5499 192.093 64.3442 192.093 65.2778C192.093 66.7828 191.564 68.1693 190.505 69.4374C189.446 70.7055 188.247 71.3465 186.91 71.3604C186.603 71.3604 186.331 71.3186 186.094 71.235C185.941 71.1653 185.781 71.0608 185.614 70.9215C185.446 70.7821 185.314 70.6637 185.216 70.5661L185.07 70.3989C185.056 70.4128 184.903 71.019 184.61 72.2174C184.318 73.4158 184.171 74.022 184.171 74.0359C184.171 74.1195 184.227 74.1683 184.339 74.1822C184.45 74.1961 184.708 74.217 185.112 74.2449H185.634C185.718 74.3425 185.76 74.4052 185.76 74.433C185.76 74.4609 185.739 74.5863 185.697 74.8093C185.655 74.9765 185.614 75.081 185.572 75.1228C185.53 75.1646 185.439 75.1925 185.3 75.2064C185.272 75.2064 185.196 75.2064 185.07 75.2064C184.945 75.2064 184.708 75.1995 184.359 75.1855C184.011 75.1716 183.579 75.1646 183.063 75.1646C182.088 75.1646 181.468 75.1786 181.203 75.2064H181.036C180.938 75.1089 180.89 75.0322 180.89 74.9765C180.918 74.6003 181.008 74.3564 181.161 74.2449H181.579C182.053 74.231 182.325 74.1474 182.395 73.9941C182.436 73.9105 182.861 72.2453 183.67 68.9984C184.478 65.7516 184.903 64.0307 184.945 63.8356C184.959 63.7659 184.966 63.6684 184.966 63.5429C184.966 62.9716 184.791 62.686 184.443 62.686C184.136 62.686 183.879 62.881 183.67 63.2712C183.461 63.6614 183.3 64.0864 183.189 64.5463C183.077 65.0061 182.994 65.2569 182.938 65.2987C182.91 65.3266 182.799 65.3405 182.604 65.3405H182.311C182.227 65.2569 182.186 65.1942 182.186 65.1524ZM185.425 69.0193C185.732 70.0784 186.248 70.6079 186.972 70.6079C187.39 70.6079 187.794 70.4477 188.185 70.1272C188.575 69.8067 188.895 69.4026 189.146 68.9148C189.397 68.441 189.648 67.6886 189.899 66.6574C190.149 65.6262 190.282 64.8598 190.296 64.3581V64.2327C190.296 63.2015 189.871 62.686 189.021 62.686C188.867 62.686 188.714 62.7069 188.561 62.7487C188.408 62.7905 188.254 62.8532 188.101 62.9368C187.948 63.0204 187.808 63.111 187.683 63.2085C187.557 63.3061 187.439 63.4106 187.328 63.522C187.216 63.6335 187.112 63.738 187.014 63.8356C186.916 63.9331 186.84 64.0307 186.784 64.1282C186.728 64.2258 186.673 64.2954 186.617 64.3372L186.554 64.4208C186.554 64.4348 186.533 64.5323 186.491 64.7135C186.45 64.8946 186.373 65.2012 186.262 65.6332C186.15 66.0652 186.053 66.4275 185.969 66.7201C185.607 68.1972 185.425 68.9636 185.425 69.0193Z" fill="#D9EBFF"/>
<path d="M192.657 65.1524C192.671 65.1106 192.685 65.0549 192.699 64.9852C192.713 64.9155 192.748 64.7623 192.804 64.5254C192.859 64.2885 192.929 64.0725 193.013 63.8774C193.096 63.6823 193.201 63.4524 193.326 63.1876C193.452 62.9229 193.591 62.7138 193.744 62.5606C193.897 62.4073 194.079 62.254 194.288 62.1007C194.497 61.9474 194.727 61.8847 194.977 61.9126C195.381 61.9126 195.737 61.9962 196.043 62.1634C196.35 62.3306 196.566 62.4839 196.691 62.6233C196.817 62.7626 196.893 62.902 196.921 63.0413C196.949 63.1249 196.97 63.1667 196.984 63.1667C196.998 63.1667 197.054 63.1179 197.151 63.0204C197.82 62.2958 198.593 61.9335 199.471 61.9335H199.534C200.203 61.9335 200.705 62.2191 201.039 62.7905C201.151 63.0552 201.206 63.313 201.206 63.5639C201.206 63.9819 201.116 64.3163 200.935 64.5672C200.753 64.818 200.572 64.9783 200.391 65.0479C200.21 65.1176 200.036 65.1455 199.869 65.1315C199.59 65.1315 199.367 65.0549 199.2 64.9016C199.032 64.7483 198.949 64.5463 198.949 64.2954C198.949 63.6266 199.339 63.1807 200.119 62.9577C199.813 62.7765 199.562 62.686 199.367 62.686C198.587 62.686 197.869 63.2016 197.214 64.2327C197.075 64.4557 196.97 64.6856 196.9 64.9225C196.831 65.1594 196.594 66.0861 196.19 67.7025C195.716 69.6534 195.444 70.6915 195.375 70.817C195.193 71.1932 194.894 71.3813 194.476 71.3813C194.295 71.3813 194.148 71.3395 194.037 71.2559C193.925 71.1723 193.849 71.0887 193.807 71.0051C193.765 70.9215 193.751 70.8518 193.765 70.7961C193.765 70.6149 194.044 69.4165 194.601 67.2009C195.159 64.9852 195.437 63.752 195.437 63.5012C195.437 62.9577 195.256 62.686 194.894 62.686C194.601 62.686 194.35 62.8811 194.141 63.2712C193.932 63.6614 193.765 64.0864 193.64 64.5463C193.514 65.0061 193.438 65.2569 193.41 65.2988C193.382 65.3266 193.27 65.3406 193.075 65.3406H192.783C192.699 65.2569 192.657 65.1942 192.657 65.1524Z" fill="#D9EBFF"/>
<path d="M202.481 67.6398C202.481 66.8455 202.614 66.1209 202.879 65.466C203.143 64.811 203.485 64.2676 203.903 63.8356C204.321 63.4036 204.788 63.0413 205.303 62.7487C205.819 62.456 206.307 62.2401 206.766 62.1007C207.226 61.9614 207.665 61.8986 208.083 61.9126H208.146C208.773 61.9126 209.316 62.0659 209.776 62.3724C210.236 62.679 210.466 63.1319 210.466 63.7311C210.466 64.9852 209.693 65.8074 208.146 66.1976C207.463 66.3787 206.53 66.4762 205.345 66.4902C204.829 66.4902 204.565 66.5041 204.551 66.532C204.551 66.5599 204.509 66.8037 204.425 67.2636C204.342 67.7234 204.293 68.1275 204.279 68.4759C204.279 69.1308 204.425 69.6464 204.718 70.0227C205.011 70.3989 205.45 70.594 206.035 70.6079C206.62 70.6219 207.268 70.4895 207.979 70.2108C208.689 69.9321 209.33 69.4722 209.902 68.8312C210.027 68.6919 210.111 68.6222 210.153 68.6222C210.208 68.6222 210.299 68.6849 210.424 68.8103C210.55 68.9357 210.619 69.0333 210.633 69.103C210.647 69.1726 210.585 69.2841 210.445 69.4374C210.306 69.5907 210.097 69.7788 209.818 70.0018C209.539 70.2247 209.219 70.4407 208.857 70.6497C208.494 70.8588 208.055 71.0329 207.54 71.1723C207.024 71.3116 206.495 71.3813 205.951 71.3813C204.85 71.3813 204 71.012 203.401 70.2735C202.802 69.5349 202.495 68.6571 202.481 67.6398ZM209.463 63.7729C209.379 63.0483 208.905 62.686 208.041 62.686C207.582 62.686 207.157 62.7835 206.766 62.9786C206.376 63.1737 206.063 63.4106 205.826 63.6893C205.589 63.968 205.387 64.2536 205.22 64.5463C205.052 64.8389 204.941 65.0897 204.885 65.2988C204.829 65.5078 204.795 65.6402 204.781 65.6959C204.781 65.7098 204.92 65.7168 205.199 65.7168C206.773 65.7168 207.874 65.5496 208.501 65.2151C209.128 64.8807 209.449 64.4 209.463 63.7729Z" fill="#D9EBFF"/>
<path d="M215.023 63.2085C215.023 62.8602 214.89 62.686 214.626 62.686C214.291 62.686 213.943 62.888 213.581 63.2921C213.218 63.6962 212.919 64.3163 212.682 65.1524C212.668 65.1664 212.654 65.1873 212.64 65.2151C212.626 65.243 212.619 65.2639 212.619 65.2779C212.619 65.2918 212.605 65.3057 212.577 65.3197C212.549 65.3336 212.529 65.3406 212.515 65.3406C212.501 65.3406 212.473 65.3406 212.431 65.3406C212.389 65.3406 212.333 65.3406 212.264 65.3406H211.971C211.888 65.2569 211.846 65.1942 211.846 65.1524C211.846 65.0549 211.901 64.8528 212.013 64.5463C212.124 64.2397 212.292 63.8774 212.515 63.4594C212.738 63.0413 213.044 62.686 213.434 62.3933C213.824 62.1007 214.263 61.9474 214.751 61.9335C215.336 61.9335 215.789 62.1007 216.11 62.4351C216.43 62.7696 216.597 63.1598 216.611 63.6057C216.611 63.8426 216.591 64.0237 216.549 64.1491C216.549 64.2327 216.444 64.5393 216.235 65.0688C216.026 65.5984 215.81 66.2185 215.587 66.9291C215.364 67.6398 215.239 68.2599 215.211 68.7894C215.211 69.1657 215.246 69.4722 215.315 69.7091C215.497 70.3083 215.936 70.6079 216.632 70.6079C217.148 70.6079 217.629 70.371 218.075 69.8973C218.52 69.4235 218.869 68.873 219.12 68.246C219.371 67.6189 219.573 67.0406 219.726 66.5111C219.879 65.9816 219.956 65.5984 219.956 65.3615C219.956 65.041 219.9 64.7623 219.789 64.5254C219.677 64.2885 219.552 64.1073 219.412 63.9819C219.273 63.8565 219.148 63.7311 219.036 63.6057C218.925 63.4803 218.869 63.327 218.869 63.1458C218.869 62.8393 219.001 62.5536 219.266 62.2888C219.531 62.0241 219.816 61.8917 220.123 61.8917C220.388 61.8917 220.625 62.0171 220.834 62.2679C221.043 62.5187 221.154 62.9229 221.168 63.4803C221.168 63.8565 221.085 64.4348 220.917 65.2151C220.75 65.9955 220.492 66.8664 220.144 67.8279C219.796 68.7894 219.301 69.6186 218.66 70.3153C218.019 71.012 217.28 71.3674 216.444 71.3813C215.552 71.3813 214.842 71.1514 214.312 70.6915C213.797 70.2456 213.539 69.5837 213.539 68.7058C213.539 68.2738 213.595 67.8279 213.706 67.3681C213.817 66.9082 214.103 66.093 214.563 64.9225C214.87 64.0307 215.023 63.4594 215.023 63.2085Z" fill="#D9EBFF"/>
</g>
<g clip-path="url(#clip2_49_857)">
<path d="M255.608 173.829C255.608 172.31 256.208 170.944 257.406 169.732C258.605 168.519 259.901 167.913 261.294 167.913C262.075 167.913 262.688 168.08 263.134 168.415C263.58 168.749 263.81 169.188 263.824 169.732C263.824 170.136 263.691 170.477 263.427 170.756C263.162 171.035 262.827 171.181 262.423 171.195C262.158 171.195 261.949 171.125 261.796 170.986C261.643 170.847 261.566 170.638 261.566 170.359C261.566 170.08 261.643 169.843 261.796 169.648C261.949 169.453 262.103 169.307 262.256 169.209C262.409 169.112 262.507 169.07 262.549 169.084H262.569C262.569 169.056 262.528 169.014 262.444 168.958C262.36 168.902 262.214 168.847 262.005 168.791C261.796 168.735 261.559 168.707 261.294 168.707C260.876 168.707 260.479 168.805 260.103 169C259.81 169.125 259.511 169.341 259.204 169.648C258.591 170.261 258.145 171.125 257.866 172.24C257.587 173.355 257.441 174.163 257.427 174.665C257.427 175.306 257.608 175.787 257.971 176.107C258.277 176.442 258.681 176.609 259.183 176.609H259.267C260.827 176.609 262.117 176.017 263.134 174.832C263.259 174.693 263.343 174.623 263.385 174.623C263.44 174.623 263.531 174.686 263.656 174.811C263.782 174.937 263.852 175.034 263.866 175.104C263.879 175.174 263.817 175.278 263.677 175.418C263.538 175.557 263.336 175.752 263.071 176.003C262.806 176.254 262.493 176.463 262.13 176.63C261.768 176.797 261.322 176.971 260.793 177.153C260.263 177.334 259.706 177.41 259.12 177.383C258.075 177.383 257.232 177.048 256.591 176.379C255.95 175.71 255.622 174.86 255.608 173.829Z" fill="#D9EBFF"/>
<path d="M264.388 171.153C264.388 171.042 264.45 170.826 264.576 170.505C264.701 170.185 264.875 169.822 265.098 169.418C265.321 169.014 265.628 168.666 266.018 168.373C266.408 168.08 266.82 167.927 267.252 167.913C267.893 167.913 268.373 168.087 268.694 168.436C269.014 168.784 269.175 169.195 269.175 169.669C269.175 169.92 268.938 170.7 268.464 172.01C267.99 173.32 267.753 174.303 267.753 174.958C267.753 175.557 267.851 175.975 268.046 176.212C268.241 176.449 268.534 176.574 268.924 176.588C269.314 176.602 269.683 176.484 270.032 176.233C270.38 175.982 270.638 175.745 270.805 175.522L271.035 175.167C271.063 175.111 271.328 174.052 271.83 171.989C272.248 170.317 272.499 169.342 272.582 169.063C272.666 168.784 272.763 168.582 272.875 168.457C273.112 168.248 273.363 168.143 273.627 168.143C273.864 168.143 274.038 168.213 274.15 168.352C274.261 168.491 274.317 168.624 274.317 168.749L272.728 175.397C272.715 175.466 272.708 175.578 272.708 175.731C272.708 176.08 272.756 176.31 272.854 176.421C272.951 176.533 273.098 176.595 273.293 176.609C273.599 176.567 273.843 176.351 274.025 175.961C274.206 175.571 274.415 174.958 274.652 174.122C274.679 174.01 274.819 173.954 275.07 173.954C275.334 173.954 275.467 174.017 275.467 174.142C275.453 174.212 275.439 174.31 275.425 174.435C275.411 174.561 275.348 174.784 275.237 175.104C275.125 175.425 275.007 175.724 274.882 176.003C274.756 176.282 274.582 176.546 274.359 176.797C274.136 177.048 273.885 177.222 273.606 177.32C273.495 177.348 273.328 177.362 273.105 177.362C272.185 177.362 271.551 176.972 271.202 176.191C271.175 176.205 271.098 176.275 270.972 176.4C270.847 176.526 270.722 176.63 270.596 176.714C270.471 176.797 270.318 176.902 270.136 177.027C269.955 177.153 269.753 177.236 269.53 177.278C269.307 177.32 269.07 177.355 268.819 177.383C268.206 177.383 267.663 177.257 267.189 177.006C266.464 176.574 266.102 175.836 266.102 174.791C266.102 173.996 266.346 172.958 266.833 171.676C267.321 170.394 267.565 169.578 267.565 169.23C267.565 169.216 267.565 169.202 267.565 169.188C267.565 169.063 267.565 168.979 267.565 168.937C267.565 168.896 267.537 168.847 267.482 168.791C267.426 168.735 267.349 168.707 267.252 168.707H267.168C266.847 168.707 266.555 168.84 266.29 169.105C266.025 169.369 265.816 169.655 265.663 169.962C265.51 170.268 265.391 170.561 265.307 170.84C265.224 171.118 265.168 171.272 265.14 171.3C265.112 171.327 265.001 171.341 264.806 171.341H264.513C264.43 171.258 264.388 171.195 264.388 171.153Z" fill="#D9EBFF"/>
<path d="M276.366 171.153C276.38 171.111 276.394 171.056 276.408 170.986C276.422 170.916 276.457 170.763 276.513 170.526C276.568 170.289 276.638 170.073 276.722 169.878C276.805 169.683 276.91 169.453 277.035 169.188C277.161 168.923 277.3 168.714 277.453 168.561C277.607 168.408 277.788 168.254 277.997 168.101C278.206 167.948 278.436 167.885 278.687 167.913C279.091 167.913 279.446 167.997 279.753 168.164C280.059 168.331 280.275 168.484 280.401 168.624C280.526 168.763 280.603 168.903 280.631 169.042C280.659 169.125 280.679 169.167 280.693 169.167C280.707 169.167 280.763 169.119 280.861 169.021C281.53 168.296 282.303 167.934 283.181 167.934H283.244C283.913 167.934 284.414 168.22 284.749 168.791C284.86 169.056 284.916 169.314 284.916 169.564C284.916 169.983 284.825 170.317 284.644 170.568C284.463 170.819 284.282 170.979 284.101 171.049C283.92 171.118 283.745 171.146 283.578 171.132C283.299 171.132 283.076 171.056 282.909 170.902C282.742 170.749 282.658 170.547 282.658 170.296C282.658 169.627 283.049 169.181 283.829 168.958C283.522 168.777 283.272 168.687 283.076 168.687C282.296 168.687 281.578 169.202 280.923 170.233C280.784 170.456 280.679 170.686 280.61 170.923C280.54 171.16 280.303 172.087 279.899 173.704C279.425 175.655 279.153 176.693 279.084 176.818C278.903 177.194 278.603 177.383 278.185 177.383C278.004 177.383 277.857 177.341 277.746 177.257C277.634 177.174 277.558 177.09 277.516 177.006C277.474 176.923 277.46 176.853 277.474 176.797C277.474 176.616 277.753 175.418 278.31 173.202C278.868 170.986 279.146 169.753 279.146 169.502C279.146 168.958 278.965 168.687 278.603 168.687C278.31 168.687 278.059 168.882 277.85 169.272C277.641 169.662 277.474 170.087 277.349 170.547C277.223 171.007 277.147 171.258 277.119 171.3C277.091 171.327 276.979 171.341 276.784 171.341H276.492C276.408 171.258 276.366 171.195 276.366 171.153Z" fill="#D9EBFF"/>
<path d="M285.794 171.153C285.808 171.111 285.822 171.056 285.836 170.986C285.85 170.916 285.885 170.763 285.94 170.526C285.996 170.289 286.066 170.073 286.149 169.878C286.233 169.683 286.337 169.453 286.463 169.188C286.588 168.923 286.728 168.714 286.881 168.561C287.034 168.408 287.215 168.254 287.424 168.101C287.634 167.948 287.863 167.885 288.114 167.913C288.518 167.913 288.874 167.997 289.18 168.164C289.487 168.331 289.703 168.484 289.828 168.624C289.954 168.763 290.031 168.903 290.058 169.042C290.086 169.125 290.107 169.167 290.121 169.167C290.135 169.167 290.191 169.119 290.288 169.021C290.957 168.296 291.731 167.934 292.609 167.934H292.671C293.34 167.934 293.842 168.22 294.177 168.791C294.288 169.056 294.344 169.314 294.344 169.564C294.344 169.983 294.253 170.317 294.072 170.568C293.891 170.819 293.71 170.979 293.528 171.049C293.347 171.118 293.173 171.146 293.006 171.132C292.727 171.132 292.504 171.056 292.337 170.902C292.17 170.749 292.086 170.547 292.086 170.296C292.086 169.627 292.476 169.181 293.257 168.958C292.95 168.777 292.699 168.687 292.504 168.687C291.724 168.687 291.006 169.202 290.351 170.233C290.212 170.456 290.107 170.686 290.037 170.923C289.968 171.16 289.731 172.087 289.327 173.704C288.853 175.655 288.581 176.693 288.511 176.818C288.33 177.194 288.031 177.383 287.613 177.383C287.431 177.383 287.285 177.341 287.174 177.257C287.062 177.174 286.985 177.09 286.944 177.006C286.902 176.923 286.888 176.853 286.902 176.797C286.902 176.616 287.181 175.418 287.738 173.202C288.295 170.986 288.574 169.753 288.574 169.502C288.574 168.958 288.393 168.687 288.031 168.687C287.738 168.687 287.487 168.882 287.278 169.272C287.069 169.662 286.902 170.087 286.776 170.547C286.651 171.007 286.574 171.258 286.546 171.3C286.519 171.327 286.407 171.341 286.212 171.341H285.919C285.836 171.258 285.794 171.195 285.794 171.153Z" fill="#D9EBFF"/>
</g>
<path d="M239.542 122.645C220.016 142.171 220.016 173.829 239.542 193.355C259.068 212.882 290.727 212.882 310.253 193.355C329.779 173.829 329.779 142.171 310.253 122.645C300.618 113.009 288.028 108.129 275.4 108.002M275.4 108.002L285.505 97.8973M275.4 108.002L285.785 118.387" stroke="#B3BFD8" stroke-width="2" stroke-linecap="round" stroke-linejoin="round"/>
<path d="M438.587 151.982C438.587 151.843 438.615 151.683 438.671 151.502C438.726 151.32 438.81 151.23 438.922 151.23C438.935 151.23 439.437 151.195 440.426 151.125C441.416 151.056 441.924 151.014 441.952 151C442.119 151 442.203 151.063 442.203 151.188C442.203 151.313 441.966 152.31 441.492 154.177C441.381 154.651 441.262 155.138 441.137 155.64C441.012 156.141 440.907 156.518 440.823 156.768L440.74 157.165C440.74 157.207 440.782 157.186 440.865 157.103C441.548 156.545 442.252 156.267 442.976 156.267C443.84 156.267 444.537 156.587 445.066 157.228C445.596 157.869 445.867 158.677 445.881 159.653C445.881 161.199 445.331 162.599 444.23 163.853C443.129 165.107 441.945 165.734 440.677 165.734C439.98 165.734 439.347 165.47 438.775 164.94C438.204 164.411 437.911 163.554 437.897 162.37V162.181C437.897 161.889 437.953 161.485 438.065 160.969C438.176 160.454 438.517 159.081 439.089 156.852C439.785 154.107 440.134 152.651 440.134 152.484C440.134 152.317 439.869 152.219 439.34 152.191C439.27 152.191 439.214 152.191 439.172 152.191H439.068C438.929 152.191 438.838 152.191 438.796 152.191C438.754 152.191 438.706 152.17 438.65 152.129C438.594 152.087 438.573 152.038 438.587 151.982ZM444.084 158.712V158.587C444.084 157.556 443.659 157.04 442.809 157.04C442.572 157.04 442.328 157.096 442.077 157.207C441.827 157.319 441.597 157.465 441.388 157.646C441.179 157.827 440.998 157.994 440.844 158.148C440.691 158.301 440.566 158.454 440.468 158.608L440.343 158.775L439.904 160.572C439.597 161.77 439.444 162.62 439.444 163.122C439.444 163.791 439.611 164.292 439.946 164.627C440.169 164.85 440.447 164.961 440.782 164.961C441.241 164.961 441.708 164.738 442.182 164.292C442.53 163.972 442.809 163.582 443.018 163.122C443.227 162.662 443.457 161.931 443.708 160.927C443.958 159.924 444.084 159.186 444.084 158.712Z" fill="#D9EBFF"/>
<path d="M361.897 203.936C361.897 202.528 362.427 201.191 363.486 199.923C364.545 198.655 365.736 198.014 367.06 198C367.77 198 368.397 198.341 368.941 199.024C369.164 198.606 369.484 198.397 369.902 198.397C370.083 198.397 370.243 198.453 370.383 198.564C370.522 198.676 370.592 198.815 370.592 198.982C370.592 199.163 370.334 200.278 369.819 202.326C369.303 204.374 369.038 205.531 369.024 205.796C369.024 206.144 369.073 206.374 369.171 206.485C369.268 206.597 369.414 206.66 369.61 206.673C369.735 206.66 369.874 206.597 370.028 206.485C370.32 206.207 370.606 205.538 370.884 204.479C370.968 204.2 371.038 204.054 371.093 204.04C371.121 204.026 371.191 204.019 371.302 204.019H371.386C371.651 204.019 371.783 204.082 371.783 204.207C371.783 204.291 371.748 204.479 371.679 204.772C371.609 205.064 371.47 205.44 371.261 205.9C371.052 206.36 370.829 206.708 370.592 206.945C370.411 207.126 370.188 207.273 369.923 207.384C369.812 207.412 369.644 207.426 369.421 207.426C368.948 207.426 368.551 207.321 368.23 207.112C367.91 206.903 367.701 206.687 367.603 206.464L367.478 206.151C367.464 206.137 367.436 206.144 367.394 206.172C367.366 206.2 367.338 206.228 367.311 206.255C366.488 207.036 365.652 207.426 364.803 207.426C364.036 207.426 363.36 207.147 362.775 206.59C362.19 206.033 361.897 205.148 361.897 203.936ZM368.544 200.362C368.544 200.278 368.509 200.125 368.439 199.902C368.369 199.679 368.209 199.435 367.958 199.17C367.708 198.906 367.387 198.766 366.997 198.752C366.509 198.752 366.043 198.968 365.597 199.4C365.151 199.832 364.803 200.397 364.552 201.093C364.148 202.194 363.862 203.336 363.695 204.521C363.695 204.563 363.695 204.639 363.695 204.751C363.695 204.862 363.688 204.946 363.674 205.001C363.674 205.628 363.799 206.06 364.05 206.297C364.301 206.534 364.601 206.66 364.949 206.673C365.478 206.673 366.001 206.444 366.516 205.984C367.032 205.524 367.338 205.169 367.436 204.918C367.464 204.862 367.652 204.117 368 202.682C368.349 201.246 368.53 200.473 368.544 200.362Z" fill="#D9EBFF"/>
</g>
<defs>
<clipPath id="clip0_49_857">
<rect width="700" height="213" fill="white" transform="translate(0.897461)"/>
</clipPath>
<clipPath id="clip1_49_857">
<rect width="40.671" height="16.749" fill="white" transform="translate(180.897 60)"/>
</clipPath>
<clipPath id="clip2_49_857">
<rect width="39.906" height="13.419" fill="white" transform="translate(254.897 166)"/>
</clipPath>
</defs>
</svg>
