<svg width="701" height="214" viewBox="0 0 701 214" fill="none" xmlns="http://www.w3.org/2000/svg">
<rect width="700" height="214" transform="translate(0.897461)" fill="#0A0D12"/>
<path d="M275.397 9H426.397M275.397 9L350.897 52.6667L426.397 9M275.397 9L199.897 84.6667L275.397 160.333M426.397 9L501.897 84.6667L426.397 160.333M426.397 160.333L350.897 204L275.397 160.333M426.397 160.333H275.397" stroke="#4A5467" stroke-width="2"/>
<path d="M199.897 84.6667L275.397 160.333L426.397 160.333" stroke="#B3BFD8" stroke-width="2"/>
<circle cx="200.897" cy="85" r="5" fill="black" stroke="#D9EBFF" stroke-width="2"/>
<circle cx="275.896" cy="9" r="5" fill="black" stroke="#D9EBFF" stroke-width="2"/>
<circle cx="425.896" cy="9" r="5" fill="black" stroke="#D9EBFF" stroke-width="2"/>
<circle cx="350.896" cy="53" r="5" fill="black" stroke="#D9EBFF" stroke-width="2"/>
<circle cx="350.896" cy="204" r="5" fill="black" stroke="#D9EBFF" stroke-width="2"/>
<circle cx="501.896" cy="85" r="5" fill="black" stroke="#D9EBFF" stroke-width="2"/>
<circle cx="274.896" cy="160" r="5" fill="black" stroke="#D9EBFF" stroke-width="2"/>
<circle cx="426.896" cy="160" r="5" fill="black" stroke="#D9EBFF" stroke-width="2"/>
<path d="M169.897 83.241C169.911 83.1573 169.932 83.0459 169.96 82.9065C169.988 82.7672 170.072 82.5024 170.211 82.1122C170.35 81.7221 170.49 81.3946 170.629 81.1298C170.768 80.8651 170.998 80.6073 171.319 80.3564C171.639 80.1056 171.96 79.9872 172.28 80.0011C172.782 80.0011 173.2 80.1265 173.534 80.3773C173.869 80.6282 174.078 80.8651 174.162 81.088C174.245 81.311 174.287 81.4573 174.287 81.527C174.287 81.5548 174.294 81.5688 174.308 81.5688L174.538 81.3388C175.388 80.447 176.356 80.0011 177.443 80.0011C178.196 80.0011 178.802 80.1892 179.262 80.5655C179.722 80.9417 179.958 81.4921 179.972 82.2167C179.986 82.9414 179.722 84.0352 179.178 85.4984C178.635 86.9616 178.37 87.8464 178.384 88.153C178.384 88.5153 178.502 88.6964 178.739 88.6964C178.823 88.6964 178.885 88.6895 178.927 88.6755C179.331 88.6059 179.694 88.3411 180.014 87.8813C180.335 87.4214 180.579 86.864 180.746 86.2091C180.774 86.0976 180.913 86.0419 181.164 86.0419C181.442 86.0419 181.582 86.0976 181.582 86.2091C181.582 86.223 181.554 86.3275 181.498 86.5226C181.387 86.9267 181.233 87.3239 181.038 87.714C180.843 88.1042 180.523 88.4944 180.077 88.8846C179.631 89.2747 179.15 89.4629 178.635 89.4489C177.98 89.4489 177.506 89.2608 177.213 88.8846C176.921 88.5083 176.774 88.1182 176.774 87.714C176.774 87.4493 177.025 86.6132 177.527 85.2058C178.028 83.7983 178.286 82.7393 178.3 82.0286C178.3 81.2065 177.994 80.7954 177.38 80.7954H177.276C176.078 80.7954 175.067 81.4991 174.245 82.9065L174.099 83.1573L173.409 85.9583C172.949 87.7837 172.684 88.7661 172.615 88.9055C172.434 89.2817 172.134 89.4698 171.716 89.4698C171.535 89.4698 171.388 89.428 171.277 89.3444C171.166 89.2608 171.089 89.1772 171.047 89.0936C171.005 89.01 170.991 88.9403 171.005 88.8846C171.005 88.7034 171.27 87.5677 171.8 85.4775C172.329 83.3873 172.608 82.2516 172.636 82.0704C172.65 82.0008 172.657 81.8405 172.657 81.5897C172.657 81.0462 172.489 80.7745 172.155 80.7745C171.625 80.7745 171.186 81.4712 170.838 82.8647C170.754 83.1434 170.713 83.2897 170.713 83.3037C170.685 83.3873 170.552 83.4291 170.316 83.4291H170.023C169.939 83.3455 169.897 83.2828 169.897 83.241Z" fill="#D9EBFF"/>
<path d="M183.424 83.7425C183.975 82.9445 184.729 82.5455 185.685 82.5455C186.158 82.5455 186.63 82.6736 187.103 82.9297C187.576 83.1859 187.96 83.6391 188.256 84.2893C188.621 85.107 188.803 86.2301 188.803 87.6587C188.803 89.1857 188.591 90.3532 188.167 91.161C187.97 91.5748 187.699 91.9049 187.355 92.1512C187.01 92.3975 186.709 92.5502 186.453 92.6093C186.197 92.6684 185.946 92.7029 185.699 92.7127C185.443 92.7127 185.187 92.6832 184.931 92.6241C184.675 92.5649 184.374 92.4073 184.03 92.1512C183.685 91.895 183.414 91.565 183.217 91.161C182.793 90.3532 182.581 89.1857 182.581 87.6587C182.581 85.9444 182.862 84.6391 183.424 83.7425ZM186.749 83.5652C186.453 83.2499 186.103 83.0923 185.699 83.0923C185.286 83.0923 184.931 83.2499 184.635 83.5652C184.389 83.8213 184.227 84.176 184.148 84.6292C184.069 85.0824 184.03 86.0282 184.03 87.4666C184.03 89.0232 184.069 90.0478 184.148 90.5404C184.227 91.033 184.404 91.4221 184.68 91.7078C184.956 92.0034 185.296 92.1512 185.699 92.1512C186.094 92.1512 186.428 92.0034 186.704 91.7078C186.99 91.4123 187.167 90.9985 187.236 90.4665C187.305 89.9345 187.345 88.9345 187.355 87.4666C187.355 86.038 187.315 85.0972 187.236 84.644C187.158 84.1908 186.995 83.8312 186.749 83.5652Z" fill="#D9EBFF"/>
<g clip-path="url(#clip0_49_936)">
<path d="M407.608 175.829C407.608 174.31 408.208 172.944 409.406 171.732C410.605 170.519 411.901 169.913 413.294 169.913C414.075 169.913 414.688 170.08 415.134 170.415C415.58 170.749 415.81 171.188 415.824 171.732C415.824 172.136 415.691 172.477 415.427 172.756C415.162 173.035 414.827 173.181 414.423 173.195C414.158 173.195 413.949 173.125 413.796 172.986C413.643 172.847 413.566 172.638 413.566 172.359C413.566 172.08 413.643 171.843 413.796 171.648C413.949 171.453 414.103 171.307 414.256 171.209C414.409 171.112 414.507 171.07 414.549 171.084H414.569C414.569 171.056 414.528 171.014 414.444 170.958C414.36 170.902 414.214 170.847 414.005 170.791C413.796 170.735 413.559 170.707 413.294 170.707C412.876 170.707 412.479 170.805 412.103 171C411.81 171.125 411.511 171.341 411.204 171.648C410.591 172.261 410.145 173.125 409.866 174.24C409.587 175.355 409.441 176.163 409.427 176.665C409.427 177.306 409.608 177.787 409.971 178.107C410.277 178.442 410.681 178.609 411.183 178.609H411.267C412.827 178.609 414.117 178.017 415.134 176.832C415.259 176.693 415.343 176.623 415.385 176.623C415.44 176.623 415.531 176.686 415.656 176.811C415.782 176.937 415.852 177.034 415.866 177.104C415.879 177.174 415.817 177.278 415.677 177.418C415.538 177.557 415.336 177.752 415.071 178.003C414.806 178.254 414.493 178.463 414.13 178.63C413.768 178.797 413.322 178.971 412.793 179.153C412.263 179.334 411.706 179.41 411.12 179.383C410.075 179.383 409.232 179.048 408.591 178.379C407.95 177.71 407.622 176.86 407.608 175.829Z" fill="#D9EBFF"/>
<path d="M416.388 173.153C416.388 173.042 416.45 172.826 416.576 172.505C416.701 172.185 416.875 171.822 417.098 171.418C417.321 171.014 417.628 170.666 418.018 170.373C418.408 170.08 418.82 169.927 419.252 169.913C419.893 169.913 420.373 170.087 420.694 170.436C421.014 170.784 421.175 171.195 421.175 171.669C421.175 171.92 420.938 172.7 420.464 174.01C419.99 175.32 419.753 176.303 419.753 176.958C419.753 177.557 419.851 177.975 420.046 178.212C420.241 178.449 420.534 178.574 420.924 178.588C421.314 178.602 421.683 178.484 422.032 178.233C422.38 177.982 422.638 177.745 422.805 177.522L423.035 177.167C423.063 177.111 423.328 176.052 423.83 173.989C424.248 172.317 424.499 171.342 424.582 171.063C424.666 170.784 424.763 170.582 424.875 170.457C425.112 170.248 425.363 170.143 425.627 170.143C425.864 170.143 426.038 170.213 426.15 170.352C426.261 170.491 426.317 170.624 426.317 170.749L424.728 177.397C424.715 177.466 424.708 177.578 424.708 177.731C424.708 178.08 424.756 178.31 424.854 178.421C424.951 178.533 425.098 178.595 425.293 178.609C425.599 178.567 425.843 178.351 426.025 177.961C426.206 177.571 426.415 176.958 426.652 176.122C426.679 176.01 426.819 175.954 427.07 175.954C427.334 175.954 427.467 176.017 427.467 176.142C427.453 176.212 427.439 176.31 427.425 176.435C427.411 176.561 427.348 176.784 427.237 177.104C427.125 177.425 427.007 177.724 426.882 178.003C426.756 178.282 426.582 178.546 426.359 178.797C426.136 179.048 425.885 179.222 425.606 179.32C425.495 179.348 425.328 179.362 425.105 179.362C424.185 179.362 423.551 178.972 423.202 178.191C423.175 178.205 423.098 178.275 422.972 178.4C422.847 178.526 422.722 178.63 422.596 178.714C422.471 178.797 422.318 178.902 422.136 179.027C421.955 179.153 421.753 179.236 421.53 179.278C421.307 179.32 421.07 179.355 420.819 179.383C420.206 179.383 419.663 179.257 419.189 179.006C418.464 178.574 418.102 177.836 418.102 176.791C418.102 175.996 418.346 174.958 418.833 173.676C419.321 172.394 419.565 171.578 419.565 171.23C419.565 171.216 419.565 171.202 419.565 171.188C419.565 171.063 419.565 170.979 419.565 170.937C419.565 170.896 419.537 170.847 419.482 170.791C419.426 170.735 419.349 170.707 419.252 170.707H419.168C418.847 170.707 418.555 170.84 418.29 171.105C418.025 171.369 417.816 171.655 417.663 171.962C417.51 172.268 417.391 172.561 417.307 172.84C417.224 173.118 417.168 173.272 417.14 173.3C417.112 173.327 417.001 173.341 416.806 173.341H416.513C416.43 173.258 416.388 173.195 416.388 173.153Z" fill="#D9EBFF"/>
<path d="M428.366 173.153C428.38 173.111 428.394 173.056 428.408 172.986C428.422 172.916 428.457 172.763 428.513 172.526C428.568 172.289 428.638 172.073 428.722 171.878C428.805 171.683 428.91 171.453 429.035 171.188C429.161 170.923 429.3 170.714 429.453 170.561C429.607 170.408 429.788 170.254 429.997 170.101C430.206 169.948 430.436 169.885 430.687 169.913C431.091 169.913 431.446 169.997 431.753 170.164C432.059 170.331 432.275 170.484 432.401 170.624C432.526 170.763 432.603 170.903 432.631 171.042C432.659 171.125 432.679 171.167 432.693 171.167C432.707 171.167 432.763 171.119 432.861 171.021C433.53 170.296 434.303 169.934 435.181 169.934H435.244C435.913 169.934 436.414 170.22 436.749 170.791C436.86 171.056 436.916 171.314 436.916 171.564C436.916 171.983 436.825 172.317 436.644 172.568C436.463 172.819 436.282 172.979 436.101 173.049C435.92 173.118 435.745 173.146 435.578 173.132C435.299 173.132 435.076 173.056 434.909 172.902C434.742 172.749 434.658 172.547 434.658 172.296C434.658 171.627 435.049 171.181 435.829 170.958C435.522 170.777 435.272 170.687 435.076 170.687C434.296 170.687 433.578 171.202 432.923 172.233C432.784 172.456 432.679 172.686 432.61 172.923C432.54 173.16 432.303 174.087 431.899 175.704C431.425 177.655 431.153 178.693 431.084 178.818C430.903 179.194 430.603 179.383 430.185 179.383C430.004 179.383 429.857 179.341 429.746 179.257C429.634 179.174 429.558 179.09 429.516 179.006C429.474 178.923 429.46 178.853 429.474 178.797C429.474 178.616 429.753 177.418 430.31 175.202C430.868 172.986 431.146 171.753 431.146 171.502C431.146 170.958 430.965 170.687 430.603 170.687C430.31 170.687 430.059 170.882 429.85 171.272C429.641 171.662 429.474 172.087 429.349 172.547C429.223 173.007 429.147 173.258 429.119 173.3C429.091 173.327 428.979 173.341 428.784 173.341H428.492C428.408 173.258 428.366 173.195 428.366 173.153Z" fill="#D9EBFF"/>
<path d="M437.794 173.153C437.808 173.111 437.822 173.056 437.836 172.986C437.85 172.916 437.885 172.763 437.94 172.526C437.996 172.289 438.066 172.073 438.149 171.878C438.233 171.683 438.337 171.453 438.463 171.188C438.588 170.923 438.728 170.714 438.881 170.561C439.034 170.408 439.215 170.254 439.424 170.101C439.634 169.948 439.863 169.885 440.114 169.913C440.518 169.913 440.874 169.997 441.18 170.164C441.487 170.331 441.703 170.484 441.828 170.624C441.954 170.763 442.031 170.903 442.058 171.042C442.086 171.125 442.107 171.167 442.121 171.167C442.135 171.167 442.191 171.119 442.288 171.021C442.957 170.296 443.731 169.934 444.609 169.934H444.671C445.34 169.934 445.842 170.22 446.177 170.791C446.288 171.056 446.344 171.314 446.344 171.564C446.344 171.983 446.253 172.317 446.072 172.568C445.891 172.819 445.71 172.979 445.528 173.049C445.347 173.118 445.173 173.146 445.006 173.132C444.727 173.132 444.504 173.056 444.337 172.902C444.17 172.749 444.086 172.547 444.086 172.296C444.086 171.627 444.476 171.181 445.257 170.958C444.95 170.777 444.699 170.687 444.504 170.687C443.724 170.687 443.006 171.202 442.351 172.233C442.212 172.456 442.107 172.686 442.037 172.923C441.968 173.16 441.731 174.087 441.327 175.704C440.853 177.655 440.581 178.693 440.511 178.818C440.33 179.194 440.031 179.383 439.613 179.383C439.431 179.383 439.285 179.341 439.174 179.257C439.062 179.174 438.985 179.09 438.944 179.006C438.902 178.923 438.888 178.853 438.902 178.797C438.902 178.616 439.181 177.418 439.738 175.202C440.295 172.986 440.574 171.753 440.574 171.502C440.574 170.958 440.393 170.687 440.031 170.687C439.738 170.687 439.487 170.882 439.278 171.272C439.069 171.662 438.902 172.087 438.776 172.547C438.651 173.007 438.574 173.258 438.546 173.3C438.519 173.327 438.407 173.341 438.212 173.341H437.919C437.836 173.258 437.794 173.195 437.794 173.153Z" fill="#D9EBFF"/>
</g>
<path d="M376.608 160.711C376.608 188.325 398.994 210.711 426.608 210.711C454.223 210.711 476.608 188.325 476.608 160.711C476.608 133.096 454.223 110.711 426.608 110.711C412.982 110.711 400.629 116.161 391.61 125.002M391.61 125.002L391.61 110.711M391.61 125.002L406.296 125.002" stroke="#B3BFD8" stroke-width="2" stroke-linecap="round" stroke-linejoin="round"/>
<g clip-path="url(#clip1_49_936)">
<path d="M256.186 175.152C256.2 175.111 256.213 175.055 256.227 174.985C256.241 174.916 256.276 174.762 256.332 174.525C256.388 174.288 256.457 174.072 256.541 173.877C256.625 173.682 256.729 173.452 256.854 173.188C256.98 172.923 257.119 172.714 257.273 172.561C257.426 172.407 257.607 172.254 257.816 172.101C258.025 171.947 258.255 171.885 258.506 171.913C259.551 171.913 260.22 172.358 260.512 173.25L260.721 173.062C261.585 172.296 262.408 171.913 263.188 171.913C264.094 171.913 264.804 172.24 265.32 172.895C265.835 173.55 266.093 174.344 266.093 175.278C266.093 176.783 265.564 178.169 264.505 179.437C263.446 180.705 262.247 181.346 260.91 181.36C260.603 181.36 260.331 181.319 260.094 181.235C259.941 181.165 259.781 181.061 259.614 180.921C259.446 180.782 259.314 180.664 259.216 180.566L259.07 180.399C259.056 180.413 258.903 181.019 258.61 182.217C258.318 183.416 258.171 184.022 258.171 184.036C258.171 184.12 258.227 184.168 258.339 184.182C258.45 184.196 258.708 184.217 259.112 184.245H259.634C259.718 184.342 259.76 184.405 259.76 184.433C259.76 184.461 259.739 184.586 259.697 184.809C259.655 184.976 259.614 185.081 259.572 185.123C259.53 185.165 259.439 185.192 259.3 185.206C259.272 185.206 259.196 185.206 259.07 185.206C258.945 185.206 258.708 185.199 258.359 185.186C258.011 185.172 257.579 185.165 257.063 185.165C256.088 185.165 255.468 185.179 255.203 185.206H255.036C254.938 185.109 254.89 185.032 254.89 184.976C254.918 184.6 255.008 184.356 255.161 184.245H255.579C256.053 184.231 256.325 184.147 256.395 183.994C256.436 183.91 256.861 182.245 257.67 178.998C258.478 175.752 258.903 174.031 258.945 173.836C258.959 173.766 258.966 173.668 258.966 173.543C258.966 172.972 258.791 172.686 258.443 172.686C258.136 172.686 257.879 172.881 257.67 173.271C257.461 173.661 257.3 174.086 257.189 174.546C257.077 175.006 256.994 175.257 256.938 175.299C256.91 175.327 256.799 175.341 256.604 175.341H256.311C256.227 175.257 256.186 175.194 256.186 175.152ZM259.425 179.019C259.732 180.078 260.248 180.608 260.972 180.608C261.39 180.608 261.794 180.448 262.185 180.127C262.575 179.807 262.895 179.403 263.146 178.915C263.397 178.441 263.648 177.689 263.899 176.657C264.149 175.626 264.282 174.86 264.296 174.358V174.233C264.296 173.202 263.871 172.686 263.021 172.686C262.867 172.686 262.714 172.707 262.561 172.749C262.408 172.79 262.254 172.853 262.101 172.937C261.948 173.02 261.808 173.111 261.683 173.209C261.557 173.306 261.439 173.411 261.328 173.522C261.216 173.634 261.112 173.738 261.014 173.836C260.916 173.933 260.84 174.031 260.784 174.128C260.728 174.226 260.673 174.295 260.617 174.337L260.554 174.421C260.554 174.435 260.533 174.532 260.491 174.713C260.45 174.895 260.373 175.201 260.262 175.633C260.15 176.065 260.053 176.427 259.969 176.72C259.607 178.197 259.425 178.964 259.425 179.019Z" fill="#D9EBFF"/>
<path d="M266.657 175.152C266.671 175.111 266.685 175.055 266.699 174.985C266.713 174.916 266.748 174.762 266.804 174.525C266.859 174.288 266.929 174.072 267.013 173.877C267.096 173.682 267.201 173.452 267.326 173.188C267.452 172.923 267.591 172.714 267.744 172.561C267.897 172.407 268.079 172.254 268.288 172.101C268.497 171.947 268.727 171.885 268.977 171.913C269.381 171.913 269.737 171.996 270.043 172.163C270.35 172.331 270.566 172.484 270.691 172.623C270.817 172.763 270.893 172.902 270.921 173.041C270.949 173.125 270.97 173.167 270.984 173.167C270.998 173.167 271.054 173.118 271.151 173.02C271.82 172.296 272.593 171.933 273.471 171.933H273.534C274.203 171.933 274.705 172.219 275.039 172.79C275.151 173.055 275.206 173.313 275.206 173.564C275.206 173.982 275.116 174.316 274.935 174.567C274.753 174.818 274.572 174.978 274.391 175.048C274.21 175.118 274.036 175.145 273.869 175.132C273.59 175.132 273.367 175.055 273.2 174.902C273.032 174.748 272.949 174.546 272.949 174.295C272.949 173.627 273.339 173.181 274.119 172.958C273.813 172.777 273.562 172.686 273.367 172.686C272.587 172.686 271.869 173.202 271.214 174.233C271.075 174.456 270.97 174.686 270.9 174.922C270.831 175.159 270.594 176.086 270.19 177.702C269.716 179.653 269.444 180.692 269.375 180.817C269.193 181.193 268.894 181.381 268.476 181.381C268.295 181.381 268.148 181.339 268.037 181.256C267.925 181.172 267.849 181.089 267.807 181.005C267.765 180.921 267.751 180.852 267.765 180.796C267.765 180.615 268.044 179.416 268.601 177.201C269.159 174.985 269.437 173.752 269.437 173.501C269.437 172.958 269.256 172.686 268.894 172.686C268.601 172.686 268.35 172.881 268.141 173.271C267.932 173.661 267.765 174.086 267.64 174.546C267.514 175.006 267.438 175.257 267.41 175.299C267.382 175.327 267.27 175.341 267.075 175.341H266.783C266.699 175.257 266.657 175.194 266.657 175.152Z" fill="#D9EBFF"/>
<path d="M276.481 177.64C276.481 176.845 276.614 176.121 276.879 175.466C277.143 174.811 277.485 174.268 277.903 173.836C278.321 173.404 278.788 173.041 279.303 172.749C279.819 172.456 280.307 172.24 280.766 172.101C281.226 171.961 281.665 171.899 282.083 171.913H282.146C282.773 171.913 283.316 172.066 283.776 172.372C284.236 172.679 284.466 173.132 284.466 173.731C284.466 174.985 283.693 175.807 282.146 176.198C281.463 176.379 280.53 176.476 279.345 176.49C278.829 176.49 278.565 176.504 278.551 176.532C278.551 176.56 278.509 176.804 278.425 177.264C278.342 177.723 278.293 178.127 278.279 178.476C278.279 179.131 278.425 179.646 278.718 180.023C279.011 180.399 279.45 180.594 280.035 180.608C280.62 180.622 281.268 180.489 281.979 180.211C282.689 179.932 283.33 179.472 283.902 178.831C284.027 178.692 284.111 178.622 284.153 178.622C284.208 178.622 284.299 178.685 284.424 178.81C284.55 178.936 284.619 179.033 284.633 179.103C284.647 179.173 284.585 179.284 284.445 179.437C284.306 179.591 284.097 179.779 283.818 180.002C283.539 180.225 283.219 180.441 282.857 180.65C282.494 180.859 282.055 181.033 281.54 181.172C281.024 181.312 280.495 181.381 279.951 181.381C278.85 181.381 278 181.012 277.401 180.273C276.802 179.535 276.495 178.657 276.481 177.64ZM283.463 173.773C283.379 173.048 282.905 172.686 282.041 172.686C281.582 172.686 281.157 172.783 280.766 172.979C280.376 173.174 280.063 173.411 279.826 173.689C279.589 173.968 279.387 174.254 279.22 174.546C279.052 174.839 278.941 175.09 278.885 175.299C278.829 175.508 278.795 175.64 278.781 175.696C278.781 175.71 278.92 175.717 279.199 175.717C280.773 175.717 281.874 175.55 282.501 175.215C283.128 174.881 283.449 174.4 283.463 173.773Z" fill="#D9EBFF"/>
<path d="M289.023 173.208C289.023 172.86 288.89 172.686 288.626 172.686C288.291 172.686 287.943 172.888 287.581 173.292C287.218 173.696 286.919 174.316 286.682 175.152C286.668 175.166 286.654 175.187 286.64 175.215C286.626 175.243 286.619 175.264 286.619 175.278C286.619 175.292 286.605 175.306 286.577 175.32C286.549 175.334 286.529 175.341 286.515 175.341C286.501 175.341 286.473 175.341 286.431 175.341C286.389 175.341 286.333 175.341 286.264 175.341H285.971C285.888 175.257 285.846 175.194 285.846 175.152C285.846 175.055 285.901 174.853 286.013 174.546C286.124 174.24 286.292 173.877 286.515 173.459C286.738 173.041 287.044 172.686 287.434 172.393C287.824 172.101 288.263 171.947 288.751 171.933C289.336 171.933 289.789 172.101 290.11 172.435C290.43 172.77 290.597 173.16 290.611 173.606C290.611 173.843 290.591 174.024 290.549 174.149C290.549 174.233 290.444 174.539 290.235 175.069C290.026 175.598 289.81 176.218 289.587 176.929C289.364 177.64 289.239 178.26 289.211 178.789C289.211 179.166 289.246 179.472 289.315 179.709C289.497 180.308 289.936 180.608 290.632 180.608C291.148 180.608 291.629 180.371 292.075 179.897C292.52 179.423 292.869 178.873 293.12 178.246C293.371 177.619 293.573 177.041 293.726 176.511C293.879 175.982 293.956 175.598 293.956 175.361C293.956 175.041 293.9 174.762 293.789 174.525C293.677 174.288 293.552 174.107 293.412 173.982C293.273 173.856 293.148 173.731 293.036 173.606C292.925 173.48 292.869 173.327 292.869 173.146C292.869 172.839 293.001 172.554 293.266 172.289C293.531 172.024 293.816 171.892 294.123 171.892C294.388 171.892 294.625 172.017 294.834 172.268C295.043 172.519 295.154 172.923 295.168 173.48C295.168 173.856 295.085 174.435 294.917 175.215C294.75 175.995 294.492 176.866 294.144 177.828C293.796 178.789 293.301 179.619 292.66 180.315C292.019 181.012 291.28 181.367 290.444 181.381C289.552 181.381 288.842 181.151 288.312 180.692C287.797 180.246 287.539 179.584 287.539 178.706C287.539 178.274 287.595 177.828 287.706 177.368C287.817 176.908 288.103 176.093 288.563 174.922C288.87 174.031 289.023 173.459 289.023 173.208Z" fill="#D9EBFF"/>
</g>
<path d="M513.587 75.9823C513.587 75.843 513.615 75.6827 513.671 75.5016C513.726 75.3205 513.81 75.2299 513.922 75.2299C513.935 75.2299 514.437 75.1951 515.426 75.1254C516.416 75.0557 516.924 75.0139 516.952 75C517.119 75 517.203 75.0627 517.203 75.1881C517.203 75.3135 516.966 76.3097 516.492 78.1768C516.381 78.6505 516.262 79.1382 516.137 79.6398C516.012 80.1414 515.907 80.5176 515.823 80.7684L515.74 81.1655C515.74 81.2073 515.782 81.1864 515.865 81.1028C516.548 80.5454 517.252 80.2668 517.976 80.2668C518.84 80.2668 519.537 80.5872 520.066 81.2282C520.596 81.8691 520.867 82.6772 520.881 83.6526C520.881 85.1991 520.331 86.5994 519.23 87.8534C518.129 89.1074 516.945 89.7344 515.677 89.7344C514.98 89.7344 514.347 89.4697 513.775 88.9402C513.204 88.4108 512.911 87.5539 512.897 86.3695V86.1814C512.897 85.8888 512.953 85.4848 513.065 84.9692C513.176 84.4537 513.517 83.0813 514.089 80.852C514.785 78.1071 515.134 76.6511 515.134 76.4839C515.134 76.3167 514.869 76.2192 514.34 76.1913C514.27 76.1913 514.214 76.1913 514.172 76.1913H514.068C513.929 76.1913 513.838 76.1913 513.796 76.1913C513.754 76.1913 513.706 76.1704 513.65 76.1286C513.594 76.0868 513.573 76.038 513.587 75.9823ZM519.084 82.7121V82.5867C519.084 81.5556 518.659 81.0401 517.809 81.0401C517.572 81.0401 517.328 81.0958 517.077 81.2073C516.827 81.3187 516.597 81.465 516.388 81.6462C516.179 81.8273 515.998 81.9945 515.844 82.1478C515.691 82.301 515.566 82.4543 515.468 82.6076L515.343 82.7748L514.904 84.5722C514.597 85.7704 514.444 86.6203 514.444 87.1219C514.444 87.7907 514.611 88.2923 514.946 88.6267C515.169 88.8497 515.447 88.9611 515.782 88.9611C516.241 88.9611 516.708 88.7382 517.182 88.2923C517.53 87.9719 517.809 87.5817 518.018 87.1219C518.227 86.6621 518.457 85.9306 518.708 84.9275C518.958 83.9243 519.084 83.1858 519.084 82.7121Z" fill="#D9EBFF"/>
<path d="M361.897 204.936C361.897 203.528 362.427 202.191 363.486 200.923C364.545 199.655 365.736 199.014 367.06 199C367.77 199 368.397 199.341 368.941 200.024C369.164 199.606 369.484 199.397 369.902 199.397C370.083 199.397 370.243 199.453 370.383 199.564C370.522 199.676 370.592 199.815 370.592 199.982C370.592 200.163 370.334 201.278 369.819 203.326C369.303 205.374 369.038 206.531 369.024 206.796C369.024 207.144 369.073 207.374 369.171 207.485C369.268 207.597 369.414 207.66 369.61 207.673C369.735 207.66 369.874 207.597 370.028 207.485C370.32 207.207 370.606 206.538 370.884 205.479C370.968 205.2 371.038 205.054 371.093 205.04C371.121 205.026 371.191 205.019 371.302 205.019H371.386C371.651 205.019 371.783 205.082 371.783 205.207C371.783 205.291 371.748 205.479 371.679 205.772C371.609 206.064 371.47 206.44 371.261 206.9C371.052 207.36 370.829 207.708 370.592 207.945C370.411 208.126 370.188 208.273 369.923 208.384C369.812 208.412 369.644 208.426 369.421 208.426C368.948 208.426 368.551 208.321 368.23 208.112C367.91 207.903 367.701 207.687 367.603 207.464L367.478 207.151C367.464 207.137 367.436 207.144 367.394 207.172C367.366 207.2 367.338 207.228 367.311 207.255C366.488 208.036 365.652 208.426 364.803 208.426C364.036 208.426 363.36 208.147 362.775 207.59C362.19 207.033 361.897 206.148 361.897 204.936ZM368.544 201.362C368.544 201.278 368.509 201.125 368.439 200.902C368.369 200.679 368.209 200.435 367.958 200.17C367.708 199.906 367.387 199.766 366.997 199.752C366.509 199.752 366.043 199.968 365.597 200.4C365.151 200.832 364.803 201.397 364.552 202.093C364.148 203.194 363.862 204.336 363.695 205.521C363.695 205.563 363.695 205.639 363.695 205.751C363.695 205.862 363.688 205.946 363.674 206.001C363.674 206.628 363.799 207.06 364.05 207.297C364.301 207.534 364.601 207.66 364.949 207.673C365.478 207.673 366.001 207.444 366.516 206.984C367.032 206.524 367.338 206.169 367.436 205.918C367.464 205.862 367.652 205.117 368 203.682C368.349 202.246 368.53 201.473 368.544 201.362Z" fill="#D9EBFF"/>
<defs>
<clipPath id="clip0_49_936">
<rect width="39.906" height="13.419" fill="white" transform="translate(406.897 168)"/>
</clipPath>
<clipPath id="clip1_49_936">
<rect width="40.671" height="16.749" fill="white" transform="translate(254.897 170)"/>
</clipPath>
</defs>
</svg>
