<svg width="701" height="229" viewBox="0 0 701 229" fill="none" xmlns="http://www.w3.org/2000/svg">
<rect width="700" height="229" transform="translate(0.897461)" fill="#0A0D12"/>
<path opacity="0.2" d="M275.397 24H426.397M275.397 24L350.897 67.6667L426.397 24M275.397 24L199.897 99.6667L275.397 175.333M426.397 24L501.897 99.6667L426.397 175.333M426.397 175.333L350.897 219L275.397 175.333M426.397 175.333H275.397" stroke="#B3BFD8" stroke-width="2"/>
<path d="M350.897 67.6667L426.397 24L501.897 99.6667L426.397 175.333H275.397L199.897 99.6667L275.397 24L350.897 67.6667Z" stroke="#B3BFD8" stroke-width="2"/>
<circle cx="200.897" cy="100" r="5" fill="black" stroke="#D9EBFF" stroke-width="2"/>
<circle cx="275.897" cy="24" r="5" fill="black" stroke="#D9EBFF" stroke-width="2"/>
<circle cx="425.897" cy="24" r="5" fill="black" stroke="#D9EBFF" stroke-width="2"/>
<circle cx="350.897" cy="68" r="5" fill="black" stroke="#D9EBFF" stroke-width="2"/>
<circle cx="350.897" cy="219" r="5" fill="black" stroke="#D9EBFF" stroke-width="2"/>
<circle cx="426.897" cy="175" r="5" fill="black" stroke="#D9EBFF" stroke-width="2"/>
<circle cx="274.897" cy="175" r="5" fill="black" stroke="#D9EBFF" stroke-width="2"/>
<circle cx="501.897" cy="100" r="5" fill="black" stroke="#D9EBFF" stroke-width="2"/>
<path d="M169.897 97.241C169.911 97.1573 169.932 97.0459 169.96 96.9065C169.988 96.7672 170.072 96.5024 170.211 96.1122C170.35 95.7221 170.49 95.3946 170.629 95.1298C170.768 94.8651 170.998 94.6073 171.319 94.3564C171.639 94.1056 171.96 93.9872 172.28 94.0011C172.782 94.0011 173.2 94.1265 173.534 94.3773C173.869 94.6282 174.078 94.8651 174.162 95.088C174.245 95.311 174.287 95.4573 174.287 95.527C174.287 95.5548 174.294 95.5688 174.308 95.5688L174.538 95.3388C175.388 94.447 176.356 94.0011 177.443 94.0011C178.196 94.0011 178.802 94.1892 179.262 94.5655C179.722 94.9417 179.958 95.4921 179.972 96.2167C179.986 96.9414 179.722 98.0352 179.178 99.4984C178.635 100.962 178.37 101.846 178.384 102.153C178.384 102.515 178.502 102.696 178.739 102.696C178.823 102.696 178.885 102.689 178.927 102.676C179.331 102.606 179.694 102.341 180.014 101.881C180.335 101.421 180.579 100.864 180.746 100.209C180.774 100.098 180.913 100.042 181.164 100.042C181.442 100.042 181.582 100.098 181.582 100.209C181.582 100.223 181.554 100.328 181.498 100.523C181.387 100.927 181.233 101.324 181.038 101.714C180.843 102.104 180.523 102.494 180.077 102.885C179.631 103.275 179.15 103.463 178.635 103.449C177.98 103.449 177.506 103.261 177.213 102.885C176.921 102.508 176.774 102.118 176.774 101.714C176.774 101.449 177.025 100.613 177.527 99.2058C178.028 97.7983 178.286 96.7393 178.3 96.0286C178.3 95.2065 177.994 94.7954 177.38 94.7954H177.276C176.078 94.7954 175.067 95.4991 174.245 96.9065L174.099 97.1573L173.409 99.9583C172.949 101.784 172.684 102.766 172.615 102.905C172.434 103.282 172.134 103.47 171.716 103.47C171.535 103.47 171.388 103.428 171.277 103.344C171.166 103.261 171.089 103.177 171.047 103.094C171.005 103.01 170.991 102.94 171.005 102.885C171.005 102.703 171.27 101.568 171.8 99.4775C172.329 97.3873 172.608 96.2516 172.636 96.0704C172.65 96.0008 172.657 95.8405 172.657 95.5897C172.657 95.0462 172.489 94.7745 172.155 94.7745C171.625 94.7745 171.186 95.4712 170.838 96.8647C170.754 97.1434 170.713 97.2897 170.713 97.3037C170.685 97.3873 170.552 97.4291 170.316 97.4291H170.023C169.939 97.3455 169.897 97.2828 169.897 97.241Z" fill="#D9EBFF"/>
<path d="M183.424 97.7425C183.975 96.9445 184.729 96.5455 185.685 96.5455C186.158 96.5455 186.63 96.6736 187.103 96.9297C187.576 97.1859 187.96 97.6391 188.256 98.2893C188.621 99.107 188.803 100.23 188.803 101.659C188.803 103.186 188.591 104.353 188.167 105.161C187.97 105.575 187.699 105.905 187.355 106.151C187.01 106.397 186.709 106.55 186.453 106.609C186.197 106.668 185.946 106.703 185.699 106.713C185.443 106.713 185.187 106.683 184.931 106.624C184.675 106.565 184.374 106.407 184.03 106.151C183.685 105.895 183.414 105.565 183.217 105.161C182.793 104.353 182.581 103.186 182.581 101.659C182.581 99.9444 182.862 98.6391 183.424 97.7425ZM186.749 97.5652C186.453 97.2499 186.103 97.0923 185.699 97.0923C185.286 97.0923 184.931 97.2499 184.635 97.5652C184.389 97.8213 184.227 98.176 184.148 98.6292C184.069 99.0824 184.03 100.028 184.03 101.467C184.03 103.023 184.069 104.048 184.148 104.54C184.227 105.033 184.404 105.422 184.68 105.708C184.956 106.003 185.296 106.151 185.699 106.151C186.094 106.151 186.428 106.003 186.704 105.708C186.99 105.412 187.167 104.998 187.236 104.466C187.305 103.934 187.345 102.934 187.355 101.467C187.355 100.038 187.315 99.0972 187.236 98.644C187.158 98.1908 186.995 97.8312 186.749 97.5652Z" fill="#D9EBFF"/>
<path d="M261.897 186.241C261.911 186.157 261.932 186.046 261.96 185.907C261.988 185.767 262.072 185.502 262.211 185.112C262.35 184.722 262.49 184.395 262.629 184.13C262.768 183.865 262.998 183.607 263.319 183.356C263.639 183.106 263.96 182.987 264.28 183.001C264.782 183.001 265.2 183.127 265.534 183.377C265.869 183.628 266.078 183.865 266.162 184.088C266.245 184.311 266.287 184.457 266.287 184.527C266.287 184.555 266.294 184.569 266.308 184.569L266.538 184.339C267.388 183.447 268.356 183.001 269.443 183.001C270.196 183.001 270.802 183.189 271.262 183.565C271.722 183.942 271.958 184.492 271.972 185.217C271.986 185.941 271.722 187.035 271.178 188.498C270.635 189.962 270.37 190.846 270.384 191.153C270.384 191.515 270.502 191.696 270.739 191.696C270.823 191.696 270.885 191.689 270.927 191.676C271.331 191.606 271.694 191.341 272.014 190.881C272.335 190.421 272.579 189.864 272.746 189.209C272.774 189.098 272.913 189.042 273.164 189.042C273.442 189.042 273.582 189.098 273.582 189.209C273.582 189.223 273.554 189.328 273.498 189.523C273.387 189.927 273.233 190.324 273.038 190.714C272.843 191.104 272.523 191.494 272.077 191.885C271.631 192.275 271.15 192.463 270.635 192.449C269.98 192.449 269.506 192.261 269.213 191.885C268.921 191.508 268.774 191.118 268.774 190.714C268.774 190.449 269.025 189.613 269.527 188.206C270.028 186.798 270.286 185.739 270.3 185.029C270.3 184.206 269.994 183.795 269.38 183.795H269.276C268.078 183.795 267.067 184.499 266.245 185.907L266.099 186.157L265.409 188.958C264.949 190.784 264.684 191.766 264.615 191.905C264.434 192.282 264.134 192.47 263.716 192.47C263.535 192.47 263.388 192.428 263.277 192.344C263.166 192.261 263.089 192.177 263.047 192.094C263.005 192.01 262.991 191.94 263.005 191.885C263.005 191.703 263.27 190.568 263.8 188.477C264.329 186.387 264.608 185.252 264.636 185.07C264.65 185.001 264.657 184.841 264.657 184.59C264.657 184.046 264.489 183.774 264.155 183.774C263.625 183.774 263.186 184.471 262.838 185.865C262.754 186.143 262.713 186.29 262.713 186.304C262.685 186.387 262.552 186.429 262.316 186.429H262.023C261.939 186.345 261.897 186.283 261.897 186.241Z" fill="#D9EBFF"/>
<path d="M277.153 186.846L276.961 186.92C276.823 186.969 276.626 187.018 276.369 187.068C276.113 187.117 275.828 187.151 275.512 187.171H275.232V186.491H275.512C275.975 186.472 276.404 186.398 276.798 186.27C277.192 186.142 277.468 186.023 277.626 185.915C277.783 185.807 277.921 185.698 278.039 185.59C278.059 185.56 278.118 185.546 278.217 185.546C278.305 185.546 278.389 185.575 278.468 185.634V190.053L278.483 194.486C278.552 194.555 278.611 194.599 278.66 194.619C278.709 194.639 278.827 194.659 279.015 194.678C279.202 194.698 279.507 194.708 279.931 194.708H280.315V195.388H280.153C279.946 195.358 279.162 195.343 277.803 195.343C276.463 195.343 275.69 195.358 275.483 195.388H275.305V194.708H275.69C275.906 194.708 276.094 194.708 276.251 194.708C276.409 194.708 276.532 194.703 276.621 194.693C276.709 194.683 276.788 194.668 276.857 194.649C276.926 194.629 276.965 194.619 276.975 194.619C276.985 194.619 277.015 194.595 277.064 194.545C277.113 194.496 277.143 194.476 277.153 194.486V186.846Z" fill="#D9EBFF"/>
<path d="M420.897 187.241C420.911 187.157 420.932 187.046 420.96 186.907C420.988 186.767 421.072 186.502 421.211 186.112C421.35 185.722 421.49 185.395 421.629 185.13C421.768 184.865 421.998 184.607 422.319 184.356C422.639 184.106 422.96 183.987 423.28 184.001C423.782 184.001 424.2 184.127 424.534 184.377C424.869 184.628 425.078 184.865 425.162 185.088C425.245 185.311 425.287 185.457 425.287 185.527C425.287 185.555 425.294 185.569 425.308 185.569L425.538 185.339C426.388 184.447 427.356 184.001 428.443 184.001C429.196 184.001 429.802 184.189 430.262 184.565C430.722 184.942 430.958 185.492 430.972 186.217C430.986 186.941 430.722 188.035 430.178 189.498C429.635 190.962 429.37 191.846 429.384 192.153C429.384 192.515 429.502 192.696 429.739 192.696C429.823 192.696 429.885 192.689 429.927 192.676C430.331 192.606 430.694 192.341 431.014 191.881C431.335 191.421 431.579 190.864 431.746 190.209C431.774 190.098 431.913 190.042 432.164 190.042C432.442 190.042 432.582 190.098 432.582 190.209C432.582 190.223 432.554 190.328 432.498 190.523C432.387 190.927 432.233 191.324 432.038 191.714C431.843 192.104 431.523 192.494 431.077 192.885C430.631 193.275 430.15 193.463 429.635 193.449C428.98 193.449 428.506 193.261 428.213 192.885C427.921 192.508 427.774 192.118 427.774 191.714C427.774 191.449 428.025 190.613 428.527 189.206C429.028 187.798 429.286 186.739 429.3 186.029C429.3 185.206 428.994 184.795 428.38 184.795H428.276C427.078 184.795 426.067 185.499 425.245 186.907L425.099 187.157L424.409 189.958C423.949 191.784 423.684 192.766 423.615 192.905C423.434 193.282 423.134 193.47 422.716 193.47C422.535 193.47 422.388 193.428 422.277 193.344C422.166 193.261 422.089 193.177 422.047 193.094C422.005 193.01 421.991 192.94 422.005 192.885C422.005 192.703 422.27 191.568 422.8 189.477C423.329 187.387 423.608 186.252 423.636 186.07C423.65 186.001 423.657 185.841 423.657 185.59C423.657 185.046 423.489 184.774 423.155 184.774C422.625 184.774 422.186 185.471 421.838 186.865C421.754 187.143 421.713 187.29 421.713 187.304C421.685 187.387 421.552 187.429 421.316 187.429H421.023C420.939 187.345 420.897 187.283 420.897 187.241Z" fill="#D9EBFF"/>
<path d="M434.882 189.545C434.616 189.545 434.409 189.462 434.261 189.294C434.113 189.127 434.034 188.91 434.025 188.644C434.025 188.102 434.261 187.619 434.734 187.196C435.207 186.772 435.778 186.56 436.448 186.56C436.793 186.56 437.01 186.565 437.098 186.575C437.827 186.693 438.384 186.954 438.768 187.358C439.153 187.762 439.35 188.201 439.359 188.674C439.359 189.186 439.192 189.683 438.857 190.166C438.522 190.649 438.059 190.999 437.468 191.215L437.424 191.245C437.424 191.255 437.468 191.27 437.557 191.289C437.645 191.309 437.788 191.353 437.985 191.422C438.182 191.491 438.369 191.595 438.547 191.733C439.355 192.255 439.758 192.944 439.758 193.801C439.758 194.58 439.453 195.26 438.842 195.841C438.231 196.422 437.458 196.713 436.522 196.713C435.734 196.713 435.054 196.501 434.483 196.077C433.911 195.654 433.626 195.117 433.626 194.466C433.626 194.191 433.714 193.969 433.892 193.801C434.069 193.634 434.291 193.545 434.557 193.535C434.832 193.535 435.059 193.624 435.236 193.801C435.414 193.979 435.502 194.2 435.502 194.466C435.502 194.575 435.488 194.673 435.458 194.762C435.429 194.851 435.394 194.93 435.355 194.998C435.315 195.067 435.261 195.127 435.192 195.176C435.123 195.225 435.064 195.264 435.015 195.294C434.966 195.324 434.916 195.343 434.867 195.353C434.818 195.363 434.778 195.378 434.749 195.397L434.69 195.412C435.192 195.856 435.803 196.077 436.522 196.077C437.064 196.077 437.473 195.816 437.749 195.294C437.916 194.969 438 194.471 438 193.801V193.506C438 192.57 437.685 191.944 437.054 191.629C436.906 191.57 436.606 191.536 436.153 191.526L435.532 191.511L435.488 191.481C435.468 191.452 435.458 191.373 435.458 191.245C435.458 191.068 435.497 190.979 435.576 190.979C435.852 190.979 436.138 190.954 436.433 190.905C436.768 190.856 437.074 190.649 437.35 190.284C437.626 189.92 437.763 189.368 437.763 188.629V188.511C437.763 187.949 437.591 187.56 437.246 187.344C437.029 187.206 436.798 187.137 436.552 187.137C436.236 187.137 435.946 187.191 435.68 187.299C435.414 187.408 435.227 187.521 435.118 187.639C435.01 187.757 434.956 187.816 434.956 187.816H435C435.03 187.826 435.069 187.836 435.118 187.846C435.167 187.856 435.217 187.88 435.266 187.92C435.315 187.959 435.374 187.994 435.443 188.023C435.512 188.053 435.562 188.107 435.591 188.186C435.621 188.265 435.66 188.339 435.709 188.408C435.759 188.476 435.773 188.575 435.754 188.703C435.754 188.92 435.685 189.112 435.547 189.279C435.409 189.447 435.187 189.536 434.882 189.545Z" fill="#D9EBFF"/>
<path d="M511.897 98.241C511.911 98.1573 511.932 98.0459 511.96 97.9065C511.988 97.7672 512.072 97.5024 512.211 97.1122C512.35 96.7221 512.49 96.3946 512.629 96.1298C512.768 95.8651 512.998 95.6073 513.319 95.3564C513.639 95.1056 513.96 94.9872 514.28 95.0011C514.782 95.0011 515.2 95.1265 515.534 95.3773C515.869 95.6282 516.078 95.8651 516.162 96.088C516.245 96.311 516.287 96.4573 516.287 96.527C516.287 96.5548 516.294 96.5688 516.308 96.5688L516.538 96.3388C517.388 95.447 518.356 95.0011 519.443 95.0011C520.196 95.0011 520.802 95.1892 521.262 95.5655C521.722 95.9417 521.958 96.4921 521.972 97.2167C521.986 97.9414 521.722 99.0352 521.178 100.498C520.635 101.962 520.37 102.846 520.384 103.153C520.384 103.515 520.502 103.696 520.739 103.696C520.823 103.696 520.885 103.689 520.927 103.676C521.331 103.606 521.694 103.341 522.014 102.881C522.335 102.421 522.579 101.864 522.746 101.209C522.774 101.098 522.913 101.042 523.164 101.042C523.442 101.042 523.582 101.098 523.582 101.209C523.582 101.223 523.554 101.328 523.498 101.523C523.387 101.927 523.233 102.324 523.038 102.714C522.843 103.104 522.523 103.494 522.077 103.885C521.631 104.275 521.15 104.463 520.635 104.449C519.98 104.449 519.506 104.261 519.213 103.885C518.921 103.508 518.774 103.118 518.774 102.714C518.774 102.449 519.025 101.613 519.527 100.206C520.028 98.7983 520.286 97.7393 520.3 97.0286C520.3 96.2065 519.994 95.7954 519.38 95.7954H519.276C518.078 95.7954 517.067 96.4991 516.245 97.9065L516.099 98.1573L515.409 100.958C514.949 102.784 514.684 103.766 514.615 103.905C514.434 104.282 514.134 104.47 513.716 104.47C513.535 104.47 513.388 104.428 513.277 104.344C513.166 104.261 513.089 104.177 513.047 104.094C513.005 104.01 512.991 103.94 513.005 103.885C513.005 103.703 513.27 102.568 513.8 100.477C514.329 98.3873 514.608 97.2516 514.636 97.0704C514.65 97.0008 514.657 96.8405 514.657 96.5897C514.657 96.0462 514.489 95.7745 514.155 95.7745C513.625 95.7745 513.186 96.4712 512.838 97.8647C512.754 98.1434 512.713 98.2897 512.713 98.3037C512.685 98.3873 512.552 98.4291 512.316 98.4291H512.023C511.939 98.3455 511.897 98.2828 511.897 98.241Z" fill="#D9EBFF"/>
<path d="M530.832 107.388C530.655 107.358 530.02 107.343 528.926 107.343C527.783 107.343 527.123 107.358 526.946 107.388H526.813V106.708H527.271C527.468 106.708 527.601 106.708 527.67 106.708C527.739 106.708 527.823 106.698 527.921 106.678C528.02 106.659 528.089 106.634 528.128 106.604C528.167 106.575 528.202 106.535 528.231 106.486C528.241 106.466 528.246 106.2 528.246 105.688V104.949H524.419V104.269L526.65 100.856C528.158 98.5701 528.921 97.4224 528.941 97.4125C528.96 97.3928 529.064 97.383 529.251 97.383H529.517L529.606 97.4716V104.269H530.965V104.949H529.606V105.703C529.606 106.107 529.606 106.343 529.606 106.412C529.606 106.481 529.635 106.54 529.694 106.59C529.773 106.659 530.054 106.698 530.537 106.708H530.965V107.388H530.832ZM528.335 104.269V99.3336L525.099 104.255L526.709 104.269H528.335Z" fill="#D9EBFF"/>
<path d="M419.897 9.24095C419.911 9.15734 419.932 9.04587 419.96 8.90652C419.988 8.76717 420.072 8.50241 420.211 8.11223C420.35 7.72205 420.49 7.39459 420.629 7.12982C420.768 6.86506 420.998 6.60727 421.319 6.35644C421.639 6.10561 421.96 5.98717 422.28 6.0011C422.782 6.0011 423.2 6.12651 423.534 6.37734C423.869 6.62817 424.078 6.86506 424.162 7.08802C424.245 7.31098 424.287 7.45729 424.287 7.52697C424.287 7.55484 424.294 7.56877 424.308 7.56877L424.538 7.33885C425.388 6.44702 426.356 6.0011 427.443 6.0011C428.196 6.0011 428.802 6.18922 429.262 6.56546C429.722 6.9417 429.958 7.49213 429.972 8.21674C429.986 8.94135 429.722 10.0352 429.178 11.4984C428.635 12.9616 428.37 13.8464 428.384 14.153C428.384 14.5153 428.502 14.6964 428.739 14.6964C428.823 14.6964 428.885 14.6895 428.927 14.6755C429.331 14.6059 429.694 14.3411 430.014 13.8813C430.335 13.4214 430.579 12.864 430.746 12.2091C430.774 12.0976 430.913 12.0419 431.164 12.0419C431.442 12.0419 431.582 12.0976 431.582 12.2091C431.582 12.223 431.554 12.3275 431.498 12.5226C431.387 12.9267 431.233 13.3239 431.038 13.714C430.843 14.1042 430.523 14.4944 430.077 14.8846C429.631 15.2747 429.15 15.4629 428.635 15.4489C427.98 15.4489 427.506 15.2608 427.213 14.8846C426.921 14.5083 426.774 14.1182 426.774 13.714C426.774 13.4493 427.025 12.6132 427.527 11.2058C428.028 9.79835 428.286 8.7393 428.3 8.02862C428.3 7.20647 427.994 6.79539 427.38 6.79539H427.276C426.078 6.79539 425.067 7.4991 424.245 8.90652L424.099 9.15734L423.409 11.9583C422.949 13.7837 422.684 14.7661 422.615 14.9055C422.434 15.2817 422.134 15.4698 421.716 15.4698C421.535 15.4698 421.388 15.428 421.277 15.3444C421.166 15.2608 421.089 15.1772 421.047 15.0936C421.005 15.01 420.991 14.9403 421.005 14.8846C421.005 14.7034 421.27 13.5677 421.8 11.4775C422.329 9.38727 422.608 8.25158 422.636 8.07043C422.65 8.00075 422.657 7.8405 422.657 7.58967C422.657 7.04621 422.489 6.77448 422.155 6.77448C421.625 6.77448 421.186 7.47123 420.838 8.86471C420.754 9.14341 420.713 9.28973 420.713 9.30366C420.685 9.38727 420.552 9.42907 420.316 9.42907H420.023C419.939 9.34547 419.897 9.28276 419.897 9.24095Z" fill="#D9EBFF"/>
<path d="M434.429 16.0675C434.429 16.3039 434.35 16.501 434.192 16.6586C434.034 16.8162 433.842 16.895 433.616 16.895H433.512C433.965 17.6733 434.566 18.0625 435.315 18.0625C436.005 18.0625 436.507 17.7669 436.823 17.1758C437.01 16.8507 437.103 16.2202 437.103 15.2842C437.103 14.2695 436.97 13.5848 436.704 13.2301C436.448 12.905 436.162 12.7424 435.847 12.7424H435.759C434.99 12.7424 434.409 13.0774 434.015 13.7473C433.975 13.8163 433.941 13.8557 433.911 13.8656C433.882 13.8754 433.808 13.8853 433.69 13.8951C433.522 13.8951 433.429 13.8656 433.409 13.8065C433.389 13.767 433.379 12.905 433.379 11.2203V9.31396C433.379 8.82137 433.404 8.57507 433.453 8.57507C433.473 8.55537 433.493 8.54551 433.512 8.54551C433.522 8.54551 433.626 8.58492 433.823 8.66374C434.02 8.74255 434.291 8.82137 434.635 8.90018C434.98 8.979 435.35 9.01841 435.744 9.01841C436.443 9.01841 437.113 8.88048 437.754 8.60462C437.832 8.56522 437.896 8.54551 437.946 8.54551C438.024 8.54551 438.064 8.63418 438.064 8.81152V9.00363C437.256 9.95927 436.246 10.4371 435.034 10.4371C434.729 10.4371 434.453 10.4075 434.207 10.3484L434.059 10.3189V12.8607C434.246 12.7227 434.394 12.6144 434.502 12.5356C434.611 12.4567 434.788 12.3779 435.034 12.2991C435.281 12.2203 435.532 12.1809 435.788 12.1809C436.586 12.1809 437.261 12.5011 437.813 13.1414C438.364 13.7818 438.64 14.5404 438.64 15.4172C438.64 16.3236 438.325 17.097 437.694 17.7374C437.064 18.3778 436.295 18.7029 435.389 18.7127C434.591 18.7127 433.951 18.4467 433.468 17.9147C432.985 17.3827 432.744 16.7817 432.744 16.1118C432.744 15.8754 432.798 15.6882 432.906 15.5502C433.015 15.4123 433.128 15.3237 433.246 15.2842C433.365 15.2448 433.478 15.2251 433.586 15.2251C433.832 15.2251 434.034 15.3089 434.192 15.4764C434.35 15.6438 434.429 15.8409 434.429 16.0675Z" fill="#D9EBFF"/>
<path d="M265.897 6.24095C265.911 6.15734 265.932 6.04587 265.96 5.90652C265.988 5.76717 266.072 5.50241 266.211 5.11223C266.35 4.72205 266.49 4.39459 266.629 4.12982C266.768 3.86506 266.998 3.60727 267.319 3.35644C267.639 3.10561 267.96 2.98717 268.28 3.0011C268.782 3.0011 269.2 3.12651 269.534 3.37734C269.869 3.62817 270.078 3.86506 270.162 4.08802C270.245 4.31098 270.287 4.45729 270.287 4.52697C270.287 4.55484 270.294 4.56877 270.308 4.56877L270.538 4.33885C271.388 3.44702 272.356 3.0011 273.443 3.0011C274.196 3.0011 274.802 3.18922 275.262 3.56546C275.722 3.9417 275.958 4.49213 275.972 5.21674C275.986 5.94135 275.722 7.03524 275.178 8.4984C274.635 9.96156 274.37 10.8464 274.384 11.153C274.384 11.5153 274.502 11.6964 274.739 11.6964C274.823 11.6964 274.885 11.6895 274.927 11.6755C275.331 11.6059 275.694 11.3411 276.014 10.8813C276.335 10.4214 276.579 9.86402 276.746 9.20908C276.774 9.0976 276.913 9.04186 277.164 9.04186C277.442 9.04186 277.582 9.0976 277.582 9.20908C277.582 9.22301 277.554 9.32752 277.498 9.52261C277.387 9.92672 277.233 10.3239 277.038 10.714C276.843 11.1042 276.523 11.4944 276.077 11.8846C275.631 12.2747 275.15 12.4629 274.635 12.4489C273.98 12.4489 273.506 12.2608 273.213 11.8846C272.921 11.5083 272.774 11.1182 272.774 10.714C272.774 10.4493 273.025 9.61319 273.527 8.20577C274.028 6.79835 274.286 5.7393 274.3 5.02862C274.3 4.20647 273.994 3.79539 273.38 3.79539H273.276C272.078 3.79539 271.067 4.4991 270.245 5.90652L270.099 6.15734L269.409 8.95825C268.949 10.7837 268.684 11.7661 268.615 11.9055C268.434 12.2817 268.134 12.4698 267.716 12.4698C267.535 12.4698 267.388 12.428 267.277 12.3444C267.166 12.2608 267.089 12.1772 267.047 12.0936C267.005 12.01 266.991 11.9403 267.005 11.8846C267.005 11.7034 267.27 10.5677 267.8 8.4775C268.329 6.38727 268.608 5.25158 268.636 5.07043C268.65 5.00075 268.657 4.8405 268.657 4.58967C268.657 4.04621 268.489 3.77448 268.155 3.77448C267.625 3.77448 267.186 4.47123 266.838 5.86471C266.754 6.14341 266.713 6.28973 266.713 6.30366C266.685 6.38727 266.552 6.42907 266.316 6.42907H266.023C265.939 6.34547 265.897 6.28276 265.897 6.24095Z" fill="#D9EBFF"/>
<path d="M278.818 8.61932C278.828 8.59962 278.911 8.06268 279.069 7.00853L279.305 5.42729C279.305 5.40759 279.404 5.39773 279.601 5.39773H279.897V5.45685C279.897 5.55537 279.97 5.63911 280.118 5.70807C280.266 5.77703 280.522 5.82137 280.887 5.84107C281.251 5.86078 282.084 5.87063 283.384 5.87063H285.172V6.44697L284.167 7.82131C284.079 7.93954 283.931 8.13657 283.724 8.41243C283.517 8.68828 283.384 8.87054 283.325 8.95921C283.266 9.04788 283.162 9.20551 283.015 9.4321C282.867 9.6587 282.768 9.83603 282.719 9.96411C282.67 10.0922 282.601 10.2744 282.512 10.5109C282.424 10.7473 282.36 10.9739 282.32 11.1907C282.281 11.4074 282.241 11.6734 282.202 11.9887C282.162 12.3039 282.133 12.6389 282.113 12.9936C282.094 13.3483 282.079 13.7522 282.069 14.2054C282.069 14.3433 282.069 14.4812 282.069 14.6192C282.069 14.7571 282.064 14.8753 282.054 14.9738V15.1068C282.015 15.2743 281.921 15.4172 281.773 15.5354C281.626 15.6536 281.458 15.7127 281.271 15.7127C281.163 15.7127 281.059 15.6979 280.961 15.6684C280.862 15.6388 280.759 15.5452 280.65 15.3876C280.542 15.23 280.488 15.0329 280.488 14.7965C280.488 13.2399 280.965 11.6242 281.921 9.94933C282.118 9.63407 282.532 9.03803 283.162 8.1612L283.842 7.2302H282.468C280.754 7.2302 279.852 7.25975 279.764 7.31886C279.704 7.34842 279.65 7.46664 279.601 7.67353C279.552 7.88042 279.502 8.09224 279.453 8.30898L279.409 8.61932V8.66365H278.818V8.61932Z" fill="#D9EBFF"/>
<path d="M341.897 84.241C341.911 84.1573 341.932 84.0459 341.96 83.9065C341.988 83.7672 342.072 83.5024 342.211 83.1122C342.35 82.7221 342.49 82.3946 342.629 82.1298C342.768 81.8651 342.998 81.6073 343.319 81.3564C343.639 81.1056 343.96 80.9872 344.28 81.0011C344.782 81.0011 345.2 81.1265 345.534 81.3773C345.869 81.6282 346.078 81.8651 346.162 82.088C346.245 82.311 346.287 82.4573 346.287 82.527C346.287 82.5548 346.294 82.5688 346.308 82.5688L346.538 82.3388C347.388 81.447 348.356 81.0011 349.443 81.0011C350.196 81.0011 350.802 81.1892 351.262 81.5655C351.722 81.9417 351.958 82.4921 351.972 83.2167C351.986 83.9414 351.722 85.0352 351.178 86.4984C350.635 87.9616 350.37 88.8464 350.384 89.153C350.384 89.5153 350.502 89.6964 350.739 89.6964C350.823 89.6964 350.885 89.6895 350.927 89.6755C351.331 89.6059 351.694 89.3411 352.014 88.8813C352.335 88.4214 352.579 87.864 352.746 87.2091C352.774 87.0976 352.913 87.0419 353.164 87.0419C353.442 87.0419 353.582 87.0976 353.582 87.2091C353.582 87.223 353.554 87.3275 353.498 87.5226C353.387 87.9267 353.233 88.3239 353.038 88.714C352.843 89.1042 352.523 89.4944 352.077 89.8846C351.631 90.2747 351.15 90.4629 350.635 90.4489C349.98 90.4489 349.506 90.2608 349.213 89.8846C348.921 89.5083 348.774 89.1182 348.774 88.714C348.774 88.4493 349.025 87.6132 349.527 86.2058C350.028 84.7983 350.286 83.7393 350.3 83.0286C350.3 82.2065 349.994 81.7954 349.38 81.7954H349.276C348.078 81.7954 347.067 82.4991 346.245 83.9065L346.099 84.1573L345.409 86.9583C344.949 88.7837 344.684 89.7661 344.615 89.9055C344.434 90.2817 344.134 90.4698 343.716 90.4698C343.535 90.4698 343.388 90.428 343.277 90.3444C343.166 90.2608 343.089 90.1772 343.047 90.0936C343.005 90.01 342.991 89.9403 343.005 89.8846C343.005 89.7034 343.27 88.5677 343.8 86.4775C344.329 84.3873 344.608 83.2516 344.636 83.0704C344.65 83.0008 344.657 82.8405 344.657 82.5897C344.657 82.0462 344.489 81.7745 344.155 81.7745C343.625 81.7745 343.186 82.4712 342.838 83.8647C342.754 84.1434 342.713 84.2897 342.713 84.3037C342.685 84.3873 342.552 84.4291 342.316 84.4291H342.023C341.939 84.3455 341.897 84.2828 341.897 84.241Z" fill="#D9EBFF"/>
<path d="M354.626 88.7621C354.626 87.1563 355.025 85.8853 355.823 84.9494C356.621 84.0135 357.507 83.5455 358.483 83.5455C359.162 83.5455 359.65 83.7228 359.946 84.0775C360.241 84.4322 360.389 84.8263 360.389 85.2598C360.389 85.506 360.32 85.7031 360.182 85.8509C360.044 85.9986 359.852 86.0725 359.606 86.0725C359.379 86.0725 359.192 86.0036 359.044 85.8656C358.896 85.7277 358.823 85.5356 358.823 85.2893C358.823 84.8558 359.054 84.5947 359.517 84.5061C359.3 84.2893 358.995 84.1662 358.601 84.1366C357.901 84.1366 357.325 84.4322 356.872 85.0233C356.409 85.6735 356.177 86.6686 356.177 88.0084L356.192 88.0676C356.241 88.0084 356.281 87.9444 356.31 87.8754C356.714 87.2843 357.241 86.9888 357.892 86.9888H357.951C358.404 86.9888 358.803 87.0824 359.148 87.2695C359.384 87.4075 359.621 87.6045 359.857 87.8607C360.093 88.1168 360.286 88.3976 360.433 88.703C360.64 89.1858 360.744 89.7128 360.744 90.2842V90.5502C360.744 90.7768 360.719 90.9887 360.67 91.1857C360.561 91.767 360.246 92.3334 359.724 92.8852C359.202 93.4369 358.542 93.7127 357.744 93.7127C357.468 93.7127 357.202 93.6733 356.946 93.5945C356.69 93.5157 356.414 93.3679 356.118 93.1512C355.823 92.9344 355.571 92.6438 355.365 92.2793C355.158 91.9147 354.98 91.4369 354.833 90.8458C354.685 90.2547 354.616 89.5601 354.626 88.7621ZM357.803 87.5208C357.507 87.5208 357.251 87.6045 357.034 87.772C356.818 87.9395 356.65 88.1611 356.532 88.437C356.414 88.7129 356.33 88.9936 356.281 89.2793C356.232 89.5651 356.202 89.8705 356.192 90.1956C356.192 91.0133 356.251 91.5995 356.369 91.9541C356.488 92.3088 356.675 92.5945 356.931 92.8113C357.167 92.9886 357.429 93.0773 357.714 93.0773C358.217 93.0773 358.601 92.8901 358.867 92.5157C358.995 92.3384 359.084 92.1167 359.133 91.8507C359.182 91.5847 359.207 91.0675 359.207 90.299C359.207 89.5109 359.182 88.9838 359.133 88.7178C359.084 88.4518 358.995 88.2301 358.867 88.0528C358.601 87.6981 358.246 87.5208 357.803 87.5208Z" fill="#D9EBFF"/>
</svg>
