<svg width="700" height="246" viewBox="0 0 700 246" fill="none" xmlns="http://www.w3.org/2000/svg">
<rect width="700" height="246" fill="#0A0D12"/>
<path d="M350 69.6667L425.5 26L501 101.667L425.5 177.333H274.5L199 101.667L274.5 26L350 69.6667Z" stroke="#B3BFD8" stroke-width="2"/>
<circle cx="200" cy="102" r="5" fill="black" stroke="#D9EBFF" stroke-width="2"/>
<circle cx="275" cy="26" r="5" fill="black" stroke="#D9EBFF" stroke-width="2"/>
<circle cx="425" cy="26" r="5" fill="black" stroke="#D9EBFF" stroke-width="2"/>
<circle cx="350" cy="70" r="5" fill="black" stroke="#D9EBFF" stroke-width="2"/>
<circle cx="426" cy="177" r="5" fill="black" stroke="#D9EBFF" stroke-width="2"/>
<circle cx="274" cy="177" r="5" fill="black" stroke="#D9EBFF" stroke-width="2"/>
<circle cx="501" cy="102" r="5" fill="black" stroke="#D9EBFF" stroke-width="2"/>
<path d="M169 99.241C169.014 99.1573 169.035 99.0459 169.063 98.9065C169.091 98.7672 169.174 98.5024 169.314 98.1122C169.453 97.7221 169.592 97.3946 169.732 97.1298C169.871 96.8651 170.101 96.6073 170.421 96.3564C170.742 96.1056 171.062 95.9872 171.383 96.0011C171.885 96.0011 172.303 96.1265 172.637 96.3773C172.971 96.6282 173.18 96.8651 173.264 97.088C173.348 97.311 173.389 97.4573 173.389 97.527C173.389 97.5548 173.396 97.5688 173.41 97.5688L173.64 97.3388C174.49 96.447 175.459 96.0011 176.546 96.0011C177.298 96.0011 177.904 96.1892 178.364 96.5655C178.824 96.9417 179.061 97.4921 179.075 98.2167C179.089 98.9414 178.824 100.035 178.281 101.498C177.737 102.962 177.472 103.846 177.486 104.153C177.486 104.515 177.605 104.696 177.842 104.696C177.925 104.696 177.988 104.689 178.03 104.676C178.434 104.606 178.796 104.341 179.117 103.881C179.437 103.421 179.681 102.864 179.848 102.209C179.876 102.098 180.016 102.042 180.266 102.042C180.545 102.042 180.684 102.098 180.684 102.209C180.684 102.223 180.657 102.328 180.601 102.523C180.489 102.927 180.336 103.324 180.141 103.714C179.946 104.104 179.625 104.494 179.179 104.885C178.733 105.275 178.253 105.463 177.737 105.449C177.082 105.449 176.608 105.261 176.316 104.885C176.023 104.508 175.877 104.118 175.877 103.714C175.877 103.449 176.128 102.613 176.629 101.206C177.131 99.7983 177.389 98.7393 177.403 98.0286C177.403 97.2065 177.096 96.7954 176.483 96.7954H176.379C175.18 96.7954 174.17 97.4991 173.348 98.9065L173.201 99.1573L172.512 101.958C172.052 103.784 171.787 104.766 171.717 104.905C171.536 105.282 171.237 105.47 170.818 105.47C170.637 105.47 170.491 105.428 170.38 105.344C170.268 105.261 170.191 105.177 170.15 105.094C170.108 105.01 170.094 104.94 170.108 104.885C170.108 104.703 170.373 103.568 170.902 101.477C171.432 99.3873 171.71 98.2516 171.738 98.0704C171.752 98.0008 171.759 97.8405 171.759 97.5897C171.759 97.0462 171.592 96.7745 171.257 96.7745C170.728 96.7745 170.289 97.4712 169.941 98.8647C169.857 99.1434 169.815 99.2897 169.815 99.3037C169.787 99.3873 169.655 99.4291 169.418 99.4291H169.125C169.042 99.3455 169 99.2828 169 99.241Z" fill="#D9EBFF"/>
<path d="M182.526 99.7425C183.078 98.9445 183.832 98.5455 184.787 98.5455C185.26 98.5455 185.733 98.6736 186.206 98.9297C186.679 99.1859 187.063 99.6391 187.359 100.289C187.723 101.107 187.905 102.23 187.905 103.659C187.905 105.186 187.694 106.353 187.27 107.161C187.073 107.575 186.802 107.905 186.457 108.151C186.112 108.397 185.812 108.55 185.556 108.609C185.3 108.668 185.048 108.703 184.802 108.713C184.546 108.713 184.29 108.683 184.034 108.624C183.777 108.565 183.477 108.407 183.132 108.151C182.787 107.895 182.516 107.565 182.319 107.161C181.896 106.353 181.684 105.186 181.684 103.659C181.684 101.944 181.965 100.639 182.526 99.7425ZM185.851 99.5652C185.556 99.2499 185.206 99.0923 184.802 99.0923C184.388 99.0923 184.034 99.2499 183.738 99.5652C183.492 99.8213 183.329 100.176 183.25 100.629C183.171 101.082 183.132 102.028 183.132 103.467C183.132 105.023 183.171 106.048 183.25 106.54C183.329 107.033 183.506 107.422 183.782 107.708C184.058 108.003 184.398 108.151 184.802 108.151C185.196 108.151 185.531 108.003 185.807 107.708C186.093 107.412 186.27 106.998 186.339 106.466C186.408 105.934 186.447 104.934 186.457 103.467C186.457 102.038 186.418 101.097 186.339 100.644C186.26 100.191 186.098 99.8312 185.851 99.5652Z" fill="#D9EBFF"/>
<path d="M261 188.241C261.014 188.157 261.035 188.046 261.063 187.907C261.091 187.767 261.174 187.502 261.314 187.112C261.453 186.722 261.592 186.395 261.732 186.13C261.871 185.865 262.101 185.607 262.421 185.356C262.742 185.106 263.062 184.987 263.383 185.001C263.885 185.001 264.303 185.127 264.637 185.377C264.971 185.628 265.18 185.865 265.264 186.088C265.348 186.311 265.389 186.457 265.389 186.527C265.389 186.555 265.396 186.569 265.41 186.569L265.64 186.339C266.49 185.447 267.459 185.001 268.546 185.001C269.298 185.001 269.904 185.189 270.364 185.565C270.824 185.942 271.061 186.492 271.075 187.217C271.089 187.941 270.824 189.035 270.281 190.498C269.737 191.962 269.472 192.846 269.486 193.153C269.486 193.515 269.605 193.696 269.842 193.696C269.925 193.696 269.988 193.689 270.03 193.676C270.434 193.606 270.796 193.341 271.117 192.881C271.437 192.421 271.681 191.864 271.848 191.209C271.876 191.098 272.016 191.042 272.266 191.042C272.545 191.042 272.684 191.098 272.684 191.209C272.684 191.223 272.657 191.328 272.601 191.523C272.489 191.927 272.336 192.324 272.141 192.714C271.946 193.104 271.625 193.494 271.179 193.885C270.733 194.275 270.253 194.463 269.737 194.449C269.082 194.449 268.608 194.261 268.316 193.885C268.023 193.508 267.877 193.118 267.877 192.714C267.877 192.449 268.128 191.613 268.629 190.206C269.131 188.798 269.389 187.739 269.403 187.029C269.403 186.206 269.096 185.795 268.483 185.795H268.379C267.18 185.795 266.17 186.499 265.348 187.907L265.201 188.157L264.512 190.958C264.052 192.784 263.787 193.766 263.717 193.905C263.536 194.282 263.237 194.47 262.818 194.47C262.637 194.47 262.491 194.428 262.38 194.344C262.268 194.261 262.191 194.177 262.15 194.094C262.108 194.01 262.094 193.94 262.108 193.885C262.108 193.703 262.373 192.568 262.902 190.477C263.432 188.387 263.71 187.252 263.738 187.07C263.752 187.001 263.759 186.841 263.759 186.59C263.759 186.046 263.592 185.774 263.257 185.774C262.728 185.774 262.289 186.471 261.941 187.865C261.857 188.143 261.815 188.29 261.815 188.304C261.787 188.387 261.655 188.429 261.418 188.429H261.125C261.042 188.345 261 188.283 261 188.241Z" fill="#D9EBFF"/>
<path d="M276.255 188.846L276.063 188.92C275.925 188.969 275.728 189.018 275.472 189.068C275.216 189.117 274.93 189.151 274.615 189.171H274.334V188.491H274.615C275.078 188.472 275.506 188.398 275.901 188.27C276.295 188.142 276.57 188.023 276.728 187.915C276.886 187.807 277.024 187.698 277.142 187.59C277.162 187.56 277.221 187.546 277.319 187.546C277.408 187.546 277.492 187.575 277.57 187.634V192.053L277.585 196.486C277.654 196.555 277.713 196.599 277.763 196.619C277.812 196.639 277.93 196.659 278.117 196.678C278.304 196.698 278.61 196.708 279.033 196.708H279.418V197.388H279.255C279.048 197.358 278.265 197.343 276.905 197.343C275.566 197.343 274.792 197.358 274.585 197.388H274.408V196.708H274.792C275.009 196.708 275.196 196.708 275.354 196.708C275.511 196.708 275.635 196.703 275.723 196.693C275.812 196.683 275.891 196.668 275.96 196.649C276.029 196.629 276.068 196.619 276.078 196.619C276.088 196.619 276.117 196.595 276.167 196.545C276.216 196.496 276.245 196.476 276.255 196.486V188.846Z" fill="#D9EBFF"/>
<path d="M420 189.241C420.014 189.157 420.035 189.046 420.063 188.907C420.091 188.767 420.174 188.502 420.314 188.112C420.453 187.722 420.592 187.395 420.732 187.13C420.871 186.865 421.101 186.607 421.421 186.356C421.742 186.106 422.062 185.987 422.383 186.001C422.885 186.001 423.303 186.127 423.637 186.377C423.971 186.628 424.18 186.865 424.264 187.088C424.348 187.311 424.389 187.457 424.389 187.527C424.389 187.555 424.396 187.569 424.41 187.569L424.64 187.339C425.49 186.447 426.459 186.001 427.546 186.001C428.298 186.001 428.904 186.189 429.364 186.565C429.824 186.942 430.061 187.492 430.075 188.217C430.089 188.941 429.824 190.035 429.281 191.498C428.737 192.962 428.472 193.846 428.486 194.153C428.486 194.515 428.605 194.696 428.842 194.696C428.925 194.696 428.988 194.689 429.03 194.676C429.434 194.606 429.796 194.341 430.117 193.881C430.437 193.421 430.681 192.864 430.848 192.209C430.876 192.098 431.016 192.042 431.266 192.042C431.545 192.042 431.684 192.098 431.684 192.209C431.684 192.223 431.657 192.328 431.601 192.523C431.489 192.927 431.336 193.324 431.141 193.714C430.946 194.104 430.625 194.494 430.179 194.885C429.733 195.275 429.253 195.463 428.737 195.449C428.082 195.449 427.608 195.261 427.316 194.885C427.023 194.508 426.877 194.118 426.877 193.714C426.877 193.449 427.128 192.613 427.629 191.206C428.131 189.798 428.389 188.739 428.403 188.029C428.403 187.206 428.096 186.795 427.483 186.795H427.379C426.18 186.795 425.17 187.499 424.348 188.907L424.201 189.157L423.512 191.958C423.052 193.784 422.787 194.766 422.717 194.905C422.536 195.282 422.237 195.47 421.818 195.47C421.637 195.47 421.491 195.428 421.38 195.344C421.268 195.261 421.191 195.177 421.15 195.094C421.108 195.01 421.094 194.94 421.108 194.885C421.108 194.703 421.373 193.568 421.902 191.477C422.432 189.387 422.71 188.252 422.738 188.07C422.752 188.001 422.759 187.841 422.759 187.59C422.759 187.046 422.592 186.774 422.257 186.774C421.728 186.774 421.289 187.471 420.941 188.865C420.857 189.143 420.815 189.29 420.815 189.304C420.787 189.387 420.655 189.429 420.418 189.429H420.125C420.042 189.345 420 189.283 420 189.241Z" fill="#D9EBFF"/>
<path d="M433.984 191.545C433.718 191.545 433.511 191.462 433.364 191.294C433.216 191.127 433.137 190.91 433.127 190.644C433.127 190.102 433.364 189.619 433.837 189.196C434.309 188.772 434.881 188.56 435.551 188.56C435.896 188.56 436.112 188.565 436.201 188.575C436.93 188.693 437.487 188.954 437.871 189.358C438.255 189.762 438.452 190.201 438.462 190.674C438.462 191.186 438.295 191.683 437.96 192.166C437.625 192.649 437.162 192.999 436.57 193.215L436.526 193.245C436.526 193.255 436.57 193.27 436.659 193.289C436.748 193.309 436.891 193.353 437.088 193.422C437.285 193.491 437.472 193.595 437.649 193.733C438.457 194.255 438.861 194.944 438.861 195.801C438.861 196.58 438.556 197.26 437.945 197.841C437.334 198.422 436.561 198.713 435.625 198.713C434.836 198.713 434.157 198.501 433.585 198.077C433.014 197.654 432.728 197.117 432.728 196.466C432.728 196.191 432.817 195.969 432.994 195.801C433.172 195.634 433.393 195.545 433.659 195.535C433.935 195.535 434.162 195.624 434.339 195.801C434.516 195.979 434.605 196.2 434.605 196.466C434.605 196.575 434.59 196.673 434.561 196.762C434.531 196.851 434.497 196.93 434.457 196.998C434.418 197.067 434.364 197.127 434.295 197.176C434.226 197.225 434.167 197.264 434.117 197.294C434.068 197.324 434.019 197.343 433.97 197.353C433.92 197.363 433.881 197.378 433.851 197.397L433.792 197.412C434.295 197.856 434.905 198.077 435.625 198.077C436.167 198.077 436.575 197.816 436.851 197.294C437.019 196.969 437.102 196.471 437.102 195.801V195.506C437.102 194.57 436.787 193.944 436.157 193.629C436.009 193.57 435.708 193.536 435.255 193.526L434.635 193.511L434.59 193.481C434.57 193.452 434.561 193.373 434.561 193.245C434.561 193.068 434.6 192.979 434.679 192.979C434.955 192.979 435.24 192.954 435.536 192.905C435.871 192.856 436.176 192.649 436.452 192.284C436.728 191.92 436.866 191.368 436.866 190.629V190.511C436.866 189.949 436.694 189.56 436.349 189.344C436.132 189.206 435.9 189.137 435.654 189.137C435.339 189.137 435.048 189.191 434.782 189.299C434.516 189.408 434.329 189.521 434.221 189.639C434.112 189.757 434.058 189.816 434.058 189.816H434.103C434.132 189.826 434.171 189.836 434.221 189.846C434.27 189.856 434.319 189.88 434.369 189.92C434.418 189.959 434.477 189.994 434.546 190.023C434.615 190.053 434.664 190.107 434.694 190.186C434.723 190.265 434.763 190.339 434.812 190.408C434.861 190.476 434.876 190.575 434.856 190.703C434.856 190.92 434.787 191.112 434.649 191.279C434.511 191.447 434.29 191.536 433.984 191.545Z" fill="#D9EBFF"/>
<path d="M511 100.241C511.014 100.157 511.035 100.046 511.063 99.9065C511.091 99.7672 511.174 99.5024 511.314 99.1122C511.453 98.7221 511.592 98.3946 511.732 98.1298C511.871 97.8651 512.101 97.6073 512.421 97.3564C512.742 97.1056 513.062 96.9872 513.383 97.0011C513.885 97.0011 514.303 97.1265 514.637 97.3773C514.971 97.6282 515.18 97.8651 515.264 98.088C515.348 98.311 515.389 98.4573 515.389 98.527C515.389 98.5548 515.396 98.5688 515.41 98.5688L515.64 98.3388C516.49 97.447 517.459 97.0011 518.546 97.0011C519.298 97.0011 519.904 97.1892 520.364 97.5655C520.824 97.9417 521.061 98.4921 521.075 99.2167C521.089 99.9414 520.824 101.035 520.281 102.498C519.737 103.962 519.472 104.846 519.486 105.153C519.486 105.515 519.605 105.696 519.842 105.696C519.925 105.696 519.988 105.689 520.03 105.676C520.434 105.606 520.796 105.341 521.117 104.881C521.437 104.421 521.681 103.864 521.848 103.209C521.876 103.098 522.016 103.042 522.266 103.042C522.545 103.042 522.684 103.098 522.684 103.209C522.684 103.223 522.657 103.328 522.601 103.523C522.489 103.927 522.336 104.324 522.141 104.714C521.946 105.104 521.625 105.494 521.179 105.885C520.733 106.275 520.253 106.463 519.737 106.449C519.082 106.449 518.608 106.261 518.316 105.885C518.023 105.508 517.877 105.118 517.877 104.714C517.877 104.449 518.128 103.613 518.629 102.206C519.131 100.798 519.389 99.7393 519.403 99.0286C519.403 98.2065 519.096 97.7954 518.483 97.7954H518.379C517.18 97.7954 516.17 98.4991 515.348 99.9065L515.201 100.157L514.512 102.958C514.052 104.784 513.787 105.766 513.717 105.905C513.536 106.282 513.237 106.47 512.818 106.47C512.637 106.47 512.491 106.428 512.38 106.344C512.268 106.261 512.191 106.177 512.15 106.094C512.108 106.01 512.094 105.94 512.108 105.885C512.108 105.703 512.373 104.568 512.902 102.477C513.432 100.387 513.71 99.2516 513.738 99.0704C513.752 99.0008 513.759 98.8405 513.759 98.5897C513.759 98.0462 513.592 97.7745 513.257 97.7745C512.728 97.7745 512.289 98.4712 511.941 99.8647C511.857 100.143 511.815 100.29 511.815 100.304C511.787 100.387 511.655 100.429 511.418 100.429H511.125C511.042 100.345 511 100.283 511 100.241Z" fill="#D9EBFF"/>
<path d="M529.935 109.388C529.758 109.358 529.122 109.343 528.029 109.343C526.886 109.343 526.226 109.358 526.048 109.388H525.915V108.708H526.373C526.57 108.708 526.703 108.708 526.772 108.708C526.841 108.708 526.925 108.698 527.024 108.678C527.122 108.659 527.191 108.634 527.231 108.604C527.27 108.575 527.304 108.535 527.334 108.486C527.344 108.466 527.349 108.2 527.349 107.688V106.949H523.521V106.269L525.753 102.856C527.26 100.57 528.024 99.4224 528.043 99.4125C528.063 99.3928 528.166 99.383 528.354 99.383H528.62L528.708 99.4716V106.269H530.068V106.949H528.708V107.703C528.708 108.107 528.708 108.343 528.708 108.412C528.708 108.481 528.738 108.54 528.797 108.59C528.876 108.659 529.157 108.698 529.639 108.708H530.068V109.388H529.935ZM527.437 106.269V101.334L524.201 106.255L525.812 106.269H527.437Z" fill="#D9EBFF"/>
<path d="M419 11.241C419.014 11.1573 419.035 11.0459 419.063 10.9065C419.091 10.7672 419.174 10.5024 419.314 10.1122C419.453 9.72205 419.592 9.39459 419.732 9.12982C419.871 8.86506 420.101 8.60727 420.421 8.35644C420.742 8.10561 421.062 7.98717 421.383 8.0011C421.885 8.0011 422.303 8.12651 422.637 8.37734C422.971 8.62817 423.18 8.86506 423.264 9.08802C423.348 9.31098 423.389 9.45729 423.389 9.52697C423.389 9.55484 423.396 9.56877 423.41 9.56877L423.64 9.33885C424.49 8.44702 425.459 8.0011 426.546 8.0011C427.298 8.0011 427.904 8.18922 428.364 8.56546C428.824 8.9417 429.061 9.49213 429.075 10.2167C429.089 10.9414 428.824 12.0352 428.281 13.4984C427.737 14.9616 427.472 15.8464 427.486 16.153C427.486 16.5153 427.605 16.6964 427.842 16.6964C427.925 16.6964 427.988 16.6895 428.03 16.6755C428.434 16.6059 428.796 16.3411 429.117 15.8813C429.437 15.4214 429.681 14.864 429.848 14.2091C429.876 14.0976 430.016 14.0419 430.266 14.0419C430.545 14.0419 430.684 14.0976 430.684 14.2091C430.684 14.223 430.657 14.3275 430.601 14.5226C430.489 14.9267 430.336 15.3239 430.141 15.714C429.946 16.1042 429.625 16.4944 429.179 16.8846C428.733 17.2747 428.253 17.4629 427.737 17.4489C427.082 17.4489 426.608 17.2608 426.316 16.8846C426.023 16.5083 425.877 16.1182 425.877 15.714C425.877 15.4493 426.128 14.6132 426.629 13.2058C427.131 11.7983 427.389 10.7393 427.403 10.0286C427.403 9.20647 427.096 8.79539 426.483 8.79539H426.379C425.18 8.79539 424.17 9.4991 423.348 10.9065L423.201 11.1573L422.512 13.9583C422.052 15.7837 421.787 16.7661 421.717 16.9055C421.536 17.2817 421.237 17.4698 420.818 17.4698C420.637 17.4698 420.491 17.428 420.38 17.3444C420.268 17.2608 420.191 17.1772 420.15 17.0936C420.108 17.01 420.094 16.9403 420.108 16.8846C420.108 16.7034 420.373 15.5677 420.902 13.4775C421.432 11.3873 421.71 10.2516 421.738 10.0704C421.752 10.0008 421.759 9.8405 421.759 9.58967C421.759 9.04621 421.592 8.77448 421.257 8.77448C420.728 8.77448 420.289 9.47123 419.941 10.8647C419.857 11.1434 419.815 11.2897 419.815 11.3037C419.787 11.3873 419.655 11.4291 419.418 11.4291H419.125C419.042 11.3455 419 11.2828 419 11.241Z" fill="#D9EBFF"/>
<path d="M433.531 18.0675C433.531 18.3039 433.452 18.501 433.295 18.6586C433.137 18.8162 432.945 18.895 432.718 18.895H432.615C433.068 19.6733 433.669 20.0625 434.418 20.0625C435.107 20.0625 435.61 19.7669 435.925 19.1758C436.112 18.8507 436.206 18.2202 436.206 17.2842C436.206 16.2695 436.073 15.5848 435.807 15.2301C435.551 14.905 435.265 14.7424 434.95 14.7424H434.861C434.093 14.7424 433.511 15.0774 433.117 15.7473C433.078 15.8163 433.043 15.8557 433.014 15.8656C432.984 15.8754 432.91 15.8853 432.792 15.8951C432.625 15.8951 432.531 15.8656 432.511 15.8065C432.492 15.767 432.482 14.905 432.482 13.2203V11.314C432.482 10.8214 432.506 10.5751 432.556 10.5751C432.575 10.5554 432.595 10.5455 432.615 10.5455C432.625 10.5455 432.728 10.5849 432.925 10.6637C433.122 10.7426 433.393 10.8214 433.738 10.9002C434.083 10.979 434.452 11.0184 434.846 11.0184C435.546 11.0184 436.216 10.8805 436.856 10.6046C436.935 10.5652 436.999 10.5455 437.048 10.5455C437.127 10.5455 437.166 10.6342 437.166 10.8115V11.0036C436.359 11.9593 435.349 12.4371 434.137 12.4371C433.832 12.4371 433.556 12.4075 433.309 12.3484L433.162 12.3189V14.8607C433.349 14.7227 433.497 14.6144 433.605 14.5356C433.713 14.4567 433.891 14.3779 434.137 14.2991C434.383 14.2203 434.634 14.1809 434.891 14.1809C435.689 14.1809 436.364 14.5011 436.915 15.1414C437.467 15.7818 437.743 16.5404 437.743 17.4172C437.743 18.3236 437.428 19.097 436.797 19.7374C436.166 20.3778 435.398 20.7029 434.492 20.7127C433.694 20.7127 433.053 20.4467 432.571 19.9147C432.088 19.3827 431.846 18.7817 431.846 18.1118C431.846 17.8754 431.901 17.6882 432.009 17.5502C432.117 17.4123 432.231 17.3237 432.349 17.2842C432.467 17.2448 432.58 17.2251 432.689 17.2251C432.935 17.2251 433.137 17.3089 433.295 17.4764C433.452 17.6438 433.531 17.8409 433.531 18.0675Z" fill="#D9EBFF"/>
<path d="M265 8.24095C265.014 8.15734 265.035 8.04587 265.063 7.90652C265.091 7.76717 265.174 7.50241 265.314 7.11223C265.453 6.72205 265.592 6.39459 265.732 6.12982C265.871 5.86506 266.101 5.60727 266.421 5.35644C266.742 5.10561 267.062 4.98717 267.383 5.0011C267.885 5.0011 268.303 5.12651 268.637 5.37734C268.971 5.62817 269.18 5.86506 269.264 6.08802C269.348 6.31098 269.389 6.45729 269.389 6.52697C269.389 6.55484 269.396 6.56877 269.41 6.56877L269.64 6.33885C270.49 5.44702 271.459 5.0011 272.546 5.0011C273.298 5.0011 273.904 5.18922 274.364 5.56546C274.824 5.9417 275.061 6.49213 275.075 7.21674C275.089 7.94135 274.824 9.03524 274.281 10.4984C273.737 11.9616 273.472 12.8464 273.486 13.153C273.486 13.5153 273.605 13.6964 273.842 13.6964C273.925 13.6964 273.988 13.6895 274.03 13.6755C274.434 13.6059 274.796 13.3411 275.117 12.8813C275.437 12.4214 275.681 11.864 275.848 11.2091C275.876 11.0976 276.015 11.0419 276.266 11.0419C276.545 11.0419 276.684 11.0976 276.684 11.2091C276.684 11.223 276.657 11.3275 276.601 11.5226C276.489 11.9267 276.336 12.3239 276.141 12.714C275.946 13.1042 275.625 13.4944 275.179 13.8846C274.733 14.2747 274.253 14.4629 273.737 14.4489C273.082 14.4489 272.608 14.2608 272.316 13.8846C272.023 13.5083 271.877 13.1182 271.877 12.714C271.877 12.4493 272.128 11.6132 272.629 10.2058C273.131 8.79835 273.389 7.7393 273.403 7.02862C273.403 6.20647 273.096 5.79539 272.483 5.79539H272.379C271.18 5.79539 270.17 6.4991 269.348 7.90652L269.201 8.15734L268.512 10.9583C268.052 12.7837 267.787 13.7661 267.717 13.9055C267.536 14.2817 267.237 14.4698 266.818 14.4698C266.637 14.4698 266.491 14.428 266.38 14.3444C266.268 14.2608 266.191 14.1772 266.15 14.0936C266.108 14.01 266.094 13.9403 266.108 13.8846C266.108 13.7034 266.373 12.5677 266.902 10.4775C267.432 8.38727 267.71 7.25158 267.738 7.07043C267.752 7.00075 267.759 6.8405 267.759 6.58967C267.759 6.04621 267.592 5.77448 267.257 5.77448C266.728 5.77448 266.289 6.47123 265.941 7.86471C265.857 8.14341 265.815 8.28973 265.815 8.30366C265.787 8.38727 265.655 8.42907 265.418 8.42907H265.125C265.042 8.34547 265 8.28276 265 8.24095Z" fill="#D9EBFF"/>
<path d="M277.92 10.6193C277.93 10.5996 278.014 10.0627 278.172 9.00853L278.408 7.42729C278.408 7.40759 278.506 7.39773 278.704 7.39773H278.999V7.45685C278.999 7.55537 279.073 7.63911 279.221 7.70807C279.369 7.77703 279.625 7.82137 279.989 7.84107C280.354 7.86078 281.186 7.87063 282.487 7.87063H284.275V8.44697L283.27 9.82131C283.181 9.93954 283.033 10.1366 282.827 10.4124C282.62 10.6883 282.487 10.8705 282.428 10.9592C282.368 11.0479 282.265 11.2055 282.117 11.4321C281.969 11.6587 281.871 11.836 281.822 11.9641C281.772 12.0922 281.703 12.2744 281.615 12.5109C281.526 12.7473 281.462 12.9739 281.423 13.1907C281.383 13.4074 281.344 13.6734 281.304 13.9887C281.265 14.3039 281.235 14.6389 281.216 14.9936C281.196 15.3483 281.181 15.7522 281.171 16.2054C281.171 16.3433 281.171 16.4812 281.171 16.6192C281.171 16.7571 281.166 16.8753 281.157 16.9738V17.1068C281.117 17.2743 281.024 17.4172 280.876 17.5354C280.728 17.6536 280.561 17.7127 280.373 17.7127C280.265 17.7127 280.162 17.6979 280.063 17.6684C279.965 17.6388 279.861 17.5452 279.753 17.3876C279.644 17.23 279.59 17.0329 279.59 16.7965C279.59 15.2399 280.068 13.6242 281.024 11.9493C281.221 11.6341 281.634 11.038 282.265 10.1612L282.945 9.2302H281.57C279.856 9.2302 278.955 9.25975 278.866 9.31886C278.807 9.34842 278.753 9.46664 278.704 9.67353C278.654 9.88042 278.605 10.0922 278.556 10.309L278.511 10.6193V10.6637H277.92V10.6193Z" fill="#D9EBFF"/>
<path d="M341 82.241C341.014 82.1573 341.035 82.0459 341.063 81.9065C341.091 81.7672 341.174 81.5024 341.314 81.1122C341.453 80.7221 341.592 80.3946 341.732 80.1298C341.871 79.8651 342.101 79.6073 342.421 79.3564C342.742 79.1056 343.062 78.9872 343.383 79.0011C343.885 79.0011 344.303 79.1265 344.637 79.3773C344.971 79.6282 345.18 79.8651 345.264 80.088C345.348 80.311 345.389 80.4573 345.389 80.527C345.389 80.5548 345.396 80.5688 345.41 80.5688L345.64 80.3388C346.49 79.447 347.459 79.0011 348.546 79.0011C349.298 79.0011 349.904 79.1892 350.364 79.5655C350.824 79.9417 351.061 80.4921 351.075 81.2167C351.089 81.9414 350.824 83.0352 350.281 84.4984C349.737 85.9616 349.472 86.8464 349.486 87.153C349.486 87.5153 349.605 87.6964 349.842 87.6964C349.925 87.6964 349.988 87.6895 350.03 87.6755C350.434 87.6059 350.796 87.3411 351.117 86.8813C351.437 86.4214 351.681 85.864 351.848 85.2091C351.876 85.0976 352.016 85.0419 352.266 85.0419C352.545 85.0419 352.684 85.0976 352.684 85.2091C352.684 85.223 352.657 85.3275 352.601 85.5226C352.489 85.9267 352.336 86.3239 352.141 86.714C351.946 87.1042 351.625 87.4944 351.179 87.8846C350.733 88.2747 350.253 88.4629 349.737 88.4489C349.082 88.4489 348.608 88.2608 348.316 87.8846C348.023 87.5083 347.877 87.1182 347.877 86.714C347.877 86.4493 348.128 85.6132 348.629 84.2058C349.131 82.7983 349.389 81.7393 349.403 81.0286C349.403 80.2065 349.096 79.7954 348.483 79.7954H348.379C347.18 79.7954 346.17 80.4991 345.348 81.9065L345.201 82.1573L344.512 84.9583C344.052 86.7837 343.787 87.7661 343.717 87.9055C343.536 88.2817 343.237 88.4698 342.818 88.4698C342.637 88.4698 342.491 88.428 342.38 88.3444C342.268 88.2608 342.191 88.1772 342.15 88.0936C342.108 88.01 342.094 87.9403 342.108 87.8846C342.108 87.7034 342.373 86.5677 342.902 84.4775C343.432 82.3873 343.71 81.2516 343.738 81.0704C343.752 81.0008 343.759 80.8405 343.759 80.5897C343.759 80.0462 343.592 79.7745 343.257 79.7745C342.728 79.7745 342.289 80.4712 341.941 81.8647C341.857 82.1434 341.815 82.2897 341.815 82.3037C341.787 82.3873 341.655 82.4291 341.418 82.4291H341.125C341.042 82.3455 341 82.2828 341 82.241Z" fill="#D9EBFF"/>
<path d="M353.728 86.7621C353.728 85.1563 354.127 83.8853 354.925 82.9494C355.723 82.0135 356.61 81.5455 357.585 81.5455C358.265 81.5455 358.753 81.7228 359.048 82.0775C359.344 82.4322 359.492 82.8263 359.492 83.2598C359.492 83.506 359.423 83.7031 359.285 83.8509C359.147 83.9986 358.955 84.0725 358.708 84.0725C358.482 84.0725 358.295 84.0036 358.147 83.8656C357.999 83.7277 357.925 83.5356 357.925 83.2893C357.925 82.8558 358.157 82.5947 358.62 82.5061C358.403 82.2893 358.098 82.1662 357.703 82.1366C357.004 82.1366 356.428 82.4322 355.974 83.0233C355.511 83.6735 355.28 84.6686 355.28 86.0084L355.295 86.0676C355.344 86.0084 355.383 85.9444 355.413 85.8754C355.817 85.2843 356.344 84.9888 356.994 84.9888H357.053C357.506 84.9888 357.905 85.0824 358.25 85.2695C358.487 85.4075 358.723 85.6045 358.96 85.8607C359.196 86.1168 359.388 86.3976 359.536 86.703C359.743 87.1858 359.846 87.7128 359.846 88.2842V88.5502C359.846 88.7768 359.822 88.9887 359.772 89.1857C359.664 89.767 359.349 90.3334 358.827 90.8852C358.304 91.4369 357.644 91.7127 356.846 91.7127C356.57 91.7127 356.304 91.6733 356.048 91.5945C355.792 91.5157 355.516 91.3679 355.221 91.1512C354.925 90.9344 354.674 90.6438 354.467 90.2793C354.26 89.9147 354.083 89.4369 353.935 88.8458C353.787 88.2547 353.718 87.5601 353.728 86.7621ZM356.905 85.5208C356.61 85.5208 356.354 85.6045 356.137 85.772C355.92 85.9395 355.753 86.1611 355.635 86.437C355.516 86.7129 355.433 86.9936 355.383 87.2793C355.334 87.5651 355.304 87.8705 355.295 88.1956C355.295 89.0133 355.354 89.5995 355.472 89.9541C355.59 90.3088 355.777 90.5945 356.034 90.8113C356.27 90.9886 356.531 91.0773 356.817 91.0773C357.319 91.0773 357.703 90.8901 357.969 90.5157C358.098 90.3384 358.186 90.1167 358.235 89.8507C358.285 89.5847 358.309 89.0675 358.309 88.299C358.309 87.5109 358.285 86.9838 358.235 86.7178C358.186 86.4518 358.098 86.2301 357.969 86.0528C357.703 85.6981 357.349 85.5208 356.905 85.5208Z" fill="#D9EBFF"/>
<path d="M196.727 235.495C196.727 233.976 197.326 232.61 198.524 231.398C199.722 230.186 201.018 229.58 202.412 229.58C203.192 229.58 203.805 229.747 204.251 230.081C204.697 230.416 204.927 230.855 204.941 231.398C204.941 231.802 204.808 232.144 204.543 232.422C204.279 232.701 203.944 232.847 203.54 232.861C203.275 232.861 203.066 232.791 202.913 232.652C202.76 232.513 202.683 232.304 202.683 232.025C202.683 231.746 202.76 231.51 202.913 231.314C203.066 231.119 203.22 230.973 203.373 230.876C203.526 230.778 203.624 230.736 203.666 230.75H203.687C203.687 230.722 203.645 230.68 203.561 230.625C203.478 230.569 203.331 230.513 203.122 230.458C202.913 230.402 202.676 230.374 202.412 230.374C201.994 230.374 201.596 230.471 201.22 230.667C200.928 230.792 200.628 231.008 200.322 231.314C199.708 231.928 199.263 232.791 198.984 233.906C198.705 235.021 198.559 235.829 198.545 236.331C198.545 236.972 198.726 237.452 199.088 237.773C199.395 238.107 199.799 238.274 200.301 238.274H200.384C201.945 238.274 203.234 237.682 204.251 236.498C204.376 236.359 204.46 236.289 204.502 236.289C204.557 236.289 204.648 236.352 204.773 236.477C204.899 236.602 204.968 236.7 204.982 236.77C204.996 236.839 204.934 236.944 204.794 237.083C204.655 237.222 204.453 237.418 204.188 237.668C203.923 237.919 203.61 238.128 203.248 238.295C202.885 238.463 202.439 238.637 201.91 238.818C201.38 238.999 200.823 239.076 200.238 239.048C199.193 239.048 198.35 238.713 197.709 238.045C197.068 237.376 196.74 236.526 196.727 235.495Z" fill="#D9EBFF"/>
<path d="M205.505 232.819C205.505 232.624 205.609 232.29 205.818 231.816C206.027 231.342 206.362 230.848 206.822 230.332C207.281 229.817 207.797 229.566 208.368 229.58C208.94 229.58 209.399 229.74 209.748 230.06C210.096 230.381 210.277 230.827 210.291 231.398C210.263 231.663 210.242 231.809 210.228 231.837C210.228 231.879 210.117 232.199 209.894 232.798C209.671 233.398 209.441 234.073 209.204 234.826C208.967 235.578 208.856 236.177 208.87 236.623C208.87 237.222 208.967 237.64 209.163 237.877C209.358 238.114 209.65 238.24 210.04 238.254C210.361 238.254 210.66 238.177 210.939 238.024C211.218 237.87 211.434 237.71 211.587 237.543C211.74 237.376 211.928 237.146 212.151 236.853C212.151 236.839 212.186 236.7 212.256 236.435C212.326 236.17 212.423 235.759 212.548 235.202C212.674 234.645 212.806 234.129 212.946 233.655C213.475 231.565 213.768 230.471 213.823 230.374C214.005 229.998 214.304 229.81 214.722 229.81C214.903 229.81 215.05 229.858 215.161 229.956C215.273 230.053 215.349 230.137 215.391 230.207C215.433 230.276 215.447 230.339 215.433 230.395C215.433 230.576 215.091 232.039 214.409 234.784C213.726 237.529 213.336 239.034 213.238 239.299C212.848 240.455 212.172 241.375 211.211 242.057C210.249 242.74 209.288 243.089 208.326 243.103C207.699 243.103 207.149 242.949 206.675 242.643C206.202 242.336 205.965 241.876 205.965 241.263C205.965 240.957 206.013 240.699 206.111 240.49C206.209 240.281 206.341 240.128 206.508 240.03C206.675 239.933 206.815 239.863 206.926 239.821C207.038 239.779 207.156 239.758 207.281 239.758C207.895 239.758 208.201 240.051 208.201 240.636C208.201 240.915 208.117 241.159 207.95 241.368C207.783 241.577 207.623 241.716 207.47 241.786C207.316 241.855 207.226 241.89 207.198 241.89L207.135 241.911C207.163 241.981 207.295 242.064 207.532 242.162C207.769 242.26 208.006 242.308 208.243 242.308H208.41C208.647 242.308 208.828 242.294 208.954 242.267C209.413 242.141 209.838 241.876 210.228 241.472C210.619 241.068 210.918 240.636 211.127 240.176C211.336 239.717 211.496 239.326 211.608 239.006C211.719 238.686 211.775 238.476 211.775 238.379L211.65 238.463C211.566 238.518 211.434 238.595 211.253 238.692C211.071 238.79 210.89 238.874 210.709 238.943C210.431 239.013 210.159 239.048 209.894 239.048C209.253 239.048 208.689 238.895 208.201 238.588C207.713 238.281 207.393 237.787 207.24 237.104C207.226 237.006 207.219 236.79 207.219 236.456C207.219 235.662 207.463 234.624 207.95 233.342C208.438 232.06 208.682 231.245 208.682 230.896C208.682 230.883 208.682 230.869 208.682 230.855C208.682 230.729 208.682 230.646 208.682 230.604C208.682 230.562 208.654 230.513 208.598 230.458C208.542 230.402 208.466 230.374 208.368 230.374H208.285C207.964 230.374 207.672 230.506 207.407 230.771C207.142 231.036 206.933 231.321 206.78 231.628C206.627 231.935 206.508 232.227 206.425 232.506C206.341 232.785 206.285 232.938 206.257 232.966C206.229 232.994 206.118 233.007 205.923 233.007H205.63C205.547 232.924 205.505 232.861 205.505 232.819Z" fill="#D9EBFF"/>
<path d="M216.186 235.495C216.186 233.976 216.785 232.61 217.983 231.398C219.181 230.186 220.477 229.58 221.871 229.58C222.651 229.58 223.264 229.747 223.71 230.081C224.156 230.416 224.386 230.855 224.4 231.398C224.4 231.802 224.267 232.144 224.002 232.422C223.738 232.701 223.403 232.847 222.999 232.861C222.734 232.861 222.525 232.791 222.372 232.652C222.219 232.513 222.142 232.304 222.142 232.025C222.142 231.746 222.219 231.51 222.372 231.314C222.525 231.119 222.679 230.973 222.832 230.876C222.985 230.778 223.083 230.736 223.125 230.75H223.146C223.146 230.722 223.104 230.68 223.02 230.625C222.937 230.569 222.79 230.513 222.581 230.458C222.372 230.402 222.135 230.374 221.871 230.374C221.453 230.374 221.055 230.471 220.679 230.667C220.387 230.792 220.087 231.008 219.78 231.314C219.167 231.928 218.722 232.791 218.443 233.906C218.164 235.021 218.018 235.829 218.004 236.331C218.004 236.972 218.185 237.452 218.547 237.773C218.854 238.107 219.258 238.274 219.76 238.274H219.843C221.404 238.274 222.693 237.682 223.71 236.498C223.835 236.359 223.919 236.289 223.961 236.289C224.016 236.289 224.107 236.352 224.232 236.477C224.358 236.602 224.427 236.7 224.441 236.77C224.455 236.839 224.393 236.944 224.253 237.083C224.114 237.222 223.912 237.418 223.647 237.668C223.382 237.919 223.069 238.128 222.707 238.295C222.344 238.463 221.898 238.637 221.369 238.818C220.839 238.999 220.282 239.076 219.697 239.048C218.652 239.048 217.809 238.713 217.168 238.045C216.527 237.376 216.199 236.526 216.186 235.495Z" fill="#D9EBFF"/>
<path d="M226.97 237.585C226.97 238.045 227.145 238.275 227.493 238.275C228.009 238.275 228.447 237.543 228.81 236.08C228.893 235.801 228.963 235.655 229.019 235.641C229.047 235.627 229.116 235.62 229.228 235.62H229.311C229.437 235.62 229.52 235.62 229.562 235.62C229.604 235.62 229.639 235.634 229.667 235.662C229.695 235.69 229.709 235.739 229.709 235.808C229.695 235.892 229.674 236.003 229.646 236.143C229.618 236.282 229.541 236.547 229.416 236.937C229.29 237.327 229.151 237.654 228.998 237.919C228.845 238.184 228.629 238.442 228.35 238.693C228.071 238.943 227.751 239.062 227.389 239.048C226.887 239.048 226.42 238.895 225.988 238.588C225.556 238.281 225.333 237.766 225.319 237.041C225.319 236.874 225.326 236.756 225.34 236.686L226.699 231.294C227.577 227.741 228.016 225.908 228.016 225.797C228.016 225.755 228.009 225.72 227.995 225.692C227.981 225.664 227.953 225.637 227.911 225.609C227.869 225.581 227.834 225.567 227.807 225.567C227.779 225.567 227.723 225.56 227.639 225.546C227.556 225.532 227.5 225.525 227.472 225.525C227.444 225.525 227.382 225.518 227.284 225.504C227.186 225.49 227.117 225.49 227.075 225.504C226.936 225.504 226.845 225.504 226.803 225.504C226.761 225.504 226.706 225.497 226.636 225.483C226.566 225.469 226.525 225.448 226.511 225.421C226.497 225.393 226.49 225.351 226.49 225.295C226.49 225.267 226.504 225.17 226.532 225.003C226.601 224.738 226.678 224.591 226.761 224.564C226.845 224.536 227.347 224.494 228.266 224.438C228.475 224.424 228.712 224.41 228.977 224.396C229.242 224.382 229.451 224.362 229.604 224.334C229.757 224.306 229.834 224.299 229.834 224.313C230.001 224.313 230.085 224.369 230.085 224.48C230.085 224.633 229.576 226.723 228.559 230.75C227.542 234.777 227.019 236.888 226.991 237.083C226.991 237.111 226.991 237.167 226.991 237.25C226.991 237.334 226.984 237.404 226.97 237.459V237.585Z" fill="#D9EBFF"/>
<path d="M231.589 235.307C231.589 234.512 231.721 233.788 231.986 233.133C232.251 232.478 232.592 231.935 233.01 231.503C233.428 231.071 233.895 230.708 234.41 230.416C234.926 230.123 235.414 229.907 235.874 229.768C236.333 229.629 236.772 229.566 237.19 229.58H237.253C237.88 229.58 238.423 229.733 238.883 230.04C239.343 230.346 239.573 230.799 239.573 231.398C239.573 232.652 238.8 233.474 237.253 233.864C236.57 234.046 235.637 234.143 234.452 234.157C233.937 234.157 233.672 234.171 233.658 234.199C233.658 234.227 233.616 234.471 233.533 234.93C233.449 235.39 233.4 235.794 233.386 236.143C233.386 236.798 233.533 237.313 233.825 237.689C234.118 238.066 234.557 238.261 235.142 238.275C235.727 238.288 236.375 238.156 237.086 237.877C237.796 237.599 238.437 237.139 239.009 236.498C239.134 236.359 239.218 236.289 239.259 236.289C239.315 236.289 239.406 236.352 239.531 236.477C239.657 236.602 239.726 236.7 239.74 236.77C239.754 236.839 239.691 236.951 239.552 237.104C239.413 237.257 239.204 237.445 238.925 237.668C238.646 237.891 238.326 238.107 237.964 238.316C237.601 238.525 237.162 238.7 236.647 238.839C236.131 238.978 235.602 239.048 235.058 239.048C233.958 239.048 233.108 238.679 232.509 237.94C231.909 237.202 231.603 236.324 231.589 235.307ZM238.57 231.44C238.486 230.715 238.012 230.353 237.148 230.353C236.689 230.353 236.264 230.451 235.874 230.646C235.483 230.841 235.17 231.078 234.933 231.356C234.696 231.635 234.494 231.921 234.327 232.213C234.16 232.506 234.048 232.757 233.992 232.966C233.937 233.175 233.902 233.307 233.888 233.363C233.888 233.377 234.027 233.384 234.306 233.384C235.88 233.384 236.981 233.217 237.608 232.882C238.235 232.548 238.556 232.067 238.57 231.44Z" fill="#D9EBFF"/>
<path d="M243.251 232.778C243.251 232.332 243.363 231.879 243.586 231.419C243.809 230.959 244.199 230.534 244.756 230.144C245.314 229.754 245.989 229.566 246.784 229.58C247.647 229.58 248.275 229.768 248.665 230.144C249.055 230.52 249.257 230.938 249.271 231.398C249.271 231.844 249.152 232.171 248.915 232.38C248.679 232.589 248.414 232.701 248.121 232.715C247.94 232.715 247.773 232.659 247.62 232.548C247.466 232.436 247.383 232.255 247.369 232.004C247.369 231.781 247.432 231.586 247.557 231.419C247.682 231.252 247.801 231.126 247.912 231.043C248.024 230.959 248.114 230.917 248.184 230.917C248.198 230.917 248.205 230.91 248.205 230.896C248.205 230.855 248.156 230.792 248.059 230.708C247.961 230.625 247.787 230.548 247.536 230.478C247.285 230.409 247.014 230.367 246.721 230.353C246.052 230.353 245.564 230.534 245.258 230.896C244.951 231.259 244.791 231.628 244.777 232.004C244.777 232.353 244.909 232.596 245.174 232.736C245.439 232.875 245.822 232.993 246.324 233.091C246.825 233.189 247.188 233.293 247.411 233.405C248.33 233.809 248.79 234.477 248.79 235.411C248.79 235.801 248.713 236.191 248.56 236.581C248.407 236.972 248.177 237.362 247.87 237.752C247.564 238.142 247.125 238.449 246.554 238.672C245.982 238.894 245.328 239.013 244.589 239.027C243.516 239.027 242.757 238.825 242.311 238.421C241.865 238.017 241.635 237.543 241.621 236.999C241.621 236.456 241.767 236.066 242.06 235.829C242.353 235.592 242.659 235.474 242.98 235.474C243.189 235.474 243.384 235.536 243.565 235.662C243.746 235.787 243.844 236.003 243.857 236.31C243.857 236.672 243.732 236.979 243.481 237.229C243.23 237.48 243.014 237.606 242.833 237.606C242.805 237.62 242.785 237.627 242.771 237.627C242.757 237.627 242.75 237.64 242.75 237.668C242.764 237.71 242.819 237.766 242.917 237.836C243.014 237.905 243.23 237.996 243.565 238.107C243.899 238.219 244.282 238.267 244.714 238.254C245.216 238.254 245.648 238.177 246.01 238.024C246.373 237.87 246.637 237.675 246.804 237.438C246.972 237.202 247.09 236.986 247.16 236.79C247.229 236.595 247.264 236.421 247.264 236.268C247.264 235.878 247.118 235.585 246.825 235.39C246.533 235.195 246.198 235.077 245.822 235.035C245.446 234.993 245.035 234.888 244.589 234.721C244.143 234.554 243.816 234.31 243.607 233.99C243.37 233.641 243.251 233.237 243.251 232.778Z" fill="#D9EBFF"/>
<path d="M257.297 231.565C257.297 231.384 257.394 231.245 257.589 231.147H270.903C271.112 231.259 271.217 231.398 271.217 231.565C271.217 231.719 271.119 231.851 270.924 231.962L264.278 231.983H257.631C257.408 231.914 257.297 231.774 257.297 231.565ZM257.297 235.62C257.297 235.411 257.408 235.272 257.631 235.202H270.924C271.119 235.341 271.217 235.481 271.217 235.62C271.217 235.801 271.112 235.941 270.903 236.038H257.589C257.394 235.941 257.297 235.801 257.297 235.62Z" fill="#D9EBFF"/>
<path d="M280.184 233.593C280.184 232.631 280.253 231.719 280.393 230.855C280.532 229.991 280.692 229.245 280.873 228.618C281.054 227.991 281.312 227.378 281.647 226.779C281.981 226.18 282.246 225.713 282.441 225.379C282.636 225.044 282.929 224.682 283.319 224.292C283.709 223.902 283.939 223.665 284.008 223.581C284.078 223.498 284.252 223.351 284.531 223.142H284.803H284.886C285.081 223.142 285.179 223.205 285.179 223.33C285.179 223.372 285.06 223.519 284.824 223.769C284.587 224.02 284.301 224.389 283.967 224.877C283.632 225.365 283.291 225.964 282.942 226.675C282.594 227.385 282.302 228.347 282.065 229.559C281.828 230.771 281.709 232.116 281.709 233.593C281.709 235.07 281.828 236.407 282.065 237.606C282.302 238.804 282.587 239.772 282.922 240.511C283.256 241.249 283.597 241.849 283.946 242.308C284.294 242.768 284.587 243.137 284.824 243.416C285.06 243.695 285.179 243.841 285.179 243.855C285.179 243.98 285.074 244.043 284.865 244.043H284.803H284.531L283.946 243.541C282.636 242.357 281.681 240.88 281.082 239.111C280.483 237.341 280.184 235.502 280.184 233.593Z" fill="#D9EBFF"/>
<path d="M286.788 232.819C286.802 232.736 286.823 232.624 286.851 232.485C286.879 232.346 286.962 232.081 287.102 231.691C287.241 231.3 287.38 230.973 287.52 230.708C287.659 230.444 287.889 230.186 288.209 229.935C288.53 229.684 288.85 229.566 289.171 229.58C289.672 229.58 290.09 229.705 290.425 229.956C290.759 230.207 290.968 230.444 291.052 230.667C291.135 230.889 291.177 231.036 291.177 231.105C291.177 231.133 291.184 231.147 291.198 231.147L291.428 230.917C292.278 230.026 293.246 229.58 294.333 229.58C295.086 229.58 295.692 229.768 296.152 230.144C296.611 230.52 296.848 231.071 296.862 231.795C296.876 232.52 296.611 233.614 296.068 235.077C295.525 236.54 295.26 237.424 295.274 237.731C295.274 238.093 295.392 238.274 295.629 238.274C295.713 238.274 295.775 238.267 295.817 238.253C296.221 238.184 296.584 237.919 296.904 237.459C297.225 236.999 297.468 236.442 297.636 235.787C297.663 235.676 297.803 235.62 298.054 235.62C298.332 235.62 298.472 235.676 298.472 235.787C298.472 235.801 298.444 235.906 298.388 236.101C298.277 236.505 298.123 236.902 297.928 237.292C297.733 237.682 297.413 238.072 296.967 238.463C296.521 238.853 296.04 239.041 295.525 239.027C294.87 239.027 294.396 238.839 294.103 238.463C293.811 238.086 293.664 237.696 293.664 237.292C293.664 237.027 293.915 236.191 294.417 234.784C294.918 233.377 295.176 232.318 295.19 231.607C295.19 230.785 294.884 230.374 294.271 230.374H294.166C292.968 230.374 291.958 231.078 291.135 232.485L290.989 232.736L290.299 235.536C289.84 237.362 289.575 238.344 289.505 238.483C289.324 238.86 289.024 239.048 288.606 239.048C288.425 239.048 288.279 239.006 288.168 238.922C288.056 238.839 287.979 238.755 287.938 238.672C287.896 238.588 287.882 238.518 287.896 238.463C287.896 238.281 288.161 237.146 288.69 235.056C289.22 232.966 289.498 231.83 289.526 231.649C289.54 231.579 289.547 231.419 289.547 231.168C289.547 230.625 289.38 230.353 289.045 230.353C288.516 230.353 288.077 231.05 287.729 232.443C287.645 232.722 287.603 232.868 287.603 232.882C287.575 232.966 287.443 233.007 287.206 233.007H286.913C286.83 232.924 286.788 232.861 286.788 232.819Z" fill="#D9EBFF"/>
<path d="M300.313 233.321C300.865 232.523 301.618 232.124 302.574 232.124C303.047 232.124 303.52 232.252 303.992 232.508C304.465 232.764 304.849 233.217 305.145 233.868C305.51 234.685 305.692 235.808 305.692 237.237C305.692 238.764 305.48 239.931 305.056 240.739C304.859 241.153 304.588 241.483 304.244 241.729C303.899 241.975 303.598 242.128 303.342 242.187C303.086 242.246 302.835 242.281 302.589 242.29C302.332 242.29 302.076 242.261 301.82 242.202C301.564 242.143 301.264 241.985 300.919 241.729C300.574 241.473 300.303 241.143 300.106 240.739C299.683 239.931 299.471 238.764 299.471 237.237C299.471 235.523 299.751 234.217 300.313 233.321ZM303.638 233.144C303.342 232.828 302.993 232.671 302.589 232.671C302.175 232.671 301.82 232.828 301.525 233.144C301.278 233.4 301.116 233.754 301.037 234.207C300.958 234.661 300.919 235.606 300.919 237.045C300.919 238.601 300.958 239.626 301.037 240.118C301.116 240.611 301.293 241 301.569 241.286C301.845 241.581 302.185 241.729 302.589 241.729C302.983 241.729 303.318 241.581 303.593 241.286C303.879 240.99 304.056 240.576 304.125 240.044C304.194 239.512 304.234 238.512 304.244 237.045C304.244 235.616 304.204 234.675 304.125 234.222C304.047 233.769 303.884 233.41 303.638 233.144Z" fill="#D9EBFF"/>
<path d="M310.009 238.086C310.009 238.086 310.009 237.912 310.009 237.564C310.009 237.215 310.12 236.916 310.343 236.665C310.566 236.414 310.866 236.289 311.242 236.289C311.632 236.289 311.98 236.463 312.287 236.811C312.594 237.16 312.754 237.773 312.768 238.651C312.768 239.138 312.705 239.612 312.58 240.072C312.454 240.532 312.308 240.929 312.141 241.263C311.973 241.598 311.792 241.883 311.597 242.12C311.402 242.357 311.235 242.545 311.096 242.685C310.956 242.824 310.866 242.887 310.824 242.873C310.768 242.873 310.678 242.81 310.552 242.685C310.427 242.559 310.364 242.469 310.364 242.413C310.364 242.357 310.441 242.246 310.594 242.078C310.747 241.911 310.921 241.702 311.117 241.451C311.312 241.201 311.493 240.852 311.66 240.406C311.827 239.96 311.939 239.452 311.994 238.881V238.63L311.973 238.651C311.946 238.665 311.911 238.679 311.869 238.692C311.827 238.706 311.785 238.727 311.744 238.755C311.702 238.783 311.639 238.797 311.555 238.797C311.472 238.797 311.388 238.804 311.305 238.818C310.928 238.818 310.622 238.699 310.385 238.463L310.009 238.086Z" fill="#D9EBFF"/>
<path d="M318.14 232.819C318.154 232.736 318.174 232.624 318.202 232.485C318.23 232.346 318.314 232.081 318.453 231.691C318.592 231.3 318.732 230.973 318.871 230.708C319.011 230.444 319.24 230.186 319.561 229.935C319.881 229.684 320.202 229.566 320.522 229.58C321.024 229.58 321.442 229.705 321.776 229.956C322.111 230.207 322.32 230.444 322.403 230.667C322.487 230.889 322.529 231.036 322.529 231.105C322.529 231.133 322.536 231.147 322.55 231.147L322.78 230.917C323.63 230.026 324.598 229.58 325.685 229.58C326.437 229.58 327.043 229.768 327.503 230.144C327.963 230.52 328.2 231.071 328.214 231.795C328.228 232.52 327.963 233.614 327.42 235.077C326.876 236.54 326.611 237.424 326.625 237.731C326.625 238.093 326.744 238.274 326.981 238.274C327.064 238.274 327.127 238.267 327.169 238.253C327.573 238.184 327.935 237.919 328.256 237.459C328.576 236.999 328.82 236.442 328.987 235.787C329.015 235.676 329.154 235.62 329.405 235.62C329.684 235.62 329.823 235.676 329.823 235.787C329.823 235.801 329.795 235.906 329.74 236.101C329.628 236.505 329.475 236.902 329.28 237.292C329.085 237.682 328.764 238.072 328.318 238.463C327.872 238.853 327.392 239.041 326.876 239.027C326.221 239.027 325.748 238.839 325.455 238.463C325.162 238.086 325.016 237.696 325.016 237.292C325.016 237.027 325.267 236.191 325.768 234.784C326.27 233.377 326.528 232.318 326.542 231.607C326.542 230.785 326.235 230.374 325.622 230.374H325.518C324.319 230.374 323.309 231.078 322.487 232.485L322.341 232.736L321.651 235.536C321.191 237.362 320.926 238.344 320.857 238.483C320.676 238.86 320.376 239.048 319.958 239.048C319.777 239.048 319.631 239.006 319.519 238.922C319.408 238.839 319.331 238.755 319.289 238.672C319.247 238.588 319.233 238.518 319.247 238.463C319.247 238.281 319.512 237.146 320.042 235.056C320.571 232.966 320.85 231.83 320.878 231.649C320.892 231.579 320.899 231.419 320.899 231.168C320.899 230.625 320.731 230.353 320.397 230.353C319.867 230.353 319.429 231.05 319.08 232.443C318.997 232.722 318.955 232.868 318.955 232.882C318.927 232.966 318.795 233.007 318.558 233.007H318.265C318.181 232.924 318.14 232.861 318.14 232.819Z" fill="#D9EBFF"/>
<path d="M333.394 233.424L333.202 233.498C333.064 233.547 332.867 233.597 332.61 233.646C332.354 233.695 332.069 233.73 331.753 233.749H331.473V233.07H331.753C332.216 233.05 332.645 232.976 333.039 232.848C333.433 232.72 333.709 232.602 333.867 232.493C334.024 232.385 334.162 232.277 334.28 232.168C334.3 232.139 334.359 232.124 334.458 232.124C334.546 232.124 334.63 232.153 334.709 232.213V236.631L334.724 241.064C334.793 241.133 334.852 241.177 334.901 241.197C334.95 241.217 335.068 241.236 335.256 241.256C335.443 241.276 335.748 241.286 336.172 241.286H336.556V241.965H336.393C336.186 241.936 335.403 241.921 334.044 241.921C332.704 241.921 331.931 241.936 331.724 241.965H331.547V241.286H331.931C332.147 241.286 332.335 241.286 332.492 241.286C332.65 241.286 332.773 241.281 332.862 241.271C332.95 241.261 333.029 241.246 333.098 241.226C333.167 241.207 333.206 241.197 333.216 241.197C333.226 241.197 333.256 241.172 333.305 241.123C333.354 241.074 333.384 241.054 333.394 241.064V233.424Z" fill="#D9EBFF"/>
<path d="M341.36 238.086C341.36 238.086 341.36 237.912 341.36 237.564C341.36 237.215 341.472 236.916 341.695 236.665C341.918 236.414 342.217 236.289 342.593 236.289C342.984 236.289 343.332 236.463 343.639 236.811C343.945 237.16 344.105 237.773 344.119 238.651C344.119 239.138 344.057 239.612 343.931 240.072C343.806 240.532 343.659 240.929 343.492 241.263C343.325 241.598 343.144 241.883 342.949 242.12C342.754 242.357 342.587 242.545 342.447 242.685C342.308 242.824 342.217 242.887 342.175 242.873C342.12 242.873 342.029 242.81 341.904 242.685C341.778 242.559 341.716 242.469 341.716 242.413C341.716 242.357 341.792 242.246 341.946 242.078C342.099 241.911 342.273 241.702 342.468 241.451C342.663 241.201 342.844 240.852 343.012 240.406C343.179 239.96 343.29 239.452 343.346 238.881V238.63L343.325 238.651C343.297 238.665 343.262 238.679 343.221 238.692C343.179 238.706 343.137 238.727 343.095 238.755C343.053 238.783 342.991 238.797 342.907 238.797C342.823 238.797 342.74 238.804 342.656 238.818C342.28 238.818 341.973 238.699 341.737 238.463L341.36 238.086Z" fill="#D9EBFF"/>
<path d="M349.47 232.819C349.484 232.736 349.505 232.624 349.532 232.485C349.56 232.346 349.644 232.081 349.783 231.691C349.923 231.3 350.062 230.973 350.201 230.708C350.341 230.444 350.571 230.186 350.891 229.935C351.211 229.684 351.532 229.566 351.852 229.58C352.354 229.58 352.772 229.705 353.106 229.956C353.441 230.207 353.65 230.444 353.733 230.667C353.817 230.889 353.859 231.036 353.859 231.105C353.859 231.133 353.866 231.147 353.88 231.147L354.11 230.917C354.96 230.026 355.928 229.58 357.015 229.58C357.767 229.58 358.373 229.768 358.833 230.144C359.293 230.52 359.53 231.071 359.544 231.795C359.558 232.52 359.293 233.614 358.75 235.077C358.206 236.54 357.942 237.424 357.955 237.731C357.955 238.093 358.074 238.274 358.311 238.274C358.394 238.274 358.457 238.267 358.499 238.253C358.903 238.184 359.265 237.919 359.586 237.459C359.906 236.999 360.15 236.442 360.317 235.787C360.345 235.676 360.484 235.62 360.735 235.62C361.014 235.62 361.153 235.676 361.153 235.787C361.153 235.801 361.125 235.906 361.07 236.101C360.958 236.505 360.805 236.902 360.61 237.292C360.415 237.682 360.094 238.072 359.648 238.463C359.203 238.853 358.722 239.041 358.206 239.027C357.551 239.027 357.078 238.839 356.785 238.463C356.492 238.086 356.346 237.696 356.346 237.292C356.346 237.027 356.597 236.191 357.099 234.784C357.6 233.377 357.858 232.318 357.872 231.607C357.872 230.785 357.565 230.374 356.952 230.374H356.848C355.649 230.374 354.639 231.078 353.817 232.485L353.671 232.736L352.981 235.536C352.521 237.362 352.257 238.344 352.187 238.483C352.006 238.86 351.706 239.048 351.288 239.048C351.107 239.048 350.961 239.006 350.849 238.922C350.738 238.839 350.661 238.755 350.619 238.672C350.577 238.588 350.564 238.518 350.577 238.463C350.577 238.281 350.842 237.146 351.372 235.056C351.901 232.966 352.18 231.83 352.208 231.649C352.222 231.579 352.229 231.419 352.229 231.168C352.229 230.625 352.061 230.353 351.727 230.353C351.198 230.353 350.759 231.05 350.41 232.443C350.327 232.722 350.285 232.868 350.285 232.882C350.257 232.966 350.125 233.007 349.888 233.007H349.595C349.512 232.924 349.47 232.861 349.47 232.819Z" fill="#D9EBFF"/>
<path d="M363.453 235.124C363.187 235.124 362.98 235.04 362.833 234.872C362.685 234.705 362.606 234.488 362.596 234.222C362.596 233.68 362.833 233.198 363.306 232.774C363.778 232.35 364.35 232.139 365.02 232.139C365.364 232.139 365.581 232.144 365.67 232.153C366.399 232.272 366.955 232.533 367.34 232.937C367.724 233.341 367.921 233.779 367.931 234.252C367.931 234.764 367.763 235.262 367.428 235.744C367.093 236.227 366.63 236.577 366.039 236.793L365.995 236.823C365.995 236.833 366.039 236.848 366.128 236.867C366.217 236.887 366.359 236.931 366.556 237C366.753 237.069 366.941 237.173 367.118 237.311C367.926 237.833 368.33 238.522 368.33 239.379C368.33 240.158 368.024 240.837 367.413 241.419C366.803 242 366.029 242.29 365.094 242.29C364.305 242.29 363.626 242.079 363.054 241.655C362.483 241.231 362.197 240.695 362.197 240.044C362.197 239.768 362.286 239.547 362.463 239.379C362.641 239.212 362.862 239.123 363.128 239.113C363.404 239.113 363.631 239.202 363.808 239.379C363.985 239.557 364.074 239.778 364.074 240.044C364.074 240.153 364.059 240.251 364.03 240.34C364 240.429 363.966 240.507 363.926 240.576C363.887 240.645 363.833 240.704 363.764 240.754C363.695 240.803 363.636 240.842 363.586 240.872C363.537 240.901 363.488 240.921 363.439 240.931C363.389 240.941 363.35 240.956 363.32 240.975L363.261 240.99C363.764 241.433 364.374 241.655 365.094 241.655C365.635 241.655 366.044 241.394 366.32 240.872C366.487 240.547 366.571 240.049 366.571 239.379V239.084C366.571 238.148 366.256 237.522 365.625 237.207C365.478 237.148 365.177 237.114 364.724 237.104L364.103 237.089L364.059 237.059C364.039 237.03 364.03 236.951 364.03 236.823C364.03 236.646 364.069 236.557 364.148 236.557C364.424 236.557 364.709 236.532 365.005 236.483C365.34 236.434 365.645 236.227 365.921 235.862C366.197 235.498 366.335 234.946 366.335 234.207V234.089C366.335 233.528 366.162 233.139 365.818 232.922C365.601 232.784 365.369 232.715 365.123 232.715C364.808 232.715 364.517 232.769 364.251 232.878C363.985 232.986 363.798 233.099 363.69 233.217C363.581 233.336 363.527 233.395 363.527 233.395H363.572C363.601 233.405 363.64 233.414 363.69 233.424C363.739 233.434 363.788 233.459 363.837 233.498C363.887 233.538 363.946 233.572 364.015 233.602C364.084 233.631 364.133 233.685 364.163 233.764C364.192 233.843 364.232 233.917 364.281 233.986C364.33 234.055 364.345 234.153 364.325 234.281C364.325 234.498 364.256 234.69 364.118 234.858C363.98 235.025 363.759 235.114 363.453 235.124Z" fill="#D9EBFF"/>
<path d="M372.711 238.086C372.711 238.086 372.711 237.912 372.711 237.564C372.711 237.215 372.822 236.916 373.045 236.665C373.268 236.414 373.568 236.289 373.944 236.289C374.334 236.289 374.683 236.463 374.989 236.811C375.296 237.16 375.456 237.773 375.47 238.651C375.47 239.138 375.407 239.612 375.282 240.072C375.156 240.532 375.01 240.929 374.843 241.263C374.676 241.598 374.494 241.883 374.299 242.12C374.104 242.357 373.937 242.545 373.798 242.685C373.658 242.824 373.568 242.887 373.526 242.873C373.47 242.873 373.38 242.81 373.254 242.685C373.129 242.559 373.066 242.469 373.066 242.413C373.066 242.357 373.143 242.246 373.296 242.078C373.449 241.911 373.624 241.702 373.819 241.451C374.014 241.201 374.195 240.852 374.362 240.406C374.529 239.96 374.641 239.452 374.697 238.881V238.63L374.676 238.651C374.648 238.665 374.613 238.679 374.571 238.692C374.529 238.706 374.488 238.727 374.446 238.755C374.404 238.783 374.341 238.797 374.258 238.797C374.174 238.797 374.09 238.804 374.007 238.818C373.631 238.818 373.324 238.699 373.087 238.463L372.711 238.086Z" fill="#D9EBFF"/>
<path d="M380.821 232.819C380.835 232.736 380.856 232.624 380.884 232.485C380.912 232.346 380.995 232.081 381.135 231.691C381.274 231.3 381.413 230.973 381.553 230.708C381.692 230.444 381.922 230.186 382.243 229.935C382.563 229.684 382.884 229.566 383.204 229.58C383.706 229.58 384.124 229.705 384.458 229.956C384.792 230.207 385.001 230.444 385.085 230.667C385.169 230.889 385.21 231.036 385.21 231.105C385.21 231.133 385.217 231.147 385.231 231.147L385.461 230.917C386.311 230.026 387.28 229.58 388.366 229.58C389.119 229.58 389.725 229.768 390.185 230.144C390.645 230.52 390.882 231.071 390.895 231.795C390.909 232.52 390.645 233.614 390.101 235.077C389.558 236.54 389.293 237.424 389.307 237.731C389.307 238.093 389.425 238.274 389.662 238.274C389.746 238.274 389.809 238.267 389.85 238.253C390.255 238.184 390.617 237.919 390.937 237.459C391.258 236.999 391.502 236.442 391.669 235.787C391.697 235.676 391.836 235.62 392.087 235.62C392.365 235.62 392.505 235.676 392.505 235.787C392.505 235.801 392.477 235.906 392.421 236.101C392.31 236.505 392.156 236.902 391.961 237.292C391.766 237.682 391.446 238.072 391 238.463C390.554 238.853 390.073 239.041 389.558 239.027C388.903 239.027 388.429 238.839 388.137 238.463C387.844 238.086 387.698 237.696 387.698 237.292C387.698 237.027 387.948 236.191 388.45 234.784C388.952 233.377 389.209 232.318 389.223 231.607C389.223 230.785 388.917 230.374 388.304 230.374H388.199C387.001 230.374 385.991 231.078 385.169 232.485L385.022 232.736L384.333 235.536C383.873 237.362 383.608 238.344 383.538 238.483C383.357 238.86 383.058 239.048 382.64 239.048C382.459 239.048 382.312 239.006 382.201 238.922C382.089 238.839 382.013 238.755 381.971 238.672C381.929 238.588 381.915 238.518 381.929 238.463C381.929 238.281 382.194 237.146 382.723 235.056C383.253 232.966 383.531 231.83 383.559 231.649C383.573 231.579 383.58 231.419 383.58 231.168C383.58 230.625 383.413 230.353 383.079 230.353C382.549 230.353 382.11 231.05 381.762 232.443C381.678 232.722 381.636 232.868 381.636 232.882C381.609 232.966 381.476 233.007 381.239 233.007H380.947C380.863 232.924 380.821 232.861 380.821 232.819Z" fill="#D9EBFF"/>
<path d="M399.755 241.965C399.578 241.936 398.942 241.921 397.849 241.921C396.706 241.921 396.046 241.936 395.869 241.965H395.736V241.286H396.194C396.391 241.286 396.524 241.286 396.593 241.286C396.662 241.286 396.745 241.276 396.844 241.256C396.942 241.236 397.011 241.212 397.051 241.182C397.09 241.153 397.125 241.113 397.154 241.064C397.164 241.044 397.169 240.778 397.169 240.266V239.527H393.342V238.847L395.573 235.434C397.08 233.148 397.844 232.001 397.864 231.991C397.883 231.971 397.987 231.961 398.174 231.961H398.44L398.528 232.05V238.847H399.888V239.527H398.528V240.281C398.528 240.685 398.528 240.921 398.528 240.99C398.528 241.059 398.558 241.118 398.617 241.167C398.696 241.236 398.977 241.276 399.459 241.286H399.888V241.965H399.755ZM397.258 238.847V233.912L394.022 238.833L395.632 238.847H397.258Z" fill="#D9EBFF"/>
<path d="M404.042 238.086C404.042 238.086 404.042 237.912 404.042 237.564C404.042 237.215 404.153 236.916 404.376 236.665C404.599 236.414 404.899 236.289 405.275 236.289C405.665 236.289 406.014 236.463 406.32 236.811C406.627 237.16 406.787 237.773 406.801 238.651C406.801 239.138 406.738 239.612 406.613 240.072C406.487 240.532 406.341 240.929 406.174 241.263C406.007 241.598 405.826 241.883 405.63 242.12C405.435 242.357 405.268 242.545 405.129 242.685C404.989 242.824 404.899 242.887 404.857 242.873C404.801 242.873 404.711 242.81 404.585 242.685C404.46 242.559 404.397 242.469 404.397 242.413C404.397 242.357 404.474 242.246 404.627 242.078C404.78 241.911 404.955 241.702 405.15 241.451C405.345 241.201 405.526 240.852 405.693 240.406C405.86 239.96 405.972 239.452 406.028 238.881V238.63L406.007 238.651C405.979 238.665 405.944 238.679 405.902 238.692C405.86 238.706 405.819 238.727 405.777 238.755C405.735 238.783 405.672 238.797 405.589 238.797C405.505 238.797 405.421 238.804 405.338 238.818C404.962 238.818 404.655 238.699 404.418 238.463L404.042 238.086Z" fill="#D9EBFF"/>
<path d="M412.151 232.819C412.165 232.736 412.186 232.624 412.214 232.485C412.242 232.346 412.326 232.081 412.465 231.691C412.604 231.3 412.744 230.973 412.883 230.708C413.022 230.444 413.252 230.186 413.573 229.935C413.893 229.684 414.214 229.566 414.534 229.58C415.036 229.58 415.454 229.705 415.788 229.956C416.123 230.207 416.332 230.444 416.415 230.667C416.499 230.889 416.541 231.036 416.541 231.105C416.541 231.133 416.548 231.147 416.561 231.147L416.791 230.917C417.641 230.026 418.61 229.58 419.697 229.58C420.449 229.58 421.055 229.768 421.515 230.144C421.975 230.52 422.212 231.071 422.226 231.795C422.239 232.52 421.975 233.614 421.431 235.077C420.888 236.54 420.623 237.424 420.637 237.731C420.637 238.093 420.756 238.274 420.992 238.274C421.076 238.274 421.139 238.267 421.181 238.253C421.585 238.184 421.947 237.919 422.267 237.459C422.588 236.999 422.832 236.442 422.999 235.787C423.027 235.676 423.166 235.62 423.417 235.62C423.696 235.62 423.835 235.676 423.835 235.787C423.835 235.801 423.807 235.906 423.751 236.101C423.64 236.505 423.487 236.902 423.291 237.292C423.096 237.682 422.776 238.072 422.33 238.463C421.884 238.853 421.403 239.041 420.888 239.027C420.233 239.027 419.759 238.839 419.467 238.463C419.174 238.086 419.028 237.696 419.028 237.292C419.028 237.027 419.279 236.191 419.78 234.784C420.282 233.377 420.54 232.318 420.553 231.607C420.553 230.785 420.247 230.374 419.634 230.374H419.529C418.331 230.374 417.321 231.078 416.499 232.485L416.352 232.736L415.663 235.536C415.203 237.362 414.938 238.344 414.868 238.483C414.687 238.86 414.388 239.048 413.97 239.048C413.789 239.048 413.642 239.006 413.531 238.922C413.419 238.839 413.343 238.755 413.301 238.672C413.259 238.588 413.245 238.518 413.259 238.463C413.259 238.281 413.524 237.146 414.053 235.056C414.583 232.966 414.862 231.83 414.889 231.649C414.903 231.579 414.91 231.419 414.91 231.168C414.91 230.625 414.743 230.353 414.409 230.353C413.879 230.353 413.44 231.05 413.092 232.443C413.008 232.722 412.966 232.868 412.966 232.882C412.939 232.966 412.806 233.007 412.569 233.007H412.277C412.193 232.924 412.151 232.861 412.151 232.819Z" fill="#D9EBFF"/>
<path d="M426.682 239.645C426.682 239.882 426.603 240.079 426.445 240.236C426.288 240.394 426.095 240.473 425.869 240.473H425.765C426.219 241.251 426.82 241.64 427.568 241.64C428.258 241.64 428.76 241.345 429.075 240.754C429.263 240.429 429.356 239.798 429.356 238.862C429.356 237.847 429.223 237.163 428.957 236.808C428.701 236.483 428.415 236.321 428.1 236.321H428.012C427.243 236.321 426.662 236.655 426.268 237.325C426.228 237.394 426.194 237.434 426.164 237.444C426.135 237.453 426.061 237.463 425.943 237.473C425.775 237.473 425.682 237.444 425.662 237.384C425.642 237.345 425.632 236.483 425.632 234.799V232.892C425.632 232.4 425.657 232.153 425.706 232.153C425.726 232.134 425.746 232.124 425.765 232.124C425.775 232.124 425.879 232.163 426.076 232.242C426.273 232.321 426.544 232.4 426.889 232.479C427.233 232.557 427.603 232.597 427.997 232.597C428.696 232.597 429.366 232.459 430.006 232.183C430.085 232.144 430.149 232.124 430.199 232.124C430.277 232.124 430.317 232.213 430.317 232.39V232.582C429.509 233.538 428.499 234.015 427.287 234.015C426.982 234.015 426.706 233.986 426.46 233.927L426.312 233.897V236.439C426.499 236.301 426.647 236.192 426.756 236.114C426.864 236.035 427.041 235.956 427.287 235.877C427.534 235.798 427.785 235.759 428.041 235.759C428.839 235.759 429.514 236.079 430.066 236.72C430.617 237.36 430.893 238.118 430.893 238.995C430.893 239.901 430.578 240.675 429.947 241.315C429.317 241.955 428.548 242.281 427.642 242.29C426.844 242.29 426.204 242.024 425.721 241.492C425.238 240.96 424.997 240.36 424.997 239.69C424.997 239.453 425.051 239.266 425.16 239.128C425.268 238.99 425.381 238.902 425.499 238.862C425.618 238.823 425.731 238.803 425.839 238.803C426.086 238.803 426.288 238.887 426.445 239.054C426.603 239.222 426.682 239.419 426.682 239.645Z" fill="#D9EBFF"/>
<path d="M435.393 238.086C435.393 238.086 435.393 237.912 435.393 237.564C435.393 237.215 435.504 236.916 435.727 236.665C435.95 236.414 436.25 236.289 436.626 236.289C437.016 236.289 437.364 236.463 437.671 236.811C437.977 237.16 438.138 237.773 438.151 238.651C438.151 239.138 438.089 239.612 437.963 240.072C437.838 240.532 437.692 240.929 437.524 241.263C437.357 241.598 437.176 241.883 436.981 242.12C436.786 242.357 436.619 242.545 436.479 242.685C436.34 242.824 436.25 242.887 436.208 242.873C436.152 242.873 436.061 242.81 435.936 242.685C435.811 242.559 435.748 242.469 435.748 242.413C435.748 242.357 435.825 242.246 435.978 242.078C436.131 241.911 436.305 241.702 436.5 241.451C436.695 241.201 436.877 240.852 437.044 240.406C437.211 239.96 437.322 239.452 437.378 238.881V238.63L437.357 238.651C437.329 238.665 437.295 238.679 437.253 238.692C437.211 238.706 437.169 238.727 437.127 238.755C437.086 238.783 437.023 238.797 436.939 238.797C436.856 238.797 436.772 238.804 436.688 238.818C436.312 238.818 436.006 238.699 435.769 238.463L435.393 238.086Z" fill="#D9EBFF"/>
<path d="M443.502 232.819C443.516 232.736 443.537 232.624 443.565 232.485C443.593 232.346 443.676 232.081 443.815 231.691C443.955 231.3 444.094 230.973 444.233 230.708C444.373 230.444 444.603 230.186 444.923 229.935C445.244 229.684 445.564 229.566 445.885 229.58C446.386 229.58 446.804 229.705 447.139 229.956C447.473 230.207 447.682 230.444 447.766 230.667C447.849 230.889 447.891 231.036 447.891 231.105C447.891 231.133 447.898 231.147 447.912 231.147L448.142 230.917C448.992 230.026 449.96 229.58 451.047 229.58C451.8 229.58 452.406 229.768 452.866 230.144C453.325 230.52 453.562 231.071 453.576 231.795C453.59 232.52 453.325 233.614 452.782 235.077C452.238 236.54 451.974 237.424 451.988 237.731C451.988 238.093 452.106 238.274 452.343 238.274C452.427 238.274 452.489 238.267 452.531 238.253C452.935 238.184 453.297 237.919 453.618 237.459C453.938 236.999 454.182 236.442 454.349 235.787C454.377 235.676 454.517 235.62 454.767 235.62C455.046 235.62 455.186 235.676 455.186 235.787C455.186 235.801 455.158 235.906 455.102 236.101C454.99 236.505 454.837 236.902 454.642 237.292C454.447 237.682 454.127 238.072 453.681 238.463C453.235 238.853 452.754 239.041 452.238 239.027C451.584 239.027 451.11 238.839 450.817 238.463C450.525 238.086 450.378 237.696 450.378 237.292C450.378 237.027 450.629 236.191 451.131 234.784C451.632 233.377 451.89 232.318 451.904 231.607C451.904 230.785 451.598 230.374 450.984 230.374H450.88C449.682 230.374 448.671 231.078 447.849 232.485L447.703 232.736L447.013 235.536C446.553 237.362 446.289 238.344 446.219 238.483C446.038 238.86 445.738 239.048 445.32 239.048C445.139 239.048 444.993 239.006 444.881 238.922C444.77 238.839 444.693 238.755 444.651 238.672C444.61 238.588 444.596 238.518 444.61 238.463C444.61 238.281 444.874 237.146 445.404 235.056C445.933 232.966 446.212 231.83 446.24 231.649C446.254 231.579 446.261 231.419 446.261 231.168C446.261 230.625 446.094 230.353 445.759 230.353C445.23 230.353 444.791 231.05 444.442 232.443C444.359 232.722 444.317 232.868 444.317 232.882C444.289 232.966 444.157 233.007 443.92 233.007H443.627C443.544 232.924 443.502 232.861 443.502 232.819Z" fill="#D9EBFF"/>
<path d="M456.229 237.34C456.229 235.734 456.628 234.464 457.426 233.528C458.224 232.592 459.111 232.124 460.086 232.124C460.766 232.124 461.254 232.301 461.549 232.656C461.845 233.011 461.992 233.405 461.992 233.838C461.992 234.084 461.923 234.281 461.786 234.429C461.648 234.577 461.456 234.651 461.209 234.651C460.983 234.651 460.795 234.582 460.648 234.444C460.5 234.306 460.426 234.114 460.426 233.868C460.426 233.434 460.658 233.173 461.121 233.084C460.904 232.868 460.598 232.745 460.204 232.715C459.505 232.715 458.929 233.011 458.476 233.602C458.013 234.252 457.781 235.247 457.781 236.587L457.796 236.646C457.845 236.587 457.884 236.523 457.914 236.454C458.318 235.862 458.845 235.567 459.495 235.567H459.554C460.007 235.567 460.406 235.661 460.751 235.848C460.988 235.986 461.224 236.183 461.46 236.439C461.697 236.695 461.889 236.976 462.037 237.281C462.244 237.764 462.347 238.291 462.347 238.862V239.128C462.347 239.355 462.322 239.567 462.273 239.764C462.165 240.345 461.85 240.911 461.327 241.463C460.805 242.015 460.145 242.29 459.347 242.29C459.072 242.29 458.806 242.251 458.549 242.172C458.293 242.093 458.017 241.946 457.722 241.729C457.426 241.512 457.175 241.222 456.968 240.857C456.761 240.493 456.584 240.015 456.436 239.424C456.289 238.833 456.22 238.138 456.229 237.34ZM459.406 236.099C459.111 236.099 458.855 236.183 458.638 236.35C458.421 236.518 458.254 236.739 458.136 237.015C458.017 237.291 457.934 237.572 457.884 237.857C457.835 238.143 457.806 238.448 457.796 238.774C457.796 239.591 457.855 240.177 457.973 240.532C458.091 240.887 458.278 241.172 458.535 241.389C458.771 241.566 459.032 241.655 459.318 241.655C459.82 241.655 460.204 241.468 460.47 241.093C460.598 240.916 460.687 240.695 460.736 240.429C460.786 240.163 460.81 239.645 460.81 238.877C460.81 238.089 460.786 237.562 460.736 237.296C460.687 237.03 460.598 236.808 460.47 236.631C460.204 236.276 459.85 236.099 459.406 236.099Z" fill="#D9EBFF"/>
<path d="M466.723 238.086C466.723 238.086 466.723 237.912 466.723 237.564C466.723 237.215 466.834 236.916 467.057 236.665C467.28 236.414 467.58 236.289 467.956 236.289C468.346 236.289 468.694 236.463 469.001 236.811C469.307 237.16 469.468 237.773 469.482 238.651C469.482 239.138 469.419 239.612 469.293 240.072C469.168 240.532 469.022 240.929 468.855 241.263C468.687 241.598 468.506 241.883 468.311 242.12C468.116 242.357 467.949 242.545 467.809 242.685C467.67 242.824 467.58 242.887 467.538 242.873C467.482 242.873 467.391 242.81 467.266 242.685C467.141 242.559 467.078 242.469 467.078 242.413C467.078 242.357 467.155 242.246 467.308 242.078C467.461 241.911 467.635 241.702 467.83 241.451C468.025 241.201 468.207 240.852 468.374 240.406C468.541 239.96 468.652 239.452 468.708 238.881V238.63L468.687 238.651C468.659 238.665 468.625 238.679 468.583 238.692C468.541 238.706 468.499 238.727 468.457 238.755C468.416 238.783 468.353 238.797 468.269 238.797C468.186 238.797 468.102 238.804 468.019 238.818C467.642 238.818 467.336 238.699 467.099 238.463L466.723 238.086Z" fill="#D9EBFF"/>
<path d="M474.833 232.819C474.847 232.736 474.868 232.624 474.896 232.485C474.924 232.346 475.007 232.081 475.147 231.691C475.286 231.3 475.425 230.973 475.565 230.708C475.704 230.444 475.934 230.186 476.254 229.935C476.575 229.684 476.895 229.566 477.216 229.58C477.717 229.58 478.135 229.705 478.47 229.956C478.804 230.207 479.013 230.444 479.097 230.667C479.18 230.889 479.222 231.036 479.222 231.105C479.222 231.133 479.229 231.147 479.243 231.147L479.473 230.917C480.323 230.026 481.291 229.58 482.378 229.58C483.131 229.58 483.737 229.768 484.197 230.144C484.656 230.52 484.893 231.071 484.907 231.795C484.921 232.52 484.656 233.614 484.113 235.077C483.57 236.54 483.305 237.424 483.319 237.731C483.319 238.093 483.437 238.274 483.674 238.274C483.758 238.274 483.82 238.267 483.862 238.253C484.266 238.184 484.629 237.919 484.949 237.459C485.269 236.999 485.513 236.442 485.681 235.787C485.708 235.676 485.848 235.62 486.099 235.62C486.377 235.62 486.517 235.676 486.517 235.787C486.517 235.801 486.489 235.906 486.433 236.101C486.321 236.505 486.168 236.902 485.973 237.292C485.778 237.682 485.458 238.072 485.012 238.463C484.566 238.853 484.085 239.041 483.57 239.027C482.915 239.027 482.441 238.839 482.148 238.463C481.856 238.086 481.709 237.696 481.709 237.292C481.709 237.027 481.96 236.191 482.462 234.784C482.963 233.377 483.221 232.318 483.235 231.607C483.235 230.785 482.929 230.374 482.315 230.374H482.211C481.013 230.374 480.002 231.078 479.18 232.485L479.034 232.736L478.344 235.536C477.885 237.362 477.62 238.344 477.55 238.483C477.369 238.86 477.069 239.048 476.651 239.048C476.47 239.048 476.324 239.006 476.212 238.922C476.101 238.839 476.024 238.755 475.983 238.672C475.941 238.588 475.927 238.518 475.941 238.463C475.941 238.281 476.205 237.146 476.735 235.056C477.264 232.966 477.543 231.83 477.571 231.649C477.585 231.579 477.592 231.419 477.592 231.168C477.592 230.625 477.425 230.353 477.09 230.353C476.561 230.353 476.122 231.05 475.774 232.443C475.69 232.722 475.648 232.868 475.648 232.882C475.62 232.966 475.488 233.007 475.251 233.007H474.958C474.875 232.924 474.833 232.861 474.833 232.819Z" fill="#D9EBFF"/>
<path d="M487.752 235.198C487.762 235.178 487.846 234.641 488.003 233.587L488.24 232.006C488.24 231.986 488.338 231.976 488.535 231.976H488.831V232.035C488.831 232.134 488.905 232.218 489.052 232.286C489.2 232.355 489.456 232.4 489.821 232.419C490.185 232.439 491.018 232.449 492.318 232.449H494.106V233.025L493.101 234.4C493.013 234.518 492.865 234.715 492.658 234.991C492.451 235.266 492.318 235.449 492.259 235.537C492.2 235.626 492.096 235.784 491.949 236.01C491.801 236.237 491.702 236.414 491.653 236.542C491.604 236.67 491.535 236.853 491.446 237.089C491.358 237.325 491.293 237.552 491.254 237.769C491.215 237.985 491.175 238.251 491.136 238.567C491.096 238.882 491.067 239.217 491.047 239.571C491.027 239.926 491.013 240.33 491.003 240.783C491.003 240.921 491.003 241.059 491.003 241.197C491.003 241.335 490.998 241.453 490.988 241.552V241.685C490.949 241.852 490.855 241.995 490.707 242.113C490.56 242.231 490.392 242.29 490.205 242.29C490.097 242.29 489.993 242.276 489.895 242.246C489.796 242.217 489.693 242.123 489.584 241.965C489.476 241.808 489.422 241.611 489.422 241.374C489.422 239.818 489.9 238.202 490.855 236.527C491.052 236.212 491.466 235.616 492.096 234.739L492.776 233.808H491.402C489.688 233.808 488.786 233.838 488.698 233.897C488.639 233.927 488.584 234.045 488.535 234.252C488.486 234.459 488.437 234.67 488.387 234.887L488.343 235.198V235.242H487.752V235.198Z" fill="#D9EBFF"/>
<path d="M497.698 223.163L497.782 223.142C497.852 223.142 497.921 223.142 497.991 223.142H498.242L498.827 223.644C500.137 224.828 501.091 226.305 501.69 228.075C502.289 229.844 502.589 231.684 502.589 233.593C502.589 234.54 502.519 235.453 502.38 236.331C502.241 237.209 502.08 237.954 501.899 238.567C501.718 239.18 501.46 239.793 501.126 240.406C500.792 241.019 500.527 241.486 500.332 241.807C500.137 242.127 499.851 242.482 499.475 242.873C499.099 243.263 498.876 243.493 498.806 243.562C498.736 243.632 498.576 243.764 498.325 243.959C498.283 244.001 498.256 244.029 498.242 244.043H497.991C497.879 244.043 497.803 244.043 497.761 244.043C497.719 244.043 497.684 244.022 497.656 243.98C497.629 243.939 497.608 243.876 497.594 243.792C497.608 243.778 497.684 243.688 497.824 243.521C499.983 241.277 501.063 237.968 501.063 233.593C501.063 229.217 499.983 225.908 497.824 223.665C497.684 223.498 497.608 223.407 497.594 223.393C497.594 223.282 497.629 223.205 497.698 223.163Z" fill="#D9EBFF"/>
</svg>
