<svg width="700" height="246" viewBox="0 0 700 246" fill="none" xmlns="http://www.w3.org/2000/svg">
<rect width="700" height="245" transform="translate(0 0.5)" fill="#0A0D12"/>
<path d="M199 101.5L274.5 177.167" stroke="#EB5757" stroke-width="2"/>
<path d="M274.5 25.5H425.5M274.5 25.5L350 69.1667L425.5 25.5M274.5 25.5L199 101.167M425.5 25.5L501 101.167L425.5 176.833M425.5 176.833L350 220.5L274.5 176.833H425.5Z" stroke="#B3BFD8" stroke-width="2"/>
<circle cx="200" cy="101.5" r="5" fill="black" stroke="#D9EBFF" stroke-width="2"/>
<circle cx="275" cy="25.5" r="5" fill="black" stroke="#D9EBFF" stroke-width="2"/>
<circle cx="425" cy="25.5" r="5" fill="black" stroke="#D9EBFF" stroke-width="2"/>
<circle cx="350" cy="69.5" r="5" fill="black" stroke="#D9EBFF" stroke-width="2"/>
<circle cx="350" cy="220.5" r="5" fill="black" stroke="#D9EBFF" stroke-width="2"/>
<circle cx="426" cy="176.5" r="5" fill="black" stroke="#D9EBFF" stroke-width="2"/>
<circle cx="274" cy="176.5" r="5" fill="black" stroke="#D9EBFF" stroke-width="2"/>
<circle cx="501" cy="101.5" r="5" fill="black" stroke="#D9EBFF" stroke-width="2"/>
<path d="M169 98.741C169.014 98.6573 169.035 98.5459 169.063 98.4065C169.091 98.2672 169.174 98.0024 169.314 97.6122C169.453 97.2221 169.592 96.8946 169.732 96.6298C169.871 96.3651 170.101 96.1073 170.421 95.8564C170.742 95.6056 171.062 95.4872 171.383 95.5011C171.885 95.5011 172.303 95.6265 172.637 95.8773C172.971 96.1282 173.18 96.3651 173.264 96.588C173.348 96.811 173.389 96.9573 173.389 97.027C173.389 97.0548 173.396 97.0688 173.41 97.0688L173.64 96.8388C174.49 95.947 175.459 95.5011 176.546 95.5011C177.298 95.5011 177.904 95.6892 178.364 96.0655C178.824 96.4417 179.061 96.9921 179.075 97.7167C179.089 98.4414 178.824 99.5352 178.281 100.998C177.737 102.462 177.472 103.346 177.486 103.653C177.486 104.015 177.605 104.196 177.842 104.196C177.925 104.196 177.988 104.189 178.03 104.176C178.434 104.106 178.796 103.841 179.117 103.381C179.437 102.921 179.681 102.364 179.848 101.709C179.876 101.598 180.016 101.542 180.266 101.542C180.545 101.542 180.684 101.598 180.684 101.709C180.684 101.723 180.657 101.828 180.601 102.023C180.489 102.427 180.336 102.824 180.141 103.214C179.946 103.604 179.625 103.994 179.179 104.385C178.733 104.775 178.253 104.963 177.737 104.949C177.082 104.949 176.608 104.761 176.316 104.385C176.023 104.008 175.877 103.618 175.877 103.214C175.877 102.949 176.128 102.113 176.629 100.706C177.131 99.2983 177.389 98.2393 177.403 97.5286C177.403 96.7065 177.096 96.2954 176.483 96.2954H176.379C175.18 96.2954 174.17 96.9991 173.348 98.4065L173.201 98.6573L172.512 101.458C172.052 103.284 171.787 104.266 171.717 104.405C171.536 104.782 171.237 104.97 170.818 104.97C170.637 104.97 170.491 104.928 170.38 104.844C170.268 104.761 170.191 104.677 170.15 104.594C170.108 104.51 170.094 104.44 170.108 104.385C170.108 104.203 170.373 103.068 170.902 100.977C171.432 98.8873 171.71 97.7516 171.738 97.5704C171.752 97.5008 171.759 97.3405 171.759 97.0897C171.759 96.5462 171.592 96.2745 171.257 96.2745C170.728 96.2745 170.289 96.9712 169.941 98.3647C169.857 98.6434 169.815 98.7897 169.815 98.8037C169.787 98.8873 169.655 98.9291 169.418 98.9291H169.125C169.042 98.8455 169 98.7828 169 98.741Z" fill="#D9EBFF"/>
<path d="M182.526 99.2425C183.078 98.4445 183.832 98.0455 184.787 98.0455C185.26 98.0455 185.733 98.1736 186.206 98.4297C186.679 98.6859 187.063 99.1391 187.359 99.7893C187.723 100.607 187.905 101.73 187.905 103.159C187.905 104.686 187.694 105.853 187.27 106.661C187.073 107.075 186.802 107.405 186.457 107.651C186.112 107.897 185.812 108.05 185.556 108.109C185.3 108.168 185.048 108.203 184.802 108.213C184.546 108.213 184.29 108.183 184.034 108.124C183.777 108.065 183.477 107.907 183.132 107.651C182.787 107.395 182.516 107.065 182.319 106.661C181.896 105.853 181.684 104.686 181.684 103.159C181.684 101.444 181.965 100.139 182.526 99.2425ZM185.851 99.0652C185.556 98.7499 185.206 98.5923 184.802 98.5923C184.388 98.5923 184.034 98.7499 183.738 99.0652C183.492 99.3213 183.329 99.676 183.25 100.129C183.171 100.582 183.132 101.528 183.132 102.967C183.132 104.523 183.171 105.548 183.25 106.04C183.329 106.533 183.506 106.922 183.782 107.208C184.058 107.503 184.398 107.651 184.802 107.651C185.196 107.651 185.531 107.503 185.807 107.208C186.093 106.912 186.27 106.498 186.339 105.966C186.408 105.434 186.447 104.434 186.457 102.967C186.457 101.538 186.418 100.597 186.339 100.144C186.26 99.6908 186.098 99.3312 185.851 99.0652Z" fill="#D9EBFF"/>
<path d="M261 187.741C261.014 187.657 261.035 187.546 261.063 187.407C261.091 187.267 261.174 187.002 261.314 186.612C261.453 186.222 261.592 185.895 261.732 185.63C261.871 185.365 262.101 185.107 262.421 184.856C262.742 184.606 263.062 184.487 263.383 184.501C263.885 184.501 264.303 184.627 264.637 184.877C264.971 185.128 265.18 185.365 265.264 185.588C265.348 185.811 265.389 185.957 265.389 186.027C265.389 186.055 265.396 186.069 265.41 186.069L265.64 185.839C266.49 184.947 267.459 184.501 268.546 184.501C269.298 184.501 269.904 184.689 270.364 185.065C270.824 185.442 271.061 185.992 271.075 186.717C271.089 187.441 270.824 188.535 270.281 189.998C269.737 191.462 269.472 192.346 269.486 192.653C269.486 193.015 269.605 193.196 269.842 193.196C269.925 193.196 269.988 193.189 270.03 193.176C270.434 193.106 270.796 192.841 271.117 192.381C271.437 191.921 271.681 191.364 271.848 190.709C271.876 190.598 272.016 190.542 272.266 190.542C272.545 190.542 272.684 190.598 272.684 190.709C272.684 190.723 272.657 190.828 272.601 191.023C272.489 191.427 272.336 191.824 272.141 192.214C271.946 192.604 271.625 192.994 271.179 193.385C270.733 193.775 270.253 193.963 269.737 193.949C269.082 193.949 268.608 193.761 268.316 193.385C268.023 193.008 267.877 192.618 267.877 192.214C267.877 191.949 268.128 191.113 268.629 189.706C269.131 188.298 269.389 187.239 269.403 186.529C269.403 185.706 269.096 185.295 268.483 185.295H268.379C267.18 185.295 266.17 185.999 265.348 187.407L265.201 187.657L264.512 190.458C264.052 192.284 263.787 193.266 263.717 193.405C263.536 193.782 263.237 193.97 262.818 193.97C262.637 193.97 262.491 193.928 262.38 193.844C262.268 193.761 262.191 193.677 262.15 193.594C262.108 193.51 262.094 193.44 262.108 193.385C262.108 193.203 262.373 192.068 262.902 189.977C263.432 187.887 263.71 186.752 263.738 186.57C263.752 186.501 263.759 186.341 263.759 186.09C263.759 185.546 263.592 185.274 263.257 185.274C262.728 185.274 262.289 185.971 261.941 187.365C261.857 187.643 261.815 187.79 261.815 187.804C261.787 187.887 261.655 187.929 261.418 187.929H261.125C261.042 187.845 261 187.783 261 187.741Z" fill="#D9EBFF"/>
<path d="M276.255 188.346L276.063 188.42C275.925 188.469 275.728 188.518 275.472 188.568C275.216 188.617 274.93 188.651 274.615 188.671H274.334V187.991H274.615C275.078 187.972 275.506 187.898 275.901 187.77C276.295 187.642 276.57 187.523 276.728 187.415C276.886 187.307 277.024 187.198 277.142 187.09C277.162 187.06 277.221 187.046 277.319 187.046C277.408 187.046 277.492 187.075 277.57 187.134V191.553L277.585 195.986C277.654 196.055 277.713 196.099 277.763 196.119C277.812 196.139 277.93 196.159 278.117 196.178C278.304 196.198 278.61 196.208 279.033 196.208H279.418V196.888H279.255C279.048 196.858 278.265 196.843 276.905 196.843C275.566 196.843 274.792 196.858 274.585 196.888H274.408V196.208H274.792C275.009 196.208 275.196 196.208 275.354 196.208C275.511 196.208 275.635 196.203 275.723 196.193C275.812 196.183 275.891 196.168 275.96 196.149C276.029 196.129 276.068 196.119 276.078 196.119C276.088 196.119 276.117 196.095 276.167 196.045C276.216 195.996 276.245 195.976 276.255 195.986V188.346Z" fill="#D9EBFF"/>
<path d="M341 232.741C341.014 232.657 341.035 232.546 341.063 232.407C341.091 232.267 341.174 232.002 341.314 231.612C341.453 231.222 341.592 230.895 341.732 230.63C341.871 230.365 342.101 230.107 342.421 229.856C342.742 229.606 343.062 229.487 343.383 229.501C343.885 229.501 344.303 229.627 344.637 229.877C344.971 230.128 345.18 230.365 345.264 230.588C345.348 230.811 345.389 230.957 345.389 231.027C345.389 231.055 345.396 231.069 345.41 231.069L345.64 230.839C346.49 229.947 347.459 229.501 348.546 229.501C349.298 229.501 349.904 229.689 350.364 230.065C350.824 230.442 351.061 230.992 351.075 231.717C351.089 232.441 350.824 233.535 350.281 234.998C349.737 236.462 349.472 237.346 349.486 237.653C349.486 238.015 349.605 238.196 349.842 238.196C349.925 238.196 349.988 238.189 350.03 238.176C350.434 238.106 350.796 237.841 351.117 237.381C351.437 236.921 351.681 236.364 351.848 235.709C351.876 235.598 352.016 235.542 352.266 235.542C352.545 235.542 352.684 235.598 352.684 235.709C352.684 235.723 352.657 235.828 352.601 236.023C352.489 236.427 352.336 236.824 352.141 237.214C351.946 237.604 351.625 237.994 351.179 238.385C350.733 238.775 350.253 238.963 349.737 238.949C349.082 238.949 348.608 238.761 348.316 238.385C348.023 238.008 347.877 237.618 347.877 237.214C347.877 236.949 348.128 236.113 348.629 234.706C349.131 233.298 349.389 232.239 349.403 231.529C349.403 230.706 349.096 230.295 348.483 230.295H348.379C347.18 230.295 346.17 230.999 345.348 232.407L345.201 232.657L344.512 235.458C344.052 237.284 343.787 238.266 343.717 238.405C343.536 238.782 343.237 238.97 342.819 238.97C342.637 238.97 342.491 238.928 342.38 238.844C342.268 238.761 342.191 238.677 342.15 238.594C342.108 238.51 342.094 238.44 342.108 238.385C342.108 238.203 342.373 237.068 342.902 234.977C343.432 232.887 343.71 231.752 343.738 231.57C343.752 231.501 343.759 231.341 343.759 231.09C343.759 230.546 343.592 230.274 343.257 230.274C342.728 230.274 342.289 230.971 341.941 232.365C341.857 232.643 341.815 232.79 341.815 232.804C341.787 232.887 341.655 232.929 341.418 232.929H341.125C341.042 232.845 341 232.783 341 232.741Z" fill="#D9EBFF"/>
<path d="M354.718 235.548C354.452 235.548 354.24 235.459 354.083 235.282C353.925 235.105 353.846 234.888 353.846 234.632C353.846 233.932 354.107 233.326 354.63 232.814C355.152 232.302 355.802 232.046 356.58 232.046C357.477 232.046 358.226 232.321 358.827 232.873C359.428 233.425 359.733 234.139 359.743 235.016C359.743 235.44 359.644 235.843 359.447 236.228C359.25 236.612 359.014 236.947 358.738 237.233C358.462 237.518 358.068 237.883 357.556 238.326C357.201 238.632 356.708 239.085 356.078 239.686L355.206 240.513L356.329 240.528C357.876 240.528 358.698 240.503 358.797 240.454C358.866 240.434 358.984 239.996 359.152 239.139V239.095H359.743V239.139C359.733 239.168 359.669 239.617 359.551 240.484C359.432 241.351 359.359 241.804 359.329 241.843V241.888H353.846V241.429C353.846 241.361 353.876 241.287 353.935 241.208C353.994 241.129 354.142 240.957 354.378 240.691C354.664 240.375 354.91 240.099 355.117 239.863C355.206 239.765 355.373 239.582 355.62 239.316C355.866 239.05 356.034 238.868 356.122 238.769C356.211 238.671 356.354 238.508 356.551 238.282C356.748 238.055 356.886 237.888 356.965 237.779C357.043 237.671 357.157 237.523 357.304 237.336C357.452 237.149 357.556 236.991 357.615 236.863C357.674 236.735 357.748 236.592 357.836 236.435C357.925 236.277 357.989 236.119 358.029 235.962C358.068 235.804 358.102 235.656 358.132 235.518C358.162 235.38 358.176 235.218 358.176 235.031C358.176 234.41 358.009 233.873 357.674 233.42C357.339 232.967 356.861 232.74 356.24 232.74C355.915 232.74 355.63 232.824 355.383 232.991C355.137 233.159 354.965 233.321 354.866 233.479C354.768 233.637 354.718 233.73 354.718 233.76C354.718 233.77 354.743 233.775 354.792 233.775C354.97 233.775 355.152 233.843 355.339 233.981C355.526 234.119 355.62 234.346 355.62 234.661C355.62 234.908 355.541 235.114 355.383 235.282C355.226 235.449 355.004 235.538 354.718 235.548Z" fill="#D9EBFF"/>
<path d="M420 188.741C420.014 188.657 420.035 188.546 420.063 188.407C420.091 188.267 420.174 188.002 420.314 187.612C420.453 187.222 420.592 186.895 420.732 186.63C420.871 186.365 421.101 186.107 421.421 185.856C421.742 185.606 422.062 185.487 422.383 185.501C422.885 185.501 423.303 185.627 423.637 185.877C423.971 186.128 424.18 186.365 424.264 186.588C424.348 186.811 424.389 186.957 424.389 187.027C424.389 187.055 424.396 187.069 424.41 187.069L424.64 186.839C425.49 185.947 426.459 185.501 427.546 185.501C428.298 185.501 428.904 185.689 429.364 186.065C429.824 186.442 430.061 186.992 430.075 187.717C430.089 188.441 429.824 189.535 429.281 190.998C428.737 192.462 428.472 193.346 428.486 193.653C428.486 194.015 428.605 194.196 428.842 194.196C428.925 194.196 428.988 194.189 429.03 194.176C429.434 194.106 429.796 193.841 430.117 193.381C430.437 192.921 430.681 192.364 430.848 191.709C430.876 191.598 431.016 191.542 431.266 191.542C431.545 191.542 431.684 191.598 431.684 191.709C431.684 191.723 431.657 191.828 431.601 192.023C431.489 192.427 431.336 192.824 431.141 193.214C430.946 193.604 430.625 193.994 430.179 194.385C429.733 194.775 429.253 194.963 428.737 194.949C428.082 194.949 427.608 194.761 427.316 194.385C427.023 194.008 426.877 193.618 426.877 193.214C426.877 192.949 427.128 192.113 427.629 190.706C428.131 189.298 428.389 188.239 428.403 187.529C428.403 186.706 428.096 186.295 427.483 186.295H427.379C426.18 186.295 425.17 186.999 424.348 188.407L424.201 188.657L423.512 191.458C423.052 193.284 422.787 194.266 422.717 194.405C422.536 194.782 422.237 194.97 421.818 194.97C421.637 194.97 421.491 194.928 421.38 194.844C421.268 194.761 421.191 194.677 421.15 194.594C421.108 194.51 421.094 194.44 421.108 194.385C421.108 194.203 421.373 193.068 421.902 190.977C422.432 188.887 422.71 187.752 422.738 187.57C422.752 187.501 422.759 187.341 422.759 187.09C422.759 186.546 422.592 186.274 422.257 186.274C421.728 186.274 421.289 186.971 420.941 188.365C420.857 188.643 420.815 188.79 420.815 188.804C420.787 188.887 420.655 188.929 420.418 188.929H420.125C420.042 188.845 420 188.783 420 188.741Z" fill="#D9EBFF"/>
<path d="M433.984 191.045C433.718 191.045 433.511 190.962 433.364 190.794C433.216 190.627 433.137 190.41 433.127 190.144C433.127 189.602 433.364 189.119 433.837 188.696C434.309 188.272 434.881 188.06 435.551 188.06C435.896 188.06 436.112 188.065 436.201 188.075C436.93 188.193 437.487 188.454 437.871 188.858C438.255 189.262 438.452 189.701 438.462 190.174C438.462 190.686 438.295 191.183 437.96 191.666C437.625 192.149 437.162 192.499 436.57 192.715L436.526 192.745C436.526 192.755 436.57 192.77 436.659 192.789C436.748 192.809 436.891 192.853 437.088 192.922C437.285 192.991 437.472 193.095 437.649 193.233C438.457 193.755 438.861 194.444 438.861 195.301C438.861 196.08 438.556 196.76 437.945 197.341C437.334 197.922 436.561 198.213 435.625 198.213C434.836 198.213 434.157 198.001 433.585 197.577C433.014 197.154 432.728 196.617 432.728 195.966C432.728 195.691 432.817 195.469 432.994 195.301C433.172 195.134 433.393 195.045 433.659 195.035C433.935 195.035 434.162 195.124 434.339 195.301C434.516 195.479 434.605 195.7 434.605 195.966C434.605 196.075 434.59 196.173 434.561 196.262C434.531 196.351 434.497 196.43 434.457 196.498C434.418 196.567 434.364 196.627 434.295 196.676C434.226 196.725 434.167 196.764 434.117 196.794C434.068 196.824 434.019 196.843 433.97 196.853C433.92 196.863 433.881 196.878 433.851 196.897L433.792 196.912C434.295 197.356 434.905 197.577 435.625 197.577C436.167 197.577 436.575 197.316 436.851 196.794C437.019 196.469 437.102 195.971 437.102 195.301V195.006C437.102 194.07 436.787 193.444 436.157 193.129C436.009 193.07 435.708 193.036 435.255 193.026L434.635 193.011L434.59 192.981C434.57 192.952 434.561 192.873 434.561 192.745C434.561 192.568 434.6 192.479 434.679 192.479C434.955 192.479 435.24 192.454 435.536 192.405C435.871 192.356 436.176 192.149 436.452 191.784C436.728 191.42 436.866 190.868 436.866 190.129V190.011C436.866 189.449 436.694 189.06 436.349 188.844C436.132 188.706 435.9 188.637 435.654 188.637C435.339 188.637 435.048 188.691 434.782 188.799C434.516 188.908 434.329 189.021 434.221 189.139C434.112 189.257 434.058 189.316 434.058 189.316H434.103C434.132 189.326 434.171 189.336 434.221 189.346C434.27 189.356 434.319 189.38 434.369 189.42C434.418 189.459 434.477 189.494 434.546 189.523C434.615 189.553 434.664 189.607 434.694 189.686C434.723 189.765 434.763 189.839 434.812 189.908C434.861 189.976 434.876 190.075 434.856 190.203C434.856 190.42 434.787 190.612 434.649 190.779C434.511 190.947 434.29 191.036 433.984 191.045Z" fill="#D9EBFF"/>
<path d="M511 99.741C511.014 99.6573 511.035 99.5459 511.063 99.4065C511.091 99.2672 511.174 99.0024 511.314 98.6122C511.453 98.2221 511.592 97.8946 511.732 97.6298C511.871 97.3651 512.101 97.1073 512.421 96.8564C512.742 96.6056 513.062 96.4872 513.383 96.5011C513.885 96.5011 514.303 96.6265 514.637 96.8773C514.971 97.1282 515.18 97.3651 515.264 97.588C515.348 97.811 515.389 97.9573 515.389 98.027C515.389 98.0548 515.396 98.0688 515.41 98.0688L515.64 97.8388C516.49 96.947 517.459 96.5011 518.546 96.5011C519.298 96.5011 519.904 96.6892 520.364 97.0655C520.824 97.4417 521.061 97.9921 521.075 98.7167C521.089 99.4414 520.824 100.535 520.281 101.998C519.737 103.462 519.472 104.346 519.486 104.653C519.486 105.015 519.605 105.196 519.842 105.196C519.925 105.196 519.988 105.189 520.03 105.176C520.434 105.106 520.796 104.841 521.117 104.381C521.437 103.921 521.681 103.364 521.848 102.709C521.876 102.598 522.016 102.542 522.266 102.542C522.545 102.542 522.684 102.598 522.684 102.709C522.684 102.723 522.657 102.828 522.601 103.023C522.489 103.427 522.336 103.824 522.141 104.214C521.946 104.604 521.625 104.994 521.179 105.385C520.733 105.775 520.253 105.963 519.737 105.949C519.082 105.949 518.608 105.761 518.316 105.385C518.023 105.008 517.877 104.618 517.877 104.214C517.877 103.949 518.128 103.113 518.629 101.706C519.131 100.298 519.389 99.2393 519.403 98.5286C519.403 97.7065 519.096 97.2954 518.483 97.2954H518.379C517.18 97.2954 516.17 97.9991 515.348 99.4065L515.201 99.6573L514.512 102.458C514.052 104.284 513.787 105.266 513.717 105.405C513.536 105.782 513.237 105.97 512.818 105.97C512.637 105.97 512.491 105.928 512.38 105.844C512.268 105.761 512.191 105.677 512.15 105.594C512.108 105.51 512.094 105.44 512.108 105.385C512.108 105.203 512.373 104.068 512.902 101.977C513.432 99.8873 513.71 98.7516 513.738 98.5704C513.752 98.5008 513.759 98.3405 513.759 98.0897C513.759 97.5462 513.592 97.2745 513.257 97.2745C512.728 97.2745 512.289 97.9712 511.941 99.3647C511.857 99.6434 511.815 99.7897 511.815 99.8037C511.787 99.8873 511.655 99.9291 511.418 99.9291H511.125C511.042 99.8455 511 99.7828 511 99.741Z" fill="#D9EBFF"/>
<path d="M529.935 108.888C529.758 108.858 529.122 108.843 528.029 108.843C526.886 108.843 526.226 108.858 526.048 108.888H525.915V108.208H526.373C526.57 108.208 526.703 108.208 526.772 108.208C526.841 108.208 526.925 108.198 527.024 108.178C527.122 108.159 527.191 108.134 527.231 108.104C527.27 108.075 527.304 108.035 527.334 107.986C527.344 107.966 527.349 107.7 527.349 107.188V106.449H523.521V105.769L525.753 102.356C527.26 100.07 528.024 98.9224 528.043 98.9125C528.063 98.8928 528.166 98.883 528.354 98.883H528.62L528.708 98.9716V105.769H530.068V106.449H528.708V107.203C528.708 107.607 528.708 107.843 528.708 107.912C528.708 107.981 528.738 108.04 528.797 108.09C528.876 108.159 529.157 108.198 529.639 108.208H530.068V108.888H529.935ZM527.437 105.769V100.834L524.201 105.755L525.812 105.769H527.437Z" fill="#D9EBFF"/>
<path d="M419 10.741C419.014 10.6573 419.035 10.5459 419.063 10.4065C419.091 10.2672 419.174 10.0024 419.314 9.61223C419.453 9.22205 419.592 8.89459 419.732 8.62982C419.871 8.36506 420.101 8.10727 420.421 7.85644C420.742 7.60561 421.062 7.48717 421.383 7.5011C421.885 7.5011 422.303 7.62651 422.637 7.87734C422.971 8.12817 423.18 8.36506 423.264 8.58802C423.348 8.81098 423.389 8.95729 423.389 9.02697C423.389 9.05484 423.396 9.06877 423.41 9.06877L423.64 8.83885C424.49 7.94702 425.459 7.5011 426.546 7.5011C427.298 7.5011 427.904 7.68922 428.364 8.06546C428.824 8.4417 429.061 8.99213 429.075 9.71674C429.089 10.4414 428.824 11.5352 428.281 12.9984C427.737 14.4616 427.472 15.3464 427.486 15.653C427.486 16.0153 427.605 16.1964 427.842 16.1964C427.925 16.1964 427.988 16.1895 428.03 16.1755C428.434 16.1059 428.796 15.8411 429.117 15.3813C429.437 14.9214 429.681 14.364 429.848 13.7091C429.876 13.5976 430.016 13.5419 430.266 13.5419C430.545 13.5419 430.684 13.5976 430.684 13.7091C430.684 13.723 430.657 13.8275 430.601 14.0226C430.489 14.4267 430.336 14.8239 430.141 15.214C429.946 15.6042 429.625 15.9944 429.179 16.3846C428.733 16.7747 428.253 16.9629 427.737 16.9489C427.082 16.9489 426.608 16.7608 426.316 16.3846C426.023 16.0083 425.877 15.6182 425.877 15.214C425.877 14.9493 426.128 14.1132 426.629 12.7058C427.131 11.2983 427.389 10.2393 427.403 9.52862C427.403 8.70647 427.096 8.29539 426.483 8.29539H426.379C425.18 8.29539 424.17 8.9991 423.348 10.4065L423.201 10.6573L422.512 13.4583C422.052 15.2837 421.787 16.2661 421.717 16.4055C421.536 16.7817 421.237 16.9698 420.818 16.9698C420.637 16.9698 420.491 16.928 420.38 16.8444C420.268 16.7608 420.191 16.6772 420.15 16.5936C420.108 16.51 420.094 16.4403 420.108 16.3846C420.108 16.2034 420.373 15.0677 420.902 12.9775C421.432 10.8873 421.71 9.75158 421.738 9.57043C421.752 9.50075 421.759 9.3405 421.759 9.08967C421.759 8.54621 421.592 8.27448 421.257 8.27448C420.728 8.27448 420.289 8.97123 419.941 10.3647C419.857 10.6434 419.815 10.7897 419.815 10.8037C419.787 10.8873 419.655 10.9291 419.418 10.9291H419.125C419.042 10.8455 419 10.7828 419 10.741Z" fill="#D9EBFF"/>
<path d="M433.531 17.5675C433.531 17.8039 433.452 18.001 433.295 18.1586C433.137 18.3162 432.945 18.395 432.718 18.395H432.615C433.068 19.1733 433.669 19.5625 434.418 19.5625C435.107 19.5625 435.61 19.2669 435.925 18.6758C436.112 18.3507 436.206 17.7202 436.206 16.7842C436.206 15.7695 436.073 15.0848 435.807 14.7301C435.551 14.405 435.265 14.2424 434.95 14.2424H434.861C434.093 14.2424 433.511 14.5774 433.117 15.2473C433.078 15.3163 433.043 15.3557 433.014 15.3656C432.984 15.3754 432.91 15.3853 432.792 15.3951C432.625 15.3951 432.531 15.3656 432.511 15.3065C432.492 15.267 432.482 14.405 432.482 12.7203V10.814C432.482 10.3214 432.506 10.0751 432.556 10.0751C432.575 10.0554 432.595 10.0455 432.615 10.0455C432.625 10.0455 432.728 10.0849 432.925 10.1637C433.122 10.2426 433.393 10.3214 433.738 10.4002C434.083 10.479 434.452 10.5184 434.846 10.5184C435.546 10.5184 436.216 10.3805 436.856 10.1046C436.935 10.0652 436.999 10.0455 437.048 10.0455C437.127 10.0455 437.166 10.1342 437.166 10.3115V10.5036C436.359 11.4593 435.349 11.9371 434.137 11.9371C433.832 11.9371 433.556 11.9075 433.309 11.8484L433.162 11.8189V14.3607C433.349 14.2227 433.497 14.1144 433.605 14.0356C433.713 13.9567 433.891 13.8779 434.137 13.7991C434.383 13.7203 434.634 13.6809 434.891 13.6809C435.689 13.6809 436.364 14.0011 436.915 14.6414C437.467 15.2818 437.743 16.0404 437.743 16.9172C437.743 17.8236 437.428 18.597 436.797 19.2374C436.166 19.8778 435.398 20.2029 434.492 20.2127C433.694 20.2127 433.053 19.9467 432.571 19.4147C432.088 18.8827 431.846 18.2817 431.846 17.6118C431.846 17.3754 431.901 17.1882 432.009 17.0502C432.117 16.9123 432.231 16.8237 432.349 16.7842C432.467 16.7448 432.58 16.7251 432.689 16.7251C432.935 16.7251 433.137 16.8089 433.295 16.9764C433.452 17.1438 433.531 17.3409 433.531 17.5675Z" fill="#D9EBFF"/>
<path d="M265 7.74095C265.014 7.65734 265.035 7.54587 265.063 7.40652C265.091 7.26717 265.174 7.00241 265.314 6.61223C265.453 6.22205 265.592 5.89459 265.732 5.62982C265.871 5.36506 266.101 5.10727 266.421 4.85644C266.742 4.60561 267.062 4.48717 267.383 4.5011C267.885 4.5011 268.303 4.62651 268.637 4.87734C268.971 5.12817 269.18 5.36506 269.264 5.58802C269.348 5.81098 269.389 5.95729 269.389 6.02697C269.389 6.05484 269.396 6.06877 269.41 6.06877L269.64 5.83885C270.49 4.94702 271.459 4.5011 272.546 4.5011C273.298 4.5011 273.904 4.68922 274.364 5.06546C274.824 5.4417 275.061 5.99213 275.075 6.71674C275.089 7.44135 274.824 8.53524 274.281 9.9984C273.737 11.4616 273.472 12.3464 273.486 12.653C273.486 13.0153 273.605 13.1964 273.842 13.1964C273.925 13.1964 273.988 13.1895 274.03 13.1755C274.434 13.1059 274.796 12.8411 275.117 12.3813C275.437 11.9214 275.681 11.364 275.848 10.7091C275.876 10.5976 276.015 10.5419 276.266 10.5419C276.545 10.5419 276.684 10.5976 276.684 10.7091C276.684 10.723 276.657 10.8275 276.601 11.0226C276.489 11.4267 276.336 11.8239 276.141 12.214C275.946 12.6042 275.625 12.9944 275.179 13.3846C274.733 13.7747 274.253 13.9629 273.737 13.9489C273.082 13.9489 272.608 13.7608 272.316 13.3846C272.023 13.0083 271.877 12.6182 271.877 12.214C271.877 11.9493 272.128 11.1132 272.629 9.70577C273.131 8.29835 273.389 7.2393 273.403 6.52862C273.403 5.70647 273.096 5.29539 272.483 5.29539H272.379C271.18 5.29539 270.17 5.9991 269.348 7.40652L269.201 7.65734L268.512 10.4583C268.052 12.2837 267.787 13.2661 267.717 13.4055C267.536 13.7817 267.237 13.9698 266.818 13.9698C266.637 13.9698 266.491 13.928 266.38 13.8444C266.268 13.7608 266.191 13.6772 266.15 13.5936C266.108 13.51 266.094 13.4403 266.108 13.3846C266.108 13.2034 266.373 12.0677 266.902 9.9775C267.432 7.88727 267.71 6.75158 267.738 6.57043C267.752 6.50075 267.759 6.3405 267.759 6.08967C267.759 5.54621 267.592 5.27448 267.257 5.27448C266.728 5.27448 266.289 5.97123 265.941 7.36471C265.857 7.64341 265.815 7.78973 265.815 7.80366C265.787 7.88727 265.655 7.92907 265.418 7.92907H265.125C265.042 7.84547 265 7.78276 265 7.74095Z" fill="#D9EBFF"/>
<path d="M277.92 10.1193C277.93 10.0996 278.014 9.56268 278.172 8.50853L278.408 6.92729C278.408 6.90759 278.506 6.89773 278.704 6.89773H278.999V6.95685C278.999 7.05537 279.073 7.13911 279.221 7.20807C279.369 7.27703 279.625 7.32137 279.989 7.34107C280.354 7.36078 281.186 7.37063 282.487 7.37063H284.275V7.94697L283.27 9.32131C283.181 9.43954 283.033 9.63657 282.827 9.91243C282.62 10.1883 282.487 10.3705 282.428 10.4592C282.368 10.5479 282.265 10.7055 282.117 10.9321C281.969 11.1587 281.871 11.336 281.822 11.4641C281.772 11.5922 281.703 11.7744 281.615 12.0109C281.526 12.2473 281.462 12.4739 281.423 12.6907C281.383 12.9074 281.344 13.1734 281.304 13.4887C281.265 13.8039 281.235 14.1389 281.216 14.4936C281.196 14.8483 281.181 15.2522 281.171 15.7054C281.171 15.8433 281.171 15.9812 281.171 16.1192C281.171 16.2571 281.166 16.3753 281.157 16.4738V16.6068C281.117 16.7743 281.024 16.9172 280.876 17.0354C280.728 17.1536 280.561 17.2127 280.373 17.2127C280.265 17.2127 280.162 17.1979 280.063 17.1684C279.965 17.1388 279.861 17.0452 279.753 16.8876C279.644 16.73 279.59 16.5329 279.59 16.2965C279.59 14.7399 280.068 13.1242 281.024 11.4493C281.221 11.1341 281.634 10.538 282.265 9.6612L282.945 8.7302H281.57C279.856 8.7302 278.955 8.75975 278.866 8.81886C278.807 8.84842 278.753 8.96664 278.704 9.17353C278.654 9.38042 278.605 9.59224 278.556 9.80898L278.511 10.1193V10.1637H277.92V10.1193Z" fill="#D9EBFF"/>
<path d="M341 83.741C341.014 83.6573 341.035 83.5459 341.063 83.4065C341.091 83.2672 341.174 83.0024 341.314 82.6122C341.453 82.2221 341.592 81.8946 341.732 81.6298C341.871 81.3651 342.101 81.1073 342.421 80.8564C342.742 80.6056 343.062 80.4872 343.383 80.5011C343.885 80.5011 344.303 80.6265 344.637 80.8773C344.971 81.1282 345.18 81.3651 345.264 81.588C345.348 81.811 345.389 81.9573 345.389 82.027C345.389 82.0548 345.396 82.0688 345.41 82.0688L345.64 81.8388C346.49 80.947 347.459 80.5011 348.546 80.5011C349.298 80.5011 349.904 80.6892 350.364 81.0655C350.824 81.4417 351.061 81.9921 351.075 82.7167C351.089 83.4414 350.824 84.5352 350.281 85.9984C349.737 87.4616 349.472 88.3464 349.486 88.653C349.486 89.0153 349.605 89.1964 349.842 89.1964C349.925 89.1964 349.988 89.1895 350.03 89.1755C350.434 89.1059 350.796 88.8411 351.117 88.3813C351.437 87.9214 351.681 87.364 351.848 86.7091C351.876 86.5976 352.016 86.5419 352.266 86.5419C352.545 86.5419 352.684 86.5976 352.684 86.7091C352.684 86.723 352.657 86.8275 352.601 87.0226C352.489 87.4267 352.336 87.8239 352.141 88.214C351.946 88.6042 351.625 88.9944 351.179 89.3846C350.733 89.7747 350.253 89.9629 349.737 89.9489C349.082 89.9489 348.608 89.7608 348.316 89.3846C348.023 89.0083 347.877 88.6182 347.877 88.214C347.877 87.9493 348.128 87.1132 348.629 85.7058C349.131 84.2983 349.389 83.2393 349.403 82.5286C349.403 81.7065 349.096 81.2954 348.483 81.2954H348.379C347.18 81.2954 346.17 81.9991 345.348 83.4065L345.201 83.6573L344.512 86.4583C344.052 88.2837 343.787 89.2661 343.717 89.4055C343.536 89.7817 343.237 89.9698 342.818 89.9698C342.637 89.9698 342.491 89.928 342.38 89.8444C342.268 89.7608 342.191 89.6772 342.15 89.5936C342.108 89.51 342.094 89.4403 342.108 89.3846C342.108 89.2034 342.373 88.0677 342.902 85.9775C343.432 83.8873 343.71 82.7516 343.738 82.5704C343.752 82.5008 343.759 82.3405 343.759 82.0897C343.759 81.5462 343.592 81.2745 343.257 81.2745C342.728 81.2745 342.289 81.9712 341.941 83.3647C341.857 83.6434 341.815 83.7897 341.815 83.8037C341.787 83.8873 341.655 83.9291 341.418 83.9291H341.125C341.042 83.8455 341 83.7828 341 83.741Z" fill="#D9EBFF"/>
<path d="M353.728 88.2621C353.728 86.6563 354.127 85.3853 354.925 84.4494C355.723 83.5135 356.61 83.0455 357.585 83.0455C358.265 83.0455 358.753 83.2228 359.048 83.5775C359.344 83.9322 359.492 84.3263 359.492 84.7598C359.492 85.006 359.423 85.2031 359.285 85.3509C359.147 85.4986 358.955 85.5725 358.708 85.5725C358.482 85.5725 358.295 85.5036 358.147 85.3656C357.999 85.2277 357.925 85.0356 357.925 84.7893C357.925 84.3558 358.157 84.0947 358.62 84.0061C358.403 83.7893 358.098 83.6662 357.703 83.6366C357.004 83.6366 356.428 83.9322 355.974 84.5233C355.511 85.1735 355.28 86.1686 355.28 87.5084L355.295 87.5676C355.344 87.5084 355.383 87.4444 355.413 87.3754C355.817 86.7843 356.344 86.4888 356.994 86.4888H357.053C357.506 86.4888 357.905 86.5824 358.25 86.7695C358.487 86.9075 358.723 87.1045 358.96 87.3607C359.196 87.6168 359.388 87.8976 359.536 88.203C359.743 88.6858 359.846 89.2128 359.846 89.7842V90.0502C359.846 90.2768 359.822 90.4887 359.772 90.6857C359.664 91.267 359.349 91.8334 358.827 92.3852C358.304 92.9369 357.644 93.2127 356.846 93.2127C356.57 93.2127 356.304 93.1733 356.048 93.0945C355.792 93.0157 355.516 92.8679 355.221 92.6512C354.925 92.4344 354.674 92.1438 354.467 91.7793C354.26 91.4147 354.083 90.9369 353.935 90.3458C353.787 89.7547 353.718 89.0601 353.728 88.2621ZM356.905 87.0208C356.61 87.0208 356.354 87.1045 356.137 87.272C355.92 87.4395 355.753 87.6611 355.635 87.937C355.516 88.2129 355.433 88.4936 355.383 88.7793C355.334 89.0651 355.304 89.3705 355.295 89.6956C355.295 90.5133 355.354 91.0995 355.472 91.4541C355.59 91.8088 355.777 92.0945 356.034 92.3113C356.27 92.4886 356.531 92.5773 356.817 92.5773C357.319 92.5773 357.703 92.3901 357.969 92.0157C358.098 91.8384 358.186 91.6167 358.235 91.3507C358.285 91.0847 358.309 90.5675 358.309 89.799C358.309 89.0109 358.285 88.4838 358.235 88.2178C358.186 87.9518 358.098 87.7301 357.969 87.5528C357.703 87.1981 357.349 87.0208 356.905 87.0208Z" fill="#D9EBFF"/>
</svg>
