<svg width="700" height="211" viewBox="0 0 700 211" fill="none" xmlns="http://www.w3.org/2000/svg">
<rect width="700" height="211" fill="#0A0D12"/>
<path d="M274.5 9H425.5M274.5 9L350 52.6667L425.5 9M274.5 9L199 84.6667M425.5 9L501 84.6667L425.5 160.333M425.5 160.333L350 204L274.5 160.333H425.5Z" stroke="#B3BFD8" stroke-width="2"/>
<circle cx="425" cy="9" r="5" fill="black" stroke="#D9EBFF" stroke-width="2"/>
<circle cx="350" cy="53" r="5" fill="black" stroke="#D9EBFF" stroke-width="2"/>
<circle cx="350" cy="204" r="5" fill="black" stroke="#D9EBFF" stroke-width="2"/>
<circle cx="426" cy="160" r="5" fill="black" stroke="#D9EBFF" stroke-width="2"/>
<circle cx="274" cy="160" r="5" fill="black" stroke="#D9EBFF" stroke-width="2"/>
<circle cx="501" cy="85" r="5" fill="black" stroke="#D9EBFF" stroke-width="2"/>
<path d="M169 82.241C169.014 82.1573 169.035 82.0459 169.063 81.9065C169.091 81.7672 169.174 81.5024 169.314 81.1122C169.453 80.7221 169.592 80.3946 169.732 80.1298C169.871 79.8651 170.101 79.6073 170.421 79.3564C170.742 79.1056 171.062 78.9872 171.383 79.0011C171.885 79.0011 172.303 79.1265 172.637 79.3773C172.971 79.6282 173.18 79.8651 173.264 80.088C173.348 80.311 173.389 80.4573 173.389 80.527C173.389 80.5548 173.396 80.5688 173.41 80.5688L173.64 80.3388C174.49 79.447 175.459 79.0011 176.546 79.0011C177.298 79.0011 177.904 79.1892 178.364 79.5655C178.824 79.9417 179.061 80.4921 179.075 81.2167C179.089 81.9414 178.824 83.0352 178.281 84.4984C177.737 85.9616 177.472 86.8464 177.486 87.153C177.486 87.5153 177.605 87.6964 177.842 87.6964C177.925 87.6964 177.988 87.6895 178.03 87.6755C178.434 87.6059 178.796 87.3411 179.117 86.8813C179.437 86.4214 179.681 85.864 179.848 85.2091C179.876 85.0976 180.016 85.0419 180.266 85.0419C180.545 85.0419 180.684 85.0976 180.684 85.2091C180.684 85.223 180.657 85.3275 180.601 85.5226C180.489 85.9267 180.336 86.3239 180.141 86.714C179.946 87.1042 179.625 87.4944 179.179 87.8846C178.733 88.2747 178.253 88.4629 177.737 88.4489C177.082 88.4489 176.608 88.2608 176.316 87.8846C176.023 87.5083 175.877 87.1182 175.877 86.714C175.877 86.4493 176.128 85.6132 176.629 84.2058C177.131 82.7983 177.389 81.7393 177.403 81.0286C177.403 80.2065 177.096 79.7954 176.483 79.7954H176.379C175.18 79.7954 174.17 80.4991 173.348 81.9065L173.201 82.1573L172.512 84.9583C172.052 86.7837 171.787 87.7661 171.717 87.9055C171.536 88.2817 171.237 88.4698 170.818 88.4698C170.637 88.4698 170.491 88.428 170.38 88.3444C170.268 88.2608 170.191 88.1772 170.15 88.0936C170.108 88.01 170.094 87.9403 170.108 87.8846C170.108 87.7034 170.373 86.5677 170.902 84.4775C171.432 82.3873 171.71 81.2516 171.738 81.0704C171.752 81.0008 171.759 80.8405 171.759 80.5897C171.759 80.0462 171.592 79.7745 171.257 79.7745C170.728 79.7745 170.289 80.4712 169.941 81.8647C169.857 82.1434 169.815 82.2897 169.815 82.3037C169.787 82.3873 169.655 82.4291 169.418 82.4291H169.125C169.042 82.3455 169 82.2828 169 82.241Z" fill="#D9EBFF"/>
<path d="M182.526 82.7425C183.078 81.9445 183.832 81.5455 184.787 81.5455C185.26 81.5455 185.733 81.6736 186.206 81.9297C186.679 82.1859 187.063 82.6391 187.359 83.2893C187.723 84.107 187.905 85.2301 187.905 86.6587C187.905 88.1857 187.694 89.3532 187.27 90.161C187.073 90.5748 186.802 90.9049 186.457 91.1512C186.112 91.3975 185.812 91.5502 185.556 91.6093C185.3 91.6684 185.048 91.7029 184.802 91.7127C184.546 91.7127 184.29 91.6832 184.034 91.6241C183.777 91.5649 183.477 91.4073 183.132 91.1512C182.787 90.895 182.516 90.565 182.319 90.161C181.896 89.3532 181.684 88.1857 181.684 86.6587C181.684 84.9444 181.965 83.6391 182.526 82.7425ZM185.851 82.5652C185.556 82.2499 185.206 82.0923 184.802 82.0923C184.388 82.0923 184.034 82.2499 183.738 82.5652C183.492 82.8213 183.329 83.176 183.25 83.6292C183.171 84.0824 183.132 85.0282 183.132 86.4666C183.132 88.0232 183.171 89.0478 183.25 89.5404C183.329 90.033 183.506 90.4221 183.782 90.7078C184.058 91.0034 184.398 91.1512 184.802 91.1512C185.196 91.1512 185.531 91.0034 185.807 90.7078C186.093 90.4123 186.27 89.9985 186.339 89.4665C186.408 88.9345 186.447 87.9345 186.457 86.4666C186.457 85.038 186.418 84.0972 186.339 83.644C186.26 83.1908 186.098 82.8312 185.851 82.5652Z" fill="#D9EBFF"/>
<path d="M261 171.241C261.014 171.157 261.035 171.046 261.063 170.907C261.091 170.767 261.174 170.502 261.314 170.112C261.453 169.722 261.592 169.395 261.732 169.13C261.871 168.865 262.101 168.607 262.421 168.356C262.742 168.106 263.062 167.987 263.383 168.001C263.885 168.001 264.303 168.127 264.637 168.377C264.971 168.628 265.18 168.865 265.264 169.088C265.348 169.311 265.389 169.457 265.389 169.527C265.389 169.555 265.396 169.569 265.41 169.569L265.64 169.339C266.49 168.447 267.459 168.001 268.546 168.001C269.298 168.001 269.904 168.189 270.364 168.565C270.824 168.942 271.061 169.492 271.075 170.217C271.089 170.941 270.824 172.035 270.281 173.498C269.737 174.962 269.472 175.846 269.486 176.153C269.486 176.515 269.605 176.696 269.842 176.696C269.925 176.696 269.988 176.689 270.03 176.676C270.434 176.606 270.796 176.341 271.117 175.881C271.437 175.421 271.681 174.864 271.848 174.209C271.876 174.098 272.016 174.042 272.266 174.042C272.545 174.042 272.684 174.098 272.684 174.209C272.684 174.223 272.657 174.328 272.601 174.523C272.489 174.927 272.336 175.324 272.141 175.714C271.946 176.104 271.625 176.494 271.179 176.885C270.733 177.275 270.253 177.463 269.737 177.449C269.082 177.449 268.608 177.261 268.316 176.885C268.023 176.508 267.877 176.118 267.877 175.714C267.877 175.449 268.128 174.613 268.629 173.206C269.131 171.798 269.389 170.739 269.403 170.029C269.403 169.206 269.096 168.795 268.483 168.795H268.379C267.18 168.795 266.17 169.499 265.348 170.907L265.201 171.157L264.512 173.958C264.052 175.784 263.787 176.766 263.717 176.905C263.536 177.282 263.237 177.47 262.818 177.47C262.637 177.47 262.491 177.428 262.38 177.344C262.268 177.261 262.191 177.177 262.15 177.094C262.108 177.01 262.094 176.94 262.108 176.885C262.108 176.703 262.373 175.568 262.902 173.477C263.432 171.387 263.71 170.252 263.738 170.07C263.752 170.001 263.759 169.841 263.759 169.59C263.759 169.046 263.592 168.774 263.257 168.774C262.728 168.774 262.289 169.471 261.941 170.865C261.857 171.143 261.815 171.29 261.815 171.304C261.787 171.387 261.655 171.429 261.418 171.429H261.125C261.042 171.345 261 171.283 261 171.241Z" fill="#D9EBFF"/>
<path d="M276.255 171.846L276.063 171.92C275.925 171.969 275.728 172.018 275.472 172.068C275.216 172.117 274.93 172.151 274.615 172.171H274.334V171.491H274.615C275.078 171.472 275.506 171.398 275.901 171.27C276.295 171.142 276.57 171.023 276.728 170.915C276.886 170.807 277.024 170.698 277.142 170.59C277.162 170.56 277.221 170.546 277.319 170.546C277.408 170.546 277.492 170.575 277.57 170.634V175.053L277.585 179.486C277.654 179.555 277.713 179.599 277.763 179.619C277.812 179.639 277.93 179.659 278.117 179.678C278.304 179.698 278.61 179.708 279.033 179.708H279.418V180.388H279.255C279.048 180.358 278.265 180.343 276.905 180.343C275.566 180.343 274.792 180.358 274.585 180.388H274.408V179.708H274.792C275.009 179.708 275.196 179.708 275.354 179.708C275.511 179.708 275.635 179.703 275.723 179.693C275.812 179.683 275.891 179.668 275.96 179.649C276.029 179.629 276.068 179.619 276.078 179.619C276.088 179.619 276.117 179.595 276.167 179.545C276.216 179.496 276.245 179.476 276.255 179.486V171.846Z" fill="#D9EBFF"/>
<path d="M274.5 9L199 84.6667" stroke="#EB5757" stroke-width="2"/>
<circle cx="200" cy="85" r="5" fill="black" stroke="#D9EBFF" stroke-width="2"/>
<circle cx="275" cy="9" r="5" fill="black" stroke="#D9EBFF" stroke-width="2"/>
</svg>
