<svg width="700" height="232" viewBox="0 0 700 232" fill="none" xmlns="http://www.w3.org/2000/svg">
<g clip-path="url(#clip0_99_4)">
<rect width="700" height="231" transform="translate(0 0.5)" fill="#0A0D12"/>
<line opacity="0.4" x1="274" y1="-36.5" x2="274" y2="298.5" stroke="#B3BFD8" stroke-width="2"/>
<path d="M425.5 26.5H274.5L350 70.1667L425.5 26.5ZM425.5 26.5L501 102.167L425.5 177.833M425.5 177.833L350 221.5L274.5 177.833H425.5Z" stroke="#B3BFD8" stroke-width="2"/>
<circle cx="275" cy="26.5" r="5" fill="black" stroke="#D9EBFF" stroke-width="2"/>
<circle cx="425" cy="26.5" r="5" fill="black" stroke="#D9EBFF" stroke-width="2"/>
<circle cx="350" cy="70.5" r="5" fill="black" stroke="#D9EBFF" stroke-width="2"/>
<circle cx="350" cy="221.5" r="5" fill="black" stroke="#D9EBFF" stroke-width="2"/>
<circle cx="426" cy="177.5" r="5" fill="black" stroke="#D9EBFF" stroke-width="2"/>
<circle cx="274" cy="177.5" r="5" fill="black" stroke="#D9EBFF" stroke-width="2"/>
<circle cx="501" cy="102.5" r="5" fill="black" stroke="#D9EBFF" stroke-width="2"/>
<path d="M245 173.741C245.014 173.657 245.035 173.546 245.063 173.407C245.091 173.267 245.174 173.002 245.314 172.612C245.453 172.222 245.592 171.895 245.732 171.63C245.871 171.365 246.101 171.107 246.421 170.856C246.742 170.606 247.062 170.487 247.383 170.501C247.885 170.501 248.303 170.627 248.637 170.877C248.971 171.128 249.18 171.365 249.264 171.588C249.348 171.811 249.389 171.957 249.389 172.027C249.389 172.055 249.396 172.069 249.41 172.069L249.64 171.839C250.49 170.947 251.459 170.501 252.546 170.501C253.298 170.501 253.904 170.689 254.364 171.065C254.824 171.442 255.061 171.992 255.075 172.717C255.089 173.441 254.824 174.535 254.281 175.998C253.737 177.462 253.472 178.346 253.486 178.653C253.486 179.015 253.605 179.196 253.842 179.196C253.925 179.196 253.988 179.189 254.03 179.176C254.434 179.106 254.796 178.841 255.117 178.381C255.437 177.921 255.681 177.364 255.848 176.709C255.876 176.598 256.016 176.542 256.266 176.542C256.545 176.542 256.684 176.598 256.684 176.709C256.684 176.723 256.657 176.828 256.601 177.023C256.489 177.427 256.336 177.824 256.141 178.214C255.946 178.604 255.625 178.994 255.179 179.385C254.733 179.775 254.253 179.963 253.737 179.949C253.082 179.949 252.608 179.761 252.316 179.385C252.023 179.008 251.877 178.618 251.877 178.214C251.877 177.949 252.128 177.113 252.629 175.706C253.131 174.298 253.389 173.239 253.403 172.529C253.403 171.706 253.096 171.295 252.483 171.295H252.379C251.18 171.295 250.17 171.999 249.348 173.407L249.201 173.657L248.512 176.458C248.052 178.284 247.787 179.266 247.717 179.405C247.536 179.782 247.237 179.97 246.818 179.97C246.637 179.97 246.491 179.928 246.38 179.844C246.268 179.761 246.191 179.677 246.15 179.594C246.108 179.51 246.094 179.44 246.108 179.385C246.108 179.203 246.373 178.068 246.902 175.977C247.432 173.887 247.71 172.752 247.738 172.57C247.752 172.501 247.759 172.341 247.759 172.09C247.759 171.546 247.592 171.274 247.257 171.274C246.728 171.274 246.289 171.971 245.941 173.365C245.857 173.643 245.815 173.79 245.815 173.804C245.787 173.887 245.655 173.929 245.418 173.929H245.125C245.042 173.845 245 173.783 245 173.741Z" fill="#D9EBFF"/>
<path d="M260.255 174.346L260.063 174.42C259.925 174.469 259.728 174.518 259.472 174.568C259.216 174.617 258.93 174.651 258.615 174.671H258.334V173.991H258.615C259.078 173.972 259.506 173.898 259.901 173.77C260.295 173.642 260.57 173.523 260.728 173.415C260.886 173.307 261.024 173.198 261.142 173.09C261.162 173.06 261.221 173.046 261.319 173.046C261.408 173.046 261.492 173.075 261.57 173.134V177.553L261.585 181.986C261.654 182.055 261.713 182.099 261.763 182.119C261.812 182.139 261.93 182.159 262.117 182.178C262.304 182.198 262.61 182.208 263.033 182.208H263.418V182.888H263.255C263.048 182.858 262.265 182.843 260.905 182.843C259.566 182.843 258.792 182.858 258.585 182.888H258.408V182.208H258.792C259.009 182.208 259.196 182.208 259.354 182.208C259.511 182.208 259.635 182.203 259.723 182.193C259.812 182.183 259.891 182.168 259.96 182.149C260.029 182.129 260.068 182.119 260.078 182.119C260.088 182.119 260.117 182.095 260.167 182.045C260.216 181.996 260.245 181.976 260.255 181.986V174.346Z" fill="#D9EBFF"/>
<path d="M245 21.741C245.014 21.6573 245.035 21.5459 245.063 21.4065C245.091 21.2672 245.174 21.0024 245.314 20.6122C245.453 20.2221 245.592 19.8946 245.732 19.6298C245.871 19.3651 246.101 19.1073 246.421 18.8564C246.742 18.6056 247.062 18.4872 247.383 18.5011C247.885 18.5011 248.303 18.6265 248.637 18.8773C248.971 19.1282 249.18 19.3651 249.264 19.588C249.348 19.811 249.389 19.9573 249.389 20.027C249.389 20.0548 249.396 20.0688 249.41 20.0688L249.64 19.8388C250.49 18.947 251.459 18.5011 252.546 18.5011C253.298 18.5011 253.904 18.6892 254.364 19.0655C254.824 19.4417 255.061 19.9921 255.075 20.7167C255.089 21.4414 254.824 22.5352 254.281 23.9984C253.737 25.4616 253.472 26.3464 253.486 26.653C253.486 27.0153 253.605 27.1964 253.842 27.1964C253.925 27.1964 253.988 27.1895 254.03 27.1755C254.434 27.1059 254.796 26.8411 255.117 26.3813C255.437 25.9214 255.681 25.364 255.848 24.7091C255.876 24.5976 256.015 24.5419 256.266 24.5419C256.545 24.5419 256.684 24.5976 256.684 24.7091C256.684 24.723 256.657 24.8275 256.601 25.0226C256.489 25.4267 256.336 25.8239 256.141 26.214C255.946 26.6042 255.625 26.9944 255.179 27.3846C254.733 27.7747 254.253 27.9629 253.737 27.9489C253.082 27.9489 252.608 27.7608 252.316 27.3846C252.023 27.0083 251.877 26.6182 251.877 26.214C251.877 25.9493 252.128 25.1132 252.629 23.7058C253.131 22.2983 253.389 21.2393 253.403 20.5286C253.403 19.7065 253.096 19.2954 252.483 19.2954H252.379C251.18 19.2954 250.17 19.9991 249.348 21.4065L249.201 21.6573L248.512 24.4583C248.052 26.2837 247.787 27.2661 247.717 27.4055C247.536 27.7817 247.237 27.9698 246.818 27.9698C246.637 27.9698 246.491 27.928 246.38 27.8444C246.268 27.7608 246.191 27.6772 246.15 27.5936C246.108 27.51 246.094 27.4403 246.108 27.3846C246.108 27.2034 246.373 26.0677 246.902 23.9775C247.432 21.8873 247.71 20.7516 247.738 20.5704C247.752 20.5008 247.759 20.3405 247.759 20.0897C247.759 19.5462 247.592 19.2745 247.257 19.2745C246.728 19.2745 246.289 19.9712 245.941 21.3647C245.857 21.6434 245.815 21.7897 245.815 21.8037C245.787 21.8873 245.655 21.9291 245.418 21.9291H245.125C245.042 21.8455 245 21.7828 245 21.741Z" fill="#D9EBFF"/>
<path d="M257.92 24.1193C257.93 24.0996 258.014 23.5627 258.172 22.5085L258.408 20.9273C258.408 20.9076 258.506 20.8977 258.704 20.8977H258.999V20.9568C258.999 21.0554 259.073 21.1391 259.221 21.2081C259.369 21.277 259.625 21.3214 259.989 21.3411C260.354 21.3608 261.186 21.3706 262.487 21.3706H264.275V21.947L263.27 23.3213C263.181 23.4395 263.033 23.6366 262.827 23.9124C262.62 24.1883 262.487 24.3705 262.428 24.4592C262.368 24.5479 262.265 24.7055 262.117 24.9321C261.969 25.1587 261.871 25.336 261.822 25.4641C261.772 25.5922 261.703 25.7744 261.615 26.0109C261.526 26.2473 261.462 26.4739 261.423 26.6907C261.383 26.9074 261.344 27.1734 261.304 27.4887C261.265 27.8039 261.235 28.1389 261.216 28.4936C261.196 28.8483 261.181 29.2522 261.171 29.7054C261.171 29.8433 261.171 29.9812 261.171 30.1192C261.171 30.2571 261.166 30.3753 261.157 30.4738V30.6068C261.117 30.7743 261.024 30.9172 260.876 31.0354C260.728 31.1536 260.561 31.2127 260.373 31.2127C260.265 31.2127 260.162 31.1979 260.063 31.1684C259.965 31.1388 259.861 31.0452 259.753 30.8876C259.644 30.73 259.59 30.5329 259.59 30.2965C259.59 28.7399 260.068 27.1242 261.024 25.4493C261.221 25.1341 261.634 24.538 262.265 23.6612L262.945 22.7302H261.57C259.856 22.7302 258.955 22.7598 258.866 22.8189C258.807 22.8484 258.753 22.9666 258.704 23.1735C258.654 23.3804 258.605 23.5922 258.556 23.809L258.511 24.1193V24.1637H257.92V24.1193Z" fill="#D9EBFF"/>
</g>
<defs>
<clipPath id="clip0_99_4">
<rect width="700" height="231" fill="white" transform="translate(0 0.5)"/>
</clipPath>
</defs>
</svg>
