<svg width="700" height="245" viewBox="0 0 700 245" fill="none" xmlns="http://www.w3.org/2000/svg">
<rect width="700" height="245" fill="#0A0D12"/>
<path opacity="0.2" d="M425.5 9H274.5L350 52.6667L425.5 9ZM425.5 9L501 84.6667L425.5 160.333M425.5 160.333L350 204L274.5 160.333H425.5Z" stroke="#B3BFD8" stroke-width="2"/>
<circle cx="275" cy="9" r="5" fill="black" stroke="#D9EBFF" stroke-width="2"/>
<circle cx="425" cy="9" r="5" fill="black" stroke="#D9EBFF" stroke-width="2"/>
<circle cx="350" cy="53" r="5" fill="black" stroke="#D9EBFF" stroke-width="2"/>
<circle cx="350" cy="204" r="5" fill="black" stroke="#D9EBFF" stroke-width="2"/>
<circle cx="426" cy="160" r="5" fill="black" stroke="#D9EBFF" stroke-width="2"/>
<circle cx="274" cy="160" r="5" fill="black" stroke="#D9EBFF" stroke-width="2"/>
<circle cx="501" cy="85" r="5" fill="black" stroke="#D9EBFF" stroke-width="2"/>
<g clip-path="url(#clip0_99_38)">
<path d="M255.711 145.829C255.711 144.31 256.31 142.944 257.509 141.732C258.707 140.519 260.003 139.913 261.397 139.913C262.177 139.913 262.79 140.08 263.236 140.415C263.682 140.749 263.912 141.188 263.926 141.732C263.926 142.136 263.794 142.477 263.529 142.756C263.264 143.035 262.93 143.181 262.526 143.195C262.261 143.195 262.052 143.125 261.899 142.986C261.745 142.847 261.669 142.638 261.669 142.359C261.669 142.08 261.745 141.843 261.899 141.648C262.052 141.453 262.205 141.307 262.358 141.209C262.512 141.112 262.609 141.07 262.651 141.084H262.672C262.672 141.056 262.63 141.014 262.547 140.958C262.463 140.903 262.317 140.847 262.108 140.791C261.899 140.735 261.662 140.707 261.397 140.707C260.979 140.707 260.582 140.805 260.205 141C259.913 141.125 259.613 141.341 259.306 141.648C258.693 142.261 258.247 143.125 257.969 144.24C257.69 145.355 257.544 146.163 257.53 146.665C257.53 147.306 257.711 147.787 258.073 148.107C258.38 148.442 258.784 148.609 259.286 148.609H259.369C260.93 148.609 262.219 148.017 263.236 146.832C263.362 146.693 263.445 146.623 263.487 146.623C263.543 146.623 263.634 146.686 263.759 146.811C263.884 146.937 263.954 147.034 263.968 147.104C263.982 147.174 263.919 147.278 263.78 147.418C263.641 147.557 263.439 147.752 263.174 148.003C262.909 148.254 262.595 148.463 262.233 148.63C261.871 148.797 261.425 148.972 260.895 149.153C260.366 149.334 259.808 149.41 259.223 149.383C258.178 149.383 257.334 149.048 256.693 148.379C256.052 147.71 255.725 146.86 255.711 145.829Z" fill="#D9EBFF"/>
<path d="M264.49 143.153C264.49 143.042 264.553 142.826 264.678 142.505C264.804 142.185 264.978 141.822 265.201 141.418C265.424 141.014 265.731 140.666 266.121 140.373C266.511 140.08 266.922 139.927 267.354 139.913C267.995 139.913 268.476 140.087 268.796 140.436C269.117 140.784 269.277 141.195 269.277 141.669C269.277 141.92 269.04 142.7 268.567 144.01C268.093 145.32 267.856 146.303 267.856 146.958C267.856 147.557 267.953 147.975 268.148 148.212C268.344 148.449 268.636 148.574 269.026 148.588C269.417 148.602 269.786 148.484 270.134 148.233C270.483 147.982 270.741 147.745 270.908 147.522L271.138 147.167C271.166 147.111 271.43 146.052 271.932 143.989C272.35 142.317 272.601 141.341 272.685 141.063C272.768 140.784 272.866 140.582 272.977 140.457C273.214 140.248 273.465 140.143 273.73 140.143C273.967 140.143 274.141 140.213 274.252 140.352C274.364 140.491 274.42 140.624 274.42 140.749L272.831 147.397C272.817 147.466 272.81 147.578 272.81 147.731C272.81 148.08 272.859 148.31 272.956 148.421C273.054 148.533 273.2 148.595 273.395 148.609C273.702 148.567 273.946 148.351 274.127 147.961C274.308 147.571 274.517 146.958 274.754 146.122C274.782 146.01 274.921 145.954 275.172 145.954C275.437 145.954 275.569 146.017 275.569 146.142C275.555 146.212 275.542 146.31 275.528 146.435C275.514 146.561 275.451 146.784 275.339 147.104C275.228 147.425 275.11 147.724 274.984 148.003C274.859 148.282 274.684 148.546 274.462 148.797C274.239 149.048 273.988 149.222 273.709 149.32C273.597 149.348 273.43 149.362 273.207 149.362C272.287 149.362 271.653 148.972 271.305 148.191C271.277 148.205 271.2 148.275 271.075 148.4C270.95 148.526 270.824 148.63 270.699 148.714C270.573 148.797 270.42 148.902 270.239 149.027C270.058 149.153 269.856 149.236 269.633 149.278C269.41 149.32 269.173 149.355 268.922 149.383C268.309 149.383 267.765 149.257 267.291 149.006C266.567 148.574 266.204 147.836 266.204 146.791C266.204 145.996 266.448 144.958 266.936 143.676C267.424 142.394 267.668 141.578 267.668 141.23C267.668 141.216 267.668 141.202 267.668 141.188C267.668 141.063 267.668 140.979 267.668 140.937C267.668 140.896 267.64 140.847 267.584 140.791C267.528 140.735 267.452 140.707 267.354 140.707H267.27C266.95 140.707 266.657 140.84 266.393 141.105C266.128 141.369 265.919 141.655 265.765 141.962C265.612 142.268 265.494 142.561 265.41 142.84C265.326 143.118 265.271 143.272 265.243 143.3C265.215 143.327 265.103 143.341 264.908 143.341H264.616C264.532 143.258 264.49 143.195 264.49 143.153Z" fill="#D9EBFF"/>
<path d="M276.469 143.153C276.483 143.111 276.497 143.056 276.511 142.986C276.524 142.916 276.559 142.763 276.615 142.526C276.671 142.289 276.741 142.073 276.824 141.878C276.908 141.683 277.012 141.453 277.138 141.188C277.263 140.923 277.402 140.714 277.556 140.561C277.709 140.408 277.89 140.254 278.099 140.101C278.308 139.948 278.538 139.885 278.789 139.913C279.193 139.913 279.549 139.997 279.855 140.164C280.162 140.331 280.378 140.484 280.503 140.624C280.629 140.763 280.705 140.903 280.733 141.042C280.761 141.125 280.782 141.167 280.796 141.167C280.81 141.167 280.866 141.119 280.963 141.021C281.632 140.296 282.406 139.934 283.283 139.934H283.346C284.015 139.934 284.517 140.22 284.851 140.791C284.963 141.056 285.019 141.314 285.019 141.564C285.019 141.983 284.928 142.317 284.747 142.568C284.566 142.819 284.384 142.979 284.203 143.049C284.022 143.118 283.848 143.146 283.681 143.132C283.402 143.132 283.179 143.056 283.012 142.902C282.845 142.749 282.761 142.547 282.761 142.296C282.761 141.627 283.151 141.181 283.932 140.958C283.625 140.777 283.374 140.686 283.179 140.686C282.399 140.686 281.681 141.202 281.026 142.233C280.886 142.456 280.782 142.686 280.712 142.923C280.643 143.16 280.406 144.087 280.002 145.703C279.528 147.655 279.256 148.693 279.186 148.818C279.005 149.194 278.705 149.383 278.287 149.383C278.106 149.383 277.96 149.341 277.848 149.257C277.737 149.174 277.66 149.09 277.618 149.006C277.577 148.923 277.563 148.853 277.577 148.797C277.577 148.616 277.855 147.418 278.413 145.202C278.97 142.986 279.249 141.753 279.249 141.502C279.249 140.958 279.068 140.686 278.705 140.686C278.413 140.686 278.162 140.882 277.953 141.272C277.744 141.662 277.577 142.087 277.451 142.547C277.326 143.007 277.249 143.258 277.221 143.3C277.193 143.327 277.082 143.341 276.887 143.341H276.594C276.511 143.258 276.469 143.195 276.469 143.153Z" fill="#D9EBFF"/>
<path d="M285.896 143.153C285.91 143.111 285.924 143.056 285.938 142.986C285.952 142.916 285.987 142.763 286.043 142.526C286.099 142.289 286.168 142.073 286.252 141.878C286.335 141.683 286.44 141.453 286.565 141.188C286.691 140.923 286.83 140.714 286.983 140.561C287.137 140.408 287.318 140.254 287.527 140.101C287.736 139.948 287.966 139.885 288.217 139.913C288.621 139.913 288.976 139.997 289.283 140.164C289.59 140.331 289.806 140.484 289.931 140.624C290.056 140.763 290.133 140.903 290.161 141.042C290.189 141.125 290.21 141.167 290.224 141.167C290.238 141.167 290.293 141.119 290.391 141.021C291.06 140.296 291.833 139.934 292.711 139.934H292.774C293.443 139.934 293.945 140.22 294.279 140.791C294.391 141.056 294.446 141.314 294.446 141.564C294.446 141.983 294.356 142.317 294.175 142.568C293.993 142.819 293.812 142.979 293.631 143.049C293.45 143.118 293.276 143.146 293.108 143.132C292.83 143.132 292.607 143.056 292.439 142.902C292.272 142.749 292.189 142.547 292.189 142.296C292.189 141.627 292.579 141.181 293.359 140.958C293.053 140.777 292.802 140.686 292.607 140.686C291.826 140.686 291.109 141.202 290.454 142.233C290.314 142.456 290.21 142.686 290.14 142.923C290.07 143.16 289.833 144.087 289.429 145.703C288.955 147.655 288.684 148.693 288.614 148.818C288.433 149.194 288.133 149.383 287.715 149.383C287.534 149.383 287.388 149.341 287.276 149.257C287.165 149.174 287.088 149.09 287.046 149.006C287.004 148.923 286.99 148.853 287.004 148.797C287.004 148.616 287.283 147.418 287.841 145.202C288.398 142.986 288.677 141.753 288.677 141.502C288.677 140.958 288.496 140.686 288.133 140.686C287.841 140.686 287.59 140.882 287.381 141.272C287.172 141.662 287.004 142.087 286.879 142.547C286.754 143.007 286.677 143.258 286.649 143.3C286.621 143.327 286.51 143.341 286.315 143.341H286.022C285.938 143.258 285.896 143.195 285.896 143.153Z" fill="#D9EBFF"/>
</g>
<path d="M422 145.936C422 144.528 422.529 143.191 423.588 141.923C424.647 140.655 425.839 140.014 427.162 140C427.873 140 428.5 140.341 429.043 141.024C429.266 140.606 429.587 140.397 430.005 140.397C430.186 140.397 430.346 140.453 430.485 140.564C430.625 140.676 430.694 140.815 430.694 140.982C430.694 141.163 430.437 142.278 429.921 144.326C429.406 146.374 429.141 147.531 429.127 147.796C429.127 148.144 429.176 148.374 429.273 148.485C429.371 148.597 429.517 148.66 429.712 148.673C429.837 148.66 429.977 148.597 430.13 148.485C430.423 148.207 430.708 147.538 430.987 146.479C431.071 146.2 431.14 146.054 431.196 146.04C431.224 146.026 431.293 146.019 431.405 146.019H431.489C431.753 146.019 431.886 146.082 431.886 146.207C431.886 146.291 431.851 146.479 431.781 146.772C431.711 147.064 431.572 147.44 431.363 147.9C431.154 148.36 430.931 148.708 430.694 148.945C430.513 149.126 430.29 149.273 430.026 149.384C429.914 149.412 429.747 149.426 429.524 149.426C429.05 149.426 428.653 149.321 428.333 149.112C428.012 148.903 427.803 148.687 427.706 148.464L427.58 148.151C427.566 148.137 427.538 148.144 427.497 148.172C427.469 148.2 427.441 148.228 427.413 148.255C426.591 149.036 425.755 149.426 424.905 149.426C424.139 149.426 423.463 149.147 422.878 148.59C422.293 148.033 422 147.148 422 145.936ZM428.646 142.362C428.646 142.278 428.611 142.125 428.542 141.902C428.472 141.679 428.312 141.435 428.061 141.17C427.81 140.906 427.49 140.766 427.1 140.752C426.612 140.752 426.145 140.968 425.699 141.4C425.253 141.832 424.905 142.397 424.654 143.093C424.25 144.194 423.965 145.336 423.797 146.521C423.797 146.563 423.797 146.639 423.797 146.751C423.797 146.862 423.79 146.946 423.776 147.001C423.776 147.628 423.902 148.06 424.153 148.297C424.403 148.534 424.703 148.66 425.051 148.673C425.581 148.673 426.103 148.444 426.619 147.984C427.134 147.524 427.441 147.169 427.538 146.918C427.566 146.862 427.754 146.117 428.103 144.682C428.451 143.246 428.632 142.473 428.646 142.362Z" fill="#D9EBFF"/>
<path d="M346.69 180.982C346.69 180.843 346.718 180.683 346.773 180.502C346.829 180.32 346.913 180.23 347.024 180.23C347.038 180.23 347.54 180.195 348.529 180.125C349.518 180.056 350.027 180.014 350.055 180C350.222 180 350.305 180.063 350.305 180.188C350.305 180.313 350.069 181.31 349.595 183.177C349.483 183.651 349.365 184.138 349.239 184.64C349.114 185.141 349.01 185.518 348.926 185.768L348.842 186.165C348.842 186.207 348.884 186.186 348.968 186.103C349.651 185.545 350.354 185.267 351.079 185.267C351.943 185.267 352.639 185.587 353.169 186.228C353.698 186.869 353.97 187.677 353.984 188.653C353.984 190.199 353.433 191.599 352.333 192.853C351.232 194.107 350.048 194.734 348.78 194.734C348.083 194.734 347.449 194.47 346.878 193.94C346.307 193.411 346.014 192.554 346 191.37V191.181C346 190.889 346.056 190.485 346.167 189.969C346.279 189.454 346.62 188.081 347.191 185.852C347.888 183.107 348.236 181.651 348.236 181.484C348.236 181.317 347.972 181.219 347.442 181.191C347.372 181.191 347.317 181.191 347.275 181.191H347.17C347.031 181.191 346.94 181.191 346.899 181.191C346.857 181.191 346.808 181.17 346.752 181.129C346.697 181.087 346.676 181.038 346.69 180.982ZM352.186 187.712V187.587C352.186 186.556 351.761 186.04 350.911 186.04C350.675 186.04 350.431 186.096 350.18 186.207C349.929 186.319 349.699 186.465 349.49 186.646C349.281 186.827 349.1 186.994 348.947 187.148C348.794 187.301 348.668 187.454 348.571 187.608L348.445 187.775L348.006 189.572C347.7 190.77 347.547 191.62 347.547 192.122C347.547 192.791 347.714 193.292 348.048 193.627C348.271 193.85 348.55 193.961 348.884 193.961C349.344 193.961 349.811 193.738 350.284 193.292C350.633 192.972 350.911 192.582 351.12 192.122C351.329 191.662 351.559 190.931 351.81 189.927C352.061 188.924 352.186 188.186 352.186 187.712Z" fill="#D9EBFF"/>
<path d="M274.729 172L280 177.271M274.729 172L269.457 177.271M274.729 172L274.729 238.5" stroke="#B3BFD8" stroke-width="2" stroke-linecap="round" stroke-linejoin="round"/>
<path d="M274 209C246.386 209 224 186.614 224 159C224 131.386 246.386 109 274 109C301.614 109 324 131.386 324 159C324 172.626 318.549 184.979 309.709 193.998M309.709 193.998L324 193.998M309.709 193.998L309.709 179.313" stroke="#B3BFD8" stroke-width="2" stroke-linecap="round" stroke-linejoin="round"/>
<defs>
<clipPath id="clip0_99_38">
<rect width="39.906" height="13.419" fill="white" transform="translate(255 138)"/>
</clipPath>
</defs>
</svg>
