<svg width="700" height="219" viewBox="0 0 700 219" fill="none" xmlns="http://www.w3.org/2000/svg">
<g clip-path="url(#clip0_99_126)">
<rect width="700" height="218" transform="translate(0 0.5)" fill="#0A0D12"/>
<path opacity="0.2" d="M425.5 12.5H274.5L350 56.1667L425.5 12.5ZM425.5 12.5L501 88.1667L425.5 163.833M425.5 163.833L350 207.5L274.5 163.833H425.5Z" stroke="#B3BFD8" stroke-width="2"/>
<circle cx="501" cy="88.5" r="5" fill="black" stroke="#D9EBFF" stroke-width="2"/>
<g clip-path="url(#clip1_99_126)">
<path d="M405.711 148.63C405.711 147.111 406.31 145.745 407.509 144.533C408.707 143.321 410.003 142.714 411.397 142.714C412.177 142.714 412.79 142.882 413.236 143.216C413.682 143.55 413.912 143.989 413.926 144.533C413.926 144.937 413.794 145.279 413.529 145.557C413.264 145.836 412.93 145.982 412.526 145.996C412.261 145.996 412.052 145.927 411.899 145.787C411.745 145.648 411.669 145.439 411.669 145.16C411.669 144.881 411.745 144.644 411.899 144.449C412.052 144.254 412.205 144.108 412.358 144.01C412.512 143.913 412.609 143.871 412.651 143.885H412.672C412.672 143.857 412.63 143.815 412.547 143.76C412.463 143.704 412.317 143.648 412.108 143.592C411.899 143.537 411.662 143.509 411.397 143.509C410.979 143.509 410.582 143.606 410.205 143.801C409.913 143.927 409.613 144.143 409.306 144.449C408.693 145.063 408.247 145.927 407.969 147.041C407.69 148.156 407.544 148.965 407.53 149.466C407.53 150.107 407.711 150.588 408.073 150.909C408.38 151.243 408.784 151.41 409.286 151.41H409.369C410.93 151.41 412.219 150.818 413.236 149.634C413.362 149.494 413.445 149.425 413.487 149.425C413.543 149.425 413.634 149.487 413.759 149.613C413.884 149.738 413.954 149.836 413.968 149.905C413.982 149.975 413.919 150.08 413.78 150.219C413.641 150.358 413.439 150.553 413.174 150.804C412.909 151.055 412.595 151.264 412.233 151.431C411.871 151.599 411.425 151.773 410.895 151.954C410.366 152.135 409.808 152.212 409.223 152.184C408.178 152.184 407.334 151.849 406.693 151.18C406.052 150.512 405.725 149.661 405.711 148.63Z" fill="#D9EBFF"/>
<path d="M414.49 145.954C414.49 145.843 414.553 145.627 414.678 145.306C414.804 144.986 414.978 144.624 415.201 144.219C415.424 143.815 415.731 143.467 416.121 143.174C416.511 142.882 416.922 142.728 417.354 142.714C417.995 142.714 418.476 142.888 418.796 143.237C419.117 143.585 419.277 143.996 419.277 144.47C419.277 144.721 419.04 145.502 418.567 146.812C418.093 148.121 417.856 149.104 417.856 149.759C417.856 150.358 417.953 150.776 418.148 151.013C418.344 151.25 418.636 151.376 419.026 151.39C419.417 151.403 419.786 151.285 420.134 151.034C420.483 150.783 420.741 150.546 420.908 150.323L421.138 149.968C421.166 149.912 421.43 148.853 421.932 146.791C422.35 145.118 422.601 144.143 422.685 143.864C422.768 143.585 422.866 143.383 422.977 143.258C423.214 143.049 423.465 142.944 423.73 142.944C423.967 142.944 424.141 143.014 424.252 143.153C424.364 143.293 424.42 143.425 424.42 143.55L422.831 150.198C422.817 150.268 422.81 150.379 422.81 150.532C422.81 150.881 422.859 151.111 422.956 151.222C423.054 151.334 423.2 151.396 423.395 151.41C423.702 151.369 423.946 151.153 424.127 150.762C424.308 150.372 424.517 149.759 424.754 148.923C424.782 148.811 424.921 148.756 425.172 148.756C425.437 148.756 425.569 148.818 425.569 148.944C425.555 149.013 425.542 149.111 425.528 149.236C425.514 149.362 425.451 149.585 425.339 149.905C425.228 150.226 425.11 150.525 424.984 150.804C424.859 151.083 424.684 151.348 424.462 151.599C424.239 151.849 423.988 152.024 423.709 152.121C423.597 152.149 423.43 152.163 423.207 152.163C422.287 152.163 421.653 151.773 421.305 150.992C421.277 151.006 421.2 151.076 421.075 151.201C420.95 151.327 420.824 151.431 420.699 151.515C420.573 151.599 420.42 151.703 420.239 151.828C420.058 151.954 419.856 152.038 419.633 152.079C419.41 152.121 419.173 152.156 418.922 152.184C418.309 152.184 417.765 152.058 417.291 151.808C416.567 151.376 416.204 150.637 416.204 149.592C416.204 148.797 416.448 147.759 416.936 146.477C417.424 145.195 417.668 144.38 417.668 144.031C417.668 144.017 417.668 144.003 417.668 143.989C417.668 143.864 417.668 143.78 417.668 143.739C417.668 143.697 417.64 143.648 417.584 143.592C417.528 143.537 417.452 143.509 417.354 143.509H417.27C416.95 143.509 416.657 143.641 416.393 143.906C416.128 144.171 415.919 144.456 415.765 144.763C415.612 145.069 415.494 145.362 415.41 145.641C415.326 145.92 415.271 146.073 415.243 146.101C415.215 146.129 415.103 146.143 414.908 146.143H414.616C414.532 146.059 414.49 145.996 414.49 145.954Z" fill="#D9EBFF"/>
<path d="M426.469 145.954C426.483 145.913 426.497 145.857 426.511 145.787C426.524 145.718 426.559 145.564 426.615 145.327C426.671 145.09 426.741 144.874 426.824 144.679C426.908 144.484 427.012 144.254 427.138 143.989C427.263 143.725 427.402 143.516 427.556 143.362C427.709 143.209 427.89 143.056 428.099 142.902C428.308 142.749 428.538 142.686 428.789 142.714C429.193 142.714 429.549 142.798 429.855 142.965C430.162 143.132 430.378 143.286 430.503 143.425C430.629 143.564 430.705 143.704 430.733 143.843C430.761 143.927 430.782 143.969 430.796 143.969C430.81 143.969 430.866 143.92 430.963 143.822C431.632 143.098 432.406 142.735 433.283 142.735H433.346C434.015 142.735 434.517 143.021 434.851 143.592C434.963 143.857 435.019 144.115 435.019 144.366C435.019 144.784 434.928 145.118 434.747 145.369C434.566 145.62 434.384 145.78 434.203 145.85C434.022 145.92 433.848 145.947 433.681 145.934C433.402 145.934 433.179 145.857 433.012 145.704C432.845 145.55 432.761 145.348 432.761 145.097C432.761 144.428 433.151 143.982 433.932 143.76C433.625 143.578 433.374 143.488 433.179 143.488C432.399 143.488 431.681 144.003 431.026 145.035C430.886 145.258 430.782 145.488 430.712 145.724C430.643 145.961 430.406 146.888 430.002 148.505C429.528 150.456 429.256 151.494 429.186 151.619C429.005 151.996 428.705 152.184 428.287 152.184C428.106 152.184 427.96 152.142 427.848 152.058C427.737 151.975 427.66 151.891 427.618 151.808C427.577 151.724 427.563 151.654 427.577 151.599C427.577 151.417 427.855 150.219 428.413 148.003C428.97 145.787 429.249 144.554 429.249 144.303C429.249 143.76 429.068 143.488 428.705 143.488C428.413 143.488 428.162 143.683 427.953 144.073C427.744 144.463 427.577 144.888 427.451 145.348C427.326 145.808 427.249 146.059 427.221 146.101C427.193 146.129 427.082 146.143 426.887 146.143H426.594C426.511 146.059 426.469 145.996 426.469 145.954Z" fill="#D9EBFF"/>
<path d="M435.896 145.954C435.91 145.913 435.924 145.857 435.938 145.787C435.952 145.718 435.987 145.564 436.043 145.327C436.099 145.09 436.168 144.874 436.252 144.679C436.335 144.484 436.44 144.254 436.565 143.989C436.691 143.725 436.83 143.516 436.983 143.362C437.137 143.209 437.318 143.056 437.527 142.902C437.736 142.749 437.966 142.686 438.217 142.714C438.621 142.714 438.976 142.798 439.283 142.965C439.59 143.132 439.806 143.286 439.931 143.425C440.056 143.564 440.133 143.704 440.161 143.843C440.189 143.927 440.21 143.969 440.224 143.969C440.238 143.969 440.293 143.92 440.391 143.822C441.06 143.098 441.833 142.735 442.711 142.735H442.774C443.443 142.735 443.945 143.021 444.279 143.592C444.391 143.857 444.446 144.115 444.446 144.366C444.446 144.784 444.356 145.118 444.175 145.369C443.993 145.62 443.812 145.78 443.631 145.85C443.45 145.92 443.276 145.947 443.108 145.934C442.83 145.934 442.607 145.857 442.439 145.704C442.272 145.55 442.189 145.348 442.189 145.097C442.189 144.428 442.579 143.982 443.359 143.76C443.053 143.578 442.802 143.488 442.607 143.488C441.826 143.488 441.109 144.003 440.454 145.035C440.314 145.258 440.21 145.488 440.14 145.724C440.07 145.961 439.833 146.888 439.429 148.505C438.955 150.456 438.684 151.494 438.614 151.619C438.433 151.996 438.133 152.184 437.715 152.184C437.534 152.184 437.388 152.142 437.276 152.058C437.165 151.975 437.088 151.891 437.046 151.808C437.004 151.724 436.99 151.654 437.004 151.599C437.004 151.417 437.283 150.219 437.841 148.003C438.398 145.787 438.677 144.554 438.677 144.303C438.677 143.76 438.496 143.488 438.133 143.488C437.841 143.488 437.59 143.683 437.381 144.073C437.172 144.463 437.004 144.888 436.879 145.348C436.754 145.808 436.677 146.059 436.649 146.101C436.621 146.129 436.51 146.143 436.315 146.143H436.022C435.938 146.059 435.896 145.996 435.896 145.954Z" fill="#D9EBFF"/>
</g>
<path d="M496 74.4356C496 73.0283 496.529 71.6907 497.588 70.4228C498.647 69.1549 499.839 68.5139 501.162 68.5C501.873 68.5 502.5 68.8414 503.043 69.5241C503.266 69.1061 503.587 68.8971 504.005 68.8971C504.186 68.8971 504.346 68.9528 504.485 69.0643C504.625 69.1758 504.694 69.3151 504.694 69.4823C504.694 69.6634 504.437 70.7781 503.921 72.8263C503.406 74.8745 503.141 76.0309 503.127 76.2957C503.127 76.644 503.176 76.8739 503.273 76.9854C503.371 77.0968 503.517 77.1595 503.712 77.1735C503.837 77.1595 503.977 77.0968 504.13 76.9854C504.423 76.7067 504.708 76.0379 504.987 74.979C505.071 74.7003 505.14 74.554 505.196 74.5401C505.224 74.5261 505.293 74.5192 505.405 74.5192H505.489C505.753 74.5192 505.886 74.5819 505.886 74.7073C505.886 74.7909 505.851 74.979 505.781 75.2716C505.711 75.5642 505.572 75.9404 505.363 76.4002C505.154 76.86 504.931 77.2083 504.694 77.4452C504.513 77.6263 504.29 77.7726 504.026 77.8841C503.914 77.9119 503.747 77.9259 503.524 77.9259C503.05 77.9259 502.653 77.8214 502.333 77.6124C502.012 77.4034 501.803 77.1874 501.706 76.9645L501.58 76.651C501.566 76.637 501.538 76.644 501.497 76.6719C501.469 76.6997 501.441 76.7276 501.413 76.7555C500.591 77.5357 499.755 77.9259 498.905 77.9259C498.139 77.9259 497.463 77.6472 496.878 77.0899C496.293 76.5325 496 75.6478 496 74.4356ZM502.646 70.8617C502.646 70.7781 502.611 70.6248 502.542 70.4019C502.472 70.179 502.312 69.9351 502.061 69.6704C501.81 69.4057 501.49 69.2663 501.1 69.2524C500.612 69.2524 500.145 69.4684 499.699 69.9003C499.253 70.3322 498.905 70.8965 498.654 71.5932C498.25 72.6939 497.965 73.8364 497.797 75.0208C497.797 75.0626 497.797 75.1392 497.797 75.2507C497.797 75.3621 497.79 75.4457 497.776 75.5015C497.776 76.1285 497.902 76.5604 498.153 76.7973C498.403 77.0341 498.703 77.1595 499.051 77.1735C499.581 77.1735 500.103 76.9436 500.619 76.4838C501.134 76.024 501.441 75.6687 501.538 75.4179C501.566 75.3621 501.754 74.6167 502.103 73.1816C502.451 71.7465 502.632 70.9732 502.646 70.8617Z" fill="#D9EBFF"/>
<path d="M271.69 139.784C271.69 139.644 271.718 139.484 271.773 139.303C271.829 139.122 271.913 139.031 272.024 139.031C272.038 139.031 272.54 138.996 273.529 138.927C274.518 138.857 275.027 138.815 275.055 138.801C275.222 138.801 275.305 138.864 275.305 138.989C275.305 139.115 275.069 140.111 274.595 141.978C274.483 142.452 274.365 142.939 274.239 143.441C274.114 143.943 274.01 144.319 273.926 144.57L273.842 144.967C273.842 145.009 273.884 144.988 273.968 144.904C274.651 144.347 275.354 144.068 276.079 144.068C276.943 144.068 277.639 144.389 278.169 145.029C278.698 145.67 278.97 146.478 278.984 147.454C278.984 149 278.433 150.401 277.333 151.655C276.232 152.909 275.048 153.536 273.78 153.536C273.083 153.536 272.449 153.271 271.878 152.741C271.307 152.212 271.014 151.355 271 150.171V149.983C271 149.69 271.056 149.286 271.167 148.771C271.279 148.255 271.62 146.883 272.191 144.653C272.888 141.908 273.236 140.452 273.236 140.285C273.236 140.118 272.972 140.02 272.442 139.993C272.372 139.993 272.317 139.993 272.275 139.993H272.17C272.031 139.993 271.94 139.993 271.899 139.993C271.857 139.993 271.808 139.972 271.752 139.93C271.697 139.888 271.676 139.839 271.69 139.784ZM277.186 146.513V146.388C277.186 145.357 276.761 144.841 275.911 144.841C275.675 144.841 275.431 144.897 275.18 145.009C274.929 145.12 274.699 145.266 274.49 145.447C274.281 145.629 274.1 145.796 273.947 145.949C273.794 146.102 273.668 146.256 273.571 146.409L273.445 146.576L273.006 148.373C272.7 149.572 272.547 150.422 272.547 150.923C272.547 151.592 272.714 152.094 273.048 152.428C273.271 152.651 273.55 152.762 273.884 152.762C274.344 152.762 274.811 152.539 275.284 152.094C275.633 151.773 275.911 151.383 276.12 150.923C276.329 150.463 276.559 149.732 276.81 148.729C277.061 147.726 277.186 146.987 277.186 146.513Z" fill="#D9EBFF"/>
<path d="M382.111 189.503C396.306 213.189 427.015 220.884 450.701 206.69C474.388 192.496 482.083 161.787 467.889 138.1C453.694 114.413 422.986 106.718 399.299 120.912C387.611 127.917 379.816 138.942 376.624 151.161M376.624 151.161L369.278 138.902M376.624 151.161L389.221 143.612" stroke="#B3BFD8" stroke-width="2" stroke-linecap="round" stroke-linejoin="round"/>
<path d="M274.5 163.801L350 207.468L425.5 163.801" stroke="#B3BFD8" stroke-width="2"/>
<circle cx="425" cy="12.5" r="5" fill="black" stroke="#D9EBFF" stroke-width="2"/>
<circle cx="350" cy="56.5" r="5" fill="black" stroke="#D9EBFF" stroke-width="2"/>
<circle cx="275" cy="12.5" r="5" fill="black" stroke="#D9EBFF" stroke-width="2"/>
<circle cx="350" cy="207.5" r="5" fill="black" stroke="#D9EBFF" stroke-width="2"/>
<circle cx="426" cy="163.5" r="5" fill="black" stroke="#D9EBFF" stroke-width="2"/>
<circle cx="274" cy="163.5" r="5" fill="black" stroke="#D9EBFF" stroke-width="2"/>
</g>
<defs>
<clipPath id="clip0_99_126">
<rect width="700" height="218" fill="white" transform="translate(0 0.5)"/>
</clipPath>
<clipPath id="clip1_99_126">
<rect width="39.906" height="13.419" fill="white" transform="translate(405 140.801)"/>
</clipPath>
</defs>
</svg>
