<svg width="700" height="233" viewBox="0 0 700 233" fill="none" xmlns="http://www.w3.org/2000/svg">
<rect width="700" height="233" fill="#0A0D12"/>
<path opacity="0.2" d="M274.5 11H425.5M274.5 11L350 54.6667L425.5 11M274.5 11L199 86.6667L274.5 162.333M425.5 11L501 86.6667L425.5 162.333M425.5 162.333L350 206L274.5 162.333M425.5 162.333H274.5" stroke="#B3BFD8" stroke-width="2"/>
<path d="M350 206L425.5 162.333H274.5L350 206Z" stroke="#B3BFD8" stroke-width="2"/>
<circle cx="200" cy="87" r="5" fill="black" stroke="#D9EBFF" stroke-width="2"/>
<circle cx="275" cy="11" r="5" fill="black" stroke="#D9EBFF" stroke-width="2"/>
<circle cx="425" cy="11" r="5" fill="black" stroke="#D9EBFF" stroke-width="2"/>
<circle cx="350" cy="55" r="5" fill="black" stroke="#D9EBFF" stroke-width="2"/>
<circle cx="350" cy="206" r="5" fill="black" stroke="#D9EBFF" stroke-width="2"/>
<circle cx="426" cy="162" r="5" fill="black" stroke="#D9EBFF" stroke-width="2"/>
<circle cx="274" cy="162" r="5" fill="black" stroke="#D9EBFF" stroke-width="2"/>
<circle cx="501" cy="87" r="5" fill="black" stroke="#D9EBFF" stroke-width="2"/>
<path d="M261 173.241C261.014 173.157 261.035 173.046 261.063 172.907C261.091 172.767 261.174 172.502 261.314 172.112C261.453 171.722 261.592 171.395 261.732 171.13C261.871 170.865 262.101 170.607 262.421 170.356C262.742 170.106 263.062 169.987 263.383 170.001C263.885 170.001 264.303 170.127 264.637 170.377C264.971 170.628 265.18 170.865 265.264 171.088C265.348 171.311 265.389 171.457 265.389 171.527C265.389 171.555 265.396 171.569 265.41 171.569L265.64 171.339C266.49 170.447 267.459 170.001 268.546 170.001C269.298 170.001 269.904 170.189 270.364 170.565C270.824 170.942 271.061 171.492 271.075 172.217C271.089 172.941 270.824 174.035 270.281 175.498C269.737 176.962 269.472 177.846 269.486 178.153C269.486 178.515 269.605 178.696 269.842 178.696C269.925 178.696 269.988 178.689 270.03 178.676C270.434 178.606 270.796 178.341 271.117 177.881C271.437 177.421 271.681 176.864 271.848 176.209C271.876 176.098 272.016 176.042 272.266 176.042C272.545 176.042 272.684 176.098 272.684 176.209C272.684 176.223 272.657 176.328 272.601 176.523C272.489 176.927 272.336 177.324 272.141 177.714C271.946 178.104 271.625 178.494 271.179 178.885C270.733 179.275 270.253 179.463 269.737 179.449C269.082 179.449 268.608 179.261 268.316 178.885C268.023 178.508 267.877 178.118 267.877 177.714C267.877 177.449 268.128 176.613 268.629 175.206C269.131 173.798 269.389 172.739 269.403 172.029C269.403 171.206 269.096 170.795 268.483 170.795H268.379C267.18 170.795 266.17 171.499 265.348 172.907L265.201 173.157L264.512 175.958C264.052 177.784 263.787 178.766 263.717 178.905C263.536 179.282 263.237 179.47 262.818 179.47C262.637 179.47 262.491 179.428 262.38 179.344C262.268 179.261 262.191 179.177 262.15 179.094C262.108 179.01 262.094 178.94 262.108 178.885C262.108 178.703 262.373 177.568 262.902 175.477C263.432 173.387 263.71 172.252 263.738 172.07C263.752 172.001 263.759 171.841 263.759 171.59C263.759 171.046 263.592 170.774 263.257 170.774C262.728 170.774 262.289 171.471 261.941 172.865C261.857 173.143 261.815 173.29 261.815 173.304C261.787 173.387 261.655 173.429 261.418 173.429H261.125C261.042 173.345 261 173.283 261 173.241Z" fill="#D9EBFF"/>
<path d="M276.255 173.846L276.063 173.92C275.925 173.969 275.728 174.018 275.472 174.068C275.216 174.117 274.93 174.151 274.615 174.171H274.334V173.491H274.615C275.078 173.472 275.506 173.398 275.901 173.27C276.295 173.142 276.57 173.023 276.728 172.915C276.886 172.807 277.024 172.698 277.142 172.59C277.162 172.56 277.221 172.546 277.319 172.546C277.408 172.546 277.492 172.575 277.57 172.634V177.053L277.585 181.486C277.654 181.555 277.713 181.599 277.763 181.619C277.812 181.639 277.93 181.659 278.117 181.678C278.304 181.698 278.61 181.708 279.033 181.708H279.418V182.388H279.255C279.048 182.358 278.265 182.343 276.905 182.343C275.566 182.343 274.792 182.358 274.585 182.388H274.408V181.708H274.792C275.009 181.708 275.196 181.708 275.354 181.708C275.511 181.708 275.635 181.703 275.723 181.693C275.812 181.683 275.891 181.668 275.96 181.649C276.029 181.629 276.068 181.619 276.078 181.619C276.088 181.619 276.117 181.595 276.167 181.545C276.216 181.496 276.245 181.476 276.255 181.486V173.846Z" fill="#D9EBFF"/>
<path d="M341 218.241C341.014 218.157 341.035 218.046 341.063 217.907C341.091 217.767 341.174 217.502 341.314 217.112C341.453 216.722 341.592 216.395 341.732 216.13C341.871 215.865 342.101 215.607 342.421 215.356C342.742 215.106 343.062 214.987 343.383 215.001C343.885 215.001 344.303 215.127 344.637 215.377C344.971 215.628 345.18 215.865 345.264 216.088C345.348 216.311 345.389 216.457 345.389 216.527C345.389 216.555 345.396 216.569 345.41 216.569L345.64 216.339C346.49 215.447 347.459 215.001 348.546 215.001C349.298 215.001 349.904 215.189 350.364 215.565C350.824 215.942 351.061 216.492 351.075 217.217C351.089 217.941 350.824 219.035 350.281 220.498C349.737 221.962 349.472 222.846 349.486 223.153C349.486 223.515 349.605 223.696 349.842 223.696C349.925 223.696 349.988 223.689 350.03 223.676C350.434 223.606 350.796 223.341 351.117 222.881C351.437 222.421 351.681 221.864 351.848 221.209C351.876 221.098 352.016 221.042 352.266 221.042C352.545 221.042 352.684 221.098 352.684 221.209C352.684 221.223 352.657 221.328 352.601 221.523C352.489 221.927 352.336 222.324 352.141 222.714C351.946 223.104 351.625 223.494 351.179 223.885C350.733 224.275 350.253 224.463 349.737 224.449C349.082 224.449 348.608 224.261 348.316 223.885C348.023 223.508 347.877 223.118 347.877 222.714C347.877 222.449 348.128 221.613 348.629 220.206C349.131 218.798 349.389 217.739 349.403 217.029C349.403 216.206 349.096 215.795 348.483 215.795H348.379C347.18 215.795 346.17 216.499 345.348 217.907L345.201 218.157L344.512 220.958C344.052 222.784 343.787 223.766 343.717 223.905C343.536 224.282 343.237 224.47 342.819 224.47C342.637 224.47 342.491 224.428 342.38 224.344C342.268 224.261 342.191 224.177 342.15 224.094C342.108 224.01 342.094 223.94 342.108 223.885C342.108 223.703 342.373 222.568 342.902 220.477C343.432 218.387 343.71 217.252 343.738 217.07C343.752 217.001 343.759 216.841 343.759 216.59C343.759 216.046 343.592 215.774 343.257 215.774C342.728 215.774 342.289 216.471 341.941 217.865C341.857 218.143 341.815 218.29 341.815 218.304C341.787 218.387 341.655 218.429 341.418 218.429H341.125C341.042 218.345 341 218.283 341 218.241Z" fill="#D9EBFF"/>
<path d="M354.718 221.048C354.452 221.048 354.24 220.959 354.083 220.782C353.925 220.605 353.846 220.388 353.846 220.132C353.846 219.432 354.107 218.826 354.63 218.314C355.152 217.802 355.802 217.546 356.58 217.546C357.477 217.546 358.226 217.821 358.827 218.373C359.428 218.925 359.733 219.639 359.743 220.516C359.743 220.94 359.644 221.343 359.447 221.728C359.25 222.112 359.014 222.447 358.738 222.733C358.462 223.018 358.068 223.383 357.556 223.826C357.201 224.132 356.708 224.585 356.078 225.186L355.206 226.013L356.329 226.028C357.876 226.028 358.698 226.003 358.797 225.954C358.866 225.934 358.984 225.496 359.152 224.639V224.595H359.743V224.639C359.733 224.668 359.669 225.117 359.551 225.984C359.432 226.851 359.359 227.304 359.329 227.343V227.388H353.846V226.929C353.846 226.861 353.876 226.787 353.935 226.708C353.994 226.629 354.142 226.457 354.378 226.191C354.664 225.875 354.91 225.599 355.117 225.363C355.206 225.265 355.373 225.082 355.62 224.816C355.866 224.55 356.034 224.368 356.122 224.269C356.211 224.171 356.354 224.008 356.551 223.782C356.748 223.555 356.886 223.388 356.965 223.279C357.043 223.171 357.157 223.023 357.304 222.836C357.452 222.649 357.556 222.491 357.615 222.363C357.674 222.235 357.748 222.092 357.836 221.935C357.925 221.777 357.989 221.619 358.029 221.462C358.068 221.304 358.102 221.156 358.132 221.018C358.162 220.88 358.176 220.718 358.176 220.531C358.176 219.91 358.009 219.373 357.674 218.92C357.339 218.467 356.861 218.24 356.24 218.24C355.915 218.24 355.63 218.324 355.383 218.491C355.137 218.659 354.965 218.821 354.866 218.979C354.768 219.137 354.718 219.23 354.718 219.26C354.718 219.27 354.743 219.275 354.792 219.275C354.97 219.275 355.152 219.343 355.339 219.481C355.526 219.619 355.62 219.846 355.62 220.161C355.62 220.408 355.541 220.614 355.383 220.782C355.226 220.949 355.004 221.038 354.718 221.048Z" fill="#D9EBFF"/>
<path d="M420 174.241C420.014 174.157 420.035 174.046 420.063 173.907C420.091 173.767 420.174 173.502 420.314 173.112C420.453 172.722 420.592 172.395 420.732 172.13C420.871 171.865 421.101 171.607 421.421 171.356C421.742 171.106 422.062 170.987 422.383 171.001C422.885 171.001 423.303 171.127 423.637 171.377C423.971 171.628 424.18 171.865 424.264 172.088C424.348 172.311 424.389 172.457 424.389 172.527C424.389 172.555 424.396 172.569 424.41 172.569L424.64 172.339C425.49 171.447 426.459 171.001 427.546 171.001C428.298 171.001 428.904 171.189 429.364 171.565C429.824 171.942 430.061 172.492 430.075 173.217C430.089 173.941 429.824 175.035 429.281 176.498C428.737 177.962 428.472 178.846 428.486 179.153C428.486 179.515 428.605 179.696 428.842 179.696C428.925 179.696 428.988 179.689 429.03 179.676C429.434 179.606 429.796 179.341 430.117 178.881C430.437 178.421 430.681 177.864 430.848 177.209C430.876 177.098 431.016 177.042 431.266 177.042C431.545 177.042 431.684 177.098 431.684 177.209C431.684 177.223 431.657 177.328 431.601 177.523C431.489 177.927 431.336 178.324 431.141 178.714C430.946 179.104 430.625 179.494 430.179 179.885C429.733 180.275 429.253 180.463 428.737 180.449C428.082 180.449 427.608 180.261 427.316 179.885C427.023 179.508 426.877 179.118 426.877 178.714C426.877 178.449 427.128 177.613 427.629 176.206C428.131 174.798 428.389 173.739 428.403 173.029C428.403 172.206 428.096 171.795 427.483 171.795H427.379C426.18 171.795 425.17 172.499 424.348 173.907L424.201 174.157L423.512 176.958C423.052 178.784 422.787 179.766 422.717 179.905C422.536 180.282 422.237 180.47 421.818 180.47C421.637 180.47 421.491 180.428 421.38 180.344C421.268 180.261 421.191 180.177 421.15 180.094C421.108 180.01 421.094 179.94 421.108 179.885C421.108 179.703 421.373 178.568 421.902 176.477C422.432 174.387 422.71 173.252 422.738 173.07C422.752 173.001 422.759 172.841 422.759 172.59C422.759 172.046 422.592 171.774 422.257 171.774C421.728 171.774 421.289 172.471 420.941 173.865C420.857 174.143 420.815 174.29 420.815 174.304C420.787 174.387 420.655 174.429 420.418 174.429H420.125C420.042 174.345 420 174.283 420 174.241Z" fill="#D9EBFF"/>
<path d="M433.984 176.545C433.718 176.545 433.511 176.462 433.364 176.294C433.216 176.127 433.137 175.91 433.127 175.644C433.127 175.102 433.364 174.619 433.837 174.196C434.309 173.772 434.881 173.56 435.551 173.56C435.896 173.56 436.112 173.565 436.201 173.575C436.93 173.693 437.487 173.954 437.871 174.358C438.255 174.762 438.452 175.201 438.462 175.674C438.462 176.186 438.295 176.683 437.96 177.166C437.625 177.649 437.162 177.999 436.57 178.215L436.526 178.245C436.526 178.255 436.57 178.27 436.659 178.289C436.748 178.309 436.891 178.353 437.088 178.422C437.285 178.491 437.472 178.595 437.649 178.733C438.457 179.255 438.861 179.944 438.861 180.801C438.861 181.58 438.556 182.26 437.945 182.841C437.334 183.422 436.561 183.713 435.625 183.713C434.836 183.713 434.157 183.501 433.585 183.077C433.014 182.654 432.728 182.117 432.728 181.466C432.728 181.191 432.817 180.969 432.994 180.801C433.172 180.634 433.393 180.545 433.659 180.535C433.935 180.535 434.162 180.624 434.339 180.801C434.516 180.979 434.605 181.2 434.605 181.466C434.605 181.575 434.59 181.673 434.561 181.762C434.531 181.851 434.497 181.93 434.457 181.998C434.418 182.067 434.364 182.127 434.295 182.176C434.226 182.225 434.167 182.264 434.117 182.294C434.068 182.324 434.019 182.343 433.97 182.353C433.92 182.363 433.881 182.378 433.851 182.397L433.792 182.412C434.295 182.856 434.905 183.077 435.625 183.077C436.167 183.077 436.575 182.816 436.851 182.294C437.019 181.969 437.102 181.471 437.102 180.801V180.506C437.102 179.57 436.787 178.944 436.157 178.629C436.009 178.57 435.708 178.536 435.255 178.526L434.635 178.511L434.59 178.481C434.57 178.452 434.561 178.373 434.561 178.245C434.561 178.068 434.6 177.979 434.679 177.979C434.955 177.979 435.24 177.954 435.536 177.905C435.871 177.856 436.176 177.649 436.452 177.284C436.728 176.92 436.866 176.368 436.866 175.629V175.511C436.866 174.949 436.694 174.56 436.349 174.344C436.132 174.206 435.9 174.137 435.654 174.137C435.339 174.137 435.048 174.191 434.782 174.299C434.516 174.408 434.329 174.521 434.221 174.639C434.112 174.757 434.058 174.816 434.058 174.816H434.103C434.132 174.826 434.171 174.836 434.221 174.846C434.27 174.856 434.319 174.88 434.369 174.92C434.418 174.959 434.477 174.994 434.546 175.023C434.615 175.053 434.664 175.107 434.694 175.186C434.723 175.265 434.763 175.339 434.812 175.408C434.861 175.476 434.876 175.575 434.856 175.703C434.856 175.92 434.787 176.112 434.649 176.279C434.511 176.447 434.29 176.536 433.984 176.545Z" fill="#D9EBFF"/>
</svg>
