<svg width="700" height="272" viewBox="0 0 700 272" fill="none" xmlns="http://www.w3.org/2000/svg">
<rect width="700" height="271" transform="translate(0 0.5)" fill="#0A0D12"/>
<path d="M350 224.167L274.5 180.5H425.5L350 224.167Z" stroke="#B3BFD8" stroke-width="2"/>
<circle cx="425" cy="180.5" r="5" fill="black" stroke="#D9EBFF" stroke-width="2"/>
<circle cx="350" cy="223.5" r="5" fill="black" stroke="#D9EBFF" stroke-width="2"/>
<circle cx="275" cy="180.5" r="5" fill="black" stroke="#D9EBFF" stroke-width="2"/>
<path d="M350 54.1667L425.5 10.5L501 86.1667L425.5 161.833H274.5L199 86.1667L274.5 10.5L350 54.1667Z" stroke="#B3BFD8" stroke-width="2"/>
<circle cx="200" cy="86.5" r="5" fill="black" stroke="#D9EBFF" stroke-width="2"/>
<circle cx="275" cy="10.5" r="5" fill="black" stroke="#D9EBFF" stroke-width="2"/>
<circle cx="425" cy="10.5" r="5" fill="black" stroke="#D9EBFF" stroke-width="2"/>
<circle cx="350" cy="54.5" r="5" fill="black" stroke="#D9EBFF" stroke-width="2"/>
<circle cx="426" cy="161.5" r="5" fill="black" stroke="#D9EBFF" stroke-width="2"/>
<circle cx="274" cy="161.5" r="5" fill="black" stroke="#D9EBFF" stroke-width="2"/>
<circle cx="501" cy="86.5" r="5" fill="black" stroke="#D9EBFF" stroke-width="2"/>
<path d="M142 258.852C142 257.334 142.599 255.968 143.797 254.756C144.996 253.544 146.292 252.937 147.685 252.937C148.465 252.937 149.078 253.105 149.524 253.439C149.97 253.773 150.2 254.212 150.214 254.756C150.214 255.16 150.082 255.501 149.817 255.78C149.552 256.059 149.218 256.205 148.814 256.219C148.549 256.219 148.34 256.149 148.187 256.01C148.033 255.871 147.957 255.662 147.957 255.383C147.957 255.104 148.033 254.867 148.187 254.672C148.34 254.477 148.493 254.331 148.646 254.233C148.8 254.136 148.897 254.094 148.939 254.108H148.96C148.96 254.08 148.918 254.038 148.835 253.982C148.751 253.927 148.605 253.871 148.396 253.815C148.187 253.76 147.95 253.732 147.685 253.732C147.267 253.732 146.87 253.829 146.494 254.024C146.201 254.15 145.901 254.366 145.595 254.672C144.982 255.285 144.536 256.149 144.257 257.264C143.979 258.379 143.832 259.187 143.818 259.688C143.818 260.329 144 260.81 144.362 261.131C144.668 261.465 145.072 261.632 145.574 261.632H145.658C147.218 261.632 148.507 261.04 149.524 259.856C149.65 259.716 149.733 259.647 149.775 259.647C149.831 259.647 149.921 259.709 150.047 259.835C150.172 259.96 150.242 260.058 150.256 260.127C150.27 260.197 150.207 260.301 150.068 260.441C149.928 260.58 149.726 260.775 149.462 261.026C149.197 261.277 148.883 261.486 148.521 261.653C148.159 261.82 147.713 261.994 147.183 262.176C146.654 262.357 146.097 262.433 145.511 262.406C144.466 262.406 143.623 262.071 142.982 261.402C142.341 260.733 142.014 259.883 142 258.852Z" fill="#D9EBFF"/>
<path d="M150.778 256.177C150.778 255.982 150.883 255.648 151.092 255.174C151.301 254.7 151.635 254.205 152.095 253.69C152.555 253.174 153.07 252.924 153.642 252.937C154.213 252.937 154.673 253.098 155.021 253.418C155.37 253.739 155.551 254.185 155.565 254.756C155.537 255.021 155.516 255.167 155.502 255.195C155.502 255.237 155.39 255.557 155.168 256.156C154.945 256.755 154.715 257.431 154.478 258.184C154.241 258.936 154.129 259.535 154.143 259.981C154.143 260.58 154.241 260.998 154.436 261.235C154.631 261.472 154.924 261.597 155.314 261.611C155.634 261.611 155.934 261.535 156.213 261.381C156.491 261.228 156.707 261.068 156.86 260.901C157.014 260.733 157.202 260.504 157.425 260.211C157.425 260.197 157.46 260.058 157.529 259.793C157.599 259.528 157.697 259.117 157.822 258.56C157.947 258.002 158.08 257.487 158.219 257.013C158.749 254.923 159.041 253.829 159.097 253.732C159.278 253.355 159.578 253.167 159.996 253.167C160.177 253.167 160.323 253.216 160.435 253.314C160.546 253.411 160.623 253.495 160.664 253.564C160.706 253.634 160.72 253.697 160.706 253.753C160.706 253.934 160.365 255.397 159.682 258.142C158.999 260.887 158.609 262.392 158.512 262.656C158.121 263.813 157.446 264.732 156.484 265.415C155.523 266.098 154.561 266.446 153.6 266.46C152.973 266.46 152.423 266.307 151.949 266C151.475 265.694 151.238 265.234 151.238 264.621C151.238 264.314 151.287 264.057 151.384 263.848C151.482 263.639 151.614 263.485 151.782 263.388C151.949 263.29 152.088 263.221 152.2 263.179C152.311 263.137 152.429 263.116 152.555 263.116C153.168 263.116 153.475 263.409 153.475 263.994C153.475 264.273 153.391 264.516 153.224 264.725C153.057 264.935 152.896 265.074 152.743 265.144C152.59 265.213 152.499 265.248 152.471 265.248L152.409 265.269C152.436 265.339 152.569 265.422 152.806 265.52C153.043 265.617 153.279 265.666 153.516 265.666H153.684C153.92 265.666 154.102 265.652 154.227 265.624C154.687 265.499 155.112 265.234 155.502 264.83C155.892 264.426 156.192 263.994 156.401 263.534C156.61 263.074 156.77 262.684 156.881 262.364C156.993 262.043 157.049 261.834 157.049 261.737L156.923 261.82C156.84 261.876 156.707 261.953 156.526 262.05C156.345 262.148 156.164 262.231 155.983 262.301C155.704 262.371 155.432 262.406 155.168 262.406C154.527 262.406 153.962 262.252 153.475 261.946C152.987 261.639 152.666 261.144 152.513 260.462C152.499 260.364 152.492 260.148 152.492 259.814C152.492 259.02 152.736 257.982 153.224 256.7C153.711 255.418 153.955 254.603 153.955 254.254C153.955 254.24 153.955 254.226 153.955 254.212C153.955 254.087 153.955 254.003 153.955 253.962C153.955 253.92 153.927 253.871 153.872 253.815C153.816 253.76 153.739 253.732 153.642 253.732H153.558C153.238 253.732 152.945 253.864 152.68 254.129C152.416 254.394 152.207 254.679 152.053 254.986C151.9 255.292 151.782 255.585 151.698 255.864C151.614 256.142 151.559 256.296 151.531 256.323C151.503 256.351 151.391 256.365 151.196 256.365H150.904C150.82 256.282 150.778 256.219 150.778 256.177Z" fill="#D9EBFF"/>
<path d="M161.459 258.852C161.459 257.334 162.058 255.968 163.256 254.756C164.454 253.544 165.75 252.937 167.144 252.937C167.924 252.937 168.537 253.105 168.983 253.439C169.429 253.773 169.659 254.212 169.673 254.756C169.673 255.16 169.54 255.501 169.276 255.78C169.011 256.059 168.676 256.205 168.272 256.219C168.008 256.219 167.799 256.149 167.645 256.01C167.492 255.871 167.415 255.662 167.415 255.383C167.415 255.104 167.492 254.867 167.645 254.672C167.799 254.477 167.952 254.331 168.105 254.233C168.258 254.136 168.356 254.094 168.398 254.108H168.419C168.419 254.08 168.377 254.038 168.293 253.982C168.21 253.927 168.063 253.871 167.854 253.815C167.645 253.76 167.408 253.732 167.144 253.732C166.726 253.732 166.329 253.829 165.952 254.024C165.66 254.15 165.36 254.366 165.054 254.672C164.44 255.285 163.995 256.149 163.716 257.264C163.437 258.379 163.291 259.187 163.277 259.688C163.277 260.329 163.458 260.81 163.82 261.131C164.127 261.465 164.531 261.632 165.033 261.632H165.116C166.677 261.632 167.966 261.04 168.983 259.856C169.108 259.716 169.192 259.647 169.234 259.647C169.289 259.647 169.38 259.709 169.505 259.835C169.631 259.96 169.701 260.058 169.714 260.127C169.728 260.197 169.666 260.301 169.526 260.441C169.387 260.58 169.185 260.775 168.92 261.026C168.655 261.277 168.342 261.486 167.98 261.653C167.617 261.82 167.172 261.994 166.642 262.176C166.113 262.357 165.555 262.433 164.97 262.406C163.925 262.406 163.082 262.071 162.441 261.402C161.8 260.733 161.473 259.883 161.459 258.852Z" fill="#D9EBFF"/>
<path d="M172.243 260.942C172.243 261.402 172.418 261.632 172.766 261.632C173.282 261.632 173.72 260.901 174.083 259.438C174.166 259.159 174.236 259.013 174.292 258.999C174.32 258.985 174.389 258.978 174.501 258.978H174.584C174.71 258.978 174.793 258.978 174.835 258.978C174.877 258.978 174.912 258.992 174.94 259.02C174.968 259.047 174.981 259.096 174.981 259.166C174.968 259.249 174.947 259.361 174.919 259.5C174.891 259.64 174.814 259.904 174.689 260.295C174.563 260.685 174.424 261.012 174.271 261.277C174.118 261.542 173.902 261.799 173.623 262.05C173.344 262.301 173.024 262.419 172.661 262.406C172.16 262.406 171.693 262.252 171.261 261.946C170.829 261.639 170.606 261.124 170.592 260.399C170.592 260.232 170.599 260.113 170.613 260.044L171.972 254.651C172.85 251.098 173.288 249.266 173.288 249.154C173.288 249.113 173.282 249.078 173.268 249.05C173.254 249.022 173.226 248.994 173.184 248.966C173.142 248.938 173.107 248.924 173.079 248.924C173.052 248.924 172.996 248.918 172.912 248.904C172.829 248.89 172.773 248.883 172.745 248.883C172.717 248.883 172.655 248.876 172.557 248.862C172.459 248.848 172.39 248.848 172.348 248.862C172.209 248.862 172.118 248.862 172.076 248.862C172.034 248.862 171.979 248.855 171.909 248.841C171.839 248.827 171.798 248.806 171.784 248.778C171.77 248.75 171.763 248.709 171.763 248.653C171.763 248.625 171.777 248.527 171.805 248.36C171.874 248.095 171.951 247.949 172.034 247.921C172.118 247.893 172.62 247.852 173.539 247.796C173.748 247.782 173.985 247.768 174.25 247.754C174.515 247.74 174.724 247.719 174.877 247.691C175.03 247.663 175.107 247.657 175.107 247.67C175.274 247.67 175.358 247.726 175.358 247.838C175.358 247.991 174.849 250.081 173.832 254.108C172.815 258.135 172.292 260.246 172.264 260.441C172.264 260.469 172.264 260.524 172.264 260.608C172.264 260.692 172.257 260.761 172.243 260.817V260.942Z" fill="#D9EBFF"/>
<path d="M176.863 258.664C176.863 257.87 176.995 257.145 177.26 256.491C177.524 255.836 177.866 255.292 178.284 254.86C178.702 254.428 179.169 254.066 179.684 253.773C180.2 253.481 180.687 253.265 181.147 253.126C181.607 252.986 182.046 252.924 182.464 252.937H182.527C183.154 252.937 183.697 253.091 184.157 253.397C184.617 253.704 184.847 254.157 184.847 254.756C184.847 256.01 184.073 256.832 182.527 257.222C181.844 257.403 180.91 257.501 179.726 257.515C179.21 257.515 178.946 257.529 178.932 257.557C178.932 257.584 178.89 257.828 178.806 258.288C178.723 258.748 178.674 259.152 178.66 259.5C178.66 260.155 178.806 260.671 179.099 261.047C179.392 261.423 179.83 261.618 180.416 261.632C181.001 261.646 181.649 261.514 182.359 261.235C183.07 260.956 183.711 260.497 184.282 259.856C184.408 259.716 184.491 259.647 184.533 259.647C184.589 259.647 184.679 259.709 184.805 259.835C184.93 259.96 185 260.058 185.014 260.127C185.028 260.197 184.965 260.308 184.826 260.462C184.686 260.615 184.477 260.803 184.199 261.026C183.92 261.249 183.6 261.465 183.237 261.674C182.875 261.883 182.436 262.057 181.921 262.197C181.405 262.336 180.875 262.406 180.332 262.406C179.231 262.406 178.381 262.036 177.782 261.298C177.183 260.559 176.876 259.681 176.863 258.664ZM183.843 254.798C183.76 254.073 183.286 253.711 182.422 253.711C181.962 253.711 181.537 253.808 181.147 254.003C180.757 254.198 180.444 254.435 180.207 254.714C179.97 254.993 179.768 255.278 179.601 255.571C179.433 255.864 179.322 256.114 179.266 256.323C179.21 256.532 179.176 256.665 179.162 256.72C179.162 256.734 179.301 256.741 179.58 256.741C181.154 256.741 182.255 256.574 182.882 256.24C183.509 255.905 183.829 255.425 183.843 254.798Z" fill="#D9EBFF"/>
<path d="M188.525 256.135C188.525 255.689 188.637 255.237 188.86 254.777C189.083 254.317 189.473 253.892 190.03 253.502C190.587 253.112 191.263 252.924 192.057 252.937C192.921 252.937 193.548 253.126 193.938 253.502C194.329 253.878 194.531 254.296 194.545 254.756C194.545 255.202 194.426 255.529 194.189 255.738C193.952 255.947 193.688 256.059 193.395 256.073C193.214 256.073 193.047 256.017 192.893 255.905C192.74 255.794 192.657 255.613 192.643 255.362C192.643 255.139 192.705 254.944 192.831 254.777C192.956 254.61 193.075 254.484 193.186 254.401C193.298 254.317 193.388 254.275 193.458 254.275C193.472 254.275 193.479 254.268 193.479 254.254C193.479 254.212 193.43 254.15 193.332 254.066C193.235 253.982 193.061 253.906 192.81 253.836C192.559 253.767 192.287 253.725 191.995 253.711C191.326 253.711 190.838 253.892 190.532 254.254C190.225 254.616 190.065 254.986 190.051 255.362C190.051 255.71 190.183 255.954 190.448 256.093C190.713 256.233 191.096 256.351 191.598 256.449C192.099 256.546 192.461 256.651 192.684 256.762C193.604 257.166 194.064 257.835 194.064 258.769C194.064 259.159 193.987 259.549 193.834 259.939C193.681 260.329 193.451 260.72 193.144 261.11C192.838 261.5 192.399 261.806 191.828 262.029C191.256 262.252 190.601 262.371 189.863 262.385C188.79 262.385 188.031 262.183 187.585 261.778C187.139 261.374 186.909 260.901 186.895 260.357C186.895 259.814 187.041 259.424 187.334 259.187C187.626 258.95 187.933 258.831 188.253 258.831C188.462 258.831 188.658 258.894 188.839 259.02C189.02 259.145 189.117 259.361 189.131 259.668C189.131 260.03 189.006 260.336 188.755 260.587C188.504 260.838 188.288 260.963 188.107 260.963C188.079 260.977 188.058 260.984 188.044 260.984C188.031 260.984 188.024 260.998 188.024 261.026C188.037 261.068 188.093 261.124 188.191 261.193C188.288 261.263 188.504 261.354 188.839 261.465C189.173 261.576 189.556 261.625 189.988 261.611C190.49 261.611 190.922 261.535 191.284 261.381C191.646 261.228 191.911 261.033 192.078 260.796C192.246 260.559 192.364 260.343 192.434 260.148C192.503 259.953 192.538 259.779 192.538 259.626C192.538 259.236 192.392 258.943 192.099 258.748C191.807 258.553 191.472 258.434 191.096 258.393C190.72 258.351 190.309 258.246 189.863 258.079C189.417 257.912 189.09 257.668 188.88 257.348C188.644 256.999 188.525 256.595 188.525 256.135Z" fill="#D9EBFF"/>
<path d="M202.571 254.923C202.571 254.742 202.668 254.603 202.863 254.505H216.177C216.386 254.616 216.49 254.756 216.49 254.923C216.49 255.076 216.393 255.209 216.198 255.32L209.551 255.341H202.905C202.682 255.271 202.571 255.132 202.571 254.923ZM202.571 258.978C202.571 258.769 202.682 258.629 202.905 258.56H216.198C216.393 258.699 216.49 258.838 216.49 258.978C216.49 259.159 216.386 259.298 216.177 259.396H202.863C202.668 259.298 202.571 259.159 202.571 258.978Z" fill="#D9EBFF"/>
<path d="M225.457 256.95C225.457 255.989 225.527 255.076 225.666 254.212C225.805 253.348 225.965 252.603 226.147 251.976C226.328 251.349 226.586 250.736 226.92 250.137C227.254 249.538 227.519 249.071 227.714 248.736C227.909 248.402 228.202 248.04 228.592 247.65C228.982 247.259 229.212 247.023 229.282 246.939C229.351 246.855 229.526 246.709 229.804 246.5H230.16C230.355 246.5 230.452 246.563 230.452 246.688C230.452 246.73 230.334 246.876 230.097 247.127C229.86 247.378 229.574 247.747 229.24 248.235C228.906 248.722 228.564 249.322 228.216 250.032C227.867 250.743 227.575 251.704 227.338 252.917C227.101 254.129 226.983 255.473 226.983 256.95C226.983 258.427 227.101 259.765 227.338 260.963C227.575 262.162 227.86 263.13 228.195 263.869C228.529 264.607 228.871 265.206 229.219 265.666C229.567 266.126 229.86 266.495 230.097 266.774C230.334 267.052 230.452 267.199 230.452 267.213C230.452 267.338 230.348 267.401 230.139 267.401H229.804L229.219 266.899C227.909 265.715 226.955 264.238 226.356 262.468C225.756 260.699 225.457 258.859 225.457 256.95Z" fill="#D9EBFF"/>
<path d="M232.062 256.177C232.075 256.093 232.096 255.982 232.124 255.843C232.152 255.703 232.236 255.439 232.375 255.048C232.514 254.658 232.654 254.331 232.793 254.066C232.932 253.801 233.162 253.544 233.483 253.293C233.803 253.042 234.124 252.924 234.444 252.937C234.946 252.937 235.364 253.063 235.698 253.314C236.033 253.564 236.242 253.801 236.325 254.024C236.409 254.247 236.451 254.394 236.451 254.463C236.451 254.491 236.458 254.505 236.472 254.505L236.702 254.275C237.551 253.383 238.52 252.937 239.607 252.937C240.359 252.937 240.965 253.126 241.425 253.502C241.885 253.878 242.122 254.428 242.136 255.153C242.15 255.877 241.885 256.971 241.342 258.434C240.798 259.897 240.533 260.782 240.547 261.089C240.547 261.451 240.666 261.632 240.903 261.632C240.986 261.632 241.049 261.625 241.091 261.611C241.495 261.542 241.857 261.277 242.178 260.817C242.498 260.357 242.742 259.8 242.909 259.145C242.937 259.034 243.076 258.978 243.327 258.978C243.606 258.978 243.745 259.034 243.745 259.145C243.745 259.159 243.717 259.263 243.661 259.458C243.55 259.863 243.397 260.26 243.202 260.65C243.007 261.04 242.686 261.43 242.24 261.82C241.794 262.21 241.314 262.399 240.798 262.385C240.143 262.385 239.669 262.197 239.377 261.82C239.084 261.444 238.938 261.054 238.938 260.65C238.938 260.385 239.189 259.549 239.69 258.142C240.192 256.734 240.45 255.675 240.464 254.965C240.464 254.143 240.157 253.732 239.544 253.732H239.44C238.241 253.732 237.231 254.435 236.409 255.843L236.263 256.093L235.573 258.894C235.113 260.72 234.848 261.702 234.779 261.841C234.598 262.217 234.298 262.406 233.88 262.406C233.699 262.406 233.552 262.364 233.441 262.28C233.33 262.197 233.253 262.113 233.211 262.029C233.169 261.946 233.155 261.876 233.169 261.82C233.169 261.639 233.434 260.504 233.964 258.413C234.493 256.323 234.772 255.188 234.8 255.007C234.813 254.937 234.82 254.777 234.82 254.526C234.82 253.982 234.653 253.711 234.319 253.711C233.789 253.711 233.35 254.407 233.002 255.801C232.918 256.08 232.877 256.226 232.877 256.24C232.849 256.323 232.716 256.365 232.48 256.365H232.187C232.103 256.282 232.062 256.219 232.062 256.177Z" fill="#D9EBFF"/>
<path d="M245.587 256.679C246.138 255.881 246.892 255.482 247.848 255.482C248.32 255.482 248.793 255.61 249.266 255.866C249.739 256.122 250.123 256.575 250.419 257.225C250.783 258.043 250.966 259.166 250.966 260.594C250.966 262.121 250.754 263.289 250.33 264.097C250.133 264.51 249.862 264.84 249.517 265.087C249.173 265.333 248.872 265.486 248.616 265.545C248.36 265.604 248.109 265.638 247.862 265.648C247.606 265.648 247.35 265.619 247.094 265.56C246.838 265.5 246.537 265.343 246.193 265.087C245.848 264.831 245.577 264.5 245.38 264.097C244.956 263.289 244.744 262.121 244.744 260.594C244.744 258.88 245.025 257.575 245.587 256.679ZM248.912 256.501C248.616 256.186 248.266 256.028 247.862 256.028C247.449 256.028 247.094 256.186 246.798 256.501C246.552 256.757 246.39 257.112 246.311 257.565C246.232 258.018 246.193 258.964 246.193 260.402C246.193 261.959 246.232 262.983 246.311 263.476C246.39 263.969 246.567 264.358 246.843 264.643C247.119 264.939 247.459 265.087 247.862 265.087C248.256 265.087 248.591 264.939 248.867 264.643C249.153 264.348 249.33 263.934 249.399 263.402C249.468 262.87 249.508 261.87 249.517 260.402C249.517 258.974 249.478 258.033 249.399 257.58C249.32 257.127 249.158 256.767 248.912 256.501Z" fill="#D9EBFF"/>
<path d="M255.282 261.444C255.282 261.444 255.282 261.27 255.282 260.922C255.282 260.573 255.394 260.274 255.617 260.023C255.84 259.772 256.139 259.647 256.515 259.647C256.906 259.647 257.254 259.821 257.561 260.169C257.867 260.517 258.027 261.131 258.041 262.008C258.041 262.496 257.979 262.97 257.853 263.43C257.728 263.889 257.581 264.287 257.414 264.621C257.247 264.955 257.066 265.241 256.871 265.478C256.676 265.715 256.509 265.903 256.369 266.042C256.23 266.182 256.139 266.244 256.097 266.23C256.042 266.23 255.951 266.168 255.826 266.042C255.7 265.917 255.638 265.826 255.638 265.771C255.638 265.715 255.714 265.603 255.868 265.436C256.021 265.269 256.195 265.06 256.39 264.809C256.585 264.558 256.766 264.21 256.934 263.764C257.101 263.318 257.212 262.81 257.268 262.238V261.987L257.247 262.008C257.219 262.022 257.184 262.036 257.143 262.05C257.101 262.064 257.059 262.085 257.017 262.113C256.975 262.141 256.913 262.155 256.829 262.155C256.745 262.155 256.662 262.162 256.578 262.176C256.202 262.176 255.895 262.057 255.659 261.82L255.282 261.444Z" fill="#D9EBFF"/>
<path d="M263.413 256.177C263.427 256.093 263.448 255.982 263.475 255.843C263.503 255.703 263.587 255.439 263.726 255.048C263.866 254.658 264.005 254.331 264.144 254.066C264.284 253.801 264.514 253.544 264.834 253.293C265.154 253.042 265.475 252.924 265.795 252.937C266.297 252.937 266.715 253.063 267.049 253.314C267.384 253.564 267.593 253.801 267.677 254.024C267.76 254.247 267.802 254.394 267.802 254.463C267.802 254.491 267.809 254.505 267.823 254.505L268.053 254.275C268.903 253.383 269.871 252.937 270.958 252.937C271.71 252.937 272.317 253.126 272.776 253.502C273.236 253.878 273.473 254.428 273.487 255.153C273.501 255.877 273.236 256.971 272.693 258.434C272.149 259.897 271.885 260.782 271.898 261.089C271.898 261.451 272.017 261.632 272.254 261.632C272.337 261.632 272.4 261.625 272.442 261.611C272.846 261.542 273.208 261.277 273.529 260.817C273.849 260.357 274.093 259.8 274.26 259.145C274.288 259.034 274.427 258.978 274.678 258.978C274.957 258.978 275.096 259.034 275.096 259.145C275.096 259.159 275.068 259.263 275.013 259.458C274.901 259.863 274.748 260.26 274.553 260.65C274.358 261.04 274.037 261.43 273.591 261.82C273.146 262.21 272.665 262.399 272.149 262.385C271.494 262.385 271.021 262.197 270.728 261.82C270.435 261.444 270.289 261.054 270.289 260.65C270.289 260.385 270.54 259.549 271.042 258.142C271.543 256.734 271.801 255.675 271.815 254.965C271.815 254.143 271.508 253.732 270.895 253.732H270.791C269.592 253.732 268.582 254.435 267.76 255.843L267.614 256.093L266.924 258.894C266.464 260.72 266.2 261.702 266.13 261.841C265.949 262.217 265.649 262.406 265.231 262.406C265.05 262.406 264.904 262.364 264.792 262.28C264.681 262.197 264.604 262.113 264.562 262.029C264.521 261.946 264.507 261.876 264.521 261.82C264.521 261.639 264.785 260.504 265.315 258.413C265.844 256.323 266.123 255.188 266.151 255.007C266.165 254.937 266.172 254.777 266.172 254.526C266.172 253.982 266.004 253.711 265.67 253.711C265.141 253.711 264.702 254.407 264.353 255.801C264.27 256.08 264.228 256.226 264.228 256.24C264.2 256.323 264.068 256.365 263.831 256.365H263.538C263.455 256.282 263.413 256.219 263.413 256.177Z" fill="#D9EBFF"/>
<path d="M278.667 256.782L278.475 256.856C278.337 256.905 278.14 256.954 277.884 257.004C277.628 257.053 277.342 257.087 277.027 257.107H276.746V256.427H277.027C277.49 256.408 277.918 256.334 278.312 256.206C278.706 256.078 278.982 255.959 279.14 255.851C279.297 255.743 279.435 255.634 279.553 255.526C279.573 255.496 279.632 255.482 279.731 255.482C279.819 255.482 279.903 255.511 279.982 255.57V259.989L279.997 264.422C280.066 264.491 280.125 264.535 280.174 264.555C280.223 264.574 280.342 264.594 280.529 264.614C280.716 264.633 281.021 264.643 281.445 264.643H281.829V265.323H281.667C281.46 265.294 280.677 265.279 279.317 265.279C277.977 265.279 277.204 265.294 276.997 265.323H276.82V264.643H277.204C277.421 264.643 277.608 264.643 277.765 264.643C277.923 264.643 278.046 264.638 278.135 264.629C278.224 264.619 278.302 264.604 278.371 264.584C278.44 264.565 278.48 264.555 278.49 264.555C278.499 264.555 278.529 264.53 278.578 264.481C278.627 264.432 278.657 264.412 278.667 264.422V256.782Z" fill="#D9EBFF"/>
<path d="M286.634 261.444C286.634 261.444 286.634 261.27 286.634 260.922C286.634 260.573 286.745 260.274 286.968 260.023C287.191 259.772 287.49 259.647 287.867 259.647C288.257 259.647 288.605 259.821 288.912 260.169C289.218 260.517 289.379 261.131 289.392 262.008C289.392 262.496 289.33 262.97 289.204 263.43C289.079 263.889 288.933 264.287 288.765 264.621C288.598 264.955 288.417 265.241 288.222 265.478C288.027 265.715 287.86 265.903 287.72 266.042C287.581 266.182 287.49 266.244 287.449 266.23C287.393 266.23 287.302 266.168 287.177 266.042C287.052 265.917 286.989 265.826 286.989 265.771C286.989 265.715 287.065 265.603 287.219 265.436C287.372 265.269 287.546 265.06 287.741 264.809C287.936 264.558 288.117 264.21 288.285 263.764C288.452 263.318 288.563 262.81 288.619 262.238V261.987L288.598 262.008C288.57 262.022 288.535 262.036 288.494 262.05C288.452 262.064 288.41 262.085 288.368 262.113C288.326 262.141 288.264 262.155 288.18 262.155C288.097 262.155 288.013 262.162 287.929 262.176C287.553 262.176 287.247 262.057 287.01 261.82L286.634 261.444Z" fill="#D9EBFF"/>
<path d="M294.743 256.177C294.757 256.093 294.778 255.982 294.806 255.843C294.834 255.703 294.917 255.439 295.057 255.048C295.196 254.658 295.335 254.331 295.475 254.066C295.614 253.801 295.844 253.544 296.164 253.293C296.485 253.042 296.805 252.924 297.126 252.937C297.627 252.937 298.045 253.063 298.38 253.314C298.714 253.564 298.923 253.801 299.007 254.024C299.09 254.247 299.132 254.394 299.132 254.463C299.132 254.491 299.139 254.505 299.153 254.505L299.383 254.275C300.233 253.383 301.201 252.937 302.288 252.937C303.041 252.937 303.647 253.126 304.107 253.502C304.566 253.878 304.803 254.428 304.817 255.153C304.831 255.877 304.566 256.971 304.023 258.434C303.48 259.897 303.215 260.782 303.229 261.089C303.229 261.451 303.347 261.632 303.584 261.632C303.668 261.632 303.73 261.625 303.772 261.611C304.176 261.542 304.539 261.277 304.859 260.817C305.18 260.357 305.423 259.8 305.591 259.145C305.618 259.034 305.758 258.978 306.009 258.978C306.287 258.978 306.427 259.034 306.427 259.145C306.427 259.159 306.399 259.263 306.343 259.458C306.232 259.863 306.078 260.26 305.883 260.65C305.688 261.04 305.368 261.43 304.922 261.82C304.476 262.21 303.995 262.399 303.48 262.385C302.825 262.385 302.351 262.197 302.058 261.82C301.766 261.444 301.619 261.054 301.619 260.65C301.619 260.385 301.87 259.549 302.372 258.142C302.873 256.734 303.131 255.675 303.145 254.965C303.145 254.143 302.839 253.732 302.226 253.732H302.121C300.923 253.732 299.913 254.435 299.09 255.843L298.944 256.093L298.254 258.894C297.795 260.72 297.53 261.702 297.46 261.841C297.279 262.217 296.979 262.406 296.561 262.406C296.38 262.406 296.234 262.364 296.122 262.28C296.011 262.197 295.934 262.113 295.893 262.029C295.851 261.946 295.837 261.876 295.851 261.82C295.851 261.639 296.116 260.504 296.645 258.413C297.175 256.323 297.453 255.188 297.481 255.007C297.495 254.937 297.502 254.777 297.502 254.526C297.502 253.982 297.335 253.711 297 253.711C296.471 253.711 296.032 254.407 295.684 255.801C295.6 256.08 295.558 256.226 295.558 256.24C295.53 256.323 295.398 256.365 295.161 256.365H294.868C294.785 256.282 294.743 256.219 294.743 256.177Z" fill="#D9EBFF"/>
<path d="M308.726 258.481C308.46 258.481 308.253 258.398 308.106 258.23C307.958 258.063 307.879 257.846 307.869 257.58C307.869 257.038 308.106 256.555 308.579 256.132C309.051 255.708 309.623 255.496 310.293 255.496C310.637 255.496 310.854 255.501 310.943 255.511C311.672 255.629 312.228 255.891 312.613 256.294C312.997 256.698 313.194 257.137 313.204 257.61C313.204 258.122 313.036 258.619 312.701 259.102C312.366 259.585 311.903 259.934 311.312 260.151L311.268 260.181C311.268 260.191 311.312 260.205 311.401 260.225C311.49 260.245 311.632 260.289 311.829 260.358C312.027 260.427 312.214 260.53 312.391 260.668C313.199 261.19 313.603 261.88 313.603 262.737C313.603 263.515 313.297 264.195 312.687 264.776C312.076 265.358 311.302 265.648 310.367 265.648C309.578 265.648 308.899 265.436 308.327 265.013C307.756 264.589 307.47 264.052 307.47 263.402C307.47 263.126 307.559 262.905 307.736 262.737C307.914 262.57 308.135 262.481 308.401 262.471C308.677 262.471 308.904 262.56 309.081 262.737C309.258 262.914 309.347 263.136 309.347 263.402C309.347 263.51 309.332 263.609 309.303 263.698C309.273 263.786 309.239 263.865 309.199 263.934C309.16 264.003 309.106 264.062 309.037 264.111C308.968 264.161 308.909 264.2 308.859 264.23C308.81 264.259 308.761 264.279 308.712 264.289C308.662 264.299 308.623 264.313 308.593 264.333L308.534 264.348C309.037 264.791 309.647 265.013 310.367 265.013C310.908 265.013 311.317 264.752 311.593 264.23C311.761 263.904 311.844 263.407 311.844 262.737V262.442C311.844 261.506 311.529 260.88 310.899 260.565C310.751 260.506 310.45 260.471 309.997 260.461L309.377 260.447L309.332 260.417C309.312 260.388 309.303 260.309 309.303 260.181C309.303 260.003 309.342 259.915 309.421 259.915C309.697 259.915 309.982 259.89 310.278 259.841C310.613 259.792 310.918 259.585 311.194 259.22C311.47 258.856 311.608 258.304 311.608 257.565V257.447C311.608 256.885 311.435 256.496 311.091 256.28C310.874 256.142 310.642 256.073 310.396 256.073C310.081 256.073 309.79 256.127 309.524 256.235C309.258 256.344 309.071 256.457 308.963 256.575C308.854 256.693 308.8 256.752 308.8 256.752H308.845C308.874 256.762 308.914 256.772 308.963 256.782C309.012 256.792 309.061 256.817 309.111 256.856C309.16 256.895 309.219 256.93 309.288 256.959C309.357 256.989 309.406 257.043 309.436 257.122C309.465 257.201 309.505 257.275 309.554 257.344C309.603 257.413 309.618 257.511 309.598 257.639C309.598 257.856 309.529 258.048 309.391 258.215C309.253 258.383 309.032 258.472 308.726 258.481Z" fill="#D9EBFF"/>
<path d="M317.985 261.444C317.985 261.444 317.985 261.27 317.985 260.922C317.985 260.573 318.096 260.274 318.319 260.023C318.542 259.772 318.842 259.647 319.218 259.647C319.608 259.647 319.956 259.821 320.263 260.169C320.569 260.517 320.73 261.131 320.744 262.008C320.744 262.496 320.681 262.97 320.556 263.43C320.43 263.889 320.284 264.287 320.117 264.621C319.949 264.955 319.768 265.241 319.573 265.478C319.378 265.715 319.211 265.903 319.072 266.042C318.932 266.182 318.842 266.244 318.8 266.23C318.744 266.23 318.654 266.168 318.528 266.042C318.403 265.917 318.34 265.826 318.34 265.771C318.34 265.715 318.417 265.603 318.57 265.436C318.723 265.269 318.897 265.06 319.092 264.809C319.288 264.558 319.469 264.21 319.636 263.764C319.803 263.318 319.915 262.81 319.97 262.238V261.987L319.949 262.008C319.922 262.022 319.887 262.036 319.845 262.05C319.803 262.064 319.761 262.085 319.72 262.113C319.678 262.141 319.615 262.155 319.531 262.155C319.448 262.155 319.364 262.162 319.281 262.176C318.904 262.176 318.598 262.057 318.361 261.82L317.985 261.444Z" fill="#D9EBFF"/>
<path d="M326.094 256.177C326.108 256.093 326.129 255.982 326.157 255.843C326.185 255.703 326.268 255.439 326.408 255.048C326.547 254.658 326.686 254.331 326.826 254.066C326.965 253.801 327.195 253.544 327.516 253.293C327.836 253.042 328.156 252.924 328.477 252.937C328.979 252.937 329.397 253.063 329.731 253.314C330.065 253.564 330.274 253.801 330.358 254.024C330.442 254.247 330.483 254.394 330.483 254.463C330.483 254.491 330.49 254.505 330.504 254.505L330.734 254.275C331.584 253.383 332.553 252.937 333.639 252.937C334.392 252.937 334.998 253.126 335.458 253.502C335.918 253.878 336.155 254.428 336.168 255.153C336.182 255.877 335.918 256.971 335.374 258.434C334.831 259.897 334.566 260.782 334.58 261.089C334.58 261.451 334.698 261.632 334.935 261.632C335.019 261.632 335.082 261.625 335.123 261.611C335.527 261.542 335.89 261.277 336.21 260.817C336.531 260.357 336.775 259.8 336.942 259.145C336.97 259.034 337.109 258.978 337.36 258.978C337.638 258.978 337.778 259.034 337.778 259.145C337.778 259.159 337.75 259.263 337.694 259.458C337.583 259.863 337.429 260.26 337.234 260.65C337.039 261.04 336.719 261.43 336.273 261.82C335.827 262.21 335.346 262.399 334.831 262.385C334.176 262.385 333.702 262.197 333.41 261.82C333.117 261.444 332.971 261.054 332.971 260.65C332.971 260.385 333.221 259.549 333.723 258.142C334.225 256.734 334.482 255.675 334.496 254.965C334.496 254.143 334.19 253.732 333.577 253.732H333.472C332.274 253.732 331.264 254.435 330.442 255.843L330.295 256.093L329.606 258.894C329.146 260.72 328.881 261.702 328.811 261.841C328.63 262.217 328.331 262.406 327.913 262.406C327.731 262.406 327.585 262.364 327.474 262.28C327.362 262.197 327.286 262.113 327.244 262.029C327.202 261.946 327.188 261.876 327.202 261.82C327.202 261.639 327.467 260.504 327.996 258.413C328.526 256.323 328.804 255.188 328.832 255.007C328.846 254.937 328.853 254.777 328.853 254.526C328.853 253.982 328.686 253.711 328.352 253.711C327.822 253.711 327.383 254.407 327.035 255.801C326.951 256.08 326.909 256.226 326.909 256.24C326.882 256.323 326.749 256.365 326.512 256.365H326.22C326.136 256.282 326.094 256.219 326.094 256.177Z" fill="#D9EBFF"/>
<path d="M345.028 265.323C344.85 265.294 344.215 265.279 343.122 265.279C341.979 265.279 341.319 265.294 341.141 265.323H341.008V264.643H341.467C341.664 264.643 341.797 264.643 341.866 264.643C341.935 264.643 342.018 264.633 342.117 264.614C342.215 264.594 342.284 264.569 342.324 264.54C342.363 264.51 342.398 264.471 342.427 264.422C342.437 264.402 342.442 264.136 342.442 263.624V262.885H338.615V262.205L340.846 258.792C342.353 256.506 343.117 255.359 343.136 255.349C343.156 255.329 343.26 255.319 343.447 255.319H343.713L343.801 255.408V262.205H345.161V262.885H343.801V263.639C343.801 264.042 343.801 264.279 343.801 264.348C343.801 264.417 343.831 264.476 343.89 264.525C343.969 264.594 344.25 264.633 344.732 264.643H345.161V265.323H345.028ZM342.531 262.205V257.27L339.294 262.19L340.905 262.205H342.531Z" fill="#D9EBFF"/>
<path d="M349.315 261.444C349.315 261.444 349.315 261.27 349.315 260.922C349.315 260.573 349.427 260.274 349.649 260.023C349.872 259.772 350.172 259.647 350.548 259.647C350.938 259.647 351.287 259.821 351.593 260.169C351.9 260.517 352.06 261.131 352.074 262.008C352.074 262.496 352.011 262.97 351.886 263.43C351.76 263.889 351.614 264.287 351.447 264.621C351.28 264.955 351.099 265.241 350.903 265.478C350.708 265.715 350.541 265.903 350.402 266.042C350.263 266.182 350.172 266.244 350.13 266.23C350.074 266.23 349.984 266.168 349.858 266.042C349.733 265.917 349.67 265.826 349.67 265.771C349.67 265.715 349.747 265.603 349.9 265.436C350.054 265.269 350.228 265.06 350.423 264.809C350.618 264.558 350.799 264.21 350.966 263.764C351.133 263.318 351.245 262.81 351.301 262.238V261.987L351.28 262.008C351.252 262.022 351.217 262.036 351.175 262.05C351.133 262.064 351.092 262.085 351.05 262.113C351.008 262.141 350.945 262.155 350.862 262.155C350.778 262.155 350.694 262.162 350.611 262.176C350.235 262.176 349.928 262.057 349.691 261.82L349.315 261.444Z" fill="#D9EBFF"/>
<path d="M357.425 256.177C357.438 256.093 357.459 255.982 357.487 255.843C357.515 255.703 357.599 255.439 357.738 255.048C357.877 254.658 358.017 254.331 358.156 254.066C358.295 253.801 358.525 253.544 358.846 253.293C359.166 253.042 359.487 252.924 359.807 252.937C360.309 252.937 360.727 253.063 361.061 253.314C361.396 253.564 361.605 253.801 361.688 254.024C361.772 254.247 361.814 254.394 361.814 254.463C361.814 254.491 361.821 254.505 361.835 254.505L362.065 254.275C362.914 253.383 363.883 252.937 364.97 252.937C365.722 252.937 366.328 253.126 366.788 253.502C367.248 253.878 367.485 254.428 367.499 255.153C367.513 255.877 367.248 256.971 366.704 258.434C366.161 259.897 365.896 260.782 365.91 261.089C365.91 261.451 366.029 261.632 366.266 261.632C366.349 261.632 366.412 261.625 366.454 261.611C366.858 261.542 367.22 261.277 367.541 260.817C367.861 260.357 368.105 259.8 368.272 259.145C368.3 259.034 368.439 258.978 368.69 258.978C368.969 258.978 369.108 259.034 369.108 259.145C369.108 259.159 369.08 259.263 369.024 259.458C368.913 259.863 368.76 260.26 368.565 260.65C368.37 261.04 368.049 261.43 367.603 261.82C367.157 262.21 366.677 262.399 366.161 262.385C365.506 262.385 365.032 262.197 364.74 261.82C364.447 261.444 364.301 261.054 364.301 260.65C364.301 260.385 364.552 259.549 365.053 258.142C365.555 256.734 365.813 255.675 365.827 254.965C365.827 254.143 365.52 253.732 364.907 253.732H364.803C363.604 253.732 362.594 254.435 361.772 255.843L361.626 256.093L360.936 258.894C360.476 260.72 360.211 261.702 360.142 261.841C359.961 262.217 359.661 262.406 359.243 262.406C359.062 262.406 358.915 262.364 358.804 262.28C358.693 262.197 358.616 262.113 358.574 262.029C358.532 261.946 358.518 261.876 358.532 261.82C358.532 261.639 358.797 260.504 359.327 258.413C359.856 256.323 360.135 255.188 360.163 255.007C360.176 254.937 360.183 254.777 360.183 254.526C360.183 253.982 360.016 253.711 359.682 253.711C359.152 253.711 358.713 254.407 358.365 255.801C358.281 256.08 358.24 256.226 358.24 256.24C358.212 256.323 358.079 256.365 357.843 256.365H357.55C357.466 256.282 357.425 256.219 357.425 256.177Z" fill="#D9EBFF"/>
<path d="M371.955 263.003C371.955 263.24 371.876 263.437 371.718 263.594C371.561 263.752 371.368 263.831 371.142 263.831H371.038C371.492 264.609 372.093 264.998 372.841 264.998C373.531 264.998 374.033 264.702 374.348 264.111C374.536 263.786 374.629 263.156 374.629 262.22C374.629 261.205 374.496 260.521 374.23 260.166C373.974 259.841 373.688 259.678 373.373 259.678H373.285C372.516 259.678 371.935 260.013 371.541 260.683C371.501 260.752 371.467 260.792 371.437 260.801C371.408 260.811 371.334 260.821 371.216 260.831C371.048 260.831 370.955 260.801 370.935 260.742C370.915 260.703 370.905 259.841 370.905 258.156V256.25C370.905 255.758 370.93 255.511 370.979 255.511C370.999 255.492 371.019 255.482 371.038 255.482C371.048 255.482 371.152 255.521 371.349 255.6C371.546 255.679 371.817 255.758 372.161 255.836C372.506 255.915 372.876 255.955 373.27 255.955C373.969 255.955 374.639 255.817 375.279 255.541C375.358 255.501 375.422 255.482 375.471 255.482C375.55 255.482 375.59 255.57 375.59 255.748V255.94C374.782 256.895 373.772 257.373 372.56 257.373C372.255 257.373 371.979 257.344 371.733 257.284L371.585 257.255V259.797C371.772 259.659 371.92 259.55 372.028 259.471C372.137 259.393 372.314 259.314 372.56 259.235C372.807 259.156 373.058 259.117 373.314 259.117C374.112 259.117 374.787 259.437 375.338 260.077C375.89 260.718 376.166 261.476 376.166 262.353C376.166 263.259 375.851 264.033 375.22 264.673C374.59 265.313 373.821 265.638 372.915 265.648C372.117 265.648 371.477 265.382 370.994 264.85C370.511 264.318 370.27 263.717 370.27 263.047C370.27 262.811 370.324 262.624 370.433 262.486C370.541 262.348 370.654 262.259 370.772 262.22C370.891 262.181 371.004 262.161 371.112 262.161C371.359 262.161 371.561 262.245 371.718 262.412C371.876 262.58 371.955 262.777 371.955 263.003Z" fill="#D9EBFF"/>
<path d="M380.666 261.444C380.666 261.444 380.666 261.27 380.666 260.922C380.666 260.573 380.778 260.274 381.001 260.023C381.224 259.772 381.523 259.647 381.899 259.647C382.29 259.647 382.638 259.821 382.944 260.169C383.251 260.517 383.411 261.131 383.425 262.008C383.425 262.496 383.362 262.97 383.237 263.43C383.112 263.889 382.965 264.287 382.798 264.621C382.631 264.955 382.45 265.241 382.255 265.478C382.06 265.715 381.892 265.903 381.753 266.042C381.614 266.182 381.523 266.244 381.481 266.23C381.426 266.23 381.335 266.168 381.21 266.042C381.084 265.917 381.022 265.826 381.022 265.771C381.022 265.715 381.098 265.603 381.251 265.436C381.405 265.269 381.579 265.06 381.774 264.809C381.969 264.558 382.15 264.21 382.317 263.764C382.485 263.318 382.596 262.81 382.652 262.238V261.987L382.631 262.008C382.603 262.022 382.568 262.036 382.526 262.05C382.485 262.064 382.443 262.085 382.401 262.113C382.359 262.141 382.297 262.155 382.213 262.155C382.129 262.155 382.046 262.162 381.962 262.176C381.586 262.176 381.279 262.057 381.042 261.82L380.666 261.444Z" fill="#D9EBFF"/>
<path d="M388.776 256.177C388.79 256.093 388.811 255.982 388.838 255.843C388.866 255.703 388.95 255.439 389.089 255.048C389.229 254.658 389.368 254.331 389.507 254.066C389.647 253.801 389.877 253.544 390.197 253.293C390.517 253.042 390.838 252.924 391.158 252.937C391.66 252.937 392.078 253.063 392.412 253.314C392.747 253.564 392.956 253.801 393.04 254.024C393.123 254.247 393.165 254.394 393.165 254.463C393.165 254.491 393.172 254.505 393.186 254.505L393.416 254.275C394.266 253.383 395.234 252.937 396.321 252.937C397.073 252.937 397.679 253.126 398.139 253.502C398.599 253.878 398.836 254.428 398.85 255.153C398.864 255.877 398.599 256.971 398.056 258.434C397.512 259.897 397.248 260.782 397.261 261.089C397.261 261.451 397.38 261.632 397.617 261.632C397.7 261.632 397.763 261.625 397.805 261.611C398.209 261.542 398.571 261.277 398.892 260.817C399.212 260.357 399.456 259.8 399.623 259.145C399.651 259.034 399.79 258.978 400.041 258.978C400.32 258.978 400.459 259.034 400.459 259.145C400.459 259.159 400.431 259.263 400.376 259.458C400.264 259.863 400.111 260.26 399.916 260.65C399.721 261.04 399.4 261.43 398.954 261.82C398.509 262.21 398.028 262.399 397.512 262.385C396.857 262.385 396.384 262.197 396.091 261.82C395.798 261.444 395.652 261.054 395.652 260.65C395.652 260.385 395.903 259.549 396.405 258.142C396.906 256.734 397.164 255.675 397.178 254.965C397.178 254.143 396.871 253.732 396.258 253.732H396.154C394.955 253.732 393.945 254.435 393.123 255.843L392.977 256.093L392.287 258.894C391.827 260.72 391.563 261.702 391.493 261.841C391.312 262.217 391.012 262.406 390.594 262.406C390.413 262.406 390.267 262.364 390.155 262.28C390.044 262.197 389.967 262.113 389.925 262.029C389.884 261.946 389.87 261.876 389.883 261.82C389.883 261.639 390.148 260.504 390.678 258.413C391.207 256.323 391.486 255.188 391.514 255.007C391.528 254.937 391.535 254.777 391.535 254.526C391.535 253.982 391.367 253.711 391.033 253.711C390.504 253.711 390.065 254.407 389.716 255.801C389.633 256.08 389.591 256.226 389.591 256.24C389.563 256.323 389.431 256.365 389.194 256.365H388.901C388.818 256.282 388.776 256.219 388.776 256.177Z" fill="#D9EBFF"/>
<path d="M401.503 260.698C401.503 259.092 401.902 257.821 402.7 256.885C403.498 255.95 404.384 255.482 405.36 255.482C406.04 255.482 406.527 255.659 406.823 256.014C407.118 256.368 407.266 256.762 407.266 257.196C407.266 257.442 407.197 257.639 407.059 257.787C406.921 257.935 406.729 258.009 406.483 258.009C406.256 258.009 406.069 257.94 405.921 257.802C405.774 257.664 405.7 257.472 405.7 257.225C405.7 256.792 405.931 256.531 406.394 256.442C406.177 256.225 405.872 256.102 405.478 256.073C404.779 256.073 404.202 256.368 403.749 256.959C403.286 257.61 403.055 258.605 403.055 259.944L403.069 260.003C403.119 259.944 403.158 259.88 403.188 259.811C403.591 259.22 404.119 258.925 404.769 258.925H404.828C405.281 258.925 405.68 259.018 406.025 259.205C406.261 259.343 406.498 259.54 406.734 259.797C406.97 260.053 407.163 260.333 407.31 260.639C407.517 261.122 407.621 261.649 407.621 262.22V262.486C407.621 262.712 407.596 262.924 407.547 263.121C407.438 263.703 407.123 264.269 406.601 264.821C406.079 265.372 405.419 265.648 404.621 265.648C404.345 265.648 404.079 265.609 403.823 265.53C403.567 265.451 403.291 265.303 402.995 265.087C402.7 264.87 402.449 264.579 402.242 264.215C402.035 263.85 401.858 263.373 401.71 262.781C401.562 262.19 401.493 261.496 401.503 260.698ZM404.68 259.457C404.385 259.457 404.128 259.54 403.912 259.708C403.695 259.875 403.527 260.097 403.409 260.373C403.291 260.649 403.207 260.929 403.158 261.215C403.109 261.501 403.079 261.806 403.069 262.131C403.069 262.949 403.128 263.535 403.247 263.89C403.365 264.244 403.552 264.53 403.808 264.747C404.045 264.924 404.306 265.013 404.591 265.013C405.094 265.013 405.478 264.826 405.744 264.451C405.872 264.274 405.961 264.052 406.01 263.786C406.059 263.52 406.084 263.003 406.084 262.235C406.084 261.447 406.059 260.92 406.01 260.654C405.961 260.388 405.872 260.166 405.744 259.989C405.478 259.634 405.123 259.457 404.68 259.457Z" fill="#D9EBFF"/>
<path d="M411.997 261.444C411.997 261.444 411.997 261.27 411.997 260.922C411.997 260.573 412.108 260.274 412.331 260.023C412.554 259.772 412.853 259.647 413.23 259.647C413.62 259.647 413.968 259.821 414.275 260.169C414.581 260.517 414.742 261.131 414.755 262.008C414.755 262.496 414.693 262.97 414.567 263.43C414.442 263.889 414.296 264.287 414.128 264.621C413.961 264.955 413.78 265.241 413.585 265.478C413.39 265.715 413.223 265.903 413.083 266.042C412.944 266.182 412.853 266.244 412.812 266.23C412.756 266.23 412.665 266.168 412.54 266.042C412.415 265.917 412.352 265.826 412.352 265.771C412.352 265.715 412.429 265.603 412.582 265.436C412.735 265.269 412.909 265.06 413.104 264.809C413.299 264.558 413.48 264.21 413.648 263.764C413.815 263.318 413.926 262.81 413.982 262.238V261.987L413.961 262.008C413.933 262.022 413.899 262.036 413.857 262.05C413.815 262.064 413.773 262.085 413.731 262.113C413.69 262.141 413.627 262.155 413.543 262.155C413.46 262.155 413.376 262.162 413.292 262.176C412.916 262.176 412.61 262.057 412.373 261.82L411.997 261.444Z" fill="#D9EBFF"/>
<path d="M420.106 256.177C420.12 256.093 420.141 255.982 420.169 255.843C420.197 255.703 420.28 255.439 420.42 255.048C420.559 254.658 420.698 254.331 420.838 254.066C420.977 253.801 421.207 253.544 421.527 253.293C421.848 253.042 422.168 252.924 422.489 252.937C422.99 252.937 423.408 253.063 423.743 253.314C424.077 253.564 424.286 253.801 424.37 254.024C424.453 254.247 424.495 254.394 424.495 254.463C424.495 254.491 424.502 254.505 424.516 254.505L424.746 254.275C425.596 253.383 426.564 252.937 427.651 252.937C428.404 252.937 429.01 253.126 429.47 253.502C429.929 253.878 430.166 254.428 430.18 255.153C430.194 255.877 429.929 256.971 429.386 258.434C428.843 259.897 428.578 260.782 428.592 261.089C428.592 261.451 428.71 261.632 428.947 261.632C429.031 261.632 429.093 261.625 429.135 261.611C429.539 261.542 429.902 261.277 430.222 260.817C430.543 260.357 430.786 259.8 430.954 259.145C430.981 259.034 431.121 258.978 431.372 258.978C431.65 258.978 431.79 259.034 431.79 259.145C431.79 259.159 431.762 259.263 431.706 259.458C431.595 259.863 431.441 260.26 431.246 260.65C431.051 261.04 430.731 261.43 430.285 261.82C429.839 262.21 429.358 262.399 428.843 262.385C428.188 262.385 427.714 262.197 427.421 261.82C427.129 261.444 426.982 261.054 426.982 260.65C426.982 260.385 427.233 259.549 427.735 258.142C428.236 256.734 428.494 255.675 428.508 254.965C428.508 254.143 428.202 253.732 427.589 253.732H427.484C426.286 253.732 425.276 254.435 424.453 255.843L424.307 256.093L423.617 258.894C423.158 260.72 422.893 261.702 422.823 261.841C422.642 262.217 422.342 262.406 421.924 262.406C421.743 262.406 421.597 262.364 421.486 262.28C421.374 262.197 421.297 262.113 421.256 262.029C421.214 261.946 421.2 261.876 421.214 261.82C421.214 261.639 421.479 260.504 422.008 258.413C422.538 256.323 422.816 255.188 422.844 255.007C422.858 254.937 422.865 254.777 422.865 254.526C422.865 253.982 422.698 253.711 422.363 253.711C421.834 253.711 421.395 254.407 421.047 255.801C420.963 256.08 420.921 256.226 420.921 256.24C420.893 256.323 420.761 256.365 420.524 256.365H420.231C420.148 256.282 420.106 256.219 420.106 256.177Z" fill="#D9EBFF"/>
<path d="M433.025 258.555C433.035 258.536 433.119 257.999 433.277 256.945L433.513 255.363C433.513 255.344 433.612 255.334 433.809 255.334H434.104V255.393C434.104 255.492 434.178 255.575 434.326 255.644C434.474 255.713 434.73 255.758 435.094 255.777C435.459 255.797 436.291 255.807 437.591 255.807H439.379V256.383L438.375 257.757C438.286 257.876 438.138 258.073 437.931 258.348C437.724 258.624 437.591 258.806 437.532 258.895C437.473 258.984 437.37 259.141 437.222 259.368C437.074 259.595 436.976 259.772 436.927 259.9C436.877 260.028 436.808 260.21 436.72 260.447C436.631 260.683 436.567 260.91 436.528 261.126C436.488 261.343 436.449 261.609 436.409 261.924C436.37 262.24 436.34 262.575 436.321 262.929C436.301 263.284 436.286 263.688 436.276 264.141C436.276 264.279 436.276 264.417 436.276 264.555C436.276 264.693 436.271 264.811 436.262 264.909V265.042C436.222 265.21 436.129 265.353 435.981 265.471C435.833 265.589 435.666 265.648 435.478 265.648C435.37 265.648 435.267 265.633 435.168 265.604C435.07 265.574 434.966 265.481 434.858 265.323C434.749 265.165 434.695 264.968 434.695 264.732C434.695 263.176 435.173 261.56 436.129 259.885C436.326 259.57 436.739 258.974 437.37 258.097L438.05 257.166H436.675C434.961 257.166 434.06 257.196 433.971 257.255C433.912 257.284 433.858 257.403 433.809 257.61C433.759 257.816 433.71 258.028 433.661 258.245L433.616 258.555V258.6H433.025V258.555Z" fill="#D9EBFF"/>
<path d="M442.972 246.521L443.055 246.5C443.125 246.5 443.194 246.5 443.264 246.5H443.515L444.1 247.002C445.41 248.186 446.364 249.663 446.964 251.433C447.563 253.202 447.862 255.041 447.862 256.95C447.862 257.898 447.793 258.811 447.653 259.688C447.514 260.566 447.354 261.312 447.173 261.925C446.991 262.538 446.734 263.151 446.399 263.764C446.065 264.377 445.8 264.844 445.605 265.164C445.41 265.485 445.124 265.84 444.748 266.23C444.372 266.621 444.149 266.85 444.079 266.92C444.01 266.99 443.849 267.122 443.599 267.317C443.557 267.359 443.529 267.387 443.515 267.401H443.264C443.153 267.401 443.076 267.401 443.034 267.401C442.992 267.401 442.958 267.38 442.93 267.338C442.902 267.296 442.881 267.234 442.867 267.15C442.881 267.136 442.958 267.045 443.097 266.878C445.257 264.635 446.337 261.326 446.337 256.95C446.337 252.575 445.257 249.266 443.097 247.023C442.958 246.855 442.881 246.765 442.867 246.751C442.867 246.639 442.902 246.563 442.972 246.521Z" fill="#D9EBFF"/>
<path d="M451.478 261.444C451.478 261.444 451.478 261.27 451.478 260.922C451.478 260.573 451.59 260.274 451.813 260.023C452.036 259.772 452.335 259.647 452.711 259.647C453.101 259.647 453.45 259.821 453.756 260.169C454.063 260.517 454.223 261.131 454.237 262.008C454.237 262.496 454.174 262.97 454.049 263.43C453.924 263.889 453.777 264.287 453.61 264.621C453.443 264.955 453.262 265.241 453.067 265.478C452.872 265.715 452.704 265.903 452.565 266.042C452.426 266.182 452.335 266.244 452.293 266.23C452.238 266.23 452.147 266.168 452.022 266.042C451.896 265.917 451.833 265.826 451.833 265.771C451.833 265.715 451.91 265.603 452.063 265.436C452.217 265.269 452.391 265.06 452.586 264.809C452.781 264.558 452.962 264.21 453.129 263.764C453.297 263.318 453.408 262.81 453.464 262.238V261.987L453.443 262.008C453.415 262.022 453.38 262.036 453.338 262.05C453.297 262.064 453.255 262.085 453.213 262.113C453.171 262.141 453.108 262.155 453.025 262.155C452.941 262.155 452.858 262.162 452.774 262.176C452.398 262.176 452.091 262.057 451.854 261.82L451.478 261.444Z" fill="#D9EBFF"/>
<path d="M461.134 256.95C461.134 255.989 461.204 255.076 461.343 254.212C461.483 253.348 461.643 252.603 461.824 251.976C462.005 251.349 462.263 250.736 462.597 250.137C462.932 249.538 463.197 249.071 463.392 248.736C463.587 248.402 463.879 248.04 464.269 247.65C464.66 247.259 464.889 247.023 464.959 246.939C465.029 246.855 465.203 246.709 465.482 246.5H465.837C466.032 246.5 466.13 246.563 466.13 246.688C466.13 246.73 466.011 246.876 465.774 247.127C465.537 247.378 465.252 247.747 464.917 248.235C464.583 248.722 464.242 249.322 463.893 250.032C463.545 250.743 463.252 251.704 463.015 252.917C462.779 254.129 462.66 255.473 462.66 256.95C462.66 258.427 462.779 259.765 463.015 260.963C463.252 262.162 463.538 263.13 463.872 263.869C464.207 264.607 464.548 265.206 464.896 265.666C465.245 266.126 465.537 266.495 465.774 266.774C466.011 267.052 466.13 267.199 466.13 267.213C466.13 267.338 466.025 267.401 465.816 267.401H465.482L464.896 266.899C463.587 265.715 462.632 264.238 462.033 262.468C461.434 260.699 461.134 258.859 461.134 256.95Z" fill="#D9EBFF"/>
<path d="M467.739 256.177C467.753 256.093 467.774 255.982 467.802 255.843C467.83 255.703 467.913 255.439 468.052 255.048C468.192 254.658 468.331 254.331 468.471 254.066C468.61 253.801 468.84 253.544 469.16 253.293C469.481 253.042 469.801 252.924 470.122 252.937C470.623 252.937 471.041 253.063 471.376 253.314C471.71 253.564 471.919 253.801 472.003 254.024C472.086 254.247 472.128 254.394 472.128 254.463C472.128 254.491 472.135 254.505 472.149 254.505L472.379 254.275C473.229 253.383 474.197 252.937 475.284 252.937C476.037 252.937 476.643 253.126 477.103 253.502C477.562 253.878 477.799 254.428 477.813 255.153C477.827 255.877 477.562 256.971 477.019 258.434C476.476 259.897 476.211 260.782 476.225 261.089C476.225 261.451 476.343 261.632 476.58 261.632C476.664 261.632 476.726 261.625 476.768 261.611C477.172 261.542 477.535 261.277 477.855 260.817C478.175 260.357 478.419 259.8 478.586 259.145C478.614 259.034 478.754 258.978 479.005 258.978C479.283 258.978 479.423 259.034 479.423 259.145C479.423 259.159 479.395 259.263 479.339 259.458C479.227 259.863 479.074 260.26 478.879 260.65C478.684 261.04 478.364 261.43 477.918 261.82C477.472 262.21 476.991 262.399 476.476 262.385C475.821 262.385 475.347 262.197 475.054 261.82C474.762 261.444 474.615 261.054 474.615 260.65C474.615 260.385 474.866 259.549 475.368 258.142C475.869 256.734 476.127 255.675 476.141 254.965C476.141 254.143 475.835 253.732 475.221 253.732H475.117C473.919 253.732 472.908 254.435 472.086 255.843L471.94 256.093L471.25 258.894C470.79 260.72 470.526 261.702 470.456 261.841C470.275 262.217 469.975 262.406 469.557 262.406C469.376 262.406 469.23 262.364 469.118 262.28C469.007 262.197 468.93 262.113 468.889 262.029C468.847 261.946 468.833 261.876 468.847 261.82C468.847 261.639 469.111 260.504 469.641 258.413C470.17 256.323 470.449 255.188 470.477 255.007C470.491 254.937 470.498 254.777 470.498 254.526C470.498 253.982 470.331 253.711 469.996 253.711C469.467 253.711 469.028 254.407 468.68 255.801C468.596 256.08 468.554 256.226 468.554 256.24C468.526 256.323 468.394 256.365 468.157 256.365H467.864C467.781 256.282 467.739 256.219 467.739 256.177Z" fill="#D9EBFF"/>
<path d="M482.993 256.782L482.801 256.856C482.663 256.905 482.466 256.954 482.21 257.004C481.954 257.053 481.668 257.087 481.353 257.107H481.072V256.427H481.353C481.816 256.408 482.244 256.334 482.638 256.206C483.033 256.078 483.308 255.959 483.466 255.851C483.624 255.743 483.761 255.634 483.88 255.526C483.899 255.496 483.959 255.482 484.057 255.482C484.146 255.482 484.229 255.511 484.308 255.57V259.989L484.323 264.422C484.392 264.491 484.451 264.535 484.5 264.555C484.55 264.574 484.668 264.594 484.855 264.614C485.042 264.633 485.348 264.643 485.771 264.643H486.155V265.323H485.993C485.786 265.294 485.003 265.279 483.643 265.279C482.304 265.279 481.53 265.294 481.323 265.323H481.146V264.643H481.53C481.747 264.643 481.934 264.643 482.092 264.643C482.249 264.643 482.372 264.638 482.461 264.629C482.55 264.619 482.629 264.604 482.698 264.584C482.767 264.565 482.806 264.555 482.816 264.555C482.826 264.555 482.855 264.53 482.904 264.481C482.954 264.432 482.983 264.412 482.993 264.422V256.782Z" fill="#D9EBFF"/>
<path d="M490.96 261.444C490.96 261.444 490.96 261.27 490.96 260.922C490.96 260.573 491.071 260.274 491.294 260.023C491.517 259.772 491.817 259.647 492.193 259.647C492.583 259.647 492.931 259.821 493.238 260.169C493.545 260.517 493.705 261.131 493.719 262.008C493.719 262.496 493.656 262.97 493.531 263.43C493.405 263.889 493.259 264.287 493.092 264.621C492.924 264.955 492.743 265.241 492.548 265.478C492.353 265.715 492.186 265.903 492.047 266.042C491.907 266.182 491.817 266.244 491.775 266.23C491.719 266.23 491.629 266.168 491.503 266.042C491.378 265.917 491.315 265.826 491.315 265.771C491.315 265.715 491.392 265.603 491.545 265.436C491.698 265.269 491.872 265.06 492.068 264.809C492.263 264.558 492.444 264.21 492.611 263.764C492.778 263.318 492.89 262.81 492.945 262.238V261.987L492.924 262.008C492.897 262.022 492.862 262.036 492.82 262.05C492.778 262.064 492.736 262.085 492.695 262.113C492.653 262.141 492.59 262.155 492.506 262.155C492.423 262.155 492.339 262.162 492.256 262.176C491.879 262.176 491.573 262.057 491.336 261.82L490.96 261.444Z" fill="#D9EBFF"/>
<path d="M499.09 256.177C499.104 256.093 499.125 255.982 499.153 255.843C499.181 255.703 499.264 255.439 499.404 255.048C499.543 254.658 499.682 254.331 499.822 254.066C499.961 253.801 500.191 253.544 500.511 253.293C500.832 253.042 501.152 252.924 501.473 252.937C501.974 252.937 502.393 253.063 502.727 253.314C503.061 253.564 503.27 253.801 503.354 254.024C503.438 254.247 503.479 254.394 503.479 254.463C503.479 254.491 503.486 254.505 503.5 254.505L503.73 254.275C504.58 253.383 505.549 252.937 506.635 252.937C507.388 252.937 507.994 253.126 508.454 253.502C508.914 253.878 509.15 254.428 509.164 255.153C509.178 255.877 508.914 256.971 508.37 258.434C507.827 259.897 507.562 260.782 507.576 261.089C507.576 261.451 507.694 261.632 507.931 261.632C508.015 261.632 508.078 261.625 508.119 261.611C508.523 261.542 508.886 261.277 509.206 260.817C509.527 260.357 509.77 259.8 509.938 259.145C509.966 259.034 510.105 258.978 510.356 258.978C510.634 258.978 510.774 259.034 510.774 259.145C510.774 259.159 510.746 259.263 510.69 259.458C510.579 259.863 510.425 260.26 510.23 260.65C510.035 261.04 509.715 261.43 509.269 261.82C508.823 262.21 508.342 262.399 507.827 262.385C507.172 262.385 506.698 262.197 506.405 261.82C506.113 261.444 505.967 261.054 505.967 260.65C505.967 260.385 506.217 259.549 506.719 258.142C507.221 256.734 507.478 255.675 507.492 254.965C507.492 254.143 507.186 253.732 506.573 253.732H506.468C505.27 253.732 504.26 254.435 503.438 255.843L503.291 256.093L502.602 258.894C502.142 260.72 501.877 261.702 501.807 261.841C501.626 262.217 501.327 262.406 500.909 262.406C500.727 262.406 500.581 262.364 500.47 262.28C500.358 262.197 500.282 262.113 500.24 262.029C500.198 261.946 500.184 261.876 500.198 261.82C500.198 261.639 500.463 260.504 500.992 258.413C501.522 256.323 501.8 255.188 501.828 255.007C501.842 254.937 501.849 254.777 501.849 254.526C501.849 253.982 501.682 253.711 501.347 253.711C500.818 253.711 500.379 254.407 500.031 255.801C499.947 256.08 499.905 256.226 499.905 256.24C499.877 256.323 499.745 256.365 499.508 256.365H499.216C499.132 256.282 499.09 256.219 499.09 256.177Z" fill="#D9EBFF"/>
<path d="M512.808 258.984C512.542 258.984 512.33 258.895 512.172 258.718C512.014 258.54 511.936 258.324 511.936 258.068C511.936 257.368 512.197 256.762 512.719 256.25C513.241 255.738 513.891 255.482 514.669 255.482C515.566 255.482 516.315 255.758 516.915 256.309C517.516 256.861 517.822 257.575 517.832 258.452C517.832 258.875 517.733 259.279 517.536 259.664C517.339 260.048 517.103 260.383 516.827 260.668C516.551 260.954 516.157 261.319 515.645 261.762C515.29 262.067 514.797 262.52 514.167 263.121L513.295 263.949L514.418 263.964C515.965 263.964 516.787 263.939 516.886 263.89C516.955 263.87 517.073 263.432 517.241 262.575V262.53H517.832V262.575C517.822 262.604 517.758 263.052 517.64 263.919C517.521 264.786 517.447 265.239 517.418 265.279V265.323H511.936V264.865C511.936 264.796 511.965 264.722 512.024 264.643C512.083 264.565 512.231 264.392 512.468 264.126C512.753 263.811 513 263.535 513.206 263.299C513.295 263.2 513.463 263.018 513.709 262.752C513.955 262.486 514.123 262.304 514.211 262.205C514.3 262.107 514.443 261.944 514.64 261.718C514.837 261.491 514.975 261.323 515.054 261.215C515.132 261.107 515.246 260.959 515.393 260.772C515.541 260.585 515.645 260.427 515.704 260.299C515.763 260.171 515.837 260.028 515.925 259.87C516.014 259.713 516.078 259.555 516.118 259.398C516.157 259.24 516.191 259.092 516.221 258.954C516.251 258.816 516.265 258.654 516.265 258.467C516.265 257.846 516.098 257.309 515.763 256.856C515.428 256.403 514.95 256.176 514.33 256.176C514.004 256.176 513.719 256.26 513.472 256.427C513.226 256.595 513.054 256.757 512.955 256.915C512.857 257.073 512.808 257.166 512.808 257.196C512.808 257.206 512.832 257.211 512.881 257.211C513.059 257.211 513.241 257.28 513.428 257.417C513.615 257.555 513.709 257.782 513.709 258.097C513.709 258.343 513.63 258.55 513.472 258.718C513.315 258.885 513.093 258.974 512.808 258.984Z" fill="#D9EBFF"/>
<path d="M522.311 261.444C522.311 261.444 522.311 261.27 522.311 260.922C522.311 260.573 522.422 260.274 522.645 260.023C522.868 259.772 523.168 259.647 523.544 259.647C523.934 259.647 524.283 259.821 524.589 260.169C524.896 260.517 525.056 261.131 525.07 262.008C525.07 262.496 525.007 262.97 524.882 263.43C524.756 263.889 524.61 264.287 524.443 264.621C524.276 264.955 524.095 265.241 523.899 265.478C523.704 265.715 523.537 265.903 523.398 266.042C523.258 266.182 523.168 266.244 523.126 266.23C523.07 266.23 522.98 266.168 522.854 266.042C522.729 265.917 522.666 265.826 522.666 265.771C522.666 265.715 522.743 265.603 522.896 265.436C523.049 265.269 523.224 265.06 523.419 264.809C523.614 264.558 523.795 264.21 523.962 263.764C524.129 263.318 524.241 262.81 524.297 262.238V261.987L524.276 262.008C524.248 262.022 524.213 262.036 524.171 262.05C524.129 262.064 524.088 262.085 524.046 262.113C524.004 262.141 523.941 262.155 523.858 262.155C523.774 262.155 523.69 262.162 523.607 262.176C523.231 262.176 522.924 262.057 522.687 261.82L522.311 261.444Z" fill="#D9EBFF"/>
<path d="M530.42 256.177C530.434 256.093 530.455 255.982 530.483 255.843C530.511 255.703 530.595 255.439 530.734 255.048C530.873 254.658 531.013 254.331 531.152 254.066C531.291 253.801 531.521 253.544 531.842 253.293C532.162 253.042 532.483 252.924 532.803 252.937C533.305 252.937 533.723 253.063 534.057 253.314C534.392 253.564 534.601 253.801 534.684 254.024C534.768 254.247 534.81 254.394 534.81 254.463C534.81 254.491 534.817 254.505 534.831 254.505L535.06 254.275C535.91 253.383 536.879 252.937 537.966 252.937C538.718 252.937 539.324 253.126 539.784 253.502C540.244 253.878 540.481 254.428 540.495 255.153C540.509 255.877 540.244 256.971 539.7 258.434C539.157 259.897 538.892 260.782 538.906 261.089C538.906 261.451 539.025 261.632 539.262 261.632C539.345 261.632 539.408 261.625 539.45 261.611C539.854 261.542 540.216 261.277 540.536 260.817C540.857 260.357 541.101 259.8 541.268 259.145C541.296 259.034 541.435 258.978 541.686 258.978C541.965 258.978 542.104 259.034 542.104 259.145C542.104 259.159 542.076 259.263 542.02 259.458C541.909 259.863 541.756 260.26 541.561 260.65C541.366 261.04 541.045 261.43 540.599 261.82C540.153 262.21 539.673 262.399 539.157 262.385C538.502 262.385 538.028 262.197 537.736 261.82C537.443 261.444 537.297 261.054 537.297 260.65C537.297 260.385 537.548 259.549 538.049 258.142C538.551 256.734 538.809 255.675 538.823 254.965C538.823 254.143 538.516 253.732 537.903 253.732H537.798C536.6 253.732 535.59 254.435 534.768 255.843L534.622 256.093L533.932 258.894C533.472 260.72 533.207 261.702 533.138 261.841C532.956 262.217 532.657 262.406 532.239 262.406C532.058 262.406 531.911 262.364 531.8 262.28C531.688 262.197 531.612 262.113 531.57 262.029C531.528 261.946 531.514 261.876 531.528 261.82C531.528 261.639 531.793 260.504 532.322 258.413C532.852 256.323 533.131 255.188 533.158 255.007C533.172 254.937 533.179 254.777 533.179 254.526C533.179 253.982 533.012 253.711 532.678 253.711C532.148 253.711 531.709 254.407 531.361 255.801C531.277 256.08 531.236 256.226 531.236 256.24C531.208 256.323 531.075 256.365 530.839 256.365H530.546C530.462 256.282 530.42 256.219 530.42 256.177Z" fill="#D9EBFF"/>
<path d="M544.404 258.481C544.138 258.481 543.931 258.398 543.783 258.23C543.635 258.063 543.557 257.846 543.547 257.58C543.547 257.038 543.783 256.555 544.256 256.132C544.729 255.708 545.3 255.496 545.97 255.496C546.315 255.496 546.532 255.501 546.62 255.511C547.349 255.629 547.906 255.891 548.29 256.294C548.674 256.698 548.871 257.137 548.881 257.61C548.881 258.122 548.714 258.619 548.379 259.102C548.044 259.585 547.581 259.934 546.99 260.151L546.945 260.181C546.945 260.191 546.99 260.205 547.078 260.225C547.167 260.245 547.31 260.289 547.507 260.358C547.704 260.427 547.891 260.53 548.068 260.668C548.876 261.19 549.28 261.88 549.28 262.737C549.28 263.515 548.975 264.195 548.364 264.776C547.753 265.358 546.98 265.648 546.044 265.648C545.256 265.648 544.576 265.436 544.005 265.013C543.433 264.589 543.148 264.052 543.148 263.402C543.148 263.126 543.236 262.905 543.414 262.737C543.591 262.57 543.813 262.481 544.079 262.471C544.355 262.471 544.581 262.56 544.758 262.737C544.936 262.914 545.024 263.136 545.024 263.402C545.024 263.51 545.01 263.609 544.98 263.698C544.951 263.786 544.916 263.865 544.877 263.934C544.837 264.003 544.783 264.062 544.714 264.111C544.645 264.161 544.586 264.2 544.537 264.23C544.488 264.259 544.438 264.279 544.389 264.289C544.34 264.299 544.3 264.313 544.271 264.333L544.212 264.348C544.714 264.791 545.325 265.013 546.044 265.013C546.586 265.013 546.995 264.752 547.271 264.23C547.438 263.904 547.522 263.407 547.522 262.737V262.442C547.522 261.506 547.206 260.88 546.576 260.565C546.428 260.506 546.128 260.471 545.675 260.461L545.054 260.447L545.01 260.417C544.99 260.388 544.98 260.309 544.98 260.181C544.98 260.003 545.019 259.915 545.098 259.915C545.374 259.915 545.66 259.89 545.955 259.841C546.29 259.792 546.596 259.585 546.872 259.22C547.147 258.856 547.285 258.304 547.285 257.565V257.447C547.285 256.885 547.113 256.496 546.768 256.28C546.551 256.142 546.32 256.073 546.074 256.073C545.758 256.073 545.468 256.127 545.202 256.235C544.936 256.344 544.749 256.457 544.64 256.575C544.532 256.693 544.478 256.752 544.478 256.752H544.522C544.552 256.762 544.591 256.772 544.64 256.782C544.689 256.792 544.739 256.817 544.788 256.856C544.837 256.895 544.896 256.93 544.965 256.959C545.034 256.989 545.084 257.043 545.113 257.122C545.143 257.201 545.182 257.275 545.231 257.344C545.281 257.413 545.295 257.511 545.276 257.639C545.276 257.856 545.207 258.048 545.069 258.215C544.931 258.383 544.709 258.472 544.404 258.481Z" fill="#D9EBFF"/>
<path d="M553.286 246.521L553.37 246.5C553.439 246.5 553.509 246.5 553.579 246.5H553.829L554.415 247.002C555.724 248.186 556.679 249.663 557.278 251.433C557.877 253.202 558.177 255.041 558.177 256.95C558.177 257.898 558.107 258.811 557.968 259.688C557.828 260.566 557.668 261.312 557.487 261.925C557.306 262.538 557.048 263.151 556.714 263.764C556.379 264.377 556.115 264.844 555.919 265.164C555.724 265.485 555.439 265.84 555.063 266.23C554.686 266.621 554.463 266.85 554.394 266.92C554.324 266.99 554.164 267.122 553.913 267.317C553.871 267.359 553.843 267.387 553.829 267.401H553.579C553.467 267.401 553.39 267.401 553.349 267.401C553.307 267.401 553.272 267.38 553.244 267.338C553.216 267.296 553.195 267.234 553.181 267.15C553.195 267.136 553.272 267.045 553.411 266.878C555.571 264.635 556.651 261.326 556.651 256.95C556.651 252.575 555.571 249.266 553.411 247.023C553.272 246.855 553.195 246.765 553.181 246.751C553.181 246.639 553.216 246.563 553.286 246.521Z" fill="#D9EBFF"/>
</svg>
