<svg width="700" height="245" viewBox="0 0 700 245" fill="none" xmlns="http://www.w3.org/2000/svg">
<rect width="700" height="245" fill="#0A0D12"/>
<path d="M425.5 24H274.5L350 67.6667L425.5 24ZM425.5 24L501 99.6667L425.5 175.333M350 219L425.5 175.333M425.5 175.333H274.5" stroke="#B3BFD8" stroke-width="2"/>
<path d="M350 219L425.5 175.333H274.5" stroke="#EB5757" stroke-width="2"/>
<circle cx="350" cy="219" r="5" fill="black" stroke="#D9EBFF" stroke-width="2"/>
<circle cx="426" cy="175" r="5" fill="black" stroke="#D9EBFF" stroke-width="2"/>
<circle cx="274" cy="175" r="5" fill="black" stroke="#D9EBFF" stroke-width="2"/>
<circle cx="501" cy="100" r="5" fill="black" stroke="#D9EBFF" stroke-width="2"/>
<circle cx="425" cy="24" r="5" fill="black" stroke="#D9EBFF" stroke-width="2"/>
<circle cx="350" cy="68" r="5" fill="black" stroke="#D9EBFF" stroke-width="2"/>
<circle cx="275" cy="24" r="5" fill="black" stroke="#D9EBFF" stroke-width="2"/>
<path d="M261 186.241C261.014 186.157 261.035 186.046 261.063 185.907C261.091 185.767 261.174 185.502 261.314 185.112C261.453 184.722 261.592 184.395 261.732 184.13C261.871 183.865 262.101 183.607 262.421 183.356C262.742 183.106 263.062 182.987 263.383 183.001C263.885 183.001 264.303 183.127 264.637 183.377C264.971 183.628 265.18 183.865 265.264 184.088C265.348 184.311 265.389 184.457 265.389 184.527C265.389 184.555 265.396 184.569 265.41 184.569L265.64 184.339C266.49 183.447 267.459 183.001 268.546 183.001C269.298 183.001 269.904 183.189 270.364 183.565C270.824 183.942 271.061 184.492 271.075 185.217C271.089 185.941 270.824 187.035 270.281 188.498C269.737 189.962 269.472 190.846 269.486 191.153C269.486 191.515 269.605 191.696 269.842 191.696C269.925 191.696 269.988 191.689 270.03 191.676C270.434 191.606 270.796 191.341 271.117 190.881C271.437 190.421 271.681 189.864 271.848 189.209C271.876 189.098 272.016 189.042 272.266 189.042C272.545 189.042 272.684 189.098 272.684 189.209C272.684 189.223 272.657 189.328 272.601 189.523C272.489 189.927 272.336 190.324 272.141 190.714C271.946 191.104 271.625 191.494 271.179 191.885C270.733 192.275 270.253 192.463 269.737 192.449C269.082 192.449 268.608 192.261 268.316 191.885C268.023 191.508 267.877 191.118 267.877 190.714C267.877 190.449 268.128 189.613 268.629 188.206C269.131 186.798 269.389 185.739 269.403 185.029C269.403 184.206 269.096 183.795 268.483 183.795H268.379C267.18 183.795 266.17 184.499 265.348 185.907L265.201 186.157L264.512 188.958C264.052 190.784 263.787 191.766 263.717 191.905C263.536 192.282 263.237 192.47 262.818 192.47C262.637 192.47 262.491 192.428 262.38 192.344C262.268 192.261 262.191 192.177 262.15 192.094C262.108 192.01 262.094 191.94 262.108 191.885C262.108 191.703 262.373 190.568 262.902 188.477C263.432 186.387 263.71 185.252 263.738 185.07C263.752 185.001 263.759 184.841 263.759 184.59C263.759 184.046 263.592 183.774 263.257 183.774C262.728 183.774 262.289 184.471 261.941 185.865C261.857 186.143 261.815 186.29 261.815 186.304C261.787 186.387 261.655 186.429 261.418 186.429H261.125C261.042 186.345 261 186.283 261 186.241Z" fill="#D9EBFF"/>
<path d="M276.255 186.846L276.063 186.92C275.925 186.969 275.728 187.018 275.472 187.068C275.216 187.117 274.93 187.151 274.615 187.171H274.334V186.491H274.615C275.078 186.472 275.506 186.398 275.901 186.27C276.295 186.142 276.57 186.023 276.728 185.915C276.886 185.807 277.024 185.698 277.142 185.59C277.162 185.56 277.221 185.546 277.319 185.546C277.408 185.546 277.492 185.575 277.57 185.634V190.053L277.585 194.486C277.654 194.555 277.713 194.599 277.763 194.619C277.812 194.639 277.93 194.659 278.117 194.678C278.304 194.698 278.61 194.708 279.033 194.708H279.418V195.388H279.255C279.048 195.358 278.265 195.343 276.905 195.343C275.566 195.343 274.792 195.358 274.585 195.388H274.408V194.708H274.792C275.009 194.708 275.196 194.708 275.354 194.708C275.511 194.708 275.635 194.703 275.723 194.693C275.812 194.683 275.891 194.668 275.96 194.649C276.029 194.629 276.068 194.619 276.078 194.619C276.088 194.619 276.117 194.595 276.167 194.545C276.216 194.496 276.245 194.476 276.255 194.486V186.846Z" fill="#D9EBFF"/>
<path d="M341 231.241C341.014 231.157 341.035 231.046 341.063 230.907C341.091 230.767 341.174 230.502 341.314 230.112C341.453 229.722 341.592 229.395 341.732 229.13C341.871 228.865 342.101 228.607 342.421 228.356C342.742 228.106 343.062 227.987 343.383 228.001C343.885 228.001 344.303 228.127 344.637 228.377C344.971 228.628 345.18 228.865 345.264 229.088C345.348 229.311 345.389 229.457 345.389 229.527C345.389 229.555 345.396 229.569 345.41 229.569L345.64 229.339C346.49 228.447 347.459 228.001 348.546 228.001C349.298 228.001 349.904 228.189 350.364 228.565C350.824 228.942 351.061 229.492 351.075 230.217C351.089 230.941 350.824 232.035 350.281 233.498C349.737 234.962 349.472 235.846 349.486 236.153C349.486 236.515 349.605 236.696 349.842 236.696C349.925 236.696 349.988 236.689 350.03 236.676C350.434 236.606 350.796 236.341 351.117 235.881C351.437 235.421 351.681 234.864 351.848 234.209C351.876 234.098 352.016 234.042 352.266 234.042C352.545 234.042 352.684 234.098 352.684 234.209C352.684 234.223 352.657 234.328 352.601 234.523C352.489 234.927 352.336 235.324 352.141 235.714C351.946 236.104 351.625 236.494 351.179 236.885C350.733 237.275 350.253 237.463 349.737 237.449C349.082 237.449 348.608 237.261 348.316 236.885C348.023 236.508 347.877 236.118 347.877 235.714C347.877 235.449 348.128 234.613 348.629 233.206C349.131 231.798 349.389 230.739 349.403 230.029C349.403 229.206 349.096 228.795 348.483 228.795H348.379C347.18 228.795 346.17 229.499 345.348 230.907L345.201 231.157L344.512 233.958C344.052 235.784 343.787 236.766 343.717 236.905C343.536 237.282 343.237 237.47 342.819 237.47C342.637 237.47 342.491 237.428 342.38 237.344C342.268 237.261 342.191 237.177 342.15 237.094C342.108 237.01 342.094 236.94 342.108 236.885C342.108 236.703 342.373 235.568 342.902 233.477C343.432 231.387 343.71 230.252 343.738 230.07C343.752 230.001 343.759 229.841 343.759 229.59C343.759 229.046 343.592 228.774 343.257 228.774C342.728 228.774 342.289 229.471 341.941 230.865C341.857 231.143 341.815 231.29 341.815 231.304C341.787 231.387 341.655 231.429 341.418 231.429H341.125C341.042 231.345 341 231.283 341 231.241Z" fill="#D9EBFF"/>
<path d="M354.718 234.048C354.452 234.048 354.24 233.959 354.083 233.782C353.925 233.605 353.846 233.388 353.846 233.132C353.846 232.432 354.107 231.826 354.63 231.314C355.152 230.802 355.802 230.546 356.58 230.546C357.477 230.546 358.226 230.821 358.827 231.373C359.428 231.925 359.733 232.639 359.743 233.516C359.743 233.94 359.644 234.343 359.447 234.728C359.25 235.112 359.014 235.447 358.738 235.733C358.462 236.018 358.068 236.383 357.556 236.826C357.201 237.132 356.708 237.585 356.078 238.186L355.206 239.013L356.329 239.028C357.876 239.028 358.698 239.003 358.797 238.954C358.866 238.934 358.984 238.496 359.152 237.639V237.595H359.743V237.639C359.733 237.668 359.669 238.117 359.551 238.984C359.432 239.851 359.359 240.304 359.329 240.343V240.388H353.846V239.929C353.846 239.861 353.876 239.787 353.935 239.708C353.994 239.629 354.142 239.457 354.378 239.191C354.664 238.875 354.91 238.599 355.117 238.363C355.206 238.265 355.373 238.082 355.62 237.816C355.866 237.55 356.034 237.368 356.122 237.269C356.211 237.171 356.354 237.008 356.551 236.782C356.748 236.555 356.886 236.388 356.965 236.279C357.043 236.171 357.157 236.023 357.304 235.836C357.452 235.649 357.556 235.491 357.615 235.363C357.674 235.235 357.748 235.092 357.836 234.935C357.925 234.777 357.989 234.619 358.029 234.462C358.068 234.304 358.102 234.156 358.132 234.018C358.162 233.88 358.176 233.718 358.176 233.531C358.176 232.91 358.009 232.373 357.674 231.92C357.339 231.467 356.861 231.24 356.24 231.24C355.915 231.24 355.63 231.324 355.383 231.491C355.137 231.659 354.965 231.821 354.866 231.979C354.768 232.137 354.718 232.23 354.718 232.26C354.718 232.27 354.743 232.275 354.792 232.275C354.97 232.275 355.152 232.343 355.339 232.481C355.526 232.619 355.62 232.846 355.62 233.161C355.62 233.408 355.541 233.614 355.383 233.782C355.226 233.949 355.004 234.038 354.718 234.048Z" fill="#D9EBFF"/>
<path d="M420 187.241C420.014 187.157 420.035 187.046 420.063 186.907C420.091 186.767 420.174 186.502 420.314 186.112C420.453 185.722 420.592 185.395 420.732 185.13C420.871 184.865 421.101 184.607 421.421 184.356C421.742 184.106 422.062 183.987 422.383 184.001C422.885 184.001 423.303 184.127 423.637 184.377C423.971 184.628 424.18 184.865 424.264 185.088C424.348 185.311 424.389 185.457 424.389 185.527C424.389 185.555 424.396 185.569 424.41 185.569L424.64 185.339C425.49 184.447 426.459 184.001 427.546 184.001C428.298 184.001 428.904 184.189 429.364 184.565C429.824 184.942 430.061 185.492 430.075 186.217C430.089 186.941 429.824 188.035 429.281 189.498C428.737 190.962 428.472 191.846 428.486 192.153C428.486 192.515 428.605 192.696 428.842 192.696C428.925 192.696 428.988 192.689 429.03 192.676C429.434 192.606 429.796 192.341 430.117 191.881C430.437 191.421 430.681 190.864 430.848 190.209C430.876 190.098 431.016 190.042 431.266 190.042C431.545 190.042 431.684 190.098 431.684 190.209C431.684 190.223 431.657 190.328 431.601 190.523C431.489 190.927 431.336 191.324 431.141 191.714C430.946 192.104 430.625 192.494 430.179 192.885C429.733 193.275 429.253 193.463 428.737 193.449C428.082 193.449 427.608 193.261 427.316 192.885C427.023 192.508 426.877 192.118 426.877 191.714C426.877 191.449 427.128 190.613 427.629 189.206C428.131 187.798 428.389 186.739 428.403 186.029C428.403 185.206 428.096 184.795 427.483 184.795H427.379C426.18 184.795 425.17 185.499 424.348 186.907L424.201 187.157L423.512 189.958C423.052 191.784 422.787 192.766 422.717 192.905C422.536 193.282 422.237 193.47 421.818 193.47C421.637 193.47 421.491 193.428 421.38 193.344C421.268 193.261 421.191 193.177 421.15 193.094C421.108 193.01 421.094 192.94 421.108 192.885C421.108 192.703 421.373 191.568 421.902 189.477C422.432 187.387 422.71 186.252 422.738 186.07C422.752 186.001 422.759 185.841 422.759 185.59C422.759 185.046 422.592 184.774 422.257 184.774C421.728 184.774 421.289 185.471 420.941 186.865C420.857 187.143 420.815 187.29 420.815 187.304C420.787 187.387 420.655 187.429 420.418 187.429H420.125C420.042 187.345 420 187.283 420 187.241Z" fill="#D9EBFF"/>
<path d="M433.984 189.545C433.718 189.545 433.511 189.462 433.364 189.294C433.216 189.127 433.137 188.91 433.127 188.644C433.127 188.102 433.364 187.619 433.837 187.196C434.309 186.772 434.881 186.56 435.551 186.56C435.896 186.56 436.112 186.565 436.201 186.575C436.93 186.693 437.487 186.954 437.871 187.358C438.255 187.762 438.452 188.201 438.462 188.674C438.462 189.186 438.295 189.683 437.96 190.166C437.625 190.649 437.162 190.999 436.57 191.215L436.526 191.245C436.526 191.255 436.57 191.27 436.659 191.289C436.748 191.309 436.891 191.353 437.088 191.422C437.285 191.491 437.472 191.595 437.649 191.733C438.457 192.255 438.861 192.944 438.861 193.801C438.861 194.58 438.556 195.26 437.945 195.841C437.334 196.422 436.561 196.713 435.625 196.713C434.836 196.713 434.157 196.501 433.585 196.077C433.014 195.654 432.728 195.117 432.728 194.466C432.728 194.191 432.817 193.969 432.994 193.801C433.172 193.634 433.393 193.545 433.659 193.535C433.935 193.535 434.162 193.624 434.339 193.801C434.516 193.979 434.605 194.2 434.605 194.466C434.605 194.575 434.59 194.673 434.561 194.762C434.531 194.851 434.497 194.93 434.457 194.998C434.418 195.067 434.364 195.127 434.295 195.176C434.226 195.225 434.167 195.264 434.117 195.294C434.068 195.324 434.019 195.343 433.97 195.353C433.92 195.363 433.881 195.378 433.851 195.397L433.792 195.412C434.295 195.856 434.905 196.077 435.625 196.077C436.167 196.077 436.575 195.816 436.851 195.294C437.019 194.969 437.102 194.471 437.102 193.801V193.506C437.102 192.57 436.787 191.944 436.157 191.629C436.009 191.57 435.708 191.536 435.255 191.526L434.635 191.511L434.59 191.481C434.57 191.452 434.561 191.373 434.561 191.245C434.561 191.068 434.6 190.979 434.679 190.979C434.955 190.979 435.24 190.954 435.536 190.905C435.871 190.856 436.176 190.649 436.452 190.284C436.728 189.92 436.866 189.368 436.866 188.629V188.511C436.866 187.949 436.694 187.56 436.349 187.344C436.132 187.206 435.9 187.137 435.654 187.137C435.339 187.137 435.048 187.191 434.782 187.299C434.516 187.408 434.329 187.521 434.221 187.639C434.112 187.757 434.058 187.816 434.058 187.816H434.103C434.132 187.826 434.171 187.836 434.221 187.846C434.27 187.856 434.319 187.88 434.369 187.92C434.418 187.959 434.477 187.994 434.546 188.023C434.615 188.053 434.664 188.107 434.694 188.186C434.723 188.265 434.763 188.339 434.812 188.408C434.861 188.476 434.876 188.575 434.856 188.703C434.856 188.92 434.787 189.112 434.649 189.279C434.511 189.447 434.29 189.536 433.984 189.545Z" fill="#D9EBFF"/>
<path d="M511 98.241C511.014 98.1573 511.035 98.0459 511.063 97.9065C511.091 97.7672 511.174 97.5024 511.314 97.1122C511.453 96.7221 511.592 96.3946 511.732 96.1298C511.871 95.8651 512.101 95.6073 512.421 95.3564C512.742 95.1056 513.062 94.9872 513.383 95.0011C513.885 95.0011 514.303 95.1265 514.637 95.3773C514.971 95.6282 515.18 95.8651 515.264 96.088C515.348 96.311 515.389 96.4573 515.389 96.527C515.389 96.5548 515.396 96.5688 515.41 96.5688L515.64 96.3388C516.49 95.447 517.459 95.0011 518.546 95.0011C519.298 95.0011 519.904 95.1892 520.364 95.5655C520.824 95.9417 521.061 96.4921 521.075 97.2167C521.089 97.9414 520.824 99.0352 520.281 100.498C519.737 101.962 519.472 102.846 519.486 103.153C519.486 103.515 519.605 103.696 519.842 103.696C519.925 103.696 519.988 103.689 520.03 103.676C520.434 103.606 520.796 103.341 521.117 102.881C521.437 102.421 521.681 101.864 521.848 101.209C521.876 101.098 522.016 101.042 522.266 101.042C522.545 101.042 522.684 101.098 522.684 101.209C522.684 101.223 522.657 101.328 522.601 101.523C522.489 101.927 522.336 102.324 522.141 102.714C521.946 103.104 521.625 103.494 521.179 103.885C520.733 104.275 520.253 104.463 519.737 104.449C519.082 104.449 518.608 104.261 518.316 103.885C518.023 103.508 517.877 103.118 517.877 102.714C517.877 102.449 518.128 101.613 518.629 100.206C519.131 98.7983 519.389 97.7393 519.403 97.0286C519.403 96.2065 519.096 95.7954 518.483 95.7954H518.379C517.18 95.7954 516.17 96.4991 515.348 97.9065L515.201 98.1573L514.512 100.958C514.052 102.784 513.787 103.766 513.717 103.905C513.536 104.282 513.237 104.47 512.818 104.47C512.637 104.47 512.491 104.428 512.38 104.344C512.268 104.261 512.191 104.177 512.15 104.094C512.108 104.01 512.094 103.94 512.108 103.885C512.108 103.703 512.373 102.568 512.902 100.477C513.432 98.3873 513.71 97.2516 513.738 97.0704C513.752 97.0008 513.759 96.8405 513.759 96.5897C513.759 96.0462 513.592 95.7745 513.257 95.7745C512.728 95.7745 512.289 96.4712 511.941 97.8647C511.857 98.1434 511.815 98.2897 511.815 98.3037C511.787 98.3873 511.655 98.4291 511.418 98.4291H511.125C511.042 98.3455 511 98.2828 511 98.241Z" fill="#D9EBFF"/>
<path d="M529.935 107.388C529.758 107.358 529.122 107.343 528.029 107.343C526.886 107.343 526.226 107.358 526.048 107.388H525.915V106.708H526.373C526.57 106.708 526.703 106.708 526.772 106.708C526.841 106.708 526.925 106.698 527.024 106.678C527.122 106.659 527.191 106.634 527.231 106.604C527.27 106.575 527.304 106.535 527.334 106.486C527.344 106.466 527.349 106.2 527.349 105.688V104.949H523.521V104.269L525.753 100.856C527.26 98.5701 528.024 97.4224 528.043 97.4125C528.063 97.3928 528.166 97.383 528.354 97.383H528.62L528.708 97.4716V104.269H530.068V104.949H528.708V105.703C528.708 106.107 528.708 106.343 528.708 106.412C528.708 106.481 528.738 106.54 528.797 106.59C528.876 106.659 529.157 106.698 529.639 106.708H530.068V107.388H529.935ZM527.437 104.269V99.3336L524.201 104.255L525.812 104.269H527.437Z" fill="#D9EBFF"/>
<path d="M419 9.24095C419.014 9.15734 419.035 9.04587 419.063 8.90652C419.091 8.76717 419.174 8.50241 419.314 8.11223C419.453 7.72205 419.592 7.39459 419.732 7.12982C419.871 6.86506 420.101 6.60727 420.421 6.35644C420.742 6.10561 421.062 5.98717 421.383 6.0011C421.885 6.0011 422.303 6.12651 422.637 6.37734C422.971 6.62817 423.18 6.86506 423.264 7.08802C423.348 7.31098 423.389 7.45729 423.389 7.52697C423.389 7.55484 423.396 7.56877 423.41 7.56877L423.64 7.33885C424.49 6.44702 425.459 6.0011 426.546 6.0011C427.298 6.0011 427.904 6.18922 428.364 6.56546C428.824 6.9417 429.061 7.49213 429.075 8.21674C429.089 8.94135 428.824 10.0352 428.281 11.4984C427.737 12.9616 427.472 13.8464 427.486 14.153C427.486 14.5153 427.605 14.6964 427.842 14.6964C427.925 14.6964 427.988 14.6895 428.03 14.6755C428.434 14.6059 428.796 14.3411 429.117 13.8813C429.437 13.4214 429.681 12.864 429.848 12.2091C429.876 12.0976 430.016 12.0419 430.266 12.0419C430.545 12.0419 430.684 12.0976 430.684 12.2091C430.684 12.223 430.657 12.3275 430.601 12.5226C430.489 12.9267 430.336 13.3239 430.141 13.714C429.946 14.1042 429.625 14.4944 429.179 14.8846C428.733 15.2747 428.253 15.4629 427.737 15.4489C427.082 15.4489 426.608 15.2608 426.316 14.8846C426.023 14.5083 425.877 14.1182 425.877 13.714C425.877 13.4493 426.128 12.6132 426.629 11.2058C427.131 9.79835 427.389 8.7393 427.403 8.02862C427.403 7.20647 427.096 6.79539 426.483 6.79539H426.379C425.18 6.79539 424.17 7.4991 423.348 8.90652L423.201 9.15734L422.512 11.9583C422.052 13.7837 421.787 14.7661 421.717 14.9055C421.536 15.2817 421.237 15.4698 420.818 15.4698C420.637 15.4698 420.491 15.428 420.38 15.3444C420.268 15.2608 420.191 15.1772 420.15 15.0936C420.108 15.01 420.094 14.9403 420.108 14.8846C420.108 14.7034 420.373 13.5677 420.902 11.4775C421.432 9.38727 421.71 8.25158 421.738 8.07043C421.752 8.00075 421.759 7.8405 421.759 7.58967C421.759 7.04621 421.592 6.77448 421.257 6.77448C420.728 6.77448 420.289 7.47123 419.941 8.86471C419.857 9.14341 419.815 9.28973 419.815 9.30366C419.787 9.38727 419.655 9.42907 419.418 9.42907H419.125C419.042 9.34547 419 9.28276 419 9.24095Z" fill="#D9EBFF"/>
<path d="M433.531 16.0675C433.531 16.3039 433.452 16.501 433.295 16.6586C433.137 16.8162 432.945 16.895 432.718 16.895H432.615C433.068 17.6733 433.669 18.0625 434.418 18.0625C435.107 18.0625 435.61 17.7669 435.925 17.1758C436.112 16.8507 436.206 16.2202 436.206 15.2842C436.206 14.2695 436.073 13.5848 435.807 13.2301C435.551 12.905 435.265 12.7424 434.95 12.7424H434.861C434.093 12.7424 433.511 13.0774 433.117 13.7473C433.078 13.8163 433.043 13.8557 433.014 13.8656C432.984 13.8754 432.91 13.8853 432.792 13.8951C432.625 13.8951 432.531 13.8656 432.511 13.8065C432.492 13.767 432.482 12.905 432.482 11.2203V9.31396C432.482 8.82137 432.506 8.57507 432.556 8.57507C432.575 8.55537 432.595 8.54551 432.615 8.54551C432.625 8.54551 432.728 8.58492 432.925 8.66374C433.122 8.74255 433.393 8.82137 433.738 8.90018C434.083 8.979 434.452 9.01841 434.846 9.01841C435.546 9.01841 436.216 8.88048 436.856 8.60462C436.935 8.56522 436.999 8.54551 437.048 8.54551C437.127 8.54551 437.166 8.63418 437.166 8.81152V9.00363C436.359 9.95927 435.349 10.4371 434.137 10.4371C433.832 10.4371 433.556 10.4075 433.309 10.3484L433.162 10.3189V12.8607C433.349 12.7227 433.497 12.6144 433.605 12.5356C433.713 12.4567 433.891 12.3779 434.137 12.2991C434.383 12.2203 434.634 12.1809 434.891 12.1809C435.689 12.1809 436.364 12.5011 436.915 13.1414C437.467 13.7818 437.743 14.5404 437.743 15.4172C437.743 16.3236 437.428 17.097 436.797 17.7374C436.166 18.3778 435.398 18.7029 434.492 18.7127C433.694 18.7127 433.053 18.4467 432.571 17.9147C432.088 17.3827 431.846 16.7817 431.846 16.1118C431.846 15.8754 431.901 15.6882 432.009 15.5502C432.117 15.4123 432.231 15.3237 432.349 15.2842C432.467 15.2448 432.58 15.2251 432.689 15.2251C432.935 15.2251 433.137 15.3089 433.295 15.4764C433.452 15.6438 433.531 15.8409 433.531 16.0675Z" fill="#D9EBFF"/>
<path d="M265 6.24095C265.014 6.15734 265.035 6.04587 265.063 5.90652C265.091 5.76717 265.174 5.50241 265.314 5.11223C265.453 4.72205 265.592 4.39459 265.732 4.12982C265.871 3.86506 266.101 3.60727 266.421 3.35644C266.742 3.10561 267.062 2.98717 267.383 3.0011C267.885 3.0011 268.303 3.12651 268.637 3.37734C268.971 3.62817 269.18 3.86506 269.264 4.08802C269.348 4.31098 269.389 4.45729 269.389 4.52697C269.389 4.55484 269.396 4.56877 269.41 4.56877L269.64 4.33885C270.49 3.44702 271.459 3.0011 272.546 3.0011C273.298 3.0011 273.904 3.18922 274.364 3.56546C274.824 3.9417 275.061 4.49213 275.075 5.21674C275.089 5.94135 274.824 7.03524 274.281 8.4984C273.737 9.96156 273.472 10.8464 273.486 11.153C273.486 11.5153 273.605 11.6964 273.842 11.6964C273.925 11.6964 273.988 11.6895 274.03 11.6755C274.434 11.6059 274.796 11.3411 275.117 10.8813C275.437 10.4214 275.681 9.86402 275.848 9.20908C275.876 9.0976 276.015 9.04186 276.266 9.04186C276.545 9.04186 276.684 9.0976 276.684 9.20908C276.684 9.22301 276.657 9.32752 276.601 9.52261C276.489 9.92672 276.336 10.3239 276.141 10.714C275.946 11.1042 275.625 11.4944 275.179 11.8846C274.733 12.2747 274.253 12.4629 273.737 12.4489C273.082 12.4489 272.608 12.2608 272.316 11.8846C272.023 11.5083 271.877 11.1182 271.877 10.714C271.877 10.4493 272.128 9.61319 272.629 8.20577C273.131 6.79835 273.389 5.7393 273.403 5.02862C273.403 4.20647 273.096 3.79539 272.483 3.79539H272.379C271.18 3.79539 270.17 4.4991 269.348 5.90652L269.201 6.15734L268.512 8.95825C268.052 10.7837 267.787 11.7661 267.717 11.9055C267.536 12.2817 267.237 12.4698 266.818 12.4698C266.637 12.4698 266.491 12.428 266.38 12.3444C266.268 12.2608 266.191 12.1772 266.15 12.0936C266.108 12.01 266.094 11.9403 266.108 11.8846C266.108 11.7034 266.373 10.5677 266.902 8.4775C267.432 6.38727 267.71 5.25158 267.738 5.07043C267.752 5.00075 267.759 4.8405 267.759 4.58967C267.759 4.04621 267.592 3.77448 267.257 3.77448C266.728 3.77448 266.289 4.47123 265.941 5.86471C265.857 6.14341 265.815 6.28973 265.815 6.30366C265.787 6.38727 265.655 6.42907 265.418 6.42907H265.125C265.042 6.34547 265 6.28276 265 6.24095Z" fill="#D9EBFF"/>
<path d="M277.92 8.61932C277.93 8.59962 278.014 8.06268 278.172 7.00853L278.408 5.42729C278.408 5.40759 278.506 5.39773 278.704 5.39773H278.999V5.45685C278.999 5.55537 279.073 5.63911 279.221 5.70807C279.369 5.77703 279.625 5.82137 279.989 5.84107C280.354 5.86078 281.186 5.87063 282.487 5.87063H284.275V6.44697L283.27 7.82131C283.181 7.93954 283.033 8.13657 282.827 8.41243C282.62 8.68828 282.487 8.87054 282.428 8.95921C282.368 9.04788 282.265 9.20551 282.117 9.4321C281.969 9.6587 281.871 9.83603 281.822 9.96411C281.772 10.0922 281.703 10.2744 281.615 10.5109C281.526 10.7473 281.462 10.9739 281.423 11.1907C281.383 11.4074 281.344 11.6734 281.304 11.9887C281.265 12.3039 281.235 12.6389 281.216 12.9936C281.196 13.3483 281.181 13.7522 281.171 14.2054C281.171 14.3433 281.171 14.4812 281.171 14.6192C281.171 14.7571 281.166 14.8753 281.157 14.9738V15.1068C281.117 15.2743 281.024 15.4172 280.876 15.5354C280.728 15.6536 280.561 15.7127 280.373 15.7127C280.265 15.7127 280.162 15.6979 280.063 15.6684C279.965 15.6388 279.861 15.5452 279.753 15.3876C279.644 15.23 279.59 15.0329 279.59 14.7965C279.59 13.2399 280.068 11.6242 281.024 9.94933C281.221 9.63407 281.634 9.03803 282.265 8.1612L282.945 7.2302H281.57C279.856 7.2302 278.955 7.25975 278.866 7.31886C278.807 7.34842 278.753 7.46664 278.704 7.67353C278.654 7.88042 278.605 8.09224 278.556 8.30898L278.511 8.61932V8.66365H277.92V8.61932Z" fill="#D9EBFF"/>
<path d="M341 83.241C341.014 83.1573 341.035 83.0459 341.063 82.9065C341.091 82.7672 341.174 82.5024 341.314 82.1122C341.453 81.7221 341.592 81.3946 341.732 81.1298C341.871 80.8651 342.101 80.6073 342.421 80.3564C342.742 80.1056 343.062 79.9872 343.383 80.0011C343.885 80.0011 344.303 80.1265 344.637 80.3773C344.971 80.6282 345.18 80.8651 345.264 81.088C345.348 81.311 345.389 81.4573 345.389 81.527C345.389 81.5548 345.396 81.5688 345.41 81.5688L345.64 81.3388C346.49 80.447 347.459 80.0011 348.546 80.0011C349.298 80.0011 349.904 80.1892 350.364 80.5655C350.824 80.9417 351.061 81.4921 351.075 82.2167C351.089 82.9414 350.824 84.0352 350.281 85.4984C349.737 86.9616 349.472 87.8464 349.486 88.153C349.486 88.5153 349.605 88.6964 349.842 88.6964C349.925 88.6964 349.988 88.6895 350.03 88.6755C350.434 88.6059 350.796 88.3411 351.117 87.8813C351.437 87.4214 351.681 86.864 351.848 86.2091C351.876 86.0976 352.016 86.0419 352.266 86.0419C352.545 86.0419 352.684 86.0976 352.684 86.2091C352.684 86.223 352.657 86.3275 352.601 86.5226C352.489 86.9267 352.336 87.3239 352.141 87.714C351.946 88.1042 351.625 88.4944 351.179 88.8846C350.733 89.2747 350.253 89.4629 349.737 89.4489C349.082 89.4489 348.608 89.2608 348.316 88.8846C348.023 88.5083 347.877 88.1182 347.877 87.714C347.877 87.4493 348.128 86.6132 348.629 85.2058C349.131 83.7983 349.389 82.7393 349.403 82.0286C349.403 81.2065 349.096 80.7954 348.483 80.7954H348.379C347.18 80.7954 346.17 81.4991 345.348 82.9065L345.201 83.1573L344.512 85.9583C344.052 87.7837 343.787 88.7661 343.717 88.9055C343.536 89.2817 343.237 89.4698 342.818 89.4698C342.637 89.4698 342.491 89.428 342.38 89.3444C342.268 89.2608 342.191 89.1772 342.15 89.0936C342.108 89.01 342.094 88.9403 342.108 88.8846C342.108 88.7034 342.373 87.5677 342.902 85.4775C343.432 83.3873 343.71 82.2516 343.738 82.0704C343.752 82.0008 343.759 81.8405 343.759 81.5897C343.759 81.0462 343.592 80.7745 343.257 80.7745C342.728 80.7745 342.289 81.4712 341.941 82.8647C341.857 83.1434 341.815 83.2897 341.815 83.3037C341.787 83.3873 341.655 83.4291 341.418 83.4291H341.125C341.042 83.3455 341 83.2828 341 83.241Z" fill="#D9EBFF"/>
<path d="M353.728 87.7621C353.728 86.1563 354.127 84.8853 354.925 83.9494C355.723 83.0135 356.61 82.5455 357.585 82.5455C358.265 82.5455 358.753 82.7228 359.048 83.0775C359.344 83.4322 359.492 83.8263 359.492 84.2598C359.492 84.506 359.423 84.7031 359.285 84.8509C359.147 84.9986 358.955 85.0725 358.708 85.0725C358.482 85.0725 358.295 85.0036 358.147 84.8656C357.999 84.7277 357.925 84.5356 357.925 84.2893C357.925 83.8558 358.157 83.5947 358.62 83.5061C358.403 83.2893 358.098 83.1662 357.703 83.1366C357.004 83.1366 356.428 83.4322 355.974 84.0233C355.511 84.6735 355.28 85.6686 355.28 87.0084L355.295 87.0676C355.344 87.0084 355.383 86.9444 355.413 86.8754C355.817 86.2843 356.344 85.9888 356.994 85.9888H357.053C357.506 85.9888 357.905 86.0824 358.25 86.2695C358.487 86.4075 358.723 86.6045 358.96 86.8607C359.196 87.1168 359.388 87.3976 359.536 87.703C359.743 88.1858 359.846 88.7128 359.846 89.2842V89.5502C359.846 89.7768 359.822 89.9887 359.772 90.1857C359.664 90.767 359.349 91.3334 358.827 91.8852C358.304 92.4369 357.644 92.7127 356.846 92.7127C356.57 92.7127 356.304 92.6733 356.048 92.5945C355.792 92.5157 355.516 92.3679 355.221 92.1512C354.925 91.9344 354.674 91.6438 354.467 91.2793C354.26 90.9147 354.083 90.4369 353.935 89.8458C353.787 89.2547 353.718 88.5601 353.728 87.7621ZM356.905 86.5208C356.61 86.5208 356.354 86.6045 356.137 86.772C355.92 86.9395 355.753 87.1611 355.635 87.437C355.516 87.7129 355.433 87.9936 355.383 88.2793C355.334 88.5651 355.304 88.8705 355.295 89.1956C355.295 90.0133 355.354 90.5995 355.472 90.9541C355.59 91.3088 355.777 91.5945 356.034 91.8113C356.27 91.9886 356.531 92.0773 356.817 92.0773C357.319 92.0773 357.703 91.8901 357.969 91.5157C358.098 91.3384 358.186 91.1167 358.235 90.8507C358.285 90.5847 358.309 90.0675 358.309 89.299C358.309 88.5109 358.285 87.9838 358.235 87.7178C358.186 87.4518 358.098 87.2301 357.969 87.0528C357.703 86.6981 357.349 86.5208 356.905 86.5208Z" fill="#D9EBFF"/>
</svg>
