<svg width="700" height="247" viewBox="0 0 700 247" fill="none" xmlns="http://www.w3.org/2000/svg">
<rect width="700" height="247" fill="#0A0D12"/>
<path d="M425.5 25H274.5L350 68.6667L425.5 25ZM425.5 25L501 100.667L425.5 176.333" stroke="#B3BFD8" stroke-width="2"/>
<path d="M425.5 25L501 100.667L425.5 176.333" stroke="#EB5757" stroke-width="2"/>
<circle cx="426" cy="176" r="5" fill="black" stroke="#D9EBFF" stroke-width="2"/>
<circle cx="501" cy="101" r="5" fill="black" stroke="#D9EBFF" stroke-width="2"/>
<circle cx="425" cy="25" r="5" fill="black" stroke="#D9EBFF" stroke-width="2"/>
<circle cx="350" cy="69" r="5" fill="black" stroke="#D9EBFF" stroke-width="2"/>
<circle cx="275" cy="25" r="5" fill="black" stroke="#D9EBFF" stroke-width="2"/>
<path d="M420 188.241C420.014 188.157 420.035 188.046 420.063 187.907C420.091 187.767 420.174 187.502 420.314 187.112C420.453 186.722 420.592 186.395 420.732 186.13C420.871 185.865 421.101 185.607 421.421 185.356C421.742 185.106 422.062 184.987 422.383 185.001C422.885 185.001 423.303 185.127 423.637 185.377C423.971 185.628 424.18 185.865 424.264 186.088C424.348 186.311 424.389 186.457 424.389 186.527C424.389 186.555 424.396 186.569 424.41 186.569L424.64 186.339C425.49 185.447 426.459 185.001 427.546 185.001C428.298 185.001 428.904 185.189 429.364 185.565C429.824 185.942 430.061 186.492 430.075 187.217C430.089 187.941 429.824 189.035 429.281 190.498C428.737 191.962 428.472 192.846 428.486 193.153C428.486 193.515 428.605 193.696 428.842 193.696C428.925 193.696 428.988 193.689 429.03 193.676C429.434 193.606 429.796 193.341 430.117 192.881C430.437 192.421 430.681 191.864 430.848 191.209C430.876 191.098 431.016 191.042 431.266 191.042C431.545 191.042 431.684 191.098 431.684 191.209C431.684 191.223 431.657 191.328 431.601 191.523C431.489 191.927 431.336 192.324 431.141 192.714C430.946 193.104 430.625 193.494 430.179 193.885C429.733 194.275 429.253 194.463 428.737 194.449C428.082 194.449 427.608 194.261 427.316 193.885C427.023 193.508 426.877 193.118 426.877 192.714C426.877 192.449 427.128 191.613 427.629 190.206C428.131 188.798 428.389 187.739 428.403 187.029C428.403 186.206 428.096 185.795 427.483 185.795H427.379C426.18 185.795 425.17 186.499 424.348 187.907L424.201 188.157L423.512 190.958C423.052 192.784 422.787 193.766 422.717 193.905C422.536 194.282 422.237 194.47 421.818 194.47C421.637 194.47 421.491 194.428 421.38 194.344C421.268 194.261 421.191 194.177 421.15 194.094C421.108 194.01 421.094 193.94 421.108 193.885C421.108 193.703 421.373 192.568 421.902 190.477C422.432 188.387 422.71 187.252 422.738 187.07C422.752 187.001 422.759 186.841 422.759 186.59C422.759 186.046 422.592 185.774 422.257 185.774C421.728 185.774 421.289 186.471 420.941 187.865C420.857 188.143 420.815 188.29 420.815 188.304C420.787 188.387 420.655 188.429 420.418 188.429H420.125C420.042 188.345 420 188.283 420 188.241Z" fill="#D9EBFF"/>
<path d="M433.984 190.545C433.718 190.545 433.511 190.462 433.364 190.294C433.216 190.127 433.137 189.91 433.127 189.644C433.127 189.102 433.364 188.619 433.837 188.196C434.309 187.772 434.881 187.56 435.551 187.56C435.896 187.56 436.112 187.565 436.201 187.575C436.93 187.693 437.487 187.954 437.871 188.358C438.255 188.762 438.452 189.201 438.462 189.674C438.462 190.186 438.295 190.683 437.96 191.166C437.625 191.649 437.162 191.999 436.57 192.215L436.526 192.245C436.526 192.255 436.57 192.27 436.659 192.289C436.748 192.309 436.891 192.353 437.088 192.422C437.285 192.491 437.472 192.595 437.649 192.733C438.457 193.255 438.861 193.944 438.861 194.801C438.861 195.58 438.556 196.26 437.945 196.841C437.334 197.422 436.561 197.713 435.625 197.713C434.836 197.713 434.157 197.501 433.585 197.077C433.014 196.654 432.728 196.117 432.728 195.466C432.728 195.191 432.817 194.969 432.994 194.801C433.172 194.634 433.393 194.545 433.659 194.535C433.935 194.535 434.162 194.624 434.339 194.801C434.516 194.979 434.605 195.2 434.605 195.466C434.605 195.575 434.59 195.673 434.561 195.762C434.531 195.851 434.497 195.93 434.457 195.998C434.418 196.067 434.364 196.127 434.295 196.176C434.226 196.225 434.167 196.264 434.117 196.294C434.068 196.324 434.019 196.343 433.97 196.353C433.92 196.363 433.881 196.378 433.851 196.397L433.792 196.412C434.295 196.856 434.905 197.077 435.625 197.077C436.167 197.077 436.575 196.816 436.851 196.294C437.019 195.969 437.102 195.471 437.102 194.801V194.506C437.102 193.57 436.787 192.944 436.157 192.629C436.009 192.57 435.708 192.536 435.255 192.526L434.635 192.511L434.59 192.481C434.57 192.452 434.561 192.373 434.561 192.245C434.561 192.068 434.6 191.979 434.679 191.979C434.955 191.979 435.24 191.954 435.536 191.905C435.871 191.856 436.176 191.649 436.452 191.284C436.728 190.92 436.866 190.368 436.866 189.629V189.511C436.866 188.949 436.694 188.56 436.349 188.344C436.132 188.206 435.9 188.137 435.654 188.137C435.339 188.137 435.048 188.191 434.782 188.299C434.516 188.408 434.329 188.521 434.221 188.639C434.112 188.757 434.058 188.816 434.058 188.816H434.103C434.132 188.826 434.171 188.836 434.221 188.846C434.27 188.856 434.319 188.88 434.369 188.92C434.418 188.959 434.477 188.994 434.546 189.023C434.615 189.053 434.664 189.107 434.694 189.186C434.723 189.265 434.763 189.339 434.812 189.408C434.861 189.476 434.876 189.575 434.856 189.703C434.856 189.92 434.787 190.112 434.649 190.279C434.511 190.447 434.29 190.536 433.984 190.545Z" fill="#D9EBFF"/>
<path d="M511 99.241C511.014 99.1573 511.035 99.0459 511.063 98.9065C511.091 98.7672 511.174 98.5024 511.314 98.1122C511.453 97.7221 511.592 97.3946 511.732 97.1298C511.871 96.8651 512.101 96.6073 512.421 96.3564C512.742 96.1056 513.062 95.9872 513.383 96.0011C513.885 96.0011 514.303 96.1265 514.637 96.3773C514.971 96.6282 515.18 96.8651 515.264 97.088C515.348 97.311 515.389 97.4573 515.389 97.527C515.389 97.5548 515.396 97.5688 515.41 97.5688L515.64 97.3388C516.49 96.447 517.459 96.0011 518.546 96.0011C519.298 96.0011 519.904 96.1892 520.364 96.5655C520.824 96.9417 521.061 97.4921 521.075 98.2167C521.089 98.9414 520.824 100.035 520.281 101.498C519.737 102.962 519.472 103.846 519.486 104.153C519.486 104.515 519.605 104.696 519.842 104.696C519.925 104.696 519.988 104.689 520.03 104.676C520.434 104.606 520.796 104.341 521.117 103.881C521.437 103.421 521.681 102.864 521.848 102.209C521.876 102.098 522.016 102.042 522.266 102.042C522.545 102.042 522.684 102.098 522.684 102.209C522.684 102.223 522.657 102.328 522.601 102.523C522.489 102.927 522.336 103.324 522.141 103.714C521.946 104.104 521.625 104.494 521.179 104.885C520.733 105.275 520.253 105.463 519.737 105.449C519.082 105.449 518.608 105.261 518.316 104.885C518.023 104.508 517.877 104.118 517.877 103.714C517.877 103.449 518.128 102.613 518.629 101.206C519.131 99.7983 519.389 98.7393 519.403 98.0286C519.403 97.2065 519.096 96.7954 518.483 96.7954H518.379C517.18 96.7954 516.17 97.4991 515.348 98.9065L515.201 99.1573L514.512 101.958C514.052 103.784 513.787 104.766 513.717 104.905C513.536 105.282 513.237 105.47 512.818 105.47C512.637 105.47 512.491 105.428 512.38 105.344C512.268 105.261 512.191 105.177 512.15 105.094C512.108 105.01 512.094 104.94 512.108 104.885C512.108 104.703 512.373 103.568 512.902 101.477C513.432 99.3873 513.71 98.2516 513.738 98.0704C513.752 98.0008 513.759 97.8405 513.759 97.5897C513.759 97.0462 513.592 96.7745 513.257 96.7745C512.728 96.7745 512.289 97.4712 511.941 98.8647C511.857 99.1434 511.815 99.2897 511.815 99.3037C511.787 99.3873 511.655 99.4291 511.418 99.4291H511.125C511.042 99.3455 511 99.2828 511 99.241Z" fill="#D9EBFF"/>
<path d="M529.935 108.388C529.758 108.358 529.122 108.343 528.029 108.343C526.886 108.343 526.226 108.358 526.048 108.388H525.915V107.708H526.373C526.57 107.708 526.703 107.708 526.772 107.708C526.841 107.708 526.925 107.698 527.024 107.678C527.122 107.659 527.191 107.634 527.231 107.604C527.27 107.575 527.304 107.535 527.334 107.486C527.344 107.466 527.349 107.2 527.349 106.688V105.949H523.521V105.269L525.753 101.856C527.26 99.5701 528.024 98.4224 528.043 98.4125C528.063 98.3928 528.166 98.383 528.354 98.383H528.62L528.708 98.4716V105.269H530.068V105.949H528.708V106.703C528.708 107.107 528.708 107.343 528.708 107.412C528.708 107.481 528.738 107.54 528.797 107.59C528.876 107.659 529.157 107.698 529.639 107.708H530.068V108.388H529.935ZM527.437 105.269V100.334L524.201 105.255L525.812 105.269H527.437Z" fill="#D9EBFF"/>
<path d="M419 10.241C419.014 10.1573 419.035 10.0459 419.063 9.90652C419.091 9.76717 419.174 9.50241 419.314 9.11223C419.453 8.72205 419.592 8.39459 419.732 8.12982C419.871 7.86506 420.101 7.60727 420.421 7.35644C420.742 7.10561 421.062 6.98717 421.383 7.0011C421.885 7.0011 422.303 7.12651 422.637 7.37734C422.971 7.62817 423.18 7.86506 423.264 8.08802C423.348 8.31098 423.389 8.45729 423.389 8.52697C423.389 8.55484 423.396 8.56877 423.41 8.56877L423.64 8.33885C424.49 7.44702 425.459 7.0011 426.546 7.0011C427.298 7.0011 427.904 7.18922 428.364 7.56546C428.824 7.9417 429.061 8.49213 429.075 9.21674C429.089 9.94135 428.824 11.0352 428.281 12.4984C427.737 13.9616 427.472 14.8464 427.486 15.153C427.486 15.5153 427.605 15.6964 427.842 15.6964C427.925 15.6964 427.988 15.6895 428.03 15.6755C428.434 15.6059 428.796 15.3411 429.117 14.8813C429.437 14.4214 429.681 13.864 429.848 13.2091C429.876 13.0976 430.016 13.0419 430.266 13.0419C430.545 13.0419 430.684 13.0976 430.684 13.2091C430.684 13.223 430.657 13.3275 430.601 13.5226C430.489 13.9267 430.336 14.3239 430.141 14.714C429.946 15.1042 429.625 15.4944 429.179 15.8846C428.733 16.2747 428.253 16.4629 427.737 16.4489C427.082 16.4489 426.608 16.2608 426.316 15.8846C426.023 15.5083 425.877 15.1182 425.877 14.714C425.877 14.4493 426.128 13.6132 426.629 12.2058C427.131 10.7983 427.389 9.7393 427.403 9.02862C427.403 8.20647 427.096 7.79539 426.483 7.79539H426.379C425.18 7.79539 424.17 8.4991 423.348 9.90652L423.201 10.1573L422.512 12.9583C422.052 14.7837 421.787 15.7661 421.717 15.9055C421.536 16.2817 421.237 16.4698 420.818 16.4698C420.637 16.4698 420.491 16.428 420.38 16.3444C420.268 16.2608 420.191 16.1772 420.15 16.0936C420.108 16.01 420.094 15.9403 420.108 15.8846C420.108 15.7034 420.373 14.5677 420.902 12.4775C421.432 10.3873 421.71 9.25158 421.738 9.07043C421.752 9.00075 421.759 8.8405 421.759 8.58967C421.759 8.04621 421.592 7.77448 421.257 7.77448C420.728 7.77448 420.289 8.47123 419.941 9.86471C419.857 10.1434 419.815 10.2897 419.815 10.3037C419.787 10.3873 419.655 10.4291 419.418 10.4291H419.125C419.042 10.3455 419 10.2828 419 10.241Z" fill="#D9EBFF"/>
<path d="M433.531 17.0675C433.531 17.3039 433.452 17.501 433.295 17.6586C433.137 17.8162 432.945 17.895 432.718 17.895H432.615C433.068 18.6733 433.669 19.0625 434.418 19.0625C435.107 19.0625 435.61 18.7669 435.925 18.1758C436.112 17.8507 436.206 17.2202 436.206 16.2842C436.206 15.2695 436.073 14.5848 435.807 14.2301C435.551 13.905 435.265 13.7424 434.95 13.7424H434.861C434.093 13.7424 433.511 14.0774 433.117 14.7473C433.078 14.8163 433.043 14.8557 433.014 14.8656C432.984 14.8754 432.91 14.8853 432.792 14.8951C432.625 14.8951 432.531 14.8656 432.511 14.8065C432.492 14.767 432.482 13.905 432.482 12.2203V10.314C432.482 9.82137 432.506 9.57507 432.556 9.57507C432.575 9.55537 432.595 9.54551 432.615 9.54551C432.625 9.54551 432.728 9.58492 432.925 9.66374C433.122 9.74255 433.393 9.82137 433.738 9.90018C434.083 9.979 434.452 10.0184 434.846 10.0184C435.546 10.0184 436.216 9.88048 436.856 9.60462C436.935 9.56522 436.999 9.54551 437.048 9.54551C437.127 9.54551 437.166 9.63418 437.166 9.81152V10.0036C436.359 10.9593 435.349 11.4371 434.137 11.4371C433.832 11.4371 433.556 11.4075 433.309 11.3484L433.162 11.3189V13.8607C433.349 13.7227 433.497 13.6144 433.605 13.5356C433.713 13.4567 433.891 13.3779 434.137 13.2991C434.383 13.2203 434.634 13.1809 434.891 13.1809C435.689 13.1809 436.364 13.5011 436.915 14.1414C437.467 14.7818 437.743 15.5404 437.743 16.4172C437.743 17.3236 437.428 18.097 436.797 18.7374C436.166 19.3778 435.398 19.7029 434.492 19.7127C433.694 19.7127 433.053 19.4467 432.571 18.9147C432.088 18.3827 431.846 17.7817 431.846 17.1118C431.846 16.8754 431.901 16.6882 432.009 16.5502C432.117 16.4123 432.231 16.3237 432.349 16.2842C432.467 16.2448 432.58 16.2251 432.689 16.2251C432.935 16.2251 433.137 16.3089 433.295 16.4764C433.452 16.6438 433.531 16.8409 433.531 17.0675Z" fill="#D9EBFF"/>
<path d="M265 7.24095C265.014 7.15734 265.035 7.04587 265.063 6.90652C265.091 6.76717 265.174 6.50241 265.314 6.11223C265.453 5.72205 265.592 5.39459 265.732 5.12982C265.871 4.86506 266.101 4.60727 266.421 4.35644C266.742 4.10561 267.062 3.98717 267.383 4.0011C267.885 4.0011 268.303 4.12651 268.637 4.37734C268.971 4.62817 269.18 4.86506 269.264 5.08802C269.348 5.31098 269.389 5.45729 269.389 5.52697C269.389 5.55484 269.396 5.56877 269.41 5.56877L269.64 5.33885C270.49 4.44702 271.459 4.0011 272.546 4.0011C273.298 4.0011 273.904 4.18922 274.364 4.56546C274.824 4.9417 275.061 5.49213 275.075 6.21674C275.089 6.94135 274.824 8.03524 274.281 9.4984C273.737 10.9616 273.472 11.8464 273.486 12.153C273.486 12.5153 273.605 12.6964 273.842 12.6964C273.925 12.6964 273.988 12.6895 274.03 12.6755C274.434 12.6059 274.796 12.3411 275.117 11.8813C275.437 11.4214 275.681 10.864 275.848 10.2091C275.876 10.0976 276.015 10.0419 276.266 10.0419C276.545 10.0419 276.684 10.0976 276.684 10.2091C276.684 10.223 276.657 10.3275 276.601 10.5226C276.489 10.9267 276.336 11.3239 276.141 11.714C275.946 12.1042 275.625 12.4944 275.179 12.8846C274.733 13.2747 274.253 13.4629 273.737 13.4489C273.082 13.4489 272.608 13.2608 272.316 12.8846C272.023 12.5083 271.877 12.1182 271.877 11.714C271.877 11.4493 272.128 10.6132 272.629 9.20577C273.131 7.79835 273.389 6.7393 273.403 6.02862C273.403 5.20647 273.096 4.79539 272.483 4.79539H272.379C271.18 4.79539 270.17 5.4991 269.348 6.90652L269.201 7.15734L268.512 9.95825C268.052 11.7837 267.787 12.7661 267.717 12.9055C267.536 13.2817 267.237 13.4698 266.818 13.4698C266.637 13.4698 266.491 13.428 266.38 13.3444C266.268 13.2608 266.191 13.1772 266.15 13.0936C266.108 13.01 266.094 12.9403 266.108 12.8846C266.108 12.7034 266.373 11.5677 266.902 9.4775C267.432 7.38727 267.71 6.25158 267.738 6.07043C267.752 6.00075 267.759 5.8405 267.759 5.58967C267.759 5.04621 267.592 4.77448 267.257 4.77448C266.728 4.77448 266.289 5.47123 265.941 6.86471C265.857 7.14341 265.815 7.28973 265.815 7.30366C265.787 7.38727 265.655 7.42907 265.418 7.42907H265.125C265.042 7.34547 265 7.28276 265 7.24095Z" fill="#D9EBFF"/>
<path d="M277.92 9.61932C277.93 9.59962 278.014 9.06268 278.172 8.00853L278.408 6.42729C278.408 6.40759 278.506 6.39773 278.704 6.39773H278.999V6.45685C278.999 6.55537 279.073 6.63911 279.221 6.70807C279.369 6.77703 279.625 6.82137 279.989 6.84107C280.354 6.86078 281.186 6.87063 282.487 6.87063H284.275V7.44697L283.27 8.82131C283.181 8.93954 283.033 9.13657 282.827 9.41243C282.62 9.68828 282.487 9.87054 282.428 9.95921C282.368 10.0479 282.265 10.2055 282.117 10.4321C281.969 10.6587 281.871 10.836 281.822 10.9641C281.772 11.0922 281.703 11.2744 281.615 11.5109C281.526 11.7473 281.462 11.9739 281.423 12.1907C281.383 12.4074 281.344 12.6734 281.304 12.9887C281.265 13.3039 281.235 13.6389 281.216 13.9936C281.196 14.3483 281.181 14.7522 281.171 15.2054C281.171 15.3433 281.171 15.4812 281.171 15.6192C281.171 15.7571 281.166 15.8753 281.157 15.9738V16.1068C281.117 16.2743 281.024 16.4172 280.876 16.5354C280.728 16.6536 280.561 16.7127 280.373 16.7127C280.265 16.7127 280.162 16.6979 280.063 16.6684C279.965 16.6388 279.861 16.5452 279.753 16.3876C279.644 16.23 279.59 16.0329 279.59 15.7965C279.59 14.2399 280.068 12.6242 281.024 10.9493C281.221 10.6341 281.634 10.038 282.265 9.1612L282.945 8.2302H281.57C279.856 8.2302 278.955 8.25975 278.866 8.31886C278.807 8.34842 278.753 8.46664 278.704 8.67353C278.654 8.88042 278.605 9.09224 278.556 9.30898L278.511 9.61932V9.66365H277.92V9.61932Z" fill="#D9EBFF"/>
<path d="M341 84.241C341.014 84.1573 341.035 84.0459 341.063 83.9065C341.091 83.7672 341.174 83.5024 341.314 83.1122C341.453 82.7221 341.592 82.3946 341.732 82.1298C341.871 81.8651 342.101 81.6073 342.421 81.3564C342.742 81.1056 343.062 80.9872 343.383 81.0011C343.885 81.0011 344.303 81.1265 344.637 81.3773C344.971 81.6282 345.18 81.8651 345.264 82.088C345.348 82.311 345.389 82.4573 345.389 82.527C345.389 82.5548 345.396 82.5688 345.41 82.5688L345.64 82.3388C346.49 81.447 347.459 81.0011 348.546 81.0011C349.298 81.0011 349.904 81.1892 350.364 81.5655C350.824 81.9417 351.061 82.4921 351.075 83.2167C351.089 83.9414 350.824 85.0352 350.281 86.4984C349.737 87.9616 349.472 88.8464 349.486 89.153C349.486 89.5153 349.605 89.6964 349.842 89.6964C349.925 89.6964 349.988 89.6895 350.03 89.6755C350.434 89.6059 350.796 89.3411 351.117 88.8813C351.437 88.4214 351.681 87.864 351.848 87.2091C351.876 87.0976 352.016 87.0419 352.266 87.0419C352.545 87.0419 352.684 87.0976 352.684 87.2091C352.684 87.223 352.657 87.3275 352.601 87.5226C352.489 87.9267 352.336 88.3239 352.141 88.714C351.946 89.1042 351.625 89.4944 351.179 89.8846C350.733 90.2747 350.253 90.4629 349.737 90.4489C349.082 90.4489 348.608 90.2608 348.316 89.8846C348.023 89.5083 347.877 89.1182 347.877 88.714C347.877 88.4493 348.128 87.6132 348.629 86.2058C349.131 84.7983 349.389 83.7393 349.403 83.0286C349.403 82.2065 349.096 81.7954 348.483 81.7954H348.379C347.18 81.7954 346.17 82.4991 345.348 83.9065L345.201 84.1573L344.512 86.9583C344.052 88.7837 343.787 89.7661 343.717 89.9055C343.536 90.2817 343.237 90.4698 342.818 90.4698C342.637 90.4698 342.491 90.428 342.38 90.3444C342.268 90.2608 342.191 90.1772 342.15 90.0936C342.108 90.01 342.094 89.9403 342.108 89.8846C342.108 89.7034 342.373 88.5677 342.902 86.4775C343.432 84.3873 343.71 83.2516 343.738 83.0704C343.752 83.0008 343.759 82.8405 343.759 82.5897C343.759 82.0462 343.592 81.7745 343.257 81.7745C342.728 81.7745 342.289 82.4712 341.941 83.8647C341.857 84.1434 341.815 84.2897 341.815 84.3037C341.787 84.3873 341.655 84.4291 341.418 84.4291H341.125C341.042 84.3455 341 84.2828 341 84.241Z" fill="#D9EBFF"/>
<path d="M353.728 88.7621C353.728 87.1563 354.127 85.8853 354.925 84.9494C355.723 84.0135 356.61 83.5455 357.585 83.5455C358.265 83.5455 358.753 83.7228 359.048 84.0775C359.344 84.4322 359.492 84.8263 359.492 85.2598C359.492 85.506 359.423 85.7031 359.285 85.8509C359.147 85.9986 358.955 86.0725 358.708 86.0725C358.482 86.0725 358.295 86.0036 358.147 85.8656C357.999 85.7277 357.925 85.5356 357.925 85.2893C357.925 84.8558 358.157 84.5947 358.62 84.5061C358.403 84.2893 358.098 84.1662 357.703 84.1366C357.004 84.1366 356.428 84.4322 355.974 85.0233C355.511 85.6735 355.28 86.6686 355.28 88.0084L355.295 88.0676C355.344 88.0084 355.383 87.9444 355.413 87.8754C355.817 87.2843 356.344 86.9888 356.994 86.9888H357.053C357.506 86.9888 357.905 87.0824 358.25 87.2695C358.487 87.4075 358.723 87.6045 358.96 87.8607C359.196 88.1168 359.388 88.3976 359.536 88.703C359.743 89.1858 359.846 89.7128 359.846 90.2842V90.5502C359.846 90.7768 359.822 90.9887 359.772 91.1857C359.664 91.767 359.349 92.3334 358.827 92.8852C358.304 93.4369 357.644 93.7127 356.846 93.7127C356.57 93.7127 356.304 93.6733 356.048 93.5945C355.792 93.5157 355.516 93.3679 355.221 93.1512C354.925 92.9344 354.674 92.6438 354.467 92.2793C354.26 91.9147 354.083 91.4369 353.935 90.8458C353.787 90.2547 353.718 89.5601 353.728 88.7621ZM356.905 87.5208C356.61 87.5208 356.354 87.6045 356.137 87.772C355.92 87.9395 355.753 88.1611 355.635 88.437C355.516 88.7129 355.433 88.9936 355.383 89.2793C355.334 89.5651 355.304 89.8705 355.295 90.1956C355.295 91.0133 355.354 91.5995 355.472 91.9541C355.59 92.3088 355.777 92.5945 356.034 92.8113C356.27 92.9886 356.531 93.0773 356.817 93.0773C357.319 93.0773 357.703 92.8901 357.969 92.5157C358.098 92.3384 358.186 92.1167 358.235 91.8507C358.285 91.5847 358.309 91.0675 358.309 90.299C358.309 89.5109 358.285 88.9838 358.235 88.7178C358.186 88.4518 358.098 88.2301 357.969 88.0528C357.703 87.6981 357.349 87.5208 356.905 87.5208Z" fill="#D9EBFF"/>
</svg>
