<svg width="700" height="80" viewBox="0 0 700 80" fill="none" xmlns="http://www.w3.org/2000/svg">
<rect width="700" height="80" fill="#0A0D12"/>
<path d="M350 54L425.5 10.3334H274.5L350 54Z" stroke="#B3BFD8" stroke-width="2"/>
<circle cx="350" cy="54" r="5" fill="black" stroke="#D9EBFF" stroke-width="2"/>
<circle cx="426" cy="10" r="5" fill="black" stroke="#D9EBFF" stroke-width="2"/>
<circle cx="274" cy="10" r="5" fill="black" stroke="#D9EBFF" stroke-width="2"/>
<path d="M418 24.241C418.014 24.1573 418.035 24.0459 418.063 23.9065C418.091 23.7672 418.174 23.5024 418.314 23.1122C418.453 22.7221 418.592 22.3946 418.732 22.1298C418.871 21.8651 419.101 21.6073 419.421 21.3564C419.742 21.1056 420.062 20.9872 420.383 21.0011C420.885 21.0011 421.303 21.1265 421.637 21.3773C421.971 21.6282 422.18 21.8651 422.264 22.088C422.348 22.311 422.389 22.4573 422.389 22.527C422.389 22.5548 422.396 22.5688 422.41 22.5688L422.64 22.3388C423.49 21.447 424.459 21.0011 425.546 21.0011C426.298 21.0011 426.904 21.1892 427.364 21.5655C427.824 21.9417 428.061 22.4921 428.075 23.2167C428.089 23.9414 427.824 25.0352 427.281 26.4984C426.737 27.9616 426.472 28.8464 426.486 29.153C426.486 29.5153 426.605 29.6964 426.842 29.6964C426.925 29.6964 426.988 29.6895 427.03 29.6755C427.434 29.6059 427.796 29.3411 428.117 28.8813C428.437 28.4214 428.681 27.864 428.848 27.2091C428.876 27.0976 429.016 27.0419 429.266 27.0419C429.545 27.0419 429.684 27.0976 429.684 27.2091C429.684 27.223 429.657 27.3275 429.601 27.5226C429.489 27.9267 429.336 28.3239 429.141 28.714C428.946 29.1042 428.625 29.4944 428.179 29.8846C427.733 30.2747 427.253 30.4629 426.737 30.4489C426.082 30.4489 425.608 30.2608 425.316 29.8846C425.023 29.5083 424.877 29.1182 424.877 28.714C424.877 28.4493 425.128 27.6132 425.629 26.2058C426.131 24.7983 426.389 23.7393 426.403 23.0286C426.403 22.2065 426.096 21.7954 425.483 21.7954H425.379C424.18 21.7954 423.17 22.4991 422.348 23.9065L422.201 24.1573L421.512 26.9583C421.052 28.7837 420.787 29.7661 420.717 29.9055C420.536 30.2817 420.237 30.4698 419.818 30.4698C419.637 30.4698 419.491 30.428 419.38 30.3444C419.268 30.2608 419.191 30.1772 419.15 30.0936C419.108 30.01 419.094 29.9403 419.108 29.8846C419.108 29.7034 419.373 28.5677 419.902 26.4775C420.432 24.3873 420.71 23.2516 420.738 23.0704C420.752 23.0008 420.759 22.8405 420.759 22.5897C420.759 22.0462 420.592 21.7745 420.257 21.7745C419.728 21.7745 419.289 22.4712 418.941 23.8647C418.857 24.1434 418.815 24.2897 418.815 24.3037C418.787 24.3873 418.655 24.4291 418.418 24.4291H418.125C418.042 24.3455 418 24.2828 418 24.241Z" fill="#D9EBFF"/>
<path d="M432.531 31.0675C432.531 31.3039 432.452 31.501 432.295 31.6586C432.137 31.8162 431.945 31.895 431.718 31.895H431.615C432.068 32.6733 432.669 33.0625 433.418 33.0625C434.107 33.0625 434.61 32.7669 434.925 32.1758C435.112 31.8507 435.206 31.2202 435.206 30.2842C435.206 29.2695 435.073 28.5848 434.807 28.2301C434.551 27.905 434.265 27.7424 433.95 27.7424H433.861C433.093 27.7424 432.511 28.0774 432.117 28.7473C432.078 28.8163 432.043 28.8557 432.014 28.8656C431.984 28.8754 431.91 28.8853 431.792 28.8951C431.625 28.8951 431.531 28.8656 431.511 28.8065C431.492 28.767 431.482 27.905 431.482 26.2203V24.314C431.482 23.8214 431.506 23.5751 431.556 23.5751C431.575 23.5554 431.595 23.5455 431.615 23.5455C431.625 23.5455 431.728 23.5849 431.925 23.6637C432.122 23.7426 432.393 23.8214 432.738 23.9002C433.083 23.979 433.452 24.0184 433.846 24.0184C434.546 24.0184 435.216 23.8805 435.856 23.6046C435.935 23.5652 435.999 23.5455 436.048 23.5455C436.127 23.5455 436.166 23.6342 436.166 23.8115V24.0036C435.359 24.9593 434.349 25.4371 433.137 25.4371C432.832 25.4371 432.556 25.4075 432.309 25.3484L432.162 25.3189V27.8607C432.349 27.7227 432.497 27.6144 432.605 27.5356C432.713 27.4567 432.891 27.3779 433.137 27.2991C433.383 27.2203 433.634 27.1809 433.891 27.1809C434.689 27.1809 435.364 27.5011 435.915 28.1414C436.467 28.7818 436.743 29.5404 436.743 30.4172C436.743 31.3236 436.428 32.097 435.797 32.7374C435.166 33.3778 434.398 33.7029 433.492 33.7127C432.694 33.7127 432.053 33.4467 431.571 32.9147C431.088 32.3827 430.846 31.7817 430.846 31.1118C430.846 30.8754 430.901 30.6882 431.009 30.5502C431.117 30.4123 431.231 30.3237 431.349 30.2842C431.467 30.2448 431.58 30.2251 431.689 30.2251C431.935 30.2251 432.137 30.3089 432.295 30.4764C432.452 30.6438 432.531 30.8409 432.531 31.0675Z" fill="#D9EBFF"/>
<path d="M264 23.241C264.014 23.1573 264.035 23.0459 264.063 22.9065C264.091 22.7672 264.174 22.5024 264.314 22.1122C264.453 21.7221 264.592 21.3946 264.732 21.1298C264.871 20.8651 265.101 20.6073 265.421 20.3564C265.742 20.1056 266.062 19.9872 266.383 20.0011C266.885 20.0011 267.303 20.1265 267.637 20.3773C267.971 20.6282 268.18 20.8651 268.264 21.088C268.348 21.311 268.389 21.4573 268.389 21.527C268.389 21.5548 268.396 21.5688 268.41 21.5688L268.64 21.3388C269.49 20.447 270.459 20.0011 271.546 20.0011C272.298 20.0011 272.904 20.1892 273.364 20.5655C273.824 20.9417 274.061 21.4921 274.075 22.2167C274.089 22.9414 273.824 24.0352 273.281 25.4984C272.737 26.9616 272.472 27.8464 272.486 28.153C272.486 28.5153 272.605 28.6964 272.842 28.6964C272.925 28.6964 272.988 28.6895 273.03 28.6755C273.434 28.6059 273.796 28.3411 274.117 27.8813C274.437 27.4214 274.681 26.864 274.848 26.2091C274.876 26.0976 275.015 26.0419 275.266 26.0419C275.545 26.0419 275.684 26.0976 275.684 26.2091C275.684 26.223 275.657 26.3275 275.601 26.5226C275.489 26.9267 275.336 27.3239 275.141 27.714C274.946 28.1042 274.625 28.4944 274.179 28.8846C273.733 29.2747 273.253 29.4629 272.737 29.4489C272.082 29.4489 271.608 29.2608 271.316 28.8846C271.023 28.5083 270.877 28.1182 270.877 27.714C270.877 27.4493 271.128 26.6132 271.629 25.2058C272.131 23.7983 272.389 22.7393 272.403 22.0286C272.403 21.2065 272.096 20.7954 271.483 20.7954H271.379C270.18 20.7954 269.17 21.4991 268.348 22.9065L268.201 23.1573L267.512 25.9583C267.052 27.7837 266.787 28.7661 266.717 28.9055C266.536 29.2817 266.237 29.4698 265.818 29.4698C265.637 29.4698 265.491 29.428 265.38 29.3444C265.268 29.2608 265.191 29.1772 265.15 29.0936C265.108 29.01 265.094 28.9403 265.108 28.8846C265.108 28.7034 265.373 27.5677 265.902 25.4775C266.432 23.3873 266.71 22.2516 266.738 22.0704C266.752 22.0008 266.759 21.8405 266.759 21.5897C266.759 21.0462 266.592 20.7745 266.257 20.7745C265.728 20.7745 265.289 21.4712 264.941 22.8647C264.857 23.1434 264.815 23.2897 264.815 23.3037C264.787 23.3873 264.655 23.4291 264.418 23.4291H264.125C264.042 23.3455 264 23.2828 264 23.241Z" fill="#D9EBFF"/>
<path d="M276.92 25.6193C276.93 25.5996 277.014 25.0627 277.172 24.0085L277.408 22.4273C277.408 22.4076 277.506 22.3977 277.704 22.3977H277.999V22.4568C277.999 22.5554 278.073 22.6391 278.221 22.7081C278.369 22.777 278.625 22.8214 278.989 22.8411C279.354 22.8608 280.186 22.8706 281.487 22.8706H283.275V23.447L282.27 24.8213C282.181 24.9395 282.033 25.1366 281.827 25.4124C281.62 25.6883 281.487 25.8705 281.428 25.9592C281.368 26.0479 281.265 26.2055 281.117 26.4321C280.969 26.6587 280.871 26.836 280.822 26.9641C280.772 27.0922 280.703 27.2744 280.615 27.5109C280.526 27.7473 280.462 27.9739 280.423 28.1907C280.383 28.4074 280.344 28.6734 280.304 28.9887C280.265 29.3039 280.235 29.6389 280.216 29.9936C280.196 30.3483 280.181 30.7522 280.171 31.2054C280.171 31.3433 280.171 31.4812 280.171 31.6192C280.171 31.7571 280.166 31.8753 280.157 31.9738V32.1068C280.117 32.2743 280.024 32.4172 279.876 32.5354C279.728 32.6536 279.561 32.7127 279.373 32.7127C279.265 32.7127 279.162 32.6979 279.063 32.6684C278.965 32.6388 278.861 32.5452 278.753 32.3876C278.644 32.23 278.59 32.0329 278.59 31.7965C278.59 30.2399 279.068 28.6242 280.024 26.9493C280.221 26.6341 280.634 26.038 281.265 25.1612L281.945 24.2302H280.57C278.856 24.2302 277.955 24.2598 277.866 24.3189C277.807 24.3484 277.753 24.4666 277.704 24.6735C277.654 24.8804 277.605 25.0922 277.556 25.309L277.511 25.6193V25.6637H276.92V25.6193Z" fill="#D9EBFF"/>
<path d="M340 66.241C340.014 66.1573 340.035 66.0459 340.063 65.9065C340.091 65.7672 340.174 65.5024 340.314 65.1122C340.453 64.7221 340.592 64.3946 340.732 64.1298C340.871 63.8651 341.101 63.6073 341.421 63.3564C341.742 63.1056 342.062 62.9872 342.383 63.0011C342.885 63.0011 343.303 63.1265 343.637 63.3773C343.971 63.6282 344.18 63.8651 344.264 64.088C344.348 64.311 344.389 64.4573 344.389 64.527C344.389 64.5548 344.396 64.5688 344.41 64.5688L344.64 64.3388C345.49 63.447 346.459 63.0011 347.546 63.0011C348.298 63.0011 348.904 63.1892 349.364 63.5655C349.824 63.9417 350.061 64.4921 350.075 65.2167C350.089 65.9414 349.824 67.0352 349.281 68.4984C348.737 69.9616 348.472 70.8464 348.486 71.153C348.486 71.5153 348.605 71.6964 348.842 71.6964C348.925 71.6964 348.988 71.6895 349.03 71.6755C349.434 71.6059 349.796 71.3411 350.117 70.8813C350.437 70.4214 350.681 69.864 350.848 69.2091C350.876 69.0976 351.016 69.0419 351.266 69.0419C351.545 69.0419 351.684 69.0976 351.684 69.2091C351.684 69.223 351.657 69.3275 351.601 69.5226C351.489 69.9267 351.336 70.3239 351.141 70.714C350.946 71.1042 350.625 71.4944 350.179 71.8846C349.733 72.2747 349.253 72.4629 348.737 72.4489C348.082 72.4489 347.608 72.2608 347.316 71.8846C347.023 71.5083 346.877 71.1182 346.877 70.714C346.877 70.4493 347.128 69.6132 347.629 68.2058C348.131 66.7983 348.389 65.7393 348.403 65.0286C348.403 64.2065 348.096 63.7954 347.483 63.7954H347.379C346.18 63.7954 345.17 64.4991 344.348 65.9065L344.201 66.1573L343.512 68.9583C343.052 70.7837 342.787 71.7661 342.717 71.9055C342.536 72.2817 342.237 72.4698 341.818 72.4698C341.637 72.4698 341.491 72.428 341.38 72.3444C341.268 72.2608 341.191 72.1772 341.15 72.0936C341.108 72.01 341.094 71.9403 341.108 71.8846C341.108 71.7034 341.373 70.5677 341.902 68.4775C342.432 66.3873 342.71 65.2516 342.738 65.0704C342.752 65.0008 342.759 64.8405 342.759 64.5897C342.759 64.0462 342.592 63.7745 342.257 63.7745C341.728 63.7745 341.289 64.4712 340.941 65.8647C340.857 66.1434 340.815 66.2897 340.815 66.3037C340.787 66.3873 340.655 66.4291 340.418 66.4291H340.125C340.042 66.3455 340 66.2828 340 66.241Z" fill="#D9EBFF"/>
<path d="M352.728 70.7621C352.728 69.1563 353.127 67.8853 353.925 66.9494C354.723 66.0135 355.61 65.5455 356.585 65.5455C357.265 65.5455 357.753 65.7228 358.048 66.0775C358.344 66.4322 358.492 66.8263 358.492 67.2598C358.492 67.506 358.423 67.7031 358.285 67.8509C358.147 67.9986 357.955 68.0725 357.708 68.0725C357.482 68.0725 357.295 68.0036 357.147 67.8656C356.999 67.7277 356.925 67.5356 356.925 67.2893C356.925 66.8558 357.157 66.5947 357.62 66.5061C357.403 66.2893 357.098 66.1662 356.703 66.1366C356.004 66.1366 355.428 66.4322 354.974 67.0233C354.511 67.6735 354.28 68.6686 354.28 70.0084L354.295 70.0676C354.344 70.0084 354.383 69.9444 354.413 69.8754C354.817 69.2843 355.344 68.9888 355.994 68.9888H356.053C356.506 68.9888 356.905 69.0824 357.25 69.2695C357.487 69.4075 357.723 69.6045 357.96 69.8607C358.196 70.1168 358.388 70.3976 358.536 70.703C358.743 71.1858 358.846 71.7128 358.846 72.2842V72.5502C358.846 72.7768 358.822 72.9887 358.772 73.1857C358.664 73.767 358.349 74.3334 357.827 74.8852C357.304 75.4369 356.644 75.7127 355.846 75.7127C355.57 75.7127 355.304 75.6733 355.048 75.5945C354.792 75.5157 354.516 75.3679 354.221 75.1512C353.925 74.9344 353.674 74.6438 353.467 74.2793C353.26 73.9147 353.083 73.4369 352.935 72.8458C352.787 72.2547 352.718 71.5601 352.728 70.7621ZM355.905 69.5208C355.61 69.5208 355.354 69.6045 355.137 69.772C354.92 69.9395 354.753 70.1611 354.635 70.437C354.516 70.7129 354.433 70.9936 354.383 71.2793C354.334 71.5651 354.304 71.8705 354.295 72.1956C354.295 73.0133 354.354 73.5995 354.472 73.9541C354.59 74.3088 354.777 74.5945 355.034 74.8113C355.27 74.9886 355.531 75.0773 355.817 75.0773C356.319 75.0773 356.703 74.8901 356.969 74.5157C357.098 74.3384 357.186 74.1167 357.235 73.8507C357.285 73.5847 357.309 73.0675 357.309 72.299C357.309 71.5109 357.285 70.9838 357.235 70.7178C357.186 70.4518 357.098 70.2301 356.969 70.0528C356.703 69.6981 356.349 69.5208 355.905 69.5208Z" fill="#D9EBFF"/>
</svg>
