<svg width="700" height="294" viewBox="0 0 700 294" fill="none" xmlns="http://www.w3.org/2000/svg">
<rect width="700" height="294" fill="#0A0D12"/>
<path d="M350 239.667L274.5 196H425.5L350 239.667Z" stroke="#B3BFD8" stroke-width="2"/>
<circle cx="425" cy="196" r="5" fill="black" stroke="#D9EBFF" stroke-width="2"/>
<circle cx="350" cy="240" r="5" fill="black" stroke="#D9EBFF" stroke-width="2"/>
<circle cx="275" cy="196" r="5" fill="black" stroke="#D9EBFF" stroke-width="2"/>
<path d="M350 53.6667L274.5 10H425.5L350 53.6667Z" stroke="#B3BFD8" stroke-width="2"/>
<circle cx="425" cy="10" r="5" fill="black" stroke="#D9EBFF" stroke-width="2"/>
<circle cx="350" cy="54" r="5" fill="black" stroke="#D9EBFF" stroke-width="2"/>
<circle cx="275" cy="10" r="5" fill="black" stroke="#D9EBFF" stroke-width="2"/>
<path d="M350 71.6667L425.5 28L501 103.667L425.5 179.333H274.5L199 103.667L274.5 28L350 71.6667Z" stroke="#B3BFD8" stroke-width="2"/>
<circle cx="200" cy="104" r="5" fill="black" stroke="#D9EBFF" stroke-width="2"/>
<circle cx="275" cy="28" r="5" fill="black" stroke="#D9EBFF" stroke-width="2"/>
<circle cx="425" cy="28" r="5" fill="black" stroke="#D9EBFF" stroke-width="2"/>
<circle cx="350" cy="72" r="5" fill="black" stroke="#D9EBFF" stroke-width="2"/>
<circle cx="426" cy="179" r="5" fill="black" stroke="#D9EBFF" stroke-width="2"/>
<circle cx="274" cy="179" r="5" fill="black" stroke="#D9EBFF" stroke-width="2"/>
<circle cx="501" cy="104" r="5" fill="black" stroke="#D9EBFF" stroke-width="2"/>
<path d="M85.7412 272.352C85.7412 270.834 86.3404 269.468 87.5387 268.256C88.737 267.044 90.0328 266.437 91.4262 266.437C92.2065 266.437 92.8196 266.605 93.2655 266.939C93.7114 267.273 93.9413 267.712 93.9552 268.256C93.9552 268.66 93.8229 269.001 93.5581 269.28C93.2934 269.559 92.959 269.705 92.5549 269.719C92.2901 269.719 92.0811 269.649 91.9278 269.51C91.7746 269.371 91.6979 269.162 91.6979 268.883C91.6979 268.604 91.7746 268.367 91.9278 268.172C92.0811 267.977 92.2344 267.831 92.3877 267.733C92.5409 267.636 92.6385 267.594 92.6803 267.608H92.7012C92.7012 267.58 92.6594 267.538 92.5758 267.482C92.4922 267.427 92.3459 267.371 92.1369 267.315C91.9278 267.26 91.691 267.232 91.4262 267.232C91.0082 267.232 90.6111 267.329 90.2349 267.524C89.9423 267.65 89.6427 267.866 89.3361 268.172C88.7231 268.785 88.2772 269.649 87.9985 270.764C87.7198 271.879 87.5735 272.687 87.5596 273.188C87.5596 273.829 87.7407 274.31 88.103 274.631C88.4095 274.965 88.8136 275.132 89.3152 275.132H89.3989C90.9594 275.132 92.2483 274.54 93.2655 273.356C93.3909 273.216 93.4745 273.147 93.5163 273.147C93.572 273.147 93.6626 273.209 93.788 273.335C93.9134 273.46 93.9831 273.558 93.997 273.627C94.011 273.697 93.9483 273.801 93.8089 273.941C93.6696 274.08 93.4675 274.275 93.2028 274.526C92.9381 274.777 92.6245 274.986 92.2623 275.153C91.9 275.32 91.4541 275.494 90.9246 275.676C90.3951 275.857 89.8378 275.933 89.2525 275.906C88.2075 275.906 87.3645 275.571 86.7235 274.902C86.0826 274.233 85.7551 273.383 85.7412 272.352Z" fill="#D9EBFF"/>
<path d="M94.5195 269.677C94.5195 269.482 94.6241 269.148 94.8331 268.674C95.0421 268.2 95.3765 267.705 95.8363 267.19C96.2961 266.674 96.8117 266.424 97.383 266.437C97.9542 266.437 98.4141 266.598 98.7624 266.918C99.1108 267.239 99.2919 267.685 99.3058 268.256C99.278 268.521 99.2571 268.667 99.2431 268.695C99.2431 268.737 99.1317 269.057 98.9087 269.656C98.6858 270.255 98.4559 270.931 98.219 271.684C97.9821 272.436 97.8706 273.035 97.8846 273.481C97.8846 274.08 97.9821 274.498 98.1772 274.735C98.3723 274.972 98.6649 275.097 99.055 275.111C99.3755 275.111 99.6751 275.035 99.9538 274.881C100.232 274.728 100.448 274.568 100.602 274.401C100.755 274.233 100.943 274.004 101.166 273.711C101.166 273.697 101.201 273.558 101.271 273.293C101.34 273.028 101.438 272.617 101.563 272.06C101.689 271.502 101.821 270.987 101.96 270.513C102.49 268.423 102.782 267.329 102.838 267.232C103.019 266.855 103.319 266.667 103.737 266.667C103.918 266.667 104.064 266.716 104.176 266.814C104.287 266.911 104.364 266.995 104.406 267.064C104.447 267.134 104.461 267.197 104.447 267.253C104.447 267.434 104.106 268.897 103.423 271.642C102.741 274.387 102.35 275.892 102.253 276.156C101.863 277.313 101.187 278.232 100.225 278.915C99.264 279.598 98.3026 279.946 97.3412 279.96C96.7141 279.96 96.1637 279.807 95.69 279.5C95.2162 279.194 94.9794 278.734 94.9794 278.121C94.9794 277.814 95.0281 277.557 95.1257 277.348C95.2232 277.139 95.3556 276.985 95.5228 276.888C95.69 276.79 95.8293 276.721 95.9408 276.679C96.0523 276.637 96.1707 276.616 96.2961 276.616C96.9092 276.616 97.2157 276.909 97.2157 277.494C97.2157 277.773 97.1321 278.016 96.9649 278.225C96.7977 278.435 96.6375 278.574 96.4842 278.644C96.3309 278.713 96.2404 278.748 96.2125 278.748L96.1498 278.769C96.1777 278.839 96.31 278.922 96.5469 279.02C96.7838 279.117 97.0207 279.166 97.2576 279.166H97.4248C97.6616 279.166 97.8428 279.152 97.9682 279.124C98.428 278.999 98.853 278.734 99.2431 278.33C99.6333 277.926 99.9329 277.494 100.142 277.034C100.351 276.574 100.511 276.184 100.623 275.864C100.734 275.543 100.79 275.334 100.79 275.237L100.664 275.32C100.581 275.376 100.448 275.453 100.267 275.55C100.086 275.648 99.905 275.731 99.7238 275.801C99.4452 275.871 99.1735 275.906 98.9087 275.906C98.2678 275.906 97.7034 275.752 97.2157 275.446C96.7281 275.139 96.4076 274.644 96.2543 273.962C96.2404 273.864 96.2334 273.648 96.2334 273.314C96.2334 272.52 96.4773 271.482 96.9649 270.2C97.4526 268.918 97.6965 268.103 97.6965 267.754C97.6965 267.74 97.6965 267.726 97.6965 267.712C97.6965 267.587 97.6965 267.503 97.6965 267.462C97.6965 267.42 97.6686 267.371 97.6129 267.315C97.5571 267.26 97.4805 267.232 97.383 267.232H97.2994C96.9789 267.232 96.6863 267.364 96.4215 267.629C96.1568 267.894 95.9478 268.179 95.7945 268.486C95.6412 268.792 95.5228 269.085 95.4392 269.364C95.3556 269.642 95.2998 269.796 95.272 269.823C95.2441 269.851 95.1326 269.865 94.9376 269.865H94.645C94.5613 269.782 94.5195 269.719 94.5195 269.677Z" fill="#D9EBFF"/>
<path d="M105.2 272.352C105.2 270.834 105.799 269.468 106.997 268.256C108.196 267.044 109.491 266.437 110.885 266.437C111.665 266.437 112.278 266.605 112.724 266.939C113.17 267.273 113.4 267.712 113.414 268.256C113.414 268.66 113.282 269.001 113.017 269.28C112.752 269.559 112.418 269.705 112.014 269.719C111.749 269.719 111.54 269.649 111.386 269.51C111.233 269.371 111.157 269.162 111.157 268.883C111.157 268.604 111.233 268.367 111.386 268.172C111.54 267.977 111.693 267.831 111.846 267.733C112 267.636 112.097 267.594 112.139 267.608H112.16C112.16 267.58 112.118 267.538 112.034 267.482C111.951 267.427 111.805 267.371 111.596 267.315C111.386 267.26 111.15 267.232 110.885 267.232C110.467 267.232 110.07 267.329 109.694 267.524C109.401 267.65 109.101 267.866 108.795 268.172C108.182 268.785 107.736 269.649 107.457 270.764C107.178 271.879 107.032 272.687 107.018 273.188C107.018 273.829 107.199 274.31 107.562 274.631C107.868 274.965 108.272 275.132 108.774 275.132H108.857C110.418 275.132 111.707 274.54 112.724 273.356C112.85 273.216 112.933 273.147 112.975 273.147C113.031 273.147 113.121 273.209 113.247 273.335C113.372 273.46 113.442 273.558 113.456 273.627C113.47 273.697 113.407 273.801 113.268 273.941C113.128 274.08 112.926 274.275 112.661 274.526C112.397 274.777 112.083 274.986 111.721 275.153C111.359 275.32 110.913 275.494 110.383 275.676C109.854 275.857 109.296 275.933 108.711 275.906C107.666 275.906 106.823 275.571 106.182 274.902C105.541 274.233 105.214 273.383 105.2 272.352Z" fill="#D9EBFF"/>
<path d="M115.985 274.442C115.985 274.902 116.159 275.132 116.507 275.132C117.023 275.132 117.462 274.401 117.824 272.938C117.908 272.659 117.977 272.513 118.033 272.499C118.061 272.485 118.13 272.478 118.242 272.478H118.326C118.451 272.478 118.535 272.478 118.576 272.478C118.618 272.478 118.653 272.492 118.681 272.52C118.709 272.547 118.723 272.596 118.723 272.666C118.709 272.749 118.688 272.861 118.66 273C118.632 273.14 118.555 273.404 118.43 273.795C118.305 274.185 118.165 274.512 118.012 274.777C117.859 275.042 117.643 275.299 117.364 275.55C117.085 275.801 116.765 275.919 116.403 275.906C115.901 275.906 115.434 275.752 115.002 275.446C114.57 275.139 114.347 274.624 114.334 273.899C114.334 273.732 114.34 273.613 114.354 273.544L115.713 268.151C116.591 264.598 117.03 262.766 117.03 262.654C117.03 262.613 117.023 262.578 117.009 262.55C116.995 262.522 116.967 262.494 116.925 262.466C116.883 262.438 116.849 262.424 116.821 262.424C116.793 262.424 116.737 262.418 116.653 262.404C116.57 262.39 116.514 262.383 116.486 262.383C116.458 262.383 116.396 262.376 116.298 262.362C116.201 262.348 116.131 262.348 116.089 262.362C115.95 262.362 115.859 262.362 115.817 262.362C115.776 262.362 115.72 262.355 115.65 262.341C115.581 262.327 115.539 262.306 115.525 262.278C115.511 262.25 115.504 262.209 115.504 262.153C115.504 262.125 115.518 262.027 115.546 261.86C115.615 261.595 115.692 261.449 115.776 261.421C115.859 261.393 116.361 261.352 117.281 261.296C117.49 261.282 117.726 261.268 117.991 261.254C118.256 261.24 118.465 261.219 118.618 261.191C118.771 261.163 118.848 261.157 118.848 261.17C119.015 261.17 119.099 261.226 119.099 261.338C119.099 261.491 118.59 263.581 117.573 267.608C116.556 271.635 116.033 273.746 116.006 273.941C116.006 273.969 116.006 274.024 116.006 274.108C116.006 274.192 115.999 274.261 115.985 274.317V274.442Z" fill="#D9EBFF"/>
<path d="M120.604 272.164C120.604 271.37 120.736 270.645 121.001 269.991C121.266 269.336 121.607 268.792 122.025 268.36C122.443 267.928 122.91 267.566 123.425 267.273C123.941 266.981 124.429 266.765 124.888 266.626C125.348 266.486 125.787 266.424 126.205 266.437H126.268C126.895 266.437 127.438 266.591 127.898 266.897C128.358 267.204 128.588 267.657 128.588 268.256C128.588 269.51 127.815 270.332 126.268 270.722C125.585 270.903 124.652 271.001 123.467 271.015C122.952 271.015 122.687 271.029 122.673 271.057C122.673 271.084 122.631 271.328 122.548 271.788C122.464 272.248 122.415 272.652 122.401 273C122.401 273.655 122.548 274.171 122.84 274.547C123.133 274.923 123.572 275.118 124.157 275.132C124.742 275.146 125.39 275.014 126.101 274.735C126.811 274.456 127.452 273.997 128.024 273.356C128.149 273.216 128.233 273.147 128.274 273.147C128.33 273.147 128.421 273.209 128.546 273.335C128.671 273.46 128.741 273.558 128.755 273.627C128.769 273.697 128.706 273.808 128.567 273.962C128.428 274.115 128.219 274.303 127.94 274.526C127.661 274.749 127.341 274.965 126.978 275.174C126.616 275.383 126.177 275.557 125.662 275.697C125.146 275.836 124.617 275.906 124.073 275.906C122.973 275.906 122.123 275.536 121.523 274.798C120.924 274.059 120.618 273.181 120.604 272.164ZM127.585 268.298C127.501 267.573 127.027 267.211 126.163 267.211C125.704 267.211 125.279 267.308 124.888 267.503C124.498 267.698 124.185 267.935 123.948 268.214C123.711 268.493 123.509 268.778 123.342 269.071C123.175 269.364 123.063 269.614 123.007 269.823C122.952 270.032 122.917 270.165 122.903 270.22C122.903 270.234 123.042 270.241 123.321 270.241C124.895 270.241 125.996 270.074 126.623 269.74C127.25 269.405 127.571 268.925 127.585 268.298Z" fill="#D9EBFF"/>
<path d="M132.266 269.635C132.266 269.189 132.378 268.737 132.601 268.277C132.824 267.817 133.214 267.392 133.771 267.002C134.329 266.612 135.004 266.424 135.799 266.437C136.663 266.437 137.29 266.626 137.68 267.002C138.07 267.378 138.272 267.796 138.286 268.256C138.286 268.702 138.167 269.029 137.931 269.238C137.694 269.447 137.429 269.559 137.136 269.573C136.955 269.573 136.788 269.517 136.635 269.405C136.481 269.294 136.398 269.113 136.384 268.862C136.384 268.639 136.447 268.444 136.572 268.277C136.697 268.11 136.816 267.984 136.927 267.901C137.039 267.817 137.129 267.775 137.199 267.775C137.213 267.775 137.22 267.768 137.22 267.754C137.22 267.712 137.171 267.65 137.074 267.566C136.976 267.482 136.802 267.406 136.551 267.336C136.3 267.267 136.029 267.225 135.736 267.211C135.067 267.211 134.579 267.392 134.273 267.754C133.966 268.116 133.806 268.486 133.792 268.862C133.792 269.21 133.925 269.454 134.189 269.593C134.454 269.733 134.837 269.851 135.339 269.949C135.84 270.046 136.203 270.151 136.426 270.262C137.345 270.666 137.805 271.335 137.805 272.269C137.805 272.659 137.728 273.049 137.575 273.439C137.422 273.829 137.192 274.22 136.885 274.61C136.579 275 136.14 275.306 135.569 275.529C134.997 275.752 134.343 275.871 133.604 275.885C132.531 275.885 131.772 275.683 131.326 275.278C130.88 274.874 130.65 274.401 130.636 273.857C130.636 273.314 130.782 272.924 131.075 272.687C131.368 272.45 131.674 272.331 131.995 272.331C132.204 272.331 132.399 272.394 132.58 272.52C132.761 272.645 132.859 272.861 132.873 273.168C132.873 273.53 132.747 273.836 132.496 274.087C132.245 274.338 132.03 274.463 131.848 274.463C131.821 274.477 131.8 274.484 131.786 274.484C131.772 274.484 131.765 274.498 131.765 274.526C131.779 274.568 131.834 274.624 131.932 274.693C132.03 274.763 132.245 274.854 132.58 274.965C132.914 275.076 133.298 275.125 133.729 275.111C134.231 275.111 134.663 275.035 135.025 274.881C135.388 274.728 135.652 274.533 135.82 274.296C135.987 274.059 136.105 273.843 136.175 273.648C136.245 273.453 136.279 273.279 136.279 273.126C136.279 272.736 136.133 272.443 135.84 272.248C135.548 272.053 135.213 271.934 134.837 271.893C134.461 271.851 134.05 271.746 133.604 271.579C133.158 271.412 132.831 271.168 132.622 270.848C132.385 270.499 132.266 270.095 132.266 269.635Z" fill="#D9EBFF"/>
<path d="M146.312 268.423C146.312 268.242 146.409 268.103 146.604 268.005H159.918C160.127 268.116 160.232 268.256 160.232 268.423C160.232 268.576 160.134 268.709 159.939 268.82L153.293 268.841H146.646C146.423 268.771 146.312 268.632 146.312 268.423ZM146.312 272.478C146.312 272.269 146.423 272.129 146.646 272.06H159.939C160.134 272.199 160.232 272.338 160.232 272.478C160.232 272.659 160.127 272.798 159.918 272.896H146.604C146.409 272.798 146.312 272.659 146.312 272.478Z" fill="#D9EBFF"/>
<path d="M169.198 270.45C169.198 269.489 169.268 268.576 169.407 267.712C169.546 266.848 169.707 266.103 169.888 265.476C170.069 264.849 170.327 264.236 170.661 263.637C170.996 263.038 171.26 262.571 171.455 262.236C171.65 261.902 171.943 261.54 172.333 261.15C172.723 260.759 172.953 260.523 173.023 260.439C173.093 260.355 173.267 260.209 173.545 260H173.901C174.096 260 174.193 260.063 174.193 260.188C174.193 260.23 174.075 260.376 173.838 260.627C173.601 260.878 173.316 261.247 172.981 261.735C172.647 262.222 172.305 262.822 171.957 263.532C171.609 264.243 171.316 265.204 171.079 266.417C170.842 267.629 170.724 268.973 170.724 270.45C170.724 271.927 170.842 273.265 171.079 274.463C171.316 275.662 171.602 276.63 171.936 277.369C172.271 278.107 172.612 278.706 172.96 279.166C173.309 279.626 173.601 279.995 173.838 280.274C174.075 280.552 174.193 280.699 174.193 280.713C174.193 280.838 174.089 280.901 173.88 280.901H173.545L172.96 280.399C171.65 279.215 170.696 277.738 170.097 275.968C169.498 274.199 169.198 272.359 169.198 270.45Z" fill="#D9EBFF"/>
<path d="M175.803 269.677C175.817 269.593 175.838 269.482 175.865 269.343C175.893 269.203 175.977 268.939 176.116 268.548C176.256 268.158 176.395 267.831 176.534 267.566C176.674 267.301 176.904 267.044 177.224 266.793C177.545 266.542 177.865 266.424 178.185 266.437C178.687 266.437 179.105 266.563 179.44 266.814C179.774 267.064 179.983 267.301 180.067 267.524C180.15 267.747 180.192 267.894 180.192 267.963C180.192 267.991 180.199 268.005 180.213 268.005L180.443 267.775C181.293 266.883 182.261 266.437 183.348 266.437C184.1 266.437 184.707 266.626 185.166 267.002C185.626 267.378 185.863 267.928 185.877 268.653C185.891 269.377 185.626 270.471 185.083 271.934C184.539 273.397 184.275 274.282 184.288 274.589C184.288 274.951 184.407 275.132 184.644 275.132C184.727 275.132 184.79 275.125 184.832 275.111C185.236 275.042 185.598 274.777 185.919 274.317C186.239 273.857 186.483 273.3 186.65 272.645C186.678 272.534 186.817 272.478 187.068 272.478C187.347 272.478 187.486 272.534 187.486 272.645C187.486 272.659 187.458 272.763 187.403 272.958C187.291 273.363 187.138 273.76 186.943 274.15C186.748 274.54 186.427 274.93 185.981 275.32C185.536 275.71 185.055 275.899 184.539 275.885C183.884 275.885 183.411 275.697 183.118 275.32C182.825 274.944 182.679 274.554 182.679 274.15C182.679 273.885 182.93 273.049 183.432 271.642C183.933 270.234 184.191 269.175 184.205 268.465C184.205 267.643 183.898 267.232 183.285 267.232H183.181C181.982 267.232 180.972 267.935 180.15 269.343L180.004 269.593L179.314 272.394C178.854 274.22 178.59 275.202 178.52 275.341C178.339 275.717 178.039 275.906 177.621 275.906C177.44 275.906 177.294 275.864 177.182 275.78C177.071 275.697 176.994 275.613 176.952 275.529C176.911 275.446 176.897 275.376 176.911 275.32C176.911 275.139 177.175 274.004 177.705 271.913C178.234 269.823 178.513 268.688 178.541 268.507C178.555 268.437 178.562 268.277 178.562 268.026C178.562 267.482 178.394 267.211 178.06 267.211C177.531 267.211 177.092 267.907 176.743 269.301C176.66 269.58 176.618 269.726 176.618 269.74C176.59 269.823 176.458 269.865 176.221 269.865H175.928C175.845 269.782 175.803 269.719 175.803 269.677Z" fill="#D9EBFF"/>
<path d="M189.328 270.179C189.88 269.381 190.633 268.982 191.589 268.982C192.062 268.982 192.535 269.11 193.007 269.366C193.48 269.622 193.864 270.075 194.16 270.725C194.525 271.543 194.707 272.666 194.707 274.094C194.707 275.621 194.495 276.789 194.071 277.597C193.874 278.01 193.603 278.34 193.259 278.587C192.914 278.833 192.613 278.986 192.357 279.045C192.101 279.104 191.85 279.138 191.604 279.148C191.347 279.148 191.091 279.119 190.835 279.06C190.579 279 190.279 278.843 189.934 278.587C189.589 278.331 189.318 278 189.121 277.597C188.698 276.789 188.486 275.621 188.486 274.094C188.486 272.38 188.766 271.075 189.328 270.179ZM192.653 270.001C192.357 269.686 192.008 269.528 191.604 269.528C191.19 269.528 190.835 269.686 190.54 270.001C190.293 270.257 190.131 270.612 190.052 271.065C189.973 271.518 189.934 272.464 189.934 273.902C189.934 275.459 189.973 276.483 190.052 276.976C190.131 277.469 190.308 277.858 190.584 278.143C190.86 278.439 191.2 278.587 191.604 278.587C191.998 278.587 192.333 278.439 192.608 278.143C192.894 277.848 193.071 277.434 193.14 276.902C193.209 276.37 193.249 275.37 193.259 273.902C193.259 272.474 193.219 271.533 193.14 271.08C193.062 270.627 192.899 270.267 192.653 270.001Z" fill="#D9EBFF"/>
<path d="M199.024 274.944C199.024 274.944 199.024 274.77 199.024 274.422C199.024 274.073 199.135 273.774 199.358 273.523C199.581 273.272 199.88 273.147 200.257 273.147C200.647 273.147 200.995 273.321 201.302 273.669C201.608 274.017 201.769 274.631 201.782 275.508C201.782 275.996 201.72 276.47 201.594 276.93C201.469 277.389 201.323 277.787 201.155 278.121C200.988 278.455 200.807 278.741 200.612 278.978C200.417 279.215 200.25 279.403 200.11 279.542C199.971 279.682 199.88 279.744 199.839 279.73C199.783 279.73 199.692 279.668 199.567 279.542C199.442 279.417 199.379 279.326 199.379 279.271C199.379 279.215 199.455 279.103 199.609 278.936C199.762 278.769 199.936 278.56 200.131 278.309C200.326 278.058 200.508 277.71 200.675 277.264C200.842 276.818 200.953 276.31 201.009 275.738V275.487L200.988 275.508C200.96 275.522 200.926 275.536 200.884 275.55C200.842 275.564 200.8 275.585 200.758 275.613C200.717 275.641 200.654 275.655 200.57 275.655C200.487 275.655 200.403 275.662 200.319 275.676C199.943 275.676 199.637 275.557 199.4 275.32L199.024 274.944Z" fill="#D9EBFF"/>
<path d="M207.154 269.677C207.168 269.593 207.189 269.482 207.217 269.343C207.245 269.203 207.328 268.939 207.467 268.548C207.607 268.158 207.746 267.831 207.885 267.566C208.025 267.301 208.255 267.044 208.575 266.793C208.896 266.542 209.216 266.424 209.537 266.437C210.038 266.437 210.456 266.563 210.791 266.814C211.125 267.064 211.334 267.301 211.418 267.524C211.501 267.747 211.543 267.894 211.543 267.963C211.543 267.991 211.55 268.005 211.564 268.005L211.794 267.775C212.644 266.883 213.612 266.437 214.699 266.437C215.452 266.437 216.058 266.626 216.518 267.002C216.977 267.378 217.214 267.928 217.228 268.653C217.242 269.377 216.977 270.471 216.434 271.934C215.891 273.397 215.626 274.282 215.64 274.589C215.64 274.951 215.758 275.132 215.995 275.132C216.079 275.132 216.141 275.125 216.183 275.111C216.587 275.042 216.949 274.777 217.27 274.317C217.59 273.857 217.834 273.3 218.001 272.645C218.029 272.534 218.169 272.478 218.419 272.478C218.698 272.478 218.838 272.534 218.838 272.645C218.838 272.659 218.81 272.763 218.754 272.958C218.642 273.363 218.489 273.76 218.294 274.15C218.099 274.54 217.779 274.93 217.333 275.32C216.887 275.71 216.406 275.899 215.891 275.885C215.236 275.885 214.762 275.697 214.469 275.32C214.177 274.944 214.03 274.554 214.03 274.15C214.03 273.885 214.281 273.049 214.783 271.642C215.284 270.234 215.542 269.175 215.556 268.465C215.556 267.643 215.25 267.232 214.636 267.232H214.532C213.334 267.232 212.323 267.935 211.501 269.343L211.355 269.593L210.665 272.394C210.205 274.22 209.941 275.202 209.871 275.341C209.69 275.717 209.39 275.906 208.972 275.906C208.791 275.906 208.645 275.864 208.533 275.78C208.422 275.697 208.345 275.613 208.304 275.529C208.262 275.446 208.248 275.376 208.262 275.32C208.262 275.139 208.526 274.004 209.056 271.913C209.585 269.823 209.864 268.688 209.892 268.507C209.906 268.437 209.913 268.277 209.913 268.026C209.913 267.482 209.746 267.211 209.411 267.211C208.882 267.211 208.443 267.907 208.095 269.301C208.011 269.58 207.969 269.726 207.969 269.74C207.941 269.823 207.809 269.865 207.572 269.865H207.279C207.196 269.782 207.154 269.719 207.154 269.677Z" fill="#D9EBFF"/>
<path d="M222.408 270.282L222.216 270.356C222.078 270.405 221.881 270.454 221.625 270.504C221.369 270.553 221.083 270.587 220.768 270.607H220.487V269.927H220.768C221.231 269.908 221.659 269.834 222.053 269.706C222.447 269.578 222.723 269.459 222.881 269.351C223.039 269.243 223.176 269.134 223.295 269.026C223.314 268.996 223.374 268.982 223.472 268.982C223.561 268.982 223.644 269.011 223.723 269.07V273.489L223.738 277.922C223.807 277.991 223.866 278.035 223.915 278.055C223.965 278.074 224.083 278.094 224.27 278.114C224.457 278.133 224.763 278.143 225.186 278.143H225.57V278.823H225.408C225.201 278.794 224.418 278.779 223.058 278.779C221.718 278.779 220.945 278.794 220.738 278.823H220.561V278.143H220.945C221.162 278.143 221.349 278.143 221.507 278.143C221.664 278.143 221.787 278.138 221.876 278.129C221.965 278.119 222.044 278.104 222.113 278.084C222.182 278.065 222.221 278.055 222.231 278.055C222.241 278.055 222.27 278.03 222.319 277.981C222.369 277.932 222.398 277.912 222.408 277.922V270.282Z" fill="#D9EBFF"/>
<path d="M230.375 274.944C230.375 274.944 230.375 274.77 230.375 274.422C230.375 274.073 230.486 273.774 230.709 273.523C230.932 273.272 231.232 273.147 231.608 273.147C231.998 273.147 232.346 273.321 232.653 273.669C232.959 274.017 233.12 274.631 233.134 275.508C233.134 275.996 233.071 276.47 232.946 276.93C232.82 277.389 232.674 277.787 232.507 278.121C232.339 278.455 232.158 278.741 231.963 278.978C231.768 279.215 231.601 279.403 231.462 279.542C231.322 279.682 231.232 279.744 231.19 279.73C231.134 279.73 231.044 279.668 230.918 279.542C230.793 279.417 230.73 279.326 230.73 279.271C230.73 279.215 230.807 279.103 230.96 278.936C231.113 278.769 231.287 278.56 231.482 278.309C231.678 278.058 231.859 277.71 232.026 277.264C232.193 276.818 232.305 276.31 232.36 275.738V275.487L232.339 275.508C232.312 275.522 232.277 275.536 232.235 275.55C232.193 275.564 232.151 275.585 232.11 275.613C232.068 275.641 232.005 275.655 231.921 275.655C231.838 275.655 231.754 275.662 231.671 275.676C231.294 275.676 230.988 275.557 230.751 275.32L230.375 274.944Z" fill="#D9EBFF"/>
<path d="M238.484 269.677C238.498 269.593 238.519 269.482 238.547 269.343C238.575 269.203 238.658 268.939 238.798 268.548C238.937 268.158 239.076 267.831 239.216 267.566C239.355 267.301 239.585 267.044 239.906 266.793C240.226 266.542 240.546 266.424 240.867 266.437C241.369 266.437 241.787 266.563 242.121 266.814C242.455 267.064 242.664 267.301 242.748 267.524C242.832 267.747 242.873 267.894 242.873 267.963C242.873 267.991 242.88 268.005 242.894 268.005L243.124 267.775C243.974 266.883 244.943 266.437 246.029 266.437C246.782 266.437 247.388 266.626 247.848 267.002C248.308 267.378 248.545 267.928 248.558 268.653C248.572 269.377 248.308 270.471 247.764 271.934C247.221 273.397 246.956 274.282 246.97 274.589C246.97 274.951 247.088 275.132 247.325 275.132C247.409 275.132 247.472 275.125 247.513 275.111C247.917 275.042 248.28 274.777 248.6 274.317C248.921 273.857 249.165 273.3 249.332 272.645C249.36 272.534 249.499 272.478 249.75 272.478C250.028 272.478 250.168 272.534 250.168 272.645C250.168 272.659 250.14 272.763 250.084 272.958C249.973 273.363 249.819 273.76 249.624 274.15C249.429 274.54 249.109 274.93 248.663 275.32C248.217 275.71 247.736 275.899 247.221 275.885C246.566 275.885 246.092 275.697 245.8 275.32C245.507 274.944 245.361 274.554 245.361 274.15C245.361 273.885 245.611 273.049 246.113 271.642C246.615 270.234 246.872 269.175 246.886 268.465C246.886 267.643 246.58 267.232 245.967 267.232H245.862C244.664 267.232 243.654 267.935 242.832 269.343L242.685 269.593L241.996 272.394C241.536 274.22 241.271 275.202 241.201 275.341C241.02 275.717 240.721 275.906 240.303 275.906C240.121 275.906 239.975 275.864 239.864 275.78C239.752 275.697 239.676 275.613 239.634 275.529C239.592 275.446 239.578 275.376 239.592 275.32C239.592 275.139 239.857 274.004 240.386 271.913C240.916 269.823 241.194 268.688 241.222 268.507C241.236 268.437 241.243 268.277 241.243 268.026C241.243 267.482 241.076 267.211 240.742 267.211C240.212 267.211 239.773 267.907 239.425 269.301C239.341 269.58 239.299 269.726 239.299 269.74C239.272 269.823 239.139 269.865 238.902 269.865H238.61C238.526 269.782 238.484 269.719 238.484 269.677Z" fill="#D9EBFF"/>
<path d="M252.468 271.981C252.202 271.981 251.995 271.898 251.847 271.73C251.699 271.563 251.62 271.346 251.611 271.08C251.611 270.538 251.847 270.055 252.32 269.632C252.793 269.208 253.364 268.996 254.034 268.996C254.379 268.996 254.595 269.001 254.684 269.011C255.413 269.129 255.97 269.391 256.354 269.794C256.738 270.198 256.935 270.637 256.945 271.11C256.945 271.622 256.777 272.119 256.443 272.602C256.108 273.085 255.645 273.434 255.054 273.651L255.009 273.681C255.009 273.691 255.054 273.705 255.142 273.725C255.231 273.745 255.374 273.789 255.571 273.858C255.768 273.927 255.955 274.03 256.132 274.168C256.94 274.69 257.344 275.38 257.344 276.237C257.344 277.015 257.039 277.695 256.428 278.276C255.817 278.858 255.044 279.148 254.108 279.148C253.32 279.148 252.64 278.936 252.069 278.513C251.497 278.089 251.212 277.552 251.212 276.902C251.212 276.626 251.3 276.405 251.478 276.237C251.655 276.07 251.876 275.981 252.142 275.971C252.418 275.971 252.645 276.06 252.822 276.237C253 276.414 253.088 276.636 253.088 276.902C253.088 277.01 253.073 277.109 253.044 277.198C253.014 277.286 252.98 277.365 252.94 277.434C252.901 277.503 252.847 277.562 252.778 277.611C252.709 277.661 252.65 277.7 252.601 277.73C252.551 277.759 252.502 277.779 252.453 277.789C252.404 277.799 252.364 277.813 252.335 277.833L252.275 277.848C252.778 278.291 253.389 278.513 254.108 278.513C254.65 278.513 255.058 278.252 255.334 277.73C255.502 277.404 255.585 276.907 255.585 276.237V275.942C255.585 275.006 255.27 274.38 254.64 274.065C254.492 274.006 254.192 273.971 253.738 273.961L253.118 273.947L253.073 273.917C253.054 273.888 253.044 273.809 253.044 273.681C253.044 273.503 253.083 273.415 253.162 273.415C253.438 273.415 253.724 273.39 254.019 273.341C254.354 273.292 254.659 273.085 254.935 272.72C255.211 272.356 255.349 271.804 255.349 271.065V270.947C255.349 270.385 255.177 269.996 254.832 269.78C254.615 269.642 254.384 269.573 254.137 269.573C253.822 269.573 253.531 269.627 253.266 269.735C253 269.844 252.812 269.957 252.704 270.075C252.596 270.193 252.541 270.252 252.541 270.252H252.586C252.615 270.262 252.655 270.272 252.704 270.282C252.753 270.292 252.803 270.317 252.852 270.356C252.901 270.395 252.96 270.43 253.029 270.459C253.098 270.489 253.147 270.543 253.177 270.622C253.206 270.701 253.246 270.775 253.295 270.844C253.344 270.913 253.359 271.011 253.339 271.139C253.339 271.356 253.27 271.548 253.133 271.715C252.995 271.883 252.773 271.972 252.468 271.981Z" fill="#D9EBFF"/>
<path d="M261.726 274.944C261.726 274.944 261.726 274.77 261.726 274.422C261.726 274.073 261.837 273.774 262.06 273.523C262.283 273.272 262.583 273.147 262.959 273.147C263.349 273.147 263.698 273.321 264.004 273.669C264.311 274.017 264.471 274.631 264.485 275.508C264.485 275.996 264.422 276.47 264.297 276.93C264.171 277.389 264.025 277.787 263.858 278.121C263.691 278.455 263.509 278.741 263.314 278.978C263.119 279.215 262.952 279.403 262.813 279.542C262.673 279.682 262.583 279.744 262.541 279.73C262.485 279.73 262.395 279.668 262.269 279.542C262.144 279.417 262.081 279.326 262.081 279.271C262.081 279.215 262.158 279.103 262.311 278.936C262.464 278.769 262.639 278.56 262.834 278.309C263.029 278.058 263.21 277.71 263.377 277.264C263.544 276.818 263.656 276.31 263.712 275.738V275.487L263.691 275.508C263.663 275.522 263.628 275.536 263.586 275.55C263.544 275.564 263.503 275.585 263.461 275.613C263.419 275.641 263.356 275.655 263.273 275.655C263.189 275.655 263.105 275.662 263.022 275.676C262.646 275.676 262.339 275.557 262.102 275.32L261.726 274.944Z" fill="#D9EBFF"/>
<path d="M269.835 269.677C269.849 269.593 269.87 269.482 269.898 269.343C269.926 269.203 270.01 268.939 270.149 268.548C270.288 268.158 270.428 267.831 270.567 267.566C270.706 267.301 270.936 267.044 271.257 266.793C271.577 266.542 271.898 266.424 272.218 266.437C272.72 266.437 273.138 266.563 273.472 266.814C273.807 267.064 274.016 267.301 274.099 267.524C274.183 267.747 274.225 267.894 274.225 267.963C274.225 267.991 274.232 268.005 274.246 268.005L274.475 267.775C275.325 266.883 276.294 266.437 277.381 266.437C278.133 266.437 278.739 266.626 279.199 267.002C279.659 267.378 279.896 267.928 279.91 268.653C279.924 269.377 279.659 270.471 279.115 271.934C278.572 273.397 278.307 274.282 278.321 274.589C278.321 274.951 278.44 275.132 278.676 275.132C278.76 275.132 278.823 275.125 278.865 275.111C279.269 275.042 279.631 274.777 279.951 274.317C280.272 273.857 280.516 273.3 280.683 272.645C280.711 272.534 280.85 272.478 281.101 272.478C281.38 272.478 281.519 272.534 281.519 272.645C281.519 272.659 281.491 272.763 281.435 272.958C281.324 273.363 281.171 273.76 280.976 274.15C280.78 274.54 280.46 274.93 280.014 275.32C279.568 275.71 279.088 275.899 278.572 275.885C277.917 275.885 277.443 275.697 277.151 275.32C276.858 274.944 276.712 274.554 276.712 274.15C276.712 273.885 276.963 273.049 277.464 271.642C277.966 270.234 278.224 269.175 278.238 268.465C278.238 267.643 277.931 267.232 277.318 267.232H277.213C276.015 267.232 275.005 267.935 274.183 269.343L274.037 269.593L273.347 272.394C272.887 274.22 272.622 275.202 272.553 275.341C272.371 275.717 272.072 275.906 271.654 275.906C271.473 275.906 271.326 275.864 271.215 275.78C271.103 275.697 271.027 275.613 270.985 275.529C270.943 275.446 270.929 275.376 270.943 275.32C270.943 275.139 271.208 274.004 271.737 271.913C272.267 269.823 272.546 268.688 272.573 268.507C272.587 268.437 272.594 268.277 272.594 268.026C272.594 267.482 272.427 267.211 272.093 267.211C271.563 267.211 271.124 267.907 270.776 269.301C270.692 269.58 270.651 269.726 270.651 269.74C270.623 269.823 270.49 269.865 270.253 269.865H269.961C269.877 269.782 269.835 269.719 269.835 269.677Z" fill="#D9EBFF"/>
<path d="M288.769 278.823C288.592 278.794 287.956 278.779 286.863 278.779C285.72 278.779 285.06 278.794 284.883 278.823H284.75V278.143H285.208C285.405 278.143 285.538 278.143 285.607 278.143C285.676 278.143 285.759 278.133 285.858 278.114C285.956 278.094 286.025 278.069 286.065 278.04C286.104 278.01 286.139 277.971 286.168 277.922C286.178 277.902 286.183 277.636 286.183 277.124V276.385H282.356V275.705L284.587 272.292C286.094 270.006 286.858 268.859 286.878 268.849C286.897 268.829 287.001 268.819 287.188 268.819H287.454L287.543 268.908V275.705H288.902V276.385H287.543V277.139C287.543 277.542 287.543 277.779 287.543 277.848C287.543 277.917 287.572 277.976 287.631 278.025C287.71 278.094 287.991 278.133 288.473 278.143H288.902V278.823H288.769ZM286.272 275.705V270.77L283.036 275.69L284.646 275.705H286.272Z" fill="#D9EBFF"/>
<path d="M293.056 274.944C293.056 274.944 293.056 274.77 293.056 274.422C293.056 274.073 293.168 273.774 293.391 273.523C293.614 273.272 293.913 273.147 294.289 273.147C294.68 273.147 295.028 273.321 295.334 273.669C295.641 274.017 295.801 274.631 295.815 275.508C295.815 275.996 295.752 276.47 295.627 276.93C295.502 277.389 295.355 277.787 295.188 278.121C295.021 278.455 294.84 278.741 294.645 278.978C294.45 279.215 294.282 279.403 294.143 279.542C294.004 279.682 293.913 279.744 293.871 279.73C293.816 279.73 293.725 279.668 293.6 279.542C293.474 279.417 293.412 279.326 293.412 279.271C293.412 279.215 293.488 279.103 293.641 278.936C293.795 278.769 293.969 278.56 294.164 278.309C294.359 278.058 294.54 277.71 294.707 277.264C294.875 276.818 294.986 276.31 295.042 275.738V275.487L295.021 275.508C294.993 275.522 294.958 275.536 294.916 275.55C294.875 275.564 294.833 275.585 294.791 275.613C294.749 275.641 294.687 275.655 294.603 275.655C294.519 275.655 294.436 275.662 294.352 275.676C293.976 275.676 293.669 275.557 293.432 275.32L293.056 274.944Z" fill="#D9EBFF"/>
<path d="M301.166 269.677C301.18 269.593 301.201 269.482 301.228 269.343C301.256 269.203 301.34 268.939 301.479 268.548C301.619 268.158 301.758 267.831 301.897 267.566C302.037 267.301 302.267 267.044 302.587 266.793C302.907 266.542 303.228 266.424 303.548 266.437C304.05 266.437 304.468 266.563 304.802 266.814C305.137 267.064 305.346 267.301 305.43 267.524C305.513 267.747 305.555 267.894 305.555 267.963C305.555 267.991 305.562 268.005 305.576 268.005L305.806 267.775C306.656 266.883 307.624 266.437 308.711 266.437C309.463 266.437 310.069 266.626 310.529 267.002C310.989 267.378 311.226 267.928 311.24 268.653C311.254 269.377 310.989 270.471 310.446 271.934C309.902 273.397 309.638 274.282 309.651 274.589C309.651 274.951 309.77 275.132 310.007 275.132C310.09 275.132 310.153 275.125 310.195 275.111C310.599 275.042 310.961 274.777 311.282 274.317C311.602 273.857 311.846 273.3 312.013 272.645C312.041 272.534 312.18 272.478 312.431 272.478C312.71 272.478 312.849 272.534 312.849 272.645C312.849 272.659 312.821 272.763 312.766 272.958C312.654 273.363 312.501 273.76 312.306 274.15C312.111 274.54 311.79 274.93 311.344 275.32C310.899 275.71 310.418 275.899 309.902 275.885C309.247 275.885 308.774 275.697 308.481 275.32C308.188 274.944 308.042 274.554 308.042 274.15C308.042 273.885 308.293 273.049 308.795 271.642C309.296 270.234 309.554 269.175 309.568 268.465C309.568 267.643 309.261 267.232 308.648 267.232H308.544C307.345 267.232 306.335 267.935 305.513 269.343L305.367 269.593L304.677 272.394C304.217 274.22 303.953 275.202 303.883 275.341C303.702 275.717 303.402 275.906 302.984 275.906C302.803 275.906 302.657 275.864 302.545 275.78C302.434 275.697 302.357 275.613 302.315 275.529C302.274 275.446 302.26 275.376 302.273 275.32C302.273 275.139 302.538 274.004 303.068 271.913C303.597 269.823 303.876 268.688 303.904 268.507C303.918 268.437 303.925 268.277 303.925 268.026C303.925 267.482 303.757 267.211 303.423 267.211C302.894 267.211 302.455 267.907 302.106 269.301C302.023 269.58 301.981 269.726 301.981 269.74C301.953 269.823 301.821 269.865 301.584 269.865H301.291C301.208 269.782 301.166 269.719 301.166 269.677Z" fill="#D9EBFF"/>
<path d="M315.696 276.503C315.696 276.74 315.617 276.937 315.459 277.094C315.302 277.252 315.11 277.331 314.883 277.331H314.78C315.233 278.109 315.834 278.498 316.582 278.498C317.272 278.498 317.774 278.202 318.09 277.611C318.277 277.286 318.37 276.656 318.37 275.72C318.37 274.705 318.237 274.021 317.971 273.666C317.715 273.341 317.43 273.178 317.114 273.178H317.026C316.257 273.178 315.676 273.513 315.282 274.183C315.243 274.252 315.208 274.292 315.179 274.301C315.149 274.311 315.075 274.321 314.957 274.331C314.789 274.331 314.696 274.301 314.676 274.242C314.656 274.203 314.647 273.341 314.647 271.656V269.75C314.647 269.258 314.671 269.011 314.721 269.011C314.74 268.992 314.76 268.982 314.78 268.982C314.789 268.982 314.893 269.021 315.09 269.1C315.287 269.179 315.558 269.258 315.903 269.336C316.247 269.415 316.617 269.455 317.011 269.455C317.71 269.455 318.38 269.317 319.021 269.041C319.099 269.001 319.163 268.982 319.213 268.982C319.292 268.982 319.331 269.07 319.331 269.248V269.44C318.523 270.395 317.513 270.873 316.302 270.873C315.996 270.873 315.72 270.844 315.474 270.784L315.326 270.755V273.297C315.514 273.159 315.661 273.05 315.77 272.971C315.878 272.893 316.055 272.814 316.302 272.735C316.548 272.656 316.799 272.617 317.055 272.617C317.853 272.617 318.528 272.937 319.08 273.577C319.631 274.218 319.907 274.976 319.907 275.853C319.907 276.759 319.592 277.533 318.961 278.173C318.331 278.813 317.563 279.138 316.656 279.148C315.858 279.148 315.218 278.882 314.735 278.35C314.253 277.818 314.011 277.217 314.011 276.547C314.011 276.311 314.065 276.124 314.174 275.986C314.282 275.848 314.395 275.759 314.514 275.72C314.632 275.681 314.745 275.661 314.854 275.661C315.1 275.661 315.302 275.745 315.459 275.912C315.617 276.08 315.696 276.277 315.696 276.503Z" fill="#D9EBFF"/>
<path d="M324.407 274.944C324.407 274.944 324.407 274.77 324.407 274.422C324.407 274.073 324.519 273.774 324.742 273.523C324.965 273.272 325.264 273.147 325.641 273.147C326.031 273.147 326.379 273.321 326.686 273.669C326.992 274.017 327.152 274.631 327.166 275.508C327.166 275.996 327.104 276.47 326.978 276.93C326.853 277.389 326.707 277.787 326.539 278.121C326.372 278.455 326.191 278.741 325.996 278.978C325.801 279.215 325.634 279.403 325.494 279.542C325.355 279.682 325.264 279.744 325.223 279.73C325.167 279.73 325.076 279.668 324.951 279.542C324.825 279.417 324.763 279.326 324.763 279.271C324.763 279.215 324.839 279.103 324.993 278.936C325.146 278.769 325.32 278.56 325.515 278.309C325.71 278.058 325.891 277.71 326.059 277.264C326.226 276.818 326.337 276.31 326.393 275.738V275.487L326.372 275.508C326.344 275.522 326.309 275.536 326.268 275.55C326.226 275.564 326.184 275.585 326.142 275.613C326.1 275.641 326.038 275.655 325.954 275.655C325.871 275.655 325.787 275.662 325.703 275.676C325.327 275.676 325.021 275.557 324.784 275.32L324.407 274.944Z" fill="#D9EBFF"/>
<path d="M332.517 269.677C332.531 269.593 332.552 269.482 332.58 269.343C332.608 269.203 332.691 268.939 332.83 268.548C332.97 268.158 333.109 267.831 333.248 267.566C333.388 267.301 333.618 267.044 333.938 266.793C334.259 266.542 334.579 266.424 334.9 266.437C335.401 266.437 335.819 266.563 336.154 266.814C336.488 267.064 336.697 267.301 336.781 267.524C336.864 267.747 336.906 267.894 336.906 267.963C336.906 267.991 336.913 268.005 336.927 268.005L337.157 267.775C338.007 266.883 338.975 266.437 340.062 266.437C340.815 266.437 341.421 266.626 341.881 267.002C342.34 267.378 342.577 267.928 342.591 268.653C342.605 269.377 342.34 270.471 341.797 271.934C341.253 273.397 340.989 274.282 341.003 274.589C341.003 274.951 341.121 275.132 341.358 275.132C341.442 275.132 341.504 275.125 341.546 275.111C341.95 275.042 342.312 274.777 342.633 274.317C342.953 273.857 343.197 273.3 343.364 272.645C343.392 272.534 343.532 272.478 343.782 272.478C344.061 272.478 344.201 272.534 344.201 272.645C344.201 272.659 344.173 272.763 344.117 272.958C344.005 273.363 343.852 273.76 343.657 274.15C343.462 274.54 343.142 274.93 342.696 275.32C342.25 275.71 341.769 275.899 341.253 275.885C340.599 275.885 340.125 275.697 339.832 275.32C339.54 274.944 339.393 274.554 339.393 274.15C339.393 273.885 339.644 273.049 340.146 271.642C340.647 270.234 340.905 269.175 340.919 268.465C340.919 267.643 340.613 267.232 339.999 267.232H339.895C338.697 267.232 337.686 267.935 336.864 269.343L336.718 269.593L336.028 272.394C335.568 274.22 335.304 275.202 335.234 275.341C335.053 275.717 334.753 275.906 334.335 275.906C334.154 275.906 334.008 275.864 333.896 275.78C333.785 275.697 333.708 275.613 333.667 275.529C333.625 275.446 333.611 275.376 333.625 275.32C333.625 275.139 333.889 274.004 334.419 271.913C334.948 269.823 335.227 268.688 335.255 268.507C335.269 268.437 335.276 268.277 335.276 268.026C335.276 267.482 335.109 267.211 334.774 267.211C334.245 267.211 333.806 267.907 333.457 269.301C333.374 269.58 333.332 269.726 333.332 269.74C333.304 269.823 333.172 269.865 332.935 269.865H332.642C332.559 269.782 332.517 269.719 332.517 269.677Z" fill="#D9EBFF"/>
<path d="M345.244 274.198C345.244 272.592 345.643 271.321 346.441 270.385C347.239 269.45 348.126 268.982 349.101 268.982C349.781 268.982 350.268 269.159 350.564 269.514C350.859 269.868 351.007 270.262 351.007 270.696C351.007 270.942 350.938 271.139 350.8 271.287C350.662 271.435 350.47 271.509 350.224 271.509C349.997 271.509 349.81 271.44 349.663 271.302C349.515 271.164 349.441 270.972 349.441 270.725C349.441 270.292 349.672 270.031 350.135 269.942C349.919 269.725 349.613 269.602 349.219 269.573C348.52 269.573 347.943 269.868 347.49 270.459C347.027 271.11 346.796 272.105 346.796 273.444L346.811 273.503C346.86 273.444 346.899 273.38 346.929 273.311C347.333 272.72 347.86 272.425 348.51 272.425H348.569C349.022 272.425 349.421 272.518 349.766 272.705C350.002 272.843 350.239 273.04 350.475 273.297C350.712 273.553 350.904 273.833 351.052 274.139C351.258 274.622 351.362 275.149 351.362 275.72V275.986C351.362 276.212 351.337 276.424 351.288 276.621C351.18 277.203 350.864 277.769 350.342 278.321C349.82 278.872 349.16 279.148 348.362 279.148C348.086 279.148 347.82 279.109 347.564 279.03C347.308 278.951 347.032 278.803 346.737 278.587C346.441 278.37 346.19 278.079 345.983 277.715C345.776 277.35 345.599 276.873 345.451 276.281C345.303 275.69 345.234 274.996 345.244 274.198ZM348.421 272.957C348.126 272.957 347.87 273.04 347.653 273.208C347.436 273.375 347.269 273.597 347.15 273.873C347.032 274.149 346.948 274.429 346.899 274.715C346.85 275.001 346.82 275.306 346.811 275.631C346.811 276.449 346.87 277.035 346.988 277.39C347.106 277.744 347.293 278.03 347.549 278.247C347.786 278.424 348.047 278.513 348.333 278.513C348.835 278.513 349.219 278.326 349.485 277.951C349.613 277.774 349.702 277.552 349.751 277.286C349.8 277.02 349.825 276.503 349.825 275.735C349.825 274.947 349.8 274.42 349.751 274.154C349.702 273.888 349.613 273.666 349.485 273.489C349.219 273.134 348.865 272.957 348.421 272.957Z" fill="#D9EBFF"/>
<path d="M355.738 274.944C355.738 274.944 355.738 274.77 355.738 274.422C355.738 274.073 355.849 273.774 356.072 273.523C356.295 273.272 356.595 273.147 356.971 273.147C357.361 273.147 357.709 273.321 358.016 273.669C358.323 274.017 358.483 274.631 358.497 275.508C358.497 275.996 358.434 276.47 358.309 276.93C358.183 277.389 358.037 277.787 357.87 278.121C357.702 278.455 357.521 278.741 357.326 278.978C357.131 279.215 356.964 279.403 356.825 279.542C356.685 279.682 356.595 279.744 356.553 279.73C356.497 279.73 356.407 279.668 356.281 279.542C356.156 279.417 356.093 279.326 356.093 279.271C356.093 279.215 356.17 279.103 356.323 278.936C356.476 278.769 356.65 278.56 356.846 278.309C357.041 278.058 357.222 277.71 357.389 277.264C357.556 276.818 357.668 276.31 357.723 275.738V275.487L357.702 275.508C357.675 275.522 357.64 275.536 357.598 275.55C357.556 275.564 357.514 275.585 357.473 275.613C357.431 275.641 357.368 275.655 357.284 275.655C357.201 275.655 357.117 275.662 357.034 275.676C356.657 275.676 356.351 275.557 356.114 275.32L355.738 274.944Z" fill="#D9EBFF"/>
<path d="M363.847 269.677C363.861 269.593 363.882 269.482 363.91 269.343C363.938 269.203 364.021 268.939 364.161 268.548C364.3 268.158 364.439 267.831 364.579 267.566C364.718 267.301 364.948 267.044 365.269 266.793C365.589 266.542 365.909 266.424 366.23 266.437C366.732 266.437 367.15 266.563 367.484 266.814C367.818 267.064 368.027 267.301 368.111 267.524C368.195 267.747 368.236 267.894 368.236 267.963C368.236 267.991 368.243 268.005 368.257 268.005L368.487 267.775C369.337 266.883 370.306 266.437 371.392 266.437C372.145 266.437 372.751 266.626 373.211 267.002C373.671 267.378 373.908 267.928 373.921 268.653C373.935 269.377 373.671 270.471 373.127 271.934C372.584 273.397 372.319 274.282 372.333 274.589C372.333 274.951 372.451 275.132 372.688 275.132C372.772 275.132 372.835 275.125 372.876 275.111C373.28 275.042 373.643 274.777 373.963 274.317C374.284 273.857 374.528 273.3 374.695 272.645C374.723 272.534 374.862 272.478 375.113 272.478C375.391 272.478 375.531 272.534 375.531 272.645C375.531 272.659 375.503 272.763 375.447 272.958C375.336 273.363 375.182 273.76 374.987 274.15C374.792 274.54 374.472 274.93 374.026 275.32C373.58 275.71 373.099 275.899 372.584 275.885C371.929 275.885 371.455 275.697 371.163 275.32C370.87 274.944 370.724 274.554 370.724 274.15C370.724 273.885 370.974 273.049 371.476 271.642C371.978 270.234 372.235 269.175 372.249 268.465C372.249 267.643 371.943 267.232 371.33 267.232H371.225C370.027 267.232 369.017 267.935 368.195 269.343L368.048 269.593L367.359 272.394C366.899 274.22 366.634 275.202 366.564 275.341C366.383 275.717 366.084 275.906 365.666 275.906C365.484 275.906 365.338 275.864 365.227 275.78C365.115 275.697 365.039 275.613 364.997 275.529C364.955 275.446 364.941 275.376 364.955 275.32C364.955 275.139 365.22 274.004 365.749 271.913C366.279 269.823 366.557 268.688 366.585 268.507C366.599 268.437 366.606 268.277 366.606 268.026C366.606 267.482 366.439 267.211 366.105 267.211C365.575 267.211 365.136 267.907 364.788 269.301C364.704 269.58 364.662 269.726 364.662 269.74C364.635 269.823 364.502 269.865 364.265 269.865H363.973C363.889 269.782 363.847 269.719 363.847 269.677Z" fill="#D9EBFF"/>
<path d="M376.767 272.055C376.776 272.036 376.86 271.499 377.018 270.445L377.254 268.863C377.254 268.844 377.353 268.834 377.55 268.834H377.845V268.893C377.845 268.992 377.919 269.075 378.067 269.144C378.215 269.213 378.471 269.258 378.835 269.277C379.2 269.297 380.032 269.307 381.333 269.307H383.121V269.883L382.116 271.257C382.027 271.376 381.879 271.573 381.673 271.848C381.466 272.124 381.333 272.306 381.274 272.395C381.214 272.484 381.111 272.641 380.963 272.868C380.815 273.095 380.717 273.272 380.668 273.4C380.618 273.528 380.55 273.71 380.461 273.947C380.372 274.183 380.308 274.41 380.269 274.626C380.229 274.843 380.19 275.109 380.151 275.424C380.111 275.74 380.082 276.075 380.062 276.429C380.042 276.784 380.027 277.188 380.018 277.641C380.018 277.779 380.018 277.917 380.018 278.055C380.018 278.193 380.013 278.311 380.003 278.409V278.542C379.963 278.71 379.87 278.853 379.722 278.971C379.574 279.089 379.407 279.148 379.22 279.148C379.111 279.148 379.008 279.133 378.909 279.104C378.811 279.074 378.707 278.981 378.599 278.823C378.491 278.665 378.436 278.468 378.436 278.232C378.436 276.676 378.914 275.06 379.87 273.385C380.067 273.07 380.481 272.474 381.111 271.597L381.791 270.666H380.417C378.702 270.666 377.801 270.696 377.712 270.755C377.653 270.784 377.599 270.903 377.55 271.11C377.501 271.316 377.451 271.528 377.402 271.745L377.358 272.055V272.1H376.767V272.055Z" fill="#D9EBFF"/>
<path d="M386.713 260.021L386.796 260C386.866 260 386.936 260 387.005 260H387.256L387.841 260.502C389.151 261.686 390.106 263.163 390.705 264.933C391.304 266.702 391.604 268.541 391.604 270.45C391.604 271.398 391.534 272.311 391.395 273.188C391.255 274.066 391.095 274.812 390.914 275.425C390.733 276.038 390.475 276.651 390.14 277.264C389.806 277.877 389.541 278.344 389.346 278.664C389.151 278.985 388.866 279.34 388.489 279.73C388.113 280.121 387.89 280.35 387.82 280.42C387.751 280.49 387.591 280.622 387.34 280.817C387.298 280.859 387.27 280.887 387.256 280.901H387.005C386.894 280.901 386.817 280.901 386.775 280.901C386.734 280.901 386.699 280.88 386.671 280.838C386.643 280.796 386.622 280.734 386.608 280.65C386.622 280.636 386.699 280.545 386.838 280.378C388.998 278.135 390.078 274.826 390.078 270.45C390.078 266.075 388.998 262.766 386.838 260.523C386.699 260.355 386.622 260.265 386.608 260.251C386.608 260.139 386.643 260.063 386.713 260.021Z" fill="#D9EBFF"/>
<path d="M395.219 274.944C395.219 274.944 395.219 274.77 395.219 274.422C395.219 274.073 395.331 273.774 395.554 273.523C395.777 273.272 396.076 273.147 396.453 273.147C396.843 273.147 397.191 273.321 397.498 273.669C397.804 274.017 397.964 274.631 397.978 275.508C397.978 275.996 397.916 276.47 397.79 276.93C397.665 277.389 397.518 277.787 397.351 278.121C397.184 278.455 397.003 278.741 396.808 278.978C396.613 279.215 396.446 279.403 396.306 279.542C396.167 279.682 396.076 279.744 396.034 279.73C395.979 279.73 395.888 279.668 395.763 279.542C395.637 279.417 395.575 279.326 395.575 279.271C395.575 279.215 395.651 279.103 395.805 278.936C395.958 278.769 396.132 278.56 396.327 278.309C396.522 278.058 396.703 277.71 396.871 277.264C397.038 276.818 397.149 276.31 397.205 275.738V275.487L397.184 275.508C397.156 275.522 397.121 275.536 397.08 275.55C397.038 275.564 396.996 275.585 396.954 275.613C396.912 275.641 396.85 275.655 396.766 275.655C396.682 275.655 396.599 275.662 396.515 275.676C396.139 275.676 395.832 275.557 395.596 275.32L395.219 274.944Z" fill="#D9EBFF"/>
<path d="M404.876 270.45C404.876 269.489 404.945 268.576 405.085 267.712C405.224 266.848 405.384 266.103 405.565 265.476C405.746 264.849 406.004 264.236 406.339 263.637C406.673 263.038 406.938 262.571 407.133 262.236C407.328 261.902 407.621 261.54 408.011 261.15C408.401 260.759 408.631 260.523 408.7 260.439C408.77 260.355 408.944 260.209 409.223 260H409.578C409.773 260 409.871 260.063 409.871 260.188C409.871 260.23 409.752 260.376 409.516 260.627C409.279 260.878 408.993 261.247 408.659 261.735C408.324 262.222 407.983 262.822 407.634 263.532C407.286 264.243 406.993 265.204 406.757 266.417C406.52 267.629 406.401 268.973 406.401 270.45C406.401 271.927 406.52 273.265 406.757 274.463C406.993 275.662 407.279 276.63 407.614 277.369C407.948 278.107 408.289 278.706 408.638 279.166C408.986 279.626 409.279 279.995 409.516 280.274C409.752 280.552 409.871 280.699 409.871 280.713C409.871 280.838 409.766 280.901 409.557 280.901H409.223L408.638 280.399C407.328 279.215 406.373 277.738 405.774 275.968C405.175 274.199 404.876 272.359 404.876 270.45Z" fill="#D9EBFF"/>
<path d="M411.48 269.677C411.494 269.593 411.515 269.482 411.543 269.343C411.571 269.203 411.654 268.939 411.794 268.548C411.933 268.158 412.072 267.831 412.212 267.566C412.351 267.301 412.581 267.044 412.901 266.793C413.222 266.542 413.542 266.424 413.863 266.437C414.365 266.437 414.783 266.563 415.117 266.814C415.451 267.064 415.66 267.301 415.744 267.524C415.828 267.747 415.869 267.894 415.869 267.963C415.869 267.991 415.876 268.005 415.89 268.005L416.12 267.775C416.97 266.883 417.939 266.437 419.025 266.437C419.778 266.437 420.384 266.626 420.844 267.002C421.304 267.378 421.54 267.928 421.554 268.653C421.568 269.377 421.304 270.471 420.76 271.934C420.217 273.397 419.952 274.282 419.966 274.589C419.966 274.951 420.084 275.132 420.321 275.132C420.405 275.132 420.468 275.125 420.509 275.111C420.913 275.042 421.276 274.777 421.596 274.317C421.917 273.857 422.16 273.3 422.328 272.645C422.356 272.534 422.495 272.478 422.746 272.478C423.024 272.478 423.164 272.534 423.164 272.645C423.164 272.659 423.136 272.763 423.08 272.958C422.969 273.363 422.815 273.76 422.62 274.15C422.425 274.54 422.105 274.93 421.659 275.32C421.213 275.71 420.732 275.899 420.217 275.885C419.562 275.885 419.088 275.697 418.795 275.32C418.503 274.944 418.357 274.554 418.357 274.15C418.357 273.885 418.607 273.049 419.109 271.642C419.611 270.234 419.868 269.175 419.882 268.465C419.882 267.643 419.576 267.232 418.963 267.232H418.858C417.66 267.232 416.65 267.935 415.828 269.343L415.681 269.593L414.992 272.394C414.532 274.22 414.267 275.202 414.197 275.341C414.016 275.717 413.717 275.906 413.299 275.906C413.117 275.906 412.971 275.864 412.86 275.78C412.748 275.697 412.672 275.613 412.63 275.529C412.588 275.446 412.574 275.376 412.588 275.32C412.588 275.139 412.853 274.004 413.382 271.913C413.912 269.823 414.19 268.688 414.218 268.507C414.232 268.437 414.239 268.277 414.239 268.026C414.239 267.482 414.072 267.211 413.737 267.211C413.208 267.211 412.769 267.907 412.421 269.301C412.337 269.58 412.295 269.726 412.295 269.74C412.267 269.823 412.135 269.865 411.898 269.865H411.606C411.522 269.782 411.48 269.719 411.48 269.677Z" fill="#D9EBFF"/>
<path d="M426.734 270.282L426.542 270.356C426.404 270.405 426.207 270.454 425.951 270.504C425.695 270.553 425.409 270.587 425.094 270.607H424.813V269.927H425.094C425.557 269.908 425.986 269.834 426.38 269.706C426.774 269.578 427.05 269.459 427.207 269.351C427.365 269.243 427.503 269.134 427.621 269.026C427.641 268.996 427.7 268.982 427.798 268.982C427.887 268.982 427.971 269.011 428.049 269.07V273.489L428.064 277.922C428.133 277.991 428.192 278.035 428.242 278.055C428.291 278.074 428.409 278.094 428.596 278.114C428.783 278.133 429.089 278.143 429.512 278.143H429.897V278.823H429.734C429.527 278.794 428.744 278.779 427.384 278.779C426.045 278.779 425.271 278.794 425.065 278.823H424.887V278.143H425.271C425.488 278.143 425.675 278.143 425.833 278.143C425.991 278.143 426.114 278.138 426.202 278.129C426.291 278.119 426.37 278.104 426.439 278.084C426.508 278.065 426.547 278.055 426.557 278.055C426.567 278.055 426.596 278.03 426.646 277.981C426.695 277.932 426.724 277.912 426.734 277.922V270.282Z" fill="#D9EBFF"/>
<path d="M434.701 274.944C434.701 274.944 434.701 274.77 434.701 274.422C434.701 274.073 434.812 273.774 435.035 273.523C435.258 273.272 435.558 273.147 435.934 273.147C436.324 273.147 436.673 273.321 436.979 273.669C437.286 274.017 437.446 274.631 437.46 275.508C437.46 275.996 437.397 276.47 437.272 276.93C437.146 277.389 437 277.787 436.833 278.121C436.666 278.455 436.485 278.741 436.289 278.978C436.094 279.215 435.927 279.403 435.788 279.542C435.649 279.682 435.558 279.744 435.516 279.73C435.46 279.73 435.37 279.668 435.244 279.542C435.119 279.417 435.056 279.326 435.056 279.271C435.056 279.215 435.133 279.103 435.286 278.936C435.439 278.769 435.614 278.56 435.809 278.309C436.004 278.058 436.185 277.71 436.352 277.264C436.519 276.818 436.631 276.31 436.687 275.738V275.487L436.666 275.508C436.638 275.522 436.603 275.536 436.561 275.55C436.519 275.564 436.478 275.585 436.436 275.613C436.394 275.641 436.331 275.655 436.248 275.655C436.164 275.655 436.08 275.662 435.997 275.676C435.621 275.676 435.314 275.557 435.077 275.32L434.701 274.944Z" fill="#D9EBFF"/>
<path d="M442.831 269.677C442.845 269.593 442.866 269.482 442.894 269.343C442.922 269.203 443.006 268.939 443.145 268.548C443.284 268.158 443.424 267.831 443.563 267.566C443.702 267.301 443.932 267.044 444.253 266.793C444.573 266.542 444.894 266.424 445.214 266.437C445.716 266.437 446.134 266.563 446.468 266.814C446.803 267.064 447.012 267.301 447.095 267.524C447.179 267.747 447.221 267.894 447.221 267.963C447.221 267.991 447.228 268.005 447.241 268.005L447.471 267.775C448.321 266.883 449.29 266.437 450.377 266.437C451.129 266.437 451.735 266.626 452.195 267.002C452.655 267.378 452.892 267.928 452.906 268.653C452.92 269.377 452.655 270.471 452.111 271.934C451.568 273.397 451.303 274.282 451.317 274.589C451.317 274.951 451.436 275.132 451.672 275.132C451.756 275.132 451.819 275.125 451.861 275.111C452.265 275.042 452.627 274.777 452.947 274.317C453.268 273.857 453.512 273.3 453.679 272.645C453.707 272.534 453.846 272.478 454.097 272.478C454.376 272.478 454.515 272.534 454.515 272.645C454.515 272.659 454.487 272.763 454.431 272.958C454.32 273.363 454.167 273.76 453.972 274.15C453.776 274.54 453.456 274.93 453.01 275.32C452.564 275.71 452.083 275.899 451.568 275.885C450.913 275.885 450.439 275.697 450.147 275.32C449.854 274.944 449.708 274.554 449.708 274.15C449.708 273.885 449.959 273.049 450.46 271.642C450.962 270.234 451.22 269.175 451.234 268.465C451.234 267.643 450.927 267.232 450.314 267.232H450.209C449.011 267.232 448.001 267.935 447.179 269.343L447.032 269.593L446.343 272.394C445.883 274.22 445.618 275.202 445.548 275.341C445.367 275.717 445.068 275.906 444.65 275.906C444.469 275.906 444.322 275.864 444.211 275.78C444.099 275.697 444.023 275.613 443.981 275.529C443.939 275.446 443.925 275.376 443.939 275.32C443.939 275.139 444.204 274.004 444.733 271.913C445.263 269.823 445.542 268.688 445.569 268.507C445.583 268.437 445.59 268.277 445.59 268.026C445.59 267.482 445.423 267.211 445.089 267.211C444.559 267.211 444.12 267.907 443.772 269.301C443.688 269.58 443.647 269.726 443.647 269.74C443.619 269.823 443.486 269.865 443.249 269.865H442.957C442.873 269.782 442.831 269.719 442.831 269.677Z" fill="#D9EBFF"/>
<path d="M456.549 272.484C456.283 272.484 456.071 272.395 455.913 272.218C455.756 272.04 455.677 271.824 455.677 271.568C455.677 270.868 455.938 270.262 456.46 269.75C456.982 269.238 457.632 268.982 458.411 268.982C459.307 268.982 460.056 269.258 460.657 269.809C461.258 270.361 461.563 271.075 461.573 271.952C461.573 272.375 461.474 272.779 461.277 273.164C461.08 273.548 460.844 273.883 460.568 274.168C460.292 274.454 459.898 274.819 459.386 275.262C459.031 275.567 458.539 276.02 457.908 276.621L457.036 277.449L458.159 277.464C459.706 277.464 460.529 277.439 460.627 277.39C460.696 277.37 460.814 276.932 460.982 276.075V276.03H461.573V276.075C461.563 276.104 461.499 276.552 461.381 277.419C461.263 278.286 461.189 278.739 461.159 278.779V278.823H455.677V278.365C455.677 278.296 455.706 278.222 455.766 278.143C455.825 278.065 455.972 277.892 456.209 277.626C456.495 277.311 456.741 277.035 456.948 276.799C457.036 276.7 457.204 276.518 457.45 276.252C457.696 275.986 457.864 275.804 457.953 275.705C458.041 275.607 458.184 275.444 458.381 275.218C458.578 274.991 458.716 274.823 458.795 274.715C458.874 274.607 458.987 274.459 459.135 274.272C459.282 274.085 459.386 273.927 459.445 273.799C459.504 273.671 459.578 273.528 459.667 273.37C459.755 273.213 459.819 273.055 459.859 272.898C459.898 272.74 459.933 272.592 459.962 272.454C459.992 272.316 460.007 272.154 460.007 271.967C460.007 271.346 459.839 270.809 459.504 270.356C459.169 269.903 458.691 269.676 458.071 269.676C457.746 269.676 457.46 269.76 457.214 269.927C456.967 270.095 456.795 270.257 456.697 270.415C456.598 270.573 456.549 270.666 456.549 270.696C456.549 270.706 456.573 270.711 456.623 270.711C456.8 270.711 456.982 270.78 457.169 270.917C457.357 271.055 457.45 271.282 457.45 271.597C457.45 271.843 457.371 272.05 457.214 272.218C457.056 272.385 456.834 272.474 456.549 272.484Z" fill="#D9EBFF"/>
<path d="M466.052 274.944C466.052 274.944 466.052 274.77 466.052 274.422C466.052 274.073 466.164 273.774 466.387 273.523C466.61 273.272 466.909 273.147 467.285 273.147C467.675 273.147 468.024 273.321 468.33 273.669C468.637 274.017 468.797 274.631 468.811 275.508C468.811 275.996 468.748 276.47 468.623 276.93C468.498 277.389 468.351 277.787 468.184 278.121C468.017 278.455 467.836 278.741 467.641 278.978C467.446 279.215 467.278 279.403 467.139 279.542C467 279.682 466.909 279.744 466.867 279.73C466.812 279.73 466.721 279.668 466.596 279.542C466.47 279.417 466.408 279.326 466.408 279.271C466.408 279.215 466.484 279.103 466.637 278.936C466.791 278.769 466.965 278.56 467.16 278.309C467.355 278.058 467.536 277.71 467.703 277.264C467.871 276.818 467.982 276.31 468.038 275.738V275.487L468.017 275.508C467.989 275.522 467.954 275.536 467.912 275.55C467.871 275.564 467.829 275.585 467.787 275.613C467.745 275.641 467.682 275.655 467.599 275.655C467.515 275.655 467.432 275.662 467.348 275.676C466.972 275.676 466.665 275.557 466.428 275.32L466.052 274.944Z" fill="#D9EBFF"/>
<path d="M474.162 269.677C474.176 269.593 474.197 269.482 474.224 269.343C474.252 269.203 474.336 268.939 474.475 268.548C474.615 268.158 474.754 267.831 474.893 267.566C475.033 267.301 475.262 267.044 475.583 266.793C475.903 266.542 476.224 266.424 476.544 266.437C477.046 266.437 477.464 266.563 477.798 266.814C478.133 267.064 478.342 267.301 478.425 267.524C478.509 267.747 478.551 267.894 478.551 267.963C478.551 267.991 478.558 268.005 478.572 268.005L478.802 267.775C479.652 266.883 480.62 266.437 481.707 266.437C482.459 266.437 483.065 266.626 483.525 267.002C483.985 267.378 484.222 267.928 484.236 268.653C484.25 269.377 483.985 270.471 483.442 271.934C482.898 273.397 482.633 274.282 482.647 274.589C482.647 274.951 482.766 275.132 483.003 275.132C483.086 275.132 483.149 275.125 483.191 275.111C483.595 275.042 483.957 274.777 484.278 274.317C484.598 273.857 484.842 273.3 485.009 272.645C485.037 272.534 485.176 272.478 485.427 272.478C485.706 272.478 485.845 272.534 485.845 272.645C485.845 272.659 485.817 272.763 485.762 272.958C485.65 273.363 485.497 273.76 485.302 274.15C485.107 274.54 484.786 274.93 484.34 275.32C483.894 275.71 483.414 275.899 482.898 275.885C482.243 275.885 481.77 275.697 481.477 275.32C481.184 274.944 481.038 274.554 481.038 274.15C481.038 273.885 481.289 273.049 481.79 271.642C482.292 270.234 482.55 269.175 482.564 268.465C482.564 267.643 482.257 267.232 481.644 267.232H481.54C480.341 267.232 479.331 267.935 478.509 269.343L478.363 269.593L477.673 272.394C477.213 274.22 476.948 275.202 476.879 275.341C476.698 275.717 476.398 275.906 475.98 275.906C475.799 275.906 475.653 275.864 475.541 275.78C475.43 275.697 475.353 275.613 475.311 275.529C475.269 275.446 475.256 275.376 475.269 275.32C475.269 275.139 475.534 274.004 476.064 271.913C476.593 269.823 476.872 268.688 476.9 268.507C476.914 268.437 476.921 268.277 476.921 268.026C476.921 267.482 476.753 267.211 476.419 267.211C475.889 267.211 475.451 267.907 475.102 269.301C475.019 269.58 474.977 269.726 474.977 269.74C474.949 269.823 474.817 269.865 474.58 269.865H474.287C474.203 269.782 474.162 269.719 474.162 269.677Z" fill="#D9EBFF"/>
<path d="M488.145 271.981C487.879 271.981 487.672 271.898 487.524 271.73C487.377 271.563 487.298 271.346 487.288 271.08C487.288 270.538 487.524 270.055 487.997 269.632C488.47 269.208 489.041 268.996 489.711 268.996C490.056 268.996 490.273 269.001 490.362 269.011C491.091 269.129 491.647 269.391 492.031 269.794C492.416 270.198 492.613 270.637 492.622 271.11C492.622 271.622 492.455 272.119 492.12 272.602C491.785 273.085 491.322 273.434 490.731 273.651L490.687 273.681C490.687 273.691 490.731 273.705 490.82 273.725C490.908 273.745 491.051 273.789 491.248 273.858C491.445 273.927 491.632 274.03 491.81 274.168C492.617 274.69 493.021 275.38 493.021 276.237C493.021 277.015 492.716 277.695 492.105 278.276C491.494 278.858 490.721 279.148 489.785 279.148C488.997 279.148 488.317 278.936 487.746 278.513C487.175 278.089 486.889 277.552 486.889 276.902C486.889 276.626 486.978 276.405 487.155 276.237C487.332 276.07 487.554 275.981 487.82 275.971C488.096 275.971 488.322 276.06 488.5 276.237C488.677 276.414 488.766 276.636 488.766 276.902C488.766 277.01 488.751 277.109 488.721 277.198C488.692 277.286 488.657 277.365 488.618 277.434C488.578 277.503 488.524 277.562 488.455 277.611C488.386 277.661 488.327 277.7 488.278 277.73C488.229 277.759 488.179 277.779 488.13 277.789C488.081 277.799 488.042 277.813 488.012 277.833L487.953 277.848C488.455 278.291 489.066 278.513 489.785 278.513C490.327 278.513 490.736 278.252 491.012 277.73C491.179 277.404 491.263 276.907 491.263 276.237V275.942C491.263 275.006 490.948 274.38 490.317 274.065C490.169 274.006 489.869 273.971 489.416 273.961L488.795 273.947L488.751 273.917C488.731 273.888 488.721 273.809 488.721 273.681C488.721 273.503 488.761 273.415 488.84 273.415C489.115 273.415 489.401 273.39 489.697 273.341C490.032 273.292 490.337 273.085 490.613 272.72C490.889 272.356 491.026 271.804 491.026 271.065V270.947C491.026 270.385 490.854 269.996 490.509 269.78C490.293 269.642 490.061 269.573 489.815 269.573C489.5 269.573 489.209 269.627 488.943 269.735C488.677 269.844 488.49 269.957 488.381 270.075C488.273 270.193 488.219 270.252 488.219 270.252H488.263C488.293 270.262 488.332 270.272 488.381 270.282C488.431 270.292 488.48 270.317 488.529 270.356C488.578 270.395 488.638 270.43 488.707 270.459C488.775 270.489 488.825 270.543 488.854 270.622C488.884 270.701 488.923 270.775 488.973 270.844C489.022 270.913 489.037 271.011 489.017 271.139C489.017 271.356 488.948 271.548 488.81 271.715C488.672 271.883 488.45 271.972 488.145 271.981Z" fill="#D9EBFF"/>
<path d="M497.027 260.021L497.111 260C497.18 260 497.25 260 497.32 260H497.571L498.156 260.502C499.466 261.686 500.42 263.163 501.019 264.933C501.618 266.702 501.918 268.541 501.918 270.45C501.918 271.398 501.848 272.311 501.709 273.188C501.57 274.066 501.409 274.812 501.228 275.425C501.047 276.038 500.789 276.651 500.455 277.264C500.12 277.877 499.856 278.344 499.661 278.664C499.466 278.985 499.18 279.34 498.804 279.73C498.428 280.121 498.205 280.35 498.135 280.42C498.065 280.49 497.905 280.622 497.654 280.817C497.612 280.859 497.585 280.887 497.571 280.901H497.32C497.208 280.901 497.132 280.901 497.09 280.901C497.048 280.901 497.013 280.88 496.985 280.838C496.958 280.796 496.937 280.734 496.923 280.65C496.937 280.636 497.013 280.545 497.153 280.378C499.312 278.135 500.392 274.826 500.392 270.45C500.392 266.075 499.312 262.766 497.153 260.523C497.013 260.355 496.937 260.265 496.923 260.251C496.923 260.139 496.957 260.063 497.027 260.021Z" fill="#D9EBFF"/>
<path d="M505.534 274.944C505.534 274.944 505.534 274.77 505.534 274.422C505.534 274.073 505.645 273.774 505.868 273.523C506.091 273.272 506.391 273.147 506.767 273.147C507.157 273.147 507.505 273.321 507.812 273.669C508.119 274.017 508.279 274.631 508.293 275.508C508.293 275.996 508.23 276.47 508.105 276.93C507.979 277.389 507.833 277.787 507.666 278.121C507.498 278.455 507.317 278.741 507.122 278.978C506.927 279.215 506.76 279.403 506.621 279.542C506.481 279.682 506.391 279.744 506.349 279.73C506.293 279.73 506.203 279.668 506.077 279.542C505.952 279.417 505.889 279.326 505.889 279.271C505.889 279.215 505.966 279.103 506.119 278.936C506.272 278.769 506.446 278.56 506.642 278.309C506.837 278.058 507.018 277.71 507.185 277.264C507.352 276.818 507.464 276.31 507.519 275.738V275.487L507.498 275.508C507.471 275.522 507.436 275.536 507.394 275.55C507.352 275.564 507.31 275.585 507.269 275.613C507.227 275.641 507.164 275.655 507.08 275.655C506.997 275.655 506.913 275.662 506.83 275.676C506.453 275.676 506.147 275.557 505.91 275.32L505.534 274.944Z" fill="#D9EBFF"/>
<path d="M515.169 270.45C515.169 269.489 515.239 268.576 515.378 267.712C515.517 266.848 515.678 266.103 515.859 265.476C516.04 264.849 516.298 264.236 516.632 263.637C516.967 263.038 517.231 262.571 517.426 262.236C517.621 261.902 517.914 261.54 518.304 261.15C518.694 260.759 518.924 260.523 518.994 260.439C519.064 260.355 519.238 260.209 519.516 260H519.872C520.067 260 520.164 260.063 520.164 260.188C520.164 260.23 520.046 260.376 519.809 260.627C519.572 260.878 519.287 261.247 518.952 261.735C518.618 262.222 518.276 262.822 517.928 263.532C517.58 264.243 517.287 265.204 517.05 266.417C516.813 267.629 516.695 268.973 516.695 270.45C516.695 271.927 516.813 273.265 517.05 274.463C517.287 275.662 517.573 276.63 517.907 277.369C518.241 278.107 518.583 278.706 518.931 279.166C519.28 279.626 519.572 279.995 519.809 280.274C520.046 280.552 520.164 280.699 520.164 280.713C520.164 280.838 520.06 280.901 519.851 280.901H519.516L518.931 280.399C517.621 279.215 516.667 277.738 516.068 275.968C515.469 274.199 515.169 272.359 515.169 270.45Z" fill="#D9EBFF"/>
<path d="M521.795 269.677C521.809 269.593 521.829 269.482 521.857 269.343C521.885 269.203 521.969 268.939 522.108 268.548C522.247 268.158 522.387 267.831 522.526 267.566C522.665 267.301 522.895 267.044 523.216 266.793C523.536 266.542 523.857 266.424 524.177 266.437C524.679 266.437 525.097 266.563 525.431 266.814C525.766 267.064 525.975 267.301 526.058 267.524C526.142 267.747 526.184 267.894 526.184 267.963C526.184 267.991 526.191 268.005 526.205 268.005L526.435 267.775C527.285 266.883 528.253 266.437 529.34 266.437C530.092 266.437 530.698 266.626 531.158 267.002C531.618 267.378 531.855 267.928 531.869 268.653C531.883 269.377 531.618 270.471 531.075 271.934C530.531 273.397 530.266 274.282 530.28 274.589C530.28 274.951 530.399 275.132 530.636 275.132C530.719 275.132 530.782 275.125 530.824 275.111C531.228 275.042 531.59 274.777 531.911 274.317C532.231 273.857 532.475 273.3 532.642 272.645C532.67 272.534 532.809 272.478 533.06 272.478C533.339 272.478 533.478 272.534 533.478 272.645C533.478 272.659 533.45 272.763 533.395 272.958C533.283 273.363 533.13 273.76 532.935 274.15C532.74 274.54 532.419 274.93 531.973 275.32C531.527 275.71 531.047 275.899 530.531 275.885C529.876 275.885 529.403 275.697 529.11 275.32C528.817 274.944 528.671 274.554 528.671 274.15C528.671 273.885 528.922 273.049 529.423 271.642C529.925 270.234 530.183 269.175 530.197 268.465C530.197 267.643 529.89 267.232 529.277 267.232H529.173C527.974 267.232 526.964 267.935 526.142 269.343L525.996 269.593L525.306 272.394C524.846 274.22 524.581 275.202 524.512 275.341C524.331 275.717 524.031 275.906 523.613 275.906C523.432 275.906 523.286 275.864 523.174 275.78C523.063 275.697 522.986 275.613 522.944 275.529C522.902 275.446 522.888 275.376 522.902 275.32C522.902 275.139 523.167 274.004 523.697 271.913C524.226 269.823 524.505 268.688 524.533 268.507C524.547 268.437 524.554 268.277 524.554 268.026C524.554 267.482 524.386 267.211 524.052 267.211C523.522 267.211 523.083 267.907 522.735 269.301C522.652 269.58 522.61 269.726 522.61 269.74C522.582 269.823 522.45 269.865 522.213 269.865H521.92C521.836 269.782 521.795 269.719 521.795 269.677Z" fill="#D9EBFF"/>
<path d="M534.714 272.055C534.724 272.036 534.808 271.499 534.965 270.445L535.202 268.863C535.202 268.844 535.3 268.834 535.497 268.834H535.793V268.893C535.793 268.992 535.867 269.075 536.014 269.144C536.162 269.213 536.418 269.258 536.783 269.277C537.147 269.297 537.98 269.307 539.28 269.307H541.068V269.883L540.063 271.257C539.975 271.376 539.827 271.573 539.62 271.848C539.413 272.124 539.28 272.306 539.221 272.395C539.162 272.484 539.058 272.641 538.911 272.868C538.763 273.095 538.664 273.272 538.615 273.4C538.566 273.528 538.497 273.71 538.408 273.947C538.32 274.183 538.256 274.41 538.216 274.626C538.177 274.843 538.137 275.109 538.098 275.424C538.058 275.74 538.029 276.075 538.009 276.429C537.99 276.784 537.975 277.188 537.965 277.641C537.965 277.779 537.965 277.917 537.965 278.055C537.965 278.193 537.96 278.311 537.95 278.409V278.542C537.911 278.71 537.817 278.853 537.669 278.971C537.522 279.089 537.354 279.148 537.167 279.148C537.059 279.148 536.955 279.133 536.857 279.104C536.758 279.074 536.655 278.981 536.546 278.823C536.438 278.665 536.384 278.468 536.384 278.232C536.384 276.676 536.862 275.06 537.817 273.385C538.014 273.07 538.428 272.474 539.058 271.597L539.738 270.666H538.364C536.65 270.666 535.748 270.696 535.66 270.755C535.601 270.784 535.546 270.903 535.497 271.11C535.448 271.316 535.399 271.528 535.349 271.745L535.305 272.055V272.1H534.714V272.055Z" fill="#D9EBFF"/>
<path d="M545.015 274.944C545.015 274.944 545.015 274.77 545.015 274.422C545.015 274.073 545.127 273.774 545.35 273.523C545.573 273.272 545.872 273.147 546.249 273.147C546.639 273.147 546.987 273.321 547.294 273.669C547.6 274.017 547.76 274.631 547.774 275.508C547.774 275.996 547.712 276.47 547.586 276.93C547.461 277.389 547.314 277.787 547.147 278.121C546.98 278.455 546.799 278.741 546.604 278.978C546.409 279.215 546.242 279.403 546.102 279.542C545.963 279.682 545.872 279.744 545.831 279.73C545.775 279.73 545.684 279.668 545.559 279.542C545.433 279.417 545.371 279.326 545.371 279.271C545.371 279.215 545.447 279.103 545.601 278.936C545.754 278.769 545.928 278.56 546.123 278.309C546.318 278.058 546.499 277.71 546.667 277.264C546.834 276.818 546.945 276.31 547.001 275.738V275.487L546.98 275.508C546.952 275.522 546.917 275.536 546.876 275.55C546.834 275.564 546.792 275.585 546.75 275.613C546.708 275.641 546.646 275.655 546.562 275.655C546.478 275.655 546.395 275.662 546.311 275.676C545.935 275.676 545.629 275.557 545.392 275.32L545.015 274.944Z" fill="#D9EBFF"/>
<path d="M553.125 269.677C553.139 269.593 553.16 269.482 553.188 269.343C553.215 269.203 553.299 268.939 553.438 268.548C553.578 268.158 553.717 267.831 553.856 267.566C553.996 267.301 554.226 267.044 554.546 266.793C554.867 266.542 555.187 266.424 555.508 266.437C556.009 266.437 556.427 266.563 556.762 266.814C557.096 267.064 557.305 267.301 557.389 267.524C557.472 267.747 557.514 267.894 557.514 267.963C557.514 267.991 557.521 268.005 557.535 268.005L557.765 267.775C558.615 266.883 559.583 266.437 560.67 266.437C561.423 266.437 562.029 266.626 562.488 267.002C562.948 267.378 563.185 267.928 563.199 268.653C563.213 269.377 562.948 270.471 562.405 271.934C561.861 273.397 561.597 274.282 561.611 274.589C561.611 274.951 561.729 275.132 561.966 275.132C562.05 275.132 562.112 275.125 562.154 275.111C562.558 275.042 562.92 274.777 563.241 274.317C563.561 273.857 563.805 273.3 563.972 272.645C564 272.534 564.14 272.478 564.39 272.478C564.669 272.478 564.808 272.534 564.808 272.645C564.808 272.659 564.781 272.763 564.725 272.958C564.613 273.363 564.46 273.76 564.265 274.15C564.07 274.54 563.749 274.93 563.304 275.32C562.858 275.71 562.377 275.899 561.861 275.885C561.207 275.885 560.733 275.697 560.44 275.32C560.148 274.944 560.001 274.554 560.001 274.15C560.001 273.885 560.252 273.049 560.754 271.642C561.255 270.234 561.513 269.175 561.527 268.465C561.527 267.643 561.22 267.232 560.607 267.232H560.503C559.305 267.232 558.294 267.935 557.472 269.343L557.326 269.593L556.636 272.394C556.176 274.22 555.912 275.202 555.842 275.341C555.661 275.717 555.361 275.906 554.943 275.906C554.762 275.906 554.616 275.864 554.504 275.78C554.393 275.697 554.316 275.613 554.274 275.529C554.233 275.446 554.219 275.376 554.233 275.32C554.233 275.139 554.497 274.004 555.027 271.913C555.556 269.823 555.835 268.688 555.863 268.507C555.877 268.437 555.884 268.277 555.884 268.026C555.884 267.482 555.717 267.211 555.382 267.211C554.853 267.211 554.414 267.907 554.065 269.301C553.982 269.58 553.94 269.726 553.94 269.74C553.912 269.823 553.78 269.865 553.543 269.865H553.25C553.167 269.782 553.125 269.719 553.125 269.677Z" fill="#D9EBFF"/>
<path d="M565.852 274.198C565.852 272.592 566.251 271.321 567.049 270.385C567.847 269.45 568.734 268.982 569.709 268.982C570.389 268.982 570.876 269.159 571.172 269.514C571.467 269.868 571.615 270.262 571.615 270.696C571.615 270.942 571.546 271.139 571.408 271.287C571.27 271.435 571.078 271.509 570.832 271.509C570.605 271.509 570.418 271.44 570.27 271.302C570.123 271.164 570.049 270.972 570.049 270.725C570.049 270.292 570.28 270.031 570.743 269.942C570.527 269.725 570.221 269.602 569.827 269.573C569.128 269.573 568.551 269.868 568.098 270.459C567.635 271.11 567.404 272.105 567.404 273.444L567.419 273.503C567.468 273.444 567.507 273.38 567.537 273.311C567.941 272.72 568.468 272.425 569.118 272.425H569.177C569.63 272.425 570.029 272.518 570.374 272.705C570.61 272.843 570.847 273.04 571.083 273.297C571.32 273.553 571.512 273.833 571.659 274.139C571.866 274.622 571.97 275.149 571.97 275.72V275.986C571.97 276.212 571.945 276.424 571.896 276.621C571.788 277.203 571.472 277.769 570.95 278.321C570.428 278.872 569.768 279.148 568.97 279.148C568.694 279.148 568.428 279.109 568.172 279.03C567.916 278.951 567.64 278.803 567.345 278.587C567.049 278.37 566.798 278.079 566.591 277.715C566.384 277.35 566.207 276.873 566.059 276.281C565.911 275.69 565.842 274.996 565.852 274.198ZM569.029 272.957C568.734 272.957 568.478 273.04 568.261 273.208C568.044 273.375 567.877 273.597 567.758 273.873C567.64 274.149 567.556 274.429 567.507 274.715C567.458 275.001 567.428 275.306 567.419 275.631C567.419 276.449 567.478 277.035 567.596 277.39C567.714 277.744 567.901 278.03 568.157 278.247C568.394 278.424 568.655 278.513 568.941 278.513C569.443 278.513 569.827 278.326 570.093 277.951C570.221 277.774 570.31 277.552 570.359 277.286C570.408 277.02 570.433 276.503 570.433 275.735C570.433 274.947 570.408 274.42 570.359 274.154C570.31 273.888 570.221 273.666 570.093 273.489C569.827 273.134 569.473 272.957 569.029 272.957Z" fill="#D9EBFF"/>
<path d="M576.367 274.944C576.367 274.944 576.367 274.77 576.367 274.422C576.367 274.073 576.478 273.774 576.701 273.523C576.924 273.272 577.224 273.147 577.6 273.147C577.99 273.147 578.338 273.321 578.645 273.669C578.951 274.017 579.112 274.631 579.126 275.508C579.126 275.996 579.063 276.47 578.937 276.93C578.812 277.389 578.666 277.787 578.498 278.121C578.331 278.455 578.15 278.741 577.955 278.978C577.76 279.215 577.593 279.403 577.453 279.542C577.314 279.682 577.224 279.744 577.182 279.73C577.126 279.73 577.035 279.668 576.91 279.542C576.785 279.417 576.722 279.326 576.722 279.271C576.722 279.215 576.799 279.103 576.952 278.936C577.105 278.769 577.279 278.56 577.474 278.309C577.669 278.058 577.851 277.71 578.018 277.264C578.185 276.818 578.296 276.31 578.352 275.738V275.487L578.331 275.508C578.303 275.522 578.269 275.536 578.227 275.55C578.185 275.564 578.143 275.585 578.101 275.613C578.06 275.641 577.997 275.655 577.913 275.655C577.83 275.655 577.746 275.662 577.662 275.676C577.286 275.676 576.98 275.557 576.743 275.32L576.367 274.944Z" fill="#D9EBFF"/>
<path d="M584.476 269.677C584.49 269.593 584.511 269.482 584.539 269.343C584.567 269.203 584.65 268.939 584.79 268.548C584.929 268.158 585.068 267.831 585.208 267.566C585.347 267.301 585.577 267.044 585.897 266.793C586.218 266.542 586.538 266.424 586.859 266.437C587.36 266.437 587.778 266.563 588.113 266.814C588.447 267.064 588.656 267.301 588.74 267.524C588.823 267.747 588.865 267.894 588.865 267.963C588.865 267.991 588.872 268.005 588.886 268.005L589.116 267.775C589.966 266.883 590.934 266.437 592.021 266.437C592.774 266.437 593.38 266.626 593.84 267.002C594.299 267.378 594.536 267.928 594.55 268.653C594.564 269.377 594.299 270.471 593.756 271.934C593.213 273.397 592.948 274.282 592.962 274.589C592.962 274.951 593.08 275.132 593.317 275.132C593.401 275.132 593.463 275.125 593.505 275.111C593.909 275.042 594.272 274.777 594.592 274.317C594.913 273.857 595.156 273.3 595.324 272.645C595.351 272.534 595.491 272.478 595.742 272.478C596.02 272.478 596.16 272.534 596.16 272.645C596.16 272.659 596.132 272.763 596.076 272.958C595.965 273.363 595.811 273.76 595.616 274.15C595.421 274.54 595.101 274.93 594.655 275.32C594.209 275.71 593.728 275.899 593.213 275.885C592.558 275.885 592.084 275.697 591.791 275.32C591.499 274.944 591.352 274.554 591.352 274.15C591.352 273.885 591.603 273.049 592.105 271.642C592.607 270.234 592.864 269.175 592.878 268.465C592.878 267.643 592.572 267.232 591.959 267.232H591.854C590.656 267.232 589.646 267.935 588.823 269.343L588.677 269.593L587.987 272.394C587.528 274.22 587.263 275.202 587.193 275.341C587.012 275.717 586.712 275.906 586.294 275.906C586.113 275.906 585.967 275.864 585.856 275.78C585.744 275.697 585.667 275.613 585.626 275.529C585.584 275.446 585.57 275.376 585.584 275.32C585.584 275.139 585.849 274.004 586.378 271.913C586.908 269.823 587.186 268.688 587.214 268.507C587.228 268.437 587.235 268.277 587.235 268.026C587.235 267.482 587.068 267.211 586.733 267.211C586.204 267.211 585.765 267.907 585.417 269.301C585.333 269.58 585.291 269.726 585.291 269.74C585.263 269.823 585.131 269.865 584.894 269.865H584.602C584.518 269.782 584.476 269.719 584.476 269.677Z" fill="#D9EBFF"/>
<path d="M599.006 276.503C599.006 276.74 598.927 276.937 598.77 277.094C598.612 277.252 598.42 277.331 598.193 277.331H598.09C598.543 278.109 599.144 278.498 599.893 278.498C600.582 278.498 601.085 278.202 601.4 277.611C601.587 277.286 601.681 276.656 601.681 275.72C601.681 274.705 601.548 274.021 601.282 273.666C601.026 273.341 600.74 273.178 600.425 273.178H600.336C599.568 273.178 598.986 273.513 598.592 274.183C598.553 274.252 598.519 274.292 598.489 274.301C598.459 274.311 598.386 274.321 598.267 274.331C598.1 274.331 598.006 274.301 597.987 274.242C597.967 274.203 597.957 273.341 597.957 271.656V269.75C597.957 269.258 597.982 269.011 598.031 269.011C598.051 268.992 598.07 268.982 598.09 268.982C598.1 268.982 598.203 269.021 598.4 269.1C598.597 269.179 598.868 269.258 599.213 269.336C599.558 269.415 599.927 269.455 600.321 269.455C601.021 269.455 601.691 269.317 602.331 269.041C602.41 269.001 602.474 268.982 602.523 268.982C602.602 268.982 602.641 269.07 602.641 269.248V269.44C601.833 270.395 600.824 270.873 599.612 270.873C599.307 270.873 599.031 270.844 598.785 270.784L598.637 270.755V273.297C598.824 273.159 598.972 273.05 599.08 272.971C599.188 272.893 599.366 272.814 599.612 272.735C599.858 272.656 600.11 272.617 600.366 272.617C601.164 272.617 601.838 272.937 602.39 273.577C602.942 274.218 603.218 274.976 603.218 275.853C603.218 276.759 602.902 277.533 602.272 278.173C601.641 278.813 600.873 279.138 599.967 279.148C599.169 279.148 598.528 278.882 598.046 278.35C597.563 277.818 597.322 277.217 597.322 276.547C597.322 276.311 597.376 276.124 597.484 275.986C597.593 275.848 597.706 275.759 597.824 275.72C597.942 275.681 598.056 275.661 598.164 275.661C598.41 275.661 598.612 275.745 598.77 275.912C598.927 276.08 599.006 276.277 599.006 276.503Z" fill="#D9EBFF"/>
<path d="M607.321 260.021L607.404 260C607.474 260 607.544 260 607.613 260H607.864L608.449 260.502C609.759 261.686 610.714 263.163 611.313 264.933C611.912 266.702 612.211 268.541 612.211 270.45C612.211 271.398 612.142 272.311 612.002 273.188C611.863 274.066 611.703 274.812 611.522 275.425C611.341 276.038 611.083 276.651 610.748 277.264C610.414 277.877 610.149 278.344 609.954 278.664C609.759 278.985 609.473 279.34 609.097 279.73C608.721 280.121 608.498 280.35 608.428 280.42C608.359 280.49 608.199 280.622 607.948 280.817C607.906 280.859 607.878 280.887 607.864 280.901H607.613C607.502 280.901 607.425 280.901 607.383 280.901C607.342 280.901 607.307 280.88 607.279 280.838C607.251 280.796 607.23 280.734 607.216 280.65C607.23 280.636 607.307 280.545 607.446 280.378C609.606 278.135 610.686 274.826 610.686 270.45C610.686 266.075 609.606 262.766 607.446 260.523C607.307 260.355 607.23 260.265 607.216 260.251C607.216 260.139 607.251 260.063 607.321 260.021Z" fill="#D9EBFF"/>
</svg>
