<svg width="700" height="152" viewBox="0 0 700 152" fill="none" xmlns="http://www.w3.org/2000/svg">
<rect width="700" height="151" transform="translate(0 0.25)" fill="#0A0D12"/>
<path d="M392 91.5441L426.706 126.25" stroke="#B3BFD8" stroke-width="2"/>
<path d="M473.294 93.5441L508 128.25" stroke="#B3BFD8" stroke-width="2"/>
<path d="M466.353 93.5441L431.647 128.25" stroke="#B3BFD8" stroke-width="2"/>
<path d="M547.647 91.5441L512.941 126.25" stroke="#B3BFD8" stroke-width="2"/>
<path d="M468.353 12.25L433.647 46.9559" stroke="#B3BFD8" stroke-width="2"/>
<path d="M426.706 53.897L392 88.6029" stroke="#B3BFD8" stroke-width="2"/>
<path d="M471.294 12.25L506 46.9559" stroke="#B3BFD8" stroke-width="2"/>
<path d="M512.941 53.897L547.647 88.6029" stroke="#B3BFD8" stroke-width="2"/>
<circle cx="196" cy="50.25" r="5" fill="black" stroke="#D9EBFF" stroke-width="2"/>
<circle cx="236" cy="10.25" r="5" fill="black" stroke="#D9EBFF" stroke-width="2"/>
<circle cx="236" cy="10.25" r="5" fill="black" stroke="#D9EBFF" stroke-width="2"/>
<circle cx="276" cy="50.25" r="5" fill="black" stroke="#D9EBFF" stroke-width="2"/>
<circle cx="236" cy="91.25" r="5" fill="black" stroke="#D9EBFF" stroke-width="2"/>
<circle cx="316" cy="90.25" r="5" fill="black" stroke="#D9EBFF" stroke-width="2"/>
<circle cx="196" cy="130.25" r="5" fill="black" stroke="#D9EBFF" stroke-width="2"/>
<circle cx="276" cy="130.25" r="5" fill="black" stroke="#D9EBFF" stroke-width="2"/>
<circle cx="156" cy="90.25" r="5" fill="black" stroke="#D9EBFF" stroke-width="2"/>
</svg>
