<svg width="700" height="259" viewBox="0 0 700 259" fill="none" xmlns="http://www.w3.org/2000/svg">
<rect width="700" height="259" fill="#0A0D12"/>
<mask id="mask0_587_6283" style="mask-type:alpha" maskUnits="userSpaceOnUse" x="199" y="32" width="302" height="152">
<path d="M425.5 32L350 75.6667L274.5 32L199 107.667L274.5 183.333H425.5L501 107.667L425.5 32Z" fill="#C4C4C4"/>
</mask>
<g mask="url(#mask0_587_6283)">
<path d="M68.293 210.21L428.21 -149.707M79.6064 221.524L439.524 -138.393M90.9199 232.838L450.837 -127.08M124.861 266.779L484.779 -93.1385M147.488 289.406L507.406 -70.5111M136.175 278.093L496.092 -81.8248M158.803 300.72L518.72 -59.1974M113.548 255.465L473.465 -104.452M102.234 244.151L462.152 -115.766M170.116 312.034L530.034 -47.8837M181.43 323.347L541.347 -36.5699M192.743 334.661L552.661 -25.2563M226.685 368.602L586.602 8.68488M249.312 391.23L609.23 31.3123M237.998 379.916L597.915 19.9986M260.626 402.543L620.543 42.626M215.371 357.289L575.288 -2.62885M204.058 345.975L563.975 -13.9426" stroke="#2D9CDB" stroke-width="2"/>
</g>
<path d="M274.5 32H425.5M274.5 32L350 75.6667L425.5 32M274.5 32L199 107.667L274.5 183.333M425.5 32L501 107.667L425.5 183.333M425.5 183.333L350 227L274.5 183.333M425.5 183.333H274.5" stroke="#B3BFD8" stroke-width="2"/>
<circle cx="200" cy="108" r="5" fill="black" stroke="#D9EBFF" stroke-width="2"/>
<circle cx="275" cy="32" r="5" fill="black" stroke="#D9EBFF" stroke-width="2"/>
<circle cx="425" cy="32" r="5" fill="black" stroke="#D9EBFF" stroke-width="2"/>
<circle cx="350" cy="76" r="5" fill="black" stroke="#D9EBFF" stroke-width="2"/>
<circle cx="350" cy="227" r="5" fill="black" stroke="#D9EBFF" stroke-width="2"/>
<circle cx="426" cy="183" r="5" fill="black" stroke="#D9EBFF" stroke-width="2"/>
<circle cx="274" cy="183" r="5" fill="black" stroke="#D9EBFF" stroke-width="2"/>
<circle cx="501" cy="108" r="5" fill="black" stroke="#D9EBFF" stroke-width="2"/>
<path d="M169 105.241C169.014 105.157 169.035 105.046 169.063 104.907C169.091 104.767 169.174 104.502 169.314 104.112C169.453 103.722 169.592 103.395 169.732 103.13C169.871 102.865 170.101 102.607 170.421 102.356C170.742 102.106 171.062 101.987 171.383 102.001C171.885 102.001 172.303 102.127 172.637 102.377C172.971 102.628 173.18 102.865 173.264 103.088C173.348 103.311 173.389 103.457 173.389 103.527C173.389 103.555 173.396 103.569 173.41 103.569L173.64 103.339C174.49 102.447 175.459 102.001 176.546 102.001C177.298 102.001 177.904 102.189 178.364 102.565C178.824 102.942 179.061 103.492 179.075 104.217C179.089 104.941 178.824 106.035 178.281 107.498C177.737 108.962 177.472 109.846 177.486 110.153C177.486 110.515 177.605 110.696 177.842 110.696C177.925 110.696 177.988 110.689 178.03 110.676C178.434 110.606 178.796 110.341 179.117 109.881C179.437 109.421 179.681 108.864 179.848 108.209C179.876 108.098 180.016 108.042 180.266 108.042C180.545 108.042 180.684 108.098 180.684 108.209C180.684 108.223 180.657 108.328 180.601 108.523C180.489 108.927 180.336 109.324 180.141 109.714C179.946 110.104 179.625 110.494 179.179 110.885C178.733 111.275 178.253 111.463 177.737 111.449C177.082 111.449 176.608 111.261 176.316 110.885C176.023 110.508 175.877 110.118 175.877 109.714C175.877 109.449 176.128 108.613 176.629 107.206C177.131 105.798 177.389 104.739 177.403 104.029C177.403 103.206 177.096 102.795 176.483 102.795H176.379C175.18 102.795 174.17 103.499 173.348 104.907L173.201 105.157L172.512 107.958C172.052 109.784 171.787 110.766 171.717 110.905C171.536 111.282 171.237 111.47 170.818 111.47C170.637 111.47 170.491 111.428 170.38 111.344C170.268 111.261 170.191 111.177 170.15 111.094C170.108 111.01 170.094 110.94 170.108 110.885C170.108 110.703 170.373 109.568 170.902 107.477C171.432 105.387 171.71 104.252 171.738 104.07C171.752 104.001 171.759 103.841 171.759 103.59C171.759 103.046 171.592 102.774 171.257 102.774C170.728 102.774 170.289 103.471 169.941 104.865C169.857 105.143 169.815 105.29 169.815 105.304C169.787 105.387 169.655 105.429 169.418 105.429H169.125C169.042 105.345 169 105.283 169 105.241Z" fill="#B3BFD8"/>
<path d="M182.526 105.743C183.078 104.945 183.832 104.546 184.787 104.546C185.26 104.546 185.733 104.674 186.206 104.93C186.679 105.186 187.063 105.639 187.359 106.289C187.723 107.107 187.905 108.23 187.905 109.659C187.905 111.186 187.694 112.353 187.27 113.161C187.073 113.575 186.802 113.905 186.457 114.151C186.112 114.397 185.812 114.55 185.556 114.609C185.3 114.668 185.048 114.703 184.802 114.713C184.546 114.713 184.29 114.683 184.034 114.624C183.777 114.565 183.477 114.407 183.132 114.151C182.787 113.895 182.516 113.565 182.319 113.161C181.896 112.353 181.684 111.186 181.684 109.659C181.684 107.944 181.965 106.639 182.526 105.743ZM185.851 105.565C185.556 105.25 185.206 105.092 184.802 105.092C184.388 105.092 184.034 105.25 183.738 105.565C183.492 105.821 183.329 106.176 183.25 106.629C183.171 107.082 183.132 108.028 183.132 109.467C183.132 111.023 183.171 112.048 183.25 112.54C183.329 113.033 183.506 113.422 183.782 113.708C184.058 114.003 184.398 114.151 184.802 114.151C185.196 114.151 185.531 114.003 185.807 113.708C186.093 113.412 186.27 112.998 186.339 112.466C186.408 111.934 186.447 110.934 186.457 109.467C186.457 108.038 186.418 107.097 186.339 106.644C186.26 106.191 186.098 105.831 185.851 105.565Z" fill="#B3BFD8"/>
<path d="M261 194.241C261.014 194.157 261.035 194.046 261.063 193.907C261.091 193.767 261.174 193.502 261.314 193.112C261.453 192.722 261.592 192.395 261.732 192.13C261.871 191.865 262.101 191.607 262.421 191.356C262.742 191.106 263.062 190.987 263.383 191.001C263.885 191.001 264.303 191.127 264.637 191.377C264.971 191.628 265.18 191.865 265.264 192.088C265.348 192.311 265.389 192.457 265.389 192.527C265.389 192.555 265.396 192.569 265.41 192.569L265.64 192.339C266.49 191.447 267.459 191.001 268.546 191.001C269.298 191.001 269.904 191.189 270.364 191.565C270.824 191.942 271.061 192.492 271.075 193.217C271.089 193.941 270.824 195.035 270.281 196.498C269.737 197.962 269.472 198.846 269.486 199.153C269.486 199.515 269.605 199.696 269.842 199.696C269.925 199.696 269.988 199.689 270.03 199.676C270.434 199.606 270.796 199.341 271.117 198.881C271.437 198.421 271.681 197.864 271.848 197.209C271.876 197.098 272.016 197.042 272.266 197.042C272.545 197.042 272.684 197.098 272.684 197.209C272.684 197.223 272.657 197.328 272.601 197.523C272.489 197.927 272.336 198.324 272.141 198.714C271.946 199.104 271.625 199.494 271.179 199.885C270.733 200.275 270.253 200.463 269.737 200.449C269.082 200.449 268.608 200.261 268.316 199.885C268.023 199.508 267.877 199.118 267.877 198.714C267.877 198.449 268.128 197.613 268.629 196.206C269.131 194.798 269.389 193.739 269.403 193.029C269.403 192.206 269.096 191.795 268.483 191.795H268.379C267.18 191.795 266.17 192.499 265.348 193.907L265.201 194.157L264.512 196.958C264.052 198.784 263.787 199.766 263.717 199.905C263.536 200.282 263.237 200.47 262.818 200.47C262.637 200.47 262.491 200.428 262.38 200.344C262.268 200.261 262.191 200.177 262.15 200.094C262.108 200.01 262.094 199.94 262.108 199.885C262.108 199.703 262.373 198.568 262.902 196.477C263.432 194.387 263.71 193.252 263.738 193.07C263.752 193.001 263.759 192.841 263.759 192.59C263.759 192.046 263.592 191.774 263.257 191.774C262.728 191.774 262.289 192.471 261.941 193.865C261.857 194.143 261.815 194.29 261.815 194.304C261.787 194.387 261.655 194.429 261.418 194.429H261.125C261.042 194.345 261 194.283 261 194.241Z" fill="#B3BFD8"/>
<path d="M276.255 194.846L276.063 194.92C275.925 194.969 275.728 195.018 275.472 195.068C275.216 195.117 274.93 195.151 274.615 195.171H274.334V194.491H274.615C275.078 194.472 275.506 194.398 275.901 194.27C276.295 194.142 276.57 194.023 276.728 193.915C276.886 193.807 277.024 193.698 277.142 193.59C277.162 193.56 277.221 193.546 277.319 193.546C277.408 193.546 277.492 193.575 277.57 193.634V198.053L277.585 202.486C277.654 202.555 277.713 202.599 277.763 202.619C277.812 202.639 277.93 202.659 278.117 202.678C278.304 202.698 278.61 202.708 279.033 202.708H279.418V203.388H279.255C279.048 203.358 278.265 203.343 276.905 203.343C275.566 203.343 274.792 203.358 274.585 203.388H274.408V202.708H274.792C275.009 202.708 275.196 202.708 275.354 202.708C275.511 202.708 275.635 202.703 275.723 202.693C275.812 202.683 275.891 202.668 275.96 202.649C276.029 202.629 276.068 202.619 276.078 202.619C276.088 202.619 276.117 202.595 276.167 202.545C276.216 202.496 276.245 202.476 276.255 202.486V194.846Z" fill="#B3BFD8"/>
<path d="M341 239.241C341.014 239.157 341.035 239.046 341.063 238.907C341.091 238.767 341.174 238.502 341.314 238.112C341.453 237.722 341.592 237.395 341.732 237.13C341.871 236.865 342.101 236.607 342.421 236.356C342.742 236.106 343.062 235.987 343.383 236.001C343.885 236.001 344.303 236.127 344.637 236.377C344.971 236.628 345.18 236.865 345.264 237.088C345.348 237.311 345.389 237.457 345.389 237.527C345.389 237.555 345.396 237.569 345.41 237.569L345.64 237.339C346.49 236.447 347.459 236.001 348.546 236.001C349.298 236.001 349.904 236.189 350.364 236.565C350.824 236.942 351.061 237.492 351.075 238.217C351.089 238.941 350.824 240.035 350.281 241.498C349.737 242.962 349.472 243.846 349.486 244.153C349.486 244.515 349.605 244.696 349.842 244.696C349.925 244.696 349.988 244.689 350.03 244.676C350.434 244.606 350.796 244.341 351.117 243.881C351.437 243.421 351.681 242.864 351.848 242.209C351.876 242.098 352.016 242.042 352.266 242.042C352.545 242.042 352.684 242.098 352.684 242.209C352.684 242.223 352.657 242.328 352.601 242.523C352.489 242.927 352.336 243.324 352.141 243.714C351.946 244.104 351.625 244.494 351.179 244.885C350.733 245.275 350.253 245.463 349.737 245.449C349.082 245.449 348.608 245.261 348.316 244.885C348.023 244.508 347.877 244.118 347.877 243.714C347.877 243.449 348.128 242.613 348.629 241.206C349.131 239.798 349.389 238.739 349.403 238.029C349.403 237.206 349.096 236.795 348.483 236.795H348.379C347.18 236.795 346.17 237.499 345.348 238.907L345.201 239.157L344.512 241.958C344.052 243.784 343.787 244.766 343.717 244.905C343.536 245.282 343.237 245.47 342.819 245.47C342.637 245.47 342.491 245.428 342.38 245.344C342.268 245.261 342.191 245.177 342.15 245.094C342.108 245.01 342.094 244.94 342.108 244.885C342.108 244.703 342.373 243.568 342.902 241.477C343.432 239.387 343.71 238.252 343.738 238.07C343.752 238.001 343.759 237.841 343.759 237.59C343.759 237.046 343.592 236.774 343.257 236.774C342.728 236.774 342.289 237.471 341.941 238.865C341.857 239.143 341.815 239.29 341.815 239.304C341.787 239.387 341.655 239.429 341.418 239.429H341.125C341.042 239.345 341 239.283 341 239.241Z" fill="#B3BFD8"/>
<path d="M354.718 242.048C354.452 242.048 354.24 241.959 354.083 241.782C353.925 241.605 353.846 241.388 353.846 241.132C353.846 240.432 354.107 239.826 354.63 239.314C355.152 238.802 355.802 238.546 356.58 238.546C357.477 238.546 358.226 238.821 358.827 239.373C359.428 239.925 359.733 240.639 359.743 241.516C359.743 241.94 359.644 242.343 359.447 242.728C359.25 243.112 359.014 243.447 358.738 243.733C358.462 244.018 358.068 244.383 357.556 244.826C357.201 245.132 356.708 245.585 356.078 246.186L355.206 247.013L356.329 247.028C357.876 247.028 358.698 247.003 358.797 246.954C358.866 246.934 358.984 246.496 359.152 245.639V245.595H359.743V245.639C359.733 245.668 359.669 246.117 359.551 246.984C359.432 247.851 359.359 248.304 359.329 248.343V248.388H353.846V247.929C353.846 247.861 353.876 247.787 353.935 247.708C353.994 247.629 354.142 247.457 354.378 247.191C354.664 246.875 354.91 246.599 355.117 246.363C355.206 246.265 355.373 246.082 355.62 245.816C355.866 245.55 356.034 245.368 356.122 245.269C356.211 245.171 356.354 245.008 356.551 244.782C356.748 244.555 356.886 244.388 356.965 244.279C357.043 244.171 357.157 244.023 357.304 243.836C357.452 243.649 357.556 243.491 357.615 243.363C357.674 243.235 357.748 243.092 357.836 242.935C357.925 242.777 357.989 242.619 358.029 242.462C358.068 242.304 358.102 242.156 358.132 242.018C358.162 241.88 358.176 241.718 358.176 241.531C358.176 240.91 358.009 240.373 357.674 239.92C357.339 239.467 356.861 239.24 356.24 239.24C355.915 239.24 355.63 239.324 355.383 239.491C355.137 239.659 354.965 239.821 354.866 239.979C354.768 240.137 354.718 240.23 354.718 240.26C354.718 240.27 354.743 240.275 354.792 240.275C354.97 240.275 355.152 240.343 355.339 240.481C355.526 240.619 355.62 240.846 355.62 241.161C355.62 241.408 355.541 241.614 355.383 241.782C355.226 241.949 355.004 242.038 354.718 242.048Z" fill="#B3BFD8"/>
<path d="M420 195.241C420.014 195.157 420.035 195.046 420.063 194.907C420.091 194.767 420.174 194.502 420.314 194.112C420.453 193.722 420.592 193.395 420.732 193.13C420.871 192.865 421.101 192.607 421.421 192.356C421.742 192.106 422.062 191.987 422.383 192.001C422.885 192.001 423.303 192.127 423.637 192.377C423.971 192.628 424.18 192.865 424.264 193.088C424.348 193.311 424.389 193.457 424.389 193.527C424.389 193.555 424.396 193.569 424.41 193.569L424.64 193.339C425.49 192.447 426.459 192.001 427.546 192.001C428.298 192.001 428.904 192.189 429.364 192.565C429.824 192.942 430.061 193.492 430.075 194.217C430.089 194.941 429.824 196.035 429.281 197.498C428.737 198.962 428.472 199.846 428.486 200.153C428.486 200.515 428.605 200.696 428.842 200.696C428.925 200.696 428.988 200.689 429.03 200.676C429.434 200.606 429.796 200.341 430.117 199.881C430.437 199.421 430.681 198.864 430.848 198.209C430.876 198.098 431.016 198.042 431.266 198.042C431.545 198.042 431.684 198.098 431.684 198.209C431.684 198.223 431.657 198.328 431.601 198.523C431.489 198.927 431.336 199.324 431.141 199.714C430.946 200.104 430.625 200.494 430.179 200.885C429.733 201.275 429.253 201.463 428.737 201.449C428.082 201.449 427.608 201.261 427.316 200.885C427.023 200.508 426.877 200.118 426.877 199.714C426.877 199.449 427.128 198.613 427.629 197.206C428.131 195.798 428.389 194.739 428.403 194.029C428.403 193.206 428.096 192.795 427.483 192.795H427.379C426.18 192.795 425.17 193.499 424.348 194.907L424.201 195.157L423.512 197.958C423.052 199.784 422.787 200.766 422.717 200.905C422.536 201.282 422.237 201.47 421.818 201.47C421.637 201.47 421.491 201.428 421.38 201.344C421.268 201.261 421.191 201.177 421.15 201.094C421.108 201.01 421.094 200.94 421.108 200.885C421.108 200.703 421.373 199.568 421.902 197.477C422.432 195.387 422.71 194.252 422.738 194.07C422.752 194.001 422.759 193.841 422.759 193.59C422.759 193.046 422.592 192.774 422.257 192.774C421.728 192.774 421.289 193.471 420.941 194.865C420.857 195.143 420.815 195.29 420.815 195.304C420.787 195.387 420.655 195.429 420.418 195.429H420.125C420.042 195.345 420 195.283 420 195.241Z" fill="#B3BFD8"/>
<path d="M433.984 197.545C433.718 197.545 433.511 197.462 433.364 197.294C433.216 197.127 433.137 196.91 433.127 196.644C433.127 196.102 433.364 195.619 433.837 195.196C434.309 194.772 434.881 194.56 435.551 194.56C435.896 194.56 436.112 194.565 436.201 194.575C436.93 194.693 437.487 194.954 437.871 195.358C438.255 195.762 438.452 196.201 438.462 196.674C438.462 197.186 438.295 197.683 437.96 198.166C437.625 198.649 437.162 198.999 436.57 199.215L436.526 199.245C436.526 199.255 436.57 199.27 436.659 199.289C436.748 199.309 436.891 199.353 437.088 199.422C437.285 199.491 437.472 199.595 437.649 199.733C438.457 200.255 438.861 200.944 438.861 201.801C438.861 202.58 438.556 203.26 437.945 203.841C437.334 204.422 436.561 204.713 435.625 204.713C434.836 204.713 434.157 204.501 433.585 204.077C433.014 203.654 432.728 203.117 432.728 202.466C432.728 202.191 432.817 201.969 432.994 201.801C433.172 201.634 433.393 201.545 433.659 201.535C433.935 201.535 434.162 201.624 434.339 201.801C434.516 201.979 434.605 202.2 434.605 202.466C434.605 202.575 434.59 202.673 434.561 202.762C434.531 202.851 434.497 202.93 434.457 202.998C434.418 203.067 434.364 203.127 434.295 203.176C434.226 203.225 434.167 203.264 434.117 203.294C434.068 203.324 434.019 203.343 433.97 203.353C433.92 203.363 433.881 203.378 433.851 203.397L433.792 203.412C434.295 203.856 434.905 204.077 435.625 204.077C436.167 204.077 436.575 203.816 436.851 203.294C437.019 202.969 437.102 202.471 437.102 201.801V201.506C437.102 200.57 436.787 199.944 436.157 199.629C436.009 199.57 435.708 199.536 435.255 199.526L434.635 199.511L434.59 199.481C434.57 199.452 434.561 199.373 434.561 199.245C434.561 199.068 434.6 198.979 434.679 198.979C434.955 198.979 435.24 198.954 435.536 198.905C435.871 198.856 436.176 198.649 436.452 198.284C436.728 197.92 436.866 197.368 436.866 196.629V196.511C436.866 195.949 436.694 195.56 436.349 195.344C436.132 195.206 435.9 195.137 435.654 195.137C435.339 195.137 435.048 195.191 434.782 195.299C434.516 195.408 434.329 195.521 434.221 195.639C434.112 195.757 434.058 195.816 434.058 195.816H434.103C434.132 195.826 434.171 195.836 434.221 195.846C434.27 195.856 434.319 195.88 434.369 195.92C434.418 195.959 434.477 195.994 434.546 196.023C434.615 196.053 434.664 196.107 434.694 196.186C434.723 196.265 434.763 196.339 434.812 196.408C434.861 196.476 434.876 196.575 434.856 196.703C434.856 196.92 434.787 197.112 434.649 197.279C434.511 197.447 434.29 197.536 433.984 197.545Z" fill="#B3BFD8"/>
<path d="M511 106.241C511.014 106.157 511.035 106.046 511.063 105.907C511.091 105.767 511.174 105.502 511.314 105.112C511.453 104.722 511.592 104.395 511.732 104.13C511.871 103.865 512.101 103.607 512.421 103.356C512.742 103.106 513.062 102.987 513.383 103.001C513.885 103.001 514.303 103.127 514.637 103.377C514.971 103.628 515.18 103.865 515.264 104.088C515.348 104.311 515.389 104.457 515.389 104.527C515.389 104.555 515.396 104.569 515.41 104.569L515.64 104.339C516.49 103.447 517.459 103.001 518.546 103.001C519.298 103.001 519.904 103.189 520.364 103.565C520.824 103.942 521.061 104.492 521.075 105.217C521.089 105.941 520.824 107.035 520.281 108.498C519.737 109.962 519.472 110.846 519.486 111.153C519.486 111.515 519.605 111.696 519.842 111.696C519.925 111.696 519.988 111.689 520.03 111.676C520.434 111.606 520.796 111.341 521.117 110.881C521.437 110.421 521.681 109.864 521.848 109.209C521.876 109.098 522.016 109.042 522.266 109.042C522.545 109.042 522.684 109.098 522.684 109.209C522.684 109.223 522.657 109.328 522.601 109.523C522.489 109.927 522.336 110.324 522.141 110.714C521.946 111.104 521.625 111.494 521.179 111.885C520.733 112.275 520.253 112.463 519.737 112.449C519.082 112.449 518.608 112.261 518.316 111.885C518.023 111.508 517.877 111.118 517.877 110.714C517.877 110.449 518.128 109.613 518.629 108.206C519.131 106.798 519.389 105.739 519.403 105.029C519.403 104.206 519.096 103.795 518.483 103.795H518.379C517.18 103.795 516.17 104.499 515.348 105.907L515.201 106.157L514.512 108.958C514.052 110.784 513.787 111.766 513.717 111.905C513.536 112.282 513.237 112.47 512.818 112.47C512.637 112.47 512.491 112.428 512.38 112.344C512.268 112.261 512.191 112.177 512.15 112.094C512.108 112.01 512.094 111.94 512.108 111.885C512.108 111.703 512.373 110.568 512.902 108.477C513.432 106.387 513.71 105.252 513.738 105.07C513.752 105.001 513.759 104.841 513.759 104.59C513.759 104.046 513.592 103.774 513.257 103.774C512.728 103.774 512.289 104.471 511.941 105.865C511.857 106.143 511.815 106.29 511.815 106.304C511.787 106.387 511.655 106.429 511.418 106.429H511.125C511.042 106.345 511 106.283 511 106.241Z" fill="#B3BFD8"/>
<path d="M529.935 115.388C529.758 115.358 529.122 115.343 528.029 115.343C526.886 115.343 526.226 115.358 526.048 115.388H525.915V114.708H526.373C526.57 114.708 526.703 114.708 526.772 114.708C526.841 114.708 526.925 114.698 527.024 114.678C527.122 114.659 527.191 114.634 527.231 114.604C527.27 114.575 527.304 114.535 527.334 114.486C527.344 114.466 527.349 114.2 527.349 113.688V112.949H523.521V112.269L525.753 108.856C527.26 106.57 528.024 105.422 528.043 105.413C528.063 105.393 528.166 105.383 528.354 105.383H528.62L528.708 105.472V112.269H530.068V112.949H528.708V113.703C528.708 114.107 528.708 114.343 528.708 114.412C528.708 114.481 528.738 114.54 528.797 114.59C528.876 114.659 529.157 114.698 529.639 114.708H530.068V115.388H529.935ZM527.437 112.269V107.334L524.201 112.255L525.812 112.269H527.437Z" fill="#B3BFD8"/>
<path d="M419 17.241C419.014 17.1573 419.035 17.0459 419.063 16.9065C419.091 16.7672 419.174 16.5024 419.314 16.1122C419.453 15.7221 419.592 15.3946 419.732 15.1298C419.871 14.8651 420.101 14.6073 420.421 14.3564C420.742 14.1056 421.062 13.9872 421.383 14.0011C421.885 14.0011 422.303 14.1265 422.637 14.3773C422.971 14.6282 423.18 14.8651 423.264 15.088C423.348 15.311 423.389 15.4573 423.389 15.527C423.389 15.5548 423.396 15.5688 423.41 15.5688L423.64 15.3388C424.49 14.447 425.459 14.0011 426.546 14.0011C427.298 14.0011 427.904 14.1892 428.364 14.5655C428.824 14.9417 429.061 15.4921 429.075 16.2167C429.089 16.9414 428.824 18.0352 428.281 19.4984C427.737 20.9616 427.472 21.8464 427.486 22.153C427.486 22.5153 427.605 22.6964 427.842 22.6964C427.925 22.6964 427.988 22.6895 428.03 22.6755C428.434 22.6059 428.796 22.3411 429.117 21.8813C429.437 21.4214 429.681 20.864 429.848 20.2091C429.876 20.0976 430.016 20.0419 430.266 20.0419C430.545 20.0419 430.684 20.0976 430.684 20.2091C430.684 20.223 430.657 20.3275 430.601 20.5226C430.489 20.9267 430.336 21.3239 430.141 21.714C429.946 22.1042 429.625 22.4944 429.179 22.8846C428.733 23.2747 428.253 23.4629 427.737 23.4489C427.082 23.4489 426.608 23.2608 426.316 22.8846C426.023 22.5083 425.877 22.1182 425.877 21.714C425.877 21.4493 426.128 20.6132 426.629 19.2058C427.131 17.7983 427.389 16.7393 427.403 16.0286C427.403 15.2065 427.096 14.7954 426.483 14.7954H426.379C425.18 14.7954 424.17 15.4991 423.348 16.9065L423.201 17.1573L422.512 19.9583C422.052 21.7837 421.787 22.7661 421.717 22.9055C421.536 23.2817 421.237 23.4698 420.818 23.4698C420.637 23.4698 420.491 23.428 420.38 23.3444C420.268 23.2608 420.191 23.1772 420.15 23.0936C420.108 23.01 420.094 22.9403 420.108 22.8846C420.108 22.7034 420.373 21.5677 420.902 19.4775C421.432 17.3873 421.71 16.2516 421.738 16.0704C421.752 16.0008 421.759 15.8405 421.759 15.5897C421.759 15.0462 421.592 14.7745 421.257 14.7745C420.728 14.7745 420.289 15.4712 419.941 16.8647C419.857 17.1434 419.815 17.2897 419.815 17.3037C419.787 17.3873 419.655 17.4291 419.418 17.4291H419.125C419.042 17.3455 419 17.2828 419 17.241Z" fill="#B3BFD8"/>
<path d="M433.531 24.0675C433.531 24.3039 433.452 24.501 433.295 24.6586C433.137 24.8162 432.945 24.895 432.718 24.895H432.615C433.068 25.6733 433.669 26.0625 434.418 26.0625C435.107 26.0625 435.61 25.7669 435.925 25.1758C436.112 24.8507 436.206 24.2202 436.206 23.2842C436.206 22.2695 436.073 21.5848 435.807 21.2301C435.551 20.905 435.265 20.7424 434.95 20.7424H434.861C434.093 20.7424 433.511 21.0774 433.117 21.7473C433.078 21.8163 433.043 21.8557 433.014 21.8656C432.984 21.8754 432.91 21.8853 432.792 21.8951C432.625 21.8951 432.531 21.8656 432.511 21.8065C432.492 21.767 432.482 20.905 432.482 19.2203V17.314C432.482 16.8214 432.506 16.5751 432.556 16.5751C432.575 16.5554 432.595 16.5455 432.615 16.5455C432.625 16.5455 432.728 16.5849 432.925 16.6637C433.122 16.7426 433.393 16.8214 433.738 16.9002C434.083 16.979 434.452 17.0184 434.846 17.0184C435.546 17.0184 436.216 16.8805 436.856 16.6046C436.935 16.5652 436.999 16.5455 437.048 16.5455C437.127 16.5455 437.166 16.6342 437.166 16.8115V17.0036C436.359 17.9593 435.349 18.4371 434.137 18.4371C433.832 18.4371 433.556 18.4075 433.309 18.3484L433.162 18.3189V20.8607C433.349 20.7227 433.497 20.6144 433.605 20.5356C433.713 20.4567 433.891 20.3779 434.137 20.2991C434.383 20.2203 434.634 20.1809 434.891 20.1809C435.689 20.1809 436.364 20.5011 436.915 21.1414C437.467 21.7818 437.743 22.5404 437.743 23.4172C437.743 24.3236 437.428 25.097 436.797 25.7374C436.166 26.3778 435.398 26.7029 434.492 26.7127C433.694 26.7127 433.053 26.4467 432.571 25.9147C432.088 25.3827 431.846 24.7817 431.846 24.1118C431.846 23.8754 431.901 23.6882 432.009 23.5502C432.117 23.4123 432.231 23.3237 432.349 23.2842C432.467 23.2448 432.58 23.2251 432.689 23.2251C432.935 23.2251 433.137 23.3089 433.295 23.4764C433.452 23.6438 433.531 23.8409 433.531 24.0675Z" fill="#B3BFD8"/>
<path d="M265 14.241C265.014 14.1573 265.035 14.0459 265.063 13.9065C265.091 13.7672 265.174 13.5024 265.314 13.1122C265.453 12.7221 265.592 12.3946 265.732 12.1298C265.871 11.8651 266.101 11.6073 266.421 11.3564C266.742 11.1056 267.062 10.9872 267.383 11.0011C267.885 11.0011 268.303 11.1265 268.637 11.3773C268.971 11.6282 269.18 11.8651 269.264 12.088C269.348 12.311 269.389 12.4573 269.389 12.527C269.389 12.5548 269.396 12.5688 269.41 12.5688L269.64 12.3388C270.49 11.447 271.459 11.0011 272.546 11.0011C273.298 11.0011 273.904 11.1892 274.364 11.5655C274.824 11.9417 275.061 12.4921 275.075 13.2167C275.089 13.9414 274.824 15.0352 274.281 16.4984C273.737 17.9616 273.472 18.8464 273.486 19.153C273.486 19.5153 273.605 19.6964 273.842 19.6964C273.925 19.6964 273.988 19.6895 274.03 19.6755C274.434 19.6059 274.796 19.3411 275.117 18.8813C275.437 18.4214 275.681 17.864 275.848 17.2091C275.876 17.0976 276.015 17.0419 276.266 17.0419C276.545 17.0419 276.684 17.0976 276.684 17.2091C276.684 17.223 276.657 17.3275 276.601 17.5226C276.489 17.9267 276.336 18.3239 276.141 18.714C275.946 19.1042 275.625 19.4944 275.179 19.8846C274.733 20.2747 274.253 20.4629 273.737 20.4489C273.082 20.4489 272.608 20.2608 272.316 19.8846C272.023 19.5083 271.877 19.1182 271.877 18.714C271.877 18.4493 272.128 17.6132 272.629 16.2058C273.131 14.7983 273.389 13.7393 273.403 13.0286C273.403 12.2065 273.096 11.7954 272.483 11.7954H272.379C271.18 11.7954 270.17 12.4991 269.348 13.9065L269.201 14.1573L268.512 16.9583C268.052 18.7837 267.787 19.7661 267.717 19.9055C267.536 20.2817 267.237 20.4698 266.818 20.4698C266.637 20.4698 266.491 20.428 266.38 20.3444C266.268 20.2608 266.191 20.1772 266.15 20.0936C266.108 20.01 266.094 19.9403 266.108 19.8846C266.108 19.7034 266.373 18.5677 266.902 16.4775C267.432 14.3873 267.71 13.2516 267.738 13.0704C267.752 13.0008 267.759 12.8405 267.759 12.5897C267.759 12.0462 267.592 11.7745 267.257 11.7745C266.728 11.7745 266.289 12.4712 265.941 13.8647C265.857 14.1434 265.815 14.2897 265.815 14.3037C265.787 14.3873 265.655 14.4291 265.418 14.4291H265.125C265.042 14.3455 265 14.2828 265 14.241Z" fill="#B3BFD8"/>
<path d="M277.92 16.6193C277.93 16.5996 278.014 16.0627 278.172 15.0085L278.408 13.4273C278.408 13.4076 278.506 13.3977 278.704 13.3977H278.999V13.4568C278.999 13.5554 279.073 13.6391 279.221 13.7081C279.369 13.777 279.625 13.8214 279.989 13.8411C280.354 13.8608 281.186 13.8706 282.487 13.8706H284.275V14.447L283.27 15.8213C283.181 15.9395 283.033 16.1366 282.827 16.4124C282.62 16.6883 282.487 16.8705 282.428 16.9592C282.368 17.0479 282.265 17.2055 282.117 17.4321C281.969 17.6587 281.871 17.836 281.822 17.9641C281.772 18.0922 281.703 18.2744 281.615 18.5109C281.526 18.7473 281.462 18.9739 281.423 19.1907C281.383 19.4074 281.344 19.6734 281.304 19.9887C281.265 20.3039 281.235 20.6389 281.216 20.9936C281.196 21.3483 281.181 21.7522 281.171 22.2054C281.171 22.3433 281.171 22.4812 281.171 22.6192C281.171 22.7571 281.166 22.8753 281.157 22.9738V23.1068C281.117 23.2743 281.024 23.4172 280.876 23.5354C280.728 23.6536 280.561 23.7127 280.373 23.7127C280.265 23.7127 280.162 23.6979 280.063 23.6684C279.965 23.6388 279.861 23.5452 279.753 23.3876C279.644 23.23 279.59 23.0329 279.59 22.7965C279.59 21.2399 280.068 19.6242 281.024 17.9493C281.221 17.6341 281.634 17.038 282.265 16.1612L282.945 15.2302H281.57C279.856 15.2302 278.955 15.2598 278.866 15.3189C278.807 15.3484 278.753 15.4666 278.704 15.6735C278.654 15.8804 278.605 16.0922 278.556 16.309L278.511 16.6193V16.6637H277.92V16.6193Z" fill="#B3BFD8"/>
<path d="M341 57.241C341.014 57.1573 341.035 57.0459 341.063 56.9065C341.091 56.7672 341.174 56.5024 341.314 56.1122C341.453 55.7221 341.592 55.3946 341.732 55.1298C341.871 54.8651 342.101 54.6073 342.421 54.3564C342.742 54.1056 343.062 53.9872 343.383 54.0011C343.885 54.0011 344.303 54.1265 344.637 54.3773C344.971 54.6282 345.18 54.8651 345.264 55.088C345.348 55.311 345.389 55.4573 345.389 55.527C345.389 55.5548 345.396 55.5688 345.41 55.5688L345.64 55.3388C346.49 54.447 347.459 54.0011 348.546 54.0011C349.298 54.0011 349.904 54.1892 350.364 54.5655C350.824 54.9417 351.061 55.4921 351.075 56.2167C351.089 56.9414 350.824 58.0352 350.281 59.4984C349.737 60.9616 349.472 61.8464 349.486 62.153C349.486 62.5153 349.605 62.6964 349.842 62.6964C349.925 62.6964 349.988 62.6895 350.03 62.6755C350.434 62.6059 350.796 62.3411 351.117 61.8813C351.437 61.4214 351.681 60.864 351.848 60.2091C351.876 60.0976 352.016 60.0419 352.266 60.0419C352.545 60.0419 352.684 60.0976 352.684 60.2091C352.684 60.223 352.657 60.3275 352.601 60.5226C352.489 60.9267 352.336 61.3239 352.141 61.714C351.946 62.1042 351.625 62.4944 351.179 62.8846C350.733 63.2747 350.253 63.4629 349.737 63.4489C349.082 63.4489 348.608 63.2608 348.316 62.8846C348.023 62.5083 347.877 62.1182 347.877 61.714C347.877 61.4493 348.128 60.6132 348.629 59.2058C349.131 57.7983 349.389 56.7393 349.403 56.0286C349.403 55.2065 349.096 54.7954 348.483 54.7954H348.379C347.18 54.7954 346.17 55.4991 345.348 56.9065L345.201 57.1573L344.512 59.9583C344.052 61.7837 343.787 62.7661 343.717 62.9055C343.536 63.2817 343.237 63.4698 342.818 63.4698C342.637 63.4698 342.491 63.428 342.38 63.3444C342.268 63.2608 342.191 63.1772 342.15 63.0936C342.108 63.01 342.094 62.9403 342.108 62.8846C342.108 62.7034 342.373 61.5677 342.902 59.4775C343.432 57.3873 343.71 56.2516 343.738 56.0704C343.752 56.0008 343.759 55.8405 343.759 55.5897C343.759 55.0462 343.592 54.7745 343.257 54.7745C342.728 54.7745 342.289 55.4712 341.941 56.8647C341.857 57.1434 341.815 57.2897 341.815 57.3037C341.787 57.3873 341.655 57.4291 341.418 57.4291H341.125C341.042 57.3455 341 57.2828 341 57.241Z" fill="#B3BFD8"/>
<path d="M353.728 61.7621C353.728 60.1563 354.127 58.8853 354.925 57.9494C355.723 57.0135 356.61 56.5455 357.585 56.5455C358.265 56.5455 358.753 56.7228 359.048 57.0775C359.344 57.4322 359.492 57.8263 359.492 58.2598C359.492 58.506 359.423 58.7031 359.285 58.8509C359.147 58.9986 358.955 59.0725 358.708 59.0725C358.482 59.0725 358.295 59.0036 358.147 58.8656C357.999 58.7277 357.925 58.5356 357.925 58.2893C357.925 57.8558 358.157 57.5947 358.62 57.5061C358.403 57.2893 358.098 57.1662 357.703 57.1366C357.004 57.1366 356.428 57.4322 355.974 58.0233C355.511 58.6735 355.28 59.6686 355.28 61.0084L355.295 61.0676C355.344 61.0084 355.383 60.9444 355.413 60.8754C355.817 60.2843 356.344 59.9888 356.994 59.9888H357.053C357.506 59.9888 357.905 60.0824 358.25 60.2695C358.487 60.4075 358.723 60.6045 358.96 60.8607C359.196 61.1168 359.388 61.3976 359.536 61.703C359.743 62.1858 359.846 62.7128 359.846 63.2842V63.5502C359.846 63.7768 359.822 63.9887 359.772 64.1857C359.664 64.767 359.349 65.3334 358.827 65.8852C358.304 66.4369 357.644 66.7127 356.846 66.7127C356.57 66.7127 356.304 66.6733 356.048 66.5945C355.792 66.5157 355.516 66.3679 355.221 66.1512C354.925 65.9344 354.674 65.6438 354.467 65.2793C354.26 64.9147 354.083 64.4369 353.935 63.8458C353.787 63.2547 353.718 62.5601 353.728 61.7621ZM356.905 60.5208C356.61 60.5208 356.354 60.6045 356.137 60.772C355.92 60.9395 355.753 61.1611 355.635 61.437C355.516 61.7129 355.433 61.9936 355.383 62.2793C355.334 62.5651 355.304 62.8705 355.295 63.1956C355.295 64.0133 355.354 64.5995 355.472 64.9541C355.59 65.3088 355.777 65.5945 356.034 65.8113C356.27 65.9886 356.531 66.0773 356.817 66.0773C357.319 66.0773 357.703 65.8901 357.969 65.5157C358.098 65.3384 358.186 65.1167 358.235 64.8507C358.285 64.5847 358.309 64.0675 358.309 63.299C358.309 62.5109 358.285 61.9838 358.235 61.7178C358.186 61.4518 358.098 61.2301 357.969 61.0528C357.703 60.6981 357.349 60.5208 356.905 60.5208Z" fill="#B3BFD8"/>
<path d="M469 149.411C469 156.955 463.141 163 456 163C448.859 163 443 156.955 443 149.411C443 146.059 445.074 142.21 447.94 138.441C450.51 135.061 453.583 131.91 455.991 129.442C455.994 129.439 455.997 129.436 456 129.433C456.003 129.436 456.006 129.439 456.009 129.442C458.417 131.91 461.49 135.061 464.06 138.441C466.926 142.21 469 146.059 469 149.411Z" fill="#0A0D12" stroke="#D9EBFF" stroke-width="2"/>
<line x1="449" y1="150" x2="463" y2="150" stroke="#D9EBFF" stroke-width="2"/>
<line x1="456" y1="143" x2="456" y2="157" stroke="#D9EBFF" stroke-width="2"/>
</svg>
