<svg width="700" height="277" viewBox="0 0 700 277" fill="none" xmlns="http://www.w3.org/2000/svg">
<g clip-path="url(#clip0_145_30)">
<rect width="700" height="277" fill="white"/>
<g clip-path="url(#clip1_145_30)">
<rect width="1284" height="1284" transform="translate(-292.5 -473.25)" fill="#0A0D12"/>
<g opacity="0.4">
<line x1="408.656" y1="-1115.25" x2="408.656" y2="1452.75" stroke="#67DBFF" stroke-width="0.917143"/>
<line x1="467.353" y1="-1115.25" x2="467.353" y2="1452.75" stroke="#67DBFF" stroke-width="0.917143"/>
<line x1="526.05" y1="-1115.25" x2="526.05" y2="1452.75" stroke="#67DBFF" stroke-width="0.917143"/>
<line x1="584.748" y1="-1115.25" x2="584.747" y2="1452.75" stroke="#67DBFF" stroke-width="0.917143"/>
<line x1="643.444" y1="-1115.25" x2="643.444" y2="1452.75" stroke="#67DBFF" stroke-width="0.917143"/>
<line x1="56.4732" y1="-1115.25" x2="56.473" y2="1452.75" stroke="#67DBFF" stroke-width="0.917143"/>
<line x1="115.17" y1="-1115.25" x2="115.169" y2="1452.75" stroke="#67DBFF" stroke-width="0.917143"/>
<line x1="173.867" y1="-1115.25" x2="173.867" y2="1452.75" stroke="#67DBFF" stroke-width="0.917143"/>
<line x1="232.564" y1="-1115.25" x2="232.564" y2="1452.75" stroke="#67DBFF" stroke-width="0.917143"/>
<line x1="291.261" y1="-1115.25" x2="291.261" y2="1452.75" stroke="#67DBFF" stroke-width="0.917143"/>
<line x1="-934.5" y1="109.594" x2="1633.5" y2="109.594" stroke="#67DBFF" stroke-width="0.917143"/>
<line x1="-934.5" y1="50.8971" x2="1633.5" y2="50.8971" stroke="#67DBFF" stroke-width="0.917143"/>
<line x1="-934.5" y1="226.989" x2="1633.5" y2="226.989" stroke="#67DBFF" stroke-width="0.917143"/>
</g>
<line x1="349.959" y1="-1115.25" x2="349.958" y2="1452.75" stroke="#E6E6E6" stroke-width="0.917143"/>
<line x1="-934.5" y1="168.291" x2="1633.5" y2="168.291" stroke="#E6E6E6" stroke-width="0.917143"/>
</g>
<path d="M350 166.75C349.172 166.75 348.5 167.422 348.5 168.25C348.5 169.078 349.172 169.75 350 169.75V166.75ZM409 168.25L394 159.59V176.91L409 168.25ZM350 169.75H395.5V166.75H350V169.75Z" fill="#20C831"/>
<path d="M348.5 168.75C348.5 169.578 349.172 170.25 350 170.25C350.828 170.25 351.5 169.578 351.5 168.75L348.5 168.75ZM350 109.75L341.34 124.75L358.66 124.75L350 109.75ZM351.5 168.75L351.5 123.25L348.5 123.25L348.5 168.75L351.5 168.75Z" fill="#3491FF"/>
<path d="M421.221 144.156C421.221 143.656 421.423 143.219 421.829 142.844C422.235 142.469 422.705 142.271 423.238 142.25C423.623 142.25 423.943 142.375 424.199 142.625C424.456 142.875 424.594 143.188 424.616 143.562C424.616 144.042 424.402 144.479 423.975 144.875C423.548 145.271 423.078 145.479 422.566 145.5C422.246 145.5 421.947 145.396 421.669 145.187C421.391 144.979 421.242 144.635 421.221 144.156ZM416 153.937C416 153.771 416.096 153.448 416.288 152.969C416.48 152.49 416.737 151.958 417.057 151.375C417.377 150.792 417.847 150.26 418.466 149.781C419.085 149.302 419.726 149.073 420.388 149.094C421.221 149.094 421.915 149.333 422.47 149.812C423.025 150.292 423.313 150.937 423.335 151.75C423.335 152.104 423.185 152.687 422.886 153.5C422.587 154.312 422.16 155.406 421.605 156.781C421.05 158.156 420.601 159.333 420.26 160.312C420.153 160.771 420.1 161.104 420.1 161.312C420.1 161.833 420.281 162.094 420.644 162.094C420.836 162.094 421.039 162.062 421.253 162C421.466 161.937 421.712 161.792 421.989 161.562C422.267 161.333 422.555 160.969 422.854 160.469C423.153 159.969 423.42 159.354 423.655 158.625C423.719 158.375 423.772 158.229 423.815 158.187C423.858 158.146 424.039 158.125 424.359 158.125C424.786 158.125 425 158.229 425 158.438C425 158.604 424.904 158.927 424.712 159.406C424.52 159.885 424.253 160.417 423.911 161C423.569 161.583 423.089 162.104 422.47 162.562C421.851 163.021 421.189 163.25 420.484 163.25C419.801 163.25 419.171 163.031 418.594 162.594C418.018 162.156 417.719 161.49 417.698 160.594C417.698 160.24 417.751 159.906 417.858 159.594C417.964 159.281 418.423 158.094 419.235 156.031C420.046 153.927 420.516 152.667 420.644 152.25C420.772 151.833 420.847 151.427 420.868 151.031C420.868 150.531 420.687 150.281 420.324 150.281H420.26C419.619 150.281 419.032 150.625 418.498 151.312C417.964 152 417.559 152.875 417.281 153.937C417.26 153.958 417.238 153.99 417.217 154.031C417.196 154.073 417.185 154.104 417.185 154.125C417.185 154.146 417.164 154.167 417.121 154.188C417.078 154.208 417.046 154.219 417.025 154.219C417.004 154.219 416.961 154.219 416.897 154.219C416.833 154.219 416.747 154.219 416.641 154.219H416.192C416.064 154.094 416 154 416 153.937Z" fill="white"/>
<path d="M364.68 81.2789C364.68 80.6338 364.899 80.1344 365.337 79.7806C365.776 79.4269 366.225 79.25 366.684 79.25C367.039 79.25 367.332 79.354 367.561 79.5621C367.791 79.7702 367.937 80.0616 368 80.4361C368 81.0188 367.802 81.5078 367.405 81.9032C367.008 82.2986 366.549 82.4962 366.027 82.4962C365.651 82.4962 365.337 82.3922 365.087 82.1841C364.836 81.976 364.7 81.6743 364.68 81.2789ZM364.398 88.146C364.398 87.5425 364.126 87.2408 363.583 87.2408C363.124 87.2408 362.685 87.3656 362.267 87.6153C361.85 87.865 361.484 88.1876 361.171 88.5829C360.858 88.9783 360.607 89.3633 360.419 89.7379C360.231 90.1124 360.054 90.4454 359.887 90.7367L359.667 91.1737C359.626 91.1945 359.459 91.2049 359.166 91.2049H358.728C358.602 91.0801 358.54 90.9968 358.54 90.9552C358.54 90.9136 358.582 90.7783 358.665 90.5494C359.104 89.5298 359.72 88.5725 360.513 87.6777C361.307 86.7829 362.226 86.2627 363.27 86.1171C363.291 86.1171 363.374 86.1171 363.52 86.1171C363.667 86.1171 363.792 86.1066 363.896 86.0858C364.398 86.1066 364.857 86.2107 365.275 86.398C365.797 86.6893 366.194 87.0118 366.465 87.3656C366.737 87.7194 366.872 88.2708 366.872 89.0199V89.5194L365.337 95.7309C364.272 99.8928 363.708 102.057 363.646 102.223C363.27 103.264 362.539 104.19 361.453 105.001C360.367 105.813 359.124 106.229 357.725 106.25C356.681 106.25 355.971 106.032 355.595 105.595C355.219 105.158 355.021 104.679 355 104.159C355 103.597 355.198 103.118 355.595 102.723C355.992 102.327 356.472 102.119 357.036 102.099C357.391 102.099 357.694 102.203 357.945 102.411C358.195 102.619 358.331 102.941 358.352 103.378C358.352 104.127 358.018 104.7 357.349 105.095C357.475 105.116 357.621 105.126 357.788 105.126C358.498 105.126 359.145 104.835 359.73 104.252C360.315 103.67 360.764 102.983 361.077 102.192L361.422 100.881C361.651 99.9864 361.923 98.9043 362.236 97.635C362.549 96.3656 362.884 95.065 363.239 93.7332C363.594 92.4014 363.876 91.2465 364.084 90.2685C364.293 89.2905 364.408 88.6974 364.429 88.4893C364.429 88.3436 364.418 88.2292 364.398 88.146Z" fill="white"/>
</g>
<defs>
<clipPath id="clip0_145_30">
<rect width="700" height="277" fill="white"/>
</clipPath>
<clipPath id="clip1_145_30">
<rect width="1284" height="1284" fill="white" transform="translate(-292.5 -473.25)"/>
</clipPath>
</defs>
</svg>
