<svg width="700" height="169" viewBox="0 0 700 169" fill="none" xmlns="http://www.w3.org/2000/svg">
<g clip-path="url(#clip0_104_392)">
<rect width="700" height="169" fill="white"/>
<g clip-path="url(#clip1_104_392)">
<rect width="1284" height="1284" transform="translate(-292.5 -527.25)" fill="#0A0D12"/>
<g opacity="0.4">
<line x1="408.656" y1="-1169.25" x2="408.656" y2="1398.75" stroke="#67DBFF" stroke-width="0.917143"/>
<line x1="467.353" y1="-1169.25" x2="467.353" y2="1398.75" stroke="#67DBFF" stroke-width="0.917143"/>
<line x1="526.05" y1="-1169.25" x2="526.05" y2="1398.75" stroke="#67DBFF" stroke-width="0.917143"/>
<line x1="584.748" y1="-1169.25" x2="584.747" y2="1398.75" stroke="#67DBFF" stroke-width="0.917143"/>
<line x1="643.444" y1="-1169.25" x2="643.444" y2="1398.75" stroke="#67DBFF" stroke-width="0.917143"/>
<line x1="56.4732" y1="-1169.25" x2="56.473" y2="1398.75" stroke="#67DBFF" stroke-width="0.917143"/>
<line x1="115.17" y1="-1169.25" x2="115.169" y2="1398.75" stroke="#67DBFF" stroke-width="0.917143"/>
<line x1="173.867" y1="-1169.25" x2="173.867" y2="1398.75" stroke="#67DBFF" stroke-width="0.917143"/>
<line x1="232.564" y1="-1169.25" x2="232.564" y2="1398.75" stroke="#67DBFF" stroke-width="0.917143"/>
<line x1="291.261" y1="-1169.25" x2="291.261" y2="1398.75" stroke="#67DBFF" stroke-width="0.917143"/>
<line x1="-934.5" y1="55.5943" x2="1633.5" y2="55.5943" stroke="#67DBFF" stroke-width="0.917143"/>
</g>
<line x1="349.959" y1="-1169.25" x2="349.958" y2="1398.75" stroke="#E6E6E6" stroke-width="0.917143"/>
<line x1="-934.5" y1="114.291" x2="1633.5" y2="114.291" stroke="#E6E6E6" stroke-width="0.917143"/>
</g>
<rect x="350.5" y="55.75" width="58" height="58" fill="#18C8FF" fill-opacity="0.3" stroke="#67DBFF"/>
<path d="M350 54.25C349.172 54.25 348.5 54.9216 348.5 55.75C348.5 56.5784 349.172 57.25 350 57.25V54.25ZM409 55.75L394 47.0897V64.4103L409 55.75ZM350 57.25H395.5V54.25H350V57.25Z" fill="#20C831"/>
<path d="M348.5 114.75C348.5 115.578 349.172 116.25 350 116.25C350.828 116.25 351.5 115.578 351.5 114.75L348.5 114.75ZM350 55.75L341.34 70.75L358.66 70.75L350 55.75ZM351.5 114.75L351.5 69.25L348.5 69.25L348.5 114.75L351.5 114.75Z" fill="#3491FF"/>
<path d="M407 114.75C407 115.578 407.672 116.25 408.5 116.25C409.328 116.25 410 115.578 410 114.75L407 114.75ZM408.5 55.75L399.84 70.75L417.16 70.75L408.5 55.75ZM410 114.75L410 69.25L407 69.25L407 114.75L410 114.75Z" fill="#3491FF"/>
<path d="M350 112.75C349.172 112.75 348.5 113.422 348.5 114.25C348.5 115.078 349.172 115.75 350 115.75V112.75ZM409 114.25L394 105.59V122.91L409 114.25ZM350 115.75H395.5V112.75H350V115.75Z" fill="#20C831"/>
</g>
<defs>
<clipPath id="clip0_104_392">
<rect width="700" height="169" fill="white"/>
</clipPath>
<clipPath id="clip1_104_392">
<rect width="1284" height="1284" fill="white" transform="translate(-292.5 -527.25)"/>
</clipPath>
</defs>
</svg>
