<svg width="700" height="290" viewBox="0 0 700 290" fill="none" xmlns="http://www.w3.org/2000/svg">
<g clip-path="url(#clip0_588_6754)">
<rect width="700" height="289" transform="translate(0 0.75)" fill="#0A0D12"/>
<g clip-path="url(#clip1_588_6754)">
<rect width="1284" height="1284" transform="translate(-292.5 -466.75)" fill="#0A0D12"/>
<g opacity="0.4">
<line x1="408.656" y1="-1108.75" x2="408.656" y2="1459.25" stroke="#67DBFF" stroke-width="0.917143"/>
<line x1="467.353" y1="-1108.75" x2="467.353" y2="1459.25" stroke="#67DBFF" stroke-width="0.917143"/>
<line x1="526.05" y1="-1108.75" x2="526.05" y2="1459.25" stroke="#67DBFF" stroke-width="0.917143"/>
<line x1="584.748" y1="-1108.75" x2="584.747" y2="1459.25" stroke="#67DBFF" stroke-width="0.917143"/>
<line x1="643.444" y1="-1108.75" x2="643.444" y2="1459.25" stroke="#67DBFF" stroke-width="0.917143"/>
<line x1="56.4732" y1="-1108.75" x2="56.473" y2="1459.25" stroke="#67DBFF" stroke-width="0.917143"/>
<line x1="115.17" y1="-1108.75" x2="115.169" y2="1459.25" stroke="#67DBFF" stroke-width="0.917143"/>
<line x1="173.867" y1="-1108.75" x2="173.867" y2="1459.25" stroke="#67DBFF" stroke-width="0.917143"/>
<line x1="232.564" y1="-1108.75" x2="232.564" y2="1459.25" stroke="#67DBFF" stroke-width="0.917143"/>
<line x1="291.261" y1="-1108.75" x2="291.261" y2="1459.25" stroke="#67DBFF" stroke-width="0.917143"/>
<line x1="-934.5" y1="116.094" x2="1633.5" y2="116.094" stroke="#67DBFF" stroke-width="0.917143"/>
<line x1="-934.5" y1="57.3971" x2="1633.5" y2="57.3971" stroke="#67DBFF" stroke-width="0.917143"/>
<line x1="-934.5" y1="233.489" x2="1633.5" y2="233.489" stroke="#67DBFF" stroke-width="0.917143"/>
</g>
<line x1="349.959" y1="-1108.75" x2="349.958" y2="1459.25" stroke="#E6E6E6" stroke-width="0.917143"/>
<line x1="-934.5" y1="174.791" x2="1633.5" y2="174.791" stroke="#E6E6E6" stroke-width="0.917143"/>
</g>
<rect x="350.5" y="116.25" width="58" height="58" fill="#18C8FF" fill-opacity="0.3" stroke="#67DBFF"/>
<path d="M350 173.25C349.172 173.25 348.5 173.922 348.5 174.75C348.5 175.578 349.172 176.25 350 176.25V173.25ZM409 174.75L394 166.09V183.41L409 174.75ZM350 176.25H395.5V173.25H350V176.25Z" fill="#20C831"/>
<path d="M348.5 175.25C348.5 176.078 349.172 176.75 350 176.75C350.828 176.75 351.5 176.078 351.5 175.25L348.5 175.25ZM350 116.25L341.34 131.25L358.66 131.25L350 116.25ZM351.5 175.25L351.5 129.75L348.5 129.75L348.5 175.25L351.5 175.25Z" fill="#006AE7"/>
<path d="M421.221 150.656C421.221 150.156 421.423 149.719 421.829 149.344C422.235 148.969 422.705 148.771 423.238 148.75C423.623 148.75 423.943 148.875 424.199 149.125C424.456 149.375 424.594 149.687 424.616 150.062C424.616 150.542 424.402 150.979 423.975 151.375C423.548 151.771 423.078 151.979 422.566 152C422.246 152 421.947 151.896 421.669 151.687C421.391 151.479 421.242 151.135 421.221 150.656ZM416 160.437C416 160.271 416.096 159.948 416.288 159.469C416.48 158.99 416.737 158.458 417.057 157.875C417.377 157.292 417.847 156.76 418.466 156.281C419.085 155.802 419.726 155.573 420.388 155.594C421.221 155.594 421.915 155.833 422.47 156.312C423.025 156.792 423.313 157.437 423.335 158.25C423.335 158.604 423.185 159.187 422.886 160C422.587 160.812 422.16 161.906 421.605 163.281C421.05 164.656 420.601 165.833 420.26 166.812C420.153 167.271 420.1 167.604 420.1 167.812C420.1 168.333 420.281 168.594 420.644 168.594C420.836 168.594 421.039 168.562 421.253 168.5C421.466 168.437 421.712 168.292 421.989 168.062C422.267 167.833 422.555 167.469 422.854 166.969C423.153 166.469 423.42 165.854 423.655 165.125C423.719 164.875 423.772 164.729 423.815 164.687C423.858 164.646 424.039 164.625 424.359 164.625C424.786 164.625 425 164.729 425 164.937C425 165.104 424.904 165.427 424.712 165.906C424.52 166.385 424.253 166.917 423.911 167.5C423.569 168.083 423.089 168.604 422.47 169.062C421.851 169.521 421.189 169.75 420.484 169.75C419.801 169.75 419.171 169.531 418.594 169.094C418.018 168.656 417.719 167.99 417.698 167.094C417.698 166.74 417.751 166.406 417.858 166.094C417.964 165.781 418.423 164.594 419.235 162.531C420.046 160.427 420.516 159.167 420.644 158.75C420.772 158.333 420.847 157.927 420.868 157.531C420.868 157.031 420.687 156.781 420.324 156.781H420.26C419.619 156.781 419.032 157.125 418.498 157.812C417.964 158.5 417.559 159.375 417.281 160.437C417.26 160.458 417.238 160.49 417.217 160.531C417.196 160.573 417.185 160.604 417.185 160.625C417.185 160.646 417.164 160.667 417.121 160.687C417.078 160.708 417.046 160.719 417.025 160.719C417.004 160.719 416.961 160.719 416.897 160.719C416.833 160.719 416.747 160.719 416.641 160.719H416.192C416.064 160.594 416 160.5 416 160.437Z" fill="white"/>
<path d="M364.68 87.7789C364.68 87.1338 364.899 86.6344 365.337 86.2806C365.776 85.9269 366.225 85.75 366.684 85.75C367.039 85.75 367.332 85.854 367.561 86.0621C367.791 86.2702 367.937 86.5616 368 86.9361C368 87.5188 367.802 88.0078 367.405 88.4032C367.008 88.7986 366.549 88.9962 366.027 88.9962C365.651 88.9962 365.337 88.8922 365.087 88.6841C364.836 88.476 364.7 88.1743 364.68 87.7789ZM364.398 94.646C364.398 94.0425 364.126 93.7408 363.583 93.7408C363.124 93.7408 362.685 93.8656 362.267 94.1153C361.85 94.365 361.484 94.6876 361.171 95.0829C360.858 95.4783 360.607 95.8633 360.419 96.2379C360.231 96.6124 360.054 96.9454 359.887 97.2367L359.667 97.6737C359.626 97.6945 359.459 97.7049 359.166 97.7049H358.728C358.602 97.5801 358.54 97.4968 358.54 97.4552C358.54 97.4136 358.582 97.2783 358.665 97.0494C359.104 96.0298 359.72 95.0725 360.513 94.1777C361.307 93.2829 362.226 92.7627 363.27 92.6171C363.291 92.6171 363.374 92.6171 363.52 92.6171C363.667 92.6171 363.792 92.6066 363.896 92.5858C364.398 92.6066 364.857 92.7107 365.275 92.898C365.797 93.1893 366.194 93.5119 366.465 93.8656C366.737 94.2194 366.872 94.7708 366.872 95.5199V96.0194L365.337 102.231C364.272 106.393 363.708 108.557 363.646 108.723C363.27 109.764 362.539 110.69 361.453 111.501C360.367 112.313 359.124 112.729 357.725 112.75C356.681 112.75 355.971 112.532 355.595 112.095C355.219 111.658 355.021 111.179 355 110.659C355 110.097 355.198 109.618 355.595 109.223C355.992 108.827 356.472 108.619 357.036 108.599C357.391 108.599 357.694 108.703 357.945 108.911C358.195 109.119 358.331 109.441 358.352 109.878C358.352 110.627 358.018 111.2 357.349 111.595C357.475 111.616 357.621 111.626 357.788 111.626C358.498 111.626 359.145 111.335 359.73 110.752C360.315 110.17 360.764 109.483 361.077 108.692L361.422 107.381C361.651 106.486 361.923 105.404 362.236 104.135C362.549 102.866 362.884 101.565 363.239 100.233C363.594 98.9014 363.876 97.7465 364.084 96.7685C364.293 95.7905 364.408 95.1974 364.429 94.9893C364.429 94.8436 364.418 94.7292 364.398 94.646Z" fill="white"/>
<g clip-path="url(#clip2_588_6754)">
<path d="M219.036 211.082C219.036 208.921 219.821 206.868 221.39 204.921C222.96 202.975 224.725 201.991 226.687 201.969C227.74 201.969 228.67 202.493 229.475 203.541C229.805 202.9 230.28 202.579 230.9 202.579C231.168 202.579 231.406 202.664 231.612 202.836C231.819 203.007 231.922 203.221 231.922 203.477C231.922 203.755 231.54 205.467 230.776 208.611C230.012 211.755 229.62 213.531 229.599 213.937C229.599 214.472 229.671 214.825 229.816 214.996C229.96 215.167 230.177 215.263 230.466 215.285C230.652 215.263 230.859 215.167 231.086 214.996C231.519 214.568 231.943 213.541 232.356 211.916C232.48 211.488 232.583 211.263 232.666 211.242C232.707 211.221 232.81 211.21 232.975 211.21H233.099C233.492 211.21 233.688 211.306 233.688 211.499C233.688 211.627 233.636 211.916 233.533 212.365C233.43 212.814 233.223 213.392 232.913 214.098C232.604 214.803 232.273 215.338 231.922 215.702C231.654 215.98 231.323 216.205 230.931 216.376C230.766 216.418 230.518 216.44 230.187 216.44C229.485 216.44 228.897 216.279 228.422 215.959C227.947 215.638 227.637 215.306 227.493 214.964L227.307 214.483C227.286 214.461 227.245 214.472 227.183 214.515C227.142 214.557 227.1 214.6 227.059 214.643C225.841 215.841 224.601 216.44 223.342 216.44C222.206 216.44 221.204 216.012 220.337 215.156C219.47 214.301 219.036 212.942 219.036 211.082ZM228.886 205.595C228.886 205.467 228.835 205.231 228.732 204.889C228.628 204.547 228.391 204.172 228.019 203.766C227.647 203.36 227.172 203.146 226.594 203.124C225.871 203.124 225.18 203.456 224.519 204.119C223.858 204.782 223.342 205.648 222.97 206.718C222.371 208.408 221.948 210.162 221.7 211.98C221.7 212.044 221.7 212.162 221.7 212.333C221.7 212.504 221.69 212.632 221.669 212.718C221.669 213.68 221.855 214.344 222.227 214.707C222.598 215.071 223.042 215.263 223.559 215.285C224.343 215.285 225.118 214.932 225.882 214.226C226.646 213.52 227.1 212.975 227.245 212.59C227.286 212.504 227.565 211.36 228.081 209.156C228.597 206.953 228.866 205.766 228.886 205.595Z" fill="#D9EBFF"/>
<path d="M235.05 206.91C235.07 206.846 235.091 206.761 235.112 206.654C235.132 206.547 235.184 206.311 235.267 205.948C235.349 205.584 235.452 205.253 235.576 204.953C235.7 204.654 235.855 204.301 236.041 203.894C236.227 203.488 236.433 203.167 236.661 202.932C236.888 202.697 237.156 202.461 237.466 202.226C237.776 201.991 238.116 201.894 238.488 201.937C239.087 201.937 239.614 202.066 240.068 202.322C240.522 202.579 240.842 202.814 241.028 203.028C241.214 203.242 241.328 203.456 241.369 203.67C241.41 203.798 241.441 203.862 241.462 203.862C241.482 203.862 241.565 203.787 241.71 203.638C242.701 202.525 243.847 201.969 245.148 201.969H245.241C246.232 201.969 246.976 202.408 247.471 203.285C247.636 203.691 247.719 204.087 247.719 204.472C247.719 205.114 247.585 205.627 247.316 206.012C247.048 206.397 246.779 206.643 246.511 206.75C246.242 206.857 245.984 206.9 245.737 206.878C245.323 206.878 244.993 206.761 244.745 206.525C244.497 206.29 244.374 205.98 244.374 205.595C244.374 204.568 244.952 203.884 246.108 203.541C245.654 203.263 245.282 203.124 244.993 203.124C243.837 203.124 242.773 203.916 241.803 205.499C241.596 205.841 241.441 206.194 241.338 206.557C241.235 206.921 240.884 208.344 240.285 210.825C239.583 213.82 239.18 215.413 239.077 215.606C238.808 216.183 238.364 216.472 237.745 216.472C237.476 216.472 237.259 216.408 237.094 216.279C236.929 216.151 236.815 216.023 236.753 215.894C236.692 215.766 236.671 215.659 236.692 215.574C236.692 215.295 237.105 213.456 237.931 210.055C238.757 206.654 239.17 204.761 239.17 204.376C239.17 203.541 238.901 203.124 238.364 203.124C237.931 203.124 237.559 203.424 237.249 204.023C236.939 204.622 236.692 205.274 236.506 205.98C236.32 206.686 236.206 207.071 236.165 207.135C236.124 207.178 235.958 207.199 235.669 207.199H235.236C235.112 207.071 235.05 206.975 235.05 206.91Z" fill="#D9EBFF"/>
<path d="M249.578 210.729C249.578 209.509 249.774 208.397 250.167 207.392C250.559 206.386 251.065 205.552 251.684 204.889C252.304 204.226 252.996 203.67 253.76 203.221C254.524 202.771 255.247 202.44 255.928 202.226C256.61 202.012 257.26 201.916 257.88 201.937H257.973C258.902 201.937 259.707 202.172 260.389 202.643C261.07 203.114 261.411 203.809 261.411 204.729C261.411 206.654 260.265 207.916 257.973 208.515C256.961 208.793 255.577 208.943 253.822 208.964C253.058 208.964 252.665 208.985 252.645 209.028C252.645 209.071 252.583 209.445 252.459 210.151C252.335 210.857 252.263 211.477 252.242 212.012C252.242 213.017 252.459 213.809 252.893 214.386C253.326 214.964 253.977 215.263 254.844 215.285C255.711 215.306 256.672 215.103 257.725 214.675C258.778 214.247 259.728 213.541 260.575 212.557C260.76 212.344 260.884 212.237 260.946 212.237C261.029 212.237 261.163 212.333 261.349 212.525C261.535 212.718 261.638 212.868 261.659 212.975C261.679 213.082 261.586 213.253 261.38 213.488C261.173 213.723 260.864 214.012 260.451 214.354C260.038 214.697 259.563 215.028 259.026 215.349C258.489 215.67 257.838 215.937 257.074 216.151C256.31 216.365 255.526 216.472 254.72 216.472C253.089 216.472 251.829 215.905 250.941 214.771C250.053 213.638 249.599 212.29 249.578 210.729ZM259.924 204.793C259.8 203.68 259.098 203.124 257.818 203.124C257.136 203.124 256.506 203.274 255.928 203.574C255.35 203.873 254.885 204.237 254.534 204.664C254.183 205.092 253.884 205.531 253.636 205.98C253.388 206.429 253.223 206.814 253.14 207.135C253.058 207.456 253.006 207.659 252.985 207.745C252.985 207.766 253.192 207.777 253.605 207.777C255.939 207.777 257.57 207.52 258.499 207.007C259.428 206.493 259.903 205.755 259.924 204.793Z" fill="#D9EBFF"/>
<path d="M263.827 211.082C263.827 208.921 264.612 206.868 266.181 204.921C267.751 202.975 269.516 201.991 271.478 201.969C272.531 201.969 273.461 202.493 274.266 203.541C274.596 202.9 275.071 202.579 275.691 202.579C275.959 202.579 276.197 202.664 276.403 202.836C276.61 203.007 276.713 203.221 276.713 203.477C276.713 203.755 276.331 205.467 275.567 208.611C274.803 211.755 274.411 213.531 274.39 213.937C274.39 214.472 274.462 214.825 274.607 214.996C274.751 215.167 274.968 215.263 275.257 215.285C275.443 215.263 275.65 215.167 275.877 214.996C276.31 214.568 276.734 213.541 277.147 211.916C277.271 211.488 277.374 211.263 277.457 211.242C277.498 211.221 277.601 211.21 277.766 211.21H277.89C278.283 211.21 278.479 211.306 278.479 211.499C278.479 211.627 278.427 211.916 278.324 212.365C278.221 212.814 278.014 213.392 277.704 214.098C277.395 214.803 277.064 215.338 276.713 215.702C276.445 215.98 276.114 216.205 275.722 216.376C275.557 216.418 275.309 216.44 274.978 216.44C274.276 216.44 273.688 216.279 273.213 215.959C272.738 215.638 272.428 215.306 272.284 214.964L272.098 214.483C272.077 214.461 272.036 214.472 271.974 214.515C271.933 214.557 271.891 214.6 271.85 214.643C270.632 215.841 269.392 216.44 268.133 216.44C266.997 216.44 265.995 216.012 265.128 215.156C264.261 214.301 263.827 212.942 263.827 211.082ZM273.678 205.595C273.678 205.467 273.626 205.231 273.523 204.889C273.419 204.547 273.182 204.172 272.81 203.766C272.438 203.36 271.963 203.146 271.385 203.124C270.663 203.124 269.971 203.456 269.31 204.119C268.649 204.782 268.133 205.648 267.761 206.718C267.162 208.408 266.739 210.162 266.491 211.98C266.491 212.044 266.491 212.162 266.491 212.333C266.491 212.504 266.481 212.632 266.46 212.718C266.46 213.68 266.646 214.344 267.018 214.707C267.389 215.071 267.833 215.263 268.35 215.285C269.134 215.285 269.909 214.932 270.673 214.226C271.437 213.52 271.891 212.975 272.036 212.59C272.077 212.504 272.356 211.36 272.872 209.156C273.388 206.953 273.657 205.766 273.678 205.595Z" fill="#D9EBFF"/>
<path d="M289.53 204.985C289.53 204.707 289.675 204.493 289.964 204.344H309.696C310.005 204.515 310.16 204.729 310.16 204.985C310.16 205.221 310.016 205.424 309.727 205.595L299.876 205.627H290.026C289.695 205.52 289.53 205.306 289.53 204.985ZM289.53 211.21C289.53 210.889 289.695 210.675 290.026 210.568H309.727C310.016 210.782 310.16 210.996 310.16 211.21C310.16 211.488 310.005 211.702 309.696 211.852H289.964C289.675 211.702 289.53 211.488 289.53 211.21Z" fill="#D9EBFF"/>
<path d="M327.099 197.574L326.696 197.734C326.407 197.841 325.994 197.948 325.457 198.055C324.92 198.162 324.322 198.237 323.661 198.279H323.072V196.803H323.661C324.631 196.761 325.53 196.6 326.356 196.322C327.182 196.044 327.76 195.787 328.09 195.552C328.421 195.317 328.71 195.082 328.958 194.846C328.999 194.782 329.123 194.75 329.329 194.75C329.515 194.75 329.691 194.814 329.856 194.942V204.536L329.887 214.162C330.032 214.311 330.155 214.408 330.259 214.451C330.362 214.493 330.61 214.536 331.002 214.579C331.394 214.622 332.035 214.643 332.923 214.643H333.728V216.119H333.387C332.954 216.055 331.312 216.023 328.462 216.023C325.654 216.023 324.033 216.055 323.599 216.119H323.227V214.643H324.033C324.487 214.643 324.879 214.643 325.21 214.643C325.54 214.643 325.798 214.632 325.984 214.611C326.17 214.59 326.335 214.557 326.48 214.515C326.624 214.472 326.707 214.451 326.727 214.451C326.748 214.451 326.81 214.397 326.913 214.29C327.017 214.183 327.078 214.14 327.099 214.162V197.574Z" fill="#D9EBFF"/>
</g>
</g>
<defs>
<clipPath id="clip0_588_6754">
<rect width="700" height="289" fill="white" transform="translate(0 0.75)"/>
</clipPath>
<clipPath id="clip1_588_6754">
<rect width="1284" height="1284" fill="white" transform="translate(-292.5 -466.75)"/>
</clipPath>
<clipPath id="clip2_588_6754">
<rect width="118" height="24" fill="white" transform="translate(218 194.75)"/>
</clipPath>
</defs>
</svg>
