<svg width="700" height="280" viewBox="0 0 700 280" fill="none" xmlns="http://www.w3.org/2000/svg">
<g clip-path="url(#clip0_588_6929)">
<rect width="700" height="280" fill="#0A0D12"/>
<g clip-path="url(#clip1_588_6929)">
<rect width="1284" height="1284" transform="translate(-292.5 -471.25)" fill="#0A0D12"/>
<g opacity="0.4">
<line x1="408.656" y1="-1113.25" x2="408.656" y2="1454.75" stroke="#67DBFF" stroke-width="0.917143"/>
<line x1="467.353" y1="-1113.25" x2="467.353" y2="1454.75" stroke="#67DBFF" stroke-width="0.917143"/>
<line x1="526.05" y1="-1113.25" x2="526.05" y2="1454.75" stroke="#67DBFF" stroke-width="0.917143"/>
<line x1="584.748" y1="-1113.25" x2="584.747" y2="1454.75" stroke="#67DBFF" stroke-width="0.917143"/>
<line x1="643.444" y1="-1113.25" x2="643.444" y2="1454.75" stroke="#67DBFF" stroke-width="0.917143"/>
<line x1="56.4732" y1="-1113.25" x2="56.473" y2="1454.75" stroke="#67DBFF" stroke-width="0.917143"/>
<line x1="115.17" y1="-1113.25" x2="115.169" y2="1454.75" stroke="#67DBFF" stroke-width="0.917143"/>
<line x1="173.867" y1="-1113.25" x2="173.867" y2="1454.75" stroke="#67DBFF" stroke-width="0.917143"/>
<line x1="232.564" y1="-1113.25" x2="232.564" y2="1454.75" stroke="#67DBFF" stroke-width="0.917143"/>
<line x1="291.261" y1="-1113.25" x2="291.261" y2="1454.75" stroke="#67DBFF" stroke-width="0.917143"/>
<line x1="-934.5" y1="111.594" x2="1633.5" y2="111.594" stroke="#67DBFF" stroke-width="0.917143"/>
<line x1="-934.5" y1="52.8971" x2="1633.5" y2="52.8971" stroke="#67DBFF" stroke-width="0.917143"/>
<line x1="-934.5" y1="228.989" x2="1633.5" y2="228.989" stroke="#67DBFF" stroke-width="0.917143"/>
</g>
<line x1="349.959" y1="-1113.25" x2="349.958" y2="1454.75" stroke="#E6E6E6" stroke-width="0.917143"/>
<line x1="-934.5" y1="170.291" x2="1633.5" y2="170.291" stroke="#E6E6E6" stroke-width="0.917143"/>
</g>
<path d="M351.007 169.75L467.666 82.75H583.993L467.334 169.75H351.007Z" fill="#18C8FF" fill-opacity="0.3" stroke="#67DBFF"/>
<path d="M350 168.75C349.172 168.75 348.5 169.422 348.5 170.25C348.5 171.078 349.172 171.75 350 171.75V168.75ZM467 170.25L452 161.59V178.91L467 170.25ZM350 171.75H453.5V168.75H350V171.75Z" fill="#20C831"/>
<path d="M349.095 169.554C348.434 170.053 348.304 170.994 348.804 171.655C349.303 172.316 350.244 172.446 350.905 171.946L349.095 169.554ZM467 82.25L449.812 84.3921L460.261 98.2059L467 82.25ZM350.905 171.946L457.138 91.5904L455.328 89.1978L349.095 169.554L350.905 171.946Z" fill="#006AE7"/>
<path d="M218.039 206.299C218.039 204.172 218.837 202.15 220.432 200.233C222.027 198.317 223.821 197.348 225.815 197.327C226.886 197.327 227.83 197.843 228.649 198.875C228.985 198.243 229.467 197.927 230.097 197.927C230.37 197.927 230.611 198.011 230.821 198.18C231.031 198.348 231.136 198.559 231.136 198.812C231.136 199.085 230.748 200.77 229.971 203.866C229.194 206.963 228.796 208.711 228.775 209.111C228.775 209.637 228.848 209.985 228.995 210.153C229.142 210.322 229.362 210.417 229.656 210.438C229.845 210.417 230.055 210.322 230.286 210.153C230.727 209.732 231.157 208.721 231.577 207.12C231.703 206.699 231.808 206.478 231.892 206.457C231.933 206.436 232.038 206.425 232.206 206.425H232.332C232.731 206.425 232.93 206.52 232.93 206.71C232.93 206.836 232.878 207.12 232.773 207.563C232.668 208.005 232.458 208.574 232.143 209.269C231.829 209.964 231.493 210.49 231.136 210.848C230.863 211.122 230.527 211.343 230.128 211.512C229.961 211.554 229.709 211.575 229.373 211.575C228.659 211.575 228.061 211.417 227.578 211.101C227.096 210.785 226.781 210.459 226.634 210.122L226.445 209.648C226.424 209.627 226.382 209.637 226.319 209.679C226.277 209.722 226.235 209.764 226.193 209.806C224.955 210.985 223.695 211.575 222.415 211.575C221.261 211.575 220.243 211.154 219.361 210.311C218.48 209.469 218.039 208.131 218.039 206.299ZM228.051 200.897C228.051 200.77 227.998 200.539 227.893 200.202C227.788 199.865 227.547 199.496 227.169 199.096C226.791 198.696 226.309 198.485 225.721 198.464C224.986 198.464 224.283 198.791 223.612 199.443C222.94 200.096 222.415 200.949 222.037 202.002C221.429 203.666 220.998 205.393 220.747 207.184C220.747 207.247 220.747 207.363 220.747 207.531C220.747 207.7 220.736 207.826 220.715 207.91C220.715 208.858 220.904 209.511 221.282 209.869C221.66 210.227 222.111 210.417 222.636 210.438C223.433 210.438 224.22 210.09 224.997 209.395C225.773 208.7 226.235 208.163 226.382 207.784C226.424 207.7 226.707 206.573 227.232 204.404C227.757 202.234 228.03 201.065 228.051 200.897Z" fill="white"/>
<path d="M234.316 202.192C234.337 202.129 234.358 202.045 234.379 201.939C234.4 201.834 234.452 201.602 234.536 201.244C234.62 200.886 234.725 200.56 234.851 200.265C234.977 199.97 235.134 199.623 235.323 199.222C235.512 198.822 235.722 198.506 235.953 198.275C236.184 198.043 236.457 197.811 236.772 197.58C237.086 197.348 237.433 197.253 237.81 197.295C238.419 197.295 238.954 197.422 239.416 197.674C239.878 197.927 240.203 198.159 240.392 198.369C240.581 198.58 240.696 198.791 240.738 199.001C240.78 199.128 240.812 199.191 240.833 199.191C240.854 199.191 240.938 199.117 241.085 198.97C242.092 197.874 243.257 197.327 244.579 197.327H244.674C245.681 197.327 246.437 197.759 246.94 198.622C247.108 199.022 247.192 199.412 247.192 199.791C247.192 200.423 247.056 200.928 246.783 201.307C246.51 201.687 246.237 201.929 245.965 202.034C245.692 202.139 245.429 202.182 245.177 202.16C244.758 202.16 244.422 202.045 244.17 201.813C243.918 201.581 243.792 201.276 243.792 200.897C243.792 199.886 244.38 199.212 245.555 198.875C245.093 198.601 244.716 198.464 244.422 198.464C243.246 198.464 242.166 199.243 241.179 200.802C240.969 201.139 240.812 201.486 240.707 201.845C240.602 202.203 240.245 203.603 239.636 206.046C238.923 208.995 238.514 210.564 238.409 210.754C238.136 211.322 237.685 211.607 237.055 211.607C236.782 211.607 236.562 211.543 236.394 211.417C236.226 211.291 236.11 211.164 236.047 211.038C235.984 210.912 235.963 210.806 235.984 210.722C235.984 210.448 236.404 208.637 237.244 205.288C238.083 201.939 238.503 200.075 238.503 199.696C238.503 198.875 238.23 198.464 237.685 198.464C237.244 198.464 236.866 198.759 236.551 199.349C236.236 199.938 235.984 200.581 235.796 201.276C235.607 201.971 235.491 202.35 235.449 202.413C235.407 202.455 235.239 202.476 234.946 202.476H234.505C234.379 202.35 234.316 202.255 234.316 202.192Z" fill="white"/>
<path d="M249.113 205.952C249.113 204.751 249.312 203.656 249.711 202.666C250.109 201.676 250.624 200.855 251.253 200.202C251.883 199.549 252.586 199.001 253.363 198.559C254.139 198.117 254.874 197.79 255.566 197.58C256.259 197.369 256.92 197.274 257.55 197.295H257.644C258.589 197.295 259.407 197.527 260.1 197.99C260.793 198.454 261.139 199.138 261.139 200.044C261.139 201.939 259.974 203.182 257.644 203.772C256.616 204.045 255.21 204.193 253.426 204.214C252.649 204.214 252.25 204.235 252.229 204.277C252.229 204.319 252.166 204.688 252.04 205.383C251.914 206.078 251.841 206.689 251.82 207.215C251.82 208.205 252.04 208.984 252.481 209.553C252.922 210.122 253.583 210.417 254.465 210.438C255.346 210.459 256.322 210.259 257.392 209.837C258.463 209.416 259.428 208.721 260.289 207.752C260.478 207.542 260.604 207.436 260.667 207.436C260.751 207.436 260.887 207.531 261.076 207.721C261.265 207.91 261.37 208.058 261.391 208.163C261.412 208.268 261.317 208.437 261.107 208.669C260.898 208.9 260.583 209.185 260.163 209.522C259.743 209.859 259.26 210.185 258.715 210.501C258.169 210.817 257.508 211.08 256.731 211.291C255.955 211.501 255.157 211.607 254.339 211.607C252.681 211.607 251.4 211.049 250.498 209.932C249.595 208.816 249.133 207.489 249.113 205.952ZM259.628 200.107C259.502 199.012 258.788 198.464 257.487 198.464C256.794 198.464 256.154 198.612 255.566 198.906C254.979 199.201 254.507 199.559 254.15 199.981C253.793 200.402 253.489 200.834 253.237 201.276C252.985 201.718 252.817 202.097 252.733 202.413C252.649 202.729 252.597 202.929 252.576 203.013C252.576 203.035 252.786 203.045 253.205 203.045C255.577 203.045 257.235 202.792 258.18 202.287C259.124 201.781 259.607 201.055 259.628 200.107Z" fill="white"/>
<path d="M263.595 206.299C263.595 204.172 264.392 202.15 265.988 200.233C267.583 198.317 269.377 197.348 271.371 197.327C272.442 197.327 273.386 197.843 274.205 198.875C274.54 198.243 275.023 197.927 275.653 197.927C275.926 197.927 276.167 198.011 276.377 198.18C276.587 198.348 276.692 198.559 276.692 198.812C276.692 199.085 276.303 200.77 275.527 203.866C274.75 206.963 274.351 208.711 274.33 209.111C274.33 209.637 274.404 209.985 274.551 210.153C274.698 210.322 274.918 210.417 275.212 210.438C275.401 210.417 275.611 210.322 275.842 210.153C276.282 209.732 276.713 208.721 277.132 207.12C277.258 206.699 277.363 206.478 277.447 206.457C277.489 206.436 277.594 206.425 277.762 206.425H277.888C278.287 206.425 278.486 206.52 278.486 206.71C278.486 206.836 278.434 207.12 278.329 207.563C278.224 208.005 278.014 208.574 277.699 209.269C277.384 209.964 277.049 210.49 276.692 210.848C276.419 211.122 276.083 211.343 275.684 211.512C275.516 211.554 275.264 211.575 274.929 211.575C274.215 211.575 273.617 211.417 273.134 211.101C272.651 210.785 272.337 210.459 272.19 210.122L272.001 209.648C271.98 209.627 271.938 209.637 271.875 209.679C271.833 209.722 271.791 209.764 271.749 209.806C270.511 210.985 269.251 211.575 267.971 211.575C266.817 211.575 265.799 211.154 264.917 210.311C264.036 209.469 263.595 208.131 263.595 206.299ZM273.606 200.897C273.606 200.77 273.554 200.539 273.449 200.202C273.344 199.865 273.103 199.496 272.725 199.096C272.347 198.696 271.864 198.485 271.277 198.464C270.542 198.464 269.839 198.791 269.167 199.443C268.496 200.096 267.971 200.949 267.593 202.002C266.984 203.666 266.554 205.393 266.302 207.184C266.302 207.247 266.302 207.363 266.302 207.531C266.302 207.7 266.292 207.826 266.271 207.91C266.271 208.858 266.46 209.511 266.838 209.869C267.215 210.227 267.667 210.417 268.191 210.438C268.989 210.438 269.776 210.09 270.553 209.395C271.329 208.7 271.791 208.163 271.938 207.784C271.98 207.7 272.263 206.573 272.788 204.404C273.313 202.234 273.585 201.065 273.606 200.897Z" fill="white"/>
<path d="M289.725 200.296C289.725 200.023 289.872 199.812 290.166 199.665H310.221C310.535 199.833 310.693 200.044 310.693 200.296C310.693 200.528 310.546 200.728 310.252 200.897L300.241 200.928H290.229C289.893 200.823 289.725 200.612 289.725 200.296ZM289.725 206.425C289.725 206.11 289.893 205.899 290.229 205.794H310.252C310.546 206.004 310.693 206.215 310.693 206.425C310.693 206.699 310.535 206.91 310.221 207.057H290.166C289.872 206.91 289.725 206.699 289.725 206.425Z" fill="white"/>
<path d="M325.238 196.632C324.671 196.632 324.231 196.453 323.916 196.095C323.601 195.737 323.433 195.273 323.412 194.705C323.412 193.546 323.916 192.514 324.923 191.608C325.931 190.703 327.148 190.25 328.575 190.25C329.31 190.25 329.772 190.261 329.96 190.282C331.514 190.534 332.699 191.092 333.518 191.956C334.337 192.82 334.756 193.757 334.777 194.768C334.777 195.863 334.42 196.927 333.707 197.959C332.993 198.991 332.007 199.738 330.747 200.202L330.653 200.265C330.653 200.286 330.747 200.318 330.936 200.36C331.125 200.402 331.43 200.497 331.849 200.644C332.269 200.791 332.668 201.013 333.046 201.307C334.767 202.424 335.627 203.898 335.627 205.73C335.627 207.394 334.977 208.848 333.675 210.09C332.374 211.333 330.727 211.954 328.733 211.954C327.054 211.954 325.605 211.501 324.388 210.596C323.171 209.69 322.562 208.542 322.562 207.152C322.562 206.562 322.751 206.088 323.129 205.73C323.506 205.372 323.979 205.183 324.545 205.162C325.133 205.162 325.616 205.351 325.994 205.73C326.371 206.11 326.56 206.583 326.56 207.152C326.56 207.384 326.529 207.594 326.466 207.784C326.403 207.973 326.329 208.142 326.245 208.289C326.161 208.437 326.046 208.563 325.899 208.669C325.752 208.774 325.626 208.858 325.521 208.921C325.416 208.984 325.311 209.027 325.207 209.048C325.102 209.069 325.018 209.1 324.955 209.142L324.829 209.174C325.899 210.122 327.2 210.596 328.733 210.596C329.887 210.596 330.758 210.038 331.346 208.921C331.702 208.226 331.881 207.163 331.881 205.73V205.099C331.881 203.098 331.209 201.76 329.866 201.086C329.551 200.96 328.911 200.886 327.946 200.865L326.623 200.834L326.529 200.77C326.487 200.707 326.466 200.539 326.466 200.265C326.466 199.886 326.55 199.696 326.718 199.696C327.305 199.696 327.914 199.644 328.544 199.538C329.257 199.433 329.908 198.991 330.496 198.211C331.083 197.432 331.377 196.253 331.377 194.673V194.42C331.377 193.22 331.01 192.388 330.275 191.924C329.813 191.63 329.32 191.482 328.796 191.482C328.124 191.482 327.505 191.598 326.938 191.83C326.371 192.061 325.973 192.304 325.742 192.556C325.511 192.809 325.395 192.935 325.395 192.935H325.49C325.553 192.956 325.637 192.978 325.742 192.999C325.847 193.02 325.952 193.072 326.057 193.157C326.161 193.241 326.287 193.314 326.434 193.378C326.581 193.441 326.686 193.557 326.749 193.725C326.812 193.894 326.896 194.052 327.001 194.199C327.106 194.347 327.137 194.557 327.095 194.831C327.095 195.294 326.949 195.705 326.655 196.063C326.361 196.421 325.889 196.611 325.238 196.632Z" fill="white"/>
<path d="M478.221 136.156C478.221 135.656 478.423 135.219 478.829 134.844C479.235 134.469 479.705 134.271 480.238 134.25C480.623 134.25 480.943 134.375 481.199 134.625C481.456 134.875 481.594 135.187 481.616 135.562C481.616 136.042 481.402 136.479 480.975 136.875C480.548 137.271 480.078 137.479 479.566 137.5C479.246 137.5 478.947 137.396 478.669 137.187C478.391 136.979 478.242 136.635 478.221 136.156ZM473 145.937C473 145.771 473.096 145.448 473.288 144.969C473.48 144.49 473.737 143.958 474.057 143.375C474.377 142.792 474.847 142.26 475.466 141.781C476.085 141.302 476.726 141.073 477.388 141.094C478.221 141.094 478.915 141.333 479.47 141.812C480.025 142.292 480.313 142.937 480.335 143.75C480.335 144.104 480.185 144.687 479.886 145.5C479.587 146.312 479.16 147.406 478.605 148.781C478.05 150.156 477.601 151.333 477.26 152.312C477.153 152.771 477.1 153.104 477.1 153.312C477.1 153.833 477.281 154.094 477.644 154.094C477.836 154.094 478.039 154.062 478.253 154C478.466 153.937 478.712 153.792 478.989 153.562C479.267 153.333 479.555 152.969 479.854 152.469C480.153 151.969 480.42 151.354 480.655 150.625C480.719 150.375 480.772 150.229 480.815 150.187C480.858 150.146 481.039 150.125 481.359 150.125C481.786 150.125 482 150.229 482 150.437C482 150.604 481.904 150.927 481.712 151.406C481.52 151.885 481.253 152.417 480.911 153C480.569 153.583 480.089 154.104 479.47 154.562C478.851 155.021 478.189 155.25 477.484 155.25C476.801 155.25 476.171 155.031 475.594 154.594C475.018 154.156 474.719 153.49 474.698 152.594C474.698 152.24 474.751 151.906 474.858 151.594C474.964 151.281 475.423 150.094 476.235 148.031C477.046 145.927 477.516 144.667 477.644 144.25C477.772 143.833 477.847 143.427 477.868 143.031C477.868 142.531 477.687 142.281 477.324 142.281H477.26C476.619 142.281 476.032 142.625 475.498 143.312C474.964 144 474.559 144.875 474.281 145.937C474.26 145.958 474.238 145.99 474.217 146.031C474.196 146.073 474.185 146.104 474.185 146.125C474.185 146.146 474.164 146.167 474.121 146.187C474.078 146.208 474.046 146.219 474.025 146.219C474.004 146.219 473.961 146.219 473.897 146.219C473.833 146.219 473.747 146.219 473.641 146.219H473.192C473.064 146.094 473 146 473 145.937Z" fill="white"/>
<path d="M479.68 53.2789C479.68 52.6338 479.899 52.1344 480.337 51.7806C480.776 51.4269 481.225 51.25 481.684 51.25C482.039 51.25 482.332 51.354 482.561 51.5621C482.791 51.7702 482.937 52.0616 483 52.4361C483 53.0188 482.802 53.5078 482.405 53.9032C482.008 54.2986 481.549 54.4962 481.027 54.4962C480.651 54.4962 480.337 54.3922 480.087 54.1841C479.836 53.976 479.7 53.6743 479.68 53.2789ZM479.398 60.146C479.398 59.5425 479.126 59.2408 478.583 59.2408C478.124 59.2408 477.685 59.3656 477.267 59.6153C476.85 59.865 476.484 60.1876 476.171 60.5829C475.858 60.9783 475.607 61.3633 475.419 61.7379C475.231 62.1124 475.054 62.4454 474.887 62.7367L474.667 63.1737C474.626 63.1945 474.459 63.2049 474.166 63.2049H473.728C473.602 63.0801 473.54 62.9968 473.54 62.9552C473.54 62.9136 473.582 62.7783 473.665 62.5494C474.104 61.5298 474.72 60.5725 475.513 59.6777C476.307 58.7829 477.226 58.2627 478.27 58.1171C478.291 58.1171 478.374 58.1171 478.52 58.1171C478.667 58.1171 478.792 58.1066 478.896 58.0858C479.398 58.1066 479.857 58.2107 480.275 58.398C480.797 58.6893 481.194 59.0119 481.465 59.3656C481.737 59.7194 481.872 60.2708 481.872 61.0199V61.5194L480.337 67.7309C479.272 71.8928 478.708 74.0569 478.646 74.2234C478.27 75.2639 477.539 76.1899 476.453 77.0014C475.367 77.813 474.124 78.2292 472.725 78.25C471.681 78.25 470.971 78.0315 470.595 77.5945C470.219 77.1575 470.021 76.6789 470 76.1587C470 75.5968 470.198 75.1182 470.595 74.7228C470.992 74.3275 471.472 74.1194 472.036 74.0986C472.391 74.0986 472.694 74.2026 472.945 74.4107C473.195 74.6188 473.331 74.9413 473.352 75.3783C473.352 76.1275 473.018 76.6997 472.349 77.0951C472.475 77.1159 472.621 77.1263 472.788 77.1263C473.498 77.1263 474.145 76.835 474.73 76.2523C475.315 75.6697 475.764 74.9829 476.077 74.1922L476.422 72.8812C476.651 71.9864 476.923 70.9043 477.236 69.635C477.549 68.3656 477.884 67.065 478.239 65.7332C478.594 64.4014 478.876 63.2465 479.084 62.2685C479.293 61.2905 479.408 60.6974 479.429 60.4893C479.429 60.3436 479.418 60.2292 479.398 60.146Z" fill="white"/>
</g>
<defs>
<clipPath id="clip0_588_6929">
<rect width="700" height="280" fill="white"/>
</clipPath>
<clipPath id="clip1_588_6929">
<rect width="1284" height="1284" fill="white" transform="translate(-292.5 -471.25)"/>
</clipPath>
</defs>
</svg>
