<svg width="700" height="289" viewBox="0 0 700 289" fill="none" xmlns="http://www.w3.org/2000/svg">
<g clip-path="url(#clip0_588_6945)">
<rect width="700" height="288" transform="translate(0 0.75)" fill="#0A0D12"/>
<g clip-path="url(#clip1_588_6945)">
<rect width="1284" height="1284" transform="translate(-292.5 -467.75)" fill="#0A0D12"/>
<g opacity="0.4">
<line x1="408.656" y1="-1109.75" x2="408.656" y2="1458.25" stroke="#67DBFF" stroke-width="0.917143"/>
<line x1="467.353" y1="-1109.75" x2="467.353" y2="1458.25" stroke="#67DBFF" stroke-width="0.917143"/>
<line x1="526.05" y1="-1109.75" x2="526.05" y2="1458.25" stroke="#67DBFF" stroke-width="0.917143"/>
<line x1="584.748" y1="-1109.75" x2="584.747" y2="1458.25" stroke="#67DBFF" stroke-width="0.917143"/>
<line x1="643.444" y1="-1109.75" x2="643.444" y2="1458.25" stroke="#67DBFF" stroke-width="0.917143"/>
<line x1="56.4732" y1="-1109.75" x2="56.473" y2="1458.25" stroke="#67DBFF" stroke-width="0.917143"/>
<line x1="115.17" y1="-1109.75" x2="115.169" y2="1458.25" stroke="#67DBFF" stroke-width="0.917143"/>
<line x1="173.867" y1="-1109.75" x2="173.867" y2="1458.25" stroke="#67DBFF" stroke-width="0.917143"/>
<line x1="232.564" y1="-1109.75" x2="232.564" y2="1458.25" stroke="#67DBFF" stroke-width="0.917143"/>
<line x1="291.261" y1="-1109.75" x2="291.261" y2="1458.25" stroke="#67DBFF" stroke-width="0.917143"/>
<line x1="-934.5" y1="115.094" x2="1633.5" y2="115.094" stroke="#67DBFF" stroke-width="0.917143"/>
<line x1="-934.5" y1="56.3971" x2="1633.5" y2="56.3971" stroke="#67DBFF" stroke-width="0.917143"/>
<line x1="-934.5" y1="232.489" x2="1633.5" y2="232.489" stroke="#67DBFF" stroke-width="0.917143"/>
</g>
<g opacity="0.4">
<line x1="349.959" y1="-1109.75" x2="349.958" y2="1458.25" stroke="#67DBFF" stroke-width="0.917143"/>
<line x1="-934.5" y1="173.791" x2="1633.5" y2="173.791" stroke="#67DBFF" stroke-width="0.917143"/>
</g>
</g>
<rect x="56.5" y="115.25" width="58" height="58" fill="#18C8FF" fill-opacity="0.3" stroke="#67DBFF"/>
<path d="M143.645 173.25L157.968 117.75H215.435L201.113 173.25H143.645Z" fill="#18C8FF" fill-opacity="0.3" stroke="#67DBFF"/>
<path d="M232.864 173.25L261.289 123.75H318.636L290.211 173.25H232.864Z" fill="#18C8FF" fill-opacity="0.3" stroke="#67DBFF"/>
<path d="M323.187 173.25L363.211 132.25H420.313L380.289 173.25H323.187Z" fill="#18C8FF" fill-opacity="0.3" stroke="#67DBFF"/>
<path d="M410.859 173.25L459.135 145.25H515.641L467.365 173.25H410.859Z" fill="#18C8FF" fill-opacity="0.3" stroke="#67DBFF"/>
<path d="M501.766 173.25L553.566 159.25H608.234L556.434 173.25H501.766Z" fill="#18C8FF" fill-opacity="0.3" stroke="#67DBFF"/>
<path d="M54.5 173.75C54.5 174.578 55.1716 175.25 56 175.25C56.8284 175.25 57.5 174.578 57.5 173.75L54.5 173.75ZM56 115.75L47.3397 130.75L64.6603 130.75L56 115.75ZM57.5 173.75L57.5 129.25L54.5 129.25L54.5 173.75L57.5 173.75Z" fill="#006AE7"/>
<path d="M141.551 173.374C141.337 174.174 141.812 174.996 142.612 175.211C143.412 175.425 144.234 174.95 144.449 174.15L141.551 173.374ZM158.012 117.738L145.764 129.986L162.494 134.468L158.012 117.738ZM144.449 174.15L155.966 131.166L153.069 130.39L141.551 173.374L144.449 174.15Z" fill="#006AE7"/>
<path d="M230.701 173.115C230.287 173.832 230.533 174.75 231.25 175.164C231.967 175.578 232.885 175.332 233.299 174.615L230.701 173.115ZM261 123.635L246 132.296L261 140.956L261 123.635ZM233.299 174.615L255.549 136.077L252.951 134.577L230.701 173.115L233.299 174.615Z" fill="#006AE7"/>
<path d="M320.939 172.702C320.354 173.287 320.354 174.237 320.939 174.823C321.525 175.409 322.475 175.409 323.061 174.823L320.939 172.702ZM363.012 132.75L346.282 137.233L358.529 149.48L363.012 132.75ZM323.061 174.823L354.527 143.357L352.406 141.235L320.939 172.702L323.061 174.823Z" fill="#006AE7"/>
<path d="M408.25 172.451C407.533 172.865 407.287 173.783 407.701 174.5C408.115 175.217 409.033 175.463 409.75 175.049L408.25 172.451ZM459.229 144.75L441.909 144.75L450.569 159.75L459.229 144.75ZM409.75 175.049L448.288 152.799L446.788 150.201L408.25 172.451L409.75 175.049Z" fill="#006AE7"/>
<path d="M497.612 172.313C496.812 172.527 496.337 173.35 496.551 174.15C496.766 174.95 497.588 175.425 498.388 175.21L497.612 172.313ZM554.024 158.75L537.293 154.267L541.776 170.997L554.024 158.75ZM498.388 175.21L541.372 163.693L540.595 160.795L497.612 172.313L498.388 175.21Z" fill="#006AE7"/>
<path d="M585 172.25C584.172 172.25 583.5 172.922 583.5 173.75C583.5 174.578 584.172 175.25 585 175.25V172.25ZM643 173.75L628 165.09V182.41L643 173.75ZM585 175.25H629.5V172.25H585V175.25Z" fill="#006AE7"/>
<path d="M57 172.25C56.1716 172.25 55.5 172.922 55.5 173.75C55.5 174.578 56.1716 175.25 57 175.25V172.25ZM115 173.75L100 165.09V182.41L115 173.75ZM57 175.25H101.5V172.25H57V175.25Z" fill="#20C831"/>
<path d="M143 172.25C142.172 172.25 141.5 172.922 141.5 173.75C141.5 174.578 142.172 175.25 143 175.25V172.25ZM201 173.75L186 165.09V182.41L201 173.75ZM143 175.25H187.5V172.25H143V175.25Z" fill="#20C831"/>
<path d="M232 172.25C231.172 172.25 230.5 172.922 230.5 173.75C230.5 174.578 231.172 175.25 232 175.25V172.25ZM290 173.75L275 165.09V182.41L290 173.75ZM232 175.25H276.5V172.25H232V175.25Z" fill="#20C831"/>
<path d="M322 172.25C321.172 172.25 320.5 172.922 320.5 173.75C320.5 174.578 321.172 175.25 322 175.25V172.25ZM380 173.75L365 165.09V182.41L380 173.75ZM322 175.25H366.5V172.25H322V175.25Z" fill="#20C831"/>
<path d="M409 172.25C408.172 172.25 407.5 172.922 407.5 173.75C407.5 174.578 408.172 175.25 409 175.25V172.25ZM467 173.75L452 165.09V182.41L467 173.75ZM409 175.25H453.5V172.25H409V175.25Z" fill="#20C831"/>
<path d="M498 172.25C497.172 172.25 496.5 172.922 496.5 173.75C496.5 174.578 497.172 175.25 498 175.25V172.25ZM556 173.75L541 165.09V182.41L556 173.75ZM498 175.25H542.5V172.25H498V175.25Z" fill="#20C831"/>
<path d="M585 172.25C584.172 172.25 583.5 172.922 583.5 173.75C583.5 174.578 584.172 175.25 585 175.25V172.25ZM643 173.75L628 165.09V182.41L643 173.75ZM585 175.25H629.5V172.25H585V175.25Z" fill="#20C831"/>
<path d="M84.7164 198.589L84.4447 198.693C84.2497 198.763 83.9711 198.833 83.6089 198.902C83.2467 198.972 82.8428 199.021 82.397 199.048H82V198.087H82.397C83.0517 198.059 83.6577 197.955 84.2149 197.774C84.7721 197.593 85.1621 197.426 85.385 197.272C85.6079 197.119 85.8029 196.966 85.9701 196.813C85.9979 196.771 86.0815 196.75 86.2208 196.75C86.3462 196.75 86.4646 196.792 86.576 196.875V203.123L86.5969 209.392C86.6944 209.489 86.778 209.552 86.8477 209.58C86.9173 209.607 87.0845 209.635 87.3491 209.663C87.6138 209.691 88.0457 209.705 88.6446 209.705H89.1879V210.666H88.9581C88.6655 210.624 87.5581 210.603 85.6357 210.603C83.7413 210.603 82.6477 210.624 82.3552 210.666H82.1045V209.705H82.6477C82.9542 209.705 83.2189 209.705 83.4418 209.705C83.6646 209.705 83.8388 209.698 83.9641 209.684C84.0895 209.67 84.201 209.649 84.2985 209.621C84.396 209.594 84.4517 209.58 84.4656 209.58C84.4796 209.58 84.5213 209.545 84.591 209.475C84.6606 209.405 84.7024 209.378 84.7164 209.392V198.589Z" fill="white"/>
<path d="M159.191 198.652C159.972 197.523 161.038 196.959 162.389 196.959C163.058 196.959 163.727 197.14 164.396 197.502C165.065 197.865 165.608 198.506 166.026 199.425C166.542 200.582 166.8 202.171 166.8 204.191C166.8 206.351 166.5 208.002 165.901 209.145C165.622 209.73 165.239 210.197 164.751 210.545C164.264 210.894 163.839 211.11 163.476 211.193C163.114 211.277 162.759 211.326 162.41 211.34C162.048 211.34 161.686 211.298 161.323 211.214C160.961 211.131 160.536 210.908 160.048 210.545C159.561 210.183 159.177 209.716 158.899 209.145C158.3 208.002 158 206.351 158 204.191C158 201.767 158.397 199.92 159.191 198.652ZM163.894 198.401C163.476 197.955 162.982 197.732 162.41 197.732C161.825 197.732 161.323 197.955 160.905 198.401C160.557 198.764 160.327 199.265 160.216 199.906C160.104 200.547 160.048 201.885 160.048 203.919C160.048 206.121 160.104 207.57 160.216 208.267C160.327 208.964 160.578 209.514 160.968 209.918C161.358 210.336 161.839 210.545 162.41 210.545C162.968 210.545 163.442 210.336 163.832 209.918C164.236 209.5 164.487 208.915 164.584 208.163C164.682 207.41 164.737 205.996 164.751 203.919C164.751 201.899 164.696 200.568 164.584 199.927C164.473 199.286 164.243 198.778 163.894 198.401Z" fill="white"/>
<path d="M169.266 209.626C169.266 209.291 169.385 208.999 169.622 208.748C169.859 208.497 170.158 208.372 170.52 208.372C170.855 208.372 171.148 208.483 171.398 208.706C171.649 208.929 171.782 209.229 171.795 209.605C171.795 209.953 171.677 210.253 171.44 210.504C171.203 210.755 170.904 210.88 170.541 210.88C170.179 210.88 169.879 210.761 169.643 210.525C169.406 210.288 169.28 209.988 169.266 209.626Z" fill="white"/>
<path d="M180.825 204.881C180.156 205.94 179.32 206.47 178.317 206.47C177.23 206.47 176.338 206.058 175.641 205.236C174.945 204.414 174.527 203.536 174.387 202.603C174.359 202.38 174.346 202.101 174.346 201.767V201.599C174.346 200.303 174.826 199.175 175.788 198.213C176.624 197.377 177.544 196.959 178.547 196.959C178.575 196.959 178.617 196.959 178.672 196.959C178.728 196.959 178.784 196.966 178.84 196.98H178.923C179.09 196.98 179.265 196.994 179.446 197.022C179.627 197.05 179.885 197.133 180.219 197.273C180.554 197.412 180.881 197.635 181.201 197.941C181.522 198.248 181.822 198.659 182.1 199.175C182.699 200.401 182.999 201.976 182.999 203.899C182.999 205.849 182.581 207.501 181.745 208.852C181.257 209.633 180.672 210.239 179.989 210.671C179.306 211.103 178.582 211.326 177.815 211.34C176.965 211.34 176.269 211.138 175.725 210.734C175.182 210.329 174.903 209.73 174.889 208.936C174.875 208.142 175.244 207.752 175.997 207.765C176.303 207.765 176.561 207.863 176.77 208.058C176.979 208.253 177.084 208.525 177.084 208.873C177.084 209.124 177.021 209.34 176.896 209.521C176.77 209.702 176.659 209.814 176.561 209.856C176.464 209.898 176.373 209.932 176.289 209.96L176.206 209.981C176.206 210.009 176.255 210.051 176.352 210.107C176.45 210.162 176.631 210.232 176.896 210.316C177.16 210.399 177.453 210.434 177.774 210.42H177.899C178.735 210.42 179.439 209.974 180.01 209.082C180.554 208.302 180.825 206.95 180.825 205.027V204.881ZM178.568 205.696C179.237 205.696 179.773 205.355 180.177 204.672C180.581 203.989 180.79 203.062 180.804 201.892C180.804 200.805 180.749 200.025 180.637 199.551C180.609 199.412 180.567 199.272 180.512 199.133C180.456 198.994 180.358 198.812 180.219 198.589C180.08 198.366 179.871 198.178 179.592 198.025C179.313 197.872 178.986 197.802 178.61 197.816C178.08 197.816 177.627 198.004 177.251 198.38C176.958 198.687 176.77 199.049 176.687 199.467C176.603 199.885 176.554 200.617 176.54 201.662C176.54 202.819 176.575 203.599 176.645 204.003C176.714 204.407 176.854 204.735 177.063 204.985C177.411 205.459 177.913 205.696 178.568 205.696Z" fill="white"/>
<path d="M185.068 201.307C185.082 201.279 185.201 200.519 185.424 199.028L185.758 196.792C185.758 196.764 185.898 196.75 186.176 196.75H186.594V196.834C186.594 196.973 186.699 197.091 186.908 197.189C187.117 197.286 187.479 197.349 187.995 197.377C188.51 197.405 189.688 197.419 191.527 197.419H194.056V198.234L192.635 200.178C192.51 200.345 192.301 200.624 192.008 201.014C191.715 201.404 191.527 201.662 191.444 201.787C191.36 201.913 191.214 202.136 191.005 202.456C190.796 202.777 190.656 203.028 190.587 203.209C190.517 203.39 190.419 203.648 190.294 203.982C190.169 204.317 190.078 204.637 190.022 204.944C189.967 205.25 189.911 205.626 189.855 206.072C189.799 206.518 189.757 206.992 189.73 207.494C189.702 207.995 189.681 208.567 189.667 209.208C189.667 209.403 189.667 209.598 189.667 209.793C189.667 209.988 189.66 210.155 189.646 210.295V210.483C189.59 210.72 189.458 210.922 189.249 211.089C189.04 211.256 188.803 211.34 188.538 211.34C188.385 211.34 188.239 211.319 188.099 211.277C187.96 211.235 187.814 211.103 187.66 210.88C187.507 210.657 187.43 210.378 187.43 210.044C187.43 207.842 188.106 205.557 189.458 203.188C189.737 202.742 190.322 201.899 191.214 200.659L192.175 199.342H190.231C187.807 199.342 186.532 199.384 186.406 199.467C186.323 199.509 186.246 199.676 186.176 199.969C186.107 200.262 186.037 200.561 185.967 200.868L185.905 201.307V201.369H185.068V201.307Z" fill="white"/>
<path d="M159.191 198.652C159.972 197.523 161.038 196.959 162.389 196.959C163.058 196.959 163.727 197.14 164.396 197.502C165.065 197.865 165.608 198.506 166.026 199.425C166.542 200.582 166.8 202.171 166.8 204.191C166.8 206.351 166.5 208.002 165.901 209.145C165.622 209.73 165.239 210.197 164.751 210.545C164.264 210.894 163.839 211.11 163.476 211.193C163.114 211.277 162.759 211.326 162.41 211.34C162.048 211.34 161.686 211.298 161.323 211.214C160.961 211.131 160.536 210.908 160.048 210.545C159.561 210.183 159.177 209.716 158.899 209.145C158.3 208.002 158 206.351 158 204.191C158 201.767 158.397 199.92 159.191 198.652ZM163.894 198.401C163.476 197.955 162.982 197.732 162.41 197.732C161.825 197.732 161.323 197.955 160.905 198.401C160.557 198.764 160.327 199.265 160.216 199.906C160.104 200.547 160.048 201.885 160.048 203.919C160.048 206.121 160.104 207.57 160.216 208.267C160.327 208.964 160.578 209.514 160.968 209.918C161.358 210.336 161.839 210.545 162.41 210.545C162.968 210.545 163.442 210.336 163.832 209.918C164.236 209.5 164.487 208.915 164.584 208.163C164.682 207.41 164.737 205.996 164.751 203.919C164.751 201.899 164.696 200.568 164.584 199.927C164.473 199.286 164.243 198.778 163.894 198.401Z" stroke="#D9EBFF"/>
<path d="M169.266 209.626C169.266 209.291 169.385 208.999 169.622 208.748C169.859 208.497 170.158 208.372 170.52 208.372C170.855 208.372 171.148 208.483 171.398 208.706C171.649 208.929 171.782 209.229 171.795 209.605C171.795 209.953 171.677 210.253 171.44 210.504C171.203 210.755 170.904 210.88 170.541 210.88C170.179 210.88 169.879 210.761 169.643 210.525C169.406 210.288 169.28 209.988 169.266 209.626Z" stroke="#D9EBFF"/>
<path d="M180.825 204.881C180.156 205.94 179.32 206.47 178.317 206.47C177.23 206.47 176.338 206.058 175.641 205.236C174.945 204.414 174.527 203.536 174.387 202.603C174.359 202.38 174.346 202.101 174.346 201.767V201.599C174.346 200.303 174.826 199.175 175.788 198.213C176.624 197.377 177.544 196.959 178.547 196.959C178.575 196.959 178.617 196.959 178.672 196.959C178.728 196.959 178.784 196.966 178.84 196.98H178.923C179.09 196.98 179.265 196.994 179.446 197.022C179.627 197.05 179.885 197.133 180.219 197.273C180.554 197.412 180.881 197.635 181.201 197.941C181.522 198.248 181.822 198.659 182.1 199.175C182.699 200.401 182.999 201.976 182.999 203.899C182.999 205.849 182.581 207.501 181.745 208.852C181.257 209.633 180.672 210.239 179.989 210.671C179.306 211.103 178.582 211.326 177.815 211.34C176.965 211.34 176.269 211.138 175.725 210.734C175.182 210.329 174.903 209.73 174.889 208.936C174.875 208.142 175.244 207.752 175.997 207.765C176.303 207.765 176.561 207.863 176.77 208.058C176.979 208.253 177.084 208.525 177.084 208.873C177.084 209.124 177.021 209.34 176.896 209.521C176.77 209.702 176.659 209.814 176.561 209.856C176.464 209.898 176.373 209.932 176.289 209.96L176.206 209.981C176.206 210.009 176.255 210.051 176.352 210.107C176.45 210.162 176.631 210.232 176.896 210.316C177.16 210.399 177.453 210.434 177.774 210.42H177.899C178.735 210.42 179.439 209.974 180.01 209.082C180.554 208.302 180.825 206.95 180.825 205.027V204.881ZM178.568 205.696C179.237 205.696 179.773 205.355 180.177 204.672C180.581 203.989 180.79 203.062 180.804 201.892C180.804 200.805 180.749 200.025 180.637 199.551C180.609 199.412 180.567 199.272 180.512 199.133C180.456 198.994 180.358 198.812 180.219 198.589C180.08 198.366 179.871 198.178 179.592 198.025C179.313 197.872 178.986 197.802 178.61 197.816C178.08 197.816 177.627 198.004 177.251 198.38C176.958 198.687 176.77 199.049 176.687 199.467C176.603 199.885 176.554 200.617 176.54 201.662C176.54 202.819 176.575 203.599 176.645 204.003C176.714 204.407 176.854 204.735 177.063 204.985C177.411 205.459 177.913 205.696 178.568 205.696Z" stroke="#D9EBFF"/>
<path d="M185.068 201.307C185.082 201.279 185.201 200.519 185.424 199.028L185.758 196.792C185.758 196.764 185.898 196.75 186.176 196.75H186.594V196.834C186.594 196.973 186.699 197.091 186.908 197.189C187.117 197.286 187.479 197.349 187.995 197.377C188.51 197.405 189.688 197.419 191.527 197.419H194.056V198.234L192.635 200.178C192.51 200.345 192.301 200.624 192.008 201.014C191.715 201.404 191.527 201.662 191.444 201.787C191.36 201.913 191.214 202.136 191.005 202.456C190.796 202.777 190.656 203.028 190.587 203.209C190.517 203.39 190.419 203.648 190.294 203.982C190.169 204.317 190.078 204.637 190.022 204.944C189.967 205.25 189.911 205.626 189.855 206.072C189.799 206.518 189.757 206.992 189.73 207.494C189.702 207.995 189.681 208.567 189.667 209.208C189.667 209.403 189.667 209.598 189.667 209.793C189.667 209.988 189.66 210.155 189.646 210.295V210.483C189.59 210.72 189.458 210.922 189.249 211.089C189.04 211.256 188.803 211.34 188.538 211.34C188.385 211.34 188.239 211.319 188.099 211.277C187.96 211.235 187.814 211.103 187.66 210.88C187.507 210.657 187.43 210.378 187.43 210.044C187.43 207.842 188.106 205.557 189.458 203.188C189.737 202.742 190.322 201.899 191.214 200.659L192.175 199.342H190.231C187.807 199.342 186.532 199.384 186.406 199.467C186.323 199.509 186.246 199.676 186.176 199.969C186.107 200.262 186.037 200.561 185.967 200.868L185.905 201.307V201.369H185.068V201.307Z" stroke="#D9EBFF"/>
<path d="M247.191 198.652C247.972 197.523 249.038 196.959 250.389 196.959C251.058 196.959 251.727 197.14 252.396 197.502C253.065 197.865 253.608 198.506 254.026 199.425C254.542 200.582 254.8 202.171 254.8 204.191C254.8 206.351 254.5 208.002 253.901 209.145C253.622 209.73 253.239 210.197 252.751 210.545C252.264 210.894 251.839 211.11 251.476 211.193C251.114 211.277 250.759 211.326 250.41 211.34C250.048 211.34 249.686 211.298 249.323 211.214C248.961 211.131 248.536 210.908 248.048 210.545C247.561 210.183 247.177 209.716 246.899 209.145C246.3 208.002 246 206.351 246 204.191C246 201.767 246.397 199.92 247.191 198.652ZM251.894 198.401C251.476 197.955 250.982 197.732 250.41 197.732C249.825 197.732 249.323 197.955 248.905 198.401C248.557 198.764 248.327 199.265 248.216 199.906C248.104 200.547 248.048 201.885 248.048 203.919C248.048 206.121 248.104 207.57 248.216 208.267C248.327 208.964 248.578 209.514 248.968 209.918C249.358 210.336 249.839 210.545 250.41 210.545C250.968 210.545 251.442 210.336 251.832 209.918C252.236 209.5 252.487 208.915 252.584 208.163C252.682 207.41 252.737 205.996 252.751 203.919C252.751 201.899 252.696 200.568 252.584 199.927C252.473 199.286 252.243 198.778 251.894 198.401Z" fill="white"/>
<path d="M257.266 209.626C257.266 209.291 257.385 208.999 257.622 208.748C257.859 208.497 258.158 208.372 258.52 208.372C258.855 208.372 259.148 208.483 259.398 208.706C259.649 208.929 259.782 209.229 259.795 209.605C259.795 209.953 259.677 210.253 259.44 210.504C259.203 210.755 258.904 210.88 258.541 210.88C258.179 210.88 257.879 210.761 257.643 210.525C257.406 210.288 257.28 209.988 257.266 209.626Z" fill="white"/>
<path d="M262.931 202.164C262.931 202.164 262.931 201.627 262.931 200.554C262.931 199.481 263.307 198.617 264.06 197.962C264.812 197.307 265.676 196.973 266.651 196.959C267.641 196.959 268.519 197.252 269.285 197.837C270.052 198.422 270.435 199.182 270.435 200.115C270.435 200.533 270.358 200.923 270.205 201.286C270.052 201.648 269.87 201.941 269.661 202.164C269.452 202.387 269.236 202.582 269.013 202.749C268.79 202.916 268.609 203.042 268.47 203.125C268.331 203.209 268.254 203.265 268.24 203.292L268.533 203.481C268.728 203.62 268.923 203.759 269.118 203.899C269.313 204.038 269.424 204.115 269.452 204.128C270.497 204.951 271.02 205.989 271.02 207.243C271.02 208.344 270.616 209.298 269.808 210.107C268.999 210.915 267.954 211.326 266.672 211.34C265.418 211.34 264.387 210.984 263.579 210.274C262.771 209.563 262.366 208.685 262.366 207.64C262.366 206.135 263.265 204.881 265.063 203.878L264.687 203.606C264.394 203.425 264.206 203.285 264.122 203.188C263.328 202.505 262.931 201.627 262.931 200.554V202.164ZM267.446 202.812L267.571 202.728C267.655 202.672 267.717 202.63 267.759 202.603C267.801 202.575 267.871 202.526 267.968 202.456C268.066 202.387 268.149 202.317 268.219 202.247C268.289 202.178 268.365 202.094 268.449 201.996C268.533 201.899 268.609 201.808 268.679 201.725C268.749 201.641 268.818 201.53 268.888 201.39C268.958 201.251 269.02 201.133 269.076 201.035C269.132 200.937 269.167 200.798 269.181 200.617C269.195 200.436 269.208 200.282 269.222 200.157C269.222 199.558 269.02 199.049 268.616 198.631C268.212 198.213 267.745 197.948 267.216 197.837C267.118 197.823 266.888 197.816 266.526 197.816C265.955 197.816 265.418 197.997 264.917 198.359C264.415 198.722 264.157 199.175 264.143 199.718C264.143 200.039 264.234 200.331 264.415 200.596C264.596 200.861 264.777 201.063 264.958 201.202C265.139 201.342 265.488 201.564 266.003 201.871C266.101 201.941 266.178 201.989 266.233 202.017L267.446 202.812ZM266.693 210.441C267.501 210.441 268.198 210.204 268.783 209.73C269.369 209.257 269.661 208.685 269.661 208.016C269.661 207.779 269.627 207.556 269.557 207.347C269.487 207.138 269.404 206.964 269.306 206.825C269.208 206.686 269.055 206.532 268.846 206.365C268.637 206.198 268.477 206.072 268.365 205.989C268.254 205.905 268.052 205.773 267.759 205.592C267.467 205.41 267.278 205.292 267.195 205.236C267 205.111 266.791 204.979 266.568 204.839C266.345 204.7 266.164 204.581 266.024 204.484L265.857 204.379C265.774 204.379 265.571 204.498 265.251 204.735C264.93 204.972 264.596 205.355 264.248 205.884C263.899 206.414 263.718 206.985 263.704 207.598C263.704 208.42 264.004 209.096 264.603 209.626C265.202 210.155 265.899 210.427 266.693 210.441Z" fill="white"/>
<path d="M273.068 201.307C273.082 201.279 273.201 200.519 273.424 199.028L273.758 196.792C273.758 196.764 273.898 196.75 274.176 196.75H274.594V196.834C274.594 196.973 274.699 197.091 274.908 197.189C275.117 197.286 275.479 197.349 275.995 197.377C276.51 197.405 277.688 197.419 279.527 197.419H282.056V198.234L280.635 200.178C280.51 200.345 280.301 200.624 280.008 201.014C279.715 201.404 279.527 201.662 279.444 201.787C279.36 201.913 279.214 202.136 279.005 202.456C278.796 202.777 278.656 203.028 278.587 203.209C278.517 203.39 278.419 203.648 278.294 203.982C278.169 204.317 278.078 204.637 278.022 204.944C277.967 205.25 277.911 205.626 277.855 206.072C277.799 206.518 277.757 206.992 277.73 207.494C277.702 207.995 277.681 208.567 277.667 209.208C277.667 209.403 277.667 209.598 277.667 209.793C277.667 209.988 277.66 210.155 277.646 210.295V210.483C277.59 210.72 277.458 210.922 277.249 211.089C277.04 211.256 276.803 211.34 276.538 211.34C276.385 211.34 276.239 211.319 276.099 211.277C275.96 211.235 275.814 211.103 275.66 210.88C275.507 210.657 275.43 210.378 275.43 210.044C275.43 207.842 276.106 205.557 277.458 203.188C277.737 202.742 278.322 201.899 279.214 200.659L280.175 199.342H278.231C275.807 199.342 274.532 199.384 274.406 199.467C274.323 199.509 274.246 199.676 274.176 199.969C274.107 200.262 274.037 200.561 273.967 200.868L273.905 201.307V201.369H273.068V201.307Z" fill="white"/>
<path d="M336.192 198.652C336.972 197.523 338.038 196.959 339.39 196.959C340.059 196.959 340.728 197.14 341.397 197.503C342.066 197.865 342.609 198.506 343.028 199.426C343.543 200.583 343.801 202.171 343.801 204.192C343.801 206.352 343.501 208.004 342.902 209.147C342.623 209.732 342.24 210.199 341.752 210.547C341.265 210.896 340.839 211.112 340.477 211.195C340.115 211.279 339.759 211.328 339.411 211.342C339.049 211.342 338.686 211.3 338.324 211.216C337.962 211.133 337.536 210.91 337.049 210.547C336.561 210.185 336.178 209.718 335.899 209.147C335.3 208.004 335 206.352 335 204.192C335 201.767 335.397 199.921 336.192 198.652ZM340.895 198.401C340.477 197.956 339.982 197.733 339.411 197.733C338.826 197.733 338.324 197.956 337.906 198.401C337.557 198.764 337.327 199.266 337.216 199.907C337.104 200.548 337.049 201.886 337.049 203.92C337.049 206.122 337.104 207.572 337.216 208.269C337.327 208.966 337.578 209.516 337.969 209.92C338.359 210.338 338.84 210.547 339.411 210.547C339.968 210.547 340.442 210.338 340.833 209.92C341.237 209.502 341.488 208.917 341.585 208.164C341.683 207.412 341.738 205.997 341.752 203.92C341.752 201.9 341.697 200.569 341.585 199.928C341.474 199.286 341.244 198.778 340.895 198.401Z" fill="white"/>
<path d="M346.268 209.628C346.268 209.293 346.386 209 346.623 208.749C346.86 208.499 347.16 208.373 347.522 208.373C347.857 208.373 348.149 208.485 348.4 208.708C348.651 208.931 348.783 209.23 348.797 209.607C348.797 209.955 348.679 210.255 348.442 210.506C348.205 210.756 347.905 210.882 347.543 210.882C347.181 210.882 346.881 210.763 346.644 210.526C346.407 210.289 346.282 209.99 346.268 209.628Z" fill="white"/>
<path d="M351.62 201.307C351.633 201.279 351.752 200.52 351.975 199.029L352.309 196.792C352.309 196.764 352.449 196.75 352.727 196.75H353.146V196.834C353.146 196.973 353.25 197.091 353.459 197.189C353.668 197.287 354.031 197.349 354.546 197.377C355.062 197.405 356.24 197.419 358.079 197.419H360.609V198.234L359.187 200.178C359.062 200.346 358.853 200.624 358.56 201.015C358.267 201.405 358.079 201.663 357.996 201.788C357.912 201.914 357.766 202.137 357.557 202.457C357.347 202.778 357.208 203.028 357.138 203.21C357.069 203.391 356.971 203.649 356.846 203.983C356.72 204.318 356.63 204.638 356.574 204.945C356.518 205.251 356.463 205.628 356.407 206.074C356.351 206.52 356.309 206.993 356.281 207.495C356.253 207.997 356.233 208.568 356.219 209.209C356.219 209.405 356.219 209.6 356.219 209.795C356.219 209.99 356.212 210.157 356.198 210.296V210.485C356.142 210.722 356.01 210.924 355.801 211.091C355.591 211.258 355.355 211.342 355.09 211.342C354.936 211.342 354.79 211.321 354.651 211.279C354.511 211.237 354.365 211.105 354.212 210.882C354.058 210.659 353.982 210.38 353.982 210.046C353.982 207.844 354.658 205.558 356.01 203.189C356.288 202.743 356.874 201.9 357.766 200.659L358.727 199.342H356.783C354.358 199.342 353.083 199.384 352.957 199.468C352.874 199.509 352.797 199.677 352.727 199.969C352.658 200.262 352.588 200.562 352.518 200.868L352.456 201.307V201.37H351.62V201.307Z" fill="white"/>
<path d="M336.192 198.652C336.972 197.523 338.038 196.959 339.39 196.959C340.059 196.959 340.728 197.14 341.397 197.503C342.066 197.865 342.609 198.506 343.028 199.426C343.543 200.583 343.801 202.171 343.801 204.192C343.801 206.352 343.501 208.004 342.902 209.147C342.623 209.732 342.24 210.199 341.752 210.547C341.265 210.896 340.839 211.112 340.477 211.195C340.115 211.279 339.759 211.328 339.411 211.342C339.049 211.342 338.686 211.3 338.324 211.216C337.962 211.133 337.536 210.91 337.049 210.547C336.561 210.185 336.178 209.718 335.899 209.147C335.3 208.004 335 206.352 335 204.192C335 201.767 335.397 199.921 336.192 198.652ZM340.895 198.401C340.477 197.956 339.982 197.733 339.411 197.733C338.826 197.733 338.324 197.956 337.906 198.401C337.557 198.764 337.327 199.266 337.216 199.907C337.104 200.548 337.049 201.886 337.049 203.92C337.049 206.122 337.104 207.572 337.216 208.269C337.327 208.966 337.578 209.516 337.969 209.92C338.359 210.338 338.84 210.547 339.411 210.547C339.968 210.547 340.442 210.338 340.833 209.92C341.237 209.502 341.488 208.917 341.585 208.164C341.683 207.412 341.738 205.997 341.752 203.92C341.752 201.9 341.697 200.569 341.585 199.928C341.474 199.286 341.244 198.778 340.895 198.401Z" stroke="#D9EBFF"/>
<path d="M346.268 209.628C346.268 209.293 346.386 209 346.623 208.749C346.86 208.499 347.16 208.373 347.522 208.373C347.857 208.373 348.149 208.485 348.4 208.708C348.651 208.931 348.783 209.23 348.797 209.607C348.797 209.955 348.679 210.255 348.442 210.506C348.205 210.756 347.905 210.882 347.543 210.882C347.181 210.882 346.881 210.763 346.644 210.526C346.407 210.289 346.282 209.99 346.268 209.628Z" stroke="#D9EBFF"/>
<path d="M351.62 201.307C351.633 201.279 351.752 200.52 351.975 199.029L352.309 196.792C352.309 196.764 352.449 196.75 352.727 196.75H353.146V196.834C353.146 196.973 353.25 197.091 353.459 197.189C353.668 197.287 354.031 197.349 354.546 197.377C355.062 197.405 356.24 197.419 358.079 197.419H360.609V198.234L359.187 200.178C359.062 200.346 358.853 200.624 358.56 201.015C358.267 201.405 358.079 201.663 357.996 201.788C357.912 201.914 357.766 202.137 357.557 202.457C357.347 202.778 357.208 203.028 357.138 203.21C357.069 203.391 356.971 203.649 356.846 203.983C356.72 204.318 356.63 204.638 356.574 204.945C356.518 205.251 356.463 205.628 356.407 206.074C356.351 206.52 356.309 206.993 356.281 207.495C356.253 207.997 356.233 208.568 356.219 209.209C356.219 209.405 356.219 209.6 356.219 209.795C356.219 209.99 356.212 210.157 356.198 210.296V210.485C356.142 210.722 356.01 210.924 355.801 211.091C355.591 211.258 355.355 211.342 355.09 211.342C354.936 211.342 354.79 211.321 354.651 211.279C354.511 211.237 354.365 211.105 354.212 210.882C354.058 210.659 353.982 210.38 353.982 210.046C353.982 207.844 354.658 205.558 356.01 203.189C356.288 202.743 356.874 201.9 357.766 200.659L358.727 199.342H356.783C354.358 199.342 353.083 199.384 352.957 199.468C352.874 199.509 352.797 199.677 352.727 199.969C352.658 200.262 352.588 200.562 352.518 200.868L352.456 201.307V201.37H351.62V201.307Z" stroke="#D9EBFF"/>
<path d="M427.192 199.443C427.972 198.314 429.038 197.75 430.39 197.75C431.059 197.75 431.728 197.931 432.397 198.294C433.066 198.656 433.609 199.297 434.028 200.217C434.543 201.374 434.801 202.962 434.801 204.983C434.801 207.143 434.501 208.795 433.902 209.938C433.623 210.523 433.24 210.99 432.752 211.338C432.265 211.687 431.839 211.903 431.477 211.986C431.115 212.07 430.759 212.119 430.411 212.133C430.049 212.133 429.686 212.091 429.324 212.007C428.962 211.924 428.536 211.701 428.049 211.338C427.561 210.976 427.178 210.509 426.899 209.938C426.3 208.795 426 207.143 426 204.983C426 202.558 426.397 200.712 427.192 199.443ZM431.895 199.192C431.477 198.746 430.982 198.523 430.411 198.523C429.826 198.523 429.324 198.746 428.906 199.192C428.557 199.555 428.327 200.057 428.216 200.698C428.104 201.339 428.049 202.677 428.049 204.711C428.049 206.913 428.104 208.363 428.216 209.06C428.327 209.756 428.578 210.307 428.969 210.711C429.359 211.129 429.84 211.338 430.411 211.338C430.968 211.338 431.442 211.129 431.833 210.711C432.237 210.293 432.488 209.708 432.585 208.955C432.683 208.203 432.738 206.788 432.752 204.711C432.752 202.691 432.697 201.36 432.585 200.719C432.474 200.077 432.244 199.569 431.895 199.192Z" fill="white"/>
<path d="M437.268 210.418C437.268 210.084 437.386 209.791 437.623 209.54C437.86 209.29 438.16 209.164 438.522 209.164C438.857 209.164 439.149 209.276 439.4 209.499C439.651 209.722 439.783 210.021 439.797 210.398C439.797 210.746 439.679 211.046 439.442 211.296C439.205 211.547 438.905 211.673 438.543 211.673C438.181 211.673 437.881 211.554 437.644 211.317C437.407 211.08 437.282 210.781 437.268 210.418Z" fill="white"/>
<path d="M444.898 208.391C444.898 208.725 444.787 209.004 444.564 209.227C444.341 209.45 444.069 209.561 443.748 209.561H443.602C444.243 210.662 445.093 211.213 446.152 211.213C447.128 211.213 447.839 210.795 448.285 209.959C448.55 209.499 448.682 208.607 448.682 207.283C448.682 205.847 448.494 204.879 448.118 204.377C447.755 203.917 447.351 203.687 446.905 203.687H446.78C445.693 203.687 444.87 204.161 444.313 205.109C444.257 205.206 444.208 205.262 444.166 205.276C444.125 205.29 444.02 205.304 443.853 205.318C443.616 205.318 443.484 205.276 443.456 205.192C443.428 205.136 443.414 203.917 443.414 201.534V198.837C443.414 198.14 443.449 197.792 443.518 197.792C443.546 197.764 443.574 197.75 443.602 197.75C443.616 197.75 443.762 197.806 444.041 197.917C444.32 198.029 444.703 198.14 445.191 198.252C445.679 198.363 446.201 198.419 446.759 198.419C447.748 198.419 448.696 198.224 449.602 197.834C449.713 197.778 449.804 197.75 449.874 197.75C449.985 197.75 450.041 197.875 450.041 198.126V198.398C448.898 199.75 447.469 200.426 445.755 200.426C445.323 200.426 444.933 200.384 444.585 200.3L444.376 200.259V203.854C444.64 203.659 444.849 203.506 445.003 203.394C445.156 203.283 445.407 203.171 445.755 203.06C446.104 202.948 446.459 202.893 446.821 202.893C447.95 202.893 448.905 203.346 449.685 204.251C450.466 205.157 450.856 206.23 450.856 207.471C450.856 208.753 450.41 209.847 449.518 210.753C448.626 211.659 447.539 212.119 446.257 212.133C445.128 212.133 444.222 211.756 443.539 211.004C442.856 210.251 442.515 209.401 442.515 208.453C442.515 208.119 442.592 207.854 442.745 207.659C442.898 207.464 443.059 207.338 443.226 207.283C443.393 207.227 443.553 207.199 443.707 207.199C444.055 207.199 444.341 207.318 444.564 207.554C444.787 207.791 444.898 208.07 444.898 208.391Z" fill="white"/>
<path d="M427.192 199.443C427.972 198.314 429.038 197.75 430.39 197.75C431.059 197.75 431.728 197.931 432.397 198.294C433.066 198.656 433.609 199.297 434.028 200.217C434.543 201.374 434.801 202.962 434.801 204.983C434.801 207.143 434.501 208.795 433.902 209.938C433.623 210.523 433.24 210.99 432.752 211.338C432.265 211.687 431.839 211.903 431.477 211.986C431.115 212.07 430.759 212.119 430.411 212.133C430.049 212.133 429.686 212.091 429.324 212.007C428.962 211.924 428.536 211.701 428.049 211.338C427.561 210.976 427.178 210.509 426.899 209.938C426.3 208.795 426 207.143 426 204.983C426 202.558 426.397 200.712 427.192 199.443ZM431.895 199.192C431.477 198.746 430.982 198.523 430.411 198.523C429.826 198.523 429.324 198.746 428.906 199.192C428.557 199.555 428.327 200.057 428.216 200.698C428.104 201.339 428.049 202.677 428.049 204.711C428.049 206.913 428.104 208.363 428.216 209.06C428.327 209.756 428.578 210.307 428.969 210.711C429.359 211.129 429.84 211.338 430.411 211.338C430.968 211.338 431.442 211.129 431.833 210.711C432.237 210.293 432.488 209.708 432.585 208.955C432.683 208.203 432.738 206.788 432.752 204.711C432.752 202.691 432.697 201.36 432.585 200.719C432.474 200.077 432.244 199.569 431.895 199.192Z" stroke="#D9EBFF"/>
<path d="M437.268 210.418C437.268 210.084 437.386 209.791 437.623 209.54C437.86 209.29 438.16 209.164 438.522 209.164C438.857 209.164 439.149 209.276 439.4 209.499C439.651 209.722 439.783 210.021 439.797 210.398C439.797 210.746 439.679 211.046 439.442 211.296C439.205 211.547 438.905 211.673 438.543 211.673C438.181 211.673 437.881 211.554 437.644 211.317C437.407 211.08 437.282 210.781 437.268 210.418Z" stroke="#D9EBFF"/>
<path d="M444.898 208.391C444.898 208.725 444.787 209.004 444.564 209.227C444.341 209.45 444.069 209.561 443.748 209.561H443.602C444.243 210.662 445.093 211.213 446.152 211.213C447.128 211.213 447.839 210.795 448.285 209.959C448.55 209.499 448.682 208.607 448.682 207.283C448.682 205.847 448.494 204.879 448.118 204.377C447.755 203.917 447.351 203.687 446.905 203.687H446.78C445.693 203.687 444.87 204.161 444.313 205.109C444.257 205.206 444.208 205.262 444.166 205.276C444.125 205.29 444.02 205.304 443.853 205.318C443.616 205.318 443.484 205.276 443.456 205.192C443.428 205.136 443.414 203.917 443.414 201.534V198.837C443.414 198.14 443.449 197.792 443.518 197.792C443.546 197.764 443.574 197.75 443.602 197.75C443.616 197.75 443.762 197.806 444.041 197.917C444.32 198.029 444.703 198.14 445.191 198.252C445.679 198.363 446.201 198.419 446.759 198.419C447.748 198.419 448.696 198.224 449.602 197.834C449.713 197.778 449.804 197.75 449.874 197.75C449.985 197.75 450.041 197.875 450.041 198.126V198.398C448.898 199.75 447.469 200.426 445.755 200.426C445.323 200.426 444.933 200.384 444.585 200.3L444.376 200.259V203.854C444.64 203.659 444.849 203.506 445.003 203.394C445.156 203.283 445.407 203.171 445.755 203.06C446.104 202.948 446.459 202.893 446.821 202.893C447.95 202.893 448.905 203.346 449.685 204.251C450.466 205.157 450.856 206.23 450.856 207.471C450.856 208.753 450.41 209.847 449.518 210.753C448.626 211.659 447.539 212.119 446.257 212.133C445.128 212.133 444.222 211.756 443.539 211.004C442.856 210.251 442.515 209.401 442.515 208.453C442.515 208.119 442.592 207.854 442.745 207.659C442.898 207.464 443.059 207.338 443.226 207.283C443.393 207.227 443.553 207.199 443.707 207.199C444.055 207.199 444.341 207.318 444.564 207.554C444.787 207.791 444.898 208.07 444.898 208.391Z" stroke="#D9EBFF"/>
<path d="M514.191 199.443C514.972 198.314 516.038 197.75 517.389 197.75C518.058 197.75 518.727 197.931 519.396 198.293C520.065 198.656 520.608 199.297 521.026 200.216C521.542 201.373 521.8 202.962 521.8 204.982C521.8 207.142 521.5 208.793 520.901 209.936C520.622 210.521 520.239 210.988 519.751 211.336C519.264 211.685 518.839 211.901 518.476 211.984C518.114 212.068 517.759 212.117 517.41 212.131C517.048 212.131 516.686 212.089 516.323 212.005C515.961 211.922 515.536 211.699 515.048 211.336C514.561 210.974 514.177 210.507 513.899 209.936C513.3 208.793 513 207.142 513 204.982C513 202.558 513.397 200.711 514.191 199.443ZM518.894 199.192C518.476 198.746 517.982 198.523 517.41 198.523C516.825 198.523 516.323 198.746 515.905 199.192C515.557 199.555 515.327 200.056 515.216 200.697C515.104 201.338 515.048 202.676 515.048 204.71C515.048 206.912 515.104 208.361 515.216 209.058C515.327 209.755 515.578 210.305 515.968 210.709C516.358 211.127 516.839 211.336 517.41 211.336C517.968 211.336 518.442 211.127 518.832 210.709C519.236 210.291 519.487 209.706 519.584 208.954C519.682 208.201 519.737 206.787 519.751 204.71C519.751 202.69 519.696 201.359 519.584 200.718C519.473 200.077 519.243 199.568 518.894 199.192Z" fill="white"/>
<path d="M524.266 210.417C524.266 210.082 524.385 209.79 524.622 209.539C524.859 209.288 525.158 209.163 525.52 209.163C525.855 209.163 526.148 209.274 526.398 209.497C526.649 209.72 526.782 210.02 526.795 210.396C526.795 210.744 526.677 211.044 526.44 211.295C526.203 211.545 525.904 211.671 525.541 211.671C525.179 211.671 524.879 211.552 524.643 211.316C524.406 211.079 524.28 210.779 524.266 210.417Z" fill="white"/>
<path d="M530.746 202.704C530.37 202.704 530.07 202.578 529.847 202.328C529.624 202.077 529.513 201.77 529.513 201.408C529.513 200.419 529.882 199.562 530.621 198.837C531.359 198.112 532.279 197.75 533.38 197.75C534.648 197.75 535.707 198.14 536.557 198.921C537.407 199.701 537.839 200.711 537.853 201.951C537.853 202.551 537.713 203.122 537.435 203.665C537.156 204.209 536.822 204.683 536.431 205.087C536.041 205.491 535.484 206.006 534.759 206.633C534.258 207.065 533.561 207.706 532.669 208.556L531.436 209.727L533.024 209.748C535.212 209.748 536.376 209.713 536.515 209.643C536.613 209.616 536.78 208.995 537.017 207.783V207.72H537.853V207.783C537.839 207.825 537.748 208.459 537.581 209.685C537.414 210.911 537.309 211.552 537.268 211.608V211.671H529.513V211.023C529.513 210.925 529.555 210.821 529.638 210.709C529.722 210.598 529.931 210.354 530.265 209.978C530.669 209.532 531.018 209.142 531.31 208.807C531.436 208.668 531.673 208.41 532.021 208.034C532.369 207.658 532.606 207.4 532.732 207.261C532.857 207.121 533.059 206.891 533.338 206.571C533.617 206.25 533.812 206.013 533.923 205.86C534.035 205.707 534.195 205.498 534.404 205.233C534.613 204.968 534.759 204.745 534.843 204.564C534.926 204.383 535.031 204.181 535.156 203.958C535.282 203.735 535.372 203.512 535.428 203.289C535.484 203.066 535.533 202.857 535.574 202.662C535.616 202.467 535.637 202.237 535.637 201.972C535.637 201.094 535.4 200.335 534.926 199.694C534.453 199.053 533.777 198.732 532.899 198.732C532.439 198.732 532.035 198.851 531.687 199.088C531.338 199.325 531.094 199.555 530.955 199.778C530.816 200 530.746 200.133 530.746 200.175C530.746 200.189 530.781 200.196 530.851 200.196C531.101 200.196 531.359 200.293 531.624 200.488C531.889 200.683 532.021 201.004 532.021 201.45C532.021 201.798 531.91 202.091 531.687 202.328C531.464 202.564 531.15 202.69 530.746 202.704Z" fill="white"/>
<path d="M539.797 205.128C539.797 202.857 540.361 201.06 541.49 199.736C542.618 198.412 543.873 197.75 545.252 197.75C546.214 197.75 546.903 198.001 547.321 198.502C547.74 199.004 547.949 199.562 547.949 200.175C547.949 200.523 547.851 200.802 547.656 201.011C547.461 201.22 547.189 201.324 546.841 201.324C546.52 201.324 546.255 201.227 546.046 201.032C545.837 200.837 545.733 200.565 545.733 200.216C545.733 199.603 546.06 199.234 546.715 199.109C546.409 198.802 545.977 198.628 545.419 198.586C544.43 198.586 543.615 199.004 542.974 199.84C542.319 200.76 541.991 202.167 541.991 204.062L542.012 204.146C542.082 204.062 542.138 203.972 542.18 203.874C542.751 203.038 543.496 202.62 544.416 202.62H544.5C545.141 202.62 545.705 202.753 546.193 203.017C546.527 203.212 546.862 203.491 547.196 203.853C547.531 204.216 547.802 204.613 548.011 205.045C548.304 205.728 548.45 206.473 548.45 207.281V207.658C548.45 207.978 548.415 208.278 548.346 208.556C548.192 209.379 547.747 210.18 547.008 210.96C546.269 211.741 545.336 212.131 544.207 212.131C543.817 212.131 543.441 212.075 543.078 211.964C542.716 211.852 542.326 211.643 541.908 211.336C541.49 211.03 541.134 210.619 540.842 210.103C540.549 209.588 540.298 208.912 540.089 208.076C539.88 207.24 539.783 206.257 539.797 205.128ZM544.291 203.373C543.873 203.373 543.51 203.491 543.204 203.728C542.897 203.965 542.66 204.278 542.493 204.669C542.326 205.059 542.207 205.456 542.138 205.86C542.068 206.264 542.026 206.696 542.012 207.156C542.012 208.313 542.096 209.142 542.263 209.643C542.43 210.145 542.695 210.549 543.057 210.856C543.392 211.107 543.761 211.232 544.165 211.232C544.876 211.232 545.419 210.967 545.796 210.438C545.977 210.187 546.102 209.873 546.172 209.497C546.242 209.121 546.276 208.389 546.276 207.302C546.276 206.188 546.242 205.442 546.172 205.066C546.102 204.69 545.977 204.376 545.796 204.125C545.419 203.624 544.918 203.373 544.291 203.373Z" fill="white"/>
<path d="M514.191 199.443C514.972 198.314 516.038 197.75 517.389 197.75C518.058 197.75 518.727 197.931 519.396 198.293C520.065 198.656 520.608 199.297 521.026 200.216C521.542 201.373 521.8 202.962 521.8 204.982C521.8 207.142 521.5 208.793 520.901 209.936C520.622 210.521 520.239 210.988 519.751 211.336C519.264 211.685 518.839 211.901 518.476 211.984C518.114 212.068 517.759 212.117 517.41 212.131C517.048 212.131 516.686 212.089 516.323 212.005C515.961 211.922 515.536 211.699 515.048 211.336C514.561 210.974 514.177 210.507 513.899 209.936C513.3 208.793 513 207.142 513 204.982C513 202.558 513.397 200.711 514.191 199.443ZM518.894 199.192C518.476 198.746 517.982 198.523 517.41 198.523C516.825 198.523 516.323 198.746 515.905 199.192C515.557 199.555 515.327 200.056 515.216 200.697C515.104 201.338 515.048 202.676 515.048 204.71C515.048 206.912 515.104 208.361 515.216 209.058C515.327 209.755 515.578 210.305 515.968 210.709C516.358 211.127 516.839 211.336 517.41 211.336C517.968 211.336 518.442 211.127 518.832 210.709C519.236 210.291 519.487 209.706 519.584 208.954C519.682 208.201 519.737 206.787 519.751 204.71C519.751 202.69 519.696 201.359 519.584 200.718C519.473 200.077 519.243 199.568 518.894 199.192Z" stroke="#D9EBFF"/>
<path d="M524.266 210.417C524.266 210.082 524.385 209.79 524.622 209.539C524.859 209.288 525.158 209.163 525.52 209.163C525.855 209.163 526.148 209.274 526.398 209.497C526.649 209.72 526.782 210.02 526.795 210.396C526.795 210.744 526.677 211.044 526.44 211.295C526.203 211.545 525.904 211.671 525.541 211.671C525.179 211.671 524.879 211.552 524.643 211.316C524.406 211.079 524.28 210.779 524.266 210.417Z" stroke="#D9EBFF"/>
<path d="M530.746 202.704C530.37 202.704 530.07 202.578 529.847 202.328C529.624 202.077 529.513 201.77 529.513 201.408C529.513 200.419 529.882 199.562 530.621 198.837C531.359 198.112 532.279 197.75 533.38 197.75C534.648 197.75 535.707 198.14 536.557 198.921C537.407 199.701 537.839 200.711 537.853 201.951C537.853 202.551 537.713 203.122 537.435 203.665C537.156 204.209 536.822 204.683 536.431 205.087C536.041 205.491 535.484 206.006 534.759 206.633C534.258 207.065 533.561 207.706 532.669 208.556L531.436 209.727L533.024 209.748C535.212 209.748 536.376 209.713 536.515 209.643C536.613 209.616 536.78 208.995 537.017 207.783V207.72H537.853V207.783C537.839 207.825 537.748 208.459 537.581 209.685C537.414 210.911 537.309 211.552 537.268 211.608V211.671H529.513V211.023C529.513 210.925 529.555 210.821 529.638 210.709C529.722 210.598 529.931 210.354 530.265 209.978C530.669 209.532 531.018 209.142 531.31 208.807C531.436 208.668 531.673 208.41 532.021 208.034C532.369 207.658 532.606 207.4 532.732 207.261C532.857 207.121 533.059 206.891 533.338 206.571C533.617 206.25 533.812 206.013 533.923 205.86C534.035 205.707 534.195 205.498 534.404 205.233C534.613 204.968 534.759 204.745 534.843 204.564C534.926 204.383 535.031 204.181 535.156 203.958C535.282 203.735 535.372 203.512 535.428 203.289C535.484 203.066 535.533 202.857 535.574 202.662C535.616 202.467 535.637 202.237 535.637 201.972C535.637 201.094 535.4 200.335 534.926 199.694C534.453 199.053 533.777 198.732 532.899 198.732C532.439 198.732 532.035 198.851 531.687 199.088C531.338 199.325 531.094 199.555 530.955 199.778C530.816 200 530.746 200.133 530.746 200.175C530.746 200.189 530.781 200.196 530.851 200.196C531.101 200.196 531.359 200.293 531.624 200.488C531.889 200.683 532.021 201.004 532.021 201.45C532.021 201.798 531.91 202.091 531.687 202.328C531.464 202.564 531.15 202.69 530.746 202.704Z" stroke="#D9EBFF"/>
<path d="M539.797 205.128C539.797 202.857 540.361 201.06 541.49 199.736C542.618 198.412 543.873 197.75 545.252 197.75C546.214 197.75 546.903 198.001 547.321 198.502C547.74 199.004 547.949 199.562 547.949 200.175C547.949 200.523 547.851 200.802 547.656 201.011C547.461 201.22 547.189 201.324 546.841 201.324C546.52 201.324 546.255 201.227 546.046 201.032C545.837 200.837 545.733 200.565 545.733 200.216C545.733 199.603 546.06 199.234 546.715 199.109C546.409 198.802 545.977 198.628 545.419 198.586C544.43 198.586 543.615 199.004 542.974 199.84C542.319 200.76 541.991 202.167 541.991 204.062L542.012 204.146C542.082 204.062 542.138 203.972 542.18 203.874C542.751 203.038 543.496 202.62 544.416 202.62H544.5C545.141 202.62 545.705 202.753 546.193 203.017C546.527 203.212 546.862 203.491 547.196 203.853C547.531 204.216 547.802 204.613 548.011 205.045C548.304 205.728 548.45 206.473 548.45 207.281V207.658C548.45 207.978 548.415 208.278 548.346 208.556C548.192 209.379 547.747 210.18 547.008 210.96C546.269 211.741 545.336 212.131 544.207 212.131C543.817 212.131 543.441 212.075 543.078 211.964C542.716 211.852 542.326 211.643 541.908 211.336C541.49 211.03 541.134 210.619 540.842 210.103C540.549 209.588 540.298 208.912 540.089 208.076C539.88 207.24 539.783 206.257 539.797 205.128ZM544.291 203.373C543.873 203.373 543.51 203.491 543.204 203.728C542.897 203.965 542.66 204.278 542.493 204.669C542.326 205.059 542.207 205.456 542.138 205.86C542.068 206.264 542.026 206.696 542.012 207.156C542.012 208.313 542.096 209.142 542.263 209.643C542.43 210.145 542.695 210.549 543.057 210.856C543.392 211.107 543.761 211.232 544.165 211.232C544.876 211.232 545.419 210.967 545.796 210.438C545.977 210.187 546.102 209.873 546.172 209.497C546.242 209.121 546.276 208.389 546.276 207.302C546.276 206.188 546.242 205.442 546.172 205.066C546.102 204.69 545.977 204.376 545.796 204.125C545.419 203.624 544.918 203.373 544.291 203.373Z" stroke="#D9EBFF"/>
<path d="M609.191 199.443C609.971 198.314 611.037 197.75 612.388 197.75C613.057 197.75 613.725 197.931 614.394 198.293C615.063 198.655 615.606 199.296 616.024 200.216C616.539 201.372 616.797 202.96 616.797 204.98C616.797 207.139 616.497 208.79 615.898 209.932C615.62 210.517 615.237 210.984 614.749 211.332C614.262 211.68 613.837 211.896 613.475 211.98C613.112 212.063 612.757 212.112 612.409 212.126C612.047 212.126 611.685 212.084 611.322 212C610.96 211.917 610.535 211.694 610.048 211.332C609.56 210.97 609.177 210.503 608.898 209.932C608.299 208.79 608 207.139 608 204.98C608 202.556 608.397 200.71 609.191 199.443ZM613.892 199.192C613.475 198.746 612.98 198.523 612.409 198.523C611.824 198.523 611.322 198.746 610.904 199.192C610.556 199.554 610.326 200.055 610.215 200.696C610.103 201.337 610.048 202.674 610.048 204.708C610.048 206.909 610.103 208.358 610.215 209.054C610.326 209.751 610.577 210.301 610.967 210.705C611.357 211.123 611.838 211.332 612.409 211.332C612.966 211.332 613.44 211.123 613.83 210.705C614.234 210.287 614.484 209.702 614.582 208.95C614.679 208.198 614.735 206.784 614.749 204.708C614.749 202.688 614.693 201.358 614.582 200.717C614.471 200.076 614.241 199.568 613.892 199.192Z" fill="white"/>
</g>
<defs>
<clipPath id="clip0_588_6945">
<rect width="700" height="288" fill="white" transform="translate(0 0.75)"/>
</clipPath>
<clipPath id="clip1_588_6945">
<rect width="1284" height="1284" fill="white" transform="translate(-292.5 -467.75)"/>
</clipPath>
</defs>
</svg>
