<svg width="700" height="233" viewBox="0 0 700 233" fill="none" xmlns="http://www.w3.org/2000/svg">
<g clip-path="url(#clip0_588_6974)">
<rect width="700" height="232" transform="translate(0 0.75)" fill="#0A0D12"/>
<g clip-path="url(#clip1_588_6974)">
<rect width="1284" height="1284" transform="translate(-292.5 -523.75)" fill="#0A0D12"/>
<g opacity="0.4">
<line x1="408.656" y1="-1165.75" x2="408.656" y2="1402.25" stroke="#67DBFF" stroke-width="0.917143"/>
<line x1="467.353" y1="-1165.75" x2="467.353" y2="1402.25" stroke="#67DBFF" stroke-width="0.917143"/>
<line x1="526.05" y1="-1165.75" x2="526.05" y2="1402.25" stroke="#67DBFF" stroke-width="0.917143"/>
<line x1="584.748" y1="-1165.75" x2="584.747" y2="1402.25" stroke="#67DBFF" stroke-width="0.917143"/>
<line x1="643.444" y1="-1165.75" x2="643.444" y2="1402.25" stroke="#67DBFF" stroke-width="0.917143"/>
<line x1="56.4732" y1="-1165.75" x2="56.473" y2="1402.25" stroke="#67DBFF" stroke-width="0.917143"/>
<line x1="115.17" y1="-1165.75" x2="115.169" y2="1402.25" stroke="#67DBFF" stroke-width="0.917143"/>
<line x1="173.867" y1="-1165.75" x2="173.867" y2="1402.25" stroke="#67DBFF" stroke-width="0.917143"/>
<line x1="232.564" y1="-1165.75" x2="232.564" y2="1402.25" stroke="#67DBFF" stroke-width="0.917143"/>
<line x1="291.261" y1="-1165.75" x2="291.261" y2="1402.25" stroke="#67DBFF" stroke-width="0.917143"/>
<line x1="-934.5" y1="59.0943" x2="1633.5" y2="59.0943" stroke="#67DBFF" stroke-width="0.917143"/>
<line x1="-934.5" y1="0.397141" x2="1633.5" y2="0.397141" stroke="#67DBFF" stroke-width="0.917143"/>
<line x1="-934.5" y1="176.489" x2="1633.5" y2="176.489" stroke="#67DBFF" stroke-width="0.917143"/>
</g>
<line x1="349.959" y1="-1165.75" x2="349.958" y2="1402.25" stroke="#E6E6E6" stroke-width="0.917143"/>
<line x1="-934.5" y1="117.791" x2="1633.5" y2="117.791" stroke="#E6E6E6" stroke-width="0.917143"/>
</g>
<path d="M353.766 119.25L405.566 133.25H460.234L408.434 119.25H353.766Z" fill="#18C8FF" fill-opacity="0.3" stroke="#67DBFF"/>
<path d="M350.388 117.301C349.588 117.087 348.766 117.562 348.551 118.362C348.337 119.162 348.812 119.984 349.612 120.199L350.388 117.301ZM406.024 133.762L393.776 121.514L389.293 138.244L406.024 133.762ZM349.612 120.199L392.595 131.716L393.372 128.819L350.388 117.301L349.612 120.199Z" fill="#006AE7"/>
<path d="M350 117.25C349.172 117.25 348.5 117.922 348.5 118.75C348.5 119.578 349.172 120.25 350 120.25V117.25ZM408 118.75L393 110.09V127.41L408 118.75ZM350 120.25H394.5V117.25H350V120.25Z" fill="#20C831"/>
<path d="M42.533 78.1034C42.5541 78.1034 43.3133 78.0498 44.8104 77.9427C46.3076 77.8357 47.0773 77.7714 47.1195 77.75C47.3725 77.75 47.4991 77.8357 47.4991 78.007C47.4991 78.1569 46.7294 81.3906 45.19 87.7081C43.6507 94.0256 42.8599 97.2486 42.8177 97.3771C42.7755 97.5056 42.765 97.6662 42.7861 97.8589C42.7861 98.7584 43.0813 99.2081 43.6717 99.2081C43.8615 99.1867 44.0724 99.0903 44.3044 98.919C44.7472 98.4907 45.1795 97.4628 45.6012 95.8352C45.7277 95.4069 45.8332 95.182 45.9175 95.1606C45.9597 95.1392 46.0651 95.1285 46.2338 95.1285H46.4869C46.8032 95.1285 46.9613 95.2142 46.9613 95.3855C46.9613 95.4926 46.9297 95.6639 46.8664 95.8994C46.5923 96.9702 46.276 97.8375 45.9175 98.5014C45.559 99.1653 45.2638 99.5936 45.0319 99.7863C44.7999 99.979 44.5047 100.15 44.1462 100.3C43.9775 100.343 43.7245 100.365 43.3871 100.365C42.6701 100.365 42.0691 100.204 41.5841 99.8827C41.0991 99.5615 40.7828 99.2295 40.6352 98.8869L40.4454 98.405C40.4243 98.3836 40.3821 98.3943 40.3189 98.4372C40.2767 98.48 40.2345 98.5228 40.1924 98.5656C38.9482 99.7649 37.683 100.365 36.3967 100.365C35.2369 100.365 34.2142 99.9362 33.3285 99.0796C32.4428 98.223 32 96.8631 32 95C32 93.9721 32.2109 92.9227 32.6326 91.852C33.0544 90.7812 33.5604 89.8603 34.1509 89.0894C35.142 87.8687 36.1331 87.0228 37.1242 86.5517C38.1153 86.0805 39.0115 85.845 39.8128 85.845C40.9937 85.845 41.8793 86.2947 42.4698 87.1941C42.5752 87.3226 42.6279 87.3655 42.6279 87.3226C42.649 87.237 42.9337 86.0698 43.482 83.8212C44.0302 81.5726 44.3254 80.3841 44.3676 80.2556C44.3676 79.9772 44.2938 79.8059 44.1462 79.7416C43.9986 79.6774 43.5874 79.6238 42.9126 79.581H42.2484C42.1218 79.4525 42.0586 79.3669 42.0586 79.324C42.0586 79.2812 42.0797 79.0777 42.1218 78.7137C42.2273 78.3068 42.3643 78.1034 42.533 78.1034ZM42.0902 89.5712C41.6052 87.8794 40.8144 87.0335 39.7179 87.0335C38.9798 87.0335 38.2734 87.3655 37.5986 88.0293C36.9239 88.6932 36.3967 89.5605 36.0171 90.6313C35.4056 92.3231 34.9733 94.0791 34.7202 95.8994C34.7202 95.9637 34.7202 96.0815 34.7202 96.2528C34.7202 96.4241 34.7097 96.5526 34.6886 96.6383C34.6886 97.602 34.8784 98.2658 35.258 98.6299C35.6375 98.9939 36.0909 99.1867 36.6181 99.2081C37.7568 99.2081 38.9271 98.4372 40.1291 96.8953L40.3821 96.5419L42.0902 89.5712Z" fill="white"/>
<path d="M48.6378 94.6466C48.6378 93.426 48.8381 92.3124 49.2388 91.3059C49.6394 90.2993 50.156 89.4642 50.7887 88.8003C51.4213 88.1364 52.1277 87.5796 52.9079 87.1299C53.6881 86.6802 54.4262 86.3482 55.1221 86.1341C55.8179 85.9199 56.4822 85.8236 57.1148 85.845H57.2097C58.1586 85.845 58.981 86.0805 59.6769 86.5517C60.3728 87.0228 60.7207 87.7188 60.7207 88.6397C60.7207 90.567 59.5504 91.8305 57.2097 92.4302C56.1764 92.7086 54.7636 92.8585 52.9712 92.8799C52.191 92.8799 51.7903 92.9013 51.7692 92.9441C51.7692 92.987 51.706 93.3617 51.5794 94.0684C51.4529 94.7751 51.3791 95.3962 51.358 95.9316C51.358 96.9381 51.5794 97.7304 52.0223 98.3087C52.4651 98.8869 53.1293 99.1867 54.015 99.2081C54.9007 99.2295 55.8812 99.0261 56.9567 98.5978C58.0321 98.1695 59.0021 97.4628 59.8667 96.4777C60.0565 96.2635 60.183 96.1564 60.2463 96.1564C60.3306 96.1564 60.4677 96.2528 60.6575 96.4455C60.8472 96.6383 60.9527 96.7882 60.9738 96.8953C60.9948 97.0023 60.9 97.1736 60.6891 97.4092C60.4782 97.6448 60.1619 97.9339 59.7402 98.2765C59.3184 98.6192 58.8334 98.9511 58.2851 99.2723C57.7369 99.5936 57.0726 99.8613 56.2924 100.075C55.5122 100.29 54.7109 100.397 53.8885 100.397C52.2226 100.397 50.9363 99.8291 50.0295 98.6941C49.1228 97.5591 48.6589 96.21 48.6378 94.6466ZM59.2024 88.7039C59.0759 87.5903 58.359 87.0335 57.0515 87.0335C56.3557 87.0335 55.7125 87.1834 55.1221 87.4832C54.5316 87.7831 54.0572 88.1471 53.6987 88.5754C53.3402 89.0037 53.0344 89.4427 52.7814 89.8925C52.5283 90.3422 52.3597 90.7277 52.2753 91.0489C52.191 91.3701 52.1382 91.5736 52.1172 91.6592C52.1172 91.6806 52.328 91.6913 52.7498 91.6913C55.1326 91.6913 56.7985 91.4344 57.7474 90.9204C58.6963 90.4064 59.1814 89.6676 59.2024 88.7039Z" fill="white"/>
<path d="M62.9665 87.676C62.8189 87.5261 62.7451 87.419 62.7451 87.3547C62.7451 87.2691 62.7767 87.0978 62.84 86.8408C62.9032 86.5838 62.9559 86.4339 62.9981 86.3911C63.0403 86.284 63.1352 86.2304 63.2828 86.2304C63.4304 86.2304 63.9681 86.2197 64.896 86.1983H66.5724L67.1734 83.6285C67.2366 83.3929 67.3104 83.0824 67.3948 82.6969C67.4791 82.3115 67.553 82.0331 67.6162 81.8617C67.6795 81.6904 67.7427 81.4763 67.806 81.2193C67.8693 80.9623 67.9536 80.7803 68.059 80.6732C68.1645 80.5661 68.2699 80.4376 68.3754 80.2877C68.4808 80.1378 68.6284 80.0414 68.8182 79.9986C69.008 79.9558 69.1978 79.9344 69.3875 79.9344C69.7671 79.9558 70.0307 80.0736 70.1783 80.2877C70.3259 80.5019 70.3997 80.7053 70.3997 80.898C70.3997 81.048 70.3048 81.5512 70.115 82.4078C69.9253 83.2644 69.7144 84.1103 69.4824 84.9455L69.1661 86.1341C69.1661 86.1769 69.6933 86.1983 70.7477 86.1983H72.3608C72.5084 86.3482 72.5822 86.466 72.5822 86.5517C72.5822 87.0228 72.4452 87.3976 72.171 87.676H68.7866L67.6478 92.3338C66.8254 95.7602 66.4142 97.602 66.4142 97.8589C66.4142 98.7584 66.6989 99.2081 67.2683 99.2081C68.0063 99.2081 68.7233 98.844 69.4192 98.1159C70.115 97.3878 70.6739 96.4884 71.0956 95.4176C71.1378 95.2891 71.1905 95.2142 71.2537 95.1927C71.317 95.1713 71.4752 95.1499 71.7282 95.1285H71.8547C72.171 95.1285 72.3292 95.2142 72.3292 95.3855C72.3292 95.4497 72.2976 95.5782 72.2343 95.7709C72.1289 96.1136 71.9391 96.5205 71.6649 96.9916C71.3908 97.4628 71.0323 97.966 70.5895 98.5014C70.1467 99.0368 69.6089 99.4865 68.9763 99.8506C68.3437 100.215 67.7006 100.397 67.0469 100.397C66.4142 100.397 65.8133 100.236 65.2439 99.9148C64.6746 99.5936 64.2634 99.0368 64.0103 98.2444C63.9681 98.0731 63.947 97.784 63.947 97.3771V96.7989L65.0541 92.3017C65.7922 89.2821 66.1717 87.7616 66.1928 87.7402C66.1928 87.6974 65.6551 87.676 64.5797 87.676H62.9665Z" fill="white"/>
<path d="M74.7964 94.6466C74.7964 93.426 74.9967 92.3124 75.3974 91.3059C75.798 90.2993 76.3147 89.4642 76.9473 88.8003C77.5799 88.1364 78.2863 87.5796 79.0665 87.1299C79.8468 86.6802 80.5848 86.3482 81.2807 86.1341C81.9766 85.9199 82.6408 85.8236 83.2734 85.845H83.3683C84.3172 85.845 85.1396 86.0805 85.8355 86.5517C86.5314 87.0228 86.8793 87.7188 86.8793 88.6397C86.8793 90.567 85.709 91.8305 83.3683 92.4302C82.335 92.7086 80.9222 92.8585 79.1298 92.8799C78.3496 92.8799 77.9489 92.9013 77.9278 92.9441C77.9278 92.987 77.8646 93.3617 77.738 94.0684C77.6115 94.7751 77.5377 95.3962 77.5166 95.9316C77.5166 96.9381 77.738 97.7304 78.1809 98.3087C78.6237 98.8869 79.288 99.1867 80.1736 99.2081C81.0593 99.2295 82.0398 99.0261 83.1153 98.5978C84.1907 98.1695 85.1607 97.4628 86.0253 96.4777C86.2151 96.2635 86.3416 96.1564 86.4049 96.1564C86.4892 96.1564 86.6263 96.2528 86.8161 96.4455C87.0059 96.6383 87.1113 96.7882 87.1324 96.8953C87.1535 97.0023 87.0586 97.1736 86.8477 97.4092C86.6368 97.6448 86.3205 97.9339 85.8988 98.2765C85.477 98.6192 84.992 98.9511 84.4438 99.2723C83.8955 99.5936 83.2313 99.8613 82.451 100.075C81.6708 100.29 80.8695 100.397 80.0471 100.397C78.3812 100.397 77.0949 99.8291 76.1881 98.6941C75.2814 97.5591 74.8175 96.21 74.7964 94.6466ZM85.3611 88.7039C85.2345 87.5903 84.5176 87.0335 83.2102 87.0335C82.5143 87.0335 81.8711 87.1834 81.2807 87.4832C80.6902 87.7831 80.2158 88.1471 79.8573 88.5754C79.4988 89.0037 79.1931 89.4427 78.94 89.8925C78.687 90.3422 78.5183 90.7277 78.4339 91.0489C78.3496 91.3701 78.2969 91.5736 78.2758 91.6592C78.2758 91.6806 78.4866 91.6913 78.9084 91.6913C81.2912 91.6913 82.9571 91.4344 83.906 90.9204C84.855 90.4064 85.34 89.6676 85.3611 88.7039Z" fill="white"/>
<path d="M88.967 90.824C88.9881 90.7598 89.0091 90.6741 89.0302 90.567C89.0513 90.46 89.104 90.2244 89.1884 89.8603C89.2727 89.4963 89.3782 89.1643 89.5047 88.8645C89.6312 88.5647 89.7894 88.2114 89.9792 87.8045C90.1689 87.3976 90.3798 87.0763 90.6118 86.8408C90.8437 86.6052 91.1179 86.3696 91.4342 86.1341C91.7505 85.8985 92.0984 85.8021 92.478 85.845C93.0895 85.845 93.6272 85.9735 94.0911 86.2304C94.5551 86.4874 94.8819 86.723 95.0717 86.9372C95.2615 87.1513 95.3775 87.3655 95.4196 87.5796C95.4618 87.7081 95.4934 87.7723 95.5145 87.7723C95.5356 87.7723 95.62 87.6974 95.7676 87.5475C96.7798 86.4339 97.9501 85.8771 99.2786 85.8771H99.3735C100.386 85.8771 101.145 86.3161 101.651 87.1941C101.82 87.601 101.904 87.9972 101.904 88.3827C101.904 89.0251 101.767 89.5391 101.493 89.9246C101.219 90.3101 100.944 90.5563 100.67 90.6634C100.396 90.7705 100.133 90.8133 99.8796 90.7919C99.4578 90.7919 99.1204 90.6741 98.8674 90.4385C98.6143 90.203 98.4878 89.8925 98.4878 89.507C98.4878 88.479 99.0783 87.7938 100.259 87.4511C99.7952 87.1727 99.4157 87.0335 99.1204 87.0335C97.9396 87.0335 96.8536 87.8259 95.8625 89.4106C95.6516 89.7533 95.4934 90.1066 95.388 90.4707C95.2826 90.8347 94.9241 92.2588 94.3126 94.743C93.5956 97.7412 93.1844 99.3366 93.079 99.5293C92.8048 100.108 92.3515 100.397 91.7188 100.397C91.4447 100.397 91.2233 100.332 91.0546 100.204C90.8859 100.075 90.7699 99.9469 90.7067 99.8184C90.6434 99.6899 90.6223 99.5829 90.6434 99.4972C90.6434 99.2188 91.0651 97.3771 91.9086 93.9721C92.7521 90.567 93.1739 88.6718 93.1739 88.2863C93.1739 87.4511 92.8997 87.0335 92.3515 87.0335C91.9086 87.0335 91.5291 87.3333 91.2127 87.933C90.8964 88.5326 90.6434 89.1858 90.4536 89.8925C90.2638 90.5992 90.1478 90.9846 90.1057 91.0489C90.0635 91.0917 89.8948 91.1131 89.5996 91.1131H89.1568C89.0302 90.9846 88.967 90.8883 88.967 90.824Z" fill="white"/>
<path d="M103.232 90.824C103.254 90.6955 103.285 90.5242 103.327 90.3101C103.369 90.0959 103.496 89.689 103.707 89.0894C103.918 88.4898 104.129 87.9865 104.34 87.5796C104.55 87.1727 104.888 86.7765 105.352 86.3911C105.816 86.0056 106.28 85.8236 106.743 85.845C107.207 85.8664 107.661 85.9413 108.104 86.0698C108.546 86.1983 108.863 86.3911 109.052 86.648C109.242 86.905 109.411 87.1406 109.559 87.3547C109.706 87.5689 109.791 87.7723 109.812 87.9651L109.875 88.1899C109.875 88.2328 109.885 88.2542 109.907 88.2542L110.254 87.9008C111.52 86.5303 113.006 85.845 114.714 85.845C115.073 85.845 115.4 85.8664 115.695 85.9092C115.99 85.952 116.264 86.027 116.517 86.1341C116.77 86.2412 116.971 86.3482 117.118 86.4553C117.266 86.5624 117.424 86.6909 117.593 86.8408C117.761 86.9907 117.867 87.1299 117.909 87.2584C117.951 87.3869 118.036 87.5261 118.162 87.676C118.289 87.8259 118.331 87.9544 118.289 88.0615C118.246 88.1685 118.278 88.2649 118.384 88.3506C118.489 88.4362 118.51 88.5112 118.447 88.5754L118.7 88.2542C120.028 86.648 121.599 85.845 123.413 85.845C124.552 85.845 125.469 86.1341 126.165 86.7123C126.861 87.2905 127.219 88.1364 127.24 89.25C127.24 90.3422 126.84 92.034 126.038 94.3254C125.237 96.6169 124.836 97.9874 124.836 98.4371C124.857 98.737 124.91 98.9404 124.994 99.0475C125.079 99.1546 125.237 99.2081 125.469 99.2081C126.059 99.2081 126.608 98.8869 127.114 98.2444C127.62 97.602 128.031 96.7239 128.347 95.6103C128.41 95.3748 128.474 95.2356 128.537 95.1927C128.6 95.1499 128.769 95.1285 129.043 95.1285C129.465 95.1285 129.676 95.2142 129.676 95.3855C129.676 95.4069 129.634 95.5675 129.549 95.8673C129.381 96.4884 129.149 97.0987 128.853 97.6983C128.558 98.298 128.073 98.8976 127.398 99.4972C126.724 100.097 125.996 100.386 125.216 100.365C124.225 100.365 123.508 100.075 123.065 99.4972C122.622 98.919 122.401 98.3194 122.401 97.6983C122.401 97.2914 122.78 96.0065 123.539 93.8436C124.299 91.6806 124.689 90.0531 124.71 88.9609C124.71 87.6974 124.246 87.0656 123.318 87.0656H123.16C121.346 87.0656 119.817 88.1471 118.573 90.3101L118.352 90.6955L117.308 95C116.612 97.8054 116.212 99.3152 116.106 99.5293C115.832 100.108 115.379 100.397 114.746 100.397C114.472 100.397 114.25 100.322 114.082 100.172C113.913 100.022 113.797 99.8934 113.734 99.7863C113.671 99.6792 113.639 99.5722 113.639 99.4651C113.639 99.2295 113.997 97.6983 114.714 94.8715L115.853 90.1816C115.916 89.8603 115.948 89.4534 115.948 88.9609C115.948 87.6974 115.484 87.0656 114.556 87.0656H114.398C112.585 87.0656 111.056 88.1471 109.812 90.3101L109.59 90.6955L108.546 95C107.851 97.8054 107.45 99.3152 107.344 99.5293C107.07 100.108 106.617 100.397 105.984 100.397C105.71 100.397 105.489 100.332 105.32 100.204C105.151 100.075 105.035 99.9469 104.972 99.8184C104.909 99.6899 104.888 99.5829 104.909 99.4972C104.909 99.2188 105.31 97.4628 106.111 94.2291C106.933 90.9311 107.344 89.2072 107.344 89.0573C107.408 88.736 107.439 88.4469 107.439 88.1899C107.439 87.419 107.176 87.0335 106.649 87.0335C106.185 87.0335 105.795 87.3333 105.478 87.933C105.162 88.5326 104.919 89.1858 104.751 89.8925C104.582 90.5992 104.455 90.9846 104.371 91.0489C104.329 91.0917 104.16 91.1131 103.865 91.1131H103.422C103.296 90.9846 103.232 90.8883 103.232 90.824Z" fill="white"/>
<path d="M136.16 80.7696C136.16 80.2556 136.36 79.8059 136.761 79.4204C137.162 79.0349 137.626 78.8315 138.153 78.8101C138.532 78.8101 138.849 78.9385 139.102 79.1955C139.355 79.4525 139.492 79.7737 139.513 80.1592C139.513 80.6518 139.302 81.1015 138.88 81.5084C138.459 81.9153 137.995 82.1294 137.489 82.1508C137.172 82.1508 136.877 82.0438 136.603 81.8296C136.329 81.6155 136.181 81.2621 136.16 80.7696ZM131.004 90.824C131.004 90.6527 131.099 90.3208 131.289 89.8282C131.479 89.3357 131.732 88.7896 132.048 88.1899C132.364 87.5903 132.828 87.0442 133.44 86.5517C134.051 86.0591 134.684 85.8236 135.338 85.845C136.16 85.845 136.845 86.0912 137.394 86.5838C137.942 87.0763 138.227 87.7402 138.248 88.5754C138.248 88.9395 138.1 89.5391 137.805 90.3743C137.51 91.2095 137.088 92.3338 136.54 93.7472C135.991 95.1606 135.549 96.3706 135.211 97.3771C135.106 97.8482 135.053 98.1909 135.053 98.405C135.053 98.9404 135.232 99.2081 135.591 99.2081C135.78 99.2081 135.981 99.176 136.192 99.1117C136.403 99.0475 136.645 98.8976 136.919 98.662C137.193 98.4264 137.478 98.0517 137.773 97.5377C138.068 97.0237 138.332 96.392 138.564 95.6425C138.627 95.3855 138.68 95.2356 138.722 95.1927C138.764 95.1499 138.944 95.1285 139.26 95.1285C139.682 95.1285 139.892 95.2356 139.892 95.4497C139.892 95.621 139.798 95.953 139.608 96.4455C139.418 96.9381 139.154 97.4842 138.817 98.0838C138.48 98.6834 138.005 99.2188 137.394 99.6899C136.782 100.161 136.128 100.397 135.433 100.397C134.758 100.397 134.136 100.172 133.566 99.7221C132.997 99.2723 132.702 98.5871 132.681 97.6662C132.681 97.3021 132.733 96.9595 132.839 96.6383C132.944 96.317 133.398 95.0964 134.199 92.9763C135 90.8133 135.464 89.5177 135.591 89.0894C135.717 88.6611 135.791 88.2435 135.812 87.8366C135.812 87.3226 135.633 87.0656 135.274 87.0656H135.211C134.578 87.0656 133.999 87.419 133.471 88.1257C132.944 88.8324 132.544 89.7318 132.269 90.824C132.248 90.8454 132.227 90.8776 132.206 90.9204C132.185 90.9632 132.175 90.9953 132.175 91.0168C132.175 91.0382 132.153 91.0596 132.111 91.081C132.069 91.1024 132.037 91.1131 132.016 91.1131C131.995 91.1131 131.953 91.1131 131.89 91.1131C131.827 91.1131 131.742 91.1131 131.637 91.1131H131.194C131.067 90.9846 131.004 90.8883 131.004 90.824Z" fill="white"/>
<path d="M141.917 90.824C141.938 90.6955 141.97 90.5242 142.012 90.3101C142.054 90.0959 142.18 89.689 142.391 89.0894C142.602 88.4898 142.813 87.9865 143.024 87.5796C143.235 87.1727 143.583 86.7765 144.068 86.3911C144.553 86.0056 145.038 85.8236 145.523 85.845C146.282 85.845 146.914 86.0377 147.421 86.4232C147.927 86.8087 148.243 87.1727 148.37 87.5154C148.496 87.858 148.559 88.0829 148.559 88.1899C148.559 88.2328 148.57 88.2542 148.591 88.2542L148.939 87.9008C150.225 86.5303 151.691 85.845 153.336 85.845C154.474 85.845 155.392 86.1341 156.087 86.7123C156.783 87.2905 157.142 88.1364 157.163 89.25C157.184 90.3636 156.783 92.0447 155.961 94.2933C155.138 96.5419 154.738 97.9018 154.759 98.3729C154.759 98.9297 154.938 99.2081 155.297 99.2081C155.423 99.2081 155.518 99.1974 155.581 99.176C156.193 99.0689 156.741 98.662 157.226 97.9553C157.711 97.2486 158.08 96.392 158.333 95.3855C158.375 95.2142 158.586 95.1285 158.966 95.1285C159.388 95.1285 159.598 95.2142 159.598 95.3855C159.598 95.4069 159.556 95.5675 159.472 95.8673C159.303 96.4884 159.071 97.0987 158.776 97.6983C158.481 98.298 157.996 98.8976 157.321 99.4972C156.646 100.097 155.919 100.386 155.138 100.365C154.147 100.365 153.43 100.075 152.988 99.4972C152.545 98.919 152.323 98.3194 152.323 97.6983C152.323 97.2914 152.703 96.0065 153.462 93.8436C154.221 91.6806 154.611 90.0531 154.632 88.9609C154.632 87.6974 154.168 87.0656 153.241 87.0656H153.082C151.269 87.0656 149.74 88.1471 148.496 90.3101L148.275 90.6955L147.231 95C146.535 97.8054 146.134 99.3152 146.029 99.5293C145.755 100.108 145.301 100.397 144.669 100.397C144.395 100.397 144.173 100.332 144.004 100.204C143.836 100.075 143.72 99.9469 143.657 99.8184C143.593 99.6899 143.572 99.5829 143.593 99.4972C143.593 99.2188 143.994 97.4735 144.795 94.2612C145.597 91.0489 146.018 89.3035 146.06 89.0251C146.082 88.9181 146.092 88.6718 146.092 88.2863C146.092 87.4511 145.839 87.0335 145.333 87.0335C144.532 87.0335 143.867 88.1043 143.34 90.2458C143.214 90.6741 143.15 90.899 143.15 90.9204C143.108 91.0489 142.908 91.1131 142.549 91.1131H142.107C141.98 90.9846 141.917 90.8883 141.917 90.824Z" fill="white"/>
<path d="M161.275 95C161.275 92.8371 162.076 90.7812 163.679 88.8324C165.281 86.8836 167.084 85.8985 169.088 85.8771C170.163 85.8771 171.112 86.4018 171.934 87.4511C172.272 86.8087 172.757 86.4874 173.389 86.4874C173.664 86.4874 173.906 86.5731 174.117 86.7444C174.328 86.9157 174.433 87.1299 174.433 87.3869C174.433 87.6653 174.043 89.3785 173.263 92.5265C172.483 95.6746 172.082 97.452 172.061 97.8589C172.061 98.3943 172.135 98.7477 172.282 98.919C172.43 99.0903 172.651 99.1867 172.947 99.2081C173.136 99.1867 173.347 99.0903 173.579 98.919C174.022 98.4907 174.454 97.4628 174.876 95.8352C175.003 95.4069 175.108 95.182 175.192 95.1606C175.235 95.1392 175.34 95.1285 175.509 95.1285H175.635C176.036 95.1285 176.236 95.2249 176.236 95.4176C176.236 95.5461 176.183 95.8352 176.078 96.2849C175.973 96.7346 175.762 97.3128 175.445 98.0196C175.129 98.7263 174.792 99.2616 174.433 99.6257C174.159 99.9041 173.822 100.129 173.421 100.3C173.252 100.343 172.999 100.365 172.662 100.365C171.945 100.365 171.344 100.204 170.859 99.8827C170.374 99.5615 170.058 99.2295 169.91 98.8869L169.72 98.405C169.699 98.3836 169.657 98.3943 169.594 98.4371C169.552 98.48 169.509 98.5228 169.467 98.5656C168.223 99.7649 166.958 100.365 165.671 100.365C164.512 100.365 163.489 99.9362 162.603 99.0796C161.718 98.223 161.275 96.8631 161.275 95ZM171.333 89.507C171.333 89.3785 171.281 89.1429 171.175 88.8003C171.07 88.4576 170.827 88.0829 170.448 87.676C170.068 87.2691 169.583 87.0549 168.993 87.0335C168.255 87.0335 167.548 87.3655 166.873 88.0293C166.199 88.6932 165.672 89.5605 165.292 90.6313C164.68 92.3231 164.248 94.0791 163.995 95.8994C163.995 95.9637 163.995 96.0815 163.995 96.2528C163.995 96.4241 163.985 96.5526 163.963 96.6383C163.963 97.602 164.153 98.2658 164.533 98.6299C164.912 98.9939 165.366 99.1867 165.893 99.2081C166.694 99.2081 167.485 98.8547 168.265 98.148C169.045 97.4413 169.509 96.8953 169.657 96.5098C169.699 96.4241 169.984 95.2784 170.511 93.0726C171.038 90.8669 171.312 89.6783 171.333 89.507Z" fill="white"/>
<path d="M177.628 90.824C177.649 90.6955 177.681 90.5242 177.723 90.3101C177.765 90.0959 177.892 89.689 178.102 89.0894C178.313 88.4898 178.524 87.9865 178.735 87.5796C178.946 87.1727 179.294 86.7765 179.779 86.3911C180.264 86.0056 180.749 85.8236 181.234 85.845C181.993 85.845 182.626 86.0377 183.132 86.4232C183.638 86.8087 183.954 87.1727 184.081 87.5154C184.207 87.858 184.27 88.0829 184.27 88.1899C184.27 88.2328 184.281 88.2542 184.302 88.2542L184.65 87.9008C185.936 86.5303 187.402 85.845 189.047 85.845C190.185 85.845 191.103 86.1341 191.798 86.7123C192.494 87.2905 192.853 88.1364 192.874 89.25C192.895 90.3636 192.494 92.0447 191.672 94.2933C190.85 96.5419 190.449 97.9018 190.47 98.3729C190.47 98.9297 190.649 99.2081 191.008 99.2081C191.134 99.2081 191.229 99.1974 191.292 99.176C191.904 99.0689 192.452 98.662 192.937 97.9553C193.422 97.2486 193.791 96.392 194.044 95.3855C194.086 95.2142 194.297 95.1285 194.677 95.1285C195.099 95.1285 195.31 95.2142 195.31 95.3855C195.31 95.4069 195.267 95.5675 195.183 95.8673C195.014 96.4884 194.782 97.0987 194.487 97.6983C194.192 98.298 193.707 98.8976 193.032 99.4972C192.357 100.097 191.63 100.386 190.85 100.365C189.858 100.365 189.142 100.075 188.699 99.4972C188.256 98.919 188.034 98.3194 188.034 97.6983C188.034 97.2914 188.414 96.0065 189.173 93.8436C189.932 91.6806 190.322 90.0531 190.343 88.9609C190.343 87.6974 189.88 87.0656 188.952 87.0656H188.794C186.98 87.0656 185.451 88.1471 184.207 90.3101L183.986 90.6955L182.942 95C182.246 97.8054 181.845 99.3152 181.74 99.5293C181.466 100.108 181.012 100.397 180.38 100.397C180.106 100.397 179.884 100.332 179.716 100.204C179.547 100.075 179.431 99.9469 179.368 99.8184C179.304 99.6899 179.283 99.5829 179.304 99.4972C179.304 99.2188 179.705 97.4735 180.506 94.2612C181.308 91.0489 181.729 89.3035 181.772 89.0251C181.793 88.9181 181.803 88.6718 181.803 88.2863C181.803 87.4511 181.55 87.0335 181.044 87.0335C180.243 87.0335 179.578 88.1043 179.051 90.2458C178.925 90.6741 178.862 90.899 178.862 90.9204C178.819 91.0489 178.619 91.1131 178.261 91.1131H177.818C177.691 90.9846 177.628 90.8883 177.628 90.824Z" fill="white"/>
<path d="M196.765 87.676C196.617 87.5261 196.543 87.419 196.543 87.3547C196.543 87.2691 196.575 87.0978 196.638 86.8408C196.701 86.5838 196.754 86.4339 196.796 86.3911C196.838 86.284 196.933 86.2304 197.081 86.2304C197.228 86.2304 197.766 86.2197 198.694 86.1983H200.37L200.971 83.6285C201.035 83.3929 201.108 83.0824 201.193 82.6969C201.277 82.3115 201.351 82.0331 201.414 81.8617C201.477 81.6904 201.541 81.4763 201.604 81.2193C201.667 80.9623 201.752 80.7803 201.857 80.6732C201.962 80.5661 202.068 80.4376 202.173 80.2877C202.279 80.1378 202.426 80.0414 202.616 79.9986C202.806 79.9558 202.996 79.9344 203.186 79.9344C203.565 79.9558 203.829 80.0736 203.976 80.2877C204.124 80.5019 204.198 80.7053 204.198 80.898C204.198 81.048 204.103 81.5512 203.913 82.4078C203.723 83.2644 203.512 84.1103 203.28 84.9455L202.964 86.1341C202.964 86.1769 203.491 86.1983 204.546 86.1983H206.159C206.306 86.3482 206.38 86.466 206.38 86.5517C206.38 87.0228 206.243 87.3976 205.969 87.676H202.585L201.446 92.3338C200.623 95.7602 200.212 97.602 200.212 97.8589C200.212 98.7584 200.497 99.2081 201.066 99.2081C201.804 99.2081 202.521 98.844 203.217 98.1159C203.913 97.3878 204.472 96.4884 204.894 95.4176C204.936 95.2891 204.989 95.2142 205.052 95.1927C205.115 95.1713 205.273 95.1499 205.526 95.1285H205.653C205.969 95.1285 206.127 95.2142 206.127 95.3855C206.127 95.4497 206.096 95.5782 206.032 95.7709C205.927 96.1136 205.737 96.5205 205.463 96.9916C205.189 97.4628 204.83 97.966 204.388 98.5014C203.945 99.0368 203.407 99.4865 202.774 99.8506C202.142 100.215 201.499 100.397 200.845 100.397C200.212 100.397 199.611 100.236 199.042 99.9148C198.473 99.5936 198.061 99.0368 197.808 98.2444C197.766 98.0731 197.745 97.784 197.745 97.3771V96.7989L198.852 92.3017C199.59 89.2821 199.97 87.7616 199.991 87.7402C199.991 87.6974 199.453 87.676 198.378 87.676H196.765Z" fill="white"/>
<path d="M217.919 88.8966C217.919 88.6182 218.067 88.4041 218.362 88.2542H238.511C238.827 88.4255 238.985 88.6397 238.985 88.8966C238.985 89.1322 238.838 89.3357 238.542 89.507L228.484 89.5391H218.425C218.088 89.432 217.919 89.2179 217.919 88.8966ZM217.919 95.1285C217.919 94.8073 218.088 94.5931 218.425 94.486H238.542C238.838 94.7002 238.985 94.9143 238.985 95.1285C238.985 95.4069 238.827 95.621 238.511 95.7709H218.362C218.067 95.621 217.919 95.4069 217.919 95.1285Z" fill="white"/>
<path d="M252.201 92.4302C252.201 92.4302 252.201 92.291 252.201 92.0126C252.201 91.7342 252.348 91.52 252.643 91.3701H271.021C271.337 91.5414 271.495 91.7556 271.495 92.0126C271.495 92.2696 271.337 92.4837 271.021 92.655H252.643C252.348 92.5051 252.201 92.291 252.201 92.0126V92.4302Z" fill="white"/>
<path d="M277.189 81.2514C278.37 79.5168 279.983 78.6494 282.028 78.6494C283.041 78.6494 284.053 78.9278 285.065 79.4846C286.077 80.0414 286.9 81.0265 287.532 82.4399C288.312 84.2174 288.702 86.6588 288.702 89.764C288.702 93.0833 288.249 95.621 287.342 97.3771C286.921 98.2765 286.341 98.9939 285.603 99.5293C284.865 100.065 284.221 100.397 283.673 100.525C283.125 100.654 282.587 100.729 282.06 100.75C281.512 100.75 280.963 100.686 280.415 100.557C279.867 100.429 279.224 100.086 278.486 99.5293C277.748 98.9725 277.168 98.2551 276.746 97.3771C275.839 95.621 275.386 93.0833 275.386 89.764C275.386 86.0377 275.987 83.2002 277.189 81.2514ZM284.306 80.8659C283.673 80.1806 282.925 79.838 282.06 79.838C281.174 79.838 280.415 80.1806 279.783 80.8659C279.255 81.4227 278.907 82.1937 278.739 83.1788C278.57 84.1639 278.486 86.2197 278.486 89.3464C278.486 92.73 278.57 94.9572 278.739 96.0279C278.907 97.0987 279.287 97.9446 279.877 98.5656C280.468 99.2081 281.195 99.5293 282.06 99.5293C282.903 99.5293 283.62 99.2081 284.211 98.5656C284.822 97.9232 285.202 97.0237 285.35 95.8673C285.497 94.7109 285.582 92.5372 285.603 89.3464C285.603 86.2412 285.518 84.196 285.35 83.2109C285.181 82.2258 284.833 81.4441 284.306 80.8659Z" fill="white"/>
<path d="M292.435 98.1159C292.435 97.602 292.614 97.1522 292.973 96.7668C293.331 96.3813 293.784 96.1885 294.333 96.1885C294.839 96.1885 295.282 96.3599 295.661 96.7025C296.041 97.0452 296.241 97.5056 296.262 98.0838C296.262 98.6192 296.083 99.0796 295.724 99.4651C295.366 99.8506 294.913 100.043 294.364 100.043C293.816 100.043 293.363 99.8613 293.004 99.4972C292.646 99.1331 292.456 98.6727 292.435 98.1159Z" fill="white"/>
<path d="M302.209 86.2626C301.639 86.2626 301.186 86.0698 300.849 85.6844C300.511 85.2989 300.343 84.8277 300.343 84.2709C300.343 82.7505 300.901 81.4334 302.019 80.3198C303.137 79.2062 304.528 78.6494 306.194 78.6494C308.113 78.6494 309.716 79.2491 311.002 80.4483C312.288 81.6476 312.942 83.2002 312.963 85.1061C312.963 86.027 312.752 86.905 312.331 87.7402C311.909 88.5754 311.403 89.3035 310.812 89.9246C310.222 90.5456 309.378 91.338 308.282 92.3017C307.523 92.9655 306.468 93.9507 305.119 95.257L303.253 97.0559L305.657 97.088C308.967 97.088 310.728 97.0344 310.939 96.9274C311.086 96.8845 311.339 95.9316 311.698 94.0684V93.9721H312.963V94.0684C312.942 94.1327 312.805 95.1071 312.552 96.9916C312.299 98.8762 312.141 99.8613 312.078 99.9469V100.043H300.343V99.0475C300.343 98.8976 300.406 98.737 300.532 98.5656C300.659 98.3943 300.975 98.0196 301.481 97.4413C302.093 96.7561 302.62 96.1564 303.063 95.6425C303.253 95.4283 303.611 95.0321 304.138 94.4539C304.665 93.8757 305.024 93.4795 305.214 93.2654C305.403 93.0512 305.709 92.6979 306.131 92.2053C306.553 91.7128 306.848 91.3487 307.017 91.1131C307.185 90.8776 307.428 90.5563 307.744 90.1494C308.06 89.7426 308.282 89.3999 308.408 89.1215C308.535 88.8431 308.693 88.5326 308.883 88.1899C309.073 87.8473 309.21 87.5047 309.294 87.162C309.378 86.8194 309.452 86.4981 309.515 86.1983C309.579 85.8985 309.61 85.5452 309.61 85.1383C309.61 83.7891 309.252 82.622 308.535 81.6369C307.818 80.6518 306.795 80.1592 305.467 80.1592C304.771 80.1592 304.159 80.3412 303.632 80.7053C303.105 81.0694 302.736 81.4227 302.525 81.7654C302.314 82.108 302.209 82.3115 302.209 82.3757C302.209 82.3971 302.261 82.4078 302.367 82.4078C302.746 82.4078 303.137 82.5577 303.537 82.8575C303.938 83.1574 304.138 83.6499 304.138 84.3352C304.138 84.8706 303.97 85.3203 303.632 85.6844C303.295 86.0484 302.82 86.2412 302.209 86.2626Z" fill="white"/>
<path d="M315.905 89.9888C315.905 86.4981 316.759 83.7356 318.467 81.7011C320.175 79.6667 322.073 78.6494 324.161 78.6494C325.616 78.6494 326.659 79.0349 327.292 79.8059C327.925 80.5768 328.241 81.4334 328.241 82.3757C328.241 82.9111 328.093 83.3394 327.798 83.6606C327.503 83.9818 327.092 84.1425 326.564 84.1425C326.079 84.1425 325.679 83.9926 325.362 83.6927C325.046 83.3929 324.888 82.9753 324.888 82.4399C324.888 81.4977 325.384 80.9302 326.375 80.7374C325.911 80.2663 325.257 79.9986 324.414 79.9344C322.916 79.9344 321.683 80.5768 320.713 81.8617C319.722 83.2751 319.226 85.4381 319.226 88.3506L319.258 88.479C319.363 88.3506 319.448 88.2114 319.511 88.0615C320.375 86.7765 321.504 86.1341 322.895 86.1341H323.022C323.992 86.1341 324.846 86.3375 325.584 86.7444C326.09 87.0442 326.596 87.4725 327.102 88.0293C327.608 88.5861 328.019 89.1965 328.336 89.8603C328.779 90.9097 329 92.0554 329 93.2975V93.8757C329 94.3682 328.947 94.8287 328.842 95.257C328.61 96.5205 327.935 97.7519 326.817 98.9511C325.7 100.15 324.287 100.75 322.579 100.75C321.989 100.75 321.419 100.664 320.871 100.493C320.323 100.322 319.732 100 319.1 99.5293C318.467 99.0582 317.929 98.4264 317.486 97.6341C317.044 96.8417 316.664 95.8031 316.348 94.5182C316.031 93.2332 315.884 91.7235 315.905 89.9888ZM322.705 87.2905C322.073 87.2905 321.525 87.4725 321.061 87.8366C320.597 88.2007 320.238 88.6825 319.985 89.2821C319.732 89.8817 319.553 90.4921 319.448 91.1131C319.342 91.7342 319.279 92.398 319.258 93.1047C319.258 94.8822 319.384 96.1564 319.637 96.9274C319.89 97.6983 320.291 98.3194 320.839 98.7905C321.345 99.176 321.904 99.3687 322.516 99.3687C323.591 99.3687 324.414 98.9618 324.983 98.148C325.257 97.7626 325.447 97.2807 325.552 96.7025C325.658 96.1243 325.71 95 325.71 93.3296C325.71 91.6164 325.658 90.4707 325.552 89.8925C325.447 89.3142 325.257 88.8324 324.983 88.4469C324.414 87.676 323.654 87.2905 322.705 87.2905Z" fill="white"/>
</g>
<defs>
<clipPath id="clip0_588_6974">
<rect width="700" height="232" fill="white" transform="translate(0 0.75)"/>
</clipPath>
<clipPath id="clip1_588_6974">
<rect width="1284" height="1284" fill="white" transform="translate(-292.5 -523.75)"/>
</clipPath>
</defs>
</svg>
