<svg width="700" height="350" viewBox="0 0 700 350" fill="none" xmlns="http://www.w3.org/2000/svg">
<g clip-path="url(#clip0_588_6937)">
<rect width="700" height="349" transform="translate(0 0.75)" fill="#0A0D12"/>
<g clip-path="url(#clip1_588_6937)">
<rect width="1284" height="1284" transform="translate(-292.5 -407.75)" fill="#0A0D12"/>
<g opacity="0.4">
<line x1="408.656" y1="-1049.75" x2="408.656" y2="1518.25" stroke="#67DBFF" stroke-width="0.917143"/>
<line x1="467.353" y1="-1049.75" x2="467.353" y2="1518.25" stroke="#67DBFF" stroke-width="0.917143"/>
<line x1="526.05" y1="-1049.75" x2="526.05" y2="1518.25" stroke="#67DBFF" stroke-width="0.917143"/>
<line x1="584.748" y1="-1049.75" x2="584.747" y2="1518.25" stroke="#67DBFF" stroke-width="0.917143"/>
<line x1="643.444" y1="-1049.75" x2="643.444" y2="1518.25" stroke="#67DBFF" stroke-width="0.917143"/>
<line x1="56.4732" y1="-1049.75" x2="56.473" y2="1518.25" stroke="#67DBFF" stroke-width="0.917143"/>
<line x1="115.17" y1="-1049.75" x2="115.169" y2="1518.25" stroke="#67DBFF" stroke-width="0.917143"/>
<line x1="173.867" y1="-1049.75" x2="173.867" y2="1518.25" stroke="#67DBFF" stroke-width="0.917143"/>
<line x1="232.564" y1="-1049.75" x2="232.564" y2="1518.25" stroke="#67DBFF" stroke-width="0.917143"/>
<line x1="291.261" y1="-1049.75" x2="291.261" y2="1518.25" stroke="#67DBFF" stroke-width="0.917143"/>
<line x1="-934.5" y1="175.094" x2="1633.5" y2="175.094" stroke="#67DBFF" stroke-width="0.917143"/>
<line x1="-934.5" y1="116.397" x2="1633.5" y2="116.397" stroke="#67DBFF" stroke-width="0.917143"/>
<line x1="-934.5" y1="57.7" x2="1633.5" y2="57.7" stroke="#67DBFF" stroke-width="0.917143"/>
<line x1="-934.5" y1="292.489" x2="1633.5" y2="292.489" stroke="#67DBFF" stroke-width="0.917143"/>
</g>
<line x1="349.959" y1="-1049.75" x2="349.958" y2="1518.25" stroke="#E6E6E6" stroke-width="0.917143"/>
<line x1="-934.5" y1="233.791" x2="1633.5" y2="233.791" stroke="#E6E6E6" stroke-width="0.917143"/>
</g>
<path d="M349.21 233.382L234.98 143.216L204.873 30.8521L319.102 121.019L349.21 233.382Z" fill="#18C8FF" fill-opacity="0.3" stroke="#67DBFF"/>
<path d="M348.504 234.614C348.719 235.414 349.541 235.889 350.341 235.674C351.142 235.46 351.616 234.637 351.402 233.837L348.504 234.614ZM319.671 121.212L315.188 137.943L331.919 133.46L319.671 121.212ZM351.402 233.837L324.614 133.864L321.716 134.64L348.504 234.614L351.402 233.837Z" fill="#20C831"/>
<path d="M349.514 235.28C350.168 235.789 351.11 235.671 351.619 235.017C352.128 234.364 352.011 233.421 351.357 232.912L349.514 235.28ZM234.669 143.988L241.187 160.036L251.826 146.368L234.669 143.988ZM351.357 232.912L246.244 151.097L244.401 153.464L349.514 235.28L351.357 232.912Z" fill="#006AE7"/>
<path d="M218.039 275.799C218.039 273.672 218.837 271.65 220.432 269.733C222.027 267.817 223.821 266.848 225.815 266.827C226.886 266.827 227.83 267.343 228.649 268.375C228.985 267.743 229.467 267.427 230.097 267.427C230.37 267.427 230.611 267.511 230.821 267.68C231.031 267.848 231.136 268.059 231.136 268.312C231.136 268.585 230.748 270.27 229.971 273.366C229.194 276.463 228.796 278.211 228.775 278.611C228.775 279.137 228.848 279.485 228.995 279.653C229.142 279.822 229.362 279.917 229.656 279.938C229.845 279.917 230.055 279.822 230.286 279.653C230.727 279.232 231.157 278.221 231.577 276.62C231.703 276.199 231.808 275.978 231.892 275.957C231.933 275.936 232.038 275.925 232.206 275.925H232.332C232.731 275.925 232.93 276.02 232.93 276.21C232.93 276.336 232.878 276.62 232.773 277.063C232.668 277.505 232.458 278.074 232.143 278.769C231.829 279.464 231.493 279.99 231.136 280.348C230.863 280.622 230.527 280.843 230.128 281.012C229.961 281.054 229.709 281.075 229.373 281.075C228.659 281.075 228.061 280.917 227.578 280.601C227.096 280.285 226.781 279.959 226.634 279.622L226.445 279.148C226.424 279.127 226.382 279.137 226.319 279.179C226.277 279.222 226.235 279.264 226.193 279.306C224.955 280.485 223.695 281.075 222.415 281.075C221.261 281.075 220.243 280.654 219.361 279.811C218.48 278.969 218.039 277.631 218.039 275.799ZM228.051 270.397C228.051 270.27 227.998 270.039 227.893 269.702C227.788 269.365 227.547 268.996 227.169 268.596C226.791 268.196 226.309 267.985 225.721 267.964C224.986 267.964 224.283 268.291 223.612 268.943C222.94 269.596 222.415 270.449 222.037 271.502C221.429 273.166 220.998 274.893 220.747 276.684C220.747 276.747 220.747 276.863 220.747 277.031C220.747 277.2 220.736 277.326 220.715 277.41C220.715 278.358 220.904 279.011 221.282 279.369C221.66 279.727 222.111 279.917 222.636 279.938C223.433 279.938 224.22 279.59 224.997 278.895C225.773 278.2 226.235 277.663 226.382 277.284C226.424 277.2 226.707 276.073 227.232 273.904C227.757 271.734 228.03 270.565 228.051 270.397Z" fill="white"/>
<path d="M234.316 271.692C234.337 271.629 234.358 271.545 234.379 271.439C234.4 271.334 234.452 271.102 234.536 270.744C234.62 270.386 234.725 270.06 234.851 269.765C234.977 269.47 235.134 269.123 235.323 268.722C235.512 268.322 235.722 268.006 235.953 267.775C236.184 267.543 236.457 267.311 236.772 267.08C237.086 266.848 237.433 266.753 237.81 266.795C238.419 266.795 238.954 266.922 239.416 267.174C239.878 267.427 240.203 267.659 240.392 267.869C240.581 268.08 240.696 268.291 240.738 268.501C240.78 268.628 240.812 268.691 240.833 268.691C240.854 268.691 240.938 268.617 241.085 268.47C242.092 267.374 243.257 266.827 244.579 266.827H244.674C245.681 266.827 246.437 267.259 246.94 268.122C247.108 268.522 247.192 268.912 247.192 269.291C247.192 269.923 247.056 270.428 246.783 270.807C246.51 271.187 246.237 271.429 245.965 271.534C245.692 271.639 245.429 271.682 245.177 271.66C244.758 271.66 244.422 271.545 244.17 271.313C243.918 271.081 243.792 270.776 243.792 270.397C243.792 269.386 244.38 268.712 245.555 268.375C245.093 268.101 244.716 267.964 244.422 267.964C243.246 267.964 242.166 268.743 241.179 270.302C240.969 270.639 240.812 270.986 240.707 271.345C240.602 271.703 240.245 273.103 239.636 275.546C238.923 278.495 238.514 280.064 238.409 280.254C238.136 280.822 237.685 281.107 237.055 281.107C236.782 281.107 236.562 281.043 236.394 280.917C236.226 280.791 236.11 280.664 236.047 280.538C235.984 280.412 235.963 280.306 235.984 280.222C235.984 279.948 236.404 278.137 237.244 274.788C238.083 271.439 238.503 269.575 238.503 269.196C238.503 268.375 238.23 267.964 237.685 267.964C237.244 267.964 236.866 268.259 236.551 268.849C236.236 269.438 235.984 270.081 235.796 270.776C235.607 271.471 235.491 271.85 235.449 271.913C235.407 271.955 235.239 271.976 234.946 271.976H234.505C234.379 271.85 234.316 271.755 234.316 271.692Z" fill="white"/>
<path d="M249.113 275.452C249.113 274.251 249.312 273.156 249.711 272.166C250.109 271.176 250.624 270.355 251.253 269.702C251.883 269.049 252.586 268.501 253.363 268.059C254.139 267.617 254.874 267.29 255.566 267.08C256.259 266.869 256.92 266.774 257.55 266.795H257.644C258.589 266.795 259.407 267.027 260.1 267.49C260.793 267.954 261.139 268.638 261.139 269.544C261.139 271.439 259.974 272.682 257.644 273.272C256.616 273.545 255.21 273.693 253.426 273.714C252.649 273.714 252.25 273.735 252.229 273.777C252.229 273.819 252.166 274.188 252.04 274.883C251.914 275.578 251.841 276.189 251.82 276.715C251.82 277.705 252.04 278.484 252.481 279.053C252.922 279.622 253.583 279.917 254.465 279.938C255.346 279.959 256.322 279.759 257.392 279.337C258.463 278.916 259.428 278.221 260.289 277.252C260.478 277.042 260.604 276.936 260.667 276.936C260.751 276.936 260.887 277.031 261.076 277.221C261.265 277.41 261.37 277.558 261.391 277.663C261.412 277.768 261.317 277.937 261.107 278.169C260.898 278.4 260.583 278.685 260.163 279.022C259.743 279.359 259.26 279.685 258.715 280.001C258.169 280.317 257.508 280.58 256.731 280.791C255.955 281.001 255.157 281.107 254.339 281.107C252.681 281.107 251.4 280.549 250.498 279.432C249.595 278.316 249.133 276.989 249.113 275.452ZM259.628 269.607C259.502 268.512 258.788 267.964 257.487 267.964C256.794 267.964 256.154 268.112 255.566 268.406C254.979 268.701 254.507 269.059 254.15 269.481C253.793 269.902 253.489 270.334 253.237 270.776C252.985 271.218 252.817 271.597 252.733 271.913C252.649 272.229 252.597 272.429 252.576 272.513C252.576 272.535 252.786 272.545 253.205 272.545C255.577 272.545 257.235 272.292 258.18 271.787C259.124 271.281 259.607 270.555 259.628 269.607Z" fill="white"/>
<path d="M263.595 275.799C263.595 273.672 264.392 271.65 265.988 269.733C267.583 267.817 269.377 266.848 271.371 266.827C272.442 266.827 273.386 267.343 274.205 268.375C274.54 267.743 275.023 267.427 275.653 267.427C275.926 267.427 276.167 267.511 276.377 267.68C276.587 267.848 276.692 268.059 276.692 268.312C276.692 268.585 276.303 270.27 275.527 273.366C274.75 276.463 274.351 278.211 274.33 278.611C274.33 279.137 274.404 279.485 274.551 279.653C274.698 279.822 274.918 279.917 275.212 279.938C275.401 279.917 275.611 279.822 275.842 279.653C276.282 279.232 276.713 278.221 277.132 276.62C277.258 276.199 277.363 275.978 277.447 275.957C277.489 275.936 277.594 275.925 277.762 275.925H277.888C278.287 275.925 278.486 276.02 278.486 276.21C278.486 276.336 278.434 276.62 278.329 277.063C278.224 277.505 278.014 278.074 277.699 278.769C277.384 279.464 277.049 279.99 276.692 280.348C276.419 280.622 276.083 280.843 275.684 281.012C275.516 281.054 275.264 281.075 274.929 281.075C274.215 281.075 273.617 280.917 273.134 280.601C272.651 280.285 272.337 279.959 272.19 279.622L272.001 279.148C271.98 279.127 271.938 279.137 271.875 279.179C271.833 279.222 271.791 279.264 271.749 279.306C270.511 280.485 269.251 281.075 267.971 281.075C266.817 281.075 265.799 280.654 264.917 279.811C264.036 278.969 263.595 277.631 263.595 275.799ZM273.606 270.397C273.606 270.27 273.554 270.039 273.449 269.702C273.344 269.365 273.103 268.996 272.725 268.596C272.347 268.196 271.864 267.985 271.277 267.964C270.542 267.964 269.839 268.291 269.167 268.943C268.496 269.596 267.971 270.449 267.593 271.502C266.984 273.166 266.554 274.893 266.302 276.684C266.302 276.747 266.302 276.863 266.302 277.031C266.302 277.2 266.292 277.326 266.271 277.41C266.271 278.358 266.46 279.011 266.838 279.369C267.215 279.727 267.667 279.917 268.191 279.938C268.989 279.938 269.776 279.59 270.553 278.895C271.329 278.2 271.791 277.663 271.938 277.284C271.98 277.2 272.263 276.073 272.788 273.904C273.313 271.734 273.585 270.565 273.606 270.397Z" fill="white"/>
<path d="M289.725 269.796C289.725 269.523 289.872 269.312 290.166 269.165H310.221C310.535 269.333 310.693 269.544 310.693 269.796C310.693 270.028 310.546 270.228 310.252 270.397L300.241 270.428H290.229C289.893 270.323 289.725 270.112 289.725 269.796ZM289.725 275.925C289.725 275.61 289.893 275.399 290.229 275.294H310.252C310.546 275.504 310.693 275.715 310.693 275.925C310.693 276.199 310.535 276.41 310.221 276.557H290.166C289.872 276.41 289.725 276.199 289.725 275.925Z" fill="white"/>
<path d="M325.238 266.132C324.671 266.132 324.231 265.953 323.916 265.595C323.601 265.237 323.433 264.773 323.412 264.205C323.412 263.046 323.916 262.014 324.923 261.108C325.931 260.203 327.148 259.75 328.575 259.75C329.31 259.75 329.772 259.761 329.96 259.782C331.514 260.034 332.699 260.592 333.518 261.456C334.337 262.32 334.756 263.257 334.777 264.268C334.777 265.363 334.42 266.427 333.707 267.459C332.993 268.491 332.007 269.238 330.747 269.702L330.653 269.765C330.653 269.786 330.747 269.818 330.936 269.86C331.125 269.902 331.43 269.997 331.849 270.144C332.269 270.291 332.668 270.513 333.046 270.807C334.767 271.924 335.627 273.398 335.627 275.23C335.627 276.894 334.977 278.348 333.675 279.59C332.374 280.833 330.727 281.454 328.733 281.454C327.054 281.454 325.605 281.001 324.388 280.096C323.171 279.19 322.562 278.042 322.562 276.652C322.562 276.062 322.751 275.588 323.129 275.23C323.506 274.872 323.979 274.683 324.545 274.662C325.133 274.662 325.616 274.851 325.994 275.23C326.371 275.61 326.56 276.083 326.56 276.652C326.56 276.884 326.529 277.094 326.466 277.284C326.403 277.473 326.329 277.642 326.245 277.789C326.161 277.937 326.046 278.063 325.899 278.169C325.752 278.274 325.626 278.358 325.521 278.421C325.416 278.484 325.311 278.527 325.207 278.548C325.102 278.569 325.018 278.6 324.955 278.642L324.829 278.674C325.899 279.622 327.2 280.096 328.733 280.096C329.887 280.096 330.758 279.538 331.346 278.421C331.702 277.726 331.881 276.663 331.881 275.23V274.599C331.881 272.598 331.209 271.26 329.866 270.586C329.551 270.46 328.911 270.386 327.946 270.365L326.623 270.334L326.529 270.27C326.487 270.207 326.466 270.039 326.466 269.765C326.466 269.386 326.55 269.196 326.718 269.196C327.305 269.196 327.914 269.144 328.544 269.038C329.257 268.933 329.908 268.491 330.496 267.711C331.083 266.932 331.377 265.753 331.377 264.173V263.92C331.377 262.72 331.01 261.888 330.275 261.424C329.813 261.13 329.32 260.982 328.796 260.982C328.124 260.982 327.505 261.098 326.938 261.33C326.371 261.561 325.973 261.804 325.742 262.056C325.511 262.309 325.395 262.435 325.395 262.435H325.49C325.553 262.456 325.637 262.478 325.742 262.499C325.847 262.52 325.952 262.572 326.057 262.657C326.161 262.741 326.287 262.814 326.434 262.878C326.581 262.941 326.686 263.057 326.749 263.225C326.812 263.394 326.896 263.552 327.001 263.699C327.106 263.847 327.137 264.057 327.095 264.331C327.095 264.794 326.949 265.205 326.655 265.563C326.361 265.921 325.889 266.111 325.238 266.132Z" fill="white"/>
<path d="M328.221 92.6562C328.221 92.1562 328.423 91.7187 328.829 91.3437C329.235 90.9687 329.705 90.7708 330.238 90.75C330.623 90.75 330.943 90.875 331.199 91.125C331.456 91.375 331.594 91.6875 331.616 92.0625C331.616 92.5417 331.402 92.9792 330.975 93.375C330.548 93.7708 330.078 93.9792 329.566 94C329.246 94 328.947 93.8958 328.669 93.6875C328.391 93.4792 328.242 93.1354 328.221 92.6562ZM323 102.437C323 102.271 323.096 101.948 323.288 101.469C323.48 100.99 323.737 100.458 324.057 99.875C324.377 99.2917 324.847 98.7604 325.466 98.2812C326.085 97.8021 326.726 97.5729 327.388 97.5937C328.221 97.5937 328.915 97.8333 329.47 98.3125C330.025 98.7917 330.313 99.4375 330.335 100.25C330.335 100.604 330.185 101.187 329.886 102C329.587 102.812 329.16 103.906 328.605 105.281C328.05 106.656 327.601 107.833 327.26 108.812C327.153 109.271 327.1 109.604 327.1 109.812C327.1 110.333 327.281 110.594 327.644 110.594C327.836 110.594 328.039 110.562 328.253 110.5C328.466 110.437 328.712 110.292 328.989 110.062C329.267 109.833 329.555 109.469 329.854 108.969C330.153 108.469 330.42 107.854 330.655 107.125C330.719 106.875 330.772 106.729 330.815 106.687C330.858 106.646 331.039 106.625 331.359 106.625C331.786 106.625 332 106.729 332 106.937C332 107.104 331.904 107.427 331.712 107.906C331.52 108.385 331.253 108.917 330.911 109.5C330.569 110.083 330.089 110.604 329.47 111.062C328.851 111.521 328.189 111.75 327.484 111.75C326.801 111.75 326.171 111.531 325.594 111.094C325.018 110.656 324.719 109.99 324.698 109.094C324.698 108.74 324.751 108.406 324.858 108.094C324.964 107.781 325.423 106.594 326.235 104.531C327.046 102.427 327.516 101.167 327.644 100.75C327.772 100.333 327.847 99.9271 327.868 99.5312C327.868 99.0312 327.687 98.7813 327.324 98.7813H327.26C326.619 98.7813 326.032 99.125 325.498 99.8125C324.964 100.5 324.559 101.375 324.281 102.437C324.26 102.458 324.238 102.49 324.217 102.531C324.196 102.573 324.185 102.604 324.185 102.625C324.185 102.646 324.164 102.667 324.121 102.687C324.078 102.708 324.046 102.719 324.025 102.719C324.004 102.719 323.961 102.719 323.897 102.719C323.833 102.719 323.747 102.719 323.641 102.719H323.192C323.064 102.594 323 102.5 323 102.437Z" fill="white"/>
<path d="M221.68 126.779C221.68 126.134 221.899 125.634 222.337 125.281C222.776 124.927 223.225 124.75 223.684 124.75C224.039 124.75 224.332 124.854 224.561 125.062C224.791 125.27 224.937 125.562 225 125.936C225 126.519 224.802 127.008 224.405 127.403C224.008 127.799 223.549 127.996 223.027 127.996C222.651 127.996 222.337 127.892 222.087 127.684C221.836 127.476 221.7 127.174 221.68 126.779ZM221.398 133.646C221.398 133.042 221.126 132.741 220.583 132.741C220.124 132.741 219.685 132.866 219.267 133.115C218.85 133.365 218.484 133.688 218.171 134.083C217.858 134.478 217.607 134.863 217.419 135.238C217.231 135.612 217.054 135.945 216.887 136.237L216.667 136.674C216.626 136.695 216.459 136.705 216.166 136.705H215.728C215.602 136.58 215.54 136.497 215.54 136.455C215.54 136.414 215.582 136.278 215.665 136.049C216.104 135.03 216.72 134.073 217.513 133.178C218.307 132.283 219.226 131.763 220.27 131.617C220.291 131.617 220.374 131.617 220.52 131.617C220.667 131.617 220.792 131.607 220.896 131.586C221.398 131.607 221.857 131.711 222.275 131.898C222.797 132.189 223.194 132.512 223.465 132.866C223.737 133.219 223.872 133.771 223.872 134.52V135.019L222.337 141.231C221.272 145.393 220.708 147.557 220.646 147.723C220.27 148.764 219.539 149.69 218.453 150.501C217.367 151.313 216.124 151.729 214.725 151.75C213.681 151.75 212.971 151.532 212.595 151.095C212.219 150.658 212.021 150.179 212 149.659C212 149.097 212.198 148.618 212.595 148.223C212.992 147.827 213.472 147.619 214.036 147.599C214.391 147.599 214.694 147.703 214.945 147.911C215.195 148.119 215.331 148.441 215.352 148.878C215.352 149.627 215.018 150.2 214.349 150.595C214.475 150.616 214.621 150.626 214.788 150.626C215.498 150.626 216.145 150.335 216.73 149.752C217.315 149.17 217.764 148.483 218.077 147.692L218.422 146.381C218.651 145.486 218.923 144.404 219.236 143.135C219.549 141.866 219.884 140.565 220.239 139.233C220.594 137.901 220.876 136.747 221.084 135.768C221.293 134.79 221.408 134.197 221.429 133.989C221.429 133.844 221.418 133.729 221.398 133.646Z" fill="white"/>
</g>
<defs>
<clipPath id="clip0_588_6937">
<rect width="700" height="349" fill="white" transform="translate(0 0.75)"/>
</clipPath>
<clipPath id="clip1_588_6937">
<rect width="1284" height="1284" fill="white" transform="translate(-292.5 -407.75)"/>
</clipPath>
</defs>
</svg>
