<svg width="700" height="290" viewBox="0 0 700 290" fill="none" xmlns="http://www.w3.org/2000/svg">
<g clip-path="url(#clip0_588_6921)">
<rect width="700" height="289" transform="translate(0 0.25)" fill="#0A0D12"/>
<g clip-path="url(#clip1_588_6921)">
<rect width="1284" height="1284" transform="translate(-292.5 -467.25)" fill="#0A0D12"/>
<g opacity="0.4">
<line x1="408.656" y1="-1109.25" x2="408.656" y2="1458.75" stroke="#67DBFF" stroke-width="0.917143"/>
<line x1="467.353" y1="-1109.25" x2="467.353" y2="1458.75" stroke="#67DBFF" stroke-width="0.917143"/>
<line x1="526.05" y1="-1109.25" x2="526.05" y2="1458.75" stroke="#67DBFF" stroke-width="0.917143"/>
<line x1="584.748" y1="-1109.25" x2="584.747" y2="1458.75" stroke="#67DBFF" stroke-width="0.917143"/>
<line x1="643.444" y1="-1109.25" x2="643.444" y2="1458.75" stroke="#67DBFF" stroke-width="0.917143"/>
<line x1="56.4732" y1="-1109.25" x2="56.473" y2="1458.75" stroke="#67DBFF" stroke-width="0.917143"/>
<line x1="115.17" y1="-1109.25" x2="115.169" y2="1458.75" stroke="#67DBFF" stroke-width="0.917143"/>
<line x1="173.867" y1="-1109.25" x2="173.867" y2="1458.75" stroke="#67DBFF" stroke-width="0.917143"/>
<line x1="232.564" y1="-1109.25" x2="232.564" y2="1458.75" stroke="#67DBFF" stroke-width="0.917143"/>
<line x1="291.261" y1="-1109.25" x2="291.261" y2="1458.75" stroke="#67DBFF" stroke-width="0.917143"/>
<line x1="-934.5" y1="115.594" x2="1633.5" y2="115.594" stroke="#67DBFF" stroke-width="0.917143"/>
<line x1="-934.5" y1="56.8971" x2="1633.5" y2="56.8971" stroke="#67DBFF" stroke-width="0.917143"/>
<line x1="-934.5" y1="232.989" x2="1633.5" y2="232.989" stroke="#67DBFF" stroke-width="0.917143"/>
</g>
<line x1="349.959" y1="-1109.25" x2="349.958" y2="1458.75" stroke="#E6E6E6" stroke-width="0.917143"/>
<line x1="-934.5" y1="174.291" x2="1633.5" y2="174.291" stroke="#E6E6E6" stroke-width="0.917143"/>
</g>
<path d="M351.207 173.75L409.207 115.75H466.793L408.793 173.75H351.207Z" fill="#18C8FF" fill-opacity="0.3" stroke="#67DBFF"/>
<path d="M350 172.75C349.172 172.75 348.5 173.422 348.5 174.25C348.5 175.078 349.172 175.75 350 175.75V172.75ZM409 174.25L394 165.59V182.91L409 174.25ZM350 175.75H395.5V172.75H350V175.75Z" fill="#20C831"/>
<path d="M348.939 173.689C348.354 174.275 348.354 175.225 348.939 175.811C349.525 176.396 350.475 176.396 351.061 175.811L348.939 173.689ZM409 115.75L392.27 120.233L404.517 132.48L409 115.75ZM351.061 175.811L400.515 126.357L398.393 124.235L348.939 173.689L351.061 175.811Z" fill="#006AE7"/>
<path d="M136.133 74.327C136.153 74.327 136.883 74.2753 138.324 74.172C139.764 74.0687 140.504 74.0067 140.545 73.986C140.788 73.986 140.91 74.0687 140.91 74.234C140.91 74.3787 140.17 77.4993 138.689 83.596C137.208 89.6927 136.447 92.803 136.407 92.927C136.366 93.051 136.356 93.206 136.376 93.392C136.376 94.26 136.66 94.694 137.228 94.694C137.411 94.6733 137.614 94.5803 137.837 94.415C138.263 94.0017 138.679 93.0097 139.084 91.439C139.206 91.0257 139.308 90.8087 139.389 90.788C139.429 90.7673 139.531 90.757 139.693 90.757H139.936C140.241 90.757 140.393 90.8397 140.393 91.005C140.393 91.1083 140.362 91.2737 140.302 91.501C140.038 92.5343 139.734 93.3713 139.389 94.012C139.044 94.6527 138.76 95.066 138.537 95.252C138.314 95.438 138.03 95.6033 137.685 95.748C137.522 95.7893 137.279 95.81 136.954 95.81C136.265 95.81 135.686 95.655 135.22 95.345C134.753 95.035 134.449 94.7147 134.307 94.384L134.124 93.919C134.104 93.8983 134.064 93.9087 134.003 93.95C133.962 93.9913 133.922 94.0327 133.881 94.074C132.684 95.2313 131.467 95.81 130.23 95.81C129.114 95.81 128.13 95.3967 127.278 94.57C126.426 93.7433 126 92.431 126 90.633C126 89.641 126.203 88.6283 126.609 87.595C127.014 86.5617 127.501 85.673 128.069 84.929C129.023 83.751 129.976 82.9347 130.929 82.48C131.883 82.0253 132.745 81.798 133.516 81.798C134.652 81.798 135.504 82.232 136.072 83.1C136.173 83.224 136.224 83.2653 136.224 83.224C136.244 83.1413 136.518 82.015 137.046 79.845C137.573 77.675 137.857 76.528 137.898 76.404C137.898 76.1353 137.827 75.97 137.685 75.908C137.543 75.846 137.147 75.7943 136.498 75.753H135.859C135.737 75.629 135.676 75.5463 135.676 75.505C135.676 75.4637 135.697 75.2673 135.737 74.916C135.839 74.5233 135.97 74.327 136.133 74.327ZM135.707 85.394C135.24 83.7613 134.479 82.945 133.425 82.945C132.715 82.945 132.035 83.2653 131.386 83.906C130.737 84.5467 130.23 85.3837 129.864 86.417C129.276 88.0497 128.86 89.7443 128.617 91.501C128.617 91.563 128.617 91.6767 128.617 91.842C128.617 92.0073 128.607 92.1313 128.586 92.214C128.586 93.144 128.769 93.7847 129.134 94.136C129.499 94.4873 129.935 94.6733 130.443 94.694C131.538 94.694 132.664 93.95 133.82 92.462L134.064 92.121L135.707 85.394Z" fill="white"/>
<path d="M142.097 90.292C142.097 89.114 142.29 88.0393 142.675 87.068C143.06 86.0967 143.557 85.2907 144.166 84.65C144.775 84.0093 145.454 83.472 146.205 83.038C146.955 82.604 147.665 82.2837 148.335 82.077C149.004 81.8703 149.643 81.7773 150.252 81.798H150.343C151.256 81.798 152.047 82.0253 152.716 82.48C153.386 82.9347 153.721 83.6063 153.721 84.495C153.721 86.355 152.595 87.5743 150.343 88.153C149.349 88.4217 147.99 88.5663 146.266 88.587C145.515 88.587 145.13 88.6077 145.109 88.649C145.109 88.6903 145.048 89.052 144.927 89.734C144.805 90.416 144.734 91.0153 144.714 91.532C144.714 92.5033 144.927 93.268 145.353 93.826C145.779 94.384 146.418 94.6733 147.27 94.694C148.122 94.7147 149.065 94.5183 150.1 94.105C151.134 93.6917 152.067 93.0097 152.899 92.059C153.082 91.8523 153.203 91.749 153.264 91.749C153.345 91.749 153.477 91.842 153.66 92.028C153.842 92.214 153.944 92.3587 153.964 92.462C153.984 92.5653 153.893 92.7307 153.69 92.958C153.487 93.1853 153.183 93.4643 152.777 93.795C152.372 94.1257 151.905 94.446 151.378 94.756C150.85 95.066 150.211 95.3243 149.461 95.531C148.71 95.7377 147.939 95.841 147.148 95.841C145.545 95.841 144.308 95.2933 143.436 94.198C142.563 93.1027 142.117 91.8007 142.097 90.292ZM152.26 84.557C152.138 83.4823 151.449 82.945 150.191 82.945C149.521 82.945 148.903 83.0897 148.335 83.379C147.767 83.6683 147.31 84.0197 146.965 84.433C146.621 84.8463 146.326 85.27 146.083 85.704C145.84 86.138 145.677 86.51 145.596 86.82C145.515 87.13 145.464 87.3263 145.444 87.409C145.444 87.4297 145.647 87.44 146.053 87.44C148.345 87.44 149.947 87.192 150.86 86.696C151.773 86.2 152.24 85.487 152.26 84.557Z" fill="white"/>
<path d="M155.911 83.565C155.769 83.4203 155.698 83.317 155.698 83.255C155.698 83.1723 155.729 83.007 155.79 82.759C155.851 82.511 155.901 82.3663 155.942 82.325C155.982 82.2217 156.074 82.17 156.216 82.17C156.358 82.17 156.875 82.1597 157.768 82.139H159.38L159.959 79.659C160.019 79.4317 160.09 79.132 160.172 78.76C160.253 78.388 160.324 78.1193 160.385 77.954C160.445 77.7887 160.506 77.582 160.567 77.334C160.628 77.086 160.709 76.9103 160.811 76.807C160.912 76.7037 161.013 76.5797 161.115 76.435C161.216 76.2903 161.358 76.1973 161.541 76.156C161.723 76.1147 161.906 76.094 162.089 76.094C162.454 76.1147 162.707 76.2283 162.849 76.435C162.991 76.6417 163.062 76.838 163.062 77.024C163.062 77.1687 162.971 77.6543 162.788 78.481C162.606 79.3077 162.403 80.124 162.18 80.93L161.876 82.077C161.876 82.1183 162.383 82.139 163.397 82.139H164.949C165.091 82.2837 165.162 82.3973 165.162 82.48C165.162 82.9347 165.03 83.2963 164.766 83.565H161.51L160.415 88.06C159.624 91.3667 159.228 93.144 159.228 93.392C159.228 94.26 159.502 94.694 160.05 94.694C160.76 94.694 161.45 94.3427 162.119 93.64C162.788 92.9373 163.326 92.0693 163.732 91.036C163.772 90.912 163.823 90.8397 163.884 90.819C163.945 90.7983 164.097 90.7777 164.34 90.757H164.462C164.766 90.757 164.918 90.8397 164.918 91.005C164.918 91.067 164.888 91.191 164.827 91.377C164.726 91.7077 164.543 92.1003 164.279 92.555C164.016 93.0097 163.671 93.4953 163.245 94.012C162.819 94.5287 162.302 94.9627 161.693 95.314C161.084 95.6653 160.466 95.841 159.837 95.841C159.228 95.841 158.65 95.686 158.102 95.376C157.555 95.066 157.159 94.5287 156.916 93.764C156.875 93.5987 156.855 93.3197 156.855 92.927V92.369L157.92 88.029C158.63 85.115 158.995 83.6477 159.015 83.627C159.015 83.5857 158.498 83.565 157.463 83.565H155.911Z" fill="white"/>
<path d="M168.965 87.75C168.965 86.324 169.067 84.9703 169.27 83.689C169.473 82.4077 169.706 81.302 169.97 80.372C170.233 79.442 170.609 78.5327 171.095 77.644C171.582 76.7553 171.968 76.063 172.252 75.567C172.536 75.071 172.962 74.5337 173.53 73.955C174.098 73.3763 174.432 73.025 174.534 72.901C174.635 72.777 174.889 72.56 175.295 72.25H175.812C176.096 72.25 176.238 72.343 176.238 72.529C176.238 72.591 176.065 72.808 175.721 73.18C175.376 73.552 174.96 74.0997 174.473 74.823C173.986 75.5463 173.489 76.435 172.982 77.489C172.475 78.543 172.049 79.969 171.704 81.767C171.359 83.565 171.187 85.5593 171.187 87.75C171.187 89.9407 171.359 91.9247 171.704 93.702C172.049 95.4793 172.465 96.9157 172.952 98.011C173.438 99.1063 173.935 99.995 174.443 100.677C174.95 101.359 175.376 101.907 175.721 102.32C176.065 102.733 176.238 102.95 176.238 102.971C176.238 103.157 176.086 103.25 175.781 103.25H175.295L174.443 102.506C172.536 100.749 171.146 98.5587 170.274 95.934C169.402 93.3093 168.965 90.5813 168.965 87.75Z" fill="white"/>
<path d="M183.571 76.9C183.571 76.404 183.764 75.97 184.149 75.598C184.535 75.226 184.981 75.0297 185.488 75.009C185.853 75.009 186.158 75.133 186.401 75.381C186.645 75.629 186.776 75.939 186.797 76.311C186.797 76.7863 186.594 77.2203 186.188 77.613C185.782 78.0057 185.336 78.2123 184.849 78.233C184.545 78.233 184.261 78.1297 183.997 77.923C183.734 77.7163 183.592 77.3753 183.571 76.9ZM178.611 86.603C178.611 86.4377 178.703 86.1173 178.885 85.642C179.068 85.1667 179.311 84.6397 179.615 84.061C179.92 83.4823 180.366 82.9553 180.954 82.48C181.543 82.0047 182.151 81.7773 182.78 81.798C183.571 81.798 184.231 82.0357 184.758 82.511C185.285 82.9863 185.559 83.627 185.58 84.433C185.58 84.7843 185.438 85.363 185.154 86.169C184.87 86.975 184.464 88.06 183.936 89.424C183.409 90.788 182.983 91.9557 182.658 92.927C182.557 93.3817 182.506 93.7123 182.506 93.919C182.506 94.4357 182.679 94.694 183.024 94.694C183.206 94.694 183.399 94.663 183.602 94.601C183.805 94.539 184.038 94.3943 184.302 94.167C184.565 93.9397 184.839 93.578 185.123 93.082C185.407 92.586 185.661 91.9763 185.884 91.253C185.945 91.005 185.995 90.8603 186.036 90.819C186.077 90.7777 186.249 90.757 186.553 90.757C186.959 90.757 187.162 90.8603 187.162 91.067C187.162 91.2323 187.071 91.5527 186.888 92.028C186.705 92.5033 186.452 93.0303 186.127 93.609C185.803 94.1877 185.346 94.7043 184.758 95.159C184.17 95.6137 183.541 95.841 182.871 95.841C182.222 95.841 181.624 95.624 181.076 95.19C180.528 94.756 180.244 94.0947 180.224 93.206C180.224 92.8547 180.275 92.524 180.376 92.214C180.478 91.904 180.914 90.726 181.685 88.68C182.456 86.5927 182.902 85.3423 183.024 84.929C183.145 84.5157 183.216 84.1127 183.237 83.72C183.237 83.224 183.064 82.976 182.719 82.976H182.658C182.05 82.976 181.492 83.317 180.985 83.999C180.478 84.681 180.092 85.549 179.828 86.603C179.808 86.6237 179.788 86.6547 179.768 86.696C179.747 86.7373 179.737 86.7683 179.737 86.789C179.737 86.8097 179.717 86.8303 179.676 86.851C179.636 86.8717 179.605 86.882 179.585 86.882C179.565 86.882 179.524 86.882 179.463 86.882C179.402 86.882 179.321 86.882 179.22 86.882H178.794C178.672 86.758 178.611 86.665 178.611 86.603Z" fill="white"/>
<path d="M190.844 94.415C190.844 94.415 190.844 94.1567 190.844 93.64C190.844 93.1233 191.006 92.679 191.331 92.307C191.655 91.935 192.091 91.749 192.639 91.749C193.207 91.749 193.714 92.0073 194.16 92.524C194.607 93.0407 194.84 93.95 194.86 95.252C194.86 95.9753 194.769 96.678 194.586 97.36C194.404 98.042 194.191 98.631 193.947 99.127C193.704 99.623 193.44 100.047 193.156 100.398C192.872 100.749 192.629 101.028 192.426 101.235C192.223 101.442 192.091 101.535 192.03 101.514C191.949 101.514 191.817 101.421 191.635 101.235C191.452 101.049 191.361 100.915 191.361 100.832C191.361 100.749 191.473 100.584 191.696 100.336C191.919 100.088 192.172 99.778 192.456 99.406C192.74 99.034 193.004 98.5173 193.248 97.856C193.491 97.1947 193.653 96.4403 193.734 95.593V95.221L193.704 95.252C193.663 95.2727 193.613 95.2933 193.552 95.314C193.491 95.3347 193.43 95.3657 193.369 95.407C193.308 95.4483 193.217 95.469 193.095 95.469C192.974 95.469 192.852 95.4793 192.73 95.5C192.183 95.5 191.736 95.3243 191.391 94.973L190.844 94.415Z" fill="white"/>
<path d="M211.048 77.024C211.048 76.3833 211.261 75.8873 211.687 75.536C212.113 75.1847 212.55 75.009 212.996 75.009C213.341 75.009 213.625 75.1123 213.848 75.319C214.071 75.5257 214.213 75.815 214.274 76.187C214.274 76.7657 214.081 77.2513 213.696 77.644C213.31 78.0367 212.864 78.233 212.357 78.233C211.992 78.233 211.687 78.1297 211.444 77.923C211.201 77.7163 211.069 77.4167 211.048 77.024ZM210.775 83.844C210.775 83.2447 210.511 82.945 209.983 82.945C209.537 82.945 209.111 83.069 208.705 83.317C208.3 83.565 207.945 83.8853 207.64 84.278C207.336 84.6707 207.093 85.053 206.91 85.425C206.728 85.797 206.555 86.1277 206.393 86.417L206.18 86.851C206.139 86.8717 205.977 86.882 205.693 86.882H205.267C205.145 86.758 205.084 86.6753 205.084 86.634C205.084 86.5927 205.125 86.4583 205.206 86.231C205.632 85.2183 206.231 84.2677 207.001 83.379C207.772 82.4903 208.665 81.9737 209.679 81.829C209.699 81.829 209.781 81.829 209.923 81.829C210.065 81.829 210.186 81.8187 210.288 81.798C210.775 81.8187 211.221 81.922 211.627 82.108C212.134 82.3973 212.519 82.7177 212.783 83.069C213.047 83.4203 213.178 83.968 213.178 84.712V85.208L211.687 91.377C210.653 95.5103 210.105 97.6597 210.044 97.825C209.679 98.8583 208.969 99.778 207.914 100.584C206.859 101.39 205.652 101.803 204.293 101.824C203.279 101.824 202.589 101.607 202.224 101.173C201.859 100.739 201.666 100.264 201.646 99.747C201.646 99.189 201.839 98.7137 202.224 98.321C202.609 97.9283 203.076 97.7217 203.624 97.701C203.969 97.701 204.263 97.8043 204.506 98.011C204.75 98.2177 204.882 98.538 204.902 98.972C204.902 99.716 204.577 100.284 203.928 100.677C204.05 100.698 204.192 100.708 204.354 100.708C205.044 100.708 205.673 100.419 206.241 99.84C206.809 99.2613 207.245 98.5793 207.549 97.794L207.884 96.492C208.107 95.6033 208.371 94.5287 208.675 93.268C208.979 92.0073 209.304 90.7157 209.649 89.393C209.994 88.0703 210.267 86.9233 210.47 85.952C210.673 84.9807 210.785 84.3917 210.805 84.185C210.805 84.0403 210.795 83.9267 210.775 83.844Z" fill="white"/>
<path d="M216.404 72.281L216.526 72.25C216.627 72.25 216.728 72.25 216.83 72.25H217.195L218.047 72.994C219.954 74.7507 221.343 76.9413 222.216 79.566C223.088 82.1907 223.524 84.9187 223.524 87.75C223.524 89.1553 223.423 90.509 223.22 91.811C223.017 93.113 222.784 94.2187 222.52 95.128C222.256 96.0373 221.881 96.9467 221.394 97.856C220.907 98.7653 220.522 99.4577 220.238 99.933C219.954 100.408 219.538 100.935 218.99 101.514C218.443 102.093 218.118 102.434 218.017 102.537C217.915 102.64 217.682 102.837 217.317 103.126C217.256 103.188 217.215 103.229 217.195 103.25H216.83C216.668 103.25 216.556 103.25 216.495 103.25C216.434 103.25 216.384 103.219 216.343 103.157C216.302 103.095 216.272 103.002 216.252 102.878C216.272 102.857 216.384 102.723 216.586 102.475C219.731 99.1477 221.303 94.2393 221.303 87.75C221.303 81.2607 219.731 76.3523 216.586 73.025C216.384 72.777 216.272 72.6427 216.252 72.622C216.252 72.4567 216.302 72.343 216.404 72.281Z" fill="white"/>
<path d="M236.578 84.743C236.578 84.4743 236.72 84.2677 237.004 84.123H256.387C256.692 84.2883 256.844 84.495 256.844 84.743C256.844 84.9703 256.702 85.1667 256.418 85.332L246.741 85.363H237.065C236.74 85.2597 236.578 85.053 236.578 84.743ZM236.578 90.757C236.578 90.447 236.74 90.2403 237.065 90.137H256.418C256.702 90.3437 256.844 90.5503 256.844 90.757C256.844 91.0257 256.692 91.2323 256.387 91.377H237.004C236.72 91.2323 236.578 91.0257 236.578 90.757Z" fill="white"/>
<path d="M273.488 77.582L273.093 77.737C272.809 77.8403 272.403 77.9437 271.876 78.047C271.348 78.1503 270.76 78.2227 270.111 78.264H269.533V76.838H270.111C271.064 76.7967 271.947 76.6417 272.758 76.373C273.569 76.1043 274.137 75.8563 274.462 75.629C274.787 75.4017 275.071 75.1743 275.314 74.947C275.355 74.885 275.476 74.854 275.679 74.854C275.862 74.854 276.034 74.916 276.196 75.04V84.309L276.227 93.609C276.369 93.7537 276.491 93.8467 276.592 93.888C276.693 93.9293 276.937 93.9707 277.322 94.012C277.708 94.0533 278.337 94.074 279.209 94.074H280V95.5H279.665C279.239 95.438 277.627 95.407 274.827 95.407C272.068 95.407 270.476 95.438 270.05 95.5H269.685V94.074H270.476C270.922 94.074 271.308 94.074 271.632 94.074C271.957 94.074 272.21 94.0637 272.393 94.043C272.575 94.0223 272.738 93.9913 272.88 93.95C273.022 93.9087 273.103 93.888 273.123 93.888C273.143 93.888 273.204 93.8363 273.306 93.733C273.407 93.6297 273.468 93.5883 273.488 93.609V77.582Z" fill="white"/>
<path d="M418.221 179.156C418.221 178.656 418.423 178.219 418.829 177.844C419.235 177.469 419.705 177.271 420.238 177.25C420.623 177.25 420.943 177.375 421.199 177.625C421.456 177.875 421.594 178.187 421.616 178.562C421.616 179.042 421.402 179.479 420.975 179.875C420.548 180.271 420.078 180.479 419.566 180.5C419.246 180.5 418.947 180.396 418.669 180.187C418.391 179.979 418.242 179.635 418.221 179.156ZM413 188.937C413 188.771 413.096 188.448 413.288 187.969C413.48 187.49 413.737 186.958 414.057 186.375C414.377 185.792 414.847 185.26 415.466 184.781C416.085 184.302 416.726 184.073 417.388 184.094C418.221 184.094 418.915 184.333 419.47 184.812C420.025 185.292 420.313 185.937 420.335 186.75C420.335 187.104 420.185 187.687 419.886 188.5C419.587 189.312 419.16 190.406 418.605 191.781C418.05 193.156 417.601 194.333 417.26 195.312C417.153 195.771 417.1 196.104 417.1 196.312C417.1 196.833 417.281 197.094 417.644 197.094C417.836 197.094 418.039 197.062 418.253 197C418.466 196.937 418.712 196.792 418.989 196.562C419.267 196.333 419.555 195.969 419.854 195.469C420.153 194.969 420.42 194.354 420.655 193.625C420.719 193.375 420.772 193.229 420.815 193.187C420.858 193.146 421.039 193.125 421.359 193.125C421.786 193.125 422 193.229 422 193.437C422 193.604 421.904 193.927 421.712 194.406C421.52 194.885 421.253 195.417 420.911 196C420.569 196.583 420.089 197.104 419.47 197.562C418.851 198.021 418.189 198.25 417.484 198.25C416.801 198.25 416.171 198.031 415.594 197.594C415.018 197.156 414.719 196.49 414.698 195.594C414.698 195.24 414.751 194.906 414.858 194.594C414.964 194.281 415.423 193.094 416.235 191.031C417.046 188.927 417.516 187.667 417.644 187.25C417.772 186.833 417.847 186.427 417.868 186.031C417.868 185.531 417.687 185.281 417.324 185.281H417.26C416.619 185.281 416.032 185.625 415.498 186.312C414.964 187 414.559 187.875 414.281 188.937C414.26 188.958 414.238 188.99 414.217 189.031C414.196 189.073 414.185 189.104 414.185 189.125C414.185 189.146 414.164 189.167 414.121 189.187C414.078 189.208 414.046 189.219 414.025 189.219C414.004 189.219 413.961 189.219 413.897 189.219C413.833 189.219 413.747 189.219 413.641 189.219H413.192C413.064 189.094 413 189 413 188.937Z" fill="white"/>
<path d="M402.68 88.2789C402.68 87.6338 402.899 87.1344 403.337 86.7806C403.776 86.4269 404.225 86.25 404.684 86.25C405.039 86.25 405.332 86.354 405.561 86.5621C405.791 86.7702 405.937 87.0616 406 87.4361C406 88.0188 405.802 88.5078 405.405 88.9032C405.008 89.2986 404.549 89.4962 404.027 89.4962C403.651 89.4962 403.337 89.3922 403.087 89.1841C402.836 88.976 402.7 88.6743 402.68 88.2789ZM402.398 95.146C402.398 94.5425 402.126 94.2408 401.583 94.2408C401.124 94.2408 400.685 94.3656 400.267 94.6153C399.85 94.865 399.484 95.1876 399.171 95.5829C398.858 95.9783 398.607 96.3633 398.419 96.7379C398.231 97.1124 398.054 97.4454 397.887 97.7367L397.667 98.1737C397.626 98.1945 397.459 98.2049 397.166 98.2049H396.728C396.602 98.0801 396.54 97.9968 396.54 97.9552C396.54 97.9136 396.582 97.7783 396.665 97.5494C397.104 96.5298 397.72 95.5725 398.513 94.6777C399.307 93.7829 400.226 93.2627 401.27 93.1171C401.291 93.1171 401.374 93.1171 401.52 93.1171C401.667 93.1171 401.792 93.1066 401.896 93.0858C402.398 93.1066 402.857 93.2107 403.275 93.398C403.797 93.6893 404.194 94.0119 404.465 94.3656C404.737 94.7194 404.872 95.2708 404.872 96.0199V96.5194L403.337 102.731C402.272 106.893 401.708 109.057 401.646 109.223C401.27 110.264 400.539 111.19 399.453 112.001C398.367 112.813 397.124 113.229 395.725 113.25C394.681 113.25 393.971 113.032 393.595 112.595C393.219 112.158 393.021 111.679 393 111.159C393 110.597 393.198 110.118 393.595 109.723C393.992 109.327 394.472 109.119 395.036 109.099C395.391 109.099 395.694 109.203 395.945 109.411C396.195 109.619 396.331 109.941 396.352 110.378C396.352 111.127 396.018 111.7 395.349 112.095C395.475 112.116 395.621 112.126 395.788 112.126C396.498 112.126 397.145 111.835 397.73 111.252C398.315 110.67 398.764 109.983 399.077 109.192L399.422 107.881C399.651 106.986 399.923 105.904 400.236 104.635C400.549 103.366 400.884 102.065 401.239 100.733C401.594 99.4014 401.876 98.2465 402.084 97.2685C402.293 96.2905 402.408 95.6974 402.429 95.4893C402.429 95.3436 402.418 95.2292 402.398 95.146Z" fill="white"/>
</g>
<defs>
<clipPath id="clip0_588_6921">
<rect width="700" height="289" fill="white" transform="translate(0 0.25)"/>
</clipPath>
<clipPath id="clip1_588_6921">
<rect width="1284" height="1284" fill="white" transform="translate(-292.5 -467.25)"/>
</clipPath>
</defs>
</svg>
