<svg width="700" height="192" viewBox="0 0 700 192" fill="none" xmlns="http://www.w3.org/2000/svg">
<rect width="700" height="191" transform="translate(0 0.25)" fill="#0A0D12"/>
<path opacity="0.4" d="M485 48.25L526.5 89.75M485 48.25H335L293.5 89.75H389.25M485 48.25L526.5 6.75M526.5 89.75L568 48.25M526.5 89.75V148.75L485 182.25M568 48.25L526.5 6.75M568 48.25H623L664.5 6.75L526.5 6.75M485 182.25V89.75H437.125M485 182.25H437.125L389.25 137.625M389.25 89.75H437.125M389.25 89.75V137.625M437.125 89.75L389.25 137.625" stroke="#B3BFD8" stroke-width="2"/>
<path d="M485 48.25L526.5 89.75M526.5 89.75L568 48.25M526.5 89.75V148.75" stroke="#B3BFD8" stroke-width="2"/>
<circle cx="527" cy="148.25" r="5" fill="#0A0D12" stroke="#D9EBFF" stroke-width="2"/>
<circle cx="527" cy="89.25" r="5" fill="#0A0D12" stroke="#D9EBFF" stroke-width="2"/>
<circle cx="567" cy="48.25" r="5" fill="#0A0D12" stroke="#D9EBFF" stroke-width="2"/>
<circle cx="623" cy="48.25" r="5" fill="#0A0D12" stroke="#D0D0D0" stroke-width="2"/>
<circle cx="665" cy="7.25" r="5" fill="#0A0D12" stroke="#D0D0D0" stroke-width="2"/>
<circle cx="527" cy="7.25" r="5" fill="#0A0D12" stroke="#D0D0D0" stroke-width="2"/>
<circle cx="485" cy="48.25" r="5" fill="#0A0D12" stroke="#D9EBFF" stroke-width="2"/>
<circle cx="335" cy="48.25" r="5" fill="#0A0D12" stroke="#D0D0D0" stroke-width="2"/>
<circle cx="294" cy="89.25" r="5" fill="#0A0D12" stroke="#D0D0D0" stroke-width="2"/>
<circle cx="389" cy="89.25" r="5" fill="#0A0D12" stroke="#D0D0D0" stroke-width="2"/>
<circle cx="389" cy="137.25" r="5" fill="#0A0D12" stroke="#D0D0D0" stroke-width="2"/>
<circle cx="436" cy="89.25" r="5" fill="#0A0D12" stroke="#D0D0D0" stroke-width="2"/>
<circle cx="485" cy="89.25" r="5" fill="#0A0D12" stroke="#D0D0D0" stroke-width="2"/>
<circle cx="485" cy="182.25" r="5" fill="#0A0D12" stroke="#D0D0D0" stroke-width="2"/>
<circle cx="436" cy="182.25" r="5" fill="#0A0D12" stroke="#D0D0D0" stroke-width="2"/>
<path d="M534 98.7453C534 96.8228 534.712 95.0943 536.135 93.5599C537.558 92.0254 539.097 91.2581 540.752 91.2581C541.679 91.2581 542.407 91.4698 542.937 91.8931C543.466 92.3164 543.74 92.872 543.756 93.5599C543.756 94.0714 543.599 94.5035 543.284 94.8562C542.97 95.209 542.573 95.3942 542.093 95.4118C541.778 95.4118 541.53 95.3236 541.348 95.1472C541.166 94.9709 541.075 94.7063 541.075 94.3536C541.075 94.0008 541.166 93.701 541.348 93.454C541.53 93.2071 541.712 93.0219 541.894 92.8984C542.076 92.775 542.192 92.7221 542.242 92.7397H542.267C542.267 92.7044 542.217 92.6515 542.118 92.581C542.018 92.5104 541.845 92.4399 541.596 92.3693C541.348 92.2988 541.067 92.2635 540.752 92.2635C540.256 92.2635 539.784 92.387 539.337 92.6339C538.99 92.7926 538.634 93.066 538.27 93.454C537.542 94.2301 537.012 95.3236 536.681 96.7346C536.35 98.1457 536.176 99.1686 536.16 99.8036C536.16 100.615 536.375 101.223 536.805 101.629C537.169 102.052 537.649 102.264 538.245 102.264H538.344C540.198 102.264 541.729 101.514 542.937 100.015C543.086 99.8389 543.185 99.7507 543.235 99.7507C543.301 99.7507 543.409 99.8301 543.557 99.9888C543.706 100.148 543.789 100.271 543.806 100.359C543.822 100.447 543.748 100.58 543.582 100.756C543.417 100.932 543.177 101.179 542.862 101.497C542.548 101.814 542.176 102.079 541.745 102.291C541.315 102.502 540.785 102.723 540.157 102.952C539.528 103.181 538.866 103.278 538.171 103.243C536.929 103.243 535.928 102.82 535.167 101.973C534.405 101.126 534.017 100.051 534 98.7453Z" fill="#D9EBFF"/>
<path d="M544.426 95.3589C544.426 95.2178 544.501 94.9444 544.65 94.5387C544.799 94.1331 545.006 93.6745 545.27 93.163C545.535 92.6515 545.899 92.2106 546.363 91.8402C546.826 91.4698 547.314 91.2758 547.827 91.2581C548.589 91.2581 549.16 91.4786 549.54 91.9196C549.921 92.3605 550.111 92.8808 550.111 93.4805C550.111 93.798 549.83 94.7857 549.267 96.4436C548.704 98.1016 548.423 99.345 548.423 100.174C548.423 100.932 548.539 101.462 548.771 101.761C549.002 102.061 549.35 102.22 549.813 102.238C550.277 102.255 550.715 102.105 551.129 101.788C551.543 101.47 551.849 101.171 552.047 100.888L552.321 100.439C552.354 100.368 552.668 99.0275 553.264 96.4172C553.76 94.3006 554.058 93.066 554.158 92.7132C554.257 92.3605 554.373 92.1047 554.505 91.946C554.786 91.6814 555.084 91.5492 555.399 91.5492C555.68 91.5492 555.887 91.6374 556.019 91.8137C556.152 91.9901 556.218 92.1577 556.218 92.3164L554.331 100.73C554.315 100.818 554.307 100.959 554.307 101.153C554.307 101.594 554.364 101.885 554.48 102.026C554.596 102.167 554.77 102.246 555.002 102.264C555.366 102.211 555.655 101.938 555.87 101.444C556.086 100.95 556.334 100.174 556.615 99.1157C556.648 98.9746 556.814 98.9041 557.112 98.9041C557.426 98.9041 557.583 98.9834 557.583 99.1422C557.567 99.2304 557.55 99.3538 557.534 99.5126C557.517 99.6713 557.443 99.9535 557.31 100.359C557.178 100.765 557.037 101.144 556.888 101.497C556.739 101.85 556.532 102.185 556.268 102.502C556.003 102.82 555.705 103.04 555.374 103.164C555.242 103.199 555.043 103.216 554.778 103.216C553.686 103.216 552.933 102.723 552.519 101.735C552.486 101.753 552.395 101.841 552.246 101.999C552.097 102.158 551.948 102.291 551.799 102.396C551.65 102.502 551.468 102.634 551.253 102.793C551.038 102.952 550.798 103.058 550.533 103.111C550.268 103.164 549.987 103.208 549.689 103.243C548.961 103.243 548.316 103.084 547.753 102.767C546.892 102.22 546.462 101.285 546.462 99.9623C546.462 98.957 546.752 97.643 547.331 96.0203C547.91 94.3976 548.2 93.3658 548.2 92.9249C548.2 92.9073 548.2 92.8896 548.2 92.872C548.2 92.7132 548.2 92.6074 548.2 92.5545C548.2 92.5016 548.167 92.4399 548.1 92.3693C548.034 92.2988 547.943 92.2635 547.827 92.2635H547.728C547.347 92.2635 547 92.431 546.685 92.7662C546.371 93.1013 546.123 93.4629 545.941 93.8509C545.759 94.2389 545.618 94.6093 545.519 94.9621C545.419 95.3148 545.353 95.5088 545.32 95.5441C545.287 95.5794 545.155 95.597 544.923 95.597H544.575C544.476 95.4912 544.426 95.4118 544.426 95.3589Z" fill="#D9EBFF"/>
<path d="M558.651 95.3589C558.667 95.306 558.684 95.2354 558.7 95.1472C558.717 95.0591 558.758 94.865 558.825 94.5652C558.891 94.2654 558.974 93.992 559.073 93.7451C559.172 93.4981 559.296 93.2071 559.445 92.872C559.594 92.5369 559.76 92.2723 559.942 92.0783C560.124 91.8843 560.339 91.6903 560.587 91.4962C560.835 91.3022 561.108 91.2229 561.406 91.2581C561.886 91.2581 562.308 91.364 562.672 91.5756C563.037 91.7873 563.293 91.9813 563.442 92.1577C563.591 92.334 563.682 92.5104 563.715 92.6868C563.748 92.7926 563.773 92.8455 563.79 92.8455C563.806 92.8455 563.872 92.7838 563.988 92.6603C564.783 91.7432 565.701 91.2846 566.744 91.2846H566.818C567.613 91.2846 568.208 91.6462 568.606 92.3693C568.738 92.7044 568.804 93.0307 568.804 93.3482C568.804 93.8773 568.697 94.3006 568.481 94.6181C568.266 94.9356 568.051 95.1384 567.836 95.2266C567.621 95.3148 567.414 95.3501 567.215 95.3324C566.884 95.3324 566.62 95.2354 566.421 95.0414C566.222 94.8474 566.123 94.5917 566.123 94.2742C566.123 93.4276 566.586 92.8632 567.513 92.581C567.149 92.3517 566.851 92.237 566.62 92.237C565.693 92.237 564.84 92.8896 564.063 94.1948C563.897 94.477 563.773 94.768 563.69 95.0679C563.607 95.3677 563.326 96.5406 562.846 98.5866C562.284 101.056 561.961 102.37 561.878 102.529C561.663 103.005 561.307 103.243 560.811 103.243C560.595 103.243 560.422 103.19 560.289 103.084C560.157 102.978 560.066 102.873 560.016 102.767C559.967 102.661 559.95 102.573 559.967 102.502C559.967 102.273 560.298 100.756 560.96 97.9516C561.622 95.1472 561.953 93.5863 561.953 93.2688C561.953 92.581 561.737 92.237 561.307 92.237C560.96 92.237 560.662 92.484 560.413 92.9778C560.165 93.4717 559.967 94.0096 559.818 94.5917C559.669 95.1737 559.578 95.4912 559.545 95.5441C559.511 95.5794 559.379 95.597 559.147 95.597H558.8C558.7 95.4912 558.651 95.4118 558.651 95.3589Z" fill="#D9EBFF"/>
<path d="M569.847 95.3589C569.863 95.306 569.88 95.2354 569.896 95.1472C569.913 95.0591 569.954 94.865 570.021 94.5652C570.087 94.2654 570.169 93.992 570.269 93.7451C570.368 93.4981 570.492 93.2071 570.641 92.872C570.79 92.5369 570.956 92.2723 571.138 92.0783C571.32 91.8843 571.535 91.6903 571.783 91.4962C572.031 91.3022 572.304 91.2229 572.602 91.2581C573.082 91.2581 573.504 91.364 573.868 91.5756C574.232 91.7873 574.489 91.9813 574.638 92.1577C574.787 92.334 574.878 92.5104 574.911 92.6868C574.944 92.7926 574.969 92.8455 574.985 92.8455C575.002 92.8455 575.068 92.7838 575.184 92.6603C575.978 91.7432 576.897 91.2846 577.94 91.2846H578.014C578.808 91.2846 579.404 91.6462 579.801 92.3693C579.934 92.7044 580 93.0307 580 93.3482C580 93.8773 579.892 94.3006 579.677 94.6181C579.462 94.9356 579.247 95.1384 579.032 95.2266C578.817 95.3148 578.61 95.3501 578.411 95.3324C578.08 95.3324 577.815 95.2354 577.617 95.0414C577.418 94.8474 577.319 94.5917 577.319 94.2742C577.319 93.4276 577.782 92.8632 578.709 92.581C578.345 92.3517 578.047 92.237 577.815 92.237C576.889 92.237 576.036 92.8896 575.258 94.1948C575.093 94.477 574.969 94.768 574.886 95.0679C574.803 95.3677 574.522 96.5406 574.042 98.5866C573.479 101.056 573.157 102.37 573.074 102.529C572.859 103.005 572.503 103.243 572.006 103.243C571.791 103.243 571.618 103.19 571.485 103.084C571.353 102.978 571.262 102.873 571.212 102.767C571.162 102.661 571.146 102.573 571.162 102.502C571.162 102.273 571.493 100.756 572.155 97.9516C572.817 95.1472 573.148 93.5863 573.148 93.2688C573.148 92.581 572.933 92.237 572.503 92.237C572.155 92.237 571.858 92.484 571.609 92.9778C571.361 93.4717 571.162 94.0096 571.013 94.5917C570.865 95.1737 570.774 95.4912 570.74 95.5441C570.707 95.5794 570.575 95.597 570.343 95.597H569.996C569.896 95.4912 569.847 95.4118 569.847 95.3589Z" fill="#D9EBFF"/>
<g clip-path="url(#clip0_588_6634)">
<path d="M536.553 152.402C536.569 152.353 536.586 152.286 536.603 152.203C536.62 152.12 536.662 151.937 536.729 151.654C536.796 151.371 536.88 151.113 536.981 150.88C537.081 150.647 537.207 150.372 537.358 150.056C537.509 149.74 537.677 149.491 537.862 149.307C538.047 149.124 538.265 148.941 538.517 148.758C538.769 148.575 539.046 148.5 539.348 148.534C540.607 148.534 541.413 149.066 541.765 150.131L542.017 149.907C543.058 148.991 544.049 148.534 544.989 148.534C546.08 148.534 546.936 148.925 547.557 149.707C548.179 150.489 548.489 151.437 548.489 152.552C548.489 154.349 547.851 156.005 546.575 157.519C545.299 159.033 543.856 159.799 542.244 159.815C541.875 159.815 541.547 159.766 541.262 159.666C541.077 159.582 540.884 159.458 540.683 159.291C540.481 159.125 540.322 158.983 540.204 158.867L540.028 158.667C540.011 158.684 539.826 159.408 539.474 160.839C539.121 162.27 538.945 162.994 538.945 163.01C538.945 163.11 539.012 163.168 539.146 163.185C539.281 163.202 539.591 163.227 540.078 163.26H540.708C540.808 163.376 540.859 163.451 540.859 163.484C540.859 163.518 540.834 163.667 540.783 163.934C540.733 164.133 540.683 164.258 540.632 164.308C540.582 164.358 540.473 164.391 540.305 164.408C540.271 164.408 540.179 164.408 540.028 164.408C539.877 164.408 539.591 164.4 539.172 164.383C538.752 164.366 538.231 164.358 537.61 164.358C536.435 164.358 535.688 164.375 535.369 164.408H535.167C535.05 164.291 534.991 164.2 534.991 164.133C535.025 163.684 535.134 163.393 535.319 163.26H535.822C536.393 163.243 536.72 163.143 536.804 162.96C536.855 162.86 537.367 160.872 538.341 156.995C539.314 153.118 539.826 151.063 539.877 150.83C539.893 150.747 539.902 150.63 539.902 150.481C539.902 149.798 539.692 149.457 539.272 149.457C538.903 149.457 538.592 149.69 538.341 150.156C538.089 150.622 537.896 151.13 537.761 151.679C537.627 152.228 537.526 152.527 537.459 152.577C537.426 152.61 537.291 152.627 537.056 152.627H536.704C536.603 152.527 536.553 152.452 536.553 152.402ZM540.456 157.02C540.825 158.285 541.446 158.917 542.319 158.917C542.823 158.917 543.31 158.726 543.78 158.343C544.25 157.96 544.636 157.478 544.938 156.895C545.241 156.329 545.543 155.431 545.845 154.2C546.147 152.968 546.307 152.053 546.323 151.454V151.304C546.323 150.073 545.811 149.457 544.787 149.457C544.603 149.457 544.418 149.482 544.233 149.532C544.049 149.582 543.864 149.657 543.679 149.757C543.495 149.857 543.327 149.965 543.176 150.081C543.025 150.198 542.882 150.323 542.748 150.456C542.613 150.589 542.487 150.714 542.37 150.83C542.252 150.947 542.16 151.063 542.093 151.179C542.026 151.296 541.958 151.379 541.891 151.429L541.816 151.529C541.816 151.546 541.791 151.662 541.74 151.878C541.69 152.095 541.598 152.461 541.463 152.977C541.329 153.492 541.211 153.925 541.111 154.274C540.674 156.038 540.456 156.953 540.456 157.02Z" fill="#D9EBFF"/>
<path d="M549.169 152.402C549.186 152.353 549.203 152.286 549.219 152.203C549.236 152.12 549.278 151.937 549.345 151.654C549.412 151.371 549.496 151.113 549.597 150.88C549.698 150.647 549.824 150.372 549.975 150.056C550.126 149.74 550.294 149.49 550.478 149.307C550.663 149.124 550.881 148.941 551.133 148.758C551.385 148.575 551.662 148.5 551.964 148.534C552.451 148.534 552.879 148.634 553.249 148.833C553.618 149.033 553.878 149.216 554.029 149.382C554.18 149.549 554.273 149.715 554.306 149.882C554.34 149.981 554.365 150.031 554.382 150.031C554.399 150.031 554.466 149.973 554.583 149.857C555.389 148.991 556.321 148.559 557.379 148.559H557.454C558.26 148.559 558.864 148.9 559.267 149.582C559.402 149.898 559.469 150.206 559.469 150.506C559.469 151.005 559.36 151.404 559.141 151.704C558.923 152.003 558.705 152.194 558.487 152.278C558.268 152.361 558.058 152.394 557.857 152.377C557.521 152.377 557.253 152.286 557.051 152.103C556.85 151.92 556.749 151.679 556.749 151.379C556.749 150.58 557.219 150.048 558.159 149.782C557.79 149.565 557.488 149.457 557.253 149.457C556.312 149.457 555.448 150.073 554.659 151.304C554.491 151.57 554.365 151.845 554.281 152.128C554.197 152.411 553.912 153.517 553.425 155.447C552.854 157.777 552.527 159.017 552.443 159.166C552.224 159.616 551.864 159.84 551.36 159.84C551.142 159.84 550.965 159.79 550.831 159.691C550.697 159.591 550.604 159.491 550.554 159.391C550.504 159.291 550.487 159.208 550.504 159.141C550.504 158.925 550.839 157.494 551.511 154.848C552.182 152.203 552.518 150.73 552.518 150.431C552.518 149.782 552.3 149.457 551.864 149.457C551.511 149.457 551.209 149.69 550.957 150.156C550.705 150.622 550.504 151.129 550.353 151.679C550.201 152.228 550.109 152.527 550.076 152.577C550.042 152.61 549.908 152.627 549.673 152.627H549.32C549.219 152.527 549.169 152.452 549.169 152.402Z" fill="#D9EBFF"/>
<path d="M561.005 155.373C561.005 154.424 561.164 153.559 561.483 152.777C561.802 151.995 562.214 151.346 562.717 150.83C563.221 150.314 563.783 149.882 564.405 149.532C565.026 149.183 565.613 148.925 566.167 148.758C566.721 148.592 567.25 148.517 567.754 148.534H567.829C568.585 148.534 569.24 148.717 569.794 149.083C570.348 149.449 570.625 149.99 570.625 150.705C570.625 152.203 569.693 153.184 567.829 153.65C567.007 153.867 565.882 153.983 564.455 154C563.834 154 563.515 154.016 563.498 154.05C563.498 154.083 563.448 154.374 563.347 154.923C563.246 155.472 563.187 155.955 563.171 156.371C563.171 157.153 563.347 157.769 563.699 158.218C564.052 158.667 564.581 158.9 565.286 158.917C565.991 158.933 566.772 158.775 567.628 158.443C568.484 158.11 569.256 157.561 569.945 156.795C570.096 156.629 570.197 156.546 570.247 156.546C570.314 156.546 570.423 156.621 570.574 156.77C570.725 156.92 570.809 157.037 570.826 157.12C570.843 157.203 570.767 157.336 570.6 157.519C570.432 157.702 570.18 157.927 569.844 158.193C569.508 158.459 569.122 158.717 568.686 158.967C568.249 159.216 567.72 159.424 567.099 159.591C566.478 159.757 565.84 159.84 565.185 159.84C563.859 159.84 562.835 159.399 562.113 158.517C561.391 157.636 561.022 156.587 561.005 155.373ZM569.416 150.755C569.315 149.89 568.744 149.457 567.704 149.457C567.149 149.457 566.637 149.574 566.167 149.807C565.697 150.04 565.32 150.322 565.034 150.655C564.749 150.988 564.505 151.329 564.304 151.679C564.102 152.028 563.968 152.328 563.901 152.577C563.834 152.827 563.792 152.985 563.775 153.051C563.775 153.068 563.943 153.076 564.279 153.076C566.176 153.076 567.502 152.877 568.258 152.477C569.013 152.078 569.399 151.504 569.416 150.755Z" fill="#D9EBFF"/>
<path d="M576.115 150.081C576.115 149.665 575.955 149.457 575.636 149.457C575.234 149.457 574.814 149.698 574.377 150.181C573.941 150.664 573.58 151.404 573.294 152.402C573.278 152.419 573.261 152.444 573.244 152.477C573.227 152.511 573.219 152.536 573.219 152.552C573.219 152.569 573.202 152.585 573.169 152.602C573.135 152.619 573.11 152.627 573.093 152.627C573.076 152.627 573.043 152.627 572.992 152.627C572.942 152.627 572.875 152.627 572.791 152.627H572.438C572.337 152.527 572.287 152.452 572.287 152.402C572.287 152.286 572.354 152.045 572.489 151.679C572.623 151.313 572.824 150.88 573.093 150.381C573.362 149.882 573.731 149.457 574.201 149.108C574.671 148.758 575.2 148.575 575.788 148.559C576.493 148.559 577.038 148.758 577.424 149.158C577.811 149.557 578.012 150.023 578.029 150.555C578.029 150.838 578.004 151.055 577.953 151.204C577.953 151.304 577.827 151.67 577.576 152.303C577.324 152.935 577.063 153.675 576.795 154.524C576.526 155.373 576.375 156.113 576.342 156.745C576.342 157.195 576.384 157.561 576.467 157.844C576.686 158.559 577.215 158.917 578.054 158.917C578.675 158.917 579.254 158.634 579.792 158.068C580.329 157.502 580.749 156.845 581.051 156.096C581.353 155.348 581.596 154.657 581.781 154.025C581.966 153.392 582.058 152.935 582.058 152.652C582.058 152.269 581.991 151.937 581.857 151.654C581.722 151.371 581.571 151.154 581.403 151.005C581.235 150.855 581.084 150.705 580.95 150.555C580.816 150.406 580.749 150.223 580.749 150.006C580.749 149.64 580.908 149.299 581.227 148.983C581.546 148.667 581.89 148.509 582.26 148.509C582.579 148.509 582.864 148.659 583.116 148.958C583.368 149.258 583.502 149.74 583.519 150.406C583.519 150.855 583.418 151.545 583.216 152.477C583.015 153.409 582.704 154.449 582.285 155.597C581.865 156.745 581.269 157.735 580.497 158.567C579.724 159.399 578.835 159.824 577.827 159.84C576.753 159.84 575.897 159.566 575.259 159.017C574.638 158.484 574.327 157.694 574.327 156.646C574.327 156.13 574.394 155.597 574.528 155.048C574.663 154.499 575.007 153.526 575.561 152.128C575.93 151.063 576.115 150.381 576.115 150.081Z" fill="#D9EBFF"/>
</g>
<path d="M490 33.5839C490.018 33.4721 490.046 33.3231 490.083 33.1367C490.12 32.9504 490.23 32.5963 490.415 32.0746C490.599 31.5528 490.783 31.1149 490.967 30.7608C491.152 30.4068 491.456 30.0621 491.88 29.7266C492.303 29.3912 492.727 29.2328 493.151 29.2515C493.814 29.2515 494.367 29.4192 494.809 29.7546C495.252 30.09 495.528 30.4068 495.639 30.7049C495.749 31.0031 495.805 31.1988 495.805 31.2919C495.805 31.3292 495.814 31.3478 495.832 31.3478L496.136 31.0404C497.26 29.8478 498.541 29.2515 499.978 29.2515C500.973 29.2515 501.775 29.503 502.383 30.0062C502.991 30.5093 503.304 31.2453 503.323 32.2143C503.341 33.1833 502.991 34.6461 502.272 36.6027C501.554 38.5593 501.204 39.7426 501.222 40.1525C501.222 40.637 501.379 40.8793 501.692 40.8793C501.803 40.8793 501.886 40.87 501.941 40.8513C502.475 40.7581 502.954 40.4041 503.378 39.7892C503.802 39.1742 504.124 38.4289 504.346 37.553C504.382 37.404 504.567 37.3294 504.898 37.3294C505.267 37.3294 505.451 37.404 505.451 37.553C505.451 37.5717 505.414 37.7114 505.341 37.9723C505.193 38.5127 504.99 39.0438 504.732 39.5656C504.475 40.0873 504.051 40.6091 503.461 41.1308C502.871 41.6526 502.236 41.9042 501.554 41.8855C500.688 41.8855 500.061 41.634 499.674 41.1308C499.287 40.6277 499.094 40.1059 499.094 39.5656C499.094 39.2115 499.425 38.0934 500.089 36.2114C500.752 34.3293 501.093 32.9131 501.112 31.9628C501.112 30.8633 500.706 30.3136 499.895 30.3136H499.757C498.172 30.3136 496.836 31.2547 495.749 33.1367L495.556 33.4721L494.644 37.2176C494.036 39.6587 493.685 40.9724 493.593 41.1588C493.354 41.6619 492.958 41.9135 492.405 41.9135C492.165 41.9135 491.972 41.8576 491.824 41.7458C491.677 41.634 491.576 41.5222 491.52 41.4103C491.465 41.2985 491.447 41.2054 491.465 41.1308C491.465 40.8886 491.815 39.3699 492.515 36.5747C493.216 33.7796 493.584 32.2609 493.621 32.0187C493.639 31.9255 493.649 31.7112 493.649 31.3758C493.649 30.649 493.427 30.2857 492.985 30.2857C492.285 30.2857 491.705 31.2174 491.244 33.0808C491.133 33.4535 491.078 33.6492 491.078 33.6678C491.041 33.7796 490.866 33.8355 490.553 33.8355H490.166C490.055 33.7237 490 33.6398 490 33.5839Z" fill="#D9EBFF"/>
<path d="M507.887 34.2547C508.616 33.1875 509.613 32.654 510.877 32.654C511.502 32.654 512.127 32.8252 512.753 33.1678C513.378 33.5103 513.886 34.1163 514.277 34.9858C514.759 36.0793 515 37.5812 515 39.4915C515 41.5335 514.72 43.0947 514.16 44.175C513.899 44.7284 513.541 45.1697 513.085 45.4991C512.629 45.8284 512.232 46.0326 511.893 46.1117C511.554 46.1907 511.222 46.2368 510.896 46.25C510.557 46.25 510.219 46.2105 509.88 46.1314C509.541 46.0524 509.144 45.8416 508.688 45.4991C508.232 45.1565 507.874 44.7152 507.613 44.175C507.053 43.0947 506.773 41.5335 506.773 39.4915C506.773 37.1992 507.144 35.4535 507.887 34.2547ZM512.284 34.0175C511.893 33.5959 511.43 33.3852 510.896 33.3852C510.349 33.3852 509.88 33.5959 509.489 34.0175C509.163 34.3601 508.948 34.8343 508.844 35.4404C508.74 36.0464 508.688 37.3111 508.688 39.2346C508.688 41.3162 508.74 42.6863 508.844 43.345C508.948 44.0038 509.183 44.5241 509.548 44.9062C509.913 45.3014 510.362 45.4991 510.896 45.4991C511.417 45.4991 511.86 45.3014 512.225 44.9062C512.603 44.511 512.837 43.9576 512.929 43.2462C513.02 42.5348 513.072 41.1976 513.085 39.2346C513.085 37.3243 513.033 36.0662 512.929 35.4601C512.824 34.8541 512.609 34.3732 512.284 34.0175Z" fill="#D9EBFF"/>
<path d="M572 33.6977C572.018 33.5829 572.045 33.43 572.082 33.2387C572.118 33.0475 572.227 32.6842 572.409 32.1487C572.59 31.6132 572.772 31.1638 572.953 30.8005C573.135 30.4372 573.435 30.0834 573.852 29.7392C574.27 29.3949 574.687 29.2324 575.105 29.2515C575.759 29.2515 576.304 29.4236 576.739 29.7678C577.175 30.1121 577.448 30.4372 577.556 30.7431C577.665 31.0491 577.72 31.2499 577.72 31.3455C577.72 31.3838 577.729 31.4029 577.747 31.4029L578.047 31.0874C579.154 29.8635 580.416 29.2515 581.833 29.2515C582.813 29.2515 583.603 29.5097 584.202 30.026C584.802 30.5423 585.11 31.2977 585.129 32.2921C585.147 33.2865 584.802 34.7877 584.094 36.7957C583.385 38.8036 583.04 40.018 583.058 40.4387C583.058 40.9359 583.213 41.1845 583.522 41.1845C583.63 41.1845 583.712 41.1749 583.767 41.1558C584.293 41.0602 584.765 40.6968 585.183 40.0658C585.601 39.4347 585.918 38.6698 586.136 37.771C586.173 37.618 586.354 37.5415 586.681 37.5415C587.044 37.5415 587.226 37.618 587.226 37.771C587.226 37.7901 587.19 37.9335 587.117 38.2012C586.972 38.7558 586.772 39.3008 586.518 39.8363C586.263 40.3717 585.846 40.9072 585.265 41.4426C584.684 41.9781 584.057 42.2363 583.385 42.2171C582.532 42.2171 581.915 41.959 581.533 41.4426C581.152 40.9263 580.961 40.3909 580.961 39.8363C580.961 39.4729 581.288 38.3255 581.942 36.3941C582.595 34.4626 582.931 33.0092 582.95 32.034C582.95 30.9057 582.55 30.3415 581.751 30.3415H581.615C580.053 30.3415 578.737 31.3073 577.665 33.2387L577.475 33.5829L576.576 37.4267C575.977 39.9319 575.632 41.2801 575.541 41.4713C575.305 41.9877 574.914 42.2458 574.37 42.2458C574.134 42.2458 573.943 42.1885 573.798 42.0737C573.652 41.959 573.553 41.8442 573.498 41.7295C573.444 41.6148 573.425 41.5191 573.444 41.4426C573.444 41.194 573.789 39.6355 574.479 36.767C575.169 33.8985 575.532 32.3399 575.568 32.0913C575.586 31.9957 575.595 31.7758 575.595 31.4316C575.595 30.6858 575.377 30.3129 574.942 30.3129C574.252 30.3129 573.68 31.269 573.226 33.1814C573.117 33.5638 573.062 33.7646 573.062 33.7837C573.026 33.8985 572.853 33.9559 572.545 33.9559H572.163C572.054 33.8411 572 33.7551 572 33.6977Z" fill="#D9EBFF"/>
<path d="M591.879 34.528L591.629 34.6294C591.449 34.697 591.192 34.7646 590.858 34.8322C590.525 34.8998 590.152 34.9471 589.741 34.9741H589.376V34.0412H589.741C590.345 34.0142 590.903 33.9128 591.417 33.737C591.93 33.5613 592.29 33.399 592.495 33.2503C592.701 33.1016 592.88 32.9529 593.034 32.8041C593.06 32.7636 593.137 32.7433 593.265 32.7433C593.381 32.7433 593.49 32.7839 593.593 32.865V38.9288L593.612 45.0129C593.702 45.1075 593.779 45.1684 593.843 45.1954C593.907 45.2225 594.061 45.2495 594.305 45.2765C594.549 45.3036 594.947 45.3171 595.499 45.3171H596V46.25H595.788C595.519 46.2094 594.498 46.1892 592.726 46.1892C590.98 46.1892 589.973 46.2094 589.703 46.25H589.472V45.3171H589.973C590.255 45.3171 590.499 45.3171 590.704 45.3171C590.91 45.3171 591.07 45.3103 591.186 45.2968C591.301 45.2833 591.404 45.263 591.494 45.236C591.584 45.2089 591.635 45.1954 591.648 45.1954C591.661 45.1954 591.699 45.1616 591.763 45.094C591.828 45.0264 591.866 44.9994 591.879 45.0129V34.528Z" fill="#D9EBFF"/>
<defs>
<clipPath id="clip0_588_6634">
<rect width="49" height="20" fill="white" transform="translate(535 146.25)"/>
</clipPath>
</defs>
</svg>
