<svg width="700" height="142" viewBox="0 0 700 142" fill="none" xmlns="http://www.w3.org/2000/svg">
<rect width="700" height="141" transform="translate(0 0.25)" fill="#0A0D12"/>
<path d="M272 91.5442L306.706 126.25" stroke="#B3BFD8" stroke-width="2"/>
<path d="M353.294 93.5442L388 128.25" stroke="#B3BFD8" stroke-width="2"/>
<path d="M346.353 93.5442L311.647 128.25" stroke="#B3BFD8" stroke-width="2"/>
<path d="M427.647 91.5442L392.941 126.25" stroke="#B3BFD8" stroke-width="2"/>
<path d="M348.353 12.25L313.647 46.9559" stroke="#B3BFD8" stroke-width="2"/>
<path d="M306.706 53.897L272 88.6029" stroke="#B3BFD8" stroke-width="2"/>
<path d="M351.294 12.25L386 46.9559" stroke="#B3BFD8" stroke-width="2"/>
<path d="M392.941 53.897L427.647 88.6029" stroke="#B3BFD8" stroke-width="2"/>
<circle cx="310" cy="50.25" r="5" fill="black" stroke="#D9EBFF" stroke-width="2"/>
<circle cx="350" cy="10.25" r="5" fill="black" stroke="#D9EBFF" stroke-width="2"/>
<circle cx="350" cy="10.25" r="5" fill="black" stroke="#D9EBFF" stroke-width="2"/>
<circle cx="390" cy="50.25" r="5" fill="black" stroke="#D9EBFF" stroke-width="2"/>
<circle cx="350" cy="91.25" r="5" fill="black" stroke="#D9EBFF" stroke-width="2"/>
<circle cx="430" cy="90.25" r="5" fill="black" stroke="#D9EBFF" stroke-width="2"/>
<circle cx="310" cy="130.25" r="5" fill="black" stroke="#D9EBFF" stroke-width="2"/>
<circle cx="390" cy="130.25" r="5" fill="black" stroke="#D9EBFF" stroke-width="2"/>
<circle cx="270" cy="90.25" r="5" fill="black" stroke="#D9EBFF" stroke-width="2"/>
</svg>
