<svg width="700" height="291" viewBox="0 0 700 291" fill="none" xmlns="http://www.w3.org/2000/svg">
<g clip-path="url(#clip0_588_6570)">
<rect width="700" height="290" transform="translate(0 0.25)" fill="#0A0D12"/>
<g clip-path="url(#clip1_588_6570)">
<rect width="1284" height="1284" transform="translate(-292 -408.75)" fill="#0A0D12"/>
<g opacity="0.4">
<line x1="409.156" y1="-1050.75" x2="409.156" y2="1517.25" stroke="#67DBFF" stroke-width="0.917143"/>
<line x1="467.853" y1="-1050.75" x2="467.853" y2="1517.25" stroke="#67DBFF" stroke-width="0.917143"/>
<line x1="526.55" y1="-1050.75" x2="526.55" y2="1517.25" stroke="#67DBFF" stroke-width="0.917143"/>
<line x1="585.248" y1="-1050.75" x2="585.247" y2="1517.25" stroke="#67DBFF" stroke-width="0.917143"/>
<line x1="643.944" y1="-1050.75" x2="643.944" y2="1517.25" stroke="#67DBFF" stroke-width="0.917143"/>
<line x1="56.9732" y1="-1050.75" x2="56.973" y2="1517.25" stroke="#67DBFF" stroke-width="0.917143"/>
<line x1="115.67" y1="-1050.75" x2="115.669" y2="1517.25" stroke="#67DBFF" stroke-width="0.917143"/>
<line x1="174.367" y1="-1050.75" x2="174.367" y2="1517.25" stroke="#67DBFF" stroke-width="0.917143"/>
<line x1="233.064" y1="-1050.75" x2="233.064" y2="1517.25" stroke="#67DBFF" stroke-width="0.917143"/>
<line x1="291.761" y1="-1050.75" x2="291.761" y2="1517.25" stroke="#67DBFF" stroke-width="0.917143"/>
<line x1="-934" y1="174.094" x2="1634" y2="174.094" stroke="#67DBFF" stroke-width="0.917143"/>
<line x1="-934" y1="115.397" x2="1634" y2="115.397" stroke="#67DBFF" stroke-width="0.917143"/>
<line x1="-934" y1="56.7" x2="1634" y2="56.7" stroke="#67DBFF" stroke-width="0.917143"/>
</g>
<line x1="350.459" y1="-1050.75" x2="350.458" y2="1517.25" stroke="#E6E6E6" stroke-width="0.917143"/>
<line x1="-934" y1="232.791" x2="1634" y2="232.791" stroke="#E6E6E6" stroke-width="0.917143"/>
<path d="M420.641 244.36L420.364 244.471C420.165 244.544 419.88 244.618 419.51 244.691C419.141 244.764 418.728 244.816 418.273 244.845H417.868V243.832H418.273C418.942 243.802 419.56 243.692 420.129 243.501C420.698 243.31 421.096 243.134 421.323 242.972C421.551 242.811 421.75 242.649 421.921 242.488C421.949 242.444 422.034 242.422 422.177 242.422C422.305 242.422 422.425 242.466 422.539 242.554V249.142L422.561 255.752C422.66 255.855 422.745 255.921 422.816 255.95C422.888 255.979 423.058 256.009 423.328 256.038C423.599 256.068 424.039 256.082 424.651 256.082H425.205V257.096H424.971C424.672 257.052 423.542 257.03 421.579 257.03C419.646 257.03 418.529 257.052 418.231 257.096H417.975V256.082H418.529C418.842 256.082 419.112 256.082 419.34 256.082C419.567 256.082 419.745 256.075 419.873 256.06C420.001 256.046 420.115 256.023 420.214 255.994C420.314 255.965 420.371 255.95 420.385 255.95C420.399 255.95 420.442 255.913 420.513 255.84C420.584 255.766 420.627 255.737 420.641 255.752V244.36Z" fill="#C4C4C4"/>
<path d="M360.11 181.995L359.832 182.105C359.633 182.178 359.349 182.252 358.979 182.325C358.61 182.399 358.197 182.45 357.742 182.479H357.337V181.466H357.742C358.41 181.437 359.029 181.326 359.598 181.135C360.167 180.944 360.565 180.768 360.792 180.607C361.02 180.445 361.219 180.283 361.389 180.122C361.418 180.078 361.503 180.056 361.645 180.056C361.773 180.056 361.894 180.1 362.008 180.188V186.776L362.029 193.386C362.129 193.489 362.214 193.555 362.285 193.584C362.356 193.614 362.527 193.643 362.797 193.672C363.067 193.702 363.508 193.717 364.12 193.717H364.674V194.73H364.439C364.141 194.686 363.01 194.664 361.048 194.664C359.114 194.664 357.998 194.686 357.7 194.73H357.444V193.717H357.998C358.311 193.717 358.581 193.717 358.809 193.717C359.036 193.717 359.214 193.709 359.342 193.694C359.47 193.68 359.584 193.658 359.683 193.628C359.783 193.599 359.84 193.584 359.854 193.584C359.868 193.584 359.911 193.548 359.982 193.474C360.053 193.401 360.095 193.371 360.11 193.386V181.995Z" fill="#C4C4C4"/>
<path d="M477.922 247.643C477.508 247.643 477.178 247.511 476.933 247.247C476.688 246.982 476.565 246.659 476.565 246.277C476.565 245.234 476.972 244.331 477.784 243.567C478.596 242.803 479.607 242.422 480.818 242.422C482.212 242.422 483.377 242.833 484.312 243.655C485.246 244.478 485.722 245.543 485.737 246.85C485.737 247.482 485.584 248.084 485.277 248.657C484.971 249.23 484.603 249.729 484.174 250.155C483.745 250.581 483.132 251.125 482.335 251.786C481.783 252.241 481.017 252.917 480.036 253.813L478.68 255.047L480.427 255.069C482.833 255.069 484.113 255.032 484.266 254.959C484.373 254.929 484.557 254.276 484.817 252.998V252.931H485.737V252.998C485.722 253.042 485.622 253.71 485.438 255.003C485.254 256.295 485.139 256.971 485.093 257.03V257.096H476.565V256.413C476.565 256.31 476.611 256.2 476.703 256.082C476.795 255.965 477.025 255.708 477.393 255.311C477.837 254.841 478.22 254.43 478.542 254.077C478.68 253.93 478.941 253.659 479.324 253.262C479.707 252.865 479.967 252.594 480.105 252.447C480.243 252.3 480.465 252.057 480.772 251.72C481.078 251.382 481.293 251.132 481.415 250.97C481.538 250.809 481.714 250.589 481.944 250.309C482.174 250.03 482.335 249.795 482.427 249.604C482.519 249.413 482.634 249.2 482.772 248.965C482.91 248.73 483.009 248.495 483.07 248.26C483.132 248.025 483.185 247.805 483.231 247.599C483.277 247.394 483.3 247.151 483.3 246.872C483.3 245.947 483.04 245.146 482.519 244.471C481.998 243.795 481.255 243.457 480.289 243.457C479.783 243.457 479.339 243.582 478.956 243.832C478.573 244.081 478.305 244.324 478.151 244.559C477.998 244.794 477.922 244.933 477.922 244.977C477.922 244.992 477.96 244.999 478.037 244.999C478.312 244.999 478.596 245.102 478.887 245.308C479.178 245.514 479.324 245.851 479.324 246.321C479.324 246.689 479.201 246.997 478.956 247.247C478.711 247.497 478.366 247.629 477.922 247.643Z" fill="#C4C4C4"/>
<path d="M358.693 126.581C358.279 126.581 357.95 126.448 357.705 126.184C357.46 125.92 357.337 125.596 357.337 125.214C357.337 124.172 357.743 123.268 358.555 122.504C359.367 121.741 360.379 121.359 361.589 121.359C362.984 121.359 364.148 121.77 365.083 122.593C366.018 123.415 366.493 124.48 366.508 125.787C366.508 126.419 366.355 127.021 366.049 127.594C365.742 128.167 365.374 128.666 364.945 129.092C364.516 129.518 363.903 130.062 363.106 130.723C362.555 131.178 361.789 131.854 360.808 132.75L359.452 133.984L361.199 134.006C363.604 134.006 364.884 133.969 365.037 133.896C365.145 133.866 365.328 133.213 365.589 131.935V131.869H366.508V131.935C366.493 131.979 366.393 132.647 366.21 133.94C366.026 135.232 365.911 135.908 365.865 135.967V136.033H357.337V135.35C357.337 135.247 357.383 135.137 357.475 135.019C357.567 134.902 357.797 134.645 358.164 134.248C358.609 133.778 358.992 133.367 359.314 133.014C359.452 132.867 359.712 132.596 360.095 132.199C360.478 131.803 360.739 131.531 360.877 131.384C361.015 131.237 361.237 130.995 361.543 130.657C361.85 130.319 362.064 130.069 362.187 129.908C362.31 129.746 362.486 129.526 362.716 129.247C362.946 128.968 363.106 128.733 363.198 128.542C363.29 128.351 363.405 128.138 363.543 127.903C363.681 127.668 363.781 127.433 363.842 127.198C363.903 126.962 363.957 126.742 364.003 126.537C364.049 126.331 364.072 126.088 364.072 125.809C364.072 124.884 363.811 124.083 363.29 123.408C362.769 122.732 362.026 122.394 361.061 122.394C360.555 122.394 360.111 122.519 359.727 122.769C359.344 123.018 359.076 123.261 358.923 123.496C358.77 123.731 358.693 123.87 358.693 123.915C358.693 123.929 358.731 123.937 358.808 123.937C359.084 123.937 359.367 124.039 359.659 124.245C359.95 124.451 360.095 124.789 360.095 125.259C360.095 125.626 359.973 125.934 359.727 126.184C359.482 126.434 359.137 126.566 358.693 126.581Z" fill="#C4C4C4"/>
<path d="M537.141 246.736C536.743 246.736 536.434 246.615 536.213 246.373C535.992 246.131 535.874 245.818 535.859 245.433C535.859 244.65 536.213 243.952 536.92 243.34C537.627 242.728 538.482 242.422 539.484 242.422C539.999 242.422 540.324 242.429 540.456 242.443C541.546 242.614 542.379 242.991 542.953 243.575C543.528 244.159 543.823 244.792 543.837 245.476C543.837 246.216 543.587 246.936 543.086 247.633C542.585 248.331 541.893 248.837 541.009 249.15L540.942 249.193C540.942 249.207 541.009 249.228 541.141 249.257C541.274 249.285 541.487 249.349 541.782 249.449C542.077 249.549 542.357 249.698 542.622 249.897C543.83 250.652 544.434 251.649 544.434 252.888C544.434 254.013 543.977 254.995 543.064 255.836C542.15 256.676 540.994 257.096 539.594 257.096C538.416 257.096 537.399 256.79 536.544 256.177C535.69 255.565 535.263 254.789 535.263 253.849C535.263 253.45 535.395 253.13 535.66 252.888C535.926 252.646 536.257 252.518 536.655 252.503C537.068 252.503 537.406 252.632 537.672 252.888C537.937 253.144 538.069 253.465 538.069 253.849C538.069 254.006 538.047 254.148 538.003 254.276C537.959 254.404 537.907 254.518 537.848 254.618C537.789 254.718 537.708 254.803 537.605 254.874C537.502 254.946 537.414 255.003 537.34 255.045C537.266 255.088 537.193 255.116 537.119 255.131C537.045 255.145 536.986 255.166 536.942 255.195L536.854 255.216C537.605 255.857 538.519 256.177 539.594 256.177C540.405 256.177 541.016 255.8 541.429 255.045C541.679 254.575 541.804 253.856 541.804 252.888V252.461C541.804 251.108 541.333 250.204 540.39 249.748C540.169 249.663 539.719 249.613 539.042 249.598L538.114 249.577L538.047 249.534C538.018 249.492 538.003 249.378 538.003 249.193C538.003 248.936 538.062 248.808 538.18 248.808C538.592 248.808 539.02 248.773 539.462 248.701C539.963 248.63 540.419 248.331 540.832 247.804C541.244 247.277 541.451 246.48 541.451 245.412V245.241C541.451 244.429 541.193 243.867 540.677 243.554C540.353 243.354 540.007 243.255 539.638 243.255C539.167 243.255 538.732 243.333 538.335 243.49C537.937 243.646 537.657 243.81 537.495 243.981C537.333 244.152 537.252 244.237 537.252 244.237H537.318C537.362 244.251 537.421 244.266 537.495 244.28C537.568 244.294 537.642 244.33 537.716 244.387C537.789 244.444 537.878 244.493 537.981 244.536C538.084 244.579 538.158 244.657 538.202 244.771C538.246 244.885 538.305 244.992 538.379 245.092C538.452 245.191 538.475 245.334 538.445 245.519C538.445 245.832 538.342 246.11 538.136 246.352C537.929 246.594 537.598 246.722 537.141 246.736Z" fill="#C4C4C4"/>
<path d="M602.945 256.437C602.697 256.396 601.806 256.375 600.274 256.375C598.673 256.375 597.749 256.396 597.5 256.437H597.314V255.485H597.956C598.232 255.485 598.418 255.485 598.515 255.485C598.611 255.485 598.729 255.471 598.867 255.444C599.005 255.416 599.101 255.382 599.156 255.34C599.212 255.299 599.26 255.244 599.301 255.175C599.315 255.147 599.322 254.774 599.322 254.057V253.021H593.96V252.069L597.086 247.287C599.198 244.085 600.267 242.477 600.295 242.463C600.323 242.435 600.468 242.422 600.73 242.422H601.102L601.227 242.546V252.069H603.131V253.021H601.227V254.077C601.227 254.643 601.227 254.974 601.227 255.071C601.227 255.168 601.268 255.25 601.351 255.319C601.461 255.416 601.855 255.471 602.531 255.485H603.131V256.437H602.945ZM599.446 252.069V245.154L594.912 252.048L597.169 252.069H599.446Z" fill="#C4C4C4"/>
<path d="M366.322 17.9803C366.074 17.9389 365.183 17.9182 363.651 17.9182C362.05 17.9182 361.126 17.9389 360.877 17.9803H360.691V17.0279H361.333C361.609 17.0279 361.795 17.0279 361.892 17.0279C361.988 17.0279 362.106 17.0141 362.244 16.9865C362.382 16.9589 362.478 16.9244 362.533 16.883C362.589 16.8416 362.637 16.7864 362.678 16.7174C362.692 16.6898 362.699 16.3171 362.699 15.5994V14.5643H357.337V13.612L360.463 8.82956C362.575 5.6275 363.644 4.01956 363.672 4.00576C363.7 3.97816 363.845 3.96436 364.107 3.96436H364.479L364.604 4.08857V13.612H366.508V14.5643H364.604V15.6201C364.604 16.186 364.604 16.5173 364.604 16.6139C364.604 16.7105 364.645 16.7933 364.728 16.8623C364.838 16.9589 365.232 17.0141 365.908 17.0279H366.508V17.9803H366.322ZM362.823 13.612V6.69715L358.289 13.5913L360.546 13.612H362.823Z" fill="#C4C4C4"/>
<path d="M653.443 253.278C653.443 253.619 653.32 253.904 653.075 254.131C652.83 254.359 652.531 254.472 652.178 254.472H652.018C652.722 255.596 653.657 256.157 654.822 256.157C655.895 256.157 656.676 255.731 657.166 254.878C657.458 254.408 657.603 253.498 657.603 252.147C657.603 250.683 657.396 249.695 656.983 249.183C656.584 248.714 656.14 248.479 655.649 248.479H655.511C654.316 248.479 653.412 248.962 652.799 249.929C652.738 250.029 652.684 250.086 652.638 250.1C652.592 250.114 652.477 250.128 652.293 250.143C652.033 250.143 651.887 250.1 651.857 250.015C651.826 249.958 651.811 248.714 651.811 246.282V243.531C651.811 242.82 651.849 242.464 651.926 242.464C651.956 242.436 651.987 242.422 652.018 242.422C652.033 242.422 652.194 242.478 652.5 242.592C652.807 242.706 653.228 242.82 653.764 242.933C654.301 243.047 654.875 243.104 655.488 243.104C656.576 243.104 657.618 242.905 658.615 242.507C658.737 242.45 658.837 242.422 658.913 242.422C659.036 242.422 659.097 242.549 659.097 242.805V243.083C657.841 244.462 656.27 245.152 654.385 245.152C653.91 245.152 653.481 245.109 653.098 245.024L652.868 244.981V248.65C653.159 248.45 653.389 248.294 653.558 248.18C653.726 248.067 654.002 247.953 654.385 247.839C654.768 247.725 655.159 247.668 655.557 247.668C656.799 247.668 657.848 248.131 658.706 249.055C659.565 249.979 659.994 251.074 659.994 252.339C659.994 253.648 659.503 254.764 658.523 255.688C657.542 256.612 656.347 257.082 654.937 257.096C653.696 257.096 652.699 256.712 651.949 255.944C651.198 255.176 650.822 254.309 650.822 253.342C650.822 253.001 650.907 252.73 651.075 252.531C651.244 252.332 651.42 252.204 651.604 252.147C651.788 252.091 651.964 252.062 652.132 252.062C652.516 252.062 652.83 252.183 653.075 252.425C653.32 252.666 653.443 252.951 653.443 253.278Z" fill="#C4C4C4"/>
<path d="M120.714 251.959C120.714 251.959 120.714 251.865 120.714 251.677C120.714 251.489 120.809 251.344 121 251.243H132.893C133.097 251.359 133.2 251.503 133.2 251.677C133.2 251.85 133.097 251.995 132.893 252.11H121C120.809 252.009 120.714 251.865 120.714 251.677V251.959Z" fill="#C4C4C4"/>
<path d="M144.375 257.096C144.13 257.052 143.25 257.031 141.735 257.031C140.152 257.031 139.238 257.052 138.992 257.096H138.808V256.099H139.442C139.715 256.099 139.9 256.099 139.995 256.099C140.091 256.099 140.207 256.084 140.343 256.055C140.48 256.026 140.575 255.99 140.63 255.947C140.684 255.904 140.732 255.846 140.773 255.773C140.787 255.745 140.793 255.354 140.793 254.603V253.519H135.492V252.522L138.583 247.515C140.671 244.163 141.728 242.479 141.755 242.465C141.783 242.436 141.926 242.421 142.185 242.421H142.554L142.676 242.551V252.522H144.56V253.519H142.676V254.625C142.676 255.217 142.676 255.564 142.676 255.665C142.676 255.766 142.717 255.853 142.799 255.925C142.908 256.026 143.297 256.084 143.966 256.099H144.56V257.096H144.375ZM140.916 252.522V245.283L136.434 252.5L138.665 252.522H140.916Z" fill="#C4C4C4"/>
<path d="M62.0176 251.571C62.0176 251.571 62.0176 251.479 62.0176 251.294C62.0176 251.109 62.1149 250.967 62.3097 250.868H74.4307C74.6393 250.981 74.7436 251.124 74.7436 251.294C74.7436 251.465 74.6393 251.607 74.4307 251.721H62.3097C62.1149 251.621 62.0176 251.479 62.0176 251.294V251.571Z" fill="#C4C4C4"/>
<path d="M79.9175 253.278C79.9175 253.619 79.8062 253.903 79.5837 254.131C79.3612 254.358 79.09 254.472 78.7701 254.472H78.624C79.2638 255.596 80.1122 256.157 81.1693 256.157C82.1428 256.157 82.8522 255.731 83.2972 254.877C83.5615 254.408 83.6936 253.498 83.6936 252.147C83.6936 250.683 83.5058 249.695 83.1303 249.183C82.7687 248.713 82.3654 248.479 81.9203 248.479H81.7951C80.7103 248.479 79.8897 248.962 79.3334 249.929C79.2777 250.029 79.2291 250.086 79.1873 250.1C79.1456 250.114 79.0413 250.128 78.8744 250.142C78.638 250.142 78.5058 250.1 78.478 250.014C78.4502 249.958 78.4363 248.713 78.4363 246.282V243.53C78.4363 242.82 78.4711 242.464 78.5406 242.464C78.5684 242.436 78.5962 242.421 78.624 242.421C78.638 242.421 78.784 242.478 79.0622 242.592C79.3403 242.706 79.7228 242.82 80.2096 242.933C80.6964 243.047 81.2179 243.104 81.7743 243.104C82.7618 243.104 83.7075 242.905 84.6115 242.507C84.7228 242.45 84.8132 242.421 84.8828 242.421C84.994 242.421 85.0497 242.549 85.0497 242.805V243.083C83.9092 244.462 82.4836 245.151 80.7729 245.151C80.3417 245.151 79.9523 245.109 79.6046 245.024L79.396 244.981V248.649C79.6602 248.45 79.8688 248.294 80.0218 248.18C80.1748 248.066 80.4252 247.953 80.7729 247.839C81.1206 247.725 81.4752 247.668 81.8369 247.668C82.9634 247.668 83.9161 248.13 84.695 249.055C85.4739 249.979 85.8633 251.074 85.8633 252.339C85.8633 253.647 85.4182 254.764 84.5281 255.688C83.638 256.612 82.5531 257.081 81.2736 257.096C80.147 257.096 79.243 256.712 78.5615 255.944C77.8799 255.176 77.5392 254.309 77.5392 253.342C77.5392 253.001 77.6157 252.73 77.7687 252.531C77.9217 252.332 78.0816 252.204 78.2485 252.147C78.4154 252.09 78.5754 252.062 78.7284 252.062C79.0761 252.062 79.3612 252.183 79.5837 252.425C79.8062 252.666 79.9175 252.951 79.9175 253.278Z" fill="#C4C4C4"/>
<path d="M3.31836 251.571C3.31836 251.571 3.31836 251.479 3.31836 251.294C3.31836 251.109 3.42257 250.967 3.63099 250.868H16.605C16.8283 250.981 16.9399 251.124 16.9399 251.294C16.9399 251.465 16.8283 251.607 16.605 251.721H3.63099C3.42257 251.621 3.31836 251.479 3.31836 251.294V251.571Z" fill="#C4C4C4"/>
<path d="M19.7536 249.95C19.7536 247.633 20.3565 245.798 21.5623 244.448C22.7682 243.097 24.108 242.421 25.5818 242.421C26.609 242.421 27.3459 242.677 27.7925 243.189C28.2391 243.701 28.4624 244.27 28.4624 244.896C28.4624 245.251 28.3582 245.535 28.1498 245.749C27.9414 245.962 27.6511 246.069 27.2789 246.069C26.9365 246.069 26.6537 245.969 26.4304 245.77C26.2071 245.571 26.0954 245.294 26.0954 244.938C26.0954 244.313 26.4452 243.936 27.1449 243.808C26.8174 243.495 26.3559 243.317 25.7604 243.275C24.7035 243.275 23.8326 243.701 23.1478 244.554C22.4481 245.493 22.0983 246.929 22.0983 248.863L22.1206 248.948C22.195 248.863 22.2546 248.77 22.2992 248.671C22.9096 247.818 23.706 247.391 24.6886 247.391H24.7779C25.4627 247.391 26.0656 247.526 26.5867 247.796C26.944 247.995 27.3012 248.28 27.6585 248.649C28.0158 249.019 28.3061 249.424 28.5294 249.865C28.842 250.562 28.9984 251.323 28.9984 252.147V252.531C28.9984 252.858 28.9611 253.164 28.8867 253.448C28.723 254.287 28.2466 255.105 27.4576 255.901C26.6686 256.698 25.6711 257.096 24.4653 257.096C24.0484 257.096 23.6465 257.039 23.2594 256.925C22.8724 256.811 22.4555 256.598 22.0089 256.285C21.5623 255.972 21.1827 255.553 20.8701 255.027C20.5575 254.501 20.2895 253.811 20.0662 252.958C19.8429 252.105 19.7387 251.102 19.7536 249.95ZM24.5546 248.159C24.108 248.159 23.7209 248.28 23.3934 248.521C23.0659 248.763 22.8128 249.083 22.6342 249.481C22.4555 249.879 22.329 250.285 22.2546 250.697C22.1801 251.109 22.1355 251.55 22.1206 252.019C22.1206 253.2 22.2099 254.046 22.3886 254.558C22.5672 255.069 22.85 255.482 23.2371 255.795C23.5944 256.051 23.9889 256.179 24.4206 256.179C25.1799 256.179 25.7604 255.908 26.1624 255.368C26.3559 255.112 26.4899 254.792 26.5643 254.408C26.6388 254.024 26.676 253.278 26.676 252.169C26.676 251.031 26.6388 250.27 26.5643 249.887C26.4899 249.503 26.3559 249.183 26.1624 248.927C25.7604 248.415 25.2245 248.159 24.5546 248.159Z" fill="#C4C4C4"/>
<path d="M359.215 66.9762C358.818 66.9762 358.508 66.8552 358.287 66.6131C358.066 66.371 357.948 66.0577 357.934 65.6733C357.934 64.8901 358.287 64.1923 358.994 63.58C359.702 62.9677 360.556 62.6615 361.558 62.6615C362.074 62.6615 362.398 62.6686 362.53 62.6829C363.621 62.8537 364.453 63.2311 365.028 63.8149C365.602 64.3988 365.897 65.0325 365.912 65.716C365.912 66.4565 365.661 67.1756 365.16 67.8733C364.659 68.5711 363.967 69.0766 363.083 69.3899L363.017 69.4326C363.017 69.4468 363.083 69.4682 363.215 69.4967C363.348 69.5252 363.562 69.5892 363.856 69.6889C364.151 69.7886 364.431 69.9381 364.696 70.1375C365.904 70.8922 366.508 71.889 366.508 73.1279C366.508 74.2528 366.052 75.2354 365.138 76.0755C364.225 76.9157 363.068 77.3358 361.668 77.3358C360.49 77.3358 359.473 77.0296 358.619 76.4173C357.764 75.805 357.337 75.0289 357.337 74.0891C357.337 73.6904 357.47 73.37 357.735 73.1279C358 72.8858 358.331 72.7576 358.729 72.7434C359.142 72.7434 359.481 72.8716 359.746 73.1279C360.011 73.3842 360.144 73.7046 360.144 74.0891C360.144 74.2457 360.121 74.3881 360.077 74.5163C360.033 74.6444 359.982 74.7584 359.923 74.858C359.864 74.9577 359.783 75.0431 359.679 75.1143C359.576 75.1855 359.488 75.2425 359.414 75.2852C359.341 75.3279 359.267 75.3564 359.193 75.3707C359.12 75.3849 359.061 75.4063 359.017 75.4347L358.928 75.4561C359.679 76.0969 360.593 76.4173 361.668 76.4173C362.479 76.4173 363.09 76.0399 363.503 75.2852C363.753 74.8153 363.878 74.0962 363.878 73.1279V72.7007C363.878 71.3479 363.407 70.4436 362.464 69.988C362.243 69.9025 361.794 69.8527 361.116 69.8384L360.188 69.8171L360.121 69.7744C360.092 69.7316 360.077 69.6177 360.077 69.4326C360.077 69.1763 360.136 69.0481 360.254 69.0481C360.667 69.0481 361.094 69.0125 361.536 68.9413C362.037 68.8701 362.494 68.5711 362.906 68.0442C363.319 67.5173 363.525 66.7199 363.525 65.6519V65.481C363.525 64.6693 363.267 64.1069 362.751 63.7936C362.427 63.5942 362.081 63.4945 361.713 63.4945C361.241 63.4945 360.807 63.5729 360.409 63.7295C360.011 63.8861 359.731 64.0499 359.569 64.2208C359.407 64.3917 359.326 64.4771 359.326 64.4771H359.392C359.436 64.4913 359.495 64.5056 359.569 64.5198C359.643 64.5341 359.716 64.5697 359.79 64.6266C359.864 64.6836 359.952 64.7334 360.055 64.7761C360.158 64.8189 360.232 64.8972 360.276 65.0111C360.32 65.125 360.379 65.2318 360.453 65.3315C360.527 65.4312 360.549 65.5736 360.519 65.7587C360.519 66.072 360.416 66.3497 360.21 66.5917C360.004 66.8338 359.672 66.962 359.215 66.9762Z" fill="#C4C4C4"/>
<path d="M358.579 244.149C359.392 242.997 360.503 242.422 361.912 242.422C362.609 242.422 363.306 242.606 364.003 242.976C364.7 243.346 365.267 244 365.702 244.938C366.24 246.119 366.508 247.74 366.508 249.801C366.508 252.005 366.196 253.69 365.572 254.856C365.281 255.453 364.882 255.93 364.373 256.285C363.865 256.641 363.422 256.861 363.045 256.946C362.667 257.032 362.297 257.082 361.934 257.096C361.556 257.096 361.178 257.053 360.801 256.968C360.423 256.883 359.98 256.655 359.472 256.285C358.964 255.916 358.564 255.439 358.274 254.856C357.649 253.69 357.337 252.005 357.337 249.801C357.337 247.327 357.751 245.443 358.579 244.149ZM363.48 243.893C363.045 243.438 362.529 243.211 361.934 243.211C361.324 243.211 360.801 243.438 360.365 243.893C360.002 244.263 359.762 244.775 359.646 245.429C359.53 246.083 359.472 247.448 359.472 249.524C359.472 251.771 359.53 253.249 359.646 253.96C359.762 254.671 360.024 255.233 360.43 255.645C360.837 256.072 361.338 256.285 361.934 256.285C362.514 256.285 363.008 256.072 363.415 255.645C363.836 255.219 364.097 254.622 364.199 253.854C364.301 253.086 364.359 251.643 364.373 249.524C364.373 247.462 364.315 246.104 364.199 245.45C364.083 244.796 363.843 244.277 363.48 243.893Z" fill="#C4C4C4"/>
<path d="M296.806 251.874C296.806 251.874 296.806 251.778 296.806 251.587C296.806 251.396 296.905 251.25 297.103 251.147H309.462C309.675 251.264 309.781 251.411 309.781 251.587C309.781 251.764 309.675 251.911 309.462 252.028H297.103C296.905 251.925 296.806 251.778 296.806 251.587V251.874Z" fill="#C4C4C4"/>
<path d="M316.099 244.36L315.823 244.471C315.624 244.544 315.341 244.618 314.972 244.691C314.603 244.764 314.192 244.816 313.738 244.845H313.334V243.832H313.738C314.405 243.802 315.021 243.692 315.589 243.501C316.156 243.31 316.553 243.134 316.78 242.972C317.007 242.811 317.205 242.649 317.376 242.488C317.404 242.444 317.489 242.422 317.631 242.422C317.758 242.422 317.879 242.466 317.992 242.554V249.142L318.014 255.752C318.113 255.855 318.198 255.921 318.269 255.95C318.34 255.979 318.51 256.009 318.779 256.038C319.049 256.068 319.489 256.082 320.098 256.082H320.651V257.096H320.417C320.12 257.052 318.992 257.03 317.035 257.03C315.107 257.03 313.993 257.052 313.695 257.096H313.44V256.082H313.993C314.305 256.082 314.575 256.082 314.802 256.082C315.029 256.082 315.206 256.075 315.333 256.06C315.461 256.046 315.575 256.023 315.674 255.994C315.773 255.965 315.83 255.95 315.844 255.95C315.858 255.95 315.901 255.913 315.972 255.84C316.042 255.766 316.085 255.737 316.099 255.752V244.36Z" fill="#C4C4C4"/>
<path d="M238.108 251.874C238.108 251.874 238.108 251.778 238.108 251.587C238.108 251.396 238.206 251.25 238.4 251.147H250.522C250.73 251.264 250.834 251.411 250.834 251.587C250.834 251.764 250.73 251.911 250.522 252.028H238.4C238.206 251.925 238.108 251.778 238.108 251.587V251.874Z" fill="#C4C4C4"/>
<path d="M254.861 247.643C254.485 247.643 254.186 247.511 253.964 247.247C253.741 246.982 253.63 246.659 253.63 246.277C253.63 245.234 253.999 244.331 254.736 243.567C255.473 242.803 256.391 242.422 257.49 242.422C258.755 242.422 259.812 242.833 260.661 243.655C261.509 244.478 261.94 245.543 261.954 246.85C261.954 247.482 261.815 248.084 261.537 248.657C261.259 249.23 260.925 249.729 260.535 250.155C260.146 250.581 259.59 251.125 258.866 251.786C258.366 252.241 257.67 252.917 256.78 253.813L255.549 255.047L257.135 255.069C259.318 255.069 260.48 255.032 260.619 254.959C260.716 254.929 260.883 254.276 261.12 252.998V252.931H261.954V252.998C261.94 253.042 261.85 253.71 261.683 255.003C261.516 256.295 261.412 256.971 261.37 257.03V257.096H253.63V256.413C253.63 256.31 253.672 256.2 253.755 256.082C253.839 255.965 254.047 255.708 254.381 255.311C254.784 254.841 255.132 254.43 255.424 254.077C255.549 253.93 255.786 253.659 256.134 253.262C256.481 252.865 256.718 252.594 256.843 252.447C256.968 252.3 257.17 252.057 257.448 251.72C257.726 251.382 257.921 251.132 258.032 250.97C258.143 250.809 258.303 250.589 258.512 250.309C258.72 250.03 258.866 249.795 258.95 249.604C259.033 249.413 259.138 249.2 259.263 248.965C259.388 248.73 259.478 248.495 259.534 248.26C259.59 248.025 259.638 247.805 259.68 247.599C259.722 247.394 259.743 247.151 259.743 246.872C259.743 245.947 259.506 245.146 259.033 244.471C258.56 243.795 257.886 243.457 257.01 243.457C256.551 243.457 256.147 243.582 255.8 243.832C255.452 244.081 255.209 244.324 255.07 244.559C254.93 244.794 254.861 244.933 254.861 244.977C254.861 244.992 254.896 244.999 254.965 244.999C255.216 244.999 255.473 245.102 255.737 245.308C256.001 245.514 256.134 245.851 256.134 246.321C256.134 246.689 256.022 246.997 255.8 247.247C255.577 247.497 255.264 247.629 254.861 247.643Z" fill="#C4C4C4"/>
<path d="M179.411 251.564C179.411 251.564 179.411 251.471 179.411 251.286C179.411 251.101 179.508 250.958 179.701 250.859H191.738C191.945 250.973 192.049 251.115 192.049 251.286C192.049 251.457 191.945 251.599 191.738 251.713H179.701C179.508 251.613 179.411 251.471 179.411 251.286V251.564Z" fill="#C4C4C4"/>
<path d="M196.42 246.736C196.047 246.736 195.757 246.615 195.55 246.373C195.343 246.131 195.232 245.818 195.218 245.433C195.218 244.65 195.55 243.952 196.213 243.34C196.876 242.728 197.677 242.422 198.616 242.422C199.1 242.422 199.403 242.429 199.528 242.443C200.55 242.614 201.33 242.991 201.869 243.575C202.407 244.159 202.684 244.792 202.697 245.476C202.697 246.216 202.463 246.936 201.993 247.633C201.523 248.331 200.874 248.837 200.046 249.15L199.984 249.193C199.984 249.207 200.046 249.228 200.17 249.257C200.294 249.285 200.495 249.349 200.771 249.449C201.047 249.549 201.309 249.698 201.558 249.897C202.691 250.652 203.257 251.649 203.257 252.888C203.257 254.013 202.829 254.995 201.972 255.836C201.116 256.676 200.032 257.096 198.72 257.096C197.615 257.096 196.662 256.79 195.861 256.177C195.06 255.565 194.659 254.789 194.659 253.849C194.659 253.45 194.783 253.13 195.032 252.888C195.281 252.646 195.591 252.518 195.964 252.503C196.351 252.503 196.669 252.632 196.917 252.888C197.166 253.144 197.29 253.465 197.29 253.849C197.29 254.006 197.27 254.148 197.228 254.276C197.187 254.404 197.138 254.518 197.083 254.618C197.028 254.718 196.952 254.803 196.855 254.874C196.758 254.946 196.676 255.003 196.607 255.045C196.538 255.088 196.468 255.116 196.399 255.131C196.33 255.145 196.275 255.166 196.234 255.195L196.151 255.216C196.855 255.857 197.711 256.177 198.72 256.177C199.479 256.177 200.053 255.8 200.439 255.045C200.674 254.575 200.791 253.856 200.791 252.888V252.461C200.791 251.108 200.35 250.204 199.466 249.748C199.258 249.663 198.837 249.613 198.202 249.598L197.332 249.577L197.27 249.534C197.242 249.492 197.228 249.378 197.228 249.193C197.228 248.936 197.283 248.808 197.394 248.808C197.781 248.808 198.181 248.773 198.595 248.701C199.065 248.63 199.493 248.331 199.88 247.804C200.267 247.277 200.46 246.48 200.46 245.412V245.241C200.46 244.429 200.218 243.867 199.735 243.554C199.431 243.354 199.106 243.255 198.761 243.255C198.319 243.255 197.912 243.333 197.539 243.49C197.166 243.646 196.904 243.81 196.752 243.981C196.6 244.152 196.524 244.237 196.524 244.237H196.586C196.627 244.251 196.683 244.266 196.752 244.28C196.821 244.294 196.89 244.33 196.959 244.387C197.028 244.444 197.111 244.493 197.207 244.536C197.304 244.579 197.373 244.657 197.415 244.771C197.456 244.885 197.511 244.992 197.58 245.092C197.649 245.191 197.67 245.334 197.642 245.519C197.642 245.832 197.546 246.11 197.352 246.352C197.159 246.594 196.848 246.722 196.42 246.736Z" fill="#C4C4C4"/>
</g>
<path d="M534 126.745C534 124.823 534.758 123.094 536.274 121.56C537.79 120.025 539.43 119.258 541.193 119.258C542.18 119.258 542.956 119.47 543.52 119.893C544.084 120.316 544.375 120.872 544.392 121.56C544.392 122.071 544.225 122.503 543.89 122.856C543.555 123.209 543.132 123.394 542.621 123.412C542.286 123.412 542.021 123.324 541.827 123.147C541.633 122.971 541.536 122.706 541.536 122.354C541.536 122.001 541.633 121.701 541.827 121.454C542.021 121.207 542.215 121.022 542.409 120.898C542.603 120.775 542.726 120.722 542.779 120.74H542.806C542.806 120.704 542.753 120.652 542.647 120.581C542.541 120.51 542.356 120.44 542.092 120.369C541.827 120.299 541.528 120.263 541.193 120.263C540.664 120.263 540.161 120.387 539.685 120.634C539.315 120.793 538.936 121.066 538.548 121.454C537.773 122.23 537.208 123.324 536.856 124.735C536.503 126.146 536.318 127.169 536.301 127.804C536.301 128.615 536.53 129.223 536.988 129.629C537.376 130.052 537.887 130.264 538.522 130.264H538.628C540.602 130.264 542.233 129.514 543.52 128.015C543.678 127.839 543.784 127.751 543.837 127.751C543.908 127.751 544.022 127.83 544.181 127.989C544.339 128.148 544.428 128.271 544.445 128.359C544.463 128.447 544.384 128.58 544.207 128.756C544.031 128.932 543.775 129.179 543.44 129.497C543.105 129.814 542.709 130.079 542.25 130.291C541.792 130.502 541.228 130.723 540.558 130.952C539.888 131.181 539.183 131.278 538.443 131.243C537.12 131.243 536.054 130.82 535.243 129.973C534.432 129.126 534.018 128.051 534 126.745Z" fill="white"/>
<path d="M545.106 123.359C545.106 123.218 545.186 122.944 545.344 122.539C545.503 122.133 545.723 121.675 546.005 121.163C546.287 120.652 546.675 120.211 547.169 119.84C547.663 119.47 548.183 119.276 548.729 119.258C549.54 119.258 550.148 119.479 550.554 119.92C550.959 120.36 551.162 120.881 551.162 121.48C551.162 121.798 550.862 122.786 550.263 124.444C549.663 126.102 549.364 127.345 549.364 128.174C549.364 128.932 549.487 129.462 549.734 129.761C549.981 130.061 550.351 130.22 550.845 130.238C551.338 130.255 551.805 130.105 552.246 129.788C552.687 129.47 553.013 129.171 553.224 128.888L553.515 128.439C553.551 128.368 553.886 127.028 554.52 124.417C555.049 122.301 555.366 121.066 555.472 120.713C555.578 120.36 555.701 120.105 555.842 119.946C556.142 119.681 556.459 119.549 556.794 119.549C557.094 119.549 557.314 119.637 557.455 119.814C557.597 119.99 557.667 120.158 557.667 120.316L555.657 128.73C555.64 128.818 555.631 128.959 555.631 129.153C555.631 129.594 555.693 129.885 555.816 130.026C555.939 130.167 556.124 130.246 556.371 130.264C556.759 130.211 557.068 129.938 557.297 129.444C557.526 128.95 557.79 128.174 558.09 127.116C558.125 126.975 558.302 126.904 558.619 126.904C558.954 126.904 559.121 126.983 559.121 127.142C559.104 127.23 559.086 127.354 559.069 127.513C559.051 127.671 558.972 127.954 558.831 128.359C558.69 128.765 558.54 129.144 558.381 129.497C558.222 129.85 558.002 130.185 557.72 130.502C557.438 130.82 557.121 131.04 556.768 131.164C556.627 131.199 556.415 131.216 556.133 131.216C554.97 131.216 554.168 130.723 553.727 129.735C553.692 129.753 553.595 129.841 553.436 129.999C553.277 130.158 553.119 130.291 552.96 130.396C552.801 130.502 552.607 130.634 552.378 130.793C552.149 130.952 551.894 131.058 551.611 131.111C551.329 131.164 551.03 131.208 550.712 131.243C549.937 131.243 549.249 131.084 548.65 130.767C547.733 130.22 547.275 129.285 547.275 127.962C547.275 126.957 547.583 125.643 548.2 124.02C548.817 122.398 549.126 121.366 549.126 120.925C549.126 120.907 549.126 120.89 549.126 120.872C549.126 120.713 549.126 120.607 549.126 120.555C549.126 120.502 549.09 120.44 549.02 120.369C548.949 120.299 548.852 120.263 548.729 120.263H548.623C548.218 120.263 547.848 120.431 547.513 120.766C547.178 121.101 546.913 121.463 546.719 121.851C546.525 122.239 546.376 122.609 546.27 122.962C546.164 123.315 546.094 123.509 546.058 123.544C546.023 123.579 545.882 123.597 545.635 123.597H545.265C545.159 123.491 545.106 123.412 545.106 123.359Z" fill="white"/>
<path d="M560.258 123.359C560.276 123.306 560.294 123.235 560.311 123.147C560.329 123.059 560.373 122.865 560.444 122.565C560.514 122.265 560.602 121.992 560.708 121.745C560.814 121.498 560.946 121.207 561.105 120.872C561.263 120.537 561.44 120.272 561.634 120.078C561.827 119.884 562.057 119.69 562.321 119.496C562.586 119.302 562.876 119.223 563.194 119.258C563.705 119.258 564.155 119.364 564.542 119.576C564.93 119.787 565.203 119.981 565.362 120.158C565.521 120.334 565.618 120.51 565.653 120.687C565.688 120.793 565.715 120.846 565.732 120.846C565.75 120.846 565.82 120.784 565.944 120.66C566.79 119.743 567.768 119.285 568.879 119.285H568.958C569.805 119.285 570.439 119.646 570.862 120.369C571.003 120.704 571.074 121.031 571.074 121.348C571.074 121.877 570.959 122.301 570.73 122.618C570.501 122.936 570.272 123.138 570.043 123.227C569.813 123.315 569.593 123.35 569.382 123.332C569.029 123.332 568.747 123.235 568.535 123.041C568.324 122.847 568.218 122.592 568.218 122.274C568.218 121.428 568.712 120.863 569.699 120.581C569.311 120.352 568.994 120.237 568.747 120.237C567.76 120.237 566.852 120.89 566.023 122.195C565.847 122.477 565.715 122.768 565.627 123.068C565.538 123.368 565.239 124.541 564.727 126.587C564.128 129.056 563.784 130.37 563.696 130.529C563.467 131.005 563.088 131.243 562.559 131.243C562.33 131.243 562.145 131.19 562.004 131.084C561.863 130.978 561.766 130.873 561.713 130.767C561.66 130.661 561.642 130.573 561.66 130.502C561.66 130.273 562.013 128.756 562.718 125.952C563.423 123.147 563.775 121.586 563.775 121.269C563.775 120.581 563.546 120.237 563.088 120.237C562.718 120.237 562.4 120.484 562.136 120.978C561.872 121.472 561.66 122.01 561.501 122.592C561.343 123.174 561.246 123.491 561.21 123.544C561.175 123.579 561.034 123.597 560.787 123.597H560.417C560.311 123.491 560.258 123.412 560.258 123.359Z" fill="white"/>
<path d="M572.185 123.359C572.202 123.306 572.22 123.235 572.237 123.147C572.255 123.059 572.299 122.865 572.37 122.565C572.44 122.265 572.528 121.992 572.634 121.745C572.74 121.498 572.872 121.207 573.031 120.872C573.189 120.537 573.366 120.272 573.56 120.078C573.754 119.884 573.983 119.69 574.247 119.496C574.512 119.302 574.802 119.223 575.12 119.258C575.631 119.258 576.081 119.364 576.468 119.576C576.856 119.787 577.13 119.981 577.288 120.158C577.447 120.334 577.544 120.51 577.579 120.687C577.614 120.793 577.641 120.846 577.658 120.846C577.676 120.846 577.747 120.784 577.87 120.66C578.716 119.743 579.695 119.285 580.805 119.285H580.885C581.731 119.285 582.365 119.646 582.788 120.369C582.929 120.704 583 121.031 583 121.348C583 121.877 582.885 122.301 582.656 122.618C582.427 122.936 582.198 123.138 581.969 123.227C581.74 123.315 581.519 123.35 581.308 123.332C580.955 123.332 580.673 123.235 580.461 123.041C580.25 122.847 580.144 122.592 580.144 122.274C580.144 121.428 580.638 120.863 581.625 120.581C581.237 120.352 580.92 120.237 580.673 120.237C579.686 120.237 578.778 120.89 577.949 122.195C577.773 122.477 577.641 122.768 577.553 123.068C577.464 123.368 577.165 124.541 576.654 126.587C576.054 129.056 575.71 130.37 575.622 130.529C575.393 131.005 575.014 131.243 574.485 131.243C574.256 131.243 574.071 131.19 573.93 131.084C573.789 130.978 573.692 130.873 573.639 130.767C573.586 130.661 573.568 130.573 573.586 130.502C573.586 130.273 573.939 128.756 574.644 125.952C575.349 123.147 575.702 121.586 575.702 121.269C575.702 120.581 575.472 120.237 575.014 120.237C574.644 120.237 574.326 120.484 574.062 120.978C573.798 121.472 573.586 122.01 573.427 122.592C573.269 123.174 573.172 123.491 573.137 123.544C573.101 123.579 572.96 123.597 572.713 123.597H572.343C572.237 123.491 572.185 123.412 572.185 123.359Z" fill="white"/>
<path d="M495 68.4363C495 66.4954 495.75 64.6506 497.249 62.9019C498.749 61.1532 500.436 60.2692 502.311 60.25C503.317 60.25 504.205 60.7208 504.975 61.6624C505.29 61.0859 505.744 60.7977 506.336 60.7977C506.593 60.7977 506.82 60.8745 507.017 61.0283C507.214 61.182 507.313 61.3742 507.313 61.6048C507.313 61.8546 506.948 63.3919 506.218 66.2167C505.488 69.0416 505.113 70.6365 505.093 71.0017C505.093 71.4821 505.162 71.7991 505.3 71.9529C505.438 72.1066 505.646 72.1931 505.922 72.2123C506.099 72.1931 506.297 72.1066 506.514 71.9529C506.928 71.5686 507.333 70.6462 507.727 69.1857C507.846 68.8014 507.944 68.5996 508.023 68.5804C508.063 68.5612 508.161 68.5516 508.319 68.5516H508.438C508.813 68.5516 509 68.638 509 68.811C509 68.9263 508.951 69.1857 508.852 69.5892C508.753 69.9928 508.556 70.5116 508.26 71.1458C507.964 71.7799 507.648 72.2603 507.313 72.587C507.056 72.8368 506.741 73.0386 506.366 73.1923C506.208 73.2308 505.971 73.25 505.655 73.25C504.984 73.25 504.422 73.1059 503.968 72.8176C503.514 72.5294 503.218 72.2315 503.08 71.9241L502.903 71.4917C502.883 71.4725 502.844 71.4821 502.784 71.5205C502.745 71.5589 502.705 71.5974 502.666 71.6358C501.502 72.7119 500.318 73.25 499.114 73.25C498.029 73.25 497.072 72.8657 496.243 72.097C495.414 71.3283 495 70.1081 495 68.4363ZM504.412 63.5072C504.412 63.3919 504.363 63.1805 504.264 62.8731C504.166 62.5656 503.939 62.2293 503.584 61.8642C503.228 61.4991 502.774 61.3069 502.222 61.2877C501.531 61.2877 500.87 61.5856 500.239 62.1813C499.607 62.777 499.114 63.5552 498.759 64.5161C498.187 66.0342 497.782 67.6099 497.545 69.2433C497.545 69.301 497.545 69.4067 497.545 69.5604C497.545 69.7142 497.536 69.8295 497.516 69.9063C497.516 70.7711 497.693 71.3668 498.049 71.6935C498.404 72.0201 498.828 72.1931 499.321 72.2123C500.071 72.2123 500.811 71.8952 501.541 71.2611C502.271 70.6269 502.705 70.1369 502.844 69.791C502.883 69.7142 503.149 68.6861 503.643 66.7068C504.136 64.7275 504.393 63.6609 504.412 63.5072Z" fill="white"/>
<path d="M580.95 55.65C580.95 55.4514 580.989 55.223 581.065 54.9649C581.142 54.7067 581.257 54.5777 581.411 54.5777C581.43 54.5777 582.121 54.528 583.484 54.4287C584.847 54.3294 585.548 54.2699 585.586 54.25C585.817 54.25 585.932 54.3394 585.932 54.5181C585.932 54.6968 585.606 56.1167 584.953 58.7777C584.799 59.4528 584.636 60.1479 584.463 60.8628C584.291 61.5777 584.147 62.1138 584.031 62.4713L583.916 63.0372C583.916 63.0968 583.974 63.067 584.089 62.9479C585.03 62.1535 585.999 61.7564 586.997 61.7564C588.188 61.7564 589.147 62.2131 589.877 63.1266C590.606 64.0401 590.981 65.1918 591 66.5819C591 68.7862 590.242 70.7819 588.725 72.5691C587.209 74.3564 585.577 75.25 583.83 75.25C582.87 75.25 581.997 74.8727 581.209 74.1181C580.422 73.3635 580.019 72.1422 580 70.4543V70.1862C580 69.7691 580.077 69.1933 580.23 68.4585C580.384 67.7238 580.854 65.7677 581.641 62.5904C582.601 58.6784 583.081 56.6032 583.081 56.3649C583.081 56.1266 582.716 55.9876 581.987 55.9479C581.891 55.9479 581.814 55.9479 581.757 55.9479H581.613C581.421 55.9479 581.296 55.9479 581.238 55.9479C581.181 55.9479 581.113 55.9181 581.037 55.8585C580.96 55.7989 580.931 55.7294 580.95 55.65ZM588.524 65.2415V65.0628C588.524 63.5933 587.938 62.8585 586.767 62.8585C586.441 62.8585 586.105 62.9379 585.759 63.0968C585.414 63.2557 585.097 63.4642 584.809 63.7223C584.521 63.9805 584.271 64.2188 584.06 64.4372C583.849 64.6557 583.676 64.8741 583.542 65.0926L583.369 65.3309L582.764 67.8926C582.342 69.6004 582.131 70.8117 582.131 71.5266C582.131 72.4798 582.361 73.1947 582.822 73.6713C583.129 73.989 583.513 74.1479 583.974 74.1479C584.607 74.1479 585.25 73.8301 585.903 73.1947C586.383 72.7379 586.767 72.1819 587.055 71.5266C587.343 70.8713 587.66 69.8287 588.005 68.3989C588.351 66.9691 588.524 65.9167 588.524 65.2415Z" fill="white"/>
<path d="M485 74.25L526.5 115.75" stroke="white" stroke-width="2"/>
<path d="M568.5 74.25L527 115.75" stroke="white" stroke-width="2"/>
<path d="M527 173.75L527 115.75" stroke="white" stroke-width="2"/>
<circle cx="527" cy="115.25" r="4" fill="#EB5757"/>
<circle cx="485" cy="74.25" r="4" fill="#20C831"/>
<circle cx="569" cy="74.25" r="4" fill="#006AE7"/>
<circle cx="527" cy="174.25" r="4" fill="#9B51E0"/>
<path d="M535.561 181.144C535.578 181.094 535.595 181.027 535.612 180.944C535.628 180.861 535.67 180.678 535.738 180.395C535.805 180.112 535.889 179.854 535.989 179.621C536.09 179.388 536.216 179.114 536.367 178.797C536.518 178.481 536.686 178.232 536.871 178.049C537.056 177.866 537.274 177.683 537.526 177.5C537.777 177.317 538.054 177.242 538.357 177.275C539.616 177.275 540.422 177.807 540.774 178.872L541.026 178.648C542.067 177.733 543.057 177.275 543.998 177.275C545.089 177.275 545.945 177.666 546.566 178.448C547.187 179.23 547.498 180.179 547.498 181.293C547.498 183.09 546.86 184.746 545.584 186.26C544.308 187.775 542.864 188.54 541.253 188.557C540.883 188.557 540.556 188.507 540.271 188.407C540.086 188.324 539.893 188.199 539.691 188.032C539.49 187.866 539.33 187.725 539.213 187.608L539.037 187.408C539.02 187.425 538.835 188.149 538.483 189.58C538.13 191.011 537.954 191.735 537.954 191.751C537.954 191.851 538.021 191.91 538.155 191.926C538.289 191.943 538.6 191.968 539.087 192.001H539.717C539.817 192.117 539.868 192.192 539.868 192.226C539.868 192.259 539.842 192.409 539.792 192.675C539.742 192.875 539.691 192.999 539.641 193.049C539.591 193.099 539.481 193.133 539.314 193.149C539.28 193.149 539.188 193.149 539.037 193.149C538.885 193.149 538.6 193.141 538.18 193.124C537.761 193.108 537.24 193.099 536.619 193.099C535.444 193.099 534.697 193.116 534.378 193.149H534.176C534.059 193.033 534 192.941 534 192.875C534.034 192.425 534.143 192.134 534.327 192.001H534.831C535.402 191.984 535.729 191.885 535.813 191.702C535.864 191.602 536.376 189.613 537.349 185.736C538.323 181.859 538.835 179.804 538.885 179.571C538.902 179.488 538.911 179.372 538.911 179.222C538.911 178.54 538.701 178.198 538.281 178.198C537.912 178.198 537.601 178.431 537.349 178.897C537.097 179.363 536.904 179.871 536.77 180.42C536.636 180.969 536.535 181.268 536.468 181.318C536.434 181.352 536.3 181.368 536.065 181.368H535.712C535.612 181.268 535.561 181.194 535.561 181.144ZM539.465 185.761C539.834 187.026 540.455 187.658 541.328 187.658C541.832 187.658 542.319 187.467 542.789 187.084C543.259 186.701 543.645 186.219 543.947 185.636C544.249 185.071 544.552 184.172 544.854 182.941C545.156 181.709 545.315 180.794 545.332 180.195V180.045C545.332 178.814 544.82 178.198 543.796 178.198C543.611 178.198 543.427 178.223 543.242 178.273C543.057 178.323 542.873 178.398 542.688 178.498C542.503 178.598 542.336 178.706 542.184 178.822C542.033 178.939 541.891 179.064 541.756 179.197C541.622 179.33 541.496 179.455 541.379 179.571C541.261 179.688 541.169 179.804 541.102 179.921C541.034 180.037 540.967 180.12 540.9 180.17L540.825 180.27C540.825 180.287 540.799 180.403 540.749 180.62C540.699 180.836 540.606 181.202 540.472 181.718C540.338 182.234 540.22 182.666 540.119 183.016C539.683 184.779 539.465 185.695 539.465 185.761Z" fill="white"/>
<path d="M548.178 181.144C548.194 181.094 548.211 181.027 548.228 180.944C548.245 180.861 548.287 180.678 548.354 180.395C548.421 180.112 548.505 179.854 548.606 179.621C548.707 179.388 548.832 179.114 548.984 178.797C549.135 178.481 549.303 178.232 549.487 178.049C549.672 177.866 549.89 177.683 550.142 177.5C550.394 177.317 550.671 177.242 550.973 177.275C551.46 177.275 551.888 177.375 552.257 177.574C552.627 177.774 552.887 177.957 553.038 178.124C553.189 178.29 553.281 178.456 553.315 178.623C553.349 178.723 553.374 178.773 553.391 178.773C553.407 178.773 553.474 178.714 553.592 178.598C554.398 177.733 555.33 177.3 556.387 177.3H556.463C557.269 177.3 557.873 177.641 558.276 178.323C558.41 178.639 558.477 178.947 558.477 179.247C558.477 179.746 558.368 180.145 558.15 180.445C557.932 180.744 557.714 180.936 557.495 181.019C557.277 181.102 557.067 181.135 556.866 181.119C556.53 181.119 556.261 181.027 556.06 180.844C555.858 180.661 555.758 180.42 555.758 180.12C555.758 179.322 556.228 178.789 557.168 178.523C556.799 178.307 556.496 178.198 556.261 178.198C555.321 178.198 554.457 178.814 553.668 180.045C553.5 180.312 553.374 180.586 553.29 180.869C553.206 181.152 552.92 182.259 552.434 184.189C551.863 186.518 551.535 187.758 551.451 187.908C551.233 188.357 550.872 188.582 550.369 188.582C550.15 188.582 549.974 188.532 549.84 188.432C549.705 188.332 549.613 188.232 549.563 188.132C549.512 188.032 549.496 187.949 549.512 187.883C549.512 187.666 549.848 186.235 550.52 183.59C551.191 180.944 551.527 179.471 551.527 179.172C551.527 178.523 551.309 178.198 550.872 178.198C550.52 178.198 550.217 178.431 549.966 178.897C549.714 179.363 549.512 179.871 549.361 180.42C549.21 180.969 549.118 181.268 549.084 181.318C549.051 181.352 548.916 181.368 548.681 181.368H548.329C548.228 181.268 548.178 181.194 548.178 181.144Z" fill="white"/>
<path d="M560.014 184.114C560.014 183.165 560.173 182.3 560.492 181.518C560.811 180.736 561.222 180.087 561.726 179.571C562.23 179.055 562.792 178.623 563.413 178.273C564.035 177.924 564.622 177.666 565.176 177.5C565.73 177.333 566.259 177.258 566.763 177.275H566.838C567.594 177.275 568.248 177.458 568.802 177.824C569.356 178.19 569.633 178.731 569.633 179.446C569.633 180.944 568.702 181.926 566.838 182.392C566.016 182.608 564.891 182.724 563.464 182.741C562.843 182.741 562.524 182.758 562.507 182.791C562.507 182.824 562.456 183.115 562.356 183.665C562.255 184.214 562.196 184.696 562.179 185.112C562.179 185.894 562.356 186.51 562.708 186.959C563.061 187.408 563.59 187.641 564.295 187.658C565 187.675 565.781 187.517 566.637 187.184C567.493 186.851 568.265 186.302 568.954 185.537C569.105 185.37 569.205 185.287 569.256 185.287C569.323 185.287 569.432 185.362 569.583 185.512C569.734 185.661 569.818 185.778 569.835 185.861C569.852 185.944 569.776 186.077 569.608 186.26C569.44 186.443 569.189 186.668 568.853 186.934C568.517 187.2 568.131 187.458 567.694 187.708C567.258 187.958 566.729 188.166 566.108 188.332C565.487 188.498 564.849 188.582 564.194 188.582C562.868 188.582 561.844 188.141 561.122 187.259C560.4 186.377 560.03 185.329 560.014 184.114ZM568.425 179.496C568.324 178.631 567.753 178.198 566.712 178.198C566.158 178.198 565.646 178.315 565.176 178.548C564.706 178.781 564.328 179.064 564.043 179.397C563.757 179.729 563.514 180.07 563.313 180.42C563.111 180.769 562.977 181.069 562.91 181.318C562.843 181.568 562.801 181.726 562.784 181.793C562.784 181.809 562.952 181.818 563.287 181.818C565.185 181.818 566.511 181.618 567.266 181.219C568.022 180.819 568.408 180.245 568.425 179.496Z" fill="white"/>
<path d="M575.123 178.822C575.123 178.406 574.964 178.198 574.645 178.198C574.242 178.198 573.822 178.44 573.386 178.922C572.949 179.405 572.588 180.145 572.303 181.144C572.286 181.16 572.269 181.185 572.253 181.219C572.236 181.252 572.227 181.277 572.227 181.293C572.227 181.31 572.211 181.327 572.177 181.343C572.143 181.36 572.118 181.368 572.101 181.368C572.085 181.368 572.051 181.368 572.001 181.368C571.95 181.368 571.883 181.368 571.799 181.368H571.447C571.346 181.268 571.296 181.194 571.296 181.144C571.296 181.027 571.363 180.786 571.497 180.42C571.631 180.054 571.833 179.621 572.101 179.122C572.37 178.623 572.739 178.198 573.209 177.849C573.68 177.5 574.208 177.317 574.796 177.3C575.501 177.3 576.047 177.5 576.433 177.899C576.819 178.298 577.02 178.764 577.037 179.297C577.037 179.58 577.012 179.796 576.962 179.946C576.962 180.045 576.836 180.412 576.584 181.044C576.332 181.676 576.072 182.417 575.803 183.265C575.535 184.114 575.384 184.854 575.35 185.487C575.35 185.936 575.392 186.302 575.476 186.585C575.694 187.3 576.223 187.658 577.062 187.658C577.684 187.658 578.263 187.375 578.8 186.809C579.337 186.244 579.757 185.586 580.059 184.838C580.361 184.089 580.605 183.398 580.79 182.766C580.974 182.134 581.067 181.676 581.067 181.393C581.067 181.011 580.999 180.678 580.865 180.395C580.731 180.112 580.58 179.896 580.412 179.746C580.244 179.596 580.093 179.446 579.958 179.297C579.824 179.147 579.757 178.964 579.757 178.748C579.757 178.381 579.916 178.04 580.235 177.724C580.554 177.408 580.899 177.25 581.268 177.25C581.587 177.25 581.872 177.4 582.124 177.699C582.376 177.999 582.51 178.481 582.527 179.147C582.527 179.596 582.426 180.287 582.225 181.219C582.023 182.15 581.713 183.19 581.293 184.338C580.873 185.487 580.277 186.477 579.505 187.309C578.733 188.141 577.843 188.565 576.836 188.582C575.761 188.582 574.905 188.307 574.267 187.758C573.646 187.225 573.335 186.435 573.335 185.387C573.335 184.871 573.403 184.338 573.537 183.789C573.671 183.24 574.015 182.267 574.569 180.869C574.939 179.804 575.123 179.122 575.123 178.822Z" fill="white"/>
</g>
<defs>
<clipPath id="clip0_588_6570">
<rect width="700" height="290" fill="white" transform="translate(0 0.25)"/>
</clipPath>
<clipPath id="clip1_588_6570">
<rect width="1284" height="1284" fill="white" transform="translate(-292 -408.75)"/>
</clipPath>
</defs>
</svg>
