<svg width="700" height="291" viewBox="0 0 700 291" fill="none" xmlns="http://www.w3.org/2000/svg">
<g clip-path="url(#clip0_588_6700)">
<rect width="700" height="290" transform="translate(0 0.25)" fill="#0A0D12"/>
<g clip-path="url(#clip1_588_6700)">
<rect width="1284" height="1284" transform="translate(-292 -409.75)" fill="#0A0D12"/>
<g opacity="0.4">
<line x1="409.156" y1="-1051.75" x2="409.156" y2="1516.25" stroke="#67DBFF" stroke-width="0.917143"/>
<line x1="467.853" y1="-1051.75" x2="467.853" y2="1516.25" stroke="#67DBFF" stroke-width="0.917143"/>
<line x1="526.55" y1="-1051.75" x2="526.55" y2="1516.25" stroke="#67DBFF" stroke-width="0.917143"/>
<line x1="585.248" y1="-1051.75" x2="585.247" y2="1516.25" stroke="#67DBFF" stroke-width="0.917143"/>
<line x1="643.944" y1="-1051.75" x2="643.944" y2="1516.25" stroke="#67DBFF" stroke-width="0.917143"/>
<line x1="56.9732" y1="-1051.75" x2="56.973" y2="1516.25" stroke="#67DBFF" stroke-width="0.917143"/>
<line x1="115.67" y1="-1051.75" x2="115.669" y2="1516.25" stroke="#67DBFF" stroke-width="0.917143"/>
<line x1="174.367" y1="-1051.75" x2="174.367" y2="1516.25" stroke="#67DBFF" stroke-width="0.917143"/>
<line x1="233.064" y1="-1051.75" x2="233.064" y2="1516.25" stroke="#67DBFF" stroke-width="0.917143"/>
<line x1="291.761" y1="-1051.75" x2="291.761" y2="1516.25" stroke="#67DBFF" stroke-width="0.917143"/>
<line x1="-934" y1="173.094" x2="1634" y2="173.094" stroke="#67DBFF" stroke-width="0.917143"/>
<line x1="-934" y1="114.397" x2="1634" y2="114.397" stroke="#67DBFF" stroke-width="0.917143"/>
<line x1="-934" y1="55.7" x2="1634" y2="55.7" stroke="#67DBFF" stroke-width="0.917143"/>
<line x1="-934" y1="290.489" x2="1634" y2="290.489" stroke="#67DBFF" stroke-width="0.917143"/>
</g>
<line x1="350.459" y1="-1051.75" x2="350.458" y2="1516.25" stroke="#E6E6E6" stroke-width="0.917143"/>
<line x1="-934" y1="231.791" x2="1634" y2="231.791" stroke="#E6E6E6" stroke-width="0.917143"/>
<path d="M420.641 243.36L420.364 243.47C420.165 243.544 419.88 243.617 419.51 243.691C419.141 243.764 418.728 243.816 418.273 243.845H417.868V242.832H418.273C418.942 242.802 419.56 242.692 420.129 242.501C420.698 242.31 421.096 242.134 421.323 241.972C421.551 241.811 421.75 241.649 421.921 241.487C421.949 241.443 422.034 241.421 422.177 241.421C422.305 241.421 422.425 241.465 422.539 241.554V248.142L422.561 254.752C422.66 254.854 422.745 254.921 422.816 254.95C422.888 254.979 423.058 255.009 423.328 255.038C423.599 255.067 424.039 255.082 424.651 255.082H425.205V256.096H424.971C424.672 256.052 423.542 256.03 421.579 256.03C419.646 256.03 418.529 256.052 418.231 256.096H417.975V255.082H418.529C418.842 255.082 419.112 255.082 419.34 255.082C419.567 255.082 419.745 255.075 419.873 255.06C420.001 255.045 420.115 255.023 420.214 254.994C420.314 254.965 420.371 254.95 420.385 254.95C420.399 254.95 420.442 254.913 420.513 254.84C420.584 254.766 420.627 254.737 420.641 254.752V243.36Z" fill="#C4C4C4"/>
<path d="M360.11 180.995L359.832 181.105C359.633 181.178 359.349 181.252 358.979 181.325C358.61 181.399 358.197 181.45 357.742 181.479H357.337V180.466H357.742C358.41 180.436 359.029 180.326 359.598 180.135C360.167 179.944 360.565 179.768 360.792 179.607C361.02 179.445 361.219 179.283 361.389 179.122C361.418 179.078 361.503 179.056 361.645 179.056C361.773 179.056 361.894 179.1 362.008 179.188V185.776L362.029 192.386C362.129 192.489 362.214 192.555 362.285 192.584C362.356 192.614 362.527 192.643 362.797 192.672C363.067 192.702 363.508 192.716 364.12 192.716H364.674V193.73H364.439C364.141 193.686 363.01 193.664 361.048 193.664C359.114 193.664 357.998 193.686 357.7 193.73H357.444V192.716H357.998C358.311 192.716 358.581 192.716 358.809 192.716C359.036 192.716 359.214 192.709 359.342 192.694C359.47 192.68 359.584 192.658 359.683 192.628C359.783 192.599 359.84 192.584 359.854 192.584C359.868 192.584 359.911 192.547 359.982 192.474C360.053 192.401 360.095 192.371 360.11 192.386V180.995Z" fill="#C4C4C4"/>
<path d="M477.922 246.643C477.508 246.643 477.178 246.511 476.933 246.247C476.688 245.982 476.565 245.659 476.565 245.277C476.565 244.234 476.972 243.331 477.784 242.567C478.596 241.803 479.607 241.421 480.818 241.421C482.212 241.421 483.377 241.833 484.312 242.655C485.246 243.478 485.722 244.543 485.737 245.85C485.737 246.482 485.584 247.084 485.277 247.657C484.971 248.23 484.603 248.729 484.174 249.155C483.745 249.581 483.132 250.125 482.335 250.786C481.783 251.241 481.017 251.917 480.036 252.813L478.68 254.047L480.427 254.069C482.833 254.069 484.113 254.032 484.266 253.958C484.373 253.929 484.557 253.275 484.817 251.997V251.931H485.737V251.997C485.722 252.042 485.622 252.71 485.438 254.002C485.254 255.295 485.139 255.971 485.093 256.03V256.096H476.565V255.413C476.565 255.31 476.611 255.2 476.703 255.082C476.795 254.965 477.025 254.708 477.393 254.311C477.837 253.841 478.22 253.43 478.542 253.077C478.68 252.93 478.941 252.658 479.324 252.262C479.707 251.865 479.967 251.594 480.105 251.447C480.243 251.3 480.465 251.057 480.772 250.72C481.078 250.382 481.293 250.132 481.415 249.97C481.538 249.809 481.714 249.588 481.944 249.309C482.174 249.03 482.335 248.795 482.427 248.604C482.519 248.413 482.634 248.2 482.772 247.965C482.91 247.73 483.009 247.495 483.07 247.26C483.132 247.025 483.185 246.805 483.231 246.599C483.277 246.394 483.3 246.151 483.3 245.872C483.3 244.947 483.04 244.146 482.519 243.47C481.998 242.795 481.255 242.457 480.289 242.457C479.783 242.457 479.339 242.582 478.956 242.832C478.573 243.081 478.305 243.324 478.151 243.559C477.998 243.794 477.922 243.933 477.922 243.977C477.922 243.992 477.96 243.999 478.037 243.999C478.312 243.999 478.596 244.102 478.887 244.308C479.178 244.513 479.324 244.851 479.324 245.321C479.324 245.689 479.201 245.997 478.956 246.247C478.711 246.496 478.366 246.629 477.922 246.643Z" fill="#C4C4C4"/>
<path d="M358.693 125.581C358.279 125.581 357.95 125.448 357.705 125.184C357.46 124.92 357.337 124.596 357.337 124.214C357.337 123.172 357.743 122.268 358.555 121.504C359.367 120.741 360.379 120.359 361.589 120.359C362.984 120.359 364.148 120.77 365.083 121.593C366.018 122.415 366.493 123.48 366.508 124.787C366.508 125.419 366.355 126.021 366.049 126.594C365.742 127.167 365.374 127.666 364.945 128.092C364.516 128.518 363.903 129.062 363.106 129.723C362.555 130.178 361.789 130.854 360.808 131.75L359.452 132.984L361.199 133.006C363.604 133.006 364.884 132.969 365.037 132.896C365.145 132.866 365.328 132.213 365.589 130.935V130.869H366.508V130.935C366.493 130.979 366.393 131.647 366.21 132.94C366.026 134.232 365.911 134.908 365.865 134.967V135.033H357.337V134.35C357.337 134.247 357.383 134.137 357.475 134.019C357.567 133.902 357.797 133.645 358.164 133.248C358.609 132.778 358.992 132.367 359.314 132.014C359.452 131.867 359.712 131.596 360.095 131.199C360.478 130.803 360.739 130.531 360.877 130.384C361.015 130.237 361.237 129.995 361.543 129.657C361.85 129.319 362.064 129.069 362.187 128.908C362.31 128.746 362.486 128.526 362.716 128.247C362.946 127.968 363.106 127.733 363.198 127.542C363.29 127.351 363.405 127.138 363.543 126.903C363.681 126.668 363.781 126.433 363.842 126.198C363.903 125.962 363.957 125.742 364.003 125.537C364.049 125.331 364.072 125.088 364.072 124.809C364.072 123.884 363.811 123.083 363.29 122.408C362.769 121.732 362.026 121.394 361.061 121.394C360.555 121.394 360.111 121.519 359.727 121.769C359.344 122.018 359.076 122.261 358.923 122.496C358.77 122.731 358.693 122.87 358.693 122.915C358.693 122.929 358.731 122.937 358.808 122.937C359.084 122.937 359.367 123.039 359.659 123.245C359.95 123.451 360.095 123.789 360.095 124.259C360.095 124.626 359.973 124.934 359.727 125.184C359.482 125.434 359.137 125.566 358.693 125.581Z" fill="#C4C4C4"/>
<path d="M537.141 245.736C536.743 245.736 536.434 245.615 536.213 245.373C535.992 245.131 535.874 244.818 535.859 244.433C535.859 243.65 536.213 242.952 536.92 242.34C537.627 241.728 538.482 241.421 539.484 241.421C539.999 241.421 540.324 241.429 540.456 241.443C541.546 241.614 542.379 241.991 542.953 242.575C543.528 243.159 543.823 243.792 543.837 244.476C543.837 245.216 543.587 245.935 543.086 246.633C542.585 247.331 541.893 247.836 541.009 248.15L540.942 248.192C540.942 248.207 541.009 248.228 541.141 248.257C541.274 248.285 541.487 248.349 541.782 248.449C542.077 248.548 542.357 248.698 542.622 248.897C543.83 249.652 544.434 250.649 544.434 251.888C544.434 253.013 543.977 253.995 543.064 254.835C542.15 255.676 540.994 256.096 539.594 256.096C538.416 256.096 537.399 255.79 536.544 255.177C535.69 254.565 535.263 253.789 535.263 252.849C535.263 252.45 535.395 252.13 535.66 251.888C535.926 251.646 536.257 251.518 536.655 251.503C537.068 251.503 537.406 251.631 537.672 251.888C537.937 252.144 538.069 252.464 538.069 252.849C538.069 253.006 538.047 253.148 538.003 253.276C537.959 253.404 537.907 253.518 537.848 253.618C537.789 253.718 537.708 253.803 537.605 253.874C537.502 253.945 537.414 254.002 537.34 254.045C537.266 254.088 537.193 254.116 537.119 254.131C537.045 254.145 536.986 254.166 536.942 254.195L536.854 254.216C537.605 254.857 538.519 255.177 539.594 255.177C540.405 255.177 541.016 254.8 541.429 254.045C541.679 253.575 541.804 252.856 541.804 251.888V251.461C541.804 250.108 541.333 249.204 540.39 248.748C540.169 248.662 539.719 248.613 539.042 248.598L538.114 248.577L538.047 248.534C538.018 248.492 538.003 248.378 538.003 248.192C538.003 247.936 538.062 247.808 538.18 247.808C538.592 247.808 539.02 247.772 539.462 247.701C539.963 247.63 540.419 247.331 540.832 246.804C541.244 246.277 541.451 245.48 541.451 244.412V244.241C541.451 243.429 541.193 242.867 540.677 242.553C540.353 242.354 540.007 242.254 539.638 242.254C539.167 242.254 538.732 242.333 538.335 242.489C537.937 242.646 537.657 242.81 537.495 242.981C537.333 243.152 537.252 243.237 537.252 243.237H537.318C537.362 243.251 537.421 243.265 537.495 243.28C537.568 243.294 537.642 243.33 537.716 243.387C537.789 243.443 537.878 243.493 537.981 243.536C538.084 243.579 538.158 243.657 538.202 243.771C538.246 243.885 538.305 243.992 538.379 244.091C538.452 244.191 538.475 244.333 538.445 244.519C538.445 244.832 538.342 245.11 538.136 245.352C537.929 245.594 537.598 245.722 537.141 245.736Z" fill="#C4C4C4"/>
<path d="M602.945 255.437C602.697 255.396 601.806 255.375 600.274 255.375C598.673 255.375 597.749 255.396 597.5 255.437H597.314V254.485H597.956C598.232 254.485 598.418 254.485 598.515 254.485C598.611 254.485 598.729 254.471 598.867 254.444C599.005 254.416 599.101 254.381 599.156 254.34C599.212 254.299 599.26 254.243 599.301 254.174C599.315 254.147 599.322 253.774 599.322 253.056V252.021H593.96V251.069L597.086 246.287C599.198 243.085 600.267 241.477 600.295 241.463C600.323 241.435 600.468 241.421 600.73 241.421H601.102L601.227 241.546V251.069H603.131V252.021H601.227V253.077C601.227 253.643 601.227 253.974 601.227 254.071C601.227 254.168 601.268 254.25 601.351 254.319C601.461 254.416 601.855 254.471 602.531 254.485H603.131V255.437H602.945ZM599.446 251.069V244.154L594.912 251.048L597.169 251.069H599.446Z" fill="#C4C4C4"/>
<path d="M366.322 16.9803C366.074 16.9389 365.183 16.9182 363.651 16.9182C362.05 16.9182 361.126 16.9389 360.877 16.9803H360.691V16.0279H361.333C361.609 16.0279 361.795 16.0279 361.892 16.0279C361.988 16.0279 362.106 16.0141 362.244 15.9865C362.382 15.9589 362.478 15.9244 362.533 15.883C362.589 15.8416 362.637 15.7864 362.678 15.7174C362.692 15.6898 362.699 15.3171 362.699 14.5994V13.5643H357.337V12.612L360.463 7.82956C362.575 4.6275 363.644 3.01956 363.672 3.00576C363.7 2.97816 363.845 2.96436 364.107 2.96436H364.479L364.604 3.08857V12.612H366.508V13.5643H364.604V14.6201C364.604 15.186 364.604 15.5173 364.604 15.6139C364.604 15.7105 364.645 15.7933 364.728 15.8623C364.838 15.9589 365.232 16.0141 365.908 16.0279H366.508V16.9803H366.322ZM362.823 12.612V5.69715L358.289 12.5913L360.546 12.612H362.823Z" fill="#C4C4C4"/>
<path d="M653.443 252.278C653.443 252.619 653.32 252.903 653.075 253.131C652.83 253.358 652.531 253.472 652.178 253.472H652.018C652.722 254.596 653.657 255.157 654.822 255.157C655.895 255.157 656.676 254.731 657.166 253.877C657.458 253.408 657.603 252.498 657.603 251.147C657.603 249.683 657.396 248.695 656.983 248.183C656.584 247.713 656.14 247.479 655.649 247.479H655.511C654.316 247.479 653.412 247.962 652.799 248.929C652.738 249.029 652.684 249.086 652.638 249.1C652.592 249.114 652.477 249.128 652.293 249.142C652.033 249.142 651.887 249.1 651.857 249.014C651.826 248.958 651.811 247.713 651.811 245.282V242.53C651.811 241.82 651.849 241.464 651.926 241.464C651.956 241.436 651.987 241.421 652.018 241.421C652.033 241.421 652.194 241.478 652.5 241.592C652.807 241.706 653.228 241.82 653.764 241.933C654.301 242.047 654.875 242.104 655.488 242.104C656.576 242.104 657.618 241.905 658.615 241.507C658.737 241.45 658.837 241.421 658.913 241.421C659.036 241.421 659.097 241.549 659.097 241.805V242.083C657.841 243.462 656.27 244.151 654.385 244.151C653.91 244.151 653.481 244.109 653.098 244.024L652.868 243.981V247.649C653.159 247.45 653.389 247.294 653.558 247.18C653.726 247.066 654.002 246.953 654.385 246.839C654.768 246.725 655.159 246.668 655.557 246.668C656.799 246.668 657.848 247.13 658.706 248.055C659.565 248.979 659.994 250.074 659.994 251.339C659.994 252.647 659.503 253.764 658.523 254.688C657.542 255.612 656.347 256.081 654.937 256.096C653.696 256.096 652.699 255.712 651.949 254.944C651.198 254.176 650.822 253.309 650.822 252.342C650.822 252.001 650.907 251.73 651.075 251.531C651.244 251.332 651.42 251.204 651.604 251.147C651.788 251.09 651.964 251.062 652.132 251.062C652.516 251.062 652.83 251.183 653.075 251.425C653.32 251.666 653.443 251.951 653.443 252.278Z" fill="#C4C4C4"/>
<path d="M120.714 250.959C120.714 250.959 120.714 250.865 120.714 250.677C120.714 250.489 120.809 250.344 121 250.243H132.893C133.097 250.359 133.2 250.503 133.2 250.677C133.2 250.85 133.097 250.995 132.893 251.11H121C120.809 251.009 120.714 250.865 120.714 250.677V250.959Z" fill="#C4C4C4"/>
<path d="M144.375 256.096C144.13 256.052 143.25 256.031 141.735 256.031C140.152 256.031 139.238 256.052 138.992 256.096H138.808V255.099H139.442C139.715 255.099 139.9 255.099 139.995 255.099C140.091 255.099 140.207 255.084 140.343 255.055C140.48 255.026 140.575 254.99 140.63 254.947C140.684 254.904 140.732 254.846 140.773 254.773C140.787 254.745 140.793 254.354 140.793 253.603V252.519H135.492V251.522L138.583 246.515C140.671 243.163 141.728 241.479 141.755 241.465C141.783 241.436 141.926 241.421 142.185 241.421H142.554L142.676 241.551V251.522H144.56V252.519H142.676V253.625C142.676 254.217 142.676 254.564 142.676 254.665C142.676 254.766 142.717 254.853 142.799 254.925C142.908 255.026 143.297 255.084 143.966 255.099H144.56V256.096H144.375ZM140.916 251.522V244.283L136.434 251.5L138.665 251.522H140.916Z" fill="#C4C4C4"/>
<path d="M62.0176 250.571C62.0176 250.571 62.0176 250.479 62.0176 250.294C62.0176 250.109 62.1149 249.967 62.3097 249.868H74.4307C74.6393 249.981 74.7436 250.124 74.7436 250.294C74.7436 250.465 74.6393 250.607 74.4307 250.721H62.3097C62.1149 250.621 62.0176 250.479 62.0176 250.294V250.571Z" fill="#C4C4C4"/>
<path d="M79.9175 252.278C79.9175 252.619 79.8062 252.903 79.5837 253.131C79.3612 253.358 79.09 253.472 78.7701 253.472H78.624C79.2638 254.596 80.1122 255.157 81.1693 255.157C82.1428 255.157 82.8522 254.731 83.2972 253.877C83.5615 253.408 83.6936 252.498 83.6936 251.147C83.6936 249.683 83.5058 248.695 83.1303 248.183C82.7687 247.713 82.3654 247.479 81.9203 247.479H81.7951C80.7103 247.479 79.8897 247.962 79.3334 248.929C79.2777 249.029 79.2291 249.086 79.1873 249.1C79.1456 249.114 79.0413 249.128 78.8744 249.142C78.638 249.142 78.5058 249.1 78.478 249.014C78.4502 248.958 78.4363 247.713 78.4363 245.282V242.53C78.4363 241.82 78.4711 241.464 78.5406 241.464C78.5684 241.436 78.5962 241.421 78.624 241.421C78.638 241.421 78.784 241.478 79.0622 241.592C79.3403 241.706 79.7228 241.82 80.2096 241.933C80.6964 242.047 81.2179 242.104 81.7743 242.104C82.7618 242.104 83.7075 241.905 84.6115 241.507C84.7228 241.45 84.8132 241.421 84.8828 241.421C84.994 241.421 85.0497 241.549 85.0497 241.805V242.083C83.9092 243.462 82.4836 244.151 80.7729 244.151C80.3417 244.151 79.9523 244.109 79.6046 244.024L79.396 243.981V247.649C79.6602 247.45 79.8688 247.294 80.0218 247.18C80.1748 247.066 80.4252 246.953 80.7729 246.839C81.1206 246.725 81.4752 246.668 81.8369 246.668C82.9634 246.668 83.9161 247.13 84.695 248.055C85.4739 248.979 85.8633 250.074 85.8633 251.339C85.8633 252.647 85.4182 253.764 84.5281 254.688C83.638 255.612 82.5531 256.081 81.2736 256.096C80.147 256.096 79.243 255.712 78.5615 254.944C77.8799 254.176 77.5392 253.309 77.5392 252.342C77.5392 252.001 77.6157 251.73 77.7687 251.531C77.9217 251.332 78.0816 251.204 78.2485 251.147C78.4154 251.09 78.5754 251.062 78.7284 251.062C79.0761 251.062 79.3612 251.183 79.5837 251.425C79.8062 251.666 79.9175 251.951 79.9175 252.278Z" fill="#C4C4C4"/>
<path d="M3.31836 250.571C3.31836 250.571 3.31836 250.479 3.31836 250.294C3.31836 250.109 3.42257 249.967 3.63099 249.868H16.605C16.8283 249.981 16.9399 250.124 16.9399 250.294C16.9399 250.465 16.8283 250.607 16.605 250.721H3.63099C3.42257 250.621 3.31836 250.479 3.31836 250.294V250.571Z" fill="#C4C4C4"/>
<path d="M19.7536 248.95C19.7536 246.633 20.3565 244.798 21.5623 243.448C22.7682 242.097 24.108 241.421 25.5818 241.421C26.609 241.421 27.3459 241.677 27.7925 242.189C28.2391 242.701 28.4624 243.27 28.4624 243.896C28.4624 244.251 28.3582 244.535 28.1498 244.749C27.9414 244.962 27.6511 245.069 27.2789 245.069C26.9365 245.069 26.6537 244.969 26.4304 244.77C26.2071 244.571 26.0954 244.294 26.0954 243.938C26.0954 243.313 26.4452 242.936 27.1449 242.808C26.8174 242.495 26.3559 242.317 25.7604 242.275C24.7035 242.275 23.8326 242.701 23.1478 243.554C22.4481 244.493 22.0983 245.929 22.0983 247.863L22.1206 247.948C22.195 247.863 22.2546 247.77 22.2992 247.671C22.9096 246.818 23.706 246.391 24.6886 246.391H24.7779C25.4627 246.391 26.0656 246.526 26.5867 246.796C26.944 246.995 27.3012 247.28 27.6585 247.649C28.0158 248.019 28.3061 248.424 28.5294 248.865C28.842 249.562 28.9984 250.323 28.9984 251.147V251.531C28.9984 251.858 28.9611 252.164 28.8867 252.448C28.723 253.287 28.2466 254.105 27.4576 254.901C26.6686 255.698 25.6711 256.096 24.4653 256.096C24.0484 256.096 23.6465 256.039 23.2594 255.925C22.8724 255.811 22.4555 255.598 22.0089 255.285C21.5623 254.972 21.1827 254.553 20.8701 254.027C20.5575 253.501 20.2895 252.811 20.0662 251.958C19.8429 251.105 19.7387 250.102 19.7536 248.95ZM24.5546 247.159C24.108 247.159 23.7209 247.28 23.3934 247.521C23.0659 247.763 22.8128 248.083 22.6342 248.481C22.4555 248.879 22.329 249.285 22.2546 249.697C22.1801 250.109 22.1355 250.55 22.1206 251.019C22.1206 252.2 22.2099 253.046 22.3886 253.558C22.5672 254.069 22.85 254.482 23.2371 254.795C23.5944 255.051 23.9889 255.179 24.4206 255.179C25.1799 255.179 25.7604 254.908 26.1624 254.368C26.3559 254.112 26.4899 253.792 26.5643 253.408C26.6388 253.024 26.676 252.278 26.676 251.169C26.676 250.031 26.6388 249.27 26.5643 248.887C26.4899 248.503 26.3559 248.183 26.1624 247.927C25.7604 247.415 25.2245 247.159 24.5546 247.159Z" fill="#C4C4C4"/>
<path d="M359.215 65.9762C358.818 65.9762 358.508 65.8552 358.287 65.6131C358.066 65.371 357.948 65.0577 357.934 64.6733C357.934 63.8901 358.287 63.1923 358.994 62.58C359.702 61.9677 360.556 61.6615 361.558 61.6615C362.074 61.6615 362.398 61.6686 362.53 61.6829C363.621 61.8537 364.453 62.2311 365.028 62.8149C365.602 63.3988 365.897 64.0325 365.912 64.716C365.912 65.4565 365.661 66.1756 365.16 66.8733C364.659 67.5711 363.967 68.0766 363.083 68.3899L363.017 68.4326C363.017 68.4468 363.083 68.4682 363.215 68.4967C363.348 68.5252 363.562 68.5892 363.856 68.6889C364.151 68.7886 364.431 68.9381 364.696 69.1375C365.904 69.8922 366.508 70.889 366.508 72.1279C366.508 73.2528 366.052 74.2354 365.138 75.0755C364.225 75.9157 363.068 76.3358 361.668 76.3358C360.49 76.3358 359.473 76.0296 358.619 75.4173C357.764 74.805 357.337 74.0289 357.337 73.0891C357.337 72.6904 357.47 72.37 357.735 72.1279C358 71.8858 358.331 71.7576 358.729 71.7434C359.142 71.7434 359.481 71.8716 359.746 72.1279C360.011 72.3842 360.144 72.7046 360.144 73.0891C360.144 73.2457 360.121 73.3881 360.077 73.5163C360.033 73.6444 359.982 73.7584 359.923 73.858C359.864 73.9577 359.783 74.0431 359.679 74.1143C359.576 74.1855 359.488 74.2425 359.414 74.2852C359.341 74.3279 359.267 74.3564 359.193 74.3707C359.12 74.3849 359.061 74.4063 359.017 74.4347L358.928 74.4561C359.679 75.0969 360.593 75.4173 361.668 75.4173C362.479 75.4173 363.09 75.0399 363.503 74.2852C363.753 73.8153 363.878 73.0962 363.878 72.1279V71.7007C363.878 70.3479 363.407 69.4436 362.464 68.988C362.243 68.9025 361.794 68.8527 361.116 68.8384L360.188 68.8171L360.121 68.7744C360.092 68.7316 360.077 68.6177 360.077 68.4326C360.077 68.1763 360.136 68.0481 360.254 68.0481C360.667 68.0481 361.094 68.0125 361.536 67.9413C362.037 67.8701 362.494 67.5711 362.906 67.0442C363.319 66.5173 363.525 65.7199 363.525 64.6519V64.481C363.525 63.6693 363.267 63.1069 362.751 62.7936C362.427 62.5942 362.081 62.4945 361.713 62.4945C361.241 62.4945 360.807 62.5729 360.409 62.7295C360.011 62.8861 359.731 63.0499 359.569 63.2208C359.407 63.3917 359.326 63.4771 359.326 63.4771H359.392C359.436 63.4913 359.495 63.5056 359.569 63.5198C359.643 63.5341 359.716 63.5697 359.79 63.6266C359.864 63.6836 359.952 63.7334 360.055 63.7761C360.158 63.8189 360.232 63.8972 360.276 64.0111C360.32 64.125 360.379 64.2318 360.453 64.3315C360.527 64.4312 360.549 64.5736 360.519 64.7587C360.519 65.072 360.416 65.3497 360.21 65.5917C360.004 65.8338 359.672 65.962 359.215 65.9762Z" fill="#C4C4C4"/>
<path d="M358.579 243.149C359.392 241.997 360.503 241.421 361.912 241.421C362.609 241.421 363.306 241.606 364.003 241.976C364.7 242.346 365.267 243 365.702 243.938C366.24 245.118 366.508 246.739 366.508 248.801C366.508 251.005 366.196 252.69 365.572 253.856C365.281 254.453 364.882 254.93 364.373 255.285C363.865 255.641 363.422 255.861 363.045 255.946C362.667 256.032 362.297 256.081 361.934 256.096C361.556 256.096 361.178 256.053 360.801 255.968C360.423 255.882 359.98 255.655 359.472 255.285C358.964 254.915 358.564 254.439 358.274 253.856C357.649 252.69 357.337 251.005 357.337 248.801C357.337 246.327 357.751 244.443 358.579 243.149ZM363.48 242.893C363.045 242.438 362.529 242.211 361.934 242.211C361.324 242.211 360.801 242.438 360.365 242.893C360.002 243.263 359.762 243.775 359.646 244.429C359.53 245.083 359.472 246.448 359.472 248.524C359.472 250.771 359.53 252.249 359.646 252.96C359.762 253.671 360.024 254.233 360.43 254.645C360.837 255.072 361.338 255.285 361.934 255.285C362.514 255.285 363.008 255.072 363.415 254.645C363.836 254.219 364.097 253.622 364.199 252.854C364.301 252.086 364.359 250.643 364.373 248.524C364.373 246.462 364.315 245.104 364.199 244.45C364.083 243.796 363.843 243.277 363.48 242.893Z" fill="#C4C4C4"/>
<path d="M296.806 250.874C296.806 250.874 296.806 250.778 296.806 250.587C296.806 250.396 296.905 250.249 297.103 250.147H309.462C309.675 250.264 309.781 250.411 309.781 250.587C309.781 250.764 309.675 250.91 309.462 251.028H297.103C296.905 250.925 296.806 250.778 296.806 250.587V250.874Z" fill="#C4C4C4"/>
<path d="M316.099 243.36L315.823 243.47C315.624 243.544 315.341 243.617 314.972 243.691C314.603 243.764 314.192 243.816 313.738 243.845H313.334V242.832H313.738C314.405 242.802 315.021 242.692 315.589 242.501C316.156 242.31 316.553 242.134 316.78 241.972C317.007 241.811 317.205 241.649 317.376 241.487C317.404 241.443 317.489 241.421 317.631 241.421C317.758 241.421 317.879 241.465 317.992 241.554V248.142L318.014 254.752C318.113 254.854 318.198 254.921 318.269 254.95C318.34 254.979 318.51 255.009 318.779 255.038C319.049 255.067 319.489 255.082 320.098 255.082H320.651V256.096H320.417C320.12 256.052 318.992 256.03 317.035 256.03C315.107 256.03 313.993 256.052 313.695 256.096H313.44V255.082H313.993C314.305 255.082 314.575 255.082 314.802 255.082C315.029 255.082 315.206 255.075 315.333 255.06C315.461 255.045 315.575 255.023 315.674 254.994C315.773 254.965 315.83 254.95 315.844 254.95C315.858 254.95 315.901 254.913 315.972 254.84C316.042 254.766 316.085 254.737 316.099 254.752V243.36Z" fill="#C4C4C4"/>
<path d="M238.108 250.874C238.108 250.874 238.108 250.778 238.108 250.587C238.108 250.396 238.206 250.249 238.4 250.147H250.522C250.73 250.264 250.834 250.411 250.834 250.587C250.834 250.764 250.73 250.91 250.522 251.028H238.4C238.206 250.925 238.108 250.778 238.108 250.587V250.874Z" fill="#C4C4C4"/>
<path d="M254.861 246.643C254.485 246.643 254.186 246.511 253.964 246.247C253.741 245.982 253.63 245.659 253.63 245.277C253.63 244.234 253.999 243.331 254.736 242.567C255.473 241.803 256.391 241.421 257.49 241.421C258.755 241.421 259.812 241.833 260.661 242.655C261.509 243.478 261.94 244.543 261.954 245.85C261.954 246.482 261.815 247.084 261.537 247.657C261.259 248.23 260.925 248.729 260.535 249.155C260.146 249.581 259.59 250.125 258.866 250.786C258.366 251.241 257.67 251.917 256.78 252.813L255.549 254.047L257.135 254.069C259.318 254.069 260.48 254.032 260.619 253.958C260.716 253.929 260.883 253.275 261.12 251.997V251.931H261.954V251.997C261.94 252.042 261.85 252.71 261.683 254.002C261.516 255.295 261.412 255.971 261.37 256.03V256.096H253.63V255.413C253.63 255.31 253.672 255.2 253.755 255.082C253.839 254.965 254.047 254.708 254.381 254.311C254.784 253.841 255.132 253.43 255.424 253.077C255.549 252.93 255.786 252.658 256.134 252.262C256.481 251.865 256.718 251.594 256.843 251.447C256.968 251.3 257.17 251.057 257.448 250.72C257.726 250.382 257.921 250.132 258.032 249.97C258.143 249.809 258.303 249.588 258.512 249.309C258.72 249.03 258.866 248.795 258.95 248.604C259.033 248.413 259.138 248.2 259.263 247.965C259.388 247.73 259.478 247.495 259.534 247.26C259.59 247.025 259.638 246.805 259.68 246.599C259.722 246.394 259.743 246.151 259.743 245.872C259.743 244.947 259.506 244.146 259.033 243.47C258.56 242.795 257.886 242.457 257.01 242.457C256.551 242.457 256.147 242.582 255.8 242.832C255.452 243.081 255.209 243.324 255.07 243.559C254.93 243.794 254.861 243.933 254.861 243.977C254.861 243.992 254.896 243.999 254.965 243.999C255.216 243.999 255.473 244.102 255.737 244.308C256.001 244.513 256.134 244.851 256.134 245.321C256.134 245.689 256.022 245.997 255.8 246.247C255.577 246.496 255.264 246.629 254.861 246.643Z" fill="#C4C4C4"/>
<path d="M179.411 250.563C179.411 250.563 179.411 250.471 179.411 250.286C179.411 250.101 179.508 249.958 179.701 249.859H191.738C191.945 249.972 192.049 250.115 192.049 250.286C192.049 250.457 191.945 250.599 191.738 250.713H179.701C179.508 250.613 179.411 250.471 179.411 250.286V250.563Z" fill="#C4C4C4"/>
<path d="M196.42 245.736C196.047 245.736 195.757 245.615 195.55 245.373C195.343 245.131 195.232 244.818 195.218 244.433C195.218 243.65 195.55 242.952 196.213 242.34C196.876 241.728 197.677 241.421 198.616 241.421C199.1 241.421 199.403 241.429 199.528 241.443C200.55 241.614 201.33 241.991 201.869 242.575C202.407 243.159 202.684 243.792 202.697 244.476C202.697 245.216 202.463 245.935 201.993 246.633C201.523 247.331 200.874 247.836 200.046 248.15L199.984 248.192C199.984 248.207 200.046 248.228 200.17 248.257C200.294 248.285 200.495 248.349 200.771 248.449C201.047 248.548 201.309 248.698 201.558 248.897C202.691 249.652 203.257 250.649 203.257 251.888C203.257 253.013 202.829 253.995 201.972 254.835C201.116 255.676 200.032 256.096 198.72 256.096C197.615 256.096 196.662 255.79 195.861 255.177C195.06 254.565 194.659 253.789 194.659 252.849C194.659 252.45 194.783 252.13 195.032 251.888C195.281 251.646 195.591 251.518 195.964 251.503C196.351 251.503 196.669 251.631 196.917 251.888C197.166 252.144 197.29 252.464 197.29 252.849C197.29 253.006 197.27 253.148 197.228 253.276C197.187 253.404 197.138 253.518 197.083 253.618C197.028 253.718 196.952 253.803 196.855 253.874C196.758 253.945 196.676 254.002 196.607 254.045C196.538 254.088 196.468 254.116 196.399 254.131C196.33 254.145 196.275 254.166 196.234 254.195L196.151 254.216C196.855 254.857 197.711 255.177 198.72 255.177C199.479 255.177 200.053 254.8 200.439 254.045C200.674 253.575 200.791 252.856 200.791 251.888V251.461C200.791 250.108 200.35 249.204 199.466 248.748C199.258 248.662 198.837 248.613 198.202 248.598L197.332 248.577L197.27 248.534C197.242 248.492 197.228 248.378 197.228 248.192C197.228 247.936 197.283 247.808 197.394 247.808C197.781 247.808 198.181 247.772 198.595 247.701C199.065 247.63 199.493 247.331 199.88 246.804C200.267 246.277 200.46 245.48 200.46 244.412V244.241C200.46 243.429 200.218 242.867 199.735 242.553C199.431 242.354 199.106 242.254 198.761 242.254C198.319 242.254 197.912 242.333 197.539 242.489C197.166 242.646 196.904 242.81 196.752 242.981C196.6 243.152 196.524 243.237 196.524 243.237H196.586C196.627 243.251 196.683 243.265 196.752 243.28C196.821 243.294 196.89 243.33 196.959 243.387C197.028 243.443 197.111 243.493 197.207 243.536C197.304 243.579 197.373 243.657 197.415 243.771C197.456 243.885 197.511 243.992 197.58 244.091C197.649 244.191 197.67 244.333 197.642 244.519C197.642 244.832 197.546 245.11 197.352 245.352C197.159 245.594 196.848 245.722 196.42 245.736Z" fill="#C4C4C4"/>
</g>
<path d="M485 74.25L526.5 115.75" stroke="white" stroke-width="2"/>
<circle cx="527" cy="115.25" r="4" fill="#EB5757"/>
<circle cx="485" cy="74.25" r="4" fill="#20C831"/>
<path d="M534 124.745C534 122.823 534.712 121.094 536.135 119.56C537.558 118.025 539.097 117.258 540.752 117.258C541.679 117.258 542.407 117.47 542.937 117.893C543.466 118.316 543.74 118.872 543.756 119.56C543.756 120.071 543.599 120.503 543.284 120.856C542.97 121.209 542.573 121.394 542.093 121.412C541.778 121.412 541.53 121.324 541.348 121.147C541.166 120.971 541.075 120.706 541.075 120.354C541.075 120.001 541.166 119.701 541.348 119.454C541.53 119.207 541.712 119.022 541.894 118.898C542.076 118.775 542.192 118.722 542.242 118.74H542.267C542.267 118.704 542.217 118.652 542.118 118.581C542.018 118.51 541.845 118.44 541.596 118.369C541.348 118.299 541.067 118.263 540.752 118.263C540.256 118.263 539.784 118.387 539.337 118.634C538.99 118.793 538.634 119.066 538.27 119.454C537.542 120.23 537.012 121.324 536.681 122.735C536.35 124.146 536.176 125.169 536.16 125.804C536.16 126.615 536.375 127.223 536.805 127.629C537.169 128.052 537.649 128.264 538.245 128.264H538.344C540.198 128.264 541.729 127.514 542.937 126.015C543.086 125.839 543.185 125.751 543.235 125.751C543.301 125.751 543.409 125.83 543.557 125.989C543.706 126.148 543.789 126.271 543.806 126.359C543.822 126.447 543.748 126.58 543.582 126.756C543.417 126.932 543.177 127.179 542.862 127.497C542.548 127.814 542.176 128.079 541.745 128.291C541.315 128.502 540.785 128.723 540.157 128.952C539.528 129.181 538.866 129.278 538.171 129.243C536.929 129.243 535.928 128.82 535.167 127.973C534.405 127.126 534.017 126.051 534 124.745Z" fill="white"/>
<path d="M544.426 121.359C544.426 121.218 544.501 120.944 544.65 120.539C544.799 120.133 545.006 119.675 545.27 119.163C545.535 118.652 545.899 118.211 546.363 117.84C546.826 117.47 547.314 117.276 547.827 117.258C548.589 117.258 549.16 117.479 549.54 117.92C549.921 118.36 550.111 118.881 550.111 119.48C550.111 119.798 549.83 120.786 549.267 122.444C548.704 124.102 548.423 125.345 548.423 126.174C548.423 126.932 548.539 127.462 548.771 127.761C549.002 128.061 549.35 128.22 549.813 128.238C550.277 128.255 550.715 128.105 551.129 127.788C551.543 127.47 551.849 127.171 552.047 126.888L552.321 126.439C552.354 126.368 552.668 125.028 553.264 122.417C553.76 120.301 554.058 119.066 554.158 118.713C554.257 118.36 554.373 118.105 554.505 117.946C554.786 117.681 555.084 117.549 555.399 117.549C555.68 117.549 555.887 117.637 556.019 117.814C556.152 117.99 556.218 118.158 556.218 118.316L554.331 126.73C554.315 126.818 554.307 126.959 554.307 127.153C554.307 127.594 554.364 127.885 554.48 128.026C554.596 128.167 554.77 128.246 555.002 128.264C555.366 128.211 555.655 127.938 555.87 127.444C556.086 126.95 556.334 126.174 556.615 125.116C556.648 124.975 556.814 124.904 557.112 124.904C557.426 124.904 557.583 124.983 557.583 125.142C557.567 125.23 557.55 125.354 557.534 125.513C557.517 125.671 557.443 125.954 557.31 126.359C557.178 126.765 557.037 127.144 556.888 127.497C556.739 127.85 556.532 128.185 556.268 128.502C556.003 128.82 555.705 129.04 555.374 129.164C555.242 129.199 555.043 129.216 554.778 129.216C553.686 129.216 552.933 128.723 552.519 127.735C552.486 127.753 552.395 127.841 552.246 127.999C552.097 128.158 551.948 128.291 551.799 128.396C551.65 128.502 551.468 128.634 551.253 128.793C551.038 128.952 550.798 129.058 550.533 129.111C550.268 129.164 549.987 129.208 549.689 129.243C548.961 129.243 548.316 129.084 547.753 128.767C546.892 128.22 546.462 127.285 546.462 125.962C546.462 124.957 546.752 123.643 547.331 122.02C547.91 120.398 548.2 119.366 548.2 118.925C548.2 118.907 548.2 118.89 548.2 118.872C548.2 118.713 548.2 118.607 548.2 118.555C548.2 118.502 548.167 118.44 548.1 118.369C548.034 118.299 547.943 118.263 547.827 118.263H547.728C547.347 118.263 547 118.431 546.685 118.766C546.371 119.101 546.123 119.463 545.941 119.851C545.759 120.239 545.618 120.609 545.519 120.962C545.419 121.315 545.353 121.509 545.32 121.544C545.287 121.579 545.155 121.597 544.923 121.597H544.575C544.476 121.491 544.426 121.412 544.426 121.359Z" fill="white"/>
<path d="M558.651 121.359C558.667 121.306 558.684 121.235 558.7 121.147C558.717 121.059 558.758 120.865 558.825 120.565C558.891 120.265 558.974 119.992 559.073 119.745C559.172 119.498 559.296 119.207 559.445 118.872C559.594 118.537 559.76 118.272 559.942 118.078C560.124 117.884 560.339 117.69 560.587 117.496C560.835 117.302 561.108 117.223 561.406 117.258C561.886 117.258 562.308 117.364 562.672 117.576C563.037 117.787 563.293 117.981 563.442 118.158C563.591 118.334 563.682 118.51 563.715 118.687C563.748 118.793 563.773 118.846 563.79 118.846C563.806 118.846 563.872 118.784 563.988 118.66C564.783 117.743 565.701 117.285 566.744 117.285H566.818C567.613 117.285 568.208 117.646 568.606 118.369C568.738 118.704 568.804 119.031 568.804 119.348C568.804 119.877 568.697 120.301 568.481 120.618C568.266 120.936 568.051 121.138 567.836 121.227C567.621 121.315 567.414 121.35 567.215 121.332C566.884 121.332 566.62 121.235 566.421 121.041C566.222 120.847 566.123 120.592 566.123 120.274C566.123 119.428 566.586 118.863 567.513 118.581C567.149 118.352 566.851 118.237 566.62 118.237C565.693 118.237 564.84 118.89 564.063 120.195C563.897 120.477 563.773 120.768 563.69 121.068C563.607 121.368 563.326 122.541 562.846 124.587C562.284 127.056 561.961 128.37 561.878 128.529C561.663 129.005 561.307 129.243 560.811 129.243C560.595 129.243 560.422 129.19 560.289 129.084C560.157 128.978 560.066 128.873 560.016 128.767C559.967 128.661 559.95 128.573 559.967 128.502C559.967 128.273 560.298 126.756 560.96 123.952C561.622 121.147 561.953 119.586 561.953 119.269C561.953 118.581 561.737 118.237 561.307 118.237C560.96 118.237 560.662 118.484 560.413 118.978C560.165 119.472 559.967 120.01 559.818 120.592C559.669 121.174 559.578 121.491 559.545 121.544C559.511 121.579 559.379 121.597 559.147 121.597H558.8C558.7 121.491 558.651 121.412 558.651 121.359Z" fill="white"/>
<path d="M569.847 121.359C569.863 121.306 569.88 121.235 569.896 121.147C569.913 121.059 569.954 120.865 570.021 120.565C570.087 120.265 570.169 119.992 570.269 119.745C570.368 119.498 570.492 119.207 570.641 118.872C570.79 118.537 570.956 118.272 571.138 118.078C571.32 117.884 571.535 117.69 571.783 117.496C572.031 117.302 572.304 117.223 572.602 117.258C573.082 117.258 573.504 117.364 573.868 117.576C574.232 117.787 574.489 117.981 574.638 118.158C574.787 118.334 574.878 118.51 574.911 118.687C574.944 118.793 574.969 118.846 574.985 118.846C575.002 118.846 575.068 118.784 575.184 118.66C575.978 117.743 576.897 117.285 577.94 117.285H578.014C578.808 117.285 579.404 117.646 579.801 118.369C579.934 118.704 580 119.031 580 119.348C580 119.877 579.892 120.301 579.677 120.618C579.462 120.936 579.247 121.138 579.032 121.227C578.817 121.315 578.61 121.35 578.411 121.332C578.08 121.332 577.815 121.235 577.617 121.041C577.418 120.847 577.319 120.592 577.319 120.274C577.319 119.428 577.782 118.863 578.709 118.581C578.345 118.352 578.047 118.237 577.815 118.237C576.889 118.237 576.036 118.89 575.258 120.195C575.093 120.477 574.969 120.768 574.886 121.068C574.803 121.368 574.522 122.541 574.042 124.587C573.479 127.056 573.157 128.37 573.074 128.529C572.859 129.005 572.503 129.243 572.006 129.243C571.791 129.243 571.618 129.19 571.485 129.084C571.353 128.978 571.262 128.873 571.212 128.767C571.162 128.661 571.146 128.573 571.162 128.502C571.162 128.273 571.493 126.756 572.155 123.952C572.817 121.147 573.148 119.586 573.148 119.269C573.148 118.581 572.933 118.237 572.503 118.237C572.155 118.237 571.858 118.484 571.609 118.978C571.361 119.472 571.162 120.01 571.013 120.592C570.865 121.174 570.774 121.491 570.74 121.544C570.707 121.579 570.575 121.597 570.343 121.597H569.996C569.896 121.491 569.847 121.412 569.847 121.359Z" fill="white"/>
<path d="M534 124.745C534 122.823 534.712 121.094 536.135 119.56C537.558 118.025 539.097 117.258 540.752 117.258C541.679 117.258 542.407 117.47 542.937 117.893C543.466 118.316 543.74 118.872 543.756 119.56C543.756 120.071 543.599 120.503 543.284 120.856C542.97 121.209 542.573 121.394 542.093 121.412C541.778 121.412 541.53 121.324 541.348 121.147C541.166 120.971 541.075 120.706 541.075 120.354C541.075 120.001 541.166 119.701 541.348 119.454C541.53 119.207 541.712 119.022 541.894 118.898C542.076 118.775 542.192 118.722 542.242 118.74H542.267C542.267 118.704 542.217 118.652 542.118 118.581C542.018 118.51 541.845 118.44 541.596 118.369C541.348 118.299 541.067 118.263 540.752 118.263C540.256 118.263 539.784 118.387 539.337 118.634C538.99 118.793 538.634 119.066 538.27 119.454C537.542 120.23 537.012 121.324 536.681 122.735C536.35 124.146 536.176 125.169 536.16 125.804C536.16 126.615 536.375 127.223 536.805 127.629C537.169 128.052 537.649 128.264 538.245 128.264H538.344C540.198 128.264 541.729 127.514 542.937 126.015C543.086 125.839 543.185 125.751 543.235 125.751C543.301 125.751 543.409 125.83 543.557 125.989C543.706 126.148 543.789 126.271 543.806 126.359C543.822 126.447 543.748 126.58 543.582 126.756C543.417 126.932 543.177 127.179 542.862 127.497C542.548 127.814 542.176 128.079 541.745 128.291C541.315 128.502 540.785 128.723 540.157 128.952C539.528 129.181 538.866 129.278 538.171 129.243C536.929 129.243 535.928 128.82 535.167 127.973C534.405 127.126 534.017 126.051 534 124.745Z" stroke="white"/>
<path d="M544.426 121.359C544.426 121.218 544.501 120.944 544.65 120.539C544.799 120.133 545.006 119.675 545.27 119.163C545.535 118.652 545.899 118.211 546.363 117.84C546.826 117.47 547.314 117.276 547.827 117.258C548.589 117.258 549.16 117.479 549.54 117.92C549.921 118.36 550.111 118.881 550.111 119.48C550.111 119.798 549.83 120.786 549.267 122.444C548.704 124.102 548.423 125.345 548.423 126.174C548.423 126.932 548.539 127.462 548.771 127.761C549.002 128.061 549.35 128.22 549.813 128.238C550.277 128.255 550.715 128.105 551.129 127.788C551.543 127.47 551.849 127.171 552.047 126.888L552.321 126.439C552.354 126.368 552.668 125.028 553.264 122.417C553.76 120.301 554.058 119.066 554.158 118.713C554.257 118.36 554.373 118.105 554.505 117.946C554.786 117.681 555.084 117.549 555.399 117.549C555.68 117.549 555.887 117.637 556.019 117.814C556.152 117.99 556.218 118.158 556.218 118.316L554.331 126.73C554.315 126.818 554.307 126.959 554.307 127.153C554.307 127.594 554.364 127.885 554.48 128.026C554.596 128.167 554.77 128.246 555.002 128.264C555.366 128.211 555.655 127.938 555.87 127.444C556.086 126.95 556.334 126.174 556.615 125.116C556.648 124.975 556.814 124.904 557.112 124.904C557.426 124.904 557.583 124.983 557.583 125.142C557.567 125.23 557.55 125.354 557.534 125.513C557.517 125.671 557.443 125.954 557.31 126.359C557.178 126.765 557.037 127.144 556.888 127.497C556.739 127.85 556.532 128.185 556.268 128.502C556.003 128.82 555.705 129.04 555.374 129.164C555.242 129.199 555.043 129.216 554.778 129.216C553.686 129.216 552.933 128.723 552.519 127.735C552.486 127.753 552.395 127.841 552.246 127.999C552.097 128.158 551.948 128.291 551.799 128.396C551.65 128.502 551.468 128.634 551.253 128.793C551.038 128.952 550.798 129.058 550.533 129.111C550.268 129.164 549.987 129.208 549.689 129.243C548.961 129.243 548.316 129.084 547.753 128.767C546.892 128.22 546.462 127.285 546.462 125.962C546.462 124.957 546.752 123.643 547.331 122.02C547.91 120.398 548.2 119.366 548.2 118.925C548.2 118.907 548.2 118.89 548.2 118.872C548.2 118.713 548.2 118.607 548.2 118.555C548.2 118.502 548.167 118.44 548.1 118.369C548.034 118.299 547.943 118.263 547.827 118.263H547.728C547.347 118.263 547 118.431 546.685 118.766C546.371 119.101 546.123 119.463 545.941 119.851C545.759 120.239 545.618 120.609 545.519 120.962C545.419 121.315 545.353 121.509 545.32 121.544C545.287 121.579 545.155 121.597 544.923 121.597H544.575C544.476 121.491 544.426 121.412 544.426 121.359Z" stroke="white"/>
<path d="M558.651 121.359C558.667 121.306 558.684 121.235 558.7 121.147C558.717 121.059 558.758 120.865 558.825 120.565C558.891 120.265 558.974 119.992 559.073 119.745C559.172 119.498 559.296 119.207 559.445 118.872C559.594 118.537 559.76 118.272 559.942 118.078C560.124 117.884 560.339 117.69 560.587 117.496C560.835 117.302 561.108 117.223 561.406 117.258C561.886 117.258 562.308 117.364 562.672 117.576C563.037 117.787 563.293 117.981 563.442 118.158C563.591 118.334 563.682 118.51 563.715 118.687C563.748 118.793 563.773 118.846 563.79 118.846C563.806 118.846 563.872 118.784 563.988 118.66C564.783 117.743 565.701 117.285 566.744 117.285H566.818C567.613 117.285 568.208 117.646 568.606 118.369C568.738 118.704 568.804 119.031 568.804 119.348C568.804 119.877 568.697 120.301 568.481 120.618C568.266 120.936 568.051 121.138 567.836 121.227C567.621 121.315 567.414 121.35 567.215 121.332C566.884 121.332 566.62 121.235 566.421 121.041C566.222 120.847 566.123 120.592 566.123 120.274C566.123 119.428 566.586 118.863 567.513 118.581C567.149 118.352 566.851 118.237 566.62 118.237C565.693 118.237 564.84 118.89 564.063 120.195C563.897 120.477 563.773 120.768 563.69 121.068C563.607 121.368 563.326 122.541 562.846 124.587C562.284 127.056 561.961 128.37 561.878 128.529C561.663 129.005 561.307 129.243 560.811 129.243C560.595 129.243 560.422 129.19 560.289 129.084C560.157 128.978 560.066 128.873 560.016 128.767C559.967 128.661 559.95 128.573 559.967 128.502C559.967 128.273 560.298 126.756 560.96 123.952C561.622 121.147 561.953 119.586 561.953 119.269C561.953 118.581 561.737 118.237 561.307 118.237C560.96 118.237 560.662 118.484 560.413 118.978C560.165 119.472 559.967 120.01 559.818 120.592C559.669 121.174 559.578 121.491 559.545 121.544C559.511 121.579 559.379 121.597 559.147 121.597H558.8C558.7 121.491 558.651 121.412 558.651 121.359Z" stroke="white"/>
<path d="M569.847 121.359C569.863 121.306 569.88 121.235 569.896 121.147C569.913 121.059 569.954 120.865 570.021 120.565C570.087 120.265 570.169 119.992 570.269 119.745C570.368 119.498 570.492 119.207 570.641 118.872C570.79 118.537 570.956 118.272 571.138 118.078C571.32 117.884 571.535 117.69 571.783 117.496C572.031 117.302 572.304 117.223 572.602 117.258C573.082 117.258 573.504 117.364 573.868 117.576C574.232 117.787 574.489 117.981 574.638 118.158C574.787 118.334 574.878 118.51 574.911 118.687C574.944 118.793 574.969 118.846 574.985 118.846C575.002 118.846 575.068 118.784 575.184 118.66C575.978 117.743 576.897 117.285 577.94 117.285H578.014C578.808 117.285 579.404 117.646 579.801 118.369C579.934 118.704 580 119.031 580 119.348C580 119.877 579.892 120.301 579.677 120.618C579.462 120.936 579.247 121.138 579.032 121.227C578.817 121.315 578.61 121.35 578.411 121.332C578.08 121.332 577.815 121.235 577.617 121.041C577.418 120.847 577.319 120.592 577.319 120.274C577.319 119.428 577.782 118.863 578.709 118.581C578.345 118.352 578.047 118.237 577.815 118.237C576.889 118.237 576.036 118.89 575.258 120.195C575.093 120.477 574.969 120.768 574.886 121.068C574.803 121.368 574.522 122.541 574.042 124.587C573.479 127.056 573.157 128.37 573.074 128.529C572.859 129.005 572.503 129.243 572.006 129.243C571.791 129.243 571.618 129.19 571.485 129.084C571.353 128.978 571.262 128.873 571.212 128.767C571.162 128.661 571.146 128.573 571.162 128.502C571.162 128.273 571.493 126.756 572.155 123.952C572.817 121.147 573.148 119.586 573.148 119.269C573.148 118.581 572.933 118.237 572.503 118.237C572.155 118.237 571.858 118.484 571.609 118.978C571.361 119.472 571.162 120.01 571.013 120.592C570.865 121.174 570.774 121.491 570.74 121.544C570.707 121.579 570.575 121.597 570.343 121.597H569.996C569.896 121.491 569.847 121.412 569.847 121.359Z" stroke="white"/>
<path d="M495 66.4363C495 64.4954 495.75 62.6506 497.249 60.9019C498.749 59.1532 500.436 58.2692 502.311 58.25C503.317 58.25 504.205 58.7208 504.975 59.6624C505.29 59.0859 505.744 58.7977 506.336 58.7977C506.593 58.7977 506.82 58.8745 507.017 59.0283C507.214 59.182 507.313 59.3742 507.313 59.6048C507.313 59.8546 506.948 61.3919 506.218 64.2167C505.488 67.0416 505.113 68.6365 505.093 69.0017C505.093 69.4821 505.162 69.7991 505.3 69.9529C505.438 70.1066 505.646 70.1931 505.922 70.2123C506.099 70.1931 506.297 70.1066 506.514 69.9529C506.928 69.5686 507.333 68.6462 507.727 67.1857C507.846 66.8014 507.944 66.5996 508.023 66.5804C508.063 66.5612 508.161 66.5516 508.319 66.5516H508.438C508.813 66.5516 509 66.638 509 66.811C509 66.9263 508.951 67.1857 508.852 67.5892C508.753 67.9928 508.556 68.5116 508.26 69.1458C507.964 69.7799 507.648 70.2603 507.313 70.587C507.056 70.8368 506.741 71.0386 506.366 71.1923C506.208 71.2308 505.971 71.25 505.655 71.25C504.984 71.25 504.422 71.1059 503.968 70.8176C503.514 70.5294 503.218 70.2315 503.08 69.9241L502.903 69.4917C502.883 69.4725 502.844 69.4821 502.784 69.5205C502.745 69.5589 502.705 69.5974 502.666 69.6358C501.502 70.7119 500.318 71.25 499.114 71.25C498.029 71.25 497.072 70.8657 496.243 70.097C495.414 69.3283 495 68.1081 495 66.4363ZM504.412 61.5072C504.412 61.3919 504.363 61.1805 504.264 60.8731C504.166 60.5656 503.939 60.2293 503.584 59.8642C503.228 59.4991 502.774 59.3069 502.222 59.2877C501.531 59.2877 500.87 59.5856 500.239 60.1813C499.607 60.777 499.114 61.5552 498.759 62.5161C498.187 64.0342 497.782 65.6099 497.545 67.2433C497.545 67.301 497.545 67.4067 497.545 67.5604C497.545 67.7142 497.536 67.8295 497.516 67.9063C497.516 68.7711 497.693 69.3668 498.049 69.6935C498.404 70.0201 498.828 70.1931 499.321 70.2123C500.071 70.2123 500.811 69.8952 501.541 69.2611C502.271 68.6269 502.705 68.1369 502.844 67.791C502.883 67.7142 503.149 66.6861 503.643 64.7068C504.136 62.7275 504.393 61.6609 504.412 61.5072Z" fill="white"/>
<path d="M36 91.25C36 89.985 36.0918 88.7842 36.2753 87.6475C36.4588 86.5108 36.6698 85.53 36.9083 84.705C37.1469 83.88 37.4864 83.0733 37.9268 82.285C38.3672 81.4967 38.7159 80.8825 38.9728 80.4425C39.2297 80.0025 39.615 79.5258 40.1289 79.0125C40.6427 78.4992 40.9454 78.1875 41.0372 78.0775C41.129 77.9675 41.3583 77.775 41.7253 77.5H42.1933C42.4502 77.5 42.5786 77.5825 42.5786 77.7475C42.5786 77.8025 42.4227 77.995 42.1107 78.325C41.7987 78.655 41.4226 79.1408 40.9822 79.7825C40.5417 80.4242 40.0922 81.2125 39.6334 82.1475C39.1746 83.0825 38.7893 84.3475 38.4773 85.9425C38.1654 87.5375 38.0094 89.3067 38.0094 91.25C38.0094 93.1933 38.1654 94.9533 38.4773 96.53C38.7893 98.1067 39.1655 99.3808 39.6059 100.353C40.0463 101.324 40.4959 102.112 40.9546 102.717C41.4134 103.322 41.7987 103.808 42.1107 104.175C42.4227 104.542 42.5786 104.734 42.5786 104.752C42.5786 104.917 42.441 105 42.1658 105H41.7253L40.9546 104.34C39.2297 102.782 37.9727 100.838 37.1836 98.51C36.3945 96.1817 36 93.7617 36 91.25Z" fill="white"/>
<path d="M45.056 93.7525C45.056 91.7542 45.845 89.9575 47.4232 88.3625C49.0013 86.7675 50.7079 85.97 52.5429 85.97C53.5706 85.97 54.378 86.19 54.9652 86.63C55.5524 87.07 55.8552 87.6475 55.8736 88.3625C55.8736 88.8942 55.6992 89.3433 55.3506 89.71C55.0019 90.0767 54.5615 90.2692 54.0293 90.2875C53.6807 90.2875 53.4054 90.1958 53.2036 90.0125C53.0017 89.8292 52.9008 89.5542 52.9008 89.1875C52.9008 88.8208 53.0017 88.5092 53.2036 88.2525C53.4054 87.9958 53.6073 87.8033 53.8091 87.675C54.011 87.5467 54.1394 87.4917 54.1945 87.51H54.222C54.222 87.4733 54.167 87.4183 54.0569 87.345C53.9468 87.2717 53.7541 87.1983 53.4788 87.125C53.2036 87.0517 52.8916 87.015 52.5429 87.015C51.9924 87.015 51.4694 87.1433 50.974 87.4C50.5886 87.565 50.1941 87.8492 49.7904 88.2525C48.983 89.0592 48.3957 90.1958 48.0287 91.6625C47.6617 93.1292 47.469 94.1925 47.4507 94.8525C47.4507 95.6958 47.6892 96.3283 48.1664 96.75C48.5701 97.19 49.1022 97.41 49.7628 97.41H49.8729C51.9282 97.41 53.6256 96.6308 54.9652 95.0725C55.1304 94.8892 55.2405 94.7975 55.2955 94.7975C55.3689 94.7975 55.4882 94.88 55.6533 95.045C55.8185 95.21 55.9103 95.3383 55.9286 95.43C55.947 95.5217 55.8644 95.6592 55.6809 95.8425C55.4974 96.0258 55.2313 96.2825 54.8826 96.6125C54.534 96.9425 54.1211 97.2175 53.644 97.4375C53.1669 97.6575 52.5796 97.8867 51.8823 98.125C51.185 98.3633 50.451 98.4642 49.6803 98.4275C48.304 98.4275 47.1938 97.9875 46.3497 97.1075C45.5055 96.2275 45.0743 95.1092 45.056 93.7525Z" fill="white"/>
<path d="M56.6443 90.2325C56.6443 90.0858 56.7268 89.8017 56.892 89.38C57.0572 88.9583 57.2865 88.4817 57.5801 87.95C57.8738 87.4183 58.2775 86.96 58.7913 86.575C59.3051 86.19 59.8464 85.9883 60.4153 85.97C61.2594 85.97 61.8925 86.1992 62.3146 86.6575C62.7366 87.1158 62.9477 87.6567 62.9477 88.28C62.9477 88.61 62.6357 89.6367 62.0118 91.36C61.3879 93.0833 61.0759 94.3758 61.0759 95.2375C61.0759 96.0258 61.2044 96.5758 61.4613 96.8875C61.7182 97.1992 62.1035 97.3642 62.6173 97.3825C63.1312 97.4008 63.6174 97.245 64.0762 96.915C64.535 96.585 64.8745 96.2733 65.0947 95.98L65.3974 95.5125C65.4341 95.4392 65.7828 94.0458 66.4434 91.3325C66.9939 89.1325 67.3242 87.8492 67.4343 87.4825C67.5444 87.1158 67.6729 86.85 67.8197 86.685C68.1317 86.41 68.462 86.2725 68.8106 86.2725C69.1226 86.2725 69.352 86.3642 69.4988 86.5475C69.6456 86.7308 69.719 86.905 69.719 87.07L67.627 95.815C67.6087 95.9067 67.5995 96.0533 67.5995 96.255C67.5995 96.7133 67.6637 97.0158 67.7922 97.1625C67.9206 97.3092 68.1133 97.3917 68.3702 97.41C68.7739 97.355 69.0951 97.0708 69.3336 96.5575C69.5722 96.0442 69.8474 95.2375 70.1594 94.1375C70.1961 93.9908 70.3796 93.9175 70.7099 93.9175C71.0586 93.9175 71.2329 94 71.2329 94.165C71.2145 94.2567 71.1962 94.385 71.1778 94.55C71.1595 94.715 71.0769 95.0083 70.9301 95.43C70.7833 95.8517 70.6273 96.2458 70.4622 96.6125C70.297 96.9792 70.0676 97.3275 69.774 97.6575C69.4804 97.9875 69.1501 98.2167 68.7831 98.345C68.6363 98.3817 68.4161 98.4 68.1225 98.4C66.9114 98.4 66.0764 97.8867 65.6176 96.86C65.5809 96.8783 65.48 96.97 65.3149 97.135C65.1497 97.3 64.9846 97.4375 64.8194 97.5475C64.6542 97.6575 64.4524 97.795 64.2138 97.96C63.9753 98.125 63.7092 98.235 63.4156 98.29C63.122 98.345 62.81 98.3908 62.4797 98.4275C61.6723 98.4275 60.9566 98.2625 60.3327 97.9325C59.3785 97.3642 58.9014 96.3925 58.9014 95.0175C58.9014 93.9725 59.2225 92.6067 59.8648 90.92C60.507 89.2333 60.8282 88.1608 60.8282 87.7025C60.8282 87.6842 60.8282 87.6658 60.8282 87.6475C60.8282 87.4825 60.8282 87.3725 60.8282 87.3175C60.8282 87.2625 60.7915 87.1983 60.7181 87.125C60.6447 87.0517 60.5437 87.015 60.4153 87.015H60.3052C59.8831 87.015 59.4978 87.1892 59.1491 87.5375C58.8005 87.8858 58.5252 88.2617 58.3233 88.665C58.1215 89.0683 57.9655 89.4533 57.8554 89.82C57.7453 90.1867 57.6719 90.3883 57.6352 90.425C57.5985 90.4617 57.4517 90.48 57.1948 90.48H56.8094C56.6993 90.37 56.6443 90.2875 56.6443 90.2325Z" fill="white"/>
<path d="M72.389 90.2325C72.4073 90.1775 72.4257 90.1042 72.444 90.0125C72.4624 89.9208 72.5082 89.7192 72.5816 89.4075C72.655 89.0958 72.7468 88.8117 72.8569 88.555C72.967 88.2983 73.1046 87.9958 73.2698 87.6475C73.4349 87.2992 73.6184 87.0242 73.8203 86.8225C74.0222 86.6208 74.2607 86.4192 74.536 86.2175C74.8112 86.0158 75.114 85.9333 75.4443 85.97C75.9765 85.97 76.4444 86.08 76.8481 86.3C77.2518 86.52 77.5363 86.7217 77.7014 86.905C77.8666 87.0883 77.9675 87.2717 78.0042 87.455C78.0409 87.565 78.0684 87.62 78.0868 87.62C78.1051 87.62 78.1785 87.5558 78.307 87.4275C79.1878 86.4742 80.2063 85.9975 81.3623 85.9975H81.4449C82.3257 85.9975 82.9864 86.3733 83.4268 87.125C83.5736 87.4733 83.647 87.8125 83.647 88.1425C83.647 88.6925 83.5277 89.1325 83.2891 89.4625C83.0506 89.7925 82.812 90.0033 82.5735 90.095C82.3349 90.1867 82.1055 90.2233 81.8853 90.205C81.5183 90.205 81.2247 90.1042 81.0045 89.9025C80.7843 89.7008 80.6742 89.435 80.6742 89.105C80.6742 88.225 81.188 87.6383 82.2156 87.345C81.8119 87.1067 81.4816 86.9875 81.2247 86.9875C80.1971 86.9875 79.252 87.6658 78.3896 89.0225C78.2061 89.3158 78.0684 89.6183 77.9767 89.93C77.8849 90.2417 77.573 91.4608 77.0408 93.5875C76.4169 96.1542 76.0591 97.52 75.9673 97.685C75.7288 98.18 75.3342 98.4275 74.7837 98.4275C74.5451 98.4275 74.3525 98.3725 74.2057 98.2625C74.0589 98.1525 73.9579 98.0425 73.9029 97.9325C73.8478 97.8225 73.8295 97.7308 73.8478 97.6575C73.8478 97.4192 74.2148 95.8425 74.9489 92.9275C75.6829 90.0125 76.0499 88.39 76.0499 88.06C76.0499 87.345 75.8113 86.9875 75.3342 86.9875C74.9489 86.9875 74.6185 87.2442 74.3433 87.7575C74.068 88.2708 73.8478 88.83 73.6827 89.435C73.5175 90.04 73.4166 90.37 73.3799 90.425C73.3432 90.4617 73.1964 90.48 72.9395 90.48H72.5541C72.444 90.37 72.389 90.2875 72.389 90.2325Z" fill="white"/>
<path d="M84.8306 90.2325C84.8489 90.1775 84.8673 90.1042 84.8856 90.0125C84.904 89.9208 84.9499 89.7192 85.0233 89.4075C85.0967 89.0958 85.1884 88.8117 85.2985 88.555C85.4086 88.2983 85.5462 87.9958 85.7114 87.6475C85.8766 87.2992 86.0601 87.0242 86.2619 86.8225C86.4638 86.6208 86.7023 86.4192 86.9776 86.2175C87.2528 86.0158 87.5556 85.9333 87.8859 85.97C88.4181 85.97 88.886 86.08 89.2897 86.3C89.6935 86.52 89.9779 86.7217 90.143 86.905C90.3082 87.0883 90.4091 87.2717 90.4458 87.455C90.4825 87.565 90.51 87.62 90.5284 87.62C90.5467 87.62 90.6202 87.5558 90.7486 87.4275C91.6294 86.4742 92.6479 85.9975 93.804 85.9975H93.8865C94.7674 85.9975 95.428 86.3733 95.8684 87.125C96.0152 87.4733 96.0886 87.8125 96.0886 88.1425C96.0886 88.6925 95.9693 89.1325 95.7308 89.4625C95.4922 89.7925 95.2536 90.0033 95.0151 90.095C94.7765 90.1867 94.5471 90.2233 94.3269 90.205C93.9599 90.205 93.6663 90.1042 93.4461 89.9025C93.2259 89.7008 93.1158 89.435 93.1158 89.105C93.1158 88.225 93.6296 87.6383 94.6572 87.345C94.2535 87.1067 93.9232 86.9875 93.6663 86.9875C92.6387 86.9875 91.6936 87.6658 90.8312 89.0225C90.6477 89.3158 90.51 89.6183 90.4183 89.93C90.3265 90.2417 90.0146 91.4608 89.4824 93.5875C88.8585 96.1542 88.5007 97.52 88.4089 97.685C88.1704 98.18 87.7758 98.4275 87.2253 98.4275C86.9868 98.4275 86.7941 98.3725 86.6473 98.2625C86.5005 98.1525 86.3995 98.0425 86.3445 97.9325C86.2894 97.8225 86.2711 97.7308 86.2894 97.6575C86.2894 97.4192 86.6564 95.8425 87.3905 92.9275C88.1245 90.0125 88.4915 88.39 88.4915 88.06C88.4915 87.345 88.2529 86.9875 87.7758 86.9875C87.3905 86.9875 87.0602 87.2442 86.7849 87.7575C86.5096 88.2708 86.2894 88.83 86.1243 89.435C85.9591 90.04 85.8582 90.37 85.8215 90.425C85.7848 90.4617 85.638 90.48 85.3811 90.48H84.9957C84.8856 90.37 84.8306 90.2875 84.8306 90.2325Z" fill="white"/>
<path d="M98.8136 97.1625C98.8136 97.1625 98.8136 96.9333 98.8136 96.475C98.8136 96.0167 98.9604 95.6225 99.254 95.2925C99.5477 94.9625 99.9422 94.7975 100.438 94.7975C100.951 94.7975 101.41 95.0267 101.814 95.485C102.218 95.9433 102.429 96.75 102.447 97.905C102.447 98.5467 102.364 99.17 102.199 99.775C102.034 100.38 101.841 100.902 101.621 101.342C101.401 101.782 101.162 102.158 100.906 102.47C100.649 102.782 100.428 103.029 100.245 103.212C100.061 103.396 99.9422 103.478 99.8871 103.46C99.8137 103.46 99.6945 103.377 99.5293 103.212C99.3641 103.047 99.2816 102.928 99.2816 102.855C99.2816 102.782 99.3825 102.635 99.5844 102.415C99.7862 102.195 100.016 101.92 100.272 101.59C100.529 101.26 100.768 100.802 100.988 100.215C101.208 99.6283 101.355 98.9592 101.429 98.2075V97.8775L101.401 97.905C101.364 97.9233 101.318 97.9417 101.263 97.96C101.208 97.9783 101.153 98.0058 101.098 98.0425C101.043 98.0792 100.961 98.0975 100.851 98.0975C100.74 98.0975 100.63 98.1067 100.52 98.125C100.025 98.125 99.6211 97.9692 99.3091 97.6575L98.8136 97.1625Z" fill="white"/>
<path d="M109.824 93.8075C109.824 91.9558 110.521 90.1958 111.916 88.5275C113.31 86.8592 114.879 86.0158 116.623 85.9975C117.559 85.9975 118.384 86.4467 119.1 87.345C119.394 86.795 119.816 86.52 120.366 86.52C120.605 86.52 120.816 86.5933 120.999 86.74C121.183 86.8867 121.275 87.07 121.275 87.29C121.275 87.5283 120.935 88.995 120.256 91.69C119.577 94.385 119.229 95.9067 119.21 96.255C119.21 96.7133 119.274 97.0158 119.403 97.1625C119.531 97.3092 119.724 97.3917 119.981 97.41C120.146 97.3917 120.33 97.3092 120.531 97.1625C120.917 96.7958 121.293 95.9158 121.66 94.5225C121.77 94.1558 121.862 93.9633 121.935 93.945C121.972 93.9267 122.064 93.9175 122.21 93.9175H122.321C122.669 93.9175 122.844 94 122.844 94.165C122.844 94.275 122.798 94.5225 122.706 94.9075C122.614 95.2925 122.431 95.7875 122.155 96.3925C121.88 96.9975 121.587 97.4558 121.275 97.7675C121.036 98.0058 120.742 98.1983 120.394 98.345C120.247 98.3817 120.027 98.4 119.733 98.4C119.109 98.4 118.586 98.2625 118.164 97.9875C117.742 97.7125 117.467 97.4283 117.338 97.135L117.173 96.7225C117.155 96.7042 117.118 96.7133 117.063 96.75C117.026 96.7867 116.99 96.8233 116.953 96.86C115.87 97.8867 114.769 98.4 113.65 98.4C112.641 98.4 111.751 98.0333 110.98 97.3C110.209 96.5667 109.824 95.4025 109.824 93.8075ZM118.577 89.105C118.577 88.995 118.531 88.7933 118.439 88.5C118.348 88.2067 118.137 87.8858 117.806 87.5375C117.476 87.1892 117.054 87.0058 116.54 86.9875C115.898 86.9875 115.283 87.2717 114.696 87.84C114.109 88.4083 113.65 89.1508 113.32 90.0675C112.788 91.5158 112.411 93.0192 112.191 94.5775C112.191 94.6325 112.191 94.7333 112.191 94.88C112.191 95.0267 112.182 95.1367 112.164 95.21C112.164 96.035 112.329 96.6033 112.659 96.915C112.989 97.2267 113.384 97.3917 113.843 97.41C114.54 97.41 115.228 97.1075 115.907 96.5025C116.586 95.8975 116.99 95.43 117.118 95.1C117.155 95.0267 117.403 94.0458 117.861 92.1575C118.32 90.2692 118.559 89.2517 118.577 89.105Z" fill="white"/>
<path d="M125.156 77.5275L125.266 77.5C125.358 77.5 125.449 77.5 125.541 77.5H125.871L126.642 78.16C128.367 79.7183 129.624 81.6617 130.413 83.99C131.202 86.3183 131.597 88.7383 131.597 91.25C131.597 92.4967 131.505 93.6975 131.321 94.8525C131.138 96.0075 130.927 96.9883 130.688 97.795C130.45 98.6017 130.11 99.4083 129.67 100.215C129.23 101.022 128.881 101.636 128.624 102.057C128.367 102.479 127.991 102.947 127.495 103.46C127 103.973 126.706 104.276 126.615 104.368C126.523 104.459 126.312 104.633 125.981 104.89C125.926 104.945 125.89 104.982 125.871 105H125.541C125.394 105 125.293 105 125.238 105C125.183 105 125.137 104.973 125.101 104.918C125.064 104.863 125.036 104.78 125.018 104.67C125.036 104.652 125.137 104.533 125.321 104.313C128.165 101.361 129.587 97.0067 129.587 91.25C129.587 85.4933 128.165 81.1392 125.321 78.1875C125.137 77.9675 125.036 77.8483 125.018 77.83C125.018 77.6833 125.064 77.5825 125.156 77.5275Z" fill="white"/>
<path d="M143.405 88.5825C143.405 88.3442 143.534 88.1608 143.791 88.0325H161.324C161.6 88.1792 161.737 88.3625 161.737 88.5825C161.737 88.7842 161.609 88.9583 161.352 89.105L152.599 89.1325H143.846C143.552 89.0408 143.405 88.8575 143.405 88.5825ZM143.405 93.9175C143.405 93.6425 143.552 93.4592 143.846 93.3675H161.352C161.609 93.5508 161.737 93.7342 161.737 93.9175C161.737 94.1558 161.6 94.3392 161.324 94.4675H143.791C143.534 94.3392 143.405 94.1558 143.405 93.9175Z" fill="white"/>
<path d="M190.226 123.975C190.226 124.03 190.171 124.112 190.061 124.222H189.208C189.171 124.186 188.914 123.938 188.437 123.48C187.96 123.022 187.547 122.627 187.199 122.297C186.85 121.967 186.355 121.408 185.712 120.62C185.07 119.832 184.501 119.089 184.006 118.392C183.51 117.696 182.932 116.77 182.272 115.615C181.611 114.46 181.042 113.314 180.565 112.178C180.088 111.041 179.583 109.675 179.051 108.08C178.519 106.485 178.106 104.872 177.812 103.24C177.519 101.608 177.253 99.7475 177.014 97.6575C176.776 95.5675 176.665 93.4225 176.684 91.2225C176.684 78.1875 180.024 68.0125 186.703 60.6975C187.125 60.2392 187.52 59.8358 187.887 59.4875C188.254 59.1392 188.557 58.8458 188.795 58.6075C189.034 58.3692 189.171 58.25 189.208 58.25H190.061C190.171 58.36 190.226 58.4425 190.226 58.4975C190.226 58.5892 190.043 58.8275 189.676 59.2125C189.309 59.5975 188.832 60.1383 188.245 60.835C187.657 61.5317 186.997 62.4025 186.263 63.4475C185.529 64.4925 184.786 65.8033 184.033 67.38C183.281 68.9567 182.584 70.7075 181.941 72.6325C181.299 74.5575 180.748 76.8675 180.29 79.5625C179.831 82.2575 179.537 85.1542 179.409 88.2525C179.372 88.9492 179.354 89.9483 179.354 91.25C179.354 98.3817 180.216 104.615 181.941 109.95C183.666 115.285 186.327 119.813 189.924 123.535C190.126 123.755 190.226 123.902 190.226 123.975Z" fill="white"/>
<path d="M198.87 67.5175C198.374 67.5175 197.989 67.3617 197.713 67.05C197.438 66.7383 197.291 66.335 197.273 65.84C197.273 64.8317 197.713 63.9333 198.594 63.145C199.475 62.3567 200.539 61.9625 201.787 61.9625C202.43 61.9625 202.833 61.9717 202.998 61.99C204.356 62.21 205.393 62.6958 206.109 63.4475C206.824 64.1992 207.191 65.015 207.21 65.895C207.21 66.8483 206.898 67.7742 206.274 68.6725C205.65 69.5708 204.788 70.2217 203.687 70.625L203.604 70.68C203.604 70.6983 203.687 70.7258 203.852 70.7625C204.017 70.7992 204.283 70.8817 204.65 71.01C205.017 71.1383 205.366 71.3308 205.696 71.5875C207.201 72.5592 207.953 73.8425 207.953 75.4375C207.953 76.8858 207.384 78.1508 206.246 79.2325C205.109 80.3142 203.668 80.855 201.925 80.855C200.457 80.855 199.191 80.4608 198.126 79.6725C197.062 78.8842 196.53 77.885 196.53 76.675C196.53 76.1617 196.695 75.7492 197.025 75.4375C197.356 75.1258 197.769 74.9608 198.264 74.9425C198.778 74.9425 199.2 75.1075 199.53 75.4375C199.86 75.7675 200.026 76.18 200.026 76.675C200.026 76.8767 199.998 77.06 199.943 77.225C199.888 77.39 199.824 77.5367 199.75 77.665C199.677 77.7933 199.576 77.9033 199.448 77.995C199.319 78.0867 199.209 78.16 199.117 78.215C199.026 78.27 198.934 78.3067 198.842 78.325C198.75 78.3433 198.677 78.3708 198.622 78.4075L198.512 78.435C199.448 79.26 200.585 79.6725 201.925 79.6725C202.934 79.6725 203.696 79.1867 204.21 78.215C204.521 77.61 204.677 76.6842 204.677 75.4375V74.8875C204.677 73.1458 204.09 71.9817 202.916 71.395C202.641 71.285 202.081 71.2208 201.237 71.2025L200.081 71.175L199.998 71.12C199.961 71.065 199.943 70.9183 199.943 70.68C199.943 70.35 200.016 70.185 200.163 70.185C200.677 70.185 201.209 70.1392 201.76 70.0475C202.384 69.9558 202.953 69.5708 203.466 68.8925C203.98 68.2142 204.237 67.1875 204.237 65.8125V65.5925C204.237 64.5475 203.916 63.8233 203.274 63.42C202.87 63.1633 202.439 63.035 201.98 63.035C201.393 63.035 200.851 63.1358 200.356 63.3375C199.86 63.5392 199.512 63.75 199.31 63.97C199.108 64.19 199.007 64.3 199.007 64.3H199.09C199.145 64.3183 199.218 64.3367 199.31 64.355C199.402 64.3733 199.493 64.4192 199.585 64.4925C199.677 64.5658 199.787 64.63 199.916 64.685C200.044 64.74 200.136 64.8408 200.191 64.9875C200.246 65.1342 200.319 65.2717 200.411 65.4C200.503 65.5283 200.53 65.7117 200.494 65.95C200.494 66.3533 200.365 66.7108 200.108 67.0225C199.851 67.3342 199.438 67.4992 198.87 67.5175Z" fill="white"/>
<path d="M198.374 106.953C197.879 106.953 197.484 106.788 197.19 106.458C196.897 106.128 196.75 105.724 196.75 105.248C196.75 103.946 197.236 102.818 198.209 101.865C199.181 100.912 200.393 100.435 201.842 100.435C203.512 100.435 204.907 100.948 206.026 101.975C207.146 103.002 207.714 104.331 207.733 105.963C207.733 106.751 207.549 107.503 207.182 108.218C206.815 108.933 206.375 109.556 205.861 110.088C205.347 110.619 204.613 111.298 203.659 112.123C202.998 112.691 202.081 113.534 200.906 114.653L199.282 116.193L201.374 116.22C204.255 116.22 205.788 116.174 205.971 116.083C206.1 116.046 206.32 115.23 206.632 113.635V113.553H207.733V113.635C207.714 113.69 207.595 114.524 207.375 116.138C207.155 117.751 207.017 118.594 206.962 118.668V118.75H196.75V117.898C196.75 117.769 196.805 117.632 196.915 117.485C197.025 117.338 197.301 117.018 197.741 116.523C198.273 115.936 198.732 115.423 199.117 114.983C199.282 114.799 199.594 114.46 200.053 113.965C200.512 113.47 200.824 113.131 200.989 112.948C201.154 112.764 201.42 112.462 201.787 112.04C202.154 111.618 202.411 111.307 202.558 111.105C202.705 110.903 202.916 110.628 203.191 110.28C203.466 109.932 203.659 109.638 203.769 109.4C203.879 109.162 204.017 108.896 204.182 108.603C204.347 108.309 204.466 108.016 204.54 107.723C204.613 107.429 204.677 107.154 204.732 106.898C204.788 106.641 204.815 106.338 204.815 105.99C204.815 104.835 204.503 103.836 203.879 102.993C203.255 102.149 202.365 101.728 201.209 101.728C200.604 101.728 200.071 101.883 199.613 102.195C199.154 102.507 198.833 102.809 198.649 103.103C198.466 103.396 198.374 103.57 198.374 103.625C198.374 103.643 198.42 103.653 198.512 103.653C198.842 103.653 199.181 103.781 199.53 104.038C199.879 104.294 200.053 104.716 200.053 105.303C200.053 105.761 199.906 106.146 199.613 106.458C199.319 106.769 198.906 106.934 198.374 106.953Z" fill="white"/>
<path d="M239.69 68.4525C239.195 68.4525 238.8 68.2875 238.507 67.9575C238.213 67.6275 238.066 67.2242 238.066 66.7475C238.066 65.4458 238.552 64.3183 239.525 63.365C240.498 62.4117 241.709 61.935 243.158 61.935C244.828 61.935 246.223 62.4483 247.342 63.475C248.462 64.5017 249.031 65.8308 249.049 67.4625C249.049 68.2508 248.865 69.0025 248.498 69.7175C248.131 70.4325 247.691 71.0558 247.177 71.5875C246.663 72.1192 245.929 72.7975 244.975 73.6225C244.314 74.1908 243.397 75.0342 242.223 76.1525L240.599 77.6925L242.69 77.72C245.571 77.72 247.104 77.6742 247.287 77.5825C247.416 77.5458 247.636 76.73 247.948 75.135V75.0525H249.049V75.135C249.031 75.19 248.911 76.0242 248.691 77.6375C248.471 79.2508 248.333 80.0942 248.278 80.1675V80.25H238.066V79.3975C238.066 79.2692 238.121 79.1317 238.231 78.985C238.341 78.8383 238.617 78.5175 239.057 78.0225C239.589 77.4358 240.048 76.9225 240.433 76.4825C240.599 76.2992 240.91 75.96 241.369 75.465C241.828 74.97 242.14 74.6308 242.305 74.4475C242.47 74.2642 242.736 73.9617 243.103 73.54C243.47 73.1183 243.727 72.8067 243.874 72.605C244.021 72.4033 244.232 72.1283 244.507 71.78C244.782 71.4317 244.975 71.1383 245.085 70.9C245.195 70.6617 245.333 70.3958 245.498 70.1025C245.663 69.8092 245.783 69.5158 245.856 69.2225C245.929 68.9292 245.994 68.6542 246.049 68.3975C246.104 68.1408 246.131 67.8383 246.131 67.49C246.131 66.335 245.819 65.3358 245.195 64.4925C244.571 63.6492 243.681 63.2275 242.525 63.2275C241.92 63.2275 241.388 63.3833 240.929 63.695C240.47 64.0067 240.149 64.3092 239.965 64.6025C239.782 64.8958 239.69 65.07 239.69 65.125C239.69 65.1433 239.736 65.1525 239.828 65.1525C240.158 65.1525 240.498 65.2808 240.846 65.5375C241.195 65.7942 241.369 66.2158 241.369 66.8025C241.369 67.2608 241.222 67.6458 240.929 67.9575C240.635 68.2692 240.222 68.4342 239.69 68.4525Z" fill="white"/>
<path d="M252.6 78.6C252.6 78.16 252.756 77.775 253.068 77.445C253.38 77.115 253.774 76.95 254.251 76.95C254.692 76.95 255.077 77.0967 255.407 77.39C255.738 77.6833 255.912 78.0775 255.93 78.5725C255.93 79.0308 255.774 79.425 255.462 79.755C255.15 80.085 254.756 80.25 254.279 80.25C253.802 80.25 253.407 80.0942 253.095 79.7825C252.783 79.4708 252.618 79.0767 252.6 78.6Z" fill="white"/>
<path d="M261.628 67.5175C261.133 67.5175 260.747 67.3617 260.472 67.05C260.197 66.7383 260.05 66.335 260.032 65.84C260.032 64.8317 260.472 63.9333 261.353 63.145C262.234 62.3567 263.298 61.9625 264.546 61.9625C265.188 61.9625 265.592 61.9717 265.757 61.99C267.115 62.21 268.152 62.6958 268.867 63.4475C269.583 64.1992 269.95 65.015 269.968 65.895C269.968 66.8483 269.656 67.7742 269.033 68.6725C268.409 69.5708 267.546 70.2217 266.445 70.625L266.363 70.68C266.363 70.6983 266.445 70.7258 266.61 70.7625C266.775 70.7992 267.042 70.8817 267.409 71.01C267.776 71.1383 268.124 71.3308 268.455 71.5875C269.959 72.5592 270.712 73.8425 270.712 75.4375C270.712 76.8858 270.143 78.1508 269.005 79.2325C267.867 80.3142 266.427 80.855 264.683 80.855C263.215 80.855 261.949 80.4608 260.885 79.6725C259.821 78.8842 259.288 77.885 259.288 76.675C259.288 76.1617 259.454 75.7492 259.784 75.4375C260.114 75.1258 260.527 74.9608 261.023 74.9425C261.536 74.9425 261.958 75.1075 262.289 75.4375C262.619 75.7675 262.784 76.18 262.784 76.675C262.784 76.8767 262.757 77.06 262.702 77.225C262.647 77.39 262.582 77.5367 262.509 77.665C262.436 77.7933 262.335 77.9033 262.206 77.995C262.078 78.0867 261.968 78.16 261.876 78.215C261.784 78.27 261.692 78.3067 261.601 78.325C261.509 78.3433 261.435 78.3708 261.38 78.4075L261.27 78.435C262.206 79.26 263.344 79.6725 264.683 79.6725C265.693 79.6725 266.454 79.1867 266.968 78.215C267.28 77.61 267.436 76.6842 267.436 75.4375V74.8875C267.436 73.1458 266.849 71.9817 265.674 71.395C265.399 71.285 264.839 71.2208 263.995 71.2025L262.839 71.175L262.757 71.12C262.72 71.065 262.702 70.9183 262.702 70.68C262.702 70.35 262.775 70.185 262.922 70.185C263.436 70.185 263.968 70.1392 264.518 70.0475C265.142 69.9558 265.711 69.5708 266.225 68.8925C266.739 68.2142 266.996 67.1875 266.996 65.8125V65.5925C266.996 64.5475 266.675 63.8233 266.032 63.42C265.629 63.1633 265.197 63.035 264.739 63.035C264.151 63.035 263.61 63.1358 263.115 63.3375C262.619 63.5392 262.27 63.75 262.069 63.97C261.867 64.19 261.766 64.3 261.766 64.3H261.848C261.903 64.3183 261.977 64.3367 262.069 64.355C262.16 64.3733 262.252 64.4192 262.344 64.4925C262.436 64.5658 262.546 64.63 262.674 64.685C262.803 64.74 262.894 64.8408 262.949 64.9875C263.004 65.1342 263.078 65.2717 263.17 65.4C263.261 65.5283 263.289 65.7117 263.252 65.95C263.252 66.3533 263.124 66.7108 262.867 67.0225C262.61 67.3342 262.197 67.4992 261.628 67.5175Z" fill="white"/>
<path d="M239.69 106.953C239.195 106.953 238.8 106.788 238.507 106.458C238.213 106.128 238.066 105.724 238.066 105.247C238.066 103.946 238.552 102.818 239.525 101.865C240.498 100.912 241.709 100.435 243.158 100.435C244.828 100.435 246.223 100.948 247.342 101.975C248.462 103.002 249.031 104.331 249.049 105.962C249.049 106.751 248.865 107.503 248.498 108.218C248.131 108.933 247.691 109.556 247.177 110.088C246.663 110.619 245.929 111.298 244.975 112.123C244.314 112.691 243.397 113.534 242.223 114.653L240.599 116.193L242.69 116.22C245.571 116.22 247.104 116.174 247.287 116.083C247.416 116.046 247.636 115.23 247.948 113.635V113.553H249.049V113.635C249.031 113.69 248.911 114.524 248.691 116.138C248.471 117.751 248.333 118.594 248.278 118.668V118.75H238.066V117.898C238.066 117.769 238.121 117.632 238.231 117.485C238.341 117.338 238.617 117.017 239.057 116.522C239.589 115.936 240.048 115.423 240.433 114.983C240.599 114.799 240.91 114.46 241.369 113.965C241.828 113.47 242.14 113.131 242.305 112.948C242.47 112.764 242.736 112.462 243.103 112.04C243.47 111.618 243.727 111.307 243.874 111.105C244.021 110.903 244.232 110.628 244.507 110.28C244.782 109.932 244.975 109.638 245.085 109.4C245.195 109.162 245.333 108.896 245.498 108.602C245.663 108.309 245.783 108.016 245.856 107.723C245.929 107.429 245.994 107.154 246.049 106.898C246.104 106.641 246.131 106.338 246.131 105.99C246.131 104.835 245.819 103.836 245.195 102.993C244.571 102.149 243.681 101.728 242.525 101.728C241.92 101.728 241.388 101.883 240.929 102.195C240.47 102.507 240.149 102.809 239.965 103.103C239.782 103.396 239.69 103.57 239.69 103.625C239.69 103.643 239.736 103.653 239.828 103.653C240.158 103.653 240.498 103.781 240.846 104.037C241.195 104.294 241.369 104.716 241.369 105.302C241.369 105.761 241.222 106.146 240.929 106.458C240.635 106.769 240.222 106.934 239.69 106.953Z" fill="white"/>
<path d="M252.6 117.1C252.6 116.66 252.756 116.275 253.068 115.945C253.38 115.615 253.774 115.45 254.251 115.45C254.692 115.45 255.077 115.597 255.407 115.89C255.738 116.183 255.912 116.577 255.93 117.072C255.93 117.531 255.774 117.925 255.462 118.255C255.15 118.585 254.756 118.75 254.279 118.75C253.802 118.75 253.407 118.594 253.095 118.283C252.783 117.971 252.618 117.577 252.6 117.1Z" fill="white"/>
<path d="M259.646 106.155C259.665 106.118 259.821 105.119 260.114 103.158L260.555 100.215C260.555 100.178 260.738 100.16 261.105 100.16H261.656V100.27C261.656 100.453 261.793 100.609 262.069 100.737C262.344 100.866 262.821 100.948 263.5 100.985C264.179 101.022 265.729 101.04 268.152 101.04H271.482V102.112L269.611 104.67C269.445 104.89 269.17 105.257 268.785 105.77C268.399 106.283 268.152 106.623 268.042 106.788C267.932 106.953 267.739 107.246 267.464 107.668C267.188 108.089 267.005 108.419 266.913 108.657C266.821 108.896 266.693 109.235 266.528 109.675C266.363 110.115 266.243 110.537 266.17 110.94C266.096 111.343 266.023 111.838 265.95 112.425C265.876 113.012 265.821 113.635 265.785 114.295C265.748 114.955 265.72 115.707 265.702 116.55C265.702 116.807 265.702 117.063 265.702 117.32C265.702 117.577 265.693 117.797 265.674 117.98V118.228C265.601 118.539 265.427 118.805 265.151 119.025C264.876 119.245 264.564 119.355 264.216 119.355C264.014 119.355 263.821 119.328 263.638 119.273C263.454 119.218 263.261 119.043 263.059 118.75C262.858 118.457 262.757 118.09 262.757 117.65C262.757 114.753 263.647 111.747 265.427 108.63C265.794 108.043 266.564 106.934 267.739 105.302L269.005 103.57H266.445C263.252 103.57 261.573 103.625 261.408 103.735C261.298 103.79 261.197 104.01 261.105 104.395C261.013 104.78 260.922 105.174 260.83 105.578L260.747 106.155V106.238H259.646V106.155Z" fill="white"/>
<path d="M277.455 58.6075C277.455 58.4608 277.483 58.3692 277.538 58.3325C277.593 58.2958 277.712 58.2775 277.896 58.2775H278.474C278.511 58.3142 278.767 58.5617 279.245 59.02C279.722 59.4783 280.135 59.8725 280.483 60.2025C280.832 60.5325 281.327 61.0917 281.97 61.88C282.612 62.6683 283.181 63.4108 283.676 64.1075C284.172 64.8042 284.75 65.73 285.41 66.885C286.071 68.04 286.64 69.1767 287.117 70.295C287.594 71.4133 288.099 72.7792 288.631 74.3925C289.163 76.0058 289.576 77.6192 289.869 79.2325C290.163 80.8458 290.429 82.7067 290.668 84.815C290.906 86.9233 291.016 89.0683 290.998 91.25C290.998 93.395 290.934 95.21 290.805 96.695C289.943 107.182 286.667 115.551 280.979 121.803C280.557 122.261 280.162 122.664 279.795 123.012C279.428 123.361 279.125 123.654 278.887 123.893C278.648 124.131 278.511 124.25 278.474 124.25H278.061C277.822 124.25 277.666 124.232 277.593 124.195C277.52 124.158 277.474 124.067 277.455 123.92C278.446 122.93 279.419 121.793 280.373 120.51C285.658 113.488 288.301 103.735 288.301 91.25C288.301 87.5467 288.062 84.0908 287.585 80.8825C287.108 77.6742 286.521 74.9792 285.823 72.7975C285.126 70.6158 284.273 68.5625 283.263 66.6375C282.254 64.7125 281.337 63.2183 280.511 62.155C279.685 61.0917 278.777 60.0283 277.786 58.965C277.749 58.9283 277.712 58.8917 277.676 58.855C277.639 58.8183 277.611 58.7817 277.593 58.745C277.575 58.7083 277.547 58.6808 277.51 58.6625L277.455 58.6075Z" fill="white"/>
</g>
<defs>
<clipPath id="clip0_588_6700">
<rect width="700" height="290" fill="white" transform="translate(0 0.25)"/>
</clipPath>
<clipPath id="clip1_588_6700">
<rect width="1284" height="1284" fill="white" transform="translate(-292 -409.75)"/>
</clipPath>
</defs>
</svg>
