<svg width="700" height="291" viewBox="0 0 700 291" fill="none" xmlns="http://www.w3.org/2000/svg">
<g clip-path="url(#clip0_588_6710)">
<rect width="700" height="290" transform="translate(0 0.25)" fill="#0A0D12"/>
<path opacity="0.2" d="M485 91.25L526.5 132.75M485 91.25H335L293.5 132.75H389.25M485 91.25L526.5 49.75M526.5 132.75L568 91.25M526.5 132.75V191.75L485 225.25M568 91.25L526.5 49.75M568 91.25H623L664.5 49.75L526.5 49.75M485 225.25V132.75H437.125M485 225.25H437.125L389.25 180.625M389.25 132.75H437.125M389.25 132.75V180.625M437.125 132.75L389.25 180.625" stroke="#0A0D12" stroke-width="2"/>
<circle cx="527" cy="174.25" r="5" fill="#0A0D12" stroke="#D0D0D0" stroke-width="2"/>
<circle cx="567" cy="74.25" r="5" fill="#0A0D12" stroke="#D0D0D0" stroke-width="2"/>
<circle cx="623" cy="74.25" r="5" fill="#0A0D12" stroke="#D0D0D0" stroke-width="2"/>
<circle cx="665" cy="33.25" r="5" fill="#0A0D12" stroke="#D0D0D0" stroke-width="2"/>
<circle cx="527" cy="33.25" r="5" fill="#0A0D12" stroke="#D0D0D0" stroke-width="2"/>
<circle cx="335" cy="74.25" r="5" fill="#0A0D12" stroke="#D0D0D0" stroke-width="2"/>
<circle cx="294" cy="115.25" r="5" fill="#0A0D12" stroke="#D0D0D0" stroke-width="2"/>
<circle cx="389" cy="115.25" r="5" fill="#0A0D12" stroke="#D0D0D0" stroke-width="2"/>
<circle cx="389" cy="163.25" r="5" fill="#0A0D12" stroke="#D0D0D0" stroke-width="2"/>
<circle cx="436" cy="115.25" r="5" fill="#0A0D12" stroke="#D0D0D0" stroke-width="2"/>
<circle cx="485" cy="115.25" r="5" fill="#0A0D12" stroke="#D0D0D0" stroke-width="2"/>
<circle cx="485" cy="208.25" r="5" fill="#0A0D12" stroke="#D0D0D0" stroke-width="2"/>
<circle cx="436" cy="208.25" r="5" fill="#0A0D12" stroke="#D0D0D0" stroke-width="2"/>
<g clip-path="url(#clip1_588_6710)">
<rect width="1284" height="1284" transform="translate(-292 -409.75)" fill="#0A0D12"/>
<g opacity="0.4">
<line x1="409.156" y1="-1051.75" x2="409.156" y2="1516.25" stroke="#67DBFF" stroke-width="0.917143"/>
<line x1="467.853" y1="-1051.75" x2="467.853" y2="1516.25" stroke="#67DBFF" stroke-width="0.917143"/>
<line x1="526.55" y1="-1051.75" x2="526.55" y2="1516.25" stroke="#67DBFF" stroke-width="0.917143"/>
<line x1="585.248" y1="-1051.75" x2="585.247" y2="1516.25" stroke="#67DBFF" stroke-width="0.917143"/>
<line x1="643.944" y1="-1051.75" x2="643.944" y2="1516.25" stroke="#67DBFF" stroke-width="0.917143"/>
<line x1="56.9732" y1="-1051.75" x2="56.973" y2="1516.25" stroke="#67DBFF" stroke-width="0.917143"/>
<line x1="115.67" y1="-1051.75" x2="115.669" y2="1516.25" stroke="#67DBFF" stroke-width="0.917143"/>
<line x1="174.367" y1="-1051.75" x2="174.367" y2="1516.25" stroke="#67DBFF" stroke-width="0.917143"/>
<line x1="233.064" y1="-1051.75" x2="233.064" y2="1516.25" stroke="#67DBFF" stroke-width="0.917143"/>
<line x1="291.761" y1="-1051.75" x2="291.761" y2="1516.25" stroke="#67DBFF" stroke-width="0.917143"/>
<line x1="-934" y1="173.094" x2="1634" y2="173.094" stroke="#67DBFF" stroke-width="0.917143"/>
<line x1="-934" y1="114.397" x2="1634" y2="114.397" stroke="#67DBFF" stroke-width="0.917143"/>
<line x1="-934" y1="55.7001" x2="1634" y2="55.7001" stroke="#67DBFF" stroke-width="0.917143"/>
<line x1="-934" y1="290.489" x2="1634" y2="290.489" stroke="#67DBFF" stroke-width="0.917143"/>
</g>
<line x1="350.459" y1="-1051.75" x2="350.458" y2="1516.25" stroke="#E6E6E6" stroke-width="0.917143"/>
<line x1="-934" y1="231.791" x2="1634" y2="231.791" stroke="#E6E6E6" stroke-width="0.917143"/>
</g>
<path d="M485 74.25L526.5 115.75" stroke="white" stroke-width="2"/>
<circle cx="527" cy="114.25" r="4" fill="#EB5757"/>
<path d="M534 124.745C534 122.823 534.712 121.094 536.135 119.56C537.558 118.025 539.097 117.258 540.752 117.258C541.679 117.258 542.407 117.47 542.937 117.893C543.466 118.316 543.74 118.872 543.756 119.56C543.756 120.071 543.599 120.503 543.284 120.856C542.97 121.209 542.573 121.394 542.093 121.412C541.778 121.412 541.53 121.324 541.348 121.147C541.166 120.971 541.075 120.706 541.075 120.354C541.075 120.001 541.166 119.701 541.348 119.454C541.53 119.207 541.712 119.022 541.894 118.898C542.076 118.775 542.192 118.722 542.242 118.74H542.267C542.267 118.704 542.217 118.652 542.118 118.581C542.018 118.51 541.845 118.44 541.596 118.369C541.348 118.299 541.067 118.263 540.752 118.263C540.256 118.263 539.784 118.387 539.337 118.634C538.99 118.793 538.634 119.066 538.27 119.454C537.542 120.23 537.012 121.324 536.681 122.735C536.35 124.146 536.176 125.169 536.16 125.804C536.16 126.615 536.375 127.223 536.805 127.629C537.169 128.052 537.649 128.264 538.245 128.264H538.344C540.198 128.264 541.729 127.514 542.937 126.015C543.086 125.839 543.185 125.751 543.235 125.751C543.301 125.751 543.409 125.83 543.557 125.989C543.706 126.148 543.789 126.271 543.806 126.359C543.822 126.447 543.748 126.58 543.582 126.756C543.417 126.932 543.177 127.179 542.862 127.497C542.548 127.814 542.176 128.079 541.745 128.291C541.315 128.502 540.785 128.723 540.157 128.952C539.528 129.181 538.866 129.278 538.171 129.243C536.929 129.243 535.928 128.82 535.167 127.973C534.405 127.126 534.017 126.051 534 124.745Z" fill="white"/>
<path d="M544.426 121.359C544.426 121.218 544.501 120.944 544.65 120.539C544.799 120.133 545.006 119.675 545.27 119.163C545.535 118.652 545.899 118.211 546.363 117.84C546.826 117.47 547.314 117.276 547.827 117.258C548.589 117.258 549.16 117.479 549.54 117.92C549.921 118.36 550.111 118.881 550.111 119.48C550.111 119.798 549.83 120.786 549.267 122.444C548.704 124.102 548.423 125.345 548.423 126.174C548.423 126.932 548.539 127.462 548.771 127.761C549.002 128.061 549.35 128.22 549.813 128.238C550.277 128.255 550.715 128.105 551.129 127.788C551.543 127.47 551.849 127.171 552.047 126.888L552.321 126.439C552.354 126.368 552.668 125.028 553.264 122.417C553.76 120.301 554.058 119.066 554.158 118.713C554.257 118.36 554.373 118.105 554.505 117.946C554.786 117.681 555.084 117.549 555.399 117.549C555.68 117.549 555.887 117.637 556.019 117.814C556.152 117.99 556.218 118.158 556.218 118.316L554.331 126.73C554.315 126.818 554.307 126.959 554.307 127.153C554.307 127.594 554.364 127.885 554.48 128.026C554.596 128.167 554.77 128.246 555.002 128.264C555.366 128.211 555.655 127.938 555.87 127.444C556.086 126.95 556.334 126.174 556.615 125.116C556.648 124.975 556.814 124.904 557.112 124.904C557.426 124.904 557.583 124.983 557.583 125.142C557.567 125.23 557.55 125.354 557.534 125.513C557.517 125.671 557.443 125.954 557.31 126.359C557.178 126.765 557.037 127.144 556.888 127.497C556.739 127.85 556.532 128.185 556.268 128.502C556.003 128.82 555.705 129.04 555.374 129.164C555.242 129.199 555.043 129.216 554.778 129.216C553.686 129.216 552.933 128.723 552.519 127.735C552.486 127.753 552.395 127.841 552.246 127.999C552.097 128.158 551.948 128.291 551.799 128.396C551.65 128.502 551.468 128.634 551.253 128.793C551.038 128.952 550.798 129.058 550.533 129.111C550.268 129.164 549.987 129.208 549.689 129.243C548.961 129.243 548.316 129.084 547.753 128.767C546.892 128.22 546.462 127.285 546.462 125.962C546.462 124.957 546.752 123.643 547.331 122.02C547.91 120.398 548.2 119.366 548.2 118.925C548.2 118.907 548.2 118.89 548.2 118.872C548.2 118.713 548.2 118.607 548.2 118.555C548.2 118.502 548.167 118.44 548.1 118.369C548.034 118.299 547.943 118.263 547.827 118.263H547.728C547.347 118.263 547 118.431 546.685 118.766C546.371 119.101 546.123 119.463 545.941 119.851C545.759 120.239 545.618 120.609 545.519 120.962C545.419 121.315 545.353 121.509 545.32 121.544C545.287 121.579 545.155 121.597 544.923 121.597H544.575C544.476 121.491 544.426 121.412 544.426 121.359Z" fill="white"/>
<path d="M558.651 121.359C558.667 121.306 558.684 121.235 558.7 121.147C558.717 121.059 558.758 120.865 558.825 120.565C558.891 120.265 558.974 119.992 559.073 119.745C559.172 119.498 559.296 119.207 559.445 118.872C559.594 118.537 559.76 118.272 559.942 118.078C560.124 117.884 560.339 117.69 560.587 117.496C560.835 117.302 561.108 117.223 561.406 117.258C561.886 117.258 562.308 117.364 562.672 117.576C563.037 117.787 563.293 117.981 563.442 118.158C563.591 118.334 563.682 118.51 563.715 118.687C563.748 118.793 563.773 118.846 563.79 118.846C563.806 118.846 563.872 118.784 563.988 118.66C564.783 117.743 565.701 117.285 566.744 117.285H566.818C567.613 117.285 568.208 117.646 568.606 118.369C568.738 118.704 568.804 119.031 568.804 119.348C568.804 119.877 568.697 120.301 568.481 120.618C568.266 120.936 568.051 121.138 567.836 121.227C567.621 121.315 567.414 121.35 567.215 121.332C566.884 121.332 566.62 121.235 566.421 121.041C566.222 120.847 566.123 120.592 566.123 120.274C566.123 119.428 566.586 118.863 567.513 118.581C567.149 118.352 566.851 118.237 566.62 118.237C565.693 118.237 564.84 118.89 564.063 120.195C563.897 120.477 563.773 120.768 563.69 121.068C563.607 121.368 563.326 122.541 562.846 124.587C562.284 127.056 561.961 128.37 561.878 128.529C561.663 129.005 561.307 129.243 560.811 129.243C560.595 129.243 560.422 129.19 560.289 129.084C560.157 128.978 560.066 128.873 560.016 128.767C559.967 128.661 559.95 128.573 559.967 128.502C559.967 128.273 560.298 126.756 560.96 123.952C561.622 121.147 561.953 119.586 561.953 119.269C561.953 118.581 561.737 118.237 561.307 118.237C560.96 118.237 560.662 118.484 560.413 118.978C560.165 119.472 559.967 120.01 559.818 120.592C559.669 121.174 559.578 121.491 559.545 121.544C559.511 121.579 559.379 121.597 559.147 121.597H558.8C558.7 121.491 558.651 121.412 558.651 121.359Z" fill="white"/>
<path d="M569.847 121.359C569.863 121.306 569.88 121.235 569.896 121.147C569.913 121.059 569.954 120.865 570.021 120.565C570.087 120.265 570.169 119.992 570.269 119.745C570.368 119.498 570.492 119.207 570.641 118.872C570.79 118.537 570.956 118.272 571.138 118.078C571.32 117.884 571.535 117.69 571.783 117.496C572.031 117.302 572.304 117.223 572.602 117.258C573.082 117.258 573.504 117.364 573.868 117.576C574.232 117.787 574.489 117.981 574.638 118.158C574.787 118.334 574.878 118.51 574.911 118.687C574.944 118.793 574.969 118.846 574.985 118.846C575.002 118.846 575.068 118.784 575.184 118.66C575.978 117.743 576.897 117.285 577.94 117.285H578.014C578.808 117.285 579.404 117.646 579.801 118.369C579.934 118.704 580 119.031 580 119.348C580 119.877 579.892 120.301 579.677 120.618C579.462 120.936 579.247 121.138 579.032 121.227C578.817 121.315 578.61 121.35 578.411 121.332C578.08 121.332 577.815 121.235 577.617 121.041C577.418 120.847 577.319 120.592 577.319 120.274C577.319 119.428 577.782 118.863 578.709 118.581C578.345 118.352 578.047 118.237 577.815 118.237C576.889 118.237 576.036 118.89 575.258 120.195C575.093 120.477 574.969 120.768 574.886 121.068C574.803 121.368 574.522 122.541 574.042 124.587C573.479 127.056 573.157 128.37 573.074 128.529C572.859 129.005 572.503 129.243 572.006 129.243C571.791 129.243 571.618 129.19 571.485 129.084C571.353 128.978 571.262 128.873 571.212 128.767C571.162 128.661 571.146 128.573 571.162 128.502C571.162 128.273 571.493 126.756 572.155 123.952C572.817 121.147 573.148 119.586 573.148 119.269C573.148 118.581 572.933 118.237 572.503 118.237C572.155 118.237 571.858 118.484 571.609 118.978C571.361 119.472 571.162 120.01 571.013 120.592C570.865 121.174 570.774 121.491 570.74 121.544C570.707 121.579 570.575 121.597 570.343 121.597H569.996C569.896 121.491 569.847 121.412 569.847 121.359Z" fill="white"/>
<path d="M534 124.745C534 122.823 534.712 121.094 536.135 119.56C537.558 118.025 539.097 117.258 540.752 117.258C541.679 117.258 542.407 117.47 542.937 117.893C543.466 118.316 543.74 118.872 543.756 119.56C543.756 120.071 543.599 120.503 543.284 120.856C542.97 121.209 542.573 121.394 542.093 121.412C541.778 121.412 541.53 121.324 541.348 121.147C541.166 120.971 541.075 120.706 541.075 120.354C541.075 120.001 541.166 119.701 541.348 119.454C541.53 119.207 541.712 119.022 541.894 118.898C542.076 118.775 542.192 118.722 542.242 118.74H542.267C542.267 118.704 542.217 118.652 542.118 118.581C542.018 118.51 541.845 118.44 541.596 118.369C541.348 118.299 541.067 118.263 540.752 118.263C540.256 118.263 539.784 118.387 539.337 118.634C538.99 118.793 538.634 119.066 538.27 119.454C537.542 120.23 537.012 121.324 536.681 122.735C536.35 124.146 536.176 125.169 536.16 125.804C536.16 126.615 536.375 127.223 536.805 127.629C537.169 128.052 537.649 128.264 538.245 128.264H538.344C540.198 128.264 541.729 127.514 542.937 126.015C543.086 125.839 543.185 125.751 543.235 125.751C543.301 125.751 543.409 125.83 543.557 125.989C543.706 126.148 543.789 126.271 543.806 126.359C543.822 126.447 543.748 126.58 543.582 126.756C543.417 126.932 543.177 127.179 542.862 127.497C542.548 127.814 542.176 128.079 541.745 128.291C541.315 128.502 540.785 128.723 540.157 128.952C539.528 129.181 538.866 129.278 538.171 129.243C536.929 129.243 535.928 128.82 535.167 127.973C534.405 127.126 534.017 126.051 534 124.745Z" stroke="white"/>
<path d="M544.426 121.359C544.426 121.218 544.501 120.944 544.65 120.539C544.799 120.133 545.006 119.675 545.27 119.163C545.535 118.652 545.899 118.211 546.363 117.84C546.826 117.47 547.314 117.276 547.827 117.258C548.589 117.258 549.16 117.479 549.54 117.92C549.921 118.36 550.111 118.881 550.111 119.48C550.111 119.798 549.83 120.786 549.267 122.444C548.704 124.102 548.423 125.345 548.423 126.174C548.423 126.932 548.539 127.462 548.771 127.761C549.002 128.061 549.35 128.22 549.813 128.238C550.277 128.255 550.715 128.105 551.129 127.788C551.543 127.47 551.849 127.171 552.047 126.888L552.321 126.439C552.354 126.368 552.668 125.028 553.264 122.417C553.76 120.301 554.058 119.066 554.158 118.713C554.257 118.36 554.373 118.105 554.505 117.946C554.786 117.681 555.084 117.549 555.399 117.549C555.68 117.549 555.887 117.637 556.019 117.814C556.152 117.99 556.218 118.158 556.218 118.316L554.331 126.73C554.315 126.818 554.307 126.959 554.307 127.153C554.307 127.594 554.364 127.885 554.48 128.026C554.596 128.167 554.77 128.246 555.002 128.264C555.366 128.211 555.655 127.938 555.87 127.444C556.086 126.95 556.334 126.174 556.615 125.116C556.648 124.975 556.814 124.904 557.112 124.904C557.426 124.904 557.583 124.983 557.583 125.142C557.567 125.23 557.55 125.354 557.534 125.513C557.517 125.671 557.443 125.954 557.31 126.359C557.178 126.765 557.037 127.144 556.888 127.497C556.739 127.85 556.532 128.185 556.268 128.502C556.003 128.82 555.705 129.04 555.374 129.164C555.242 129.199 555.043 129.216 554.778 129.216C553.686 129.216 552.933 128.723 552.519 127.735C552.486 127.753 552.395 127.841 552.246 127.999C552.097 128.158 551.948 128.291 551.799 128.396C551.65 128.502 551.468 128.634 551.253 128.793C551.038 128.952 550.798 129.058 550.533 129.111C550.268 129.164 549.987 129.208 549.689 129.243C548.961 129.243 548.316 129.084 547.753 128.767C546.892 128.22 546.462 127.285 546.462 125.962C546.462 124.957 546.752 123.643 547.331 122.02C547.91 120.398 548.2 119.366 548.2 118.925C548.2 118.907 548.2 118.89 548.2 118.872C548.2 118.713 548.2 118.607 548.2 118.555C548.2 118.502 548.167 118.44 548.1 118.369C548.034 118.299 547.943 118.263 547.827 118.263H547.728C547.347 118.263 547 118.431 546.685 118.766C546.371 119.101 546.123 119.463 545.941 119.851C545.759 120.239 545.618 120.609 545.519 120.962C545.419 121.315 545.353 121.509 545.32 121.544C545.287 121.579 545.155 121.597 544.923 121.597H544.575C544.476 121.491 544.426 121.412 544.426 121.359Z" stroke="white"/>
<path d="M558.651 121.359C558.667 121.306 558.684 121.235 558.7 121.147C558.717 121.059 558.758 120.865 558.825 120.565C558.891 120.265 558.974 119.992 559.073 119.745C559.172 119.498 559.296 119.207 559.445 118.872C559.594 118.537 559.76 118.272 559.942 118.078C560.124 117.884 560.339 117.69 560.587 117.496C560.835 117.302 561.108 117.223 561.406 117.258C561.886 117.258 562.308 117.364 562.672 117.576C563.037 117.787 563.293 117.981 563.442 118.158C563.591 118.334 563.682 118.51 563.715 118.687C563.748 118.793 563.773 118.846 563.79 118.846C563.806 118.846 563.872 118.784 563.988 118.66C564.783 117.743 565.701 117.285 566.744 117.285H566.818C567.613 117.285 568.208 117.646 568.606 118.369C568.738 118.704 568.804 119.031 568.804 119.348C568.804 119.877 568.697 120.301 568.481 120.618C568.266 120.936 568.051 121.138 567.836 121.227C567.621 121.315 567.414 121.35 567.215 121.332C566.884 121.332 566.62 121.235 566.421 121.041C566.222 120.847 566.123 120.592 566.123 120.274C566.123 119.428 566.586 118.863 567.513 118.581C567.149 118.352 566.851 118.237 566.62 118.237C565.693 118.237 564.84 118.89 564.063 120.195C563.897 120.477 563.773 120.768 563.69 121.068C563.607 121.368 563.326 122.541 562.846 124.587C562.284 127.056 561.961 128.37 561.878 128.529C561.663 129.005 561.307 129.243 560.811 129.243C560.595 129.243 560.422 129.19 560.289 129.084C560.157 128.978 560.066 128.873 560.016 128.767C559.967 128.661 559.95 128.573 559.967 128.502C559.967 128.273 560.298 126.756 560.96 123.952C561.622 121.147 561.953 119.586 561.953 119.269C561.953 118.581 561.737 118.237 561.307 118.237C560.96 118.237 560.662 118.484 560.413 118.978C560.165 119.472 559.967 120.01 559.818 120.592C559.669 121.174 559.578 121.491 559.545 121.544C559.511 121.579 559.379 121.597 559.147 121.597H558.8C558.7 121.491 558.651 121.412 558.651 121.359Z" stroke="white"/>
<path d="M569.847 121.359C569.863 121.306 569.88 121.235 569.896 121.147C569.913 121.059 569.954 120.865 570.021 120.565C570.087 120.265 570.169 119.992 570.269 119.745C570.368 119.498 570.492 119.207 570.641 118.872C570.79 118.537 570.956 118.272 571.138 118.078C571.32 117.884 571.535 117.69 571.783 117.496C572.031 117.302 572.304 117.223 572.602 117.258C573.082 117.258 573.504 117.364 573.868 117.576C574.232 117.787 574.489 117.981 574.638 118.158C574.787 118.334 574.878 118.51 574.911 118.687C574.944 118.793 574.969 118.846 574.985 118.846C575.002 118.846 575.068 118.784 575.184 118.66C575.978 117.743 576.897 117.285 577.94 117.285H578.014C578.808 117.285 579.404 117.646 579.801 118.369C579.934 118.704 580 119.031 580 119.348C580 119.877 579.892 120.301 579.677 120.618C579.462 120.936 579.247 121.138 579.032 121.227C578.817 121.315 578.61 121.35 578.411 121.332C578.08 121.332 577.815 121.235 577.617 121.041C577.418 120.847 577.319 120.592 577.319 120.274C577.319 119.428 577.782 118.863 578.709 118.581C578.345 118.352 578.047 118.237 577.815 118.237C576.889 118.237 576.036 118.89 575.258 120.195C575.093 120.477 574.969 120.768 574.886 121.068C574.803 121.368 574.522 122.541 574.042 124.587C573.479 127.056 573.157 128.37 573.074 128.529C572.859 129.005 572.503 129.243 572.006 129.243C571.791 129.243 571.618 129.19 571.485 129.084C571.353 128.978 571.262 128.873 571.212 128.767C571.162 128.661 571.146 128.573 571.162 128.502C571.162 128.273 571.493 126.756 572.155 123.952C572.817 121.147 573.148 119.586 573.148 119.269C573.148 118.581 572.933 118.237 572.503 118.237C572.155 118.237 571.858 118.484 571.609 118.978C571.361 119.472 571.162 120.01 571.013 120.592C570.865 121.174 570.774 121.491 570.74 121.544C570.707 121.579 570.575 121.597 570.343 121.597H569.996C569.896 121.491 569.847 121.412 569.847 121.359Z" stroke="white"/>
<path d="M348.951 232.323C349.537 232.909 350.487 232.909 351.072 232.323C351.658 231.737 351.658 230.787 351.072 230.202L348.951 232.323ZM309 190.25L313.482 206.98L325.73 194.733L309 190.25ZM351.072 230.202L319.606 198.735L317.485 200.857L348.951 232.323L351.072 230.202Z" fill="#20C831"/>
<path d="M526.55 116.085C527.011 115.781 527.139 115.161 526.835 114.7C526.531 114.239 525.911 114.111 525.45 114.415L526.55 116.085ZM350 231.25L361.527 230.568L355.172 220.926L350 231.25ZM525.45 114.415L356.964 225.462L358.065 227.132L526.55 116.085L525.45 114.415Z" fill="#EB5757"/>
<circle cx="485" cy="74.25" r="4" fill="#20C831"/>
<path d="M495 66.4363C495 64.4954 495.75 62.6506 497.249 60.9019C498.749 59.1532 500.436 58.2692 502.311 58.25C503.317 58.25 504.205 58.7208 504.975 59.6624C505.29 59.0859 505.744 58.7977 506.336 58.7977C506.593 58.7977 506.82 58.8745 507.017 59.0283C507.214 59.182 507.313 59.3742 507.313 59.6048C507.313 59.8546 506.948 61.3919 506.218 64.2167C505.488 67.0416 505.113 68.6365 505.093 69.0017C505.093 69.4821 505.162 69.7991 505.3 69.9529C505.438 70.1066 505.646 70.1931 505.922 70.2123C506.099 70.1931 506.297 70.1066 506.514 69.9529C506.928 69.5686 507.333 68.6462 507.727 67.1857C507.846 66.8014 507.944 66.5996 508.023 66.5804C508.063 66.5612 508.161 66.5516 508.319 66.5516H508.438C508.813 66.5516 509 66.638 509 66.811C509 66.9263 508.951 67.1857 508.852 67.5892C508.753 67.9928 508.556 68.5116 508.26 69.1458C507.964 69.7799 507.648 70.2603 507.313 70.587C507.056 70.8368 506.741 71.0386 506.366 71.1923C506.208 71.2308 505.971 71.25 505.655 71.25C504.984 71.25 504.422 71.1059 503.968 70.8176C503.514 70.5294 503.218 70.2315 503.08 69.9241L502.903 69.4917C502.883 69.4725 502.844 69.4821 502.784 69.5205C502.745 69.5589 502.705 69.5974 502.666 69.6358C501.502 70.7119 500.318 71.25 499.114 71.25C498.029 71.25 497.072 70.8657 496.243 70.097C495.414 69.3283 495 68.1081 495 66.4363ZM504.412 61.5072C504.412 61.3919 504.363 61.1805 504.264 60.8731C504.166 60.5656 503.939 60.2293 503.584 59.8642C503.228 59.4991 502.774 59.3069 502.222 59.2877C501.531 59.2877 500.87 59.5856 500.239 60.1813C499.607 60.777 499.114 61.5552 498.759 62.5161C498.187 64.0342 497.782 65.6099 497.545 67.2433C497.545 67.301 497.545 67.4067 497.545 67.5604C497.545 67.7142 497.536 67.8295 497.516 67.9063C497.516 68.7711 497.693 69.3668 498.049 69.6935C498.404 70.0201 498.828 70.1931 499.321 70.2123C500.071 70.2123 500.811 69.8952 501.541 69.2611C502.271 68.6269 502.705 68.1369 502.844 67.791C502.883 67.7142 503.149 66.6861 503.643 64.7068C504.136 62.7275 504.393 61.6609 504.412 61.5072Z" fill="white"/>
<path d="M286.428 181.582C286.447 181.582 287.131 181.534 288.479 181.438C289.828 181.343 290.521 181.286 290.559 181.267C290.787 181.267 290.901 181.343 290.901 181.496C290.901 181.629 290.208 184.513 288.821 190.147C287.435 195.781 286.723 198.655 286.685 198.77C286.647 198.885 286.637 199.028 286.656 199.2C286.656 200.002 286.922 200.403 287.454 200.403C287.625 200.384 287.815 200.298 288.024 200.145C288.422 199.763 288.812 198.846 289.192 197.395C289.306 197.013 289.401 196.812 289.476 196.793C289.514 196.774 289.609 196.765 289.761 196.765H289.875H289.989C290.274 196.765 290.417 196.841 290.417 196.994C290.417 197.089 290.388 197.242 290.331 197.452C290.084 198.407 289.799 199.181 289.476 199.773C289.154 200.365 288.888 200.747 288.679 200.918C288.47 201.09 288.204 201.243 287.881 201.377C287.729 201.415 287.501 201.434 287.198 201.434C286.552 201.434 286.011 201.291 285.574 201.004C285.137 200.718 284.852 200.422 284.719 200.116L284.548 199.687C284.529 199.668 284.491 199.677 284.434 199.715C284.396 199.753 284.358 199.792 284.32 199.83C283.2 200.899 282.06 201.434 280.902 201.434C279.858 201.434 278.936 201.052 278.139 200.288C277.341 199.524 276.942 198.312 276.942 196.65C276.942 195.733 277.132 194.798 277.512 193.843C277.892 192.888 278.348 192.067 278.879 191.379C279.772 190.29 280.665 189.536 281.557 189.116C282.45 188.696 283.257 188.486 283.979 188.486C285.042 188.486 285.84 188.887 286.371 189.689C286.466 189.803 286.514 189.842 286.514 189.803C286.533 189.727 286.789 188.686 287.283 186.681C287.777 184.676 288.043 183.616 288.081 183.501C288.081 183.253 288.014 183.1 287.881 183.043C287.748 182.985 287.378 182.938 286.77 182.899H286.172C286.058 182.785 286.001 182.709 286.001 182.67C286.001 182.632 286.02 182.451 286.058 182.126C286.153 181.763 286.276 181.582 286.428 181.582ZM286.03 191.809C285.593 190.3 284.881 189.546 283.893 189.546C283.228 189.546 282.592 189.842 281.985 190.434C281.377 191.026 280.902 191.799 280.56 192.754C280.009 194.263 279.62 195.829 279.392 197.452C279.392 197.509 279.392 197.614 279.392 197.767C279.392 197.92 279.383 198.035 279.364 198.111C279.364 198.97 279.535 199.562 279.877 199.887C280.218 200.212 280.627 200.384 281.101 200.403C282.127 200.403 283.181 199.715 284.263 198.34L284.491 198.025L286.03 191.809Z" fill="white"/>
<path d="M291.841 196.65C291.841 194.721 292.562 192.888 294.006 191.15C295.449 189.412 297.073 188.533 298.877 188.514C299.846 188.514 300.7 188.982 301.441 189.918C301.745 189.345 302.181 189.059 302.751 189.059C302.998 189.059 303.216 189.135 303.406 189.288C303.596 189.441 303.691 189.632 303.691 189.861C303.691 190.109 303.34 191.637 302.637 194.444C301.935 197.252 301.574 198.837 301.555 199.2C301.555 199.677 301.621 199.992 301.754 200.145C301.887 200.298 302.087 200.384 302.352 200.403C302.523 200.384 302.713 200.298 302.922 200.145C303.321 199.763 303.71 198.846 304.09 197.395C304.204 197.013 304.299 196.812 304.375 196.793C304.413 196.774 304.508 196.765 304.66 196.765H304.774C305.135 196.765 305.315 196.851 305.315 197.022C305.315 197.137 305.268 197.395 305.173 197.796C305.078 198.197 304.888 198.713 304.603 199.343C304.318 199.973 304.014 200.451 303.691 200.775C303.444 201.023 303.141 201.224 302.78 201.377C302.628 201.415 302.4 201.434 302.096 201.434C301.45 201.434 300.909 201.291 300.472 201.004C300.035 200.718 299.751 200.422 299.618 200.116L299.447 199.687C299.428 199.668 299.39 199.677 299.333 199.715C299.295 199.753 299.257 199.792 299.219 199.83C298.098 200.899 296.959 201.434 295.8 201.434C294.756 201.434 293.835 201.052 293.037 200.288C292.24 199.524 291.841 198.312 291.841 196.65ZM300.9 191.751C300.9 191.637 300.852 191.427 300.757 191.121C300.662 190.816 300.444 190.481 300.102 190.119C299.76 189.756 299.323 189.565 298.792 189.546C298.127 189.546 297.491 189.842 296.883 190.434C296.275 191.026 295.8 191.799 295.459 192.754C294.908 194.263 294.519 195.829 294.291 197.452C294.291 197.509 294.291 197.614 294.291 197.767C294.291 197.92 294.281 198.035 294.262 198.111C294.262 198.97 294.433 199.562 294.775 199.887C295.117 200.212 295.525 200.384 296 200.403C296.722 200.403 297.434 200.088 298.136 199.457C298.839 198.827 299.257 198.34 299.39 197.996C299.428 197.92 299.684 196.898 300.159 194.931C300.634 192.964 300.881 191.904 300.9 191.751Z" fill="white"/>
<path d="M80.6667 65.6399C80.69 65.6399 81.5309 65.5808 83.1892 65.4627C84.8475 65.3445 85.7 65.2736 85.7467 65.25C86.027 65.25 86.1672 65.3445 86.1672 65.5336C86.1672 65.699 85.3146 69.2674 83.6096 76.2388C81.9046 83.2101 81.0287 86.7667 80.982 86.9085C80.9353 87.0503 80.9236 87.2275 80.9469 87.4402C80.9469 88.4327 81.2739 88.929 81.9279 88.929C82.1381 88.9054 82.3717 88.799 82.6286 88.61C83.1191 88.1373 83.5979 87.003 84.0651 85.207C84.2052 84.7344 84.322 84.4862 84.4154 84.4626C84.4621 84.439 84.5789 84.4271 84.7658 84.4271H85.046C85.3964 84.4271 85.5716 84.5217 85.5716 84.7107C85.5716 84.8289 85.5365 85.0179 85.4665 85.2779C85.1628 86.4595 84.8125 87.4166 84.4154 88.1491C84.0184 88.8817 83.6914 89.3544 83.4344 89.567C83.1775 89.7797 82.8505 89.9688 82.4535 90.1342C82.2666 90.1815 81.9863 90.2051 81.6126 90.2051C80.8185 90.2051 80.1528 90.0279 79.6156 89.6734C79.0784 89.3189 78.7281 88.9526 78.5646 88.5745L78.3544 88.0428C78.331 88.0192 78.2843 88.031 78.2142 88.0782C78.1675 88.1255 78.1208 88.1728 78.0741 88.22C76.696 89.5434 75.2946 90.2051 73.8699 90.2051C72.5853 90.2051 71.4525 89.7325 70.4715 88.7872C69.4905 87.8419 69 86.3413 69 84.2854C69 83.151 69.2336 81.9931 69.7007 80.8115C70.1678 79.6299 70.7284 78.6137 71.3824 77.763C72.4801 76.416 73.5779 75.4825 74.6757 74.9626C75.7734 74.4427 76.7661 74.1828 77.6537 74.1828C78.9616 74.1828 79.9426 74.6791 80.5966 75.6716C80.7134 75.8134 80.7718 75.8606 80.7718 75.8134C80.7951 75.7189 81.1104 74.4309 81.7177 71.9496C82.325 69.4683 82.652 68.1567 82.6987 68.0149C82.6987 67.7077 82.6169 67.5186 82.4535 67.4478C82.29 67.3769 81.8345 67.3178 81.0871 67.2705H80.3514C80.2112 67.1287 80.1411 67.0342 80.1411 66.9869C80.1411 66.9397 80.1645 66.7152 80.2112 66.3134C80.328 65.8644 80.4798 65.6399 80.6667 65.6399ZM80.1762 78.2947C79.639 76.4278 78.7631 75.4944 77.5485 75.4944C76.7311 75.4944 75.9486 75.8606 75.2012 76.5932C74.4538 77.3258 73.8699 78.2829 73.4494 79.4645C72.7721 81.3314 72.2933 83.2692 72.013 85.2779C72.013 85.3488 72.013 85.4788 72.013 85.6678C72.013 85.8569 72.0013 85.9987 71.978 86.0932C71.978 87.1566 72.1882 87.8892 72.6086 88.2909C73.029 88.6927 73.5312 88.9054 74.1151 88.929C75.3764 88.929 76.6727 88.0782 78.004 86.3768L78.2843 85.9868L80.1762 78.2947Z" fill="white"/>
<path d="M87.3233 84.2854C87.3233 81.8985 88.2109 79.6299 89.986 77.4794C91.7611 75.3289 93.7581 74.2419 95.977 74.2182C97.1682 74.2182 98.2192 74.7972 99.1301 75.9552C99.5038 75.2462 100.041 74.8917 100.742 74.8917C101.045 74.8917 101.314 74.9863 101.548 75.1753C101.781 75.3644 101.898 75.6007 101.898 75.8843C101.898 76.1915 101.466 78.082 100.602 81.5559C99.7374 85.0298 99.2936 86.9912 99.2703 87.4402C99.2703 88.031 99.352 88.4209 99.5155 88.61C99.679 88.799 99.9243 88.9054 100.251 88.929C100.461 88.9054 100.695 88.799 100.952 88.61C101.442 88.1373 101.921 87.003 102.388 85.207C102.529 84.7344 102.645 84.4862 102.739 84.4626C102.785 84.439 102.902 84.4271 103.089 84.4271H103.229C103.673 84.4271 103.895 84.5335 103.895 84.7462C103.895 84.888 103.837 85.207 103.72 85.7033C103.603 86.1995 103.369 86.8376 103.019 87.6174C102.669 88.3973 102.295 88.9881 101.898 89.3898C101.594 89.697 101.221 89.9452 100.777 90.1342C100.59 90.1815 100.31 90.2051 99.9359 90.2051C99.1418 90.2051 98.4761 90.0279 97.9389 89.6734C97.4017 89.3189 97.0514 88.9526 96.8879 88.5745L96.6777 88.0428C96.6543 88.0192 96.6076 88.031 96.5375 88.0782C96.4908 88.1255 96.4441 88.1728 96.3974 88.22C95.0194 89.5434 93.6179 90.2051 92.1932 90.2051C90.9086 90.2051 89.7758 89.7325 88.7948 88.7872C87.8138 87.8419 87.3233 86.3413 87.3233 84.2854ZM98.4645 78.2238C98.4645 78.082 98.4061 77.8221 98.2893 77.444C98.1725 77.0659 97.9039 76.6523 97.4835 76.2033C97.0631 75.7543 96.5259 75.518 95.8719 75.4944C95.0544 75.4944 94.2719 75.8606 93.5245 76.5932C92.7771 77.3258 92.1932 78.2829 91.7728 79.4645C91.0954 81.3314 90.6166 83.2692 90.3363 85.2779C90.3363 85.3488 90.3363 85.4788 90.3363 85.6678C90.3363 85.8569 90.3247 85.9987 90.3013 86.0932C90.3013 87.1566 90.5115 87.8892 90.9319 88.2909C91.3524 88.6927 91.8545 88.9054 92.4384 88.929C93.326 88.929 94.2019 88.5391 95.0661 87.7592C95.9303 86.9794 96.4441 86.3768 96.6076 85.9514C96.6543 85.8569 96.9696 84.5926 97.5536 82.1585C98.1375 79.7244 98.4411 78.4129 98.4645 78.2238Z" fill="white"/>
<path d="M116.402 77.5503C116.402 77.2431 116.566 77.0068 116.893 76.8414H139.21C139.561 77.0304 139.736 77.2667 139.736 77.5503C139.736 77.8103 139.572 78.0348 139.245 78.2238L128.104 78.2593H116.963C116.589 78.1411 116.402 77.9048 116.402 77.5503ZM116.402 84.4271C116.402 84.0727 116.589 83.8364 116.963 83.7182H139.245C139.572 83.9545 139.736 84.1908 139.736 84.4271C139.736 84.7344 139.561 84.9707 139.21 85.1361H116.893C116.566 84.9707 116.402 84.7344 116.402 84.4271Z" fill="white"/>
<path d="M152.629 84.2854C152.629 81.8985 153.516 79.6299 155.291 77.4794C157.066 75.3289 159.063 74.2419 161.282 74.2182C162.473 74.2182 163.525 74.7972 164.435 75.9552C164.809 75.2462 165.346 74.8917 166.047 74.8917C166.351 74.8917 166.619 74.9863 166.853 75.1753C167.086 75.3644 167.203 75.6007 167.203 75.8843C167.203 76.1915 166.771 78.082 165.907 81.5559C165.043 85.0298 164.599 86.9912 164.576 87.4402C164.576 88.031 164.657 88.4209 164.821 88.61C164.984 88.799 165.23 88.9054 165.557 88.929C165.767 88.9054 166 88.799 166.257 88.61C166.748 88.1373 167.227 87.003 167.694 85.207C167.834 84.7344 167.951 84.4862 168.044 84.4626C168.091 84.439 168.208 84.4271 168.394 84.4271H168.535C168.978 84.4271 169.2 84.5335 169.2 84.7462C169.2 84.888 169.142 85.207 169.025 85.7033C168.908 86.1995 168.675 86.8376 168.324 87.6174C167.974 88.3973 167.6 88.9881 167.203 89.3898C166.9 89.697 166.526 89.9452 166.082 90.1342C165.895 90.1815 165.615 90.2051 165.241 90.2051C164.447 90.2051 163.781 90.0279 163.244 89.6734C162.707 89.3189 162.357 88.9526 162.193 88.5745L161.983 88.0428C161.96 88.0192 161.913 88.031 161.843 88.0782C161.796 88.1255 161.749 88.1728 161.703 88.22C160.325 89.5434 158.923 90.2051 157.498 90.2051C156.214 90.2051 155.081 89.7325 154.1 88.7872C153.119 87.8419 152.629 86.3413 152.629 84.2854ZM163.77 78.2238C163.77 78.082 163.711 77.8221 163.595 77.444C163.478 77.0659 163.209 76.6523 162.789 76.2033C162.368 75.7543 161.831 75.518 161.177 75.4944C160.36 75.4944 159.577 75.8606 158.83 76.5932C158.082 77.3258 157.498 78.2829 157.078 79.4645C156.401 81.3314 155.922 83.2692 155.642 85.2779C155.642 85.3488 155.642 85.4788 155.642 85.6678C155.642 85.8569 155.63 85.9987 155.607 86.0932C155.607 87.1566 155.817 87.8892 156.237 88.2909C156.658 88.6927 157.16 88.9054 157.744 88.929C158.631 88.929 159.507 88.5391 160.371 87.7592C161.236 86.9794 161.749 86.3768 161.913 85.9514C161.96 85.8569 162.275 84.5926 162.859 82.1585C163.443 79.7244 163.746 78.4129 163.77 78.2238Z" fill="white"/>
<path d="M180.727 81.4495C180.727 81.4495 180.727 81.2959 180.727 80.9887C180.727 80.6815 180.89 80.4452 181.217 80.2798H201.573C201.923 80.4688 202.098 80.7051 202.098 80.9887C202.098 81.2723 201.923 81.5086 201.573 81.6977H181.217C180.89 81.5323 180.727 81.2959 180.727 80.9887V81.4495Z" fill="white"/>
<path d="M214.045 84.2145C214.045 81.6386 215.049 79.3227 217.058 77.2667C219.067 75.2108 221.239 74.1828 223.575 74.1828C224.883 74.1828 225.91 74.4664 226.658 75.0335C227.405 75.6007 227.79 76.3451 227.814 77.2667C227.814 77.9521 227.592 78.531 227.148 79.0037C226.704 79.4763 226.144 79.7244 225.466 79.7481C225.023 79.7481 224.672 79.6299 224.415 79.3936C224.159 79.1573 224.03 78.8028 224.03 78.3302C224.03 77.8575 224.159 77.4558 224.415 77.1249C224.672 76.7941 224.929 76.546 225.186 76.3805C225.443 76.2151 225.607 76.1442 225.677 76.1679H225.712C225.712 76.1206 225.642 76.0497 225.502 75.9552C225.361 75.8606 225.116 75.7661 224.766 75.6716C224.415 75.5771 224.018 75.5298 223.575 75.5298C222.874 75.5298 222.208 75.6952 221.578 76.0261C221.087 76.2388 220.585 76.605 220.071 77.1249C219.043 78.1647 218.296 79.6299 217.829 81.5204C217.362 83.411 217.116 84.7816 217.093 85.6324C217.093 86.7194 217.397 87.5347 218.004 88.0782C218.518 88.6454 219.195 88.929 220.036 88.929H220.176C222.792 88.929 224.953 87.9246 226.658 85.9159C226.868 85.6796 227.008 85.5615 227.078 85.5615C227.172 85.5615 227.323 85.6678 227.534 85.8805C227.744 86.0932 227.861 86.2586 227.884 86.3768C227.907 86.4949 227.802 86.6722 227.569 86.9085C227.335 87.1448 226.996 87.4756 226.553 87.901C226.109 88.3264 225.583 88.6809 224.976 88.9644C224.369 89.248 223.621 89.5434 222.734 89.8506C221.846 90.1578 220.912 90.2878 219.931 90.2405C218.179 90.2405 216.766 89.6734 215.692 88.5391C214.617 87.4047 214.068 85.9632 214.045 84.2145Z" fill="white"/>
<path d="M228.795 79.6772C228.795 79.4881 228.9 79.1218 229.11 78.5783C229.32 78.0348 229.612 77.4203 229.986 76.735C230.36 76.0497 230.874 75.4589 231.528 74.9626C232.182 74.4664 232.871 74.2064 233.595 74.1828C234.669 74.1828 235.475 74.4782 236.012 75.069C236.549 75.6598 236.818 76.3569 236.818 77.1604C236.818 77.5858 236.421 78.9091 235.627 81.1305C234.833 83.3519 234.435 85.0179 234.435 86.1286C234.435 87.1448 234.599 87.8537 234.926 88.2555C235.253 88.6572 235.743 88.8699 236.397 88.8935C237.051 88.9172 237.67 88.7163 238.254 88.2909C238.838 87.8656 239.27 87.4638 239.551 87.0857L239.936 86.4831C239.983 86.3886 240.426 84.5926 241.267 81.0951C241.968 78.2593 242.388 76.605 242.529 76.1324C242.669 75.6598 242.832 75.3171 243.019 75.1044C243.416 74.75 243.837 74.5727 244.28 74.5727C244.677 74.5727 244.969 74.6909 245.156 74.9272C245.343 75.1635 245.436 75.388 245.436 75.6007L242.774 86.873C242.75 86.9912 242.739 87.1802 242.739 87.4402C242.739 88.031 242.82 88.4209 242.984 88.61C243.147 88.799 243.393 88.9054 243.72 88.929C244.234 88.8581 244.642 88.4918 244.946 87.8301C245.25 87.1684 245.6 86.1286 245.997 84.7107C246.044 84.5217 246.277 84.4271 246.698 84.4271C247.141 84.4271 247.363 84.5335 247.363 84.7462C247.34 84.8643 247.317 85.0298 247.293 85.2424C247.27 85.4551 247.165 85.8332 246.978 86.3768C246.791 86.9203 246.593 87.4284 246.382 87.901C246.172 88.3736 245.88 88.8226 245.507 89.248C245.133 89.6734 244.712 89.9688 244.245 90.1342C244.058 90.1815 243.778 90.2051 243.404 90.2051C241.863 90.2051 240.8 89.5434 240.216 88.22C240.17 88.2437 240.041 88.3618 239.831 88.5745C239.621 88.7872 239.41 88.9644 239.2 89.1062C238.99 89.248 238.733 89.4253 238.429 89.6379C238.126 89.8506 237.787 89.9924 237.413 90.0633C237.04 90.1342 236.643 90.1933 236.222 90.2405C235.195 90.2405 234.284 90.0279 233.49 89.6025C232.275 88.8699 231.668 87.6174 231.668 85.845C231.668 84.498 232.076 82.7375 232.894 80.5634C233.711 78.3892 234.12 77.0068 234.12 76.416C234.12 76.3924 234.12 76.3687 234.12 76.3451C234.12 76.1324 234.12 75.9906 234.12 75.9197C234.12 75.8488 234.073 75.7661 233.98 75.6716C233.887 75.5771 233.758 75.5298 233.595 75.5298H233.454C232.917 75.5298 232.427 75.7543 231.983 76.2033C231.539 76.6523 231.189 77.1368 230.932 77.6567C230.675 78.1766 230.476 78.6728 230.336 79.1455C230.196 79.6181 230.103 79.878 230.056 79.9253C230.009 79.9726 229.822 79.9962 229.496 79.9962H229.005C228.865 79.8544 228.795 79.7481 228.795 79.6772Z" fill="white"/>
<path d="M248.835 79.6772C248.858 79.6063 248.882 79.5117 248.905 79.3936C248.928 79.2754 248.987 79.0155 249.08 78.6137C249.174 78.212 249.29 77.8457 249.43 77.5149C249.571 77.184 249.746 76.7941 249.956 76.3451C250.166 75.8961 250.4 75.5416 250.657 75.2817C250.914 75.0217 251.217 74.7618 251.568 74.5018C251.918 74.2419 252.303 74.1355 252.724 74.1828C253.401 74.1828 253.997 74.3246 254.511 74.6082C255.024 74.8917 255.386 75.1517 255.597 75.388C255.807 75.6243 255.935 75.8606 255.982 76.097C256.029 76.2388 256.064 76.3096 256.087 76.3096C256.11 76.3096 256.204 76.2269 256.367 76.0615C257.489 74.8327 258.785 74.2182 260.256 74.2182H260.361C261.482 74.2182 262.323 74.7027 262.884 75.6716C263.071 76.1206 263.164 76.5578 263.164 76.9832C263.164 77.6921 263.012 78.2593 262.709 78.6846C262.405 79.11 262.101 79.3818 261.798 79.4999C261.494 79.6181 261.202 79.6654 260.922 79.6417C260.455 79.6417 260.081 79.5117 259.801 79.2518C259.521 78.9918 259.38 78.6492 259.38 78.2238C259.38 77.0895 260.034 76.3333 261.342 75.9552C260.828 75.648 260.408 75.4944 260.081 75.4944C258.773 75.4944 257.57 76.3687 256.472 78.1175C256.239 78.4956 256.064 78.8855 255.947 79.2872C255.83 79.689 255.433 81.2605 254.756 84.0018C253.962 87.3102 253.506 89.0708 253.389 89.2835C253.086 89.9215 252.584 90.2405 251.883 90.2405C251.579 90.2405 251.334 90.1697 251.147 90.0279C250.96 89.8861 250.832 89.7443 250.762 89.6025C250.692 89.4607 250.668 89.3425 250.692 89.248C250.692 88.9408 251.159 86.9085 252.093 83.151C253.027 79.3936 253.495 77.3022 253.495 76.8768C253.495 75.9552 253.191 75.4944 252.584 75.4944C252.093 75.4944 251.673 75.8252 251.322 76.4869C250.972 77.1486 250.692 77.8693 250.481 78.6492C250.271 79.429 250.143 79.8544 250.096 79.9253C250.049 79.9726 249.863 79.9962 249.536 79.9962H249.045C248.905 79.8544 248.835 79.7481 248.835 79.6772Z" fill="white"/>
<path d="M264.671 79.6772C264.694 79.6063 264.717 79.5117 264.741 79.3936C264.764 79.2754 264.822 79.0155 264.916 78.6137C265.009 78.212 265.126 77.8457 265.266 77.5149C265.406 77.184 265.582 76.7941 265.792 76.3451C266.002 75.8961 266.236 75.5416 266.492 75.2817C266.749 75.0217 267.053 74.7618 267.403 74.5018C267.754 74.2419 268.139 74.1355 268.56 74.1828C269.237 74.1828 269.833 74.3246 270.346 74.6082C270.86 74.8917 271.222 75.1517 271.432 75.388C271.643 75.6243 271.771 75.8606 271.818 76.097C271.865 76.2388 271.9 76.3096 271.923 76.3096C271.946 76.3096 272.04 76.2269 272.203 76.0615C273.324 74.8327 274.621 74.2182 276.092 74.2182H276.197C277.318 74.2182 278.159 74.7027 278.72 75.6716C278.907 76.1206 279 76.5578 279 76.9832C279 77.6921 278.848 78.2593 278.545 78.6846C278.241 79.11 277.937 79.3818 277.634 79.4999C277.33 79.6181 277.038 79.6654 276.758 79.6417C276.291 79.6417 275.917 79.5117 275.637 79.2518C275.356 78.9918 275.216 78.6492 275.216 78.2238C275.216 77.0895 275.87 76.3333 277.178 75.9552C276.664 75.648 276.244 75.4944 275.917 75.4944C274.609 75.4944 273.406 76.3687 272.308 78.1175C272.075 78.4956 271.9 78.8855 271.783 79.2872C271.666 79.689 271.269 81.2605 270.592 84.0018C269.797 87.3102 269.342 89.0708 269.225 89.2835C268.922 89.9215 268.419 90.2405 267.719 90.2405C267.415 90.2405 267.17 90.1697 266.983 90.0279C266.796 89.8861 266.668 89.7443 266.598 89.6025C266.528 89.4607 266.504 89.3425 266.528 89.248C266.528 88.9408 266.995 86.9085 267.929 83.151C268.863 79.3936 269.33 77.3022 269.33 76.8768C269.33 75.9552 269.027 75.4944 268.419 75.4944C267.929 75.4944 267.509 75.8252 267.158 76.4869C266.808 77.1486 266.528 77.8693 266.317 78.6492C266.107 79.429 265.979 79.8544 265.932 79.9253C265.885 79.9726 265.698 79.9962 265.371 79.9962H264.881C264.741 79.8544 264.671 79.7481 264.671 79.6772Z" fill="white"/>
</g>
<defs>
<clipPath id="clip0_588_6710">
<rect width="700" height="290" fill="white" transform="translate(0 0.25)"/>
</clipPath>
<clipPath id="clip1_588_6710">
<rect width="1284" height="1284" fill="white" transform="translate(-292 -409.75)"/>
</clipPath>
</defs>
</svg>
