<svg width="700" height="233" viewBox="0 0 700 233" fill="none" xmlns="http://www.w3.org/2000/svg">
<g clip-path="url(#clip0_588_6587)">
<rect width="700" height="232" transform="translate(0 0.25)" fill="#0A0D12"/>
<g clip-path="url(#clip1_588_6587)">
<rect width="1284" height="1284" transform="translate(-292 -466.75)" fill="#0A0D12"/>
<g opacity="0.4">
<line x1="409.156" y1="-1108.75" x2="409.156" y2="1459.25" stroke="#67DBFF" stroke-width="0.917143"/>
<line x1="467.853" y1="-1108.75" x2="467.853" y2="1459.25" stroke="#67DBFF" stroke-width="0.917143"/>
<line x1="526.55" y1="-1108.75" x2="526.55" y2="1459.25" stroke="#67DBFF" stroke-width="0.917143"/>
<line x1="585.248" y1="-1108.75" x2="585.247" y2="1459.25" stroke="#67DBFF" stroke-width="0.917143"/>
<line x1="643.944" y1="-1108.75" x2="643.944" y2="1459.25" stroke="#67DBFF" stroke-width="0.917143"/>
<line x1="56.9732" y1="-1108.75" x2="56.973" y2="1459.25" stroke="#67DBFF" stroke-width="0.917143"/>
<line x1="115.67" y1="-1108.75" x2="115.669" y2="1459.25" stroke="#67DBFF" stroke-width="0.917143"/>
<line x1="174.367" y1="-1108.75" x2="174.367" y2="1459.25" stroke="#67DBFF" stroke-width="0.917143"/>
<line x1="233.064" y1="-1108.75" x2="233.064" y2="1459.25" stroke="#67DBFF" stroke-width="0.917143"/>
<line x1="291.761" y1="-1108.75" x2="291.761" y2="1459.25" stroke="#67DBFF" stroke-width="0.917143"/>
<line x1="-934" y1="116.094" x2="1634" y2="116.094" stroke="#67DBFF" stroke-width="0.917143"/>
<line x1="-934" y1="57.3971" x2="1634" y2="57.3971" stroke="#67DBFF" stroke-width="0.917143"/>
</g>
<line x1="350.459" y1="-1108.75" x2="350.458" y2="1459.25" stroke="#E6E6E6" stroke-width="0.917143"/>
<line x1="-934" y1="174.791" x2="1634" y2="174.791" stroke="#E6E6E6" stroke-width="0.917143"/>
</g>
<path opacity="0.5" d="M348.951 176.323C349.537 176.909 350.487 176.909 351.072 176.323C351.658 175.737 351.658 174.787 351.072 174.202L348.951 176.323ZM309 134.25L313.482 150.98L325.73 138.733L309 134.25ZM351.072 174.202L319.606 142.735L317.485 144.857L348.951 176.323L351.072 174.202Z" fill="#20C831"/>
<path d="M348.5 175.25C348.5 176.078 349.172 176.75 350 176.75C350.828 176.75 351.5 176.078 351.5 175.25L348.5 175.25ZM350 116.25L341.34 131.25L358.66 131.25L350 116.25ZM351.5 175.25L351.5 129.75L348.5 129.75L348.5 175.25L351.5 175.25Z" fill="#EB5757"/>
<path d="M526.318 117.198C526.841 117.023 527.124 116.456 526.948 115.932C526.773 115.409 526.206 115.126 525.682 115.302L526.318 117.198ZM350 175.25L361.316 177.546L357.646 166.597L350 175.25ZM525.682 115.302L358.215 171.441L358.851 173.338L526.318 117.198L525.682 115.302Z" fill="#9B51E0"/>
<path d="M534 70.7453C534 68.8228 534.712 67.0943 536.135 65.5599C537.558 64.0254 539.097 63.2581 540.752 63.2581C541.679 63.2581 542.407 63.4698 542.937 63.8931C543.466 64.3164 543.74 64.872 543.756 65.5599C543.756 66.0714 543.599 66.5035 543.284 66.8562C542.97 67.209 542.573 67.3942 542.093 67.4118C541.778 67.4118 541.53 67.3236 541.348 67.1472C541.166 66.9709 541.075 66.7063 541.075 66.3536C541.075 66.0008 541.166 65.701 541.348 65.454C541.53 65.2071 541.712 65.0219 541.894 64.8984C542.076 64.775 542.192 64.7221 542.242 64.7397H542.267C542.267 64.7044 542.217 64.6515 542.118 64.581C542.018 64.5104 541.845 64.4399 541.596 64.3693C541.348 64.2988 541.067 64.2635 540.752 64.2635C540.256 64.2635 539.784 64.387 539.337 64.6339C538.99 64.7926 538.634 65.066 538.27 65.454C537.542 66.2301 537.012 67.3236 536.681 68.7346C536.35 70.1457 536.176 71.1686 536.16 71.8036C536.16 72.6149 536.375 73.2234 536.805 73.6291C537.169 74.0524 537.649 74.2641 538.245 74.2641H538.344C540.198 74.2641 541.729 73.5145 542.937 72.0152C543.086 71.8389 543.185 71.7507 543.235 71.7507C543.301 71.7507 543.409 71.8301 543.557 71.9888C543.706 72.1475 543.789 72.271 543.806 72.3592C543.822 72.4474 543.748 72.5797 543.582 72.756C543.417 72.9324 543.177 73.1793 542.862 73.4968C542.548 73.8143 542.176 74.0789 541.745 74.2905C541.315 74.5022 540.785 74.7226 540.157 74.9519C539.528 75.1812 538.866 75.2782 538.171 75.2429C536.929 75.2429 535.928 74.8196 535.167 73.973C534.405 73.1264 534.017 72.0505 534 70.7453Z" fill="white"/>
<path d="M544.426 67.3589C544.426 67.2178 544.501 66.9444 544.65 66.5387C544.799 66.1331 545.006 65.6745 545.27 65.163C545.535 64.6515 545.899 64.2106 546.363 63.8402C546.826 63.4698 547.314 63.2758 547.827 63.2581C548.589 63.2581 549.16 63.4786 549.54 63.9196C549.921 64.3605 550.111 64.8808 550.111 65.4805C550.111 65.798 549.83 66.7857 549.267 68.4436C548.704 70.1016 548.423 71.345 548.423 72.174C548.423 72.9324 548.539 73.4615 548.771 73.7614C549.002 74.0612 549.35 74.22 549.813 74.2376C550.277 74.2552 550.715 74.1053 551.129 73.7878C551.543 73.4704 551.849 73.1705 552.047 72.8883L552.321 72.4386C552.354 72.368 552.668 71.0275 553.264 68.4172C553.76 66.3006 554.058 65.066 554.158 64.7132C554.257 64.3605 554.373 64.1047 554.505 63.946C554.786 63.6814 555.084 63.5492 555.399 63.5492C555.68 63.5492 555.887 63.6374 556.019 63.8137C556.152 63.9901 556.218 64.1577 556.218 64.3164L554.331 72.7296C554.315 72.8178 554.307 72.9589 554.307 73.1529C554.307 73.5938 554.364 73.8848 554.48 74.0259C554.596 74.167 554.77 74.2464 555.002 74.2641C555.366 74.2111 555.655 73.9378 555.87 73.4439C556.086 72.95 556.334 72.174 556.615 71.1157C556.648 70.9746 556.814 70.9041 557.112 70.9041C557.426 70.9041 557.583 70.9834 557.583 71.1422C557.567 71.2304 557.55 71.3538 557.534 71.5126C557.517 71.6713 557.443 71.9535 557.31 72.3592C557.178 72.7649 557.037 73.1441 556.888 73.4968C556.739 73.8496 556.532 74.1847 556.268 74.5022C556.003 74.8196 555.705 75.0401 555.374 75.1636C555.242 75.1989 555.043 75.2165 554.778 75.2165C553.686 75.2165 552.933 74.7226 552.519 73.7349C552.486 73.7526 552.395 73.8407 552.246 73.9995C552.097 74.1582 551.948 74.2905 551.799 74.3963C551.65 74.5022 551.468 74.6344 551.253 74.7932C551.038 74.9519 550.798 75.0577 550.533 75.1107C550.268 75.1636 549.987 75.2077 549.689 75.2429C548.961 75.2429 548.316 75.0842 547.753 74.7667C546.892 74.22 546.462 73.2852 546.462 71.9623C546.462 70.957 546.752 69.643 547.331 68.0203C547.91 66.3976 548.2 65.3658 548.2 64.9249C548.2 64.9073 548.2 64.8896 548.2 64.872C548.2 64.7132 548.2 64.6074 548.2 64.5545C548.2 64.5016 548.167 64.4399 548.1 64.3693C548.034 64.2988 547.943 64.2635 547.827 64.2635H547.728C547.347 64.2635 547 64.431 546.685 64.7662C546.371 65.1013 546.123 65.4629 545.941 65.8509C545.759 66.2389 545.618 66.6093 545.519 66.9621C545.419 67.3148 545.353 67.5088 545.32 67.5441C545.287 67.5794 545.155 67.597 544.923 67.597H544.575C544.476 67.4912 544.426 67.4118 544.426 67.3589Z" fill="white"/>
<path d="M558.651 67.3589C558.667 67.306 558.684 67.2354 558.7 67.1472C558.717 67.0591 558.758 66.865 558.825 66.5652C558.891 66.2654 558.974 65.992 559.073 65.7451C559.172 65.4981 559.296 65.2071 559.445 64.872C559.594 64.5369 559.76 64.2723 559.942 64.0783C560.124 63.8843 560.339 63.6903 560.587 63.4962C560.835 63.3022 561.108 63.2229 561.406 63.2581C561.886 63.2581 562.308 63.364 562.672 63.5756C563.037 63.7873 563.293 63.9813 563.442 64.1577C563.591 64.334 563.682 64.5104 563.715 64.6868C563.748 64.7926 563.773 64.8455 563.79 64.8455C563.806 64.8455 563.872 64.7838 563.988 64.6603C564.783 63.7432 565.701 63.2846 566.744 63.2846H566.818C567.613 63.2846 568.208 63.6462 568.606 64.3693C568.738 64.7044 568.804 65.0307 568.804 65.3482C568.804 65.8773 568.697 66.3006 568.481 66.6181C568.266 66.9356 568.051 67.1384 567.836 67.2266C567.621 67.3148 567.414 67.3501 567.215 67.3324C566.884 67.3324 566.62 67.2354 566.421 67.0414C566.222 66.8474 566.123 66.5917 566.123 66.2742C566.123 65.4276 566.586 64.8632 567.513 64.581C567.149 64.3517 566.851 64.237 566.62 64.237C565.693 64.237 564.84 64.8896 564.063 66.1948C563.897 66.477 563.773 66.768 563.69 67.0679C563.607 67.3677 563.326 68.5406 562.846 70.5866C562.284 73.0559 561.961 74.3699 561.878 74.5286C561.663 75.0048 561.307 75.2429 560.811 75.2429C560.595 75.2429 560.422 75.19 560.289 75.0842C560.157 74.9784 560.066 74.8726 560.016 74.7667C559.967 74.6609 559.95 74.5727 559.967 74.5022C559.967 74.2729 560.298 72.756 560.96 69.9516C561.622 67.1472 561.953 65.5863 561.953 65.2688C561.953 64.581 561.737 64.237 561.307 64.237C560.96 64.237 560.662 64.484 560.413 64.9778C560.165 65.4717 559.967 66.0096 559.818 66.5917C559.669 67.1737 559.578 67.4912 559.545 67.5441C559.511 67.5794 559.379 67.597 559.147 67.597H558.8C558.7 67.4912 558.651 67.4118 558.651 67.3589Z" fill="white"/>
<path d="M569.847 67.3589C569.863 67.306 569.88 67.2354 569.896 67.1472C569.913 67.0591 569.954 66.865 570.021 66.5652C570.087 66.2654 570.169 65.992 570.269 65.7451C570.368 65.4981 570.492 65.2071 570.641 64.872C570.79 64.5369 570.956 64.2723 571.138 64.0783C571.32 63.8843 571.535 63.6903 571.783 63.4962C572.031 63.3022 572.304 63.2229 572.602 63.2581C573.082 63.2581 573.504 63.364 573.868 63.5756C574.232 63.7873 574.489 63.9813 574.638 64.1577C574.787 64.334 574.878 64.5104 574.911 64.6868C574.944 64.7926 574.969 64.8455 574.985 64.8455C575.002 64.8455 575.068 64.7838 575.184 64.6603C575.978 63.7432 576.897 63.2846 577.94 63.2846H578.014C578.808 63.2846 579.404 63.6462 579.801 64.3693C579.934 64.7044 580 65.0307 580 65.3482C580 65.8773 579.892 66.3006 579.677 66.6181C579.462 66.9356 579.247 67.1384 579.032 67.2266C578.817 67.3148 578.61 67.3501 578.411 67.3324C578.08 67.3324 577.815 67.2354 577.617 67.0414C577.418 66.8474 577.319 66.5917 577.319 66.2742C577.319 65.4276 577.782 64.8632 578.709 64.581C578.345 64.3517 578.047 64.237 577.815 64.237C576.889 64.237 576.036 64.8896 575.258 66.1948C575.093 66.477 574.969 66.768 574.886 67.0679C574.803 67.3677 574.522 68.5406 574.042 70.5866C573.479 73.0559 573.157 74.3699 573.074 74.5286C572.859 75.0048 572.503 75.2429 572.006 75.2429C571.791 75.2429 571.618 75.19 571.485 75.0842C571.353 74.9784 571.262 74.8726 571.212 74.7667C571.162 74.6609 571.146 74.5727 571.162 74.5022C571.162 74.2729 571.493 72.756 572.155 69.9516C572.817 67.1472 573.148 65.5863 573.148 65.2688C573.148 64.581 572.933 64.237 572.503 64.237C572.155 64.237 571.858 64.484 571.609 64.9778C571.361 65.4717 571.162 66.0096 571.013 66.5917C570.865 67.1737 570.774 67.4912 570.74 67.5441C570.707 67.5794 570.575 67.597 570.343 67.597H569.996C569.896 67.4912 569.847 67.4118 569.847 67.3589Z" fill="white"/>
<path d="M534 70.7453C534 68.8228 534.712 67.0943 536.135 65.5599C537.558 64.0254 539.097 63.2581 540.752 63.2581C541.679 63.2581 542.407 63.4698 542.937 63.8931C543.466 64.3164 543.74 64.872 543.756 65.5599C543.756 66.0714 543.599 66.5035 543.284 66.8562C542.97 67.209 542.573 67.3942 542.093 67.4118C541.778 67.4118 541.53 67.3236 541.348 67.1472C541.166 66.9709 541.075 66.7063 541.075 66.3536C541.075 66.0008 541.166 65.701 541.348 65.454C541.53 65.2071 541.712 65.0219 541.894 64.8984C542.076 64.775 542.192 64.7221 542.242 64.7397H542.267C542.267 64.7044 542.217 64.6515 542.118 64.581C542.018 64.5104 541.845 64.4399 541.596 64.3693C541.348 64.2988 541.067 64.2635 540.752 64.2635C540.256 64.2635 539.784 64.387 539.337 64.6339C538.99 64.7926 538.634 65.066 538.27 65.454C537.542 66.2301 537.012 67.3236 536.681 68.7346C536.35 70.1457 536.176 71.1686 536.16 71.8036C536.16 72.6149 536.375 73.2234 536.805 73.6291C537.169 74.0524 537.649 74.2641 538.245 74.2641H538.344C540.198 74.2641 541.729 73.5145 542.937 72.0152C543.086 71.8389 543.185 71.7507 543.235 71.7507C543.301 71.7507 543.409 71.8301 543.557 71.9888C543.706 72.1475 543.789 72.271 543.806 72.3592C543.822 72.4474 543.748 72.5797 543.582 72.756C543.417 72.9324 543.177 73.1793 542.862 73.4968C542.548 73.8143 542.176 74.0789 541.745 74.2905C541.315 74.5022 540.785 74.7226 540.157 74.9519C539.528 75.1812 538.866 75.2782 538.171 75.2429C536.929 75.2429 535.928 74.8196 535.167 73.973C534.405 73.1264 534.017 72.0505 534 70.7453Z" stroke="white"/>
<path d="M544.426 67.3589C544.426 67.2178 544.501 66.9444 544.65 66.5387C544.799 66.1331 545.006 65.6745 545.27 65.163C545.535 64.6515 545.899 64.2106 546.363 63.8402C546.826 63.4698 547.314 63.2758 547.827 63.2581C548.589 63.2581 549.16 63.4786 549.54 63.9196C549.921 64.3605 550.111 64.8808 550.111 65.4805C550.111 65.798 549.83 66.7857 549.267 68.4436C548.704 70.1016 548.423 71.345 548.423 72.174C548.423 72.9324 548.539 73.4615 548.771 73.7614C549.002 74.0612 549.35 74.22 549.813 74.2376C550.277 74.2552 550.715 74.1053 551.129 73.7878C551.543 73.4704 551.849 73.1705 552.047 72.8883L552.321 72.4386C552.354 72.368 552.668 71.0275 553.264 68.4172C553.76 66.3006 554.058 65.066 554.158 64.7132C554.257 64.3605 554.373 64.1047 554.505 63.946C554.786 63.6814 555.084 63.5492 555.399 63.5492C555.68 63.5492 555.887 63.6374 556.019 63.8137C556.152 63.9901 556.218 64.1577 556.218 64.3164L554.331 72.7296C554.315 72.8178 554.307 72.9589 554.307 73.1529C554.307 73.5938 554.364 73.8848 554.48 74.0259C554.596 74.167 554.77 74.2464 555.002 74.2641C555.366 74.2111 555.655 73.9378 555.87 73.4439C556.086 72.95 556.334 72.174 556.615 71.1157C556.648 70.9746 556.814 70.9041 557.112 70.9041C557.426 70.9041 557.583 70.9834 557.583 71.1422C557.567 71.2304 557.55 71.3538 557.534 71.5126C557.517 71.6713 557.443 71.9535 557.31 72.3592C557.178 72.7649 557.037 73.1441 556.888 73.4968C556.739 73.8496 556.532 74.1847 556.268 74.5022C556.003 74.8196 555.705 75.0401 555.374 75.1636C555.242 75.1989 555.043 75.2165 554.778 75.2165C553.686 75.2165 552.933 74.7226 552.519 73.7349C552.486 73.7526 552.395 73.8407 552.246 73.9995C552.097 74.1582 551.948 74.2905 551.799 74.3963C551.65 74.5022 551.468 74.6344 551.253 74.7932C551.038 74.9519 550.798 75.0577 550.533 75.1107C550.268 75.1636 549.987 75.2077 549.689 75.2429C548.961 75.2429 548.316 75.0842 547.753 74.7667C546.892 74.22 546.462 73.2852 546.462 71.9623C546.462 70.957 546.752 69.643 547.331 68.0203C547.91 66.3976 548.2 65.3658 548.2 64.9249C548.2 64.9073 548.2 64.8896 548.2 64.872C548.2 64.7132 548.2 64.6074 548.2 64.5545C548.2 64.5016 548.167 64.4399 548.1 64.3693C548.034 64.2988 547.943 64.2635 547.827 64.2635H547.728C547.347 64.2635 547 64.431 546.685 64.7662C546.371 65.1013 546.123 65.4629 545.941 65.8509C545.759 66.2389 545.618 66.6093 545.519 66.9621C545.419 67.3148 545.353 67.5088 545.32 67.5441C545.287 67.5794 545.155 67.597 544.923 67.597H544.575C544.476 67.4912 544.426 67.4118 544.426 67.3589Z" stroke="white"/>
<path d="M558.651 67.3589C558.667 67.306 558.684 67.2354 558.7 67.1472C558.717 67.0591 558.758 66.865 558.825 66.5652C558.891 66.2654 558.974 65.992 559.073 65.7451C559.172 65.4981 559.296 65.2071 559.445 64.872C559.594 64.5369 559.76 64.2723 559.942 64.0783C560.124 63.8843 560.339 63.6903 560.587 63.4962C560.835 63.3022 561.108 63.2229 561.406 63.2581C561.886 63.2581 562.308 63.364 562.672 63.5756C563.037 63.7873 563.293 63.9813 563.442 64.1577C563.591 64.334 563.682 64.5104 563.715 64.6868C563.748 64.7926 563.773 64.8455 563.79 64.8455C563.806 64.8455 563.872 64.7838 563.988 64.6603C564.783 63.7432 565.701 63.2846 566.744 63.2846H566.818C567.613 63.2846 568.208 63.6462 568.606 64.3693C568.738 64.7044 568.804 65.0307 568.804 65.3482C568.804 65.8773 568.697 66.3006 568.481 66.6181C568.266 66.9356 568.051 67.1384 567.836 67.2266C567.621 67.3148 567.414 67.3501 567.215 67.3324C566.884 67.3324 566.62 67.2354 566.421 67.0414C566.222 66.8474 566.123 66.5917 566.123 66.2742C566.123 65.4276 566.586 64.8632 567.513 64.581C567.149 64.3517 566.851 64.237 566.62 64.237C565.693 64.237 564.84 64.8896 564.063 66.1948C563.897 66.477 563.773 66.768 563.69 67.0679C563.607 67.3677 563.326 68.5406 562.846 70.5866C562.284 73.0559 561.961 74.3699 561.878 74.5286C561.663 75.0048 561.307 75.2429 560.811 75.2429C560.595 75.2429 560.422 75.19 560.289 75.0842C560.157 74.9784 560.066 74.8726 560.016 74.7667C559.967 74.6609 559.95 74.5727 559.967 74.5022C559.967 74.2729 560.298 72.756 560.96 69.9516C561.622 67.1472 561.953 65.5863 561.953 65.2688C561.953 64.581 561.737 64.237 561.307 64.237C560.96 64.237 560.662 64.484 560.413 64.9778C560.165 65.4717 559.967 66.0096 559.818 66.5917C559.669 67.1737 559.578 67.4912 559.545 67.5441C559.511 67.5794 559.379 67.597 559.147 67.597H558.8C558.7 67.4912 558.651 67.4118 558.651 67.3589Z" stroke="white"/>
<path d="M569.847 67.3589C569.863 67.306 569.88 67.2354 569.896 67.1472C569.913 67.0591 569.954 66.865 570.021 66.5652C570.087 66.2654 570.169 65.992 570.269 65.7451C570.368 65.4981 570.492 65.2071 570.641 64.872C570.79 64.5369 570.956 64.2723 571.138 64.0783C571.32 63.8843 571.535 63.6903 571.783 63.4962C572.031 63.3022 572.304 63.2229 572.602 63.2581C573.082 63.2581 573.504 63.364 573.868 63.5756C574.232 63.7873 574.489 63.9813 574.638 64.1577C574.787 64.334 574.878 64.5104 574.911 64.6868C574.944 64.7926 574.969 64.8455 574.985 64.8455C575.002 64.8455 575.068 64.7838 575.184 64.6603C575.978 63.7432 576.897 63.2846 577.94 63.2846H578.014C578.808 63.2846 579.404 63.6462 579.801 64.3693C579.934 64.7044 580 65.0307 580 65.3482C580 65.8773 579.892 66.3006 579.677 66.6181C579.462 66.9356 579.247 67.1384 579.032 67.2266C578.817 67.3148 578.61 67.3501 578.411 67.3324C578.08 67.3324 577.815 67.2354 577.617 67.0414C577.418 66.8474 577.319 66.5917 577.319 66.2742C577.319 65.4276 577.782 64.8632 578.709 64.581C578.345 64.3517 578.047 64.237 577.815 64.237C576.889 64.237 576.036 64.8896 575.258 66.1948C575.093 66.477 574.969 66.768 574.886 67.0679C574.803 67.3677 574.522 68.5406 574.042 70.5866C573.479 73.0559 573.157 74.3699 573.074 74.5286C572.859 75.0048 572.503 75.2429 572.006 75.2429C571.791 75.2429 571.618 75.19 571.485 75.0842C571.353 74.9784 571.262 74.8726 571.212 74.7667C571.162 74.6609 571.146 74.5727 571.162 74.5022C571.162 74.2729 571.493 72.756 572.155 69.9516C572.817 67.1472 573.148 65.5863 573.148 65.2688C573.148 64.581 572.933 64.237 572.503 64.237C572.155 64.237 571.858 64.484 571.609 64.9778C571.361 65.4717 571.162 66.0096 571.013 66.5917C570.865 67.1737 570.774 67.4912 570.74 67.5441C570.707 67.5794 570.575 67.597 570.343 67.597H569.996C569.896 67.4912 569.847 67.4118 569.847 67.3589Z" stroke="white"/>
<path d="M526.345 59.25V117.94" stroke="white" stroke-width="2"/>
<circle cx="526" cy="58.25" r="4" fill="#EB5757"/>
<circle cx="526" cy="116.25" r="4" fill="#9B51E0"/>
<g opacity="0.6">
<path d="M286.428 126.582C286.447 126.582 287.131 126.534 288.479 126.438C289.828 126.343 290.521 126.286 290.559 126.267C290.787 126.267 290.901 126.343 290.901 126.496C290.901 126.629 290.208 129.513 288.821 135.147C287.435 140.781 286.723 143.655 286.685 143.77C286.647 143.885 286.637 144.028 286.656 144.2C286.656 145.002 286.922 145.403 287.454 145.403C287.625 145.384 287.815 145.298 288.024 145.145C288.422 144.763 288.812 143.846 289.192 142.395C289.306 142.013 289.401 141.812 289.476 141.793C289.514 141.774 289.609 141.765 289.761 141.765H289.875H289.989C290.274 141.765 290.417 141.841 290.417 141.994C290.417 142.089 290.388 142.242 290.331 142.452C290.084 143.407 289.799 144.181 289.476 144.773C289.154 145.365 288.888 145.747 288.679 145.918C288.47 146.09 288.204 146.243 287.881 146.377C287.729 146.415 287.501 146.434 287.198 146.434C286.552 146.434 286.011 146.291 285.574 146.004C285.137 145.718 284.852 145.422 284.719 145.116L284.548 144.687C284.529 144.668 284.491 144.677 284.434 144.715C284.396 144.753 284.358 144.792 284.32 144.83C283.2 145.899 282.06 146.434 280.902 146.434C279.858 146.434 278.936 146.052 278.139 145.288C277.341 144.524 276.942 143.312 276.942 141.65C276.942 140.733 277.132 139.798 277.512 138.843C277.892 137.888 278.348 137.067 278.879 136.379C279.772 135.29 280.665 134.536 281.557 134.116C282.45 133.696 283.257 133.486 283.979 133.486C285.042 133.486 285.84 133.887 286.371 134.689C286.466 134.803 286.514 134.842 286.514 134.803C286.533 134.727 286.789 133.686 287.283 131.681C287.777 129.676 288.043 128.616 288.081 128.501C288.081 128.253 288.014 128.1 287.881 128.043C287.748 127.985 287.378 127.938 286.77 127.899H286.172C286.058 127.785 286.001 127.709 286.001 127.67C286.001 127.632 286.02 127.451 286.058 127.126C286.153 126.763 286.276 126.582 286.428 126.582ZM286.03 136.809C285.593 135.3 284.881 134.546 283.893 134.546C283.228 134.546 282.592 134.842 281.985 135.434C281.377 136.026 280.902 136.799 280.56 137.754C280.009 139.263 279.62 140.829 279.392 142.452C279.392 142.509 279.392 142.614 279.392 142.767C279.392 142.92 279.383 143.035 279.364 143.111C279.364 143.97 279.535 144.562 279.877 144.887C280.218 145.212 280.627 145.384 281.101 145.403C282.127 145.403 283.181 144.715 284.263 143.34L284.491 143.025L286.03 136.809Z" fill="white"/>
<path d="M291.841 141.65C291.841 139.721 292.562 137.888 294.006 136.15C295.449 134.412 297.073 133.533 298.877 133.514C299.846 133.514 300.7 133.982 301.441 134.918C301.745 134.345 302.181 134.059 302.751 134.059C302.998 134.059 303.216 134.135 303.406 134.288C303.596 134.441 303.691 134.632 303.691 134.861C303.691 135.109 303.34 136.637 302.637 139.444C301.935 142.252 301.574 143.837 301.555 144.2C301.555 144.677 301.621 144.992 301.754 145.145C301.887 145.298 302.087 145.384 302.352 145.403C302.523 145.384 302.713 145.298 302.922 145.145C303.321 144.763 303.71 143.846 304.09 142.395C304.204 142.013 304.299 141.812 304.375 141.793C304.413 141.774 304.508 141.765 304.66 141.765H304.774C305.135 141.765 305.315 141.851 305.315 142.022C305.315 142.137 305.268 142.395 305.173 142.796C305.078 143.197 304.888 143.713 304.603 144.343C304.318 144.973 304.014 145.451 303.691 145.775C303.444 146.023 303.141 146.224 302.78 146.377C302.628 146.415 302.4 146.434 302.096 146.434C301.45 146.434 300.909 146.291 300.472 146.004C300.035 145.718 299.751 145.422 299.618 145.116L299.447 144.687C299.428 144.668 299.39 144.677 299.333 144.715C299.295 144.753 299.257 144.792 299.219 144.83C298.098 145.899 296.959 146.434 295.8 146.434C294.756 146.434 293.835 146.052 293.037 145.288C292.24 144.524 291.841 143.312 291.841 141.65ZM300.9 136.751C300.9 136.637 300.852 136.427 300.757 136.121C300.662 135.816 300.444 135.481 300.102 135.119C299.76 134.756 299.323 134.565 298.792 134.546C298.127 134.546 297.491 134.842 296.883 135.434C296.275 136.026 295.8 136.799 295.459 137.754C294.908 139.263 294.519 140.829 294.291 142.452C294.291 142.509 294.291 142.614 294.291 142.767C294.291 142.92 294.281 143.035 294.262 143.111C294.262 143.97 294.433 144.562 294.775 144.887C295.117 145.212 295.525 145.384 296 145.403C296.722 145.403 297.434 145.088 298.136 144.457C298.839 143.827 299.257 143.34 299.39 142.996C299.428 142.92 299.684 141.898 300.159 139.931C300.634 137.964 300.881 136.904 300.9 136.751Z" fill="white"/>
</g>
<path d="M368.382 105.562C368.401 105.562 369.077 105.515 370.411 105.42C371.744 105.326 372.43 105.269 372.468 105.25C372.693 105.25 372.806 105.326 372.806 105.477C372.806 105.609 372.12 108.464 370.749 114.041C369.378 119.618 368.673 122.463 368.636 122.577C368.598 122.69 368.589 122.832 368.608 123.002C368.608 123.796 368.871 124.193 369.397 124.193C369.566 124.174 369.753 124.089 369.96 123.938C370.355 123.56 370.74 122.652 371.115 121.216C371.228 120.837 371.322 120.639 371.397 120.62C371.435 120.601 371.528 120.592 371.679 120.592H371.904C372.186 120.592 372.327 120.667 372.327 120.819C372.327 120.913 372.299 121.064 372.242 121.272C371.998 122.218 371.716 122.983 371.397 123.569C371.078 124.155 370.815 124.533 370.608 124.704C370.401 124.874 370.138 125.025 369.819 125.157C369.669 125.195 369.444 125.214 369.143 125.214C368.504 125.214 367.969 125.072 367.537 124.789C367.105 124.505 366.823 124.212 366.692 123.91L366.523 123.484C366.504 123.465 366.466 123.475 366.41 123.513C366.372 123.55 366.335 123.588 366.297 123.626C365.189 124.685 364.062 125.214 362.916 125.214C361.883 125.214 360.972 124.836 360.183 124.08C359.394 123.324 359 122.123 359 120.478C359 119.571 359.188 118.644 359.563 117.699C359.939 116.754 360.39 115.941 360.916 115.26C361.799 114.183 362.682 113.436 363.564 113.02C364.447 112.604 365.245 112.396 365.959 112.396C367.011 112.396 367.8 112.793 368.326 113.587C368.42 113.701 368.467 113.739 368.467 113.701C368.486 113.625 368.739 112.595 369.228 110.61C369.716 108.625 369.979 107.575 370.016 107.462C370.016 107.216 369.951 107.065 369.819 107.008C369.688 106.951 369.321 106.904 368.72 106.866H368.129C368.016 106.753 367.96 106.677 367.96 106.64C367.96 106.602 367.978 106.422 368.016 106.101C368.11 105.742 368.232 105.562 368.382 105.562ZM367.988 115.686C367.556 114.192 366.851 113.445 365.875 113.445C365.217 113.445 364.588 113.739 363.987 114.325C363.386 114.911 362.916 115.676 362.578 116.622C362.034 118.115 361.648 119.665 361.423 121.272C361.423 121.329 361.423 121.433 361.423 121.584C361.423 121.735 361.414 121.849 361.395 121.925C361.395 122.775 361.564 123.361 361.902 123.683C362.24 124.004 362.644 124.174 363.114 124.193C364.128 124.193 365.17 123.513 366.241 122.151L366.466 121.839L367.988 115.686Z" fill="white"/>
<path d="M373.764 120.422C373.764 118.361 374.571 116.508 376.187 114.863C377.802 113.219 379.549 112.396 381.427 112.396C382.479 112.396 383.306 112.623 383.907 113.077C384.508 113.531 384.818 114.126 384.836 114.863C384.836 115.412 384.658 115.875 384.301 116.253C383.944 116.631 383.493 116.83 382.949 116.848C382.592 116.848 382.31 116.754 382.103 116.565C381.897 116.376 381.794 116.092 381.794 115.714C381.794 115.336 381.897 115.015 382.103 114.75C382.31 114.485 382.517 114.287 382.723 114.154C382.93 114.022 383.061 113.965 383.118 113.984H383.146C383.146 113.946 383.09 113.89 382.977 113.814C382.864 113.739 382.667 113.663 382.385 113.587C382.103 113.512 381.784 113.474 381.427 113.474C380.864 113.474 380.328 113.606 379.821 113.871C379.427 114.041 379.023 114.334 378.61 114.75C377.783 115.582 377.182 116.754 376.807 118.266C376.431 119.779 376.234 120.875 376.215 121.556C376.215 122.426 376.459 123.078 376.947 123.513C377.361 123.966 377.905 124.193 378.582 124.193H378.694C380.798 124.193 382.535 123.39 383.907 121.783C384.076 121.594 384.188 121.499 384.245 121.499C384.32 121.499 384.442 121.584 384.611 121.754C384.78 121.925 384.874 122.057 384.893 122.151C384.912 122.246 384.827 122.388 384.639 122.577C384.451 122.766 384.179 123.031 383.822 123.371C383.465 123.711 383.043 123.995 382.554 124.222C382.066 124.448 381.465 124.685 380.751 124.93C380.037 125.176 379.286 125.28 378.497 125.242C377.088 125.242 375.952 124.789 375.088 123.881C374.224 122.974 373.782 121.821 373.764 120.422Z" fill="white"/>
<path d="M385.625 116.792C385.625 116.64 385.71 116.347 385.879 115.913C386.048 115.478 386.283 114.986 386.583 114.438C386.884 113.89 387.297 113.417 387.823 113.02C388.349 112.623 388.903 112.415 389.485 112.396C390.349 112.396 390.997 112.633 391.429 113.105C391.861 113.578 392.077 114.136 392.077 114.778C392.077 115.119 391.758 116.177 391.119 117.954C390.481 119.732 390.161 121.064 390.161 121.953C390.161 122.766 390.293 123.333 390.556 123.654C390.819 123.976 391.213 124.146 391.739 124.165C392.265 124.184 392.763 124.023 393.233 123.683C393.702 123.342 394.05 123.021 394.275 122.719L394.585 122.236C394.623 122.161 394.979 120.724 395.656 117.926C396.219 115.657 396.557 114.334 396.67 113.956C396.783 113.578 396.914 113.304 397.064 113.134C397.384 112.85 397.722 112.708 398.079 112.708C398.398 112.708 398.633 112.803 398.783 112.992C398.933 113.181 399.008 113.36 399.008 113.531L396.867 122.548C396.848 122.643 396.839 122.794 396.839 123.002C396.839 123.475 396.905 123.787 397.036 123.938C397.168 124.089 397.365 124.174 397.628 124.193C398.041 124.136 398.37 123.843 398.614 123.314C398.858 122.785 399.14 121.953 399.459 120.819C399.497 120.667 399.685 120.592 400.023 120.592C400.38 120.592 400.558 120.677 400.558 120.847C400.539 120.941 400.52 121.074 400.502 121.244C400.483 121.414 400.398 121.717 400.248 122.151C400.098 122.586 399.938 122.993 399.769 123.371C399.6 123.749 399.365 124.108 399.065 124.448C398.764 124.789 398.426 125.025 398.05 125.157C397.9 125.195 397.675 125.214 397.374 125.214C396.135 125.214 395.28 124.685 394.81 123.626C394.773 123.645 394.669 123.739 394.5 123.91C394.331 124.08 394.162 124.222 393.993 124.335C393.824 124.448 393.618 124.59 393.373 124.76C393.129 124.93 392.857 125.044 392.556 125.101C392.256 125.157 391.937 125.205 391.598 125.242C390.772 125.242 390.039 125.072 389.401 124.732C388.424 124.146 387.936 123.144 387.936 121.726C387.936 120.648 388.264 119.24 388.922 117.501C389.579 115.761 389.908 114.655 389.908 114.183C389.908 114.164 389.908 114.145 389.908 114.126C389.908 113.956 389.908 113.842 389.908 113.786C389.908 113.729 389.87 113.663 389.795 113.587C389.72 113.512 389.617 113.474 389.485 113.474H389.373C388.941 113.474 388.546 113.653 388.189 114.013C387.832 114.372 387.551 114.759 387.344 115.175C387.137 115.591 386.978 115.988 386.865 116.366C386.752 116.744 386.677 116.952 386.64 116.99C386.602 117.028 386.452 117.047 386.189 117.047H385.794C385.682 116.934 385.625 116.848 385.625 116.792Z" fill="white"/>
<path d="M401.741 116.792C401.76 116.735 401.779 116.659 401.798 116.565C401.817 116.47 401.863 116.262 401.939 115.941C402.014 115.62 402.108 115.327 402.22 115.062C402.333 114.797 402.474 114.485 402.643 114.126C402.812 113.767 403 113.483 403.206 113.275C403.413 113.067 403.657 112.859 403.939 112.651C404.221 112.443 404.531 112.358 404.869 112.396C405.414 112.396 405.892 112.51 406.306 112.737C406.719 112.963 407.01 113.171 407.179 113.36C407.348 113.549 407.451 113.739 407.489 113.928C407.527 114.041 407.555 114.098 407.574 114.098C407.592 114.098 407.668 114.032 407.799 113.899C408.701 112.916 409.743 112.425 410.926 112.425H411.011C411.913 112.425 412.589 112.812 413.04 113.587C413.19 113.946 413.265 114.296 413.265 114.637C413.265 115.204 413.143 115.657 412.899 115.998C412.654 116.338 412.41 116.555 412.166 116.65C411.922 116.744 411.687 116.782 411.462 116.763C411.086 116.763 410.786 116.659 410.56 116.451C410.335 116.243 410.222 115.969 410.222 115.629C410.222 114.722 410.748 114.117 411.8 113.814C411.387 113.568 411.049 113.445 410.786 113.445C409.734 113.445 408.766 114.145 407.884 115.544C407.696 115.846 407.555 116.158 407.461 116.48C407.367 116.801 407.048 118.058 406.503 120.251C405.864 122.898 405.498 124.307 405.404 124.477C405.16 124.987 404.756 125.242 404.193 125.242C403.948 125.242 403.751 125.186 403.601 125.072C403.451 124.959 403.347 124.845 403.291 124.732C403.235 124.619 403.216 124.524 403.235 124.448C403.235 124.203 403.61 122.577 404.362 119.571C405.113 116.565 405.489 114.892 405.489 114.551C405.489 113.814 405.244 113.445 404.756 113.445C404.362 113.445 404.024 113.71 403.742 114.24C403.46 114.769 403.235 115.345 403.066 115.969C402.897 116.593 402.793 116.934 402.756 116.99C402.718 117.028 402.568 117.047 402.305 117.047H401.91C401.798 116.934 401.741 116.848 401.741 116.792Z" fill="white"/>
<path d="M414.476 116.792C414.495 116.735 414.514 116.659 414.533 116.565C414.552 116.47 414.599 116.262 414.674 115.941C414.749 115.62 414.843 115.327 414.955 115.062C415.068 114.797 415.209 114.485 415.378 114.126C415.547 113.767 415.735 113.483 415.942 113.275C416.148 113.067 416.392 112.859 416.674 112.651C416.956 112.443 417.266 112.358 417.604 112.396C418.149 112.396 418.628 112.51 419.041 112.737C419.454 112.963 419.745 113.171 419.914 113.36C420.083 113.549 420.187 113.739 420.224 113.928C420.262 114.041 420.29 114.098 420.309 114.098C420.327 114.098 420.403 114.032 420.534 113.899C421.436 112.916 422.478 112.425 423.661 112.425H423.746C424.648 112.425 425.324 112.812 425.775 113.587C425.925 113.946 426 114.296 426 114.637C426 115.204 425.878 115.657 425.634 115.998C425.39 116.338 425.145 116.555 424.901 116.65C424.657 116.744 424.422 116.782 424.197 116.763C423.821 116.763 423.521 116.659 423.295 116.451C423.07 116.243 422.957 115.969 422.957 115.629C422.957 114.722 423.483 114.117 424.535 113.814C424.122 113.568 423.784 113.445 423.521 113.445C422.469 113.445 421.501 114.145 420.619 115.544C420.431 115.846 420.29 116.158 420.196 116.48C420.102 116.801 419.783 118.058 419.238 120.251C418.599 122.898 418.233 124.307 418.139 124.477C417.895 124.987 417.491 125.242 416.928 125.242C416.683 125.242 416.486 125.186 416.336 125.072C416.186 124.959 416.082 124.845 416.026 124.732C415.97 124.619 415.951 124.524 415.97 124.448C415.97 124.203 416.345 122.577 417.097 119.571C417.848 116.565 418.224 114.892 418.224 114.551C418.224 113.814 417.98 113.445 417.491 113.445C417.097 113.445 416.759 113.71 416.477 114.24C416.195 114.769 415.97 115.345 415.801 115.969C415.632 116.593 415.528 116.934 415.491 116.99C415.453 117.028 415.303 117.047 415.04 117.047H414.646C414.533 116.934 414.476 116.848 414.476 116.792Z" fill="white"/>
<g clip-path="url(#clip2_588_6587)">
<path d="M536.553 122.402C536.569 122.353 536.586 122.286 536.603 122.203C536.62 122.12 536.662 121.937 536.729 121.654C536.796 121.371 536.88 121.113 536.981 120.88C537.081 120.647 537.207 120.372 537.358 120.056C537.509 119.74 537.677 119.491 537.862 119.307C538.047 119.124 538.265 118.941 538.517 118.758C538.769 118.575 539.046 118.5 539.348 118.534C540.607 118.534 541.413 119.066 541.765 120.131L542.017 119.907C543.058 118.991 544.049 118.534 544.989 118.534C546.08 118.534 546.936 118.925 547.557 119.707C548.179 120.489 548.489 121.437 548.489 122.552C548.489 124.349 547.851 126.005 546.575 127.519C545.299 129.033 543.856 129.799 542.244 129.815C541.875 129.815 541.547 129.766 541.262 129.666C541.077 129.582 540.884 129.458 540.683 129.291C540.481 129.125 540.322 128.983 540.204 128.867L540.028 128.667C540.011 128.684 539.826 129.408 539.474 130.839C539.121 132.27 538.945 132.994 538.945 133.01C538.945 133.11 539.012 133.168 539.146 133.185C539.281 133.202 539.591 133.227 540.078 133.26H540.708C540.808 133.376 540.859 133.451 540.859 133.484C540.859 133.518 540.834 133.667 540.783 133.934C540.733 134.133 540.683 134.258 540.632 134.308C540.582 134.358 540.473 134.391 540.305 134.408C540.271 134.408 540.179 134.408 540.028 134.408C539.877 134.408 539.591 134.4 539.172 134.383C538.752 134.366 538.231 134.358 537.61 134.358C536.435 134.358 535.688 134.375 535.369 134.408H535.167C535.05 134.291 534.991 134.2 534.991 134.133C535.025 133.684 535.134 133.393 535.319 133.26H535.822C536.393 133.243 536.72 133.143 536.804 132.96C536.855 132.86 537.367 130.872 538.341 126.995C539.314 123.118 539.826 121.063 539.877 120.83C539.893 120.747 539.902 120.63 539.902 120.481C539.902 119.798 539.692 119.457 539.272 119.457C538.903 119.457 538.592 119.69 538.341 120.156C538.089 120.622 537.896 121.13 537.761 121.679C537.627 122.228 537.526 122.527 537.459 122.577C537.426 122.61 537.291 122.627 537.056 122.627H536.704C536.603 122.527 536.553 122.452 536.553 122.402ZM540.456 127.02C540.825 128.285 541.446 128.917 542.319 128.917C542.823 128.917 543.31 128.726 543.78 128.343C544.25 127.96 544.636 127.478 544.938 126.895C545.241 126.329 545.543 125.431 545.845 124.2C546.147 122.968 546.307 122.053 546.323 121.454V121.304C546.323 120.073 545.811 119.457 544.787 119.457C544.603 119.457 544.418 119.482 544.233 119.532C544.049 119.582 543.864 119.657 543.679 119.757C543.495 119.857 543.327 119.965 543.176 120.081C543.025 120.198 542.882 120.323 542.748 120.456C542.613 120.589 542.487 120.714 542.37 120.83C542.252 120.947 542.16 121.063 542.093 121.179C542.026 121.296 541.958 121.379 541.891 121.429L541.816 121.529C541.816 121.546 541.791 121.662 541.74 121.878C541.69 122.095 541.598 122.461 541.463 122.977C541.329 123.492 541.211 123.925 541.111 124.274C540.674 126.038 540.456 126.953 540.456 127.02Z" fill="white"/>
<path d="M549.169 122.402C549.186 122.353 549.203 122.286 549.219 122.203C549.236 122.12 549.278 121.937 549.345 121.654C549.412 121.371 549.496 121.113 549.597 120.88C549.698 120.647 549.824 120.372 549.975 120.056C550.126 119.74 550.294 119.49 550.478 119.307C550.663 119.124 550.881 118.941 551.133 118.758C551.385 118.575 551.662 118.5 551.964 118.534C552.451 118.534 552.879 118.634 553.249 118.833C553.618 119.033 553.878 119.216 554.029 119.382C554.18 119.549 554.273 119.715 554.306 119.882C554.34 119.981 554.365 120.031 554.382 120.031C554.399 120.031 554.466 119.973 554.583 119.857C555.389 118.991 556.321 118.559 557.379 118.559H557.454C558.26 118.559 558.864 118.9 559.267 119.582C559.402 119.898 559.469 120.206 559.469 120.506C559.469 121.005 559.36 121.404 559.141 121.704C558.923 122.003 558.705 122.194 558.487 122.278C558.268 122.361 558.058 122.394 557.857 122.377C557.521 122.377 557.253 122.286 557.051 122.103C556.85 121.92 556.749 121.679 556.749 121.379C556.749 120.58 557.219 120.048 558.159 119.782C557.79 119.565 557.488 119.457 557.253 119.457C556.312 119.457 555.448 120.073 554.659 121.304C554.491 121.57 554.365 121.845 554.281 122.128C554.197 122.411 553.912 123.517 553.425 125.447C552.854 127.777 552.527 129.017 552.443 129.166C552.224 129.616 551.864 129.84 551.36 129.84C551.142 129.84 550.965 129.79 550.831 129.691C550.697 129.591 550.604 129.491 550.554 129.391C550.504 129.291 550.487 129.208 550.504 129.141C550.504 128.925 550.839 127.494 551.511 124.848C552.182 122.203 552.518 120.73 552.518 120.431C552.518 119.782 552.3 119.457 551.864 119.457C551.511 119.457 551.209 119.69 550.957 120.156C550.705 120.622 550.504 121.129 550.353 121.679C550.201 122.228 550.109 122.527 550.076 122.577C550.042 122.61 549.908 122.627 549.673 122.627H549.32C549.219 122.527 549.169 122.452 549.169 122.402Z" fill="white"/>
<path d="M561.005 125.373C561.005 124.424 561.164 123.559 561.483 122.777C561.802 121.995 562.214 121.346 562.717 120.83C563.221 120.314 563.783 119.882 564.405 119.532C565.026 119.183 565.613 118.925 566.167 118.758C566.721 118.592 567.25 118.517 567.754 118.534H567.829C568.585 118.534 569.24 118.717 569.794 119.083C570.348 119.449 570.625 119.99 570.625 120.705C570.625 122.203 569.693 123.184 567.829 123.65C567.007 123.867 565.882 123.983 564.455 124C563.834 124 563.515 124.016 563.498 124.05C563.498 124.083 563.448 124.374 563.347 124.923C563.246 125.472 563.187 125.955 563.171 126.371C563.171 127.153 563.347 127.769 563.699 128.218C564.052 128.667 564.581 128.9 565.286 128.917C565.991 128.933 566.772 128.775 567.628 128.443C568.484 128.11 569.256 127.561 569.945 126.795C570.096 126.629 570.197 126.546 570.247 126.546C570.314 126.546 570.423 126.621 570.574 126.77C570.725 126.92 570.809 127.037 570.826 127.12C570.843 127.203 570.767 127.336 570.6 127.519C570.432 127.702 570.18 127.927 569.844 128.193C569.508 128.459 569.122 128.717 568.686 128.967C568.249 129.216 567.72 129.424 567.099 129.591C566.478 129.757 565.84 129.84 565.185 129.84C563.859 129.84 562.835 129.399 562.113 128.517C561.391 127.636 561.022 126.587 561.005 125.373ZM569.416 120.755C569.315 119.89 568.744 119.457 567.704 119.457C567.149 119.457 566.637 119.574 566.167 119.807C565.697 120.04 565.32 120.322 565.034 120.655C564.749 120.988 564.505 121.329 564.304 121.679C564.102 122.028 563.968 122.328 563.901 122.577C563.834 122.827 563.792 122.985 563.775 123.051C563.775 123.068 563.943 123.076 564.279 123.076C566.176 123.076 567.502 122.877 568.258 122.477C569.013 122.078 569.399 121.504 569.416 120.755Z" fill="white"/>
<path d="M576.115 120.081C576.115 119.665 575.955 119.457 575.636 119.457C575.234 119.457 574.814 119.698 574.377 120.181C573.941 120.664 573.58 121.404 573.294 122.402C573.278 122.419 573.261 122.444 573.244 122.477C573.227 122.511 573.219 122.536 573.219 122.552C573.219 122.569 573.202 122.585 573.169 122.602C573.135 122.619 573.11 122.627 573.093 122.627C573.076 122.627 573.043 122.627 572.992 122.627C572.942 122.627 572.875 122.627 572.791 122.627H572.438C572.337 122.527 572.287 122.452 572.287 122.402C572.287 122.286 572.354 122.045 572.489 121.679C572.623 121.313 572.824 120.88 573.093 120.381C573.362 119.882 573.731 119.457 574.201 119.108C574.671 118.758 575.2 118.575 575.788 118.559C576.493 118.559 577.038 118.758 577.424 119.158C577.811 119.557 578.012 120.023 578.029 120.555C578.029 120.838 578.004 121.055 577.953 121.204C577.953 121.304 577.827 121.67 577.576 122.303C577.324 122.935 577.063 123.675 576.795 124.524C576.526 125.373 576.375 126.113 576.342 126.745C576.342 127.195 576.384 127.561 576.467 127.844C576.686 128.559 577.215 128.917 578.054 128.917C578.675 128.917 579.254 128.634 579.792 128.068C580.329 127.502 580.749 126.845 581.051 126.096C581.353 125.348 581.596 124.657 581.781 124.025C581.966 123.392 582.058 122.935 582.058 122.652C582.058 122.269 581.991 121.937 581.857 121.654C581.722 121.371 581.571 121.154 581.403 121.005C581.235 120.855 581.084 120.705 580.95 120.555C580.816 120.406 580.749 120.223 580.749 120.006C580.749 119.64 580.908 119.299 581.227 118.983C581.546 118.667 581.89 118.509 582.26 118.509C582.579 118.509 582.864 118.659 583.116 118.958C583.368 119.258 583.502 119.74 583.519 120.406C583.519 120.855 583.418 121.545 583.216 122.477C583.015 123.409 582.704 124.449 582.285 125.597C581.865 126.745 581.269 127.735 580.497 128.567C579.724 129.399 578.835 129.824 577.827 129.84C576.753 129.84 575.897 129.566 575.259 129.017C574.638 128.484 574.327 127.694 574.327 126.646C574.327 126.13 574.394 125.597 574.528 125.048C574.663 124.499 575.007 123.526 575.561 122.128C575.93 121.063 576.115 120.381 576.115 120.081Z" fill="white"/>
</g>
<path d="M74.3578 63.5597C74.3765 63.5597 75.0509 63.5128 76.3811 63.4189C77.7112 63.3251 78.395 63.2688 78.4325 63.25C78.6573 63.25 78.7697 63.3251 78.7697 63.4752C78.7697 63.6066 78.0859 66.4407 76.7183 71.9775C75.3507 77.5143 74.6482 80.339 74.6107 80.4516C74.5732 80.5642 74.5639 80.705 74.5826 80.8739C74.5826 81.6622 74.8449 82.0563 75.3694 82.0563C75.538 82.0375 75.7254 81.9531 75.9315 81.8029C76.3249 81.4276 76.7089 80.5267 77.0836 79.1002C77.196 78.7249 77.2897 78.5278 77.3646 78.509C77.4021 78.4902 77.4958 78.4809 77.6456 78.4809H77.8705C78.1515 78.4809 78.292 78.5559 78.292 78.7061C78.292 78.7999 78.2639 78.9501 78.2077 79.1565C77.9641 80.095 77.6831 80.8551 77.3646 81.4369C77.0461 82.0188 76.7839 82.3941 76.5778 82.5631C76.3717 82.732 76.1094 82.8821 75.791 83.0135C75.6411 83.0511 75.4163 83.0698 75.1165 83.0698C74.4796 83.0698 73.9456 82.9291 73.5147 82.6475C73.0838 82.366 72.8028 82.0751 72.6717 81.7748L72.5031 81.3525C72.4844 81.3337 72.4469 81.3431 72.3907 81.3806C72.3532 81.4182 72.3157 81.4557 72.2783 81.4932C71.1729 82.5443 70.0489 83.0698 68.9061 83.0698C67.8757 83.0698 66.9671 82.6944 66.1803 81.9437C65.3934 81.1929 65 80.0011 65 78.3682C65 77.4673 65.1873 76.5477 65.562 75.6092C65.9367 74.6708 66.3863 73.8637 66.9109 73.1881C67.7914 72.1182 68.6719 71.3769 69.5524 70.964C70.4329 70.5511 71.2292 70.3446 71.9411 70.3446C72.9902 70.3446 73.777 70.7387 74.3016 71.527C74.3952 71.6396 74.4421 71.6772 74.4421 71.6396C74.4608 71.5646 74.7137 70.5417 75.2008 68.5709C75.6879 66.6002 75.9502 65.5586 75.9877 65.4459C75.9877 65.202 75.9221 65.0518 75.791 64.9955C75.6598 64.9392 75.2945 64.8923 74.695 64.8547H74.1049C73.9925 64.7421 73.9363 64.667 73.9363 64.6295C73.9363 64.592 73.955 64.4137 73.9925 64.0946C74.0861 63.738 74.2079 63.5597 74.3578 63.5597ZM73.9644 73.6104C73.5335 72.1276 72.8309 71.3863 71.8568 71.3863C71.2011 71.3863 70.5735 71.6772 69.974 72.259C69.3745 72.8408 68.9061 73.601 68.5689 74.5394C68.0256 76.0221 67.6415 77.5612 67.4167 79.1565C67.4167 79.2128 67.4167 79.3161 67.4167 79.4662C67.4167 79.6164 67.4074 79.729 67.3886 79.8041C67.3886 80.6486 67.5572 81.2305 67.8944 81.5495C68.2317 81.8686 68.6345 82.0375 69.1028 82.0563C70.1145 82.0563 71.1542 81.3806 72.2221 80.0293L72.4469 79.7196L73.9644 73.6104Z" fill="white"/>
<path d="M79.7252 78.3119C79.7252 76.2661 80.5307 74.4268 82.1419 72.7939C83.753 71.161 85.4953 70.3446 87.3687 70.3446C88.4179 70.3446 89.2422 70.5698 89.8417 71.0203C90.4412 71.4707 90.7503 72.0619 90.769 72.7939C90.769 73.3382 90.591 73.798 90.2351 74.1734C89.8791 74.5488 89.4295 74.7459 88.8862 74.7646C88.5303 74.7646 88.2493 74.6708 88.0432 74.4831C87.8371 74.2954 87.7341 74.0139 87.7341 73.6385C87.7341 73.2631 87.8371 72.9441 88.0432 72.6813C88.2493 72.4185 88.4553 72.2215 88.6614 72.0901C88.8675 71.9587 88.9986 71.9024 89.0548 71.9212H89.0829C89.0829 71.8836 89.0267 71.8273 88.9143 71.7523C88.8019 71.6772 88.6052 71.6021 88.3242 71.527C88.0432 71.452 87.7247 71.4144 87.3687 71.4144C86.8067 71.4144 86.2728 71.5458 85.767 71.8086C85.3735 71.9775 84.9708 72.2684 84.5586 72.6813C83.7343 73.5071 83.1348 74.6708 82.7601 76.1723C82.3854 77.6738 82.1887 78.7624 82.17 79.4381C82.17 80.3014 82.4135 80.9489 82.9006 81.3806C83.3128 81.8311 83.8561 82.0563 84.5305 82.0563H84.6429C86.7411 82.0563 88.4741 81.2586 89.8417 79.6633C90.0103 79.4756 90.1227 79.3818 90.1789 79.3818C90.2538 79.3818 90.3756 79.4662 90.5442 79.6351C90.7128 79.8041 90.8065 79.9354 90.8252 80.0293C90.844 80.1231 90.7597 80.2639 90.5723 80.4516C90.385 80.6393 90.1133 80.902 89.7574 81.2399C89.4014 81.5777 88.9799 81.8592 88.4928 82.0845C88.0057 82.3097 87.4062 82.5443 86.6943 82.7883C85.9824 83.0323 85.233 83.1355 84.4462 83.098C83.0411 83.098 81.9077 82.6475 81.0459 81.7466C80.1841 80.8457 79.7439 79.7008 79.7252 78.3119Z" fill="white"/>
<path d="M91.5559 74.7083C91.5559 74.5582 91.6402 74.2673 91.8088 73.8356C91.9774 73.4039 92.2116 72.9159 92.5113 72.3716C92.8111 71.8273 93.2232 71.3581 93.7478 70.964C94.2723 70.5698 94.825 70.3634 95.4058 70.3446C96.2675 70.3446 96.9139 70.5792 97.3448 71.0484C97.7756 71.5176 97.9911 72.0713 97.9911 72.7095C97.9911 73.0473 97.6726 74.0983 97.0356 75.8626C96.3987 77.6269 96.0802 78.9501 96.0802 79.8322C96.0802 80.6393 96.2113 81.2023 96.4736 81.5214C96.7359 81.8405 97.1293 82.0094 97.6539 82.0282C98.1784 82.0469 98.6749 81.8874 99.1432 81.5495C99.6116 81.2117 99.9582 80.8926 100.183 80.5923L100.492 80.1137C100.53 80.0387 100.886 78.6122 101.56 75.8345C102.122 73.5822 102.459 72.2684 102.572 71.893C102.684 71.5176 102.815 71.2455 102.965 71.0766C103.284 70.795 103.621 70.6543 103.977 70.6543C104.295 70.6543 104.529 70.7481 104.679 70.9358C104.829 71.1235 104.904 71.3018 104.904 71.4707L102.768 80.4234C102.75 80.5173 102.74 80.6674 102.74 80.8739C102.74 81.3431 102.806 81.6528 102.937 81.8029C103.068 81.9531 103.265 82.0375 103.527 82.0563C103.939 82 104.267 81.7091 104.511 81.1836C104.754 80.658 105.035 79.8322 105.354 78.7061C105.391 78.5559 105.578 78.4809 105.916 78.4809C106.272 78.4809 106.45 78.5653 106.45 78.7342C106.431 78.8281 106.412 78.9595 106.393 79.1284C106.375 79.2973 106.29 79.5976 106.141 80.0293C105.991 80.461 105.831 80.8645 105.663 81.2399C105.494 81.6152 105.26 81.9718 104.96 82.3097C104.66 82.6475 104.323 82.8821 103.949 83.0135C103.799 83.0511 103.574 83.0698 103.274 83.0698C102.038 83.0698 101.185 82.5443 100.717 81.4932C100.679 81.512 100.576 81.6059 100.408 81.7748C100.239 81.9437 100.071 82.0845 99.902 82.1971C99.7334 82.3097 99.5273 82.4504 99.2838 82.6194C99.0402 82.7883 98.7686 82.9009 98.4688 82.9572C98.1691 83.0135 97.8506 83.0604 97.5134 83.098C96.6891 83.098 95.9584 82.9291 95.3215 82.5912C94.3473 82.0094 93.8602 81.0146 93.8602 79.607C93.8602 78.5372 94.188 77.1389 94.8437 75.4122C95.4994 73.6854 95.8273 72.5875 95.8273 72.1182C95.8273 72.0995 95.8273 72.0807 95.8273 72.0619C95.8273 71.893 95.8273 71.7804 95.8273 71.7241C95.8273 71.6678 95.7898 71.6021 95.7149 71.527C95.6399 71.452 95.5369 71.4144 95.4058 71.4144H95.2934C94.8625 71.4144 94.469 71.5927 94.1131 71.9493C93.7571 72.3059 93.4761 72.6907 93.27 73.1036C93.064 73.5165 92.9047 73.9107 92.7923 74.286C92.6799 74.6614 92.605 74.8679 92.5675 74.9054C92.53 74.9429 92.3802 74.9617 92.1179 74.9617H91.7245C91.6121 74.8491 91.5559 74.7646 91.5559 74.7083Z" fill="white"/>
<path d="M107.63 74.7083C107.649 74.652 107.667 74.577 107.686 74.4831C107.705 74.3893 107.752 74.1828 107.827 73.8637C107.902 73.5447 107.995 73.2538 108.108 72.991C108.22 72.7282 108.361 72.4185 108.529 72.0619C108.698 71.7053 108.885 71.4238 109.091 71.2173C109.297 71.0109 109.541 70.8044 109.822 70.598C110.103 70.3915 110.412 70.3071 110.749 70.3446C111.292 70.3446 111.77 70.4572 112.182 70.6824C112.594 70.9077 112.885 71.1141 113.053 71.3018C113.222 71.4895 113.325 71.6772 113.363 71.8649C113.4 71.9775 113.428 72.0338 113.447 72.0338C113.466 72.0338 113.541 71.9681 113.672 71.8367C114.571 70.8607 115.611 70.3727 116.791 70.3727H116.875C117.774 70.3727 118.449 70.7575 118.899 71.527C119.048 71.8836 119.123 72.2309 119.123 72.5687C119.123 73.1318 119.002 73.5822 118.758 73.92C118.515 74.2579 118.271 74.4737 118.027 74.5676C117.784 74.6614 117.55 74.6989 117.325 74.6802C116.95 74.6802 116.65 74.577 116.426 74.3705C116.201 74.164 116.088 73.8919 116.088 73.5541C116.088 72.6532 116.613 72.0526 117.662 71.7523C117.25 71.5083 116.913 71.3863 116.65 71.3863C115.601 71.3863 114.637 72.0807 113.756 73.4696C113.569 73.7699 113.428 74.0796 113.334 74.3986C113.241 74.7177 112.922 75.9658 112.379 78.143C111.742 80.7706 111.377 82.1689 111.283 82.3378C111.04 82.8446 110.637 83.098 110.075 83.098C109.831 83.098 109.634 83.0417 109.485 82.9291C109.335 82.8164 109.232 82.7038 109.175 82.5912C109.119 82.4786 109.101 82.3848 109.119 82.3097C109.119 82.0657 109.494 80.4516 110.243 77.4673C110.993 74.4831 111.367 72.8221 111.367 72.4842C111.367 71.7523 111.124 71.3863 110.637 71.3863C110.243 71.3863 109.906 71.649 109.625 72.1745C109.344 72.7001 109.119 73.2725 108.951 73.8919C108.782 74.5113 108.679 74.8491 108.642 74.9054C108.604 74.9429 108.454 74.9617 108.192 74.9617H107.798C107.686 74.8491 107.63 74.7646 107.63 74.7083Z" fill="white"/>
<path d="M120.332 74.7083C120.35 74.652 120.369 74.577 120.388 74.4831C120.407 74.3893 120.454 74.1828 120.528 73.8637C120.603 73.5447 120.697 73.2538 120.809 72.991C120.922 72.7282 121.062 72.4185 121.231 72.0619C121.4 71.7053 121.587 71.4238 121.793 71.2173C121.999 71.0109 122.243 70.8044 122.524 70.598C122.805 70.3915 123.114 70.3071 123.451 70.3446C123.994 70.3446 124.472 70.4572 124.884 70.6824C125.296 70.9077 125.587 71.1141 125.755 71.3018C125.924 71.4895 126.027 71.6772 126.064 71.8649C126.102 71.9775 126.13 72.0338 126.149 72.0338C126.167 72.0338 126.242 71.9681 126.374 71.8367C127.273 70.8607 128.313 70.3727 129.493 70.3727H129.577C130.476 70.3727 131.151 70.7575 131.6 71.527C131.75 71.8836 131.825 72.2309 131.825 72.5687C131.825 73.1318 131.703 73.5822 131.46 73.92C131.216 74.2579 130.973 74.4737 130.729 74.5676C130.486 74.6614 130.252 74.6989 130.027 74.6802C129.652 74.6802 129.352 74.577 129.127 74.3705C128.903 74.164 128.79 73.8919 128.79 73.5541C128.79 72.6532 129.315 72.0526 130.364 71.7523C129.952 71.5083 129.615 71.3863 129.352 71.3863C128.303 71.3863 127.338 72.0807 126.458 73.4696C126.271 73.7699 126.13 74.0796 126.036 74.3986C125.943 74.7177 125.624 75.9658 125.081 78.143C124.444 80.7706 124.079 82.1689 123.985 82.3378C123.741 82.8446 123.339 83.098 122.777 83.098C122.533 83.098 122.336 83.0417 122.186 82.9291C122.037 82.8164 121.934 82.7038 121.877 82.5912C121.821 82.4786 121.802 82.3848 121.821 82.3097C121.821 82.0657 122.196 80.4516 122.945 77.4673C123.695 74.4831 124.069 72.8221 124.069 72.4842C124.069 71.7523 123.826 71.3863 123.339 71.3863C122.945 71.3863 122.608 71.649 122.327 72.1745C122.046 72.7001 121.821 73.2725 121.653 73.8919C121.484 74.5113 121.381 74.8491 121.343 74.9054C121.306 74.9429 121.156 74.9617 120.894 74.9617H120.5C120.388 74.8491 120.332 74.7646 120.332 74.7083Z" fill="white"/>
<path d="M141.801 73.0191C141.801 72.7751 141.932 72.5875 142.195 72.4561H160.095C160.376 72.6062 160.517 72.7939 160.517 73.0191C160.517 73.2256 160.386 73.4039 160.123 73.5541L151.187 73.5822H142.251C141.951 73.4884 141.801 73.3007 141.801 73.0191ZM141.801 78.4809C141.801 78.1993 141.951 78.0116 142.251 77.9178H160.123C160.386 78.1055 160.517 78.2932 160.517 78.4809C160.517 78.7249 160.376 78.9125 160.095 79.0439H142.195C141.932 78.9125 141.801 78.7249 141.801 78.4809Z" fill="white"/>
<path d="M170.858 78.3119C170.858 76.2661 171.664 74.4268 173.275 72.7939C174.886 71.161 176.628 70.3446 178.502 70.3446C179.551 70.3446 180.375 70.5698 180.975 71.0203C181.574 71.4707 181.883 72.0619 181.902 72.7939C181.902 73.3382 181.724 73.798 181.368 74.1734C181.012 74.5488 180.562 74.7459 180.019 74.7646C179.663 74.7646 179.382 74.6708 179.176 74.4831C178.97 74.2954 178.867 74.0139 178.867 73.6385C178.867 73.2631 178.97 72.9441 179.176 72.6813C179.382 72.4185 179.588 72.2215 179.794 72.0901C180 71.9587 180.132 71.9024 180.188 71.9212H180.216C180.216 71.8836 180.16 71.8273 180.047 71.7523C179.935 71.6772 179.738 71.6021 179.457 71.527C179.176 71.452 178.858 71.4144 178.502 71.4144C177.94 71.4144 177.406 71.5458 176.9 71.8086C176.507 71.9775 176.104 72.2684 175.692 72.6813C174.867 73.5071 174.268 74.6708 173.893 76.1723C173.518 77.6738 173.322 78.7624 173.303 79.4381C173.303 80.3014 173.546 80.9489 174.034 81.3806C174.446 81.8311 174.989 82.0563 175.663 82.0563H175.776C177.874 82.0563 179.607 81.2586 180.975 79.6633C181.143 79.4756 181.256 79.3818 181.312 79.3818C181.387 79.3818 181.509 79.4662 181.677 79.6351C181.846 79.8041 181.939 79.9354 181.958 80.0293C181.977 80.1231 181.893 80.2639 181.705 80.4516C181.518 80.6393 181.246 80.902 180.89 81.2399C180.534 81.5777 180.113 81.8592 179.626 82.0845C179.139 82.3097 178.539 82.5443 177.827 82.7883C177.115 83.0323 176.366 83.1355 175.579 83.098C174.174 83.098 173.041 82.6475 172.179 81.7466C171.317 80.8457 170.877 79.7008 170.858 78.3119Z" fill="white"/>
<path d="M182.689 74.7083C182.689 74.5582 182.773 74.2673 182.942 73.8356C183.11 73.4039 183.345 72.9159 183.644 72.3716C183.944 71.8273 184.356 71.3581 184.881 70.964C185.405 70.5698 185.958 70.3634 186.539 70.3446C187.401 70.3446 188.047 70.5792 188.478 71.0484C188.909 71.5176 189.124 72.0713 189.124 72.7095C189.124 73.0473 188.806 74.0983 188.169 75.8626C187.532 77.6269 187.213 78.9501 187.213 79.8322C187.213 80.6393 187.344 81.2023 187.607 81.5214C187.869 81.8405 188.262 82.0094 188.787 82.0282C189.311 82.0469 189.808 81.8874 190.276 81.5495C190.745 81.2117 191.091 80.8926 191.316 80.5923L191.625 80.1137C191.663 80.0387 192.019 78.6122 192.693 75.8345C193.255 73.5822 193.592 72.2684 193.705 71.893C193.817 71.5176 193.948 71.2455 194.098 71.0766C194.416 70.795 194.754 70.6543 195.11 70.6543C195.428 70.6543 195.662 70.7481 195.812 70.9358C195.962 71.1235 196.037 71.3018 196.037 71.4707L193.901 80.4234C193.883 80.5173 193.873 80.6674 193.873 80.8739C193.873 81.3431 193.939 81.6528 194.07 81.8029C194.201 81.9531 194.398 82.0375 194.66 82.0563C195.072 82 195.4 81.7091 195.644 81.1836C195.887 80.658 196.168 79.8322 196.487 78.7061C196.524 78.5559 196.711 78.4809 197.049 78.4809C197.405 78.4809 197.583 78.5653 197.583 78.7342C197.564 78.8281 197.545 78.9595 197.526 79.1284C197.508 79.2973 197.423 79.5976 197.273 80.0293C197.124 80.461 196.964 80.8645 196.796 81.2399C196.627 81.6152 196.393 81.9718 196.093 82.3097C195.793 82.6475 195.456 82.8821 195.082 83.0135C194.932 83.0511 194.707 83.0698 194.407 83.0698C193.171 83.0698 192.318 82.5443 191.85 81.4932C191.812 81.512 191.709 81.6059 191.541 81.7748C191.372 81.9437 191.204 82.0845 191.035 82.1971C190.866 82.3097 190.66 82.4504 190.417 82.6194C190.173 82.7883 189.902 82.9009 189.602 82.9572C189.302 83.0135 188.984 83.0604 188.646 83.098C187.822 83.098 187.091 82.9291 186.454 82.5912C185.48 82.0094 184.993 81.0146 184.993 79.607C184.993 78.5372 185.321 77.1389 185.977 75.4122C186.632 73.6854 186.96 72.5875 186.96 72.1182C186.96 72.0995 186.96 72.0807 186.96 72.0619C186.96 71.893 186.96 71.7804 186.96 71.7241C186.96 71.6678 186.923 71.6021 186.848 71.527C186.773 71.452 186.67 71.4144 186.539 71.4144H186.426C185.995 71.4144 185.602 71.5927 185.246 71.9493C184.89 72.3059 184.609 72.6907 184.403 73.1036C184.197 73.5165 184.038 73.9107 183.925 74.286C183.813 74.6614 183.738 74.8679 183.7 74.9054C183.663 74.9429 183.513 74.9617 183.251 74.9617H182.857C182.745 74.8491 182.689 74.7646 182.689 74.7083Z" fill="white"/>
<path d="M198.763 74.7083C198.782 74.652 198.8 74.577 198.819 74.4831C198.838 74.3893 198.885 74.1828 198.96 73.8637C199.034 73.5447 199.128 73.2538 199.241 72.991C199.353 72.7282 199.493 72.4185 199.662 72.0619C199.831 71.7053 200.018 71.4238 200.224 71.2173C200.43 71.0109 200.674 70.8044 200.955 70.598C201.236 70.3915 201.545 70.3071 201.882 70.3446C202.425 70.3446 202.903 70.4572 203.315 70.6824C203.727 70.9077 204.018 71.1141 204.186 71.3018C204.355 71.4895 204.458 71.6772 204.496 71.8649C204.533 71.9775 204.561 72.0338 204.58 72.0338C204.599 72.0338 204.674 71.9681 204.805 71.8367C205.704 70.8607 206.744 70.3727 207.924 70.3727H208.008C208.907 70.3727 209.582 70.7575 210.032 71.527C210.181 71.8836 210.256 72.2309 210.256 72.5687C210.256 73.1318 210.135 73.5822 209.891 73.92C209.647 74.2579 209.404 74.4737 209.16 74.5676C208.917 74.6614 208.683 74.6989 208.458 74.6802C208.083 74.6802 207.783 74.577 207.559 74.3705C207.334 74.164 207.221 73.8919 207.221 73.5541C207.221 72.6532 207.746 72.0526 208.795 71.7523C208.383 71.5083 208.046 71.3863 207.783 71.3863C206.734 71.3863 205.769 72.0807 204.889 73.4696C204.702 73.7699 204.561 74.0796 204.467 74.3986C204.374 74.7177 204.055 75.9658 203.512 78.143C202.875 80.7706 202.51 82.1689 202.416 82.3378C202.172 82.8446 201.77 83.098 201.208 83.098C200.964 83.098 200.767 83.0417 200.618 82.9291C200.468 82.8164 200.365 82.7038 200.308 82.5912C200.252 82.4786 200.233 82.3848 200.252 82.3097C200.252 82.0657 200.627 80.4516 201.376 77.4673C202.126 74.4831 202.5 72.8221 202.5 72.4842C202.5 71.7523 202.257 71.3863 201.77 71.3863C201.376 71.3863 201.039 71.649 200.758 72.1745C200.477 72.7001 200.252 73.2725 200.084 73.8919C199.915 74.5113 199.812 74.8491 199.775 74.9054C199.737 74.9429 199.587 74.9617 199.325 74.9617H198.931C198.819 74.8491 198.763 74.7646 198.763 74.7083Z" fill="white"/>
<path d="M211.465 74.7083C211.483 74.652 211.502 74.577 211.521 74.4831C211.54 74.3893 211.586 74.1828 211.661 73.8637C211.736 73.5447 211.83 73.2538 211.942 72.991C212.055 72.7282 212.195 72.4185 212.364 72.0619C212.533 71.7053 212.72 71.4238 212.926 71.2173C213.132 71.0109 213.376 70.8044 213.657 70.598C213.938 70.3915 214.247 70.3071 214.584 70.3446C215.127 70.3446 215.605 70.4572 216.017 70.6824C216.429 70.9077 216.72 71.1141 216.888 71.3018C217.057 71.4895 217.16 71.6772 217.197 71.8649C217.235 71.9775 217.263 72.0338 217.282 72.0338C217.3 72.0338 217.375 71.9681 217.507 71.8367C218.406 70.8607 219.446 70.3727 220.626 70.3727H220.71C221.609 70.3727 222.284 70.7575 222.733 71.527C222.883 71.8836 222.958 72.2309 222.958 72.5687C222.958 73.1318 222.836 73.5822 222.593 73.92C222.349 74.2579 222.106 74.4737 221.862 74.5676C221.619 74.6614 221.385 74.6989 221.16 74.6802C220.785 74.6802 220.485 74.577 220.26 74.3705C220.036 74.164 219.923 73.8919 219.923 73.5541C219.923 72.6532 220.448 72.0526 221.497 71.7523C221.085 71.5083 220.748 71.3863 220.485 71.3863C219.436 71.3863 218.471 72.0807 217.591 73.4696C217.403 73.7699 217.263 74.0796 217.169 74.3986C217.076 74.7177 216.757 75.9658 216.214 78.143C215.577 80.7706 215.212 82.1689 215.118 82.3378C214.874 82.8446 214.472 83.098 213.91 83.098C213.666 83.098 213.469 83.0417 213.319 82.9291C213.17 82.8164 213.066 82.7038 213.01 82.5912C212.954 82.4786 212.935 82.3848 212.954 82.3097C212.954 82.0657 213.329 80.4516 214.078 77.4673C214.827 74.4831 215.202 72.8221 215.202 72.4842C215.202 71.7523 214.959 71.3863 214.472 71.3863C214.078 71.3863 213.741 71.649 213.46 72.1745C213.179 72.7001 212.954 73.2725 212.785 73.8919C212.617 74.5113 212.514 74.8491 212.476 74.9054C212.439 74.9429 212.289 74.9617 212.027 74.9617H211.633C211.521 74.8491 211.465 74.7646 211.465 74.7083Z" fill="white"/>
<path d="M232.147 76.116C232.147 76.116 232.147 75.994 232.147 75.75C232.147 75.506 232.278 75.3183 232.541 75.1869H248.868C249.149 75.3371 249.289 75.5248 249.289 75.75C249.289 75.9752 249.149 76.1629 248.868 76.3131H232.541C232.278 76.1817 232.147 75.994 232.147 75.75V76.116Z" fill="white"/>
<path d="M258.563 74.7083C258.581 74.652 258.6 74.577 258.619 74.4831C258.638 74.3893 258.685 74.1828 258.759 73.8637C258.834 73.5447 258.928 73.2538 259.04 72.991C259.153 72.7282 259.293 72.4185 259.462 72.0619C259.631 71.7053 259.818 71.4238 260.024 71.2173C260.23 71.0109 260.474 70.8044 260.755 70.598C261.036 70.3915 261.345 70.3071 261.682 70.3446C263.087 70.3446 263.986 70.9452 264.38 72.1464L264.661 71.893C265.822 70.8607 266.928 70.3446 267.977 70.3446C269.194 70.3446 270.15 70.7857 270.843 71.6678C271.536 72.5499 271.883 73.6197 271.883 74.8773C271.883 76.9043 271.171 78.7718 269.747 80.4797C268.323 82.1877 266.712 83.0511 264.914 83.0698C264.501 83.0698 264.136 83.0135 263.818 82.9009C263.612 82.8071 263.396 82.6663 263.171 82.4786C262.947 82.2909 262.769 82.1314 262.637 82L262.441 81.7748C262.422 81.7935 262.216 82.61 261.822 84.2241C261.429 85.8382 261.232 86.6547 261.232 86.6734C261.232 86.786 261.307 86.8517 261.457 86.8705C261.607 86.8893 261.954 86.9174 262.497 86.955H263.199C263.312 87.0863 263.368 87.1708 263.368 87.2083C263.368 87.2459 263.34 87.4148 263.284 87.7151C263.228 87.9403 263.171 88.0811 263.115 88.1374C263.059 88.1937 262.937 88.2312 262.75 88.25C262.712 88.25 262.609 88.25 262.441 88.25C262.272 88.25 261.954 88.2406 261.485 88.2218C261.017 88.2031 260.436 88.1937 259.743 88.1937C258.432 88.1937 257.598 88.2125 257.242 88.25H257.017C256.886 88.1186 256.82 88.0154 256.82 87.9403C256.858 87.4336 256.98 87.1051 257.186 86.955H257.748C258.385 86.9362 258.75 86.8236 258.844 86.6171C258.9 86.5045 259.471 84.2616 260.558 79.8885C261.645 75.5154 262.216 73.1974 262.272 72.9347C262.291 72.8408 262.3 72.7095 262.3 72.5405C262.3 71.771 262.066 71.3863 261.598 71.3863C261.186 71.3863 260.839 71.649 260.558 72.1746C260.277 72.7001 260.061 73.2725 259.912 73.8919C259.762 74.5113 259.649 74.8491 259.574 74.9054C259.537 74.9429 259.387 74.9617 259.125 74.9617H258.731C258.619 74.8491 258.563 74.7646 258.563 74.7083ZM262.918 79.9167C263.331 81.3431 264.024 82.0563 264.998 82.0563C265.56 82.0563 266.103 81.8405 266.628 81.4088C267.152 80.9771 267.583 80.4328 267.921 79.7759C268.258 79.1378 268.595 78.1242 268.932 76.7354C269.269 75.3465 269.447 74.3142 269.466 73.6385V73.4696C269.466 72.0807 268.895 71.3863 267.752 71.3863C267.546 71.3863 267.34 71.4144 267.134 71.4707C266.928 71.527 266.722 71.6115 266.515 71.7241C266.309 71.8367 266.122 71.9587 265.953 72.0901C265.785 72.2215 265.626 72.3622 265.476 72.5124C265.326 72.6625 265.185 72.8033 265.054 72.9347C264.923 73.0661 264.82 73.1974 264.745 73.3288C264.67 73.4602 264.595 73.5541 264.52 73.6104L264.436 73.723C264.436 73.7417 264.408 73.8731 264.352 74.1171C264.295 74.3611 264.192 74.774 264.043 75.3559C263.893 75.9377 263.761 76.4257 263.649 76.8198C263.162 78.8093 262.918 79.8416 262.918 79.9167Z" fill="white"/>
<path d="M272.67 74.7083C272.688 74.652 272.707 74.577 272.726 74.4831C272.745 74.3893 272.791 74.1828 272.866 73.8637C272.941 73.5447 273.035 73.2538 273.147 72.991C273.26 72.7282 273.4 72.4185 273.569 72.0619C273.737 71.7053 273.925 71.4238 274.131 71.2173C274.337 71.0109 274.581 70.8044 274.862 70.598C275.143 70.3915 275.452 70.3071 275.789 70.3446C276.332 70.3446 276.81 70.4572 277.222 70.6824C277.634 70.9077 277.925 71.1141 278.093 71.3018C278.262 71.4895 278.365 71.6772 278.402 71.8649C278.44 71.9775 278.468 72.0338 278.487 72.0338C278.505 72.0338 278.58 71.9681 278.711 71.8367C279.611 70.8607 280.65 70.3727 281.831 70.3727H281.915C282.814 70.3727 283.489 70.7575 283.938 71.527C284.088 71.8836 284.163 72.2309 284.163 72.5687C284.163 73.1318 284.041 73.5822 283.798 73.92C283.554 74.2579 283.311 74.4737 283.067 74.5676C282.824 74.6614 282.589 74.6989 282.365 74.6802C281.99 74.6802 281.69 74.577 281.465 74.3705C281.241 74.164 281.128 73.8919 281.128 73.5541C281.128 72.6532 281.653 72.0526 282.702 71.7523C282.29 71.5083 281.952 71.3863 281.69 71.3863C280.641 71.3863 279.676 72.0807 278.796 73.4696C278.608 73.7699 278.468 74.0796 278.374 74.3986C278.281 74.7177 277.962 75.9658 277.419 78.143C276.782 80.7706 276.416 82.1689 276.323 82.3378C276.079 82.8446 275.676 83.098 275.114 83.098C274.871 83.098 274.674 83.0417 274.524 82.9291C274.374 82.8164 274.271 82.7038 274.215 82.5912C274.159 82.4786 274.14 82.3848 274.159 82.3097C274.159 82.0657 274.534 80.4516 275.283 77.4673C276.032 74.4831 276.407 72.8221 276.407 72.4842C276.407 71.7523 276.164 71.3863 275.676 71.3863C275.283 71.3863 274.946 71.649 274.665 72.1745C274.384 72.7001 274.159 73.2725 273.99 73.8919C273.822 74.5113 273.719 74.8491 273.681 74.9054C273.644 74.9429 273.494 74.9617 273.232 74.9617H272.838C272.726 74.8491 272.67 74.7646 272.67 74.7083Z" fill="white"/>
<path d="M285.849 78.0586C285.849 76.9887 286.027 76.0128 286.383 75.1306C286.739 74.2485 287.198 73.5165 287.76 72.9347C288.322 72.3529 288.95 71.8649 289.643 71.4707C290.336 71.0766 290.992 70.7857 291.61 70.598C292.228 70.4103 292.818 70.3258 293.38 70.3446H293.465C294.308 70.3446 295.038 70.5511 295.657 70.964C296.275 71.3769 296.584 71.9869 296.584 72.7939C296.584 74.4831 295.544 75.5905 293.465 76.116C292.547 76.36 291.292 76.4914 289.699 76.5101C289.006 76.5101 288.65 76.5289 288.631 76.5664C288.631 76.604 288.575 76.9324 288.463 77.5518C288.35 78.1712 288.285 78.7155 288.266 79.1847C288.266 80.0668 288.463 80.7613 288.856 81.268C289.249 81.7748 289.84 82.0375 290.626 82.0563C291.413 82.0751 292.284 81.8968 293.24 81.5214C294.195 81.146 295.057 80.5267 295.825 79.6633C295.994 79.4756 296.106 79.3818 296.162 79.3818C296.237 79.3818 296.359 79.4662 296.528 79.6351C296.696 79.8041 296.79 79.9354 296.809 80.0293C296.828 80.1231 296.743 80.2733 296.556 80.4797C296.369 80.6862 296.087 80.9396 295.713 81.2399C295.338 81.5402 294.907 81.8311 294.42 82.1126C293.933 82.3941 293.343 82.6288 292.65 82.8164C291.957 83.0041 291.245 83.098 290.514 83.098C289.034 83.098 287.891 82.6006 287.086 81.6059C286.28 80.6111 285.868 79.4287 285.849 78.0586ZM295.235 72.8502C295.123 71.8742 294.486 71.3863 293.324 71.3863C292.706 71.3863 292.135 71.5176 291.61 71.7804C291.085 72.0432 290.664 72.3622 290.345 72.7376C290.027 73.113 289.755 73.4977 289.53 73.8919C289.306 74.286 289.156 74.6239 289.081 74.9054C289.006 75.1869 288.959 75.3652 288.94 75.4403C288.94 75.4591 289.128 75.4685 289.502 75.4685C291.619 75.4685 293.099 75.2432 293.942 74.7928C294.785 74.3423 295.216 73.6948 295.235 72.8502Z" fill="white"/>
<path d="M302.738 72.0901C302.738 71.6209 302.56 71.3863 302.204 71.3863C301.755 71.3863 301.286 71.6584 300.799 72.2027C300.312 72.747 299.909 73.5822 299.591 74.7083C299.572 74.7271 299.553 74.7553 299.535 74.7928C299.516 74.8303 299.507 74.8585 299.507 74.8773C299.507 74.896 299.488 74.9148 299.45 74.9336C299.413 74.9523 299.385 74.9617 299.366 74.9617C299.347 74.9617 299.31 74.9617 299.254 74.9617C299.197 74.9617 299.122 74.9617 299.029 74.9617H298.635C298.523 74.8491 298.467 74.7646 298.467 74.7083C298.467 74.577 298.542 74.3048 298.692 73.8919C298.841 73.479 299.066 72.991 299.366 72.4279C299.666 71.8649 300.078 71.3863 300.602 70.9921C301.127 70.598 301.717 70.3915 302.373 70.3727C303.16 70.3727 303.769 70.598 304.199 71.0484C304.63 71.4989 304.855 72.0244 304.874 72.625C304.874 72.9441 304.846 73.1881 304.79 73.357C304.79 73.4696 304.649 73.8825 304.368 74.5957C304.087 75.3089 303.797 76.1441 303.497 77.1014C303.197 78.0586 303.029 78.8938 302.991 79.607C302.991 80.1137 303.038 80.5267 303.132 80.8457C303.375 81.6528 303.965 82.0563 304.902 82.0563C305.595 82.0563 306.241 81.7372 306.841 81.0991C307.44 80.461 307.909 79.7196 308.246 78.875C308.583 78.0304 308.855 77.2515 309.061 76.5383C309.267 75.8251 309.37 75.3089 309.37 74.9899C309.37 74.5582 309.295 74.1828 309.145 73.8637C308.995 73.5447 308.827 73.3007 308.639 73.1318C308.452 72.9628 308.284 72.7939 308.134 72.625C307.984 72.4561 307.909 72.2496 307.909 72.0056C307.909 71.5927 308.087 71.208 308.443 70.8514C308.799 70.4947 309.183 70.3164 309.595 70.3164C309.951 70.3164 310.269 70.4854 310.55 70.8232C310.831 71.161 310.981 71.7053 311 72.4561C311 72.9628 310.888 73.7417 310.663 74.7928C310.438 75.8438 310.091 77.0169 309.623 78.3119C309.155 79.607 308.49 80.7237 307.628 81.6622C306.766 82.6006 305.773 83.0792 304.649 83.098C303.45 83.098 302.495 82.7883 301.783 82.1689C301.09 81.5683 300.743 80.6768 300.743 79.4944C300.743 78.9125 300.818 78.3119 300.968 77.6926C301.118 77.0732 301.502 75.9752 302.12 74.3986C302.532 73.1974 302.738 72.4279 302.738 72.0901Z" fill="white"/>
</g>
<defs>
<clipPath id="clip0_588_6587">
<rect width="700" height="232" fill="white" transform="translate(0 0.25)"/>
</clipPath>
<clipPath id="clip1_588_6587">
<rect width="1284" height="1284" fill="white" transform="translate(-292 -466.75)"/>
</clipPath>
<clipPath id="clip2_588_6587">
<rect width="49" height="20" fill="white" transform="translate(535 116.25)"/>
</clipPath>
</defs>
</svg>
