<svg width="700" height="233" viewBox="0 0 700 233" fill="none" xmlns="http://www.w3.org/2000/svg">
<g clip-path="url(#clip0_588_6610)">
<rect width="700" height="232" transform="translate(0 0.25)" fill="#0A0D12"/>
<g clip-path="url(#clip1_588_6610)">
<rect width="1284" height="1284" transform="translate(-292 -466.75)" fill="#0A0D12"/>
<g opacity="0.4">
<line x1="409.156" y1="-1108.75" x2="409.156" y2="1459.25" stroke="#67DBFF" stroke-width="0.917143"/>
<line x1="467.853" y1="-1108.75" x2="467.853" y2="1459.25" stroke="#67DBFF" stroke-width="0.917143"/>
<line x1="526.55" y1="-1108.75" x2="526.55" y2="1459.25" stroke="#67DBFF" stroke-width="0.917143"/>
<line x1="585.248" y1="-1108.75" x2="585.247" y2="1459.25" stroke="#67DBFF" stroke-width="0.917143"/>
<line x1="643.944" y1="-1108.75" x2="643.944" y2="1459.25" stroke="#67DBFF" stroke-width="0.917143"/>
<line x1="56.9732" y1="-1108.75" x2="56.973" y2="1459.25" stroke="#67DBFF" stroke-width="0.917143"/>
<line x1="115.67" y1="-1108.75" x2="115.669" y2="1459.25" stroke="#67DBFF" stroke-width="0.917143"/>
<line x1="174.367" y1="-1108.75" x2="174.367" y2="1459.25" stroke="#67DBFF" stroke-width="0.917143"/>
<line x1="233.064" y1="-1108.75" x2="233.064" y2="1459.25" stroke="#67DBFF" stroke-width="0.917143"/>
<line x1="291.761" y1="-1108.75" x2="291.761" y2="1459.25" stroke="#67DBFF" stroke-width="0.917143"/>
<line x1="-934" y1="116.094" x2="1634" y2="116.094" stroke="#67DBFF" stroke-width="0.917143"/>
<line x1="-934" y1="57.3971" x2="1634" y2="57.3971" stroke="#67DBFF" stroke-width="0.917143"/>
</g>
<line x1="350.459" y1="-1108.75" x2="350.458" y2="1459.25" stroke="#E6E6E6" stroke-width="0.917143"/>
<line x1="-934" y1="174.791" x2="1634" y2="174.791" stroke="#E6E6E6" stroke-width="0.917143"/>
</g>
<path d="M309.5 133.543V75.9571L350 116.457V174.043L309.5 133.543Z" fill="#18C8FF" fill-opacity="0.3" stroke="#67DBFF"/>
<path d="M348.951 176.323C349.537 176.909 350.487 176.909 351.072 176.323C351.658 175.737 351.658 174.787 351.072 174.202L348.951 176.323ZM309 134.25L313.482 150.98L325.73 138.733L309 134.25ZM351.072 174.202L319.606 142.735L317.485 144.857L348.951 176.323L351.072 174.202Z" fill="#20C831"/>
<path d="M348.5 175.25C348.5 176.078 349.172 176.75 350 176.75C350.828 176.75 351.5 176.078 351.5 175.25L348.5 175.25ZM350 116.25L341.34 131.25L358.66 131.25L350 116.25ZM351.5 175.25L351.5 129.75L348.5 129.75L348.5 175.25L351.5 175.25Z" fill="#EB5757"/>
<path d="M286.428 126.582C286.447 126.582 287.131 126.534 288.479 126.438C289.828 126.343 290.521 126.286 290.559 126.267C290.787 126.267 290.901 126.343 290.901 126.496C290.901 126.629 290.208 129.513 288.821 135.147C287.435 140.781 286.723 143.655 286.685 143.77C286.647 143.885 286.637 144.028 286.656 144.2C286.656 145.002 286.922 145.403 287.454 145.403C287.625 145.384 287.815 145.298 288.024 145.145C288.422 144.763 288.812 143.846 289.192 142.395C289.306 142.013 289.401 141.812 289.476 141.793C289.514 141.774 289.609 141.765 289.761 141.765H289.875H289.989C290.274 141.765 290.417 141.841 290.417 141.994C290.417 142.089 290.388 142.242 290.331 142.452C290.084 143.407 289.799 144.181 289.476 144.773C289.154 145.365 288.888 145.747 288.679 145.918C288.47 146.09 288.204 146.243 287.881 146.377C287.729 146.415 287.501 146.434 287.198 146.434C286.552 146.434 286.011 146.291 285.574 146.004C285.137 145.718 284.852 145.422 284.719 145.116L284.548 144.687C284.529 144.668 284.491 144.677 284.434 144.715C284.396 144.753 284.358 144.792 284.32 144.83C283.2 145.899 282.06 146.434 280.902 146.434C279.858 146.434 278.936 146.052 278.139 145.288C277.341 144.524 276.942 143.312 276.942 141.65C276.942 140.733 277.132 139.798 277.512 138.843C277.892 137.888 278.348 137.067 278.879 136.379C279.772 135.29 280.665 134.536 281.557 134.116C282.45 133.696 283.257 133.486 283.979 133.486C285.042 133.486 285.84 133.887 286.371 134.689C286.466 134.803 286.514 134.842 286.514 134.803C286.533 134.727 286.789 133.686 287.283 131.681C287.777 129.676 288.043 128.616 288.081 128.501C288.081 128.253 288.014 128.1 287.881 128.043C287.748 127.985 287.378 127.938 286.77 127.899H286.172C286.058 127.785 286.001 127.709 286.001 127.67C286.001 127.632 286.02 127.451 286.058 127.126C286.153 126.763 286.276 126.582 286.428 126.582ZM286.03 136.809C285.593 135.3 284.881 134.546 283.893 134.546C283.228 134.546 282.592 134.842 281.985 135.434C281.377 136.026 280.902 136.799 280.56 137.754C280.009 139.263 279.62 140.829 279.392 142.452C279.392 142.509 279.392 142.614 279.392 142.767C279.392 142.92 279.383 143.035 279.364 143.111C279.364 143.97 279.535 144.562 279.877 144.887C280.218 145.212 280.627 145.384 281.101 145.403C282.127 145.403 283.181 144.715 284.263 143.34L284.491 143.025L286.03 136.809Z" fill="white"/>
<path d="M291.841 141.65C291.841 139.721 292.562 137.888 294.006 136.15C295.449 134.412 297.073 133.533 298.877 133.514C299.846 133.514 300.7 133.982 301.441 134.918C301.745 134.345 302.181 134.059 302.751 134.059C302.998 134.059 303.216 134.135 303.406 134.288C303.596 134.441 303.691 134.632 303.691 134.861C303.691 135.109 303.34 136.637 302.637 139.444C301.935 142.252 301.574 143.837 301.555 144.2C301.555 144.677 301.621 144.992 301.754 145.145C301.887 145.298 302.087 145.384 302.352 145.403C302.523 145.384 302.713 145.298 302.922 145.145C303.321 144.763 303.71 143.846 304.09 142.395C304.204 142.013 304.299 141.812 304.375 141.793C304.413 141.774 304.508 141.765 304.66 141.765H304.774C305.135 141.765 305.315 141.851 305.315 142.022C305.315 142.137 305.268 142.395 305.173 142.796C305.078 143.197 304.888 143.713 304.603 144.343C304.318 144.973 304.014 145.451 303.691 145.775C303.444 146.023 303.141 146.224 302.78 146.377C302.628 146.415 302.4 146.434 302.096 146.434C301.45 146.434 300.909 146.291 300.472 146.004C300.035 145.718 299.751 145.422 299.618 145.116L299.447 144.687C299.428 144.668 299.39 144.677 299.333 144.715C299.295 144.753 299.257 144.792 299.219 144.83C298.098 145.899 296.959 146.434 295.8 146.434C294.756 146.434 293.835 146.052 293.037 145.288C292.24 144.524 291.841 143.312 291.841 141.65ZM300.9 136.751C300.9 136.637 300.852 136.427 300.757 136.121C300.662 135.816 300.444 135.481 300.102 135.119C299.76 134.756 299.323 134.565 298.792 134.546C298.127 134.546 297.491 134.842 296.883 135.434C296.275 136.026 295.8 136.799 295.459 137.754C294.908 139.263 294.519 140.829 294.291 142.452C294.291 142.509 294.291 142.614 294.291 142.767C294.291 142.92 294.281 143.035 294.262 143.111C294.262 143.97 294.433 144.562 294.775 144.887C295.117 145.212 295.525 145.384 296 145.403C296.722 145.403 297.434 145.088 298.136 144.457C298.839 143.827 299.257 143.34 299.39 142.996C299.428 142.92 299.684 141.898 300.159 139.931C300.634 137.964 300.881 136.904 300.9 136.751Z" fill="white"/>
<path d="M368.382 105.562C368.401 105.562 369.077 105.515 370.411 105.42C371.744 105.326 372.43 105.269 372.468 105.25C372.693 105.25 372.806 105.326 372.806 105.477C372.806 105.609 372.12 108.464 370.749 114.041C369.378 119.618 368.673 122.463 368.636 122.577C368.598 122.69 368.589 122.832 368.608 123.002C368.608 123.796 368.871 124.193 369.397 124.193C369.566 124.174 369.753 124.089 369.96 123.938C370.355 123.56 370.74 122.652 371.115 121.216C371.228 120.837 371.322 120.639 371.397 120.62C371.435 120.601 371.528 120.592 371.679 120.592H371.904C372.186 120.592 372.327 120.667 372.327 120.819C372.327 120.913 372.299 121.064 372.242 121.272C371.998 122.218 371.716 122.983 371.397 123.569C371.078 124.155 370.815 124.533 370.608 124.704C370.401 124.874 370.138 125.025 369.819 125.157C369.669 125.195 369.444 125.214 369.143 125.214C368.504 125.214 367.969 125.072 367.537 124.789C367.105 124.505 366.823 124.212 366.692 123.91L366.523 123.484C366.504 123.465 366.466 123.475 366.41 123.513C366.372 123.55 366.335 123.588 366.297 123.626C365.189 124.685 364.062 125.214 362.916 125.214C361.883 125.214 360.972 124.836 360.183 124.08C359.394 123.324 359 122.123 359 120.478C359 119.571 359.188 118.644 359.563 117.699C359.939 116.754 360.39 115.941 360.916 115.26C361.799 114.183 362.682 113.436 363.564 113.02C364.447 112.604 365.245 112.396 365.959 112.396C367.011 112.396 367.8 112.793 368.326 113.587C368.42 113.701 368.467 113.739 368.467 113.701C368.486 113.625 368.739 112.595 369.228 110.61C369.716 108.625 369.979 107.575 370.016 107.462C370.016 107.216 369.951 107.065 369.819 107.008C369.688 106.951 369.321 106.904 368.72 106.866H368.129C368.016 106.753 367.96 106.677 367.96 106.64C367.96 106.602 367.978 106.422 368.016 106.101C368.11 105.742 368.232 105.562 368.382 105.562ZM367.988 115.686C367.556 114.192 366.851 113.445 365.875 113.445C365.217 113.445 364.588 113.739 363.987 114.325C363.386 114.911 362.916 115.676 362.578 116.622C362.034 118.115 361.648 119.665 361.423 121.272C361.423 121.329 361.423 121.433 361.423 121.584C361.423 121.735 361.414 121.849 361.395 121.925C361.395 122.775 361.564 123.361 361.902 123.683C362.24 124.004 362.644 124.174 363.114 124.193C364.128 124.193 365.17 123.513 366.241 122.151L366.466 121.839L367.988 115.686Z" fill="white"/>
<path d="M373.764 120.422C373.764 118.361 374.571 116.508 376.187 114.863C377.802 113.219 379.549 112.396 381.427 112.396C382.479 112.396 383.306 112.623 383.907 113.077C384.508 113.531 384.818 114.126 384.836 114.863C384.836 115.412 384.658 115.875 384.301 116.253C383.944 116.631 383.493 116.83 382.949 116.848C382.592 116.848 382.31 116.754 382.103 116.565C381.897 116.376 381.794 116.092 381.794 115.714C381.794 115.336 381.897 115.015 382.103 114.75C382.31 114.485 382.517 114.287 382.723 114.154C382.93 114.022 383.061 113.965 383.118 113.984H383.146C383.146 113.946 383.09 113.89 382.977 113.814C382.864 113.739 382.667 113.663 382.385 113.587C382.103 113.512 381.784 113.474 381.427 113.474C380.864 113.474 380.328 113.606 379.821 113.871C379.427 114.041 379.023 114.334 378.61 114.75C377.783 115.582 377.182 116.754 376.807 118.266C376.431 119.779 376.234 120.875 376.215 121.556C376.215 122.426 376.459 123.078 376.947 123.513C377.361 123.966 377.905 124.193 378.582 124.193H378.694C380.798 124.193 382.535 123.39 383.907 121.783C384.076 121.594 384.188 121.499 384.245 121.499C384.32 121.499 384.442 121.584 384.611 121.754C384.78 121.925 384.874 122.057 384.893 122.151C384.912 122.246 384.827 122.388 384.639 122.577C384.451 122.766 384.179 123.031 383.822 123.371C383.465 123.711 383.043 123.995 382.554 124.222C382.066 124.448 381.465 124.685 380.751 124.93C380.037 125.176 379.286 125.28 378.497 125.242C377.088 125.242 375.952 124.789 375.088 123.881C374.224 122.974 373.782 121.821 373.764 120.422Z" fill="white"/>
<path d="M385.625 116.792C385.625 116.64 385.71 116.347 385.879 115.913C386.048 115.478 386.283 114.986 386.583 114.438C386.884 113.89 387.297 113.417 387.823 113.02C388.349 112.623 388.903 112.415 389.485 112.396C390.349 112.396 390.997 112.633 391.429 113.105C391.861 113.578 392.077 114.136 392.077 114.778C392.077 115.119 391.758 116.177 391.119 117.954C390.481 119.732 390.161 121.064 390.161 121.953C390.161 122.766 390.293 123.333 390.556 123.654C390.819 123.976 391.213 124.146 391.739 124.165C392.265 124.184 392.763 124.023 393.233 123.683C393.702 123.342 394.05 123.021 394.275 122.719L394.585 122.236C394.623 122.161 394.979 120.724 395.656 117.926C396.219 115.657 396.557 114.334 396.67 113.956C396.783 113.578 396.914 113.304 397.064 113.134C397.384 112.85 397.722 112.708 398.079 112.708C398.398 112.708 398.633 112.803 398.783 112.992C398.933 113.181 399.008 113.36 399.008 113.531L396.867 122.548C396.848 122.643 396.839 122.794 396.839 123.002C396.839 123.475 396.905 123.787 397.036 123.938C397.168 124.089 397.365 124.174 397.628 124.193C398.041 124.136 398.37 123.843 398.614 123.314C398.858 122.785 399.14 121.953 399.459 120.819C399.497 120.667 399.685 120.592 400.023 120.592C400.38 120.592 400.558 120.677 400.558 120.847C400.539 120.941 400.52 121.074 400.502 121.244C400.483 121.414 400.398 121.717 400.248 122.151C400.098 122.586 399.938 122.993 399.769 123.371C399.6 123.749 399.365 124.108 399.065 124.448C398.764 124.789 398.426 125.025 398.05 125.157C397.9 125.195 397.675 125.214 397.374 125.214C396.135 125.214 395.28 124.685 394.81 123.626C394.773 123.645 394.669 123.739 394.5 123.91C394.331 124.08 394.162 124.222 393.993 124.335C393.824 124.448 393.618 124.59 393.373 124.76C393.129 124.93 392.857 125.044 392.556 125.101C392.256 125.157 391.937 125.205 391.598 125.242C390.772 125.242 390.039 125.072 389.401 124.732C388.424 124.146 387.936 123.144 387.936 121.726C387.936 120.648 388.264 119.24 388.922 117.501C389.579 115.761 389.908 114.655 389.908 114.183C389.908 114.164 389.908 114.145 389.908 114.126C389.908 113.956 389.908 113.842 389.908 113.786C389.908 113.729 389.87 113.663 389.795 113.587C389.72 113.512 389.617 113.474 389.485 113.474H389.373C388.941 113.474 388.546 113.653 388.189 114.013C387.832 114.372 387.551 114.759 387.344 115.175C387.137 115.591 386.978 115.988 386.865 116.366C386.752 116.744 386.677 116.952 386.64 116.99C386.602 117.028 386.452 117.047 386.189 117.047H385.794C385.682 116.934 385.625 116.848 385.625 116.792Z" fill="white"/>
<path d="M401.741 116.792C401.76 116.735 401.779 116.659 401.798 116.565C401.817 116.47 401.863 116.262 401.939 115.941C402.014 115.62 402.108 115.327 402.22 115.062C402.333 114.797 402.474 114.485 402.643 114.126C402.812 113.767 403 113.483 403.206 113.275C403.413 113.067 403.657 112.859 403.939 112.651C404.221 112.443 404.531 112.358 404.869 112.396C405.414 112.396 405.892 112.51 406.306 112.737C406.719 112.963 407.01 113.171 407.179 113.36C407.348 113.549 407.451 113.739 407.489 113.928C407.527 114.041 407.555 114.098 407.574 114.098C407.592 114.098 407.668 114.032 407.799 113.899C408.701 112.916 409.743 112.425 410.926 112.425H411.011C411.913 112.425 412.589 112.812 413.04 113.587C413.19 113.946 413.265 114.296 413.265 114.637C413.265 115.204 413.143 115.657 412.899 115.998C412.654 116.338 412.41 116.555 412.166 116.65C411.922 116.744 411.687 116.782 411.462 116.763C411.086 116.763 410.786 116.659 410.56 116.451C410.335 116.243 410.222 115.969 410.222 115.629C410.222 114.722 410.748 114.117 411.8 113.814C411.387 113.568 411.049 113.445 410.786 113.445C409.734 113.445 408.766 114.145 407.884 115.544C407.696 115.846 407.555 116.158 407.461 116.48C407.367 116.801 407.048 118.058 406.503 120.251C405.864 122.898 405.498 124.307 405.404 124.477C405.16 124.987 404.756 125.242 404.193 125.242C403.948 125.242 403.751 125.186 403.601 125.072C403.451 124.959 403.347 124.845 403.291 124.732C403.235 124.619 403.216 124.524 403.235 124.448C403.235 124.203 403.61 122.577 404.362 119.571C405.113 116.565 405.489 114.892 405.489 114.551C405.489 113.814 405.244 113.445 404.756 113.445C404.362 113.445 404.024 113.71 403.742 114.24C403.46 114.769 403.235 115.345 403.066 115.969C402.897 116.593 402.793 116.934 402.756 116.99C402.718 117.028 402.568 117.047 402.305 117.047H401.91C401.798 116.934 401.741 116.848 401.741 116.792Z" fill="white"/>
<path d="M414.476 116.792C414.495 116.735 414.514 116.659 414.533 116.565C414.552 116.47 414.599 116.262 414.674 115.941C414.749 115.62 414.843 115.327 414.955 115.062C415.068 114.797 415.209 114.485 415.378 114.126C415.547 113.767 415.735 113.483 415.942 113.275C416.148 113.067 416.392 112.859 416.674 112.651C416.956 112.443 417.266 112.358 417.604 112.396C418.149 112.396 418.628 112.51 419.041 112.737C419.454 112.963 419.745 113.171 419.914 113.36C420.083 113.549 420.187 113.739 420.224 113.928C420.262 114.041 420.29 114.098 420.309 114.098C420.327 114.098 420.403 114.032 420.534 113.899C421.436 112.916 422.478 112.425 423.661 112.425H423.746C424.648 112.425 425.324 112.812 425.775 113.587C425.925 113.946 426 114.296 426 114.637C426 115.204 425.878 115.657 425.634 115.998C425.39 116.338 425.145 116.555 424.901 116.65C424.657 116.744 424.422 116.782 424.197 116.763C423.821 116.763 423.521 116.659 423.295 116.451C423.07 116.243 422.957 115.969 422.957 115.629C422.957 114.722 423.483 114.117 424.535 113.814C424.122 113.568 423.784 113.445 423.521 113.445C422.469 113.445 421.501 114.145 420.619 115.544C420.431 115.846 420.29 116.158 420.196 116.48C420.102 116.801 419.783 118.058 419.238 120.251C418.599 122.898 418.233 124.307 418.139 124.477C417.895 124.987 417.491 125.242 416.928 125.242C416.683 125.242 416.486 125.186 416.336 125.072C416.186 124.959 416.082 124.845 416.026 124.732C415.97 124.619 415.951 124.524 415.97 124.448C415.97 124.203 416.345 122.577 417.097 119.571C417.848 116.565 418.224 114.892 418.224 114.551C418.224 113.814 417.98 113.445 417.491 113.445C417.097 113.445 416.759 113.71 416.477 114.24C416.195 114.769 415.97 115.345 415.801 115.969C415.632 116.593 415.528 116.934 415.491 116.99C415.453 117.028 415.303 117.047 415.04 117.047H414.646C414.533 116.934 414.476 116.848 414.476 116.792Z" fill="white"/>
</g>
<defs>
<clipPath id="clip0_588_6610">
<rect width="700" height="232" fill="white" transform="translate(0 0.25)"/>
</clipPath>
<clipPath id="clip1_588_6610">
<rect width="1284" height="1284" fill="white" transform="translate(-292 -466.75)"/>
</clipPath>
</defs>
</svg>
