<svg width="700" height="233" viewBox="0 0 700 233" fill="none" xmlns="http://www.w3.org/2000/svg">
<g clip-path="url(#clip0_588_6620)">
<rect width="700" height="232" transform="translate(0 0.25)" fill="#0A0D12"/>
<g clip-path="url(#clip1_588_6620)">
<rect width="1284" height="1284" transform="translate(-292 -466.75)" fill="#0A0D12"/>
<g opacity="0.4">
<line x1="409.156" y1="-1108.75" x2="409.156" y2="1459.25" stroke="#67DBFF" stroke-width="0.917143"/>
<line x1="467.853" y1="-1108.75" x2="467.853" y2="1459.25" stroke="#67DBFF" stroke-width="0.917143"/>
<line x1="526.55" y1="-1108.75" x2="526.55" y2="1459.25" stroke="#67DBFF" stroke-width="0.917143"/>
<line x1="585.248" y1="-1108.75" x2="585.247" y2="1459.25" stroke="#67DBFF" stroke-width="0.917143"/>
<line x1="643.944" y1="-1108.75" x2="643.944" y2="1459.25" stroke="#67DBFF" stroke-width="0.917143"/>
<line x1="56.9732" y1="-1108.75" x2="56.973" y2="1459.25" stroke="#67DBFF" stroke-width="0.917143"/>
<line x1="115.67" y1="-1108.75" x2="115.669" y2="1459.25" stroke="#67DBFF" stroke-width="0.917143"/>
<line x1="174.367" y1="-1108.75" x2="174.367" y2="1459.25" stroke="#67DBFF" stroke-width="0.917143"/>
<line x1="233.064" y1="-1108.75" x2="233.064" y2="1459.25" stroke="#67DBFF" stroke-width="0.917143"/>
<line x1="291.761" y1="-1108.75" x2="291.761" y2="1459.25" stroke="#67DBFF" stroke-width="0.917143"/>
<line x1="-934" y1="116.094" x2="1634" y2="116.094" stroke="#67DBFF" stroke-width="0.917143"/>
<line x1="-934" y1="57.3971" x2="1634" y2="57.3971" stroke="#67DBFF" stroke-width="0.917143"/>
<line x1="350.459" y1="-1108.75" x2="350.458" y2="1459.25" stroke="#67DBFF" stroke-width="0.917143"/>
<line x1="-934" y1="174.791" x2="1634" y2="174.791" stroke="#67DBFF" stroke-width="0.917143"/>
</g>
</g>
<path d="M193.5 133.543V75.9571L234 116.457V174.043L193.5 133.543Z" fill="#18C8FF" fill-opacity="0.3" stroke="#67DBFF"/>
<path d="M232.951 176.323C233.537 176.909 234.487 176.909 235.072 176.323C235.658 175.737 235.658 174.787 235.072 174.202L232.951 176.323ZM193 134.25L197.482 150.98L209.73 138.733L193 134.25ZM235.072 174.202L203.606 142.735L201.485 144.857L232.951 176.323L235.072 174.202Z" fill="#20C831"/>
<path d="M232.5 175.25C232.5 176.078 233.172 176.75 234 176.75C234.828 176.75 235.5 176.078 235.5 175.25L232.5 175.25ZM234 116.25L225.34 131.25L242.66 131.25L234 116.25ZM235.5 175.25L235.5 129.75L232.5 129.75L232.5 175.25L235.5 175.25Z" fill="#EB5757"/>
<path d="M486.5 133.543V75.9571L527 116.457V174.043L486.5 133.543Z" fill="#18C8FF" fill-opacity="0.3" stroke="#67DBFF"/>
<path d="M525.951 176.323C526.537 176.909 527.487 176.909 528.072 176.323C528.658 175.737 528.658 174.787 528.072 174.202L525.951 176.323ZM486 134.25L490.482 150.98L502.73 138.733L486 134.25ZM528.072 174.202L496.606 142.735L494.485 144.857L525.951 176.323L528.072 174.202Z" fill="#20C831"/>
<path d="M525.5 175.25C525.5 176.078 526.172 176.75 527 176.75C527.828 176.75 528.5 176.078 528.5 175.25L525.5 175.25ZM527 116.25L518.34 131.25L535.66 131.25L527 116.25ZM528.5 175.25L528.5 129.75L525.5 129.75L525.5 175.25L528.5 175.25Z" fill="#EB5757"/>
<path d="M443.96 192.65C443.974 192.65 444.476 192.616 445.465 192.546C446.454 192.476 446.963 192.434 446.991 192.42C447.158 192.42 447.241 192.476 447.241 192.588C447.241 192.685 446.733 194.789 445.716 198.9C444.698 203.01 444.176 205.107 444.148 205.191C444.12 205.274 444.113 205.379 444.127 205.504C444.127 206.09 444.322 206.382 444.712 206.382C444.838 206.368 444.977 206.306 445.13 206.194C445.423 205.915 445.709 205.247 445.987 204.188C446.071 203.909 446.141 203.763 446.196 203.749C446.224 203.735 446.294 203.728 446.405 203.728H446.573C446.782 203.728 446.886 203.784 446.886 203.895C446.886 203.965 446.865 204.076 446.823 204.229C446.642 204.926 446.433 205.49 446.196 205.922C445.959 206.354 445.764 206.633 445.611 206.758C445.458 206.884 445.263 206.995 445.026 207.093C444.914 207.121 444.747 207.135 444.524 207.135C444.051 207.135 443.653 207.03 443.333 206.821C443.012 206.612 442.803 206.396 442.706 206.173L442.581 205.86C442.567 205.846 442.539 205.853 442.497 205.881C442.469 205.908 442.441 205.936 442.413 205.964C441.591 206.744 440.755 207.135 439.905 207.135C439.139 207.135 438.463 206.856 437.878 206.299C437.293 205.741 437 204.856 437 203.644C437 202.975 437.139 202.293 437.418 201.596C437.697 200.899 438.031 200.3 438.421 199.798C439.076 199.004 439.731 198.454 440.386 198.147C441.041 197.841 441.633 197.687 442.162 197.687C442.943 197.687 443.528 197.98 443.918 198.565C443.988 198.649 444.023 198.677 444.023 198.649C444.037 198.593 444.225 197.834 444.587 196.371C444.949 194.908 445.144 194.134 445.172 194.051C445.172 193.87 445.123 193.758 445.026 193.716C444.928 193.674 444.657 193.64 444.211 193.612H443.772C443.688 193.528 443.646 193.472 443.646 193.445C443.646 193.417 443.66 193.284 443.688 193.047C443.758 192.783 443.848 192.65 443.96 192.65ZM443.667 200.112C443.347 199.011 442.824 198.461 442.1 198.461C441.612 198.461 441.145 198.677 440.699 199.109C440.254 199.541 439.905 200.105 439.654 200.802C439.25 201.902 438.965 203.045 438.797 204.229C438.797 204.271 438.797 204.348 438.797 204.459C438.797 204.571 438.791 204.654 438.777 204.71C438.777 205.337 438.902 205.769 439.153 206.006C439.404 206.243 439.703 206.368 440.052 206.382C440.804 206.382 441.577 205.881 442.372 204.877L442.539 204.647L443.667 200.112Z" fill="white"/>
<path d="M448.057 203.414C448.057 202.62 448.189 201.895 448.454 201.241C448.718 200.586 449.06 200.042 449.478 199.61C449.896 199.178 450.363 198.816 450.878 198.523C451.394 198.231 451.881 198.015 452.341 197.876C452.801 197.736 453.24 197.674 453.658 197.687H453.721C454.348 197.687 454.891 197.841 455.351 198.147C455.811 198.454 456.041 198.907 456.041 199.506C456.041 200.76 455.267 201.582 453.721 201.972C453.038 202.153 452.104 202.251 450.92 202.265C450.404 202.265 450.14 202.279 450.126 202.307C450.126 202.334 450.084 202.578 450 203.038C449.917 203.498 449.868 203.902 449.854 204.25C449.854 204.905 450 205.421 450.293 205.797C450.586 206.173 451.024 206.368 451.61 206.382C452.195 206.396 452.843 206.264 453.553 205.985C454.264 205.706 454.905 205.247 455.476 204.606C455.602 204.466 455.685 204.397 455.727 204.397C455.783 204.397 455.873 204.459 455.999 204.585C456.124 204.71 456.194 204.808 456.208 204.877C456.222 204.947 456.159 205.058 456.02 205.212C455.88 205.365 455.671 205.553 455.393 205.776C455.114 205.999 454.794 206.215 454.431 206.424C454.069 206.633 453.63 206.807 453.115 206.947C452.599 207.086 452.069 207.156 451.526 207.156C450.425 207.156 449.575 206.786 448.976 206.048C448.377 205.309 448.07 204.431 448.057 203.414ZM455.037 199.548C454.954 198.823 454.48 198.461 453.616 198.461C453.156 198.461 452.731 198.558 452.341 198.753C451.951 198.948 451.638 199.185 451.401 199.464C451.164 199.743 450.962 200.028 450.795 200.321C450.627 200.614 450.516 200.864 450.46 201.073C450.404 201.282 450.37 201.415 450.356 201.47C450.356 201.484 450.495 201.491 450.774 201.491C452.348 201.491 453.449 201.324 454.076 200.99C454.703 200.655 455.023 200.175 455.037 199.548Z" fill="white"/>
<path d="M457.545 198.879C457.448 198.781 457.399 198.712 457.399 198.67C457.399 198.614 457.42 198.503 457.462 198.335C457.504 198.168 457.539 198.071 457.566 198.043C457.594 197.973 457.657 197.938 457.754 197.938C457.852 197.938 458.207 197.931 458.82 197.917H459.928L460.325 196.245C460.367 196.092 460.416 195.89 460.472 195.639C460.527 195.388 460.576 195.207 460.618 195.096C460.66 194.984 460.702 194.845 460.743 194.678C460.785 194.511 460.841 194.392 460.911 194.322C460.98 194.253 461.05 194.169 461.12 194.072C461.189 193.974 461.287 193.911 461.412 193.884C461.538 193.856 461.663 193.842 461.788 193.842C462.039 193.856 462.213 193.932 462.311 194.072C462.408 194.211 462.457 194.343 462.457 194.469C462.457 194.566 462.394 194.894 462.269 195.451C462.144 196.008 462.004 196.559 461.851 197.102L461.642 197.876C461.642 197.903 461.99 197.917 462.687 197.917H463.753C463.851 198.015 463.899 198.092 463.899 198.147C463.899 198.454 463.809 198.698 463.628 198.879H461.391L460.639 201.909C460.095 204.139 459.824 205.337 459.824 205.504C459.824 206.09 460.012 206.382 460.388 206.382C460.876 206.382 461.349 206.145 461.809 205.672C462.269 205.198 462.638 204.613 462.917 203.916C462.945 203.832 462.98 203.784 463.021 203.77C463.063 203.756 463.168 203.742 463.335 203.728H463.419C463.628 203.728 463.732 203.784 463.732 203.895C463.732 203.937 463.711 204.02 463.669 204.146C463.6 204.369 463.474 204.633 463.293 204.94C463.112 205.247 462.875 205.574 462.583 205.922C462.29 206.271 461.935 206.563 461.517 206.8C461.099 207.037 460.674 207.156 460.242 207.156C459.824 207.156 459.427 207.051 459.05 206.842C458.674 206.633 458.402 206.271 458.235 205.755C458.207 205.644 458.193 205.456 458.193 205.191V204.815L458.925 201.889C459.413 199.924 459.663 198.935 459.677 198.921C459.677 198.893 459.322 198.879 458.611 198.879H457.545Z" fill="white"/>
<path d="M466.512 201.7C466.512 200.739 466.582 199.826 466.721 198.962C466.86 198.098 467.021 197.353 467.202 196.726C467.383 196.099 467.641 195.486 467.975 194.887C468.309 194.288 468.574 193.821 468.769 193.486C468.964 193.152 469.257 192.79 469.647 192.4C470.037 192.009 470.267 191.773 470.337 191.689C470.406 191.605 470.581 191.459 470.859 191.25H471.215C471.41 191.25 471.507 191.313 471.507 191.438C471.507 191.48 471.389 191.626 471.152 191.877C470.915 192.128 470.629 192.497 470.295 192.985C469.961 193.472 469.619 194.072 469.271 194.782C468.922 195.493 468.63 196.454 468.393 197.667C468.156 198.879 468.038 200.223 468.038 201.7C468.038 203.177 468.156 204.515 468.393 205.713C468.63 206.912 468.916 207.88 469.25 208.619C469.584 209.357 469.926 209.956 470.274 210.416C470.622 210.876 470.915 211.245 471.152 211.524C471.389 211.802 471.507 211.949 471.507 211.963C471.507 212.088 471.403 212.151 471.194 212.151H470.859L470.274 211.649C468.964 210.465 468.01 208.988 467.411 207.218C466.812 205.449 466.512 203.609 466.512 201.7Z" fill="white"/>
<path d="M480.348 192.65C480.362 192.65 480.864 192.616 481.853 192.546C482.842 192.476 483.351 192.434 483.379 192.42C483.546 192.42 483.63 192.476 483.63 192.588C483.63 192.685 483.121 194.789 482.104 198.9C481.087 203.01 480.564 205.107 480.536 205.191C480.509 205.274 480.502 205.379 480.515 205.504C480.515 206.09 480.711 206.382 481.101 206.382C481.226 206.368 481.365 206.306 481.519 206.194C481.811 205.915 482.097 205.247 482.376 204.188C482.459 203.909 482.529 203.763 482.585 203.749C482.613 203.735 482.682 203.728 482.794 203.728H482.961C483.17 203.728 483.274 203.784 483.274 203.895C483.274 203.965 483.253 204.076 483.212 204.229C483.031 204.926 482.822 205.49 482.585 205.922C482.348 206.354 482.153 206.633 481.999 206.758C481.846 206.884 481.651 206.995 481.414 207.093C481.303 207.121 481.136 207.135 480.913 207.135C480.439 207.135 480.042 207.03 479.721 206.821C479.401 206.612 479.192 206.396 479.094 206.173L478.969 205.86C478.955 205.846 478.927 205.853 478.885 205.881C478.857 205.908 478.829 205.936 478.802 205.964C477.98 206.744 477.143 207.135 476.294 207.135C475.527 207.135 474.851 206.856 474.266 206.299C473.681 205.741 473.388 204.856 473.388 203.644C473.388 202.975 473.528 202.293 473.806 201.596C474.085 200.899 474.419 200.3 474.81 199.798C475.464 199.004 476.119 198.454 476.774 198.147C477.429 197.841 478.021 197.687 478.551 197.687C479.331 197.687 479.916 197.98 480.306 198.565C480.376 198.649 480.411 198.677 480.411 198.649C480.425 198.593 480.613 197.834 480.975 196.371C481.338 194.908 481.533 194.134 481.561 194.051C481.561 193.87 481.512 193.758 481.414 193.716C481.317 193.674 481.045 193.64 480.599 193.612H480.16C480.077 193.528 480.035 193.472 480.035 193.445C480.035 193.417 480.049 193.284 480.077 193.047C480.146 192.783 480.237 192.65 480.348 192.65ZM480.056 200.112C479.735 199.011 479.213 198.461 478.488 198.461C478 198.461 477.534 198.677 477.088 199.109C476.642 199.541 476.294 200.105 476.043 200.802C475.639 201.902 475.353 203.045 475.186 204.229C475.186 204.271 475.186 204.348 475.186 204.459C475.186 204.571 475.179 204.654 475.165 204.71C475.165 205.337 475.29 205.769 475.541 206.006C475.792 206.243 476.091 206.368 476.44 206.382C477.192 206.382 477.966 205.881 478.76 204.877L478.927 204.647L480.056 200.112Z" fill="white"/>
<path d="M484.34 203.602C484.34 202.084 484.939 200.718 486.138 199.506C487.336 198.294 488.632 197.687 490.025 197.687C490.806 197.687 491.419 197.855 491.865 198.189C492.31 198.523 492.54 198.962 492.554 199.506C492.554 199.91 492.422 200.251 492.157 200.53C491.892 200.809 491.558 200.955 491.154 200.969C490.889 200.969 490.68 200.899 490.527 200.76C490.374 200.621 490.297 200.412 490.297 200.133C490.297 199.854 490.374 199.617 490.527 199.422C490.68 199.227 490.833 199.081 490.987 198.983C491.14 198.886 491.238 198.844 491.279 198.858H491.3C491.3 198.83 491.258 198.788 491.175 198.732C491.091 198.677 490.945 198.621 490.736 198.565C490.527 198.51 490.29 198.482 490.025 198.482C489.607 198.482 489.21 198.579 488.834 198.774C488.541 198.9 488.242 199.116 487.935 199.422C487.322 200.035 486.876 200.899 486.598 202.014C486.319 203.129 486.173 203.937 486.159 204.438C486.159 205.079 486.34 205.56 486.702 205.881C487.009 206.215 487.413 206.382 487.914 206.382H487.998C489.559 206.382 490.847 205.79 491.865 204.606C491.99 204.466 492.074 204.397 492.115 204.397C492.171 204.397 492.262 204.459 492.387 204.585C492.513 204.71 492.582 204.808 492.596 204.877C492.61 204.947 492.547 205.051 492.408 205.191C492.269 205.33 492.067 205.525 491.802 205.776C491.537 206.027 491.224 206.236 490.861 206.403C490.499 206.57 490.053 206.744 489.524 206.926C488.994 207.107 488.437 207.183 487.852 207.156C486.807 207.156 485.964 206.821 485.323 206.152C484.682 205.483 484.354 204.633 484.34 203.602Z" fill="white"/>
<path d="M493.14 200.927C493.14 200.816 493.202 200.6 493.328 200.279C493.453 199.959 493.627 199.596 493.85 199.192C494.073 198.788 494.38 198.44 494.77 198.147C495.16 197.855 495.571 197.701 496.003 197.687C496.644 197.687 497.125 197.862 497.445 198.21C497.766 198.558 497.926 198.969 497.926 199.443C497.926 199.694 497.689 200.474 497.215 201.784C496.741 203.094 496.505 204.076 496.505 204.731C496.505 205.33 496.602 205.748 496.797 205.985C496.992 206.222 497.285 206.347 497.675 206.361C498.065 206.375 498.434 206.257 498.783 206.006C499.131 205.755 499.389 205.518 499.556 205.295L499.786 204.94C499.814 204.884 500.079 203.825 500.58 201.763C500.998 200.091 501.249 199.116 501.333 198.837C501.416 198.558 501.514 198.356 501.625 198.231C501.862 198.022 502.113 197.917 502.378 197.917C502.615 197.917 502.789 197.987 502.9 198.126C503.012 198.266 503.067 198.398 503.067 198.523L501.479 205.17C501.465 205.24 501.458 205.351 501.458 205.504C501.458 205.853 501.507 206.083 501.604 206.194C501.702 206.306 501.848 206.368 502.043 206.382C502.35 206.34 502.594 206.124 502.775 205.734C502.956 205.344 503.165 204.731 503.402 203.895C503.43 203.784 503.569 203.728 503.82 203.728C504.085 203.728 504.217 203.79 504.217 203.916C504.203 203.986 504.189 204.083 504.175 204.208C504.161 204.334 504.099 204.557 503.987 204.877C503.876 205.198 503.757 205.497 503.632 205.776C503.506 206.055 503.332 206.319 503.109 206.57C502.886 206.821 502.635 206.995 502.357 207.093C502.245 207.121 502.078 207.135 501.855 207.135C500.936 207.135 500.302 206.744 499.953 205.964C499.925 205.978 499.849 206.048 499.723 206.173C499.598 206.299 499.472 206.403 499.347 206.487C499.222 206.57 499.068 206.675 498.887 206.8C498.706 206.926 498.504 207.009 498.281 207.051C498.058 207.093 497.821 207.128 497.571 207.156C496.957 207.156 496.414 207.03 495.94 206.779C495.216 206.347 494.853 205.609 494.853 204.564C494.853 203.77 495.097 202.732 495.585 201.45C496.073 200.168 496.316 199.353 496.316 199.004C496.316 198.99 496.316 198.976 496.316 198.962C496.316 198.837 496.316 198.753 496.316 198.712C496.316 198.67 496.289 198.621 496.233 198.565C496.177 198.51 496.1 198.482 496.003 198.482H495.919C495.599 198.482 495.306 198.614 495.042 198.879C494.777 199.144 494.568 199.429 494.414 199.736C494.261 200.042 494.143 200.335 494.059 200.614C493.976 200.892 493.92 201.046 493.892 201.073C493.864 201.101 493.753 201.115 493.558 201.115H493.265C493.181 201.032 493.14 200.969 493.14 200.927Z" fill="white"/>
<path d="M505.095 200.927C505.109 200.885 505.123 200.83 505.137 200.76C505.151 200.69 505.185 200.537 505.241 200.3C505.297 200.063 505.367 199.847 505.45 199.652C505.534 199.457 505.638 199.227 505.764 198.962C505.889 198.698 506.028 198.489 506.182 198.335C506.335 198.182 506.516 198.029 506.725 197.876C506.934 197.722 507.164 197.66 507.415 197.687C507.819 197.687 508.174 197.771 508.481 197.938C508.787 198.105 509.003 198.259 509.129 198.398C509.254 198.537 509.331 198.677 509.359 198.816C509.386 198.9 509.407 198.941 509.421 198.941C509.435 198.941 509.491 198.893 509.588 198.795C510.257 198.071 511.031 197.708 511.908 197.708H511.971C512.64 197.708 513.142 197.994 513.476 198.565C513.587 198.83 513.643 199.088 513.643 199.339C513.643 199.757 513.553 200.091 513.372 200.342C513.19 200.593 513.009 200.753 512.828 200.823C512.647 200.892 512.473 200.92 512.306 200.906C512.027 200.906 511.804 200.83 511.637 200.676C511.47 200.523 511.386 200.321 511.386 200.07C511.386 199.401 511.776 198.955 512.556 198.732C512.25 198.551 511.999 198.461 511.804 198.461C511.024 198.461 510.306 198.976 509.651 200.007C509.512 200.23 509.407 200.46 509.338 200.697C509.268 200.934 509.031 201.861 508.627 203.477C508.153 205.428 507.882 206.466 507.812 206.591C507.631 206.967 507.331 207.156 506.913 207.156C506.732 207.156 506.586 207.114 506.474 207.03C506.363 206.947 506.286 206.863 506.244 206.779C506.203 206.696 506.189 206.626 506.203 206.57C506.203 206.389 506.481 205.191 507.039 202.975C507.596 200.76 507.875 199.527 507.875 199.276C507.875 198.732 507.693 198.461 507.331 198.461C507.039 198.461 506.788 198.656 506.579 199.046C506.37 199.436 506.203 199.861 506.077 200.321C505.952 200.781 505.875 201.032 505.847 201.073C505.819 201.101 505.708 201.115 505.513 201.115H505.22C505.137 201.032 505.095 200.969 505.095 200.927Z" fill="white"/>
<path d="M514.542 200.927C514.556 200.885 514.57 200.83 514.584 200.76C514.598 200.69 514.633 200.537 514.688 200.3C514.744 200.063 514.814 199.847 514.897 199.652C514.981 199.457 515.085 199.227 515.211 198.962C515.336 198.698 515.476 198.489 515.629 198.335C515.782 198.182 515.963 198.029 516.172 197.876C516.381 197.722 516.611 197.66 516.862 197.687C517.266 197.687 517.621 197.771 517.928 197.938C518.234 198.105 518.45 198.259 518.576 198.398C518.701 198.537 518.778 198.677 518.806 198.816C518.834 198.9 518.855 198.941 518.868 198.941C518.882 198.941 518.938 198.893 519.036 198.795C519.704 198.071 520.478 197.708 521.356 197.708H521.418C522.087 197.708 522.589 197.994 522.923 198.565C523.035 198.83 523.09 199.088 523.09 199.339C523.09 199.757 523 200.091 522.819 200.342C522.638 200.593 522.456 200.753 522.275 200.823C522.094 200.892 521.92 200.92 521.753 200.906C521.474 200.906 521.251 200.83 521.084 200.676C520.917 200.523 520.833 200.321 520.833 200.07C520.833 199.401 521.223 198.955 522.004 198.732C521.697 198.551 521.446 198.461 521.251 198.461C520.471 198.461 519.753 198.976 519.098 200.007C518.959 200.23 518.854 200.46 518.785 200.697C518.715 200.934 518.478 201.861 518.074 203.477C517.6 205.428 517.329 206.466 517.259 206.591C517.078 206.967 516.778 207.156 516.36 207.156C516.179 207.156 516.033 207.114 515.921 207.03C515.81 206.947 515.733 206.863 515.692 206.779C515.65 206.696 515.636 206.626 515.65 206.57C515.65 206.389 515.928 205.191 516.486 202.975C517.043 200.76 517.322 199.527 517.322 199.276C517.322 198.732 517.141 198.461 516.778 198.461C516.486 198.461 516.235 198.656 516.026 199.046C515.817 199.436 515.65 199.861 515.524 200.321C515.399 200.781 515.322 201.032 515.294 201.073C515.267 201.101 515.155 201.115 514.96 201.115H514.667C514.584 201.032 514.542 200.969 514.542 200.927Z" fill="white"/>
<path d="M525.16 206.194C525.16 206.194 525.16 206.02 525.16 205.672C525.16 205.323 525.271 205.024 525.494 204.773C525.717 204.522 526.017 204.397 526.393 204.397C526.783 204.397 527.131 204.571 527.438 204.919C527.744 205.267 527.905 205.881 527.918 206.758C527.918 207.246 527.856 207.72 527.73 208.18C527.605 208.639 527.459 209.037 527.291 209.371C527.124 209.705 526.943 209.991 526.748 210.228C526.553 210.465 526.386 210.653 526.246 210.792C526.107 210.932 526.017 210.994 525.975 210.98C525.919 210.98 525.828 210.918 525.703 210.792C525.578 210.667 525.515 210.576 525.515 210.521C525.515 210.465 525.592 210.353 525.745 210.186C525.898 210.019 526.072 209.81 526.267 209.559C526.462 209.308 526.644 208.96 526.811 208.514C526.978 208.068 527.089 207.56 527.145 206.988V206.737L527.124 206.758C527.096 206.772 527.062 206.786 527.02 206.8C526.978 206.814 526.936 206.835 526.894 206.863C526.853 206.891 526.79 206.905 526.706 206.905C526.623 206.905 526.539 206.912 526.455 206.926C526.079 206.926 525.773 206.807 525.536 206.57L525.16 206.194Z" fill="white"/>
<path d="M540.48 192.65C540.494 192.65 540.995 192.616 541.985 192.546C542.974 192.476 543.483 192.434 543.51 192.42C543.678 192.42 543.761 192.476 543.761 192.588C543.761 192.685 543.253 194.789 542.236 198.9C541.218 203.01 540.696 205.107 540.668 205.191C540.64 205.274 540.633 205.379 540.647 205.504C540.647 206.09 540.842 206.382 541.232 206.382C541.358 206.368 541.497 206.306 541.65 206.194C541.943 205.915 542.229 205.247 542.507 204.188C542.591 203.909 542.661 203.763 542.716 203.749C542.744 203.735 542.814 203.728 542.925 203.728H543.092C543.301 203.728 543.406 203.784 543.406 203.895C543.406 203.965 543.385 204.076 543.343 204.229C543.162 204.926 542.953 205.49 542.716 205.922C542.479 206.354 542.284 206.633 542.131 206.758C541.978 206.884 541.783 206.995 541.546 207.093C541.434 207.121 541.267 207.135 541.044 207.135C540.57 207.135 540.173 207.03 539.853 206.821C539.532 206.612 539.323 206.396 539.226 206.173L539.1 205.86C539.086 205.846 539.059 205.853 539.017 205.881C538.989 205.908 538.961 205.936 538.933 205.964C538.111 206.744 537.275 207.135 536.425 207.135C535.659 207.135 534.983 206.856 534.398 206.299C533.813 205.741 533.52 204.856 533.52 203.644C533.52 202.975 533.659 202.293 533.938 201.596C534.217 200.899 534.551 200.3 534.941 199.798C535.596 199.004 536.251 198.454 536.906 198.147C537.561 197.841 538.153 197.687 538.682 197.687C539.463 197.687 540.048 197.98 540.438 198.565C540.508 198.649 540.543 198.677 540.543 198.649C540.556 198.593 540.745 197.834 541.107 196.371C541.469 194.908 541.664 194.134 541.692 194.051C541.692 193.87 541.643 193.758 541.546 193.716C541.448 193.674 541.177 193.64 540.731 193.612H540.292C540.208 193.528 540.166 193.472 540.166 193.445C540.166 193.417 540.18 193.284 540.208 193.047C540.278 192.783 540.368 192.65 540.48 192.65ZM540.187 200.112C539.867 199.011 539.344 198.461 538.62 198.461C538.132 198.461 537.665 198.677 537.219 199.109C536.773 199.541 536.425 200.105 536.174 200.802C535.77 201.902 535.485 203.045 535.317 204.229C535.317 204.271 535.317 204.348 535.317 204.459C535.317 204.571 535.31 204.654 535.296 204.71C535.296 205.337 535.422 205.769 535.673 206.006C535.923 206.243 536.223 206.368 536.571 206.382C537.324 206.382 538.097 205.881 538.891 204.877L539.059 204.647L540.187 200.112Z" fill="white"/>
<path d="M544.472 203.644C544.472 202.237 545.001 200.899 546.06 199.631C547.119 198.363 548.311 197.722 549.634 197.708C550.345 197.708 550.972 198.05 551.515 198.732C551.738 198.314 552.059 198.105 552.477 198.105C552.658 198.105 552.818 198.161 552.958 198.273C553.097 198.384 553.167 198.523 553.167 198.691C553.167 198.872 552.909 199.987 552.393 202.035C551.878 204.083 551.613 205.24 551.599 205.504C551.599 205.853 551.648 206.083 551.745 206.194C551.843 206.306 551.989 206.368 552.184 206.382C552.31 206.368 552.449 206.306 552.602 206.194C552.895 205.915 553.181 205.247 553.459 204.188C553.543 203.909 553.613 203.763 553.668 203.749C553.696 203.735 553.766 203.728 553.877 203.728H553.961C554.226 203.728 554.358 203.79 554.358 203.916C554.358 203.999 554.323 204.188 554.253 204.48C554.184 204.773 554.044 205.149 553.835 205.609C553.626 206.069 553.404 206.417 553.167 206.654C552.986 206.835 552.763 206.981 552.498 207.093C552.386 207.121 552.219 207.135 551.996 207.135C551.522 207.135 551.125 207.03 550.805 206.821C550.484 206.612 550.275 206.396 550.178 206.173L550.052 205.86C550.038 205.846 550.011 205.853 549.969 205.881C549.941 205.908 549.913 205.936 549.885 205.964C549.063 206.744 548.227 207.135 547.377 207.135C546.611 207.135 545.935 206.856 545.35 206.299C544.765 205.741 544.472 204.856 544.472 203.644ZM551.118 200.07C551.118 199.987 551.084 199.833 551.014 199.61C550.944 199.387 550.784 199.144 550.533 198.879C550.282 198.614 549.962 198.475 549.572 198.461C549.084 198.461 548.617 198.677 548.171 199.109C547.725 199.541 547.377 200.105 547.126 200.802C546.722 201.902 546.437 203.045 546.269 204.229C546.269 204.271 546.269 204.348 546.269 204.459C546.269 204.571 546.262 204.654 546.248 204.71C546.248 205.337 546.374 205.769 546.625 206.006C546.876 206.243 547.175 206.368 547.523 206.382C548.053 206.382 548.575 206.152 549.091 205.692C549.607 205.233 549.913 204.877 550.011 204.627C550.038 204.571 550.227 203.825 550.575 202.39C550.923 200.955 551.104 200.182 551.118 200.07Z" fill="white"/>
<path d="M556.093 191.271L556.176 191.25C556.246 191.25 556.316 191.25 556.385 191.25H556.636L557.221 191.752C558.531 192.936 559.486 194.413 560.085 196.183C560.684 197.952 560.984 199.791 560.984 201.7C560.984 202.648 560.914 203.561 560.775 204.438C560.635 205.316 560.475 206.062 560.294 206.675C560.113 207.288 559.855 207.901 559.52 208.514C559.186 209.127 558.921 209.594 558.726 209.914C558.531 210.235 558.246 210.59 557.869 210.98C557.493 211.371 557.27 211.6 557.201 211.67C557.131 211.74 556.971 211.872 556.72 212.067C556.678 212.109 556.65 212.137 556.636 212.151H556.385C556.274 212.151 556.197 212.151 556.155 212.151C556.114 212.151 556.079 212.13 556.051 212.088C556.023 212.046 556.002 211.984 555.988 211.9C556.002 211.886 556.079 211.795 556.218 211.628C558.378 209.385 559.458 206.076 559.458 201.7C559.458 197.325 558.378 194.016 556.218 191.773C556.079 191.605 556.002 191.515 555.988 191.501C555.988 191.389 556.023 191.313 556.093 191.271Z" fill="white"/>
<path d="M569.95 199.673C569.95 199.492 570.048 199.353 570.243 199.255H583.556C583.765 199.366 583.87 199.506 583.87 199.673C583.87 199.826 583.772 199.959 583.577 200.07L576.931 200.091H570.284C570.061 200.021 569.95 199.882 569.95 199.673ZM569.95 203.728C569.95 203.519 570.061 203.379 570.284 203.31H583.577C583.772 203.449 583.87 203.588 583.87 203.728C583.87 203.909 583.765 204.048 583.556 204.146H570.243C570.048 204.048 569.95 203.909 569.95 203.728Z" fill="white"/>
<path d="M592.878 194.699C593.658 193.57 594.724 193.006 596.076 193.006C596.745 193.006 597.414 193.187 598.082 193.549C598.751 193.911 599.295 194.552 599.713 195.472C600.228 196.628 600.486 198.217 600.486 200.237C600.486 202.397 600.186 204.048 599.587 205.191C599.309 205.776 598.925 206.243 598.438 206.591C597.95 206.94 597.525 207.156 597.163 207.239C596.801 207.323 596.445 207.371 596.097 207.385C595.735 207.385 595.372 207.344 595.01 207.26C594.648 207.176 594.223 206.953 593.735 206.591C593.247 206.229 592.864 205.762 592.586 205.191C591.986 204.048 591.687 202.397 591.687 200.237C591.687 197.813 592.084 195.967 592.878 194.699ZM597.581 194.448C597.163 194.002 596.668 193.779 596.097 193.779C595.512 193.779 595.01 194.002 594.592 194.448C594.244 194.81 594.014 195.312 593.902 195.953C593.791 196.594 593.735 197.931 593.735 199.966C593.735 202.167 593.791 203.616 593.902 204.313C594.014 205.01 594.265 205.56 594.655 205.964C595.045 206.382 595.526 206.591 596.097 206.591C596.654 206.591 597.128 206.382 597.518 205.964C597.922 205.546 598.173 204.961 598.271 204.208C598.368 203.456 598.424 202.042 598.438 199.966C598.438 197.945 598.382 196.615 598.271 195.974C598.159 195.333 597.929 194.824 597.581 194.448Z" fill="white"/>
<path d="M602.952 205.672C602.952 205.337 603.071 205.045 603.308 204.794C603.545 204.543 603.844 204.418 604.206 204.418C604.541 204.418 604.833 204.529 605.084 204.752C605.335 204.975 605.467 205.274 605.481 205.651C605.481 205.999 605.363 206.299 605.126 206.549C604.889 206.8 604.59 206.926 604.227 206.926C603.865 206.926 603.565 206.807 603.329 206.57C603.092 206.333 602.966 206.034 602.952 205.672Z" fill="white"/>
<path d="M608.303 197.353C608.317 197.325 608.435 196.566 608.658 195.075L608.993 192.838C608.993 192.811 609.132 192.797 609.411 192.797H609.829V192.88C609.829 193.02 609.933 193.138 610.142 193.236C610.351 193.333 610.714 193.396 611.229 193.424C611.745 193.452 612.922 193.465 614.761 193.465H617.29V194.281L615.869 196.224C615.744 196.392 615.535 196.67 615.242 197.06C614.949 197.451 614.761 197.708 614.678 197.834C614.594 197.959 614.448 198.182 614.239 198.503C614.03 198.823 613.89 199.074 613.821 199.255C613.751 199.436 613.654 199.694 613.528 200.028C613.403 200.363 613.312 200.683 613.256 200.99C613.201 201.296 613.145 201.673 613.089 202.118C613.033 202.564 612.992 203.038 612.964 203.54C612.936 204.041 612.915 204.613 612.901 205.254C612.901 205.449 612.901 205.644 612.901 205.839C612.901 206.034 612.894 206.201 612.88 206.34V206.528C612.824 206.765 612.692 206.967 612.483 207.135C612.274 207.302 612.037 207.385 611.772 207.385C611.619 207.385 611.473 207.365 611.334 207.323C611.194 207.281 611.048 207.149 610.895 206.926C610.741 206.703 610.665 206.424 610.665 206.09C610.665 203.888 611.341 201.603 612.692 199.234C612.971 198.788 613.556 197.945 614.448 196.705L615.409 195.388H613.465C611.041 195.388 609.766 195.43 609.641 195.514C609.557 195.556 609.48 195.723 609.411 196.015C609.341 196.308 609.271 196.608 609.202 196.914L609.139 197.353V197.416H608.303V197.353Z" fill="white"/>
<path d="M142.96 192.65C142.974 192.65 143.476 192.616 144.465 192.546C145.454 192.476 145.963 192.434 145.991 192.42C146.158 192.42 146.241 192.476 146.241 192.588C146.241 192.685 145.733 194.789 144.716 198.9C143.698 203.01 143.176 205.107 143.148 205.191C143.12 205.274 143.113 205.379 143.127 205.504C143.127 206.09 143.322 206.382 143.712 206.382C143.838 206.368 143.977 206.306 144.13 206.194C144.423 205.915 144.709 205.247 144.987 204.188C145.071 203.909 145.141 203.763 145.196 203.749C145.224 203.735 145.294 203.728 145.405 203.728H145.573C145.782 203.728 145.886 203.784 145.886 203.895C145.886 203.965 145.865 204.076 145.823 204.229C145.642 204.926 145.433 205.49 145.196 205.922C144.959 206.354 144.764 206.633 144.611 206.758C144.458 206.884 144.263 206.995 144.026 207.093C143.914 207.121 143.747 207.135 143.524 207.135C143.051 207.135 142.653 207.03 142.333 206.821C142.012 206.612 141.803 206.396 141.706 206.173L141.581 205.86C141.567 205.846 141.539 205.853 141.497 205.881C141.469 205.908 141.441 205.936 141.413 205.964C140.591 206.744 139.755 207.135 138.905 207.135C138.139 207.135 137.463 206.856 136.878 206.299C136.293 205.741 136 204.856 136 203.644C136 202.975 136.139 202.293 136.418 201.596C136.697 200.899 137.031 200.3 137.421 199.798C138.076 199.004 138.731 198.454 139.386 198.147C140.041 197.841 140.633 197.687 141.162 197.687C141.943 197.687 142.528 197.98 142.918 198.565C142.988 198.649 143.023 198.677 143.023 198.649C143.037 198.593 143.225 197.834 143.587 196.371C143.949 194.908 144.144 194.134 144.172 194.051C144.172 193.87 144.123 193.758 144.026 193.716C143.928 193.674 143.657 193.64 143.211 193.612H142.772C142.688 193.528 142.646 193.472 142.646 193.445C142.646 193.417 142.66 193.284 142.688 193.047C142.758 192.783 142.848 192.65 142.96 192.65ZM142.667 200.112C142.347 199.011 141.824 198.461 141.1 198.461C140.612 198.461 140.145 198.677 139.699 199.109C139.254 199.541 138.905 200.105 138.654 200.802C138.25 201.902 137.965 203.045 137.797 204.229C137.797 204.271 137.797 204.348 137.797 204.459C137.797 204.571 137.791 204.654 137.777 204.71C137.777 205.337 137.902 205.769 138.153 206.006C138.404 206.243 138.703 206.368 139.052 206.382C139.804 206.382 140.577 205.881 141.372 204.877L141.539 204.647L142.667 200.112Z" fill="white"/>
<path d="M147.057 203.414C147.057 202.62 147.189 201.895 147.454 201.241C147.718 200.586 148.06 200.042 148.478 199.61C148.896 199.178 149.363 198.816 149.878 198.523C150.394 198.231 150.881 198.015 151.341 197.876C151.801 197.736 152.24 197.674 152.658 197.687H152.721C153.348 197.687 153.891 197.841 154.351 198.147C154.811 198.454 155.041 198.907 155.041 199.506C155.041 200.76 154.267 201.582 152.721 201.972C152.038 202.153 151.104 202.251 149.92 202.265C149.404 202.265 149.14 202.279 149.126 202.307C149.126 202.334 149.084 202.578 149 203.038C148.917 203.498 148.868 203.902 148.854 204.25C148.854 204.905 149 205.421 149.293 205.797C149.586 206.173 150.024 206.368 150.61 206.382C151.195 206.396 151.843 206.264 152.553 205.985C153.264 205.706 153.905 205.247 154.476 204.606C154.602 204.466 154.685 204.397 154.727 204.397C154.783 204.397 154.873 204.459 154.999 204.585C155.124 204.71 155.194 204.808 155.208 204.877C155.222 204.947 155.159 205.058 155.02 205.212C154.88 205.365 154.671 205.553 154.393 205.776C154.114 205.999 153.794 206.215 153.431 206.424C153.069 206.633 152.63 206.807 152.115 206.947C151.599 207.086 151.069 207.156 150.526 207.156C149.425 207.156 148.575 206.786 147.976 206.048C147.377 205.309 147.07 204.431 147.057 203.414ZM154.037 199.548C153.954 198.823 153.48 198.461 152.616 198.461C152.156 198.461 151.731 198.558 151.341 198.753C150.951 198.948 150.638 199.185 150.401 199.464C150.164 199.743 149.962 200.028 149.795 200.321C149.627 200.614 149.516 200.864 149.46 201.073C149.404 201.282 149.37 201.415 149.356 201.47C149.356 201.484 149.495 201.491 149.774 201.491C151.348 201.491 152.449 201.324 153.076 200.99C153.703 200.655 154.023 200.175 154.037 199.548Z" fill="white"/>
<path d="M156.545 198.879C156.448 198.781 156.399 198.712 156.399 198.67C156.399 198.614 156.42 198.503 156.462 198.335C156.504 198.168 156.539 198.071 156.566 198.043C156.594 197.973 156.657 197.938 156.754 197.938C156.852 197.938 157.207 197.931 157.82 197.917H158.928L159.325 196.245C159.367 196.092 159.416 195.89 159.472 195.639C159.527 195.388 159.576 195.207 159.618 195.096C159.66 194.984 159.702 194.845 159.743 194.678C159.785 194.511 159.841 194.392 159.911 194.322C159.98 194.253 160.05 194.169 160.12 194.072C160.189 193.974 160.287 193.911 160.412 193.884C160.538 193.856 160.663 193.842 160.788 193.842C161.039 193.856 161.213 193.932 161.311 194.072C161.408 194.211 161.457 194.343 161.457 194.469C161.457 194.566 161.394 194.894 161.269 195.451C161.144 196.008 161.004 196.559 160.851 197.102L160.642 197.876C160.642 197.903 160.99 197.917 161.687 197.917H162.753C162.851 198.015 162.899 198.092 162.899 198.147C162.899 198.454 162.809 198.698 162.628 198.879H160.391L159.639 201.909C159.095 204.139 158.824 205.337 158.824 205.504C158.824 206.09 159.012 206.382 159.388 206.382C159.876 206.382 160.349 206.145 160.809 205.672C161.269 205.198 161.638 204.613 161.917 203.916C161.945 203.832 161.98 203.784 162.021 203.77C162.063 203.756 162.168 203.742 162.335 203.728H162.419C162.628 203.728 162.732 203.784 162.732 203.895C162.732 203.937 162.711 204.02 162.669 204.146C162.6 204.369 162.474 204.633 162.293 204.94C162.112 205.247 161.875 205.574 161.583 205.922C161.29 206.271 160.935 206.563 160.517 206.8C160.099 207.037 159.674 207.156 159.242 207.156C158.824 207.156 158.427 207.051 158.05 206.842C157.674 206.633 157.402 206.271 157.235 205.755C157.207 205.644 157.193 205.456 157.193 205.191V204.815L157.925 201.889C158.413 199.924 158.663 198.935 158.677 198.921C158.677 198.893 158.322 198.879 157.611 198.879H156.545Z" fill="white"/>
<path d="M165.512 201.7C165.512 200.739 165.582 199.826 165.721 198.962C165.86 198.098 166.021 197.353 166.202 196.726C166.383 196.099 166.641 195.486 166.975 194.887C167.309 194.288 167.574 193.821 167.769 193.486C167.964 193.152 168.257 192.79 168.647 192.4C169.037 192.009 169.267 191.773 169.337 191.689C169.406 191.605 169.581 191.459 169.859 191.25H170.215C170.41 191.25 170.507 191.313 170.507 191.438C170.507 191.48 170.389 191.626 170.152 191.877C169.915 192.128 169.629 192.497 169.295 192.985C168.961 193.472 168.619 194.072 168.271 194.782C167.922 195.493 167.63 196.454 167.393 197.667C167.156 198.879 167.038 200.223 167.038 201.7C167.038 203.177 167.156 204.515 167.393 205.713C167.63 206.912 167.916 207.88 168.25 208.619C168.584 209.357 168.926 209.956 169.274 210.416C169.622 210.876 169.915 211.245 170.152 211.524C170.389 211.802 170.507 211.949 170.507 211.963C170.507 212.088 170.403 212.151 170.194 212.151H169.859L169.274 211.649C167.964 210.465 167.01 208.988 166.411 207.218C165.812 205.449 165.512 203.609 165.512 201.7Z" fill="white"/>
<path d="M179.348 192.65C179.362 192.65 179.864 192.616 180.853 192.546C181.842 192.476 182.351 192.434 182.379 192.42C182.546 192.42 182.63 192.476 182.63 192.588C182.63 192.685 182.121 194.789 181.104 198.9C180.087 203.01 179.564 205.107 179.536 205.191C179.509 205.274 179.502 205.379 179.515 205.504C179.515 206.09 179.711 206.382 180.101 206.382C180.226 206.368 180.365 206.306 180.519 206.194C180.811 205.915 181.097 205.247 181.376 204.188C181.459 203.909 181.529 203.763 181.585 203.749C181.613 203.735 181.682 203.728 181.794 203.728H181.961C182.17 203.728 182.274 203.784 182.274 203.895C182.274 203.965 182.253 204.076 182.212 204.229C182.031 204.926 181.822 205.49 181.585 205.922C181.348 206.354 181.153 206.633 180.999 206.758C180.846 206.884 180.651 206.995 180.414 207.093C180.303 207.121 180.136 207.135 179.913 207.135C179.439 207.135 179.042 207.03 178.721 206.821C178.401 206.612 178.192 206.396 178.094 206.173L177.969 205.86C177.955 205.846 177.927 205.853 177.885 205.881C177.857 205.908 177.829 205.936 177.802 205.964C176.98 206.744 176.143 207.135 175.294 207.135C174.527 207.135 173.851 206.856 173.266 206.299C172.681 205.741 172.388 204.856 172.388 203.644C172.388 202.975 172.528 202.293 172.806 201.596C173.085 200.899 173.419 200.3 173.81 199.798C174.464 199.004 175.119 198.454 175.774 198.147C176.429 197.841 177.021 197.687 177.551 197.687C178.331 197.687 178.916 197.98 179.306 198.565C179.376 198.649 179.411 198.677 179.411 198.649C179.425 198.593 179.613 197.834 179.975 196.371C180.338 194.908 180.533 194.134 180.561 194.051C180.561 193.87 180.512 193.758 180.414 193.716C180.317 193.674 180.045 193.64 179.599 193.612H179.16C179.077 193.528 179.035 193.472 179.035 193.445C179.035 193.417 179.049 193.284 179.077 193.047C179.146 192.783 179.237 192.65 179.348 192.65ZM179.056 200.112C178.735 199.011 178.213 198.461 177.488 198.461C177 198.461 176.534 198.677 176.088 199.109C175.642 199.541 175.294 200.105 175.043 200.802C174.639 201.902 174.353 203.045 174.186 204.229C174.186 204.271 174.186 204.348 174.186 204.459C174.186 204.571 174.179 204.654 174.165 204.71C174.165 205.337 174.29 205.769 174.541 206.006C174.792 206.243 175.091 206.368 175.44 206.382C176.192 206.382 176.966 205.881 177.76 204.877L177.927 204.647L179.056 200.112Z" fill="white"/>
<path d="M183.319 203.644C183.319 202.237 183.849 200.899 184.908 199.631C185.967 198.363 187.158 197.722 188.482 197.708C189.193 197.708 189.82 198.05 190.363 198.732C190.586 198.314 190.906 198.105 191.324 198.105C191.506 198.105 191.666 198.161 191.805 198.273C191.944 198.384 192.014 198.523 192.014 198.691C192.014 198.872 191.756 199.987 191.241 202.035C190.725 204.083 190.461 205.24 190.447 205.504C190.447 205.853 190.495 206.083 190.593 206.194C190.69 206.306 190.837 206.368 191.032 206.382C191.157 206.368 191.297 206.306 191.45 206.194C191.742 205.915 192.028 205.247 192.307 204.188C192.39 203.909 192.46 203.763 192.516 203.749C192.544 203.735 192.613 203.728 192.725 203.728H192.808C193.073 203.728 193.205 203.79 193.205 203.916C193.205 203.999 193.171 204.188 193.101 204.48C193.031 204.773 192.892 205.149 192.683 205.609C192.474 206.069 192.251 206.417 192.014 206.654C191.833 206.835 191.61 206.981 191.345 207.093C191.234 207.121 191.067 207.135 190.844 207.135C190.37 207.135 189.973 207.03 189.652 206.821C189.332 206.612 189.123 206.396 189.025 206.173L188.9 205.86C188.886 205.846 188.858 205.853 188.816 205.881C188.788 205.908 188.761 205.936 188.733 205.964C187.911 206.744 187.075 207.135 186.225 207.135C185.458 207.135 184.782 206.856 184.197 206.299C183.612 205.741 183.319 204.856 183.319 203.644ZM189.966 200.07C189.966 199.987 189.931 199.833 189.861 199.61C189.792 199.387 189.631 199.144 189.381 198.879C189.13 198.614 188.809 198.475 188.419 198.461C187.932 198.461 187.465 198.677 187.019 199.109C186.573 199.541 186.225 200.105 185.974 200.802C185.57 201.902 185.284 203.045 185.117 204.229C185.117 204.271 185.117 204.348 185.117 204.459C185.117 204.571 185.11 204.654 185.096 204.71C185.096 205.337 185.221 205.769 185.472 206.006C185.723 206.243 186.023 206.368 186.371 206.382C186.9 206.382 187.423 206.152 187.938 205.692C188.454 205.233 188.761 204.877 188.858 204.627C188.886 204.571 189.074 203.825 189.422 202.39C189.771 200.955 189.952 200.182 189.966 200.07Z" fill="white"/>
<path d="M195.337 206.194C195.337 206.194 195.337 206.02 195.337 205.672C195.337 205.323 195.449 205.024 195.672 204.773C195.895 204.522 196.194 204.397 196.571 204.397C196.961 204.397 197.309 204.571 197.616 204.919C197.922 205.267 198.082 205.881 198.096 206.758C198.096 207.246 198.034 207.72 197.908 208.18C197.783 208.639 197.636 209.037 197.469 209.371C197.302 209.705 197.121 209.991 196.926 210.228C196.731 210.465 196.564 210.653 196.424 210.792C196.285 210.932 196.194 210.994 196.153 210.98C196.097 210.98 196.006 210.918 195.881 210.792C195.755 210.667 195.693 210.576 195.693 210.521C195.693 210.465 195.769 210.353 195.923 210.186C196.076 210.019 196.25 209.81 196.445 209.559C196.64 209.308 196.821 208.96 196.989 208.514C197.156 208.068 197.267 207.56 197.323 206.988V206.737L197.302 206.758C197.274 206.772 197.239 206.786 197.198 206.8C197.156 206.814 197.114 206.835 197.072 206.863C197.03 206.891 196.968 206.905 196.884 206.905C196.8 206.905 196.717 206.912 196.633 206.926C196.257 206.926 195.95 206.807 195.714 206.57L195.337 206.194Z" fill="white"/>
<path d="M210.658 192.65C210.672 192.65 211.173 192.616 212.163 192.546C213.152 192.476 213.66 192.434 213.688 192.42C213.855 192.42 213.939 192.476 213.939 192.588C213.939 192.685 213.431 194.789 212.413 198.9C211.396 203.01 210.874 205.107 210.846 205.191C210.818 205.274 210.811 205.379 210.825 205.504C210.825 206.09 211.02 206.382 211.41 206.382C211.535 206.368 211.675 206.306 211.828 206.194C212.121 205.915 212.406 205.247 212.685 204.188C212.769 203.909 212.838 203.763 212.894 203.749C212.922 203.735 212.992 203.728 213.103 203.728H213.27C213.479 203.728 213.584 203.784 213.584 203.895C213.584 203.965 213.563 204.076 213.521 204.229C213.34 204.926 213.131 205.49 212.894 205.922C212.657 206.354 212.462 206.633 212.309 206.758C212.156 206.884 211.96 206.995 211.724 207.093C211.612 207.121 211.445 207.135 211.222 207.135C210.748 207.135 210.351 207.03 210.031 206.821C209.71 206.612 209.501 206.396 209.404 206.173L209.278 205.86C209.264 205.846 209.236 205.853 209.195 205.881C209.167 205.908 209.139 205.936 209.111 205.964C208.289 206.744 207.453 207.135 206.603 207.135C205.837 207.135 205.161 206.856 204.576 206.299C203.99 205.741 203.698 204.856 203.698 203.644C203.698 202.975 203.837 202.293 204.116 201.596C204.394 200.899 204.729 200.3 205.119 199.798C205.774 199.004 206.429 198.454 207.084 198.147C207.739 197.841 208.331 197.687 208.86 197.687C209.64 197.687 210.226 197.98 210.616 198.565C210.686 198.649 210.72 198.677 210.72 198.649C210.734 198.593 210.922 197.834 211.285 196.371C211.647 194.908 211.842 194.134 211.87 194.051C211.87 193.87 211.821 193.758 211.724 193.716C211.626 193.674 211.354 193.64 210.908 193.612H210.47C210.386 193.528 210.344 193.472 210.344 193.445C210.344 193.417 210.358 193.284 210.386 193.047C210.456 192.783 210.546 192.65 210.658 192.65ZM210.365 200.112C210.045 199.011 209.522 198.461 208.797 198.461C208.31 198.461 207.843 198.677 207.397 199.109C206.951 199.541 206.603 200.105 206.352 200.802C205.948 201.902 205.662 203.045 205.495 204.229C205.495 204.271 205.495 204.348 205.495 204.459C205.495 204.571 205.488 204.654 205.474 204.71C205.474 205.337 205.6 205.769 205.85 206.006C206.101 206.243 206.401 206.368 206.749 206.382C207.502 206.382 208.275 205.881 209.069 204.877L209.236 204.647L210.365 200.112Z" fill="white"/>
<path d="M214.65 203.602C214.65 202.084 215.249 200.718 216.447 199.506C217.645 198.294 218.941 197.687 220.335 197.687C221.115 197.687 221.728 197.855 222.174 198.189C222.62 198.523 222.85 198.962 222.864 199.506C222.864 199.91 222.731 200.251 222.467 200.53C222.202 200.809 221.867 200.955 221.463 200.969C221.199 200.969 220.99 200.899 220.836 200.76C220.683 200.621 220.606 200.412 220.606 200.133C220.606 199.854 220.683 199.617 220.836 199.422C220.99 199.227 221.143 199.081 221.296 198.983C221.449 198.886 221.547 198.844 221.589 198.858H221.61C221.61 198.83 221.568 198.788 221.484 198.732C221.401 198.677 221.254 198.621 221.045 198.565C220.836 198.51 220.599 198.482 220.335 198.482C219.917 198.482 219.52 198.579 219.143 198.774C218.851 198.9 218.551 199.116 218.245 199.422C217.632 200.035 217.186 200.899 216.907 202.014C216.628 203.129 216.482 203.937 216.468 204.438C216.468 205.079 216.649 205.56 217.012 205.881C217.318 206.215 217.722 206.382 218.224 206.382H218.307C219.868 206.382 221.157 205.79 222.174 204.606C222.299 204.466 222.383 204.397 222.425 204.397C222.481 204.397 222.571 204.459 222.697 204.585C222.822 204.71 222.892 204.808 222.906 204.877C222.919 204.947 222.857 205.051 222.717 205.191C222.578 205.33 222.376 205.525 222.111 205.776C221.847 206.027 221.533 206.236 221.171 206.403C220.808 206.57 220.363 206.744 219.833 206.926C219.304 207.107 218.746 207.183 218.161 207.156C217.116 207.156 216.273 206.821 215.632 206.152C214.991 205.483 214.664 204.633 214.65 203.602Z" fill="white"/>
<path d="M223.449 200.927C223.449 200.816 223.512 200.6 223.637 200.279C223.762 199.959 223.937 199.596 224.16 199.192C224.383 198.788 224.689 198.44 225.079 198.147C225.469 197.855 225.88 197.701 226.312 197.687C226.953 197.687 227.434 197.862 227.755 198.21C228.075 198.558 228.235 198.969 228.235 199.443C228.235 199.694 227.998 200.474 227.525 201.784C227.051 203.094 226.814 204.076 226.814 204.731C226.814 205.33 226.912 205.748 227.107 205.985C227.302 206.222 227.594 206.347 227.984 206.361C228.375 206.375 228.744 206.257 229.092 206.006C229.441 205.755 229.698 205.518 229.865 205.295L230.095 204.94C230.123 204.884 230.388 203.825 230.89 201.763C231.308 200.091 231.558 199.116 231.642 198.837C231.726 198.558 231.823 198.356 231.935 198.231C232.172 198.022 232.422 197.917 232.687 197.917C232.924 197.917 233.098 197.987 233.21 198.126C233.321 198.266 233.377 198.398 233.377 198.523L231.788 205.17C231.774 205.24 231.767 205.351 231.767 205.504C231.767 205.853 231.816 206.083 231.914 206.194C232.011 206.306 232.158 206.368 232.353 206.382C232.659 206.34 232.903 206.124 233.084 205.734C233.265 205.344 233.474 204.731 233.711 203.895C233.739 203.784 233.878 203.728 234.129 203.728C234.394 203.728 234.526 203.79 234.526 203.916C234.512 203.986 234.499 204.083 234.485 204.208C234.471 204.334 234.408 204.557 234.296 204.877C234.185 205.198 234.067 205.497 233.941 205.776C233.816 206.055 233.642 206.319 233.419 206.57C233.196 206.821 232.945 206.995 232.666 207.093C232.555 207.121 232.388 207.135 232.165 207.135C231.245 207.135 230.611 206.744 230.263 205.964C230.235 205.978 230.158 206.048 230.033 206.173C229.907 206.299 229.782 206.403 229.656 206.487C229.531 206.57 229.378 206.675 229.197 206.8C229.016 206.926 228.813 207.009 228.591 207.051C228.368 207.093 228.131 207.128 227.88 207.156C227.267 207.156 226.723 207.03 226.25 206.779C225.525 206.347 225.163 205.609 225.163 204.564C225.163 203.77 225.407 202.732 225.894 201.45C226.382 200.168 226.626 199.353 226.626 199.004C226.626 198.99 226.626 198.976 226.626 198.962C226.626 198.837 226.626 198.753 226.626 198.712C226.626 198.67 226.598 198.621 226.542 198.565C226.487 198.51 226.41 198.482 226.312 198.482H226.229C225.908 198.482 225.616 198.614 225.351 198.879C225.086 199.144 224.877 199.429 224.724 199.736C224.571 200.042 224.452 200.335 224.369 200.614C224.285 200.892 224.229 201.046 224.201 201.073C224.174 201.101 224.062 201.115 223.867 201.115H223.574C223.491 201.032 223.449 200.969 223.449 200.927Z" fill="white"/>
<path d="M235.404 200.927C235.418 200.885 235.432 200.83 235.446 200.76C235.46 200.69 235.495 200.537 235.551 200.3C235.606 200.063 235.676 199.847 235.76 199.652C235.843 199.457 235.948 199.227 236.073 198.962C236.198 198.698 236.338 198.489 236.491 198.335C236.644 198.182 236.825 198.029 237.034 197.876C237.243 197.722 237.473 197.66 237.724 197.687C238.128 197.687 238.484 197.771 238.79 197.938C239.097 198.105 239.313 198.259 239.438 198.398C239.563 198.537 239.64 198.677 239.668 198.816C239.696 198.9 239.717 198.941 239.731 198.941C239.745 198.941 239.8 198.893 239.898 198.795C240.567 198.071 241.34 197.708 242.218 197.708H242.281C242.949 197.708 243.451 197.994 243.785 198.565C243.897 198.83 243.953 199.088 243.953 199.339C243.953 199.757 243.862 200.091 243.681 200.342C243.5 200.593 243.319 200.753 243.138 200.823C242.956 200.892 242.782 200.92 242.615 200.906C242.336 200.906 242.113 200.83 241.946 200.676C241.779 200.523 241.695 200.321 241.695 200.07C241.695 199.401 242.085 198.955 242.866 198.732C242.559 198.551 242.308 198.461 242.113 198.461C241.333 198.461 240.615 198.976 239.961 200.007C239.821 200.23 239.717 200.46 239.647 200.697C239.577 200.934 239.341 201.861 238.936 203.477C238.463 205.428 238.191 206.466 238.121 206.591C237.94 206.967 237.641 207.156 237.223 207.156C237.041 207.156 236.895 207.114 236.784 207.03C236.672 206.947 236.596 206.863 236.554 206.779C236.512 206.696 236.498 206.626 236.512 206.57C236.512 206.389 236.791 205.191 237.348 202.975C237.905 200.76 238.184 199.527 238.184 199.276C238.184 198.732 238.003 198.461 237.641 198.461C237.348 198.461 237.097 198.656 236.888 199.046C236.679 199.436 236.512 199.861 236.387 200.321C236.261 200.781 236.184 201.032 236.157 201.073C236.129 201.101 236.017 201.115 235.822 201.115H235.53C235.446 201.032 235.404 200.969 235.404 200.927Z" fill="white"/>
<path d="M244.851 200.927C244.865 200.885 244.879 200.83 244.893 200.76C244.907 200.69 244.942 200.537 244.998 200.3C245.053 200.063 245.123 199.847 245.207 199.652C245.29 199.457 245.395 199.227 245.52 198.962C245.646 198.698 245.785 198.489 245.938 198.335C246.091 198.182 246.273 198.029 246.482 197.876C246.691 197.722 246.921 197.66 247.171 197.687C247.575 197.687 247.931 197.771 248.237 197.938C248.544 198.105 248.76 198.259 248.885 198.398C249.011 198.537 249.087 198.677 249.115 198.816C249.143 198.9 249.164 198.941 249.178 198.941C249.192 198.941 249.248 198.893 249.345 198.795C250.014 198.071 250.787 197.708 251.665 197.708H251.728C252.397 197.708 252.898 197.994 253.233 198.565C253.344 198.83 253.4 199.088 253.4 199.339C253.4 199.757 253.309 200.091 253.128 200.342C252.947 200.593 252.766 200.753 252.585 200.823C252.404 200.892 252.229 200.92 252.062 200.906C251.783 200.906 251.561 200.83 251.393 200.676C251.226 200.523 251.143 200.321 251.143 200.07C251.143 199.401 251.533 198.955 252.313 198.732C252.006 198.551 251.756 198.461 251.561 198.461C250.78 198.461 250.063 198.976 249.408 200.007C249.268 200.23 249.164 200.46 249.094 200.697C249.025 200.934 248.788 201.861 248.384 203.477C247.91 205.428 247.638 206.466 247.568 206.591C247.387 206.967 247.088 207.156 246.67 207.156C246.489 207.156 246.342 207.114 246.231 207.03C246.119 206.947 246.043 206.863 246.001 206.779C245.959 206.696 245.945 206.626 245.959 206.57C245.959 206.389 246.238 205.191 246.795 202.975C247.352 200.76 247.631 199.527 247.631 199.276C247.631 198.732 247.45 198.461 247.088 198.461C246.795 198.461 246.544 198.656 246.335 199.046C246.126 199.436 245.959 199.861 245.834 200.321C245.708 200.781 245.632 201.032 245.604 201.073C245.576 201.101 245.464 201.115 245.269 201.115H244.977C244.893 201.032 244.851 200.969 244.851 200.927Z" fill="white"/>
<path d="M255.093 191.271L255.176 191.25C255.246 191.25 255.316 191.25 255.385 191.25H255.636L256.221 191.752C257.531 192.936 258.486 194.413 259.085 196.183C259.684 197.952 259.984 199.791 259.984 201.7C259.984 202.648 259.914 203.561 259.775 204.438C259.635 205.316 259.475 206.062 259.294 206.675C259.113 207.288 258.855 207.901 258.52 208.514C258.186 209.127 257.921 209.594 257.726 209.914C257.531 210.235 257.246 210.59 256.869 210.98C256.493 211.371 256.27 211.6 256.201 211.67C256.131 211.74 255.971 211.872 255.72 212.067C255.678 212.109 255.65 212.137 255.636 212.151H255.385C255.274 212.151 255.197 212.151 255.155 212.151C255.114 212.151 255.079 212.13 255.051 212.088C255.023 212.046 255.002 211.984 254.988 211.9C255.002 211.886 255.079 211.795 255.218 211.628C257.378 209.385 258.458 206.076 258.458 201.7C258.458 197.325 257.378 194.016 255.218 191.773C255.079 191.605 255.002 191.515 254.988 191.501C254.988 191.389 255.023 191.313 255.093 191.271Z" fill="white"/>
<path d="M268.95 199.673C268.95 199.492 269.048 199.353 269.243 199.255H282.556C282.765 199.366 282.87 199.506 282.87 199.673C282.87 199.826 282.772 199.959 282.577 200.07L275.931 200.091H269.284C269.061 200.021 268.95 199.882 268.95 199.673ZM268.95 203.728C268.95 203.519 269.061 203.379 269.284 203.31H282.577C282.772 203.449 282.87 203.588 282.87 203.728C282.87 203.909 282.765 204.048 282.556 204.146H269.243C269.048 204.048 268.95 203.909 268.95 203.728Z" fill="white"/>
<path d="M291.627 201.972C291.627 201.972 291.627 201.882 291.627 201.7C291.627 201.519 291.725 201.38 291.92 201.282H304.063C304.272 201.394 304.377 201.533 304.377 201.7C304.377 201.868 304.272 202.007 304.063 202.118H291.92C291.725 202.021 291.627 201.882 291.627 201.7V201.972Z" fill="white"/>
<path d="M308.139 194.699C308.919 193.57 309.985 193.006 311.337 193.006C312.006 193.006 312.674 193.187 313.343 193.549C314.012 193.911 314.556 194.552 314.974 195.472C315.489 196.628 315.747 198.217 315.747 200.237C315.747 202.397 315.447 204.048 314.848 205.191C314.569 205.776 314.186 206.243 313.699 206.591C313.211 206.94 312.786 207.156 312.424 207.239C312.061 207.323 311.706 207.371 311.358 207.385C310.995 207.385 310.633 207.344 310.271 207.26C309.909 207.176 309.484 206.953 308.996 206.591C308.508 206.229 308.125 205.762 307.846 205.191C307.247 204.048 306.948 202.397 306.948 200.237C306.948 197.813 307.345 195.967 308.139 194.699ZM312.842 194.448C312.424 194.002 311.929 193.779 311.358 193.779C310.773 193.779 310.271 194.002 309.853 194.448C309.505 194.81 309.275 195.312 309.163 195.953C309.052 196.594 308.996 197.931 308.996 199.966C308.996 202.167 309.052 203.616 309.163 204.313C309.275 205.01 309.525 205.56 309.916 205.964C310.306 206.382 310.786 206.591 311.358 206.591C311.915 206.591 312.389 206.382 312.779 205.964C313.183 205.546 313.434 204.961 313.531 204.208C313.629 203.456 313.685 202.042 313.699 199.966C313.699 197.945 313.643 196.615 313.531 195.974C313.42 195.333 313.19 194.824 312.842 194.448Z" fill="white"/>
<path d="M318.213 205.672C318.213 205.337 318.332 205.045 318.569 204.794C318.805 204.543 319.105 204.418 319.467 204.418C319.802 204.418 320.094 204.529 320.345 204.752C320.596 204.975 320.728 205.274 320.742 205.651C320.742 205.999 320.624 206.299 320.387 206.549C320.15 206.8 319.85 206.926 319.488 206.926C319.126 206.926 318.826 206.807 318.589 206.57C318.353 206.333 318.227 206.034 318.213 205.672Z" fill="white"/>
<path d="M323.564 197.353C323.578 197.325 323.696 196.566 323.919 195.075L324.254 192.838C324.254 192.811 324.393 192.797 324.672 192.797H325.09V192.88C325.09 193.02 325.194 193.138 325.403 193.236C325.612 193.333 325.974 193.396 326.49 193.424C327.005 193.452 328.183 193.465 330.022 193.465H332.551V194.281L331.13 196.224C331.004 196.392 330.795 196.67 330.503 197.06C330.21 197.451 330.022 197.708 329.939 197.834C329.855 197.959 329.709 198.182 329.5 198.503C329.291 198.823 329.151 199.074 329.082 199.255C329.012 199.436 328.914 199.694 328.789 200.028C328.664 200.363 328.573 200.683 328.517 200.99C328.462 201.296 328.406 201.673 328.35 202.118C328.294 202.564 328.253 203.038 328.225 203.54C328.197 204.041 328.176 204.613 328.162 205.254C328.162 205.449 328.162 205.644 328.162 205.839C328.162 206.034 328.155 206.201 328.141 206.34V206.528C328.085 206.765 327.953 206.967 327.744 207.135C327.535 207.302 327.298 207.385 327.033 207.385C326.88 207.385 326.734 207.365 326.594 207.323C326.455 207.281 326.309 207.149 326.156 206.926C326.002 206.703 325.926 206.424 325.926 206.09C325.926 203.888 326.601 201.603 327.953 199.234C328.232 198.788 328.817 197.945 329.709 196.705L330.67 195.388H328.726C326.302 195.388 325.027 195.43 324.901 195.514C324.818 195.556 324.741 195.723 324.672 196.015C324.602 196.308 324.532 196.608 324.463 196.914L324.4 197.353V197.416H323.564V197.353Z" fill="white"/>
<path d="M247.68 87.2789C247.68 86.6338 247.899 86.1344 248.337 85.7806C248.776 85.4269 249.225 85.25 249.684 85.25C250.039 85.25 250.332 85.354 250.561 85.5621C250.791 85.7702 250.937 86.0616 251 86.4361C251 87.0188 250.802 87.5078 250.405 87.9032C250.008 88.2986 249.549 88.4962 249.027 88.4962C248.651 88.4962 248.337 88.3922 248.087 88.1841C247.836 87.976 247.7 87.6743 247.68 87.2789ZM247.398 94.146C247.398 93.5425 247.126 93.2408 246.583 93.2408C246.124 93.2408 245.685 93.3656 245.267 93.6153C244.85 93.865 244.484 94.1876 244.171 94.5829C243.858 94.9783 243.607 95.3633 243.419 95.7379C243.231 96.1124 243.054 96.4454 242.887 96.7367L242.667 97.1737C242.626 97.1945 242.459 97.2049 242.166 97.2049H241.728C241.602 97.0801 241.54 96.9968 241.54 96.9552C241.54 96.9136 241.582 96.7783 241.665 96.5494C242.104 95.5298 242.72 94.5725 243.513 93.6777C244.307 92.7829 245.226 92.2627 246.27 92.1171C246.291 92.1171 246.374 92.1171 246.52 92.1171C246.667 92.1171 246.792 92.1066 246.896 92.0858C247.398 92.1066 247.857 92.2107 248.275 92.398C248.797 92.6893 249.194 93.0119 249.465 93.3656C249.737 93.7194 249.872 94.2708 249.872 95.0199V95.5194L248.337 101.731C247.272 105.893 246.708 108.057 246.646 108.223C246.27 109.264 245.539 110.19 244.453 111.001C243.367 111.813 242.124 112.229 240.725 112.25C239.681 112.25 238.971 112.032 238.595 111.595C238.219 111.158 238.021 110.679 238 110.159C238 109.597 238.198 109.118 238.595 108.723C238.992 108.327 239.472 108.119 240.036 108.099C240.391 108.099 240.694 108.203 240.945 108.411C241.195 108.619 241.331 108.941 241.352 109.378C241.352 110.127 241.018 110.7 240.349 111.095C240.475 111.116 240.621 111.126 240.788 111.126C241.498 111.126 242.145 110.835 242.73 110.252C243.315 109.67 243.764 108.983 244.077 108.192L244.422 106.881C244.651 105.986 244.923 104.904 245.236 103.635C245.549 102.366 245.884 101.065 246.239 99.7332C246.594 98.4014 246.876 97.2465 247.084 96.2685C247.293 95.2905 247.408 94.6974 247.429 94.4893C247.429 94.3436 247.418 94.2292 247.398 94.146Z" fill="white"/>
<path d="M479.68 120.279C479.68 119.634 479.899 119.134 480.337 118.781C480.776 118.427 481.225 118.25 481.684 118.25C482.039 118.25 482.332 118.354 482.561 118.562C482.791 118.77 482.937 119.062 483 119.436C483 120.019 482.802 120.508 482.405 120.903C482.008 121.299 481.549 121.496 481.027 121.496C480.651 121.496 480.337 121.392 480.087 121.184C479.836 120.976 479.7 120.674 479.68 120.279ZM479.398 127.146C479.398 126.542 479.126 126.241 478.583 126.241C478.124 126.241 477.685 126.366 477.267 126.615C476.85 126.865 476.484 127.188 476.171 127.583C475.858 127.978 475.607 128.363 475.419 128.738C475.231 129.112 475.054 129.445 474.887 129.737L474.667 130.174C474.626 130.195 474.459 130.205 474.166 130.205H473.728C473.602 130.08 473.54 129.997 473.54 129.955C473.54 129.914 473.582 129.778 473.665 129.549C474.104 128.53 474.72 127.573 475.513 126.678C476.307 125.783 477.226 125.263 478.27 125.117C478.291 125.117 478.374 125.117 478.52 125.117C478.667 125.117 478.792 125.107 478.896 125.086C479.398 125.107 479.857 125.211 480.275 125.398C480.797 125.689 481.194 126.012 481.465 126.366C481.737 126.719 481.872 127.271 481.872 128.02V128.519L480.337 134.731C479.272 138.893 478.708 141.057 478.646 141.223C478.27 142.264 477.539 143.19 476.453 144.001C475.367 144.813 474.124 145.229 472.725 145.25C471.681 145.25 470.971 145.032 470.595 144.595C470.219 144.158 470.021 143.679 470 143.159C470 142.597 470.198 142.118 470.595 141.723C470.992 141.327 471.472 141.119 472.036 141.099C472.391 141.099 472.694 141.203 472.945 141.411C473.195 141.619 473.331 141.941 473.352 142.378C473.352 143.127 473.018 143.7 472.349 144.095C472.475 144.116 472.621 144.126 472.788 144.126C473.498 144.126 474.145 143.835 474.73 143.252C475.315 142.67 475.764 141.983 476.077 141.192L476.422 139.881C476.651 138.986 476.923 137.904 477.236 136.635C477.549 135.366 477.884 134.065 478.239 132.733C478.594 131.401 478.876 130.247 479.084 129.268C479.293 128.29 479.408 127.697 479.429 127.489C479.429 127.344 479.418 127.229 479.398 127.146Z" fill="white"/>
<path d="M183.221 115.156C183.221 114.656 183.423 114.219 183.829 113.844C184.235 113.469 184.705 113.271 185.238 113.25C185.623 113.25 185.943 113.375 186.199 113.625C186.456 113.875 186.594 114.187 186.616 114.562C186.616 115.042 186.402 115.479 185.975 115.875C185.548 116.271 185.078 116.479 184.566 116.5C184.246 116.5 183.947 116.396 183.669 116.187C183.391 115.979 183.242 115.635 183.221 115.156ZM178 124.937C178 124.771 178.096 124.448 178.288 123.969C178.48 123.49 178.737 122.958 179.057 122.375C179.377 121.792 179.847 121.26 180.466 120.781C181.085 120.302 181.726 120.073 182.388 120.094C183.221 120.094 183.915 120.333 184.47 120.812C185.025 121.292 185.313 121.937 185.335 122.75C185.335 123.104 185.185 123.687 184.886 124.5C184.587 125.312 184.16 126.406 183.605 127.781C183.05 129.156 182.601 130.333 182.26 131.312C182.153 131.771 182.1 132.104 182.1 132.312C182.1 132.833 182.281 133.094 182.644 133.094C182.836 133.094 183.039 133.062 183.253 133C183.466 132.937 183.712 132.792 183.989 132.562C184.267 132.333 184.555 131.969 184.854 131.469C185.153 130.969 185.42 130.354 185.655 129.625C185.719 129.375 185.772 129.229 185.815 129.187C185.858 129.146 186.039 129.125 186.359 129.125C186.786 129.125 187 129.229 187 129.437C187 129.604 186.904 129.927 186.712 130.406C186.52 130.885 186.253 131.417 185.911 132C185.569 132.583 185.089 133.104 184.47 133.562C183.851 134.021 183.189 134.25 182.484 134.25C181.801 134.25 181.171 134.031 180.594 133.594C180.018 133.156 179.719 132.49 179.698 131.594C179.698 131.24 179.751 130.906 179.858 130.594C179.964 130.281 180.423 129.094 181.235 127.031C182.046 124.927 182.516 123.667 182.644 123.25C182.772 122.833 182.847 122.427 182.868 122.031C182.868 121.531 182.687 121.281 182.324 121.281H182.26C181.619 121.281 181.032 121.625 180.498 122.312C179.964 123 179.559 123.875 179.281 124.937C179.26 124.958 179.238 124.99 179.217 125.031C179.196 125.073 179.185 125.104 179.185 125.125C179.185 125.146 179.164 125.167 179.121 125.187C179.078 125.208 179.046 125.219 179.025 125.219C179.004 125.219 178.961 125.219 178.897 125.219C178.833 125.219 178.747 125.219 178.641 125.219H178.192C178.064 125.094 178 125 178 124.937Z" fill="white"/>
<path d="M537.221 93.1562C537.221 92.6562 537.423 92.2187 537.829 91.8437C538.235 91.4687 538.705 91.2708 539.238 91.25C539.623 91.25 539.943 91.375 540.199 91.625C540.456 91.875 540.594 92.1875 540.616 92.5625C540.616 93.0417 540.402 93.4792 539.975 93.875C539.548 94.2708 539.078 94.4792 538.566 94.5C538.246 94.5 537.947 94.3958 537.669 94.1875C537.391 93.9792 537.242 93.6354 537.221 93.1562ZM532 102.937C532 102.771 532.096 102.448 532.288 101.969C532.48 101.49 532.737 100.958 533.057 100.375C533.377 99.7917 533.847 99.2604 534.466 98.7812C535.085 98.3021 535.726 98.0729 536.388 98.0937C537.221 98.0937 537.915 98.3333 538.47 98.8125C539.025 99.2917 539.313 99.9375 539.335 100.75C539.335 101.104 539.185 101.687 538.886 102.5C538.587 103.312 538.16 104.406 537.605 105.781C537.05 107.156 536.601 108.333 536.26 109.312C536.153 109.771 536.1 110.104 536.1 110.312C536.1 110.833 536.281 111.094 536.644 111.094C536.836 111.094 537.039 111.062 537.253 111C537.466 110.937 537.712 110.792 537.989 110.562C538.267 110.333 538.555 109.969 538.854 109.469C539.153 108.969 539.42 108.354 539.655 107.625C539.719 107.375 539.772 107.229 539.815 107.187C539.858 107.146 540.039 107.125 540.359 107.125C540.786 107.125 541 107.229 541 107.437C541 107.604 540.904 107.927 540.712 108.406C540.52 108.885 540.253 109.417 539.911 110C539.569 110.583 539.089 111.104 538.47 111.562C537.851 112.021 537.189 112.25 536.484 112.25C535.801 112.25 535.171 112.031 534.594 111.594C534.018 111.156 533.719 110.49 533.698 109.594C533.698 109.24 533.751 108.906 533.858 108.594C533.964 108.281 534.423 107.094 535.235 105.031C536.046 102.927 536.516 101.667 536.644 101.25C536.772 100.833 536.847 100.427 536.868 100.031C536.868 99.5312 536.687 99.2813 536.324 99.2813H536.26C535.619 99.2813 535.032 99.625 534.498 100.312C533.964 101 533.559 101.875 533.281 102.937C533.26 102.958 533.238 102.99 533.217 103.031C533.196 103.073 533.185 103.104 533.185 103.125C533.185 103.146 533.164 103.167 533.121 103.187C533.078 103.208 533.046 103.219 533.025 103.219C533.004 103.219 532.961 103.219 532.897 103.219C532.833 103.219 532.747 103.219 532.641 103.219H532.192C532.064 103.094 532 103 532 102.937Z" fill="white"/>
</g>
<defs>
<clipPath id="clip0_588_6620">
<rect width="700" height="232" fill="white" transform="translate(0 0.25)"/>
</clipPath>
<clipPath id="clip1_588_6620">
<rect width="1284" height="1284" fill="white" transform="translate(-292 -466.75)"/>
</clipPath>
</defs>
</svg>
