<svg width="700" height="175" viewBox="0 0 700 175" fill="none" xmlns="http://www.w3.org/2000/svg">
<g clip-path="url(#clip0_588_6790)">
<rect width="700" height="174" transform="translate(0 0.25)" fill="#0A0D12"/>
<g clip-path="url(#clip1_588_6790)">
<rect width="1284" height="1284" transform="translate(-292.5 -525.25)" fill="#0A0D12"/>
<g opacity="0.4">
<line x1="408.656" y1="-1167.25" x2="408.656" y2="1400.75" stroke="#67DBFF" stroke-width="0.917143"/>
<line x1="467.353" y1="-1167.25" x2="467.353" y2="1400.75" stroke="#67DBFF" stroke-width="0.917143"/>
<line x1="526.05" y1="-1167.25" x2="526.05" y2="1400.75" stroke="#67DBFF" stroke-width="0.917143"/>
<line x1="584.748" y1="-1167.25" x2="584.747" y2="1400.75" stroke="#67DBFF" stroke-width="0.917143"/>
<line x1="643.444" y1="-1167.25" x2="643.444" y2="1400.75" stroke="#67DBFF" stroke-width="0.917143"/>
<line x1="56.4732" y1="-1167.25" x2="56.473" y2="1400.75" stroke="#67DBFF" stroke-width="0.917143"/>
<line x1="115.17" y1="-1167.25" x2="115.169" y2="1400.75" stroke="#67DBFF" stroke-width="0.917143"/>
<line x1="173.867" y1="-1167.25" x2="173.867" y2="1400.75" stroke="#67DBFF" stroke-width="0.917143"/>
<line x1="232.564" y1="-1167.25" x2="232.564" y2="1400.75" stroke="#67DBFF" stroke-width="0.917143"/>
<line x1="291.261" y1="-1167.25" x2="291.261" y2="1400.75" stroke="#67DBFF" stroke-width="0.917143"/>
<line x1="-934.5" y1="57.5942" x2="1633.5" y2="57.5942" stroke="#67DBFF" stroke-width="0.917143"/>
<line x1="349.959" y1="-1167.25" x2="349.958" y2="1400.75" stroke="#67DBFF" stroke-width="0.917143"/>
<line x1="-934.5" y1="116.291" x2="1633.5" y2="116.291" stroke="#67DBFF" stroke-width="0.917143"/>
</g>
</g>
<path d="M233.5 115.054V57.459L272.5 18.9465V76.541L233.5 115.054Z" fill="#18C8FF" fill-opacity="0.3" stroke="#67DBFF"/>
<path d="M231.5 116.25C231.5 117.078 232.172 117.75 233 117.75C233.828 117.75 234.5 117.078 234.5 116.25L231.5 116.25ZM233 57.25L224.34 72.25L241.66 72.25L233 57.25ZM234.5 116.25L234.5 70.75L231.5 70.75L231.5 116.25L234.5 116.25Z" fill="#EB5757"/>
<path d="M231.939 115.189C231.354 115.775 231.354 116.725 231.939 117.311C232.525 117.896 233.475 117.896 234.061 117.311L231.939 115.189ZM273 76.25L256.27 80.7329L268.517 92.9803L273 76.25ZM234.061 117.311L264.515 86.8566L262.393 84.7353L231.939 115.189L234.061 117.311Z" fill="#006AE7"/>
<path d="M284.959 76.4799C284.973 76.4799 285.475 76.4451 286.464 76.3754C287.453 76.3057 287.962 76.2639 287.99 76.25C288.157 76.25 288.241 76.3057 288.241 76.4172C288.241 76.5147 287.732 78.6186 286.715 82.7288C285.698 86.839 285.175 88.9359 285.148 89.0195C285.12 89.103 285.113 89.2075 285.127 89.3329C285.127 89.9181 285.322 90.2107 285.712 90.2107C285.837 90.1968 285.977 90.1341 286.13 90.0226C286.422 89.744 286.708 89.0752 286.987 88.0163C287.07 87.7376 287.14 87.5913 287.196 87.5774C287.224 87.5635 287.293 87.5565 287.405 87.5565H287.572C287.781 87.5565 287.885 87.6122 287.885 87.7237C287.885 87.7934 287.864 87.9048 287.823 88.0581C287.642 88.7547 287.433 89.319 287.196 89.7509C286.959 90.1828 286.764 90.4615 286.61 90.5869C286.457 90.7123 286.262 90.8238 286.025 90.9213C285.914 90.9492 285.747 90.9631 285.524 90.9631C285.05 90.9631 284.653 90.8586 284.332 90.6496C284.012 90.4406 283.803 90.2246 283.705 90.0017L283.58 89.6882C283.566 89.6743 283.538 89.6813 283.497 89.7091C283.469 89.737 283.441 89.7649 283.413 89.7927C282.591 90.573 281.755 90.9631 280.905 90.9631C280.139 90.9631 279.463 90.6844 278.878 90.1271C278.293 89.5698 278 88.6851 278 87.4729C278 86.8041 278.139 86.1214 278.418 85.4248C278.697 84.7281 279.031 84.129 279.421 83.6274C280.076 82.8333 280.731 82.2829 281.386 81.9764C282.041 81.6699 282.633 81.5166 283.162 81.5166C283.942 81.5166 284.528 81.8092 284.918 82.3944C284.987 82.478 285.022 82.5058 285.022 82.478C285.036 82.4222 285.224 81.6629 285.586 80.2C285.949 78.737 286.144 77.9637 286.172 77.8801C286.172 77.699 286.123 77.5876 286.025 77.5458C285.928 77.504 285.656 77.4691 285.21 77.4413H284.771C284.688 77.3577 284.646 77.3019 284.646 77.2741C284.646 77.2462 284.66 77.1138 284.688 76.877C284.757 76.6123 284.848 76.4799 284.959 76.4799ZM284.667 83.9409C284.346 82.8402 283.824 82.2899 283.099 82.2899C282.612 82.2899 282.145 82.5058 281.699 82.9378C281.253 83.3697 280.905 83.934 280.654 84.6306C280.25 85.7313 279.965 86.8738 279.797 88.0581C279.797 88.0999 279.797 88.1765 279.797 88.288C279.797 88.3994 279.79 88.483 279.776 88.5388C279.776 89.1657 279.902 89.5977 280.153 89.8345C280.403 90.0714 280.703 90.1968 281.051 90.2107C281.804 90.2107 282.577 89.7091 283.371 88.706L283.538 88.4761L284.667 83.9409Z" fill="white"/>
<path d="M289.766 77.2323C289.766 77.0929 289.794 76.9327 289.85 76.7516C289.906 76.5705 289.989 76.4799 290.101 76.4799C290.115 76.4799 290.616 76.4451 291.605 76.3754C292.595 76.3057 293.103 76.2639 293.131 76.25C293.298 76.25 293.382 76.3127 293.382 76.4381C293.382 76.5635 293.145 77.5597 292.671 79.4267C292.56 79.9004 292.441 80.3881 292.316 80.8896C292.191 81.3912 292.086 81.7674 292.003 82.0182L291.919 82.4153C291.919 82.4571 291.961 82.4362 292.044 82.3526C292.727 81.7953 293.431 81.5166 294.155 81.5166C295.019 81.5166 295.716 81.8371 296.245 82.478C296.775 83.1189 297.046 83.927 297.06 84.9023C297.06 86.4488 296.51 87.8491 295.409 89.103C294.308 90.357 293.124 90.984 291.856 90.984C291.16 90.984 290.526 90.7193 289.954 90.1898C289.383 89.6604 289.091 88.8035 289.077 87.6192V87.4311C289.077 87.1385 289.132 86.7345 289.244 86.219C289.355 85.7034 289.697 84.331 290.268 82.1018C290.965 79.357 291.313 77.901 291.313 77.7338C291.313 77.5667 291.048 77.4691 290.519 77.4413C290.449 77.4413 290.393 77.4413 290.351 77.4413H290.247C290.108 77.4413 290.017 77.4413 289.975 77.4413C289.933 77.4413 289.885 77.4204 289.829 77.3786C289.773 77.3368 289.752 77.288 289.766 77.2323ZM295.263 83.9618V83.8364C295.263 82.8054 294.838 82.2899 293.988 82.2899C293.751 82.2899 293.507 82.3456 293.256 82.4571C293.006 82.5685 292.776 82.7148 292.567 82.896C292.358 83.0771 292.177 83.2443 292.023 83.3975C291.87 83.5508 291.745 83.7041 291.647 83.8573L291.522 84.0245L291.083 85.8219C290.776 87.0201 290.623 87.87 290.623 88.3716C290.623 89.0404 290.79 89.5419 291.125 89.8763C291.348 90.0992 291.626 90.2107 291.961 90.2107C292.42 90.2107 292.887 89.9878 293.361 89.5419C293.709 89.2215 293.988 88.8314 294.197 88.3716C294.406 87.9118 294.636 87.1803 294.887 86.1772C295.137 85.174 295.263 84.4355 295.263 83.9618Z" fill="white"/>
<path d="M177.961 57.4799C177.975 57.4799 178.476 57.4451 179.466 57.3754C180.455 57.3057 180.964 57.2639 180.992 57.25C181.159 57.25 181.243 57.3057 181.243 57.4172C181.243 57.5148 180.734 59.6191 179.717 63.7301C178.699 67.8411 178.177 69.9384 178.149 70.022C178.121 70.1056 178.114 70.2102 178.128 70.3356C178.128 70.9209 178.323 71.2135 178.713 71.2135C178.839 71.1996 178.978 71.1369 179.131 71.0254C179.424 70.7467 179.71 70.0778 179.988 69.0187C180.072 68.7399 180.142 68.5936 180.198 68.5797C180.225 68.5658 180.295 68.5588 180.407 68.5588H180.574C180.783 68.5588 180.887 68.6145 180.887 68.726C180.887 68.7957 180.866 68.9072 180.825 69.0605C180.643 69.7572 180.434 70.3216 180.198 70.7536C179.961 71.1857 179.766 71.4644 179.612 71.5898C179.459 71.7152 179.264 71.8267 179.027 71.9242C178.915 71.9521 178.748 71.9661 178.525 71.9661C178.051 71.9661 177.654 71.8615 177.334 71.6525C177.013 71.4435 176.804 71.2275 176.707 71.0045L176.581 70.6909C176.567 70.677 176.539 70.684 176.498 70.7118C176.47 70.7397 176.442 70.7676 176.414 70.7955C175.592 71.5759 174.756 71.9661 173.906 71.9661C173.139 71.9661 172.463 71.6873 171.878 71.1299C171.293 70.5725 171 69.6876 171 68.4752C171 67.8063 171.139 67.1234 171.418 66.4266C171.697 65.7298 172.031 65.1306 172.421 64.6289C173.076 63.8346 173.731 63.2841 174.386 62.9776C175.041 62.671 175.634 62.5177 176.163 62.5177C176.944 62.5177 177.529 62.8103 177.919 63.3956C177.989 63.4792 178.024 63.5071 178.024 63.4792C178.038 63.4235 178.226 62.664 178.588 61.2008C178.95 59.7375 179.145 58.9641 179.173 58.8805C179.173 58.6993 179.124 58.5878 179.027 58.546C178.929 58.5042 178.658 58.4694 178.212 58.4415H177.773C177.689 58.3579 177.647 58.3021 177.647 58.2743C177.647 58.2464 177.661 58.114 177.689 57.8771C177.759 57.6123 177.849 57.4799 177.961 57.4799ZM177.668 64.9425C177.348 63.8416 176.825 63.2911 176.1 63.2911C175.613 63.2911 175.146 63.5071 174.7 63.9391C174.254 64.3711 173.906 64.9355 173.655 65.6323C173.251 66.7332 172.965 67.8759 172.798 69.0605C172.798 69.1023 172.798 69.1789 172.798 69.2904C172.798 69.4019 172.791 69.4855 172.777 69.5412C172.777 70.1684 172.902 70.6004 173.153 70.8373C173.404 71.0742 173.704 71.1996 174.052 71.2135C174.804 71.2135 175.578 70.7118 176.372 69.7085L176.539 69.4785L177.668 64.9425Z" fill="white"/>
<path d="M181.953 68.4334C181.953 66.9144 182.553 65.5487 183.751 64.3363C184.95 63.1239 186.246 62.5177 187.639 62.5177C188.42 62.5177 189.033 62.6849 189.479 63.0194C189.925 63.3538 190.155 63.7928 190.168 64.3363C190.168 64.7404 190.036 65.0818 189.771 65.3605C189.507 65.6393 189.172 65.7856 188.768 65.7995C188.503 65.7995 188.294 65.7298 188.141 65.5905C187.988 65.4511 187.911 65.2421 187.911 64.9634C187.911 64.6847 187.988 64.4478 188.141 64.2527C188.294 64.0576 188.447 63.9112 188.601 63.8137C188.754 63.7161 188.852 63.6743 188.893 63.6883H188.914C188.914 63.6604 188.872 63.6186 188.789 63.5629C188.705 63.5071 188.559 63.4514 188.35 63.3956C188.141 63.3399 187.904 63.312 187.639 63.312C187.221 63.312 186.824 63.4096 186.448 63.6047C186.155 63.7301 185.855 63.9461 185.549 64.2527C184.936 64.8658 184.49 65.7298 184.211 66.8447C183.932 67.9596 183.786 68.7678 183.772 69.2695C183.772 69.9105 183.953 70.3913 184.316 70.7118C184.622 71.0463 185.026 71.2135 185.528 71.2135H185.612C187.172 71.2135 188.461 70.6213 189.479 69.4367C189.604 69.2974 189.688 69.2277 189.73 69.2277C189.785 69.2277 189.876 69.2904 190.001 69.4158C190.127 69.5412 190.196 69.6388 190.21 69.7085C190.224 69.7782 190.162 69.8827 190.022 70.022C189.883 70.1614 189.681 70.3565 189.416 70.6073C189.151 70.8582 188.838 71.0672 188.475 71.2344C188.113 71.4017 187.667 71.5759 187.137 71.757C186.608 71.9382 186.051 72.0148 185.465 71.987C184.42 71.987 183.577 71.6525 182.936 70.9836C182.295 70.3147 181.967 69.4646 181.953 68.4334Z" fill="white"/>
<path d="M190.754 65.7577C190.754 65.6462 190.817 65.4302 190.942 65.1097C191.067 64.7892 191.242 64.4269 191.465 64.0227C191.687 63.6186 191.994 63.2702 192.384 62.9776C192.774 62.6849 193.186 62.5316 193.618 62.5177C194.259 62.5177 194.739 62.6919 195.06 63.0403C195.38 63.3887 195.541 63.7998 195.541 64.2736C195.541 64.5244 195.304 65.3048 194.83 66.6148C194.356 67.9247 194.119 68.9072 194.119 69.5622C194.119 70.1614 194.217 70.5795 194.412 70.8164C194.607 71.0533 194.9 71.1787 195.29 71.1926C195.68 71.2066 196.049 71.0881 196.398 70.8373C196.746 70.5864 197.004 70.3495 197.171 70.1265L197.401 69.7712C197.429 69.7154 197.694 68.6563 198.195 66.5939C198.613 64.9216 198.864 63.9461 198.948 63.6674C199.032 63.3887 199.129 63.1866 199.241 63.0612C199.478 62.8521 199.728 62.7476 199.993 62.7476C200.23 62.7476 200.404 62.8173 200.516 62.9567C200.627 63.096 200.683 63.2284 200.683 63.3538L199.094 70.0011C199.08 70.0708 199.073 70.1823 199.073 70.3356C199.073 70.684 199.122 70.9139 199.22 71.0254C199.317 71.1369 199.464 71.1996 199.659 71.2135C199.965 71.1717 200.209 70.9557 200.39 70.5655C200.571 70.1753 200.78 69.5622 201.017 68.726C201.045 68.6145 201.185 68.5588 201.435 68.5588C201.7 68.5588 201.833 68.6215 201.833 68.7469C201.819 68.8166 201.805 68.9141 201.791 69.0396C201.777 69.165 201.714 69.388 201.603 69.7085C201.491 70.029 201.373 70.3286 201.247 70.6073C201.122 70.886 200.948 71.1508 200.725 71.4017C200.502 71.6525 200.251 71.8267 199.972 71.9242C199.861 71.9521 199.694 71.9661 199.471 71.9661C198.551 71.9661 197.917 71.5759 197.568 70.7955C197.54 70.8094 197.464 70.8791 197.338 71.0045C197.213 71.1299 197.088 71.2344 196.962 71.318C196.837 71.4017 196.683 71.5062 196.502 71.6316C196.321 71.757 196.119 71.8406 195.896 71.8824C195.673 71.9242 195.436 71.9591 195.185 71.987C194.572 71.987 194.029 71.8615 193.555 71.6107C192.83 71.1787 192.468 70.4401 192.468 69.3949C192.468 68.6006 192.712 67.5624 193.199 66.2803C193.687 64.9982 193.931 64.183 193.931 63.8346C193.931 63.8207 193.931 63.8067 193.931 63.7928C193.931 63.6674 193.931 63.5838 193.931 63.5419C193.931 63.5001 193.903 63.4514 193.848 63.3956C193.792 63.3399 193.715 63.312 193.618 63.312H193.534C193.213 63.312 192.921 63.4444 192.656 63.7092C192.391 63.974 192.182 64.2596 192.029 64.5662C191.876 64.8728 191.757 65.1655 191.674 65.4442C191.59 65.7229 191.534 65.8762 191.506 65.904C191.478 65.9319 191.367 65.9458 191.172 65.9458H190.879C190.796 65.8622 190.754 65.7995 190.754 65.7577Z" fill="white"/>
<path d="M202.711 65.7577C202.725 65.7159 202.738 65.6602 202.752 65.5905C202.766 65.5208 202.801 65.3675 202.857 65.1306C202.913 64.8937 202.982 64.6777 203.066 64.4826C203.15 64.2875 203.254 64.0576 203.379 63.7928C203.505 63.528 203.644 63.319 203.798 63.1657C203.951 63.0124 204.132 62.8591 204.341 62.7058C204.55 62.5525 204.78 62.4898 205.031 62.5177C205.435 62.5177 205.79 62.6013 206.097 62.7685C206.404 62.9357 206.62 63.089 206.745 63.2284C206.87 63.3678 206.947 63.5071 206.975 63.6465C207.003 63.7301 207.024 63.7719 207.038 63.7719C207.052 63.7719 207.107 63.7231 207.205 63.6256C207.874 62.9009 208.647 62.5386 209.525 62.5386H209.588C210.257 62.5386 210.758 62.8243 211.093 63.3956C211.204 63.6604 211.26 63.9182 211.26 64.1691C211.26 64.5871 211.17 64.9216 210.988 65.1724C210.807 65.4233 210.626 65.5835 210.445 65.6532C210.264 65.7229 210.09 65.7507 209.922 65.7368C209.644 65.7368 209.421 65.6602 209.253 65.5069C209.086 65.3536 209.003 65.1515 209.003 64.9007C209.003 64.2318 209.393 63.7858 210.173 63.5629C209.867 63.3817 209.616 63.2911 209.421 63.2911C208.64 63.2911 207.923 63.8067 207.268 64.838C207.128 65.0609 207.024 65.2909 206.954 65.5278C206.884 65.7647 206.647 66.6914 206.243 68.3079C205.769 70.2589 205.498 71.2971 205.428 71.4226C205.247 71.7988 204.947 71.987 204.529 71.987C204.348 71.987 204.202 71.9451 204.09 71.8615C203.979 71.7779 203.902 71.6943 203.86 71.6107C203.818 71.5271 203.805 71.4574 203.818 71.4017C203.818 71.2205 204.097 70.022 204.655 67.8063C205.212 65.5905 205.491 64.3572 205.491 64.1063C205.491 63.5629 205.31 63.2911 204.947 63.2911C204.655 63.2911 204.404 63.4862 204.195 63.8764C203.986 64.2666 203.818 64.6916 203.693 65.1515C203.568 65.6114 203.491 65.8622 203.463 65.904C203.435 65.9319 203.324 65.9458 203.129 65.9458H202.836C202.752 65.8622 202.711 65.7995 202.711 65.7577Z" fill="white"/>
<path d="M212.159 65.7577C212.173 65.7159 212.187 65.6602 212.201 65.5905C212.215 65.5208 212.25 65.3675 212.305 65.1306C212.361 64.8937 212.431 64.6777 212.514 64.4826C212.598 64.2875 212.702 64.0576 212.828 63.7928C212.953 63.528 213.093 63.319 213.246 63.1657C213.399 63.0124 213.58 62.8591 213.789 62.7058C213.998 62.5525 214.228 62.4898 214.479 62.5177C214.883 62.5177 215.239 62.6013 215.545 62.7685C215.852 62.9357 216.068 63.089 216.193 63.2284C216.319 63.3678 216.395 63.5071 216.423 63.6465C216.451 63.7301 216.472 63.7719 216.486 63.7719C216.5 63.7719 216.556 63.7231 216.653 63.6256C217.322 62.9009 218.096 62.5386 218.973 62.5386H219.036C219.705 62.5386 220.207 62.8243 220.541 63.3956C220.653 63.6604 220.708 63.9182 220.708 64.1691C220.708 64.5871 220.618 64.9216 220.437 65.1724C220.256 65.4233 220.074 65.5835 219.893 65.6532C219.712 65.7229 219.538 65.7507 219.371 65.7368C219.092 65.7368 218.869 65.6602 218.702 65.5069C218.535 65.3536 218.451 65.1515 218.451 64.9007C218.451 64.2318 218.841 63.7858 219.621 63.5629C219.315 63.3817 219.064 63.2911 218.869 63.2911C218.089 63.2911 217.371 63.8067 216.716 64.838C216.577 65.0609 216.472 65.2909 216.402 65.5278C216.333 65.7647 216.096 66.6914 215.692 68.3079C215.218 70.2589 214.946 71.2971 214.876 71.4226C214.695 71.7988 214.396 71.987 213.978 71.987C213.796 71.987 213.65 71.9451 213.539 71.8615C213.427 71.7779 213.35 71.6943 213.309 71.6107C213.267 71.5271 213.253 71.4574 213.267 71.4017C213.267 71.2205 213.546 70.022 214.103 67.8063C214.66 65.5905 214.939 64.3572 214.939 64.1063C214.939 63.5629 214.758 63.2911 214.396 63.2911C214.103 63.2911 213.852 63.4862 213.643 63.8764C213.434 64.2666 213.267 64.6916 213.141 65.1515C213.016 65.6114 212.939 65.8622 212.911 65.904C212.884 65.9319 212.772 65.9458 212.577 65.9458H212.284C212.201 65.8622 212.159 65.7995 212.159 65.7577Z" fill="white"/>
<path d="M469 115.058L509.277 76.549L469 37.9422L428.723 76.451L469 115.058Z" fill="#18C8FF" fill-opacity="0.3" stroke="#67DBFF"/>
<path d="M467.939 115.689C467.354 116.275 467.354 117.225 467.939 117.811C468.525 118.396 469.475 118.396 470.061 117.811L467.939 115.689ZM509 76.75L492.27 81.2329L504.517 93.4803L509 76.75ZM470.061 117.811L500.515 87.3566L498.393 85.2353L467.939 115.689L470.061 117.811Z" fill="#006AE7"/>
<path d="M520.959 76.9799C520.973 76.9799 521.475 76.9451 522.464 76.8754C523.453 76.8057 523.962 76.7639 523.99 76.75C524.157 76.75 524.241 76.8057 524.241 76.9172C524.241 77.0147 523.732 79.1186 522.715 83.2288C521.698 87.339 521.175 89.4359 521.148 89.5195C521.12 89.603 521.113 89.7075 521.127 89.8329C521.127 90.4181 521.322 90.7107 521.712 90.7107C521.837 90.6968 521.977 90.6341 522.13 90.5226C522.422 90.244 522.708 89.5752 522.987 88.5163C523.07 88.2376 523.14 88.0913 523.196 88.0774C523.224 88.0635 523.293 88.0565 523.405 88.0565H523.572C523.781 88.0565 523.885 88.1122 523.885 88.2237C523.885 88.2934 523.864 88.4048 523.823 88.5581C523.642 89.2547 523.433 89.819 523.196 90.2509C522.959 90.6828 522.764 90.9615 522.61 91.0869C522.457 91.2123 522.262 91.3238 522.025 91.4213C521.914 91.4492 521.747 91.4631 521.524 91.4631C521.05 91.4631 520.653 91.3586 520.332 91.1496C520.012 90.9406 519.803 90.7246 519.705 90.5017L519.58 90.1882C519.566 90.1743 519.538 90.1813 519.497 90.2091C519.469 90.237 519.441 90.2649 519.413 90.2927C518.591 91.073 517.755 91.4631 516.905 91.4631C516.139 91.4631 515.463 91.1844 514.878 90.6271C514.293 90.0698 514 89.1851 514 87.9729C514 87.3041 514.139 86.6214 514.418 85.9248C514.697 85.2281 515.031 84.629 515.421 84.1274C516.076 83.3333 516.731 82.7829 517.386 82.4764C518.041 82.1699 518.633 82.0166 519.162 82.0166C519.942 82.0166 520.528 82.3092 520.918 82.8944C520.987 82.978 521.022 83.0058 521.022 82.978C521.036 82.9222 521.224 82.1629 521.586 80.7C521.949 79.237 522.144 78.4637 522.172 78.3801C522.172 78.199 522.123 78.0876 522.025 78.0458C521.928 78.004 521.656 77.9691 521.21 77.9413H520.771C520.688 77.8577 520.646 77.8019 520.646 77.7741C520.646 77.7462 520.66 77.6138 520.688 77.377C520.757 77.1123 520.848 76.9799 520.959 76.9799ZM520.667 84.4409C520.346 83.3402 519.824 82.7899 519.099 82.7899C518.612 82.7899 518.145 83.0058 517.699 83.4378C517.253 83.8697 516.905 84.434 516.654 85.1306C516.25 86.2313 515.965 87.3738 515.797 88.5581C515.797 88.5999 515.797 88.6765 515.797 88.788C515.797 88.8994 515.79 88.983 515.776 89.0388C515.776 89.6657 515.902 90.0977 516.153 90.3345C516.403 90.5714 516.703 90.6968 517.051 90.7107C517.804 90.7107 518.577 90.2091 519.371 89.206L519.538 88.9761L520.667 84.4409Z" fill="white"/>
<path d="M525.766 77.7323C525.766 77.5929 525.794 77.4327 525.85 77.2516C525.906 77.0705 525.989 76.9799 526.101 76.9799C526.115 76.9799 526.616 76.9451 527.605 76.8754C528.595 76.8057 529.103 76.7639 529.131 76.75C529.298 76.75 529.382 76.8127 529.382 76.9381C529.382 77.0635 529.145 78.0597 528.671 79.9267C528.56 80.4004 528.441 80.8881 528.316 81.3896C528.191 81.8912 528.086 82.2674 528.003 82.5182L527.919 82.9153C527.919 82.9571 527.961 82.9362 528.044 82.8526C528.727 82.2953 529.431 82.0166 530.155 82.0166C531.019 82.0166 531.716 82.3371 532.245 82.978C532.775 83.6189 533.046 84.427 533.06 85.4023C533.06 86.9488 532.51 88.3491 531.409 89.603C530.308 90.857 529.124 91.484 527.856 91.484C527.16 91.484 526.526 91.2193 525.954 90.6898C525.383 90.1604 525.091 89.3035 525.077 88.1192V87.9311C525.077 87.6385 525.132 87.2345 525.244 86.719C525.355 86.2034 525.697 84.831 526.268 82.6018C526.965 79.857 527.313 78.401 527.313 78.2338C527.313 78.0667 527.048 77.9691 526.519 77.9413C526.449 77.9413 526.393 77.9413 526.351 77.9413H526.247C526.108 77.9413 526.017 77.9413 525.975 77.9413C525.933 77.9413 525.885 77.9204 525.829 77.8786C525.773 77.8368 525.752 77.788 525.766 77.7323ZM531.263 84.4618V84.3364C531.263 83.3054 530.838 82.7899 529.988 82.7899C529.751 82.7899 529.507 82.8456 529.256 82.9571C529.006 83.0685 528.776 83.2148 528.567 83.396C528.358 83.5771 528.177 83.7443 528.023 83.8975C527.87 84.0508 527.745 84.2041 527.647 84.3573L527.522 84.5245L527.083 86.3219C526.776 87.5201 526.623 88.37 526.623 88.8716C526.623 89.5404 526.79 90.0419 527.125 90.3763C527.348 90.5992 527.626 90.7107 527.961 90.7107C528.42 90.7107 528.887 90.4878 529.361 90.0419C529.709 89.7215 529.988 89.3314 530.197 88.8716C530.406 88.4118 530.636 87.6803 530.887 86.6772C531.137 85.674 531.263 84.9355 531.263 84.4618Z" fill="white"/>
<path d="M466.951 117.823C467.537 118.409 468.487 118.409 469.072 117.823C469.658 117.237 469.658 116.287 469.072 115.702L466.951 117.823ZM427 75.75L431.482 92.4803L443.73 80.2329L427 75.75ZM469.072 115.702L437.606 84.2353L435.485 86.3566L466.951 117.823L469.072 115.702Z" fill="#20C831"/>
<path d="M408.021 76.9844C408.035 76.9844 408.541 76.9489 409.539 76.8778C410.537 76.8068 411.05 76.7642 411.078 76.75C411.247 76.75 411.331 76.8068 411.331 76.9205C411.331 77.0199 410.818 79.1648 409.792 83.3551C408.766 87.5455 408.239 89.6832 408.211 89.7685C408.183 89.8537 408.176 89.9602 408.19 90.0881C408.19 90.6847 408.387 90.983 408.78 90.983C408.907 90.9687 409.047 90.9048 409.202 90.7912C409.497 90.5071 409.785 89.8253 410.066 88.7457C410.151 88.4616 410.221 88.3125 410.277 88.2983C410.305 88.2841 410.375 88.277 410.488 88.277H410.657C410.867 88.277 410.973 88.3338 410.973 88.4474C410.973 88.5185 410.952 88.6321 410.91 88.7884C410.727 89.4986 410.516 90.0739 410.277 90.5142C410.038 90.9545 409.841 91.2386 409.687 91.3665C409.532 91.4943 409.335 91.608 409.096 91.7074C408.984 91.7358 408.815 91.75 408.59 91.75C408.112 91.75 407.712 91.6435 407.389 91.4304C407.065 91.2173 406.854 90.9972 406.756 90.7699L406.63 90.4503C406.615 90.4361 406.587 90.4432 406.545 90.4716C406.517 90.5 406.489 90.5284 406.461 90.5568C405.632 91.3523 404.788 91.75 403.931 91.75C403.158 91.75 402.476 91.4659 401.886 90.8977C401.295 90.3295 401 89.4276 401 88.1918C401 87.5099 401.141 86.8139 401.422 86.1037C401.703 85.3935 402.04 84.7827 402.434 84.2713C403.094 83.4616 403.755 82.9006 404.416 82.5881C405.076 82.2756 405.674 82.1193 406.208 82.1193C406.995 82.1193 407.585 82.4176 407.979 83.0142C408.049 83.0994 408.084 83.1278 408.084 83.0994C408.098 83.0426 408.288 82.2685 408.654 80.777C409.019 79.2855 409.216 78.4972 409.244 78.4119C409.244 78.2273 409.195 78.1136 409.096 78.071C408.998 78.0284 408.724 77.9929 408.274 77.9645H407.831C407.747 77.8793 407.705 77.8224 407.705 77.794C407.705 77.7656 407.719 77.6307 407.747 77.3892C407.817 77.1193 407.909 76.9844 408.021 76.9844ZM407.726 84.5909C407.403 83.4687 406.875 82.9077 406.145 82.9077C405.653 82.9077 405.182 83.1278 404.732 83.5682C404.282 84.0085 403.931 84.5838 403.678 85.294C403.27 86.4162 402.982 87.581 402.813 88.7884C402.813 88.831 402.813 88.9091 402.813 89.0227C402.813 89.1364 402.806 89.2216 402.792 89.2784C402.792 89.9176 402.919 90.358 403.172 90.5994C403.425 90.8409 403.727 90.9687 404.078 90.983C404.837 90.983 405.617 90.4716 406.419 89.4489L406.587 89.2145L407.726 84.5909Z" fill="white"/>
<path d="M412.027 88.1918C412.027 86.7571 412.561 85.3935 413.63 84.1009C414.698 82.8082 415.9 82.1548 417.235 82.1406C417.952 82.1406 418.584 82.4886 419.133 83.1847C419.357 82.7585 419.681 82.5455 420.102 82.5455C420.285 82.5455 420.447 82.6023 420.587 82.7159C420.728 82.8295 420.798 82.9716 420.798 83.142C420.798 83.3267 420.538 84.4631 420.018 86.5511C419.498 88.6392 419.231 89.8182 419.217 90.0881C419.217 90.4432 419.266 90.6776 419.364 90.7912C419.463 90.9048 419.61 90.9687 419.807 90.983C419.934 90.9687 420.074 90.9048 420.229 90.7912C420.524 90.5071 420.812 89.8253 421.093 88.7457C421.178 88.4616 421.248 88.3125 421.304 88.2983C421.332 88.2841 421.403 88.277 421.515 88.277H421.599C421.866 88.277 422 88.3409 422 88.4688C422 88.554 421.965 88.7457 421.895 89.044C421.824 89.3423 421.684 89.7259 421.473 90.1946C421.262 90.6634 421.037 91.0185 420.798 91.2599C420.615 91.4446 420.391 91.5937 420.123 91.7074C420.011 91.7358 419.842 91.75 419.617 91.75C419.14 91.75 418.739 91.6435 418.416 91.4304C418.092 91.2173 417.882 90.9972 417.783 90.7699L417.657 90.4503C417.643 90.4361 417.614 90.4432 417.572 90.4716C417.544 90.5 417.516 90.5284 417.488 90.5568C416.659 91.3523 415.815 91.75 414.958 91.75C414.185 91.75 413.503 91.4659 412.913 90.8977C412.322 90.3295 412.027 89.4276 412.027 88.1918ZM418.732 84.5483C418.732 84.4631 418.697 84.3068 418.627 84.0795C418.556 83.8523 418.395 83.6037 418.142 83.3338C417.889 83.0639 417.565 82.9219 417.172 82.9077C416.68 82.9077 416.209 83.1278 415.759 83.5682C415.309 84.0085 414.958 84.5838 414.705 85.294C414.297 86.4162 414.009 87.581 413.84 88.7884C413.84 88.831 413.84 88.9091 413.84 89.0227C413.84 89.1364 413.833 89.2216 413.819 89.2784C413.819 89.9176 413.946 90.358 414.199 90.5994C414.452 90.8409 414.754 90.9687 415.105 90.983C415.64 90.983 416.167 90.7486 416.687 90.2798C417.207 89.8111 417.516 89.4489 417.614 89.1932C417.643 89.1364 417.832 88.3764 418.184 86.9134C418.535 85.4503 418.718 84.6619 418.732 84.5483Z" fill="white"/>
</g>
<defs>
<clipPath id="clip0_588_6790">
<rect width="700" height="174" fill="white" transform="translate(0 0.25)"/>
</clipPath>
<clipPath id="clip1_588_6790">
<rect width="1284" height="1284" fill="white" transform="translate(-292.5 -525.25)"/>
</clipPath>
</defs>
</svg>
