<svg width="700" height="233" viewBox="0 0 700 233" fill="none" xmlns="http://www.w3.org/2000/svg">
<g clip-path="url(#clip0_588_6776)">
<rect width="700" height="232" transform="translate(0 0.75)" fill="#0A0D12"/>
<g clip-path="url(#clip1_588_6776)">
<rect width="1284" height="1284" transform="translate(-292.5 -466.75)" fill="#0A0D12"/>
<g opacity="0.4">
<line x1="408.656" y1="-1108.75" x2="408.656" y2="1459.25" stroke="#67DBFF" stroke-width="0.917143"/>
<line x1="467.353" y1="-1108.75" x2="467.353" y2="1459.25" stroke="#67DBFF" stroke-width="0.917143"/>
<line x1="526.05" y1="-1108.75" x2="526.05" y2="1459.25" stroke="#67DBFF" stroke-width="0.917143"/>
<line x1="584.748" y1="-1108.75" x2="584.747" y2="1459.25" stroke="#67DBFF" stroke-width="0.917143"/>
<line x1="643.444" y1="-1108.75" x2="643.444" y2="1459.25" stroke="#67DBFF" stroke-width="0.917143"/>
<line x1="56.4732" y1="-1108.75" x2="56.473" y2="1459.25" stroke="#67DBFF" stroke-width="0.917143"/>
<line x1="115.17" y1="-1108.75" x2="115.169" y2="1459.25" stroke="#67DBFF" stroke-width="0.917143"/>
<line x1="173.867" y1="-1108.75" x2="173.867" y2="1459.25" stroke="#67DBFF" stroke-width="0.917143"/>
<line x1="232.564" y1="-1108.75" x2="232.564" y2="1459.25" stroke="#67DBFF" stroke-width="0.917143"/>
<line x1="291.261" y1="-1108.75" x2="291.261" y2="1459.25" stroke="#67DBFF" stroke-width="0.917143"/>
<line x1="-934.5" y1="116.094" x2="1633.5" y2="116.094" stroke="#67DBFF" stroke-width="0.917143"/>
<line x1="-934.5" y1="57.3971" x2="1633.5" y2="57.3971" stroke="#67DBFF" stroke-width="0.917143"/>
</g>
<line x1="349.959" y1="-1108.75" x2="349.958" y2="1459.25" stroke="#E6E6E6" stroke-width="0.917143"/>
<line x1="-934.5" y1="174.791" x2="1633.5" y2="174.791" stroke="#E6E6E6" stroke-width="0.917143"/>
</g>
<path d="M350.5 173.554V115.959L389.5 77.4465V135.041L350.5 173.554Z" fill="#18C8FF" fill-opacity="0.3" stroke="#67DBFF"/>
<path d="M348.5 174.75C348.5 175.578 349.172 176.25 350 176.25C350.828 176.25 351.5 175.578 351.5 174.75L348.5 174.75ZM350 115.75L341.34 130.75L358.66 130.75L350 115.75ZM351.5 174.75L351.5 129.25L348.5 129.25L348.5 174.75L351.5 174.75Z" fill="#EB5757"/>
<path d="M348.939 173.689C348.354 174.275 348.354 175.225 348.939 175.811C349.525 176.396 350.475 176.396 351.061 175.811L348.939 173.689ZM390 134.75L373.27 139.233L385.517 151.48L390 134.75ZM351.061 175.811L381.515 145.357L379.393 143.235L348.939 173.689L351.061 175.811Z" fill="#006AE7"/>
<path d="M35 41.1024C35 39.5836 35.5992 38.2181 36.7975 37.0058C37.9958 35.7936 39.2916 35.1874 40.685 35.1874C41.4653 35.1874 42.0784 35.3547 42.5243 35.6891C42.9702 36.0235 43.2001 36.4624 43.214 37.0058C43.214 37.4099 43.0816 37.7513 42.8169 38.03C42.5522 38.3086 42.2177 38.4549 41.8137 38.4689C41.5489 38.4689 41.3399 38.3992 41.1866 38.2599C41.0334 38.1205 40.9567 37.9115 40.9567 37.6328C40.9567 37.3542 41.0334 37.1173 41.1866 36.9222C41.3399 36.7271 41.4932 36.5808 41.6465 36.4833C41.7997 36.3858 41.8973 36.344 41.9391 36.3579H41.96C41.96 36.33 41.9182 36.2882 41.8346 36.2325C41.751 36.1768 41.6047 36.121 41.3956 36.0653C41.1866 36.0095 40.9498 35.9817 40.685 35.9817C40.267 35.9817 39.8699 36.0792 39.4937 36.2743C39.2011 36.3997 38.9015 36.6157 38.5949 36.9222C37.9818 37.5353 37.536 38.3992 37.2573 39.5139C36.9786 40.6286 36.8323 41.4368 36.8184 41.9384C36.8184 42.5794 36.9995 43.0601 37.3618 43.3806C37.6683 43.715 38.0724 43.8822 38.574 43.8822H38.6576C40.2182 43.8822 41.5071 43.29 42.5243 42.1056C42.6497 41.9663 42.7333 41.8966 42.7751 41.8966C42.8308 41.8966 42.9214 41.9593 43.0468 42.0847C43.1722 42.2101 43.2419 42.3077 43.2558 42.3773C43.2698 42.447 43.207 42.5515 43.0677 42.6908C42.9284 42.8302 42.7263 43.0252 42.4616 43.2761C42.1968 43.5269 41.8833 43.7359 41.521 43.9031C41.1588 44.0703 40.7129 44.2445 40.1834 44.4256C39.6539 44.6067 39.0966 44.6834 38.5113 44.6555C37.4663 44.6555 36.6233 44.3211 35.9823 43.6523C35.3414 42.9834 35.0139 42.1335 35 41.1024Z" fill="white"/>
<path d="M47.5405 44.6555C46.4954 44.6555 45.6524 44.3141 45.0115 43.6314C44.3705 42.9486 44.05 42.1265 44.05 41.1651C44.05 40.2594 44.2591 39.4024 44.6771 38.5943C45.0951 37.7861 45.6664 37.0825 46.3909 36.4833C47.4499 35.6333 48.5298 35.2083 49.6306 35.2083C50.0764 35.2083 50.3551 35.2153 50.4666 35.2292C50.6477 35.271 50.8289 35.3198 51.01 35.3756C51.1912 35.4313 51.435 35.5428 51.7415 35.71C52.0481 35.8772 52.2989 36.0862 52.494 36.337C52.689 36.5878 52.8702 36.9292 53.0374 37.3611C53.2046 37.7931 53.2882 38.2808 53.2882 38.8242C53.2882 40.3151 52.689 41.6597 51.4907 42.858C50.2924 44.0564 48.9757 44.6555 47.5405 44.6555ZM45.8684 41.9175C45.8684 42.6142 46.0496 43.1158 46.4118 43.4224C46.7741 43.7289 47.1852 43.8822 47.645 43.8822C48.2581 43.8822 48.8363 43.6592 49.3798 43.2134C49.9232 42.7675 50.3551 42.1822 50.6756 41.4577C50.801 41.1651 50.9612 40.6495 51.1563 39.911C51.3514 39.1725 51.4489 38.5316 51.4489 37.9882C51.4489 37.3751 51.3235 36.9083 51.0727 36.5878C50.7383 36.1698 50.2924 35.9608 49.7351 35.9608C48.8572 35.9608 48.0839 36.3649 47.4151 37.173C46.8995 37.7861 46.5163 38.6012 46.2655 39.6184C46.0147 40.6356 45.8823 41.402 45.8684 41.9175Z" fill="white"/>
<path d="M53.9361 38.4271C53.9501 38.3435 53.971 38.232 53.9988 38.0927C54.0267 37.9533 54.1103 37.6886 54.2496 37.2984C54.389 36.9083 54.5283 36.5808 54.6677 36.3161C54.807 36.0513 55.0369 35.7936 55.3574 35.5428C55.6779 35.292 55.9983 35.1735 56.3188 35.1874C56.8204 35.1874 57.2385 35.3129 57.5729 35.5637C57.9073 35.8145 58.1163 36.0513 58.1999 36.2743C58.2835 36.4972 58.3253 36.6435 58.3253 36.7132C58.3253 36.7411 58.3323 36.755 58.3462 36.755L58.5761 36.5251C59.4261 35.6333 60.3945 35.1874 61.4813 35.1874C62.2337 35.1874 62.8399 35.3756 63.2997 35.7518C63.7595 36.128 63.9964 36.6784 64.0103 37.4029C64.0242 38.1275 63.7595 39.2213 63.2161 40.6844C62.6727 42.1474 62.4079 43.0322 62.4219 43.3388C62.4219 43.701 62.5403 43.8822 62.7772 43.8822C62.8608 43.8822 62.9235 43.8752 62.9653 43.8613C63.3694 43.7916 63.7316 43.5269 64.0521 43.067C64.3726 42.6072 64.6164 42.0499 64.7836 41.395C64.8115 41.2835 64.9508 41.2278 65.2017 41.2278C65.4803 41.2278 65.6197 41.2835 65.6197 41.395C65.6197 41.4089 65.5918 41.5134 65.5361 41.7085C65.4246 42.1126 65.2713 42.5097 65.0763 42.8998C64.8812 43.29 64.5607 43.6801 64.1148 44.0703C63.6689 44.4604 63.1882 44.6485 62.6727 44.6346C62.0178 44.6346 61.544 44.4465 61.2514 44.0703C60.9588 43.6941 60.8125 43.3039 60.8125 42.8998C60.8125 42.6351 61.0633 41.7991 61.5649 40.3917C62.0665 38.9844 62.3243 37.9255 62.3382 37.2148C62.3382 36.3927 62.0317 35.9817 61.4186 35.9817H61.3141C60.1158 35.9817 59.1056 36.6853 58.2835 38.0927L58.1372 38.3435L57.4475 41.1442C56.9876 42.9695 56.7229 43.9518 56.6532 44.0912C56.4721 44.4674 56.1725 44.6555 55.7545 44.6555C55.5734 44.6555 55.4271 44.6137 55.3156 44.5301C55.2041 44.4465 55.1275 44.3629 55.0857 44.2793C55.0439 44.1957 55.0299 44.126 55.0439 44.0703C55.0439 43.8891 55.3086 42.7535 55.8381 40.6635C56.3676 38.5734 56.6463 37.4378 56.6741 37.2566C56.6881 37.187 56.695 37.0267 56.695 36.7759C56.695 36.2325 56.5278 35.9608 56.1934 35.9608C55.6639 35.9608 55.225 36.6575 54.8767 38.0509C54.7931 38.3295 54.7513 38.4758 54.7513 38.4898C54.7234 38.5734 54.591 38.6152 54.3541 38.6152H54.0615C53.9779 38.5316 53.9361 38.4689 53.9361 38.4271Z" fill="white"/>
<path d="M69.6535 36.4833C69.6535 36.135 69.5212 35.9608 69.2564 35.9608C68.922 35.9608 68.5737 36.1628 68.2114 36.5669C67.8491 36.971 67.5495 37.591 67.3126 38.4271C67.2987 38.441 67.2848 38.4619 67.2708 38.4898C67.2569 38.5176 67.2499 38.5385 67.2499 38.5525C67.2499 38.5664 67.236 38.5803 67.2081 38.5943C67.1803 38.6082 67.1594 38.6152 67.1454 38.6152C67.1315 38.6152 67.1036 38.6152 67.0618 38.6152C67.02 38.6152 66.9643 38.6152 66.8946 38.6152H66.602C66.5184 38.5316 66.4766 38.4689 66.4766 38.4271C66.4766 38.3295 66.5323 38.1275 66.6438 37.8209C66.7553 37.5144 66.9225 37.1521 67.1454 36.7341C67.3684 36.3161 67.6749 35.9608 68.0651 35.6682C68.4552 35.3756 68.8941 35.2223 69.3818 35.2083C69.967 35.2083 70.4199 35.3756 70.7404 35.71C71.0608 36.0444 71.2281 36.4345 71.242 36.8804C71.242 37.1173 71.2211 37.2984 71.1793 37.4238C71.1793 37.5074 71.0748 37.814 70.8658 38.3435C70.6568 38.873 70.4408 39.493 70.2178 40.2036C69.9949 40.9143 69.8695 41.5343 69.8416 42.0638C69.8416 42.44 69.8765 42.7466 69.9461 42.9834C70.1273 43.5826 70.5662 43.8822 71.2629 43.8822C71.7784 43.8822 72.2592 43.6453 72.705 43.1716C73.1509 42.6978 73.4993 42.1474 73.7501 41.5204C74.0009 40.8934 74.2029 40.3151 74.3562 39.7856C74.5095 39.2561 74.5861 38.873 74.5861 38.6361C74.5861 38.3156 74.5304 38.0369 74.4189 37.8C74.3074 37.5632 74.182 37.382 74.0427 37.2566C73.9034 37.1312 73.778 37.0058 73.6665 36.8804C73.555 36.755 73.4993 36.6017 73.4993 36.4206C73.4993 36.114 73.6316 35.8284 73.8964 35.5637C74.1611 35.2989 74.4468 35.1665 74.7533 35.1665C75.0181 35.1665 75.2549 35.292 75.464 35.5428C75.673 35.7936 75.7844 36.1977 75.7984 36.755C75.7984 37.1312 75.7148 37.7095 75.5476 38.4898C75.3803 39.2701 75.1226 40.1409 74.7742 41.1024C74.4259 42.0638 73.9312 42.8929 73.2903 43.5896C72.6493 44.2863 71.9108 44.6416 71.0748 44.6555C70.183 44.6555 69.4724 44.4256 68.9429 43.9658C68.4273 43.5199 68.1696 42.858 68.1696 41.9802C68.1696 41.5483 68.2253 41.1024 68.3368 40.6426C68.4482 40.1827 68.7339 39.3676 69.1937 38.1972C69.5003 37.3054 69.6535 36.7341 69.6535 36.4833Z" fill="white"/>
<path d="M77.0106 40.9143C77.0106 40.12 77.143 39.3955 77.4077 38.7406C77.6725 38.0857 78.0138 37.5423 78.4319 37.1103C78.8499 36.6784 79.3167 36.3161 79.8322 36.0235C80.3478 35.7309 80.8355 35.5149 81.2953 35.3756C81.7551 35.2362 82.194 35.1735 82.612 35.1874H82.6747C83.3017 35.1874 83.8452 35.3407 84.305 35.6473C84.7648 35.9538 84.9947 36.4067 84.9947 37.0058C84.9947 38.2599 84.2214 39.082 82.6747 39.4721C81.992 39.6533 81.0584 39.7508 79.874 39.7647C79.3585 39.7647 79.0937 39.7787 79.0798 39.8065C79.0798 39.8344 79.038 40.0782 78.9544 40.5381C78.8708 40.9979 78.822 41.402 78.8081 41.7503C78.8081 42.4052 78.9544 42.9207 79.247 43.297C79.5396 43.6732 79.9785 43.8682 80.5637 43.8822C81.149 43.8961 81.7969 43.7637 82.5075 43.4851C83.2181 43.2064 83.8591 42.7466 84.4304 42.1056C84.5558 41.9663 84.6394 41.8966 84.6812 41.8966C84.7369 41.8966 84.8275 41.9593 84.9529 42.0847C85.0783 42.2101 85.148 42.3077 85.1619 42.3773C85.1759 42.447 85.1132 42.5585 84.9738 42.7117C84.8345 42.865 84.6255 43.0531 84.3468 43.2761C84.0681 43.499 83.7476 43.715 83.3854 43.924C83.0231 44.133 82.5842 44.3072 82.0686 44.4465C81.5531 44.5858 81.0236 44.6555 80.4801 44.6555C79.3794 44.6555 78.5294 44.2863 77.9302 43.5478C77.3311 42.8093 77.0245 41.9314 77.0106 40.9143ZM83.9915 37.0476C83.9079 36.3231 83.4341 35.9608 82.5702 35.9608C82.1104 35.9608 81.6854 36.0583 81.2953 36.2534C80.9051 36.4485 80.5916 36.6853 80.3547 36.964C80.1179 37.2427 79.9158 37.5283 79.7486 37.8209C79.5814 38.1136 79.4699 38.3644 79.4142 38.5734C79.3585 38.7824 79.3236 38.9148 79.3097 38.9705C79.3097 38.9844 79.449 38.9914 79.7277 38.9914C81.3022 38.9914 82.403 38.8242 83.03 38.4898C83.6571 38.1554 83.9775 37.6746 83.9915 37.0476Z" fill="white"/>
<path d="M87.0221 38.3853C87.1196 37.8 87.4958 37.1243 88.1507 36.3579C88.8056 35.5915 89.6138 35.2014 90.5752 35.1874C91.0629 35.1874 91.5088 35.3129 91.9129 35.5637C92.317 35.8145 92.6165 36.128 92.8116 36.5042C93.3968 35.6264 94.1005 35.1874 94.9226 35.1874C95.4381 35.1874 95.884 35.3407 96.2602 35.6473C96.6365 35.9538 96.8315 36.3649 96.8455 36.8804C96.8455 37.2845 96.7479 37.6119 96.5529 37.8627C96.3578 38.1136 96.1697 38.2668 95.9885 38.3226C95.8074 38.3783 95.6472 38.4062 95.5078 38.4062C95.2431 38.4062 95.0271 38.3295 94.8599 38.1763C94.6927 38.023 94.6091 37.8209 94.6091 37.5701C94.6091 36.9292 94.9574 36.4903 95.6541 36.2534C95.5008 36.0722 95.2222 35.9817 94.8181 35.9817C94.637 35.9817 94.5046 35.9956 94.421 36.0235C93.8915 36.2464 93.5013 36.7062 93.2505 37.4029C92.4145 40.4823 91.9965 42.2798 91.9965 42.7953C91.9965 43.1855 92.108 43.4642 92.3309 43.6314C92.5538 43.7986 92.7977 43.8822 93.0624 43.8822C93.578 43.8822 94.0866 43.6523 94.5882 43.1925C95.0898 42.7326 95.4312 42.1683 95.6123 41.4995C95.6541 41.3601 95.6959 41.2835 95.7377 41.2696C95.7795 41.2556 95.891 41.2417 96.0721 41.2278H96.1557C96.3648 41.2278 96.4693 41.2835 96.4693 41.395C96.4693 41.4089 96.4553 41.4856 96.4275 41.6249C96.2045 42.4191 95.7726 43.1228 95.1316 43.7359C94.4906 44.349 93.7452 44.6555 92.8952 44.6555C91.9198 44.6555 91.1814 44.2166 90.6797 43.3388C90.1084 44.2027 89.4536 44.6346 88.7151 44.6346H88.5897C87.9069 44.6346 87.4192 44.4535 87.1266 44.0912C86.834 43.7289 86.6807 43.3457 86.6668 42.9416C86.6668 42.4958 86.7991 42.1335 87.0639 41.8548C87.3286 41.5761 87.6421 41.4368 88.0044 41.4368C88.6036 41.4368 88.9032 41.7294 88.9032 42.3146C88.9032 42.5933 88.8196 42.8371 88.6524 43.0461C88.4851 43.2552 88.3249 43.3945 88.1716 43.4642C88.0184 43.5338 87.9278 43.5687 87.8999 43.5687L87.8372 43.5896C87.8372 43.6035 87.879 43.6314 87.9626 43.6732C88.0462 43.715 88.1577 43.7637 88.297 43.8195C88.4364 43.8752 88.5688 43.8961 88.6942 43.8822C89.1958 43.8822 89.6277 43.5687 89.99 42.9416C90.1154 42.7187 90.2757 42.2449 90.4707 41.5204C90.6658 40.7958 90.8609 40.0434 91.0559 39.2631C91.251 38.4828 91.3625 38.023 91.3904 37.8836C91.46 37.5074 91.4949 37.2357 91.4949 37.0685C91.4949 36.6784 91.3904 36.3997 91.1814 36.2325C90.9723 36.0653 90.7355 35.9817 90.4707 35.9817C89.9134 35.9817 89.3908 36.2046 88.9032 36.6505C88.4155 37.0964 88.0741 37.6677 87.879 38.3644C87.8512 38.4898 87.8163 38.5594 87.7745 38.5734C87.7327 38.5873 87.6212 38.6012 87.4401 38.6152H87.1475C87.0639 38.5316 87.0221 38.4549 87.0221 38.3853Z" fill="white"/>
<path d="M104.871 37.173C104.871 36.9919 104.969 36.8525 105.164 36.755H118.478C118.687 36.8665 118.791 37.0058 118.791 37.173C118.791 37.3263 118.694 37.4587 118.499 37.5701L111.852 37.591H105.206C104.983 37.5214 104.871 37.382 104.871 37.173ZM104.871 41.2278C104.871 41.0188 104.983 40.8794 105.206 40.8098H118.499C118.694 40.9491 118.791 41.0884 118.791 41.2278C118.791 41.4089 118.687 41.5483 118.478 41.6458H105.164C104.969 41.5483 104.871 41.4089 104.871 41.2278Z" fill="white"/>
<path d="M133.443 30.1504C133.457 30.1504 133.958 30.1155 134.948 30.0458C135.937 29.9762 136.446 29.9344 136.473 29.9204C136.641 29.9204 136.724 29.9762 136.724 30.0877C136.724 30.1852 136.216 32.2892 135.198 36.3997C134.181 40.5102 133.659 42.6072 133.631 42.6908C133.603 42.7744 133.596 42.8789 133.61 43.0043C133.61 43.5896 133.805 43.8822 134.195 43.8822C134.321 43.8682 134.46 43.8055 134.613 43.6941C134.906 43.4154 135.191 42.7466 135.47 41.6876C135.554 41.4089 135.623 41.2626 135.679 41.2487C135.707 41.2347 135.777 41.2278 135.888 41.2278H136.055C136.264 41.2278 136.369 41.2835 136.369 41.395C136.369 41.4647 136.348 41.5761 136.306 41.7294C136.125 42.4261 135.916 42.9904 135.679 43.4224C135.442 43.8543 135.247 44.133 135.094 44.2584C134.941 44.3838 134.746 44.4953 134.509 44.5928C134.397 44.6207 134.23 44.6346 134.007 44.6346C133.533 44.6346 133.136 44.5301 132.816 44.3211C132.495 44.1121 132.286 43.8961 132.189 43.6732L132.063 43.3597C132.049 43.3457 132.022 43.3527 131.98 43.3806C131.952 43.4084 131.924 43.4363 131.896 43.4642C131.074 44.2445 130.238 44.6346 129.388 44.6346C128.622 44.6346 127.946 44.3559 127.361 43.7986C126.775 43.2412 126.483 42.3564 126.483 41.1442C126.483 40.4753 126.622 39.7926 126.901 39.0959C127.18 38.3992 127.514 37.8 127.904 37.2984C128.559 36.5042 129.214 35.9538 129.869 35.6473C130.524 35.3407 131.116 35.1874 131.645 35.1874C132.426 35.1874 133.011 35.4801 133.401 36.0653C133.471 36.1489 133.505 36.1768 133.505 36.1489C133.519 36.0931 133.708 35.3338 134.07 33.8707C134.432 32.4076 134.627 31.6343 134.655 31.5507C134.655 31.3696 134.606 31.2581 134.509 31.2163C134.411 31.1745 134.139 31.1397 133.694 31.1118H133.255C133.171 31.0282 133.129 30.9725 133.129 30.9446C133.129 30.9167 133.143 30.7843 133.171 30.5475C133.241 30.2827 133.331 30.1504 133.443 30.1504ZM133.15 37.6119C132.83 36.5112 132.307 35.9608 131.583 35.9608C131.095 35.9608 130.628 36.1768 130.182 36.6087C129.736 37.0407 129.388 37.605 129.137 38.3017C128.733 39.4024 128.447 40.545 128.28 41.7294C128.28 41.7712 128.28 41.8478 128.28 41.9593C128.28 42.0708 128.273 42.1544 128.259 42.2101C128.259 42.8371 128.385 43.2691 128.636 43.506C128.886 43.7428 129.186 43.8682 129.534 43.8822C130.287 43.8822 131.06 43.3806 131.854 42.3773L132.022 42.1474L133.15 37.6119Z" fill="white"/>
<path d="M137.539 40.9143C137.539 40.12 137.672 39.3955 137.936 38.7406C138.201 38.0857 138.543 37.5423 138.961 37.1103C139.379 36.6784 139.845 36.3161 140.361 36.0235C140.876 35.7309 141.364 35.5149 141.824 35.3756C142.284 35.2362 142.723 35.1735 143.141 35.1874H143.203C143.83 35.1874 144.374 35.3407 144.834 35.6473C145.294 35.9538 145.523 36.4067 145.523 37.0058C145.523 38.2599 144.75 39.082 143.203 39.4721C142.521 39.6533 141.587 39.7508 140.403 39.7647C139.887 39.7647 139.622 39.7787 139.609 39.8065C139.609 39.8344 139.567 40.0782 139.483 40.5381C139.399 40.9979 139.351 41.402 139.337 41.7503C139.337 42.4052 139.483 42.9207 139.776 43.297C140.068 43.6732 140.507 43.8682 141.092 43.8822C141.678 43.8961 142.326 43.7637 143.036 43.4851C143.747 43.2064 144.388 42.7466 144.959 42.1056C145.085 41.9663 145.168 41.8966 145.21 41.8966C145.266 41.8966 145.356 41.9593 145.482 42.0847C145.607 42.2101 145.677 42.3077 145.691 42.3773C145.705 42.447 145.642 42.5585 145.503 42.7117C145.363 42.865 145.154 43.0531 144.876 43.2761C144.597 43.499 144.276 43.715 143.914 43.924C143.552 44.133 143.113 44.3072 142.597 44.4465C142.082 44.5858 141.552 44.6555 141.009 44.6555C139.908 44.6555 139.058 44.2863 138.459 43.5478C137.86 42.8093 137.553 41.9314 137.539 40.9143ZM144.52 37.0476C144.437 36.3231 143.963 35.9608 143.099 35.9608C142.639 35.9608 142.214 36.0583 141.824 36.2534C141.434 36.4485 141.12 36.6853 140.883 36.964C140.647 37.2427 140.445 37.5283 140.277 37.8209C140.11 38.1136 139.999 38.3644 139.943 38.5734C139.887 38.7824 139.852 38.9148 139.838 38.9705C139.838 38.9844 139.978 38.9914 140.256 38.9914C141.831 38.9914 142.932 38.8242 143.559 38.4898C144.186 38.1554 144.506 37.6746 144.52 37.0476Z" fill="white"/>
<path d="M147.028 36.3788C146.931 36.2813 146.882 36.2116 146.882 36.1698C146.882 36.114 146.903 36.0026 146.945 35.8354C146.986 35.6682 147.021 35.5706 147.049 35.5428C147.077 35.4731 147.14 35.4383 147.237 35.4383C147.335 35.4383 147.69 35.4313 148.303 35.4174H149.411L149.808 33.7453C149.85 33.592 149.899 33.39 149.954 33.1392C150.01 32.8884 150.059 32.7072 150.101 32.5957C150.143 32.4843 150.184 32.3449 150.226 32.1777C150.268 32.0105 150.324 31.8921 150.393 31.8224C150.463 31.7527 150.533 31.6691 150.602 31.5716C150.672 31.4741 150.77 31.4114 150.895 31.3835C151.02 31.3556 151.146 31.3417 151.271 31.3417C151.522 31.3556 151.696 31.4323 151.794 31.5716C151.891 31.7109 151.94 31.8433 151.94 31.9687C151.94 32.0663 151.877 32.3937 151.752 32.9511C151.626 33.5084 151.487 34.0588 151.334 34.6022L151.125 35.3756C151.125 35.4034 151.473 35.4174 152.17 35.4174H153.236C153.333 35.5149 153.382 35.5915 153.382 35.6473C153.382 35.9538 153.292 36.1977 153.11 36.3788H150.874L150.122 39.4094C149.578 41.6388 149.306 42.8371 149.306 43.0043C149.306 43.5896 149.495 43.8822 149.871 43.8822C150.358 43.8822 150.832 43.6453 151.292 43.1716C151.752 42.6978 152.121 42.1126 152.4 41.4159C152.428 41.3323 152.463 41.2835 152.504 41.2696C152.546 41.2556 152.651 41.2417 152.818 41.2278H152.901C153.11 41.2278 153.215 41.2835 153.215 41.395C153.215 41.4368 153.194 41.5204 153.152 41.6458C153.083 41.8687 152.957 42.1335 152.776 42.44C152.595 42.7466 152.358 43.074 152.065 43.4224C151.773 43.7707 151.417 44.0633 150.999 44.3002C150.581 44.5371 150.156 44.6555 149.724 44.6555C149.306 44.6555 148.909 44.551 148.533 44.342C148.157 44.133 147.885 43.7707 147.718 43.2552C147.69 43.1437 147.676 42.9556 147.676 42.6908V42.3146L148.408 39.3885C148.895 37.4238 149.146 36.4345 149.16 36.4206C149.16 36.3927 148.805 36.3788 148.094 36.3788H147.028Z" fill="white"/>
<path d="M155.995 39.2004C155.995 38.239 156.064 37.3263 156.204 36.4624C156.343 35.5985 156.503 34.853 156.684 34.226C156.866 33.599 157.123 32.9859 157.458 32.3867C157.792 31.7876 158.057 31.3208 158.252 30.9864C158.447 30.652 158.74 30.2897 159.13 29.8995C159.52 29.5094 159.75 29.2725 159.82 29.1889C159.889 29.1053 160.063 28.959 160.342 28.75H160.697C160.892 28.75 160.99 28.8127 160.99 28.9381C160.99 28.9799 160.872 29.1262 160.635 29.377C160.398 29.6278 160.112 29.9971 159.778 30.4848C159.443 30.9725 159.102 31.5716 158.754 32.2822C158.405 32.9929 158.113 33.9543 157.876 35.1665C157.639 36.3788 157.52 37.7234 157.52 39.2004C157.52 40.6774 157.639 42.015 157.876 43.2134C158.113 44.4117 158.398 45.3801 158.733 46.1186C159.067 46.8571 159.409 47.4562 159.757 47.916C160.105 48.3759 160.398 48.7451 160.635 49.0238C160.872 49.3025 160.99 49.4488 160.99 49.4627C160.99 49.5881 160.886 49.6508 160.677 49.6508H160.342L159.757 49.1492C158.447 47.9648 157.493 46.4878 156.893 44.7182C156.294 42.9486 155.995 41.1093 155.995 39.2004Z" fill="white"/>
<path d="M169.831 30.1504C169.845 30.1504 170.347 30.1155 171.336 30.0458C172.325 29.9762 172.834 29.9344 172.862 29.9204C173.029 29.9204 173.112 29.9762 173.112 30.0877C173.112 30.1852 172.604 32.2892 171.587 36.3997C170.57 40.5102 170.047 42.6072 170.019 42.6908C169.991 42.7744 169.984 42.8789 169.998 43.0043C169.998 43.5896 170.193 43.8822 170.583 43.8822C170.709 43.8682 170.848 43.8055 171.002 43.6941C171.294 43.4154 171.58 42.7466 171.858 41.6876C171.942 41.4089 172.012 41.2626 172.067 41.2487C172.095 41.2347 172.165 41.2278 172.276 41.2278H172.444C172.653 41.2278 172.757 41.2835 172.757 41.395C172.757 41.4647 172.736 41.5761 172.694 41.7294C172.513 42.4261 172.304 42.9904 172.067 43.4224C171.831 43.8543 171.636 44.133 171.482 44.2584C171.329 44.3838 171.134 44.4953 170.897 44.5928C170.786 44.6207 170.618 44.6346 170.395 44.6346C169.922 44.6346 169.525 44.5301 169.204 44.3211C168.884 44.1121 168.675 43.8961 168.577 43.6732L168.452 43.3597C168.438 43.3457 168.41 43.3527 168.368 43.3806C168.34 43.4084 168.312 43.4363 168.284 43.4642C167.462 44.2445 166.626 44.6346 165.776 44.6346C165.01 44.6346 164.334 44.3559 163.749 43.7986C163.164 43.2412 162.871 42.3564 162.871 41.1442C162.871 40.4753 163.01 39.7926 163.289 39.0959C163.568 38.3992 163.902 37.8 164.292 37.2984C164.947 36.5042 165.602 35.9538 166.257 35.6473C166.912 35.3407 167.504 35.1874 168.034 35.1874C168.814 35.1874 169.399 35.4801 169.789 36.0653C169.859 36.1489 169.894 36.1768 169.894 36.1489C169.908 36.0931 170.096 35.3338 170.458 33.8707C170.82 32.4076 171.015 31.6343 171.043 31.5507C171.043 31.3696 170.995 31.2581 170.897 31.2163C170.799 31.1745 170.528 31.1397 170.082 31.1118H169.643C169.559 31.0282 169.518 30.9725 169.518 30.9446C169.518 30.9167 169.531 30.7843 169.559 30.5475C169.629 30.2827 169.72 30.1504 169.831 30.1504ZM169.538 37.6119C169.218 36.5112 168.695 35.9608 167.971 35.9608C167.483 35.9608 167.016 36.1768 166.571 36.6087C166.125 37.0407 165.776 37.605 165.525 38.3017C165.121 39.4024 164.836 40.545 164.669 41.7294C164.669 41.7712 164.669 41.8478 164.669 41.9593C164.669 42.0708 164.662 42.1544 164.648 42.2101C164.648 42.8371 164.773 43.2691 165.024 43.506C165.275 43.7428 165.574 43.8682 165.923 43.8822C166.675 43.8822 167.448 43.3806 168.243 42.3773L168.41 42.1474L169.538 37.6119Z" fill="white"/>
<path d="M174.638 30.9028C174.638 30.7634 174.666 30.6032 174.722 30.4221C174.778 30.2409 174.861 30.1504 174.973 30.1504C174.987 30.1504 175.488 30.1155 176.478 30.0458C177.467 29.9762 177.975 29.9344 178.003 29.9204C178.17 29.9204 178.254 29.9831 178.254 30.1086C178.254 30.234 178.017 31.2302 177.543 33.0974C177.432 33.5711 177.314 34.0588 177.188 34.5604C177.063 35.062 176.958 35.4383 176.875 35.6891L176.791 36.0862C176.791 36.128 176.833 36.1071 176.916 36.0235C177.599 35.4661 178.303 35.1874 179.027 35.1874C179.891 35.1874 180.588 35.5079 181.117 36.1489C181.647 36.7898 181.919 37.598 181.933 38.5734C181.933 40.12 181.382 41.5204 180.281 42.7744C179.181 44.0285 177.996 44.6555 176.728 44.6555C176.032 44.6555 175.398 44.3908 174.826 43.8613C174.255 43.3318 173.962 42.4749 173.949 41.2905V41.1024C173.949 40.8098 174.004 40.4057 174.116 39.8901C174.227 39.3746 174.569 38.0021 175.14 35.7727C175.837 33.0277 176.185 31.5716 176.185 31.4044C176.185 31.2372 175.92 31.1397 175.391 31.1118C175.321 31.1118 175.265 31.1118 175.223 31.1118H175.119C174.98 31.1118 174.889 31.1118 174.847 31.1118C174.805 31.1118 174.757 31.0909 174.701 31.0491C174.645 31.0073 174.624 30.9585 174.638 30.9028ZM180.135 37.6328V37.5074C180.135 36.4763 179.71 35.9608 178.86 35.9608C178.623 35.9608 178.379 36.0165 178.129 36.128C177.878 36.2395 177.648 36.3858 177.439 36.5669C177.23 36.748 177.049 36.9152 176.896 37.0685C176.742 37.2218 176.617 37.3751 176.519 37.5283L176.394 37.6955L175.955 39.493C175.648 40.6913 175.495 41.5413 175.495 42.0429C175.495 42.7117 175.662 43.2134 175.997 43.5478C176.22 43.7707 176.498 43.8822 176.833 43.8822C177.293 43.8822 177.759 43.6592 178.233 43.2134C178.582 42.8929 178.86 42.5027 179.069 42.0429C179.278 41.5831 179.508 40.8516 179.759 39.8483C180.01 38.8451 180.135 38.1066 180.135 37.6328Z" fill="white"/>
<path d="M183.73 43.6941C183.73 43.6941 183.73 43.5199 183.73 43.1716C183.73 42.8232 183.842 42.5236 184.064 42.2728C184.287 42.022 184.587 41.8966 184.963 41.8966C185.353 41.8966 185.702 42.0708 186.008 42.4191C186.315 42.7675 186.475 43.3806 186.489 44.2584C186.489 44.7461 186.426 45.2198 186.301 45.6796C186.175 46.1395 186.029 46.5366 185.862 46.871C185.695 47.2054 185.514 47.4911 185.319 47.7279C185.123 47.9648 184.956 48.1529 184.817 48.2922C184.678 48.4316 184.587 48.4943 184.545 48.4804C184.489 48.4804 184.399 48.4177 184.274 48.2922C184.148 48.1668 184.085 48.0763 184.085 48.0205C184.085 47.9648 184.162 47.8533 184.315 47.6861C184.469 47.5189 184.643 47.3099 184.838 47.0591C185.033 46.8083 185.214 46.4599 185.381 46.0141C185.548 45.5682 185.66 45.0596 185.716 44.4883V44.2375L185.695 44.2584C185.667 44.2723 185.632 44.2863 185.59 44.3002C185.548 44.3141 185.507 44.335 185.465 44.3629C185.423 44.3908 185.36 44.4047 185.277 44.4047C185.193 44.4047 185.11 44.4117 185.026 44.4256C184.65 44.4256 184.343 44.3072 184.106 44.0703L183.73 43.6941Z" fill="white"/>
<path d="M199.05 30.1504C199.064 30.1504 199.566 30.1155 200.555 30.0458C201.545 29.9762 202.053 29.9344 202.081 29.9204C202.248 29.9204 202.332 29.9762 202.332 30.0877C202.332 30.1852 201.823 32.2892 200.806 36.3997C199.789 40.5102 199.266 42.6072 199.238 42.6908C199.211 42.7744 199.204 42.8789 199.218 43.0043C199.218 43.5896 199.413 43.8822 199.803 43.8822C199.928 43.8682 200.068 43.8055 200.221 43.6941C200.513 43.4154 200.799 42.7466 201.078 41.6876C201.161 41.4089 201.231 41.2626 201.287 41.2487C201.315 41.2347 201.384 41.2278 201.496 41.2278H201.663C201.872 41.2278 201.976 41.2835 201.976 41.395C201.976 41.4647 201.956 41.5761 201.914 41.7294C201.733 42.4261 201.524 42.9904 201.287 43.4224C201.05 43.8543 200.855 44.133 200.702 44.2584C200.548 44.3838 200.353 44.4953 200.116 44.5928C200.005 44.6207 199.838 44.6346 199.615 44.6346C199.141 44.6346 198.744 44.5301 198.423 44.3211C198.103 44.1121 197.894 43.8961 197.796 43.6732L197.671 43.3597C197.657 43.3457 197.629 43.3527 197.587 43.3806C197.559 43.4084 197.532 43.4363 197.504 43.4642C196.682 44.2445 195.846 44.6346 194.996 44.6346C194.229 44.6346 193.553 44.3559 192.968 43.7986C192.383 43.2412 192.09 42.3564 192.09 41.1442C192.09 40.4753 192.23 39.7926 192.508 39.0959C192.787 38.3992 193.122 37.8 193.512 37.2984C194.167 36.5042 194.821 35.9538 195.476 35.6473C196.131 35.3407 196.723 35.1874 197.253 35.1874C198.033 35.1874 198.618 35.4801 199.009 36.0653C199.078 36.1489 199.113 36.1768 199.113 36.1489C199.127 36.0931 199.315 35.3338 199.677 33.8707C200.04 32.4076 200.235 31.6343 200.263 31.5507C200.263 31.3696 200.214 31.2581 200.116 31.2163C200.019 31.1745 199.747 31.1397 199.301 31.1118H198.862C198.779 31.0282 198.737 30.9725 198.737 30.9446C198.737 30.9167 198.751 30.7843 198.779 30.5475C198.848 30.2827 198.939 30.1504 199.05 30.1504ZM198.758 37.6119C198.437 36.5112 197.915 35.9608 197.19 35.9608C196.703 35.9608 196.236 36.1768 195.79 36.6087C195.344 37.0407 194.996 37.605 194.745 38.3017C194.341 39.4024 194.055 40.545 193.888 41.7294C193.888 41.7712 193.888 41.8478 193.888 41.9593C193.888 42.0708 193.881 42.1544 193.867 42.2101C193.867 42.8371 193.992 43.2691 194.243 43.506C194.494 43.7428 194.794 43.8682 195.142 43.8822C195.894 43.8822 196.668 43.3806 197.462 42.3773L197.629 42.1474L198.758 37.6119Z" fill="white"/>
<path d="M203.042 41.1024C203.042 39.5836 203.642 38.2181 204.84 37.0058C206.038 35.7936 207.334 35.1874 208.727 35.1874C209.508 35.1874 210.121 35.3547 210.567 35.6891C211.013 36.0235 211.243 36.4624 211.256 37.0058C211.256 37.4099 211.124 37.7513 210.859 38.03C210.595 38.3086 210.26 38.4549 209.856 38.4689C209.591 38.4689 209.382 38.3992 209.229 38.2599C209.076 38.1205 208.999 37.9115 208.999 37.6328C208.999 37.3542 209.076 37.1173 209.229 36.9222C209.382 36.7271 209.536 36.5808 209.689 36.4833C209.842 36.3858 209.94 36.344 209.982 36.3579H210.002C210.002 36.33 209.961 36.2882 209.877 36.2325C209.793 36.1768 209.647 36.121 209.438 36.0653C209.229 36.0095 208.992 35.9817 208.727 35.9817C208.309 35.9817 207.912 36.0792 207.536 36.2743C207.243 36.3997 206.944 36.6157 206.637 36.9222C206.024 37.5353 205.578 38.3992 205.3 39.5139C205.021 40.6286 204.875 41.4368 204.861 41.9384C204.861 42.5794 205.042 43.0601 205.404 43.3806C205.711 43.715 206.115 43.8822 206.616 43.8822H206.7C208.261 43.8822 209.55 43.29 210.567 42.1056C210.692 41.9663 210.776 41.8966 210.818 41.8966C210.873 41.8966 210.964 41.9593 211.089 42.0847C211.215 42.2101 211.284 42.3077 211.298 42.3773C211.312 42.447 211.249 42.5515 211.11 42.6908C210.971 42.8302 210.769 43.0252 210.504 43.2761C210.239 43.5269 209.926 43.7359 209.563 43.9031C209.201 44.0703 208.755 44.2445 208.226 44.4256C207.696 44.6067 207.139 44.6834 206.554 44.6555C205.509 44.6555 204.666 44.3211 204.025 43.6523C203.384 42.9834 203.056 42.1335 203.042 41.1024Z" fill="white"/>
<path d="M211.842 38.4271C211.842 38.3156 211.904 38.0996 212.03 37.7791C212.155 37.4587 212.329 37.0964 212.552 36.6923C212.775 36.2882 213.082 35.9399 213.472 35.6473C213.862 35.3547 214.273 35.2014 214.705 35.1874C215.346 35.1874 215.827 35.3616 216.147 35.71C216.468 36.0583 216.628 36.4694 216.628 36.9431C216.628 37.1939 216.391 37.9742 215.917 39.284C215.444 40.5938 215.207 41.5761 215.207 42.231C215.207 42.8302 215.304 43.2482 215.499 43.4851C215.694 43.7219 215.987 43.8473 216.377 43.8613C216.767 43.8752 217.137 43.7568 217.485 43.506C217.833 43.2552 218.091 43.0183 218.258 42.7953L218.488 42.44C218.516 42.3843 218.781 41.3253 219.282 39.2631C219.7 37.591 219.951 36.6157 220.035 36.337C220.118 36.0583 220.216 35.8563 220.327 35.7309C220.564 35.5219 220.815 35.4174 221.08 35.4174C221.317 35.4174 221.491 35.487 221.602 35.6264C221.714 35.7657 221.77 35.8981 221.77 36.0235L220.181 42.6699C220.167 42.7396 220.16 42.8511 220.16 43.0043C220.16 43.3527 220.209 43.5826 220.307 43.6941C220.404 43.8055 220.55 43.8682 220.745 43.8822C221.052 43.8404 221.296 43.6244 221.477 43.2343C221.658 42.8441 221.867 42.231 222.104 41.395C222.132 41.2835 222.271 41.2278 222.522 41.2278C222.787 41.2278 222.919 41.2905 222.919 41.4159C222.905 41.4856 222.891 41.5831 222.877 41.7085C222.863 41.8339 222.801 42.0568 222.689 42.3773C222.578 42.6978 222.459 42.9974 222.334 43.2761C222.208 43.5547 222.034 43.8195 221.811 44.0703C221.588 44.3211 221.338 44.4953 221.059 44.5928C220.947 44.6207 220.78 44.6346 220.557 44.6346C219.638 44.6346 219.004 44.2445 218.655 43.4642C218.627 43.4781 218.551 43.5478 218.425 43.6732C218.3 43.7986 218.175 43.9031 218.049 43.9867C217.924 44.0703 217.771 44.1748 217.589 44.3002C217.408 44.4256 217.206 44.5092 216.983 44.551C216.76 44.5928 216.523 44.6276 216.273 44.6555C215.66 44.6555 215.116 44.5301 214.642 44.2793C213.918 43.8473 213.556 43.1088 213.556 42.0638C213.556 41.2696 213.799 40.2315 214.287 38.9496C214.775 37.6677 215.019 36.8525 215.019 36.5042C215.019 36.4903 215.019 36.4763 215.019 36.4624C215.019 36.337 215.019 36.2534 215.019 36.2116C215.019 36.1698 214.991 36.121 214.935 36.0653C214.879 36.0095 214.803 35.9817 214.705 35.9817H214.621C214.301 35.9817 214.008 36.114 213.744 36.3788C213.479 36.6435 213.27 36.9292 213.117 37.2357C212.963 37.5423 212.845 37.8349 212.761 38.1136C212.678 38.3922 212.622 38.5455 212.594 38.5734C212.566 38.6012 212.455 38.6152 212.26 38.6152H211.967C211.883 38.5316 211.842 38.4689 211.842 38.4271Z" fill="white"/>
<path d="M223.797 38.4271C223.811 38.3853 223.825 38.3295 223.839 38.2599C223.853 38.1902 223.888 38.0369 223.943 37.8C223.999 37.5632 224.069 37.3472 224.152 37.1521C224.236 36.957 224.34 36.7271 224.466 36.4624C224.591 36.1977 224.731 35.9886 224.884 35.8354C225.037 35.6821 225.218 35.5288 225.427 35.3756C225.636 35.2223 225.866 35.1596 226.117 35.1874C226.521 35.1874 226.876 35.2711 227.183 35.4383C227.489 35.6055 227.705 35.7587 227.831 35.8981C227.956 36.0374 228.033 36.1768 228.061 36.3161C228.089 36.3997 228.109 36.4415 228.123 36.4415C228.137 36.4415 228.193 36.3927 228.291 36.2952C228.959 35.5706 229.733 35.2083 230.611 35.2083H230.673C231.342 35.2083 231.844 35.494 232.178 36.0653C232.29 36.33 232.345 36.5878 232.345 36.8386C232.345 37.2566 232.255 37.591 232.074 37.8418C231.893 38.0927 231.711 38.2529 231.53 38.3226C231.349 38.3922 231.175 38.4201 231.008 38.4062C230.729 38.4062 230.506 38.3295 230.339 38.1763C230.172 38.023 230.088 37.8209 230.088 37.5701C230.088 36.9013 230.478 36.4554 231.259 36.2325C230.952 36.0513 230.701 35.9608 230.506 35.9608C229.726 35.9608 229.008 36.4763 228.353 37.5074C228.214 37.7304 228.109 37.9603 228.04 38.1972C227.97 38.434 227.733 39.3606 227.329 40.977C226.855 42.9277 226.584 43.9658 226.514 44.0912C226.333 44.4674 226.033 44.6555 225.615 44.6555C225.434 44.6555 225.288 44.6137 225.176 44.5301C225.065 44.4465 224.988 44.3629 224.946 44.2793C224.905 44.1957 224.891 44.126 224.905 44.0703C224.905 43.8891 225.183 42.6908 225.741 40.4753C226.298 38.2599 226.577 37.0267 226.577 36.7759C226.577 36.2325 226.396 35.9608 226.033 35.9608C225.741 35.9608 225.49 36.1559 225.281 36.546C225.072 36.9361 224.905 37.3611 224.779 37.8209C224.654 38.2808 224.577 38.5316 224.549 38.5734C224.521 38.6012 224.41 38.6152 224.215 38.6152H223.922C223.839 38.5316 223.797 38.4689 223.797 38.4271Z" fill="white"/>
<path d="M233.244 38.4271C233.258 38.3853 233.272 38.3295 233.286 38.2599C233.3 38.1902 233.335 38.0369 233.39 37.8C233.446 37.5632 233.516 37.3472 233.599 37.1521C233.683 36.957 233.788 36.7271 233.913 36.4624C234.038 36.1977 234.178 35.9886 234.331 35.8354C234.484 35.6821 234.665 35.5288 234.874 35.3756C235.083 35.2223 235.313 35.1596 235.564 35.1874C235.968 35.1874 236.323 35.2711 236.63 35.4383C236.937 35.6055 237.153 35.7587 237.278 35.8981C237.403 36.0374 237.48 36.1768 237.508 36.3161C237.536 36.3997 237.557 36.4415 237.571 36.4415C237.584 36.4415 237.64 36.3927 237.738 36.2952C238.407 35.5706 239.18 35.2083 240.058 35.2083H240.12C240.789 35.2083 241.291 35.494 241.625 36.0653C241.737 36.33 241.793 36.5878 241.793 36.8386C241.793 37.2566 241.702 37.591 241.521 37.8418C241.34 38.0927 241.159 38.2529 240.977 38.3226C240.796 38.3922 240.622 38.4201 240.455 38.4062C240.176 38.4062 239.953 38.3295 239.786 38.1763C239.619 38.023 239.535 37.8209 239.535 37.5701C239.535 36.9013 239.925 36.4554 240.706 36.2325C240.399 36.0513 240.148 35.9608 239.953 35.9608C239.173 35.9608 238.455 36.4763 237.8 37.5074C237.661 37.7304 237.557 37.9603 237.487 38.1972C237.417 38.434 237.18 39.3606 236.776 40.977C236.303 42.9277 236.031 43.9658 235.961 44.0912C235.78 44.4674 235.48 44.6555 235.062 44.6555C234.881 44.6555 234.735 44.6137 234.624 44.5301C234.512 44.4465 234.435 44.3629 234.394 44.2793C234.352 44.1957 234.338 44.126 234.352 44.0703C234.352 43.8891 234.631 42.6908 235.188 40.4753C235.745 38.2599 236.024 37.0267 236.024 36.7759C236.024 36.2325 235.843 35.9608 235.48 35.9608C235.188 35.9608 234.937 36.1559 234.728 36.546C234.519 36.9361 234.352 37.3611 234.226 37.8209C234.101 38.2808 234.024 38.5316 233.997 38.5734C233.969 38.6012 233.857 38.6152 233.662 38.6152H233.37C233.286 38.5316 233.244 38.4689 233.244 38.4271Z" fill="white"/>
<path d="M243.485 28.7709L243.569 28.75C243.639 28.75 243.708 28.75 243.778 28.75H244.029L244.614 29.2516C245.924 30.436 246.878 31.913 247.478 33.6826C248.077 35.4522 248.376 37.2915 248.376 39.2004C248.376 40.1479 248.307 41.0606 248.167 41.9384C248.028 42.8162 247.868 43.5617 247.687 44.1748C247.505 44.7879 247.248 45.401 246.913 46.0141C246.579 46.6272 246.314 47.0939 246.119 47.4144C245.924 47.7349 245.638 48.0902 245.262 48.4804C244.886 48.8705 244.663 49.1004 244.593 49.1701C244.524 49.2398 244.363 49.3721 244.113 49.5672C244.071 49.609 244.043 49.6369 244.029 49.6508H243.778C243.667 49.6508 243.59 49.6508 243.548 49.6508C243.506 49.6508 243.472 49.6299 243.444 49.5881C243.416 49.5463 243.395 49.4836 243.381 49.4C243.395 49.3861 243.472 49.2955 243.611 49.1283C245.771 46.8849 246.851 43.5756 246.851 39.2004C246.851 34.8252 245.771 31.5159 243.611 29.2725C243.472 29.1053 243.395 29.0147 243.381 29.0008C243.381 28.8893 243.416 28.8127 243.485 28.7709Z" fill="white"/>
<path d="M257.949 33.5572C257.949 33.4457 257.977 33.3551 258.032 33.2855C258.088 33.2158 258.144 33.174 258.2 33.1601L258.262 33.1392C258.36 33.1392 259.433 33.6199 261.481 34.5813C263.529 35.5428 265.557 36.4972 267.563 37.4447L270.552 38.8869C270.65 38.9566 270.698 39.0611 270.698 39.2004C270.698 39.3397 270.65 39.4442 270.552 39.5139C270.524 39.5418 268.49 40.5102 264.449 42.4191L258.43 45.2616H258.304C258.053 45.2338 257.928 45.0944 257.928 44.8436C257.928 44.8297 257.928 44.8088 257.928 44.7809C257.914 44.6834 258.019 44.5719 258.241 44.4465C258.506 44.3072 259.551 43.8055 261.377 42.9416C262.463 42.4261 263.369 42.0011 264.094 41.6667L269.277 39.2004L264.094 36.7341C260.081 34.8391 258.046 33.8568 257.991 33.7871C257.963 33.7314 257.949 33.6547 257.949 33.5572Z" fill="white"/>
<path d="M280.271 32.1986C281.051 31.07 282.117 30.5057 283.469 30.5057C284.138 30.5057 284.806 30.6868 285.475 31.0491C286.144 31.4114 286.687 32.0523 287.105 32.972C287.621 34.1285 287.879 35.7169 287.879 37.7373C287.879 39.8971 287.579 41.5483 286.98 42.6908C286.701 43.2761 286.318 43.7428 285.831 44.0912C285.343 44.4395 284.918 44.6555 284.556 44.7391C284.193 44.8227 283.838 44.8715 283.49 44.8854C283.127 44.8854 282.765 44.8436 282.403 44.76C282.04 44.6764 281.616 44.4535 281.128 44.0912C280.64 43.7289 280.257 43.2621 279.978 42.6908C279.379 41.5483 279.08 39.8971 279.08 37.7373C279.08 35.3129 279.477 33.4666 280.271 32.1986ZM284.974 31.9478C284.556 31.5019 284.061 31.279 283.49 31.279C282.904 31.279 282.403 31.5019 281.985 31.9478C281.636 32.3101 281.406 32.8117 281.295 33.4527C281.184 34.0936 281.128 35.4313 281.128 37.4656C281.128 39.6672 281.184 41.1163 281.295 41.813C281.406 42.5097 281.657 43.0601 282.047 43.4642C282.438 43.8822 282.918 44.0912 283.49 44.0912C284.047 44.0912 284.521 43.8822 284.911 43.4642C285.315 43.0461 285.566 42.4609 285.663 41.7085C285.761 40.9561 285.817 39.5418 285.831 37.4656C285.831 35.4452 285.775 34.1145 285.663 33.4736C285.552 32.8326 285.322 32.324 284.974 31.9478Z" fill="white"/>
<path d="M401.959 134.98C401.973 134.98 402.475 134.945 403.464 134.875C404.453 134.806 404.962 134.764 404.99 134.75C405.157 134.75 405.241 134.806 405.241 134.917C405.241 135.015 404.732 137.119 403.715 141.229C402.698 145.339 402.175 147.436 402.148 147.519C402.12 147.603 402.113 147.708 402.127 147.833C402.127 148.418 402.322 148.711 402.712 148.711C402.837 148.697 402.977 148.634 403.13 148.523C403.422 148.244 403.708 147.575 403.987 146.516C404.07 146.238 404.14 146.091 404.196 146.077C404.224 146.063 404.293 146.057 404.405 146.057H404.572C404.781 146.057 404.885 146.112 404.885 146.224C404.885 146.293 404.864 146.405 404.823 146.558C404.642 147.255 404.433 147.819 404.196 148.251C403.959 148.683 403.764 148.962 403.61 149.087C403.457 149.212 403.262 149.324 403.025 149.421C402.914 149.449 402.747 149.463 402.524 149.463C402.05 149.463 401.653 149.359 401.332 149.15C401.012 148.941 400.803 148.725 400.705 148.502L400.58 148.188C400.566 148.174 400.538 148.181 400.497 148.209C400.469 148.237 400.441 148.265 400.413 148.293C399.591 149.073 398.755 149.463 397.905 149.463C397.139 149.463 396.463 149.184 395.878 148.627C395.293 148.07 395 147.185 395 145.973C395 145.304 395.139 144.621 395.418 143.925C395.697 143.228 396.031 142.629 396.421 142.127C397.076 141.333 397.731 140.783 398.386 140.476C399.041 140.17 399.633 140.017 400.162 140.017C400.942 140.017 401.528 140.309 401.918 140.894C401.987 140.978 402.022 141.006 402.022 140.978C402.036 140.922 402.224 140.163 402.586 138.7C402.949 137.237 403.144 136.464 403.172 136.38C403.172 136.199 403.123 136.088 403.025 136.046C402.928 136.004 402.656 135.969 402.21 135.941H401.771C401.688 135.858 401.646 135.802 401.646 135.774C401.646 135.746 401.66 135.614 401.688 135.377C401.757 135.112 401.848 134.98 401.959 134.98ZM401.667 142.441C401.346 141.34 400.824 140.79 400.099 140.79C399.612 140.79 399.145 141.006 398.699 141.438C398.253 141.87 397.905 142.434 397.654 143.131C397.25 144.231 396.965 145.374 396.797 146.558C396.797 146.6 396.797 146.677 396.797 146.788C396.797 146.899 396.79 146.983 396.776 147.039C396.776 147.666 396.902 148.098 397.153 148.335C397.403 148.571 397.703 148.697 398.051 148.711C398.804 148.711 399.577 148.209 400.371 147.206L400.538 146.976L401.667 142.441Z" fill="white"/>
<path d="M406.766 135.732C406.766 135.593 406.794 135.433 406.85 135.252C406.906 135.07 406.989 134.98 407.101 134.98C407.115 134.98 407.616 134.945 408.605 134.875C409.595 134.806 410.103 134.764 410.131 134.75C410.298 134.75 410.382 134.813 410.382 134.938C410.382 135.063 410.145 136.06 409.671 137.927C409.56 138.4 409.441 138.888 409.316 139.39C409.191 139.891 409.086 140.267 409.003 140.518L408.919 140.915C408.919 140.957 408.961 140.936 409.044 140.853C409.727 140.295 410.431 140.017 411.155 140.017C412.019 140.017 412.716 140.337 413.245 140.978C413.775 141.619 414.046 142.427 414.06 143.402C414.06 144.949 413.51 146.349 412.409 147.603C411.308 148.857 410.124 149.484 408.856 149.484C408.16 149.484 407.526 149.219 406.954 148.69C406.383 148.16 406.091 147.303 406.077 146.119V145.931C406.077 145.639 406.132 145.234 406.244 144.719C406.355 144.203 406.697 142.831 407.268 140.602C407.965 137.857 408.313 136.401 408.313 136.234C408.313 136.067 408.048 135.969 407.519 135.941C407.449 135.941 407.393 135.941 407.351 135.941H407.247C407.108 135.941 407.017 135.941 406.975 135.941C406.933 135.941 406.885 135.92 406.829 135.879C406.773 135.837 406.752 135.788 406.766 135.732ZM412.263 142.462V142.336C412.263 141.305 411.838 140.79 410.988 140.79C410.751 140.79 410.507 140.846 410.256 140.957C410.006 141.069 409.776 141.215 409.567 141.396C409.358 141.577 409.177 141.744 409.023 141.898C408.87 142.051 408.745 142.204 408.647 142.357L408.522 142.525L408.083 144.322C407.776 145.52 407.623 146.37 407.623 146.872C407.623 147.54 407.79 148.042 408.125 148.376C408.348 148.599 408.626 148.711 408.961 148.711C409.42 148.711 409.887 148.488 410.361 148.042C410.709 147.721 410.988 147.331 411.197 146.872C411.406 146.412 411.636 145.68 411.887 144.677C412.137 143.674 412.263 142.936 412.263 142.462Z" fill="white"/>
<path d="M294.961 115.98C294.975 115.98 295.476 115.945 296.466 115.875C297.455 115.806 297.964 115.764 297.992 115.75C298.159 115.75 298.243 115.806 298.243 115.917C298.243 116.015 297.734 118.119 296.717 122.23C295.699 126.341 295.177 128.438 295.149 128.522C295.121 128.606 295.114 128.71 295.128 128.836C295.128 129.421 295.323 129.714 295.713 129.714C295.839 129.7 295.978 129.637 296.131 129.525C296.424 129.247 296.71 128.578 296.988 127.519C297.072 127.24 297.142 127.094 297.198 127.08C297.225 127.066 297.295 127.059 297.407 127.059H297.574C297.783 127.059 297.887 127.115 297.887 127.226C297.887 127.296 297.866 127.407 297.825 127.56C297.643 128.257 297.434 128.822 297.198 129.254C296.961 129.686 296.766 129.964 296.612 130.09C296.459 130.215 296.264 130.327 296.027 130.424C295.915 130.452 295.748 130.466 295.525 130.466C295.051 130.466 294.654 130.362 294.334 130.152C294.013 129.943 293.804 129.727 293.707 129.504L293.581 129.191C293.567 129.177 293.539 129.184 293.498 129.212C293.47 129.24 293.442 129.268 293.414 129.295C292.592 130.076 291.756 130.466 290.906 130.466C290.139 130.466 289.463 130.187 288.878 129.63C288.293 129.072 288 128.188 288 126.975C288 126.306 288.139 125.623 288.418 124.927C288.697 124.23 289.031 123.631 289.421 123.129C290.076 122.335 290.731 121.784 291.386 121.478C292.041 121.171 292.634 121.018 293.163 121.018C293.944 121.018 294.529 121.31 294.919 121.896C294.989 121.979 295.024 122.007 295.024 121.979C295.038 121.923 295.226 121.164 295.588 119.701C295.95 118.238 296.145 117.464 296.173 117.38C296.173 117.199 296.124 117.088 296.027 117.046C295.929 117.004 295.658 116.969 295.212 116.941H294.773C294.689 116.858 294.647 116.802 294.647 116.774C294.647 116.746 294.661 116.614 294.689 116.377C294.759 116.112 294.849 115.98 294.961 115.98ZM294.668 123.442C294.348 122.342 293.825 121.791 293.1 121.791C292.613 121.791 292.146 122.007 291.7 122.439C291.254 122.871 290.906 123.436 290.655 124.132C290.251 125.233 289.965 126.376 289.798 127.56C289.798 127.602 289.798 127.679 289.798 127.79C289.798 127.902 289.791 127.986 289.777 128.041C289.777 128.668 289.902 129.1 290.153 129.337C290.404 129.574 290.704 129.7 291.052 129.714C291.804 129.714 292.578 129.212 293.372 128.208L293.539 127.979L294.668 123.442Z" fill="white"/>
<path d="M298.953 126.933C298.953 125.414 299.553 124.049 300.751 122.836C301.95 121.624 303.246 121.018 304.639 121.018C305.42 121.018 306.033 121.185 306.479 121.519C306.925 121.854 307.155 122.293 307.168 122.836C307.168 123.24 307.036 123.582 306.771 123.861C306.507 124.139 306.172 124.286 305.768 124.3C305.503 124.3 305.294 124.23 305.141 124.09C304.988 123.951 304.911 123.742 304.911 123.463C304.911 123.185 304.988 122.948 305.141 122.753C305.294 122.558 305.447 122.411 305.601 122.314C305.754 122.216 305.852 122.174 305.893 122.188H305.914C305.914 122.16 305.872 122.119 305.789 122.063C305.705 122.007 305.559 121.951 305.35 121.896C305.141 121.84 304.904 121.812 304.639 121.812C304.221 121.812 303.824 121.91 303.448 122.105C303.155 122.23 302.855 122.446 302.549 122.753C301.936 123.366 301.49 124.23 301.211 125.345C300.932 126.46 300.786 127.268 300.772 127.77C300.772 128.411 300.953 128.891 301.316 129.212C301.622 129.546 302.026 129.714 302.528 129.714H302.612C304.172 129.714 305.461 129.121 306.479 127.937C306.604 127.797 306.688 127.728 306.73 127.728C306.785 127.728 306.876 127.79 307.001 127.916C307.127 128.041 307.196 128.139 307.21 128.208C307.224 128.278 307.162 128.383 307.022 128.522C306.883 128.661 306.681 128.856 306.416 129.107C306.151 129.358 305.838 129.567 305.475 129.734C305.113 129.902 304.667 130.076 304.137 130.257C303.608 130.438 303.051 130.515 302.465 130.487C301.42 130.487 300.577 130.152 299.936 129.484C299.295 128.815 298.967 127.965 298.953 126.933Z" fill="white"/>
<path d="M307.754 124.258C307.754 124.146 307.817 123.93 307.942 123.61C308.067 123.289 308.242 122.927 308.465 122.523C308.687 122.119 308.994 121.77 309.384 121.478C309.774 121.185 310.186 121.032 310.618 121.018C311.259 121.018 311.739 121.192 312.06 121.54C312.38 121.889 312.541 122.3 312.541 122.774C312.541 123.024 312.304 123.805 311.83 125.115C311.356 126.425 311.119 127.407 311.119 128.062C311.119 128.661 311.217 129.079 311.412 129.316C311.607 129.553 311.9 129.679 312.29 129.693C312.68 129.707 313.049 129.588 313.398 129.337C313.746 129.086 314.004 128.85 314.171 128.627L314.401 128.271C314.429 128.215 314.694 127.156 315.195 125.094C315.613 123.422 315.864 122.446 315.948 122.167C316.032 121.889 316.129 121.687 316.241 121.561C316.478 121.352 316.728 121.248 316.993 121.248C317.23 121.248 317.404 121.317 317.516 121.457C317.627 121.596 317.683 121.728 317.683 121.854L316.094 128.501C316.08 128.571 316.073 128.682 316.073 128.836C316.073 129.184 316.122 129.414 316.22 129.525C316.317 129.637 316.464 129.7 316.659 129.714C316.965 129.672 317.209 129.456 317.39 129.066C317.571 128.675 317.78 128.062 318.017 127.226C318.045 127.115 318.185 127.059 318.435 127.059C318.7 127.059 318.833 127.121 318.833 127.247C318.819 127.317 318.805 127.414 318.791 127.54C318.777 127.665 318.714 127.888 318.603 128.208C318.491 128.529 318.373 128.829 318.247 129.107C318.122 129.386 317.948 129.651 317.725 129.902C317.502 130.152 317.251 130.327 316.972 130.424C316.861 130.452 316.694 130.466 316.471 130.466C315.551 130.466 314.917 130.076 314.568 129.295C314.54 129.309 314.464 129.379 314.338 129.504C314.213 129.63 314.088 129.734 313.962 129.818C313.837 129.902 313.683 130.006 313.502 130.132C313.321 130.257 313.119 130.341 312.896 130.382C312.673 130.424 312.436 130.459 312.185 130.487C311.572 130.487 311.029 130.362 310.555 130.111C309.83 129.679 309.468 128.94 309.468 127.895C309.468 127.101 309.712 126.062 310.199 124.78C310.687 123.498 310.931 122.683 310.931 122.335C310.931 122.321 310.931 122.307 310.931 122.293C310.931 122.167 310.931 122.084 310.931 122.042C310.931 122 310.903 121.951 310.848 121.896C310.792 121.84 310.715 121.812 310.618 121.812H310.534C310.213 121.812 309.921 121.944 309.656 122.209C309.391 122.474 309.182 122.76 309.029 123.066C308.876 123.373 308.757 123.665 308.674 123.944C308.59 124.223 308.534 124.376 308.506 124.404C308.478 124.432 308.367 124.446 308.172 124.446H307.879C307.796 124.362 307.754 124.3 307.754 124.258Z" fill="white"/>
<path d="M319.711 124.258C319.725 124.216 319.738 124.16 319.752 124.09C319.766 124.021 319.801 123.868 319.857 123.631C319.913 123.394 319.982 123.178 320.066 122.983C320.15 122.788 320.254 122.558 320.379 122.293C320.505 122.028 320.644 121.819 320.798 121.666C320.951 121.512 321.132 121.359 321.341 121.206C321.55 121.053 321.78 120.99 322.031 121.018C322.435 121.018 322.79 121.101 323.097 121.269C323.404 121.436 323.62 121.589 323.745 121.728C323.87 121.868 323.947 122.007 323.975 122.146C324.003 122.23 324.024 122.272 324.038 122.272C324.052 122.272 324.107 122.223 324.205 122.126C324.874 121.401 325.647 121.039 326.525 121.039H326.588C327.257 121.039 327.758 121.324 328.093 121.896C328.204 122.16 328.26 122.418 328.26 122.669C328.26 123.087 328.17 123.422 327.988 123.672C327.807 123.923 327.626 124.084 327.445 124.153C327.264 124.223 327.09 124.251 326.922 124.237C326.644 124.237 326.421 124.16 326.253 124.007C326.086 123.854 326.003 123.652 326.003 123.401C326.003 122.732 326.393 122.286 327.173 122.063C326.867 121.882 326.616 121.791 326.421 121.791C325.64 121.791 324.923 122.307 324.268 123.338C324.128 123.561 324.024 123.791 323.954 124.028C323.884 124.265 323.647 125.191 323.243 126.808C322.769 128.759 322.498 129.797 322.428 129.923C322.247 130.299 321.947 130.487 321.529 130.487C321.348 130.487 321.202 130.445 321.09 130.362C320.979 130.278 320.902 130.194 320.86 130.111C320.818 130.027 320.805 129.957 320.818 129.902C320.818 129.72 321.097 128.522 321.655 126.306C322.212 124.09 322.491 122.857 322.491 122.606C322.491 122.063 322.31 121.791 321.947 121.791C321.655 121.791 321.404 121.986 321.195 122.376C320.986 122.767 320.818 123.192 320.693 123.652C320.568 124.111 320.491 124.362 320.463 124.404C320.435 124.432 320.324 124.446 320.129 124.446H319.836C319.752 124.362 319.711 124.3 319.711 124.258Z" fill="white"/>
<path d="M329.159 124.258C329.173 124.216 329.187 124.16 329.201 124.09C329.215 124.021 329.25 123.868 329.305 123.631C329.361 123.394 329.431 123.178 329.514 122.983C329.598 122.788 329.702 122.558 329.828 122.293C329.953 122.028 330.093 121.819 330.246 121.666C330.399 121.512 330.58 121.359 330.789 121.206C330.998 121.053 331.228 120.99 331.479 121.018C331.883 121.018 332.239 121.101 332.545 121.269C332.852 121.436 333.068 121.589 333.193 121.728C333.319 121.868 333.395 122.007 333.423 122.146C333.451 122.23 333.472 122.272 333.486 122.272C333.5 122.272 333.556 122.223 333.653 122.126C334.322 121.401 335.096 121.039 335.973 121.039H336.036C336.705 121.039 337.207 121.324 337.541 121.896C337.653 122.16 337.708 122.418 337.708 122.669C337.708 123.087 337.618 123.422 337.437 123.672C337.256 123.923 337.074 124.084 336.893 124.153C336.712 124.223 336.538 124.251 336.371 124.237C336.092 124.237 335.869 124.16 335.702 124.007C335.535 123.854 335.451 123.652 335.451 123.401C335.451 122.732 335.841 122.286 336.621 122.063C336.315 121.882 336.064 121.791 335.869 121.791C335.089 121.791 334.371 122.307 333.716 123.338C333.577 123.561 333.472 123.791 333.402 124.028C333.333 124.265 333.096 125.191 332.692 126.808C332.218 128.759 331.946 129.797 331.876 129.923C331.695 130.299 331.396 130.487 330.978 130.487C330.796 130.487 330.65 130.445 330.539 130.362C330.427 130.278 330.35 130.194 330.309 130.111C330.267 130.027 330.253 129.957 330.267 129.902C330.267 129.72 330.546 128.522 331.103 126.306C331.66 124.09 331.939 122.857 331.939 122.606C331.939 122.063 331.758 121.791 331.396 121.791C331.103 121.791 330.852 121.986 330.643 122.376C330.434 122.767 330.267 123.192 330.141 123.652C330.016 124.111 329.939 124.362 329.911 124.404C329.884 124.432 329.772 124.446 329.577 124.446H329.284C329.201 124.362 329.159 124.3 329.159 124.258Z" fill="white"/>
<path d="M362.191 111.652C362.972 110.523 364.038 109.959 365.389 109.959C366.058 109.959 366.727 110.14 367.396 110.502C368.064 110.865 368.608 111.506 369.026 112.425C369.541 113.582 369.799 115.17 369.799 117.191C369.799 119.35 369.5 121.002 368.9 122.144C368.622 122.729 368.239 123.196 367.751 123.545C367.263 123.893 366.838 124.109 366.476 124.192C366.114 124.276 365.758 124.325 365.41 124.339C365.048 124.339 364.686 124.297 364.323 124.213C363.961 124.13 363.536 123.907 363.048 123.545C362.561 123.182 362.177 122.715 361.899 122.144C361.3 121.002 361 119.35 361 117.191C361 114.766 361.397 112.92 362.191 111.652ZM366.894 111.401C366.476 110.955 365.981 110.732 365.41 110.732C364.825 110.732 364.323 110.955 363.905 111.401C363.557 111.763 363.327 112.265 363.215 112.906C363.104 113.547 363.048 114.885 363.048 116.919C363.048 119.121 363.104 120.57 363.215 121.266C363.327 121.963 363.578 122.513 363.968 122.918C364.358 123.336 364.839 123.545 365.41 123.545C365.967 123.545 366.441 123.336 366.831 122.918C367.235 122.499 367.486 121.914 367.584 121.162C367.681 120.409 367.737 118.995 367.751 116.919C367.751 114.899 367.695 113.568 367.584 112.927C367.472 112.286 367.242 111.777 366.894 111.401Z" fill="white"/>
<path d="M372.266 122.625C372.266 122.29 372.384 121.998 372.621 121.747C372.858 121.496 373.157 121.371 373.52 121.371C373.854 121.371 374.147 121.482 374.397 121.705C374.648 121.928 374.781 122.228 374.795 122.604C374.795 122.952 374.676 123.252 374.439 123.503C374.202 123.754 373.903 123.879 373.54 123.879C373.178 123.879 372.879 123.761 372.642 123.524C372.405 123.287 372.279 122.987 372.266 122.625Z" fill="white"/>
<path d="M377.616 114.306C377.63 114.279 377.749 113.519 377.971 112.028L378.306 109.792C378.306 109.764 378.445 109.75 378.724 109.75H379.142V109.834C379.142 109.973 379.246 110.091 379.455 110.189C379.664 110.286 380.027 110.349 380.542 110.377C381.058 110.405 382.235 110.419 384.074 110.419H386.603V111.234L385.182 113.178C385.057 113.345 384.848 113.624 384.555 114.014C384.263 114.404 384.074 114.662 383.991 114.787C383.907 114.912 383.761 115.135 383.552 115.456C383.343 115.776 383.204 116.027 383.134 116.208C383.064 116.389 382.967 116.647 382.841 116.982C382.716 117.316 382.625 117.637 382.57 117.943C382.514 118.25 382.458 118.626 382.402 119.072C382.347 119.518 382.305 119.991 382.277 120.493C382.249 120.995 382.228 121.566 382.214 122.207C382.214 122.402 382.214 122.597 382.214 122.792C382.214 122.987 382.207 123.154 382.193 123.294V123.482C382.138 123.719 382.005 123.921 381.796 124.088C381.587 124.255 381.35 124.339 381.086 124.339C380.932 124.339 380.786 124.318 380.647 124.276C380.507 124.234 380.361 124.102 380.208 123.879C380.055 123.656 379.978 123.377 379.978 123.043C379.978 120.841 380.654 118.556 382.005 116.187C382.284 115.742 382.869 114.899 383.761 113.658L384.722 112.342H382.779C380.354 112.342 379.079 112.384 378.954 112.467C378.87 112.509 378.794 112.676 378.724 112.969C378.654 113.261 378.585 113.561 378.515 113.867L378.452 114.306V114.369H377.616V114.306Z" fill="white"/>
</g>
<defs>
<clipPath id="clip0_588_6776">
<rect width="700" height="232" fill="white" transform="translate(0 0.75)"/>
</clipPath>
<clipPath id="clip1_588_6776">
<rect width="1284" height="1284" fill="white" transform="translate(-292.5 -466.75)"/>
</clipPath>
</defs>
</svg>
