<svg width="700" height="233" viewBox="0 0 700 233" fill="none" xmlns="http://www.w3.org/2000/svg">
<g clip-path="url(#clip0_588_6785)">
<rect width="700" height="232" transform="translate(0 0.75)" fill="#0A0D12"/>
<g clip-path="url(#clip1_588_6785)">
<rect width="1284" height="1284" transform="translate(-292.5 -523.75)" fill="#0A0D12"/>
<g opacity="0.4">
<line x1="408.656" y1="-1165.75" x2="408.656" y2="1402.25" stroke="#67DBFF" stroke-width="0.917143"/>
<line x1="467.353" y1="-1165.75" x2="467.353" y2="1402.25" stroke="#67DBFF" stroke-width="0.917143"/>
<line x1="526.05" y1="-1165.75" x2="526.05" y2="1402.25" stroke="#67DBFF" stroke-width="0.917143"/>
<line x1="584.748" y1="-1165.75" x2="584.747" y2="1402.25" stroke="#67DBFF" stroke-width="0.917143"/>
<line x1="643.444" y1="-1165.75" x2="643.444" y2="1402.25" stroke="#67DBFF" stroke-width="0.917143"/>
<line x1="56.4732" y1="-1165.75" x2="56.473" y2="1402.25" stroke="#67DBFF" stroke-width="0.917143"/>
<line x1="115.17" y1="-1165.75" x2="115.169" y2="1402.25" stroke="#67DBFF" stroke-width="0.917143"/>
<line x1="173.867" y1="-1165.75" x2="173.867" y2="1402.25" stroke="#67DBFF" stroke-width="0.917143"/>
<line x1="232.564" y1="-1165.75" x2="232.564" y2="1402.25" stroke="#67DBFF" stroke-width="0.917143"/>
<line x1="291.261" y1="-1165.75" x2="291.261" y2="1402.25" stroke="#67DBFF" stroke-width="0.917143"/>
<line x1="-934.5" y1="59.0943" x2="1633.5" y2="59.0943" stroke="#67DBFF" stroke-width="0.917143"/>
<line x1="-934.5" y1="0.397141" x2="1633.5" y2="0.397141" stroke="#67DBFF" stroke-width="0.917143"/>
<line x1="-934.5" y1="176.489" x2="1633.5" y2="176.489" stroke="#67DBFF" stroke-width="0.917143"/>
</g>
<line x1="349.959" y1="-1165.75" x2="349.958" y2="1402.25" stroke="#E6E6E6" stroke-width="0.917143"/>
<line x1="-934.5" y1="117.791" x2="1633.5" y2="117.791" stroke="#E6E6E6" stroke-width="0.917143"/>
</g>
<mask id="path-16-inside-1_588_6785" fill="white">
<path d="M350 176.75C361.669 176.75 373.076 173.29 382.779 166.807C392.481 160.324 400.043 151.109 404.509 140.328C408.974 129.547 410.143 117.685 407.866 106.24C405.59 94.7948 399.971 84.282 391.719 76.0307L350 117.75L350 176.75Z"/>
</mask>
<path d="M350 176.75C361.669 176.75 373.076 173.29 382.779 166.807C392.481 160.324 400.043 151.109 404.509 140.328C408.974 129.547 410.143 117.685 407.866 106.24C405.59 94.7948 399.971 84.282 391.719 76.0307L350 117.75L350 176.75Z" fill="#18C8FF" fill-opacity="0.3" stroke="#67DBFF" stroke-width="2" mask="url(#path-16-inside-1_588_6785)"/>
<path d="M348.5 174.75C348.5 175.578 349.172 176.25 350 176.25C350.828 176.25 351.5 175.578 351.5 174.75L348.5 174.75ZM350 117.75L341.34 132.75L358.66 132.75L350 117.75ZM351.5 174.75L351.5 131.25L348.5 131.25L348.5 174.75L351.5 174.75Z" fill="#EB5757"/>
<path d="M348.939 116.689C348.354 117.275 348.354 118.225 348.939 118.811C349.525 119.396 350.475 119.396 351.061 118.811L348.939 116.689ZM390 77.75L373.27 82.2329L385.517 94.4803L390 77.75ZM351.061 118.811L381.515 88.3566L379.393 86.2353L348.939 116.689L351.061 118.811Z" fill="#006AE7"/>
</g>
<defs>
<clipPath id="clip0_588_6785">
<rect width="700" height="232" fill="white" transform="translate(0 0.75)"/>
</clipPath>
<clipPath id="clip1_588_6785">
<rect width="1284" height="1284" fill="white" transform="translate(-292.5 -523.75)"/>
</clipPath>
</defs>
</svg>
