<svg width="700" height="54" viewBox="0 0 700 54" fill="none" xmlns="http://www.w3.org/2000/svg">
<rect width="700" height="53" transform="translate(0 0.75)" fill="#0A0D12"/>
<path d="M57.1578 11.3973C57.1842 11.3973 58.1325 11.3314 60.0027 11.1997C61.873 11.068 62.8345 10.989 62.8872 10.9626C63.2033 10.9626 63.3613 11.068 63.3613 11.2787C63.3613 11.4631 62.3999 15.4408 60.4769 23.2117C58.5539 30.9825 57.5661 34.947 57.5134 35.1051C57.4607 35.2631 57.4476 35.4607 57.4739 35.6977C57.4739 36.8041 57.8427 37.3573 58.5803 37.3573C58.8174 37.3309 59.0808 37.2124 59.3705 37.0017C59.9237 36.4748 60.4637 35.2104 60.9906 33.2084C61.1486 32.6816 61.2803 32.405 61.3857 32.3787C61.4384 32.3523 61.5701 32.3391 61.7808 32.3391H61.9389H62.0969C62.4921 32.3391 62.6896 32.4445 62.6896 32.6552C62.6896 32.787 62.6501 32.9977 62.5711 33.2875C62.2286 34.6046 61.8335 35.6714 61.3857 36.488C60.9379 37.3046 60.5691 37.8314 60.2793 38.0685C59.9896 38.3056 59.6208 38.5163 59.173 38.7007C58.9622 38.7534 58.6461 38.7798 58.2247 38.7798C57.329 38.7798 56.5783 38.5822 55.9724 38.1871C55.3666 37.7919 54.9714 37.3836 54.787 36.9622L54.55 36.3695C54.5236 36.3431 54.4709 36.3563 54.3919 36.409C54.3392 36.4617 54.2865 36.5143 54.2339 36.567C52.6797 38.0422 51.0992 38.7798 49.4923 38.7798C48.0435 38.7798 46.7659 38.2529 45.6595 37.1992C44.5532 36.1456 44 34.4728 44 32.1811C44 30.9167 44.2634 29.6259 44.7903 28.3088C45.3171 26.9917 45.9493 25.859 46.6869 24.9107C47.925 23.4092 49.163 22.3687 50.4011 21.7892C51.6392 21.2097 52.7587 20.9199 53.7597 20.9199C55.2348 20.9199 56.3412 21.4731 57.0788 22.5794C57.2105 22.7375 57.2763 22.7902 57.2763 22.7375C57.3027 22.6321 57.6583 21.1965 58.3432 18.4306C59.0281 15.6647 59.3969 14.2027 59.4496 14.0447C59.4496 13.7022 59.3574 13.4915 59.173 13.4124C58.9886 13.3334 58.4749 13.2676 57.632 13.2149H56.8022C56.6441 13.0568 56.5651 12.9515 56.5651 12.8988C56.5651 12.8461 56.5915 12.5958 56.6441 12.148C56.7759 11.6475 56.9471 11.3973 57.1578 11.3973ZM56.6046 25.5034C55.9988 23.4224 55.0109 22.3819 53.6412 22.3819C52.7192 22.3819 51.8367 22.7902 50.9938 23.6068C50.1508 24.4234 49.4923 25.4902 49.0181 26.8073C48.2542 28.8883 47.7142 31.0484 47.3981 33.2875C47.3981 33.3665 47.3981 33.5114 47.3981 33.7221C47.3981 33.9328 47.3849 34.0909 47.3586 34.1963C47.3586 35.3816 47.5957 36.1982 48.0698 36.6461C48.544 37.0939 49.1103 37.3309 49.7689 37.3573C51.1914 37.3573 52.6533 36.409 54.1548 34.5124L54.4709 34.0777L56.6046 25.5034Z" fill="#D9EBFF"/>
<path d="M64.9023 31.7466C64.9023 30.2451 65.1526 28.8754 65.6531 27.6373C66.1536 26.3992 66.799 25.3719 67.5892 24.5553C68.3795 23.7387 69.2619 23.0538 70.2366 22.5006C71.2112 21.9474 72.1332 21.5391 73.0025 21.2757C73.8718 21.0123 74.7016 20.8938 75.4918 20.9201H75.6104C76.7957 20.9201 77.8231 21.2099 78.6924 21.7894C79.5616 22.3689 79.9963 23.225 79.9963 24.3577C79.9963 26.7285 78.5343 28.2827 75.6104 29.0202C74.3196 29.3627 72.5547 29.5471 70.3156 29.5734C69.341 29.5734 68.8405 29.5998 68.8141 29.6525C68.8141 29.7051 68.7351 30.1661 68.577 31.0354C68.419 31.9047 68.3268 32.6686 68.3005 33.3272C68.3005 34.5652 68.577 35.5399 69.1302 36.2511C69.6834 36.9623 70.5132 37.3311 71.6195 37.3575C72.7259 37.3838 73.9508 37.1336 75.2942 36.6067C76.6377 36.0799 77.8494 35.2106 78.9294 33.9989C79.1665 33.7355 79.3246 33.6037 79.4036 33.6037C79.509 33.6037 79.6802 33.7223 79.9173 33.9594C80.1543 34.1964 80.286 34.3808 80.3124 34.5125C80.3387 34.6443 80.2202 34.855 79.9568 35.1448C79.6934 35.4345 79.2982 35.7901 78.7714 36.2116C78.2445 36.6331 77.6387 37.0414 76.9538 37.4365C76.2689 37.8316 75.4391 38.1609 74.4645 38.4243C73.4898 38.6877 72.4888 38.8195 71.4615 38.8195C69.3805 38.8195 67.7736 38.1214 66.6409 36.7253C65.5082 35.3291 64.9287 33.6696 64.9023 31.7466ZM78.0997 24.4367C77.9416 23.067 77.046 22.3821 75.4128 22.3821C74.5435 22.3821 73.7401 22.5665 73.0025 22.9353C72.2649 23.304 71.6722 23.7519 71.2244 24.2787C70.7766 24.8055 70.3946 25.3455 70.0785 25.8987C69.7624 26.4519 69.5517 26.9261 69.4463 27.3212C69.341 27.7163 69.2751 27.9666 69.2488 28.0719C69.2488 28.0983 69.5122 28.1115 70.039 28.1115C73.0157 28.1115 75.0967 27.7953 76.2821 27.1631C77.4675 26.5309 78.0733 25.6221 78.0997 24.4367Z" fill="#D9EBFF"/>
<path d="M82.841 23.1723C82.6566 22.9879 82.5645 22.8562 82.5645 22.7772C82.5645 22.6718 82.604 22.4611 82.683 22.145C82.762 21.8289 82.8279 21.6445 82.8806 21.5918C82.9332 21.4601 83.0518 21.3942 83.2362 21.3942C83.4206 21.3942 84.0923 21.3811 85.2513 21.3547H87.3455L88.0963 18.1937C88.1753 17.9039 88.2675 17.522 88.3729 17.0478C88.4782 16.5737 88.5704 16.2312 88.6494 16.0205C88.7285 15.8098 88.8075 15.5463 88.8865 15.2302C88.9655 14.9141 89.0709 14.6902 89.2026 14.5585C89.3343 14.4268 89.466 14.2687 89.5978 14.0844C89.7295 13.9 89.9139 13.7814 90.1509 13.7287C90.388 13.6761 90.6251 13.6497 90.8622 13.6497C91.3363 13.6761 91.6656 13.8209 91.85 14.0844C92.0344 14.3478 92.1266 14.598 92.1266 14.8351C92.1266 15.0195 92.008 15.6385 91.771 16.6922C91.5339 17.7459 91.2705 18.7864 90.9807 19.8137L90.5856 21.2757C90.5856 21.3284 91.2441 21.3547 92.5612 21.3547H94.5764C94.7608 21.5391 94.853 21.684 94.853 21.7894C94.853 22.3689 94.6818 22.8299 94.3393 23.1723H90.1114L88.689 28.9017C87.6616 33.1164 87.148 35.3818 87.148 35.6979C87.148 36.8043 87.5036 37.3575 88.2148 37.3575C89.1368 37.3575 90.0324 36.9097 90.9017 36.014C91.771 35.1184 92.469 34.012 92.9959 32.695C93.0486 32.5369 93.1144 32.4447 93.1934 32.4184C93.2725 32.392 93.47 32.3657 93.7861 32.3393H93.9442C94.3393 32.3393 94.5369 32.4447 94.5369 32.6554C94.5369 32.7345 94.4974 32.8925 94.4183 33.1296C94.2866 33.5511 94.0495 34.0516 93.7071 34.6311C93.3647 35.2106 92.9168 35.8296 92.3637 36.4882C91.8105 37.1467 91.1388 37.6999 90.3485 38.1477C89.5582 38.5956 88.7548 38.8195 87.9382 38.8195C87.148 38.8195 86.3972 38.6219 85.686 38.2268C84.9747 37.8316 84.4611 37.1467 84.145 36.1721C84.0923 35.9614 84.0659 35.6057 84.0659 35.1052V34.394L85.4489 28.8622C86.3709 25.148 86.845 23.2777 86.8714 23.2514C86.8714 23.1987 86.1996 23.1723 84.8562 23.1723H82.841Z" fill="#D9EBFF"/>
<path d="M99.792 28.5065C99.792 26.6889 99.9237 24.9635 100.187 23.3303C100.451 21.6971 100.753 20.2878 101.096 19.1024C101.438 17.917 101.926 16.758 102.558 15.6253C103.19 14.4925 103.691 13.6101 104.059 12.9779C104.428 12.3457 104.981 11.6608 105.719 10.9232C106.457 10.1856 106.891 9.73782 107.023 9.57977C107.155 9.42172 107.484 9.14513 108.011 8.75H108.524H108.682C109.051 8.75 109.236 8.86854 109.236 9.10562C109.236 9.18464 109.012 9.46123 108.564 9.93539C108.116 10.4095 107.576 11.1076 106.944 12.0296C106.312 12.9515 105.666 14.0842 105.008 15.4277C104.349 16.7711 103.796 18.5887 103.348 20.8805C102.9 23.1722 102.676 25.7142 102.676 28.5065C102.676 31.2987 102.9 33.8275 103.348 36.093C103.796 38.3584 104.336 40.1891 104.968 41.5853C105.6 42.9814 106.246 44.1141 106.904 44.9834C107.563 45.8527 108.116 46.5507 108.564 47.0776C109.012 47.6044 109.236 47.881 109.236 47.9073C109.236 48.1444 109.038 48.2629 108.643 48.2629H108.524H108.011L106.904 47.3146C104.428 45.0756 102.624 42.2833 101.491 38.9379C100.358 35.5925 99.792 32.1153 99.792 28.5065Z" fill="#D9EBFF"/>
<path d="M125.951 11.3973C125.977 11.3973 126.925 11.3314 128.796 11.1997C130.666 11.068 131.627 10.989 131.68 10.9626C131.996 10.9626 132.154 11.068 132.154 11.2787C132.154 11.4631 131.193 15.4408 129.27 23.2117C127.347 30.9825 126.359 34.947 126.306 35.1051C126.254 35.2631 126.241 35.4607 126.267 35.6977C126.267 36.8041 126.636 37.3573 127.373 37.3573C127.61 37.3309 127.874 37.2124 128.164 37.0017C128.717 36.4748 129.257 35.2104 129.784 33.2084C129.942 32.6816 130.073 32.405 130.179 32.3787C130.231 32.3523 130.363 32.3391 130.574 32.3391H130.732H130.89C131.285 32.3391 131.483 32.4445 131.483 32.6552C131.483 32.787 131.443 32.9977 131.364 33.2875C131.022 34.6046 130.626 35.6714 130.179 36.488C129.731 37.3046 129.362 37.8314 129.072 38.0685C128.783 38.3056 128.414 38.5163 127.966 38.7007C127.755 38.7534 127.439 38.7798 127.018 38.7798C126.122 38.7798 125.371 38.5822 124.765 38.1871C124.16 37.7919 123.764 37.3836 123.58 36.9622L123.343 36.3695C123.317 36.3431 123.264 36.3563 123.185 36.409C123.132 36.4617 123.08 36.5143 123.027 36.567C121.473 38.0422 119.892 38.7798 118.285 38.7798C116.836 38.7798 115.559 38.2529 114.453 37.1992C113.346 36.1456 112.793 34.4728 112.793 32.1811C112.793 30.9167 113.056 29.6259 113.583 28.3088C114.11 26.9917 114.742 25.859 115.48 24.9107C116.718 23.4092 117.956 22.3687 119.194 21.7892C120.432 21.2097 121.552 20.9199 122.553 20.9199C124.028 20.9199 125.134 21.4731 125.872 22.5794C126.003 22.7375 126.069 22.7902 126.069 22.7375C126.096 22.6321 126.451 21.1965 127.136 18.4306C127.821 15.6647 128.19 14.2027 128.243 14.0447C128.243 13.7022 128.15 13.4915 127.966 13.4124C127.782 13.3334 127.268 13.2676 126.425 13.2149H125.595C125.437 13.0568 125.358 12.9515 125.358 12.8988C125.358 12.8461 125.384 12.5958 125.437 12.148C125.569 11.6475 125.74 11.3973 125.951 11.3973ZM125.398 25.5034C124.792 23.4224 123.804 22.3819 122.434 22.3819C121.512 22.3819 120.63 22.7902 119.787 23.6068C118.944 24.4234 118.285 25.4902 117.811 26.8073C117.047 28.8883 116.507 31.0484 116.191 33.2875C116.191 33.3665 116.191 33.5114 116.191 33.7221C116.191 33.9328 116.178 34.0909 116.152 34.1963C116.152 35.3816 116.389 36.1982 116.863 36.6461C117.337 37.0939 117.903 37.3309 118.562 37.3573C119.984 37.3573 121.446 36.409 122.948 34.5124L123.264 34.0777L125.398 25.5034Z" fill="#D9EBFF"/>
<path d="M133.495 32.1021C133.495 29.2309 134.628 26.6493 136.893 24.3576C139.159 22.0658 141.608 20.92 144.243 20.92C145.718 20.92 146.877 21.2361 147.72 21.8683C148.563 22.5005 148.997 23.3303 149.024 24.3576C149.024 25.1215 148.773 25.7669 148.273 26.2937C147.772 26.8206 147.14 27.0972 146.376 27.1235C145.876 27.1235 145.481 26.9918 145.191 26.7284C144.901 26.4649 144.756 26.0698 144.756 25.543C144.756 25.0161 144.901 24.5683 145.191 24.1995C145.481 23.8308 145.77 23.5542 146.06 23.3698C146.35 23.1854 146.534 23.1063 146.613 23.1327H146.653C146.653 23.08 146.574 23.001 146.416 22.8956C146.258 22.7902 145.981 22.6849 145.586 22.5795C145.191 22.4741 144.743 22.4215 144.243 22.4215C143.452 22.4215 142.702 22.6059 141.99 22.9746C141.437 23.2117 140.871 23.62 140.291 24.1995C139.132 25.3586 138.289 26.9918 137.763 29.0991C137.236 31.2065 136.959 32.7343 136.933 33.6826C136.933 34.8944 137.275 35.8032 137.96 36.409C138.54 37.0412 139.304 37.3573 140.252 37.3573H140.41C143.36 37.3573 145.797 36.2378 147.72 33.9987C147.957 33.7353 148.115 33.6036 148.194 33.6036C148.299 33.6036 148.471 33.7222 148.708 33.9592C148.945 34.1963 149.076 34.3807 149.103 34.5124C149.129 34.6441 149.011 34.8417 148.747 35.1051C148.484 35.3685 148.102 35.7373 147.601 36.2115C147.101 36.6856 146.508 37.0808 145.823 37.3969C145.138 37.713 144.295 38.0422 143.294 38.3847C142.293 38.7271 141.24 38.872 140.133 38.8193C138.158 38.8193 136.564 38.1871 135.352 36.9227C134.14 35.6583 133.521 34.0514 133.495 32.1021Z" fill="#D9EBFF"/>
<path d="M150.132 27.0446C150.132 26.8339 150.25 26.4256 150.487 25.8197C150.725 25.2138 151.054 24.5289 151.475 23.765C151.897 23.0011 152.476 22.3426 153.214 21.7894C153.951 21.2362 154.729 20.9464 155.545 20.9201C156.757 20.9201 157.666 21.2494 158.272 21.9079C158.877 22.5665 159.18 23.3436 159.18 24.2392C159.18 24.7133 158.732 26.1885 157.837 28.6646C156.941 31.1408 156.493 32.9979 156.493 34.236C156.493 35.3687 156.678 36.1589 157.047 36.6067C157.415 37.0545 157.969 37.2916 158.706 37.318C159.444 37.3443 160.142 37.1204 160.8 36.6462C161.459 36.1721 161.946 35.7243 162.262 35.3028L162.697 34.6311C162.75 34.5257 163.25 32.5237 164.198 28.6251C164.989 25.4641 165.463 23.6201 165.621 23.0933C165.779 22.5665 165.963 22.1845 166.174 21.9474C166.622 21.5523 167.096 21.3547 167.597 21.3547C168.044 21.3547 168.374 21.4865 168.584 21.7499C168.795 22.0133 168.9 22.2635 168.9 22.5006L165.897 35.0657C165.871 35.1974 165.858 35.4082 165.858 35.6979C165.858 36.3565 165.95 36.7911 166.135 37.0019C166.319 37.2126 166.596 37.3311 166.964 37.3575C167.544 37.2785 168.005 36.8702 168.347 36.1326C168.69 35.395 169.085 34.236 169.533 32.6554C169.585 32.4447 169.849 32.3393 170.323 32.3393C170.823 32.3393 171.074 32.4579 171.074 32.695C171.047 32.8267 171.021 33.0111 170.995 33.2481C170.968 33.4852 170.85 33.9067 170.639 34.5125C170.428 35.1184 170.204 35.6848 169.967 36.2116C169.73 36.7384 169.401 37.2389 168.98 37.7131C168.558 38.1873 168.084 38.5165 167.557 38.7009C167.346 38.7536 167.03 38.7799 166.609 38.7799C164.87 38.7799 163.672 38.0424 163.013 36.5672C162.96 36.5936 162.815 36.7253 162.578 36.9624C162.341 37.1994 162.104 37.397 161.867 37.555C161.63 37.7131 161.34 37.9107 160.998 38.1477C160.655 38.3848 160.273 38.5429 159.852 38.6219C159.431 38.7009 158.983 38.7668 158.509 38.8195C157.35 38.8195 156.322 38.5824 155.427 38.1082C154.057 37.2916 153.372 35.8955 153.372 33.9199C153.372 32.4184 153.833 30.4559 154.755 28.0324C155.677 25.609 156.138 24.068 156.138 23.4094C156.138 23.3831 156.138 23.3567 156.138 23.3304C156.138 23.0933 156.138 22.9353 156.138 22.8562C156.138 22.7772 156.085 22.685 155.98 22.5796C155.874 22.4743 155.73 22.4216 155.545 22.4216H155.387C154.781 22.4216 154.228 22.6718 153.728 23.1723C153.227 23.6728 152.832 24.2128 152.542 24.7924C152.252 25.3719 152.028 25.9251 151.87 26.4519C151.712 26.9787 151.607 27.2685 151.554 27.3212C151.502 27.3739 151.291 27.4002 150.922 27.4002H150.369C150.211 27.2422 150.132 27.1236 150.132 27.0446Z" fill="#D9EBFF"/>
<path d="M172.732 27.0446C172.759 26.9656 172.785 26.8602 172.811 26.7285C172.838 26.5968 172.904 26.307 173.009 25.8592C173.114 25.4114 173.246 25.0031 173.404 24.6343C173.562 24.2655 173.76 23.8309 173.997 23.3304C174.234 22.8299 174.497 22.4348 174.787 22.145C175.077 21.8552 175.419 21.5655 175.814 21.2757C176.21 20.986 176.644 20.8674 177.118 20.9201C177.882 20.9201 178.554 21.0781 179.134 21.3943C179.713 21.7104 180.121 22.0001 180.358 22.2635C180.595 22.527 180.74 22.7904 180.793 23.0538C180.846 23.2118 180.885 23.2909 180.912 23.2909C180.938 23.2909 181.043 23.1987 181.228 23.0143C182.492 21.6445 183.954 20.9596 185.614 20.9596H185.732C186.997 20.9596 187.945 21.4996 188.577 22.5796C188.788 23.0801 188.893 23.5675 188.893 24.0416C188.893 24.8319 188.722 25.4641 188.38 25.9382C188.037 26.4124 187.695 26.7153 187.352 26.847C187.01 26.9787 186.68 27.0314 186.364 27.0051C185.838 27.0051 185.416 26.8602 185.1 26.5704C184.784 26.2807 184.626 25.8987 184.626 25.4246C184.626 24.1602 185.363 23.3172 186.839 22.8957C186.259 22.5533 185.785 22.3821 185.416 22.3821C183.941 22.3821 182.584 23.3567 181.346 25.306C181.083 25.7275 180.885 26.1621 180.754 26.61C180.622 27.0578 180.174 28.8095 179.41 31.8652C178.514 35.5531 178.001 37.5155 177.869 37.7526C177.527 38.4638 176.96 38.8195 176.17 38.8195C175.828 38.8195 175.551 38.7404 175.34 38.5824C175.13 38.4243 174.985 38.2663 174.906 38.1082C174.827 37.9502 174.8 37.8185 174.827 37.7131C174.827 37.3707 175.353 35.1052 176.407 30.9169C177.461 26.7285 177.988 24.3972 177.988 23.9231C177.988 22.8957 177.645 22.3821 176.96 22.3821C176.407 22.3821 175.933 22.7509 175.538 23.4884C175.143 24.226 174.827 25.0294 174.59 25.8987C174.352 26.768 174.208 27.2422 174.155 27.3212C174.102 27.3739 173.891 27.4002 173.523 27.4002H172.969C172.811 27.2422 172.732 27.1236 172.732 27.0446Z" fill="#D9EBFF"/>
<path d="M190.593 27.0446C190.619 26.9656 190.645 26.8602 190.672 26.7285C190.698 26.5968 190.764 26.307 190.869 25.8592C190.975 25.4114 191.106 25.0031 191.264 24.6343C191.423 24.2655 191.62 23.8309 191.857 23.3304C192.094 22.8299 192.358 22.4348 192.647 22.145C192.937 21.8552 193.28 21.5655 193.675 21.2757C194.07 20.986 194.505 20.8674 194.979 20.9201C195.743 20.9201 196.414 21.0781 196.994 21.3943C197.573 21.7104 197.982 22.0001 198.219 22.2635C198.456 22.527 198.601 22.7904 198.653 23.0538C198.706 23.2118 198.746 23.2909 198.772 23.2909C198.798 23.2909 198.904 23.1987 199.088 23.0143C200.352 21.6445 201.814 20.9596 203.474 20.9596H203.593C204.857 20.9596 205.805 21.4996 206.437 22.5796C206.648 23.0801 206.754 23.5675 206.754 24.0416C206.754 24.8319 206.582 25.4641 206.24 25.9382C205.897 26.4124 205.555 26.7153 205.213 26.847C204.87 26.9787 204.541 27.0314 204.225 27.0051C203.698 27.0051 203.276 26.8602 202.96 26.5704C202.644 26.2807 202.486 25.8987 202.486 25.4246C202.486 24.1602 203.224 23.3172 204.699 22.8957C204.119 22.5533 203.645 22.3821 203.276 22.3821C201.801 22.3821 200.445 23.3567 199.207 25.306C198.943 25.7275 198.746 26.1621 198.614 26.61C198.482 27.0578 198.034 28.8095 197.27 31.8652C196.375 35.5531 195.861 37.5155 195.729 37.7526C195.387 38.4638 194.821 38.8195 194.03 38.8195C193.688 38.8195 193.411 38.7404 193.201 38.5824C192.99 38.4243 192.845 38.2663 192.766 38.1082C192.687 37.9502 192.661 37.8185 192.687 37.7131C192.687 37.3707 193.214 35.1052 194.267 30.9169C195.321 26.7285 195.848 24.3972 195.848 23.9231C195.848 22.8957 195.506 22.3821 194.821 22.3821C194.267 22.3821 193.793 22.7509 193.398 23.4884C193.003 24.226 192.687 25.0294 192.45 25.8987C192.213 26.768 192.068 27.2422 192.015 27.3212C191.963 27.3739 191.752 27.4002 191.383 27.4002H190.83C190.672 27.2422 190.593 27.1236 190.593 27.0446Z" fill="#D9EBFF"/>
<path d="M210.664 37.0017C210.664 37.0017 210.664 36.6724 210.664 36.0138C210.664 35.3553 210.875 34.7889 211.296 34.3148C211.718 33.8406 212.284 33.6035 212.995 33.6035C213.733 33.6035 214.391 33.9328 214.971 34.5914C215.55 35.2499 215.853 36.409 215.88 38.0685C215.88 38.9905 215.761 39.8861 215.524 40.7554C215.287 41.6247 215.01 42.3754 214.694 43.0076C214.378 43.6398 214.036 44.1798 213.667 44.6277C213.298 45.0755 212.982 45.4311 212.719 45.6945C212.455 45.9579 212.284 46.0765 212.205 46.0501C212.1 46.0501 211.928 45.9316 211.691 45.6945C211.454 45.4574 211.336 45.2862 211.336 45.1808C211.336 45.0755 211.481 44.8647 211.77 44.5486C212.06 44.2325 212.389 43.8374 212.758 43.3632C213.127 42.8891 213.469 42.2305 213.786 41.3876C214.102 40.5446 214.312 39.5832 214.418 38.5031V38.029L214.378 38.0685C214.326 38.0948 214.26 38.1212 214.181 38.1475C214.102 38.1739 214.023 38.2134 213.944 38.2661C213.865 38.3188 213.746 38.3451 213.588 38.3451C213.43 38.3451 213.272 38.3583 213.114 38.3846C212.403 38.3846 211.823 38.1607 211.375 37.7129L210.664 37.0017Z" fill="#D9EBFF"/>
<path d="M239.628 11.3973C239.654 11.3973 240.602 11.3314 242.472 11.1997C244.343 11.068 245.304 10.989 245.357 10.9626C245.673 10.9626 245.831 11.068 245.831 11.2787C245.831 11.4631 244.87 15.4408 242.947 23.2117C241.024 30.9825 240.036 34.947 239.983 35.1051C239.93 35.2631 239.917 35.4607 239.944 35.6977C239.944 36.8041 240.312 37.3573 241.05 37.3573C241.287 37.3309 241.55 37.2124 241.84 37.0017C242.393 36.4748 242.933 35.2104 243.46 33.2084C243.618 32.6816 243.75 32.405 243.855 32.3787C243.908 32.3523 244.04 32.3391 244.251 32.3391H244.409H244.567C244.962 32.3391 245.159 32.4445 245.159 32.6552C245.159 32.787 245.12 32.9977 245.041 33.2875C244.698 34.6046 244.303 35.6714 243.855 36.488C243.408 37.3046 243.039 37.8314 242.749 38.0685C242.459 38.3056 242.091 38.5163 241.643 38.7007C241.432 38.7534 241.116 38.7798 240.694 38.7798C239.799 38.7798 239.048 38.5822 238.442 38.1871C237.836 37.7919 237.441 37.3836 237.257 36.9622L237.02 36.3695C236.993 36.3431 236.941 36.3563 236.862 36.409C236.809 36.4617 236.756 36.5143 236.704 36.567C235.149 38.0422 233.569 38.7798 231.962 38.7798C230.513 38.7798 229.236 38.2529 228.129 37.1992C227.023 36.1456 226.47 34.4728 226.47 32.1811C226.47 30.9167 226.733 29.6259 227.26 28.3088C227.787 26.9917 228.419 25.859 229.157 24.9107C230.395 23.4092 231.633 22.3687 232.871 21.7892C234.109 21.2097 235.228 20.9199 236.229 20.9199C237.705 20.9199 238.811 21.4731 239.549 22.5794C239.68 22.7375 239.746 22.7902 239.746 22.7375C239.772 22.6321 240.128 21.1965 240.813 18.4306C241.498 15.6647 241.867 14.2027 241.919 14.0447C241.919 13.7022 241.827 13.4915 241.643 13.4124C241.458 13.3334 240.945 13.2676 240.102 13.2149H239.272C239.114 13.0568 239.035 12.9515 239.035 12.8988C239.035 12.8461 239.061 12.5958 239.114 12.148C239.246 11.6475 239.417 11.3973 239.628 11.3973ZM239.074 25.5034C238.468 23.4224 237.481 22.3819 236.111 22.3819C235.189 22.3819 234.306 22.7902 233.464 23.6068C232.621 24.4234 231.962 25.4902 231.488 26.8073C230.724 28.8883 230.184 31.0484 229.868 33.2875C229.868 33.3665 229.868 33.5114 229.868 33.7221C229.868 33.9328 229.855 34.0909 229.828 34.1963C229.828 35.3816 230.065 36.1982 230.54 36.6461C231.014 37.0939 231.58 37.3309 232.239 37.3573C233.661 37.3573 235.123 36.409 236.625 34.5124L236.941 34.0777L239.074 25.5034Z" fill="#D9EBFF"/>
<path d="M247.176 32.1811C247.176 29.5206 248.177 26.9917 250.179 24.5946C252.181 22.1975 254.433 20.9858 256.935 20.9594C258.279 20.9594 259.464 21.6048 260.492 22.8956C260.913 22.1053 261.519 21.7102 262.309 21.7102C262.652 21.7102 262.955 21.8155 263.218 22.0263C263.481 22.237 263.613 22.5004 263.613 22.8165C263.613 23.159 263.126 25.2663 262.151 29.1386C261.177 33.0109 260.676 35.1972 260.65 35.6977C260.65 36.3563 260.742 36.7909 260.926 37.0017C261.111 37.2124 261.387 37.3309 261.756 37.3573C261.993 37.3309 262.257 37.2124 262.546 37.0017C263.099 36.4748 263.64 35.2104 264.166 33.2084C264.324 32.6816 264.456 32.405 264.561 32.3787C264.614 32.3523 264.746 32.3391 264.957 32.3391H265.115C265.615 32.3391 265.865 32.4577 265.865 32.6948C265.865 32.8528 265.8 33.2084 265.668 33.7616C265.536 34.3148 265.273 35.026 264.878 35.8953C264.482 36.7646 264.061 37.4231 263.613 37.871C263.271 38.2134 262.849 38.49 262.349 38.7007C262.138 38.7534 261.822 38.7798 261.4 38.7798C260.505 38.7798 259.754 38.5822 259.148 38.1871C258.542 37.7919 258.147 37.3836 257.963 36.9622L257.726 36.3695C257.699 36.3431 257.647 36.3563 257.568 36.409C257.515 36.4617 257.462 36.5143 257.41 36.567C255.855 38.0422 254.275 38.7798 252.668 38.7798C251.219 38.7798 249.942 38.2529 248.835 37.1992C247.729 36.1456 247.176 34.4728 247.176 32.1811ZM259.741 25.4244C259.741 25.2663 259.675 24.9766 259.543 24.5551C259.412 24.1336 259.109 23.6726 258.635 23.1721C258.16 22.6716 257.555 22.4082 256.817 22.3819C255.895 22.3819 255.013 22.7902 254.17 23.6068C253.327 24.4234 252.668 25.4902 252.194 26.8073C251.43 28.8883 250.89 31.0484 250.574 33.2875C250.574 33.3665 250.574 33.5114 250.574 33.7221C250.574 33.9328 250.561 34.0909 250.534 34.1963C250.534 35.3816 250.771 36.1982 251.246 36.6461C251.72 37.0939 252.286 37.3309 252.945 37.3573C253.946 37.3573 254.933 36.9226 255.908 36.0534C256.883 35.1841 257.462 34.5124 257.647 34.0382C257.699 33.9328 258.055 32.5235 258.714 29.8103C259.372 27.0971 259.715 25.6351 259.741 25.4244Z" fill="#D9EBFF"/>
<path d="M269.145 8.78951L269.303 8.75C269.435 8.75 269.566 8.75 269.698 8.75H270.172L271.279 9.69831C273.755 11.9374 275.559 14.7296 276.692 18.0751C277.825 21.4205 278.391 24.8976 278.391 28.5065C278.391 30.2977 278.259 32.0231 277.996 33.6827C277.732 35.3422 277.429 36.7515 277.087 37.9105C276.744 39.0696 276.257 40.2286 275.625 41.3877C274.993 42.5467 274.492 43.4292 274.123 44.0351C273.755 44.6409 273.215 45.3126 272.503 46.0502C271.792 46.7878 271.371 47.2224 271.239 47.3541C271.107 47.4859 270.804 47.7361 270.33 48.1049C270.251 48.1839 270.199 48.2366 270.172 48.2629H269.698C269.487 48.2629 269.342 48.2629 269.263 48.2629C269.184 48.2629 269.118 48.2234 269.066 48.1444C269.013 48.0654 268.974 47.9468 268.947 47.7888C268.974 47.7624 269.118 47.5912 269.382 47.2751C273.465 43.0341 275.506 36.7778 275.506 28.5065C275.506 20.2351 273.465 13.9789 269.382 9.73782C269.118 9.42172 268.974 9.2505 268.947 9.22415C268.947 9.01342 269.013 8.86854 269.145 8.78951Z" fill="#D9EBFF"/>
<path d="M296.409 14.0446C296.409 13.8338 296.488 13.6495 296.646 13.4914C296.804 13.3334 296.935 13.2543 297.041 13.2543C297.252 13.2543 299.28 14.15 303.126 15.9412C306.972 17.7325 310.791 19.5369 314.585 21.3545C318.378 23.1721 320.274 24.094 320.274 24.1204C320.459 24.2521 320.551 24.4497 320.551 24.7131C320.551 24.9765 320.459 25.1741 320.274 25.3058C320.222 25.3585 316.376 27.1892 308.737 30.7981L297.357 36.1718H297.12C296.646 36.1191 296.409 35.8557 296.409 35.3816C296.409 35.3552 296.409 35.3157 296.409 35.263C296.382 35.0786 296.58 34.8679 297.001 34.6308C297.502 34.3674 299.477 33.4191 302.928 31.7859C304.983 30.8112 306.695 30.0078 308.065 29.3756L317.864 24.7131L307.354 19.7344C305.536 18.8652 303.429 17.8642 301.032 16.7315C298.713 15.6514 297.37 15.0061 297.001 14.7953C296.632 14.5846 296.435 14.3343 296.409 14.0446ZM296.448 43.0471C296.448 42.7837 296.646 42.5202 297.041 42.2568H319.919C320.34 42.4149 320.551 42.6783 320.551 43.0471C320.551 43.3632 320.353 43.6266 319.958 43.8373H297.001C296.632 43.6529 296.448 43.3895 296.448 43.0471Z" fill="#D9EBFF"/>
<path d="M338.687 15.2697C340.162 13.136 342.177 12.0691 344.732 12.0691C345.997 12.0691 347.261 12.4116 348.526 13.0965C349.79 13.7814 350.817 14.9931 351.608 16.7317C352.582 18.918 353.07 21.921 353.07 25.7406C353.07 29.8236 352.503 32.9451 351.37 35.1052C350.844 36.2115 350.119 37.094 349.197 37.7525C348.275 38.4111 347.472 38.8194 346.787 38.9774C346.102 39.1355 345.43 39.2277 344.772 39.254C344.087 39.254 343.402 39.175 342.717 39.017C342.032 38.8589 341.229 38.4374 340.307 37.7525C339.385 37.0676 338.66 36.1852 338.134 35.1052C337.001 32.9451 336.435 29.8236 336.435 25.7406C336.435 21.1571 337.185 17.6668 338.687 15.2697ZM347.577 14.7955C346.787 13.9526 345.852 13.5311 344.772 13.5311C343.665 13.5311 342.717 13.9526 341.927 14.7955C341.268 15.4804 340.834 16.4287 340.623 17.6404C340.412 18.8522 340.307 21.381 340.307 25.2269C340.307 29.389 340.412 32.1285 340.623 33.4456C340.834 34.7627 341.308 35.8032 342.045 36.5671C342.783 37.3574 343.692 37.7525 344.772 37.7525C345.825 37.7525 346.721 37.3574 347.459 36.5671C348.223 35.7769 348.697 34.6705 348.881 33.2481C349.066 31.8256 349.171 29.1519 349.197 25.2269C349.197 21.4073 349.092 18.8917 348.881 17.68C348.67 16.4682 348.236 15.5067 347.577 14.7955Z" fill="#D9EBFF"/>
<path d="M365.596 15.4672C365.622 15.2828 365.701 15.1248 365.833 14.9931C365.964 14.8614 366.149 14.7823 366.386 14.756C366.676 14.756 366.952 14.9931 367.216 15.4672L376.58 36.4881L385.945 15.4672C386.182 15.0458 386.393 14.8219 386.577 14.7955C386.63 14.7692 386.696 14.756 386.775 14.756C387.249 14.756 387.512 14.9931 387.565 15.4672C387.565 15.6253 386.709 17.6536 384.997 21.5522C383.284 25.4508 381.559 29.3231 379.82 33.169C378.082 37.015 377.199 38.9511 377.173 38.9774C377.041 39.1618 376.844 39.254 376.58 39.254C376.317 39.254 376.119 39.1618 375.988 38.9774C375.961 38.9511 375.092 37.0281 373.38 33.2085C371.668 29.389 369.942 25.5167 368.204 21.5917C366.465 17.6668 365.596 15.6253 365.596 15.4672Z" fill="#D9EBFF"/>
<path d="M413.052 11.3973C413.079 11.3973 414.027 11.3314 415.897 11.1997C417.768 11.068 418.729 10.989 418.782 10.9626C419.098 10.9626 419.256 11.068 419.256 11.2787C419.256 11.4631 418.294 15.4408 416.371 23.2117C414.448 30.9825 413.461 34.947 413.408 35.1051C413.355 35.2631 413.342 35.4607 413.368 35.6977C413.368 36.8041 413.737 37.3573 414.475 37.3573C414.712 37.3309 414.975 37.2124 415.265 37.0017C415.818 36.4748 416.358 35.2104 416.885 33.2084C417.043 32.6816 417.175 32.405 417.28 32.3787C417.333 32.3523 417.465 32.3391 417.675 32.3391H417.833H417.991C418.387 32.3391 418.584 32.4445 418.584 32.6552C418.584 32.787 418.545 32.9977 418.466 33.2875C418.123 34.6046 417.728 35.6714 417.28 36.488C416.832 37.3046 416.464 37.8314 416.174 38.0685C415.884 38.3056 415.515 38.5163 415.068 38.7007C414.857 38.7534 414.541 38.7798 414.119 38.7798C413.224 38.7798 412.473 38.5822 411.867 38.1871C411.261 37.7919 410.866 37.3836 410.682 36.9622L410.444 36.3695C410.418 36.3431 410.365 36.3563 410.286 36.409C410.234 36.4617 410.181 36.5143 410.128 36.567C408.574 38.0422 406.994 38.7798 405.387 38.7798C403.938 38.7798 402.66 38.2529 401.554 37.1992C400.448 36.1456 399.895 34.4728 399.895 32.1811C399.895 30.9167 400.158 29.6259 400.685 28.3088C401.212 26.9917 401.844 25.859 402.581 24.9107C403.819 23.4092 405.058 22.3687 406.296 21.7892C407.534 21.2097 408.653 20.9199 409.654 20.9199C411.129 20.9199 412.236 21.4731 412.973 22.5794C413.105 22.7375 413.171 22.7902 413.171 22.7375C413.197 22.6321 413.553 21.1965 414.238 18.4306C414.923 15.6647 415.291 14.2027 415.344 14.0447C415.344 13.7022 415.252 13.4915 415.068 13.4124C414.883 13.3334 414.369 13.2676 413.526 13.2149H412.697C412.539 13.0568 412.46 12.9515 412.46 12.8988C412.46 12.8461 412.486 12.5958 412.539 12.148C412.67 11.6475 412.842 11.3973 413.052 11.3973ZM412.499 25.5034C411.893 23.4224 410.905 22.3819 409.536 22.3819C408.614 22.3819 407.731 22.7902 406.888 23.6068C406.045 24.4234 405.387 25.4902 404.913 26.8073C404.149 28.8883 403.609 31.0484 403.293 33.2875C403.293 33.3665 403.293 33.5114 403.293 33.7221C403.293 33.9328 403.279 34.0909 403.253 34.1963C403.253 35.3816 403.49 36.1982 403.964 36.6461C404.439 37.0939 405.005 37.3309 405.663 37.3573C407.086 37.3573 408.548 36.409 410.049 34.5124L410.365 34.0777L412.499 25.5034Z" fill="#D9EBFF"/>
<path d="M420.835 31.7466C420.835 30.2451 421.085 28.8754 421.586 27.6373C422.086 26.3992 422.732 25.3719 423.522 24.5553C424.312 23.7387 425.195 23.0538 426.169 22.5006C427.144 21.9474 428.066 21.5391 428.935 21.2757C429.804 21.0123 430.634 20.8938 431.424 20.9201H431.543C432.728 20.9201 433.756 21.2099 434.625 21.7894C435.494 22.3689 435.929 23.225 435.929 24.3577C435.929 26.7285 434.467 28.2827 431.543 29.0202C430.252 29.3627 428.487 29.5471 426.248 29.5734C425.274 29.5734 424.773 29.5998 424.747 29.6525C424.747 29.7051 424.668 30.1661 424.51 31.0354C424.352 31.9047 424.259 32.6686 424.233 33.3272C424.233 34.5652 424.51 35.5399 425.063 36.2511C425.616 36.9623 426.446 37.3311 427.552 37.3575C428.659 37.3838 429.883 37.1336 431.227 36.6067C432.57 36.0799 433.782 35.2106 434.862 33.9989C435.099 33.7355 435.257 33.6037 435.336 33.6037C435.442 33.6037 435.613 33.7223 435.85 33.9594C436.087 34.1964 436.219 34.3808 436.245 34.5125C436.271 34.6443 436.153 34.855 435.889 35.1448C435.626 35.4345 435.231 35.7901 434.704 36.2116C434.177 36.6331 433.571 37.0414 432.886 37.4365C432.202 37.8316 431.372 38.1609 430.397 38.4243C429.422 38.6877 428.421 38.8195 427.394 38.8195C425.313 38.8195 423.706 38.1214 422.574 36.7253C421.441 35.3291 420.861 33.6696 420.835 31.7466ZM434.032 24.4367C433.874 23.067 432.979 22.3821 431.345 22.3821C430.476 22.3821 429.673 22.5665 428.935 22.9353C428.198 23.304 427.605 23.7519 427.157 24.2787C426.709 24.8055 426.327 25.3455 426.011 25.8987C425.695 26.4519 425.484 26.9261 425.379 27.3212C425.274 27.7163 425.208 27.9666 425.181 28.0719C425.181 28.0983 425.445 28.1115 425.972 28.1115C428.948 28.1115 431.029 27.7953 432.215 27.1631C433.4 26.5309 434.006 25.6221 434.032 24.4367Z" fill="#D9EBFF"/>
<path d="M438.734 23.1723C438.549 22.9879 438.457 22.8562 438.457 22.7772C438.457 22.6718 438.497 22.4611 438.576 22.145C438.655 21.8289 438.72 21.6445 438.773 21.5918C438.826 21.4601 438.944 21.3942 439.129 21.3942C439.313 21.3942 439.985 21.3811 441.144 21.3547H443.238L443.989 18.1937C444.068 17.9039 444.16 17.522 444.265 17.0478C444.371 16.5737 444.463 16.2312 444.542 16.0205C444.621 15.8098 444.7 15.5463 444.779 15.2302C444.858 14.9141 444.963 14.6902 445.095 14.5585C445.227 14.4268 445.359 14.2687 445.49 14.0844C445.622 13.9 445.806 13.7814 446.044 13.7287C446.281 13.6761 446.518 13.6497 446.755 13.6497C447.229 13.6761 447.558 13.8209 447.743 14.0844C447.927 14.3478 448.019 14.598 448.019 14.8351C448.019 15.0195 447.901 15.6385 447.664 16.6922C447.426 17.7459 447.163 18.7864 446.873 19.8137L446.478 21.2757C446.478 21.3284 447.137 21.3547 448.454 21.3547H450.469C450.653 21.5391 450.746 21.684 450.746 21.7894C450.746 22.3689 450.574 22.8299 450.232 23.1723H446.004L444.582 28.9017C443.554 33.1164 443.041 35.3818 443.041 35.6979C443.041 36.8043 443.396 37.3575 444.107 37.3575C445.029 37.3575 445.925 36.9097 446.794 36.014C447.664 35.1184 448.362 34.012 448.888 32.695C448.941 32.5369 449.007 32.4447 449.086 32.4184C449.165 32.392 449.363 32.3657 449.679 32.3393H449.837C450.232 32.3393 450.429 32.4447 450.429 32.6554C450.429 32.7345 450.39 32.8925 450.311 33.1296C450.179 33.5511 449.942 34.0516 449.6 34.6311C449.257 35.2106 448.809 35.8296 448.256 36.4882C447.703 37.1467 447.031 37.6999 446.241 38.1477C445.451 38.5956 444.647 38.8195 443.831 38.8195C443.041 38.8195 442.29 38.6219 441.579 38.2268C440.867 37.8316 440.354 37.1467 440.038 36.1721C439.985 35.9614 439.959 35.6057 439.959 35.1052V34.394L441.341 28.8622C442.263 25.148 442.738 23.2777 442.764 23.2514C442.764 23.1987 442.092 23.1723 440.749 23.1723H438.734Z" fill="#D9EBFF"/>
<path d="M455.725 28.5065C455.725 26.6889 455.856 24.9635 456.12 23.3303C456.383 21.6971 456.686 20.2878 457.029 19.1024C457.371 17.917 457.858 16.758 458.491 15.6253C459.123 14.4925 459.623 13.6101 459.992 12.9779C460.361 12.3457 460.914 11.6608 461.652 10.9232C462.389 10.1856 462.824 9.73782 462.955 9.57977C463.087 9.42172 463.416 9.14513 463.943 8.75H464.457H464.615C464.984 8.75 465.168 8.86854 465.168 9.10562C465.168 9.18464 464.944 9.46123 464.496 9.93539C464.049 10.4095 463.509 11.1076 462.876 12.0296C462.244 12.9515 461.599 14.0842 460.94 15.4277C460.282 16.7711 459.729 18.5887 459.281 20.8805C458.833 23.1722 458.609 25.7142 458.609 28.5065C458.609 31.2987 458.833 33.8275 459.281 36.093C459.729 38.3584 460.269 40.1891 460.901 41.5853C461.533 42.9814 462.178 44.1141 462.837 44.9834C463.495 45.8527 464.049 46.5507 464.496 47.0776C464.944 47.6044 465.168 47.881 465.168 47.9073C465.168 48.1444 464.971 48.2629 464.576 48.2629H464.457H463.943L462.837 47.3146C460.361 45.0756 458.556 42.2833 457.424 38.9379C456.291 35.5925 455.725 32.1153 455.725 28.5065Z" fill="#D9EBFF"/>
<path d="M481.843 11.3973C481.87 11.3973 482.818 11.3314 484.688 11.1997C486.559 11.068 487.52 10.989 487.573 10.9626C487.889 10.9626 488.047 11.068 488.047 11.2787C488.047 11.4631 487.085 15.4408 485.162 23.2117C483.239 30.9825 482.252 34.947 482.199 35.1051C482.146 35.2631 482.133 35.4607 482.159 35.6977C482.159 36.8041 482.528 37.3573 483.266 37.3573C483.503 37.3309 483.766 37.2124 484.056 37.0017C484.609 36.4748 485.149 35.2104 485.676 33.2084C485.834 32.6816 485.966 32.405 486.071 32.3787C486.124 32.3523 486.256 32.3391 486.466 32.3391H486.624H486.782C487.178 32.3391 487.375 32.4445 487.375 32.6552C487.375 32.787 487.336 32.9977 487.257 33.2875C486.914 34.6046 486.519 35.6714 486.071 36.488C485.623 37.3046 485.255 37.8314 484.965 38.0685C484.675 38.3056 484.306 38.5163 483.859 38.7007C483.648 38.7534 483.332 38.7798 482.91 38.7798C482.015 38.7798 481.264 38.5822 480.658 38.1871C480.052 37.7919 479.657 37.3836 479.473 36.9622L479.236 36.3695C479.209 36.3431 479.156 36.3563 479.077 36.409C479.025 36.4617 478.972 36.5143 478.919 36.567C477.365 38.0422 475.785 38.7798 474.178 38.7798C472.729 38.7798 471.451 38.2529 470.345 37.1992C469.239 36.1456 468.686 34.4728 468.686 32.1811C468.686 30.9167 468.949 29.6259 469.476 28.3088C470.003 26.9917 470.635 25.859 471.372 24.9107C472.61 23.4092 473.849 22.3687 475.087 21.7892C476.325 21.2097 477.444 20.9199 478.445 20.9199C479.92 20.9199 481.027 21.4731 481.764 22.5794C481.896 22.7375 481.962 22.7902 481.962 22.7375C481.988 22.6321 482.344 21.1965 483.029 18.4306C483.714 15.6647 484.082 14.2027 484.135 14.0447C484.135 13.7022 484.043 13.4915 483.859 13.4124C483.674 13.3334 483.16 13.2676 482.318 13.2149H481.488C481.33 13.0568 481.251 12.9515 481.251 12.8988C481.251 12.8461 481.277 12.5958 481.33 12.148C481.461 11.6475 481.633 11.3973 481.843 11.3973ZM481.29 25.5034C480.684 23.4224 479.696 22.3819 478.327 22.3819C477.405 22.3819 476.522 22.7902 475.679 23.6068C474.836 24.4234 474.178 25.4902 473.704 26.8073C472.94 28.8883 472.4 31.0484 472.084 33.2875C472.084 33.3665 472.084 33.5114 472.084 33.7221C472.084 33.9328 472.07 34.0909 472.044 34.1963C472.044 35.3816 472.281 36.1982 472.755 36.6461C473.23 37.0939 473.796 37.3309 474.454 37.3573C475.877 37.3573 477.339 36.409 478.84 34.5124L479.156 34.0777L481.29 25.5034Z" fill="#D9EBFF"/>
<path d="M490.97 12.8199C490.97 12.5565 491.023 12.2536 491.128 11.9111C491.233 11.5687 491.391 11.3975 491.602 11.3975C491.628 11.3975 492.577 11.3316 494.447 11.1999C496.317 11.0682 497.279 10.9892 497.332 10.9628C497.648 10.9628 497.806 11.0814 497.806 11.3185C497.806 11.5555 497.358 13.439 496.462 16.9688C496.252 17.8644 496.028 18.7864 495.791 19.7347C495.553 20.683 495.356 21.3943 495.198 21.8684L495.04 22.6192C495.04 22.6982 495.119 22.6587 495.277 22.5006C496.568 21.4469 497.898 20.9201 499.268 20.9201C500.901 20.9201 502.218 21.526 503.219 22.7377C504.22 23.9494 504.734 25.4773 504.76 27.3212C504.76 30.2452 503.719 32.8925 501.638 35.2633C499.557 37.6341 497.318 38.8195 494.921 38.8195C493.604 38.8195 492.406 38.319 491.326 37.318C490.246 36.317 489.692 34.6969 489.666 32.4579V32.1023C489.666 31.5491 489.771 30.7852 489.982 29.8105C490.193 28.8359 490.838 26.2412 491.918 22.0265C493.235 16.8371 493.894 14.0844 493.894 13.7683C493.894 13.4522 493.393 13.2678 492.392 13.2151C492.261 13.2151 492.155 13.2151 492.076 13.2151H491.879C491.615 13.2151 491.444 13.2151 491.365 13.2151C491.286 13.2151 491.194 13.1756 491.088 13.0965C490.983 13.0175 490.944 12.9253 490.97 12.8199ZM501.362 25.5431V25.306C501.362 23.3567 500.558 22.3821 498.952 22.3821C498.504 22.3821 498.043 22.4874 497.569 22.6982C497.094 22.9089 496.66 23.1855 496.265 23.528C495.87 23.8704 495.527 24.1865 495.237 24.4763C494.948 24.766 494.711 25.0558 494.526 25.3455L494.289 25.6616L493.459 29.0598C492.88 31.3252 492.59 32.932 492.59 33.8803C492.59 35.1448 492.906 36.0931 493.538 36.7253C493.96 37.1467 494.487 37.3575 495.119 37.3575C495.988 37.3575 496.871 36.936 497.766 36.0931C498.425 35.4872 498.952 34.7496 499.347 33.8803C499.742 33.0111 500.176 31.6281 500.651 29.7315C501.125 27.8349 501.362 26.4387 501.362 25.5431Z" fill="#D9EBFF"/>
<path d="M508.12 37.0017C508.12 37.0017 508.12 36.6724 508.12 36.0138C508.12 35.3553 508.331 34.7889 508.752 34.3148C509.174 33.8406 509.74 33.6035 510.451 33.6035C511.189 33.6035 511.848 33.9328 512.427 34.5914C513.007 35.2499 513.309 36.409 513.336 38.0685C513.336 38.9905 513.217 39.8861 512.98 40.7554C512.743 41.6247 512.467 42.3754 512.15 43.0076C511.834 43.6398 511.492 44.1798 511.123 44.6277C510.754 45.0755 510.438 45.4311 510.175 45.6945C509.911 45.9579 509.74 46.0765 509.661 46.0501C509.556 46.0501 509.385 45.9316 509.147 45.6945C508.91 45.4574 508.792 45.2862 508.792 45.1808C508.792 45.0755 508.937 44.8647 509.226 44.5486C509.516 44.2325 509.846 43.8374 510.214 43.3632C510.583 42.8891 510.926 42.2305 511.242 41.3876C511.558 40.5446 511.768 39.5832 511.874 38.5031V38.029L511.834 38.0685C511.782 38.0948 511.716 38.1212 511.637 38.1475C511.558 38.1739 511.479 38.2134 511.4 38.2661C511.321 38.3188 511.202 38.3451 511.044 38.3451C510.886 38.3451 510.728 38.3583 510.57 38.3846C509.859 38.3846 509.279 38.1607 508.831 37.7129L508.12 37.0017Z" fill="#D9EBFF"/>
<path d="M537.083 11.3973C537.109 11.3973 538.057 11.3314 539.928 11.1997C541.798 11.068 542.759 10.989 542.812 10.9626C543.128 10.9626 543.286 11.068 543.286 11.2787C543.286 11.4631 542.325 15.4408 540.402 23.2117C538.479 30.9825 537.491 34.947 537.438 35.1051C537.386 35.2631 537.372 35.4607 537.399 35.6977C537.399 36.8041 537.768 37.3573 538.505 37.3573C538.742 37.3309 539.006 37.2124 539.295 37.0017C539.849 36.4748 540.389 35.2104 540.915 33.2084C541.073 32.6816 541.205 32.405 541.31 32.3787C541.363 32.3523 541.495 32.3391 541.706 32.3391H541.864H542.022C542.417 32.3391 542.614 32.4445 542.614 32.6552C542.614 32.787 542.575 32.9977 542.496 33.2875C542.153 34.6046 541.758 35.6714 541.31 36.488C540.863 37.3046 540.494 37.8314 540.204 38.0685C539.914 38.3056 539.546 38.5163 539.098 38.7007C538.887 38.7534 538.571 38.7798 538.149 38.7798C537.254 38.7798 536.503 38.5822 535.897 38.1871C535.291 37.7919 534.896 37.3836 534.712 36.9622L534.475 36.3695C534.448 36.3431 534.396 36.3563 534.317 36.409C534.264 36.4617 534.211 36.5143 534.159 36.567C532.604 38.0422 531.024 38.7798 529.417 38.7798C527.968 38.7798 526.691 38.2529 525.584 37.1992C524.478 36.1456 523.925 34.4728 523.925 32.1811C523.925 30.9167 524.188 29.6259 524.715 28.3088C525.242 26.9917 525.874 25.859 526.612 24.9107C527.85 23.4092 529.088 22.3687 530.326 21.7892C531.564 21.2097 532.684 20.9199 533.685 20.9199C535.16 20.9199 536.266 21.4731 537.004 22.5794C537.135 22.7375 537.201 22.7902 537.201 22.7375C537.227 22.6321 537.583 21.1965 538.268 18.4306C538.953 15.6647 539.322 14.2027 539.374 14.0447C539.374 13.7022 539.282 13.4915 539.098 13.4124C538.913 13.3334 538.4 13.2676 537.557 13.2149H536.727C536.569 13.0568 536.49 12.9515 536.49 12.8988C536.49 12.8461 536.516 12.5958 536.569 12.148C536.701 11.6475 536.872 11.3973 537.083 11.3973ZM536.529 25.5034C535.924 23.4224 534.936 22.3819 533.566 22.3819C532.644 22.3819 531.762 22.7902 530.919 23.6068C530.076 24.4234 529.417 25.4902 528.943 26.8073C528.179 28.8883 527.639 31.0484 527.323 33.2875C527.323 33.3665 527.323 33.5114 527.323 33.7221C527.323 33.9328 527.31 34.0909 527.283 34.1963C527.283 35.3816 527.52 36.1982 527.995 36.6461C528.469 37.0939 529.035 37.3309 529.694 37.3573C531.116 37.3573 532.578 36.409 534.08 34.5124L534.396 34.0777L536.529 25.5034Z" fill="#D9EBFF"/>
<path d="M544.63 32.1811C544.63 29.5206 545.631 26.9917 547.633 24.5946C549.635 22.1975 551.887 20.9858 554.39 20.9594C555.733 20.9594 556.918 21.6048 557.946 22.8956C558.367 22.1053 558.973 21.7102 559.763 21.7102C560.106 21.7102 560.409 21.8155 560.672 22.0263C560.936 22.237 561.067 22.5004 561.067 22.8165C561.067 23.159 560.58 25.2663 559.605 29.1386C558.631 33.0109 558.13 35.1972 558.104 35.6977C558.104 36.3563 558.196 36.7909 558.38 37.0017C558.565 37.2124 558.841 37.3309 559.21 37.3573C559.447 37.3309 559.711 37.2124 560 37.0017C560.554 36.4748 561.094 35.2104 561.62 33.2084C561.778 32.6816 561.91 32.405 562.016 32.3787C562.068 32.3523 562.2 32.3391 562.411 32.3391H562.569C563.069 32.3391 563.32 32.4577 563.32 32.6948C563.32 32.8528 563.254 33.2084 563.122 33.7616C562.99 34.3148 562.727 35.026 562.332 35.8953C561.937 36.7646 561.515 37.4231 561.067 37.871C560.725 38.2134 560.303 38.49 559.803 38.7007C559.592 38.7534 559.276 38.7798 558.855 38.7798C557.959 38.7798 557.208 38.5822 556.602 38.1871C555.996 37.7919 555.601 37.3836 555.417 36.9622L555.18 36.3695C555.153 36.3431 555.101 36.3563 555.022 36.409C554.969 36.4617 554.916 36.5143 554.864 36.567C553.31 38.0422 551.729 38.7798 550.122 38.7798C548.673 38.7798 547.396 38.2529 546.289 37.1992C545.183 36.1456 544.63 34.4728 544.63 32.1811ZM557.195 25.4244C557.195 25.2663 557.129 24.9766 556.997 24.5551C556.866 24.1336 556.563 23.6726 556.089 23.1721C555.614 22.6716 555.009 22.4082 554.271 22.3819C553.349 22.3819 552.467 22.7902 551.624 23.6068C550.781 24.4234 550.122 25.4902 549.648 26.8073C548.884 28.8883 548.344 31.0484 548.028 33.2875C548.028 33.3665 548.028 33.5114 548.028 33.7221C548.028 33.9328 548.015 34.0909 547.988 34.1963C547.988 35.3816 548.226 36.1982 548.7 36.6461C549.174 37.0939 549.74 37.3309 550.399 37.3573C551.4 37.3573 552.388 36.9226 553.362 36.0534C554.337 35.1841 554.916 34.5124 555.101 34.0382C555.153 33.9328 555.509 32.5235 556.168 29.8103C556.826 27.0971 557.169 25.6351 557.195 25.4244Z" fill="#D9EBFF"/>
<path d="M566.597 8.78951L566.755 8.75C566.887 8.75 567.018 8.75 567.15 8.75H567.624L568.731 9.69831C571.207 11.9374 573.011 14.7296 574.144 18.0751C575.277 21.4205 575.843 24.8976 575.843 28.5065C575.843 30.2977 575.711 32.0231 575.448 33.6827C575.184 35.3422 574.882 36.7515 574.539 37.9105C574.197 39.0696 573.709 40.2286 573.077 41.3877C572.445 42.5467 571.944 43.4292 571.576 44.0351C571.207 44.6409 570.667 45.3126 569.956 46.0502C569.244 46.7878 568.823 47.2224 568.691 47.3541C568.559 47.4859 568.257 47.7361 567.782 48.1049C567.703 48.1839 567.651 48.2366 567.624 48.2629H567.15C566.939 48.2629 566.795 48.2629 566.716 48.2629C566.636 48.2629 566.571 48.2234 566.518 48.1444C566.465 48.0654 566.426 47.9468 566.399 47.7888C566.426 47.7624 566.571 47.5912 566.834 47.2751C570.917 43.0341 572.959 36.7778 572.959 28.5065C572.959 20.2351 570.917 13.9789 566.834 9.73782C566.571 9.42172 566.426 9.2505 566.399 9.22415C566.399 9.01342 566.465 8.86854 566.597 8.78951Z" fill="#D9EBFF"/>
<path d="M593.902 14.0446C593.902 13.8338 593.981 13.6495 594.139 13.4914C594.297 13.3334 594.429 13.2543 594.534 13.2543C594.745 13.2543 596.773 14.15 600.619 15.9412C604.465 17.7325 608.284 19.5369 612.078 21.3545C615.871 23.1721 617.768 24.094 617.768 24.1204C617.952 24.2521 618.044 24.4497 618.044 24.7131C618.044 24.9765 617.952 25.1741 617.768 25.3058C617.715 25.3585 613.869 27.1892 606.23 30.7981L594.85 36.1718H594.613C594.139 36.1191 593.902 35.8557 593.902 35.3816C593.902 35.3552 593.902 35.3157 593.902 35.263C593.875 35.0786 594.073 34.8679 594.494 34.6308C594.995 34.3674 596.971 33.4191 600.421 31.7859C602.476 30.8112 604.188 30.0078 605.558 29.3756L615.357 24.7131L604.847 19.7344C603.029 18.8652 600.922 17.8642 598.525 16.7315C596.207 15.6514 594.863 15.0061 594.494 14.7953C594.126 14.5846 593.928 14.3343 593.902 14.0446ZM593.941 43.0471C593.941 42.7837 594.139 42.5202 594.534 42.2568H617.412C617.833 42.4149 618.044 42.6783 618.044 43.0471C618.044 43.3632 617.847 43.6266 617.451 43.8373H594.494C594.126 43.6529 593.941 43.3895 593.941 43.0471Z" fill="#D9EBFF"/>
<path d="M636.141 15.2697C637.616 13.136 639.631 12.0691 642.186 12.0691C643.451 12.0691 644.715 12.4116 645.98 13.0965C647.244 13.7814 648.271 14.9931 649.062 16.7317C650.036 18.918 650.524 21.921 650.524 25.7406C650.524 29.8236 649.957 32.9451 648.825 35.1052C648.298 36.2115 647.573 37.094 646.651 37.7525C645.729 38.4111 644.926 38.8194 644.241 38.9774C643.556 39.1355 642.884 39.2277 642.226 39.254C641.541 39.254 640.856 39.175 640.171 39.017C639.486 38.8589 638.683 38.4374 637.761 37.7525C636.839 37.0676 636.115 36.1852 635.588 35.1052C634.455 32.9451 633.889 29.8236 633.889 25.7406C633.889 21.1571 634.639 17.6668 636.141 15.2697ZM645.031 14.7955C644.241 13.9526 643.306 13.5311 642.226 13.5311C641.12 13.5311 640.171 13.9526 639.381 14.7955C638.722 15.4804 638.288 16.4287 638.077 17.6404C637.866 18.8522 637.761 21.381 637.761 25.2269C637.761 29.389 637.866 32.1285 638.077 33.4456C638.288 34.7627 638.762 35.8032 639.5 36.5671C640.237 37.3574 641.146 37.7525 642.226 37.7525C643.28 37.7525 644.175 37.3574 644.913 36.5671C645.677 35.7769 646.151 34.6705 646.335 33.2481C646.52 31.8256 646.625 29.1519 646.651 25.2269C646.651 21.4073 646.546 18.8917 646.335 17.68C646.125 16.4682 645.69 15.5067 645.031 14.7955Z" fill="#D9EBFF"/>
</svg>
