<svg width="700" height="204" viewBox="0 0 700 204" fill="none" xmlns="http://www.w3.org/2000/svg">
<rect width="700" height="203" transform="translate(0 0.25)" fill="#0A0D12"/>
<path d="M350 100.25H421L350 171.25L279 100.25L350 29.25V100.25Z" stroke="#B3BFD8" stroke-width="2"/>
<circle cx="350" cy="100.25" r="5" fill="black" stroke="#D9EBFF" stroke-width="2"/>
<circle cx="279" cy="100.25" r="5" fill="black" stroke="#D9EBFF" stroke-width="2"/>
<circle cx="421" cy="100.25" r="5" fill="black" stroke="#D9EBFF" stroke-width="2"/>
<circle cx="350" cy="29.25" r="5" fill="black" stroke="#D9EBFF" stroke-width="2"/>
<circle cx="350" cy="171.25" r="5" fill="black" stroke="#D9EBFF" stroke-width="2"/>
<path d="M341 9.49095C341.014 9.40734 341.035 9.29587 341.063 9.15652C341.091 9.01717 341.174 8.75241 341.314 8.36223C341.453 7.97205 341.592 7.64459 341.732 7.37982C341.871 7.11506 342.101 6.85727 342.421 6.60644C342.742 6.35561 343.062 6.23717 343.383 6.2511C343.885 6.2511 344.303 6.37651 344.637 6.62734C344.971 6.87817 345.18 7.11506 345.264 7.33802C345.348 7.56098 345.389 7.70729 345.389 7.77697C345.389 7.80484 345.396 7.81877 345.41 7.81877L345.64 7.58885C346.49 6.69702 347.459 6.2511 348.546 6.2511C349.298 6.2511 349.904 6.43922 350.364 6.81546C350.824 7.1917 351.061 7.74213 351.075 8.46674C351.089 9.19135 350.824 10.2852 350.281 11.7484C349.737 13.2116 349.472 14.0964 349.486 14.403C349.486 14.7653 349.605 14.9464 349.842 14.9464C349.925 14.9464 349.988 14.9395 350.03 14.9255C350.434 14.8559 350.796 14.5911 351.117 14.1313C351.437 13.6714 351.681 13.114 351.848 12.4591C351.876 12.3476 352.016 12.2919 352.266 12.2919C352.545 12.2919 352.684 12.3476 352.684 12.4591C352.684 12.473 352.657 12.5775 352.601 12.7726C352.489 13.1767 352.336 13.5739 352.141 13.964C351.946 14.3542 351.625 14.7444 351.179 15.1346C350.733 15.5247 350.253 15.7129 349.737 15.6989C349.082 15.6989 348.608 15.5108 348.316 15.1346C348.023 14.7583 347.877 14.3682 347.877 13.964C347.877 13.6993 348.128 12.8632 348.629 11.4558C349.131 10.0483 349.389 8.9893 349.403 8.27862C349.403 7.45647 349.096 7.04539 348.483 7.04539H348.379C347.18 7.04539 346.17 7.7491 345.348 9.15652L345.201 9.40734L344.512 12.2083C344.052 14.0337 343.787 15.0161 343.717 15.1555C343.536 15.5317 343.237 15.7198 342.818 15.7198C342.637 15.7198 342.491 15.678 342.38 15.5944C342.268 15.5108 342.191 15.4272 342.15 15.3436C342.108 15.26 342.094 15.1903 342.108 15.1346C342.108 14.9534 342.373 13.8177 342.902 11.7275C343.432 9.63727 343.71 8.50158 343.738 8.32043C343.752 8.25075 343.759 8.0905 343.759 7.83967C343.759 7.29621 343.592 7.02448 343.257 7.02448C342.728 7.02448 342.289 7.72123 341.941 9.11471C341.857 9.39341 341.815 9.53973 341.815 9.55366C341.787 9.63727 341.655 9.67907 341.418 9.67907H341.125C341.042 9.59547 341 9.53276 341 9.49095Z" fill="#D9EBFF"/>
<path d="M354.526 9.99252C355.078 9.19452 355.832 8.79551 356.787 8.79551C357.26 8.79551 357.733 8.92359 358.206 9.17974C358.679 9.43589 359.063 9.88908 359.359 10.5393C359.723 11.357 359.905 12.4801 359.905 13.9087C359.905 15.4357 359.694 16.6032 359.27 17.411C359.073 17.8248 358.802 18.1549 358.457 18.4012C358.112 18.6475 357.812 18.8002 357.556 18.8593C357.3 18.9184 357.048 18.9529 356.802 18.9627C356.546 18.9627 356.29 18.9332 356.034 18.8741C355.777 18.8149 355.477 18.6573 355.132 18.4012C354.787 18.145 354.516 17.815 354.319 17.411C353.896 16.6032 353.684 15.4357 353.684 13.9087C353.684 12.1944 353.965 10.8891 354.526 9.99252ZM357.851 9.81519C357.556 9.49993 357.206 9.3423 356.802 9.3423C356.388 9.3423 356.034 9.49993 355.738 9.81519C355.492 10.0713 355.329 10.426 355.25 10.8792C355.171 11.3324 355.132 12.2782 355.132 13.7166C355.132 15.2732 355.171 16.2978 355.25 16.7904C355.329 17.283 355.506 17.6721 355.782 17.9578C356.058 18.2534 356.398 18.4012 356.802 18.4012C357.196 18.4012 357.531 18.2534 357.807 17.9578C358.093 17.6623 358.27 17.2485 358.339 16.7165C358.408 16.1845 358.447 15.1845 358.457 13.7166C358.457 12.288 358.418 11.3472 358.339 10.894C358.26 10.4408 358.098 10.0812 357.851 9.81519Z" fill="#D9EBFF"/>
<path d="M248 97.491C248.014 97.4073 248.035 97.2959 248.063 97.1565C248.091 97.0172 248.174 96.7524 248.314 96.3622C248.453 95.9721 248.592 95.6446 248.732 95.3798C248.871 95.1151 249.101 94.8573 249.421 94.6064C249.742 94.3556 250.062 94.2372 250.383 94.2511C250.885 94.2511 251.303 94.3765 251.637 94.6273C251.971 94.8782 252.18 95.1151 252.264 95.338C252.348 95.561 252.389 95.7073 252.389 95.777C252.389 95.8048 252.396 95.8188 252.41 95.8188L252.64 95.5888C253.49 94.697 254.459 94.2511 255.546 94.2511C256.298 94.2511 256.904 94.4392 257.364 94.8155C257.824 95.1917 258.061 95.7421 258.075 96.4667C258.089 97.1914 257.824 98.2852 257.281 99.7484C256.737 101.212 256.472 102.096 256.486 102.403C256.486 102.765 256.605 102.946 256.842 102.946C256.925 102.946 256.988 102.939 257.03 102.926C257.434 102.856 257.796 102.591 258.117 102.131C258.437 101.671 258.681 101.114 258.848 100.459C258.876 100.348 259.016 100.292 259.266 100.292C259.545 100.292 259.684 100.348 259.684 100.459C259.684 100.473 259.657 100.578 259.601 100.773C259.489 101.177 259.336 101.574 259.141 101.964C258.946 102.354 258.625 102.744 258.179 103.135C257.733 103.525 257.253 103.713 256.737 103.699C256.082 103.699 255.608 103.511 255.316 103.135C255.023 102.758 254.877 102.368 254.877 101.964C254.877 101.699 255.128 100.863 255.629 99.4558C256.131 98.0483 256.389 96.9893 256.403 96.2786C256.403 95.4565 256.096 95.0454 255.483 95.0454H255.379C254.18 95.0454 253.17 95.7491 252.348 97.1565L252.201 97.4073L251.512 100.208C251.052 102.034 250.787 103.016 250.717 103.155C250.536 103.532 250.237 103.72 249.818 103.72C249.637 103.72 249.491 103.678 249.38 103.594C249.268 103.511 249.191 103.427 249.15 103.344C249.108 103.26 249.094 103.19 249.108 103.135C249.108 102.953 249.373 101.818 249.902 99.7275C250.432 97.6373 250.71 96.5016 250.738 96.3204C250.752 96.2508 250.759 96.0905 250.759 95.8397C250.759 95.2962 250.592 95.0245 250.257 95.0245C249.728 95.0245 249.289 95.7212 248.941 97.1147C248.857 97.3934 248.815 97.5397 248.815 97.5537C248.787 97.6373 248.655 97.6791 248.418 97.6791H248.125C248.042 97.5955 248 97.5328 248 97.491Z" fill="#D9EBFF"/>
<path d="M263.255 98.096L263.063 98.1699C262.925 98.2191 262.728 98.2684 262.472 98.3176C262.216 98.3669 261.93 98.4014 261.615 98.4211H261.334V97.7413H261.615C262.078 97.7216 262.506 97.6477 262.901 97.5196C263.295 97.3916 263.57 97.2733 263.728 97.165C263.886 97.0566 264.024 96.9482 264.142 96.8398C264.162 96.8103 264.221 96.7955 264.319 96.7955C264.408 96.7955 264.492 96.8251 264.57 96.8842V101.303L264.585 105.736C264.654 105.805 264.713 105.849 264.763 105.869C264.812 105.889 264.93 105.909 265.117 105.928C265.304 105.948 265.61 105.958 266.033 105.958H266.418V106.638H266.255C266.048 106.608 265.265 106.593 263.905 106.593C262.566 106.593 261.792 106.608 261.585 106.638H261.408V105.958H261.792C262.009 105.958 262.196 105.958 262.354 105.958C262.511 105.958 262.635 105.953 262.723 105.943C262.812 105.933 262.891 105.918 262.96 105.899C263.029 105.879 263.068 105.869 263.078 105.869C263.088 105.869 263.117 105.845 263.167 105.795C263.216 105.746 263.245 105.726 263.255 105.736V98.096Z" fill="#D9EBFF"/>
<path d="M341 185.491C341.014 185.407 341.035 185.296 341.063 185.157C341.091 185.017 341.174 184.752 341.314 184.362C341.453 183.972 341.592 183.645 341.732 183.38C341.871 183.115 342.101 182.857 342.421 182.606C342.742 182.356 343.062 182.237 343.383 182.251C343.885 182.251 344.303 182.377 344.637 182.627C344.971 182.878 345.18 183.115 345.264 183.338C345.348 183.561 345.389 183.707 345.389 183.777C345.389 183.805 345.396 183.819 345.41 183.819L345.64 183.589C346.49 182.697 347.459 182.251 348.546 182.251C349.298 182.251 349.904 182.439 350.364 182.815C350.824 183.192 351.061 183.742 351.075 184.467C351.089 185.191 350.824 186.285 350.281 187.748C349.737 189.212 349.472 190.096 349.486 190.403C349.486 190.765 349.605 190.946 349.842 190.946C349.925 190.946 349.988 190.939 350.03 190.926C350.434 190.856 350.796 190.591 351.117 190.131C351.437 189.671 351.681 189.114 351.848 188.459C351.876 188.348 352.016 188.292 352.266 188.292C352.545 188.292 352.684 188.348 352.684 188.459C352.684 188.473 352.657 188.578 352.601 188.773C352.489 189.177 352.336 189.574 352.141 189.964C351.946 190.354 351.625 190.744 351.179 191.135C350.733 191.525 350.253 191.713 349.737 191.699C349.082 191.699 348.608 191.511 348.316 191.135C348.023 190.758 347.877 190.368 347.877 189.964C347.877 189.699 348.128 188.863 348.629 187.456C349.131 186.048 349.389 184.989 349.403 184.279C349.403 183.456 349.096 183.045 348.483 183.045H348.379C347.18 183.045 346.17 183.749 345.348 185.157L345.201 185.407L344.512 188.208C344.052 190.034 343.787 191.016 343.717 191.155C343.536 191.532 343.237 191.72 342.819 191.72C342.637 191.72 342.491 191.678 342.38 191.594C342.268 191.511 342.191 191.427 342.15 191.344C342.108 191.26 342.094 191.19 342.108 191.135C342.108 190.953 342.373 189.818 342.902 187.727C343.432 185.637 343.71 184.502 343.738 184.32C343.752 184.251 343.759 184.091 343.759 183.84C343.759 183.296 343.592 183.024 343.257 183.024C342.728 183.024 342.289 183.721 341.941 185.115C341.857 185.393 341.815 185.54 341.815 185.554C341.787 185.637 341.655 185.679 341.418 185.679H341.125C341.042 185.595 341 185.533 341 185.491Z" fill="#D9EBFF"/>
<path d="M354.718 188.298C354.452 188.298 354.24 188.209 354.083 188.032C353.925 187.855 353.846 187.638 353.846 187.382C353.846 186.682 354.107 186.076 354.63 185.564C355.152 185.052 355.802 184.796 356.58 184.796C357.477 184.796 358.226 185.071 358.827 185.623C359.428 186.175 359.733 186.889 359.743 187.766C359.743 188.19 359.644 188.593 359.447 188.978C359.25 189.362 359.014 189.697 358.738 189.983C358.462 190.268 358.068 190.633 357.556 191.076C357.201 191.382 356.708 191.835 356.078 192.436L355.206 193.263L356.329 193.278C357.876 193.278 358.698 193.253 358.797 193.204C358.866 193.184 358.984 192.746 359.152 191.889V191.845H359.743V191.889C359.733 191.918 359.669 192.367 359.551 193.234C359.432 194.101 359.359 194.554 359.329 194.593V194.638H353.846V194.179C353.846 194.111 353.876 194.037 353.935 193.958C353.994 193.879 354.142 193.707 354.378 193.441C354.664 193.125 354.91 192.849 355.117 192.613C355.206 192.515 355.373 192.332 355.62 192.066C355.866 191.8 356.034 191.618 356.122 191.519C356.211 191.421 356.354 191.258 356.551 191.032C356.748 190.805 356.886 190.638 356.965 190.529C357.043 190.421 357.157 190.273 357.304 190.086C357.452 189.899 357.556 189.741 357.615 189.613C357.674 189.485 357.748 189.342 357.836 189.185C357.925 189.027 357.989 188.869 358.029 188.712C358.068 188.554 358.102 188.406 358.132 188.268C358.162 188.13 358.176 187.968 358.176 187.781C358.176 187.16 358.009 186.623 357.674 186.17C357.339 185.717 356.861 185.49 356.24 185.49C355.915 185.49 355.63 185.574 355.383 185.741C355.137 185.909 354.965 186.071 354.866 186.229C354.768 186.387 354.718 186.48 354.718 186.51C354.718 186.52 354.743 186.525 354.792 186.525C354.97 186.525 355.152 186.593 355.339 186.731C355.526 186.869 355.62 187.096 355.62 187.411C355.62 187.658 355.541 187.864 355.383 188.032C355.226 188.199 355.004 188.288 354.718 188.298Z" fill="#D9EBFF"/>
<path d="M433 97.491C433.014 97.4073 433.035 97.2959 433.063 97.1565C433.091 97.0172 433.174 96.7524 433.314 96.3622C433.453 95.9721 433.592 95.6446 433.732 95.3798C433.871 95.1151 434.101 94.8573 434.421 94.6064C434.742 94.3556 435.062 94.2372 435.383 94.2511C435.885 94.2511 436.303 94.3765 436.637 94.6273C436.971 94.8782 437.18 95.1151 437.264 95.338C437.348 95.561 437.389 95.7073 437.389 95.777C437.389 95.8048 437.396 95.8188 437.41 95.8188L437.64 95.5888C438.49 94.697 439.459 94.2511 440.546 94.2511C441.298 94.2511 441.904 94.4392 442.364 94.8155C442.824 95.1917 443.061 95.7421 443.075 96.4667C443.089 97.1914 442.824 98.2852 442.281 99.7484C441.737 101.212 441.472 102.096 441.486 102.403C441.486 102.765 441.605 102.946 441.842 102.946C441.925 102.946 441.988 102.939 442.03 102.926C442.434 102.856 442.796 102.591 443.117 102.131C443.437 101.671 443.681 101.114 443.848 100.459C443.876 100.348 444.016 100.292 444.266 100.292C444.545 100.292 444.684 100.348 444.684 100.459C444.684 100.473 444.657 100.578 444.601 100.773C444.489 101.177 444.336 101.574 444.141 101.964C443.946 102.354 443.625 102.744 443.179 103.135C442.733 103.525 442.253 103.713 441.737 103.699C441.082 103.699 440.608 103.511 440.316 103.135C440.023 102.758 439.877 102.368 439.877 101.964C439.877 101.699 440.128 100.863 440.629 99.4558C441.131 98.0483 441.389 96.9893 441.403 96.2786C441.403 95.4565 441.096 95.0454 440.483 95.0454H440.379C439.18 95.0454 438.17 95.7491 437.348 97.1565L437.201 97.4073L436.512 100.208C436.052 102.034 435.787 103.016 435.717 103.155C435.536 103.532 435.237 103.72 434.818 103.72C434.637 103.72 434.491 103.678 434.38 103.594C434.268 103.511 434.191 103.427 434.15 103.344C434.108 103.26 434.094 103.19 434.108 103.135C434.108 102.953 434.373 101.818 434.902 99.7275C435.432 97.6373 435.71 96.5016 435.738 96.3204C435.752 96.2508 435.759 96.0905 435.759 95.8397C435.759 95.2962 435.592 95.0245 435.257 95.0245C434.728 95.0245 434.289 95.7212 433.941 97.1147C433.857 97.3934 433.815 97.5397 433.815 97.5537C433.787 97.6373 433.655 97.6791 433.418 97.6791H433.125C433.042 97.5955 433 97.5328 433 97.491Z" fill="#D9EBFF"/>
<path d="M446.984 99.7954C446.718 99.7954 446.511 99.7117 446.364 99.5442C446.216 99.3767 446.137 99.16 446.127 98.894C446.127 98.3521 446.364 97.8694 446.837 97.4457C447.309 97.0221 447.881 96.8103 448.551 96.8103C448.896 96.8103 449.112 96.8152 449.201 96.8251C449.93 96.9433 450.487 97.2044 450.871 97.6083C451.255 98.0122 451.452 98.4506 451.462 98.9235C451.462 99.4358 451.295 99.9334 450.96 100.416C450.625 100.899 450.162 101.249 449.57 101.465L449.526 101.495C449.526 101.505 449.57 101.52 449.659 101.539C449.748 101.559 449.891 101.603 450.088 101.672C450.285 101.741 450.472 101.845 450.649 101.983C451.457 102.505 451.861 103.194 451.861 104.051C451.861 104.83 451.556 105.51 450.945 106.091C450.334 106.672 449.561 106.963 448.625 106.963C447.836 106.963 447.157 106.751 446.585 106.327C446.014 105.904 445.728 105.367 445.728 104.716C445.728 104.441 445.817 104.219 445.994 104.051C446.172 103.884 446.393 103.795 446.659 103.785C446.935 103.785 447.162 103.874 447.339 104.051C447.516 104.229 447.605 104.45 447.605 104.716C447.605 104.825 447.59 104.923 447.561 105.012C447.531 105.101 447.497 105.18 447.457 105.248C447.418 105.317 447.364 105.377 447.295 105.426C447.226 105.475 447.167 105.514 447.117 105.544C447.068 105.574 447.019 105.593 446.97 105.603C446.92 105.613 446.881 105.628 446.851 105.647L446.792 105.662C447.295 106.106 447.905 106.327 448.625 106.327C449.167 106.327 449.575 106.066 449.851 105.544C450.019 105.219 450.102 104.721 450.102 104.051V103.756C450.102 102.82 449.787 102.194 449.157 101.879C449.009 101.82 448.708 101.786 448.255 101.776L447.635 101.761L447.59 101.731C447.57 101.702 447.561 101.623 447.561 101.495C447.561 101.318 447.6 101.229 447.679 101.229C447.955 101.229 448.24 101.204 448.536 101.155C448.871 101.106 449.176 100.899 449.452 100.534C449.728 100.17 449.866 99.6181 449.866 98.8792V98.761C449.866 98.1994 449.694 97.8103 449.349 97.5935C449.132 97.4556 448.9 97.3866 448.654 97.3866C448.339 97.3866 448.048 97.4408 447.782 97.5492C447.516 97.6576 447.329 97.7709 447.221 97.8891C447.112 98.0073 447.058 98.0664 447.058 98.0664H447.103C447.132 98.0763 447.171 98.0861 447.221 98.096C447.27 98.1058 447.319 98.1305 447.369 98.1699C447.418 98.2093 447.477 98.2437 447.546 98.2733C447.615 98.3029 447.664 98.357 447.694 98.4359C447.723 98.5147 447.763 98.5886 447.812 98.6575C447.861 98.7265 447.876 98.825 447.856 98.9531C447.856 99.1698 447.787 99.3619 447.649 99.5294C447.511 99.6969 447.29 99.7856 446.984 99.7954Z" fill="#D9EBFF"/>
<path d="M341 114.491C341.014 114.407 341.035 114.296 341.063 114.157C341.091 114.017 341.174 113.752 341.314 113.362C341.453 112.972 341.592 112.645 341.732 112.38C341.871 112.115 342.101 111.857 342.421 111.606C342.742 111.356 343.062 111.237 343.383 111.251C343.885 111.251 344.303 111.377 344.637 111.627C344.971 111.878 345.18 112.115 345.264 112.338C345.348 112.561 345.389 112.707 345.389 112.777C345.389 112.805 345.396 112.819 345.41 112.819L345.64 112.589C346.49 111.697 347.459 111.251 348.546 111.251C349.298 111.251 349.904 111.439 350.364 111.815C350.824 112.192 351.061 112.742 351.075 113.467C351.089 114.191 350.824 115.285 350.281 116.748C349.737 118.212 349.472 119.096 349.486 119.403C349.486 119.765 349.605 119.946 349.842 119.946C349.925 119.946 349.988 119.939 350.03 119.926C350.434 119.856 350.796 119.591 351.117 119.131C351.437 118.671 351.681 118.114 351.848 117.459C351.876 117.348 352.016 117.292 352.266 117.292C352.545 117.292 352.684 117.348 352.684 117.459C352.684 117.473 352.657 117.578 352.601 117.773C352.489 118.177 352.336 118.574 352.141 118.964C351.946 119.354 351.625 119.744 351.179 120.135C350.733 120.525 350.253 120.713 349.737 120.699C349.082 120.699 348.608 120.511 348.316 120.135C348.023 119.758 347.877 119.368 347.877 118.964C347.877 118.699 348.128 117.863 348.629 116.456C349.131 115.048 349.389 113.989 349.403 113.279C349.403 112.456 349.096 112.045 348.483 112.045H348.379C347.18 112.045 346.17 112.749 345.348 114.157L345.201 114.407L344.512 117.208C344.052 119.034 343.787 120.016 343.717 120.155C343.536 120.532 343.237 120.72 342.818 120.72C342.637 120.72 342.491 120.678 342.38 120.594C342.268 120.511 342.191 120.427 342.15 120.344C342.108 120.26 342.094 120.19 342.108 120.135C342.108 119.953 342.373 118.818 342.902 116.727C343.432 114.637 343.71 113.502 343.738 113.32C343.752 113.251 343.759 113.091 343.759 112.84C343.759 112.296 343.592 112.024 343.257 112.024C342.728 112.024 342.289 112.721 341.941 114.115C341.857 114.393 341.815 114.54 341.815 114.554C341.787 114.637 341.655 114.679 341.418 114.679H341.125C341.042 114.595 341 114.533 341 114.491Z" fill="#D9EBFF"/>
<path d="M359.935 123.638C359.758 123.608 359.122 123.593 358.029 123.593C356.886 123.593 356.226 123.608 356.048 123.638H355.915V122.958H356.373C356.57 122.958 356.703 122.958 356.772 122.958C356.841 122.958 356.925 122.948 357.024 122.928C357.122 122.909 357.191 122.884 357.231 122.854C357.27 122.825 357.304 122.785 357.334 122.736C357.344 122.716 357.349 122.45 357.349 121.938V121.199H353.521V120.519L355.753 117.106C357.26 114.82 358.024 113.672 358.043 113.663C358.063 113.643 358.166 113.633 358.354 113.633H358.62L358.708 113.722V120.519H360.068V121.199H358.708V121.953C358.708 122.357 358.708 122.593 358.708 122.662C358.708 122.731 358.738 122.79 358.797 122.84C358.876 122.909 359.157 122.948 359.639 122.958H360.068V123.638H359.935ZM357.437 120.519V115.584L354.201 120.505L355.812 120.519H357.437Z" fill="#D9EBFF"/>
</svg>
