<svg width="700" height="233" viewBox="0 0 700 233" fill="none" xmlns="http://www.w3.org/2000/svg">
<g clip-path="url(#clip0_588_6842)">
<rect width="700" height="232" transform="translate(0 0.75)" fill="#0A0D12"/>
<g clip-path="url(#clip1_588_6842)">
<rect width="1284" height="1284" transform="translate(-292.5 -466.75)" fill="#0A0D12"/>
<g opacity="0.4">
<line x1="408.656" y1="-1108.75" x2="408.656" y2="1459.25" stroke="#67DBFF" stroke-width="0.917143"/>
<line x1="467.353" y1="-1108.75" x2="467.353" y2="1459.25" stroke="#67DBFF" stroke-width="0.917143"/>
<line x1="526.05" y1="-1108.75" x2="526.05" y2="1459.25" stroke="#67DBFF" stroke-width="0.917143"/>
<line x1="584.748" y1="-1108.75" x2="584.747" y2="1459.25" stroke="#67DBFF" stroke-width="0.917143"/>
<line x1="643.444" y1="-1108.75" x2="643.444" y2="1459.25" stroke="#67DBFF" stroke-width="0.917143"/>
<line x1="56.4732" y1="-1108.75" x2="56.473" y2="1459.25" stroke="#67DBFF" stroke-width="0.917143"/>
<line x1="115.17" y1="-1108.75" x2="115.169" y2="1459.25" stroke="#67DBFF" stroke-width="0.917143"/>
<line x1="173.867" y1="-1108.75" x2="173.867" y2="1459.25" stroke="#67DBFF" stroke-width="0.917143"/>
<line x1="232.564" y1="-1108.75" x2="232.564" y2="1459.25" stroke="#67DBFF" stroke-width="0.917143"/>
<line x1="291.261" y1="-1108.75" x2="291.261" y2="1459.25" stroke="#67DBFF" stroke-width="0.917143"/>
<line x1="-934.5" y1="116.094" x2="1633.5" y2="116.094" stroke="#67DBFF" stroke-width="0.917143"/>
<line x1="-934.5" y1="57.3971" x2="1633.5" y2="57.3971" stroke="#67DBFF" stroke-width="0.917143"/>
</g>
<line x1="349.959" y1="-1108.75" x2="349.958" y2="1459.25" stroke="#E6E6E6" stroke-width="0.917143"/>
<line x1="-934.5" y1="174.791" x2="1633.5" y2="174.791" stroke="#E6E6E6" stroke-width="0.917143"/>
</g>
<path d="M349.5 172.578V115.263L309.5 76.9219V134.237L349.5 172.578Z" fill="#18C8FF" fill-opacity="0.3" stroke="#67DBFF"/>
<path d="M126.96 33.1504C126.974 33.1504 127.476 33.1155 128.465 33.0458C129.454 32.9762 129.963 32.9344 129.991 32.9204C130.158 32.9204 130.241 32.9762 130.241 33.0877C130.241 33.1852 129.733 35.2892 128.716 39.3997C127.698 43.5102 127.176 45.6072 127.148 45.6908C127.12 45.7744 127.113 45.8789 127.127 46.0043C127.127 46.5896 127.322 46.8822 127.712 46.8822C127.838 46.8682 127.977 46.8055 128.13 46.6941C128.423 46.4154 128.709 45.7466 128.987 44.6876C129.071 44.4089 129.141 44.2626 129.196 44.2487C129.224 44.2347 129.294 44.2278 129.405 44.2278H129.573C129.782 44.2278 129.886 44.2835 129.886 44.395C129.886 44.4647 129.865 44.5761 129.823 44.7294C129.642 45.4261 129.433 45.9904 129.196 46.4224C128.959 46.8543 128.764 47.133 128.611 47.2584C128.458 47.3838 128.263 47.4953 128.026 47.5928C127.914 47.6207 127.747 47.6346 127.524 47.6346C127.051 47.6346 126.653 47.5301 126.333 47.3211C126.012 47.1121 125.803 46.8961 125.706 46.6732L125.581 46.3597C125.567 46.3457 125.539 46.3527 125.497 46.3806C125.469 46.4084 125.441 46.4363 125.413 46.4642C124.591 47.2445 123.755 47.6346 122.905 47.6346C122.139 47.6346 121.463 47.3559 120.878 46.7986C120.293 46.2412 120 45.3564 120 44.1442C120 43.4753 120.139 42.7926 120.418 42.0959C120.697 41.3992 121.031 40.8 121.421 40.2984C122.076 39.5042 122.731 38.9538 123.386 38.6473C124.041 38.3407 124.633 38.1874 125.162 38.1874C125.943 38.1874 126.528 38.4801 126.918 39.0653C126.988 39.1489 127.023 39.1768 127.023 39.1489C127.037 39.0931 127.225 38.3338 127.587 36.8707C127.949 35.4076 128.144 34.6343 128.172 34.5507C128.172 34.3696 128.123 34.2581 128.026 34.2163C127.928 34.1745 127.657 34.1397 127.211 34.1118H126.772C126.688 34.0282 126.646 33.9725 126.646 33.9446C126.646 33.9167 126.66 33.7843 126.688 33.5475C126.758 33.2827 126.848 33.1504 126.96 33.1504ZM126.667 40.6119C126.347 39.5112 125.824 38.9608 125.1 38.9608C124.612 38.9608 124.145 39.1768 123.699 39.6087C123.254 40.0407 122.905 40.605 122.654 41.3017C122.25 42.4024 121.965 43.545 121.797 44.7294C121.797 44.7712 121.797 44.8478 121.797 44.9593C121.797 45.0708 121.791 45.1544 121.777 45.2101C121.777 45.8371 121.902 46.2691 122.153 46.506C122.404 46.7428 122.703 46.8682 123.052 46.8822C123.804 46.8822 124.577 46.3806 125.372 45.3773L125.539 45.1474L126.667 40.6119Z" fill="white"/>
<path d="M131.057 43.9143C131.057 43.12 131.189 42.3955 131.454 41.7406C131.718 41.0857 132.06 40.5423 132.478 40.1103C132.896 39.6784 133.363 39.3161 133.878 39.0235C134.394 38.7309 134.881 38.5149 135.341 38.3756C135.801 38.2362 136.24 38.1735 136.658 38.1874H136.721C137.348 38.1874 137.891 38.3407 138.351 38.6473C138.811 38.9538 139.041 39.4067 139.041 40.0058C139.041 41.2599 138.267 42.082 136.721 42.4721C136.038 42.6533 135.104 42.7508 133.92 42.7647C133.404 42.7647 133.14 42.7787 133.126 42.8065C133.126 42.8344 133.084 43.0782 133 43.5381C132.917 43.9979 132.868 44.402 132.854 44.7503C132.854 45.4052 133 45.9207 133.293 46.297C133.586 46.6732 134.024 46.8682 134.61 46.8822C135.195 46.8961 135.843 46.7637 136.553 46.4851C137.264 46.2064 137.905 45.7466 138.476 45.1056C138.602 44.9663 138.685 44.8966 138.727 44.8966C138.783 44.8966 138.873 44.9593 138.999 45.0847C139.124 45.2101 139.194 45.3077 139.208 45.3773C139.222 45.447 139.159 45.5585 139.02 45.7117C138.88 45.865 138.671 46.0531 138.393 46.2761C138.114 46.499 137.794 46.715 137.431 46.924C137.069 47.133 136.63 47.3072 136.115 47.4465C135.599 47.5858 135.069 47.6555 134.526 47.6555C133.425 47.6555 132.575 47.2863 131.976 46.5478C131.377 45.8093 131.07 44.9314 131.057 43.9143ZM138.037 40.0476C137.954 39.3231 137.48 38.9608 136.616 38.9608C136.156 38.9608 135.731 39.0583 135.341 39.2534C134.951 39.4485 134.638 39.6853 134.401 39.964C134.164 40.2427 133.962 40.5283 133.795 40.8209C133.627 41.1136 133.516 41.3644 133.46 41.5734C133.404 41.7824 133.37 41.9148 133.356 41.9705C133.356 41.9844 133.495 41.9914 133.774 41.9914C135.348 41.9914 136.449 41.8242 137.076 41.4898C137.703 41.1554 138.023 40.6746 138.037 40.0476Z" fill="white"/>
<path d="M140.545 39.3788C140.448 39.2813 140.399 39.2116 140.399 39.1698C140.399 39.114 140.42 39.0026 140.462 38.8354C140.504 38.6682 140.539 38.5706 140.566 38.5428C140.594 38.4731 140.657 38.4383 140.754 38.4383C140.852 38.4383 141.207 38.4313 141.82 38.4174H142.928L143.325 36.7453C143.367 36.592 143.416 36.39 143.472 36.1392C143.527 35.8884 143.576 35.7072 143.618 35.5957C143.66 35.4843 143.702 35.3449 143.743 35.1777C143.785 35.0105 143.841 34.8921 143.911 34.8224C143.98 34.7527 144.05 34.6691 144.12 34.5716C144.189 34.4741 144.287 34.4114 144.412 34.3835C144.538 34.3556 144.663 34.3417 144.788 34.3417C145.039 34.3556 145.213 34.4323 145.311 34.5716C145.408 34.7109 145.457 34.8433 145.457 34.9687C145.457 35.0663 145.394 35.3937 145.269 35.9511C145.144 36.5084 145.004 37.0588 144.851 37.6022L144.642 38.3756C144.642 38.4034 144.99 38.4174 145.687 38.4174H146.753C146.851 38.5149 146.899 38.5915 146.899 38.6473C146.899 38.9538 146.809 39.1977 146.628 39.3788H144.391L143.639 42.4094C143.095 44.6388 142.824 45.8371 142.824 46.0043C142.824 46.5896 143.012 46.8822 143.388 46.8822C143.876 46.8822 144.349 46.6453 144.809 46.1716C145.269 45.6978 145.638 45.1126 145.917 44.4159C145.945 44.3323 145.98 44.2835 146.021 44.2696C146.063 44.2556 146.168 44.2417 146.335 44.2278H146.419C146.628 44.2278 146.732 44.2835 146.732 44.395C146.732 44.4368 146.711 44.5204 146.669 44.6458C146.6 44.8687 146.474 45.1335 146.293 45.44C146.112 45.7466 145.875 46.074 145.583 46.4224C145.29 46.7707 144.935 47.0633 144.517 47.3002C144.099 47.5371 143.674 47.6555 143.242 47.6555C142.824 47.6555 142.427 47.551 142.05 47.342C141.674 47.133 141.402 46.7707 141.235 46.2552C141.207 46.1437 141.193 45.9556 141.193 45.6908V45.3146L141.925 42.3885C142.413 40.4238 142.663 39.4345 142.677 39.4206C142.677 39.3927 142.322 39.3788 141.611 39.3788H140.545Z" fill="white"/>
<path d="M149.512 42.2004C149.512 41.239 149.582 40.3263 149.721 39.4624C149.86 38.5985 150.021 37.853 150.202 37.226C150.383 36.599 150.641 35.9859 150.975 35.3867C151.309 34.7876 151.574 34.3208 151.769 33.9864C151.964 33.652 152.257 33.2897 152.647 32.8995C153.037 32.5094 153.267 32.2725 153.337 32.1889C153.406 32.1053 153.581 31.959 153.859 31.75H154.215C154.41 31.75 154.507 31.8127 154.507 31.9381C154.507 31.9799 154.389 32.1262 154.152 32.377C153.915 32.6278 153.629 32.9971 153.295 33.4848C152.961 33.9725 152.619 34.5716 152.271 35.2822C151.922 35.9929 151.63 36.9543 151.393 38.1665C151.156 39.3788 151.038 40.7234 151.038 42.2004C151.038 43.6774 151.156 45.015 151.393 46.2134C151.63 47.4117 151.916 48.3801 152.25 49.1186C152.584 49.8571 152.926 50.4562 153.274 50.916C153.622 51.3759 153.915 51.7451 154.152 52.0238C154.389 52.3025 154.507 52.4488 154.507 52.4627C154.507 52.5881 154.403 52.6508 154.194 52.6508H153.859L153.274 52.1492C151.964 50.9648 151.01 49.4878 150.411 47.7182C149.812 45.9486 149.512 44.1093 149.512 42.2004Z" fill="white"/>
<path d="M163.348 33.1504C163.362 33.1504 163.864 33.1155 164.853 33.0458C165.842 32.9762 166.351 32.9344 166.379 32.9204C166.546 32.9204 166.63 32.9762 166.63 33.0877C166.63 33.1852 166.121 35.2892 165.104 39.3997C164.087 43.5102 163.564 45.6072 163.536 45.6908C163.509 45.7744 163.502 45.8789 163.515 46.0043C163.515 46.5896 163.711 46.8822 164.101 46.8822C164.226 46.8682 164.365 46.8055 164.519 46.6941C164.811 46.4154 165.097 45.7466 165.376 44.6876C165.459 44.4089 165.529 44.2626 165.585 44.2487C165.613 44.2347 165.682 44.2278 165.794 44.2278H165.961C166.17 44.2278 166.274 44.2835 166.274 44.395C166.274 44.4647 166.253 44.5761 166.212 44.7294C166.031 45.4261 165.822 45.9904 165.585 46.4224C165.348 46.8543 165.153 47.133 164.999 47.2584C164.846 47.3838 164.651 47.4953 164.414 47.5928C164.303 47.6207 164.136 47.6346 163.913 47.6346C163.439 47.6346 163.042 47.5301 162.721 47.3211C162.401 47.1121 162.192 46.8961 162.094 46.6732L161.969 46.3597C161.955 46.3457 161.927 46.3527 161.885 46.3806C161.857 46.4084 161.829 46.4363 161.802 46.4642C160.98 47.2445 160.143 47.6346 159.294 47.6346C158.527 47.6346 157.851 47.3559 157.266 46.7986C156.681 46.2412 156.388 45.3564 156.388 44.1442C156.388 43.4753 156.528 42.7926 156.806 42.0959C157.085 41.3992 157.419 40.8 157.81 40.2984C158.464 39.5042 159.119 38.9538 159.774 38.6473C160.429 38.3407 161.021 38.1874 161.551 38.1874C162.331 38.1874 162.916 38.4801 163.306 39.0653C163.376 39.1489 163.411 39.1768 163.411 39.1489C163.425 39.0931 163.613 38.3338 163.975 36.8707C164.338 35.4076 164.533 34.6343 164.561 34.5507C164.561 34.3696 164.512 34.2581 164.414 34.2163C164.317 34.1745 164.045 34.1397 163.599 34.1118H163.16C163.077 34.0282 163.035 33.9725 163.035 33.9446C163.035 33.9167 163.049 33.7843 163.077 33.5475C163.146 33.2827 163.237 33.1504 163.348 33.1504ZM163.056 40.6119C162.735 39.5112 162.213 38.9608 161.488 38.9608C161 38.9608 160.534 39.1768 160.088 39.6087C159.642 40.0407 159.294 40.605 159.043 41.3017C158.639 42.4024 158.353 43.545 158.186 44.7294C158.186 44.7712 158.186 44.8478 158.186 44.9593C158.186 45.0708 158.179 45.1544 158.165 45.2101C158.165 45.8371 158.29 46.2691 158.541 46.506C158.792 46.7428 159.091 46.8682 159.44 46.8822C160.192 46.8822 160.966 46.3806 161.76 45.3773L161.927 45.1474L163.056 40.6119Z" fill="white"/>
<path d="M167.34 44.1024C167.34 42.5836 167.939 41.2181 169.138 40.0058C170.336 38.7936 171.632 38.1874 173.025 38.1874C173.806 38.1874 174.419 38.3547 174.865 38.6891C175.31 39.0235 175.54 39.4624 175.554 40.0058C175.554 40.4099 175.422 40.7513 175.157 41.03C174.892 41.3086 174.558 41.4549 174.154 41.4689C173.889 41.4689 173.68 41.3992 173.527 41.2599C173.374 41.1205 173.297 40.9115 173.297 40.6328C173.297 40.3542 173.374 40.1173 173.527 39.9222C173.68 39.7271 173.833 39.5808 173.987 39.4833C174.14 39.3858 174.238 39.344 174.279 39.3579H174.3C174.3 39.33 174.258 39.2882 174.175 39.2325C174.091 39.1768 173.945 39.121 173.736 39.0653C173.527 39.0095 173.29 38.9817 173.025 38.9817C172.607 38.9817 172.21 39.0792 171.834 39.2743C171.541 39.3997 171.242 39.6157 170.935 39.9222C170.322 40.5353 169.876 41.3992 169.598 42.5139C169.319 43.6286 169.173 44.4368 169.159 44.9384C169.159 45.5794 169.34 46.0601 169.702 46.3806C170.009 46.715 170.413 46.8822 170.914 46.8822H170.998C172.559 46.8822 173.847 46.29 174.865 45.1056C174.99 44.9663 175.074 44.8966 175.115 44.8966C175.171 44.8966 175.262 44.9593 175.387 45.0847C175.513 45.2101 175.582 45.3077 175.596 45.3773C175.61 45.447 175.547 45.5515 175.408 45.6908C175.269 45.8302 175.067 46.0252 174.802 46.2761C174.537 46.5269 174.224 46.7359 173.861 46.9031C173.499 47.0703 173.053 47.2445 172.524 47.4256C171.994 47.6067 171.437 47.6834 170.852 47.6555C169.807 47.6555 168.964 47.3211 168.323 46.6523C167.682 45.9834 167.354 45.1335 167.34 44.1024Z" fill="white"/>
<path d="M176.14 41.4271C176.14 41.3156 176.202 41.0996 176.328 40.7791C176.453 40.4587 176.627 40.0964 176.85 39.6923C177.073 39.2882 177.38 38.9399 177.77 38.6473C178.16 38.3547 178.571 38.2014 179.003 38.1874C179.644 38.1874 180.125 38.3616 180.445 38.71C180.766 39.0583 180.926 39.4694 180.926 39.9431C180.926 40.1939 180.689 40.9742 180.215 42.284C179.741 43.5938 179.505 44.5761 179.505 45.231C179.505 45.8302 179.602 46.2482 179.797 46.4851C179.992 46.7219 180.285 46.8473 180.675 46.8613C181.065 46.8752 181.434 46.7568 181.783 46.506C182.131 46.2552 182.389 46.0183 182.556 45.7953L182.786 45.44C182.814 45.3843 183.079 44.3253 183.58 42.2631C183.998 40.591 184.249 39.6157 184.333 39.337C184.416 39.0583 184.514 38.8563 184.625 38.7309C184.862 38.5219 185.113 38.4174 185.378 38.4174C185.615 38.4174 185.789 38.487 185.9 38.6264C186.012 38.7657 186.067 38.8981 186.067 39.0235L184.479 45.6699C184.465 45.7396 184.458 45.8511 184.458 46.0043C184.458 46.3527 184.507 46.5826 184.604 46.6941C184.702 46.8055 184.848 46.8682 185.043 46.8822C185.35 46.8404 185.594 46.6244 185.775 46.2343C185.956 45.8441 186.165 45.231 186.402 44.395C186.43 44.2835 186.569 44.2278 186.82 44.2278C187.085 44.2278 187.217 44.2905 187.217 44.4159C187.203 44.4856 187.189 44.5831 187.175 44.7085C187.161 44.8339 187.099 45.0568 186.987 45.3773C186.876 45.6978 186.757 45.9974 186.632 46.2761C186.506 46.5547 186.332 46.8195 186.109 47.0703C185.886 47.3211 185.635 47.4953 185.357 47.5928C185.245 47.6207 185.078 47.6346 184.855 47.6346C183.936 47.6346 183.302 47.2445 182.953 46.4642C182.925 46.4781 182.849 46.5478 182.723 46.6732C182.598 46.7986 182.472 46.9031 182.347 46.9867C182.222 47.0703 182.068 47.1748 181.887 47.3002C181.706 47.4256 181.504 47.5092 181.281 47.551C181.058 47.5928 180.821 47.6276 180.571 47.6555C179.957 47.6555 179.414 47.5301 178.94 47.2793C178.216 46.8473 177.853 46.1088 177.853 45.0638C177.853 44.2696 178.097 43.2315 178.585 41.9496C179.073 40.6677 179.316 39.8525 179.316 39.5042C179.316 39.4903 179.316 39.4763 179.316 39.4624C179.316 39.337 179.316 39.2534 179.316 39.2116C179.316 39.1698 179.289 39.121 179.233 39.0653C179.177 39.0095 179.1 38.9817 179.003 38.9817H178.919C178.599 38.9817 178.306 39.114 178.042 39.3788C177.777 39.6435 177.568 39.9292 177.414 40.2357C177.261 40.5423 177.143 40.8349 177.059 41.1136C176.976 41.3922 176.92 41.5455 176.892 41.5734C176.864 41.6012 176.753 41.6152 176.558 41.6152H176.265C176.181 41.5316 176.14 41.4689 176.14 41.4271Z" fill="white"/>
<path d="M188.095 41.4271C188.109 41.3853 188.123 41.3295 188.137 41.2599C188.151 41.1902 188.185 41.0369 188.241 40.8C188.297 40.5632 188.367 40.3472 188.45 40.1521C188.534 39.957 188.638 39.7271 188.764 39.4624C188.889 39.1977 189.028 38.9886 189.182 38.8354C189.335 38.6821 189.516 38.5288 189.725 38.3756C189.934 38.2223 190.164 38.1596 190.415 38.1874C190.819 38.1874 191.174 38.2711 191.481 38.4383C191.787 38.6055 192.003 38.7587 192.129 38.8981C192.254 39.0374 192.331 39.1768 192.359 39.3161C192.386 39.3997 192.407 39.4415 192.421 39.4415C192.435 39.4415 192.491 39.3927 192.588 39.2952C193.257 38.5706 194.031 38.2083 194.908 38.2083H194.971C195.64 38.2083 196.142 38.494 196.476 39.0653C196.587 39.33 196.643 39.5878 196.643 39.8386C196.643 40.2566 196.553 40.591 196.372 40.8418C196.19 41.0927 196.009 41.2529 195.828 41.3226C195.647 41.3922 195.473 41.4201 195.306 41.4062C195.027 41.4062 194.804 41.3295 194.637 41.1763C194.47 41.023 194.386 40.8209 194.386 40.5701C194.386 39.9013 194.776 39.4554 195.556 39.2325C195.25 39.0513 194.999 38.9608 194.804 38.9608C194.024 38.9608 193.306 39.4763 192.651 40.5074C192.512 40.7304 192.407 40.9603 192.338 41.1972C192.268 41.434 192.031 42.3606 191.627 43.977C191.153 45.9277 190.882 46.9658 190.812 47.0912C190.631 47.4674 190.331 47.6555 189.913 47.6555C189.732 47.6555 189.586 47.6137 189.474 47.5301C189.363 47.4465 189.286 47.3629 189.244 47.2793C189.203 47.1957 189.189 47.126 189.203 47.0703C189.203 46.8891 189.481 45.6908 190.039 43.4753C190.596 41.2599 190.875 40.0267 190.875 39.7759C190.875 39.2325 190.693 38.9608 190.331 38.9608C190.039 38.9608 189.788 39.1559 189.579 39.546C189.37 39.9361 189.203 40.3611 189.077 40.8209C188.952 41.2808 188.875 41.5316 188.847 41.5734C188.819 41.6012 188.708 41.6152 188.513 41.6152H188.22C188.137 41.5316 188.095 41.4689 188.095 41.4271Z" fill="white"/>
<path d="M197.542 41.4271C197.556 41.3853 197.57 41.3295 197.584 41.2599C197.598 41.1902 197.633 41.0369 197.688 40.8C197.744 40.5632 197.814 40.3472 197.897 40.1521C197.981 39.957 198.085 39.7271 198.211 39.4624C198.336 39.1977 198.476 38.9886 198.629 38.8354C198.782 38.6821 198.963 38.5288 199.172 38.3756C199.381 38.2223 199.611 38.1596 199.862 38.1874C200.266 38.1874 200.621 38.2711 200.928 38.4383C201.234 38.6055 201.45 38.7587 201.576 38.8981C201.701 39.0374 201.778 39.1768 201.806 39.3161C201.834 39.3997 201.855 39.4415 201.868 39.4415C201.882 39.4415 201.938 39.3927 202.036 39.2952C202.704 38.5706 203.478 38.2083 204.356 38.2083H204.418C205.087 38.2083 205.589 38.494 205.923 39.0653C206.035 39.33 206.09 39.5878 206.09 39.8386C206.09 40.2566 206 40.591 205.819 40.8418C205.638 41.0927 205.456 41.2529 205.275 41.3226C205.094 41.3922 204.92 41.4201 204.753 41.4062C204.474 41.4062 204.251 41.3295 204.084 41.1763C203.917 41.023 203.833 40.8209 203.833 40.5701C203.833 39.9013 204.223 39.4554 205.004 39.2325C204.697 39.0513 204.446 38.9608 204.251 38.9608C203.471 38.9608 202.753 39.4763 202.098 40.5074C201.959 40.7304 201.854 40.9603 201.785 41.1972C201.715 41.434 201.478 42.3606 201.074 43.977C200.6 45.9277 200.329 46.9658 200.259 47.0912C200.078 47.4674 199.778 47.6555 199.36 47.6555C199.179 47.6555 199.033 47.6137 198.921 47.5301C198.81 47.4465 198.733 47.3629 198.692 47.2793C198.65 47.1957 198.636 47.126 198.65 47.0703C198.65 46.8891 198.928 45.6908 199.486 43.4753C200.043 41.2599 200.322 40.0267 200.322 39.7759C200.322 39.2325 200.141 38.9608 199.778 38.9608C199.486 38.9608 199.235 39.1559 199.026 39.546C198.817 39.9361 198.65 40.3611 198.524 40.8209C198.399 41.2808 198.322 41.5316 198.294 41.5734C198.267 41.6012 198.155 41.6152 197.96 41.6152H197.667C197.584 41.5316 197.542 41.4689 197.542 41.4271Z" fill="white"/>
<path d="M208.16 46.6941C208.16 46.6941 208.16 46.5199 208.16 46.1716C208.16 45.8232 208.271 45.5236 208.494 45.2728C208.717 45.022 209.017 44.8966 209.393 44.8966C209.783 44.8966 210.131 45.0708 210.438 45.4191C210.744 45.7675 210.905 46.3806 210.918 47.2584C210.918 47.7461 210.856 48.2198 210.73 48.6796C210.605 49.1395 210.459 49.5366 210.291 49.871C210.124 50.2054 209.943 50.4911 209.748 50.7279C209.553 50.9648 209.386 51.1529 209.246 51.2922C209.107 51.4316 209.017 51.4943 208.975 51.4804C208.919 51.4804 208.828 51.4177 208.703 51.2922C208.578 51.1668 208.515 51.0763 208.515 51.0205C208.515 50.9648 208.592 50.8533 208.745 50.6861C208.898 50.5189 209.072 50.3099 209.267 50.0591C209.462 49.8083 209.644 49.4599 209.811 49.0141C209.978 48.5682 210.089 48.0596 210.145 47.4883V47.2375L210.124 47.2584C210.096 47.2723 210.062 47.2863 210.02 47.3002C209.978 47.3141 209.936 47.335 209.894 47.3629C209.853 47.3908 209.79 47.4047 209.706 47.4047C209.623 47.4047 209.539 47.4117 209.455 47.4256C209.079 47.4256 208.773 47.3072 208.536 47.0703L208.16 46.6941Z" fill="white"/>
<path d="M223.48 33.1504C223.494 33.1504 223.995 33.1155 224.985 33.0458C225.974 32.9762 226.483 32.9344 226.51 32.9204C226.678 32.9204 226.761 32.9762 226.761 33.0877C226.761 33.1852 226.253 35.2892 225.236 39.3997C224.218 43.5102 223.696 45.6072 223.668 45.6908C223.64 45.7744 223.633 45.8789 223.647 46.0043C223.647 46.5896 223.842 46.8822 224.232 46.8822C224.358 46.8682 224.497 46.8055 224.65 46.6941C224.943 46.4154 225.229 45.7466 225.507 44.6876C225.591 44.4089 225.661 44.2626 225.716 44.2487C225.744 44.2347 225.814 44.2278 225.925 44.2278H226.092C226.301 44.2278 226.406 44.2835 226.406 44.395C226.406 44.4647 226.385 44.5761 226.343 44.7294C226.162 45.4261 225.953 45.9904 225.716 46.4224C225.479 46.8543 225.284 47.133 225.131 47.2584C224.978 47.3838 224.783 47.4953 224.546 47.5928C224.434 47.6207 224.267 47.6346 224.044 47.6346C223.57 47.6346 223.173 47.5301 222.853 47.3211C222.532 47.1121 222.323 46.8961 222.226 46.6732L222.1 46.3597C222.086 46.3457 222.059 46.3527 222.017 46.3806C221.989 46.4084 221.961 46.4363 221.933 46.4642C221.111 47.2445 220.275 47.6346 219.425 47.6346C218.659 47.6346 217.983 47.3559 217.398 46.7986C216.813 46.2412 216.52 45.3564 216.52 44.1442C216.52 43.4753 216.659 42.7926 216.938 42.0959C217.217 41.3992 217.551 40.8 217.941 40.2984C218.596 39.5042 219.251 38.9538 219.906 38.6473C220.561 38.3407 221.153 38.1874 221.682 38.1874C222.463 38.1874 223.048 38.4801 223.438 39.0653C223.508 39.1489 223.543 39.1768 223.543 39.1489C223.556 39.0931 223.745 38.3338 224.107 36.8707C224.469 35.4076 224.664 34.6343 224.692 34.5507C224.692 34.3696 224.643 34.2581 224.546 34.2163C224.448 34.1745 224.177 34.1397 223.731 34.1118H223.292C223.208 34.0282 223.166 33.9725 223.166 33.9446C223.166 33.9167 223.18 33.7843 223.208 33.5475C223.278 33.2827 223.368 33.1504 223.48 33.1504ZM223.187 40.6119C222.867 39.5112 222.344 38.9608 221.62 38.9608C221.132 38.9608 220.665 39.1768 220.219 39.6087C219.773 40.0407 219.425 40.605 219.174 41.3017C218.77 42.4024 218.485 43.545 218.317 44.7294C218.317 44.7712 218.317 44.8478 218.317 44.9593C218.317 45.0708 218.31 45.1544 218.296 45.2101C218.296 45.8371 218.422 46.2691 218.673 46.506C218.923 46.7428 219.223 46.8682 219.571 46.8822C220.324 46.8822 221.097 46.3806 221.891 45.3773L222.059 45.1474L223.187 40.6119Z" fill="white"/>
<path d="M227.472 44.1442C227.472 42.7369 228.001 41.3992 229.06 40.1312C230.119 38.8632 231.311 38.2223 232.634 38.2083C233.345 38.2083 233.972 38.5497 234.515 39.2325C234.738 38.8145 235.059 38.6055 235.477 38.6055C235.658 38.6055 235.818 38.6612 235.958 38.7727C236.097 38.8841 236.167 39.0235 236.167 39.1907C236.167 39.3718 235.909 40.4865 235.393 42.5348C234.878 44.5831 234.613 45.7396 234.599 46.0043C234.599 46.3527 234.648 46.5826 234.745 46.6941C234.843 46.8055 234.989 46.8682 235.184 46.8822C235.31 46.8682 235.449 46.8055 235.602 46.6941C235.895 46.4154 236.181 45.7466 236.459 44.6876C236.543 44.4089 236.613 44.2626 236.668 44.2487C236.696 44.2347 236.766 44.2278 236.877 44.2278H236.961C237.226 44.2278 237.358 44.2905 237.358 44.4159C237.358 44.4995 237.323 44.6876 237.253 44.9802C237.184 45.2728 237.044 45.649 236.835 46.1088C236.626 46.5687 236.404 46.917 236.167 47.1539C235.986 47.335 235.763 47.4813 235.498 47.5928C235.386 47.6207 235.219 47.6346 234.996 47.6346C234.522 47.6346 234.125 47.5301 233.805 47.3211C233.484 47.1121 233.275 46.8961 233.178 46.6732L233.052 46.3597C233.038 46.3457 233.011 46.3527 232.969 46.3806C232.941 46.4084 232.913 46.4363 232.885 46.4642C232.063 47.2445 231.227 47.6346 230.377 47.6346C229.611 47.6346 228.935 47.3559 228.35 46.7986C227.765 46.2412 227.472 45.3564 227.472 44.1442ZM234.118 40.5701C234.118 40.4865 234.084 40.3333 234.014 40.1103C233.944 39.8874 233.784 39.6435 233.533 39.3788C233.282 39.114 232.962 38.9747 232.572 38.9608C232.084 38.9608 231.617 39.1768 231.171 39.6087C230.725 40.0407 230.377 40.605 230.126 41.3017C229.722 42.4024 229.437 43.545 229.269 44.7294C229.269 44.7712 229.269 44.8478 229.269 44.9593C229.269 45.0708 229.262 45.1544 229.248 45.2101C229.248 45.8371 229.374 46.2691 229.625 46.506C229.876 46.7428 230.175 46.8682 230.523 46.8822C231.053 46.8822 231.575 46.6523 232.091 46.1925C232.607 45.7326 232.913 45.3773 233.011 45.1265C233.038 45.0708 233.227 44.3253 233.575 42.8901C233.923 41.4549 234.104 40.6816 234.118 40.5701Z" fill="white"/>
<path d="M239.093 31.7709L239.176 31.75C239.246 31.75 239.316 31.75 239.385 31.75H239.636L240.221 32.2516C241.531 33.436 242.486 34.913 243.085 36.6826C243.684 38.4522 243.984 40.2915 243.984 42.2004C243.984 43.1479 243.914 44.0606 243.775 44.9384C243.635 45.8162 243.475 46.5617 243.294 47.1748C243.113 47.7879 242.855 48.401 242.52 49.0141C242.186 49.6272 241.921 50.0939 241.726 50.4144C241.531 50.7349 241.246 51.0902 240.869 51.4804C240.493 51.8705 240.27 52.1004 240.201 52.1701C240.131 52.2398 239.971 52.3721 239.72 52.5672C239.678 52.609 239.65 52.6369 239.636 52.6508H239.385C239.274 52.6508 239.197 52.6508 239.155 52.6508C239.114 52.6508 239.079 52.6299 239.051 52.5881C239.023 52.5463 239.002 52.4836 238.988 52.4C239.002 52.3861 239.079 52.2955 239.218 52.1283C241.378 49.8849 242.458 46.5756 242.458 42.2004C242.458 37.8252 241.378 34.5159 239.218 32.2725C239.079 32.1053 239.002 32.0147 238.988 32.0008C238.988 31.8893 239.023 31.8127 239.093 31.7709Z" fill="white"/>
<path d="M253.514 34.5507C253.514 34.4392 253.556 34.3417 253.64 34.2581C253.723 34.1745 253.793 34.1327 253.849 34.1327C253.96 34.1327 255.033 34.6064 257.067 35.5539C259.102 36.5014 261.122 37.4559 263.129 38.4174C265.135 39.3788 266.138 39.8665 266.138 39.8804C266.236 39.9501 266.285 40.0546 266.285 40.1939C266.285 40.3333 266.236 40.4378 266.138 40.5074C266.111 40.5353 264.076 41.5037 260.035 43.4126L254.016 46.2552H253.891C253.64 46.2273 253.514 46.0879 253.514 45.8371C253.514 45.8232 253.514 45.8023 253.514 45.7744C253.5 45.6769 253.605 45.5654 253.828 45.44C254.093 45.3007 255.138 44.7991 256.963 43.9352C258.05 43.4196 258.955 42.9946 259.68 42.6602L264.863 40.1939L259.304 37.5604C258.342 37.1006 257.228 36.5711 255.96 35.972C254.734 35.4007 254.023 35.0593 253.828 34.9478C253.633 34.8364 253.528 34.704 253.514 34.5507ZM253.535 49.8919C253.535 49.7526 253.64 49.6132 253.849 49.4739H265.95C266.173 49.5575 266.285 49.6968 266.285 49.8919C266.285 50.0591 266.18 50.1984 265.971 50.3099H253.828C253.633 50.2124 253.535 50.073 253.535 49.8919Z" fill="white"/>
<path d="M275.878 35.1986C276.658 34.07 277.724 33.5057 279.076 33.5057C279.745 33.5057 280.414 33.6868 281.082 34.0491C281.751 34.4114 282.295 35.0523 282.713 35.972C283.228 37.1285 283.486 38.7169 283.486 40.7373C283.486 42.8971 283.186 44.5483 282.587 45.6908C282.309 46.2761 281.925 46.7428 281.438 47.0912C280.95 47.4395 280.525 47.6555 280.163 47.7391C279.801 47.8227 279.445 47.8715 279.097 47.8854C278.735 47.8854 278.372 47.8436 278.01 47.76C277.648 47.6764 277.223 47.4535 276.735 47.0912C276.247 46.7289 275.864 46.2621 275.586 45.6908C274.986 44.5483 274.687 42.8971 274.687 40.7373C274.687 38.3129 275.084 36.4666 275.878 35.1986ZM280.581 34.9478C280.163 34.5019 279.668 34.279 279.097 34.279C278.512 34.279 278.01 34.5019 277.592 34.9478C277.244 35.3101 277.014 35.8117 276.902 36.4527C276.791 37.0936 276.735 38.4313 276.735 40.4656C276.735 42.6672 276.791 44.1163 276.902 44.813C277.014 45.5097 277.265 46.0601 277.655 46.4642C278.045 46.8822 278.526 47.0912 279.097 47.0912C279.654 47.0912 280.128 46.8822 280.518 46.4642C280.922 46.0461 281.173 45.4609 281.271 44.7085C281.368 43.9561 281.424 42.5418 281.438 40.4656C281.438 38.4452 281.382 37.1145 281.271 36.4736C281.159 35.8326 280.929 35.324 280.581 34.9478Z" fill="white"/>
<path d="M348.5 174.75C348.5 175.578 349.172 176.25 350 176.25C350.828 176.25 351.5 175.578 351.5 174.75L348.5 174.75ZM350 115.75L341.34 130.75L358.66 130.75L350 115.75ZM351.5 174.75L351.5 129.25L348.5 129.25L348.5 174.75L351.5 174.75Z" fill="#EB5757"/>
<path opacity="0.6" d="M348.939 173.689C348.354 174.275 348.354 175.225 348.939 175.811C349.525 176.396 350.475 176.396 351.061 175.811L348.939 173.689ZM390 134.75L373.27 139.233L385.517 151.48L390 134.75ZM351.061 175.811L381.515 145.357L379.393 143.235L348.939 173.689L351.061 175.811Z" fill="#006AE7"/>
<g opacity="0.6">
<path d="M401.959 134.98C401.973 134.98 402.475 134.945 403.464 134.875C404.453 134.806 404.962 134.764 404.99 134.75C405.157 134.75 405.241 134.806 405.241 134.917C405.241 135.015 404.732 137.119 403.715 141.229C402.698 145.339 402.175 147.436 402.148 147.519C402.12 147.603 402.113 147.708 402.127 147.833C402.127 148.418 402.322 148.711 402.712 148.711C402.837 148.697 402.977 148.634 403.13 148.523C403.422 148.244 403.708 147.575 403.987 146.516C404.07 146.238 404.14 146.091 404.196 146.077C404.224 146.063 404.293 146.057 404.405 146.057H404.572C404.781 146.057 404.885 146.112 404.885 146.224C404.885 146.293 404.864 146.405 404.823 146.558C404.642 147.255 404.433 147.819 404.196 148.251C403.959 148.683 403.764 148.962 403.61 149.087C403.457 149.212 403.262 149.324 403.025 149.421C402.914 149.449 402.747 149.463 402.524 149.463C402.05 149.463 401.653 149.359 401.332 149.15C401.012 148.941 400.803 148.725 400.705 148.502L400.58 148.188C400.566 148.174 400.538 148.181 400.497 148.209C400.469 148.237 400.441 148.265 400.413 148.293C399.591 149.073 398.755 149.463 397.905 149.463C397.139 149.463 396.463 149.184 395.878 148.627C395.293 148.07 395 147.185 395 145.973C395 145.304 395.139 144.621 395.418 143.925C395.697 143.228 396.031 142.629 396.421 142.127C397.076 141.333 397.731 140.783 398.386 140.476C399.041 140.17 399.633 140.017 400.162 140.017C400.942 140.017 401.528 140.309 401.918 140.894C401.987 140.978 402.022 141.006 402.022 140.978C402.036 140.922 402.224 140.163 402.586 138.7C402.949 137.237 403.144 136.464 403.172 136.38C403.172 136.199 403.123 136.088 403.025 136.046C402.928 136.004 402.656 135.969 402.21 135.941H401.771C401.688 135.858 401.646 135.802 401.646 135.774C401.646 135.746 401.66 135.614 401.688 135.377C401.757 135.112 401.848 134.98 401.959 134.98ZM401.667 142.441C401.346 141.34 400.824 140.79 400.099 140.79C399.612 140.79 399.145 141.006 398.699 141.438C398.253 141.87 397.905 142.434 397.654 143.131C397.25 144.231 396.965 145.374 396.797 146.558C396.797 146.6 396.797 146.677 396.797 146.788C396.797 146.899 396.79 146.983 396.776 147.039C396.776 147.666 396.902 148.098 397.153 148.335C397.403 148.571 397.703 148.697 398.051 148.711C398.804 148.711 399.577 148.209 400.371 147.206L400.538 146.976L401.667 142.441Z" fill="white"/>
<path d="M406.766 135.732C406.766 135.593 406.794 135.433 406.85 135.252C406.906 135.07 406.989 134.98 407.101 134.98C407.115 134.98 407.616 134.945 408.605 134.875C409.595 134.806 410.103 134.764 410.131 134.75C410.298 134.75 410.382 134.813 410.382 134.938C410.382 135.063 410.145 136.06 409.671 137.927C409.56 138.4 409.441 138.888 409.316 139.39C409.191 139.891 409.086 140.267 409.003 140.518L408.919 140.915C408.919 140.957 408.961 140.936 409.044 140.853C409.727 140.295 410.431 140.017 411.155 140.017C412.019 140.017 412.716 140.337 413.245 140.978C413.775 141.619 414.046 142.427 414.06 143.402C414.06 144.949 413.51 146.349 412.409 147.603C411.308 148.857 410.124 149.484 408.856 149.484C408.16 149.484 407.526 149.219 406.954 148.69C406.383 148.16 406.091 147.303 406.077 146.119V145.931C406.077 145.639 406.132 145.234 406.244 144.719C406.355 144.203 406.697 142.831 407.268 140.602C407.965 137.857 408.313 136.401 408.313 136.234C408.313 136.067 408.048 135.969 407.519 135.941C407.449 135.941 407.393 135.941 407.351 135.941H407.247C407.108 135.941 407.017 135.941 406.975 135.941C406.933 135.941 406.885 135.92 406.829 135.879C406.773 135.837 406.752 135.788 406.766 135.732ZM412.263 142.462V142.336C412.263 141.305 411.838 140.79 410.988 140.79C410.751 140.79 410.507 140.846 410.256 140.957C410.006 141.069 409.776 141.215 409.567 141.396C409.358 141.577 409.177 141.744 409.023 141.898C408.87 142.051 408.745 142.204 408.647 142.357L408.522 142.525L408.083 144.322C407.776 145.52 407.623 146.37 407.623 146.872C407.623 147.54 407.79 148.042 408.125 148.376C408.348 148.599 408.626 148.711 408.961 148.711C409.42 148.711 409.887 148.488 410.361 148.042C410.709 147.721 410.988 147.331 411.197 146.872C411.406 146.412 411.636 145.68 411.887 144.677C412.137 143.674 412.263 142.936 412.263 142.462Z" fill="white"/>
</g>
<path d="M361.961 94.9799C361.975 94.9799 362.476 94.9451 363.466 94.8754C364.455 94.8057 364.964 94.7639 364.992 94.75C365.159 94.75 365.243 94.8057 365.243 94.9172C365.243 95.0148 364.734 97.1191 363.717 101.23C362.699 105.341 362.177 107.438 362.149 107.522C362.121 107.606 362.114 107.71 362.128 107.836C362.128 108.421 362.323 108.714 362.713 108.714C362.839 108.7 362.978 108.637 363.131 108.525C363.424 108.247 363.71 107.578 363.988 106.519C364.072 106.24 364.142 106.094 364.198 106.08C364.225 106.066 364.295 106.059 364.407 106.059H364.574C364.783 106.059 364.887 106.115 364.887 106.226C364.887 106.296 364.866 106.407 364.825 106.56C364.643 107.257 364.434 107.822 364.198 108.254C363.961 108.686 363.766 108.964 363.612 109.09C363.459 109.215 363.264 109.327 363.027 109.424C362.915 109.452 362.748 109.466 362.525 109.466C362.051 109.466 361.654 109.362 361.334 109.152C361.013 108.943 360.804 108.727 360.707 108.504L360.581 108.191C360.567 108.177 360.539 108.184 360.498 108.212C360.47 108.24 360.442 108.268 360.414 108.295C359.592 109.076 358.756 109.466 357.906 109.466C357.139 109.466 356.463 109.187 355.878 108.63C355.293 108.072 355 107.188 355 105.975C355 105.306 355.139 104.623 355.418 103.927C355.697 103.23 356.031 102.631 356.421 102.129C357.076 101.335 357.731 100.784 358.386 100.478C359.041 100.171 359.634 100.018 360.163 100.018C360.944 100.018 361.529 100.31 361.919 100.896C361.989 100.979 362.024 101.007 362.024 100.979C362.038 100.923 362.226 100.164 362.588 98.7008C362.95 97.2375 363.145 96.4641 363.173 96.3805C363.173 96.1993 363.124 96.0878 363.027 96.046C362.929 96.0042 362.658 95.9694 362.212 95.9415H361.773C361.689 95.8579 361.647 95.8021 361.647 95.7743C361.647 95.7464 361.661 95.614 361.689 95.3771C361.759 95.1123 361.849 94.9799 361.961 94.9799ZM361.668 102.442C361.348 101.342 360.825 100.791 360.1 100.791C359.613 100.791 359.146 101.007 358.7 101.439C358.254 101.871 357.906 102.436 357.655 103.132C357.251 104.233 356.965 105.376 356.798 106.56C356.798 106.602 356.798 106.679 356.798 106.79C356.798 106.902 356.791 106.986 356.777 107.041C356.777 107.668 356.902 108.1 357.153 108.337C357.404 108.574 357.704 108.7 358.052 108.714C358.804 108.714 359.578 108.212 360.372 107.208L360.539 106.979L361.668 102.442Z" fill="white"/>
<path d="M365.953 105.933C365.953 104.414 366.553 103.049 367.751 101.836C368.95 100.624 370.246 100.018 371.639 100.018C372.42 100.018 373.033 100.185 373.479 100.519C373.925 100.854 374.155 101.293 374.168 101.836C374.168 102.24 374.036 102.582 373.771 102.861C373.507 103.139 373.172 103.286 372.768 103.3C372.503 103.3 372.294 103.23 372.141 103.09C371.988 102.951 371.911 102.742 371.911 102.463C371.911 102.185 371.988 101.948 372.141 101.753C372.294 101.558 372.447 101.411 372.601 101.314C372.754 101.216 372.852 101.174 372.893 101.188H372.914C372.914 101.16 372.872 101.119 372.789 101.063C372.705 101.007 372.559 100.951 372.35 100.896C372.141 100.84 371.904 100.812 371.639 100.812C371.221 100.812 370.824 100.91 370.448 101.105C370.155 101.23 369.855 101.446 369.549 101.753C368.936 102.366 368.49 103.23 368.211 104.345C367.932 105.46 367.786 106.268 367.772 106.77C367.772 107.411 367.953 107.891 368.316 108.212C368.622 108.546 369.026 108.714 369.528 108.714H369.612C371.172 108.714 372.461 108.121 373.479 106.937C373.604 106.797 373.688 106.728 373.73 106.728C373.785 106.728 373.876 106.79 374.001 106.916C374.127 107.041 374.196 107.139 374.21 107.208C374.224 107.278 374.162 107.383 374.022 107.522C373.883 107.661 373.681 107.856 373.416 108.107C373.151 108.358 372.838 108.567 372.475 108.734C372.113 108.902 371.667 109.076 371.137 109.257C370.608 109.438 370.051 109.515 369.465 109.487C368.42 109.487 367.577 109.152 366.936 108.484C366.295 107.815 365.967 106.965 365.953 105.933Z" fill="white"/>
<path d="M374.754 103.258C374.754 103.146 374.817 102.93 374.942 102.61C375.067 102.289 375.242 101.927 375.465 101.523C375.687 101.119 375.994 100.77 376.384 100.478C376.774 100.185 377.186 100.032 377.618 100.018C378.259 100.018 378.739 100.192 379.06 100.54C379.38 100.889 379.541 101.3 379.541 101.774C379.541 102.024 379.304 102.805 378.83 104.115C378.356 105.425 378.119 106.407 378.119 107.062C378.119 107.661 378.217 108.079 378.412 108.316C378.607 108.553 378.9 108.679 379.29 108.693C379.68 108.707 380.049 108.588 380.398 108.337C380.746 108.086 381.004 107.85 381.171 107.627L381.401 107.271C381.429 107.215 381.694 106.156 382.195 104.094C382.613 102.422 382.864 101.446 382.948 101.167C383.032 100.889 383.129 100.687 383.241 100.561C383.478 100.352 383.728 100.248 383.993 100.248C384.23 100.248 384.404 100.317 384.516 100.457C384.627 100.596 384.683 100.728 384.683 100.854L383.094 107.501C383.08 107.571 383.073 107.682 383.073 107.836C383.073 108.184 383.122 108.414 383.22 108.525C383.317 108.637 383.464 108.7 383.659 108.714C383.965 108.672 384.209 108.456 384.39 108.066C384.571 107.675 384.78 107.062 385.017 106.226C385.045 106.115 385.185 106.059 385.435 106.059C385.7 106.059 385.833 106.121 385.833 106.247C385.819 106.317 385.805 106.414 385.791 106.54C385.777 106.665 385.714 106.888 385.603 107.208C385.491 107.529 385.373 107.829 385.247 108.107C385.122 108.386 384.948 108.651 384.725 108.902C384.502 109.152 384.251 109.327 383.972 109.424C383.861 109.452 383.694 109.466 383.471 109.466C382.551 109.466 381.917 109.076 381.568 108.295C381.54 108.309 381.464 108.379 381.338 108.504C381.213 108.63 381.088 108.734 380.962 108.818C380.837 108.902 380.683 109.006 380.502 109.132C380.321 109.257 380.119 109.341 379.896 109.382C379.673 109.424 379.436 109.459 379.185 109.487C378.572 109.487 378.029 109.362 377.555 109.111C376.83 108.679 376.468 107.94 376.468 106.895C376.468 106.101 376.712 105.062 377.199 103.78C377.687 102.498 377.931 101.683 377.931 101.335C377.931 101.321 377.931 101.307 377.931 101.293C377.931 101.167 377.931 101.084 377.931 101.042C377.931 101 377.903 100.951 377.848 100.896C377.792 100.84 377.715 100.812 377.618 100.812H377.534C377.213 100.812 376.921 100.944 376.656 101.209C376.391 101.474 376.182 101.76 376.029 102.066C375.876 102.373 375.757 102.665 375.674 102.944C375.59 103.223 375.534 103.376 375.506 103.404C375.478 103.432 375.367 103.446 375.172 103.446H374.879C374.796 103.362 374.754 103.3 374.754 103.258Z" fill="white"/>
<path d="M386.711 103.258C386.725 103.216 386.738 103.16 386.752 103.09C386.766 103.021 386.801 102.868 386.857 102.631C386.913 102.394 386.982 102.178 387.066 101.983C387.15 101.788 387.254 101.558 387.379 101.293C387.505 101.028 387.644 100.819 387.798 100.666C387.951 100.512 388.132 100.359 388.341 100.206C388.55 100.053 388.78 99.9898 389.031 100.018C389.435 100.018 389.79 100.101 390.097 100.269C390.404 100.436 390.62 100.589 390.745 100.728C390.87 100.868 390.947 101.007 390.975 101.146C391.003 101.23 391.024 101.272 391.038 101.272C391.052 101.272 391.107 101.223 391.205 101.126C391.874 100.401 392.647 100.039 393.525 100.039H393.588C394.257 100.039 394.758 100.324 395.093 100.896C395.204 101.16 395.26 101.418 395.26 101.669C395.26 102.087 395.17 102.422 394.988 102.672C394.807 102.923 394.626 103.084 394.445 103.153C394.264 103.223 394.09 103.251 393.922 103.237C393.644 103.237 393.421 103.16 393.253 103.007C393.086 102.854 393.003 102.652 393.003 102.401C393.003 101.732 393.393 101.286 394.173 101.063C393.867 100.882 393.616 100.791 393.421 100.791C392.64 100.791 391.923 101.307 391.268 102.338C391.128 102.561 391.024 102.791 390.954 103.028C390.884 103.265 390.647 104.191 390.243 105.808C389.769 107.759 389.498 108.797 389.428 108.923C389.247 109.299 388.947 109.487 388.529 109.487C388.348 109.487 388.202 109.445 388.09 109.362C387.979 109.278 387.902 109.194 387.86 109.111C387.818 109.027 387.805 108.957 387.818 108.902C387.818 108.72 388.097 107.522 388.655 105.306C389.212 103.09 389.491 101.857 389.491 101.606C389.491 101.063 389.31 100.791 388.947 100.791C388.655 100.791 388.404 100.986 388.195 101.376C387.986 101.767 387.818 102.192 387.693 102.652C387.568 103.111 387.491 103.362 387.463 103.404C387.435 103.432 387.324 103.446 387.129 103.446H386.836C386.752 103.362 386.711 103.3 386.711 103.258Z" fill="white"/>
<path d="M396.159 103.258C396.173 103.216 396.187 103.16 396.201 103.09C396.215 103.021 396.25 102.868 396.305 102.631C396.361 102.394 396.431 102.178 396.514 101.983C396.598 101.788 396.702 101.558 396.828 101.293C396.953 101.028 397.093 100.819 397.246 100.666C397.399 100.512 397.58 100.359 397.789 100.206C397.998 100.053 398.228 99.9898 398.479 100.018C398.883 100.018 399.239 100.101 399.545 100.269C399.852 100.436 400.068 100.589 400.193 100.728C400.319 100.868 400.395 101.007 400.423 101.146C400.451 101.23 400.472 101.272 400.486 101.272C400.5 101.272 400.556 101.223 400.653 101.126C401.322 100.401 402.096 100.039 402.973 100.039H403.036C403.705 100.039 404.207 100.324 404.541 100.896C404.653 101.16 404.708 101.418 404.708 101.669C404.708 102.087 404.618 102.422 404.437 102.672C404.256 102.923 404.074 103.084 403.893 103.153C403.712 103.223 403.538 103.251 403.371 103.237C403.092 103.237 402.869 103.16 402.702 103.007C402.535 102.854 402.451 102.652 402.451 102.401C402.451 101.732 402.841 101.286 403.621 101.063C403.315 100.882 403.064 100.791 402.869 100.791C402.089 100.791 401.371 101.307 400.716 102.338C400.577 102.561 400.472 102.791 400.402 103.028C400.333 103.265 400.096 104.191 399.692 105.808C399.218 107.759 398.946 108.797 398.876 108.923C398.695 109.299 398.396 109.487 397.978 109.487C397.796 109.487 397.65 109.445 397.539 109.362C397.427 109.278 397.35 109.194 397.309 109.111C397.267 109.027 397.253 108.957 397.267 108.902C397.267 108.72 397.546 107.522 398.103 105.306C398.66 103.09 398.939 101.857 398.939 101.606C398.939 101.063 398.758 100.791 398.396 100.791C398.103 100.791 397.852 100.986 397.643 101.376C397.434 101.767 397.267 102.192 397.141 102.652C397.016 103.111 396.939 103.362 396.911 103.404C396.884 103.432 396.772 103.446 396.577 103.446H396.284C396.201 103.362 396.159 103.3 396.159 103.258Z" fill="white"/>
<path d="M347.951 175.823C348.537 176.409 349.487 176.409 350.072 175.823C350.658 175.237 350.658 174.287 350.072 173.702L347.951 175.823ZM308 133.75L312.482 150.48L324.73 138.233L308 133.75ZM350.072 173.702L318.606 142.235L316.485 144.357L347.951 175.823L350.072 173.702Z" fill="#20C831"/>
<path d="M289.021 134.984C289.035 134.984 289.541 134.949 290.539 134.878C291.537 134.807 292.05 134.764 292.078 134.75C292.247 134.75 292.331 134.807 292.331 134.92C292.331 135.02 291.818 137.165 290.792 141.355C289.766 145.545 289.239 147.683 289.211 147.768C289.183 147.854 289.176 147.96 289.19 148.088C289.19 148.685 289.387 148.983 289.78 148.983C289.907 148.969 290.047 148.905 290.202 148.791C290.497 148.507 290.785 147.825 291.066 146.746C291.151 146.462 291.221 146.312 291.277 146.298C291.305 146.284 291.375 146.277 291.488 146.277H291.657C291.867 146.277 291.973 146.334 291.973 146.447C291.973 146.518 291.952 146.632 291.91 146.788C291.727 147.499 291.516 148.074 291.277 148.514C291.038 148.955 290.841 149.239 290.687 149.366C290.532 149.494 290.335 149.608 290.096 149.707C289.984 149.736 289.815 149.75 289.59 149.75C289.112 149.75 288.712 149.643 288.389 149.43C288.065 149.217 287.854 148.997 287.756 148.77L287.63 148.45C287.615 148.436 287.587 148.443 287.545 148.472C287.517 148.5 287.489 148.528 287.461 148.557C286.632 149.352 285.788 149.75 284.931 149.75C284.158 149.75 283.476 149.466 282.886 148.898C282.295 148.33 282 147.428 282 146.192C282 145.51 282.141 144.814 282.422 144.104C282.703 143.393 283.04 142.783 283.434 142.271C284.094 141.462 284.755 140.901 285.416 140.588C286.076 140.276 286.674 140.119 287.208 140.119C287.995 140.119 288.585 140.418 288.979 141.014C289.049 141.099 289.084 141.128 289.084 141.099C289.098 141.043 289.288 140.268 289.654 138.777C290.019 137.286 290.216 136.497 290.244 136.412C290.244 136.227 290.195 136.114 290.096 136.071C289.998 136.028 289.724 135.993 289.274 135.964H288.831C288.747 135.879 288.705 135.822 288.705 135.794C288.705 135.766 288.719 135.631 288.747 135.389C288.817 135.119 288.909 134.984 289.021 134.984ZM288.726 142.591C288.403 141.469 287.875 140.908 287.145 140.908C286.653 140.908 286.182 141.128 285.732 141.568C285.282 142.009 284.931 142.584 284.678 143.294C284.27 144.416 283.982 145.581 283.813 146.788C283.813 146.831 283.813 146.909 283.813 147.023C283.813 147.136 283.806 147.222 283.792 147.278C283.792 147.918 283.919 148.358 284.172 148.599C284.425 148.841 284.727 148.969 285.078 148.983C285.837 148.983 286.617 148.472 287.419 147.449L287.587 147.214L288.726 142.591Z" fill="white"/>
<path d="M293.027 146.192C293.027 144.757 293.561 143.393 294.63 142.101C295.698 140.808 296.9 140.155 298.235 140.141C298.952 140.141 299.584 140.489 300.133 141.185C300.357 140.759 300.681 140.545 301.102 140.545C301.285 140.545 301.447 140.602 301.587 140.716C301.728 140.83 301.798 140.972 301.798 141.142C301.798 141.327 301.538 142.463 301.018 144.551C300.498 146.639 300.231 147.818 300.217 148.088C300.217 148.443 300.266 148.678 300.364 148.791C300.463 148.905 300.61 148.969 300.807 148.983C300.934 148.969 301.074 148.905 301.229 148.791C301.524 148.507 301.812 147.825 302.093 146.746C302.178 146.462 302.248 146.312 302.304 146.298C302.332 146.284 302.403 146.277 302.515 146.277H302.599C302.866 146.277 303 146.341 303 146.469C303 146.554 302.965 146.746 302.895 147.044C302.824 147.342 302.684 147.726 302.473 148.195C302.262 148.663 302.037 149.018 301.798 149.26C301.615 149.445 301.391 149.594 301.123 149.707C301.011 149.736 300.842 149.75 300.617 149.75C300.14 149.75 299.739 149.643 299.416 149.43C299.092 149.217 298.882 148.997 298.783 148.77L298.657 148.45C298.643 148.436 298.614 148.443 298.572 148.472C298.544 148.5 298.516 148.528 298.488 148.557C297.659 149.352 296.815 149.75 295.958 149.75C295.185 149.75 294.503 149.466 293.913 148.898C293.322 148.33 293.027 147.428 293.027 146.192ZM299.732 142.548C299.732 142.463 299.697 142.307 299.627 142.08C299.556 141.852 299.395 141.604 299.142 141.334C298.889 141.064 298.565 140.922 298.172 140.908C297.68 140.908 297.209 141.128 296.759 141.568C296.309 142.009 295.958 142.584 295.705 143.294C295.297 144.416 295.009 145.581 294.84 146.788C294.84 146.831 294.84 146.909 294.84 147.023C294.84 147.136 294.833 147.222 294.819 147.278C294.819 147.918 294.946 148.358 295.199 148.599C295.452 148.841 295.754 148.969 296.105 148.983C296.64 148.983 297.167 148.749 297.687 148.28C298.207 147.811 298.516 147.449 298.614 147.193C298.643 147.136 298.832 146.376 299.184 144.913C299.535 143.45 299.718 142.662 299.732 142.548Z" fill="white"/>
<path d="M314.191 110.652C314.972 109.523 316.038 108.959 317.389 108.959C318.058 108.959 318.727 109.14 319.396 109.502C320.064 109.865 320.608 110.506 321.026 111.425C321.541 112.582 321.799 114.17 321.799 116.191C321.799 118.35 321.5 120.002 320.9 121.144C320.622 121.729 320.239 122.196 319.751 122.545C319.263 122.893 318.838 123.109 318.476 123.192C318.114 123.276 317.758 123.325 317.41 123.339C317.048 123.339 316.686 123.297 316.323 123.213C315.961 123.13 315.536 122.907 315.048 122.545C314.561 122.182 314.177 121.715 313.899 121.144C313.3 120.002 313 118.35 313 116.191C313 113.766 313.397 111.92 314.191 110.652ZM318.894 110.401C318.476 109.955 317.981 109.732 317.41 109.732C316.825 109.732 316.323 109.955 315.905 110.401C315.557 110.763 315.327 111.265 315.215 111.906C315.104 112.547 315.048 113.885 315.048 115.919C315.048 118.121 315.104 119.57 315.215 120.266C315.327 120.963 315.578 121.513 315.968 121.918C316.358 122.336 316.839 122.545 317.41 122.545C317.967 122.545 318.441 122.336 318.831 121.918C319.235 121.499 319.486 120.914 319.584 120.162C319.681 119.409 319.737 117.995 319.751 115.919C319.751 113.899 319.695 112.568 319.584 111.927C319.472 111.286 319.242 110.777 318.894 110.401Z" fill="white"/>
<path d="M324.266 121.625C324.266 121.29 324.384 120.998 324.621 120.747C324.858 120.496 325.157 120.371 325.52 120.371C325.854 120.371 326.147 120.482 326.397 120.705C326.648 120.928 326.781 121.228 326.795 121.604C326.795 121.952 326.676 122.252 326.439 122.503C326.202 122.754 325.903 122.879 325.54 122.879C325.178 122.879 324.879 122.761 324.642 122.524C324.405 122.287 324.279 121.987 324.266 121.625Z" fill="white"/>
<path d="M329.616 113.306C329.63 113.279 329.749 112.519 329.971 111.028L330.306 108.792C330.306 108.764 330.445 108.75 330.724 108.75H331.142V108.834C331.142 108.973 331.246 109.091 331.455 109.189C331.664 109.286 332.027 109.349 332.542 109.377C333.058 109.405 334.235 109.419 336.074 109.419H338.603V110.234L337.182 112.178C337.057 112.345 336.848 112.624 336.555 113.014C336.263 113.404 336.074 113.662 335.991 113.787C335.907 113.912 335.761 114.135 335.552 114.456C335.343 114.776 335.204 115.027 335.134 115.208C335.064 115.389 334.967 115.647 334.841 115.982C334.716 116.316 334.625 116.637 334.57 116.943C334.514 117.25 334.458 117.626 334.402 118.072C334.347 118.518 334.305 118.991 334.277 119.493C334.249 119.995 334.228 120.566 334.214 121.207C334.214 121.402 334.214 121.597 334.214 121.792C334.214 121.987 334.207 122.154 334.193 122.294V122.482C334.138 122.719 334.005 122.921 333.796 123.088C333.587 123.255 333.35 123.339 333.086 123.339C332.932 123.339 332.786 123.318 332.647 123.276C332.507 123.234 332.361 123.102 332.208 122.879C332.055 122.656 331.978 122.377 331.978 122.043C331.978 119.841 332.654 117.556 334.005 115.187C334.284 114.742 334.869 113.899 335.761 112.658L336.722 111.342H334.779C332.354 111.342 331.079 111.384 330.954 111.467C330.87 111.509 330.794 111.676 330.724 111.969C330.654 112.261 330.585 112.561 330.515 112.867L330.452 113.306V113.369H329.616V113.306Z" fill="white"/>
</g>
<defs>
<clipPath id="clip0_588_6842">
<rect width="700" height="232" fill="white" transform="translate(0 0.75)"/>
</clipPath>
<clipPath id="clip1_588_6842">
<rect width="1284" height="1284" fill="white" transform="translate(-292.5 -466.75)"/>
</clipPath>
</defs>
</svg>
