<svg width="700" height="233" viewBox="0 0 700 233" fill="none" xmlns="http://www.w3.org/2000/svg">
<g clip-path="url(#clip0_588_6853)">
<rect width="700" height="232" transform="translate(0 0.75)" fill="#0A0D12"/>
<g clip-path="url(#clip1_588_6853)">
<rect width="1284" height="1284" transform="translate(-292.5 -466.75)" fill="#0A0D12"/>
<g opacity="0.4">
<line x1="408.656" y1="-1108.75" x2="408.656" y2="1459.25" stroke="#67DBFF" stroke-width="0.917143"/>
<line x1="467.353" y1="-1108.75" x2="467.353" y2="1459.25" stroke="#67DBFF" stroke-width="0.917143"/>
<line x1="526.05" y1="-1108.75" x2="526.05" y2="1459.25" stroke="#67DBFF" stroke-width="0.917143"/>
<line x1="584.748" y1="-1108.75" x2="584.747" y2="1459.25" stroke="#67DBFF" stroke-width="0.917143"/>
<line x1="643.444" y1="-1108.75" x2="643.444" y2="1459.25" stroke="#67DBFF" stroke-width="0.917143"/>
<line x1="56.4732" y1="-1108.75" x2="56.473" y2="1459.25" stroke="#67DBFF" stroke-width="0.917143"/>
<line x1="115.17" y1="-1108.75" x2="115.169" y2="1459.25" stroke="#67DBFF" stroke-width="0.917143"/>
<line x1="173.867" y1="-1108.75" x2="173.867" y2="1459.25" stroke="#67DBFF" stroke-width="0.917143"/>
<line x1="232.564" y1="-1108.75" x2="232.564" y2="1459.25" stroke="#67DBFF" stroke-width="0.917143"/>
<line x1="291.261" y1="-1108.75" x2="291.261" y2="1459.25" stroke="#67DBFF" stroke-width="0.917143"/>
<line x1="-934.5" y1="116.094" x2="1633.5" y2="116.094" stroke="#67DBFF" stroke-width="0.917143"/>
<line x1="-934.5" y1="57.3971" x2="1633.5" y2="57.3971" stroke="#67DBFF" stroke-width="0.917143"/>
</g>
<line x1="349.959" y1="-1108.75" x2="349.958" y2="1459.25" stroke="#E6E6E6" stroke-width="0.917143"/>
<line x1="-934.5" y1="174.791" x2="1633.5" y2="174.791" stroke="#E6E6E6" stroke-width="0.917143"/>
</g>
<path d="M350 173.058L390.277 134.549L350 95.9422L309.723 134.451L350 173.058Z" fill="#18C8FF" fill-opacity="0.3" stroke="#67DBFF"/>
<path d="M348.939 173.689C348.354 174.275 348.354 175.225 348.939 175.811C349.525 176.396 350.475 176.396 351.061 175.811L348.939 173.689ZM390 134.75L373.27 139.233L385.517 151.48L390 134.75ZM351.061 175.811L381.515 145.357L379.393 143.235L348.939 173.689L351.061 175.811Z" fill="#006AE7"/>
<path d="M401.959 134.98C401.973 134.98 402.475 134.945 403.464 134.875C404.453 134.806 404.962 134.764 404.99 134.75C405.157 134.75 405.241 134.806 405.241 134.917C405.241 135.015 404.732 137.119 403.715 141.229C402.698 145.339 402.175 147.436 402.148 147.519C402.12 147.603 402.113 147.708 402.127 147.833C402.127 148.418 402.322 148.711 402.712 148.711C402.837 148.697 402.977 148.634 403.13 148.523C403.422 148.244 403.708 147.575 403.987 146.516C404.07 146.238 404.14 146.091 404.196 146.077C404.224 146.063 404.293 146.057 404.405 146.057H404.572C404.781 146.057 404.885 146.112 404.885 146.224C404.885 146.293 404.864 146.405 404.823 146.558C404.642 147.255 404.433 147.819 404.196 148.251C403.959 148.683 403.764 148.962 403.61 149.087C403.457 149.212 403.262 149.324 403.025 149.421C402.914 149.449 402.747 149.463 402.524 149.463C402.05 149.463 401.653 149.359 401.332 149.15C401.012 148.941 400.803 148.725 400.705 148.502L400.58 148.188C400.566 148.174 400.538 148.181 400.497 148.209C400.469 148.237 400.441 148.265 400.413 148.293C399.591 149.073 398.755 149.463 397.905 149.463C397.139 149.463 396.463 149.184 395.878 148.627C395.293 148.07 395 147.185 395 145.973C395 145.304 395.139 144.621 395.418 143.925C395.697 143.228 396.031 142.629 396.421 142.127C397.076 141.333 397.731 140.783 398.386 140.476C399.041 140.17 399.633 140.017 400.162 140.017C400.942 140.017 401.528 140.309 401.918 140.894C401.987 140.978 402.022 141.006 402.022 140.978C402.036 140.922 402.224 140.163 402.586 138.7C402.949 137.237 403.144 136.464 403.172 136.38C403.172 136.199 403.123 136.088 403.025 136.046C402.928 136.004 402.656 135.969 402.21 135.941H401.771C401.688 135.858 401.646 135.802 401.646 135.774C401.646 135.746 401.66 135.614 401.688 135.377C401.757 135.112 401.848 134.98 401.959 134.98ZM401.667 142.441C401.346 141.34 400.824 140.79 400.099 140.79C399.612 140.79 399.145 141.006 398.699 141.438C398.253 141.87 397.905 142.434 397.654 143.131C397.25 144.231 396.965 145.374 396.797 146.558C396.797 146.6 396.797 146.677 396.797 146.788C396.797 146.899 396.79 146.983 396.776 147.039C396.776 147.666 396.902 148.098 397.153 148.335C397.403 148.571 397.703 148.697 398.051 148.711C398.804 148.711 399.577 148.209 400.371 147.206L400.538 146.976L401.667 142.441Z" fill="white"/>
<path d="M406.766 135.732C406.766 135.593 406.794 135.433 406.85 135.252C406.906 135.07 406.989 134.98 407.101 134.98C407.115 134.98 407.616 134.945 408.605 134.875C409.595 134.806 410.103 134.764 410.131 134.75C410.298 134.75 410.382 134.813 410.382 134.938C410.382 135.063 410.145 136.06 409.671 137.927C409.56 138.4 409.441 138.888 409.316 139.39C409.191 139.891 409.086 140.267 409.003 140.518L408.919 140.915C408.919 140.957 408.961 140.936 409.044 140.853C409.727 140.295 410.431 140.017 411.155 140.017C412.019 140.017 412.716 140.337 413.245 140.978C413.775 141.619 414.046 142.427 414.06 143.402C414.06 144.949 413.51 146.349 412.409 147.603C411.308 148.857 410.124 149.484 408.856 149.484C408.16 149.484 407.526 149.219 406.954 148.69C406.383 148.16 406.091 147.303 406.077 146.119V145.931C406.077 145.639 406.132 145.234 406.244 144.719C406.355 144.203 406.697 142.831 407.268 140.602C407.965 137.857 408.313 136.401 408.313 136.234C408.313 136.067 408.048 135.969 407.519 135.941C407.449 135.941 407.393 135.941 407.351 135.941H407.247C407.108 135.941 407.017 135.941 406.975 135.941C406.933 135.941 406.885 135.92 406.829 135.879C406.773 135.837 406.752 135.788 406.766 135.732ZM412.263 142.462V142.336C412.263 141.305 411.838 140.79 410.988 140.79C410.751 140.79 410.507 140.846 410.256 140.957C410.006 141.069 409.776 141.215 409.567 141.396C409.358 141.577 409.177 141.744 409.023 141.898C408.87 142.051 408.745 142.204 408.647 142.357L408.522 142.525L408.083 144.322C407.776 145.52 407.623 146.37 407.623 146.872C407.623 147.54 407.79 148.042 408.125 148.376C408.348 148.599 408.626 148.711 408.961 148.711C409.42 148.711 409.887 148.488 410.361 148.042C410.709 147.721 410.988 147.331 411.197 146.872C411.406 146.412 411.636 145.68 411.887 144.677C412.137 143.674 412.263 142.936 412.263 142.462Z" fill="white"/>
<path d="M347.951 175.823C348.537 176.409 349.487 176.409 350.072 175.823C350.658 175.237 350.658 174.287 350.072 173.702L347.951 175.823ZM308 133.75L312.482 150.48L324.73 138.233L308 133.75ZM350.072 173.702L318.606 142.235L316.485 144.357L347.951 175.823L350.072 173.702Z" fill="#20C831"/>
<path d="M289.021 134.984C289.035 134.984 289.541 134.949 290.539 134.878C291.537 134.807 292.05 134.764 292.078 134.75C292.247 134.75 292.331 134.807 292.331 134.92C292.331 135.02 291.818 137.165 290.792 141.355C289.766 145.545 289.239 147.683 289.211 147.768C289.183 147.854 289.176 147.96 289.19 148.088C289.19 148.685 289.387 148.983 289.78 148.983C289.907 148.969 290.047 148.905 290.202 148.791C290.497 148.507 290.785 147.825 291.066 146.746C291.151 146.462 291.221 146.312 291.277 146.298C291.305 146.284 291.375 146.277 291.488 146.277H291.657C291.867 146.277 291.973 146.334 291.973 146.447C291.973 146.518 291.952 146.632 291.91 146.788C291.727 147.499 291.516 148.074 291.277 148.514C291.038 148.955 290.841 149.239 290.687 149.366C290.532 149.494 290.335 149.608 290.096 149.707C289.984 149.736 289.815 149.75 289.59 149.75C289.112 149.75 288.712 149.643 288.389 149.43C288.065 149.217 287.854 148.997 287.756 148.77L287.63 148.45C287.615 148.436 287.587 148.443 287.545 148.472C287.517 148.5 287.489 148.528 287.461 148.557C286.632 149.352 285.788 149.75 284.931 149.75C284.158 149.75 283.476 149.466 282.886 148.898C282.295 148.33 282 147.428 282 146.192C282 145.51 282.141 144.814 282.422 144.104C282.703 143.393 283.04 142.783 283.434 142.271C284.094 141.462 284.755 140.901 285.416 140.588C286.076 140.276 286.674 140.119 287.208 140.119C287.995 140.119 288.585 140.418 288.979 141.014C289.049 141.099 289.084 141.128 289.084 141.099C289.098 141.043 289.288 140.268 289.654 138.777C290.019 137.286 290.216 136.497 290.244 136.412C290.244 136.227 290.195 136.114 290.096 136.071C289.998 136.028 289.724 135.993 289.274 135.964H288.831C288.747 135.879 288.705 135.822 288.705 135.794C288.705 135.766 288.719 135.631 288.747 135.389C288.817 135.119 288.909 134.984 289.021 134.984ZM288.726 142.591C288.403 141.469 287.875 140.908 287.145 140.908C286.653 140.908 286.182 141.128 285.732 141.568C285.282 142.009 284.931 142.584 284.678 143.294C284.27 144.416 283.982 145.581 283.813 146.788C283.813 146.831 283.813 146.909 283.813 147.023C283.813 147.136 283.806 147.222 283.792 147.278C283.792 147.918 283.919 148.358 284.172 148.599C284.425 148.841 284.727 148.969 285.078 148.983C285.837 148.983 286.617 148.472 287.419 147.449L287.587 147.214L288.726 142.591Z" fill="white"/>
<path d="M293.027 146.192C293.027 144.757 293.561 143.393 294.63 142.101C295.698 140.808 296.9 140.155 298.235 140.141C298.952 140.141 299.584 140.489 300.133 141.185C300.357 140.759 300.681 140.545 301.102 140.545C301.285 140.545 301.447 140.602 301.587 140.716C301.728 140.83 301.798 140.972 301.798 141.142C301.798 141.327 301.538 142.463 301.018 144.551C300.498 146.639 300.231 147.818 300.217 148.088C300.217 148.443 300.266 148.678 300.364 148.791C300.463 148.905 300.61 148.969 300.807 148.983C300.934 148.969 301.074 148.905 301.229 148.791C301.524 148.507 301.812 147.825 302.093 146.746C302.178 146.462 302.248 146.312 302.304 146.298C302.332 146.284 302.403 146.277 302.515 146.277H302.599C302.866 146.277 303 146.341 303 146.469C303 146.554 302.965 146.746 302.895 147.044C302.824 147.342 302.684 147.726 302.473 148.195C302.262 148.663 302.037 149.018 301.798 149.26C301.615 149.445 301.391 149.594 301.123 149.707C301.011 149.736 300.842 149.75 300.617 149.75C300.14 149.75 299.739 149.643 299.416 149.43C299.092 149.217 298.882 148.997 298.783 148.77L298.657 148.45C298.643 148.436 298.614 148.443 298.572 148.472C298.544 148.5 298.516 148.528 298.488 148.557C297.659 149.352 296.815 149.75 295.958 149.75C295.185 149.75 294.503 149.466 293.913 148.898C293.322 148.33 293.027 147.428 293.027 146.192ZM299.732 142.548C299.732 142.463 299.697 142.307 299.627 142.08C299.556 141.852 299.395 141.604 299.142 141.334C298.889 141.064 298.565 140.922 298.172 140.908C297.68 140.908 297.209 141.128 296.759 141.568C296.309 142.009 295.958 142.584 295.705 143.294C295.297 144.416 295.009 145.581 294.84 146.788C294.84 146.831 294.84 146.909 294.84 147.023C294.84 147.136 294.833 147.222 294.819 147.278C294.819 147.918 294.946 148.358 295.199 148.599C295.452 148.841 295.754 148.969 296.105 148.983C296.64 148.983 297.167 148.749 297.687 148.28C298.207 147.811 298.516 147.449 298.614 147.193C298.643 147.136 298.832 146.376 299.184 144.913C299.535 143.45 299.718 142.662 299.732 142.548Z" fill="white"/>
<path d="M356.716 121.589L356.445 121.693C356.25 121.763 355.971 121.833 355.609 121.902C355.247 121.972 354.843 122.021 354.397 122.048H354V121.087H354.397C355.052 121.059 355.658 120.955 356.215 120.774C356.772 120.593 357.162 120.426 357.385 120.272C357.608 120.119 357.803 119.966 357.97 119.813C357.998 119.771 358.082 119.75 358.221 119.75C358.346 119.75 358.465 119.792 358.576 119.875V126.123L358.597 132.392C358.694 132.489 358.778 132.552 358.848 132.58C358.917 132.607 359.084 132.635 359.349 132.663C359.614 132.691 360.046 132.705 360.645 132.705H361.188V133.666H360.958C360.666 133.624 359.558 133.603 357.636 133.603C355.741 133.603 354.648 133.624 354.355 133.666H354.104V132.705H354.648C354.954 132.705 355.219 132.705 355.442 132.705C355.665 132.705 355.839 132.698 355.964 132.684C356.09 132.67 356.201 132.649 356.298 132.621C356.396 132.594 356.452 132.58 356.466 132.58C356.48 132.58 356.521 132.545 356.591 132.475C356.661 132.405 356.702 132.378 356.716 132.392V121.589Z" fill="white"/>
<path d="M155.96 33.1504C155.974 33.1504 156.476 33.1155 157.465 33.0458C158.454 32.9762 158.963 32.9344 158.991 32.9204C159.158 32.9204 159.241 32.9762 159.241 33.0877C159.241 33.1852 158.733 35.2892 157.716 39.3997C156.698 43.5102 156.176 45.6072 156.148 45.6908C156.12 45.7744 156.113 45.8789 156.127 46.0043C156.127 46.5896 156.322 46.8822 156.712 46.8822C156.838 46.8682 156.977 46.8055 157.13 46.6941C157.423 46.4154 157.709 45.7466 157.987 44.6876C158.071 44.4089 158.141 44.2626 158.196 44.2487C158.224 44.2347 158.294 44.2278 158.405 44.2278H158.573C158.782 44.2278 158.886 44.2835 158.886 44.395C158.886 44.4647 158.865 44.5761 158.823 44.7294C158.642 45.4261 158.433 45.9904 158.196 46.4224C157.959 46.8543 157.764 47.133 157.611 47.2584C157.458 47.3838 157.263 47.4953 157.026 47.5928C156.914 47.6207 156.747 47.6346 156.524 47.6346C156.051 47.6346 155.653 47.5301 155.333 47.3211C155.012 47.1121 154.803 46.8961 154.706 46.6732L154.581 46.3597C154.567 46.3457 154.539 46.3527 154.497 46.3806C154.469 46.4084 154.441 46.4363 154.413 46.4642C153.591 47.2445 152.755 47.6346 151.905 47.6346C151.139 47.6346 150.463 47.3559 149.878 46.7986C149.293 46.2412 149 45.3564 149 44.1442C149 43.4753 149.139 42.7926 149.418 42.0959C149.697 41.3992 150.031 40.8 150.421 40.2984C151.076 39.5042 151.731 38.9538 152.386 38.6473C153.041 38.3407 153.633 38.1874 154.162 38.1874C154.943 38.1874 155.528 38.4801 155.918 39.0653C155.988 39.1489 156.023 39.1768 156.023 39.1489C156.037 39.0931 156.225 38.3338 156.587 36.8707C156.949 35.4076 157.144 34.6343 157.172 34.5507C157.172 34.3696 157.123 34.2581 157.026 34.2163C156.928 34.1745 156.657 34.1397 156.211 34.1118H155.772C155.688 34.0282 155.646 33.9725 155.646 33.9446C155.646 33.9167 155.66 33.7843 155.688 33.5475C155.758 33.2827 155.848 33.1504 155.96 33.1504ZM155.667 40.6119C155.347 39.5112 154.824 38.9608 154.1 38.9608C153.612 38.9608 153.145 39.1768 152.699 39.6087C152.254 40.0407 151.905 40.605 151.654 41.3017C151.25 42.4024 150.965 43.545 150.797 44.7294C150.797 44.7712 150.797 44.8478 150.797 44.9593C150.797 45.0708 150.791 45.1544 150.777 45.2101C150.777 45.8371 150.902 46.2691 151.153 46.506C151.404 46.7428 151.703 46.8682 152.052 46.8822C152.804 46.8822 153.577 46.3806 154.372 45.3773L154.539 45.1474L155.667 40.6119Z" fill="white"/>
<path d="M160.057 43.9143C160.057 43.12 160.189 42.3955 160.454 41.7406C160.718 41.0857 161.06 40.5423 161.478 40.1103C161.896 39.6784 162.363 39.3161 162.878 39.0235C163.394 38.7309 163.881 38.5149 164.341 38.3756C164.801 38.2362 165.24 38.1735 165.658 38.1874H165.721C166.348 38.1874 166.891 38.3407 167.351 38.6473C167.811 38.9538 168.041 39.4067 168.041 40.0058C168.041 41.2599 167.267 42.082 165.721 42.4721C165.038 42.6533 164.104 42.7508 162.92 42.7647C162.404 42.7647 162.14 42.7787 162.126 42.8065C162.126 42.8344 162.084 43.0782 162 43.5381C161.917 43.9979 161.868 44.402 161.854 44.7503C161.854 45.4052 162 45.9207 162.293 46.297C162.586 46.6732 163.024 46.8682 163.61 46.8822C164.195 46.8961 164.843 46.7637 165.553 46.4851C166.264 46.2064 166.905 45.7466 167.476 45.1056C167.602 44.9663 167.685 44.8966 167.727 44.8966C167.783 44.8966 167.873 44.9593 167.999 45.0847C168.124 45.2101 168.194 45.3077 168.208 45.3773C168.222 45.447 168.159 45.5585 168.02 45.7117C167.88 45.865 167.671 46.0531 167.393 46.2761C167.114 46.499 166.794 46.715 166.431 46.924C166.069 47.133 165.63 47.3072 165.115 47.4465C164.599 47.5858 164.069 47.6555 163.526 47.6555C162.425 47.6555 161.575 47.2863 160.976 46.5478C160.377 45.8093 160.07 44.9314 160.057 43.9143ZM167.037 40.0476C166.954 39.3231 166.48 38.9608 165.616 38.9608C165.156 38.9608 164.731 39.0583 164.341 39.2534C163.951 39.4485 163.638 39.6853 163.401 39.964C163.164 40.2427 162.962 40.5283 162.795 40.8209C162.627 41.1136 162.516 41.3644 162.46 41.5734C162.404 41.7824 162.37 41.9148 162.356 41.9705C162.356 41.9844 162.495 41.9914 162.774 41.9914C164.348 41.9914 165.449 41.8242 166.076 41.4898C166.703 41.1554 167.023 40.6746 167.037 40.0476Z" fill="white"/>
<path d="M169.545 39.3788C169.448 39.2813 169.399 39.2116 169.399 39.1698C169.399 39.114 169.42 39.0026 169.462 38.8354C169.504 38.6682 169.539 38.5706 169.566 38.5428C169.594 38.4731 169.657 38.4383 169.754 38.4383C169.852 38.4383 170.207 38.4313 170.82 38.4174H171.928L172.325 36.7453C172.367 36.592 172.416 36.39 172.472 36.1392C172.527 35.8884 172.576 35.7072 172.618 35.5957C172.66 35.4843 172.702 35.3449 172.743 35.1777C172.785 35.0105 172.841 34.8921 172.911 34.8224C172.98 34.7527 173.05 34.6691 173.12 34.5716C173.189 34.4741 173.287 34.4114 173.412 34.3835C173.538 34.3556 173.663 34.3417 173.788 34.3417C174.039 34.3556 174.213 34.4323 174.311 34.5716C174.408 34.7109 174.457 34.8433 174.457 34.9687C174.457 35.0663 174.394 35.3937 174.269 35.9511C174.144 36.5084 174.004 37.0588 173.851 37.6022L173.642 38.3756C173.642 38.4034 173.99 38.4174 174.687 38.4174H175.753C175.851 38.5149 175.899 38.5915 175.899 38.6473C175.899 38.9538 175.809 39.1977 175.628 39.3788H173.391L172.639 42.4094C172.095 44.6388 171.824 45.8371 171.824 46.0043C171.824 46.5896 172.012 46.8822 172.388 46.8822C172.876 46.8822 173.349 46.6453 173.809 46.1716C174.269 45.6978 174.638 45.1126 174.917 44.4159C174.945 44.3323 174.98 44.2835 175.021 44.2696C175.063 44.2556 175.168 44.2417 175.335 44.2278H175.419C175.628 44.2278 175.732 44.2835 175.732 44.395C175.732 44.4368 175.711 44.5204 175.669 44.6458C175.6 44.8687 175.474 45.1335 175.293 45.44C175.112 45.7466 174.875 46.074 174.583 46.4224C174.29 46.7707 173.935 47.0633 173.517 47.3002C173.099 47.5371 172.674 47.6555 172.242 47.6555C171.824 47.6555 171.427 47.551 171.05 47.342C170.674 47.133 170.402 46.7707 170.235 46.2552C170.207 46.1437 170.193 45.9556 170.193 45.6908V45.3146L170.925 42.3885C171.413 40.4238 171.663 39.4345 171.677 39.4206C171.677 39.3927 171.322 39.3788 170.611 39.3788H169.545Z" fill="white"/>
<path d="M178.512 42.2004C178.512 41.239 178.582 40.3263 178.721 39.4624C178.86 38.5985 179.021 37.853 179.202 37.226C179.383 36.599 179.641 35.9859 179.975 35.3867C180.309 34.7876 180.574 34.3208 180.769 33.9864C180.964 33.652 181.257 33.2897 181.647 32.8995C182.037 32.5094 182.267 32.2725 182.337 32.1889C182.406 32.1053 182.581 31.959 182.859 31.75H183.215C183.41 31.75 183.507 31.8127 183.507 31.9381C183.507 31.9799 183.389 32.1262 183.152 32.377C182.915 32.6278 182.629 32.9971 182.295 33.4848C181.961 33.9725 181.619 34.5716 181.271 35.2822C180.922 35.9929 180.63 36.9543 180.393 38.1665C180.156 39.3788 180.038 40.7234 180.038 42.2004C180.038 43.6774 180.156 45.015 180.393 46.2134C180.63 47.4117 180.916 48.3801 181.25 49.1186C181.584 49.8571 181.926 50.4562 182.274 50.916C182.622 51.3759 182.915 51.7451 183.152 52.0238C183.389 52.3025 183.507 52.4488 183.507 52.4627C183.507 52.5881 183.403 52.6508 183.194 52.6508H182.859L182.274 52.1492C180.964 50.9648 180.01 49.4878 179.411 47.7182C178.812 45.9486 178.512 44.1093 178.512 42.2004Z" fill="white"/>
<path d="M192.348 33.1504C192.362 33.1504 192.864 33.1155 193.853 33.0458C194.842 32.9762 195.351 32.9344 195.379 32.9204C195.546 32.9204 195.63 32.9762 195.63 33.0877C195.63 33.1852 195.121 35.2892 194.104 39.3997C193.087 43.5102 192.564 45.6072 192.536 45.6908C192.509 45.7744 192.502 45.8789 192.515 46.0043C192.515 46.5896 192.711 46.8822 193.101 46.8822C193.226 46.8682 193.365 46.8055 193.519 46.6941C193.811 46.4154 194.097 45.7466 194.376 44.6876C194.459 44.4089 194.529 44.2626 194.585 44.2487C194.613 44.2347 194.682 44.2278 194.794 44.2278H194.961C195.17 44.2278 195.274 44.2835 195.274 44.395C195.274 44.4647 195.253 44.5761 195.212 44.7294C195.031 45.4261 194.822 45.9904 194.585 46.4224C194.348 46.8543 194.153 47.133 193.999 47.2584C193.846 47.3838 193.651 47.4953 193.414 47.5928C193.303 47.6207 193.136 47.6346 192.913 47.6346C192.439 47.6346 192.042 47.5301 191.721 47.3211C191.401 47.1121 191.192 46.8961 191.094 46.6732L190.969 46.3597C190.955 46.3457 190.927 46.3527 190.885 46.3806C190.857 46.4084 190.829 46.4363 190.802 46.4642C189.98 47.2445 189.143 47.6346 188.294 47.6346C187.527 47.6346 186.851 47.3559 186.266 46.7986C185.681 46.2412 185.388 45.3564 185.388 44.1442C185.388 43.4753 185.528 42.7926 185.806 42.0959C186.085 41.3992 186.419 40.8 186.81 40.2984C187.464 39.5042 188.119 38.9538 188.774 38.6473C189.429 38.3407 190.021 38.1874 190.551 38.1874C191.331 38.1874 191.916 38.4801 192.306 39.0653C192.376 39.1489 192.411 39.1768 192.411 39.1489C192.425 39.0931 192.613 38.3338 192.975 36.8707C193.338 35.4076 193.533 34.6343 193.561 34.5507C193.561 34.3696 193.512 34.2581 193.414 34.2163C193.317 34.1745 193.045 34.1397 192.599 34.1118H192.16C192.077 34.0282 192.035 33.9725 192.035 33.9446C192.035 33.9167 192.049 33.7843 192.077 33.5475C192.146 33.2827 192.237 33.1504 192.348 33.1504ZM192.056 40.6119C191.735 39.5112 191.213 38.9608 190.488 38.9608C190 38.9608 189.534 39.1768 189.088 39.6087C188.642 40.0407 188.294 40.605 188.043 41.3017C187.639 42.4024 187.353 43.545 187.186 44.7294C187.186 44.7712 187.186 44.8478 187.186 44.9593C187.186 45.0708 187.179 45.1544 187.165 45.2101C187.165 45.8371 187.29 46.2691 187.541 46.506C187.792 46.7428 188.091 46.8682 188.44 46.8822C189.192 46.8822 189.966 46.3806 190.76 45.3773L190.927 45.1474L192.056 40.6119Z" fill="white"/>
<path d="M197.155 33.9028C197.155 33.7634 197.183 33.6032 197.239 33.4221C197.295 33.2409 197.378 33.1504 197.49 33.1504C197.504 33.1504 198.005 33.1155 198.995 33.0458C199.984 32.9762 200.493 32.9344 200.52 32.9204C200.688 32.9204 200.771 32.9831 200.771 33.1086C200.771 33.234 200.534 34.2302 200.061 36.0974C199.949 36.5711 199.831 37.0588 199.705 37.5604C199.58 38.062 199.475 38.4383 199.392 38.6891L199.308 39.0862C199.308 39.128 199.35 39.1071 199.434 39.0235C200.116 38.4661 200.82 38.1874 201.545 38.1874C202.409 38.1874 203.105 38.5079 203.635 39.1489C204.164 39.7898 204.436 40.598 204.45 41.5734C204.45 43.12 203.899 44.5204 202.799 45.7744C201.698 47.0285 200.514 47.6555 199.246 47.6555C198.549 47.6555 197.915 47.3908 197.344 46.8613C196.772 46.3318 196.48 45.4749 196.466 44.2905V44.1024C196.466 43.8098 196.521 43.4057 196.633 42.8901C196.744 42.3746 197.086 41.0021 197.657 38.7727C198.354 36.0277 198.702 34.5716 198.702 34.4044C198.702 34.2372 198.437 34.1397 197.908 34.1118C197.838 34.1118 197.782 34.1118 197.741 34.1118H197.636C197.497 34.1118 197.406 34.1118 197.364 34.1118C197.323 34.1118 197.274 34.0909 197.218 34.0491C197.162 34.0073 197.142 33.9585 197.155 33.9028ZM202.652 40.6328V40.5074C202.652 39.4763 202.227 38.9608 201.377 38.9608C201.141 38.9608 200.897 39.0165 200.646 39.128C200.395 39.2395 200.165 39.3858 199.956 39.5669C199.747 39.748 199.566 39.9152 199.413 40.0685C199.259 40.2218 199.134 40.3751 199.037 40.5283L198.911 40.6955L198.472 42.493C198.166 43.6913 198.012 44.5413 198.012 45.0429C198.012 45.7117 198.18 46.2134 198.514 46.5478C198.737 46.7707 199.016 46.8822 199.35 46.8822C199.81 46.8822 200.277 46.6592 200.75 46.2134C201.099 45.8929 201.377 45.5027 201.586 45.0429C201.795 44.5831 202.025 43.8516 202.276 42.8483C202.527 41.8451 202.652 41.1066 202.652 40.6328Z" fill="white"/>
<path d="M206.247 46.6941C206.247 46.6941 206.247 46.5199 206.247 46.1716C206.247 45.8232 206.359 45.5236 206.582 45.2728C206.805 45.022 207.104 44.8966 207.48 44.8966C207.871 44.8966 208.219 45.0708 208.525 45.4191C208.832 45.7675 208.992 46.3806 209.006 47.2584C209.006 47.7461 208.943 48.2198 208.818 48.6796C208.693 49.1395 208.546 49.5366 208.379 49.871C208.212 50.2054 208.031 50.4911 207.836 50.7279C207.641 50.9648 207.473 51.1529 207.334 51.2922C207.195 51.4316 207.104 51.4943 207.062 51.4804C207.007 51.4804 206.916 51.4177 206.791 51.2922C206.665 51.1668 206.603 51.0763 206.603 51.0205C206.603 50.9648 206.679 50.8533 206.833 50.6861C206.986 50.5189 207.16 50.3099 207.355 50.0591C207.55 49.8083 207.731 49.4599 207.898 49.0141C208.066 48.5682 208.177 48.0596 208.233 47.4883V47.2375L208.212 47.2584C208.184 47.2723 208.149 47.2863 208.107 47.3002C208.066 47.3141 208.024 47.335 207.982 47.3629C207.94 47.3908 207.878 47.4047 207.794 47.4047C207.71 47.4047 207.627 47.4117 207.543 47.4256C207.167 47.4256 206.86 47.3072 206.624 47.0703L206.247 46.6941Z" fill="white"/>
<path d="M221.568 33.1504C221.582 33.1504 222.083 33.1155 223.072 33.0458C224.062 32.9762 224.57 32.9344 224.598 32.9204C224.765 32.9204 224.849 32.9762 224.849 33.0877C224.849 33.1852 224.34 35.2892 223.323 39.3997C222.306 43.5102 221.784 45.6072 221.756 45.6908C221.728 45.7744 221.721 45.8789 221.735 46.0043C221.735 46.5896 221.93 46.8822 222.32 46.8822C222.445 46.8682 222.585 46.8055 222.738 46.6941C223.031 46.4154 223.316 45.7466 223.595 44.6876C223.679 44.4089 223.748 44.2626 223.804 44.2487C223.832 44.2347 223.901 44.2278 224.013 44.2278H224.18C224.389 44.2278 224.494 44.2835 224.494 44.395C224.494 44.4647 224.473 44.5761 224.431 44.7294C224.25 45.4261 224.041 45.9904 223.804 46.4224C223.567 46.8543 223.372 47.133 223.219 47.2584C223.065 47.3838 222.87 47.4953 222.634 47.5928C222.522 47.6207 222.355 47.6346 222.132 47.6346C221.658 47.6346 221.261 47.5301 220.941 47.3211C220.62 47.1121 220.411 46.8961 220.314 46.6732L220.188 46.3597C220.174 46.3457 220.146 46.3527 220.105 46.3806C220.077 46.4084 220.049 46.4363 220.021 46.4642C219.199 47.2445 218.363 47.6346 217.513 47.6346C216.746 47.6346 216.071 47.3559 215.485 46.7986C214.9 46.2412 214.608 45.3564 214.608 44.1442C214.608 43.4753 214.747 42.7926 215.026 42.0959C215.304 41.3992 215.639 40.8 216.029 40.2984C216.684 39.5042 217.339 38.9538 217.994 38.6473C218.648 38.3407 219.241 38.1874 219.77 38.1874C220.55 38.1874 221.136 38.4801 221.526 39.0653C221.595 39.1489 221.63 39.1768 221.63 39.1489C221.644 39.0931 221.832 38.3338 222.195 36.8707C222.557 35.4076 222.752 34.6343 222.78 34.5507C222.78 34.3696 222.731 34.2581 222.634 34.2163C222.536 34.1745 222.264 34.1397 221.818 34.1118H221.379C221.296 34.0282 221.254 33.9725 221.254 33.9446C221.254 33.9167 221.268 33.7843 221.296 33.5475C221.366 33.2827 221.456 33.1504 221.568 33.1504ZM221.275 40.6119C220.954 39.5112 220.432 38.9608 219.707 38.9608C219.22 38.9608 218.753 39.1768 218.307 39.6087C217.861 40.0407 217.513 40.605 217.262 41.3017C216.858 42.4024 216.572 43.545 216.405 44.7294C216.405 44.7712 216.405 44.8478 216.405 44.9593C216.405 45.0708 216.398 45.1544 216.384 45.2101C216.384 45.8371 216.51 46.2691 216.76 46.506C217.011 46.7428 217.311 46.8682 217.659 46.8822C218.412 46.8822 219.185 46.3806 219.979 45.3773L220.146 45.1474L221.275 40.6119Z" fill="white"/>
<path d="M225.539 44.1442C225.539 42.7369 226.068 41.3992 227.127 40.1312C228.186 38.8632 229.378 38.2223 230.701 38.2083C231.412 38.2083 232.039 38.5497 232.582 39.2325C232.805 38.8145 233.126 38.6055 233.544 38.6055C233.725 38.6055 233.885 38.6612 234.024 38.7727C234.164 38.8841 234.233 39.0235 234.233 39.1907C234.233 39.3718 233.976 40.4865 233.46 42.5348C232.945 44.5831 232.68 45.7396 232.666 46.0043C232.666 46.3527 232.715 46.5826 232.812 46.6941C232.91 46.8055 233.056 46.8682 233.251 46.8822C233.377 46.8682 233.516 46.8055 233.669 46.6941C233.962 46.4154 234.247 45.7466 234.526 44.6876C234.61 44.4089 234.679 44.2626 234.735 44.2487C234.763 44.2347 234.833 44.2278 234.944 44.2278H235.028C235.292 44.2278 235.425 44.2905 235.425 44.4159C235.425 44.4995 235.39 44.6876 235.32 44.9802C235.251 45.2728 235.111 45.649 234.902 46.1088C234.693 46.5687 234.47 46.917 234.233 47.1539C234.052 47.335 233.829 47.4813 233.565 47.5928C233.453 47.6207 233.286 47.6346 233.063 47.6346C232.589 47.6346 232.192 47.5301 231.872 47.3211C231.551 47.1121 231.342 46.8961 231.245 46.6732L231.119 46.3597C231.105 46.3457 231.077 46.3527 231.036 46.3806C231.008 46.4084 230.98 46.4363 230.952 46.4642C230.13 47.2445 229.294 47.6346 228.444 47.6346C227.678 47.6346 227.002 47.3559 226.417 46.7986C225.831 46.2412 225.539 45.3564 225.539 44.1442ZM232.185 40.5701C232.185 40.4865 232.15 40.3333 232.081 40.1103C232.011 39.8874 231.851 39.6435 231.6 39.3788C231.349 39.114 231.029 38.9747 230.639 38.9608C230.151 38.9608 229.684 39.1768 229.238 39.6087C228.792 40.0407 228.444 40.605 228.193 41.3017C227.789 42.4024 227.503 43.545 227.336 44.7294C227.336 44.7712 227.336 44.8478 227.336 44.9593C227.336 45.0708 227.329 45.1544 227.315 45.2101C227.315 45.8371 227.441 46.2691 227.692 46.506C227.942 46.7428 228.242 46.8682 228.59 46.8822C229.12 46.8822 229.642 46.6523 230.158 46.1925C230.673 45.7326 230.98 45.3773 231.077 45.1265C231.105 45.0708 231.293 44.3253 231.642 42.8901C231.99 41.4549 232.171 40.6816 232.185 40.5701Z" fill="white"/>
<path d="M237.18 31.7709L237.264 31.75C237.334 31.75 237.403 31.75 237.473 31.75H237.724L238.309 32.2516C239.619 33.436 240.573 34.913 241.173 36.6826C241.772 38.4522 242.071 40.2915 242.071 42.2004C242.071 43.1479 242.002 44.0606 241.862 44.9384C241.723 45.8162 241.563 46.5617 241.382 47.1748C241.2 47.7879 240.943 48.401 240.608 49.0141C240.274 49.6272 240.009 50.0939 239.814 50.4144C239.619 50.7349 239.333 51.0902 238.957 51.4804C238.581 51.8705 238.358 52.1004 238.288 52.1701C238.219 52.2398 238.058 52.3721 237.808 52.5672C237.766 52.609 237.738 52.6369 237.724 52.6508H237.473C237.362 52.6508 237.285 52.6508 237.243 52.6508C237.201 52.6508 237.167 52.6299 237.139 52.5881C237.111 52.5463 237.09 52.4836 237.076 52.4C237.09 52.3861 237.167 52.2955 237.306 52.1283C239.466 49.8849 240.546 46.5756 240.546 42.2004C240.546 37.8252 239.466 34.5159 237.306 32.2725C237.167 32.1053 237.09 32.0147 237.076 32.0008C237.076 31.8893 237.111 31.8127 237.18 31.7709Z" fill="white"/>
<path d="M251.602 34.5507C251.602 34.4392 251.644 34.3417 251.727 34.2581C251.811 34.1745 251.881 34.1327 251.936 34.1327C252.048 34.1327 253.121 34.6064 255.155 35.5539C257.19 36.5014 259.21 37.4559 261.216 38.4174C263.223 39.3788 264.226 39.8665 264.226 39.8804C264.324 39.9501 264.372 40.0546 264.372 40.1939C264.372 40.3333 264.324 40.4378 264.226 40.5074C264.198 40.5353 262.164 41.5037 258.123 43.4126L252.104 46.2552H251.978C251.727 46.2273 251.602 46.0879 251.602 45.8371C251.602 45.8232 251.602 45.8023 251.602 45.7744C251.588 45.6769 251.693 45.5654 251.916 45.44C252.18 45.3007 253.225 44.7991 255.051 43.9352C256.138 43.4196 257.043 42.9946 257.768 42.6602L262.951 40.1939L257.392 37.5604C256.43 37.1006 255.315 36.5711 254.047 35.972C252.821 35.4007 252.111 35.0593 251.916 34.9478C251.72 34.8364 251.616 34.704 251.602 34.5507ZM251.623 49.8919C251.623 49.7526 251.727 49.6132 251.936 49.4739H264.038C264.261 49.5575 264.372 49.6968 264.372 49.8919C264.372 50.0591 264.268 50.1984 264.059 50.3099H251.916C251.72 50.2124 251.623 50.073 251.623 49.8919Z" fill="white"/>
<path d="M273.945 35.1986C274.725 34.07 275.791 33.5057 277.143 33.5057C277.812 33.5057 278.48 33.6868 279.149 34.0491C279.818 34.4114 280.362 35.0523 280.78 35.972C281.295 37.1285 281.553 38.7169 281.553 40.7373C281.553 42.8971 281.253 44.5483 280.654 45.6908C280.375 46.2761 279.992 46.7428 279.505 47.0912C279.017 47.4395 278.592 47.6555 278.23 47.7391C277.867 47.8227 277.512 47.8715 277.164 47.8854C276.801 47.8854 276.439 47.8436 276.077 47.76C275.715 47.6764 275.29 47.4535 274.802 47.0912C274.314 46.7289 273.931 46.2621 273.652 45.6908C273.053 44.5483 272.754 42.8971 272.754 40.7373C272.754 38.3129 273.151 36.4666 273.945 35.1986ZM278.648 34.9478C278.23 34.5019 277.735 34.279 277.164 34.279C276.578 34.279 276.077 34.5019 275.659 34.9478C275.311 35.3101 275.081 35.8117 274.969 36.4527C274.858 37.0936 274.802 38.4313 274.802 40.4656C274.802 42.6672 274.858 44.1163 274.969 44.813C275.081 45.5097 275.331 46.0601 275.722 46.4642C276.112 46.8822 276.592 47.0912 277.164 47.0912C277.721 47.0912 278.195 46.8822 278.585 46.4642C278.989 46.0461 279.24 45.4609 279.337 44.7085C279.435 43.9561 279.491 42.5418 279.505 40.4656C279.505 38.4452 279.449 37.1145 279.337 36.4736C279.226 35.8326 278.996 35.324 278.648 34.9478Z" fill="white"/>
</g>
<defs>
<clipPath id="clip0_588_6853">
<rect width="700" height="232" fill="white" transform="translate(0 0.75)"/>
</clipPath>
<clipPath id="clip1_588_6853">
<rect width="1284" height="1284" fill="white" transform="translate(-292.5 -466.75)"/>
</clipPath>
</defs>
</svg>
