<svg width="700" height="235" viewBox="0 0 700 235" fill="none" xmlns="http://www.w3.org/2000/svg">
<g clip-path="url(#clip0_588_6869)">
<rect width="700" height="234" transform="translate(0 0.75)" fill="#0A0D12"/>
<g clip-path="url(#clip1_588_6869)">
<rect width="1284" height="1284" transform="translate(-292.5 -523.75)" fill="#0A0D12"/>
<g opacity="0.4">
<line x1="408.656" y1="-1165.75" x2="408.656" y2="1402.25" stroke="#67DBFF" stroke-width="0.917143"/>
<line x1="467.353" y1="-1165.75" x2="467.353" y2="1402.25" stroke="#67DBFF" stroke-width="0.917143"/>
<line x1="526.05" y1="-1165.75" x2="526.05" y2="1402.25" stroke="#67DBFF" stroke-width="0.917143"/>
<line x1="584.748" y1="-1165.75" x2="584.747" y2="1402.25" stroke="#67DBFF" stroke-width="0.917143"/>
<line x1="643.444" y1="-1165.75" x2="643.444" y2="1402.25" stroke="#67DBFF" stroke-width="0.917143"/>
<line x1="56.4732" y1="-1165.75" x2="56.473" y2="1402.25" stroke="#67DBFF" stroke-width="0.917143"/>
<line x1="115.17" y1="-1165.75" x2="115.169" y2="1402.25" stroke="#67DBFF" stroke-width="0.917143"/>
<line x1="173.867" y1="-1165.75" x2="173.867" y2="1402.25" stroke="#67DBFF" stroke-width="0.917143"/>
<line x1="232.564" y1="-1165.75" x2="232.564" y2="1402.25" stroke="#67DBFF" stroke-width="0.917143"/>
<line x1="291.261" y1="-1165.75" x2="291.261" y2="1402.25" stroke="#67DBFF" stroke-width="0.917143"/>
<line x1="-934.5" y1="59.0943" x2="1633.5" y2="59.0943" stroke="#67DBFF" stroke-width="0.917143"/>
<line x1="-934.5" y1="0.397141" x2="1633.5" y2="0.397141" stroke="#67DBFF" stroke-width="0.917143"/>
<line x1="-934.5" y1="235.186" x2="1633.5" y2="235.186" stroke="#67DBFF" stroke-width="0.917143"/>
<line x1="-934.5" y1="176.489" x2="1633.5" y2="176.489" stroke="#67DBFF" stroke-width="0.917143"/>
</g>
<line x1="349.959" y1="-1165.75" x2="349.958" y2="1402.25" stroke="#E6E6E6" stroke-width="0.917143"/>
<line x1="-934.5" y1="117.791" x2="1633.5" y2="117.791" stroke="#E6E6E6" stroke-width="0.917143"/>
</g>
<mask id="path-17-inside-1_588_6869" fill="white">
<path d="M350.5 176.75C334.985 176.75 320.105 170.587 309.134 159.616C298.163 148.645 292 133.765 292 118.25C292 102.735 298.163 87.8551 309.134 76.8843C320.105 65.9134 334.985 59.75 350.5 59.75L350.5 118.25L350.5 176.75Z"/>
</mask>
<path d="M350.5 176.75C334.985 176.75 320.105 170.587 309.134 159.616C298.163 148.645 292 133.765 292 118.25C292 102.735 298.163 87.8551 309.134 76.8843C320.105 65.9134 334.985 59.75 350.5 59.75L350.5 118.25L350.5 176.75Z" fill="#18FF21" fill-opacity="0.2" stroke="#67FF6D" stroke-width="2" mask="url(#path-17-inside-1_588_6869)"/>
<path opacity="0.5" d="M348.939 116.689C348.354 117.275 348.354 118.225 348.939 118.811C349.525 119.396 350.475 119.396 351.061 118.811L348.939 116.689ZM390 77.75L373.27 82.2329L385.517 94.4803L390 77.75ZM351.061 118.811L381.515 88.3566L379.393 86.2353L348.939 116.689L351.061 118.811Z" fill="#006AE7"/>
<g opacity="0.5">
<path d="M401.959 77.9799C401.973 77.9799 402.475 77.9451 403.464 77.8754C404.453 77.8057 404.962 77.7639 404.99 77.75C405.157 77.75 405.241 77.8057 405.241 77.9172C405.241 78.0147 404.732 80.1186 403.715 84.2288C402.698 88.339 402.175 90.4359 402.148 90.5195C402.12 90.603 402.113 90.7075 402.127 90.8329C402.127 91.4181 402.322 91.7107 402.712 91.7107C402.837 91.6968 402.977 91.6341 403.13 91.5226C403.422 91.244 403.708 90.5752 403.987 89.5163C404.07 89.2376 404.14 89.0913 404.196 89.0774C404.224 89.0635 404.293 89.0565 404.405 89.0565H404.572C404.781 89.0565 404.885 89.1122 404.885 89.2237C404.885 89.2934 404.864 89.4048 404.823 89.5581C404.642 90.2547 404.433 90.819 404.196 91.2509C403.959 91.6828 403.764 91.9615 403.61 92.0869C403.457 92.2123 403.262 92.3238 403.025 92.4213C402.914 92.4492 402.747 92.4631 402.524 92.4631C402.05 92.4631 401.653 92.3586 401.332 92.1496C401.012 91.9406 400.803 91.7246 400.705 91.5017L400.58 91.1882C400.566 91.1743 400.538 91.1813 400.497 91.2091C400.469 91.237 400.441 91.2649 400.413 91.2927C399.591 92.073 398.755 92.4631 397.905 92.4631C397.139 92.4631 396.463 92.1844 395.878 91.6271C395.293 91.0698 395 90.1851 395 88.9729C395 88.3041 395.139 87.6214 395.418 86.9248C395.697 86.2281 396.031 85.629 396.421 85.1274C397.076 84.3333 397.731 83.7829 398.386 83.4764C399.041 83.1699 399.633 83.0166 400.162 83.0166C400.942 83.0166 401.528 83.3092 401.918 83.8944C401.987 83.978 402.022 84.0058 402.022 83.978C402.036 83.9222 402.224 83.1629 402.586 81.7C402.949 80.237 403.144 79.4637 403.172 79.3801C403.172 79.199 403.123 79.0876 403.025 79.0458C402.928 79.004 402.656 78.9691 402.21 78.9413H401.771C401.688 78.8577 401.646 78.8019 401.646 78.7741C401.646 78.7462 401.66 78.6138 401.688 78.377C401.757 78.1123 401.848 77.9799 401.959 77.9799ZM401.667 85.4409C401.346 84.3402 400.824 83.7899 400.099 83.7899C399.612 83.7899 399.145 84.0058 398.699 84.4378C398.253 84.8697 397.905 85.434 397.654 86.1306C397.25 87.2313 396.965 88.3738 396.797 89.5581C396.797 89.5999 396.797 89.6765 396.797 89.788C396.797 89.8994 396.79 89.983 396.776 90.0388C396.776 90.6657 396.902 91.0977 397.153 91.3345C397.403 91.5714 397.703 91.6968 398.051 91.7107C398.804 91.7107 399.577 91.2091 400.371 90.206L400.538 89.9761L401.667 85.4409Z" fill="white"/>
<path d="M406.766 78.7323C406.766 78.5929 406.794 78.4327 406.85 78.2516C406.906 78.0705 406.989 77.9799 407.101 77.9799C407.115 77.9799 407.616 77.9451 408.605 77.8754C409.595 77.8057 410.103 77.7639 410.131 77.75C410.298 77.75 410.382 77.8127 410.382 77.9381C410.382 78.0635 410.145 79.0597 409.671 80.9267C409.56 81.4004 409.441 81.8881 409.316 82.3896C409.191 82.8912 409.086 83.2674 409.003 83.5182L408.919 83.9153C408.919 83.9571 408.961 83.9362 409.044 83.8526C409.727 83.2953 410.431 83.0166 411.155 83.0166C412.019 83.0166 412.716 83.3371 413.245 83.978C413.775 84.6189 414.046 85.427 414.06 86.4023C414.06 87.9488 413.51 89.3491 412.409 90.603C411.308 91.857 410.124 92.484 408.856 92.484C408.16 92.484 407.526 92.2193 406.954 91.6898C406.383 91.1604 406.091 90.3035 406.077 89.1192V88.9311C406.077 88.6385 406.132 88.2345 406.244 87.719C406.355 87.2034 406.697 85.831 407.268 83.6018C407.965 80.857 408.313 79.401 408.313 79.2338C408.313 79.0667 408.048 78.9691 407.519 78.9413C407.449 78.9413 407.393 78.9413 407.351 78.9413H407.247C407.108 78.9413 407.017 78.9413 406.975 78.9413C406.933 78.9413 406.885 78.9204 406.829 78.8786C406.773 78.8368 406.752 78.788 406.766 78.7323ZM412.263 85.4618V85.3364C412.263 84.3054 411.838 83.7899 410.988 83.7899C410.751 83.7899 410.507 83.8456 410.256 83.9571C410.006 84.0685 409.776 84.2148 409.567 84.396C409.358 84.5771 409.177 84.7443 409.023 84.8975C408.87 85.0508 408.745 85.2041 408.647 85.3573L408.522 85.5245L408.083 87.3219C407.776 88.5201 407.623 89.37 407.623 89.8716C407.623 90.5404 407.79 91.0419 408.125 91.3763C408.348 91.5992 408.626 91.7107 408.961 91.7107C409.42 91.7107 409.887 91.4878 410.361 91.0419C410.709 90.7215 410.988 90.3314 411.197 89.8716C411.406 89.4118 411.636 88.6803 411.887 87.6772C412.137 86.674 412.263 85.9355 412.263 85.4618Z" fill="white"/>
</g>
<path d="M348.5 117.75C348.5 118.578 349.172 119.25 350 119.25C350.828 119.25 351.5 118.578 351.5 117.75L348.5 117.75ZM350 58.75L341.34 73.75L358.66 73.75L350 58.75ZM351.5 117.75L351.5 72.25L348.5 72.25L348.5 117.75L351.5 117.75Z" fill="#EB5757"/>
<path d="M361.961 37.9799C361.975 37.9799 362.476 37.9451 363.466 37.8754C364.455 37.8057 364.964 37.7639 364.992 37.75C365.159 37.75 365.243 37.8057 365.243 37.9172C365.243 38.0148 364.734 40.1191 363.717 44.2301C362.699 48.3411 362.177 50.4384 362.149 50.522C362.121 50.6056 362.114 50.7102 362.128 50.8356C362.128 51.4209 362.323 51.7135 362.713 51.7135C362.839 51.6996 362.978 51.6369 363.131 51.5254C363.424 51.2467 363.71 50.5778 363.988 49.5187C364.072 49.2399 364.142 49.0936 364.198 49.0797C364.225 49.0658 364.295 49.0588 364.407 49.0588H364.574C364.783 49.0588 364.887 49.1145 364.887 49.226C364.887 49.2957 364.866 49.4072 364.825 49.5605C364.643 50.2572 364.434 50.8216 364.198 51.2536C363.961 51.6857 363.766 51.9644 363.612 52.0898C363.459 52.2152 363.264 52.3267 363.027 52.4242C362.915 52.4521 362.748 52.4661 362.525 52.4661C362.051 52.4661 361.654 52.3615 361.334 52.1525C361.013 51.9435 360.804 51.7275 360.707 51.5045L360.581 51.1909C360.567 51.177 360.539 51.184 360.498 51.2118C360.47 51.2397 360.442 51.2676 360.414 51.2955C359.592 52.0759 358.756 52.4661 357.906 52.4661C357.139 52.4661 356.463 52.1873 355.878 51.6299C355.293 51.0725 355 50.1876 355 48.9752C355 48.3063 355.139 47.6234 355.418 46.9266C355.697 46.2298 356.031 45.6306 356.421 45.1289C357.076 44.3346 357.731 43.7841 358.386 43.4776C359.041 43.171 359.634 43.0177 360.163 43.0177C360.944 43.0177 361.529 43.3103 361.919 43.8956C361.989 43.9792 362.024 44.0071 362.024 43.9792C362.038 43.9235 362.226 43.164 362.588 41.7008C362.95 40.2375 363.145 39.4641 363.173 39.3805C363.173 39.1993 363.124 39.0878 363.027 39.046C362.929 39.0042 362.658 38.9694 362.212 38.9415H361.773C361.689 38.8579 361.647 38.8021 361.647 38.7743C361.647 38.7464 361.661 38.614 361.689 38.3771C361.759 38.1123 361.849 37.9799 361.961 37.9799ZM361.668 45.4425C361.348 44.3416 360.825 43.7911 360.1 43.7911C359.613 43.7911 359.146 44.0071 358.7 44.4391C358.254 44.8711 357.906 45.4355 357.655 46.1323C357.251 47.2332 356.965 48.3759 356.798 49.5605C356.798 49.6023 356.798 49.6789 356.798 49.7904C356.798 49.9019 356.791 49.9855 356.777 50.0412C356.777 50.6684 356.902 51.1004 357.153 51.3373C357.404 51.5742 357.704 51.6996 358.052 51.7135C358.804 51.7135 359.578 51.2118 360.372 50.2085L360.539 49.9785L361.668 45.4425Z" fill="white"/>
<path d="M365.953 48.9334C365.953 47.4144 366.553 46.0487 367.751 44.8363C368.95 43.6239 370.246 43.0177 371.639 43.0177C372.42 43.0177 373.033 43.1849 373.479 43.5194C373.925 43.8538 374.155 44.2928 374.168 44.8363C374.168 45.2404 374.036 45.5818 373.771 45.8605C373.507 46.1393 373.172 46.2856 372.768 46.2995C372.503 46.2995 372.294 46.2298 372.141 46.0905C371.988 45.9511 371.911 45.7421 371.911 45.4634C371.911 45.1847 371.988 44.9478 372.141 44.7527C372.294 44.5576 372.447 44.4112 372.601 44.3137C372.754 44.2161 372.852 44.1743 372.893 44.1883H372.914C372.914 44.1604 372.872 44.1186 372.789 44.0629C372.705 44.0071 372.559 43.9514 372.35 43.8956C372.141 43.8399 371.904 43.812 371.639 43.812C371.221 43.812 370.824 43.9096 370.448 44.1047C370.155 44.2301 369.855 44.4461 369.549 44.7527C368.936 45.3658 368.49 46.2298 368.211 47.3447C367.932 48.4596 367.786 49.2678 367.772 49.7695C367.772 50.4105 367.953 50.8913 368.316 51.2118C368.622 51.5463 369.026 51.7135 369.528 51.7135H369.612C371.172 51.7135 372.461 51.1213 373.479 49.9367C373.604 49.7974 373.688 49.7277 373.73 49.7277C373.785 49.7277 373.876 49.7904 374.001 49.9158C374.127 50.0412 374.196 50.1388 374.21 50.2085C374.224 50.2782 374.162 50.3827 374.022 50.522C373.883 50.6614 373.681 50.8565 373.416 51.1073C373.151 51.3582 372.838 51.5672 372.475 51.7344C372.113 51.9017 371.667 52.0759 371.137 52.257C370.608 52.4382 370.051 52.5148 369.465 52.487C368.42 52.487 367.577 52.1525 366.936 51.4836C366.295 50.8147 365.967 49.9646 365.953 48.9334Z" fill="white"/>
<path d="M374.754 46.2577C374.754 46.1462 374.817 45.9302 374.942 45.6097C375.067 45.2892 375.242 44.9269 375.465 44.5227C375.687 44.1186 375.994 43.7702 376.384 43.4776C376.774 43.1849 377.186 43.0316 377.618 43.0177C378.259 43.0177 378.739 43.1919 379.06 43.5403C379.38 43.8887 379.541 44.2998 379.541 44.7736C379.541 45.0244 379.304 45.8048 378.83 47.1148C378.356 48.4247 378.119 49.4072 378.119 50.0622C378.119 50.6614 378.217 51.0795 378.412 51.3164C378.607 51.5533 378.9 51.6787 379.29 51.6926C379.68 51.7066 380.049 51.5881 380.398 51.3373C380.746 51.0864 381.004 50.8495 381.171 50.6265L381.401 50.2712C381.429 50.2154 381.694 49.1563 382.195 47.0939C382.613 45.4216 382.864 44.4461 382.948 44.1674C383.032 43.8887 383.129 43.6866 383.241 43.5612C383.478 43.3521 383.728 43.2476 383.993 43.2476C384.23 43.2476 384.404 43.3173 384.516 43.4567C384.627 43.596 384.683 43.7284 384.683 43.8538L383.094 50.5011C383.08 50.5708 383.073 50.6823 383.073 50.8356C383.073 51.184 383.122 51.4139 383.22 51.5254C383.317 51.6369 383.464 51.6996 383.659 51.7135C383.965 51.6717 384.209 51.4557 384.39 51.0655C384.571 50.6753 384.78 50.0622 385.017 49.226C385.045 49.1145 385.185 49.0588 385.435 49.0588C385.7 49.0588 385.833 49.1215 385.833 49.2469C385.819 49.3166 385.805 49.4141 385.791 49.5396C385.777 49.665 385.714 49.888 385.603 50.2085C385.491 50.529 385.373 50.8286 385.247 51.1073C385.122 51.386 384.948 51.6508 384.725 51.9017C384.502 52.1525 384.251 52.3267 383.972 52.4242C383.861 52.4521 383.694 52.4661 383.471 52.4661C382.551 52.4661 381.917 52.0759 381.568 51.2955C381.54 51.3094 381.464 51.3791 381.338 51.5045C381.213 51.6299 381.088 51.7344 380.962 51.818C380.837 51.9017 380.683 52.0062 380.502 52.1316C380.321 52.257 380.119 52.3406 379.896 52.3824C379.673 52.4242 379.436 52.4591 379.185 52.487C378.572 52.487 378.029 52.3615 377.555 52.1107C376.83 51.6787 376.468 50.9401 376.468 49.8949C376.468 49.1006 376.712 48.0624 377.199 46.7803C377.687 45.4982 377.931 44.683 377.931 44.3346C377.931 44.3207 377.931 44.3067 377.931 44.2928C377.931 44.1674 377.931 44.0838 377.931 44.0419C377.931 44.0001 377.903 43.9514 377.848 43.8956C377.792 43.8399 377.715 43.812 377.618 43.812H377.534C377.213 43.812 376.921 43.9444 376.656 44.2092C376.391 44.474 376.182 44.7596 376.029 45.0662C375.876 45.3728 375.757 45.6655 375.674 45.9442C375.59 46.2229 375.534 46.3762 375.506 46.404C375.478 46.4319 375.367 46.4458 375.172 46.4458H374.879C374.796 46.3622 374.754 46.2995 374.754 46.2577Z" fill="white"/>
<path d="M386.711 46.2577C386.725 46.2159 386.738 46.1602 386.752 46.0905C386.766 46.0208 386.801 45.8675 386.857 45.6306C386.913 45.3937 386.982 45.1777 387.066 44.9826C387.15 44.7875 387.254 44.5576 387.379 44.2928C387.505 44.028 387.644 43.819 387.798 43.6657C387.951 43.5124 388.132 43.3591 388.341 43.2058C388.55 43.0525 388.78 42.9898 389.031 43.0177C389.435 43.0177 389.79 43.1013 390.097 43.2685C390.404 43.4357 390.62 43.589 390.745 43.7284C390.87 43.8678 390.947 44.0071 390.975 44.1465C391.003 44.2301 391.024 44.2719 391.038 44.2719C391.052 44.2719 391.107 44.2231 391.205 44.1256C391.874 43.4009 392.647 43.0386 393.525 43.0386H393.588C394.257 43.0386 394.758 43.3243 395.093 43.8956C395.204 44.1604 395.26 44.4182 395.26 44.6691C395.26 45.0871 395.17 45.4216 394.988 45.6724C394.807 45.9233 394.626 46.0835 394.445 46.1532C394.264 46.2229 394.09 46.2507 393.922 46.2368C393.644 46.2368 393.421 46.1602 393.253 46.0069C393.086 45.8536 393.003 45.6515 393.003 45.4007C393.003 44.7318 393.393 44.2858 394.173 44.0629C393.867 43.8817 393.616 43.7911 393.421 43.7911C392.64 43.7911 391.923 44.3067 391.268 45.338C391.128 45.5609 391.024 45.7909 390.954 46.0278C390.884 46.2647 390.647 47.1914 390.243 48.8079C389.769 50.7589 389.498 51.7971 389.428 51.9226C389.247 52.2988 388.947 52.487 388.529 52.487C388.348 52.487 388.202 52.4451 388.09 52.3615C387.979 52.2779 387.902 52.1943 387.86 52.1107C387.818 52.0271 387.805 51.9574 387.818 51.9017C387.818 51.7205 388.097 50.522 388.655 48.3063C389.212 46.0905 389.491 44.8572 389.491 44.6063C389.491 44.0629 389.31 43.7911 388.947 43.7911C388.655 43.7911 388.404 43.9862 388.195 44.3764C387.986 44.7666 387.818 45.1916 387.693 45.6515C387.568 46.1114 387.491 46.3622 387.463 46.404C387.435 46.4319 387.324 46.4458 387.129 46.4458H386.836C386.752 46.3622 386.711 46.2995 386.711 46.2577Z" fill="white"/>
<path d="M396.159 46.2577C396.173 46.2159 396.187 46.1602 396.201 46.0905C396.215 46.0208 396.25 45.8675 396.305 45.6306C396.361 45.3937 396.431 45.1777 396.514 44.9826C396.598 44.7875 396.702 44.5576 396.828 44.2928C396.953 44.028 397.093 43.819 397.246 43.6657C397.399 43.5124 397.58 43.3591 397.789 43.2058C397.998 43.0525 398.228 42.9898 398.479 43.0177C398.883 43.0177 399.239 43.1013 399.545 43.2685C399.852 43.4357 400.068 43.589 400.193 43.7284C400.319 43.8678 400.395 44.0071 400.423 44.1465C400.451 44.2301 400.472 44.2719 400.486 44.2719C400.5 44.2719 400.556 44.2231 400.653 44.1256C401.322 43.4009 402.096 43.0386 402.973 43.0386H403.036C403.705 43.0386 404.207 43.3243 404.541 43.8956C404.653 44.1604 404.708 44.4182 404.708 44.6691C404.708 45.0871 404.618 45.4216 404.437 45.6724C404.256 45.9233 404.074 46.0835 403.893 46.1532C403.712 46.2229 403.538 46.2507 403.371 46.2368C403.092 46.2368 402.869 46.1602 402.702 46.0069C402.535 45.8536 402.451 45.6515 402.451 45.4007C402.451 44.7318 402.841 44.2858 403.621 44.0629C403.315 43.8817 403.064 43.7911 402.869 43.7911C402.089 43.7911 401.371 44.3067 400.716 45.338C400.577 45.5609 400.472 45.7909 400.402 46.0278C400.333 46.2647 400.096 47.1914 399.692 48.8079C399.218 50.7589 398.946 51.7971 398.876 51.9226C398.695 52.2988 398.396 52.487 397.978 52.487C397.796 52.487 397.65 52.4451 397.539 52.3615C397.427 52.2779 397.35 52.1943 397.309 52.1107C397.267 52.0271 397.253 51.9574 397.267 51.9017C397.267 51.7205 397.546 50.522 398.103 48.3063C398.66 46.0905 398.939 44.8572 398.939 44.6063C398.939 44.0629 398.758 43.7911 398.396 43.7911C398.103 43.7911 397.852 43.9862 397.643 44.3764C397.434 44.7666 397.267 45.1916 397.141 45.6515C397.016 46.1114 396.939 46.3622 396.911 46.404C396.884 46.4319 396.772 46.4458 396.577 46.4458H396.284C396.201 46.3622 396.159 46.2995 396.159 46.2577Z" fill="white"/>
<path d="M126.96 25.1504C126.974 25.1504 127.476 25.1155 128.465 25.0458C129.454 24.9762 129.963 24.9344 129.991 24.9204C130.158 24.9204 130.241 24.9762 130.241 25.0877C130.241 25.1852 129.733 27.2892 128.716 31.3997C127.698 35.5102 127.176 37.6072 127.148 37.6908C127.12 37.7744 127.113 37.8789 127.127 38.0043C127.127 38.5896 127.322 38.8822 127.712 38.8822C127.838 38.8682 127.977 38.8055 128.13 38.6941C128.423 38.4154 128.709 37.7466 128.987 36.6876C129.071 36.4089 129.141 36.2626 129.196 36.2487C129.224 36.2347 129.294 36.2278 129.405 36.2278H129.573C129.782 36.2278 129.886 36.2835 129.886 36.395C129.886 36.4647 129.865 36.5761 129.823 36.7294C129.642 37.4261 129.433 37.9904 129.196 38.4224C128.959 38.8543 128.764 39.133 128.611 39.2584C128.458 39.3838 128.263 39.4953 128.026 39.5928C127.914 39.6207 127.747 39.6346 127.524 39.6346C127.051 39.6346 126.653 39.5301 126.333 39.3211C126.012 39.1121 125.803 38.8961 125.706 38.6732L125.581 38.3597C125.567 38.3457 125.539 38.3527 125.497 38.3806C125.469 38.4084 125.441 38.4363 125.413 38.4642C124.591 39.2445 123.755 39.6346 122.905 39.6346C122.139 39.6346 121.463 39.3559 120.878 38.7986C120.293 38.2412 120 37.3564 120 36.1442C120 35.4753 120.139 34.7926 120.418 34.0959C120.697 33.3992 121.031 32.8 121.421 32.2984C122.076 31.5042 122.731 30.9538 123.386 30.6473C124.041 30.3407 124.633 30.1874 125.162 30.1874C125.943 30.1874 126.528 30.4801 126.918 31.0653C126.988 31.1489 127.023 31.1768 127.023 31.1489C127.037 31.0931 127.225 30.3338 127.587 28.8707C127.949 27.4076 128.144 26.6343 128.172 26.5507C128.172 26.3696 128.123 26.2581 128.026 26.2163C127.928 26.1745 127.657 26.1397 127.211 26.1118H126.772C126.688 26.0282 126.646 25.9725 126.646 25.9446C126.646 25.9167 126.66 25.7843 126.688 25.5475C126.758 25.2827 126.848 25.1504 126.96 25.1504ZM126.667 32.6119C126.347 31.5112 125.824 30.9608 125.1 30.9608C124.612 30.9608 124.145 31.1768 123.699 31.6087C123.254 32.0407 122.905 32.605 122.654 33.3017C122.25 34.4024 121.965 35.545 121.797 36.7294C121.797 36.7712 121.797 36.8478 121.797 36.9593C121.797 37.0708 121.791 37.1544 121.777 37.2101C121.777 37.8371 121.902 38.2691 122.153 38.506C122.404 38.7428 122.703 38.8682 123.052 38.8822C123.804 38.8822 124.577 38.3806 125.372 37.3773L125.539 37.1474L126.667 32.6119Z" fill="white"/>
<path d="M131.057 35.9143C131.057 35.12 131.189 34.3955 131.454 33.7406C131.718 33.0857 132.06 32.5423 132.478 32.1103C132.896 31.6784 133.363 31.3161 133.878 31.0235C134.394 30.7309 134.881 30.5149 135.341 30.3756C135.801 30.2362 136.24 30.1735 136.658 30.1874H136.721C137.348 30.1874 137.891 30.3407 138.351 30.6473C138.811 30.9538 139.041 31.4067 139.041 32.0058C139.041 33.2599 138.267 34.082 136.721 34.4721C136.038 34.6533 135.104 34.7508 133.92 34.7647C133.404 34.7647 133.14 34.7787 133.126 34.8065C133.126 34.8344 133.084 35.0782 133 35.5381C132.917 35.9979 132.868 36.402 132.854 36.7503C132.854 37.4052 133 37.9207 133.293 38.297C133.586 38.6732 134.024 38.8682 134.61 38.8822C135.195 38.8961 135.843 38.7637 136.553 38.4851C137.264 38.2064 137.905 37.7466 138.476 37.1056C138.602 36.9663 138.685 36.8966 138.727 36.8966C138.783 36.8966 138.873 36.9593 138.999 37.0847C139.124 37.2101 139.194 37.3077 139.208 37.3773C139.222 37.447 139.159 37.5585 139.02 37.7117C138.88 37.865 138.671 38.0531 138.393 38.2761C138.114 38.499 137.794 38.715 137.431 38.924C137.069 39.133 136.63 39.3072 136.115 39.4465C135.599 39.5858 135.069 39.6555 134.526 39.6555C133.425 39.6555 132.575 39.2863 131.976 38.5478C131.377 37.8093 131.07 36.9314 131.057 35.9143ZM138.037 32.0476C137.954 31.3231 137.48 30.9608 136.616 30.9608C136.156 30.9608 135.731 31.0583 135.341 31.2534C134.951 31.4485 134.638 31.6853 134.401 31.964C134.164 32.2427 133.962 32.5283 133.795 32.8209C133.627 33.1136 133.516 33.3644 133.46 33.5734C133.404 33.7824 133.37 33.9148 133.356 33.9705C133.356 33.9844 133.495 33.9914 133.774 33.9914C135.348 33.9914 136.449 33.8242 137.076 33.4898C137.703 33.1554 138.023 32.6746 138.037 32.0476Z" fill="white"/>
<path d="M140.545 31.3788C140.448 31.2813 140.399 31.2116 140.399 31.1698C140.399 31.114 140.42 31.0026 140.462 30.8354C140.504 30.6682 140.539 30.5706 140.566 30.5428C140.594 30.4731 140.657 30.4383 140.754 30.4383C140.852 30.4383 141.207 30.4313 141.82 30.4174H142.928L143.325 28.7453C143.367 28.592 143.416 28.39 143.472 28.1392C143.527 27.8884 143.576 27.7072 143.618 27.5957C143.66 27.4843 143.702 27.3449 143.743 27.1777C143.785 27.0105 143.841 26.8921 143.911 26.8224C143.98 26.7527 144.05 26.6691 144.12 26.5716C144.189 26.4741 144.287 26.4114 144.412 26.3835C144.538 26.3556 144.663 26.3417 144.788 26.3417C145.039 26.3556 145.213 26.4323 145.311 26.5716C145.408 26.7109 145.457 26.8433 145.457 26.9687C145.457 27.0663 145.394 27.3937 145.269 27.9511C145.144 28.5084 145.004 29.0588 144.851 29.6022L144.642 30.3756C144.642 30.4034 144.99 30.4174 145.687 30.4174H146.753C146.851 30.5149 146.899 30.5915 146.899 30.6473C146.899 30.9538 146.809 31.1977 146.628 31.3788H144.391L143.639 34.4094C143.095 36.6388 142.824 37.8371 142.824 38.0043C142.824 38.5896 143.012 38.8822 143.388 38.8822C143.876 38.8822 144.349 38.6453 144.809 38.1716C145.269 37.6978 145.638 37.1126 145.917 36.4159C145.945 36.3323 145.98 36.2835 146.021 36.2696C146.063 36.2556 146.168 36.2417 146.335 36.2278H146.419C146.628 36.2278 146.732 36.2835 146.732 36.395C146.732 36.4368 146.711 36.5204 146.669 36.6458C146.6 36.8687 146.474 37.1335 146.293 37.44C146.112 37.7466 145.875 38.074 145.583 38.4224C145.29 38.7707 144.935 39.0633 144.517 39.3002C144.099 39.5371 143.674 39.6555 143.242 39.6555C142.824 39.6555 142.427 39.551 142.05 39.342C141.674 39.133 141.402 38.7707 141.235 38.2552C141.207 38.1437 141.193 37.9556 141.193 37.6908V37.3146L141.925 34.3885C142.413 32.4238 142.663 31.4345 142.677 31.4206C142.677 31.3927 142.322 31.3788 141.611 31.3788H140.545Z" fill="white"/>
<path d="M149.512 34.2004C149.512 33.239 149.582 32.3263 149.721 31.4624C149.86 30.5985 150.021 29.853 150.202 29.226C150.383 28.599 150.641 27.9859 150.975 27.3867C151.309 26.7876 151.574 26.3208 151.769 25.9864C151.964 25.652 152.257 25.2897 152.647 24.8995C153.037 24.5094 153.267 24.2725 153.337 24.1889C153.406 24.1053 153.581 23.959 153.859 23.75H154.215C154.41 23.75 154.507 23.8127 154.507 23.9381C154.507 23.9799 154.389 24.1262 154.152 24.377C153.915 24.6278 153.629 24.9971 153.295 25.4848C152.961 25.9725 152.619 26.5716 152.271 27.2822C151.922 27.9929 151.63 28.9543 151.393 30.1665C151.156 31.3788 151.038 32.7234 151.038 34.2004C151.038 35.6774 151.156 37.015 151.393 38.2134C151.63 39.4117 151.916 40.3801 152.25 41.1186C152.584 41.8571 152.926 42.4562 153.274 42.916C153.622 43.3759 153.915 43.7451 154.152 44.0238C154.389 44.3025 154.507 44.4488 154.507 44.4627C154.507 44.5881 154.403 44.6508 154.194 44.6508H153.859L153.274 44.1492C151.964 42.9648 151.01 41.4878 150.411 39.7182C149.812 37.9486 149.512 36.1093 149.512 34.2004Z" fill="white"/>
<path d="M163.348 25.1504C163.362 25.1504 163.864 25.1155 164.853 25.0458C165.842 24.9762 166.351 24.9344 166.379 24.9204C166.546 24.9204 166.63 24.9762 166.63 25.0877C166.63 25.1852 166.121 27.2892 165.104 31.3997C164.087 35.5102 163.564 37.6072 163.536 37.6908C163.509 37.7744 163.502 37.8789 163.515 38.0043C163.515 38.5896 163.711 38.8822 164.101 38.8822C164.226 38.8682 164.365 38.8055 164.519 38.6941C164.811 38.4154 165.097 37.7466 165.376 36.6876C165.459 36.4089 165.529 36.2626 165.585 36.2487C165.613 36.2347 165.682 36.2278 165.794 36.2278H165.961C166.17 36.2278 166.274 36.2835 166.274 36.395C166.274 36.4647 166.253 36.5761 166.212 36.7294C166.031 37.4261 165.822 37.9904 165.585 38.4224C165.348 38.8543 165.153 39.133 164.999 39.2584C164.846 39.3838 164.651 39.4953 164.414 39.5928C164.303 39.6207 164.136 39.6346 163.913 39.6346C163.439 39.6346 163.042 39.5301 162.721 39.3211C162.401 39.1121 162.192 38.8961 162.094 38.6732L161.969 38.3597C161.955 38.3457 161.927 38.3527 161.885 38.3806C161.857 38.4084 161.829 38.4363 161.802 38.4642C160.98 39.2445 160.143 39.6346 159.294 39.6346C158.527 39.6346 157.851 39.3559 157.266 38.7986C156.681 38.2412 156.388 37.3564 156.388 36.1442C156.388 35.4753 156.528 34.7926 156.806 34.0959C157.085 33.3992 157.419 32.8 157.81 32.2984C158.464 31.5042 159.119 30.9538 159.774 30.6473C160.429 30.3407 161.021 30.1874 161.551 30.1874C162.331 30.1874 162.916 30.4801 163.306 31.0653C163.376 31.1489 163.411 31.1768 163.411 31.1489C163.425 31.0931 163.613 30.3338 163.975 28.8707C164.338 27.4076 164.533 26.6343 164.561 26.5507C164.561 26.3696 164.512 26.2581 164.414 26.2163C164.317 26.1745 164.045 26.1397 163.599 26.1118H163.16C163.077 26.0282 163.035 25.9725 163.035 25.9446C163.035 25.9167 163.049 25.7843 163.077 25.5475C163.146 25.2827 163.237 25.1504 163.348 25.1504ZM163.056 32.6119C162.735 31.5112 162.213 30.9608 161.488 30.9608C161 30.9608 160.534 31.1768 160.088 31.6087C159.642 32.0407 159.294 32.605 159.043 33.3017C158.639 34.4024 158.353 35.545 158.186 36.7294C158.186 36.7712 158.186 36.8478 158.186 36.9593C158.186 37.0708 158.179 37.1544 158.165 37.2101C158.165 37.8371 158.29 38.2691 158.541 38.506C158.792 38.7428 159.091 38.8682 159.44 38.8822C160.192 38.8822 160.966 38.3806 161.76 37.3773L161.927 37.1474L163.056 32.6119Z" fill="white"/>
<path d="M167.34 36.1024C167.34 34.5836 167.939 33.2181 169.138 32.0058C170.336 30.7936 171.632 30.1874 173.025 30.1874C173.806 30.1874 174.419 30.3547 174.865 30.6891C175.31 31.0235 175.54 31.4624 175.554 32.0058C175.554 32.4099 175.422 32.7513 175.157 33.03C174.892 33.3086 174.558 33.4549 174.154 33.4689C173.889 33.4689 173.68 33.3992 173.527 33.2599C173.374 33.1205 173.297 32.9115 173.297 32.6328C173.297 32.3542 173.374 32.1173 173.527 31.9222C173.68 31.7271 173.833 31.5808 173.987 31.4833C174.14 31.3858 174.238 31.344 174.279 31.3579H174.3C174.3 31.33 174.258 31.2882 174.175 31.2325C174.091 31.1768 173.945 31.121 173.736 31.0653C173.527 31.0095 173.29 30.9817 173.025 30.9817C172.607 30.9817 172.21 31.0792 171.834 31.2743C171.541 31.3997 171.242 31.6157 170.935 31.9222C170.322 32.5353 169.876 33.3992 169.598 34.5139C169.319 35.6286 169.173 36.4368 169.159 36.9384C169.159 37.5794 169.34 38.0601 169.702 38.3806C170.009 38.715 170.413 38.8822 170.914 38.8822H170.998C172.559 38.8822 173.847 38.29 174.865 37.1056C174.99 36.9663 175.074 36.8966 175.115 36.8966C175.171 36.8966 175.262 36.9593 175.387 37.0847C175.513 37.2101 175.582 37.3077 175.596 37.3773C175.61 37.447 175.547 37.5515 175.408 37.6908C175.269 37.8302 175.067 38.0252 174.802 38.2761C174.537 38.5269 174.224 38.7359 173.861 38.9031C173.499 39.0703 173.053 39.2445 172.524 39.4256C171.994 39.6067 171.437 39.6834 170.852 39.6555C169.807 39.6555 168.964 39.3211 168.323 38.6523C167.682 37.9834 167.354 37.1335 167.34 36.1024Z" fill="white"/>
<path d="M176.14 33.4271C176.14 33.3156 176.202 33.0996 176.328 32.7791C176.453 32.4587 176.627 32.0964 176.85 31.6923C177.073 31.2882 177.38 30.9399 177.77 30.6473C178.16 30.3547 178.571 30.2014 179.003 30.1874C179.644 30.1874 180.125 30.3616 180.445 30.71C180.766 31.0583 180.926 31.4694 180.926 31.9431C180.926 32.1939 180.689 32.9742 180.215 34.284C179.741 35.5938 179.505 36.5761 179.505 37.231C179.505 37.8302 179.602 38.2482 179.797 38.4851C179.992 38.7219 180.285 38.8473 180.675 38.8613C181.065 38.8752 181.434 38.7568 181.783 38.506C182.131 38.2552 182.389 38.0183 182.556 37.7953L182.786 37.44C182.814 37.3843 183.079 36.3253 183.58 34.2631C183.998 32.591 184.249 31.6157 184.333 31.337C184.416 31.0583 184.514 30.8563 184.625 30.7309C184.862 30.5219 185.113 30.4174 185.378 30.4174C185.615 30.4174 185.789 30.487 185.9 30.6264C186.012 30.7657 186.067 30.8981 186.067 31.0235L184.479 37.6699C184.465 37.7396 184.458 37.8511 184.458 38.0043C184.458 38.3527 184.507 38.5826 184.604 38.6941C184.702 38.8055 184.848 38.8682 185.043 38.8822C185.35 38.8404 185.594 38.6244 185.775 38.2343C185.956 37.8441 186.165 37.231 186.402 36.395C186.43 36.2835 186.569 36.2278 186.82 36.2278C187.085 36.2278 187.217 36.2905 187.217 36.4159C187.203 36.4856 187.189 36.5831 187.175 36.7085C187.161 36.8339 187.099 37.0568 186.987 37.3773C186.876 37.6978 186.757 37.9974 186.632 38.2761C186.506 38.5547 186.332 38.8195 186.109 39.0703C185.886 39.3211 185.635 39.4953 185.357 39.5928C185.245 39.6207 185.078 39.6346 184.855 39.6346C183.936 39.6346 183.302 39.2445 182.953 38.4642C182.925 38.4781 182.849 38.5478 182.723 38.6732C182.598 38.7986 182.472 38.9031 182.347 38.9867C182.222 39.0703 182.068 39.1748 181.887 39.3002C181.706 39.4256 181.504 39.5092 181.281 39.551C181.058 39.5928 180.821 39.6276 180.571 39.6555C179.957 39.6555 179.414 39.5301 178.94 39.2793C178.216 38.8473 177.853 38.1088 177.853 37.0638C177.853 36.2696 178.097 35.2315 178.585 33.9496C179.073 32.6677 179.316 31.8525 179.316 31.5042C179.316 31.4903 179.316 31.4763 179.316 31.4624C179.316 31.337 179.316 31.2534 179.316 31.2116C179.316 31.1698 179.289 31.121 179.233 31.0653C179.177 31.0095 179.1 30.9817 179.003 30.9817H178.919C178.599 30.9817 178.306 31.114 178.042 31.3788C177.777 31.6435 177.568 31.9292 177.414 32.2357C177.261 32.5423 177.143 32.8349 177.059 33.1136C176.976 33.3922 176.92 33.5455 176.892 33.5734C176.864 33.6012 176.753 33.6152 176.558 33.6152H176.265C176.181 33.5316 176.14 33.4689 176.14 33.4271Z" fill="white"/>
<path d="M188.095 33.4271C188.109 33.3853 188.123 33.3295 188.137 33.2599C188.151 33.1902 188.185 33.0369 188.241 32.8C188.297 32.5632 188.367 32.3472 188.45 32.1521C188.534 31.957 188.638 31.7271 188.764 31.4624C188.889 31.1977 189.028 30.9886 189.182 30.8354C189.335 30.6821 189.516 30.5288 189.725 30.3756C189.934 30.2223 190.164 30.1596 190.415 30.1874C190.819 30.1874 191.174 30.2711 191.481 30.4383C191.787 30.6055 192.003 30.7587 192.129 30.8981C192.254 31.0374 192.331 31.1768 192.359 31.3161C192.386 31.3997 192.407 31.4415 192.421 31.4415C192.435 31.4415 192.491 31.3927 192.588 31.2952C193.257 30.5706 194.031 30.2083 194.908 30.2083H194.971C195.64 30.2083 196.142 30.494 196.476 31.0653C196.587 31.33 196.643 31.5878 196.643 31.8386C196.643 32.2566 196.553 32.591 196.372 32.8418C196.19 33.0927 196.009 33.2529 195.828 33.3226C195.647 33.3922 195.473 33.4201 195.306 33.4062C195.027 33.4062 194.804 33.3295 194.637 33.1763C194.47 33.023 194.386 32.8209 194.386 32.5701C194.386 31.9013 194.776 31.4554 195.556 31.2325C195.25 31.0513 194.999 30.9608 194.804 30.9608C194.024 30.9608 193.306 31.4763 192.651 32.5074C192.512 32.7304 192.407 32.9603 192.338 33.1972C192.268 33.434 192.031 34.3606 191.627 35.977C191.153 37.9277 190.882 38.9658 190.812 39.0912C190.631 39.4674 190.331 39.6555 189.913 39.6555C189.732 39.6555 189.586 39.6137 189.474 39.5301C189.363 39.4465 189.286 39.3629 189.244 39.2793C189.203 39.1957 189.189 39.126 189.203 39.0703C189.203 38.8891 189.481 37.6908 190.039 35.4753C190.596 33.2599 190.875 32.0267 190.875 31.7759C190.875 31.2325 190.693 30.9608 190.331 30.9608C190.039 30.9608 189.788 31.1559 189.579 31.546C189.37 31.9361 189.203 32.3611 189.077 32.8209C188.952 33.2808 188.875 33.5316 188.847 33.5734C188.819 33.6012 188.708 33.6152 188.513 33.6152H188.22C188.137 33.5316 188.095 33.4689 188.095 33.4271Z" fill="white"/>
<path d="M197.542 33.4271C197.556 33.3853 197.57 33.3295 197.584 33.2599C197.598 33.1902 197.633 33.0369 197.688 32.8C197.744 32.5632 197.814 32.3472 197.897 32.1521C197.981 31.957 198.085 31.7271 198.211 31.4624C198.336 31.1977 198.476 30.9886 198.629 30.8354C198.782 30.6821 198.963 30.5288 199.172 30.3756C199.381 30.2223 199.611 30.1596 199.862 30.1874C200.266 30.1874 200.621 30.2711 200.928 30.4383C201.234 30.6055 201.45 30.7587 201.576 30.8981C201.701 31.0374 201.778 31.1768 201.806 31.3161C201.834 31.3997 201.855 31.4415 201.868 31.4415C201.882 31.4415 201.938 31.3927 202.036 31.2952C202.704 30.5706 203.478 30.2083 204.356 30.2083H204.418C205.087 30.2083 205.589 30.494 205.923 31.0653C206.035 31.33 206.09 31.5878 206.09 31.8386C206.09 32.2566 206 32.591 205.819 32.8418C205.638 33.0927 205.456 33.2529 205.275 33.3226C205.094 33.3922 204.92 33.4201 204.753 33.4062C204.474 33.4062 204.251 33.3295 204.084 33.1763C203.917 33.023 203.833 32.8209 203.833 32.5701C203.833 31.9013 204.223 31.4554 205.004 31.2325C204.697 31.0513 204.446 30.9608 204.251 30.9608C203.471 30.9608 202.753 31.4763 202.098 32.5074C201.959 32.7304 201.854 32.9603 201.785 33.1972C201.715 33.434 201.478 34.3606 201.074 35.977C200.6 37.9277 200.329 38.9658 200.259 39.0912C200.078 39.4674 199.778 39.6555 199.36 39.6555C199.179 39.6555 199.033 39.6137 198.921 39.5301C198.81 39.4465 198.733 39.3629 198.692 39.2793C198.65 39.1957 198.636 39.126 198.65 39.0703C198.65 38.8891 198.928 37.6908 199.486 35.4753C200.043 33.2599 200.322 32.0267 200.322 31.7759C200.322 31.2325 200.141 30.9608 199.778 30.9608C199.486 30.9608 199.235 31.1559 199.026 31.546C198.817 31.9361 198.65 32.3611 198.524 32.8209C198.399 33.2808 198.322 33.5316 198.294 33.5734C198.267 33.6012 198.155 33.6152 197.96 33.6152H197.667C197.584 33.5316 197.542 33.4689 197.542 33.4271Z" fill="white"/>
<path d="M208.16 38.6941C208.16 38.6941 208.16 38.5199 208.16 38.1716C208.16 37.8232 208.271 37.5236 208.494 37.2728C208.717 37.022 209.017 36.8966 209.393 36.8966C209.783 36.8966 210.131 37.0708 210.438 37.4191C210.744 37.7675 210.905 38.3806 210.918 39.2584C210.918 39.7461 210.856 40.2198 210.73 40.6796C210.605 41.1395 210.459 41.5366 210.291 41.871C210.124 42.2054 209.943 42.4911 209.748 42.7279C209.553 42.9648 209.386 43.1529 209.246 43.2922C209.107 43.4316 209.017 43.4943 208.975 43.4804C208.919 43.4804 208.828 43.4177 208.703 43.2922C208.578 43.1668 208.515 43.0763 208.515 43.0205C208.515 42.9648 208.592 42.8533 208.745 42.6861C208.898 42.5189 209.072 42.3099 209.267 42.0591C209.462 41.8083 209.644 41.4599 209.811 41.0141C209.978 40.5682 210.089 40.0596 210.145 39.4883V39.2375L210.124 39.2584C210.096 39.2723 210.062 39.2863 210.02 39.3002C209.978 39.3141 209.936 39.335 209.894 39.3629C209.853 39.3908 209.79 39.4047 209.706 39.4047C209.623 39.4047 209.539 39.4117 209.455 39.4256C209.079 39.4256 208.773 39.3072 208.536 39.0703L208.16 38.6941Z" fill="white"/>
<path d="M223.48 25.1504C223.494 25.1504 223.995 25.1155 224.985 25.0458C225.974 24.9762 226.483 24.9344 226.51 24.9204C226.678 24.9204 226.761 24.9762 226.761 25.0877C226.761 25.1852 226.253 27.2892 225.236 31.3997C224.218 35.5102 223.696 37.6072 223.668 37.6908C223.64 37.7744 223.633 37.8789 223.647 38.0043C223.647 38.5896 223.842 38.8822 224.232 38.8822C224.358 38.8682 224.497 38.8055 224.65 38.6941C224.943 38.4154 225.229 37.7466 225.507 36.6876C225.591 36.4089 225.661 36.2626 225.716 36.2487C225.744 36.2347 225.814 36.2278 225.925 36.2278H226.092C226.301 36.2278 226.406 36.2835 226.406 36.395C226.406 36.4647 226.385 36.5761 226.343 36.7294C226.162 37.4261 225.953 37.9904 225.716 38.4224C225.479 38.8543 225.284 39.133 225.131 39.2584C224.978 39.3838 224.783 39.4953 224.546 39.5928C224.434 39.6207 224.267 39.6346 224.044 39.6346C223.57 39.6346 223.173 39.5301 222.853 39.3211C222.532 39.1121 222.323 38.8961 222.226 38.6732L222.1 38.3597C222.086 38.3457 222.059 38.3527 222.017 38.3806C221.989 38.4084 221.961 38.4363 221.933 38.4642C221.111 39.2445 220.275 39.6346 219.425 39.6346C218.659 39.6346 217.983 39.3559 217.398 38.7986C216.813 38.2412 216.52 37.3564 216.52 36.1442C216.52 35.4753 216.659 34.7926 216.938 34.0959C217.217 33.3992 217.551 32.8 217.941 32.2984C218.596 31.5042 219.251 30.9538 219.906 30.6473C220.561 30.3407 221.153 30.1874 221.682 30.1874C222.463 30.1874 223.048 30.4801 223.438 31.0653C223.508 31.1489 223.543 31.1768 223.543 31.1489C223.556 31.0931 223.745 30.3338 224.107 28.8707C224.469 27.4076 224.664 26.6343 224.692 26.5507C224.692 26.3696 224.643 26.2581 224.546 26.2163C224.448 26.1745 224.177 26.1397 223.731 26.1118H223.292C223.208 26.0282 223.166 25.9725 223.166 25.9446C223.166 25.9167 223.18 25.7843 223.208 25.5475C223.278 25.2827 223.368 25.1504 223.48 25.1504ZM223.187 32.6119C222.867 31.5112 222.344 30.9608 221.62 30.9608C221.132 30.9608 220.665 31.1768 220.219 31.6087C219.773 32.0407 219.425 32.605 219.174 33.3017C218.77 34.4024 218.485 35.545 218.317 36.7294C218.317 36.7712 218.317 36.8478 218.317 36.9593C218.317 37.0708 218.31 37.1544 218.296 37.2101C218.296 37.8371 218.422 38.2691 218.673 38.506C218.923 38.7428 219.223 38.8682 219.571 38.8822C220.324 38.8822 221.097 38.3806 221.891 37.3773L222.059 37.1474L223.187 32.6119Z" fill="white"/>
<path d="M227.472 36.1442C227.472 34.7369 228.001 33.3992 229.06 32.1312C230.119 30.8632 231.311 30.2223 232.634 30.2083C233.345 30.2083 233.972 30.5497 234.515 31.2325C234.738 30.8145 235.059 30.6055 235.477 30.6055C235.658 30.6055 235.818 30.6612 235.958 30.7727C236.097 30.8841 236.167 31.0235 236.167 31.1907C236.167 31.3718 235.909 32.4865 235.393 34.5348C234.878 36.5831 234.613 37.7396 234.599 38.0043C234.599 38.3527 234.648 38.5826 234.745 38.6941C234.843 38.8055 234.989 38.8682 235.184 38.8822C235.31 38.8682 235.449 38.8055 235.602 38.6941C235.895 38.4154 236.181 37.7466 236.459 36.6876C236.543 36.4089 236.613 36.2626 236.668 36.2487C236.696 36.2347 236.766 36.2278 236.877 36.2278H236.961C237.226 36.2278 237.358 36.2905 237.358 36.4159C237.358 36.4995 237.323 36.6876 237.253 36.9802C237.184 37.2728 237.044 37.649 236.835 38.1088C236.626 38.5687 236.404 38.917 236.167 39.1539C235.986 39.335 235.763 39.4813 235.498 39.5928C235.386 39.6207 235.219 39.6346 234.996 39.6346C234.522 39.6346 234.125 39.5301 233.805 39.3211C233.484 39.1121 233.275 38.8961 233.178 38.6732L233.052 38.3597C233.038 38.3457 233.011 38.3527 232.969 38.3806C232.941 38.4084 232.913 38.4363 232.885 38.4642C232.063 39.2445 231.227 39.6346 230.377 39.6346C229.611 39.6346 228.935 39.3559 228.35 38.7986C227.765 38.2412 227.472 37.3564 227.472 36.1442ZM234.118 32.5701C234.118 32.4865 234.084 32.3333 234.014 32.1103C233.944 31.8874 233.784 31.6435 233.533 31.3788C233.282 31.114 232.962 30.9747 232.572 30.9608C232.084 30.9608 231.617 31.1768 231.171 31.6087C230.725 32.0407 230.377 32.605 230.126 33.3017C229.722 34.4024 229.437 35.545 229.269 36.7294C229.269 36.7712 229.269 36.8478 229.269 36.9593C229.269 37.0708 229.262 37.1544 229.248 37.2101C229.248 37.8371 229.374 38.2691 229.625 38.506C229.876 38.7428 230.175 38.8682 230.523 38.8822C231.053 38.8822 231.575 38.6523 232.091 38.1925C232.607 37.7326 232.913 37.3773 233.011 37.1265C233.038 37.0708 233.227 36.3253 233.575 34.8901C233.923 33.4549 234.104 32.6816 234.118 32.5701Z" fill="white"/>
<path d="M239.093 23.7709L239.176 23.75C239.246 23.75 239.316 23.75 239.385 23.75H239.636L240.221 24.2516C241.531 25.436 242.486 26.913 243.085 28.6826C243.684 30.4522 243.984 32.2915 243.984 34.2004C243.984 35.1479 243.914 36.0606 243.775 36.9384C243.635 37.8162 243.475 38.5617 243.294 39.1748C243.113 39.7879 242.855 40.401 242.52 41.0141C242.186 41.6272 241.921 42.0939 241.726 42.4144C241.531 42.7349 241.246 43.0902 240.869 43.4804C240.493 43.8705 240.27 44.1004 240.201 44.1701C240.131 44.2398 239.971 44.3721 239.72 44.5672C239.678 44.609 239.65 44.6369 239.636 44.6508H239.385C239.274 44.6508 239.197 44.6508 239.155 44.6508C239.114 44.6508 239.079 44.6299 239.051 44.5881C239.023 44.5463 239.002 44.4836 238.988 44.4C239.002 44.3861 239.079 44.2955 239.218 44.1283C241.378 41.8849 242.458 38.5756 242.458 34.2004C242.458 29.8252 241.378 26.5159 239.218 24.2725C239.079 24.1053 239.002 24.0147 238.988 24.0008C238.988 23.8893 239.023 23.8127 239.093 23.7709Z" fill="white"/>
<path d="M253.514 26.5507C253.514 26.4392 253.556 26.3417 253.64 26.2581C253.723 26.1745 253.793 26.1327 253.849 26.1327C253.96 26.1327 255.033 26.6064 257.067 27.5539C259.102 28.5014 261.122 29.4559 263.129 30.4174C265.135 31.3788 266.138 31.8665 266.138 31.8804C266.236 31.9501 266.285 32.0546 266.285 32.1939C266.285 32.3333 266.236 32.4378 266.138 32.5074C266.111 32.5353 264.076 33.5037 260.035 35.4126L254.016 38.2552H253.891C253.64 38.2273 253.514 38.0879 253.514 37.8371C253.514 37.8232 253.514 37.8023 253.514 37.7744C253.5 37.6769 253.605 37.5654 253.828 37.44C254.093 37.3007 255.138 36.7991 256.963 35.9352C258.05 35.4196 258.955 34.9946 259.68 34.6602L264.863 32.1939L259.304 29.5604C258.342 29.1006 257.228 28.5711 255.96 27.972C254.734 27.4007 254.023 27.0593 253.828 26.9478C253.633 26.8364 253.528 26.704 253.514 26.5507ZM253.535 41.8919C253.535 41.7526 253.64 41.6132 253.849 41.4739H265.95C266.173 41.5575 266.285 41.6968 266.285 41.8919C266.285 42.0591 266.18 42.1984 265.971 42.3099H253.828C253.633 42.2124 253.535 42.073 253.535 41.8919Z" fill="white"/>
<path d="M275.878 27.1986C276.658 26.07 277.724 25.5057 279.076 25.5057C279.745 25.5057 280.414 25.6868 281.082 26.0491C281.751 26.4114 282.295 27.0523 282.713 27.972C283.228 29.1285 283.486 30.7169 283.486 32.7373C283.486 34.8971 283.186 36.5483 282.587 37.6908C282.309 38.2761 281.925 38.7428 281.438 39.0912C280.95 39.4395 280.525 39.6555 280.163 39.7391C279.801 39.8227 279.445 39.8715 279.097 39.8854C278.735 39.8854 278.372 39.8436 278.01 39.76C277.648 39.6764 277.223 39.4535 276.735 39.0912C276.247 38.7289 275.864 38.2621 275.586 37.6908C274.986 36.5483 274.687 34.8971 274.687 32.7373C274.687 30.3129 275.084 28.4666 275.878 27.1986ZM280.581 26.9478C280.163 26.5019 279.668 26.279 279.097 26.279C278.512 26.279 278.01 26.5019 277.592 26.9478C277.244 27.3101 277.014 27.8117 276.902 28.4527C276.791 29.0936 276.735 30.4313 276.735 32.4656C276.735 34.6672 276.791 36.1163 276.902 36.813C277.014 37.5097 277.265 38.0601 277.655 38.4642C278.045 38.8822 278.526 39.0912 279.097 39.0912C279.654 39.0912 280.128 38.8822 280.518 38.4642C280.922 38.0461 281.173 37.4609 281.271 36.7085C281.368 35.9561 281.424 34.5418 281.438 32.4656C281.438 30.4452 281.382 29.1145 281.271 28.4736C281.159 27.8326 280.929 27.324 280.581 26.9478Z" fill="white"/>
</g>
<defs>
<clipPath id="clip0_588_6869">
<rect width="700" height="234" fill="white" transform="translate(0 0.75)"/>
</clipPath>
<clipPath id="clip1_588_6869">
<rect width="1284" height="1284" fill="white" transform="translate(-292.5 -523.75)"/>
</clipPath>
</defs>
</svg>
