<svg width="700" height="235" viewBox="0 0 700 235" fill="none" xmlns="http://www.w3.org/2000/svg">
<g clip-path="url(#clip0_588_6877)">
<rect width="700" height="234" transform="translate(0 0.75)" fill="#0A0D12"/>
<g clip-path="url(#clip1_588_6877)">
<rect width="1284" height="1284" transform="translate(-292.5 -523.75)" fill="#0A0D12"/>
<g opacity="0.4">
<line x1="408.656" y1="-1165.75" x2="408.656" y2="1402.25" stroke="#67DBFF" stroke-width="0.917143"/>
<line x1="467.353" y1="-1165.75" x2="467.353" y2="1402.25" stroke="#67DBFF" stroke-width="0.917143"/>
<line x1="526.05" y1="-1165.75" x2="526.05" y2="1402.25" stroke="#67DBFF" stroke-width="0.917143"/>
<line x1="584.748" y1="-1165.75" x2="584.747" y2="1402.25" stroke="#67DBFF" stroke-width="0.917143"/>
<line x1="643.444" y1="-1165.75" x2="643.444" y2="1402.25" stroke="#67DBFF" stroke-width="0.917143"/>
<line x1="56.4732" y1="-1165.75" x2="56.473" y2="1402.25" stroke="#67DBFF" stroke-width="0.917143"/>
<line x1="115.17" y1="-1165.75" x2="115.169" y2="1402.25" stroke="#67DBFF" stroke-width="0.917143"/>
<line x1="173.867" y1="-1165.75" x2="173.867" y2="1402.25" stroke="#67DBFF" stroke-width="0.917143"/>
<line x1="232.564" y1="-1165.75" x2="232.564" y2="1402.25" stroke="#67DBFF" stroke-width="0.917143"/>
<line x1="291.261" y1="-1165.75" x2="291.261" y2="1402.25" stroke="#67DBFF" stroke-width="0.917143"/>
<line x1="-934.5" y1="59.0943" x2="1633.5" y2="59.0943" stroke="#67DBFF" stroke-width="0.917143"/>
<line x1="-934.5" y1="0.397141" x2="1633.5" y2="0.397141" stroke="#67DBFF" stroke-width="0.917143"/>
<line x1="-934.5" y1="235.186" x2="1633.5" y2="235.186" stroke="#67DBFF" stroke-width="0.917143"/>
<line x1="-934.5" y1="176.489" x2="1633.5" y2="176.489" stroke="#67DBFF" stroke-width="0.917143"/>
</g>
<line x1="349.959" y1="-1165.75" x2="349.958" y2="1402.25" stroke="#E6E6E6" stroke-width="0.917143"/>
<line x1="-934.5" y1="117.791" x2="1633.5" y2="117.791" stroke="#E6E6E6" stroke-width="0.917143"/>
</g>
<mask id="path-17-inside-1_588_6877" fill="white">
<path d="M309.134 159.616C298.163 148.645 292 133.765 292 118.25C292 102.735 298.163 87.8551 309.134 76.8843C320.105 65.9134 334.985 59.75 350.5 59.75C366.015 59.75 380.895 65.9134 391.866 76.8842L350.5 118.25L309.134 159.616Z"/>
</mask>
<path d="M309.134 159.616C298.163 148.645 292 133.765 292 118.25C292 102.735 298.163 87.8551 309.134 76.8843C320.105 65.9134 334.985 59.75 350.5 59.75C366.015 59.75 380.895 65.9134 391.866 76.8842L350.5 118.25L309.134 159.616Z" fill="#18FF21" fill-opacity="0.2" stroke="#67FF6D" stroke-width="2" mask="url(#path-17-inside-1_588_6877)"/>
<path d="M348.939 116.689C348.354 117.275 348.354 118.225 348.939 118.811C349.525 119.396 350.475 119.396 351.061 118.811L348.939 116.689ZM391 76.75L374.27 81.2329L386.517 93.4803L391 76.75ZM351.061 118.811L382.515 87.3566L380.393 85.2353L348.939 116.689L351.061 118.811Z" fill="#006AE7"/>
<path d="M401.959 77.9799C401.973 77.9799 402.475 77.9451 403.464 77.8754C404.453 77.8057 404.962 77.7639 404.99 77.75C405.157 77.75 405.241 77.8057 405.241 77.9172C405.241 78.0147 404.732 80.1186 403.715 84.2288C402.698 88.339 402.175 90.4359 402.148 90.5195C402.12 90.603 402.113 90.7075 402.127 90.8329C402.127 91.4181 402.322 91.7107 402.712 91.7107C402.837 91.6968 402.977 91.6341 403.13 91.5226C403.422 91.244 403.708 90.5752 403.987 89.5163C404.07 89.2376 404.14 89.0913 404.196 89.0774C404.224 89.0635 404.293 89.0565 404.405 89.0565H404.572C404.781 89.0565 404.885 89.1122 404.885 89.2237C404.885 89.2934 404.864 89.4048 404.823 89.5581C404.642 90.2547 404.433 90.819 404.196 91.2509C403.959 91.6828 403.764 91.9615 403.61 92.0869C403.457 92.2123 403.262 92.3238 403.025 92.4213C402.914 92.4492 402.747 92.4631 402.524 92.4631C402.05 92.4631 401.653 92.3586 401.332 92.1496C401.012 91.9406 400.803 91.7246 400.705 91.5017L400.58 91.1882C400.566 91.1743 400.538 91.1813 400.497 91.2091C400.469 91.237 400.441 91.2649 400.413 91.2927C399.591 92.073 398.755 92.4631 397.905 92.4631C397.139 92.4631 396.463 92.1844 395.878 91.6271C395.293 91.0698 395 90.1851 395 88.9729C395 88.3041 395.139 87.6214 395.418 86.9248C395.697 86.2281 396.031 85.629 396.421 85.1274C397.076 84.3333 397.731 83.7829 398.386 83.4764C399.041 83.1699 399.633 83.0166 400.162 83.0166C400.942 83.0166 401.528 83.3092 401.918 83.8944C401.987 83.978 402.022 84.0058 402.022 83.978C402.036 83.9222 402.224 83.1629 402.586 81.7C402.949 80.237 403.144 79.4637 403.172 79.3801C403.172 79.199 403.123 79.0876 403.025 79.0458C402.928 79.004 402.656 78.9691 402.21 78.9413H401.771C401.688 78.8577 401.646 78.8019 401.646 78.7741C401.646 78.7462 401.66 78.6138 401.688 78.377C401.757 78.1123 401.848 77.9799 401.959 77.9799ZM401.667 85.4409C401.346 84.3402 400.824 83.7899 400.099 83.7899C399.612 83.7899 399.145 84.0058 398.699 84.4378C398.253 84.8697 397.905 85.434 397.654 86.1306C397.25 87.2313 396.965 88.3738 396.797 89.5581C396.797 89.5999 396.797 89.6765 396.797 89.788C396.797 89.8994 396.79 89.983 396.776 90.0388C396.776 90.6657 396.902 91.0977 397.153 91.3345C397.403 91.5714 397.703 91.6968 398.051 91.7107C398.804 91.7107 399.577 91.2091 400.371 90.206L400.538 89.9761L401.667 85.4409Z" fill="white"/>
<path d="M406.766 78.7323C406.766 78.5929 406.794 78.4327 406.85 78.2516C406.906 78.0705 406.989 77.9799 407.101 77.9799C407.115 77.9799 407.616 77.9451 408.605 77.8754C409.595 77.8057 410.103 77.7639 410.131 77.75C410.298 77.75 410.382 77.8127 410.382 77.9381C410.382 78.0635 410.145 79.0597 409.671 80.9267C409.56 81.4004 409.441 81.8881 409.316 82.3896C409.191 82.8912 409.086 83.2674 409.003 83.5182L408.919 83.9153C408.919 83.9571 408.961 83.9362 409.044 83.8526C409.727 83.2953 410.431 83.0166 411.155 83.0166C412.019 83.0166 412.716 83.3371 413.245 83.978C413.775 84.6189 414.046 85.427 414.06 86.4023C414.06 87.9488 413.51 89.3491 412.409 90.603C411.308 91.857 410.124 92.484 408.856 92.484C408.16 92.484 407.526 92.2193 406.954 91.6898C406.383 91.1604 406.091 90.3035 406.077 89.1192V88.9311C406.077 88.6385 406.132 88.2345 406.244 87.719C406.355 87.2034 406.697 85.831 407.268 83.6018C407.965 80.857 408.313 79.401 408.313 79.2338C408.313 79.0667 408.048 78.9691 407.519 78.9413C407.449 78.9413 407.393 78.9413 407.351 78.9413H407.247C407.108 78.9413 407.017 78.9413 406.975 78.9413C406.933 78.9413 406.885 78.9204 406.829 78.8786C406.773 78.8368 406.752 78.788 406.766 78.7323ZM412.263 85.4618V85.3364C412.263 84.3054 411.838 83.7899 410.988 83.7899C410.751 83.7899 410.507 83.8456 410.256 83.9571C410.006 84.0685 409.776 84.2148 409.567 84.396C409.358 84.5771 409.177 84.7443 409.023 84.8975C408.87 85.0508 408.745 85.2041 408.647 85.3573L408.522 85.5245L408.083 87.3219C407.776 88.5201 407.623 89.37 407.623 89.8716C407.623 90.5404 407.79 91.0419 408.125 91.3763C408.348 91.5992 408.626 91.7107 408.961 91.7107C409.42 91.7107 409.887 91.4878 410.361 91.0419C410.709 90.7215 410.988 90.3314 411.197 89.8716C411.406 89.4118 411.636 88.6803 411.887 87.6772C412.137 86.674 412.263 85.9355 412.263 85.4618Z" fill="white"/>
<path opacity="0.6" d="M348.5 117.75C348.5 118.578 349.172 119.25 350 119.25C350.828 119.25 351.5 118.578 351.5 117.75L348.5 117.75ZM350 58.75L341.34 73.75L358.66 73.75L350 58.75ZM351.5 117.75L351.5 72.25L348.5 72.25L348.5 117.75L351.5 117.75Z" fill="#EB5757"/>
<g opacity="0.6">
<path d="M361.961 37.9799C361.975 37.9799 362.476 37.9451 363.466 37.8754C364.455 37.8057 364.964 37.7639 364.992 37.75C365.159 37.75 365.243 37.8057 365.243 37.9172C365.243 38.0148 364.734 40.1191 363.717 44.2301C362.699 48.3411 362.177 50.4384 362.149 50.522C362.121 50.6056 362.114 50.7102 362.128 50.8356C362.128 51.4209 362.323 51.7135 362.713 51.7135C362.839 51.6996 362.978 51.6369 363.131 51.5254C363.424 51.2467 363.71 50.5778 363.988 49.5187C364.072 49.2399 364.142 49.0936 364.198 49.0797C364.225 49.0658 364.295 49.0588 364.407 49.0588H364.574C364.783 49.0588 364.887 49.1145 364.887 49.226C364.887 49.2957 364.866 49.4072 364.825 49.5605C364.643 50.2572 364.434 50.8216 364.198 51.2536C363.961 51.6857 363.766 51.9644 363.612 52.0898C363.459 52.2152 363.264 52.3267 363.027 52.4242C362.915 52.4521 362.748 52.4661 362.525 52.4661C362.051 52.4661 361.654 52.3615 361.334 52.1525C361.013 51.9435 360.804 51.7275 360.707 51.5045L360.581 51.1909C360.567 51.177 360.539 51.184 360.498 51.2118C360.47 51.2397 360.442 51.2676 360.414 51.2955C359.592 52.0759 358.756 52.4661 357.906 52.4661C357.139 52.4661 356.463 52.1873 355.878 51.6299C355.293 51.0725 355 50.1876 355 48.9752C355 48.3063 355.139 47.6234 355.418 46.9266C355.697 46.2298 356.031 45.6306 356.421 45.1289C357.076 44.3346 357.731 43.7841 358.386 43.4776C359.041 43.171 359.634 43.0177 360.163 43.0177C360.944 43.0177 361.529 43.3103 361.919 43.8956C361.989 43.9792 362.024 44.0071 362.024 43.9792C362.038 43.9235 362.226 43.164 362.588 41.7008C362.95 40.2375 363.145 39.4641 363.173 39.3805C363.173 39.1993 363.124 39.0878 363.027 39.046C362.929 39.0042 362.658 38.9694 362.212 38.9415H361.773C361.689 38.8579 361.647 38.8021 361.647 38.7743C361.647 38.7464 361.661 38.614 361.689 38.3771C361.759 38.1123 361.849 37.9799 361.961 37.9799ZM361.668 45.4425C361.348 44.3416 360.825 43.7911 360.1 43.7911C359.613 43.7911 359.146 44.0071 358.7 44.4391C358.254 44.8711 357.906 45.4355 357.655 46.1323C357.251 47.2332 356.965 48.3759 356.798 49.5605C356.798 49.6023 356.798 49.6789 356.798 49.7904C356.798 49.9019 356.791 49.9855 356.777 50.0412C356.777 50.6684 356.902 51.1004 357.153 51.3373C357.404 51.5742 357.704 51.6996 358.052 51.7135C358.804 51.7135 359.578 51.2118 360.372 50.2085L360.539 49.9785L361.668 45.4425Z" fill="white"/>
<path d="M365.953 48.9334C365.953 47.4144 366.553 46.0487 367.751 44.8363C368.95 43.6239 370.246 43.0177 371.639 43.0177C372.42 43.0177 373.033 43.1849 373.479 43.5194C373.925 43.8538 374.155 44.2928 374.168 44.8363C374.168 45.2404 374.036 45.5818 373.771 45.8605C373.507 46.1393 373.172 46.2856 372.768 46.2995C372.503 46.2995 372.294 46.2298 372.141 46.0905C371.988 45.9511 371.911 45.7421 371.911 45.4634C371.911 45.1847 371.988 44.9478 372.141 44.7527C372.294 44.5576 372.447 44.4112 372.601 44.3137C372.754 44.2161 372.852 44.1743 372.893 44.1883H372.914C372.914 44.1604 372.872 44.1186 372.789 44.0629C372.705 44.0071 372.559 43.9514 372.35 43.8956C372.141 43.8399 371.904 43.812 371.639 43.812C371.221 43.812 370.824 43.9096 370.448 44.1047C370.155 44.2301 369.855 44.4461 369.549 44.7527C368.936 45.3658 368.49 46.2298 368.211 47.3447C367.932 48.4596 367.786 49.2678 367.772 49.7695C367.772 50.4105 367.953 50.8913 368.316 51.2118C368.622 51.5463 369.026 51.7135 369.528 51.7135H369.612C371.172 51.7135 372.461 51.1213 373.479 49.9367C373.604 49.7974 373.688 49.7277 373.73 49.7277C373.785 49.7277 373.876 49.7904 374.001 49.9158C374.127 50.0412 374.196 50.1388 374.21 50.2085C374.224 50.2782 374.162 50.3827 374.022 50.522C373.883 50.6614 373.681 50.8565 373.416 51.1073C373.151 51.3582 372.838 51.5672 372.475 51.7344C372.113 51.9017 371.667 52.0759 371.137 52.257C370.608 52.4382 370.051 52.5148 369.465 52.487C368.42 52.487 367.577 52.1525 366.936 51.4836C366.295 50.8147 365.967 49.9646 365.953 48.9334Z" fill="white"/>
<path d="M374.754 46.2577C374.754 46.1462 374.817 45.9302 374.942 45.6097C375.067 45.2892 375.242 44.9269 375.465 44.5227C375.687 44.1186 375.994 43.7702 376.384 43.4776C376.774 43.1849 377.186 43.0316 377.618 43.0177C378.259 43.0177 378.739 43.1919 379.06 43.5403C379.38 43.8887 379.541 44.2998 379.541 44.7736C379.541 45.0244 379.304 45.8048 378.83 47.1148C378.356 48.4247 378.119 49.4072 378.119 50.0622C378.119 50.6614 378.217 51.0795 378.412 51.3164C378.607 51.5533 378.9 51.6787 379.29 51.6926C379.68 51.7066 380.049 51.5881 380.398 51.3373C380.746 51.0864 381.004 50.8495 381.171 50.6265L381.401 50.2712C381.429 50.2154 381.694 49.1563 382.195 47.0939C382.613 45.4216 382.864 44.4461 382.948 44.1674C383.032 43.8887 383.129 43.6866 383.241 43.5612C383.478 43.3521 383.728 43.2476 383.993 43.2476C384.23 43.2476 384.404 43.3173 384.516 43.4567C384.627 43.596 384.683 43.7284 384.683 43.8538L383.094 50.5011C383.08 50.5708 383.073 50.6823 383.073 50.8356C383.073 51.184 383.122 51.4139 383.22 51.5254C383.317 51.6369 383.464 51.6996 383.659 51.7135C383.965 51.6717 384.209 51.4557 384.39 51.0655C384.571 50.6753 384.78 50.0622 385.017 49.226C385.045 49.1145 385.185 49.0588 385.435 49.0588C385.7 49.0588 385.833 49.1215 385.833 49.2469C385.819 49.3166 385.805 49.4141 385.791 49.5396C385.777 49.665 385.714 49.888 385.603 50.2085C385.491 50.529 385.373 50.8286 385.247 51.1073C385.122 51.386 384.948 51.6508 384.725 51.9017C384.502 52.1525 384.251 52.3267 383.972 52.4242C383.861 52.4521 383.694 52.4661 383.471 52.4661C382.551 52.4661 381.917 52.0759 381.568 51.2955C381.54 51.3094 381.464 51.3791 381.338 51.5045C381.213 51.6299 381.088 51.7344 380.962 51.818C380.837 51.9017 380.683 52.0062 380.502 52.1316C380.321 52.257 380.119 52.3406 379.896 52.3824C379.673 52.4242 379.436 52.4591 379.185 52.487C378.572 52.487 378.029 52.3615 377.555 52.1107C376.83 51.6787 376.468 50.9401 376.468 49.8949C376.468 49.1006 376.712 48.0624 377.199 46.7803C377.687 45.4982 377.931 44.683 377.931 44.3346C377.931 44.3207 377.931 44.3067 377.931 44.2928C377.931 44.1674 377.931 44.0838 377.931 44.0419C377.931 44.0001 377.903 43.9514 377.848 43.8956C377.792 43.8399 377.715 43.812 377.618 43.812H377.534C377.213 43.812 376.921 43.9444 376.656 44.2092C376.391 44.474 376.182 44.7596 376.029 45.0662C375.876 45.3728 375.757 45.6655 375.674 45.9442C375.59 46.2229 375.534 46.3762 375.506 46.404C375.478 46.4319 375.367 46.4458 375.172 46.4458H374.879C374.796 46.3622 374.754 46.2995 374.754 46.2577Z" fill="white"/>
<path d="M386.711 46.2577C386.725 46.2159 386.738 46.1602 386.752 46.0905C386.766 46.0208 386.801 45.8675 386.857 45.6306C386.913 45.3937 386.982 45.1777 387.066 44.9826C387.15 44.7875 387.254 44.5576 387.379 44.2928C387.505 44.028 387.644 43.819 387.798 43.6657C387.951 43.5124 388.132 43.3591 388.341 43.2058C388.55 43.0525 388.78 42.9898 389.031 43.0177C389.435 43.0177 389.79 43.1013 390.097 43.2685C390.404 43.4357 390.62 43.589 390.745 43.7284C390.87 43.8678 390.947 44.0071 390.975 44.1465C391.003 44.2301 391.024 44.2719 391.038 44.2719C391.052 44.2719 391.107 44.2231 391.205 44.1256C391.874 43.4009 392.647 43.0386 393.525 43.0386H393.588C394.257 43.0386 394.758 43.3243 395.093 43.8956C395.204 44.1604 395.26 44.4182 395.26 44.6691C395.26 45.0871 395.17 45.4216 394.988 45.6724C394.807 45.9233 394.626 46.0835 394.445 46.1532C394.264 46.2229 394.09 46.2507 393.922 46.2368C393.644 46.2368 393.421 46.1602 393.253 46.0069C393.086 45.8536 393.003 45.6515 393.003 45.4007C393.003 44.7318 393.393 44.2858 394.173 44.0629C393.867 43.8817 393.616 43.7911 393.421 43.7911C392.64 43.7911 391.923 44.3067 391.268 45.338C391.128 45.5609 391.024 45.7909 390.954 46.0278C390.884 46.2647 390.647 47.1914 390.243 48.8079C389.769 50.7589 389.498 51.7971 389.428 51.9226C389.247 52.2988 388.947 52.487 388.529 52.487C388.348 52.487 388.202 52.4451 388.09 52.3615C387.979 52.2779 387.902 52.1943 387.86 52.1107C387.818 52.0271 387.805 51.9574 387.818 51.9017C387.818 51.7205 388.097 50.522 388.655 48.3063C389.212 46.0905 389.491 44.8572 389.491 44.6063C389.491 44.0629 389.31 43.7911 388.947 43.7911C388.655 43.7911 388.404 43.9862 388.195 44.3764C387.986 44.7666 387.818 45.1916 387.693 45.6515C387.568 46.1114 387.491 46.3622 387.463 46.404C387.435 46.4319 387.324 46.4458 387.129 46.4458H386.836C386.752 46.3622 386.711 46.2995 386.711 46.2577Z" fill="white"/>
<path d="M396.159 46.2577C396.173 46.2159 396.187 46.1602 396.201 46.0905C396.215 46.0208 396.25 45.8675 396.305 45.6306C396.361 45.3937 396.431 45.1777 396.514 44.9826C396.598 44.7875 396.702 44.5576 396.828 44.2928C396.953 44.028 397.093 43.819 397.246 43.6657C397.399 43.5124 397.58 43.3591 397.789 43.2058C397.998 43.0525 398.228 42.9898 398.479 43.0177C398.883 43.0177 399.239 43.1013 399.545 43.2685C399.852 43.4357 400.068 43.589 400.193 43.7284C400.319 43.8678 400.395 44.0071 400.423 44.1465C400.451 44.2301 400.472 44.2719 400.486 44.2719C400.5 44.2719 400.556 44.2231 400.653 44.1256C401.322 43.4009 402.096 43.0386 402.973 43.0386H403.036C403.705 43.0386 404.207 43.3243 404.541 43.8956C404.653 44.1604 404.708 44.4182 404.708 44.6691C404.708 45.0871 404.618 45.4216 404.437 45.6724C404.256 45.9233 404.074 46.0835 403.893 46.1532C403.712 46.2229 403.538 46.2507 403.371 46.2368C403.092 46.2368 402.869 46.1602 402.702 46.0069C402.535 45.8536 402.451 45.6515 402.451 45.4007C402.451 44.7318 402.841 44.2858 403.621 44.0629C403.315 43.8817 403.064 43.7911 402.869 43.7911C402.089 43.7911 401.371 44.3067 400.716 45.338C400.577 45.5609 400.472 45.7909 400.402 46.0278C400.333 46.2647 400.096 47.1914 399.692 48.8079C399.218 50.7589 398.946 51.7971 398.876 51.9226C398.695 52.2988 398.396 52.487 397.978 52.487C397.796 52.487 397.65 52.4451 397.539 52.3615C397.427 52.2779 397.35 52.1943 397.309 52.1107C397.267 52.0271 397.253 51.9574 397.267 51.9017C397.267 51.7205 397.546 50.522 398.103 48.3063C398.66 46.0905 398.939 44.8572 398.939 44.6063C398.939 44.0629 398.758 43.7911 398.396 43.7911C398.103 43.7911 397.852 43.9862 397.643 44.3764C397.434 44.7666 397.267 45.1916 397.141 45.6515C397.016 46.1114 396.939 46.3622 396.911 46.404C396.884 46.4319 396.772 46.4458 396.577 46.4458H396.284C396.201 46.3622 396.159 46.2995 396.159 46.2577Z" fill="white"/>
</g>
<path d="M157.96 29.1504C157.974 29.1504 158.476 29.1155 159.465 29.0458C160.454 28.9762 160.963 28.9344 160.991 28.9204C161.158 28.9204 161.241 28.9762 161.241 29.0877C161.241 29.1852 160.733 31.2892 159.716 35.3997C158.698 39.5102 158.176 41.6072 158.148 41.6908C158.12 41.7744 158.113 41.8789 158.127 42.0043C158.127 42.5896 158.322 42.8822 158.712 42.8822C158.838 42.8682 158.977 42.8055 159.13 42.6941C159.423 42.4154 159.709 41.7466 159.987 40.6876C160.071 40.4089 160.141 40.2626 160.196 40.2487C160.224 40.2347 160.294 40.2278 160.405 40.2278H160.573C160.782 40.2278 160.886 40.2835 160.886 40.395C160.886 40.4647 160.865 40.5761 160.823 40.7294C160.642 41.4261 160.433 41.9904 160.196 42.4224C159.959 42.8543 159.764 43.133 159.611 43.2584C159.458 43.3838 159.263 43.4953 159.026 43.5928C158.914 43.6207 158.747 43.6346 158.524 43.6346C158.051 43.6346 157.653 43.5301 157.333 43.3211C157.012 43.1121 156.803 42.8961 156.706 42.6732L156.581 42.3597C156.567 42.3457 156.539 42.3527 156.497 42.3806C156.469 42.4084 156.441 42.4363 156.413 42.4642C155.591 43.2445 154.755 43.6346 153.905 43.6346C153.139 43.6346 152.463 43.3559 151.878 42.7986C151.293 42.2412 151 41.3564 151 40.1442C151 39.4753 151.139 38.7926 151.418 38.0959C151.697 37.3992 152.031 36.8 152.421 36.2984C153.076 35.5042 153.731 34.9538 154.386 34.6473C155.041 34.3407 155.633 34.1874 156.162 34.1874C156.943 34.1874 157.528 34.4801 157.918 35.0653C157.988 35.1489 158.023 35.1768 158.023 35.1489C158.037 35.0931 158.225 34.3338 158.587 32.8707C158.949 31.4076 159.144 30.6343 159.172 30.5507C159.172 30.3696 159.123 30.2581 159.026 30.2163C158.928 30.1745 158.657 30.1397 158.211 30.1118H157.772C157.688 30.0282 157.646 29.9725 157.646 29.9446C157.646 29.9167 157.66 29.7843 157.688 29.5475C157.758 29.2827 157.848 29.1504 157.96 29.1504ZM157.667 36.6119C157.347 35.5112 156.824 34.9608 156.1 34.9608C155.612 34.9608 155.145 35.1768 154.699 35.6087C154.254 36.0407 153.905 36.605 153.654 37.3017C153.25 38.4024 152.965 39.545 152.797 40.7294C152.797 40.7712 152.797 40.8478 152.797 40.9593C152.797 41.0708 152.791 41.1544 152.777 41.2101C152.777 41.8371 152.902 42.2691 153.153 42.506C153.404 42.7428 153.703 42.8682 154.052 42.8822C154.804 42.8822 155.577 42.3806 156.372 41.3773L156.539 41.1474L157.667 36.6119Z" fill="white"/>
<path d="M162.057 39.9143C162.057 39.12 162.189 38.3955 162.454 37.7406C162.718 37.0857 163.06 36.5423 163.478 36.1103C163.896 35.6784 164.363 35.3161 164.878 35.0235C165.394 34.7309 165.881 34.5149 166.341 34.3756C166.801 34.2362 167.24 34.1735 167.658 34.1874H167.721C168.348 34.1874 168.891 34.3407 169.351 34.6473C169.811 34.9538 170.041 35.4067 170.041 36.0058C170.041 37.2599 169.267 38.082 167.721 38.4721C167.038 38.6533 166.104 38.7508 164.92 38.7647C164.404 38.7647 164.14 38.7787 164.126 38.8065C164.126 38.8344 164.084 39.0782 164 39.5381C163.917 39.9979 163.868 40.402 163.854 40.7503C163.854 41.4052 164 41.9207 164.293 42.297C164.586 42.6732 165.024 42.8682 165.61 42.8822C166.195 42.8961 166.843 42.7637 167.553 42.4851C168.264 42.2064 168.905 41.7466 169.476 41.1056C169.602 40.9663 169.685 40.8966 169.727 40.8966C169.783 40.8966 169.873 40.9593 169.999 41.0847C170.124 41.2101 170.194 41.3077 170.208 41.3773C170.222 41.447 170.159 41.5585 170.02 41.7117C169.88 41.865 169.671 42.0531 169.393 42.2761C169.114 42.499 168.794 42.715 168.431 42.924C168.069 43.133 167.63 43.3072 167.115 43.4465C166.599 43.5858 166.069 43.6555 165.526 43.6555C164.425 43.6555 163.575 43.2863 162.976 42.5478C162.377 41.8093 162.07 40.9314 162.057 39.9143ZM169.037 36.0476C168.954 35.3231 168.48 34.9608 167.616 34.9608C167.156 34.9608 166.731 35.0583 166.341 35.2534C165.951 35.4485 165.638 35.6853 165.401 35.964C165.164 36.2427 164.962 36.5283 164.795 36.8209C164.627 37.1136 164.516 37.3644 164.46 37.5734C164.404 37.7824 164.37 37.9148 164.356 37.9705C164.356 37.9844 164.495 37.9914 164.774 37.9914C166.348 37.9914 167.449 37.8242 168.076 37.4898C168.703 37.1554 169.023 36.6746 169.037 36.0476Z" fill="white"/>
<path d="M171.545 35.3788C171.448 35.2813 171.399 35.2116 171.399 35.1698C171.399 35.114 171.42 35.0026 171.462 34.8354C171.504 34.6682 171.539 34.5706 171.566 34.5428C171.594 34.4731 171.657 34.4383 171.754 34.4383C171.852 34.4383 172.207 34.4313 172.82 34.4174H173.928L174.325 32.7453C174.367 32.592 174.416 32.39 174.472 32.1392C174.527 31.8884 174.576 31.7072 174.618 31.5957C174.66 31.4843 174.702 31.3449 174.743 31.1777C174.785 31.0105 174.841 30.8921 174.911 30.8224C174.98 30.7527 175.05 30.6691 175.12 30.5716C175.189 30.4741 175.287 30.4114 175.412 30.3835C175.538 30.3556 175.663 30.3417 175.788 30.3417C176.039 30.3556 176.213 30.4323 176.311 30.5716C176.408 30.7109 176.457 30.8433 176.457 30.9687C176.457 31.0663 176.394 31.3937 176.269 31.9511C176.144 32.5084 176.004 33.0588 175.851 33.6022L175.642 34.3756C175.642 34.4034 175.99 34.4174 176.687 34.4174H177.753C177.851 34.5149 177.899 34.5915 177.899 34.6473C177.899 34.9538 177.809 35.1977 177.628 35.3788H175.391L174.639 38.4094C174.095 40.6388 173.824 41.8371 173.824 42.0043C173.824 42.5896 174.012 42.8822 174.388 42.8822C174.876 42.8822 175.349 42.6453 175.809 42.1716C176.269 41.6978 176.638 41.1126 176.917 40.4159C176.945 40.3323 176.98 40.2835 177.021 40.2696C177.063 40.2556 177.168 40.2417 177.335 40.2278H177.419C177.628 40.2278 177.732 40.2835 177.732 40.395C177.732 40.4368 177.711 40.5204 177.669 40.6458C177.6 40.8687 177.474 41.1335 177.293 41.44C177.112 41.7466 176.875 42.074 176.583 42.4224C176.29 42.7707 175.935 43.0633 175.517 43.3002C175.099 43.5371 174.674 43.6555 174.242 43.6555C173.824 43.6555 173.427 43.551 173.05 43.342C172.674 43.133 172.402 42.7707 172.235 42.2552C172.207 42.1437 172.193 41.9556 172.193 41.6908V41.3146L172.925 38.3885C173.413 36.4238 173.663 35.4345 173.677 35.4206C173.677 35.3927 173.322 35.3788 172.611 35.3788H171.545Z" fill="white"/>
<path d="M180.512 38.2004C180.512 37.239 180.582 36.3263 180.721 35.4624C180.86 34.5985 181.021 33.853 181.202 33.226C181.383 32.599 181.641 31.9859 181.975 31.3867C182.309 30.7876 182.574 30.3208 182.769 29.9864C182.964 29.652 183.257 29.2897 183.647 28.8995C184.037 28.5094 184.267 28.2725 184.337 28.1889C184.406 28.1053 184.581 27.959 184.859 27.75H185.215C185.41 27.75 185.507 27.8127 185.507 27.9381C185.507 27.9799 185.389 28.1262 185.152 28.377C184.915 28.6278 184.629 28.9971 184.295 29.4848C183.961 29.9725 183.619 30.5716 183.271 31.2822C182.922 31.9929 182.63 32.9543 182.393 34.1665C182.156 35.3788 182.038 36.7234 182.038 38.2004C182.038 39.6774 182.156 41.015 182.393 42.2134C182.63 43.4117 182.916 44.3801 183.25 45.1186C183.584 45.8571 183.926 46.4562 184.274 46.916C184.622 47.3759 184.915 47.7451 185.152 48.0238C185.389 48.3025 185.507 48.4488 185.507 48.4627C185.507 48.5881 185.403 48.6508 185.194 48.6508H184.859L184.274 48.1492C182.964 46.9648 182.01 45.4878 181.411 43.7182C180.812 41.9486 180.512 40.1093 180.512 38.2004Z" fill="white"/>
<path d="M194.348 29.1504C194.362 29.1504 194.864 29.1155 195.853 29.0458C196.842 28.9762 197.351 28.9344 197.379 28.9204C197.546 28.9204 197.63 28.9762 197.63 29.0877C197.63 29.1852 197.121 31.2892 196.104 35.3997C195.087 39.5102 194.564 41.6072 194.536 41.6908C194.509 41.7744 194.502 41.8789 194.515 42.0043C194.515 42.5896 194.711 42.8822 195.101 42.8822C195.226 42.8682 195.365 42.8055 195.519 42.6941C195.811 42.4154 196.097 41.7466 196.376 40.6876C196.459 40.4089 196.529 40.2626 196.585 40.2487C196.613 40.2347 196.682 40.2278 196.794 40.2278H196.961C197.17 40.2278 197.274 40.2835 197.274 40.395C197.274 40.4647 197.253 40.5761 197.212 40.7294C197.031 41.4261 196.822 41.9904 196.585 42.4224C196.348 42.8543 196.153 43.133 195.999 43.2584C195.846 43.3838 195.651 43.4953 195.414 43.5928C195.303 43.6207 195.136 43.6346 194.913 43.6346C194.439 43.6346 194.042 43.5301 193.721 43.3211C193.401 43.1121 193.192 42.8961 193.094 42.6732L192.969 42.3597C192.955 42.3457 192.927 42.3527 192.885 42.3806C192.857 42.4084 192.829 42.4363 192.802 42.4642C191.98 43.2445 191.143 43.6346 190.294 43.6346C189.527 43.6346 188.851 43.3559 188.266 42.7986C187.681 42.2412 187.388 41.3564 187.388 40.1442C187.388 39.4753 187.528 38.7926 187.806 38.0959C188.085 37.3992 188.419 36.8 188.81 36.2984C189.464 35.5042 190.119 34.9538 190.774 34.6473C191.429 34.3407 192.021 34.1874 192.551 34.1874C193.331 34.1874 193.916 34.4801 194.306 35.0653C194.376 35.1489 194.411 35.1768 194.411 35.1489C194.425 35.0931 194.613 34.3338 194.975 32.8707C195.338 31.4076 195.533 30.6343 195.561 30.5507C195.561 30.3696 195.512 30.2581 195.414 30.2163C195.317 30.1745 195.045 30.1397 194.599 30.1118H194.16C194.077 30.0282 194.035 29.9725 194.035 29.9446C194.035 29.9167 194.049 29.7843 194.077 29.5475C194.146 29.2827 194.237 29.1504 194.348 29.1504ZM194.056 36.6119C193.735 35.5112 193.213 34.9608 192.488 34.9608C192 34.9608 191.534 35.1768 191.088 35.6087C190.642 36.0407 190.294 36.605 190.043 37.3017C189.639 38.4024 189.353 39.545 189.186 40.7294C189.186 40.7712 189.186 40.8478 189.186 40.9593C189.186 41.0708 189.179 41.1544 189.165 41.2101C189.165 41.8371 189.29 42.2691 189.541 42.506C189.792 42.7428 190.091 42.8682 190.44 42.8822C191.192 42.8822 191.966 42.3806 192.76 41.3773L192.927 41.1474L194.056 36.6119Z" fill="white"/>
<path d="M199.155 29.9028C199.155 29.7634 199.183 29.6032 199.239 29.4221C199.295 29.2409 199.378 29.1504 199.49 29.1504C199.504 29.1504 200.005 29.1155 200.995 29.0458C201.984 28.9762 202.493 28.9344 202.52 28.9204C202.688 28.9204 202.771 28.9831 202.771 29.1086C202.771 29.234 202.534 30.2302 202.061 32.0974C201.949 32.5711 201.831 33.0588 201.705 33.5604C201.58 34.062 201.475 34.4383 201.392 34.6891L201.308 35.0862C201.308 35.128 201.35 35.1071 201.434 35.0235C202.116 34.4661 202.82 34.1874 203.545 34.1874C204.409 34.1874 205.105 34.5079 205.635 35.1489C206.164 35.7898 206.436 36.598 206.45 37.5734C206.45 39.12 205.899 40.5204 204.799 41.7744C203.698 43.0285 202.514 43.6555 201.246 43.6555C200.549 43.6555 199.915 43.3908 199.344 42.8613C198.772 42.3318 198.48 41.4749 198.466 40.2905V40.1024C198.466 39.8098 198.521 39.4057 198.633 38.8901C198.744 38.3746 199.086 37.0021 199.657 34.7727C200.354 32.0277 200.702 30.5716 200.702 30.4044C200.702 30.2372 200.437 30.1397 199.908 30.1118C199.838 30.1118 199.782 30.1118 199.741 30.1118H199.636C199.497 30.1118 199.406 30.1118 199.364 30.1118C199.323 30.1118 199.274 30.0909 199.218 30.0491C199.162 30.0073 199.142 29.9585 199.155 29.9028ZM204.652 36.6328V36.5074C204.652 35.4763 204.227 34.9608 203.377 34.9608C203.141 34.9608 202.897 35.0165 202.646 35.128C202.395 35.2395 202.165 35.3858 201.956 35.5669C201.747 35.748 201.566 35.9152 201.413 36.0685C201.259 36.2218 201.134 36.3751 201.037 36.5283L200.911 36.6955L200.472 38.493C200.166 39.6913 200.012 40.5413 200.012 41.0429C200.012 41.7117 200.18 42.2134 200.514 42.5478C200.737 42.7707 201.016 42.8822 201.35 42.8822C201.81 42.8822 202.277 42.6592 202.75 42.2134C203.099 41.8929 203.377 41.5027 203.586 41.0429C203.795 40.5831 204.025 39.8516 204.276 38.8483C204.527 37.8451 204.652 37.1066 204.652 36.6328Z" fill="white"/>
<path d="M208.247 42.6941C208.247 42.6941 208.247 42.5199 208.247 42.1716C208.247 41.8232 208.359 41.5236 208.582 41.2728C208.805 41.022 209.104 40.8966 209.48 40.8966C209.871 40.8966 210.219 41.0708 210.525 41.4191C210.832 41.7675 210.992 42.3806 211.006 43.2584C211.006 43.7461 210.943 44.2198 210.818 44.6796C210.693 45.1395 210.546 45.5366 210.379 45.871C210.212 46.2054 210.031 46.4911 209.836 46.7279C209.641 46.9648 209.473 47.1529 209.334 47.2922C209.195 47.4316 209.104 47.4943 209.062 47.4804C209.007 47.4804 208.916 47.4177 208.791 47.2922C208.665 47.1668 208.603 47.0763 208.603 47.0205C208.603 46.9648 208.679 46.8533 208.833 46.6861C208.986 46.5189 209.16 46.3099 209.355 46.0591C209.55 45.8083 209.731 45.4599 209.898 45.0141C210.066 44.5682 210.177 44.0596 210.233 43.4883V43.2375L210.212 43.2584C210.184 43.2723 210.149 43.2863 210.107 43.3002C210.066 43.3141 210.024 43.335 209.982 43.3629C209.94 43.3908 209.878 43.4047 209.794 43.4047C209.71 43.4047 209.627 43.4117 209.543 43.4256C209.167 43.4256 208.86 43.3072 208.624 43.0703L208.247 42.6941Z" fill="white"/>
<path d="M223.568 29.1504C223.582 29.1504 224.083 29.1155 225.072 29.0458C226.062 28.9762 226.57 28.9344 226.598 28.9204C226.765 28.9204 226.849 28.9762 226.849 29.0877C226.849 29.1852 226.34 31.2892 225.323 35.3997C224.306 39.5102 223.784 41.6072 223.756 41.6908C223.728 41.7744 223.721 41.8789 223.735 42.0043C223.735 42.5896 223.93 42.8822 224.32 42.8822C224.445 42.8682 224.585 42.8055 224.738 42.6941C225.031 42.4154 225.316 41.7466 225.595 40.6876C225.679 40.4089 225.748 40.2626 225.804 40.2487C225.832 40.2347 225.901 40.2278 226.013 40.2278H226.18C226.389 40.2278 226.494 40.2835 226.494 40.395C226.494 40.4647 226.473 40.5761 226.431 40.7294C226.25 41.4261 226.041 41.9904 225.804 42.4224C225.567 42.8543 225.372 43.133 225.219 43.2584C225.065 43.3838 224.87 43.4953 224.634 43.5928C224.522 43.6207 224.355 43.6346 224.132 43.6346C223.658 43.6346 223.261 43.5301 222.941 43.3211C222.62 43.1121 222.411 42.8961 222.314 42.6732L222.188 42.3597C222.174 42.3457 222.146 42.3527 222.105 42.3806C222.077 42.4084 222.049 42.4363 222.021 42.4642C221.199 43.2445 220.363 43.6346 219.513 43.6346C218.746 43.6346 218.071 43.3559 217.485 42.7986C216.9 42.2412 216.608 41.3564 216.608 40.1442C216.608 39.4753 216.747 38.7926 217.026 38.0959C217.304 37.3992 217.639 36.8 218.029 36.2984C218.684 35.5042 219.339 34.9538 219.994 34.6473C220.648 34.3407 221.241 34.1874 221.77 34.1874C222.55 34.1874 223.136 34.4801 223.526 35.0653C223.595 35.1489 223.63 35.1768 223.63 35.1489C223.644 35.0931 223.832 34.3338 224.195 32.8707C224.557 31.4076 224.752 30.6343 224.78 30.5507C224.78 30.3696 224.731 30.2581 224.634 30.2163C224.536 30.1745 224.264 30.1397 223.818 30.1118H223.379C223.296 30.0282 223.254 29.9725 223.254 29.9446C223.254 29.9167 223.268 29.7843 223.296 29.5475C223.366 29.2827 223.456 29.1504 223.568 29.1504ZM223.275 36.6119C222.954 35.5112 222.432 34.9608 221.707 34.9608C221.22 34.9608 220.753 35.1768 220.307 35.6087C219.861 36.0407 219.513 36.605 219.262 37.3017C218.858 38.4024 218.572 39.545 218.405 40.7294C218.405 40.7712 218.405 40.8478 218.405 40.9593C218.405 41.0708 218.398 41.1544 218.384 41.2101C218.384 41.8371 218.51 42.2691 218.76 42.506C219.011 42.7428 219.311 42.8682 219.659 42.8822C220.412 42.8822 221.185 42.3806 221.979 41.3773L222.146 41.1474L223.275 36.6119Z" fill="white"/>
<path d="M227.539 40.1442C227.539 38.7369 228.068 37.3992 229.127 36.1312C230.186 34.8632 231.378 34.2223 232.701 34.2083C233.412 34.2083 234.039 34.5497 234.582 35.2325C234.805 34.8145 235.126 34.6055 235.544 34.6055C235.725 34.6055 235.885 34.6612 236.024 34.7727C236.164 34.8841 236.233 35.0235 236.233 35.1907C236.233 35.3718 235.976 36.4865 235.46 38.5348C234.945 40.5831 234.68 41.7396 234.666 42.0043C234.666 42.3527 234.715 42.5826 234.812 42.6941C234.91 42.8055 235.056 42.8682 235.251 42.8822C235.377 42.8682 235.516 42.8055 235.669 42.6941C235.962 42.4154 236.247 41.7466 236.526 40.6876C236.61 40.4089 236.679 40.2626 236.735 40.2487C236.763 40.2347 236.833 40.2278 236.944 40.2278H237.028C237.292 40.2278 237.425 40.2905 237.425 40.4159C237.425 40.4995 237.39 40.6876 237.32 40.9802C237.251 41.2728 237.111 41.649 236.902 42.1088C236.693 42.5687 236.47 42.917 236.233 43.1539C236.052 43.335 235.829 43.4813 235.565 43.5928C235.453 43.6207 235.286 43.6346 235.063 43.6346C234.589 43.6346 234.192 43.5301 233.872 43.3211C233.551 43.1121 233.342 42.8961 233.245 42.6732L233.119 42.3597C233.105 42.3457 233.077 42.3527 233.036 42.3806C233.008 42.4084 232.98 42.4363 232.952 42.4642C232.13 43.2445 231.294 43.6346 230.444 43.6346C229.678 43.6346 229.002 43.3559 228.417 42.7986C227.831 42.2412 227.539 41.3564 227.539 40.1442ZM234.185 36.5701C234.185 36.4865 234.15 36.3333 234.081 36.1103C234.011 35.8874 233.851 35.6435 233.6 35.3788C233.349 35.114 233.029 34.9747 232.639 34.9608C232.151 34.9608 231.684 35.1768 231.238 35.6087C230.792 36.0407 230.444 36.605 230.193 37.3017C229.789 38.4024 229.503 39.545 229.336 40.7294C229.336 40.7712 229.336 40.8478 229.336 40.9593C229.336 41.0708 229.329 41.1544 229.315 41.2101C229.315 41.8371 229.441 42.2691 229.692 42.506C229.942 42.7428 230.242 42.8682 230.59 42.8822C231.12 42.8822 231.642 42.6523 232.158 42.1925C232.673 41.7326 232.98 41.3773 233.077 41.1265C233.105 41.0708 233.293 40.3253 233.642 38.8901C233.99 37.4549 234.171 36.6816 234.185 36.5701Z" fill="white"/>
<path d="M239.18 27.7709L239.264 27.75C239.334 27.75 239.403 27.75 239.473 27.75H239.724L240.309 28.2516C241.619 29.436 242.573 30.913 243.173 32.6826C243.772 34.4522 244.071 36.2915 244.071 38.2004C244.071 39.1479 244.002 40.0606 243.862 40.9384C243.723 41.8162 243.563 42.5617 243.382 43.1748C243.2 43.7879 242.943 44.401 242.608 45.0141C242.274 45.6272 242.009 46.0939 241.814 46.4144C241.619 46.7349 241.333 47.0902 240.957 47.4804C240.581 47.8705 240.358 48.1004 240.288 48.1701C240.219 48.2398 240.058 48.3721 239.808 48.5672C239.766 48.609 239.738 48.6369 239.724 48.6508H239.473C239.362 48.6508 239.285 48.6508 239.243 48.6508C239.201 48.6508 239.167 48.6299 239.139 48.5881C239.111 48.5463 239.09 48.4836 239.076 48.4C239.09 48.3861 239.167 48.2955 239.306 48.1283C241.466 45.8849 242.546 42.5756 242.546 38.2004C242.546 33.8252 241.466 30.5159 239.306 28.2725C239.167 28.1053 239.09 28.0147 239.076 28.0008C239.076 27.8893 239.111 27.8127 239.18 27.7709Z" fill="white"/>
<path d="M253.602 30.5507C253.602 30.4392 253.644 30.3417 253.727 30.2581C253.811 30.1745 253.881 30.1327 253.936 30.1327C254.048 30.1327 255.121 30.6064 257.155 31.5539C259.19 32.5014 261.21 33.4559 263.216 34.4174C265.223 35.3788 266.226 35.8665 266.226 35.8804C266.324 35.9501 266.372 36.0546 266.372 36.1939C266.372 36.3333 266.324 36.4378 266.226 36.5074C266.198 36.5353 264.164 37.5037 260.123 39.4126L254.104 42.2552H253.978C253.727 42.2273 253.602 42.0879 253.602 41.8371C253.602 41.8232 253.602 41.8023 253.602 41.7744C253.588 41.6769 253.693 41.5654 253.916 41.44C254.18 41.3007 255.225 40.7991 257.051 39.9352C258.138 39.4196 259.043 38.9946 259.768 38.6602L264.951 36.1939L259.392 33.5604C258.43 33.1006 257.315 32.5711 256.047 31.972C254.821 31.4007 254.111 31.0593 253.916 30.9478C253.72 30.8364 253.616 30.704 253.602 30.5507ZM253.623 45.8919C253.623 45.7526 253.727 45.6132 253.936 45.4739H266.038C266.261 45.5575 266.372 45.6968 266.372 45.8919C266.372 46.0591 266.268 46.1984 266.059 46.3099H253.916C253.72 46.2124 253.623 46.073 253.623 45.8919Z" fill="white"/>
<path d="M275.945 31.1986C276.725 30.07 277.791 29.5057 279.143 29.5057C279.812 29.5057 280.48 29.6868 281.149 30.0491C281.818 30.4114 282.362 31.0523 282.78 31.972C283.295 33.1285 283.553 34.7169 283.553 36.7373C283.553 38.8971 283.253 40.5483 282.654 41.6908C282.375 42.2761 281.992 42.7428 281.505 43.0912C281.017 43.4395 280.592 43.6555 280.23 43.7391C279.867 43.8227 279.512 43.8715 279.164 43.8854C278.801 43.8854 278.439 43.8436 278.077 43.76C277.715 43.6764 277.29 43.4535 276.802 43.0912C276.314 42.7289 275.931 42.2621 275.652 41.6908C275.053 40.5483 274.754 38.8971 274.754 36.7373C274.754 34.3129 275.151 32.4666 275.945 31.1986ZM280.648 30.9478C280.23 30.5019 279.735 30.279 279.164 30.279C278.578 30.279 278.077 30.5019 277.659 30.9478C277.311 31.3101 277.081 31.8117 276.969 32.4527C276.858 33.0936 276.802 34.4313 276.802 36.4656C276.802 38.6672 276.858 40.1163 276.969 40.813C277.081 41.5097 277.331 42.0601 277.722 42.4642C278.112 42.8822 278.592 43.0912 279.164 43.0912C279.721 43.0912 280.195 42.8822 280.585 42.4642C280.989 42.0461 281.24 41.4609 281.337 40.7085C281.435 39.9561 281.491 38.5418 281.505 36.4656C281.505 34.4452 281.449 33.1145 281.337 32.4736C281.226 31.8326 280.996 31.324 280.648 30.9478Z" fill="white"/>
</g>
<defs>
<clipPath id="clip0_588_6877">
<rect width="700" height="234" fill="white" transform="translate(0 0.75)"/>
</clipPath>
<clipPath id="clip1_588_6877">
<rect width="1284" height="1284" fill="white" transform="translate(-292.5 -523.75)"/>
</clipPath>
</defs>
</svg>
