<svg width="700" height="235" viewBox="0 0 700 235" fill="none" xmlns="http://www.w3.org/2000/svg">
<g clip-path="url(#clip0_588_6885)">
<rect width="700" height="234" transform="translate(0 0.75)" fill="#0A0D12"/>
<g clip-path="url(#clip1_588_6885)">
<rect width="1284" height="1284" transform="translate(-292.5 -523.75)" fill="#0A0D12"/>
<g opacity="0.4">
<line x1="408.656" y1="-1165.75" x2="408.656" y2="1402.25" stroke="#67DBFF" stroke-width="0.917143"/>
<line x1="467.353" y1="-1165.75" x2="467.353" y2="1402.25" stroke="#67DBFF" stroke-width="0.917143"/>
<line x1="526.05" y1="-1165.75" x2="526.05" y2="1402.25" stroke="#67DBFF" stroke-width="0.917143"/>
<line x1="584.748" y1="-1165.75" x2="584.747" y2="1402.25" stroke="#67DBFF" stroke-width="0.917143"/>
<line x1="643.444" y1="-1165.75" x2="643.444" y2="1402.25" stroke="#67DBFF" stroke-width="0.917143"/>
<line x1="56.4732" y1="-1165.75" x2="56.473" y2="1402.25" stroke="#67DBFF" stroke-width="0.917143"/>
<line x1="115.17" y1="-1165.75" x2="115.169" y2="1402.25" stroke="#67DBFF" stroke-width="0.917143"/>
<line x1="173.867" y1="-1165.75" x2="173.867" y2="1402.25" stroke="#67DBFF" stroke-width="0.917143"/>
<line x1="232.564" y1="-1165.75" x2="232.564" y2="1402.25" stroke="#67DBFF" stroke-width="0.917143"/>
<line x1="291.261" y1="-1165.75" x2="291.261" y2="1402.25" stroke="#67DBFF" stroke-width="0.917143"/>
<line x1="-934.5" y1="59.0943" x2="1633.5" y2="59.0943" stroke="#67DBFF" stroke-width="0.917143"/>
<line x1="-934.5" y1="0.397141" x2="1633.5" y2="0.397141" stroke="#67DBFF" stroke-width="0.917143"/>
<line x1="-934.5" y1="235.186" x2="1633.5" y2="235.186" stroke="#67DBFF" stroke-width="0.917143"/>
<line x1="-934.5" y1="176.489" x2="1633.5" y2="176.489" stroke="#67DBFF" stroke-width="0.917143"/>
</g>
<line x1="349.959" y1="-1165.75" x2="349.958" y2="1402.25" stroke="#E6E6E6" stroke-width="0.917143"/>
<line x1="-934.5" y1="117.791" x2="1633.5" y2="117.791" stroke="#E6E6E6" stroke-width="0.917143"/>
</g>
<mask id="path-17-inside-1_588_6885" fill="white">
<path d="M350.5 546.75C280.033 546.75 210.653 529.371 148.506 496.153C86.3599 462.935 33.3648 414.903 -5.78473 356.312C-44.9342 297.72 -69.0297 230.378 -75.9367 160.25C-82.8437 90.1224 -72.349 19.3734 -45.3824 -45.7298C-18.4157 -110.833 24.1905 -168.281 78.6625 -212.985C133.134 -257.689 197.791 -288.269 266.904 -302.016C336.017 -315.764 407.454 -312.255 474.887 -291.799C542.32 -271.343 603.667 -234.573 653.495 -184.745L350.5 118.25L350.5 546.75Z"/>
</mask>
<path d="M350.5 546.75C280.033 546.75 210.653 529.371 148.506 496.153C86.3599 462.935 33.3648 414.903 -5.78473 356.312C-44.9342 297.72 -69.0297 230.378 -75.9367 160.25C-82.8437 90.1224 -72.349 19.3734 -45.3824 -45.7298C-18.4157 -110.833 24.1905 -168.281 78.6625 -212.985C133.134 -257.689 197.791 -288.269 266.904 -302.016C336.017 -315.764 407.454 -312.255 474.887 -291.799C542.32 -271.343 603.667 -234.573 653.495 -184.745L350.5 118.25L350.5 546.75Z" fill="#18FF21" fill-opacity="0.2" stroke="#67FF6D" stroke-width="2" mask="url(#path-17-inside-1_588_6885)"/>
<path d="M348.939 116.689C348.354 117.275 348.354 118.225 348.939 118.811C349.525 119.396 350.475 119.396 351.061 118.811L348.939 116.689ZM391 76.75L374.27 81.2329L386.517 93.4803L391 76.75ZM351.061 118.811L382.515 87.3566L380.393 85.2353L348.939 116.689L351.061 118.811Z" fill="#006AE7"/>
<path d="M401.959 77.9799C401.973 77.9799 402.475 77.9451 403.464 77.8754C404.453 77.8057 404.962 77.7639 404.99 77.75C405.157 77.75 405.241 77.8057 405.241 77.9172C405.241 78.0147 404.732 80.1186 403.715 84.2288C402.698 88.339 402.175 90.4359 402.148 90.5195C402.12 90.603 402.113 90.7075 402.127 90.8329C402.127 91.4181 402.322 91.7107 402.712 91.7107C402.837 91.6968 402.977 91.6341 403.13 91.5226C403.422 91.244 403.708 90.5752 403.987 89.5163C404.07 89.2376 404.14 89.0913 404.196 89.0774C404.224 89.0635 404.293 89.0565 404.405 89.0565H404.572C404.781 89.0565 404.885 89.1122 404.885 89.2237C404.885 89.2934 404.864 89.4048 404.823 89.5581C404.642 90.2547 404.433 90.819 404.196 91.2509C403.959 91.6828 403.764 91.9615 403.61 92.0869C403.457 92.2123 403.262 92.3238 403.025 92.4213C402.914 92.4492 402.747 92.4631 402.524 92.4631C402.05 92.4631 401.653 92.3586 401.332 92.1496C401.012 91.9406 400.803 91.7246 400.705 91.5017L400.58 91.1882C400.566 91.1743 400.538 91.1813 400.497 91.2091C400.469 91.237 400.441 91.2649 400.413 91.2927C399.591 92.073 398.755 92.4631 397.905 92.4631C397.139 92.4631 396.463 92.1844 395.878 91.6271C395.293 91.0698 395 90.1851 395 88.9729C395 88.3041 395.139 87.6214 395.418 86.9248C395.697 86.2281 396.031 85.629 396.421 85.1274C397.076 84.3333 397.731 83.7829 398.386 83.4764C399.041 83.1699 399.633 83.0166 400.162 83.0166C400.942 83.0166 401.528 83.3092 401.918 83.8944C401.987 83.978 402.022 84.0058 402.022 83.978C402.036 83.9222 402.224 83.1629 402.586 81.7C402.949 80.237 403.144 79.4637 403.172 79.3801C403.172 79.199 403.123 79.0876 403.025 79.0458C402.928 79.004 402.656 78.9691 402.21 78.9413H401.771C401.688 78.8577 401.646 78.8019 401.646 78.7741C401.646 78.7462 401.66 78.6138 401.688 78.377C401.757 78.1123 401.848 77.9799 401.959 77.9799ZM401.667 85.4409C401.346 84.3402 400.824 83.7899 400.099 83.7899C399.612 83.7899 399.145 84.0058 398.699 84.4378C398.253 84.8697 397.905 85.434 397.654 86.1306C397.25 87.2313 396.965 88.3738 396.797 89.5581C396.797 89.5999 396.797 89.6765 396.797 89.788C396.797 89.8994 396.79 89.983 396.776 90.0388C396.776 90.6657 396.902 91.0977 397.153 91.3345C397.403 91.5714 397.703 91.6968 398.051 91.7107C398.804 91.7107 399.577 91.2091 400.371 90.206L400.538 89.9761L401.667 85.4409Z" fill="white"/>
<path d="M406.766 78.7323C406.766 78.5929 406.794 78.4327 406.85 78.2516C406.906 78.0705 406.989 77.9799 407.101 77.9799C407.115 77.9799 407.616 77.9451 408.605 77.8754C409.595 77.8057 410.103 77.7639 410.131 77.75C410.298 77.75 410.382 77.8127 410.382 77.9381C410.382 78.0635 410.145 79.0597 409.671 80.9267C409.56 81.4004 409.441 81.8881 409.316 82.3896C409.191 82.8912 409.086 83.2674 409.003 83.5182L408.919 83.9153C408.919 83.9571 408.961 83.9362 409.044 83.8526C409.727 83.2953 410.431 83.0166 411.155 83.0166C412.019 83.0166 412.716 83.3371 413.245 83.978C413.775 84.6189 414.046 85.427 414.06 86.4023C414.06 87.9488 413.51 89.3491 412.409 90.603C411.308 91.857 410.124 92.484 408.856 92.484C408.16 92.484 407.526 92.2193 406.954 91.6898C406.383 91.1604 406.091 90.3035 406.077 89.1192V88.9311C406.077 88.6385 406.132 88.2345 406.244 87.719C406.355 87.2034 406.697 85.831 407.268 83.6018C407.965 80.857 408.313 79.401 408.313 79.2338C408.313 79.0667 408.048 78.9691 407.519 78.9413C407.449 78.9413 407.393 78.9413 407.351 78.9413H407.247C407.108 78.9413 407.017 78.9413 406.975 78.9413C406.933 78.9413 406.885 78.9204 406.829 78.8786C406.773 78.8368 406.752 78.788 406.766 78.7323ZM412.263 85.4618V85.3364C412.263 84.3054 411.838 83.7899 410.988 83.7899C410.751 83.7899 410.507 83.8456 410.256 83.9571C410.006 84.0685 409.776 84.2148 409.567 84.396C409.358 84.5771 409.177 84.7443 409.023 84.8975C408.87 85.0508 408.745 85.2041 408.647 85.3573L408.522 85.5245L408.083 87.3219C407.776 88.5201 407.623 89.37 407.623 89.8716C407.623 90.5404 407.79 91.0419 408.125 91.3763C408.348 91.5992 408.626 91.7107 408.961 91.7107C409.42 91.7107 409.887 91.4878 410.361 91.0419C410.709 90.7215 410.988 90.3314 411.197 89.8716C411.406 89.4118 411.636 88.6803 411.887 87.6772C412.137 86.674 412.263 85.9355 412.263 85.4618Z" fill="white"/>
<path d="M348.5 117.75C348.5 118.578 349.172 119.25 350 119.25C350.828 119.25 351.5 118.578 351.5 117.75L348.5 117.75ZM350 58.75L341.34 73.75L358.66 73.75L350 58.75ZM351.5 117.75L351.5 72.25L348.5 72.25L348.5 117.75L351.5 117.75Z" fill="#EB5757"/>
<path d="M361.961 37.9799C361.975 37.9799 362.476 37.9451 363.466 37.8754C364.455 37.8057 364.964 37.7639 364.992 37.75C365.159 37.75 365.243 37.8057 365.243 37.9172C365.243 38.0148 364.734 40.1191 363.717 44.2301C362.699 48.3411 362.177 50.4384 362.149 50.522C362.121 50.6056 362.114 50.7102 362.128 50.8356C362.128 51.4209 362.323 51.7135 362.713 51.7135C362.839 51.6996 362.978 51.6369 363.131 51.5254C363.424 51.2467 363.71 50.5778 363.988 49.5187C364.072 49.2399 364.142 49.0936 364.198 49.0797C364.225 49.0658 364.295 49.0588 364.407 49.0588H364.574C364.783 49.0588 364.887 49.1145 364.887 49.226C364.887 49.2957 364.866 49.4072 364.825 49.5605C364.643 50.2572 364.434 50.8216 364.198 51.2536C363.961 51.6857 363.766 51.9644 363.612 52.0898C363.459 52.2152 363.264 52.3267 363.027 52.4242C362.915 52.4521 362.748 52.4661 362.525 52.4661C362.051 52.4661 361.654 52.3615 361.334 52.1525C361.013 51.9435 360.804 51.7275 360.707 51.5045L360.581 51.1909C360.567 51.177 360.539 51.184 360.498 51.2118C360.47 51.2397 360.442 51.2676 360.414 51.2955C359.592 52.0759 358.756 52.4661 357.906 52.4661C357.139 52.4661 356.463 52.1873 355.878 51.6299C355.293 51.0725 355 50.1876 355 48.9752C355 48.3063 355.139 47.6234 355.418 46.9266C355.697 46.2298 356.031 45.6306 356.421 45.1289C357.076 44.3346 357.731 43.7841 358.386 43.4776C359.041 43.171 359.634 43.0177 360.163 43.0177C360.944 43.0177 361.529 43.3103 361.919 43.8956C361.989 43.9792 362.024 44.0071 362.024 43.9792C362.038 43.9235 362.226 43.164 362.588 41.7008C362.95 40.2375 363.145 39.4641 363.173 39.3805C363.173 39.1993 363.124 39.0878 363.027 39.046C362.929 39.0042 362.658 38.9694 362.212 38.9415H361.773C361.689 38.8579 361.647 38.8021 361.647 38.7743C361.647 38.7464 361.661 38.614 361.689 38.3771C361.759 38.1123 361.849 37.9799 361.961 37.9799ZM361.668 45.4425C361.348 44.3416 360.825 43.7911 360.1 43.7911C359.613 43.7911 359.146 44.0071 358.7 44.4391C358.254 44.8711 357.906 45.4355 357.655 46.1323C357.251 47.2332 356.965 48.3759 356.798 49.5605C356.798 49.6023 356.798 49.6789 356.798 49.7904C356.798 49.9019 356.791 49.9855 356.777 50.0412C356.777 50.6684 356.902 51.1004 357.153 51.3373C357.404 51.5742 357.704 51.6996 358.052 51.7135C358.804 51.7135 359.578 51.2118 360.372 50.2085L360.539 49.9785L361.668 45.4425Z" fill="white"/>
<path d="M365.953 48.9334C365.953 47.4144 366.553 46.0487 367.751 44.8363C368.95 43.6239 370.246 43.0177 371.639 43.0177C372.42 43.0177 373.033 43.1849 373.479 43.5194C373.925 43.8538 374.155 44.2928 374.168 44.8363C374.168 45.2404 374.036 45.5818 373.771 45.8605C373.507 46.1393 373.172 46.2856 372.768 46.2995C372.503 46.2995 372.294 46.2298 372.141 46.0905C371.988 45.9511 371.911 45.7421 371.911 45.4634C371.911 45.1847 371.988 44.9478 372.141 44.7527C372.294 44.5576 372.447 44.4112 372.601 44.3137C372.754 44.2161 372.852 44.1743 372.893 44.1883H372.914C372.914 44.1604 372.872 44.1186 372.789 44.0629C372.705 44.0071 372.559 43.9514 372.35 43.8956C372.141 43.8399 371.904 43.812 371.639 43.812C371.221 43.812 370.824 43.9096 370.448 44.1047C370.155 44.2301 369.855 44.4461 369.549 44.7527C368.936 45.3658 368.49 46.2298 368.211 47.3447C367.932 48.4596 367.786 49.2678 367.772 49.7695C367.772 50.4105 367.953 50.8913 368.316 51.2118C368.622 51.5463 369.026 51.7135 369.528 51.7135H369.612C371.172 51.7135 372.461 51.1213 373.479 49.9367C373.604 49.7974 373.688 49.7277 373.73 49.7277C373.785 49.7277 373.876 49.7904 374.001 49.9158C374.127 50.0412 374.196 50.1388 374.21 50.2085C374.224 50.2782 374.162 50.3827 374.022 50.522C373.883 50.6614 373.681 50.8565 373.416 51.1073C373.151 51.3582 372.838 51.5672 372.475 51.7344C372.113 51.9017 371.667 52.0759 371.137 52.257C370.608 52.4382 370.051 52.5148 369.465 52.487C368.42 52.487 367.577 52.1525 366.936 51.4836C366.295 50.8147 365.967 49.9646 365.953 48.9334Z" fill="white"/>
<path d="M374.754 46.2577C374.754 46.1462 374.817 45.9302 374.942 45.6097C375.067 45.2892 375.242 44.9269 375.465 44.5227C375.687 44.1186 375.994 43.7702 376.384 43.4776C376.774 43.1849 377.186 43.0316 377.618 43.0177C378.259 43.0177 378.739 43.1919 379.06 43.5403C379.38 43.8887 379.541 44.2998 379.541 44.7736C379.541 45.0244 379.304 45.8048 378.83 47.1148C378.356 48.4247 378.119 49.4072 378.119 50.0622C378.119 50.6614 378.217 51.0795 378.412 51.3164C378.607 51.5533 378.9 51.6787 379.29 51.6926C379.68 51.7066 380.049 51.5881 380.398 51.3373C380.746 51.0864 381.004 50.8495 381.171 50.6265L381.401 50.2712C381.429 50.2154 381.694 49.1563 382.195 47.0939C382.613 45.4216 382.864 44.4461 382.948 44.1674C383.032 43.8887 383.129 43.6866 383.241 43.5612C383.478 43.3521 383.728 43.2476 383.993 43.2476C384.23 43.2476 384.404 43.3173 384.516 43.4567C384.627 43.596 384.683 43.7284 384.683 43.8538L383.094 50.5011C383.08 50.5708 383.073 50.6823 383.073 50.8356C383.073 51.184 383.122 51.4139 383.22 51.5254C383.317 51.6369 383.464 51.6996 383.659 51.7135C383.965 51.6717 384.209 51.4557 384.39 51.0655C384.571 50.6753 384.78 50.0622 385.017 49.226C385.045 49.1145 385.185 49.0588 385.435 49.0588C385.7 49.0588 385.833 49.1215 385.833 49.2469C385.819 49.3166 385.805 49.4141 385.791 49.5396C385.777 49.665 385.714 49.888 385.603 50.2085C385.491 50.529 385.373 50.8286 385.247 51.1073C385.122 51.386 384.948 51.6508 384.725 51.9017C384.502 52.1525 384.251 52.3267 383.972 52.4242C383.861 52.4521 383.694 52.4661 383.471 52.4661C382.551 52.4661 381.917 52.0759 381.568 51.2955C381.54 51.3094 381.464 51.3791 381.338 51.5045C381.213 51.6299 381.088 51.7344 380.962 51.818C380.837 51.9017 380.683 52.0062 380.502 52.1316C380.321 52.257 380.119 52.3406 379.896 52.3824C379.673 52.4242 379.436 52.4591 379.185 52.487C378.572 52.487 378.029 52.3615 377.555 52.1107C376.83 51.6787 376.468 50.9401 376.468 49.8949C376.468 49.1006 376.712 48.0624 377.199 46.7803C377.687 45.4982 377.931 44.683 377.931 44.3346C377.931 44.3207 377.931 44.3067 377.931 44.2928C377.931 44.1674 377.931 44.0838 377.931 44.0419C377.931 44.0001 377.903 43.9514 377.848 43.8956C377.792 43.8399 377.715 43.812 377.618 43.812H377.534C377.213 43.812 376.921 43.9444 376.656 44.2092C376.391 44.474 376.182 44.7596 376.029 45.0662C375.876 45.3728 375.757 45.6655 375.674 45.9442C375.59 46.2229 375.534 46.3762 375.506 46.404C375.478 46.4319 375.367 46.4458 375.172 46.4458H374.879C374.796 46.3622 374.754 46.2995 374.754 46.2577Z" fill="white"/>
<path d="M386.711 46.2577C386.725 46.2159 386.738 46.1602 386.752 46.0905C386.766 46.0208 386.801 45.8675 386.857 45.6306C386.913 45.3937 386.982 45.1777 387.066 44.9826C387.15 44.7875 387.254 44.5576 387.379 44.2928C387.505 44.028 387.644 43.819 387.798 43.6657C387.951 43.5124 388.132 43.3591 388.341 43.2058C388.55 43.0525 388.78 42.9898 389.031 43.0177C389.435 43.0177 389.79 43.1013 390.097 43.2685C390.404 43.4357 390.62 43.589 390.745 43.7284C390.87 43.8678 390.947 44.0071 390.975 44.1465C391.003 44.2301 391.024 44.2719 391.038 44.2719C391.052 44.2719 391.107 44.2231 391.205 44.1256C391.874 43.4009 392.647 43.0386 393.525 43.0386H393.588C394.257 43.0386 394.758 43.3243 395.093 43.8956C395.204 44.1604 395.26 44.4182 395.26 44.6691C395.26 45.0871 395.17 45.4216 394.988 45.6724C394.807 45.9233 394.626 46.0835 394.445 46.1532C394.264 46.2229 394.09 46.2507 393.922 46.2368C393.644 46.2368 393.421 46.1602 393.253 46.0069C393.086 45.8536 393.003 45.6515 393.003 45.4007C393.003 44.7318 393.393 44.2858 394.173 44.0629C393.867 43.8817 393.616 43.7911 393.421 43.7911C392.64 43.7911 391.923 44.3067 391.268 45.338C391.128 45.5609 391.024 45.7909 390.954 46.0278C390.884 46.2647 390.647 47.1914 390.243 48.8079C389.769 50.7589 389.498 51.7971 389.428 51.9226C389.247 52.2988 388.947 52.487 388.529 52.487C388.348 52.487 388.202 52.4451 388.09 52.3615C387.979 52.2779 387.902 52.1943 387.86 52.1107C387.818 52.0271 387.805 51.9574 387.818 51.9017C387.818 51.7205 388.097 50.522 388.655 48.3063C389.212 46.0905 389.491 44.8572 389.491 44.6063C389.491 44.0629 389.31 43.7911 388.947 43.7911C388.655 43.7911 388.404 43.9862 388.195 44.3764C387.986 44.7666 387.818 45.1916 387.693 45.6515C387.568 46.1114 387.491 46.3622 387.463 46.404C387.435 46.4319 387.324 46.4458 387.129 46.4458H386.836C386.752 46.3622 386.711 46.2995 386.711 46.2577Z" fill="white"/>
<path d="M396.159 46.2577C396.173 46.2159 396.187 46.1602 396.201 46.0905C396.215 46.0208 396.25 45.8675 396.305 45.6306C396.361 45.3937 396.431 45.1777 396.514 44.9826C396.598 44.7875 396.702 44.5576 396.828 44.2928C396.953 44.028 397.093 43.819 397.246 43.6657C397.399 43.5124 397.58 43.3591 397.789 43.2058C397.998 43.0525 398.228 42.9898 398.479 43.0177C398.883 43.0177 399.239 43.1013 399.545 43.2685C399.852 43.4357 400.068 43.589 400.193 43.7284C400.319 43.8678 400.395 44.0071 400.423 44.1465C400.451 44.2301 400.472 44.2719 400.486 44.2719C400.5 44.2719 400.556 44.2231 400.653 44.1256C401.322 43.4009 402.096 43.0386 402.973 43.0386H403.036C403.705 43.0386 404.207 43.3243 404.541 43.8956C404.653 44.1604 404.708 44.4182 404.708 44.6691C404.708 45.0871 404.618 45.4216 404.437 45.6724C404.256 45.9233 404.074 46.0835 403.893 46.1532C403.712 46.2229 403.538 46.2507 403.371 46.2368C403.092 46.2368 402.869 46.1602 402.702 46.0069C402.535 45.8536 402.451 45.6515 402.451 45.4007C402.451 44.7318 402.841 44.2858 403.621 44.0629C403.315 43.8817 403.064 43.7911 402.869 43.7911C402.089 43.7911 401.371 44.3067 400.716 45.338C400.577 45.5609 400.472 45.7909 400.402 46.0278C400.333 46.2647 400.096 47.1914 399.692 48.8079C399.218 50.7589 398.946 51.7971 398.876 51.9226C398.695 52.2988 398.396 52.487 397.978 52.487C397.796 52.487 397.65 52.4451 397.539 52.3615C397.427 52.2779 397.35 52.1943 397.309 52.1107C397.267 52.0271 397.253 51.9574 397.267 51.9017C397.267 51.7205 397.546 50.522 398.103 48.3063C398.66 46.0905 398.939 44.8572 398.939 44.6063C398.939 44.0629 398.758 43.7911 398.396 43.7911C398.103 43.7911 397.852 43.9862 397.643 44.3764C397.434 44.7666 397.267 45.1916 397.141 45.6515C397.016 46.1114 396.939 46.3622 396.911 46.404C396.884 46.4319 396.772 46.4458 396.577 46.4458H396.284C396.201 46.3622 396.159 46.2995 396.159 46.2577Z" fill="white"/>
<path d="M34.294 148.016C34.3066 148.016 34.7602 147.985 35.6549 147.922C36.5495 147.859 37.0094 147.821 37.0346 147.808C37.1858 147.808 37.2614 147.859 37.2614 147.96C37.2614 148.048 36.8015 149.951 35.8817 153.668C34.9618 157.385 34.4893 159.281 34.4641 159.357C34.4389 159.432 34.4326 159.527 34.4452 159.64C34.4452 160.17 34.6216 160.434 34.9744 160.434C35.0878 160.422 35.2138 160.365 35.3524 160.264C35.6171 160.012 35.8754 159.407 36.1274 158.45C36.203 158.198 36.266 158.065 36.3164 158.053C36.3416 158.04 36.4046 158.034 36.5054 158.034H36.581H36.6566C36.8456 158.034 36.9401 158.084 36.9401 158.185C36.9401 158.248 36.9212 158.349 36.8834 158.487C36.7196 159.117 36.5306 159.628 36.3164 160.018C36.1022 160.409 35.9258 160.661 35.7872 160.774C35.6486 160.888 35.4721 160.989 35.2579 161.077C35.1571 161.102 35.0059 161.115 34.8043 161.115C34.3759 161.115 34.0168 161.02 33.727 160.831C33.4372 160.642 33.2481 160.447 33.1599 160.245L33.0465 159.962C33.0339 159.949 33.0087 159.955 32.9709 159.981C32.9457 160.006 32.9205 160.031 32.8953 160.056C32.1519 160.762 31.3959 161.115 30.6272 161.115C29.9342 161.115 29.3231 160.863 28.7938 160.359C28.2646 159.855 28 159.054 28 157.958C28 157.353 28.126 156.736 28.378 156.106C28.63 155.476 28.9324 154.934 29.2853 154.48C29.8775 153.762 30.4697 153.264 31.0619 152.987C31.6542 152.71 32.1897 152.571 32.6685 152.571C33.3741 152.571 33.9034 152.836 34.2562 153.365C34.3192 153.441 34.3507 153.466 34.3507 153.441C34.3633 153.39 34.5334 152.704 34.861 151.381C35.1886 150.058 35.365 149.358 35.3902 149.283C35.3902 149.119 35.3461 149.018 35.2579 148.98C35.1697 148.942 34.924 148.911 34.5208 148.886H34.1239C34.0483 148.81 34.0105 148.76 34.0105 148.735C34.0105 148.709 34.0231 148.59 34.0483 148.375C34.1113 148.136 34.1932 148.016 34.294 148.016ZM34.0294 154.764C33.7396 153.768 33.267 153.271 32.6118 153.271C32.1708 153.271 31.7487 153.466 31.3455 153.857C30.9422 154.247 30.6272 154.758 30.4004 155.388C30.035 156.383 29.7767 157.416 29.6255 158.487C29.6255 158.525 29.6255 158.595 29.6255 158.695C29.6255 158.796 29.6192 158.872 29.6066 158.922C29.6066 159.489 29.72 159.88 29.9468 160.094C30.1736 160.308 30.4445 160.422 30.7595 160.434C31.44 160.434 32.1393 159.981 32.8575 159.073L33.0087 158.865L34.0294 154.764Z" fill="white"/>
<path d="M37.999 157.75C37.999 157.032 38.1187 156.377 38.3581 155.785C38.5976 155.192 38.9063 154.701 39.2843 154.31C39.6623 153.92 40.0844 153.592 40.5506 153.328C41.0169 153.063 41.4579 152.868 41.8737 152.742C42.2895 152.616 42.6864 152.559 43.0645 152.572H43.1212C43.6882 152.572 44.1796 152.71 44.5954 152.987C45.0112 153.265 45.2192 153.674 45.2192 154.216C45.2192 155.35 44.5198 156.093 43.1212 156.446C42.5037 156.61 41.6595 156.698 40.5884 156.711C40.1222 156.711 39.8828 156.723 39.8702 156.749C39.8702 156.774 39.8324 156.994 39.7568 157.41C39.6812 157.826 39.6371 158.191 39.6245 158.506C39.6245 159.099 39.7568 159.565 40.0214 159.905C40.286 160.245 40.6829 160.422 41.2122 160.434C41.7414 160.447 42.3273 160.327 42.97 160.075C43.6126 159.823 44.1922 159.407 44.7088 158.828C44.8222 158.702 44.8978 158.639 44.9356 158.639C44.986 158.639 45.068 158.695 45.1814 158.809C45.2948 158.922 45.3578 159.01 45.3704 159.073C45.383 159.136 45.3263 159.237 45.2003 159.376C45.0743 159.514 44.8852 159.685 44.6332 159.886C44.3812 160.088 44.0914 160.283 43.7638 160.472C43.4362 160.661 43.0393 160.819 42.573 160.945C42.1068 161.071 41.628 161.134 41.1366 161.134C40.1411 161.134 39.3725 160.8 38.8307 160.132C38.2888 159.464 38.0116 158.67 37.999 157.75ZM44.3119 154.254C44.2363 153.599 43.8079 153.271 43.0267 153.271C42.6108 153.271 42.2265 153.359 41.8737 153.536C41.5209 153.712 41.2374 153.926 41.0232 154.178C40.809 154.43 40.6262 154.688 40.475 154.953C40.3238 155.218 40.223 155.445 40.1726 155.634C40.1222 155.823 40.0907 155.942 40.0781 155.993C40.0781 156.005 40.2041 156.012 40.4561 156.012C41.88 156.012 42.8755 155.86 43.4425 155.558C44.0095 155.255 44.2993 154.821 44.3119 154.254Z" fill="white"/>
<path d="M46.5796 153.649C46.4914 153.561 46.4473 153.498 46.4473 153.46C46.4473 153.41 46.4662 153.309 46.504 153.157C46.5418 153.006 46.5733 152.918 46.5985 152.893C46.6237 152.83 46.6804 152.798 46.7686 152.798C46.8568 152.798 47.1781 152.792 47.7325 152.779H48.7343L49.0934 151.267C49.1312 151.129 49.1753 150.946 49.2257 150.719C49.2761 150.492 49.3202 150.329 49.358 150.228C49.3958 150.127 49.4336 150.001 49.4714 149.85C49.5092 149.699 49.5596 149.592 49.6226 149.529C49.6856 149.466 49.7486 149.39 49.8116 149.302C49.8746 149.214 49.9628 149.157 50.0762 149.132C50.1896 149.106 50.303 149.094 50.4165 149.094C50.6433 149.106 50.8008 149.176 50.889 149.302C50.9772 149.428 51.0213 149.547 51.0213 149.661C51.0213 149.749 50.9646 150.045 50.8512 150.549C50.7378 151.053 50.6118 151.551 50.4732 152.042L50.2841 152.742C50.2841 152.767 50.5992 152.779 51.2292 152.779H52.1931C52.2813 152.868 52.3254 152.937 52.3254 152.987C52.3254 153.265 52.2435 153.485 52.0797 153.649H50.0573L49.3769 156.39C48.8855 158.406 48.6398 159.489 48.6398 159.64C48.6398 160.17 48.8099 160.434 49.1501 160.434C49.5911 160.434 50.0195 160.22 50.4354 159.792C50.8512 159.363 51.1851 158.834 51.4371 158.204C51.4623 158.128 51.4938 158.084 51.5316 158.072C51.5694 158.059 51.6639 158.047 51.8151 158.034H51.8907C52.0797 158.034 52.1742 158.084 52.1742 158.185C52.1742 158.223 52.1553 158.299 52.1175 158.412C52.0545 158.614 51.9411 158.853 51.7773 159.13C51.6135 159.407 51.3993 159.704 51.1347 160.019C50.8701 160.334 50.5488 160.598 50.1707 160.812C49.7927 161.027 49.4084 161.134 49.0178 161.134C48.6398 161.134 48.2807 161.039 47.9404 160.85C47.6002 160.661 47.3545 160.334 47.2033 159.867C47.1781 159.767 47.1655 159.596 47.1655 159.357V159.017L47.827 156.371C48.2681 154.594 48.4949 153.699 48.5075 153.687C48.5075 153.662 48.1861 153.649 47.5435 153.649H46.5796Z" fill="white"/>
<path d="M54.6875 156.2C54.6875 155.331 54.7505 154.506 54.8765 153.724C55.0025 152.943 55.1474 152.269 55.3112 151.702C55.475 151.135 55.7081 150.581 56.0106 150.039C56.313 149.497 56.5524 149.075 56.7288 148.772C56.9052 148.47 57.1698 148.142 57.5226 147.79C57.8754 147.437 58.0834 147.223 58.1464 147.147C58.2094 147.071 58.3669 146.939 58.6189 146.75H58.8646H58.9402C59.1166 146.75 59.2048 146.807 59.2048 146.92C59.2048 146.958 59.0977 147.09 58.8835 147.317C58.6693 147.544 58.411 147.878 58.1086 148.319C57.8061 148.76 57.4974 149.302 57.1824 149.944C56.8674 150.587 56.6028 151.456 56.3886 152.553C56.1744 153.649 56.0673 154.865 56.0673 156.2C56.0673 157.536 56.1744 158.746 56.3886 159.829C56.6028 160.913 56.8611 161.789 57.1635 162.457C57.4659 163.124 57.7746 163.666 58.0897 164.082C58.4047 164.498 58.6693 164.832 58.8835 165.084C59.0977 165.336 59.2048 165.468 59.2048 165.481C59.2048 165.594 59.1103 165.651 58.9213 165.651H58.8646H58.6189L58.0897 165.197C56.9052 164.126 56.0421 162.791 55.5002 161.19C54.9584 159.59 54.6875 157.927 54.6875 156.2Z" fill="white"/>
<path d="M67.2012 148.016C67.2138 148.016 67.6674 147.985 68.5621 147.922C69.4567 147.859 69.9166 147.821 69.9418 147.808C70.0931 147.808 70.1687 147.859 70.1687 147.96C70.1687 148.048 69.7087 149.951 68.7889 153.668C67.8691 157.385 67.3965 159.281 67.3713 159.357C67.3461 159.432 67.3398 159.527 67.3524 159.64C67.3524 160.17 67.5288 160.434 67.8817 160.434C67.9951 160.422 68.1211 160.365 68.2597 160.264C68.5243 160.012 68.7826 159.407 69.0346 158.45C69.1102 158.198 69.1732 158.065 69.2236 158.053C69.2488 158.04 69.3118 158.034 69.4126 158.034H69.4882H69.5638C69.7528 158.034 69.8473 158.084 69.8473 158.185C69.8473 158.248 69.8284 158.349 69.7906 158.487C69.6268 159.117 69.4378 159.628 69.2236 160.018C69.0094 160.409 68.833 160.661 68.6944 160.774C68.5558 160.888 68.3794 160.989 68.1652 161.077C68.0644 161.102 67.9132 161.115 67.7115 161.115C67.2831 161.115 66.924 161.02 66.6342 160.831C66.3444 160.642 66.1554 160.447 66.0672 160.245L65.9538 159.962C65.9412 159.949 65.916 159.955 65.8782 159.981C65.853 160.006 65.8278 160.031 65.8026 160.056C65.0591 160.762 64.3031 161.115 63.5344 161.115C62.8414 161.115 62.2303 160.863 61.7011 160.359C61.1718 159.855 60.9072 159.054 60.9072 157.958C60.9072 157.353 61.0332 156.736 61.2852 156.106C61.5373 155.476 61.8397 154.934 62.1925 154.48C62.7847 153.762 63.3769 153.264 63.9692 152.987C64.5614 152.71 65.0969 152.571 65.5757 152.571C66.2814 152.571 66.8106 152.836 67.1634 153.365C67.2264 153.441 67.2579 153.466 67.2579 153.441C67.2705 153.39 67.4406 152.704 67.7682 151.381C68.0959 150.058 68.2723 149.358 68.2975 149.283C68.2975 149.119 68.2534 149.018 68.1652 148.98C68.077 148.942 67.8312 148.911 67.428 148.886H67.0311C66.9555 148.81 66.9177 148.76 66.9177 148.735C66.9177 148.709 66.9303 148.59 66.9555 148.375C67.0185 148.136 67.1004 148.016 67.2012 148.016ZM66.9366 154.764C66.6468 153.768 66.1743 153.271 65.519 153.271C65.078 153.271 64.6559 153.466 64.2527 153.857C63.8495 154.247 63.5344 154.758 63.3076 155.388C62.9422 156.383 62.6839 157.416 62.5327 158.487C62.5327 158.525 62.5327 158.595 62.5327 158.695C62.5327 158.796 62.5264 158.872 62.5138 158.922C62.5138 159.489 62.6272 159.88 62.854 160.094C63.0808 160.308 63.3517 160.422 63.6668 160.434C64.3472 160.434 65.0465 159.981 65.7648 159.073L65.916 158.865L66.9366 154.764Z" fill="white"/>
<path d="M70.8105 157.92C70.8105 156.547 71.3524 155.312 72.436 154.216C73.5197 153.12 74.6915 152.571 75.9516 152.571C76.6572 152.571 77.2116 152.723 77.6149 153.025C78.0181 153.327 78.226 153.724 78.2386 154.216C78.2386 154.581 78.1189 154.89 77.8795 155.142C77.6401 155.394 77.3377 155.526 76.9722 155.539C76.7328 155.539 76.5438 155.476 76.4052 155.35C76.2666 155.224 76.1973 155.035 76.1973 154.783C76.1973 154.531 76.2666 154.317 76.4052 154.14C76.5438 153.964 76.6824 153.831 76.821 153.743C76.9596 153.655 77.0478 153.617 77.0856 153.63H77.1045C77.1045 153.605 77.0667 153.567 76.9911 153.516C76.9155 153.466 76.7832 153.416 76.5942 153.365C76.4052 153.315 76.191 153.29 75.9516 153.29C75.5736 153.29 75.2145 153.378 74.8742 153.554C74.6096 153.668 74.3387 153.863 74.0615 154.14C73.5071 154.695 73.1039 155.476 72.8518 156.484C72.5998 157.492 72.4675 158.223 72.4549 158.676C72.4549 159.256 72.6187 159.691 72.9463 159.981C73.2236 160.283 73.589 160.434 74.0426 160.434H74.1182C75.5295 160.434 76.695 159.899 77.6149 158.828C77.7283 158.702 77.8039 158.639 77.8417 158.639C77.8921 158.639 77.974 158.695 78.0874 158.809C78.2008 158.922 78.2638 159.01 78.2764 159.073C78.289 159.136 78.2323 159.231 78.1063 159.357C77.9803 159.483 77.7976 159.659 77.5582 159.886C77.3187 160.113 77.0352 160.302 76.7076 160.453C76.38 160.604 75.9768 160.762 75.498 160.926C75.0191 161.089 74.5151 161.159 73.9859 161.134C73.0409 161.134 72.2785 160.831 71.6989 160.226C71.1193 159.621 70.8231 158.853 70.8105 157.92Z" fill="white"/>
<path d="M78.7676 155.501C78.7676 155.4 78.8243 155.205 78.9377 154.915C79.0511 154.625 79.2086 154.298 79.4102 153.932C79.6118 153.567 79.889 153.252 80.2418 152.987C80.5947 152.723 80.9664 152.584 81.357 152.572C81.9366 152.572 82.3713 152.729 82.6612 153.044C82.951 153.359 83.0959 153.731 83.0959 154.159C83.0959 154.386 82.8817 155.092 82.4532 156.276C82.0248 157.461 81.8106 158.349 81.8106 158.941C81.8106 159.483 81.8988 159.861 82.0752 160.075C82.2516 160.289 82.5163 160.403 82.8691 160.415C83.2219 160.428 83.5558 160.321 83.8708 160.094C84.1858 159.867 84.4189 159.653 84.5701 159.451L84.7781 159.13C84.8033 159.08 85.0427 158.122 85.4963 156.257C85.8743 154.745 86.1011 153.863 86.1767 153.611C86.2523 153.359 86.3405 153.176 86.4413 153.063C86.6555 152.874 86.8824 152.779 87.1218 152.779C87.336 152.779 87.4935 152.842 87.5943 152.968C87.6951 153.094 87.7455 153.214 87.7455 153.328L86.309 159.338C86.2964 159.401 86.2901 159.502 86.2901 159.64C86.2901 159.956 86.3342 160.163 86.4224 160.264C86.5106 160.365 86.6429 160.422 86.8194 160.434C87.0966 160.397 87.3171 160.201 87.4809 159.848C87.6447 159.496 87.8337 158.941 88.0479 158.185C88.0731 158.084 88.1991 158.034 88.4259 158.034C88.6653 158.034 88.785 158.091 88.785 158.204C88.7724 158.267 88.7598 158.355 88.7472 158.469C88.7346 158.582 88.6779 158.784 88.5771 159.073C88.4763 159.363 88.3692 159.634 88.2558 159.886C88.1424 160.138 87.9849 160.378 87.7833 160.604C87.5817 160.831 87.3549 160.989 87.1029 161.077C87.0021 161.102 86.8509 161.115 86.6492 161.115C85.8176 161.115 85.2443 160.762 84.9293 160.056C84.9041 160.069 84.8348 160.132 84.7214 160.245C84.6079 160.359 84.4945 160.453 84.3811 160.529C84.2677 160.604 84.1291 160.699 83.9653 160.812C83.8015 160.926 83.6188 161.001 83.4172 161.039C83.2156 161.077 83.0014 161.108 82.7746 161.134C82.2201 161.134 81.7287 161.02 81.3003 160.793C80.6451 160.403 80.3175 159.735 80.3175 158.79C80.3175 158.072 80.538 157.133 80.979 155.974C81.42 154.814 81.6405 154.077 81.6405 153.762C81.6405 153.75 81.6405 153.737 81.6405 153.725C81.6405 153.611 81.6405 153.536 81.6405 153.498C81.6405 153.46 81.6153 153.416 81.5649 153.365C81.5145 153.315 81.4452 153.29 81.357 153.29H81.2814C80.9916 153.29 80.727 153.41 80.4876 153.649C80.2481 153.888 80.0591 154.147 79.9205 154.424C79.7819 154.701 79.6748 154.966 79.5992 155.218C79.5236 155.47 79.4732 155.608 79.448 155.634C79.4228 155.659 79.322 155.671 79.1456 155.671H78.881C78.8054 155.596 78.7676 155.539 78.7676 155.501Z" fill="white"/>
<path d="M89.5791 155.501C89.5917 155.463 89.6043 155.413 89.6169 155.35C89.6295 155.287 89.661 155.148 89.7114 154.934C89.7618 154.72 89.8248 154.525 89.9004 154.348C89.976 154.172 90.0705 153.964 90.1839 153.725C90.2973 153.485 90.4233 153.296 90.5619 153.157C90.7006 153.019 90.8644 152.88 91.0534 152.742C91.2424 152.603 91.4503 152.546 91.6771 152.572C92.0425 152.572 92.3638 152.647 92.641 152.798C92.9183 152.95 93.1136 153.088 93.227 153.214C93.3404 153.34 93.4097 153.466 93.4349 153.592C93.4601 153.668 93.479 153.706 93.4916 153.706C93.5042 153.706 93.5546 153.662 93.6428 153.573C94.2476 152.918 94.947 152.59 95.7408 152.59H95.7975C96.4023 152.59 96.8559 152.849 97.1584 153.365C97.2592 153.605 97.3096 153.838 97.3096 154.065C97.3096 154.443 97.2277 154.745 97.0638 154.972C96.9 155.199 96.7362 155.344 96.5724 155.407C96.4086 155.47 96.2511 155.495 96.0999 155.482C95.8479 155.482 95.6463 155.413 95.4951 155.274C95.3439 155.136 95.2683 154.953 95.2683 154.726C95.2683 154.121 95.6211 153.718 96.3267 153.517C96.0495 153.353 95.8227 153.271 95.6463 153.271C94.9407 153.271 94.2917 153.737 93.6995 154.67C93.5735 154.871 93.479 155.079 93.416 155.293C93.353 155.508 93.1388 156.345 92.7734 157.807C92.3449 159.571 92.0992 160.51 92.0362 160.623C91.8724 160.964 91.6015 161.134 91.2235 161.134C91.0597 161.134 90.9274 161.096 90.8266 161.02C90.7258 160.945 90.6565 160.869 90.6186 160.793C90.5808 160.718 90.5682 160.655 90.5808 160.604C90.5808 160.441 90.8329 159.357 91.3369 157.353C91.8409 155.35 92.0929 154.235 92.0929 154.008C92.0929 153.517 91.9291 153.271 91.6015 153.271C91.3369 153.271 91.1101 153.447 90.9211 153.8C90.7321 154.153 90.5808 154.537 90.4674 154.953C90.354 155.369 90.2847 155.596 90.2595 155.634C90.2343 155.659 90.1335 155.671 89.9571 155.671H89.6925C89.6169 155.596 89.5791 155.539 89.5791 155.501Z" fill="white"/>
<path d="M98.1221 155.501C98.1347 155.463 98.1473 155.413 98.1599 155.35C98.1725 155.287 98.204 155.148 98.2544 154.934C98.3048 154.72 98.3678 154.525 98.4434 154.348C98.519 154.172 98.6135 153.964 98.7269 153.725C98.8403 153.485 98.9663 153.296 99.1049 153.157C99.2435 153.019 99.4073 152.88 99.5963 152.742C99.7853 152.603 99.9933 152.546 100.22 152.572C100.585 152.572 100.907 152.647 101.184 152.798C101.461 152.95 101.657 153.088 101.77 153.214C101.883 153.34 101.953 153.466 101.978 153.592C102.003 153.668 102.022 153.706 102.035 153.706C102.047 153.706 102.098 153.662 102.186 153.573C102.791 152.918 103.49 152.59 104.284 152.59H104.34C104.945 152.59 105.399 152.849 105.701 153.365C105.802 153.605 105.853 153.838 105.853 154.065C105.853 154.443 105.771 154.745 105.607 154.972C105.443 155.199 105.279 155.344 105.115 155.407C104.952 155.47 104.794 155.495 104.643 155.482C104.391 155.482 104.189 155.413 104.038 155.274C103.887 155.136 103.811 154.953 103.811 154.726C103.811 154.121 104.164 153.718 104.87 153.517C104.592 153.353 104.366 153.271 104.189 153.271C103.484 153.271 102.835 153.737 102.242 154.67C102.116 154.871 102.022 155.079 101.959 155.293C101.896 155.508 101.682 156.345 101.316 157.807C100.888 159.571 100.642 160.51 100.579 160.623C100.415 160.964 100.144 161.134 99.7664 161.134C99.6026 161.134 99.4703 161.096 99.3695 161.02C99.2687 160.945 99.1994 160.869 99.1616 160.793C99.1238 160.718 99.1112 160.655 99.1238 160.604C99.1238 160.441 99.3758 159.357 99.8799 157.353C100.384 155.35 100.636 154.235 100.636 154.008C100.636 153.517 100.472 153.271 100.144 153.271C99.8799 153.271 99.653 153.447 99.464 153.8C99.275 154.153 99.1238 154.537 99.0104 154.953C98.897 155.369 98.8277 155.596 98.8025 155.634C98.7773 155.659 98.6765 155.671 98.5001 155.671H98.2355C98.1599 155.596 98.1221 155.539 98.1221 155.501Z" fill="white"/>
<path d="M107.724 160.264C107.724 160.264 107.724 160.107 107.724 159.792C107.724 159.477 107.824 159.206 108.026 158.979C108.228 158.752 108.499 158.639 108.839 158.639C109.192 158.639 109.507 158.796 109.784 159.111C110.061 159.426 110.206 159.981 110.219 160.774C110.219 161.215 110.162 161.644 110.048 162.06C109.935 162.475 109.803 162.835 109.652 163.137C109.5 163.439 109.337 163.698 109.16 163.912C108.984 164.126 108.832 164.296 108.706 164.422C108.58 164.548 108.499 164.605 108.461 164.592C108.41 164.592 108.328 164.536 108.215 164.422C108.102 164.309 108.045 164.227 108.045 164.177C108.045 164.126 108.114 164.025 108.253 163.874C108.391 163.723 108.549 163.534 108.725 163.307C108.902 163.08 109.066 162.765 109.217 162.362C109.368 161.959 109.469 161.499 109.519 160.982V160.756L109.5 160.774C109.475 160.787 109.444 160.8 109.406 160.812C109.368 160.825 109.33 160.844 109.292 160.869C109.255 160.894 109.198 160.907 109.122 160.907C109.047 160.907 108.971 160.913 108.895 160.926C108.555 160.926 108.278 160.819 108.064 160.604L107.724 160.264Z" fill="white"/>
<path d="M121.578 148.016C121.591 148.016 122.044 147.985 122.939 147.922C123.834 147.859 124.294 147.821 124.319 147.808C124.47 147.808 124.546 147.859 124.546 147.96C124.546 148.048 124.086 149.951 123.166 153.668C122.246 157.385 121.773 159.281 121.748 159.357C121.723 159.432 121.717 159.527 121.729 159.64C121.729 160.17 121.906 160.434 122.259 160.434C122.372 160.422 122.498 160.365 122.637 160.264C122.901 160.012 123.16 159.407 123.412 158.45C123.487 158.198 123.55 158.065 123.601 158.053C123.626 158.04 123.689 158.034 123.79 158.034H123.865H123.941C124.13 158.034 124.224 158.084 124.224 158.185C124.224 158.248 124.205 158.349 124.168 158.487C124.004 159.117 123.815 159.628 123.601 160.018C123.386 160.409 123.21 160.661 123.071 160.774C122.933 160.888 122.756 160.989 122.542 161.077C122.441 161.102 122.29 161.115 122.088 161.115C121.66 161.115 121.301 161.02 121.011 160.831C120.721 160.642 120.532 160.447 120.444 160.245L120.331 159.962C120.318 159.949 120.293 159.955 120.255 159.981C120.23 160.006 120.205 160.031 120.18 160.056C119.436 160.762 118.68 161.115 117.911 161.115C117.218 161.115 116.607 160.863 116.078 160.359C115.549 159.855 115.284 159.054 115.284 157.958C115.284 157.353 115.41 156.736 115.662 156.106C115.914 155.476 116.217 154.934 116.569 154.48C117.162 153.762 117.754 153.264 118.346 152.987C118.938 152.71 119.474 152.571 119.953 152.571C120.658 152.571 121.188 152.836 121.54 153.365C121.603 153.441 121.635 153.466 121.635 153.441C121.647 153.39 121.818 152.704 122.145 151.381C122.473 150.058 122.649 149.358 122.674 149.283C122.674 149.119 122.63 149.018 122.542 148.98C122.454 148.942 122.208 148.911 121.805 148.886H121.408C121.332 148.81 121.295 148.76 121.295 148.735C121.295 148.709 121.307 148.59 121.332 148.375C121.395 148.136 121.477 148.016 121.578 148.016ZM121.314 154.764C121.024 153.768 120.551 153.271 119.896 153.271C119.455 153.271 119.033 153.466 118.63 153.857C118.226 154.247 117.911 154.758 117.685 155.388C117.319 156.383 117.061 157.416 116.91 158.487C116.91 158.525 116.91 158.595 116.91 158.695C116.91 158.796 116.903 158.872 116.891 158.922C116.891 159.489 117.004 159.88 117.231 160.094C117.458 160.308 117.729 160.422 118.044 160.434C118.724 160.434 119.423 159.981 120.142 159.073L120.293 158.865L121.314 154.764Z" fill="white"/>
<path d="M125.188 157.958C125.188 156.686 125.667 155.476 126.625 154.329C127.583 153.183 128.66 152.603 129.857 152.59C130.5 152.59 131.067 152.899 131.558 153.516C131.76 153.138 132.049 152.949 132.428 152.949C132.591 152.949 132.736 153 132.862 153.101C132.988 153.201 133.051 153.327 133.051 153.479C133.051 153.642 132.818 154.651 132.352 156.503C131.886 158.355 131.646 159.401 131.634 159.64C131.634 159.955 131.678 160.163 131.766 160.264C131.854 160.365 131.986 160.422 132.163 160.434C132.276 160.422 132.402 160.365 132.541 160.264C132.806 160.012 133.064 159.407 133.316 158.45C133.391 158.198 133.454 158.065 133.505 158.053C133.53 158.04 133.593 158.034 133.694 158.034H133.769C134.009 158.034 134.129 158.09 134.129 158.204C134.129 158.279 134.097 158.45 134.034 158.714C133.971 158.979 133.845 159.319 133.656 159.735C133.467 160.151 133.265 160.466 133.051 160.68C132.887 160.844 132.686 160.976 132.446 161.077C132.346 161.102 132.194 161.115 131.993 161.115C131.564 161.115 131.205 161.02 130.915 160.831C130.626 160.642 130.437 160.447 130.348 160.245L130.235 159.962C130.222 159.949 130.197 159.955 130.159 159.981C130.134 160.006 130.109 160.031 130.084 160.056C129.34 160.762 128.584 161.115 127.816 161.115C127.123 161.115 126.512 160.863 125.982 160.359C125.453 159.855 125.188 159.054 125.188 157.958ZM131.199 154.726C131.199 154.651 131.167 154.512 131.104 154.31C131.041 154.109 130.897 153.888 130.67 153.649C130.443 153.409 130.153 153.283 129.8 153.271C129.359 153.271 128.937 153.466 128.534 153.857C128.131 154.247 127.816 154.758 127.589 155.388C127.223 156.383 126.965 157.416 126.814 158.487C126.814 158.525 126.814 158.595 126.814 158.695C126.814 158.796 126.808 158.872 126.795 158.922C126.795 159.489 126.908 159.88 127.135 160.094C127.362 160.308 127.633 160.422 127.948 160.434C128.427 160.434 128.899 160.226 129.366 159.81C129.832 159.395 130.109 159.073 130.197 158.847C130.222 158.796 130.393 158.122 130.708 156.824C131.023 155.526 131.186 154.827 131.199 154.726Z" fill="white"/>
<path d="M135.697 146.769L135.773 146.75C135.836 146.75 135.899 146.75 135.962 146.75H136.188L136.718 147.204C137.902 148.275 138.765 149.61 139.307 151.211C139.849 152.811 140.12 154.474 140.12 156.2C140.12 157.057 140.057 157.883 139.931 158.676C139.805 159.47 139.66 160.144 139.496 160.699C139.332 161.253 139.099 161.808 138.797 162.362C138.494 162.917 138.255 163.339 138.079 163.628C137.902 163.918 137.644 164.24 137.304 164.592C136.963 164.945 136.762 165.153 136.699 165.216C136.636 165.279 136.491 165.399 136.264 165.575C136.226 165.613 136.201 165.638 136.188 165.651H135.962C135.861 165.651 135.792 165.651 135.754 165.651C135.716 165.651 135.684 165.632 135.659 165.594C135.634 165.556 135.615 165.5 135.603 165.424C135.615 165.411 135.684 165.33 135.81 165.178C137.764 163.15 138.74 160.157 138.74 156.2C138.74 152.244 137.764 149.251 135.81 147.223C135.684 147.071 135.615 146.989 135.603 146.977C135.603 146.876 135.634 146.807 135.697 146.769Z" fill="white"/>
<path d="M148.738 149.283C148.738 149.182 148.776 149.094 148.852 149.018C148.927 148.942 148.99 148.905 149.041 148.905C149.142 148.905 150.112 149.333 151.952 150.19C153.791 151.047 155.618 151.91 157.433 152.779C159.247 153.649 160.155 154.09 160.155 154.102C160.243 154.165 160.287 154.26 160.287 154.386C160.287 154.512 160.243 154.606 160.155 154.669C160.129 154.695 158.29 155.57 154.635 157.297L149.192 159.867H149.079C148.852 159.842 148.738 159.716 148.738 159.489C148.738 159.477 148.738 159.458 148.738 159.432C148.726 159.344 148.82 159.243 149.022 159.13C149.261 159.004 150.206 158.55 151.857 157.769C152.84 157.303 153.659 156.919 154.314 156.616L159.002 154.386L153.974 152.004C153.105 151.589 152.096 151.11 150.95 150.568C149.841 150.051 149.198 149.743 149.022 149.642C148.846 149.541 148.751 149.421 148.738 149.283ZM148.757 163.156C148.757 163.03 148.852 162.904 149.041 162.778H159.984C160.186 162.854 160.287 162.98 160.287 163.156C160.287 163.307 160.192 163.433 160.003 163.534H149.022C148.846 163.446 148.757 163.32 148.757 163.156Z" fill="white"/>
<path d="M168.962 149.869C169.668 148.848 170.632 148.338 171.854 148.338C172.459 148.338 173.064 148.501 173.668 148.829C174.273 149.157 174.765 149.736 175.143 150.568C175.609 151.614 175.842 153.05 175.842 154.877C175.842 156.83 175.571 158.324 175.029 159.357C174.777 159.886 174.431 160.308 173.99 160.623C173.549 160.938 173.164 161.134 172.837 161.209C172.509 161.285 172.188 161.329 171.873 161.341C171.545 161.341 171.218 161.304 170.89 161.228C170.562 161.152 170.178 160.951 169.737 160.623C169.296 160.296 168.95 159.873 168.698 159.357C168.156 158.324 167.885 156.83 167.885 154.877C167.885 152.685 168.244 151.015 168.962 149.869ZM173.215 149.642C172.837 149.239 172.389 149.037 171.873 149.037C171.344 149.037 170.89 149.239 170.512 149.642C170.197 149.969 169.989 150.423 169.888 151.003C169.787 151.582 169.737 152.792 169.737 154.632C169.737 156.623 169.787 157.933 169.888 158.563C169.989 159.193 170.216 159.691 170.569 160.056C170.922 160.434 171.356 160.623 171.873 160.623C172.377 160.623 172.805 160.434 173.158 160.056C173.524 159.678 173.75 159.149 173.839 158.468C173.927 157.788 173.977 156.509 173.99 154.632C173.99 152.805 173.939 151.601 173.839 151.022C173.738 150.442 173.53 149.982 173.215 149.642Z" fill="white"/>
<path d="M181.834 149.963C181.847 149.875 181.884 149.799 181.947 149.736C182.01 149.673 182.099 149.635 182.212 149.623C182.351 149.623 182.483 149.736 182.609 149.963L187.088 160.018L191.568 149.963C191.681 149.761 191.782 149.654 191.87 149.642C191.896 149.629 191.927 149.623 191.965 149.623C192.192 149.623 192.318 149.736 192.343 149.963C192.343 150.039 191.933 151.009 191.114 152.874C190.295 154.739 189.47 156.591 188.638 158.431C187.807 160.27 187.385 161.197 187.372 161.209C187.309 161.297 187.214 161.341 187.088 161.341C186.962 161.341 186.868 161.297 186.805 161.209C186.792 161.197 186.376 160.277 185.557 158.45C184.738 156.623 183.913 154.77 183.081 152.893C182.25 151.015 181.834 150.039 181.834 149.963Z" fill="white"/>
<path d="M204.534 148.016C204.547 148.016 205 147.985 205.895 147.922C206.79 147.859 207.25 147.821 207.275 147.808C207.426 147.808 207.502 147.859 207.502 147.96C207.502 148.048 207.042 149.951 206.122 153.668C205.202 157.385 204.73 159.281 204.704 159.357C204.679 159.432 204.673 159.527 204.685 159.64C204.685 160.17 204.862 160.434 205.215 160.434C205.328 160.422 205.454 160.365 205.593 160.264C205.857 160.012 206.116 159.407 206.368 158.45C206.443 158.198 206.506 158.065 206.557 158.053C206.582 158.04 206.645 158.034 206.746 158.034H206.821H206.897C207.086 158.034 207.18 158.084 207.18 158.185C207.18 158.248 207.161 158.349 207.124 158.487C206.96 159.117 206.771 159.628 206.557 160.018C206.342 160.409 206.166 160.661 206.027 160.774C205.889 160.888 205.712 160.989 205.498 161.077C205.397 161.102 205.246 161.115 205.045 161.115C204.616 161.115 204.257 161.02 203.967 160.831C203.677 160.642 203.488 160.447 203.4 160.245L203.287 159.962C203.274 159.949 203.249 159.955 203.211 159.981C203.186 160.006 203.161 160.031 203.136 160.056C202.392 160.762 201.636 161.115 200.867 161.115C200.174 161.115 199.563 160.863 199.034 160.359C198.505 159.855 198.24 159.054 198.24 157.958C198.24 157.353 198.366 156.736 198.618 156.106C198.87 155.476 199.173 154.934 199.525 154.48C200.118 153.762 200.71 153.264 201.302 152.987C201.894 152.71 202.43 152.571 202.909 152.571C203.614 152.571 204.144 152.836 204.496 153.365C204.559 153.441 204.591 153.466 204.591 153.441C204.604 153.39 204.774 152.704 205.101 151.381C205.429 150.058 205.605 149.358 205.63 149.283C205.63 149.119 205.586 149.018 205.498 148.98C205.41 148.942 205.164 148.911 204.761 148.886H204.364C204.289 148.81 204.251 148.76 204.251 148.735C204.251 148.709 204.263 148.59 204.289 148.375C204.352 148.136 204.433 148.016 204.534 148.016ZM204.27 154.764C203.98 153.768 203.507 153.271 202.852 153.271C202.411 153.271 201.989 153.466 201.586 153.857C201.182 154.247 200.867 154.758 200.641 155.388C200.275 156.383 200.017 157.416 199.866 158.487C199.866 158.525 199.866 158.595 199.866 158.695C199.866 158.796 199.859 158.872 199.847 158.922C199.847 159.489 199.96 159.88 200.187 160.094C200.414 160.308 200.685 160.422 201 160.434C201.68 160.434 202.38 159.981 203.098 159.073L203.249 158.865L204.27 154.764Z" fill="white"/>
<path d="M208.258 157.75C208.258 157.032 208.378 156.377 208.617 155.785C208.856 155.192 209.165 154.701 209.543 154.31C209.921 153.92 210.343 153.592 210.809 153.328C211.276 153.063 211.717 152.868 212.132 152.742C212.548 152.616 212.945 152.559 213.323 152.572H213.38C213.947 152.572 214.438 152.71 214.854 152.987C215.27 153.265 215.478 153.674 215.478 154.216C215.478 155.35 214.779 156.093 213.38 156.446C212.763 156.61 211.918 156.698 210.847 156.711C210.381 156.711 210.142 156.723 210.129 156.749C210.129 156.774 210.091 156.994 210.016 157.41C209.94 157.826 209.896 158.191 209.883 158.506C209.883 159.099 210.016 159.565 210.28 159.905C210.545 160.245 210.942 160.422 211.471 160.434C212 160.447 212.586 160.327 213.229 160.075C213.871 159.823 214.451 159.407 214.968 158.828C215.081 158.702 215.157 158.639 215.194 158.639C215.245 158.639 215.327 158.695 215.44 158.809C215.554 158.922 215.617 159.01 215.629 159.073C215.642 159.136 215.585 159.237 215.459 159.376C215.333 159.514 215.144 159.685 214.892 159.886C214.64 160.088 214.35 160.283 214.023 160.472C213.695 160.661 213.298 160.819 212.832 160.945C212.366 161.071 211.887 161.134 211.395 161.134C210.4 161.134 209.631 160.8 209.089 160.132C208.548 159.464 208.27 158.67 208.258 157.75ZM214.571 154.254C214.495 153.599 214.067 153.271 213.285 153.271C212.87 153.271 212.485 153.359 212.132 153.536C211.78 153.712 211.496 153.926 211.282 154.178C211.068 154.43 210.885 154.688 210.734 154.953C210.583 155.218 210.482 155.445 210.431 155.634C210.381 155.823 210.35 155.942 210.337 155.993C210.337 156.005 210.463 156.012 210.715 156.012C212.139 156.012 213.134 155.86 213.701 155.558C214.268 155.255 214.558 154.821 214.571 154.254Z" fill="white"/>
<path d="M216.82 153.649C216.732 153.561 216.688 153.498 216.688 153.46C216.688 153.41 216.706 153.309 216.744 153.157C216.782 153.006 216.814 152.918 216.839 152.893C216.864 152.83 216.921 152.798 217.009 152.798C217.097 152.798 217.418 152.792 217.973 152.779H218.975L219.334 151.267C219.371 151.129 219.416 150.946 219.466 150.719C219.516 150.492 219.56 150.329 219.598 150.228C219.636 150.127 219.674 150.001 219.712 149.85C219.749 149.699 219.8 149.592 219.863 149.529C219.926 149.466 219.989 149.39 220.052 149.302C220.115 149.214 220.203 149.157 220.316 149.132C220.43 149.106 220.543 149.094 220.657 149.094C220.883 149.106 221.041 149.176 221.129 149.302C221.217 149.428 221.262 149.547 221.262 149.661C221.262 149.749 221.205 150.045 221.091 150.549C220.978 151.053 220.852 151.551 220.713 152.042L220.524 152.742C220.524 152.767 220.839 152.779 221.469 152.779H222.433C222.522 152.868 222.566 152.937 222.566 152.987C222.566 153.265 222.484 153.485 222.32 153.649H220.298L219.617 156.39C219.126 158.406 218.88 159.489 218.88 159.64C218.88 160.17 219.05 160.434 219.39 160.434C219.831 160.434 220.26 160.22 220.676 159.792C221.091 159.363 221.425 158.834 221.677 158.204C221.703 158.128 221.734 158.084 221.772 158.072C221.81 158.059 221.904 158.047 222.055 158.034H222.131C222.32 158.034 222.414 158.084 222.414 158.185C222.414 158.223 222.396 158.299 222.358 158.412C222.295 158.614 222.181 158.853 222.018 159.13C221.854 159.407 221.64 159.704 221.375 160.019C221.11 160.334 220.789 160.598 220.411 160.812C220.033 161.027 219.649 161.134 219.258 161.134C218.88 161.134 218.521 161.039 218.181 160.85C217.84 160.661 217.595 160.334 217.444 159.867C217.418 159.767 217.406 159.596 217.406 159.357V159.017L218.067 156.371C218.508 154.594 218.735 153.699 218.748 153.687C218.748 153.662 218.426 153.649 217.784 153.649H216.82Z" fill="white"/>
<path d="M224.947 156.2C224.947 155.331 225.01 154.506 225.136 153.724C225.262 152.943 225.407 152.269 225.571 151.702C225.735 151.135 225.968 150.581 226.27 150.039C226.573 149.497 226.812 149.075 226.989 148.772C227.165 148.47 227.43 148.142 227.782 147.79C228.135 147.437 228.343 147.223 228.406 147.147C228.469 147.071 228.627 146.939 228.879 146.75H229.124H229.2C229.376 146.75 229.465 146.807 229.465 146.92C229.465 146.958 229.357 147.09 229.143 147.317C228.929 147.544 228.671 147.878 228.368 148.319C228.066 148.76 227.757 149.302 227.442 149.944C227.127 150.587 226.863 151.456 226.648 152.553C226.434 153.649 226.327 154.865 226.327 156.2C226.327 157.536 226.434 158.746 226.648 159.829C226.863 160.913 227.121 161.789 227.423 162.457C227.726 163.124 228.034 163.666 228.349 164.082C228.664 164.498 228.929 164.832 229.143 165.084C229.357 165.336 229.465 165.468 229.465 165.481C229.465 165.594 229.37 165.651 229.181 165.651H229.124H228.879L228.349 165.197C227.165 164.126 226.302 162.791 225.76 161.19C225.218 159.59 224.947 157.927 224.947 156.2Z" fill="white"/>
<path d="M237.44 148.016C237.453 148.016 237.907 147.985 238.801 147.922C239.696 147.859 240.156 147.821 240.181 147.808C240.332 147.808 240.408 147.859 240.408 147.96C240.408 148.048 239.948 149.951 239.028 153.668C238.108 157.385 237.636 159.281 237.611 159.357C237.585 159.432 237.579 159.527 237.592 159.64C237.592 160.17 237.768 160.434 238.121 160.434C238.234 160.422 238.36 160.365 238.499 160.264C238.764 160.012 239.022 159.407 239.274 158.45C239.349 158.198 239.412 158.065 239.463 158.053C239.488 158.04 239.551 158.034 239.652 158.034H239.727H239.803C239.992 158.034 240.087 158.084 240.087 158.185C240.087 158.248 240.068 158.349 240.03 158.487C239.866 159.117 239.677 159.628 239.463 160.018C239.249 160.409 239.072 160.661 238.934 160.774C238.795 160.888 238.619 160.989 238.404 161.077C238.304 161.102 238.152 161.115 237.951 161.115C237.522 161.115 237.163 161.02 236.873 160.831C236.584 160.642 236.395 160.447 236.306 160.245L236.193 159.962C236.18 159.949 236.155 159.955 236.117 159.981C236.092 160.006 236.067 160.031 236.042 160.056C235.298 160.762 234.542 161.115 233.774 161.115C233.081 161.115 232.47 160.863 231.94 160.359C231.411 159.855 231.146 159.054 231.146 157.958C231.146 157.353 231.272 156.736 231.525 156.106C231.777 155.476 232.079 154.934 232.432 154.48C233.024 153.762 233.616 153.264 234.208 152.987C234.801 152.71 235.336 152.571 235.815 152.571C236.521 152.571 237.05 152.836 237.403 153.365C237.466 153.441 237.497 153.466 237.497 153.441C237.51 153.39 237.68 152.704 238.008 151.381C238.335 150.058 238.512 149.358 238.537 149.283C238.537 149.119 238.493 149.018 238.404 148.98C238.316 148.942 238.071 148.911 237.667 148.886H237.27C237.195 148.81 237.157 148.76 237.157 148.735C237.157 148.709 237.17 148.59 237.195 148.375C237.258 148.136 237.34 148.016 237.44 148.016ZM237.176 154.764C236.886 153.768 236.414 153.271 235.758 153.271C235.317 153.271 234.895 153.466 234.492 153.857C234.089 154.247 233.774 154.758 233.547 155.388C233.181 156.383 232.923 157.416 232.772 158.487C232.772 158.525 232.772 158.595 232.772 158.695C232.772 158.796 232.766 158.872 232.753 158.922C232.753 159.489 232.866 159.88 233.093 160.094C233.32 160.308 233.591 160.422 233.906 160.434C234.586 160.434 235.286 159.981 236.004 159.073L236.155 158.865L237.176 154.764Z" fill="white"/>
<path d="M241.807 148.697C241.807 148.571 241.833 148.426 241.883 148.262C241.933 148.098 242.009 148.016 242.11 148.016C242.122 148.016 242.576 147.985 243.471 147.922C244.365 147.859 244.825 147.821 244.85 147.809C245.002 147.809 245.077 147.865 245.077 147.979C245.077 148.092 244.863 148.993 244.435 150.681C244.334 151.11 244.227 151.551 244.113 152.005C244 152.458 243.905 152.798 243.83 153.025L243.754 153.384C243.754 153.422 243.792 153.403 243.868 153.328C244.485 152.824 245.121 152.572 245.777 152.572C246.558 152.572 247.188 152.861 247.667 153.441C248.145 154.021 248.391 154.751 248.404 155.634C248.404 157.032 247.906 158.299 246.911 159.433C245.915 160.567 244.844 161.134 243.697 161.134C243.067 161.134 242.494 160.894 241.977 160.415C241.461 159.937 241.196 159.162 241.184 158.091V157.921C241.184 157.656 241.234 157.29 241.335 156.824C241.436 156.358 241.744 155.117 242.261 153.101C242.891 150.618 243.206 149.302 243.206 149.151C243.206 148.999 242.967 148.911 242.488 148.886C242.425 148.886 242.374 148.886 242.337 148.886H242.242C242.116 148.886 242.034 148.886 241.996 148.886C241.959 148.886 241.914 148.867 241.864 148.829C241.814 148.791 241.795 148.747 241.807 148.697ZM246.778 154.783V154.67C246.778 153.737 246.394 153.271 245.625 153.271C245.411 153.271 245.191 153.321 244.964 153.422C244.737 153.523 244.529 153.655 244.34 153.819C244.151 153.983 243.987 154.134 243.849 154.273C243.71 154.411 243.597 154.55 243.508 154.688L243.395 154.84L242.998 156.465C242.721 157.549 242.582 158.317 242.582 158.771C242.582 159.376 242.733 159.83 243.036 160.132C243.237 160.334 243.49 160.434 243.792 160.434C244.208 160.434 244.63 160.233 245.058 159.83C245.373 159.54 245.625 159.187 245.814 158.771C246.003 158.355 246.211 157.694 246.438 156.786C246.665 155.879 246.778 155.211 246.778 154.783Z" fill="white"/>
<path d="M250.01 160.264C250.01 160.264 250.01 160.107 250.01 159.792C250.01 159.477 250.111 159.206 250.312 158.979C250.514 158.752 250.785 158.639 251.125 158.639C251.478 158.639 251.793 158.796 252.07 159.111C252.347 159.426 252.492 159.981 252.505 160.774C252.505 161.215 252.448 161.644 252.335 162.06C252.221 162.475 252.089 162.835 251.938 163.137C251.786 163.439 251.623 163.698 251.446 163.912C251.27 164.126 251.119 164.296 250.993 164.422C250.867 164.548 250.785 164.605 250.747 164.592C250.696 164.592 250.615 164.536 250.501 164.422C250.388 164.309 250.331 164.227 250.331 164.177C250.331 164.126 250.4 164.025 250.539 163.874C250.678 163.723 250.835 163.534 251.012 163.307C251.188 163.08 251.352 162.765 251.503 162.362C251.654 161.959 251.755 161.499 251.805 160.982V160.756L251.786 160.774C251.761 160.787 251.73 160.8 251.692 160.812C251.654 160.825 251.616 160.844 251.579 160.869C251.541 160.894 251.484 160.907 251.408 160.907C251.333 160.907 251.257 160.913 251.182 160.926C250.841 160.926 250.564 160.819 250.35 160.604L250.01 160.264Z" fill="white"/>
<path d="M263.864 148.016C263.877 148.016 264.331 147.985 265.225 147.922C266.12 147.859 266.58 147.821 266.605 147.808C266.756 147.808 266.832 147.859 266.832 147.96C266.832 148.048 266.372 149.951 265.452 153.668C264.532 157.385 264.06 159.281 264.034 159.357C264.009 159.432 264.003 159.527 264.016 159.64C264.016 160.17 264.192 160.434 264.545 160.434C264.658 160.422 264.784 160.365 264.923 160.264C265.187 160.012 265.446 159.407 265.698 158.45C265.773 158.198 265.836 158.065 265.887 158.053C265.912 158.04 265.975 158.034 266.076 158.034H266.151H266.227C266.416 158.034 266.51 158.084 266.51 158.185C266.51 158.248 266.492 158.349 266.454 158.487C266.29 159.117 266.101 159.628 265.887 160.018C265.672 160.409 265.496 160.661 265.357 160.774C265.219 160.888 265.042 160.989 264.828 161.077C264.727 161.102 264.576 161.115 264.375 161.115C263.946 161.115 263.587 161.02 263.297 160.831C263.007 160.642 262.818 160.447 262.73 160.245L262.617 159.962C262.604 159.949 262.579 159.955 262.541 159.981C262.516 160.006 262.491 160.031 262.466 160.056C261.722 160.762 260.966 161.115 260.198 161.115C259.505 161.115 258.893 160.863 258.364 160.359C257.835 159.855 257.57 159.054 257.57 157.958C257.57 157.353 257.696 156.736 257.948 156.106C258.2 155.476 258.503 154.934 258.856 154.48C259.448 153.762 260.04 153.264 260.632 152.987C261.224 152.71 261.76 152.571 262.239 152.571C262.944 152.571 263.474 152.836 263.827 153.365C263.89 153.441 263.921 153.466 263.921 153.441C263.934 153.39 264.104 152.704 264.431 151.381C264.759 150.058 264.935 149.358 264.961 149.283C264.961 149.119 264.916 149.018 264.828 148.98C264.74 148.942 264.494 148.911 264.091 148.886H263.694C263.619 148.81 263.581 148.76 263.581 148.735C263.581 148.709 263.593 148.59 263.619 148.375C263.682 148.136 263.764 148.016 263.864 148.016ZM263.6 154.764C263.31 153.768 262.837 153.271 262.182 153.271C261.741 153.271 261.319 153.466 260.916 153.857C260.513 154.247 260.198 154.758 259.971 155.388C259.605 156.383 259.347 157.416 259.196 158.487C259.196 158.525 259.196 158.595 259.196 158.695C259.196 158.796 259.189 158.872 259.177 158.922C259.177 159.489 259.29 159.88 259.517 160.094C259.744 160.308 260.015 160.422 260.33 160.434C261.01 160.434 261.71 159.981 262.428 159.073L262.579 158.865L263.6 154.764Z" fill="white"/>
<path d="M267.475 157.958C267.475 156.686 267.953 155.476 268.911 154.329C269.869 153.183 270.946 152.603 272.143 152.59C272.786 152.59 273.353 152.899 273.844 153.516C274.046 153.138 274.336 152.949 274.714 152.949C274.877 152.949 275.022 153 275.148 153.101C275.274 153.201 275.337 153.327 275.337 153.479C275.337 153.642 275.104 154.651 274.638 156.503C274.172 158.355 273.932 159.401 273.92 159.64C273.92 159.955 273.964 160.163 274.052 160.264C274.14 160.365 274.273 160.422 274.449 160.434C274.562 160.422 274.688 160.365 274.827 160.264C275.092 160.012 275.35 159.407 275.602 158.45C275.678 158.198 275.741 158.065 275.791 158.053C275.816 158.04 275.879 158.034 275.98 158.034H276.056C276.295 158.034 276.415 158.09 276.415 158.204C276.415 158.279 276.383 158.45 276.32 158.714C276.257 158.979 276.131 159.319 275.942 159.735C275.753 160.151 275.552 160.466 275.337 160.68C275.174 160.844 274.972 160.976 274.733 161.077C274.632 161.102 274.481 161.115 274.279 161.115C273.851 161.115 273.491 161.02 273.202 160.831C272.912 160.642 272.723 160.447 272.635 160.245L272.521 159.962C272.509 159.949 272.483 159.955 272.446 159.981C272.42 160.006 272.395 160.031 272.37 160.056C271.627 160.762 270.87 161.115 270.102 161.115C269.409 161.115 268.798 160.863 268.268 160.359C267.739 159.855 267.475 159.054 267.475 157.958ZM273.485 154.726C273.485 154.651 273.454 154.512 273.391 154.31C273.328 154.109 273.183 153.888 272.956 153.649C272.729 153.409 272.439 153.283 272.086 153.271C271.645 153.271 271.223 153.466 270.82 153.857C270.417 154.247 270.102 154.758 269.875 155.388C269.51 156.383 269.251 157.416 269.1 158.487C269.1 158.525 269.1 158.595 269.1 158.695C269.1 158.796 269.094 158.872 269.081 158.922C269.081 159.489 269.195 159.88 269.421 160.094C269.648 160.308 269.919 160.422 270.234 160.434C270.713 160.434 271.185 160.226 271.652 159.81C272.118 159.395 272.395 159.073 272.483 158.847C272.509 158.796 272.679 158.122 272.994 156.824C273.309 155.526 273.472 154.827 273.485 154.726Z" fill="white"/>
<path d="M277.982 146.769L278.058 146.75C278.121 146.75 278.184 146.75 278.247 146.75H278.474L279.003 147.204C280.187 148.275 281.05 149.61 281.592 151.211C282.134 152.811 282.405 154.474 282.405 156.2C282.405 157.057 282.342 157.883 282.216 158.676C282.09 159.47 281.945 160.144 281.781 160.699C281.617 161.253 281.384 161.808 281.082 162.362C280.78 162.917 280.54 163.339 280.364 163.628C280.187 163.918 279.929 164.24 279.589 164.592C279.249 164.945 279.047 165.153 278.984 165.216C278.921 165.279 278.776 165.399 278.549 165.575C278.511 165.613 278.486 165.638 278.474 165.651H278.247C278.146 165.651 278.077 165.651 278.039 165.651C278.001 165.651 277.97 165.632 277.944 165.594C277.919 165.556 277.9 165.5 277.888 165.424C277.9 165.411 277.97 165.33 278.096 165.178C280.049 163.15 281.025 160.157 281.025 156.2C281.025 152.244 280.049 149.251 278.096 147.223C277.97 147.071 277.9 146.989 277.888 146.977C277.888 146.876 277.919 146.807 277.982 146.769Z" fill="white"/>
<path d="M291.043 149.283C291.043 149.182 291.081 149.094 291.157 149.018C291.232 148.942 291.295 148.905 291.346 148.905C291.446 148.905 292.417 149.333 294.256 150.19C296.096 151.047 297.923 151.91 299.738 152.779C301.552 153.649 302.459 154.09 302.459 154.102C302.547 154.165 302.592 154.26 302.592 154.386C302.592 154.512 302.547 154.606 302.459 154.669C302.434 154.695 300.594 155.57 296.94 157.297L291.497 159.867H291.383C291.157 159.842 291.043 159.716 291.043 159.489C291.043 159.477 291.043 159.458 291.043 159.432C291.031 159.344 291.125 159.243 291.327 159.13C291.566 159.004 292.511 158.55 294.162 157.769C295.145 157.303 295.964 156.919 296.619 156.616L301.306 154.386L296.279 152.004C295.409 151.589 294.401 151.11 293.255 150.568C292.146 150.051 291.503 149.743 291.327 149.642C291.15 149.541 291.056 149.421 291.043 149.283ZM291.062 163.156C291.062 163.03 291.157 162.904 291.346 162.778H302.289C302.491 162.854 302.592 162.98 302.592 163.156C302.592 163.307 302.497 163.433 302.308 163.534H291.327C291.15 163.446 291.062 163.32 291.062 163.156Z" fill="white"/>
<path d="M311.249 149.869C311.955 148.848 312.919 148.338 314.141 148.338C314.746 148.338 315.351 148.501 315.956 148.829C316.56 149.157 317.052 149.736 317.43 150.568C317.896 151.614 318.129 153.05 318.129 154.877C318.129 156.83 317.858 158.324 317.316 159.357C317.064 159.886 316.718 160.308 316.277 160.623C315.836 160.938 315.452 161.134 315.124 161.209C314.796 161.285 314.475 161.329 314.16 161.341C313.832 161.341 313.505 161.304 313.177 161.228C312.849 161.152 312.465 160.951 312.024 160.623C311.583 160.296 311.237 159.873 310.985 159.357C310.443 158.324 310.172 156.83 310.172 154.877C310.172 152.685 310.531 151.015 311.249 149.869ZM315.502 149.642C315.124 149.239 314.677 149.037 314.16 149.037C313.631 149.037 313.177 149.239 312.799 149.642C312.484 149.969 312.276 150.423 312.175 151.003C312.075 151.582 312.024 152.792 312.024 154.632C312.024 156.623 312.075 157.933 312.175 158.563C312.276 159.193 312.503 159.691 312.856 160.056C313.209 160.434 313.643 160.623 314.16 160.623C314.664 160.623 315.092 160.434 315.445 160.056C315.811 159.678 316.037 159.149 316.126 158.468C316.214 157.788 316.264 156.509 316.277 154.632C316.277 152.805 316.226 151.601 316.126 151.022C316.025 150.442 315.817 149.982 315.502 149.642Z" fill="white"/>
</g>
<defs>
<clipPath id="clip0_588_6885">
<rect width="700" height="234" fill="white" transform="translate(0 0.75)"/>
</clipPath>
<clipPath id="clip1_588_6885">
<rect width="1284" height="1284" fill="white" transform="translate(-292.5 -523.75)"/>
</clipPath>
</defs>
</svg>
