<svg width="700" height="233" viewBox="0 0 700 233" fill="none" xmlns="http://www.w3.org/2000/svg">
<g clip-path="url(#clip0_588_6802)">
<rect width="700" height="232" transform="translate(0 0.75)" fill="#0A0D12"/>
<g clip-path="url(#clip1_588_6802)">
<rect width="1284" height="1284" transform="translate(-292.5 -466.75)" fill="#0A0D12"/>
<g opacity="0.4">
<line x1="408.656" y1="-1108.75" x2="408.656" y2="1459.25" stroke="#67DBFF" stroke-width="0.917143"/>
<line x1="467.353" y1="-1108.75" x2="467.353" y2="1459.25" stroke="#67DBFF" stroke-width="0.917143"/>
<line x1="526.05" y1="-1108.75" x2="526.05" y2="1459.25" stroke="#67DBFF" stroke-width="0.917143"/>
<line x1="584.748" y1="-1108.75" x2="584.747" y2="1459.25" stroke="#67DBFF" stroke-width="0.917143"/>
<line x1="643.444" y1="-1108.75" x2="643.444" y2="1459.25" stroke="#67DBFF" stroke-width="0.917143"/>
<line x1="56.4732" y1="-1108.75" x2="56.473" y2="1459.25" stroke="#67DBFF" stroke-width="0.917143"/>
<line x1="115.17" y1="-1108.75" x2="115.169" y2="1459.25" stroke="#67DBFF" stroke-width="0.917143"/>
<line x1="173.867" y1="-1108.75" x2="173.867" y2="1459.25" stroke="#67DBFF" stroke-width="0.917143"/>
<line x1="232.564" y1="-1108.75" x2="232.564" y2="1459.25" stroke="#67DBFF" stroke-width="0.917143"/>
<line x1="291.261" y1="-1108.75" x2="291.261" y2="1459.25" stroke="#67DBFF" stroke-width="0.917143"/>
<line x1="-934.5" y1="116.094" x2="1633.5" y2="116.094" stroke="#67DBFF" stroke-width="0.917143"/>
<line x1="-934.5" y1="57.3971" x2="1633.5" y2="57.3971" stroke="#67DBFF" stroke-width="0.917143"/>
</g>
<line x1="349.959" y1="-1108.75" x2="349.958" y2="1459.25" stroke="#E6E6E6" stroke-width="0.917143"/>
<line x1="-934.5" y1="174.791" x2="1633.5" y2="174.791" stroke="#E6E6E6" stroke-width="0.917143"/>
</g>
<path d="M349.5 173.558V116.259L310.5 77.9422V135.241L349.5 173.558Z" fill="#18C8FF" fill-opacity="0.3" stroke="#67DBFF"/>
<path d="M348.5 174.75C348.5 175.578 349.172 176.25 350 176.25C350.828 176.25 351.5 175.578 351.5 174.75L348.5 174.75ZM350 115.75L341.34 130.75L358.66 130.75L350 115.75ZM351.5 174.75L351.5 129.25L348.5 129.25L348.5 174.75L351.5 174.75Z" fill="#EB5757"/>
<path d="M348.939 175.811C349.525 176.396 350.475 176.396 351.061 175.811C351.646 175.225 351.646 174.275 351.061 173.689L348.939 175.811ZM310 134.75L314.483 151.48L326.73 139.233L310 134.75ZM351.061 173.689L320.607 143.235L318.485 145.357L348.939 175.811L351.061 173.689Z" fill="#006AE7"/>
<path d="M35 41.1024C35 39.5836 35.5992 38.2181 36.7975 37.0058C37.9958 35.7936 39.2916 35.1874 40.685 35.1874C41.4653 35.1874 42.0784 35.3547 42.5243 35.6891C42.9702 36.0235 43.2001 36.4624 43.214 37.0058C43.214 37.4099 43.0816 37.7513 42.8169 38.03C42.5522 38.3086 42.2177 38.4549 41.8137 38.4689C41.5489 38.4689 41.3399 38.3992 41.1866 38.2599C41.0334 38.1205 40.9567 37.9115 40.9567 37.6328C40.9567 37.3542 41.0334 37.1173 41.1866 36.9222C41.3399 36.7271 41.4932 36.5808 41.6465 36.4833C41.7997 36.3858 41.8973 36.344 41.9391 36.3579H41.96C41.96 36.33 41.9182 36.2882 41.8346 36.2325C41.751 36.1768 41.6047 36.121 41.3956 36.0653C41.1866 36.0095 40.9498 35.9817 40.685 35.9817C40.267 35.9817 39.8699 36.0792 39.4937 36.2743C39.2011 36.3997 38.9015 36.6157 38.5949 36.9222C37.9818 37.5353 37.536 38.3992 37.2573 39.5139C36.9786 40.6286 36.8323 41.4368 36.8184 41.9384C36.8184 42.5794 36.9995 43.0601 37.3618 43.3806C37.6683 43.715 38.0724 43.8822 38.574 43.8822H38.6576C40.2182 43.8822 41.5071 43.29 42.5243 42.1056C42.6497 41.9663 42.7333 41.8966 42.7751 41.8966C42.8308 41.8966 42.9214 41.9593 43.0468 42.0847C43.1722 42.2101 43.2419 42.3077 43.2558 42.3773C43.2698 42.447 43.207 42.5515 43.0677 42.6908C42.9284 42.8302 42.7263 43.0252 42.4616 43.2761C42.1968 43.5269 41.8833 43.7359 41.521 43.9031C41.1588 44.0703 40.7129 44.2445 40.1834 44.4256C39.6539 44.6067 39.0966 44.6834 38.5113 44.6555C37.4663 44.6555 36.6233 44.3211 35.9823 43.6523C35.3414 42.9834 35.0139 42.1335 35 41.1024Z" fill="white"/>
<path d="M47.5405 44.6555C46.4954 44.6555 45.6524 44.3141 45.0115 43.6314C44.3705 42.9486 44.05 42.1265 44.05 41.1651C44.05 40.2594 44.2591 39.4024 44.6771 38.5943C45.0951 37.7861 45.6664 37.0825 46.3909 36.4833C47.4499 35.6333 48.5298 35.2083 49.6306 35.2083C50.0764 35.2083 50.3551 35.2153 50.4666 35.2292C50.6477 35.271 50.8289 35.3198 51.01 35.3756C51.1912 35.4313 51.435 35.5428 51.7415 35.71C52.0481 35.8772 52.2989 36.0862 52.494 36.337C52.689 36.5878 52.8702 36.9292 53.0374 37.3611C53.2046 37.7931 53.2882 38.2808 53.2882 38.8242C53.2882 40.3151 52.689 41.6597 51.4907 42.858C50.2924 44.0564 48.9757 44.6555 47.5405 44.6555ZM45.8684 41.9175C45.8684 42.6142 46.0496 43.1158 46.4118 43.4224C46.7741 43.7289 47.1852 43.8822 47.645 43.8822C48.2581 43.8822 48.8363 43.6592 49.3798 43.2134C49.9232 42.7675 50.3551 42.1822 50.6756 41.4577C50.801 41.1651 50.9612 40.6495 51.1563 39.911C51.3514 39.1725 51.4489 38.5316 51.4489 37.9882C51.4489 37.3751 51.3235 36.9083 51.0727 36.5878C50.7383 36.1698 50.2924 35.9608 49.7351 35.9608C48.8572 35.9608 48.0839 36.3649 47.4151 37.173C46.8995 37.7861 46.5163 38.6012 46.2655 39.6184C46.0147 40.6356 45.8823 41.402 45.8684 41.9175Z" fill="white"/>
<path d="M53.9361 38.4271C53.9501 38.3435 53.971 38.232 53.9988 38.0927C54.0267 37.9533 54.1103 37.6886 54.2496 37.2984C54.389 36.9083 54.5283 36.5808 54.6677 36.3161C54.807 36.0513 55.0369 35.7936 55.3574 35.5428C55.6779 35.292 55.9983 35.1735 56.3188 35.1874C56.8204 35.1874 57.2385 35.3129 57.5729 35.5637C57.9073 35.8145 58.1163 36.0513 58.1999 36.2743C58.2835 36.4972 58.3253 36.6435 58.3253 36.7132C58.3253 36.7411 58.3323 36.755 58.3462 36.755L58.5761 36.5251C59.4261 35.6333 60.3945 35.1874 61.4813 35.1874C62.2337 35.1874 62.8399 35.3756 63.2997 35.7518C63.7595 36.128 63.9964 36.6784 64.0103 37.4029C64.0242 38.1275 63.7595 39.2213 63.2161 40.6844C62.6727 42.1474 62.4079 43.0322 62.4219 43.3388C62.4219 43.701 62.5403 43.8822 62.7772 43.8822C62.8608 43.8822 62.9235 43.8752 62.9653 43.8613C63.3694 43.7916 63.7316 43.5269 64.0521 43.067C64.3726 42.6072 64.6164 42.0499 64.7836 41.395C64.8115 41.2835 64.9508 41.2278 65.2017 41.2278C65.4803 41.2278 65.6197 41.2835 65.6197 41.395C65.6197 41.4089 65.5918 41.5134 65.5361 41.7085C65.4246 42.1126 65.2713 42.5097 65.0763 42.8998C64.8812 43.29 64.5607 43.6801 64.1148 44.0703C63.6689 44.4604 63.1882 44.6485 62.6727 44.6346C62.0178 44.6346 61.544 44.4465 61.2514 44.0703C60.9588 43.6941 60.8125 43.3039 60.8125 42.8998C60.8125 42.6351 61.0633 41.7991 61.5649 40.3917C62.0665 38.9844 62.3243 37.9255 62.3382 37.2148C62.3382 36.3927 62.0317 35.9817 61.4186 35.9817H61.3141C60.1158 35.9817 59.1056 36.6853 58.2835 38.0927L58.1372 38.3435L57.4475 41.1442C56.9876 42.9695 56.7229 43.9518 56.6532 44.0912C56.4721 44.4674 56.1725 44.6555 55.7545 44.6555C55.5734 44.6555 55.4271 44.6137 55.3156 44.5301C55.2041 44.4465 55.1275 44.3629 55.0857 44.2793C55.0439 44.1957 55.0299 44.126 55.0439 44.0703C55.0439 43.8891 55.3086 42.7535 55.8381 40.6635C56.3676 38.5734 56.6463 37.4378 56.6741 37.2566C56.6881 37.187 56.695 37.0267 56.695 36.7759C56.695 36.2325 56.5278 35.9608 56.1934 35.9608C55.6639 35.9608 55.225 36.6575 54.8767 38.0509C54.7931 38.3295 54.7513 38.4758 54.7513 38.4898C54.7234 38.5734 54.591 38.6152 54.3541 38.6152H54.0615C53.9779 38.5316 53.9361 38.4689 53.9361 38.4271Z" fill="white"/>
<path d="M69.6535 36.4833C69.6535 36.135 69.5212 35.9608 69.2564 35.9608C68.922 35.9608 68.5737 36.1628 68.2114 36.5669C67.8491 36.971 67.5495 37.591 67.3126 38.4271C67.2987 38.441 67.2848 38.4619 67.2708 38.4898C67.2569 38.5176 67.2499 38.5385 67.2499 38.5525C67.2499 38.5664 67.236 38.5803 67.2081 38.5943C67.1803 38.6082 67.1594 38.6152 67.1454 38.6152C67.1315 38.6152 67.1036 38.6152 67.0618 38.6152C67.02 38.6152 66.9643 38.6152 66.8946 38.6152H66.602C66.5184 38.5316 66.4766 38.4689 66.4766 38.4271C66.4766 38.3295 66.5323 38.1275 66.6438 37.8209C66.7553 37.5144 66.9225 37.1521 67.1454 36.7341C67.3684 36.3161 67.6749 35.9608 68.0651 35.6682C68.4552 35.3756 68.8941 35.2223 69.3818 35.2083C69.967 35.2083 70.4199 35.3756 70.7404 35.71C71.0608 36.0444 71.2281 36.4345 71.242 36.8804C71.242 37.1173 71.2211 37.2984 71.1793 37.4238C71.1793 37.5074 71.0748 37.814 70.8658 38.3435C70.6568 38.873 70.4408 39.493 70.2178 40.2036C69.9949 40.9143 69.8695 41.5343 69.8416 42.0638C69.8416 42.44 69.8765 42.7466 69.9461 42.9834C70.1273 43.5826 70.5662 43.8822 71.2629 43.8822C71.7784 43.8822 72.2592 43.6453 72.705 43.1716C73.1509 42.6978 73.4993 42.1474 73.7501 41.5204C74.0009 40.8934 74.2029 40.3151 74.3562 39.7856C74.5095 39.2561 74.5861 38.873 74.5861 38.6361C74.5861 38.3156 74.5304 38.0369 74.4189 37.8C74.3074 37.5632 74.182 37.382 74.0427 37.2566C73.9034 37.1312 73.778 37.0058 73.6665 36.8804C73.555 36.755 73.4993 36.6017 73.4993 36.4206C73.4993 36.114 73.6316 35.8284 73.8964 35.5637C74.1611 35.2989 74.4468 35.1665 74.7533 35.1665C75.0181 35.1665 75.2549 35.292 75.464 35.5428C75.673 35.7936 75.7844 36.1977 75.7984 36.755C75.7984 37.1312 75.7148 37.7095 75.5476 38.4898C75.3803 39.2701 75.1226 40.1409 74.7742 41.1024C74.4259 42.0638 73.9312 42.8929 73.2903 43.5896C72.6493 44.2863 71.9108 44.6416 71.0748 44.6555C70.183 44.6555 69.4724 44.4256 68.9429 43.9658C68.4273 43.5199 68.1696 42.858 68.1696 41.9802C68.1696 41.5483 68.2253 41.1024 68.3368 40.6426C68.4482 40.1827 68.7339 39.3676 69.1937 38.1972C69.5003 37.3054 69.6535 36.7341 69.6535 36.4833Z" fill="white"/>
<path d="M77.0106 40.9143C77.0106 40.12 77.143 39.3955 77.4077 38.7406C77.6725 38.0857 78.0138 37.5423 78.4319 37.1103C78.8499 36.6784 79.3167 36.3161 79.8322 36.0235C80.3478 35.7309 80.8355 35.5149 81.2953 35.3756C81.7551 35.2362 82.194 35.1735 82.612 35.1874H82.6747C83.3017 35.1874 83.8452 35.3407 84.305 35.6473C84.7648 35.9538 84.9947 36.4067 84.9947 37.0058C84.9947 38.2599 84.2214 39.082 82.6747 39.4721C81.992 39.6533 81.0584 39.7508 79.874 39.7647C79.3585 39.7647 79.0937 39.7787 79.0798 39.8065C79.0798 39.8344 79.038 40.0782 78.9544 40.5381C78.8708 40.9979 78.822 41.402 78.8081 41.7503C78.8081 42.4052 78.9544 42.9207 79.247 43.297C79.5396 43.6732 79.9785 43.8682 80.5637 43.8822C81.149 43.8961 81.7969 43.7637 82.5075 43.4851C83.2181 43.2064 83.8591 42.7466 84.4304 42.1056C84.5558 41.9663 84.6394 41.8966 84.6812 41.8966C84.7369 41.8966 84.8275 41.9593 84.9529 42.0847C85.0783 42.2101 85.148 42.3077 85.1619 42.3773C85.1759 42.447 85.1132 42.5585 84.9738 42.7117C84.8345 42.865 84.6255 43.0531 84.3468 43.2761C84.0681 43.499 83.7476 43.715 83.3854 43.924C83.0231 44.133 82.5842 44.3072 82.0686 44.4465C81.5531 44.5858 81.0236 44.6555 80.4801 44.6555C79.3794 44.6555 78.5294 44.2863 77.9302 43.5478C77.3311 42.8093 77.0245 41.9314 77.0106 40.9143ZM83.9915 37.0476C83.9079 36.3231 83.4341 35.9608 82.5702 35.9608C82.1104 35.9608 81.6854 36.0583 81.2953 36.2534C80.9051 36.4485 80.5916 36.6853 80.3547 36.964C80.1179 37.2427 79.9158 37.5283 79.7486 37.8209C79.5814 38.1136 79.4699 38.3644 79.4142 38.5734C79.3585 38.7824 79.3236 38.9148 79.3097 38.9705C79.3097 38.9844 79.449 38.9914 79.7277 38.9914C81.3022 38.9914 82.403 38.8242 83.03 38.4898C83.6571 38.1554 83.9775 37.6746 83.9915 37.0476Z" fill="white"/>
<path d="M87.0221 38.3853C87.1196 37.8 87.4958 37.1243 88.1507 36.3579C88.8056 35.5915 89.6138 35.2014 90.5752 35.1874C91.0629 35.1874 91.5088 35.3129 91.9129 35.5637C92.317 35.8145 92.6165 36.128 92.8116 36.5042C93.3968 35.6264 94.1005 35.1874 94.9226 35.1874C95.4381 35.1874 95.884 35.3407 96.2602 35.6473C96.6365 35.9538 96.8315 36.3649 96.8455 36.8804C96.8455 37.2845 96.7479 37.6119 96.5529 37.8627C96.3578 38.1136 96.1697 38.2668 95.9885 38.3226C95.8074 38.3783 95.6472 38.4062 95.5078 38.4062C95.2431 38.4062 95.0271 38.3295 94.8599 38.1763C94.6927 38.023 94.6091 37.8209 94.6091 37.5701C94.6091 36.9292 94.9574 36.4903 95.6541 36.2534C95.5008 36.0722 95.2222 35.9817 94.8181 35.9817C94.637 35.9817 94.5046 35.9956 94.421 36.0235C93.8915 36.2464 93.5013 36.7062 93.2505 37.4029C92.4145 40.4823 91.9965 42.2798 91.9965 42.7953C91.9965 43.1855 92.108 43.4642 92.3309 43.6314C92.5538 43.7986 92.7977 43.8822 93.0624 43.8822C93.578 43.8822 94.0866 43.6523 94.5882 43.1925C95.0898 42.7326 95.4312 42.1683 95.6123 41.4995C95.6541 41.3601 95.6959 41.2835 95.7377 41.2696C95.7795 41.2556 95.891 41.2417 96.0721 41.2278H96.1557C96.3648 41.2278 96.4693 41.2835 96.4693 41.395C96.4693 41.4089 96.4553 41.4856 96.4275 41.6249C96.2045 42.4191 95.7726 43.1228 95.1316 43.7359C94.4906 44.349 93.7452 44.6555 92.8952 44.6555C91.9198 44.6555 91.1814 44.2166 90.6797 43.3388C90.1084 44.2027 89.4536 44.6346 88.7151 44.6346H88.5897C87.9069 44.6346 87.4192 44.4535 87.1266 44.0912C86.834 43.7289 86.6807 43.3457 86.6668 42.9416C86.6668 42.4958 86.7991 42.1335 87.0639 41.8548C87.3286 41.5761 87.6421 41.4368 88.0044 41.4368C88.6036 41.4368 88.9032 41.7294 88.9032 42.3146C88.9032 42.5933 88.8196 42.8371 88.6524 43.0461C88.4851 43.2552 88.3249 43.3945 88.1716 43.4642C88.0184 43.5338 87.9278 43.5687 87.8999 43.5687L87.8372 43.5896C87.8372 43.6035 87.879 43.6314 87.9626 43.6732C88.0462 43.715 88.1577 43.7637 88.297 43.8195C88.4364 43.8752 88.5688 43.8961 88.6942 43.8822C89.1958 43.8822 89.6277 43.5687 89.99 42.9416C90.1154 42.7187 90.2757 42.2449 90.4707 41.5204C90.6658 40.7958 90.8609 40.0434 91.0559 39.2631C91.251 38.4828 91.3625 38.023 91.3904 37.8836C91.46 37.5074 91.4949 37.2357 91.4949 37.0685C91.4949 36.6784 91.3904 36.3997 91.1814 36.2325C90.9723 36.0653 90.7355 35.9817 90.4707 35.9817C89.9134 35.9817 89.3908 36.2046 88.9032 36.6505C88.4155 37.0964 88.0741 37.6677 87.879 38.3644C87.8512 38.4898 87.8163 38.5594 87.7745 38.5734C87.7327 38.5873 87.6212 38.6012 87.4401 38.6152H87.1475C87.0639 38.5316 87.0221 38.4549 87.0221 38.3853Z" fill="white"/>
<path d="M104.871 37.173C104.871 36.9919 104.969 36.8525 105.164 36.755H118.478C118.687 36.8665 118.791 37.0058 118.791 37.173C118.791 37.3263 118.694 37.4587 118.499 37.5701L111.852 37.591H105.206C104.983 37.5214 104.871 37.382 104.871 37.173ZM104.871 41.2278C104.871 41.0188 104.983 40.8794 105.206 40.8098H118.499C118.694 40.9491 118.791 41.0884 118.791 41.2278C118.791 41.4089 118.687 41.5483 118.478 41.6458H105.164C104.969 41.5483 104.871 41.4089 104.871 41.2278Z" fill="white"/>
<path d="M133.443 30.1504C133.457 30.1504 133.958 30.1155 134.948 30.0458C135.937 29.9762 136.446 29.9344 136.473 29.9204C136.641 29.9204 136.724 29.9762 136.724 30.0877C136.724 30.1852 136.216 32.2892 135.198 36.3997C134.181 40.5102 133.659 42.6072 133.631 42.6908C133.603 42.7744 133.596 42.8789 133.61 43.0043C133.61 43.5896 133.805 43.8822 134.195 43.8822C134.321 43.8682 134.46 43.8055 134.613 43.6941C134.906 43.4154 135.191 42.7466 135.47 41.6876C135.554 41.4089 135.623 41.2626 135.679 41.2487C135.707 41.2347 135.777 41.2278 135.888 41.2278H136.055C136.264 41.2278 136.369 41.2835 136.369 41.395C136.369 41.4647 136.348 41.5761 136.306 41.7294C136.125 42.4261 135.916 42.9904 135.679 43.4224C135.442 43.8543 135.247 44.133 135.094 44.2584C134.941 44.3838 134.746 44.4953 134.509 44.5928C134.397 44.6207 134.23 44.6346 134.007 44.6346C133.533 44.6346 133.136 44.5301 132.816 44.3211C132.495 44.1121 132.286 43.8961 132.189 43.6732L132.063 43.3597C132.049 43.3457 132.022 43.3527 131.98 43.3806C131.952 43.4084 131.924 43.4363 131.896 43.4642C131.074 44.2445 130.238 44.6346 129.388 44.6346C128.622 44.6346 127.946 44.3559 127.361 43.7986C126.775 43.2412 126.483 42.3564 126.483 41.1442C126.483 40.4753 126.622 39.7926 126.901 39.0959C127.18 38.3992 127.514 37.8 127.904 37.2984C128.559 36.5042 129.214 35.9538 129.869 35.6473C130.524 35.3407 131.116 35.1874 131.645 35.1874C132.426 35.1874 133.011 35.4801 133.401 36.0653C133.471 36.1489 133.505 36.1768 133.505 36.1489C133.519 36.0931 133.708 35.3338 134.07 33.8707C134.432 32.4076 134.627 31.6343 134.655 31.5507C134.655 31.3696 134.606 31.2581 134.509 31.2163C134.411 31.1745 134.139 31.1397 133.694 31.1118H133.255C133.171 31.0282 133.129 30.9725 133.129 30.9446C133.129 30.9167 133.143 30.7843 133.171 30.5475C133.241 30.2827 133.331 30.1504 133.443 30.1504ZM133.15 37.6119C132.83 36.5112 132.307 35.9608 131.583 35.9608C131.095 35.9608 130.628 36.1768 130.182 36.6087C129.736 37.0407 129.388 37.605 129.137 38.3017C128.733 39.4024 128.447 40.545 128.28 41.7294C128.28 41.7712 128.28 41.8478 128.28 41.9593C128.28 42.0708 128.273 42.1544 128.259 42.2101C128.259 42.8371 128.385 43.2691 128.636 43.506C128.886 43.7428 129.186 43.8682 129.534 43.8822C130.287 43.8822 131.06 43.3806 131.854 42.3773L132.022 42.1474L133.15 37.6119Z" fill="white"/>
<path d="M137.539 40.9143C137.539 40.12 137.672 39.3955 137.936 38.7406C138.201 38.0857 138.543 37.5423 138.961 37.1103C139.379 36.6784 139.845 36.3161 140.361 36.0235C140.876 35.7309 141.364 35.5149 141.824 35.3756C142.284 35.2362 142.723 35.1735 143.141 35.1874H143.203C143.83 35.1874 144.374 35.3407 144.834 35.6473C145.294 35.9538 145.523 36.4067 145.523 37.0058C145.523 38.2599 144.75 39.082 143.203 39.4721C142.521 39.6533 141.587 39.7508 140.403 39.7647C139.887 39.7647 139.622 39.7787 139.609 39.8065C139.609 39.8344 139.567 40.0782 139.483 40.5381C139.399 40.9979 139.351 41.402 139.337 41.7503C139.337 42.4052 139.483 42.9207 139.776 43.297C140.068 43.6732 140.507 43.8682 141.092 43.8822C141.678 43.8961 142.326 43.7637 143.036 43.4851C143.747 43.2064 144.388 42.7466 144.959 42.1056C145.085 41.9663 145.168 41.8966 145.21 41.8966C145.266 41.8966 145.356 41.9593 145.482 42.0847C145.607 42.2101 145.677 42.3077 145.691 42.3773C145.705 42.447 145.642 42.5585 145.503 42.7117C145.363 42.865 145.154 43.0531 144.876 43.2761C144.597 43.499 144.276 43.715 143.914 43.924C143.552 44.133 143.113 44.3072 142.597 44.4465C142.082 44.5858 141.552 44.6555 141.009 44.6555C139.908 44.6555 139.058 44.2863 138.459 43.5478C137.86 42.8093 137.553 41.9314 137.539 40.9143ZM144.52 37.0476C144.437 36.3231 143.963 35.9608 143.099 35.9608C142.639 35.9608 142.214 36.0583 141.824 36.2534C141.434 36.4485 141.12 36.6853 140.883 36.964C140.647 37.2427 140.445 37.5283 140.277 37.8209C140.11 38.1136 139.999 38.3644 139.943 38.5734C139.887 38.7824 139.852 38.9148 139.838 38.9705C139.838 38.9844 139.978 38.9914 140.256 38.9914C141.831 38.9914 142.932 38.8242 143.559 38.4898C144.186 38.1554 144.506 37.6746 144.52 37.0476Z" fill="white"/>
<path d="M147.028 36.3788C146.931 36.2813 146.882 36.2116 146.882 36.1698C146.882 36.114 146.903 36.0026 146.945 35.8354C146.986 35.6682 147.021 35.5706 147.049 35.5428C147.077 35.4731 147.14 35.4383 147.237 35.4383C147.335 35.4383 147.69 35.4313 148.303 35.4174H149.411L149.808 33.7453C149.85 33.592 149.899 33.39 149.954 33.1392C150.01 32.8884 150.059 32.7072 150.101 32.5957C150.143 32.4843 150.184 32.3449 150.226 32.1777C150.268 32.0105 150.324 31.8921 150.393 31.8224C150.463 31.7527 150.533 31.6691 150.602 31.5716C150.672 31.4741 150.77 31.4114 150.895 31.3835C151.02 31.3556 151.146 31.3417 151.271 31.3417C151.522 31.3556 151.696 31.4323 151.794 31.5716C151.891 31.7109 151.94 31.8433 151.94 31.9687C151.94 32.0663 151.877 32.3937 151.752 32.9511C151.626 33.5084 151.487 34.0588 151.334 34.6022L151.125 35.3756C151.125 35.4034 151.473 35.4174 152.17 35.4174H153.236C153.333 35.5149 153.382 35.5915 153.382 35.6473C153.382 35.9538 153.292 36.1977 153.11 36.3788H150.874L150.122 39.4094C149.578 41.6388 149.306 42.8371 149.306 43.0043C149.306 43.5896 149.495 43.8822 149.871 43.8822C150.358 43.8822 150.832 43.6453 151.292 43.1716C151.752 42.6978 152.121 42.1126 152.4 41.4159C152.428 41.3323 152.463 41.2835 152.504 41.2696C152.546 41.2556 152.651 41.2417 152.818 41.2278H152.901C153.11 41.2278 153.215 41.2835 153.215 41.395C153.215 41.4368 153.194 41.5204 153.152 41.6458C153.083 41.8687 152.957 42.1335 152.776 42.44C152.595 42.7466 152.358 43.074 152.065 43.4224C151.773 43.7707 151.417 44.0633 150.999 44.3002C150.581 44.5371 150.156 44.6555 149.724 44.6555C149.306 44.6555 148.909 44.551 148.533 44.342C148.157 44.133 147.885 43.7707 147.718 43.2552C147.69 43.1437 147.676 42.9556 147.676 42.6908V42.3146L148.408 39.3885C148.895 37.4238 149.146 36.4345 149.16 36.4206C149.16 36.3927 148.805 36.3788 148.094 36.3788H147.028Z" fill="white"/>
<path d="M155.995 39.2004C155.995 38.239 156.064 37.3263 156.204 36.4624C156.343 35.5985 156.503 34.853 156.684 34.226C156.866 33.599 157.123 32.9859 157.458 32.3867C157.792 31.7876 158.057 31.3208 158.252 30.9864C158.447 30.652 158.74 30.2897 159.13 29.8995C159.52 29.5094 159.75 29.2725 159.82 29.1889C159.889 29.1053 160.063 28.959 160.342 28.75H160.697C160.892 28.75 160.99 28.8127 160.99 28.9381C160.99 28.9799 160.872 29.1262 160.635 29.377C160.398 29.6278 160.112 29.9971 159.778 30.4848C159.443 30.9725 159.102 31.5716 158.754 32.2822C158.405 32.9929 158.113 33.9543 157.876 35.1665C157.639 36.3788 157.52 37.7234 157.52 39.2004C157.52 40.6774 157.639 42.015 157.876 43.2134C158.113 44.4117 158.398 45.3801 158.733 46.1186C159.067 46.8571 159.409 47.4562 159.757 47.916C160.105 48.3759 160.398 48.7451 160.635 49.0238C160.872 49.3025 160.99 49.4488 160.99 49.4627C160.99 49.5881 160.886 49.6508 160.677 49.6508H160.342L159.757 49.1492C158.447 47.9648 157.493 46.4878 156.893 44.7182C156.294 42.9486 155.995 41.1093 155.995 39.2004Z" fill="white"/>
<path d="M169.831 30.1504C169.845 30.1504 170.347 30.1155 171.336 30.0458C172.325 29.9762 172.834 29.9344 172.862 29.9204C173.029 29.9204 173.112 29.9762 173.112 30.0877C173.112 30.1852 172.604 32.2892 171.587 36.3997C170.57 40.5102 170.047 42.6072 170.019 42.6908C169.991 42.7744 169.984 42.8789 169.998 43.0043C169.998 43.5896 170.193 43.8822 170.583 43.8822C170.709 43.8682 170.848 43.8055 171.002 43.6941C171.294 43.4154 171.58 42.7466 171.858 41.6876C171.942 41.4089 172.012 41.2626 172.067 41.2487C172.095 41.2347 172.165 41.2278 172.276 41.2278H172.444C172.653 41.2278 172.757 41.2835 172.757 41.395C172.757 41.4647 172.736 41.5761 172.694 41.7294C172.513 42.4261 172.304 42.9904 172.067 43.4224C171.831 43.8543 171.636 44.133 171.482 44.2584C171.329 44.3838 171.134 44.4953 170.897 44.5928C170.786 44.6207 170.618 44.6346 170.395 44.6346C169.922 44.6346 169.525 44.5301 169.204 44.3211C168.884 44.1121 168.675 43.8961 168.577 43.6732L168.452 43.3597C168.438 43.3457 168.41 43.3527 168.368 43.3806C168.34 43.4084 168.312 43.4363 168.284 43.4642C167.462 44.2445 166.626 44.6346 165.776 44.6346C165.01 44.6346 164.334 44.3559 163.749 43.7986C163.164 43.2412 162.871 42.3564 162.871 41.1442C162.871 40.4753 163.01 39.7926 163.289 39.0959C163.568 38.3992 163.902 37.8 164.292 37.2984C164.947 36.5042 165.602 35.9538 166.257 35.6473C166.912 35.3407 167.504 35.1874 168.034 35.1874C168.814 35.1874 169.399 35.4801 169.789 36.0653C169.859 36.1489 169.894 36.1768 169.894 36.1489C169.908 36.0931 170.096 35.3338 170.458 33.8707C170.82 32.4076 171.015 31.6343 171.043 31.5507C171.043 31.3696 170.995 31.2581 170.897 31.2163C170.799 31.1745 170.528 31.1397 170.082 31.1118H169.643C169.559 31.0282 169.518 30.9725 169.518 30.9446C169.518 30.9167 169.531 30.7843 169.559 30.5475C169.629 30.2827 169.72 30.1504 169.831 30.1504ZM169.538 37.6119C169.218 36.5112 168.695 35.9608 167.971 35.9608C167.483 35.9608 167.016 36.1768 166.571 36.6087C166.125 37.0407 165.776 37.605 165.525 38.3017C165.121 39.4024 164.836 40.545 164.669 41.7294C164.669 41.7712 164.669 41.8478 164.669 41.9593C164.669 42.0708 164.662 42.1544 164.648 42.2101C164.648 42.8371 164.773 43.2691 165.024 43.506C165.275 43.7428 165.574 43.8682 165.923 43.8822C166.675 43.8822 167.448 43.3806 168.243 42.3773L168.41 42.1474L169.538 37.6119Z" fill="white"/>
<path d="M174.638 30.9028C174.638 30.7634 174.666 30.6032 174.722 30.4221C174.778 30.2409 174.861 30.1504 174.973 30.1504C174.987 30.1504 175.488 30.1155 176.478 30.0458C177.467 29.9762 177.975 29.9344 178.003 29.9204C178.17 29.9204 178.254 29.9831 178.254 30.1086C178.254 30.234 178.017 31.2302 177.543 33.0974C177.432 33.5711 177.314 34.0588 177.188 34.5604C177.063 35.062 176.958 35.4383 176.875 35.6891L176.791 36.0862C176.791 36.128 176.833 36.1071 176.916 36.0235C177.599 35.4661 178.303 35.1874 179.027 35.1874C179.891 35.1874 180.588 35.5079 181.117 36.1489C181.647 36.7898 181.919 37.598 181.933 38.5734C181.933 40.12 181.382 41.5204 180.281 42.7744C179.181 44.0285 177.996 44.6555 176.728 44.6555C176.032 44.6555 175.398 44.3908 174.826 43.8613C174.255 43.3318 173.962 42.4749 173.949 41.2905V41.1024C173.949 40.8098 174.004 40.4057 174.116 39.8901C174.227 39.3746 174.569 38.0021 175.14 35.7727C175.837 33.0277 176.185 31.5716 176.185 31.4044C176.185 31.2372 175.92 31.1397 175.391 31.1118C175.321 31.1118 175.265 31.1118 175.223 31.1118H175.119C174.98 31.1118 174.889 31.1118 174.847 31.1118C174.805 31.1118 174.757 31.0909 174.701 31.0491C174.645 31.0073 174.624 30.9585 174.638 30.9028ZM180.135 37.6328V37.5074C180.135 36.4763 179.71 35.9608 178.86 35.9608C178.623 35.9608 178.379 36.0165 178.129 36.128C177.878 36.2395 177.648 36.3858 177.439 36.5669C177.23 36.748 177.049 36.9152 176.896 37.0685C176.742 37.2218 176.617 37.3751 176.519 37.5283L176.394 37.6955L175.955 39.493C175.648 40.6913 175.495 41.5413 175.495 42.0429C175.495 42.7117 175.662 43.2134 175.997 43.5478C176.22 43.7707 176.498 43.8822 176.833 43.8822C177.293 43.8822 177.759 43.6592 178.233 43.2134C178.582 42.8929 178.86 42.5027 179.069 42.0429C179.278 41.5831 179.508 40.8516 179.759 39.8483C180.01 38.8451 180.135 38.1066 180.135 37.6328Z" fill="white"/>
<path d="M183.73 43.6941C183.73 43.6941 183.73 43.5199 183.73 43.1716C183.73 42.8232 183.842 42.5236 184.064 42.2728C184.287 42.022 184.587 41.8966 184.963 41.8966C185.353 41.8966 185.702 42.0708 186.008 42.4191C186.315 42.7675 186.475 43.3806 186.489 44.2584C186.489 44.7461 186.426 45.2198 186.301 45.6796C186.175 46.1395 186.029 46.5366 185.862 46.871C185.695 47.2054 185.514 47.4911 185.319 47.7279C185.123 47.9648 184.956 48.1529 184.817 48.2922C184.678 48.4316 184.587 48.4943 184.545 48.4804C184.489 48.4804 184.399 48.4177 184.274 48.2922C184.148 48.1668 184.085 48.0763 184.085 48.0205C184.085 47.9648 184.162 47.8533 184.315 47.6861C184.469 47.5189 184.643 47.3099 184.838 47.0591C185.033 46.8083 185.214 46.4599 185.381 46.0141C185.548 45.5682 185.66 45.0596 185.716 44.4883V44.2375L185.695 44.2584C185.667 44.2723 185.632 44.2863 185.59 44.3002C185.548 44.3141 185.507 44.335 185.465 44.3629C185.423 44.3908 185.36 44.4047 185.277 44.4047C185.193 44.4047 185.11 44.4117 185.026 44.4256C184.65 44.4256 184.343 44.3072 184.106 44.0703L183.73 43.6941Z" fill="white"/>
<path d="M199.05 30.1504C199.064 30.1504 199.566 30.1155 200.555 30.0458C201.545 29.9762 202.053 29.9344 202.081 29.9204C202.248 29.9204 202.332 29.9762 202.332 30.0877C202.332 30.1852 201.823 32.2892 200.806 36.3997C199.789 40.5102 199.266 42.6072 199.238 42.6908C199.211 42.7744 199.204 42.8789 199.218 43.0043C199.218 43.5896 199.413 43.8822 199.803 43.8822C199.928 43.8682 200.068 43.8055 200.221 43.6941C200.513 43.4154 200.799 42.7466 201.078 41.6876C201.161 41.4089 201.231 41.2626 201.287 41.2487C201.315 41.2347 201.384 41.2278 201.496 41.2278H201.663C201.872 41.2278 201.976 41.2835 201.976 41.395C201.976 41.4647 201.956 41.5761 201.914 41.7294C201.733 42.4261 201.524 42.9904 201.287 43.4224C201.05 43.8543 200.855 44.133 200.702 44.2584C200.548 44.3838 200.353 44.4953 200.116 44.5928C200.005 44.6207 199.838 44.6346 199.615 44.6346C199.141 44.6346 198.744 44.5301 198.423 44.3211C198.103 44.1121 197.894 43.8961 197.796 43.6732L197.671 43.3597C197.657 43.3457 197.629 43.3527 197.587 43.3806C197.559 43.4084 197.532 43.4363 197.504 43.4642C196.682 44.2445 195.846 44.6346 194.996 44.6346C194.229 44.6346 193.553 44.3559 192.968 43.7986C192.383 43.2412 192.09 42.3564 192.09 41.1442C192.09 40.4753 192.23 39.7926 192.508 39.0959C192.787 38.3992 193.122 37.8 193.512 37.2984C194.167 36.5042 194.821 35.9538 195.476 35.6473C196.131 35.3407 196.723 35.1874 197.253 35.1874C198.033 35.1874 198.618 35.4801 199.009 36.0653C199.078 36.1489 199.113 36.1768 199.113 36.1489C199.127 36.0931 199.315 35.3338 199.677 33.8707C200.04 32.4076 200.235 31.6343 200.263 31.5507C200.263 31.3696 200.214 31.2581 200.116 31.2163C200.019 31.1745 199.747 31.1397 199.301 31.1118H198.862C198.779 31.0282 198.737 30.9725 198.737 30.9446C198.737 30.9167 198.751 30.7843 198.779 30.5475C198.848 30.2827 198.939 30.1504 199.05 30.1504ZM198.758 37.6119C198.437 36.5112 197.915 35.9608 197.19 35.9608C196.703 35.9608 196.236 36.1768 195.79 36.6087C195.344 37.0407 194.996 37.605 194.745 38.3017C194.341 39.4024 194.055 40.545 193.888 41.7294C193.888 41.7712 193.888 41.8478 193.888 41.9593C193.888 42.0708 193.881 42.1544 193.867 42.2101C193.867 42.8371 193.992 43.2691 194.243 43.506C194.494 43.7428 194.794 43.8682 195.142 43.8822C195.894 43.8822 196.668 43.3806 197.462 42.3773L197.629 42.1474L198.758 37.6119Z" fill="white"/>
<path d="M203.042 41.1024C203.042 39.5836 203.642 38.2181 204.84 37.0058C206.038 35.7936 207.334 35.1874 208.727 35.1874C209.508 35.1874 210.121 35.3547 210.567 35.6891C211.013 36.0235 211.243 36.4624 211.256 37.0058C211.256 37.4099 211.124 37.7513 210.859 38.03C210.595 38.3086 210.26 38.4549 209.856 38.4689C209.591 38.4689 209.382 38.3992 209.229 38.2599C209.076 38.1205 208.999 37.9115 208.999 37.6328C208.999 37.3542 209.076 37.1173 209.229 36.9222C209.382 36.7271 209.536 36.5808 209.689 36.4833C209.842 36.3858 209.94 36.344 209.982 36.3579H210.002C210.002 36.33 209.961 36.2882 209.877 36.2325C209.793 36.1768 209.647 36.121 209.438 36.0653C209.229 36.0095 208.992 35.9817 208.727 35.9817C208.309 35.9817 207.912 36.0792 207.536 36.2743C207.243 36.3997 206.944 36.6157 206.637 36.9222C206.024 37.5353 205.578 38.3992 205.3 39.5139C205.021 40.6286 204.875 41.4368 204.861 41.9384C204.861 42.5794 205.042 43.0601 205.404 43.3806C205.711 43.715 206.115 43.8822 206.616 43.8822H206.7C208.261 43.8822 209.55 43.29 210.567 42.1056C210.692 41.9663 210.776 41.8966 210.818 41.8966C210.873 41.8966 210.964 41.9593 211.089 42.0847C211.215 42.2101 211.284 42.3077 211.298 42.3773C211.312 42.447 211.249 42.5515 211.11 42.6908C210.971 42.8302 210.769 43.0252 210.504 43.2761C210.239 43.5269 209.926 43.7359 209.563 43.9031C209.201 44.0703 208.755 44.2445 208.226 44.4256C207.696 44.6067 207.139 44.6834 206.554 44.6555C205.509 44.6555 204.666 44.3211 204.025 43.6523C203.384 42.9834 203.056 42.1335 203.042 41.1024Z" fill="white"/>
<path d="M211.842 38.4271C211.842 38.3156 211.904 38.0996 212.03 37.7791C212.155 37.4587 212.329 37.0964 212.552 36.6923C212.775 36.2882 213.082 35.9399 213.472 35.6473C213.862 35.3547 214.273 35.2014 214.705 35.1874C215.346 35.1874 215.827 35.3616 216.147 35.71C216.468 36.0583 216.628 36.4694 216.628 36.9431C216.628 37.1939 216.391 37.9742 215.917 39.284C215.444 40.5938 215.207 41.5761 215.207 42.231C215.207 42.8302 215.304 43.2482 215.499 43.4851C215.694 43.7219 215.987 43.8473 216.377 43.8613C216.767 43.8752 217.137 43.7568 217.485 43.506C217.833 43.2552 218.091 43.0183 218.258 42.7953L218.488 42.44C218.516 42.3843 218.781 41.3253 219.282 39.2631C219.7 37.591 219.951 36.6157 220.035 36.337C220.118 36.0583 220.216 35.8563 220.327 35.7309C220.564 35.5219 220.815 35.4174 221.08 35.4174C221.317 35.4174 221.491 35.487 221.602 35.6264C221.714 35.7657 221.77 35.8981 221.77 36.0235L220.181 42.6699C220.167 42.7396 220.16 42.8511 220.16 43.0043C220.16 43.3527 220.209 43.5826 220.307 43.6941C220.404 43.8055 220.55 43.8682 220.745 43.8822C221.052 43.8404 221.296 43.6244 221.477 43.2343C221.658 42.8441 221.867 42.231 222.104 41.395C222.132 41.2835 222.271 41.2278 222.522 41.2278C222.787 41.2278 222.919 41.2905 222.919 41.4159C222.905 41.4856 222.891 41.5831 222.877 41.7085C222.863 41.8339 222.801 42.0568 222.689 42.3773C222.578 42.6978 222.459 42.9974 222.334 43.2761C222.208 43.5547 222.034 43.8195 221.811 44.0703C221.588 44.3211 221.338 44.4953 221.059 44.5928C220.947 44.6207 220.78 44.6346 220.557 44.6346C219.638 44.6346 219.004 44.2445 218.655 43.4642C218.627 43.4781 218.551 43.5478 218.425 43.6732C218.3 43.7986 218.175 43.9031 218.049 43.9867C217.924 44.0703 217.771 44.1748 217.589 44.3002C217.408 44.4256 217.206 44.5092 216.983 44.551C216.76 44.5928 216.523 44.6276 216.273 44.6555C215.66 44.6555 215.116 44.5301 214.642 44.2793C213.918 43.8473 213.556 43.1088 213.556 42.0638C213.556 41.2696 213.799 40.2315 214.287 38.9496C214.775 37.6677 215.019 36.8525 215.019 36.5042C215.019 36.4903 215.019 36.4763 215.019 36.4624C215.019 36.337 215.019 36.2534 215.019 36.2116C215.019 36.1698 214.991 36.121 214.935 36.0653C214.879 36.0095 214.803 35.9817 214.705 35.9817H214.621C214.301 35.9817 214.008 36.114 213.744 36.3788C213.479 36.6435 213.27 36.9292 213.117 37.2357C212.963 37.5423 212.845 37.8349 212.761 38.1136C212.678 38.3922 212.622 38.5455 212.594 38.5734C212.566 38.6012 212.455 38.6152 212.26 38.6152H211.967C211.883 38.5316 211.842 38.4689 211.842 38.4271Z" fill="white"/>
<path d="M223.797 38.4271C223.811 38.3853 223.825 38.3295 223.839 38.2599C223.853 38.1902 223.888 38.0369 223.943 37.8C223.999 37.5632 224.069 37.3472 224.152 37.1521C224.236 36.957 224.34 36.7271 224.466 36.4624C224.591 36.1977 224.731 35.9886 224.884 35.8354C225.037 35.6821 225.218 35.5288 225.427 35.3756C225.636 35.2223 225.866 35.1596 226.117 35.1874C226.521 35.1874 226.876 35.2711 227.183 35.4383C227.489 35.6055 227.705 35.7587 227.831 35.8981C227.956 36.0374 228.033 36.1768 228.061 36.3161C228.089 36.3997 228.109 36.4415 228.123 36.4415C228.137 36.4415 228.193 36.3927 228.291 36.2952C228.959 35.5706 229.733 35.2083 230.611 35.2083H230.673C231.342 35.2083 231.844 35.494 232.178 36.0653C232.29 36.33 232.345 36.5878 232.345 36.8386C232.345 37.2566 232.255 37.591 232.074 37.8418C231.893 38.0927 231.711 38.2529 231.53 38.3226C231.349 38.3922 231.175 38.4201 231.008 38.4062C230.729 38.4062 230.506 38.3295 230.339 38.1763C230.172 38.023 230.088 37.8209 230.088 37.5701C230.088 36.9013 230.478 36.4554 231.259 36.2325C230.952 36.0513 230.701 35.9608 230.506 35.9608C229.726 35.9608 229.008 36.4763 228.353 37.5074C228.214 37.7304 228.109 37.9603 228.04 38.1972C227.97 38.434 227.733 39.3606 227.329 40.977C226.855 42.9277 226.584 43.9658 226.514 44.0912C226.333 44.4674 226.033 44.6555 225.615 44.6555C225.434 44.6555 225.288 44.6137 225.176 44.5301C225.065 44.4465 224.988 44.3629 224.946 44.2793C224.905 44.1957 224.891 44.126 224.905 44.0703C224.905 43.8891 225.183 42.6908 225.741 40.4753C226.298 38.2599 226.577 37.0267 226.577 36.7759C226.577 36.2325 226.396 35.9608 226.033 35.9608C225.741 35.9608 225.49 36.1559 225.281 36.546C225.072 36.9361 224.905 37.3611 224.779 37.8209C224.654 38.2808 224.577 38.5316 224.549 38.5734C224.521 38.6012 224.41 38.6152 224.215 38.6152H223.922C223.839 38.5316 223.797 38.4689 223.797 38.4271Z" fill="white"/>
<path d="M233.244 38.4271C233.258 38.3853 233.272 38.3295 233.286 38.2599C233.3 38.1902 233.335 38.0369 233.39 37.8C233.446 37.5632 233.516 37.3472 233.599 37.1521C233.683 36.957 233.788 36.7271 233.913 36.4624C234.038 36.1977 234.178 35.9886 234.331 35.8354C234.484 35.6821 234.665 35.5288 234.874 35.3756C235.083 35.2223 235.313 35.1596 235.564 35.1874C235.968 35.1874 236.323 35.2711 236.63 35.4383C236.937 35.6055 237.153 35.7587 237.278 35.8981C237.403 36.0374 237.48 36.1768 237.508 36.3161C237.536 36.3997 237.557 36.4415 237.571 36.4415C237.584 36.4415 237.64 36.3927 237.738 36.2952C238.407 35.5706 239.18 35.2083 240.058 35.2083H240.12C240.789 35.2083 241.291 35.494 241.625 36.0653C241.737 36.33 241.793 36.5878 241.793 36.8386C241.793 37.2566 241.702 37.591 241.521 37.8418C241.34 38.0927 241.159 38.2529 240.977 38.3226C240.796 38.3922 240.622 38.4201 240.455 38.4062C240.176 38.4062 239.953 38.3295 239.786 38.1763C239.619 38.023 239.535 37.8209 239.535 37.5701C239.535 36.9013 239.925 36.4554 240.706 36.2325C240.399 36.0513 240.148 35.9608 239.953 35.9608C239.173 35.9608 238.455 36.4763 237.8 37.5074C237.661 37.7304 237.557 37.9603 237.487 38.1972C237.417 38.434 237.18 39.3606 236.776 40.977C236.303 42.9277 236.031 43.9658 235.961 44.0912C235.78 44.4674 235.48 44.6555 235.062 44.6555C234.881 44.6555 234.735 44.6137 234.624 44.5301C234.512 44.4465 234.435 44.3629 234.394 44.2793C234.352 44.1957 234.338 44.126 234.352 44.0703C234.352 43.8891 234.631 42.6908 235.188 40.4753C235.745 38.2599 236.024 37.0267 236.024 36.7759C236.024 36.2325 235.843 35.9608 235.48 35.9608C235.188 35.9608 234.937 36.1559 234.728 36.546C234.519 36.9361 234.352 37.3611 234.226 37.8209C234.101 38.2808 234.024 38.5316 233.997 38.5734C233.969 38.6012 233.857 38.6152 233.662 38.6152H233.37C233.286 38.5316 233.244 38.4689 233.244 38.4271Z" fill="white"/>
<path d="M243.485 28.7709L243.569 28.75C243.639 28.75 243.708 28.75 243.778 28.75H244.029L244.614 29.2516C245.924 30.436 246.878 31.913 247.478 33.6826C248.077 35.4522 248.376 37.2915 248.376 39.2004C248.376 40.1479 248.307 41.0606 248.167 41.9384C248.028 42.8162 247.868 43.5617 247.687 44.1748C247.505 44.7879 247.248 45.401 246.913 46.0141C246.579 46.6272 246.314 47.0939 246.119 47.4144C245.924 47.7349 245.638 48.0902 245.262 48.4804C244.886 48.8705 244.663 49.1004 244.593 49.1701C244.524 49.2398 244.363 49.3721 244.113 49.5672C244.071 49.609 244.043 49.6369 244.029 49.6508H243.778C243.667 49.6508 243.59 49.6508 243.548 49.6508C243.506 49.6508 243.472 49.6299 243.444 49.5881C243.416 49.5463 243.395 49.4836 243.381 49.4C243.395 49.3861 243.472 49.2955 243.611 49.1283C245.771 46.8849 246.851 43.5756 246.851 39.2004C246.851 34.8252 245.771 31.5159 243.611 29.2725C243.472 29.1053 243.395 29.0147 243.381 29.0008C243.381 28.8893 243.416 28.8127 243.485 28.7709Z" fill="white"/>
<path d="M257.949 33.5572C257.949 33.4457 257.977 33.3551 258.032 33.2855C258.088 33.2158 258.144 33.174 258.2 33.1601L258.262 33.1392C258.36 33.1392 259.433 33.6199 261.481 34.5813C263.529 35.5428 265.557 36.4972 267.563 37.4447L270.552 38.8869C270.65 38.9566 270.698 39.0611 270.698 39.2004C270.698 39.3397 270.65 39.4442 270.552 39.5139C270.524 39.5418 268.49 40.5102 264.449 42.4191L258.43 45.2616H258.304C258.053 45.2338 257.928 45.0944 257.928 44.8436C257.928 44.8297 257.928 44.8088 257.928 44.7809C257.914 44.6834 258.019 44.5719 258.241 44.4465C258.506 44.3072 259.551 43.8055 261.377 42.9416C262.463 42.4261 263.369 42.0011 264.094 41.6667L269.277 39.2004L264.094 36.7341C260.081 34.8391 258.046 33.8568 257.991 33.7871C257.963 33.7314 257.949 33.6547 257.949 33.5572Z" fill="white"/>
<path d="M280.271 32.1986C281.051 31.07 282.117 30.5057 283.469 30.5057C284.138 30.5057 284.806 30.6868 285.475 31.0491C286.144 31.4114 286.687 32.0523 287.105 32.972C287.621 34.1285 287.879 35.7169 287.879 37.7373C287.879 39.8971 287.579 41.5483 286.98 42.6908C286.701 43.2761 286.318 43.7428 285.831 44.0912C285.343 44.4395 284.918 44.6555 284.556 44.7391C284.193 44.8227 283.838 44.8715 283.49 44.8854C283.127 44.8854 282.765 44.8436 282.403 44.76C282.04 44.6764 281.616 44.4535 281.128 44.0912C280.64 43.7289 280.257 43.2621 279.978 42.6908C279.379 41.5483 279.08 39.8971 279.08 37.7373C279.08 35.3129 279.477 33.4666 280.271 32.1986ZM284.974 31.9478C284.556 31.5019 284.061 31.279 283.49 31.279C282.904 31.279 282.403 31.5019 281.985 31.9478C281.636 32.3101 281.406 32.8117 281.295 33.4527C281.184 34.0936 281.128 35.4313 281.128 37.4656C281.128 39.6672 281.184 41.1163 281.295 41.813C281.406 42.5097 281.657 43.0601 282.047 43.4642C282.438 43.8822 282.918 44.0912 283.49 44.0912C284.047 44.0912 284.521 43.8822 284.911 43.4642C285.315 43.0461 285.566 42.4609 285.663 41.7085C285.761 40.9561 285.817 39.5418 285.831 37.4656C285.831 35.4452 285.775 34.1145 285.663 33.4736C285.552 32.8326 285.322 32.324 284.974 31.9478Z" fill="white"/>
<path d="M291.959 125.98C291.973 125.98 292.475 125.945 293.464 125.875C294.453 125.806 294.962 125.764 294.99 125.75C295.157 125.75 295.241 125.806 295.241 125.917C295.241 126.015 294.732 128.119 293.715 132.229C292.698 136.339 292.175 138.436 292.148 138.519C292.12 138.603 292.113 138.708 292.127 138.833C292.127 139.418 292.322 139.711 292.712 139.711C292.837 139.697 292.977 139.634 293.13 139.523C293.422 139.244 293.708 138.575 293.987 137.516C294.07 137.238 294.14 137.091 294.196 137.077C294.224 137.063 294.293 137.057 294.405 137.057H294.572C294.781 137.057 294.885 137.112 294.885 137.224C294.885 137.293 294.864 137.405 294.823 137.558C294.642 138.255 294.433 138.819 294.196 139.251C293.959 139.683 293.764 139.962 293.61 140.087C293.457 140.212 293.262 140.324 293.025 140.421C292.914 140.449 292.747 140.463 292.524 140.463C292.05 140.463 291.653 140.359 291.332 140.15C291.012 139.941 290.803 139.725 290.705 139.502L290.58 139.188C290.566 139.174 290.538 139.181 290.497 139.209C290.469 139.237 290.441 139.265 290.413 139.293C289.591 140.073 288.755 140.463 287.905 140.463C287.139 140.463 286.463 140.184 285.878 139.627C285.293 139.07 285 138.185 285 136.973C285 136.304 285.139 135.621 285.418 134.925C285.697 134.228 286.031 133.629 286.421 133.127C287.076 132.333 287.731 131.783 288.386 131.476C289.041 131.17 289.633 131.017 290.162 131.017C290.942 131.017 291.528 131.309 291.918 131.894C291.987 131.978 292.022 132.006 292.022 131.978C292.036 131.922 292.224 131.163 292.586 129.7C292.949 128.237 293.144 127.464 293.172 127.38C293.172 127.199 293.123 127.088 293.025 127.046C292.928 127.004 292.656 126.969 292.21 126.941H291.771C291.688 126.858 291.646 126.802 291.646 126.774C291.646 126.746 291.66 126.614 291.688 126.377C291.757 126.112 291.848 125.98 291.959 125.98ZM291.667 133.441C291.346 132.34 290.824 131.79 290.099 131.79C289.612 131.79 289.145 132.006 288.699 132.438C288.253 132.87 287.905 133.434 287.654 134.131C287.25 135.231 286.965 136.374 286.797 137.558C286.797 137.6 286.797 137.677 286.797 137.788C286.797 137.899 286.79 137.983 286.776 138.039C286.776 138.666 286.902 139.098 287.153 139.335C287.403 139.571 287.703 139.697 288.051 139.711C288.804 139.711 289.577 139.209 290.371 138.206L290.538 137.976L291.667 133.441Z" fill="white"/>
<path d="M296.766 126.732C296.766 126.593 296.794 126.433 296.85 126.252C296.906 126.07 296.989 125.98 297.101 125.98C297.115 125.98 297.616 125.945 298.605 125.875C299.595 125.806 300.103 125.764 300.131 125.75C300.298 125.75 300.382 125.813 300.382 125.938C300.382 126.063 300.145 127.06 299.671 128.927C299.56 129.4 299.441 129.888 299.316 130.39C299.191 130.891 299.086 131.267 299.003 131.518L298.919 131.915C298.919 131.957 298.961 131.936 299.044 131.853C299.727 131.295 300.431 131.017 301.155 131.017C302.019 131.017 302.716 131.337 303.245 131.978C303.775 132.619 304.046 133.427 304.06 134.402C304.06 135.949 303.51 137.349 302.409 138.603C301.308 139.857 300.124 140.484 298.856 140.484C298.16 140.484 297.526 140.219 296.954 139.69C296.383 139.16 296.091 138.303 296.077 137.119V136.931C296.077 136.639 296.132 136.234 296.244 135.719C296.355 135.203 296.697 133.831 297.268 131.602C297.965 128.857 298.313 127.401 298.313 127.234C298.313 127.067 298.048 126.969 297.519 126.941C297.449 126.941 297.393 126.941 297.351 126.941H297.247C297.108 126.941 297.017 126.941 296.975 126.941C296.933 126.941 296.885 126.92 296.829 126.879C296.773 126.837 296.752 126.788 296.766 126.732ZM302.263 133.462V133.336C302.263 132.305 301.838 131.79 300.988 131.79C300.751 131.79 300.507 131.846 300.256 131.957C300.006 132.069 299.776 132.215 299.567 132.396C299.358 132.577 299.177 132.744 299.023 132.898C298.87 133.051 298.745 133.204 298.647 133.357L298.522 133.525L298.083 135.322C297.776 136.52 297.623 137.37 297.623 137.872C297.623 138.54 297.79 139.042 298.125 139.376C298.348 139.599 298.626 139.711 298.961 139.711C299.42 139.711 299.887 139.488 300.361 139.042C300.709 138.721 300.988 138.331 301.197 137.872C301.406 137.412 301.636 136.68 301.887 135.677C302.137 134.674 302.263 133.936 302.263 133.462Z" fill="white"/>
<path d="M359.961 97.9799C359.975 97.9799 360.476 97.9451 361.466 97.8754C362.455 97.8057 362.964 97.7639 362.992 97.75C363.159 97.75 363.243 97.8057 363.243 97.9172C363.243 98.0148 362.734 100.119 361.717 104.23C360.699 108.341 360.177 110.438 360.149 110.522C360.121 110.606 360.114 110.71 360.128 110.836C360.128 111.421 360.323 111.714 360.713 111.714C360.839 111.7 360.978 111.637 361.131 111.525C361.424 111.247 361.71 110.578 361.988 109.519C362.072 109.24 362.142 109.094 362.198 109.08C362.225 109.066 362.295 109.059 362.407 109.059H362.574C362.783 109.059 362.887 109.115 362.887 109.226C362.887 109.296 362.866 109.407 362.825 109.56C362.643 110.257 362.434 110.822 362.198 111.254C361.961 111.686 361.766 111.964 361.612 112.09C361.459 112.215 361.264 112.327 361.027 112.424C360.915 112.452 360.748 112.466 360.525 112.466C360.051 112.466 359.654 112.362 359.334 112.152C359.013 111.943 358.804 111.727 358.707 111.504L358.581 111.191C358.567 111.177 358.539 111.184 358.498 111.212C358.47 111.24 358.442 111.268 358.414 111.295C357.592 112.076 356.756 112.466 355.906 112.466C355.139 112.466 354.463 112.187 353.878 111.63C353.293 111.072 353 110.188 353 108.975C353 108.306 353.139 107.623 353.418 106.927C353.697 106.23 354.031 105.631 354.421 105.129C355.076 104.335 355.731 103.784 356.386 103.478C357.041 103.171 357.634 103.018 358.163 103.018C358.944 103.018 359.529 103.31 359.919 103.896C359.989 103.979 360.024 104.007 360.024 103.979C360.038 103.923 360.226 103.164 360.588 101.701C360.95 100.238 361.145 99.4641 361.173 99.3805C361.173 99.1993 361.124 99.0878 361.027 99.046C360.929 99.0042 360.658 98.9694 360.212 98.9415H359.773C359.689 98.8579 359.647 98.8021 359.647 98.7743C359.647 98.7464 359.661 98.614 359.689 98.3771C359.759 98.1123 359.849 97.9799 359.961 97.9799ZM359.668 105.442C359.348 104.342 358.825 103.791 358.1 103.791C357.613 103.791 357.146 104.007 356.7 104.439C356.254 104.871 355.906 105.436 355.655 106.132C355.251 107.233 354.965 108.376 354.798 109.56C354.798 109.602 354.798 109.679 354.798 109.79C354.798 109.902 354.791 109.986 354.777 110.041C354.777 110.668 354.902 111.1 355.153 111.337C355.404 111.574 355.704 111.7 356.052 111.714C356.804 111.714 357.578 111.212 358.372 110.208L358.539 109.979L359.668 105.442Z" fill="white"/>
<path d="M363.953 108.933C363.953 107.414 364.553 106.049 365.751 104.836C366.95 103.624 368.246 103.018 369.639 103.018C370.42 103.018 371.033 103.185 371.479 103.519C371.925 103.854 372.155 104.293 372.168 104.836C372.168 105.24 372.036 105.582 371.771 105.861C371.507 106.139 371.172 106.286 370.768 106.3C370.503 106.3 370.294 106.23 370.141 106.09C369.988 105.951 369.911 105.742 369.911 105.463C369.911 105.185 369.988 104.948 370.141 104.753C370.294 104.558 370.447 104.411 370.601 104.314C370.754 104.216 370.852 104.174 370.893 104.188H370.914C370.914 104.16 370.872 104.119 370.789 104.063C370.705 104.007 370.559 103.951 370.35 103.896C370.141 103.84 369.904 103.812 369.639 103.812C369.221 103.812 368.824 103.91 368.448 104.105C368.155 104.23 367.855 104.446 367.549 104.753C366.936 105.366 366.49 106.23 366.211 107.345C365.932 108.46 365.786 109.268 365.772 109.77C365.772 110.411 365.953 110.891 366.316 111.212C366.622 111.546 367.026 111.714 367.528 111.714H367.612C369.172 111.714 370.461 111.121 371.479 109.937C371.604 109.797 371.688 109.728 371.73 109.728C371.785 109.728 371.876 109.79 372.001 109.916C372.127 110.041 372.196 110.139 372.21 110.208C372.224 110.278 372.162 110.383 372.022 110.522C371.883 110.661 371.681 110.856 371.416 111.107C371.151 111.358 370.838 111.567 370.475 111.734C370.113 111.902 369.667 112.076 369.137 112.257C368.608 112.438 368.051 112.515 367.465 112.487C366.42 112.487 365.577 112.152 364.936 111.484C364.295 110.815 363.967 109.965 363.953 108.933Z" fill="white"/>
<path d="M372.754 106.258C372.754 106.146 372.817 105.93 372.942 105.61C373.067 105.289 373.242 104.927 373.465 104.523C373.687 104.119 373.994 103.77 374.384 103.478C374.774 103.185 375.186 103.032 375.618 103.018C376.259 103.018 376.739 103.192 377.06 103.54C377.38 103.889 377.541 104.3 377.541 104.774C377.541 105.024 377.304 105.805 376.83 107.115C376.356 108.425 376.119 109.407 376.119 110.062C376.119 110.661 376.217 111.079 376.412 111.316C376.607 111.553 376.9 111.679 377.29 111.693C377.68 111.707 378.049 111.588 378.398 111.337C378.746 111.086 379.004 110.85 379.171 110.627L379.401 110.271C379.429 110.215 379.694 109.156 380.195 107.094C380.613 105.422 380.864 104.446 380.948 104.167C381.032 103.889 381.129 103.687 381.241 103.561C381.478 103.352 381.728 103.248 381.993 103.248C382.23 103.248 382.404 103.317 382.516 103.457C382.627 103.596 382.683 103.728 382.683 103.854L381.094 110.501C381.08 110.571 381.073 110.682 381.073 110.836C381.073 111.184 381.122 111.414 381.22 111.525C381.317 111.637 381.464 111.7 381.659 111.714C381.965 111.672 382.209 111.456 382.39 111.066C382.571 110.675 382.78 110.062 383.017 109.226C383.045 109.115 383.185 109.059 383.435 109.059C383.7 109.059 383.833 109.121 383.833 109.247C383.819 109.317 383.805 109.414 383.791 109.54C383.777 109.665 383.714 109.888 383.603 110.208C383.491 110.529 383.373 110.829 383.247 111.107C383.122 111.386 382.948 111.651 382.725 111.902C382.502 112.152 382.251 112.327 381.972 112.424C381.861 112.452 381.694 112.466 381.471 112.466C380.551 112.466 379.917 112.076 379.568 111.295C379.54 111.309 379.464 111.379 379.338 111.504C379.213 111.63 379.088 111.734 378.962 111.818C378.837 111.902 378.683 112.006 378.502 112.132C378.321 112.257 378.119 112.341 377.896 112.382C377.673 112.424 377.436 112.459 377.185 112.487C376.572 112.487 376.029 112.362 375.555 112.111C374.83 111.679 374.468 110.94 374.468 109.895C374.468 109.101 374.712 108.062 375.199 106.78C375.687 105.498 375.931 104.683 375.931 104.335C375.931 104.321 375.931 104.307 375.931 104.293C375.931 104.167 375.931 104.084 375.931 104.042C375.931 104 375.903 103.951 375.848 103.896C375.792 103.84 375.715 103.812 375.618 103.812H375.534C375.213 103.812 374.921 103.944 374.656 104.209C374.391 104.474 374.182 104.76 374.029 105.066C373.876 105.373 373.757 105.665 373.674 105.944C373.59 106.223 373.534 106.376 373.506 106.404C373.478 106.432 373.367 106.446 373.172 106.446H372.879C372.796 106.362 372.754 106.3 372.754 106.258Z" fill="white"/>
<path d="M384.711 106.258C384.725 106.216 384.738 106.16 384.752 106.09C384.766 106.021 384.801 105.868 384.857 105.631C384.913 105.394 384.982 105.178 385.066 104.983C385.15 104.788 385.254 104.558 385.379 104.293C385.505 104.028 385.644 103.819 385.798 103.666C385.951 103.512 386.132 103.359 386.341 103.206C386.55 103.053 386.78 102.99 387.031 103.018C387.435 103.018 387.79 103.101 388.097 103.269C388.404 103.436 388.62 103.589 388.745 103.728C388.87 103.868 388.947 104.007 388.975 104.146C389.003 104.23 389.024 104.272 389.038 104.272C389.052 104.272 389.107 104.223 389.205 104.126C389.874 103.401 390.647 103.039 391.525 103.039H391.588C392.257 103.039 392.758 103.324 393.093 103.896C393.204 104.16 393.26 104.418 393.26 104.669C393.26 105.087 393.17 105.422 392.988 105.672C392.807 105.923 392.626 106.084 392.445 106.153C392.264 106.223 392.09 106.251 391.922 106.237C391.644 106.237 391.421 106.16 391.253 106.007C391.086 105.854 391.003 105.652 391.003 105.401C391.003 104.732 391.393 104.286 392.173 104.063C391.867 103.882 391.616 103.791 391.421 103.791C390.64 103.791 389.923 104.307 389.268 105.338C389.128 105.561 389.024 105.791 388.954 106.028C388.884 106.265 388.647 107.191 388.243 108.808C387.769 110.759 387.498 111.797 387.428 111.923C387.247 112.299 386.947 112.487 386.529 112.487C386.348 112.487 386.202 112.445 386.09 112.362C385.979 112.278 385.902 112.194 385.86 112.111C385.818 112.027 385.805 111.957 385.818 111.902C385.818 111.72 386.097 110.522 386.655 108.306C387.212 106.09 387.491 104.857 387.491 104.606C387.491 104.063 387.31 103.791 386.947 103.791C386.655 103.791 386.404 103.986 386.195 104.376C385.986 104.767 385.818 105.192 385.693 105.652C385.568 106.111 385.491 106.362 385.463 106.404C385.435 106.432 385.324 106.446 385.129 106.446H384.836C384.752 106.362 384.711 106.3 384.711 106.258Z" fill="white"/>
<path d="M394.159 106.258C394.173 106.216 394.187 106.16 394.201 106.09C394.215 106.021 394.25 105.868 394.305 105.631C394.361 105.394 394.431 105.178 394.514 104.983C394.598 104.788 394.702 104.558 394.828 104.293C394.953 104.028 395.093 103.819 395.246 103.666C395.399 103.512 395.58 103.359 395.789 103.206C395.998 103.053 396.228 102.99 396.479 103.018C396.883 103.018 397.239 103.101 397.545 103.269C397.852 103.436 398.068 103.589 398.193 103.728C398.319 103.868 398.395 104.007 398.423 104.146C398.451 104.23 398.472 104.272 398.486 104.272C398.5 104.272 398.556 104.223 398.653 104.126C399.322 103.401 400.096 103.039 400.973 103.039H401.036C401.705 103.039 402.207 103.324 402.541 103.896C402.653 104.16 402.708 104.418 402.708 104.669C402.708 105.087 402.618 105.422 402.437 105.672C402.256 105.923 402.074 106.084 401.893 106.153C401.712 106.223 401.538 106.251 401.371 106.237C401.092 106.237 400.869 106.16 400.702 106.007C400.535 105.854 400.451 105.652 400.451 105.401C400.451 104.732 400.841 104.286 401.621 104.063C401.315 103.882 401.064 103.791 400.869 103.791C400.089 103.791 399.371 104.307 398.716 105.338C398.577 105.561 398.472 105.791 398.402 106.028C398.333 106.265 398.096 107.191 397.692 108.808C397.218 110.759 396.946 111.797 396.876 111.923C396.695 112.299 396.396 112.487 395.978 112.487C395.796 112.487 395.65 112.445 395.539 112.362C395.427 112.278 395.35 112.194 395.309 112.111C395.267 112.027 395.253 111.957 395.267 111.902C395.267 111.72 395.546 110.522 396.103 108.306C396.66 106.09 396.939 104.857 396.939 104.606C396.939 104.063 396.758 103.791 396.396 103.791C396.103 103.791 395.852 103.986 395.643 104.376C395.434 104.767 395.267 105.192 395.141 105.652C395.016 106.111 394.939 106.362 394.911 106.404C394.884 106.432 394.772 106.446 394.577 106.446H394.284C394.201 106.362 394.159 106.3 394.159 106.258Z" fill="white"/>
<path d="M306 190.925C306 190.925 306 190.835 306 190.654C306 190.473 306.098 190.333 306.293 190.236H318.436C318.645 190.347 318.749 190.487 318.749 190.654C318.749 190.821 318.645 190.96 318.436 191.072H306.293C306.098 190.974 306 190.835 306 190.654V190.925Z" fill="white"/>
<path d="M322.512 183.652C323.292 182.523 324.358 181.959 325.709 181.959C326.378 181.959 327.047 182.14 327.716 182.502C328.385 182.865 328.928 183.506 329.346 184.425C329.862 185.582 330.12 187.17 330.12 189.191C330.12 191.35 329.82 193.002 329.221 194.144C328.942 194.729 328.559 195.196 328.071 195.545C327.584 195.893 327.159 196.109 326.796 196.192C326.434 196.276 326.079 196.325 325.73 196.339C325.368 196.339 325.006 196.297 324.644 196.213C324.281 196.13 323.856 195.907 323.369 195.545C322.881 195.182 322.498 194.715 322.219 194.144C321.62 193.002 321.32 191.35 321.32 189.191C321.32 186.766 321.717 184.92 322.512 183.652ZM327.214 183.401C326.796 182.955 326.302 182.732 325.73 182.732C325.145 182.732 324.644 182.955 324.226 183.401C323.877 183.763 323.647 184.265 323.536 184.906C323.424 185.547 323.369 186.885 323.369 188.919C323.369 191.121 323.424 192.57 323.536 193.266C323.647 193.963 323.898 194.513 324.288 194.918C324.678 195.336 325.159 195.545 325.73 195.545C326.288 195.545 326.761 195.336 327.152 194.918C327.556 194.499 327.807 193.914 327.904 193.162C328.002 192.409 328.057 190.995 328.071 188.919C328.071 186.899 328.016 185.568 327.904 184.927C327.793 184.286 327.563 183.777 327.214 183.401Z" fill="white"/>
<path d="M332.586 194.625C332.586 194.29 332.704 193.998 332.941 193.747C333.178 193.496 333.478 193.371 333.84 193.371C334.174 193.371 334.467 193.482 334.718 193.705C334.969 193.928 335.101 194.228 335.115 194.604C335.115 194.952 334.996 195.252 334.76 195.503C334.523 195.754 334.223 195.879 333.861 195.879C333.498 195.879 333.199 195.761 332.962 195.524C332.725 195.287 332.6 194.987 332.586 194.625Z" fill="white"/>
<path d="M337.936 186.306C337.95 186.279 338.069 185.519 338.292 184.028L338.626 181.792C338.626 181.764 338.765 181.75 339.044 181.75H339.462V181.834C339.462 181.973 339.567 182.091 339.776 182.189C339.985 182.286 340.347 182.349 340.863 182.377C341.378 182.405 342.556 182.419 344.395 182.419H346.924V183.234L345.503 185.178C345.377 185.345 345.168 185.624 344.876 186.014C344.583 186.404 344.395 186.662 344.311 186.787C344.228 186.912 344.081 187.135 343.872 187.456C343.663 187.776 343.524 188.027 343.454 188.208C343.385 188.389 343.287 188.647 343.162 188.982C343.036 189.316 342.946 189.637 342.89 189.943C342.834 190.25 342.778 190.626 342.723 191.072C342.667 191.518 342.625 191.991 342.597 192.493C342.569 192.995 342.549 193.566 342.535 194.207C342.535 194.402 342.535 194.597 342.535 194.792C342.535 194.987 342.528 195.154 342.514 195.294V195.482C342.458 195.719 342.326 195.921 342.117 196.088C341.908 196.255 341.671 196.339 341.406 196.339C341.253 196.339 341.106 196.318 340.967 196.276C340.828 196.234 340.681 196.102 340.528 195.879C340.375 195.656 340.298 195.377 340.298 195.043C340.298 192.841 340.974 190.556 342.326 188.187C342.604 187.742 343.19 186.899 344.081 185.658L345.043 184.342H343.099C340.674 184.342 339.399 184.384 339.274 184.467C339.19 184.509 339.114 184.676 339.044 184.969C338.975 185.261 338.905 185.561 338.835 185.867L338.772 186.306V186.369H337.936V186.306Z" fill="white"/>
</g>
<defs>
<clipPath id="clip0_588_6802">
<rect width="700" height="232" fill="white" transform="translate(0 0.75)"/>
</clipPath>
<clipPath id="clip1_588_6802">
<rect width="1284" height="1284" fill="white" transform="translate(-292.5 -466.75)"/>
</clipPath>
</defs>
</svg>
