<svg width="700" height="54" viewBox="0 0 700 54" fill="none" xmlns="http://www.w3.org/2000/svg">
<rect width="700" height="53" transform="translate(0 0.75)" fill="#0A0D12"/>
<path d="M60.1248 10.363C60.151 10.363 61.097 10.298 62.9625 10.168C64.8281 10.038 65.7872 9.96 65.8397 9.934C66.155 9.934 66.3127 10.038 66.3127 10.246C66.3127 10.428 65.3536 14.354 63.4355 22.024C61.5174 29.694 60.532 33.607 60.4795 33.763C60.4269 33.919 60.4138 34.114 60.4401 34.348C60.4401 35.44 60.8079 35.986 61.5436 35.986C61.7801 35.96 62.0429 35.843 62.3319 35.635C62.8837 35.115 63.4224 33.867 63.9479 31.891C64.1055 31.371 64.2369 31.098 64.342 31.072C64.3946 31.046 64.526 31.033 64.7362 31.033H65.0515C65.4456 31.033 65.6427 31.137 65.6427 31.345C65.6427 31.475 65.6033 31.683 65.5244 31.969C65.1828 33.269 64.7887 34.322 64.342 35.128C63.8953 35.934 63.5275 36.454 63.2384 36.688C62.9494 36.922 62.5815 37.13 62.1349 37.312C61.9246 37.364 61.6093 37.39 61.1889 37.39C60.2955 37.39 59.5467 37.195 58.9423 36.805C58.338 36.415 57.9439 36.012 57.7599 35.596L57.5235 35.011C57.4972 34.985 57.4446 34.998 57.3658 35.05C57.3132 35.102 57.2607 35.154 57.2081 35.206C55.6579 36.662 54.0813 37.39 52.4785 37.39C51.0333 37.39 49.759 36.87 48.6554 35.83C47.5518 34.79 47 33.139 47 30.877C47 29.629 47.2628 28.355 47.7883 27.055C48.3138 25.755 48.9444 24.637 49.6801 23.701C50.9151 22.219 52.1501 21.192 53.385 20.62C54.62 20.048 55.7367 19.762 56.7352 19.762C58.2066 19.762 59.3102 20.308 60.0459 21.4C60.1773 21.556 60.243 21.608 60.243 21.556C60.2693 21.452 60.624 20.035 61.3072 17.305C61.9903 14.575 62.3582 13.132 62.4108 12.976C62.4108 12.638 62.3188 12.43 62.1349 12.352C61.9509 12.274 61.4385 12.209 60.5977 12.157H59.77C59.6124 12.001 59.5336 11.897 59.5336 11.845C59.5336 11.793 59.5598 11.546 59.6124 11.104C59.7438 10.61 59.9146 10.363 60.1248 10.363ZM59.573 24.286C58.9686 22.232 57.9833 21.205 56.6169 21.205C55.6973 21.205 54.817 21.608 53.9762 22.414C53.1354 23.22 52.4785 24.273 52.0055 25.573C51.2435 27.627 50.7049 29.759 50.3896 31.969C50.3896 32.047 50.3896 32.19 50.3896 32.398C50.3896 32.606 50.3764 32.762 50.3502 32.866C50.3502 34.036 50.5866 34.842 51.0596 35.284C51.5326 35.726 52.0975 35.96 52.7544 35.986C54.1733 35.986 55.6316 35.05 57.1293 33.178L57.4446 32.749L59.573 24.286Z" fill="#D9EBFF"/>
<path d="M67.8498 30.448C67.8498 28.966 68.0995 27.614 68.5987 26.392C69.0979 25.17 69.7417 24.156 70.53 23.35C71.3182 22.544 72.1985 21.868 73.1707 21.322C74.1429 20.776 75.0625 20.373 75.9296 20.113C76.7967 19.853 77.6244 19.736 78.4127 19.762H78.5309C79.7134 19.762 80.7381 20.048 81.6052 20.62C82.4723 21.192 82.9059 22.037 82.9059 23.155C82.9059 25.495 81.4476 27.029 78.5309 27.757C77.2434 28.095 75.483 28.277 73.2495 28.303C72.2773 28.303 71.7781 28.329 71.7518 28.381C71.7518 28.433 71.673 28.888 71.5153 29.746C71.3577 30.604 71.2657 31.358 71.2394 32.008C71.2394 33.23 71.5153 34.192 72.0671 34.894C72.6189 35.596 73.4466 35.96 74.5502 35.986C75.6537 36.012 76.8756 35.765 78.2156 35.245C79.5557 34.725 80.7644 33.867 81.8417 32.671C82.0782 32.411 82.2358 32.281 82.3147 32.281C82.4198 32.281 82.5906 32.398 82.827 32.632C83.0635 32.866 83.1949 33.048 83.2212 33.178C83.2475 33.308 83.1292 33.516 82.8665 33.802C82.6037 34.088 82.2096 34.439 81.684 34.855C81.1585 35.271 80.5542 35.674 79.871 36.064C79.1878 36.454 78.3602 36.779 77.3879 37.039C76.4157 37.299 75.4173 37.429 74.3925 37.429C72.3167 37.429 70.7139 36.74 69.584 35.362C68.4542 33.984 67.8761 32.346 67.8498 30.448ZM81.014 23.233C80.8564 21.881 79.963 21.205 78.3339 21.205C77.4668 21.205 76.6654 21.387 75.9296 21.751C75.1939 22.115 74.6027 22.557 74.156 23.077C73.7093 23.597 73.3283 24.13 73.013 24.676C72.6977 25.222 72.4875 25.69 72.3824 26.08C72.2773 26.47 72.2116 26.717 72.1853 26.821C72.1853 26.847 72.4481 26.86 72.9736 26.86C75.9428 26.86 78.0186 26.548 79.201 25.924C80.3834 25.3 80.9877 24.403 81.014 23.233Z" fill="#D9EBFF"/>
<path d="M85.7436 21.985C85.5597 21.803 85.4678 21.673 85.4678 21.595C85.4678 21.491 85.5072 21.283 85.586 20.971C85.6648 20.659 85.7305 20.477 85.7831 20.425C85.8356 20.295 85.9539 20.23 86.1378 20.23C86.3217 20.23 86.9918 20.217 88.1479 20.191H90.2368L90.9857 17.071C91.0645 16.785 91.1565 16.408 91.2616 15.94C91.3667 15.472 91.4586 15.134 91.5375 14.926C91.6163 14.718 91.6951 14.458 91.7739 14.146C91.8528 13.834 91.9579 13.613 92.0893 13.483C92.2206 13.353 92.352 13.197 92.4834 13.015C92.6148 12.833 92.7987 12.716 93.0352 12.664C93.2717 12.612 93.5081 12.586 93.7446 12.586C94.2176 12.612 94.546 12.755 94.73 13.015C94.9139 13.275 95.0059 13.522 95.0059 13.756C95.0059 13.938 94.8876 14.549 94.6511 15.589C94.4147 16.629 94.1519 17.656 93.8629 18.67L93.4687 20.113C93.4687 20.165 94.1256 20.191 95.4394 20.191H97.4495C97.6334 20.373 97.7254 20.516 97.7254 20.62C97.7254 21.192 97.5546 21.647 97.213 21.985H92.9958L91.5769 27.64C90.5521 31.8 90.0397 34.036 90.0397 34.348C90.0397 35.44 90.3945 35.986 91.1039 35.986C92.0236 35.986 92.9169 35.544 93.784 34.66C94.6511 33.776 95.3475 32.684 95.873 31.384C95.9255 31.228 95.9912 31.137 96.07 31.111C96.1489 31.085 96.3459 31.059 96.6612 31.033H96.8189C97.213 31.033 97.4101 31.137 97.4101 31.345C97.4101 31.423 97.3707 31.579 97.2919 31.813C97.1605 32.229 96.924 32.723 96.5824 33.295C96.2408 33.867 95.7941 34.478 95.2423 35.128C94.6906 35.778 94.0205 36.324 93.2323 36.766C92.444 37.208 91.6426 37.429 90.828 37.429C90.0397 37.429 89.2909 37.234 88.5814 36.844C87.872 36.454 87.3596 35.778 87.0443 34.816C86.9918 34.608 86.9655 34.257 86.9655 33.763V33.061L88.345 27.601C89.2646 23.935 89.7376 22.089 89.7638 22.063C89.7638 22.011 89.0938 21.985 87.7537 21.985H85.7436Z" fill="#D9EBFF"/>
<path d="M102.652 27.25C102.652 25.456 102.783 23.753 103.046 22.141C103.309 20.529 103.611 19.138 103.953 17.968C104.294 16.798 104.78 15.654 105.411 14.536C106.042 13.418 106.541 12.547 106.909 11.923C107.277 11.299 107.828 10.623 108.564 9.895C109.3 9.167 109.733 8.725 109.865 8.569C109.996 8.413 110.325 8.14 110.85 7.75H111.52C111.888 7.75 112.072 7.867 112.072 8.101C112.072 8.179 111.849 8.452 111.402 8.92C110.955 9.388 110.417 10.077 109.786 10.987C109.155 11.897 108.512 13.015 107.855 14.341C107.198 15.667 106.646 17.461 106.199 19.723C105.753 21.985 105.529 24.494 105.529 27.25C105.529 30.006 105.753 32.502 106.199 34.738C106.646 36.974 107.185 38.781 107.815 40.159C108.446 41.537 109.09 42.655 109.747 43.513C110.403 44.371 110.955 45.06 111.402 45.58C111.849 46.1 112.072 46.373 112.072 46.399C112.072 46.633 111.875 46.75 111.481 46.75H110.85L109.747 45.814C107.277 43.604 105.477 40.848 104.347 37.546C103.217 34.244 102.652 30.812 102.652 27.25Z" fill="#D9EBFF"/>
<path d="M128.744 10.363C128.77 10.363 129.716 10.298 131.582 10.168C133.447 10.038 134.406 9.96 134.459 9.934C134.774 9.934 134.932 10.038 134.932 10.246C134.932 10.428 133.973 14.354 132.055 22.024C130.137 29.694 129.151 33.607 129.099 33.763C129.046 33.919 129.033 34.114 129.059 34.348C129.059 35.44 129.427 35.986 130.163 35.986C130.399 35.96 130.662 35.843 130.951 35.635C131.503 35.115 132.042 33.867 132.567 31.891C132.725 31.371 132.856 31.098 132.961 31.072C133.014 31.046 133.145 31.033 133.355 31.033H133.671C134.065 31.033 134.262 31.137 134.262 31.345C134.262 31.475 134.222 31.683 134.144 31.969C133.802 33.269 133.408 34.322 132.961 35.128C132.515 35.934 132.147 36.454 131.858 36.688C131.569 36.922 131.201 37.13 130.754 37.312C130.544 37.364 130.229 37.39 129.808 37.39C128.915 37.39 128.166 37.195 127.562 36.805C126.957 36.415 126.563 36.012 126.379 35.596L126.143 35.011C126.116 34.985 126.064 34.998 125.985 35.05C125.932 35.102 125.88 35.154 125.827 35.206C124.277 36.662 122.701 37.39 121.098 37.39C119.653 37.39 118.378 36.87 117.275 35.83C116.171 34.79 115.619 33.139 115.619 30.877C115.619 29.629 115.882 28.355 116.407 27.055C116.933 25.755 117.564 24.637 118.299 23.701C119.534 22.219 120.769 21.192 122.004 20.62C123.239 20.048 124.356 19.762 125.354 19.762C126.826 19.762 127.929 20.308 128.665 21.4C128.797 21.556 128.862 21.608 128.862 21.556C128.889 21.452 129.243 20.035 129.926 17.305C130.61 14.575 130.977 13.132 131.03 12.976C131.03 12.638 130.938 12.43 130.754 12.352C130.57 12.274 130.058 12.209 129.217 12.157H128.389C128.232 12.001 128.153 11.897 128.153 11.845C128.153 11.793 128.179 11.546 128.232 11.104C128.363 10.61 128.534 10.363 128.744 10.363ZM128.192 24.286C127.588 22.232 126.603 21.205 125.236 21.205C124.317 21.205 123.436 21.608 122.595 22.414C121.755 23.22 121.098 24.273 120.625 25.573C119.863 27.627 119.324 29.759 119.009 31.969C119.009 32.047 119.009 32.19 119.009 32.398C119.009 32.606 118.996 32.762 118.969 32.866C118.969 34.036 119.206 34.842 119.679 35.284C120.152 35.726 120.717 35.96 121.374 35.986C122.793 35.986 124.251 35.05 125.749 33.178L126.064 32.749L128.192 24.286Z" fill="#D9EBFF"/>
<path d="M136.272 30.799C136.272 27.965 137.402 25.417 139.662 23.155C141.921 20.893 144.365 19.762 146.993 19.762C148.464 19.762 149.62 20.074 150.461 20.698C151.302 21.322 151.735 22.141 151.762 23.155C151.762 23.909 151.512 24.546 151.013 25.066C150.513 25.586 149.883 25.859 149.121 25.885C148.622 25.885 148.227 25.755 147.938 25.495C147.649 25.235 147.505 24.845 147.505 24.325C147.505 23.805 147.649 23.363 147.938 22.999C148.227 22.635 148.517 22.362 148.806 22.18C149.095 21.998 149.279 21.92 149.357 21.946H149.397C149.397 21.894 149.318 21.816 149.16 21.712C149.003 21.608 148.727 21.504 148.333 21.4C147.938 21.296 147.492 21.244 146.993 21.244C146.204 21.244 145.455 21.426 144.746 21.79C144.194 22.024 143.629 22.427 143.051 22.999C141.895 24.143 141.054 25.755 140.529 27.835C140.003 29.915 139.727 31.423 139.701 32.359C139.701 33.555 140.043 34.452 140.726 35.05C141.304 35.674 142.066 35.986 143.012 35.986H143.169C146.112 35.986 148.543 34.881 150.461 32.671C150.697 32.411 150.855 32.281 150.934 32.281C151.039 32.281 151.21 32.398 151.446 32.632C151.683 32.866 151.814 33.048 151.84 33.178C151.867 33.308 151.748 33.503 151.486 33.763C151.223 34.023 150.842 34.387 150.343 34.855C149.843 35.323 149.252 35.713 148.569 36.025C147.886 36.337 147.045 36.662 146.047 37C145.048 37.338 143.997 37.481 142.893 37.429C140.923 37.429 139.333 36.805 138.124 35.557C136.916 34.309 136.298 32.723 136.272 30.799Z" fill="#D9EBFF"/>
<path d="M152.865 25.807C152.865 25.599 152.983 25.196 153.22 24.598C153.456 24 153.785 23.324 154.205 22.57C154.626 21.816 155.204 21.166 155.939 20.62C156.675 20.074 157.45 19.788 158.265 19.762C159.474 19.762 160.38 20.087 160.984 20.737C161.589 21.387 161.891 22.154 161.891 23.038C161.891 23.506 161.444 24.962 160.551 27.406C159.657 29.85 159.211 31.683 159.211 32.905C159.211 34.023 159.395 34.803 159.763 35.245C160.13 35.687 160.682 35.921 161.418 35.947C162.154 35.973 162.85 35.752 163.507 35.284C164.164 34.816 164.65 34.374 164.965 33.958L165.399 33.295C165.451 33.191 165.95 31.215 166.896 27.367C167.685 24.247 168.158 22.427 168.315 21.907C168.473 21.387 168.657 21.01 168.867 20.776C169.314 20.386 169.787 20.191 170.286 20.191C170.733 20.191 171.061 20.321 171.271 20.581C171.482 20.841 171.587 21.088 171.587 21.322L168.591 33.724C168.565 33.854 168.552 34.062 168.552 34.348C168.552 34.998 168.644 35.427 168.828 35.635C169.012 35.843 169.288 35.96 169.655 35.986C170.233 35.908 170.693 35.505 171.035 34.777C171.376 34.049 171.771 32.905 172.217 31.345C172.27 31.137 172.533 31.033 173.006 31.033C173.505 31.033 173.754 31.15 173.754 31.384C173.728 31.514 173.702 31.696 173.676 31.93C173.649 32.164 173.531 32.58 173.321 33.178C173.111 33.776 172.887 34.335 172.651 34.855C172.414 35.375 172.086 35.869 171.665 36.337C171.245 36.805 170.772 37.13 170.247 37.312C170.036 37.364 169.721 37.39 169.301 37.39C167.566 37.39 166.371 36.662 165.714 35.206C165.661 35.232 165.517 35.362 165.28 35.596C165.044 35.83 164.807 36.025 164.571 36.181C164.335 36.337 164.045 36.532 163.704 36.766C163.362 37 162.981 37.156 162.561 37.234C162.141 37.312 161.694 37.377 161.221 37.429C160.065 37.429 159.04 37.195 158.147 36.727C156.78 35.921 156.097 34.543 156.097 32.593C156.097 31.111 156.557 29.174 157.477 26.782C158.396 24.39 158.856 22.869 158.856 22.219C158.856 22.193 158.856 22.167 158.856 22.141C158.856 21.907 158.856 21.751 158.856 21.673C158.856 21.595 158.803 21.504 158.698 21.4C158.593 21.296 158.449 21.244 158.265 21.244H158.107C157.503 21.244 156.951 21.491 156.452 21.985C155.953 22.479 155.558 23.012 155.269 23.584C154.98 24.156 154.757 24.702 154.599 25.222C154.442 25.742 154.337 26.028 154.284 26.08C154.231 26.132 154.021 26.158 153.653 26.158H153.102C152.944 26.002 152.865 25.885 152.865 25.807Z" fill="#D9EBFF"/>
<path d="M175.41 25.807C175.436 25.729 175.462 25.625 175.489 25.495C175.515 25.365 175.581 25.079 175.686 24.637C175.791 24.195 175.922 23.792 176.08 23.428C176.237 23.064 176.435 22.635 176.671 22.141C176.908 21.647 177.17 21.257 177.459 20.971C177.748 20.685 178.09 20.399 178.484 20.113C178.878 19.827 179.312 19.71 179.785 19.762C180.547 19.762 181.217 19.918 181.795 20.23C182.373 20.542 182.78 20.828 183.017 21.088C183.253 21.348 183.398 21.608 183.45 21.868C183.503 22.024 183.542 22.102 183.568 22.102C183.595 22.102 183.7 22.011 183.884 21.829C185.145 20.477 186.603 19.801 188.259 19.801H188.377C189.638 19.801 190.584 20.334 191.215 21.4C191.425 21.894 191.53 22.375 191.53 22.843C191.53 23.623 191.359 24.247 191.018 24.715C190.676 25.183 190.334 25.482 189.993 25.612C189.651 25.742 189.323 25.794 189.008 25.768C188.482 25.768 188.062 25.625 187.746 25.339C187.431 25.053 187.273 24.676 187.273 24.208C187.273 22.96 188.009 22.128 189.48 21.712C188.902 21.374 188.429 21.205 188.062 21.205C186.59 21.205 185.237 22.167 184.002 24.091C183.739 24.507 183.542 24.936 183.411 25.378C183.279 25.82 182.833 27.549 182.071 30.565C181.177 34.205 180.665 36.142 180.534 36.376C180.192 37.078 179.627 37.429 178.839 37.429C178.497 37.429 178.221 37.351 178.011 37.195C177.801 37.039 177.656 36.883 177.578 36.727C177.499 36.571 177.472 36.441 177.499 36.337C177.499 35.999 178.024 33.763 179.075 29.629C180.126 25.495 180.652 23.194 180.652 22.726C180.652 21.712 180.31 21.205 179.627 21.205C179.075 21.205 178.602 21.569 178.208 22.297C177.814 23.025 177.499 23.818 177.262 24.676C177.026 25.534 176.881 26.002 176.829 26.08C176.776 26.132 176.566 26.158 176.198 26.158H175.646C175.489 26.002 175.41 25.885 175.41 25.807Z" fill="#D9EBFF"/>
<path d="M193.225 25.807C193.251 25.729 193.277 25.625 193.304 25.495C193.33 25.365 193.396 25.079 193.501 24.637C193.606 24.195 193.737 23.792 193.895 23.428C194.052 23.064 194.25 22.635 194.486 22.141C194.722 21.647 194.985 21.257 195.274 20.971C195.563 20.685 195.905 20.399 196.299 20.113C196.693 19.827 197.127 19.71 197.6 19.762C198.362 19.762 199.032 19.918 199.61 20.23C200.188 20.542 200.595 20.828 200.832 21.088C201.068 21.348 201.213 21.608 201.265 21.868C201.318 22.024 201.357 22.102 201.383 22.102C201.41 22.102 201.515 22.011 201.699 21.829C202.96 20.477 204.418 19.801 206.074 19.801H206.192C207.453 19.801 208.399 20.334 209.03 21.4C209.24 21.894 209.345 22.375 209.345 22.843C209.345 23.623 209.174 24.247 208.833 24.715C208.491 25.183 208.149 25.482 207.808 25.612C207.466 25.742 207.138 25.794 206.822 25.768C206.297 25.768 205.877 25.625 205.561 25.339C205.246 25.053 205.088 24.676 205.088 24.208C205.088 22.96 205.824 22.128 207.295 21.712C206.717 21.374 206.244 21.205 205.877 21.205C204.405 21.205 203.052 22.167 201.817 24.091C201.554 24.507 201.357 24.936 201.226 25.378C201.094 25.82 200.648 27.549 199.886 30.565C198.992 34.205 198.48 36.142 198.349 36.376C198.007 37.078 197.442 37.429 196.654 37.429C196.312 37.429 196.036 37.351 195.826 37.195C195.616 37.039 195.471 36.883 195.393 36.727C195.314 36.571 195.287 36.441 195.314 36.337C195.314 35.999 195.839 33.763 196.89 29.629C197.941 25.495 198.467 23.194 198.467 22.726C198.467 21.712 198.125 21.205 197.442 21.205C196.89 21.205 196.417 21.569 196.023 22.297C195.629 23.025 195.314 23.818 195.077 24.676C194.841 25.534 194.696 26.002 194.644 26.08C194.591 26.132 194.381 26.158 194.013 26.158H193.461C193.304 26.002 193.225 25.885 193.225 25.807Z" fill="#D9EBFF"/>
<path d="M213.247 35.635C213.247 35.635 213.247 35.31 213.247 34.66C213.247 34.01 213.457 33.451 213.878 32.983C214.298 32.515 214.863 32.281 215.572 32.281C216.308 32.281 216.965 32.606 217.543 33.256C218.121 33.906 218.423 35.05 218.45 36.688C218.45 37.598 218.331 38.482 218.095 39.34C217.858 40.198 217.582 40.939 217.267 41.563C216.952 42.187 216.61 42.72 216.242 43.162C215.874 43.604 215.559 43.955 215.296 44.215C215.034 44.475 214.863 44.592 214.784 44.566C214.679 44.566 214.508 44.449 214.272 44.215C214.035 43.981 213.917 43.812 213.917 43.708C213.917 43.604 214.061 43.396 214.35 43.084C214.64 42.772 214.968 42.382 215.336 41.914C215.704 41.446 216.045 40.796 216.361 39.964C216.676 39.132 216.886 38.183 216.991 37.117V36.649L216.952 36.688C216.899 36.714 216.834 36.74 216.755 36.766C216.676 36.792 216.597 36.831 216.518 36.883C216.439 36.935 216.321 36.961 216.164 36.961C216.006 36.961 215.848 36.974 215.691 37C214.981 37 214.403 36.779 213.956 36.337L213.247 35.635Z" fill="#D9EBFF"/>
<path d="M242.137 10.363C242.163 10.363 243.109 10.298 244.975 10.168C246.841 10.038 247.8 9.96 247.852 9.934C248.167 9.934 248.325 10.038 248.325 10.246C248.325 10.428 247.366 14.354 245.448 22.024C243.53 29.694 242.544 33.607 242.492 33.763C242.439 33.919 242.426 34.114 242.452 34.348C242.452 35.44 242.82 35.986 243.556 35.986C243.793 35.96 244.055 35.843 244.344 35.635C244.896 35.115 245.435 33.867 245.96 31.891C246.118 31.371 246.249 31.098 246.354 31.072C246.407 31.046 246.538 31.033 246.749 31.033H247.064C247.458 31.033 247.655 31.137 247.655 31.345C247.655 31.475 247.616 31.683 247.537 31.969C247.195 33.269 246.801 34.322 246.354 35.128C245.908 35.934 245.54 36.454 245.251 36.688C244.962 36.922 244.594 37.13 244.147 37.312C243.937 37.364 243.622 37.39 243.201 37.39C242.308 37.39 241.559 37.195 240.955 36.805C240.35 36.415 239.956 36.012 239.772 35.596L239.536 35.011C239.51 34.985 239.457 34.998 239.378 35.05C239.326 35.102 239.273 35.154 239.221 35.206C237.67 36.662 236.094 37.39 234.491 37.39C233.046 37.39 231.771 36.87 230.668 35.83C229.564 34.79 229.012 33.139 229.012 30.877C229.012 29.629 229.275 28.355 229.801 27.055C230.326 25.755 230.957 24.637 231.693 23.701C232.927 22.219 234.162 21.192 235.397 20.62C236.632 20.048 237.749 19.762 238.748 19.762C240.219 19.762 241.323 20.308 242.058 21.4C242.19 21.556 242.255 21.608 242.255 21.556C242.282 21.452 242.636 20.035 243.32 17.305C244.003 14.575 244.371 13.132 244.423 12.976C244.423 12.638 244.331 12.43 244.147 12.352C243.963 12.274 243.451 12.209 242.61 12.157H241.782C241.625 12.001 241.546 11.897 241.546 11.845C241.546 11.793 241.572 11.546 241.625 11.104C241.756 10.61 241.927 10.363 242.137 10.363ZM241.585 24.286C240.981 22.232 239.996 21.205 238.629 21.205C237.71 21.205 236.829 21.608 235.989 22.414C235.148 23.22 234.491 24.273 234.018 25.573C233.256 27.627 232.717 29.759 232.402 31.969C232.402 32.047 232.402 32.19 232.402 32.398C232.402 32.606 232.389 32.762 232.363 32.866C232.363 34.036 232.599 34.842 233.072 35.284C233.545 35.726 234.11 35.96 234.767 35.986C236.186 35.986 237.644 35.05 239.142 33.178L239.457 32.749L241.585 24.286Z" fill="#D9EBFF"/>
<path d="M249.665 30.877C249.665 28.251 250.664 25.755 252.661 23.389C254.658 21.023 256.904 19.827 259.4 19.801C260.74 19.801 261.923 20.438 262.948 21.712C263.368 20.932 263.972 20.542 264.761 20.542C265.102 20.542 265.404 20.646 265.667 20.854C265.93 21.062 266.061 21.322 266.061 21.634C266.061 21.972 265.575 24.052 264.603 27.874C263.631 31.696 263.132 33.854 263.105 34.348C263.105 34.998 263.197 35.427 263.381 35.635C263.565 35.843 263.841 35.96 264.209 35.986C264.445 35.96 264.708 35.843 264.997 35.635C265.549 35.115 266.088 33.867 266.613 31.891C266.771 31.371 266.902 31.098 267.007 31.072C267.06 31.046 267.191 31.033 267.401 31.033H267.559C268.058 31.033 268.308 31.15 268.308 31.384C268.308 31.54 268.242 31.891 268.111 32.437C267.979 32.983 267.717 33.685 267.322 34.543C266.928 35.401 266.508 36.051 266.061 36.493C265.72 36.831 265.299 37.104 264.8 37.312C264.59 37.364 264.275 37.39 263.854 37.39C262.961 37.39 262.212 37.195 261.607 36.805C261.003 36.415 260.609 36.012 260.425 35.596L260.189 35.011C260.162 34.985 260.11 34.998 260.031 35.05C259.978 35.102 259.926 35.154 259.873 35.206C258.323 36.662 256.746 37.39 255.144 37.39C253.698 37.39 252.424 36.87 251.321 35.83C250.217 34.79 249.665 33.139 249.665 30.877ZM262.199 24.208C262.199 24.052 262.133 23.766 262.002 23.35C261.87 22.934 261.568 22.479 261.095 21.985C260.622 21.491 260.018 21.231 259.282 21.205C258.362 21.205 257.482 21.608 256.641 22.414C255.801 23.22 255.144 24.273 254.671 25.573C253.909 27.627 253.37 29.759 253.055 31.969C253.055 32.047 253.055 32.19 253.055 32.398C253.055 32.606 253.042 32.762 253.015 32.866C253.015 34.036 253.252 34.842 253.725 35.284C254.198 35.726 254.763 35.96 255.42 35.986C256.418 35.986 257.403 35.557 258.376 34.699C259.348 33.841 259.926 33.178 260.11 32.71C260.162 32.606 260.517 31.215 261.174 28.537C261.831 25.859 262.172 24.416 262.199 24.208Z" fill="#D9EBFF"/>
<path d="M271.579 7.789L271.737 7.75C271.868 7.75 272 7.75 272.131 7.75H272.604L273.708 8.686C276.177 10.896 277.977 13.652 279.107 16.954C280.237 20.256 280.802 23.688 280.802 27.25C280.802 29.018 280.671 30.721 280.408 32.359C280.145 33.997 279.843 35.388 279.501 36.532C279.16 37.676 278.674 38.82 278.043 39.964C277.412 41.108 276.913 41.979 276.545 42.577C276.177 43.175 275.639 43.838 274.929 44.566C274.22 45.294 273.799 45.723 273.668 45.853C273.537 45.983 273.235 46.23 272.762 46.594C272.683 46.672 272.63 46.724 272.604 46.75H272.131C271.921 46.75 271.776 46.75 271.697 46.75C271.619 46.75 271.553 46.711 271.5 46.633C271.448 46.555 271.408 46.438 271.382 46.282C271.408 46.256 271.553 46.087 271.816 45.775C275.888 41.589 277.925 35.414 277.925 27.25C277.925 19.086 275.888 12.911 271.816 8.725C271.553 8.413 271.408 8.244 271.382 8.218C271.382 8.01 271.448 7.867 271.579 7.789Z" fill="#D9EBFF"/>
<path d="M298.775 12.976C298.775 12.768 298.853 12.586 299.011 12.43C299.169 12.274 299.3 12.196 299.405 12.196C299.615 12.196 301.639 13.08 305.475 14.848C309.311 16.616 313.121 18.397 316.905 20.191C320.689 21.985 322.581 22.895 322.581 22.921C322.764 23.051 322.856 23.246 322.856 23.506C322.856 23.766 322.764 23.961 322.581 24.091C322.528 24.143 318.692 25.95 311.072 29.512L299.721 34.816H299.484C299.011 34.764 298.775 34.504 298.775 34.036C298.775 34.01 298.775 33.971 298.775 33.919C298.748 33.737 298.945 33.529 299.366 33.295C299.865 33.035 301.836 32.099 305.278 30.487C307.327 29.525 309.035 28.732 310.402 28.108L320.176 23.506L309.692 18.592C307.879 17.734 305.777 16.746 303.386 15.628C301.074 14.562 299.734 13.925 299.366 13.717C298.998 13.509 298.801 13.262 298.775 12.976ZM298.814 41.602C298.814 41.342 299.011 41.082 299.405 40.822H322.226C322.646 40.978 322.856 41.238 322.856 41.602C322.856 41.914 322.659 42.174 322.265 42.382H299.366C298.998 42.2 298.814 41.94 298.814 41.602Z" fill="#D9EBFF"/>
<path d="M340.947 14.185C342.419 12.079 344.429 11.026 346.978 11.026C348.239 11.026 349.5 11.364 350.761 12.04C352.023 12.716 353.047 13.912 353.836 15.628C354.808 17.786 355.294 20.75 355.294 24.52C355.294 28.55 354.729 31.631 353.599 33.763C353.074 34.855 352.351 35.726 351.431 36.376C350.512 37.026 349.71 37.429 349.027 37.585C348.344 37.741 347.674 37.832 347.017 37.858C346.334 37.858 345.651 37.78 344.967 37.624C344.284 37.468 343.483 37.052 342.563 36.376C341.644 35.7 340.921 34.829 340.395 33.763C339.266 31.631 338.701 28.55 338.701 24.52C338.701 19.996 339.45 16.551 340.947 14.185ZM349.815 13.717C349.027 12.885 348.094 12.469 347.017 12.469C345.913 12.469 344.967 12.885 344.179 13.717C343.522 14.393 343.089 15.329 342.879 16.525C342.668 17.721 342.563 20.217 342.563 24.013C342.563 28.121 342.668 30.825 342.879 32.125C343.089 33.425 343.562 34.452 344.297 35.206C345.033 35.986 345.94 36.376 347.017 36.376C348.068 36.376 348.961 35.986 349.697 35.206C350.459 34.426 350.932 33.334 351.116 31.93C351.3 30.526 351.405 27.887 351.431 24.013C351.431 20.243 351.326 17.76 351.116 16.564C350.906 15.368 350.472 14.419 349.815 13.717Z" fill="#D9EBFF"/>
<path d="M378.154 13.951C378.338 13.769 378.535 13.678 378.745 13.678C379.034 13.678 379.231 13.769 379.336 13.951C379.362 13.977 380.23 15.875 381.937 19.645C383.645 23.415 385.366 27.237 387.101 31.111C388.835 34.985 389.702 37 389.702 37.156C389.649 37.624 389.387 37.858 388.914 37.858C388.835 37.858 388.769 37.845 388.717 37.819C388.664 37.793 388.598 37.78 388.52 37.78C388.441 37.78 388.388 37.741 388.362 37.663C388.336 37.585 388.309 37.533 388.283 37.507C388.257 37.481 388.217 37.429 388.165 37.351C388.112 37.273 388.086 37.208 388.086 37.156L378.745 16.408L369.404 37.156C369.167 37.572 368.957 37.793 368.773 37.819C368.721 37.845 368.655 37.858 368.576 37.858C368.103 37.858 367.841 37.624 367.788 37.156C367.788 37 368.642 34.998 370.35 31.15C372.058 27.302 373.779 23.48 375.513 19.684C377.247 15.888 378.128 13.977 378.154 13.951Z" fill="#D9EBFF"/>
<path d="M415.124 10.363C415.15 10.363 416.096 10.298 417.962 10.168C419.827 10.038 420.786 9.96 420.839 9.934C421.154 9.934 421.312 10.038 421.312 10.246C421.312 10.428 420.353 14.354 418.435 22.024C416.516 29.694 415.531 33.607 415.479 33.763C415.426 33.919 415.413 34.114 415.439 34.348C415.439 35.44 415.807 35.986 416.543 35.986C416.779 35.96 417.042 35.843 417.331 35.635C417.883 35.115 418.421 33.867 418.947 31.891C419.105 31.371 419.236 31.098 419.341 31.072C419.394 31.046 419.525 31.033 419.735 31.033H420.051C420.445 31.033 420.642 31.137 420.642 31.345C420.642 31.475 420.602 31.683 420.523 31.969C420.182 33.269 419.788 34.322 419.341 35.128C418.894 35.934 418.527 36.454 418.237 36.688C417.948 36.922 417.581 37.13 417.134 37.312C416.924 37.364 416.608 37.39 416.188 37.39C415.295 37.39 414.546 37.195 413.941 36.805C413.337 36.415 412.943 36.012 412.759 35.596L412.523 35.011C412.496 34.985 412.444 34.998 412.365 35.05C412.312 35.102 412.26 35.154 412.207 35.206C410.657 36.662 409.08 37.39 407.478 37.39C406.032 37.39 404.758 36.87 403.654 35.83C402.551 34.79 401.999 33.139 401.999 30.877C401.999 29.629 402.262 28.355 402.787 27.055C403.313 25.755 403.943 24.637 404.679 23.701C405.914 22.219 407.149 21.192 408.384 20.62C409.619 20.048 410.736 19.762 411.734 19.762C413.206 19.762 414.309 20.308 415.045 21.4C415.176 21.556 415.242 21.608 415.242 21.556C415.268 21.452 415.623 20.035 416.306 17.305C416.989 14.575 417.357 13.132 417.41 12.976C417.41 12.638 417.318 12.43 417.134 12.352C416.95 12.274 416.438 12.209 415.597 12.157H414.769C414.611 12.001 414.533 11.897 414.533 11.845C414.533 11.793 414.559 11.546 414.611 11.104C414.743 10.61 414.914 10.363 415.124 10.363ZM414.572 24.286C413.968 22.232 412.982 21.205 411.616 21.205C410.696 21.205 409.816 21.608 408.975 22.414C408.134 23.22 407.478 24.273 407.005 25.573C406.243 27.627 405.704 29.759 405.389 31.969C405.389 32.047 405.389 32.19 405.389 32.398C405.389 32.606 405.375 32.762 405.349 32.866C405.349 34.036 405.586 34.842 406.059 35.284C406.532 35.726 407.097 35.96 407.753 35.986C409.172 35.986 410.631 35.05 412.128 33.178L412.444 32.749L414.572 24.286Z" fill="#D9EBFF"/>
<path d="M422.888 30.448C422.888 28.966 423.138 27.614 423.637 26.392C424.136 25.17 424.78 24.156 425.568 23.35C426.357 22.544 427.237 21.868 428.209 21.322C429.181 20.776 430.101 20.373 430.968 20.113C431.835 19.853 432.663 19.736 433.451 19.762H433.569C434.752 19.762 435.777 20.048 436.644 20.62C437.511 21.192 437.944 22.037 437.944 23.155C437.944 25.495 436.486 27.029 433.569 27.757C432.282 28.095 430.521 28.277 428.288 28.303C427.316 28.303 426.817 28.329 426.79 28.381C426.79 28.433 426.711 28.888 426.554 29.746C426.396 30.604 426.304 31.358 426.278 32.008C426.278 33.23 426.554 34.192 427.106 34.894C427.657 35.596 428.485 35.96 429.589 35.986C430.692 36.012 431.914 35.765 433.254 35.245C434.594 34.725 435.803 33.867 436.88 32.671C437.117 32.411 437.274 32.281 437.353 32.281C437.458 32.281 437.629 32.398 437.865 32.632C438.102 32.866 438.233 33.048 438.26 33.178C438.286 33.308 438.168 33.516 437.905 33.802C437.642 34.088 437.248 34.439 436.722 34.855C436.197 35.271 435.593 35.674 434.909 36.064C434.226 36.454 433.399 36.779 432.426 37.039C431.454 37.299 430.456 37.429 429.431 37.429C427.355 37.429 425.752 36.74 424.622 35.362C423.493 33.984 422.915 32.346 422.888 30.448ZM436.052 23.233C435.895 21.881 435.001 21.205 433.372 21.205C432.505 21.205 431.704 21.387 430.968 21.751C430.232 22.115 429.641 22.557 429.194 23.077C428.748 23.597 428.367 24.13 428.051 24.676C427.736 25.222 427.526 25.69 427.421 26.08C427.316 26.47 427.25 26.717 427.224 26.821C427.224 26.847 427.487 26.86 428.012 26.86C430.981 26.86 433.057 26.548 434.239 25.924C435.422 25.3 436.026 24.403 436.052 23.233Z" fill="#D9EBFF"/>
<path d="M440.743 21.985C440.559 21.803 440.467 21.673 440.467 21.595C440.467 21.491 440.506 21.283 440.585 20.971C440.664 20.659 440.73 20.477 440.782 20.425C440.835 20.295 440.953 20.23 441.137 20.23C441.321 20.23 441.991 20.217 443.147 20.191H445.236L445.985 17.071C446.064 16.785 446.156 16.408 446.261 15.94C446.366 15.472 446.458 15.134 446.537 14.926C446.615 14.718 446.694 14.458 446.773 14.146C446.852 13.834 446.957 13.613 447.088 13.483C447.22 13.353 447.351 13.197 447.482 13.015C447.614 12.833 447.798 12.716 448.034 12.664C448.271 12.612 448.507 12.586 448.744 12.586C449.217 12.612 449.545 12.755 449.729 13.015C449.913 13.275 450.005 13.522 450.005 13.756C450.005 13.938 449.887 14.549 449.65 15.589C449.414 16.629 449.151 17.656 448.862 18.67L448.468 20.113C448.468 20.165 449.125 20.191 450.438 20.191H452.449C452.632 20.373 452.724 20.516 452.724 20.62C452.724 21.192 452.554 21.647 452.212 21.985H447.995L446.576 27.64C445.551 31.8 445.039 34.036 445.039 34.348C445.039 35.44 445.394 35.986 446.103 35.986C447.023 35.986 447.916 35.544 448.783 34.66C449.65 33.776 450.346 32.684 450.872 31.384C450.925 31.228 450.99 31.137 451.069 31.111C451.148 31.085 451.345 31.059 451.66 31.033H451.818C452.212 31.033 452.409 31.137 452.409 31.345C452.409 31.423 452.37 31.579 452.291 31.813C452.16 32.229 451.923 32.723 451.581 33.295C451.24 33.867 450.793 34.478 450.241 35.128C449.69 35.778 449.02 36.324 448.231 36.766C447.443 37.208 446.642 37.429 445.827 37.429C445.039 37.429 444.29 37.234 443.58 36.844C442.871 36.454 442.359 35.778 442.043 34.816C441.991 34.608 441.965 34.257 441.965 33.763V33.061L443.344 27.601C444.264 23.935 444.737 22.089 444.763 22.063C444.763 22.011 444.093 21.985 442.753 21.985H440.743Z" fill="#D9EBFF"/>
<path d="M457.691 27.25C457.691 25.456 457.822 23.753 458.085 22.141C458.347 20.529 458.65 19.138 458.991 17.968C459.333 16.798 459.819 15.654 460.45 14.536C461.08 13.418 461.579 12.547 461.947 11.923C462.315 11.299 462.867 10.623 463.603 9.895C464.338 9.167 464.772 8.725 464.903 8.569C465.035 8.413 465.363 8.14 465.889 7.75H466.559C466.927 7.75 467.11 7.867 467.11 8.101C467.11 8.179 466.887 8.452 466.44 8.92C465.994 9.388 465.455 10.077 464.824 10.987C464.194 11.897 463.55 13.015 462.893 14.341C462.236 15.667 461.685 17.461 461.238 19.723C460.791 21.985 460.568 24.494 460.568 27.25C460.568 30.006 460.791 32.502 461.238 34.738C461.685 36.974 462.223 38.781 462.854 40.159C463.484 41.537 464.128 42.655 464.785 43.513C465.442 44.371 465.994 45.06 466.44 45.58C466.887 46.1 467.11 46.373 467.11 46.399C467.11 46.633 466.913 46.75 466.519 46.75H465.889L464.785 45.814C462.315 43.604 460.515 40.848 459.385 37.546C458.256 34.244 457.691 30.812 457.691 27.25Z" fill="#D9EBFF"/>
<path d="M483.743 10.363C483.769 10.363 484.715 10.298 486.581 10.168C488.446 10.038 489.405 9.96 489.458 9.934C489.773 9.934 489.931 10.038 489.931 10.246C489.931 10.428 488.972 14.354 487.054 22.024C485.136 29.694 484.15 33.607 484.098 33.763C484.045 33.919 484.032 34.114 484.058 34.348C484.058 35.44 484.426 35.986 485.162 35.986C485.398 35.96 485.661 35.843 485.95 35.635C486.502 35.115 487.041 33.867 487.566 31.891C487.724 31.371 487.855 31.098 487.96 31.072C488.013 31.046 488.144 31.033 488.354 31.033H488.67C489.064 31.033 489.261 31.137 489.261 31.345C489.261 31.475 489.222 31.683 489.143 31.969C488.801 33.269 488.407 34.322 487.96 35.128C487.514 35.934 487.146 36.454 486.857 36.688C486.568 36.922 486.2 37.13 485.753 37.312C485.543 37.364 485.228 37.39 484.807 37.39C483.914 37.39 483.165 37.195 482.561 36.805C481.956 36.415 481.562 36.012 481.378 35.596L481.142 35.011C481.115 34.985 481.063 34.998 480.984 35.05C480.932 35.102 480.879 35.154 480.826 35.206C479.276 36.662 477.7 37.39 476.097 37.39C474.652 37.39 473.377 36.87 472.274 35.83C471.17 34.79 470.618 33.139 470.618 30.877C470.618 29.629 470.881 28.355 471.407 27.055C471.932 25.755 472.563 24.637 473.298 23.701C474.533 22.219 475.768 21.192 477.003 20.62C478.238 20.048 479.355 19.762 480.353 19.762C481.825 19.762 482.928 20.308 483.664 21.4C483.796 21.556 483.861 21.608 483.861 21.556C483.888 21.452 484.242 20.035 484.925 17.305C485.609 14.575 485.976 13.132 486.029 12.976C486.029 12.638 485.937 12.43 485.753 12.352C485.569 12.274 485.057 12.209 484.216 12.157H483.388C483.231 12.001 483.152 11.897 483.152 11.845C483.152 11.793 483.178 11.546 483.231 11.104C483.362 10.61 483.533 10.363 483.743 10.363ZM483.191 24.286C482.587 22.232 481.602 21.205 480.235 21.205C479.316 21.205 478.435 21.608 477.594 22.414C476.754 23.22 476.097 24.273 475.624 25.573C474.862 27.627 474.323 29.759 474.008 31.969C474.008 32.047 474.008 32.19 474.008 32.398C474.008 32.606 473.995 32.762 473.968 32.866C473.968 34.036 474.205 34.842 474.678 35.284C475.151 35.726 475.716 35.96 476.373 35.986C477.792 35.986 479.25 35.05 480.748 33.178L481.063 32.749L483.191 24.286Z" fill="#D9EBFF"/>
<path d="M492.848 11.767C492.848 11.507 492.9 11.208 493.005 10.87C493.11 10.532 493.268 10.363 493.478 10.363C493.504 10.363 494.45 10.298 496.316 10.168C498.182 10.038 499.141 9.96 499.193 9.934C499.508 9.934 499.666 10.051 499.666 10.285C499.666 10.519 499.219 12.378 498.326 15.862C498.116 16.746 497.893 17.656 497.656 18.592C497.42 19.528 497.223 20.23 497.065 20.698L496.907 21.439C496.907 21.517 496.986 21.478 497.144 21.322C498.431 20.282 499.758 19.762 501.124 19.762C502.754 19.762 504.067 20.36 505.066 21.556C506.064 22.752 506.577 24.26 506.603 26.08C506.603 28.966 505.565 31.579 503.489 33.919C501.413 36.259 499.18 37.429 496.789 37.429C495.475 37.429 494.28 36.935 493.202 35.947C492.125 34.959 491.573 33.36 491.547 31.15V30.799C491.547 30.253 491.652 29.499 491.862 28.537C492.072 27.575 492.716 25.014 493.794 20.854C495.107 15.732 495.764 13.015 495.764 12.703C495.764 12.391 495.265 12.209 494.266 12.157C494.135 12.157 494.03 12.157 493.951 12.157H493.754C493.491 12.157 493.321 12.157 493.242 12.157C493.163 12.157 493.071 12.118 492.966 12.04C492.861 11.962 492.821 11.871 492.848 11.767ZM503.213 24.325V24.091C503.213 22.167 502.412 21.205 500.809 21.205C500.362 21.205 499.903 21.309 499.43 21.517C498.957 21.725 498.523 21.998 498.129 22.336C497.735 22.674 497.393 22.986 497.104 23.272C496.815 23.558 496.579 23.844 496.395 24.13L496.158 24.442L495.331 27.796C494.753 30.032 494.464 31.618 494.464 32.554C494.464 33.802 494.779 34.738 495.409 35.362C495.83 35.778 496.355 35.986 496.986 35.986C497.853 35.986 498.733 35.57 499.627 34.738C500.284 34.14 500.809 33.412 501.203 32.554C501.597 31.696 502.031 30.331 502.504 28.459C502.977 26.587 503.213 25.209 503.213 24.325Z" fill="#D9EBFF"/>
<path d="M509.953 35.635C509.953 35.635 509.953 35.31 509.953 34.66C509.953 34.01 510.163 33.451 510.584 32.983C511.004 32.515 511.569 32.281 512.279 32.281C513.014 32.281 513.671 32.606 514.249 33.256C514.827 33.906 515.129 35.05 515.156 36.688C515.156 37.598 515.038 38.482 514.801 39.34C514.565 40.198 514.289 40.939 513.973 41.563C513.658 42.187 513.316 42.72 512.949 43.162C512.581 43.604 512.265 43.955 512.003 44.215C511.74 44.475 511.569 44.592 511.49 44.566C511.385 44.566 511.214 44.449 510.978 44.215C510.741 43.981 510.623 43.812 510.623 43.708C510.623 43.604 510.768 43.396 511.057 43.084C511.346 42.772 511.674 42.382 512.042 41.914C512.41 41.446 512.752 40.796 513.067 39.964C513.382 39.132 513.592 38.183 513.697 37.117V36.649L513.658 36.688C513.605 36.714 513.54 36.74 513.461 36.766C513.382 36.792 513.303 36.831 513.224 36.883C513.146 36.935 513.027 36.961 512.87 36.961C512.712 36.961 512.554 36.974 512.397 37C511.687 37 511.109 36.779 510.663 36.337L509.953 35.635Z" fill="#D9EBFF"/>
<path d="M538.843 10.363C538.87 10.363 539.816 10.298 541.681 10.168C543.547 10.038 544.506 9.96 544.558 9.934C544.874 9.934 545.031 10.038 545.031 10.246C545.031 10.428 544.072 14.354 542.154 22.024C540.236 29.694 539.251 33.607 539.198 33.763C539.146 33.919 539.132 34.114 539.159 34.348C539.159 35.44 539.527 35.986 540.262 35.986C540.499 35.96 540.762 35.843 541.051 35.635C541.602 35.115 542.141 33.867 542.667 31.891C542.824 31.371 542.956 31.098 543.061 31.072C543.113 31.046 543.245 31.033 543.455 31.033H543.77C544.164 31.033 544.361 31.137 544.361 31.345C544.361 31.475 544.322 31.683 544.243 31.969C543.901 33.269 543.507 34.322 543.061 35.128C542.614 35.934 542.246 36.454 541.957 36.688C541.668 36.922 541.3 37.13 540.853 37.312C540.643 37.364 540.328 37.39 539.908 37.39C539.014 37.39 538.265 37.195 537.661 36.805C537.057 36.415 536.662 36.012 536.479 35.596L536.242 35.011C536.216 34.985 536.163 34.998 536.084 35.05C536.032 35.102 535.979 35.154 535.927 35.206C534.376 36.662 532.8 37.39 531.197 37.39C529.752 37.39 528.478 36.87 527.374 35.83C526.27 34.79 525.719 33.139 525.719 30.877C525.719 29.629 525.981 28.355 526.507 27.055C527.032 25.755 527.663 24.637 528.399 23.701C529.634 22.219 530.869 21.192 532.104 20.62C533.339 20.048 534.455 19.762 535.454 19.762C536.925 19.762 538.029 20.308 538.765 21.4C538.896 21.556 538.962 21.608 538.962 21.556C538.988 21.452 539.343 20.035 540.026 17.305C540.709 14.575 541.077 13.132 541.129 12.976C541.129 12.638 541.037 12.43 540.853 12.352C540.67 12.274 540.157 12.209 539.316 12.157H538.489C538.331 12.001 538.252 11.897 538.252 11.845C538.252 11.793 538.278 11.546 538.331 11.104C538.462 10.61 538.633 10.363 538.843 10.363ZM538.292 24.286C537.687 22.232 536.702 21.205 535.336 21.205C534.416 21.205 533.536 21.608 532.695 22.414C531.854 23.22 531.197 24.273 530.724 25.573C529.962 27.627 529.423 29.759 529.108 31.969C529.108 32.047 529.108 32.19 529.108 32.398C529.108 32.606 529.095 32.762 529.069 32.866C529.069 34.036 529.305 34.842 529.778 35.284C530.251 35.726 530.816 35.96 531.473 35.986C532.892 35.986 534.35 35.05 535.848 33.178L536.163 32.749L538.292 24.286Z" fill="#D9EBFF"/>
<path d="M546.371 30.877C546.371 28.251 547.37 25.755 549.367 23.389C551.364 21.023 553.61 19.827 556.107 19.801C557.447 19.801 558.629 20.438 559.654 21.712C560.074 20.932 560.679 20.542 561.467 20.542C561.808 20.542 562.111 20.646 562.373 20.854C562.636 21.062 562.767 21.322 562.767 21.634C562.767 21.972 562.281 24.052 561.309 27.874C560.337 31.696 559.838 33.854 559.811 34.348C559.811 34.998 559.903 35.427 560.087 35.635C560.271 35.843 560.547 35.96 560.915 35.986C561.152 35.96 561.414 35.843 561.703 35.635C562.255 35.115 562.794 33.867 563.319 31.891C563.477 31.371 563.608 31.098 563.713 31.072C563.766 31.046 563.897 31.033 564.108 31.033H564.265C564.764 31.033 565.014 31.15 565.014 31.384C565.014 31.54 564.948 31.891 564.817 32.437C564.686 32.983 564.423 33.685 564.029 34.543C563.635 35.401 563.214 36.051 562.767 36.493C562.426 36.831 562.005 37.104 561.506 37.312C561.296 37.364 560.981 37.39 560.56 37.39C559.667 37.39 558.918 37.195 558.314 36.805C557.709 36.415 557.315 36.012 557.131 35.596L556.895 35.011C556.869 34.985 556.816 34.998 556.737 35.05C556.685 35.102 556.632 35.154 556.579 35.206C555.029 36.662 553.453 37.39 551.85 37.39C550.405 37.39 549.13 36.87 548.027 35.83C546.923 34.79 546.371 33.139 546.371 30.877ZM558.905 24.208C558.905 24.052 558.839 23.766 558.708 23.35C558.576 22.934 558.274 22.479 557.801 21.985C557.328 21.491 556.724 21.231 555.988 21.205C555.069 21.205 554.188 21.608 553.348 22.414C552.507 23.22 551.85 24.273 551.377 25.573C550.615 27.627 550.076 29.759 549.761 31.969C549.761 32.047 549.761 32.19 549.761 32.398C549.761 32.606 549.748 32.762 549.722 32.866C549.722 34.036 549.958 34.842 550.431 35.284C550.904 35.726 551.469 35.96 552.126 35.986C553.124 35.986 554.11 35.557 555.082 34.699C556.054 33.841 556.632 33.178 556.816 32.71C556.869 32.606 557.223 31.215 557.88 28.537C558.537 25.859 558.879 24.416 558.905 24.208Z" fill="#D9EBFF"/>
<path d="M568.285 7.789L568.443 7.75C568.574 7.75 568.706 7.75 568.837 7.75H569.31L570.414 8.686C572.884 10.896 574.684 13.652 575.813 16.954C576.943 20.256 577.508 23.688 577.508 27.25C577.508 29.018 577.377 30.721 577.114 32.359C576.851 33.997 576.549 35.388 576.208 36.532C575.866 37.676 575.38 38.82 574.749 39.964C574.119 41.108 573.619 41.979 573.252 42.577C572.884 43.175 572.345 43.838 571.636 44.566C570.926 45.294 570.506 45.723 570.374 45.853C570.243 45.983 569.941 46.23 569.468 46.594C569.389 46.672 569.336 46.724 569.31 46.75H568.837C568.627 46.75 568.482 46.75 568.404 46.75C568.325 46.75 568.259 46.711 568.207 46.633C568.154 46.555 568.115 46.438 568.088 46.282C568.115 46.256 568.259 46.087 568.522 45.775C572.595 41.589 574.631 35.414 574.631 27.25C574.631 19.086 572.595 12.911 568.522 8.725C568.259 8.413 568.115 8.244 568.088 8.218C568.088 8.01 568.154 7.867 568.285 7.789Z" fill="#D9EBFF"/>
<path d="M595.52 12.976C595.52 12.768 595.599 12.586 595.757 12.43C595.914 12.274 596.046 12.196 596.151 12.196C596.361 12.196 598.384 13.08 602.221 14.848C606.057 16.616 609.867 18.397 613.651 20.191C617.434 21.985 619.326 22.895 619.326 22.921C619.51 23.051 619.602 23.246 619.602 23.506C619.602 23.766 619.51 23.961 619.326 24.091C619.274 24.143 615.437 25.95 607.817 29.512L596.466 34.816H596.23C595.757 34.764 595.52 34.504 595.52 34.036C595.52 34.01 595.52 33.971 595.52 33.919C595.494 33.737 595.691 33.529 596.111 33.295C596.611 33.035 598.581 32.099 602.023 30.487C604.073 29.525 605.781 28.732 607.147 28.108L616.922 23.506L606.438 18.592C604.625 17.734 602.523 16.746 600.132 15.628C597.819 14.562 596.479 13.925 596.111 13.717C595.744 13.509 595.546 13.262 595.52 12.976ZM595.56 41.602C595.56 41.342 595.757 41.082 596.151 40.822H618.971C619.392 40.978 619.602 41.238 619.602 41.602C619.602 41.914 619.405 42.174 619.011 42.382H596.111C595.744 42.2 595.56 41.94 595.56 41.602Z" fill="#D9EBFF"/>
<path d="M637.653 14.185C639.125 12.079 641.135 11.026 643.684 11.026C644.945 11.026 646.206 11.364 647.467 12.04C648.729 12.716 649.753 13.912 650.542 15.628C651.514 17.786 652 20.75 652 24.52C652 28.55 651.435 31.631 650.305 33.763C649.78 34.855 649.057 35.726 648.137 36.376C647.218 37.026 646.416 37.429 645.733 37.585C645.05 37.741 644.38 37.832 643.723 37.858C643.04 37.858 642.357 37.78 641.674 37.624C640.991 37.468 640.189 37.052 639.269 36.376C638.35 35.7 637.627 34.829 637.102 33.763C635.972 31.631 635.407 28.55 635.407 24.52C635.407 19.996 636.156 16.551 637.653 14.185ZM646.522 13.717C645.733 12.885 644.8 12.469 643.723 12.469C642.62 12.469 641.674 12.885 640.885 13.717C640.228 14.393 639.795 15.329 639.585 16.525C639.375 17.721 639.269 20.217 639.269 24.013C639.269 28.121 639.375 30.825 639.585 32.125C639.795 33.425 640.268 34.452 641.004 35.206C641.739 35.986 642.646 36.376 643.723 36.376C644.774 36.376 645.668 35.986 646.403 35.206C647.165 34.426 647.638 33.334 647.822 31.93C648.006 30.526 648.111 27.887 648.137 24.013C648.137 20.243 648.032 17.76 647.822 16.564C647.612 15.368 647.178 14.419 646.522 13.717Z" fill="#D9EBFF"/>
</svg>
