<svg width="700" height="234" viewBox="0 0 700 234" fill="none" xmlns="http://www.w3.org/2000/svg">
<g clip-path="url(#clip0_588_6818)">
<rect width="700" height="234" fill="#0A0D12"/>
<g clip-path="url(#clip1_588_6818)">
<rect width="1284" height="1284" transform="translate(-292.5 -525)" fill="#0A0D12"/>
<g opacity="0.4">
<line x1="408.656" y1="-1167" x2="408.656" y2="1401" stroke="#67DBFF" stroke-width="0.917143"/>
<line x1="467.353" y1="-1167" x2="467.353" y2="1401" stroke="#67DBFF" stroke-width="0.917143"/>
<line x1="526.05" y1="-1167" x2="526.05" y2="1401" stroke="#67DBFF" stroke-width="0.917143"/>
<line x1="584.748" y1="-1167" x2="584.747" y2="1401" stroke="#67DBFF" stroke-width="0.917143"/>
<line x1="643.444" y1="-1167" x2="643.444" y2="1401" stroke="#67DBFF" stroke-width="0.917143"/>
<line x1="56.4732" y1="-1167" x2="56.473" y2="1401" stroke="#67DBFF" stroke-width="0.917143"/>
<line x1="115.17" y1="-1167" x2="115.169" y2="1401" stroke="#67DBFF" stroke-width="0.917143"/>
<line x1="173.867" y1="-1167" x2="173.867" y2="1401" stroke="#67DBFF" stroke-width="0.917143"/>
<line x1="232.564" y1="-1167" x2="232.564" y2="1401" stroke="#67DBFF" stroke-width="0.917143"/>
<line x1="291.261" y1="-1167" x2="291.261" y2="1401" stroke="#67DBFF" stroke-width="0.917143"/>
<line x1="-934.5" y1="57.8443" x2="1633.5" y2="57.8443" stroke="#67DBFF" stroke-width="0.917143"/>
<line x1="-934.5" y1="233.936" x2="1633.5" y2="233.936" stroke="#67DBFF" stroke-width="0.917143"/>
<line x1="-934.5" y1="175.239" x2="1633.5" y2="175.239" stroke="#67DBFF" stroke-width="0.917143"/>
</g>
<line x1="349.959" y1="-1167" x2="349.958" y2="1401" stroke="#E6E6E6" stroke-width="0.917143"/>
<line x1="-934.5" y1="116.541" x2="1633.5" y2="116.541" stroke="#E6E6E6" stroke-width="0.917143"/>
</g>
<mask id="path-16-inside-1_588_6818" fill="white">
<path d="M350.5 175C334.985 175 320.105 168.837 309.134 157.866C298.163 146.895 292 132.015 292 116.5C292 100.985 298.163 86.1051 309.134 75.1343C320.105 64.1634 334.985 58 350.5 58L350.5 116.5L350.5 175Z"/>
</mask>
<path d="M350.5 175C334.985 175 320.105 168.837 309.134 157.866C298.163 146.895 292 132.015 292 116.5C292 100.985 298.163 86.1051 309.134 75.1343C320.105 64.1634 334.985 58 350.5 58L350.5 116.5L350.5 175Z" fill="#18FF21" fill-opacity="0.2" stroke="#67FF6D" stroke-width="2" mask="url(#path-16-inside-1_588_6818)"/>
<path d="M348.5 117C348.5 117.828 349.172 118.5 350 118.5C350.828 118.5 351.5 117.828 351.5 117L348.5 117ZM350 58L341.34 73L358.66 73L350 58ZM351.5 117L351.5 71.5L348.5 71.5L348.5 117L351.5 117Z" fill="#EB5757"/>
<g opacity="0.6">
<path d="M287.959 67.2299C287.973 67.2299 288.475 67.1951 289.464 67.1254C290.453 67.0557 290.962 67.0139 290.99 67C291.157 67 291.241 67.0557 291.241 67.1672C291.241 67.2647 290.732 69.3686 289.715 73.4788C288.698 77.589 288.175 79.6859 288.148 79.7695C288.12 79.853 288.113 79.9575 288.127 80.0829C288.127 80.6681 288.322 80.9607 288.712 80.9607C288.837 80.9468 288.977 80.8841 289.13 80.7726C289.422 80.494 289.708 79.8252 289.987 78.7663C290.07 78.4876 290.14 78.3413 290.196 78.3274C290.224 78.3135 290.293 78.3065 290.405 78.3065H290.572C290.781 78.3065 290.885 78.3622 290.885 78.4737C290.885 78.5434 290.864 78.6548 290.823 78.8081C290.642 79.5047 290.433 80.069 290.196 80.5009C289.959 80.9328 289.764 81.2115 289.61 81.3369C289.457 81.4623 289.262 81.5738 289.025 81.6713C288.914 81.6992 288.747 81.7131 288.524 81.7131C288.05 81.7131 287.653 81.6086 287.332 81.3996C287.012 81.1906 286.803 80.9746 286.705 80.7517L286.58 80.4382C286.566 80.4243 286.538 80.4313 286.497 80.4591C286.469 80.487 286.441 80.5149 286.413 80.5427C285.591 81.323 284.755 81.7131 283.905 81.7131C283.139 81.7131 282.463 81.4344 281.878 80.8771C281.293 80.3198 281 79.4351 281 78.2229C281 77.5541 281.139 76.8714 281.418 76.1748C281.697 75.4781 282.031 74.879 282.421 74.3774C283.076 73.5833 283.731 73.0329 284.386 72.7264C285.041 72.4199 285.633 72.2666 286.162 72.2666C286.942 72.2666 287.528 72.5592 287.918 73.1444C287.987 73.228 288.022 73.2558 288.022 73.228C288.036 73.1722 288.224 72.4129 288.586 70.95C288.949 69.487 289.144 68.7137 289.172 68.6301C289.172 68.449 289.123 68.3376 289.025 68.2958C288.928 68.254 288.656 68.2191 288.21 68.1913H287.771C287.688 68.1077 287.646 68.0519 287.646 68.0241C287.646 67.9962 287.66 67.8638 287.688 67.627C287.757 67.3623 287.848 67.2299 287.959 67.2299ZM287.667 74.6909C287.346 73.5902 286.824 73.0399 286.099 73.0399C285.612 73.0399 285.145 73.2558 284.699 73.6878C284.253 74.1197 283.905 74.684 283.654 75.3806C283.25 76.4813 282.965 77.6238 282.797 78.8081C282.797 78.8499 282.797 78.9265 282.797 79.038C282.797 79.1494 282.79 79.233 282.776 79.2888C282.776 79.9157 282.902 80.3477 283.153 80.5845C283.403 80.8214 283.703 80.9468 284.051 80.9607C284.804 80.9607 285.577 80.4591 286.371 79.456L286.538 79.2261L287.667 74.6909Z" fill="white"/>
<path d="M292.766 67.9823C292.766 67.8429 292.794 67.6827 292.85 67.5016C292.906 67.3205 292.989 67.2299 293.101 67.2299C293.115 67.2299 293.616 67.1951 294.605 67.1254C295.595 67.0557 296.103 67.0139 296.131 67C296.298 67 296.382 67.0627 296.382 67.1881C296.382 67.3135 296.145 68.3097 295.671 70.1767C295.56 70.6504 295.441 71.1381 295.316 71.6396C295.191 72.1412 295.086 72.5174 295.003 72.7682L294.919 73.1653C294.919 73.2071 294.961 73.1862 295.044 73.1026C295.727 72.5453 296.431 72.2666 297.155 72.2666C298.019 72.2666 298.716 72.5871 299.245 73.228C299.775 73.8689 300.046 74.677 300.06 75.6523C300.06 77.1988 299.51 78.5991 298.409 79.853C297.308 81.107 296.124 81.734 294.856 81.734C294.16 81.734 293.526 81.4693 292.954 80.9398C292.383 80.4104 292.091 79.5535 292.077 78.3692V78.1811C292.077 77.8885 292.132 77.4845 292.244 76.969C292.355 76.4534 292.697 75.081 293.268 72.8518C293.965 70.107 294.313 68.651 294.313 68.4838C294.313 68.3167 294.048 68.2191 293.519 68.1913C293.449 68.1913 293.393 68.1913 293.351 68.1913H293.247C293.108 68.1913 293.017 68.1913 292.975 68.1913C292.933 68.1913 292.885 68.1704 292.829 68.1286C292.773 68.0868 292.752 68.038 292.766 67.9823ZM298.263 74.7118V74.5864C298.263 73.5554 297.838 73.0399 296.988 73.0399C296.751 73.0399 296.507 73.0956 296.256 73.2071C296.006 73.3185 295.776 73.4648 295.567 73.646C295.358 73.8271 295.177 73.9943 295.023 74.1475C294.87 74.3008 294.745 74.4541 294.647 74.6073L294.522 74.7745L294.083 76.5719C293.776 77.7701 293.623 78.62 293.623 79.1216C293.623 79.7904 293.79 80.2919 294.125 80.6263C294.348 80.8492 294.626 80.9607 294.961 80.9607C295.42 80.9607 295.887 80.7378 296.361 80.2919C296.709 79.9715 296.988 79.5814 297.197 79.1216C297.406 78.6618 297.636 77.9303 297.887 76.9272C298.137 75.924 298.263 75.1855 298.263 74.7118Z" fill="white"/>
</g>
<path d="M361.961 37.2299C361.975 37.2299 362.476 37.1951 363.466 37.1254C364.455 37.0557 364.964 37.0139 364.992 37C365.159 37 365.243 37.0557 365.243 37.1672C365.243 37.2648 364.734 39.3691 363.717 43.4801C362.699 47.5911 362.177 49.6884 362.149 49.772C362.121 49.8556 362.114 49.9602 362.128 50.0856C362.128 50.6709 362.323 50.9635 362.713 50.9635C362.839 50.9496 362.978 50.8869 363.131 50.7754C363.424 50.4967 363.71 49.8278 363.988 48.7687C364.072 48.4899 364.142 48.3436 364.198 48.3297C364.225 48.3158 364.295 48.3088 364.407 48.3088H364.574C364.783 48.3088 364.887 48.3645 364.887 48.476C364.887 48.5457 364.866 48.6572 364.825 48.8105C364.643 49.5072 364.434 50.0716 364.198 50.5036C363.961 50.9357 363.766 51.2144 363.612 51.3398C363.459 51.4652 363.264 51.5767 363.027 51.6742C362.915 51.7021 362.748 51.7161 362.525 51.7161C362.051 51.7161 361.654 51.6115 361.334 51.4025C361.013 51.1935 360.804 50.9775 360.707 50.7545L360.581 50.4409C360.567 50.427 360.539 50.434 360.498 50.4618C360.47 50.4897 360.442 50.5176 360.414 50.5455C359.592 51.3259 358.756 51.7161 357.906 51.7161C357.139 51.7161 356.463 51.4373 355.878 50.8799C355.293 50.3225 355 49.4376 355 48.2252C355 47.5563 355.139 46.8734 355.418 46.1766C355.697 45.4798 356.031 44.8806 356.421 44.3789C357.076 43.5846 357.731 43.0341 358.386 42.7276C359.041 42.421 359.634 42.2677 360.163 42.2677C360.944 42.2677 361.529 42.5603 361.919 43.1456C361.989 43.2292 362.024 43.2571 362.024 43.2292C362.038 43.1735 362.226 42.414 362.588 40.9508C362.95 39.4875 363.145 38.7141 363.173 38.6305C363.173 38.4493 363.124 38.3378 363.027 38.296C362.929 38.2542 362.658 38.2194 362.212 38.1915H361.773C361.689 38.1079 361.647 38.0521 361.647 38.0243C361.647 37.9964 361.661 37.864 361.689 37.6271C361.759 37.3623 361.849 37.2299 361.961 37.2299ZM361.668 44.6925C361.348 43.5916 360.825 43.0411 360.1 43.0411C359.613 43.0411 359.146 43.2571 358.7 43.6891C358.254 44.1211 357.906 44.6855 357.655 45.3823C357.251 46.4832 356.965 47.6259 356.798 48.8105C356.798 48.8523 356.798 48.9289 356.798 49.0404C356.798 49.1519 356.791 49.2355 356.777 49.2912C356.777 49.9184 356.902 50.3504 357.153 50.5873C357.404 50.8242 357.704 50.9496 358.052 50.9635C358.804 50.9635 359.578 50.4618 360.372 49.4585L360.539 49.2285L361.668 44.6925Z" fill="white"/>
<path d="M365.953 48.1834C365.953 46.6644 366.553 45.2987 367.751 44.0863C368.95 42.8739 370.246 42.2677 371.639 42.2677C372.42 42.2677 373.033 42.4349 373.479 42.7694C373.925 43.1038 374.155 43.5428 374.168 44.0863C374.168 44.4904 374.036 44.8318 373.771 45.1105C373.507 45.3893 373.172 45.5356 372.768 45.5495C372.503 45.5495 372.294 45.4798 372.141 45.3405C371.988 45.2011 371.911 44.9921 371.911 44.7134C371.911 44.4347 371.988 44.1978 372.141 44.0027C372.294 43.8076 372.447 43.6612 372.601 43.5637C372.754 43.4661 372.852 43.4243 372.893 43.4383H372.914C372.914 43.4104 372.872 43.3686 372.789 43.3129C372.705 43.2571 372.559 43.2014 372.35 43.1456C372.141 43.0899 371.904 43.062 371.639 43.062C371.221 43.062 370.824 43.1596 370.448 43.3547C370.155 43.4801 369.855 43.6961 369.549 44.0027C368.936 44.6158 368.49 45.4798 368.211 46.5947C367.932 47.7096 367.786 48.5178 367.772 49.0195C367.772 49.6605 367.953 50.1413 368.316 50.4618C368.622 50.7963 369.026 50.9635 369.528 50.9635H369.612C371.172 50.9635 372.461 50.3713 373.479 49.1867C373.604 49.0474 373.688 48.9777 373.73 48.9777C373.785 48.9777 373.876 49.0404 374.001 49.1658C374.127 49.2912 374.196 49.3888 374.21 49.4585C374.224 49.5282 374.162 49.6327 374.022 49.772C373.883 49.9114 373.681 50.1065 373.416 50.3573C373.151 50.6082 372.838 50.8172 372.475 50.9844C372.113 51.1517 371.667 51.3259 371.137 51.507C370.608 51.6882 370.051 51.7648 369.465 51.737C368.42 51.737 367.577 51.4025 366.936 50.7336C366.295 50.0647 365.967 49.2146 365.953 48.1834Z" fill="white"/>
<path d="M374.754 45.5077C374.754 45.3962 374.817 45.1802 374.942 44.8597C375.067 44.5392 375.242 44.1769 375.465 43.7727C375.687 43.3686 375.994 43.0202 376.384 42.7276C376.774 42.4349 377.186 42.2816 377.618 42.2677C378.259 42.2677 378.739 42.4419 379.06 42.7903C379.38 43.1387 379.541 43.5498 379.541 44.0236C379.541 44.2744 379.304 45.0548 378.83 46.3648C378.356 47.6747 378.119 48.6572 378.119 49.3122C378.119 49.9114 378.217 50.3295 378.412 50.5664C378.607 50.8033 378.9 50.9287 379.29 50.9426C379.68 50.9566 380.049 50.8381 380.398 50.5873C380.746 50.3364 381.004 50.0995 381.171 49.8765L381.401 49.5212C381.429 49.4654 381.694 48.4063 382.195 46.3439C382.613 44.6716 382.864 43.6961 382.948 43.4174C383.032 43.1387 383.129 42.9366 383.241 42.8112C383.478 42.6021 383.728 42.4976 383.993 42.4976C384.23 42.4976 384.404 42.5673 384.516 42.7067C384.627 42.846 384.683 42.9784 384.683 43.1038L383.094 49.7511C383.08 49.8208 383.073 49.9323 383.073 50.0856C383.073 50.434 383.122 50.6639 383.22 50.7754C383.317 50.8869 383.464 50.9496 383.659 50.9635C383.965 50.9217 384.209 50.7057 384.39 50.3155C384.571 49.9253 384.78 49.3122 385.017 48.476C385.045 48.3645 385.185 48.3088 385.435 48.3088C385.7 48.3088 385.833 48.3715 385.833 48.4969C385.819 48.5666 385.805 48.6641 385.791 48.7896C385.777 48.915 385.714 49.138 385.603 49.4585C385.491 49.779 385.373 50.0786 385.247 50.3573C385.122 50.636 384.948 50.9008 384.725 51.1517C384.502 51.4025 384.251 51.5767 383.972 51.6742C383.861 51.7021 383.694 51.7161 383.471 51.7161C382.551 51.7161 381.917 51.3259 381.568 50.5455C381.54 50.5594 381.464 50.6291 381.338 50.7545C381.213 50.8799 381.088 50.9844 380.962 51.068C380.837 51.1517 380.683 51.2562 380.502 51.3816C380.321 51.507 380.119 51.5906 379.896 51.6324C379.673 51.6742 379.436 51.7091 379.185 51.737C378.572 51.737 378.029 51.6115 377.555 51.3607C376.83 50.9287 376.468 50.1901 376.468 49.1449C376.468 48.3506 376.712 47.3124 377.199 46.0303C377.687 44.7482 377.931 43.933 377.931 43.5846C377.931 43.5707 377.931 43.5567 377.931 43.5428C377.931 43.4174 377.931 43.3338 377.931 43.2919C377.931 43.2501 377.903 43.2014 377.848 43.1456C377.792 43.0899 377.715 43.062 377.618 43.062H377.534C377.213 43.062 376.921 43.1944 376.656 43.4592C376.391 43.724 376.182 44.0096 376.029 44.3162C375.876 44.6228 375.757 44.9155 375.674 45.1942C375.59 45.4729 375.534 45.6262 375.506 45.654C375.478 45.6819 375.367 45.6958 375.172 45.6958H374.879C374.796 45.6122 374.754 45.5495 374.754 45.5077Z" fill="white"/>
<path d="M386.711 45.5077C386.725 45.4659 386.738 45.4102 386.752 45.3405C386.766 45.2708 386.801 45.1175 386.857 44.8806C386.913 44.6437 386.982 44.4277 387.066 44.2326C387.15 44.0375 387.254 43.8076 387.379 43.5428C387.505 43.278 387.644 43.069 387.798 42.9157C387.951 42.7624 388.132 42.6091 388.341 42.4558C388.55 42.3025 388.78 42.2398 389.031 42.2677C389.435 42.2677 389.79 42.3513 390.097 42.5185C390.404 42.6857 390.62 42.839 390.745 42.9784C390.87 43.1178 390.947 43.2571 390.975 43.3965C391.003 43.4801 391.024 43.5219 391.038 43.5219C391.052 43.5219 391.107 43.4731 391.205 43.3756C391.874 42.6509 392.647 42.2886 393.525 42.2886H393.588C394.257 42.2886 394.758 42.5743 395.093 43.1456C395.204 43.4104 395.26 43.6682 395.26 43.9191C395.26 44.3371 395.17 44.6716 394.988 44.9224C394.807 45.1733 394.626 45.3335 394.445 45.4032C394.264 45.4729 394.09 45.5007 393.922 45.4868C393.644 45.4868 393.421 45.4102 393.253 45.2569C393.086 45.1036 393.003 44.9015 393.003 44.6507C393.003 43.9818 393.393 43.5358 394.173 43.3129C393.867 43.1317 393.616 43.0411 393.421 43.0411C392.64 43.0411 391.923 43.5567 391.268 44.588C391.128 44.8109 391.024 45.0409 390.954 45.2778C390.884 45.5147 390.647 46.4414 390.243 48.0579C389.769 50.0089 389.498 51.0471 389.428 51.1726C389.247 51.5488 388.947 51.737 388.529 51.737C388.348 51.737 388.202 51.6951 388.09 51.6115C387.979 51.5279 387.902 51.4443 387.86 51.3607C387.818 51.2771 387.805 51.2074 387.818 51.1517C387.818 50.9705 388.097 49.772 388.655 47.5563C389.212 45.3405 389.491 44.1072 389.491 43.8563C389.491 43.3129 389.31 43.0411 388.947 43.0411C388.655 43.0411 388.404 43.2362 388.195 43.6264C387.986 44.0166 387.818 44.4416 387.693 44.9015C387.568 45.3614 387.491 45.6122 387.463 45.654C387.435 45.6819 387.324 45.6958 387.129 45.6958H386.836C386.752 45.6122 386.711 45.5495 386.711 45.5077Z" fill="white"/>
<path d="M396.159 45.5077C396.173 45.4659 396.187 45.4102 396.201 45.3405C396.215 45.2708 396.25 45.1175 396.305 44.8806C396.361 44.6437 396.431 44.4277 396.514 44.2326C396.598 44.0375 396.702 43.8076 396.828 43.5428C396.953 43.278 397.093 43.069 397.246 42.9157C397.399 42.7624 397.58 42.6091 397.789 42.4558C397.998 42.3025 398.228 42.2398 398.479 42.2677C398.883 42.2677 399.239 42.3513 399.545 42.5185C399.852 42.6857 400.068 42.839 400.193 42.9784C400.319 43.1178 400.395 43.2571 400.423 43.3965C400.451 43.4801 400.472 43.5219 400.486 43.5219C400.5 43.5219 400.556 43.4731 400.653 43.3756C401.322 42.6509 402.096 42.2886 402.973 42.2886H403.036C403.705 42.2886 404.207 42.5743 404.541 43.1456C404.653 43.4104 404.708 43.6682 404.708 43.9191C404.708 44.3371 404.618 44.6716 404.437 44.9224C404.256 45.1733 404.074 45.3335 403.893 45.4032C403.712 45.4729 403.538 45.5007 403.371 45.4868C403.092 45.4868 402.869 45.4102 402.702 45.2569C402.535 45.1036 402.451 44.9015 402.451 44.6507C402.451 43.9818 402.841 43.5358 403.621 43.3129C403.315 43.1317 403.064 43.0411 402.869 43.0411C402.089 43.0411 401.371 43.5567 400.716 44.588C400.577 44.8109 400.472 45.0409 400.402 45.2778C400.333 45.5147 400.096 46.4414 399.692 48.0579C399.218 50.0089 398.946 51.0471 398.876 51.1726C398.695 51.5488 398.396 51.737 397.978 51.737C397.796 51.737 397.65 51.6951 397.539 51.6115C397.427 51.5279 397.35 51.4443 397.309 51.3607C397.267 51.2771 397.253 51.2074 397.267 51.1517C397.267 50.9705 397.546 49.772 398.103 47.5563C398.66 45.3405 398.939 44.1072 398.939 43.8563C398.939 43.3129 398.758 43.0411 398.396 43.0411C398.103 43.0411 397.852 43.2362 397.643 43.6264C397.434 44.0166 397.267 44.4416 397.141 44.9015C397.016 45.3614 396.939 45.6122 396.911 45.654C396.884 45.6819 396.772 45.6958 396.577 45.6958H396.284C396.201 45.6122 396.159 45.5495 396.159 45.5077Z" fill="white"/>
<path opacity="0.4" d="M348.939 118.061C349.525 118.646 350.475 118.646 351.061 118.061C351.646 117.475 351.646 116.525 351.061 115.939L348.939 118.061ZM310 77L314.483 93.7303L326.73 81.4829L310 77ZM351.061 115.939L320.607 85.4853L318.485 87.6066L348.939 118.061L351.061 115.939Z" fill="#006AE7"/>
<path d="M68.96 32.4004C68.9739 32.4004 69.4755 32.3655 70.4648 32.2958C71.4541 32.2262 71.9627 32.1844 71.9906 32.1704C72.1578 32.1704 72.2414 32.2262 72.2414 32.3377C72.2414 32.4352 71.7328 34.5392 70.7156 38.6497C69.6985 42.7602 69.1759 44.8572 69.1481 44.9408C69.1202 45.0244 69.1132 45.1289 69.1272 45.2543C69.1272 45.8396 69.3222 46.1322 69.7124 46.1322C69.8378 46.1182 69.9771 46.0555 70.1304 45.9441C70.423 45.6654 70.7087 44.9966 70.9873 43.9376C71.0709 43.6589 71.1406 43.5126 71.1964 43.4987C71.2242 43.4847 71.2939 43.4778 71.4054 43.4778H71.5726C71.7816 43.4778 71.8861 43.5335 71.8861 43.645C71.8861 43.7147 71.8652 43.8261 71.8234 43.9794C71.6422 44.6761 71.4332 45.2404 71.1964 45.6724C70.9595 46.1043 70.7644 46.383 70.6111 46.5084C70.4579 46.6338 70.2628 46.7453 70.0259 46.8428C69.9144 46.8707 69.7472 46.8846 69.5243 46.8846C69.0505 46.8846 68.6534 46.7801 68.3329 46.5711C68.0125 46.3621 67.8035 46.1461 67.7059 45.9232L67.5805 45.6097C67.5666 45.5957 67.5387 45.6027 67.4969 45.6306C67.469 45.6584 67.4412 45.6863 67.4133 45.7142C66.5912 46.4945 65.7552 46.8846 64.9052 46.8846C64.1388 46.8846 63.4631 46.6059 62.8778 46.0486C62.2926 45.4912 62 44.6064 62 43.3942C62 42.7253 62.1393 42.0426 62.418 41.3459C62.6967 40.6492 63.0311 40.05 63.4213 39.5484C64.0761 38.7542 64.731 38.2038 65.3859 37.8973C66.0408 37.5907 66.633 37.4374 67.1625 37.4374C67.9428 37.4374 68.528 37.7301 68.9182 38.3153C68.9878 38.3989 69.0227 38.4268 69.0227 38.3989C69.0366 38.3431 69.2247 37.5838 69.587 36.1207C69.9493 34.6576 70.1443 33.8843 70.1722 33.8007C70.1722 33.6196 70.1234 33.5081 70.0259 33.4663C69.9284 33.4245 69.6567 33.3897 69.2108 33.3618H68.7719C68.6883 33.2782 68.6465 33.2225 68.6465 33.1946C68.6465 33.1667 68.6604 33.0343 68.6883 32.7975C68.7579 32.5327 68.8485 32.4004 68.96 32.4004ZM68.6674 39.8619C68.3469 38.7612 67.8244 38.2108 67.0998 38.2108C66.6121 38.2108 66.1453 38.4268 65.6994 38.8587C65.2536 39.2907 64.9052 39.855 64.6544 40.5517C64.2503 41.6524 63.9647 42.795 63.7975 43.9794C63.7975 44.0212 63.7975 44.0978 63.7975 44.2093C63.7975 44.3208 63.7905 44.4044 63.7766 44.4601C63.7766 45.0871 63.902 45.5191 64.1528 45.756C64.4036 45.9928 64.7032 46.1182 65.0515 46.1322C65.8039 46.1322 66.5773 45.6306 67.3715 44.6273L67.5387 44.3974L68.6674 39.8619Z" fill="white"/>
<path d="M73.0565 43.1643C73.0565 42.37 73.1889 41.6455 73.4536 40.9906C73.7184 40.3357 74.0598 39.7923 74.4778 39.3603C74.8958 38.9284 75.3626 38.5661 75.8781 38.2735C76.3937 37.9809 76.8814 37.7649 77.3412 37.6256C77.801 37.4862 78.2399 37.4235 78.6579 37.4374H78.7206C79.3477 37.4374 79.8911 37.5907 80.3509 37.8973C80.8107 38.2038 81.0406 38.6567 81.0406 39.2558C81.0406 40.5099 80.2673 41.332 78.7206 41.7221C78.0379 41.9033 77.1043 42.0008 75.9199 42.0147C75.4044 42.0147 75.1396 42.0287 75.1257 42.0565C75.1257 42.0844 75.0839 42.3282 75.0003 42.7881C74.9167 43.2479 74.8679 43.652 74.854 44.0003C74.854 44.6552 75.0003 45.1707 75.2929 45.547C75.5855 45.9232 76.0244 46.1182 76.6097 46.1322C77.1949 46.1461 77.8428 46.0137 78.5534 45.7351C79.2641 45.4564 79.905 44.9966 80.4763 44.3556C80.6017 44.2163 80.6853 44.1466 80.7271 44.1466C80.7829 44.1466 80.8734 44.2093 80.9988 44.3347C81.1242 44.4601 81.1939 44.5577 81.2078 44.6273C81.2218 44.697 81.1591 44.8085 81.0197 44.9617C80.8804 45.115 80.6714 45.3031 80.3927 45.5261C80.114 45.749 79.7935 45.965 79.4313 46.174C79.069 46.383 78.6301 46.5572 78.1145 46.6965C77.599 46.8358 77.0695 46.9055 76.5261 46.9055C75.4253 46.9055 74.5753 46.5363 73.9762 45.7978C73.377 45.0593 73.0705 44.1814 73.0565 43.1643ZM80.0374 39.2976C79.9538 38.5731 79.48 38.2108 78.6161 38.2108C78.1563 38.2108 77.7313 38.3083 77.3412 38.5034C76.951 38.6985 76.6375 38.9353 76.4007 39.214C76.1638 39.4927 75.9617 39.7783 75.7945 40.0709C75.6273 40.3636 75.5159 40.6144 75.4601 40.8234C75.4044 41.0324 75.3695 41.1648 75.3556 41.2205C75.3556 41.2344 75.4949 41.2414 75.7736 41.2414C77.3482 41.2414 78.4489 41.0742 79.076 40.7398C79.703 40.4054 80.0235 39.9246 80.0374 39.2976Z" fill="white"/>
<path d="M82.5455 38.6288C82.4479 38.5313 82.3992 38.4616 82.3992 38.4198C82.3992 38.364 82.4201 38.2526 82.4619 38.0854C82.5037 37.9182 82.5385 37.8206 82.5664 37.7928C82.5943 37.7231 82.657 37.6883 82.7545 37.6883C82.852 37.6883 83.2073 37.6813 83.8204 37.6674H84.9282L85.3253 35.9953C85.3671 35.842 85.4159 35.64 85.4716 35.3892C85.5273 35.1384 85.5761 34.9572 85.6179 34.8457C85.6597 34.7343 85.7015 34.5949 85.7433 34.4277C85.7851 34.2605 85.8408 34.1421 85.9105 34.0724C85.9802 34.0027 86.0499 33.9191 86.1195 33.8216C86.1892 33.7241 86.2867 33.6614 86.4121 33.6335C86.5375 33.6056 86.6629 33.5917 86.7883 33.5917C87.0392 33.6056 87.2133 33.6823 87.3109 33.8216C87.4084 33.9609 87.4572 34.0933 87.4572 34.2187C87.4572 34.3163 87.3945 34.6437 87.2691 35.2011C87.1437 35.7584 87.0043 36.3088 86.8511 36.8522L86.642 37.6256C86.642 37.6534 86.9904 37.6674 87.6871 37.6674H88.753C88.8506 37.7649 88.8993 37.8415 88.8993 37.8973C88.8993 38.2038 88.8088 38.4477 88.6276 38.6288H86.3912L85.6388 41.6594C85.0954 43.8888 84.8237 45.0871 84.8237 45.2543C84.8237 45.8396 85.0118 46.1322 85.388 46.1322C85.8757 46.1322 86.3494 45.8953 86.8092 45.4216C87.2691 44.9478 87.6383 44.3626 87.917 43.6659C87.9449 43.5823 87.9797 43.5335 88.0215 43.5196C88.0633 43.5056 88.1678 43.4917 88.335 43.4778H88.4186C88.6276 43.4778 88.7321 43.5335 88.7321 43.645C88.7321 43.6868 88.7112 43.7704 88.6694 43.8958C88.5998 44.1187 88.4743 44.3835 88.2932 44.69C88.1121 44.9966 87.8752 45.324 87.5826 45.6724C87.29 46.0207 86.9347 46.3133 86.5166 46.5502C86.0986 46.7871 85.6736 46.9055 85.2417 46.9055C84.8237 46.9055 84.4266 46.801 84.0503 46.592C83.6741 46.383 83.4024 46.0207 83.2352 45.5052C83.2073 45.3937 83.1934 45.2056 83.1934 44.9408V44.5646L83.9249 41.6385C84.4126 39.6738 84.6634 38.6845 84.6774 38.6706C84.6774 38.6427 84.3221 38.6288 83.6114 38.6288H82.5455Z" fill="white"/>
<path d="M91.5119 41.4504C91.5119 40.489 91.5816 39.5763 91.7209 38.7124C91.8603 37.8485 92.0205 37.103 92.2017 36.476C92.3828 35.849 92.6406 35.2359 92.975 34.6367C93.3094 34.0376 93.5741 33.5708 93.7692 33.2364C93.9643 32.902 94.2569 32.5397 94.647 32.1495C95.0372 31.7594 95.2671 31.5225 95.3368 31.4389C95.4064 31.3553 95.5806 31.209 95.8593 31H96.2146C96.4097 31 96.5072 31.0627 96.5072 31.1881C96.5072 31.2299 96.3888 31.3762 96.1519 31.627C95.915 31.8778 95.6294 32.2471 95.295 32.7348C94.9606 33.2225 94.6192 33.8216 94.2708 34.5322C93.9225 35.2429 93.6299 36.2043 93.393 37.4165C93.1561 38.6288 93.0377 39.9734 93.0377 41.4504C93.0377 42.9274 93.1561 44.265 93.393 45.4634C93.6299 46.6617 93.9155 47.6301 94.2499 48.3686C94.5843 49.1071 94.9257 49.7062 95.2741 50.166C95.6224 50.6259 95.915 50.9951 96.1519 51.2738C96.3888 51.5525 96.5072 51.6988 96.5072 51.7127C96.5072 51.8381 96.4027 51.9008 96.1937 51.9008H95.8593L95.2741 51.3992C93.9643 50.2148 93.0098 48.7378 92.4107 46.9682C91.8115 45.1986 91.5119 43.3593 91.5119 41.4504Z" fill="white"/>
<path d="M105.348 32.4004C105.362 32.4004 105.864 32.3655 106.853 32.2958C107.842 32.2262 108.351 32.1844 108.379 32.1704C108.546 32.1704 108.63 32.2262 108.63 32.3377C108.63 32.4352 108.121 34.5392 107.104 38.6497C106.087 42.7602 105.564 44.8572 105.536 44.9408C105.509 45.0244 105.502 45.1289 105.515 45.2543C105.515 45.8396 105.711 46.1322 106.101 46.1322C106.226 46.1182 106.365 46.0555 106.519 45.9441C106.811 45.6654 107.097 44.9966 107.376 43.9376C107.459 43.6589 107.529 43.5126 107.585 43.4987C107.613 43.4847 107.682 43.4778 107.794 43.4778H107.961C108.17 43.4778 108.274 43.5335 108.274 43.645C108.274 43.7147 108.253 43.8261 108.212 43.9794C108.031 44.6761 107.822 45.2404 107.585 45.6724C107.348 46.1043 107.153 46.383 106.999 46.5084C106.846 46.6338 106.651 46.7453 106.414 46.8428C106.303 46.8707 106.136 46.8846 105.913 46.8846C105.439 46.8846 105.042 46.7801 104.721 46.5711C104.401 46.3621 104.192 46.1461 104.094 45.9232L103.969 45.6097C103.955 45.5957 103.927 45.6027 103.885 45.6306C103.857 45.6584 103.829 45.6863 103.802 45.7142C102.98 46.4945 102.143 46.8846 101.294 46.8846C100.527 46.8846 99.8514 46.6059 99.2661 46.0486C98.6809 45.4912 98.3883 44.6064 98.3883 43.3942C98.3883 42.7253 98.5276 42.0426 98.8063 41.3459C99.085 40.6492 99.4194 40.05 99.8095 39.5484C100.464 38.7542 101.119 38.2038 101.774 37.8973C102.429 37.5907 103.021 37.4374 103.551 37.4374C104.331 37.4374 104.916 37.7301 105.306 38.3153C105.376 38.3989 105.411 38.4268 105.411 38.3989C105.425 38.3431 105.613 37.5838 105.975 36.1207C106.338 34.6576 106.533 33.8843 106.561 33.8007C106.561 33.6196 106.512 33.5081 106.414 33.4663C106.317 33.4245 106.045 33.3897 105.599 33.3618H105.16C105.077 33.2782 105.035 33.2225 105.035 33.1946C105.035 33.1667 105.049 33.0343 105.077 32.7975C105.146 32.5327 105.237 32.4004 105.348 32.4004ZM105.056 39.8619C104.735 38.7612 104.213 38.2108 103.488 38.2108C103 38.2108 102.534 38.4268 102.088 38.8587C101.642 39.2907 101.294 39.855 101.043 40.5517C100.639 41.6524 100.353 42.795 100.186 43.9794C100.186 44.0212 100.186 44.0978 100.186 44.2093C100.186 44.3208 100.179 44.4044 100.165 44.4601C100.165 45.0871 100.29 45.5191 100.541 45.756C100.792 45.9928 101.091 46.1182 101.44 46.1322C102.192 46.1322 102.966 45.6306 103.76 44.6273L103.927 44.3974L105.056 39.8619Z" fill="white"/>
<path d="M109.34 43.3524C109.34 41.8336 109.939 40.4681 111.138 39.2558C112.336 38.0436 113.632 37.4374 115.025 37.4374C115.806 37.4374 116.419 37.6047 116.865 37.9391C117.31 38.2735 117.54 38.7124 117.554 39.2558C117.554 39.6599 117.422 40.0013 117.157 40.28C116.892 40.5586 116.558 40.7049 116.154 40.7189C115.889 40.7189 115.68 40.6492 115.527 40.5099C115.374 40.3705 115.297 40.1615 115.297 39.8828C115.297 39.6042 115.374 39.3673 115.527 39.1722C115.68 38.9771 115.833 38.8308 115.987 38.7333C116.14 38.6358 116.238 38.594 116.279 38.6079H116.3C116.3 38.58 116.258 38.5382 116.175 38.4825C116.091 38.4268 115.945 38.371 115.736 38.3153C115.527 38.2595 115.29 38.2317 115.025 38.2317C114.607 38.2317 114.21 38.3292 113.834 38.5243C113.541 38.6497 113.242 38.8657 112.935 39.1722C112.322 39.7853 111.876 40.6492 111.598 41.7639C111.319 42.8786 111.173 43.6868 111.159 44.1884C111.159 44.8294 111.34 45.3101 111.702 45.6306C112.009 45.965 112.413 46.1322 112.914 46.1322H112.998C114.559 46.1322 115.847 45.54 116.865 44.3556C116.99 44.2163 117.074 44.1466 117.115 44.1466C117.171 44.1466 117.262 44.2093 117.387 44.3347C117.513 44.4601 117.582 44.5577 117.596 44.6273C117.61 44.697 117.547 44.8015 117.408 44.9408C117.269 45.0802 117.067 45.2752 116.802 45.5261C116.537 45.7769 116.224 45.9859 115.861 46.1531C115.499 46.3203 115.053 46.4945 114.524 46.6756C113.994 46.8567 113.437 46.9334 112.852 46.9055C111.807 46.9055 110.964 46.5711 110.323 45.9023C109.682 45.2334 109.354 44.3835 109.34 43.3524Z" fill="white"/>
<path d="M118.14 40.6771C118.14 40.5656 118.202 40.3496 118.328 40.0291C118.453 39.7087 118.627 39.3464 118.85 38.9423C119.073 38.5382 119.38 38.1899 119.77 37.8973C120.16 37.6047 120.571 37.4514 121.003 37.4374C121.644 37.4374 122.125 37.6116 122.445 37.96C122.766 38.3083 122.926 38.7194 122.926 39.1931C122.926 39.4439 122.689 40.2242 122.215 41.534C121.741 42.8438 121.505 43.8261 121.505 44.481C121.505 45.0802 121.602 45.4982 121.797 45.7351C121.992 45.9719 122.285 46.0973 122.675 46.1113C123.065 46.1252 123.434 46.0068 123.783 45.756C124.131 45.5052 124.389 45.2683 124.556 45.0453L124.786 44.69C124.814 44.6343 125.079 43.5753 125.58 41.5131C125.998 39.841 126.249 38.8657 126.333 38.587C126.416 38.3083 126.514 38.1063 126.625 37.9809C126.862 37.7719 127.113 37.6674 127.378 37.6674C127.615 37.6674 127.789 37.737 127.9 37.8764C128.012 38.0157 128.067 38.1481 128.067 38.2735L126.479 44.9199C126.465 44.9896 126.458 45.1011 126.458 45.2543C126.458 45.6027 126.507 45.8326 126.604 45.9441C126.702 46.0555 126.848 46.1182 127.043 46.1322C127.35 46.0904 127.594 45.8744 127.775 45.4843C127.956 45.0941 128.165 44.481 128.402 43.645C128.43 43.5335 128.569 43.4778 128.82 43.4778C129.085 43.4778 129.217 43.5405 129.217 43.6659C129.203 43.7356 129.189 43.8331 129.175 43.9585C129.161 44.0839 129.099 44.3068 128.987 44.6273C128.876 44.9478 128.757 45.2474 128.632 45.5261C128.506 45.8047 128.332 46.0695 128.109 46.3203C127.886 46.5711 127.635 46.7453 127.357 46.8428C127.245 46.8707 127.078 46.8846 126.855 46.8846C125.936 46.8846 125.302 46.4945 124.953 45.7142C124.925 45.7281 124.849 45.7978 124.723 45.9232C124.598 46.0486 124.472 46.1531 124.347 46.2367C124.222 46.3203 124.068 46.4248 123.887 46.5502C123.706 46.6756 123.504 46.7592 123.281 46.801C123.058 46.8428 122.821 46.8776 122.571 46.9055C121.957 46.9055 121.414 46.7801 120.94 46.5293C120.216 46.0973 119.853 45.3588 119.853 44.3138C119.853 43.5196 120.097 42.4815 120.585 41.1996C121.073 39.9177 121.316 39.1025 121.316 38.7542C121.316 38.7403 121.316 38.7263 121.316 38.7124C121.316 38.587 121.316 38.5034 121.316 38.4616C121.316 38.4198 121.289 38.371 121.233 38.3153C121.177 38.2595 121.1 38.2317 121.003 38.2317H120.919C120.599 38.2317 120.306 38.364 120.042 38.6288C119.777 38.8935 119.568 39.1792 119.414 39.4857C119.261 39.7923 119.143 40.0849 119.059 40.3636C118.976 40.6422 118.92 40.7955 118.892 40.8234C118.864 40.8512 118.753 40.8652 118.558 40.8652H118.265C118.181 40.7816 118.14 40.7189 118.14 40.6771Z" fill="white"/>
<path d="M130.095 40.6771C130.109 40.6353 130.123 40.5795 130.137 40.5099C130.151 40.4402 130.185 40.2869 130.241 40.05C130.297 39.8132 130.367 39.5972 130.45 39.4021C130.534 39.207 130.638 38.9771 130.764 38.7124C130.889 38.4477 131.028 38.2386 131.182 38.0854C131.335 37.9321 131.516 37.7788 131.725 37.6256C131.934 37.4723 132.164 37.4096 132.415 37.4374C132.819 37.4374 133.174 37.5211 133.481 37.6883C133.787 37.8555 134.003 38.0087 134.129 38.1481C134.254 38.2874 134.331 38.4268 134.359 38.5661C134.386 38.6497 134.407 38.6915 134.421 38.6915C134.435 38.6915 134.491 38.6427 134.588 38.5452C135.257 37.8206 136.031 37.4583 136.908 37.4583H136.971C137.64 37.4583 138.142 37.744 138.476 38.3153C138.587 38.58 138.643 38.8378 138.643 39.0886C138.643 39.5066 138.553 39.841 138.372 40.0918C138.19 40.3427 138.009 40.5029 137.828 40.5726C137.647 40.6422 137.473 40.6701 137.306 40.6562C137.027 40.6562 136.804 40.5795 136.637 40.4263C136.47 40.273 136.386 40.0709 136.386 39.8201C136.386 39.1513 136.776 38.7054 137.556 38.4825C137.25 38.3013 136.999 38.2108 136.804 38.2108C136.024 38.2108 135.306 38.7263 134.651 39.7574C134.512 39.9804 134.407 40.2103 134.338 40.4472C134.268 40.684 134.031 41.6106 133.627 43.227C133.153 45.1777 132.882 46.2158 132.812 46.3412C132.631 46.7174 132.331 46.9055 131.913 46.9055C131.732 46.9055 131.586 46.8637 131.474 46.7801C131.363 46.6965 131.286 46.6129 131.244 46.5293C131.203 46.4457 131.189 46.376 131.203 46.3203C131.203 46.1391 131.481 44.9408 132.039 42.7253C132.596 40.5099 132.875 39.2767 132.875 39.0259C132.875 38.4825 132.693 38.2108 132.331 38.2108C132.039 38.2108 131.788 38.4059 131.579 38.796C131.37 39.1861 131.203 39.6111 131.077 40.0709C130.952 40.5308 130.875 40.7816 130.847 40.8234C130.819 40.8512 130.708 40.8652 130.513 40.8652H130.22C130.137 40.7816 130.095 40.7189 130.095 40.6771Z" fill="white"/>
<path d="M139.542 40.6771C139.556 40.6353 139.57 40.5795 139.584 40.5099C139.598 40.4402 139.633 40.2869 139.688 40.05C139.744 39.8132 139.814 39.5972 139.897 39.4021C139.981 39.207 140.085 38.9771 140.211 38.7124C140.336 38.4477 140.476 38.2386 140.629 38.0854C140.782 37.9321 140.963 37.7788 141.172 37.6256C141.381 37.4723 141.611 37.4096 141.862 37.4374C142.266 37.4374 142.621 37.5211 142.928 37.6883C143.234 37.8555 143.45 38.0087 143.576 38.1481C143.701 38.2874 143.778 38.4268 143.806 38.5661C143.834 38.6497 143.855 38.6915 143.868 38.6915C143.882 38.6915 143.938 38.6427 144.036 38.5452C144.704 37.8206 145.478 37.4583 146.356 37.4583H146.418C147.087 37.4583 147.589 37.744 147.923 38.3153C148.035 38.58 148.09 38.8378 148.09 39.0886C148.09 39.5066 148 39.841 147.819 40.0918C147.638 40.3427 147.456 40.5029 147.275 40.5726C147.094 40.6422 146.92 40.6701 146.753 40.6562C146.474 40.6562 146.251 40.5795 146.084 40.4263C145.917 40.273 145.833 40.0709 145.833 39.8201C145.833 39.1513 146.223 38.7054 147.004 38.4825C146.697 38.3013 146.446 38.2108 146.251 38.2108C145.471 38.2108 144.753 38.7263 144.098 39.7574C143.959 39.9804 143.854 40.2103 143.785 40.4472C143.715 40.684 143.478 41.6106 143.074 43.227C142.6 45.1777 142.329 46.2158 142.259 46.3412C142.078 46.7174 141.778 46.9055 141.36 46.9055C141.179 46.9055 141.033 46.8637 140.921 46.7801C140.81 46.6965 140.733 46.6129 140.692 46.5293C140.65 46.4457 140.636 46.376 140.65 46.3203C140.65 46.1391 140.928 44.9408 141.486 42.7253C142.043 40.5099 142.322 39.2767 142.322 39.0259C142.322 38.4825 142.141 38.2108 141.778 38.2108C141.486 38.2108 141.235 38.4059 141.026 38.796C140.817 39.1861 140.65 39.6111 140.524 40.0709C140.399 40.5308 140.322 40.7816 140.294 40.8234C140.267 40.8512 140.155 40.8652 139.96 40.8652H139.667C139.584 40.7816 139.542 40.7189 139.542 40.6771Z" fill="white"/>
<path d="M150.16 45.9441C150.16 45.9441 150.16 45.7699 150.16 45.4216C150.16 45.0732 150.271 44.7736 150.494 44.5228C150.717 44.272 151.017 44.1466 151.393 44.1466C151.783 44.1466 152.131 44.3208 152.438 44.6691C152.744 45.0175 152.905 45.6306 152.918 46.5084C152.918 46.9961 152.856 47.4698 152.73 47.9296C152.605 48.3895 152.459 48.7866 152.291 49.121C152.124 49.4554 151.943 49.7411 151.748 49.9779C151.553 50.2148 151.386 50.4029 151.246 50.5422C151.107 50.6816 151.017 50.7443 150.975 50.7304C150.919 50.7304 150.828 50.6677 150.703 50.5422C150.578 50.4168 150.515 50.3263 150.515 50.2705C150.515 50.2148 150.592 50.1033 150.745 49.9361C150.898 49.7689 151.072 49.5599 151.267 49.3091C151.462 49.0583 151.644 48.7099 151.811 48.2641C151.978 47.8182 152.089 47.3096 152.145 46.7383V46.4875L152.124 46.5084C152.096 46.5223 152.062 46.5363 152.02 46.5502C151.978 46.5641 151.936 46.585 151.894 46.6129C151.853 46.6408 151.79 46.6547 151.706 46.6547C151.623 46.6547 151.539 46.6617 151.455 46.6756C151.079 46.6756 150.773 46.5572 150.536 46.3203L150.16 45.9441Z" fill="white"/>
<path d="M165.48 32.4004C165.494 32.4004 165.995 32.3655 166.985 32.2958C167.974 32.2262 168.483 32.1844 168.51 32.1704C168.678 32.1704 168.761 32.2262 168.761 32.3377C168.761 32.4352 168.253 34.5392 167.236 38.6497C166.218 42.7602 165.696 44.8572 165.668 44.9408C165.64 45.0244 165.633 45.1289 165.647 45.2543C165.647 45.8396 165.842 46.1322 166.232 46.1322C166.358 46.1182 166.497 46.0555 166.65 45.9441C166.943 45.6654 167.229 44.9966 167.507 43.9376C167.591 43.6589 167.661 43.5126 167.716 43.4987C167.744 43.4847 167.814 43.4778 167.925 43.4778H168.092C168.301 43.4778 168.406 43.5335 168.406 43.645C168.406 43.7147 168.385 43.8261 168.343 43.9794C168.162 44.6761 167.953 45.2404 167.716 45.6724C167.479 46.1043 167.284 46.383 167.131 46.5084C166.978 46.6338 166.783 46.7453 166.546 46.8428C166.434 46.8707 166.267 46.8846 166.044 46.8846C165.57 46.8846 165.173 46.7801 164.853 46.5711C164.532 46.3621 164.323 46.1461 164.226 45.9232L164.1 45.6097C164.086 45.5957 164.059 45.6027 164.017 45.6306C163.989 45.6584 163.961 45.6863 163.933 45.7142C163.111 46.4945 162.275 46.8846 161.425 46.8846C160.659 46.8846 159.983 46.6059 159.398 46.0486C158.813 45.4912 158.52 44.6064 158.52 43.3942C158.52 42.7253 158.659 42.0426 158.938 41.3459C159.217 40.6492 159.551 40.05 159.941 39.5484C160.596 38.7542 161.251 38.2038 161.906 37.8973C162.561 37.5907 163.153 37.4374 163.682 37.4374C164.463 37.4374 165.048 37.7301 165.438 38.3153C165.508 38.3989 165.543 38.4268 165.543 38.3989C165.556 38.3431 165.745 37.5838 166.107 36.1207C166.469 34.6576 166.664 33.8843 166.692 33.8007C166.692 33.6196 166.643 33.5081 166.546 33.4663C166.448 33.4245 166.177 33.3897 165.731 33.3618H165.292C165.208 33.2782 165.166 33.2225 165.166 33.1946C165.166 33.1667 165.18 33.0343 165.208 32.7975C165.278 32.5327 165.368 32.4004 165.48 32.4004ZM165.187 39.8619C164.867 38.7612 164.344 38.2108 163.62 38.2108C163.132 38.2108 162.665 38.4268 162.219 38.8587C161.773 39.2907 161.425 39.855 161.174 40.5517C160.77 41.6524 160.485 42.795 160.317 43.9794C160.317 44.0212 160.317 44.0978 160.317 44.2093C160.317 44.3208 160.31 44.4044 160.296 44.4601C160.296 45.0871 160.422 45.5191 160.673 45.756C160.923 45.9928 161.223 46.1182 161.571 46.1322C162.324 46.1322 163.097 45.6306 163.891 44.6273L164.059 44.3974L165.187 39.8619Z" fill="white"/>
<path d="M169.472 43.3942C169.472 41.9869 170.001 40.6492 171.06 39.3812C172.119 38.1132 173.311 37.4723 174.634 37.4583C175.345 37.4583 175.972 37.7997 176.515 38.4825C176.738 38.0645 177.059 37.8555 177.477 37.8555C177.658 37.8555 177.818 37.9112 177.958 38.0227C178.097 38.1341 178.167 38.2735 178.167 38.4407C178.167 38.6218 177.909 39.7365 177.393 41.7848C176.878 43.8331 176.613 44.9896 176.599 45.2543C176.599 45.6027 176.648 45.8326 176.745 45.9441C176.843 46.0555 176.989 46.1182 177.184 46.1322C177.31 46.1182 177.449 46.0555 177.602 45.9441C177.895 45.6654 178.181 44.9966 178.459 43.9376C178.543 43.6589 178.613 43.5126 178.668 43.4987C178.696 43.4847 178.766 43.4778 178.877 43.4778H178.961C179.226 43.4778 179.358 43.5405 179.358 43.6659C179.358 43.7495 179.323 43.9376 179.253 44.2302C179.184 44.5228 179.044 44.899 178.835 45.3588C178.626 45.8187 178.404 46.167 178.167 46.4039C177.986 46.585 177.763 46.7313 177.498 46.8428C177.386 46.8707 177.219 46.8846 176.996 46.8846C176.522 46.8846 176.125 46.7801 175.805 46.5711C175.484 46.3621 175.275 46.1461 175.178 45.9232L175.052 45.6097C175.038 45.5957 175.011 45.6027 174.969 45.6306C174.941 45.6584 174.913 45.6863 174.885 45.7142C174.063 46.4945 173.227 46.8846 172.377 46.8846C171.611 46.8846 170.935 46.6059 170.35 46.0486C169.765 45.4912 169.472 44.6064 169.472 43.3942ZM176.118 39.8201C176.118 39.7365 176.084 39.5833 176.014 39.3603C175.944 39.1374 175.784 38.8935 175.533 38.6288C175.282 38.364 174.962 38.2247 174.572 38.2108C174.084 38.2108 173.617 38.4268 173.171 38.8587C172.725 39.2907 172.377 39.855 172.126 40.5517C171.722 41.6524 171.437 42.795 171.269 43.9794C171.269 44.0212 171.269 44.0978 171.269 44.2093C171.269 44.3208 171.262 44.4044 171.248 44.4601C171.248 45.0871 171.374 45.5191 171.625 45.756C171.876 45.9928 172.175 46.1182 172.523 46.1322C173.053 46.1322 173.575 45.9023 174.091 45.4425C174.607 44.9826 174.913 44.6273 175.011 44.3765C175.038 44.3208 175.227 43.5753 175.575 42.1401C175.923 40.7049 176.104 39.9316 176.118 39.8201Z" fill="white"/>
<path d="M181.093 31.0209L181.176 31C181.246 31 181.316 31 181.385 31H181.636L182.221 31.5016C183.531 32.686 184.486 34.163 185.085 35.9326C185.684 37.7022 185.984 39.5415 185.984 41.4504C185.984 42.3979 185.914 43.3106 185.775 44.1884C185.635 45.0662 185.475 45.8117 185.294 46.4248C185.113 47.0379 184.855 47.651 184.52 48.2641C184.186 48.8772 183.921 49.3439 183.726 49.6644C183.531 49.9849 183.246 50.3402 182.869 50.7304C182.493 51.1205 182.27 51.3504 182.201 51.4201C182.131 51.4898 181.971 51.6221 181.72 51.8172C181.678 51.859 181.65 51.8869 181.636 51.9008H181.385C181.274 51.9008 181.197 51.9008 181.155 51.9008C181.114 51.9008 181.079 51.8799 181.051 51.8381C181.023 51.7963 181.002 51.7336 180.988 51.65C181.002 51.6361 181.079 51.5455 181.218 51.3783C183.378 49.1349 184.458 45.8256 184.458 41.4504C184.458 37.0752 183.378 33.7659 181.218 31.5225C181.079 31.3553 181.002 31.2647 180.988 31.2508C180.988 31.1393 181.023 31.0627 181.093 31.0209Z" fill="white"/>
<path d="M195.514 33.8007C195.514 33.6892 195.556 33.5917 195.64 33.5081C195.723 33.4245 195.793 33.3827 195.849 33.3827C195.96 33.3827 197.033 33.8564 199.067 34.8039C201.102 35.7514 203.122 36.7059 205.129 37.6674C207.135 38.6288 208.138 39.1165 208.138 39.1304C208.236 39.2001 208.285 39.3046 208.285 39.4439C208.285 39.5833 208.236 39.6878 208.138 39.7574C208.111 39.7853 206.076 40.7537 202.035 42.6626L196.016 45.5052H195.891C195.64 45.4773 195.514 45.3379 195.514 45.0871C195.514 45.0732 195.514 45.0523 195.514 45.0244C195.5 44.9269 195.605 44.8154 195.828 44.69C196.093 44.5507 197.138 44.0491 198.963 43.1852C200.05 42.6696 200.955 42.2446 201.68 41.9102L206.863 39.4439L201.304 36.8104C200.342 36.3506 199.228 35.8211 197.96 35.222C196.734 34.6507 196.023 34.3093 195.828 34.1978C195.633 34.0864 195.528 33.954 195.514 33.8007ZM195.535 49.1419C195.535 49.0026 195.64 48.8632 195.849 48.7239H207.95C208.173 48.8075 208.285 48.9468 208.285 49.1419C208.285 49.3091 208.18 49.4484 207.971 49.5599H195.828C195.633 49.4624 195.535 49.323 195.535 49.1419Z" fill="white"/>
<path d="M217.878 34.4486C218.658 33.32 219.724 32.7557 221.076 32.7557C221.745 32.7557 222.414 32.9368 223.082 33.2991C223.751 33.6614 224.295 34.3023 224.713 35.222C225.228 36.3785 225.486 37.9669 225.486 39.9873C225.486 42.1471 225.186 43.7983 224.587 44.9408C224.309 45.5261 223.925 45.9928 223.438 46.3412C222.95 46.6895 222.525 46.9055 222.163 46.9891C221.801 47.0727 221.445 47.1215 221.097 47.1354C220.735 47.1354 220.372 47.0936 220.01 47.01C219.648 46.9264 219.223 46.7035 218.735 46.3412C218.247 45.9789 217.864 45.5121 217.586 44.9408C216.986 43.7983 216.687 42.1471 216.687 39.9873C216.687 37.5629 217.084 35.7166 217.878 34.4486ZM222.581 34.1978C222.163 33.7519 221.668 33.529 221.097 33.529C220.512 33.529 220.01 33.7519 219.592 34.1978C219.244 34.5601 219.014 35.0617 218.902 35.7027C218.791 36.3436 218.735 37.6813 218.735 39.7156C218.735 41.9172 218.791 43.3663 218.902 44.063C219.014 44.7597 219.265 45.3101 219.655 45.7142C220.045 46.1322 220.526 46.3412 221.097 46.3412C221.654 46.3412 222.128 46.1322 222.518 45.7142C222.922 45.2961 223.173 44.7109 223.271 43.9585C223.368 43.2061 223.424 41.7918 223.438 39.7156C223.438 37.6952 223.382 36.3645 223.271 35.7236C223.159 35.0826 222.929 34.574 222.581 34.1978Z" fill="white"/>
</g>
<defs>
<clipPath id="clip0_588_6818">
<rect width="700" height="234" fill="white"/>
</clipPath>
<clipPath id="clip1_588_6818">
<rect width="1284" height="1284" fill="white" transform="translate(-292.5 -525)"/>
</clipPath>
</defs>
</svg>
