<svg width="700" height="234" viewBox="0 0 700 234" fill="none" xmlns="http://www.w3.org/2000/svg">
<g clip-path="url(#clip0_588_6826)">
<rect width="700" height="234" fill="#0A0D12"/>
<g clip-path="url(#clip1_588_6826)">
<rect width="1284" height="1284" transform="translate(-292.5 -525)" fill="#0A0D12"/>
<g opacity="0.4">
<line x1="408.656" y1="-1167" x2="408.656" y2="1401" stroke="#67DBFF" stroke-width="0.917143"/>
<line x1="467.353" y1="-1167" x2="467.353" y2="1401" stroke="#67DBFF" stroke-width="0.917143"/>
<line x1="526.05" y1="-1167" x2="526.05" y2="1401" stroke="#67DBFF" stroke-width="0.917143"/>
<line x1="584.748" y1="-1167" x2="584.747" y2="1401" stroke="#67DBFF" stroke-width="0.917143"/>
<line x1="643.444" y1="-1167" x2="643.444" y2="1401" stroke="#67DBFF" stroke-width="0.917143"/>
<line x1="56.4732" y1="-1167" x2="56.473" y2="1401" stroke="#67DBFF" stroke-width="0.917143"/>
<line x1="115.17" y1="-1167" x2="115.169" y2="1401" stroke="#67DBFF" stroke-width="0.917143"/>
<line x1="173.867" y1="-1167" x2="173.867" y2="1401" stroke="#67DBFF" stroke-width="0.917143"/>
<line x1="232.564" y1="-1167" x2="232.564" y2="1401" stroke="#67DBFF" stroke-width="0.917143"/>
<line x1="291.261" y1="-1167" x2="291.261" y2="1401" stroke="#67DBFF" stroke-width="0.917143"/>
<line x1="-934.5" y1="57.8443" x2="1633.5" y2="57.8443" stroke="#67DBFF" stroke-width="0.917143"/>
<line x1="-934.5" y1="233.936" x2="1633.5" y2="233.936" stroke="#67DBFF" stroke-width="0.917143"/>
<line x1="-934.5" y1="175.239" x2="1633.5" y2="175.239" stroke="#67DBFF" stroke-width="0.917143"/>
</g>
<line x1="349.959" y1="-1167" x2="349.958" y2="1401" stroke="#E6E6E6" stroke-width="0.917143"/>
<line x1="-934.5" y1="116.541" x2="1633.5" y2="116.541" stroke="#E6E6E6" stroke-width="0.917143"/>
</g>
<mask id="path-16-inside-1_588_6826" fill="white">
<path d="M391.866 157.866C380.895 168.837 366.015 175 350.5 175C334.985 175 320.105 168.837 309.134 157.866C298.163 146.895 292 132.015 292 116.5C292 100.985 298.163 86.1051 309.134 75.1343L350.5 116.5L391.866 157.866Z"/>
</mask>
<path d="M391.866 157.866C380.895 168.837 366.015 175 350.5 175C334.985 175 320.105 168.837 309.134 157.866C298.163 146.895 292 132.015 292 116.5C292 100.985 298.163 86.1051 309.134 75.1343L350.5 116.5L391.866 157.866Z" fill="#18FF21" fill-opacity="0.2" stroke="#67FF6D" stroke-width="2" mask="url(#path-16-inside-1_588_6826)"/>
<path opacity="0.6" d="M348.5 117C348.5 117.828 349.172 118.5 350 118.5C350.828 118.5 351.5 117.828 351.5 117L348.5 117ZM350 58L341.34 73L358.66 73L350 58ZM351.5 117L351.5 71.5L348.5 71.5L348.5 117L351.5 117Z" fill="#EB5757"/>
<path d="M287.959 62.2299C287.973 62.2299 288.475 62.1951 289.464 62.1254C290.453 62.0557 290.962 62.0139 290.99 62C291.157 62 291.241 62.0557 291.241 62.1672C291.241 62.2647 290.732 64.3686 289.715 68.4788C288.698 72.589 288.175 74.6859 288.148 74.7695C288.12 74.853 288.113 74.9575 288.127 75.0829C288.127 75.6681 288.322 75.9607 288.712 75.9607C288.837 75.9468 288.977 75.8841 289.13 75.7726C289.422 75.494 289.708 74.8252 289.987 73.7663C290.07 73.4876 290.14 73.3413 290.196 73.3274C290.224 73.3135 290.293 73.3065 290.405 73.3065H290.572C290.781 73.3065 290.885 73.3622 290.885 73.4737C290.885 73.5434 290.864 73.6548 290.823 73.8081C290.642 74.5047 290.433 75.069 290.196 75.5009C289.959 75.9328 289.764 76.2115 289.61 76.3369C289.457 76.4623 289.262 76.5738 289.025 76.6713C288.914 76.6992 288.747 76.7131 288.524 76.7131C288.05 76.7131 287.653 76.6086 287.332 76.3996C287.012 76.1906 286.803 75.9746 286.705 75.7517L286.58 75.4382C286.566 75.4243 286.538 75.4313 286.497 75.4591C286.469 75.487 286.441 75.5149 286.413 75.5427C285.591 76.323 284.755 76.7131 283.905 76.7131C283.139 76.7131 282.463 76.4344 281.878 75.8771C281.293 75.3198 281 74.4351 281 73.2229C281 72.5541 281.139 71.8714 281.418 71.1748C281.697 70.4781 282.031 69.879 282.421 69.3774C283.076 68.5833 283.731 68.0329 284.386 67.7264C285.041 67.4199 285.633 67.2666 286.162 67.2666C286.942 67.2666 287.528 67.5592 287.918 68.1444C287.987 68.228 288.022 68.2558 288.022 68.228C288.036 68.1722 288.224 67.4129 288.586 65.95C288.949 64.487 289.144 63.7137 289.172 63.6301C289.172 63.449 289.123 63.3376 289.025 63.2958C288.928 63.254 288.656 63.2191 288.21 63.1913H287.771C287.688 63.1077 287.646 63.0519 287.646 63.0241C287.646 62.9962 287.66 62.8638 287.688 62.627C287.757 62.3623 287.848 62.2299 287.959 62.2299ZM287.667 69.6909C287.346 68.5902 286.824 68.0399 286.099 68.0399C285.612 68.0399 285.145 68.2558 284.699 68.6878C284.253 69.1197 283.905 69.684 283.654 70.3806C283.25 71.4813 282.965 72.6238 282.797 73.8081C282.797 73.8499 282.797 73.9265 282.797 74.038C282.797 74.1494 282.79 74.233 282.776 74.2888C282.776 74.9157 282.902 75.3477 283.153 75.5845C283.403 75.8214 283.703 75.9468 284.051 75.9607C284.804 75.9607 285.577 75.4591 286.371 74.456L286.538 74.2261L287.667 69.6909Z" fill="white"/>
<path d="M292.766 62.9823C292.766 62.8429 292.794 62.6827 292.85 62.5016C292.906 62.3205 292.989 62.2299 293.101 62.2299C293.115 62.2299 293.616 62.1951 294.605 62.1254C295.595 62.0557 296.103 62.0139 296.131 62C296.298 62 296.382 62.0627 296.382 62.1881C296.382 62.3135 296.145 63.3097 295.671 65.1767C295.56 65.6504 295.441 66.1381 295.316 66.6396C295.191 67.1412 295.086 67.5174 295.003 67.7682L294.919 68.1653C294.919 68.2071 294.961 68.1862 295.044 68.1026C295.727 67.5453 296.431 67.2666 297.155 67.2666C298.019 67.2666 298.716 67.5871 299.245 68.228C299.775 68.8689 300.046 69.677 300.06 70.6523C300.06 72.1988 299.51 73.5991 298.409 74.853C297.308 76.107 296.124 76.734 294.856 76.734C294.16 76.734 293.526 76.4693 292.954 75.9398C292.383 75.4104 292.091 74.5535 292.077 73.3692V73.1811C292.077 72.8885 292.132 72.4845 292.244 71.969C292.355 71.4534 292.697 70.081 293.268 67.8518C293.965 65.107 294.313 63.651 294.313 63.4838C294.313 63.3167 294.048 63.2191 293.519 63.1913C293.449 63.1913 293.393 63.1913 293.351 63.1913H293.247C293.108 63.1913 293.017 63.1913 292.975 63.1913C292.933 63.1913 292.885 63.1704 292.829 63.1286C292.773 63.0868 292.752 63.038 292.766 62.9823ZM298.263 69.7118V69.5864C298.263 68.5554 297.838 68.0399 296.988 68.0399C296.751 68.0399 296.507 68.0956 296.256 68.2071C296.006 68.3185 295.776 68.4648 295.567 68.646C295.358 68.8271 295.177 68.9943 295.023 69.1475C294.87 69.3008 294.745 69.4541 294.647 69.6073L294.522 69.7745L294.083 71.5719C293.776 72.7701 293.623 73.62 293.623 74.1216C293.623 74.7904 293.79 75.2919 294.125 75.6263C294.348 75.8492 294.626 75.9607 294.961 75.9607C295.42 75.9607 295.887 75.7378 296.361 75.2919C296.709 74.9715 296.988 74.5814 297.197 74.1216C297.406 73.6618 297.636 72.9303 297.887 71.9272C298.137 70.924 298.263 70.1855 298.263 69.7118Z" fill="white"/>
<g opacity="0.6">
<path d="M361.961 37.2299C361.975 37.2299 362.476 37.1951 363.466 37.1254C364.455 37.0557 364.964 37.0139 364.992 37C365.159 37 365.243 37.0557 365.243 37.1672C365.243 37.2648 364.734 39.3691 363.717 43.4801C362.699 47.5911 362.177 49.6884 362.149 49.772C362.121 49.8556 362.114 49.9602 362.128 50.0856C362.128 50.6709 362.323 50.9635 362.713 50.9635C362.839 50.9496 362.978 50.8869 363.131 50.7754C363.424 50.4967 363.71 49.8278 363.988 48.7687C364.072 48.4899 364.142 48.3436 364.198 48.3297C364.225 48.3158 364.295 48.3088 364.407 48.3088H364.574C364.783 48.3088 364.887 48.3645 364.887 48.476C364.887 48.5457 364.866 48.6572 364.825 48.8105C364.643 49.5072 364.434 50.0716 364.198 50.5036C363.961 50.9357 363.766 51.2144 363.612 51.3398C363.459 51.4652 363.264 51.5767 363.027 51.6742C362.915 51.7021 362.748 51.7161 362.525 51.7161C362.051 51.7161 361.654 51.6115 361.334 51.4025C361.013 51.1935 360.804 50.9775 360.707 50.7545L360.581 50.4409C360.567 50.427 360.539 50.434 360.498 50.4618C360.47 50.4897 360.442 50.5176 360.414 50.5455C359.592 51.3259 358.756 51.7161 357.906 51.7161C357.139 51.7161 356.463 51.4373 355.878 50.8799C355.293 50.3225 355 49.4376 355 48.2252C355 47.5563 355.139 46.8734 355.418 46.1766C355.697 45.4798 356.031 44.8806 356.421 44.3789C357.076 43.5846 357.731 43.0341 358.386 42.7276C359.041 42.421 359.634 42.2677 360.163 42.2677C360.944 42.2677 361.529 42.5603 361.919 43.1456C361.989 43.2292 362.024 43.2571 362.024 43.2292C362.038 43.1735 362.226 42.414 362.588 40.9508C362.95 39.4875 363.145 38.7141 363.173 38.6305C363.173 38.4493 363.124 38.3378 363.027 38.296C362.929 38.2542 362.658 38.2194 362.212 38.1915H361.773C361.689 38.1079 361.647 38.0521 361.647 38.0243C361.647 37.9964 361.661 37.864 361.689 37.6271C361.759 37.3623 361.849 37.2299 361.961 37.2299ZM361.668 44.6925C361.348 43.5916 360.825 43.0411 360.1 43.0411C359.613 43.0411 359.146 43.2571 358.7 43.6891C358.254 44.1211 357.906 44.6855 357.655 45.3823C357.251 46.4832 356.965 47.6259 356.798 48.8105C356.798 48.8523 356.798 48.9289 356.798 49.0404C356.798 49.1519 356.791 49.2355 356.777 49.2912C356.777 49.9184 356.902 50.3504 357.153 50.5873C357.404 50.8242 357.704 50.9496 358.052 50.9635C358.804 50.9635 359.578 50.4618 360.372 49.4585L360.539 49.2285L361.668 44.6925Z" fill="white"/>
<path d="M365.953 48.1834C365.953 46.6644 366.553 45.2987 367.751 44.0863C368.95 42.8739 370.246 42.2677 371.639 42.2677C372.42 42.2677 373.033 42.4349 373.479 42.7694C373.925 43.1038 374.155 43.5428 374.168 44.0863C374.168 44.4904 374.036 44.8318 373.771 45.1105C373.507 45.3893 373.172 45.5356 372.768 45.5495C372.503 45.5495 372.294 45.4798 372.141 45.3405C371.988 45.2011 371.911 44.9921 371.911 44.7134C371.911 44.4347 371.988 44.1978 372.141 44.0027C372.294 43.8076 372.447 43.6612 372.601 43.5637C372.754 43.4661 372.852 43.4243 372.893 43.4383H372.914C372.914 43.4104 372.872 43.3686 372.789 43.3129C372.705 43.2571 372.559 43.2014 372.35 43.1456C372.141 43.0899 371.904 43.062 371.639 43.062C371.221 43.062 370.824 43.1596 370.448 43.3547C370.155 43.4801 369.855 43.6961 369.549 44.0027C368.936 44.6158 368.49 45.4798 368.211 46.5947C367.932 47.7096 367.786 48.5178 367.772 49.0195C367.772 49.6605 367.953 50.1413 368.316 50.4618C368.622 50.7963 369.026 50.9635 369.528 50.9635H369.612C371.172 50.9635 372.461 50.3713 373.479 49.1867C373.604 49.0474 373.688 48.9777 373.73 48.9777C373.785 48.9777 373.876 49.0404 374.001 49.1658C374.127 49.2912 374.196 49.3888 374.21 49.4585C374.224 49.5282 374.162 49.6327 374.022 49.772C373.883 49.9114 373.681 50.1065 373.416 50.3573C373.151 50.6082 372.838 50.8172 372.475 50.9844C372.113 51.1517 371.667 51.3259 371.137 51.507C370.608 51.6882 370.051 51.7648 369.465 51.737C368.42 51.737 367.577 51.4025 366.936 50.7336C366.295 50.0647 365.967 49.2146 365.953 48.1834Z" fill="white"/>
<path d="M374.754 45.5077C374.754 45.3962 374.817 45.1802 374.942 44.8597C375.067 44.5392 375.242 44.1769 375.465 43.7727C375.687 43.3686 375.994 43.0202 376.384 42.7276C376.774 42.4349 377.186 42.2816 377.618 42.2677C378.259 42.2677 378.739 42.4419 379.06 42.7903C379.38 43.1387 379.541 43.5498 379.541 44.0236C379.541 44.2744 379.304 45.0548 378.83 46.3648C378.356 47.6747 378.119 48.6572 378.119 49.3122C378.119 49.9114 378.217 50.3295 378.412 50.5664C378.607 50.8033 378.9 50.9287 379.29 50.9426C379.68 50.9566 380.049 50.8381 380.398 50.5873C380.746 50.3364 381.004 50.0995 381.171 49.8765L381.401 49.5212C381.429 49.4654 381.694 48.4063 382.195 46.3439C382.613 44.6716 382.864 43.6961 382.948 43.4174C383.032 43.1387 383.129 42.9366 383.241 42.8112C383.478 42.6021 383.728 42.4976 383.993 42.4976C384.23 42.4976 384.404 42.5673 384.516 42.7067C384.627 42.846 384.683 42.9784 384.683 43.1038L383.094 49.7511C383.08 49.8208 383.073 49.9323 383.073 50.0856C383.073 50.434 383.122 50.6639 383.22 50.7754C383.317 50.8869 383.464 50.9496 383.659 50.9635C383.965 50.9217 384.209 50.7057 384.39 50.3155C384.571 49.9253 384.78 49.3122 385.017 48.476C385.045 48.3645 385.185 48.3088 385.435 48.3088C385.7 48.3088 385.833 48.3715 385.833 48.4969C385.819 48.5666 385.805 48.6641 385.791 48.7896C385.777 48.915 385.714 49.138 385.603 49.4585C385.491 49.779 385.373 50.0786 385.247 50.3573C385.122 50.636 384.948 50.9008 384.725 51.1517C384.502 51.4025 384.251 51.5767 383.972 51.6742C383.861 51.7021 383.694 51.7161 383.471 51.7161C382.551 51.7161 381.917 51.3259 381.568 50.5455C381.54 50.5594 381.464 50.6291 381.338 50.7545C381.213 50.8799 381.088 50.9844 380.962 51.068C380.837 51.1517 380.683 51.2562 380.502 51.3816C380.321 51.507 380.119 51.5906 379.896 51.6324C379.673 51.6742 379.436 51.7091 379.185 51.737C378.572 51.737 378.029 51.6115 377.555 51.3607C376.83 50.9287 376.468 50.1901 376.468 49.1449C376.468 48.3506 376.712 47.3124 377.199 46.0303C377.687 44.7482 377.931 43.933 377.931 43.5846C377.931 43.5707 377.931 43.5567 377.931 43.5428C377.931 43.4174 377.931 43.3338 377.931 43.2919C377.931 43.2501 377.903 43.2014 377.848 43.1456C377.792 43.0899 377.715 43.062 377.618 43.062H377.534C377.213 43.062 376.921 43.1944 376.656 43.4592C376.391 43.724 376.182 44.0096 376.029 44.3162C375.876 44.6228 375.757 44.9155 375.674 45.1942C375.59 45.4729 375.534 45.6262 375.506 45.654C375.478 45.6819 375.367 45.6958 375.172 45.6958H374.879C374.796 45.6122 374.754 45.5495 374.754 45.5077Z" fill="white"/>
<path d="M386.711 45.5077C386.725 45.4659 386.738 45.4102 386.752 45.3405C386.766 45.2708 386.801 45.1175 386.857 44.8806C386.913 44.6437 386.982 44.4277 387.066 44.2326C387.15 44.0375 387.254 43.8076 387.379 43.5428C387.505 43.278 387.644 43.069 387.798 42.9157C387.951 42.7624 388.132 42.6091 388.341 42.4558C388.55 42.3025 388.78 42.2398 389.031 42.2677C389.435 42.2677 389.79 42.3513 390.097 42.5185C390.404 42.6857 390.62 42.839 390.745 42.9784C390.87 43.1178 390.947 43.2571 390.975 43.3965C391.003 43.4801 391.024 43.5219 391.038 43.5219C391.052 43.5219 391.107 43.4731 391.205 43.3756C391.874 42.6509 392.647 42.2886 393.525 42.2886H393.588C394.257 42.2886 394.758 42.5743 395.093 43.1456C395.204 43.4104 395.26 43.6682 395.26 43.9191C395.26 44.3371 395.17 44.6716 394.988 44.9224C394.807 45.1733 394.626 45.3335 394.445 45.4032C394.264 45.4729 394.09 45.5007 393.922 45.4868C393.644 45.4868 393.421 45.4102 393.253 45.2569C393.086 45.1036 393.003 44.9015 393.003 44.6507C393.003 43.9818 393.393 43.5358 394.173 43.3129C393.867 43.1317 393.616 43.0411 393.421 43.0411C392.64 43.0411 391.923 43.5567 391.268 44.588C391.128 44.8109 391.024 45.0409 390.954 45.2778C390.884 45.5147 390.647 46.4414 390.243 48.0579C389.769 50.0089 389.498 51.0471 389.428 51.1726C389.247 51.5488 388.947 51.737 388.529 51.737C388.348 51.737 388.202 51.6951 388.09 51.6115C387.979 51.5279 387.902 51.4443 387.86 51.3607C387.818 51.2771 387.805 51.2074 387.818 51.1517C387.818 50.9705 388.097 49.772 388.655 47.5563C389.212 45.3405 389.491 44.1072 389.491 43.8563C389.491 43.3129 389.31 43.0411 388.947 43.0411C388.655 43.0411 388.404 43.2362 388.195 43.6264C387.986 44.0166 387.818 44.4416 387.693 44.9015C387.568 45.3614 387.491 45.6122 387.463 45.654C387.435 45.6819 387.324 45.6958 387.129 45.6958H386.836C386.752 45.6122 386.711 45.5495 386.711 45.5077Z" fill="white"/>
<path d="M396.159 45.5077C396.173 45.4659 396.187 45.4102 396.201 45.3405C396.215 45.2708 396.25 45.1175 396.305 44.8806C396.361 44.6437 396.431 44.4277 396.514 44.2326C396.598 44.0375 396.702 43.8076 396.828 43.5428C396.953 43.278 397.093 43.069 397.246 42.9157C397.399 42.7624 397.58 42.6091 397.789 42.4558C397.998 42.3025 398.228 42.2398 398.479 42.2677C398.883 42.2677 399.239 42.3513 399.545 42.5185C399.852 42.6857 400.068 42.839 400.193 42.9784C400.319 43.1178 400.395 43.2571 400.423 43.3965C400.451 43.4801 400.472 43.5219 400.486 43.5219C400.5 43.5219 400.556 43.4731 400.653 43.3756C401.322 42.6509 402.096 42.2886 402.973 42.2886H403.036C403.705 42.2886 404.207 42.5743 404.541 43.1456C404.653 43.4104 404.708 43.6682 404.708 43.9191C404.708 44.3371 404.618 44.6716 404.437 44.9224C404.256 45.1733 404.074 45.3335 403.893 45.4032C403.712 45.4729 403.538 45.5007 403.371 45.4868C403.092 45.4868 402.869 45.4102 402.702 45.2569C402.535 45.1036 402.451 44.9015 402.451 44.6507C402.451 43.9818 402.841 43.5358 403.621 43.3129C403.315 43.1317 403.064 43.0411 402.869 43.0411C402.089 43.0411 401.371 43.5567 400.716 44.588C400.577 44.8109 400.472 45.0409 400.402 45.2778C400.333 45.5147 400.096 46.4414 399.692 48.0579C399.218 50.0089 398.946 51.0471 398.876 51.1726C398.695 51.5488 398.396 51.737 397.978 51.737C397.796 51.737 397.65 51.6951 397.539 51.6115C397.427 51.5279 397.35 51.4443 397.309 51.3607C397.267 51.2771 397.253 51.2074 397.267 51.1517C397.267 50.9705 397.546 49.772 398.103 47.5563C398.66 45.3405 398.939 44.1072 398.939 43.8563C398.939 43.3129 398.758 43.0411 398.396 43.0411C398.103 43.0411 397.852 43.2362 397.643 43.6264C397.434 44.0166 397.267 44.4416 397.141 44.9015C397.016 45.3614 396.939 45.6122 396.911 45.654C396.884 45.6819 396.772 45.6958 396.577 45.6958H396.284C396.201 45.6122 396.159 45.5495 396.159 45.5077Z" fill="white"/>
</g>
<path d="M348.939 118.061C349.525 118.646 350.475 118.646 351.061 118.061C351.646 117.475 351.646 116.525 351.061 115.939L348.939 118.061ZM310 77L314.483 93.7303L326.73 81.4829L310 77ZM351.061 115.939L320.607 85.4853L318.485 87.6066L348.939 118.061L351.061 115.939Z" fill="#006AE7"/>
<path d="M99.96 32.4004C99.9739 32.4004 100.476 32.3655 101.465 32.2958C102.454 32.2262 102.963 32.1844 102.991 32.1704C103.158 32.1704 103.241 32.2262 103.241 32.3377C103.241 32.4352 102.733 34.5392 101.716 38.6497C100.698 42.7602 100.176 44.8572 100.148 44.9408C100.12 45.0244 100.113 45.1289 100.127 45.2543C100.127 45.8396 100.322 46.1322 100.712 46.1322C100.838 46.1182 100.977 46.0555 101.13 45.9441C101.423 45.6654 101.709 44.9966 101.987 43.9376C102.071 43.6589 102.141 43.5126 102.196 43.4987C102.224 43.4847 102.294 43.4778 102.405 43.4778H102.573C102.782 43.4778 102.886 43.5335 102.886 43.645C102.886 43.7147 102.865 43.8261 102.823 43.9794C102.642 44.6761 102.433 45.2404 102.196 45.6724C101.959 46.1043 101.764 46.383 101.611 46.5084C101.458 46.6338 101.263 46.7453 101.026 46.8428C100.914 46.8707 100.747 46.8846 100.524 46.8846C100.051 46.8846 99.6534 46.7801 99.3329 46.5711C99.0125 46.3621 98.8035 46.1461 98.7059 45.9232L98.5805 45.6097C98.5666 45.5957 98.5387 45.6027 98.4969 45.6306C98.469 45.6584 98.4412 45.6863 98.4133 45.7142C97.5912 46.4945 96.7552 46.8846 95.9052 46.8846C95.1388 46.8846 94.4631 46.6059 93.8778 46.0486C93.2926 45.4912 93 44.6064 93 43.3942C93 42.7253 93.1393 42.0426 93.418 41.3459C93.6967 40.6492 94.0311 40.05 94.4213 39.5484C95.0761 38.7542 95.731 38.2038 96.3859 37.8973C97.0408 37.5907 97.633 37.4374 98.1625 37.4374C98.9428 37.4374 99.528 37.7301 99.9182 38.3153C99.9878 38.3989 100.023 38.4268 100.023 38.3989C100.037 38.3431 100.225 37.5838 100.587 36.1207C100.949 34.6576 101.144 33.8843 101.172 33.8007C101.172 33.6196 101.123 33.5081 101.026 33.4663C100.928 33.4245 100.657 33.3897 100.211 33.3618H99.7719C99.6883 33.2782 99.6465 33.2225 99.6465 33.1946C99.6465 33.1667 99.6604 33.0343 99.6883 32.7975C99.7579 32.5327 99.8485 32.4004 99.96 32.4004ZM99.6674 39.8619C99.3469 38.7612 98.8244 38.2108 98.0998 38.2108C97.6121 38.2108 97.1453 38.4268 96.6994 38.8587C96.2536 39.2907 95.9052 39.855 95.6544 40.5517C95.2503 41.6524 94.9647 42.795 94.7975 43.9794C94.7975 44.0212 94.7975 44.0978 94.7975 44.2093C94.7975 44.3208 94.7905 44.4044 94.7766 44.4601C94.7766 45.0871 94.902 45.5191 95.1528 45.756C95.4036 45.9928 95.7032 46.1182 96.0515 46.1322C96.8039 46.1322 97.5773 45.6306 98.3715 44.6273L98.5387 44.3974L99.6674 39.8619Z" fill="white"/>
<path d="M104.057 43.1643C104.057 42.37 104.189 41.6455 104.454 40.9906C104.718 40.3357 105.06 39.7923 105.478 39.3603C105.896 38.9284 106.363 38.5661 106.878 38.2735C107.394 37.9809 107.881 37.7649 108.341 37.6256C108.801 37.4862 109.24 37.4235 109.658 37.4374H109.721C110.348 37.4374 110.891 37.5907 111.351 37.8973C111.811 38.2038 112.041 38.6567 112.041 39.2558C112.041 40.5099 111.267 41.332 109.721 41.7221C109.038 41.9033 108.104 42.0008 106.92 42.0147C106.404 42.0147 106.14 42.0287 106.126 42.0565C106.126 42.0844 106.084 42.3282 106 42.7881C105.917 43.2479 105.868 43.652 105.854 44.0003C105.854 44.6552 106 45.1707 106.293 45.547C106.586 45.9232 107.024 46.1182 107.61 46.1322C108.195 46.1461 108.843 46.0137 109.553 45.7351C110.264 45.4564 110.905 44.9966 111.476 44.3556C111.602 44.2163 111.685 44.1466 111.727 44.1466C111.783 44.1466 111.873 44.2093 111.999 44.3347C112.124 44.4601 112.194 44.5577 112.208 44.6273C112.222 44.697 112.159 44.8085 112.02 44.9617C111.88 45.115 111.671 45.3031 111.393 45.5261C111.114 45.749 110.794 45.965 110.431 46.174C110.069 46.383 109.63 46.5572 109.115 46.6965C108.599 46.8358 108.069 46.9055 107.526 46.9055C106.425 46.9055 105.575 46.5363 104.976 45.7978C104.377 45.0593 104.07 44.1814 104.057 43.1643ZM111.037 39.2976C110.954 38.5731 110.48 38.2108 109.616 38.2108C109.156 38.2108 108.731 38.3083 108.341 38.5034C107.951 38.6985 107.638 38.9353 107.401 39.214C107.164 39.4927 106.962 39.7783 106.795 40.0709C106.627 40.3636 106.516 40.6144 106.46 40.8234C106.404 41.0324 106.37 41.1648 106.356 41.2205C106.356 41.2344 106.495 41.2414 106.774 41.2414C108.348 41.2414 109.449 41.0742 110.076 40.7398C110.703 40.4054 111.023 39.9246 111.037 39.2976Z" fill="white"/>
<path d="M113.545 38.6288C113.448 38.5313 113.399 38.4616 113.399 38.4198C113.399 38.364 113.42 38.2526 113.462 38.0854C113.504 37.9182 113.539 37.8206 113.566 37.7928C113.594 37.7231 113.657 37.6883 113.754 37.6883C113.852 37.6883 114.207 37.6813 114.82 37.6674H115.928L116.325 35.9953C116.367 35.842 116.416 35.64 116.472 35.3892C116.527 35.1384 116.576 34.9572 116.618 34.8457C116.66 34.7343 116.702 34.5949 116.743 34.4277C116.785 34.2605 116.841 34.1421 116.911 34.0724C116.98 34.0027 117.05 33.9191 117.12 33.8216C117.189 33.7241 117.287 33.6614 117.412 33.6335C117.538 33.6056 117.663 33.5917 117.788 33.5917C118.039 33.6056 118.213 33.6823 118.311 33.8216C118.408 33.9609 118.457 34.0933 118.457 34.2187C118.457 34.3163 118.394 34.6437 118.269 35.2011C118.144 35.7584 118.004 36.3088 117.851 36.8522L117.642 37.6256C117.642 37.6534 117.99 37.6674 118.687 37.6674H119.753C119.851 37.7649 119.899 37.8415 119.899 37.8973C119.899 38.2038 119.809 38.4477 119.628 38.6288H117.391L116.639 41.6594C116.095 43.8888 115.824 45.0871 115.824 45.2543C115.824 45.8396 116.012 46.1322 116.388 46.1322C116.876 46.1322 117.349 45.8953 117.809 45.4216C118.269 44.9478 118.638 44.3626 118.917 43.6659C118.945 43.5823 118.98 43.5335 119.021 43.5196C119.063 43.5056 119.168 43.4917 119.335 43.4778H119.419C119.628 43.4778 119.732 43.5335 119.732 43.645C119.732 43.6868 119.711 43.7704 119.669 43.8958C119.6 44.1187 119.474 44.3835 119.293 44.69C119.112 44.9966 118.875 45.324 118.583 45.6724C118.29 46.0207 117.935 46.3133 117.517 46.5502C117.099 46.7871 116.674 46.9055 116.242 46.9055C115.824 46.9055 115.427 46.801 115.05 46.592C114.674 46.383 114.402 46.0207 114.235 45.5052C114.207 45.3937 114.193 45.2056 114.193 44.9408V44.5646L114.925 41.6385C115.413 39.6738 115.663 38.6845 115.677 38.6706C115.677 38.6427 115.322 38.6288 114.611 38.6288H113.545Z" fill="white"/>
<path d="M122.512 41.4504C122.512 40.489 122.582 39.5763 122.721 38.7124C122.86 37.8485 123.021 37.103 123.202 36.476C123.383 35.849 123.641 35.2359 123.975 34.6367C124.309 34.0376 124.574 33.5708 124.769 33.2364C124.964 32.902 125.257 32.5397 125.647 32.1495C126.037 31.7594 126.267 31.5225 126.337 31.4389C126.406 31.3553 126.581 31.209 126.859 31H127.215C127.41 31 127.507 31.0627 127.507 31.1881C127.507 31.2299 127.389 31.3762 127.152 31.627C126.915 31.8778 126.629 32.2471 126.295 32.7348C125.961 33.2225 125.619 33.8216 125.271 34.5322C124.922 35.2429 124.63 36.2043 124.393 37.4165C124.156 38.6288 124.038 39.9734 124.038 41.4504C124.038 42.9274 124.156 44.265 124.393 45.4634C124.63 46.6617 124.916 47.6301 125.25 48.3686C125.584 49.1071 125.926 49.7062 126.274 50.166C126.622 50.6259 126.915 50.9951 127.152 51.2738C127.389 51.5525 127.507 51.6988 127.507 51.7127C127.507 51.8381 127.403 51.9008 127.194 51.9008H126.859L126.274 51.3992C124.964 50.2148 124.01 48.7378 123.411 46.9682C122.812 45.1986 122.512 43.3593 122.512 41.4504Z" fill="white"/>
<path d="M136.348 32.4004C136.362 32.4004 136.864 32.3655 137.853 32.2958C138.842 32.2262 139.351 32.1844 139.379 32.1704C139.546 32.1704 139.63 32.2262 139.63 32.3377C139.63 32.4352 139.121 34.5392 138.104 38.6497C137.087 42.7602 136.564 44.8572 136.536 44.9408C136.509 45.0244 136.502 45.1289 136.515 45.2543C136.515 45.8396 136.711 46.1322 137.101 46.1322C137.226 46.1182 137.365 46.0555 137.519 45.9441C137.811 45.6654 138.097 44.9966 138.376 43.9376C138.459 43.6589 138.529 43.5126 138.585 43.4987C138.613 43.4847 138.682 43.4778 138.794 43.4778H138.961C139.17 43.4778 139.274 43.5335 139.274 43.645C139.274 43.7147 139.253 43.8261 139.212 43.9794C139.031 44.6761 138.822 45.2404 138.585 45.6724C138.348 46.1043 138.153 46.383 137.999 46.5084C137.846 46.6338 137.651 46.7453 137.414 46.8428C137.303 46.8707 137.136 46.8846 136.913 46.8846C136.439 46.8846 136.042 46.7801 135.721 46.5711C135.401 46.3621 135.192 46.1461 135.094 45.9232L134.969 45.6097C134.955 45.5957 134.927 45.6027 134.885 45.6306C134.857 45.6584 134.829 45.6863 134.802 45.7142C133.98 46.4945 133.143 46.8846 132.294 46.8846C131.527 46.8846 130.851 46.6059 130.266 46.0486C129.681 45.4912 129.388 44.6064 129.388 43.3942C129.388 42.7253 129.528 42.0426 129.806 41.3459C130.085 40.6492 130.419 40.05 130.81 39.5484C131.464 38.7542 132.119 38.2038 132.774 37.8973C133.429 37.5907 134.021 37.4374 134.551 37.4374C135.331 37.4374 135.916 37.7301 136.306 38.3153C136.376 38.3989 136.411 38.4268 136.411 38.3989C136.425 38.3431 136.613 37.5838 136.975 36.1207C137.338 34.6576 137.533 33.8843 137.561 33.8007C137.561 33.6196 137.512 33.5081 137.414 33.4663C137.317 33.4245 137.045 33.3897 136.599 33.3618H136.16C136.077 33.2782 136.035 33.2225 136.035 33.1946C136.035 33.1667 136.049 33.0343 136.077 32.7975C136.146 32.5327 136.237 32.4004 136.348 32.4004ZM136.056 39.8619C135.735 38.7612 135.213 38.2108 134.488 38.2108C134 38.2108 133.534 38.4268 133.088 38.8587C132.642 39.2907 132.294 39.855 132.043 40.5517C131.639 41.6524 131.353 42.795 131.186 43.9794C131.186 44.0212 131.186 44.0978 131.186 44.2093C131.186 44.3208 131.179 44.4044 131.165 44.4601C131.165 45.0871 131.29 45.5191 131.541 45.756C131.792 45.9928 132.091 46.1182 132.44 46.1322C133.192 46.1322 133.966 45.6306 134.76 44.6273L134.927 44.3974L136.056 39.8619Z" fill="white"/>
<path d="M141.155 33.1528C141.155 33.0134 141.183 32.8532 141.239 32.6721C141.295 32.4909 141.378 32.4004 141.49 32.4004C141.504 32.4004 142.005 32.3655 142.995 32.2958C143.984 32.2262 144.493 32.1844 144.52 32.1704C144.688 32.1704 144.771 32.2331 144.771 32.3586C144.771 32.484 144.534 33.4802 144.061 35.3474C143.949 35.8211 143.831 36.3088 143.705 36.8104C143.58 37.312 143.475 37.6883 143.392 37.9391L143.308 38.3362C143.308 38.378 143.35 38.3571 143.434 38.2735C144.116 37.7161 144.82 37.4374 145.545 37.4374C146.409 37.4374 147.105 37.7579 147.635 38.3989C148.164 39.0398 148.436 39.848 148.45 40.8234C148.45 42.37 147.899 43.7704 146.799 45.0244C145.698 46.2785 144.514 46.9055 143.246 46.9055C142.549 46.9055 141.915 46.6408 141.344 46.1113C140.772 45.5818 140.48 44.7249 140.466 43.5405V43.3524C140.466 43.0598 140.521 42.6557 140.633 42.1401C140.744 41.6246 141.086 40.2521 141.657 38.0227C142.354 35.2777 142.702 33.8216 142.702 33.6544C142.702 33.4872 142.437 33.3897 141.908 33.3618C141.838 33.3618 141.782 33.3618 141.741 33.3618H141.636C141.497 33.3618 141.406 33.3618 141.364 33.3618C141.323 33.3618 141.274 33.3409 141.218 33.2991C141.162 33.2573 141.142 33.2085 141.155 33.1528ZM146.652 39.8828V39.7574C146.652 38.7263 146.227 38.2108 145.377 38.2108C145.141 38.2108 144.897 38.2665 144.646 38.378C144.395 38.4895 144.165 38.6358 143.956 38.8169C143.747 38.998 143.566 39.1652 143.413 39.3185C143.259 39.4718 143.134 39.6251 143.037 39.7783L142.911 39.9455L142.472 41.743C142.166 42.9413 142.012 43.7913 142.012 44.2929C142.012 44.9617 142.18 45.4634 142.514 45.7978C142.737 46.0207 143.016 46.1322 143.35 46.1322C143.81 46.1322 144.277 45.9092 144.75 45.4634C145.099 45.1429 145.377 44.7527 145.586 44.2929C145.795 43.8331 146.025 43.1016 146.276 42.0983C146.527 41.0951 146.652 40.3566 146.652 39.8828Z" fill="white"/>
<path d="M150.247 45.9441C150.247 45.9441 150.247 45.7699 150.247 45.4216C150.247 45.0732 150.359 44.7736 150.582 44.5228C150.805 44.272 151.104 44.1466 151.48 44.1466C151.871 44.1466 152.219 44.3208 152.525 44.6691C152.832 45.0175 152.992 45.6306 153.006 46.5084C153.006 46.9961 152.943 47.4698 152.818 47.9296C152.693 48.3895 152.546 48.7866 152.379 49.121C152.212 49.4554 152.031 49.7411 151.836 49.9779C151.641 50.2148 151.473 50.4029 151.334 50.5422C151.195 50.6816 151.104 50.7443 151.062 50.7304C151.007 50.7304 150.916 50.6677 150.791 50.5422C150.665 50.4168 150.603 50.3263 150.603 50.2705C150.603 50.2148 150.679 50.1033 150.833 49.9361C150.986 49.7689 151.16 49.5599 151.355 49.3091C151.55 49.0583 151.731 48.7099 151.898 48.2641C152.066 47.8182 152.177 47.3096 152.233 46.7383V46.4875L152.212 46.5084C152.184 46.5223 152.149 46.5363 152.107 46.5502C152.066 46.5641 152.024 46.585 151.982 46.6129C151.94 46.6408 151.878 46.6547 151.794 46.6547C151.71 46.6547 151.627 46.6617 151.543 46.6756C151.167 46.6756 150.86 46.5572 150.624 46.3203L150.247 45.9441Z" fill="white"/>
<path d="M165.568 32.4004C165.582 32.4004 166.083 32.3655 167.072 32.2958C168.062 32.2262 168.57 32.1844 168.598 32.1704C168.765 32.1704 168.849 32.2262 168.849 32.3377C168.849 32.4352 168.34 34.5392 167.323 38.6497C166.306 42.7602 165.784 44.8572 165.756 44.9408C165.728 45.0244 165.721 45.1289 165.735 45.2543C165.735 45.8396 165.93 46.1322 166.32 46.1322C166.445 46.1182 166.585 46.0555 166.738 45.9441C167.031 45.6654 167.316 44.9966 167.595 43.9376C167.679 43.6589 167.748 43.5126 167.804 43.4987C167.832 43.4847 167.901 43.4778 168.013 43.4778H168.18C168.389 43.4778 168.494 43.5335 168.494 43.645C168.494 43.7147 168.473 43.8261 168.431 43.9794C168.25 44.6761 168.041 45.2404 167.804 45.6724C167.567 46.1043 167.372 46.383 167.219 46.5084C167.065 46.6338 166.87 46.7453 166.634 46.8428C166.522 46.8707 166.355 46.8846 166.132 46.8846C165.658 46.8846 165.261 46.7801 164.941 46.5711C164.62 46.3621 164.411 46.1461 164.314 45.9232L164.188 45.6097C164.174 45.5957 164.146 45.6027 164.105 45.6306C164.077 45.6584 164.049 45.6863 164.021 45.7142C163.199 46.4945 162.363 46.8846 161.513 46.8846C160.746 46.8846 160.071 46.6059 159.485 46.0486C158.9 45.4912 158.608 44.6064 158.608 43.3942C158.608 42.7253 158.747 42.0426 159.026 41.3459C159.304 40.6492 159.639 40.05 160.029 39.5484C160.684 38.7542 161.339 38.2038 161.994 37.8973C162.648 37.5907 163.241 37.4374 163.77 37.4374C164.55 37.4374 165.136 37.7301 165.526 38.3153C165.595 38.3989 165.63 38.4268 165.63 38.3989C165.644 38.3431 165.832 37.5838 166.195 36.1207C166.557 34.6576 166.752 33.8843 166.78 33.8007C166.78 33.6196 166.731 33.5081 166.634 33.4663C166.536 33.4245 166.264 33.3897 165.818 33.3618H165.379C165.296 33.2782 165.254 33.2225 165.254 33.1946C165.254 33.1667 165.268 33.0343 165.296 32.7975C165.366 32.5327 165.456 32.4004 165.568 32.4004ZM165.275 39.8619C164.954 38.7612 164.432 38.2108 163.707 38.2108C163.22 38.2108 162.753 38.4268 162.307 38.8587C161.861 39.2907 161.513 39.855 161.262 40.5517C160.858 41.6524 160.572 42.795 160.405 43.9794C160.405 44.0212 160.405 44.0978 160.405 44.2093C160.405 44.3208 160.398 44.4044 160.384 44.4601C160.384 45.0871 160.51 45.5191 160.76 45.756C161.011 45.9928 161.311 46.1182 161.659 46.1322C162.412 46.1322 163.185 45.6306 163.979 44.6273L164.146 44.3974L165.275 39.8619Z" fill="white"/>
<path d="M169.539 43.3942C169.539 41.9869 170.068 40.6492 171.127 39.3812C172.186 38.1132 173.378 37.4723 174.701 37.4583C175.412 37.4583 176.039 37.7997 176.582 38.4825C176.805 38.0645 177.126 37.8555 177.544 37.8555C177.725 37.8555 177.885 37.9112 178.024 38.0227C178.164 38.1341 178.233 38.2735 178.233 38.4407C178.233 38.6218 177.976 39.7365 177.46 41.7848C176.945 43.8331 176.68 44.9896 176.666 45.2543C176.666 45.6027 176.715 45.8326 176.812 45.9441C176.91 46.0555 177.056 46.1182 177.251 46.1322C177.377 46.1182 177.516 46.0555 177.669 45.9441C177.962 45.6654 178.247 44.9966 178.526 43.9376C178.61 43.6589 178.679 43.5126 178.735 43.4987C178.763 43.4847 178.833 43.4778 178.944 43.4778H179.028C179.292 43.4778 179.425 43.5405 179.425 43.6659C179.425 43.7495 179.39 43.9376 179.32 44.2302C179.251 44.5228 179.111 44.899 178.902 45.3588C178.693 45.8187 178.47 46.167 178.233 46.4039C178.052 46.585 177.829 46.7313 177.565 46.8428C177.453 46.8707 177.286 46.8846 177.063 46.8846C176.589 46.8846 176.192 46.7801 175.872 46.5711C175.551 46.3621 175.342 46.1461 175.245 45.9232L175.119 45.6097C175.105 45.5957 175.077 45.6027 175.036 45.6306C175.008 45.6584 174.98 45.6863 174.952 45.7142C174.13 46.4945 173.294 46.8846 172.444 46.8846C171.678 46.8846 171.002 46.6059 170.417 46.0486C169.831 45.4912 169.539 44.6064 169.539 43.3942ZM176.185 39.8201C176.185 39.7365 176.15 39.5833 176.081 39.3603C176.011 39.1374 175.851 38.8935 175.6 38.6288C175.349 38.364 175.029 38.2247 174.639 38.2108C174.151 38.2108 173.684 38.4268 173.238 38.8587C172.792 39.2907 172.444 39.855 172.193 40.5517C171.789 41.6524 171.503 42.795 171.336 43.9794C171.336 44.0212 171.336 44.0978 171.336 44.2093C171.336 44.3208 171.329 44.4044 171.315 44.4601C171.315 45.0871 171.441 45.5191 171.692 45.756C171.942 45.9928 172.242 46.1182 172.59 46.1322C173.12 46.1322 173.642 45.9023 174.158 45.4425C174.673 44.9826 174.98 44.6273 175.077 44.3765C175.105 44.3208 175.293 43.5753 175.642 42.1401C175.99 40.7049 176.171 39.9316 176.185 39.8201Z" fill="white"/>
<path d="M181.18 31.0209L181.264 31C181.334 31 181.403 31 181.473 31H181.724L182.309 31.5016C183.619 32.686 184.573 34.163 185.173 35.9326C185.772 37.7022 186.071 39.5415 186.071 41.4504C186.071 42.3979 186.002 43.3106 185.862 44.1884C185.723 45.0662 185.563 45.8117 185.382 46.4248C185.2 47.0379 184.943 47.651 184.608 48.2641C184.274 48.8772 184.009 49.3439 183.814 49.6644C183.619 49.9849 183.333 50.3402 182.957 50.7304C182.581 51.1205 182.358 51.3504 182.288 51.4201C182.219 51.4898 182.058 51.6221 181.808 51.8172C181.766 51.859 181.738 51.8869 181.724 51.9008H181.473C181.362 51.9008 181.285 51.9008 181.243 51.9008C181.201 51.9008 181.167 51.8799 181.139 51.8381C181.111 51.7963 181.09 51.7336 181.076 51.65C181.09 51.6361 181.167 51.5455 181.306 51.3783C183.466 49.1349 184.546 45.8256 184.546 41.4504C184.546 37.0752 183.466 33.7659 181.306 31.5225C181.167 31.3553 181.09 31.2647 181.076 31.2508C181.076 31.1393 181.111 31.0627 181.18 31.0209Z" fill="white"/>
<path d="M195.602 33.8007C195.602 33.6892 195.644 33.5917 195.727 33.5081C195.811 33.4245 195.881 33.3827 195.936 33.3827C196.048 33.3827 197.121 33.8564 199.155 34.8039C201.19 35.7514 203.21 36.7059 205.216 37.6674C207.223 38.6288 208.226 39.1165 208.226 39.1304C208.324 39.2001 208.372 39.3046 208.372 39.4439C208.372 39.5833 208.324 39.6878 208.226 39.7574C208.198 39.7853 206.164 40.7537 202.123 42.6626L196.104 45.5052H195.978C195.727 45.4773 195.602 45.3379 195.602 45.0871C195.602 45.0732 195.602 45.0523 195.602 45.0244C195.588 44.9269 195.693 44.8154 195.916 44.69C196.18 44.5507 197.225 44.0491 199.051 43.1852C200.138 42.6696 201.043 42.2446 201.768 41.9102L206.951 39.4439L201.392 36.8104C200.43 36.3506 199.315 35.8211 198.047 35.222C196.821 34.6507 196.111 34.3093 195.916 34.1978C195.72 34.0864 195.616 33.954 195.602 33.8007ZM195.623 49.1419C195.623 49.0026 195.727 48.8632 195.936 48.7239H208.038C208.261 48.8075 208.372 48.9468 208.372 49.1419C208.372 49.3091 208.268 49.4484 208.059 49.5599H195.916C195.72 49.4624 195.623 49.323 195.623 49.1419Z" fill="white"/>
<path d="M217.945 34.4486C218.725 33.32 219.791 32.7557 221.143 32.7557C221.812 32.7557 222.48 32.9368 223.149 33.2991C223.818 33.6614 224.362 34.3023 224.78 35.222C225.295 36.3785 225.553 37.9669 225.553 39.9873C225.553 42.1471 225.253 43.7983 224.654 44.9408C224.375 45.5261 223.992 45.9928 223.505 46.3412C223.017 46.6895 222.592 46.9055 222.23 46.9891C221.867 47.0727 221.512 47.1215 221.164 47.1354C220.801 47.1354 220.439 47.0936 220.077 47.01C219.715 46.9264 219.29 46.7035 218.802 46.3412C218.314 45.9789 217.931 45.5121 217.652 44.9408C217.053 43.7983 216.754 42.1471 216.754 39.9873C216.754 37.5629 217.151 35.7166 217.945 34.4486ZM222.648 34.1978C222.23 33.7519 221.735 33.529 221.164 33.529C220.578 33.529 220.077 33.7519 219.659 34.1978C219.311 34.5601 219.081 35.0617 218.969 35.7027C218.858 36.3436 218.802 37.6813 218.802 39.7156C218.802 41.9172 218.858 43.3663 218.969 44.063C219.081 44.7597 219.331 45.3101 219.722 45.7142C220.112 46.1322 220.592 46.3412 221.164 46.3412C221.721 46.3412 222.195 46.1322 222.585 45.7142C222.989 45.2961 223.24 44.7109 223.337 43.9585C223.435 43.2061 223.491 41.7918 223.505 39.7156C223.505 37.6952 223.449 36.3645 223.337 35.7236C223.226 35.0826 222.996 34.574 222.648 34.1978Z" fill="white"/>
</g>
<defs>
<clipPath id="clip0_588_6826">
<rect width="700" height="234" fill="white"/>
</clipPath>
<clipPath id="clip1_588_6826">
<rect width="1284" height="1284" fill="white" transform="translate(-292.5 -525)"/>
</clipPath>
</defs>
</svg>
