<svg width="700" height="234" viewBox="0 0 700 234" fill="none" xmlns="http://www.w3.org/2000/svg">
<g clip-path="url(#clip0_588_6834)">
<rect width="700" height="234" fill="#0A0D12"/>
<g clip-path="url(#clip1_588_6834)">
<rect width="1284" height="1284" transform="translate(-292.5 -525)" fill="#0A0D12"/>
<g opacity="0.4">
<line x1="408.656" y1="-1167" x2="408.656" y2="1401" stroke="#67DBFF" stroke-width="0.917143"/>
<line x1="467.353" y1="-1167" x2="467.353" y2="1401" stroke="#67DBFF" stroke-width="0.917143"/>
<line x1="526.05" y1="-1167" x2="526.05" y2="1401" stroke="#67DBFF" stroke-width="0.917143"/>
<line x1="584.748" y1="-1167" x2="584.747" y2="1401" stroke="#67DBFF" stroke-width="0.917143"/>
<line x1="643.444" y1="-1167" x2="643.444" y2="1401" stroke="#67DBFF" stroke-width="0.917143"/>
<line x1="56.4732" y1="-1167" x2="56.473" y2="1401" stroke="#67DBFF" stroke-width="0.917143"/>
<line x1="115.17" y1="-1167" x2="115.169" y2="1401" stroke="#67DBFF" stroke-width="0.917143"/>
<line x1="173.867" y1="-1167" x2="173.867" y2="1401" stroke="#67DBFF" stroke-width="0.917143"/>
<line x1="232.564" y1="-1167" x2="232.564" y2="1401" stroke="#67DBFF" stroke-width="0.917143"/>
<line x1="291.261" y1="-1167" x2="291.261" y2="1401" stroke="#67DBFF" stroke-width="0.917143"/>
<line x1="-934.5" y1="57.8442" x2="1633.5" y2="57.8442" stroke="#67DBFF" stroke-width="0.917143"/>
<line x1="-934.5" y1="233.936" x2="1633.5" y2="233.936" stroke="#67DBFF" stroke-width="0.917143"/>
<line x1="-934.5" y1="175.239" x2="1633.5" y2="175.239" stroke="#67DBFF" stroke-width="0.917143"/>
</g>
<line x1="349.959" y1="-1167" x2="349.958" y2="1401" stroke="#E6E6E6" stroke-width="0.917143"/>
<line x1="-934.5" y1="116.541" x2="1633.5" y2="116.541" stroke="#E6E6E6" stroke-width="0.917143"/>
</g>
<mask id="path-16-inside-1_588_6834" fill="white">
<path d="M350.5 509C272.871 509 196.985 485.98 132.439 442.852C67.8924 399.723 17.5847 338.423 -12.1227 266.703C-41.8301 194.983 -49.6029 116.065 -34.4582 39.927C-19.3135 -36.2106 18.0685 -106.147 72.9606 -161.039L350.5 116.5L350.5 509Z"/>
</mask>
<path d="M350.5 509C272.871 509 196.985 485.98 132.439 442.852C67.8924 399.723 17.5847 338.423 -12.1227 266.703C-41.8301 194.983 -49.6029 116.065 -34.4582 39.927C-19.3135 -36.2106 18.0685 -106.147 72.9606 -161.039L350.5 116.5L350.5 509Z" fill="#18FF21" fill-opacity="0.2" stroke="#67FF6D" stroke-width="2" mask="url(#path-16-inside-1_588_6834)"/>
<path d="M348.5 117C348.5 117.828 349.172 118.5 350 118.5C350.828 118.5 351.5 117.828 351.5 117L348.5 117ZM350 58L341.34 73L358.66 73L350 58ZM351.5 117L351.5 71.5L348.5 71.5L348.5 117L351.5 117Z" fill="#EB5757"/>
<path d="M287.959 62.2299C287.973 62.2299 288.475 62.1951 289.464 62.1254C290.453 62.0557 290.962 62.0139 290.99 62C291.157 62 291.241 62.0557 291.241 62.1672C291.241 62.2647 290.732 64.3686 289.715 68.4788C288.698 72.589 288.175 74.6859 288.148 74.7695C288.12 74.853 288.113 74.9575 288.127 75.0829C288.127 75.6681 288.322 75.9607 288.712 75.9607C288.837 75.9468 288.977 75.8841 289.13 75.7726C289.422 75.494 289.708 74.8252 289.987 73.7663C290.07 73.4876 290.14 73.3413 290.196 73.3274C290.224 73.3135 290.293 73.3065 290.405 73.3065H290.572C290.781 73.3065 290.885 73.3622 290.885 73.4737C290.885 73.5434 290.864 73.6548 290.823 73.8081C290.642 74.5047 290.433 75.069 290.196 75.5009C289.959 75.9328 289.764 76.2115 289.61 76.3369C289.457 76.4623 289.262 76.5738 289.025 76.6713C288.914 76.6992 288.747 76.7131 288.524 76.7131C288.05 76.7131 287.653 76.6086 287.332 76.3996C287.012 76.1906 286.803 75.9746 286.705 75.7517L286.58 75.4382C286.566 75.4243 286.538 75.4313 286.497 75.4591C286.469 75.487 286.441 75.5149 286.413 75.5427C285.591 76.323 284.755 76.7131 283.905 76.7131C283.139 76.7131 282.463 76.4344 281.878 75.8771C281.293 75.3198 281 74.4351 281 73.2229C281 72.5541 281.139 71.8714 281.418 71.1748C281.697 70.4781 282.031 69.879 282.421 69.3774C283.076 68.5833 283.731 68.0329 284.386 67.7264C285.041 67.4199 285.633 67.2666 286.162 67.2666C286.942 67.2666 287.528 67.5592 287.918 68.1444C287.987 68.228 288.022 68.2558 288.022 68.228C288.036 68.1722 288.224 67.4129 288.586 65.95C288.949 64.487 289.144 63.7137 289.172 63.6301C289.172 63.449 289.123 63.3376 289.025 63.2958C288.928 63.254 288.656 63.2191 288.21 63.1913H287.771C287.688 63.1077 287.646 63.0519 287.646 63.0241C287.646 62.9962 287.66 62.8638 287.688 62.627C287.757 62.3623 287.848 62.2299 287.959 62.2299ZM287.667 69.6909C287.346 68.5902 286.824 68.0399 286.099 68.0399C285.612 68.0399 285.145 68.2558 284.699 68.6878C284.253 69.1197 283.905 69.684 283.654 70.3806C283.25 71.4813 282.965 72.6238 282.797 73.8081C282.797 73.8499 282.797 73.9265 282.797 74.038C282.797 74.1494 282.79 74.233 282.776 74.2888C282.776 74.9157 282.902 75.3477 283.153 75.5845C283.403 75.8214 283.703 75.9468 284.051 75.9607C284.804 75.9607 285.577 75.4591 286.371 74.456L286.538 74.2261L287.667 69.6909Z" fill="white"/>
<path d="M292.766 62.9823C292.766 62.8429 292.794 62.6827 292.85 62.5016C292.906 62.3205 292.989 62.2299 293.101 62.2299C293.115 62.2299 293.616 62.1951 294.605 62.1254C295.595 62.0557 296.103 62.0139 296.131 62C296.298 62 296.382 62.0627 296.382 62.1881C296.382 62.3135 296.145 63.3097 295.671 65.1767C295.56 65.6504 295.441 66.1381 295.316 66.6396C295.191 67.1412 295.086 67.5174 295.003 67.7682L294.919 68.1653C294.919 68.2071 294.961 68.1862 295.044 68.1026C295.727 67.5453 296.431 67.2666 297.155 67.2666C298.019 67.2666 298.716 67.5871 299.245 68.228C299.775 68.8689 300.046 69.677 300.06 70.6523C300.06 72.1988 299.51 73.5991 298.409 74.853C297.308 76.107 296.124 76.734 294.856 76.734C294.16 76.734 293.526 76.4693 292.954 75.9398C292.383 75.4104 292.091 74.5535 292.077 73.3692V73.1811C292.077 72.8885 292.132 72.4845 292.244 71.969C292.355 71.4534 292.697 70.081 293.268 67.8518C293.965 65.107 294.313 63.651 294.313 63.4838C294.313 63.3167 294.048 63.2191 293.519 63.1913C293.449 63.1913 293.393 63.1913 293.351 63.1913H293.247C293.108 63.1913 293.017 63.1913 292.975 63.1913C292.933 63.1913 292.885 63.1704 292.829 63.1286C292.773 63.0868 292.752 63.038 292.766 62.9823ZM298.263 69.7118V69.5864C298.263 68.5554 297.838 68.0399 296.988 68.0399C296.751 68.0399 296.507 68.0956 296.256 68.2071C296.006 68.3185 295.776 68.4648 295.567 68.646C295.358 68.8271 295.177 68.9943 295.023 69.1475C294.87 69.3008 294.745 69.4541 294.647 69.6073L294.522 69.7745L294.083 71.5719C293.776 72.7701 293.623 73.62 293.623 74.1216C293.623 74.7904 293.79 75.2919 294.125 75.6263C294.348 75.8492 294.626 75.9607 294.961 75.9607C295.42 75.9607 295.887 75.7378 296.361 75.2919C296.709 74.9715 296.988 74.5814 297.197 74.1216C297.406 73.6618 297.636 72.9303 297.887 71.9272C298.137 70.924 298.263 70.1855 298.263 69.7118Z" fill="white"/>
<path d="M361.961 37.2299C361.975 37.2299 362.476 37.1951 363.466 37.1254C364.455 37.0557 364.964 37.0139 364.992 37C365.159 37 365.243 37.0557 365.243 37.1672C365.243 37.2648 364.734 39.3691 363.717 43.4801C362.699 47.5911 362.177 49.6884 362.149 49.772C362.121 49.8556 362.114 49.9602 362.128 50.0856C362.128 50.6709 362.323 50.9635 362.713 50.9635C362.839 50.9496 362.978 50.8869 363.131 50.7754C363.424 50.4967 363.71 49.8278 363.988 48.7687C364.072 48.4899 364.142 48.3436 364.198 48.3297C364.225 48.3158 364.295 48.3088 364.407 48.3088H364.574C364.783 48.3088 364.887 48.3645 364.887 48.476C364.887 48.5457 364.866 48.6572 364.825 48.8105C364.643 49.5072 364.434 50.0716 364.198 50.5036C363.961 50.9357 363.766 51.2144 363.612 51.3398C363.459 51.4652 363.264 51.5767 363.027 51.6742C362.915 51.7021 362.748 51.7161 362.525 51.7161C362.051 51.7161 361.654 51.6115 361.334 51.4025C361.013 51.1935 360.804 50.9775 360.707 50.7545L360.581 50.4409C360.567 50.427 360.539 50.434 360.498 50.4618C360.47 50.4897 360.442 50.5176 360.414 50.5455C359.592 51.3259 358.756 51.7161 357.906 51.7161C357.139 51.7161 356.463 51.4373 355.878 50.8799C355.293 50.3225 355 49.4376 355 48.2252C355 47.5563 355.139 46.8734 355.418 46.1766C355.697 45.4798 356.031 44.8806 356.421 44.3789C357.076 43.5846 357.731 43.0341 358.386 42.7276C359.041 42.421 359.634 42.2677 360.163 42.2677C360.944 42.2677 361.529 42.5603 361.919 43.1456C361.989 43.2292 362.024 43.2571 362.024 43.2292C362.038 43.1735 362.226 42.414 362.588 40.9508C362.95 39.4875 363.145 38.7141 363.173 38.6305C363.173 38.4493 363.124 38.3378 363.027 38.296C362.929 38.2542 362.658 38.2194 362.212 38.1915H361.773C361.689 38.1079 361.647 38.0521 361.647 38.0243C361.647 37.9964 361.661 37.864 361.689 37.6271C361.759 37.3623 361.849 37.2299 361.961 37.2299ZM361.668 44.6925C361.348 43.5916 360.825 43.0411 360.1 43.0411C359.613 43.0411 359.146 43.2571 358.7 43.6891C358.254 44.1211 357.906 44.6855 357.655 45.3823C357.251 46.4832 356.965 47.6259 356.798 48.8105C356.798 48.8523 356.798 48.9289 356.798 49.0404C356.798 49.1519 356.791 49.2355 356.777 49.2912C356.777 49.9184 356.902 50.3504 357.153 50.5873C357.404 50.8242 357.704 50.9496 358.052 50.9635C358.804 50.9635 359.578 50.4618 360.372 49.4585L360.539 49.2285L361.668 44.6925Z" fill="white"/>
<path d="M365.953 48.1834C365.953 46.6644 366.553 45.2987 367.751 44.0863C368.95 42.8739 370.246 42.2677 371.639 42.2677C372.42 42.2677 373.033 42.4349 373.479 42.7694C373.925 43.1038 374.155 43.5428 374.168 44.0863C374.168 44.4904 374.036 44.8318 373.771 45.1105C373.507 45.3893 373.172 45.5356 372.768 45.5495C372.503 45.5495 372.294 45.4798 372.141 45.3405C371.988 45.2011 371.911 44.9921 371.911 44.7134C371.911 44.4347 371.988 44.1978 372.141 44.0027C372.294 43.8076 372.447 43.6612 372.601 43.5637C372.754 43.4661 372.852 43.4243 372.893 43.4383H372.914C372.914 43.4104 372.872 43.3686 372.789 43.3129C372.705 43.2571 372.559 43.2014 372.35 43.1456C372.141 43.0899 371.904 43.062 371.639 43.062C371.221 43.062 370.824 43.1596 370.448 43.3547C370.155 43.4801 369.855 43.6961 369.549 44.0027C368.936 44.6158 368.49 45.4798 368.211 46.5947C367.932 47.7096 367.786 48.5178 367.772 49.0195C367.772 49.6605 367.953 50.1413 368.316 50.4618C368.622 50.7963 369.026 50.9635 369.528 50.9635H369.612C371.172 50.9635 372.461 50.3713 373.479 49.1867C373.604 49.0474 373.688 48.9777 373.73 48.9777C373.785 48.9777 373.876 49.0404 374.001 49.1658C374.127 49.2912 374.196 49.3888 374.21 49.4585C374.224 49.5282 374.162 49.6327 374.022 49.772C373.883 49.9114 373.681 50.1065 373.416 50.3573C373.151 50.6082 372.838 50.8172 372.475 50.9844C372.113 51.1517 371.667 51.3259 371.137 51.507C370.608 51.6882 370.051 51.7648 369.465 51.737C368.42 51.737 367.577 51.4025 366.936 50.7336C366.295 50.0647 365.967 49.2146 365.953 48.1834Z" fill="white"/>
<path d="M374.754 45.5077C374.754 45.3962 374.817 45.1802 374.942 44.8597C375.067 44.5392 375.242 44.1769 375.465 43.7727C375.687 43.3686 375.994 43.0202 376.384 42.7276C376.774 42.4349 377.186 42.2816 377.618 42.2677C378.259 42.2677 378.739 42.4419 379.06 42.7903C379.38 43.1387 379.541 43.5498 379.541 44.0236C379.541 44.2744 379.304 45.0548 378.83 46.3648C378.356 47.6747 378.119 48.6572 378.119 49.3122C378.119 49.9114 378.217 50.3295 378.412 50.5664C378.607 50.8033 378.9 50.9287 379.29 50.9426C379.68 50.9566 380.049 50.8381 380.398 50.5873C380.746 50.3364 381.004 50.0995 381.171 49.8765L381.401 49.5212C381.429 49.4654 381.694 48.4063 382.195 46.3439C382.613 44.6716 382.864 43.6961 382.948 43.4174C383.032 43.1387 383.129 42.9366 383.241 42.8112C383.478 42.6021 383.728 42.4976 383.993 42.4976C384.23 42.4976 384.404 42.5673 384.516 42.7067C384.627 42.846 384.683 42.9784 384.683 43.1038L383.094 49.7511C383.08 49.8208 383.073 49.9323 383.073 50.0856C383.073 50.434 383.122 50.6639 383.22 50.7754C383.317 50.8869 383.464 50.9496 383.659 50.9635C383.965 50.9217 384.209 50.7057 384.39 50.3155C384.571 49.9253 384.78 49.3122 385.017 48.476C385.045 48.3645 385.185 48.3088 385.435 48.3088C385.7 48.3088 385.833 48.3715 385.833 48.4969C385.819 48.5666 385.805 48.6641 385.791 48.7896C385.777 48.915 385.714 49.138 385.603 49.4585C385.491 49.779 385.373 50.0786 385.247 50.3573C385.122 50.636 384.948 50.9008 384.725 51.1517C384.502 51.4025 384.251 51.5767 383.972 51.6742C383.861 51.7021 383.694 51.7161 383.471 51.7161C382.551 51.7161 381.917 51.3259 381.568 50.5455C381.54 50.5594 381.464 50.6291 381.338 50.7545C381.213 50.8799 381.088 50.9844 380.962 51.068C380.837 51.1517 380.683 51.2562 380.502 51.3816C380.321 51.507 380.119 51.5906 379.896 51.6324C379.673 51.6742 379.436 51.7091 379.185 51.737C378.572 51.737 378.029 51.6115 377.555 51.3607C376.83 50.9287 376.468 50.1901 376.468 49.1449C376.468 48.3506 376.712 47.3124 377.199 46.0303C377.687 44.7482 377.931 43.933 377.931 43.5846C377.931 43.5707 377.931 43.5567 377.931 43.5428C377.931 43.4174 377.931 43.3338 377.931 43.2919C377.931 43.2501 377.903 43.2014 377.848 43.1456C377.792 43.0899 377.715 43.062 377.618 43.062H377.534C377.213 43.062 376.921 43.1944 376.656 43.4592C376.391 43.724 376.182 44.0096 376.029 44.3162C375.876 44.6228 375.757 44.9155 375.674 45.1942C375.59 45.4729 375.534 45.6262 375.506 45.654C375.478 45.6819 375.367 45.6958 375.172 45.6958H374.879C374.796 45.6122 374.754 45.5495 374.754 45.5077Z" fill="white"/>
<path d="M386.711 45.5077C386.725 45.4659 386.738 45.4102 386.752 45.3405C386.766 45.2708 386.801 45.1175 386.857 44.8806C386.913 44.6437 386.982 44.4277 387.066 44.2326C387.15 44.0375 387.254 43.8076 387.379 43.5428C387.505 43.278 387.644 43.069 387.798 42.9157C387.951 42.7624 388.132 42.6091 388.341 42.4558C388.55 42.3025 388.78 42.2398 389.031 42.2677C389.435 42.2677 389.79 42.3513 390.097 42.5185C390.404 42.6857 390.62 42.839 390.745 42.9784C390.87 43.1178 390.947 43.2571 390.975 43.3965C391.003 43.4801 391.024 43.5219 391.038 43.5219C391.052 43.5219 391.107 43.4731 391.205 43.3756C391.874 42.6509 392.647 42.2886 393.525 42.2886H393.588C394.257 42.2886 394.758 42.5743 395.093 43.1456C395.204 43.4104 395.26 43.6682 395.26 43.9191C395.26 44.3371 395.17 44.6716 394.988 44.9224C394.807 45.1733 394.626 45.3335 394.445 45.4032C394.264 45.4729 394.09 45.5007 393.922 45.4868C393.644 45.4868 393.421 45.4102 393.253 45.2569C393.086 45.1036 393.003 44.9015 393.003 44.6507C393.003 43.9818 393.393 43.5358 394.173 43.3129C393.867 43.1317 393.616 43.0411 393.421 43.0411C392.64 43.0411 391.923 43.5567 391.268 44.588C391.128 44.8109 391.024 45.0409 390.954 45.2778C390.884 45.5147 390.647 46.4414 390.243 48.0579C389.769 50.0089 389.498 51.0471 389.428 51.1726C389.247 51.5488 388.947 51.737 388.529 51.737C388.348 51.737 388.202 51.6951 388.09 51.6115C387.979 51.5279 387.902 51.4443 387.86 51.3607C387.818 51.2771 387.805 51.2074 387.818 51.1517C387.818 50.9705 388.097 49.772 388.655 47.5563C389.212 45.3405 389.491 44.1072 389.491 43.8563C389.491 43.3129 389.31 43.0411 388.947 43.0411C388.655 43.0411 388.404 43.2362 388.195 43.6264C387.986 44.0166 387.818 44.4416 387.693 44.9015C387.568 45.3614 387.491 45.6122 387.463 45.654C387.435 45.6819 387.324 45.6958 387.129 45.6958H386.836C386.752 45.6122 386.711 45.5495 386.711 45.5077Z" fill="white"/>
<path d="M396.159 45.5077C396.173 45.4659 396.187 45.4102 396.201 45.3405C396.215 45.2708 396.25 45.1175 396.305 44.8806C396.361 44.6437 396.431 44.4277 396.514 44.2326C396.598 44.0375 396.702 43.8076 396.828 43.5428C396.953 43.278 397.093 43.069 397.246 42.9157C397.399 42.7624 397.58 42.6091 397.789 42.4558C397.998 42.3025 398.228 42.2398 398.479 42.2677C398.883 42.2677 399.239 42.3513 399.545 42.5185C399.852 42.6857 400.068 42.839 400.193 42.9784C400.319 43.1178 400.395 43.2571 400.423 43.3965C400.451 43.4801 400.472 43.5219 400.486 43.5219C400.5 43.5219 400.556 43.4731 400.653 43.3756C401.322 42.6509 402.096 42.2886 402.973 42.2886H403.036C403.705 42.2886 404.207 42.5743 404.541 43.1456C404.653 43.4104 404.708 43.6682 404.708 43.9191C404.708 44.3371 404.618 44.6716 404.437 44.9224C404.256 45.1733 404.074 45.3335 403.893 45.4032C403.712 45.4729 403.538 45.5007 403.371 45.4868C403.092 45.4868 402.869 45.4102 402.702 45.2569C402.535 45.1036 402.451 44.9015 402.451 44.6507C402.451 43.9818 402.841 43.5358 403.621 43.3129C403.315 43.1317 403.064 43.0411 402.869 43.0411C402.089 43.0411 401.371 43.5567 400.716 44.588C400.577 44.8109 400.472 45.0409 400.402 45.2778C400.333 45.5147 400.096 46.4414 399.692 48.0579C399.218 50.0089 398.946 51.0471 398.876 51.1726C398.695 51.5488 398.396 51.737 397.978 51.737C397.796 51.737 397.65 51.6951 397.539 51.6115C397.427 51.5279 397.35 51.4443 397.309 51.3607C397.267 51.2771 397.253 51.2074 397.267 51.1517C397.267 50.9705 397.546 49.772 398.103 47.5563C398.66 45.3405 398.939 44.1072 398.939 43.8563C398.939 43.3129 398.758 43.0411 398.396 43.0411C398.103 43.0411 397.852 43.2362 397.643 43.6264C397.434 44.0166 397.267 44.4416 397.141 44.9015C397.016 45.3614 396.939 45.6122 396.911 45.654C396.884 45.6819 396.772 45.6958 396.577 45.6958H396.284C396.201 45.6122 396.159 45.5495 396.159 45.5077Z" fill="white"/>
<path d="M348.939 118.061C349.525 118.646 350.475 118.646 351.061 118.061C351.646 117.475 351.646 116.525 351.061 115.939L348.939 118.061ZM310 77L314.483 93.7303L326.73 81.4829L310 77ZM351.061 115.939L320.607 85.4853L318.485 87.6066L348.939 118.061L351.061 115.939Z" fill="#006AE7"/>
<path d="M27.4648 149.34C27.4777 149.34 27.9436 149.307 28.8625 149.24C29.7815 149.173 30.2539 149.133 30.2797 149.12C30.435 149.12 30.5127 149.173 30.5127 149.28C30.5127 149.373 30.0403 151.387 29.0955 155.32C28.1507 159.253 27.6654 161.26 27.6395 161.34C27.6136 161.42 27.6071 161.52 27.6201 161.64C27.6201 162.2 27.8013 162.48 28.1636 162.48C28.2801 162.467 28.4096 162.407 28.5519 162.3C28.8237 162.033 29.089 161.393 29.3479 160.38C29.4255 160.113 29.4903 159.973 29.542 159.96C29.5679 159.947 29.6326 159.94 29.7362 159.94H29.8915C30.0856 159.94 30.1827 159.993 30.1827 160.1C30.1827 160.167 30.1633 160.273 30.1244 160.42C29.9562 161.087 29.762 161.627 29.542 162.04C29.322 162.453 29.1408 162.72 28.9984 162.84C28.8561 162.96 28.6749 163.067 28.4549 163.16C28.3513 163.187 28.196 163.2 27.9889 163.2C27.5489 163.2 27.18 163.1 26.8823 162.9C26.5847 162.7 26.3905 162.493 26.2999 162.28L26.1835 161.98C26.1705 161.967 26.1446 161.973 26.1058 162C26.0799 162.027 26.054 162.053 26.0281 162.08C25.2645 162.827 24.488 163.2 23.6985 163.2C22.9867 163.2 22.359 162.933 21.8154 162.4C21.2718 161.867 21 161.02 21 159.86C21 159.22 21.1294 158.567 21.3883 157.9C21.6471 157.233 21.9577 156.66 22.3201 156.18C22.9284 155.42 23.5367 154.893 24.145 154.6C24.7533 154.307 25.3034 154.16 25.7952 154.16C26.52 154.16 27.0635 154.44 27.4259 155C27.4906 155.08 27.523 155.107 27.523 155.08C27.5359 155.027 27.7107 154.3 28.0472 152.9C28.3837 151.5 28.5649 150.76 28.5908 150.68C28.5908 150.507 28.5455 150.4 28.4549 150.36C28.3643 150.32 28.1119 150.287 27.6977 150.26H27.29C27.2124 150.18 27.1736 150.127 27.1736 150.1C27.1736 150.073 27.1865 149.947 27.2124 149.72C27.2771 149.467 27.3612 149.34 27.4648 149.34ZM27.193 156.48C26.8953 155.427 26.4099 154.9 25.7369 154.9C25.284 154.9 24.8504 155.107 24.4362 155.52C24.0221 155.933 23.6985 156.473 23.4655 157.14C23.0902 158.193 22.8249 159.287 22.6696 160.42C22.6696 160.46 22.6696 160.533 22.6696 160.64C22.6696 160.747 22.6631 160.827 22.6502 160.88C22.6502 161.48 22.7666 161.893 22.9996 162.12C23.2326 162.347 23.5108 162.467 23.8344 162.48C24.5333 162.48 25.2516 162 25.9893 161.04L26.1446 160.82L27.193 156.48Z" fill="white"/>
<path d="M31.2698 159.64C31.2698 158.88 31.3928 158.187 31.6387 157.56C31.8846 156.933 32.2017 156.413 32.59 156C32.9782 155.587 33.4118 155.24 33.8907 154.96C34.3696 154.68 34.8225 154.473 35.2496 154.34C35.6767 154.207 36.0844 154.147 36.4727 154.16H36.5309C37.1134 154.16 37.6181 154.307 38.0452 154.6C38.4723 154.893 38.6859 155.327 38.6859 155.9C38.6859 157.1 37.9676 157.887 36.5309 158.26C35.8968 158.433 35.0296 158.527 33.9295 158.54C33.4506 158.54 33.2047 158.553 33.1918 158.58C33.1918 158.607 33.153 158.84 33.0753 159.28C32.9977 159.72 32.9524 160.107 32.9394 160.44C32.9394 161.067 33.0753 161.56 33.3471 161.92C33.6189 162.28 34.0266 162.467 34.5702 162.48C35.1137 162.493 35.7156 162.367 36.3756 162.1C37.0357 161.833 37.6311 161.393 38.1617 160.78C38.2782 160.647 38.3558 160.58 38.3947 160.58C38.4464 160.58 38.5306 160.64 38.647 160.76C38.7635 160.88 38.8282 160.973 38.8412 161.04C38.8541 161.107 38.7959 161.213 38.6665 161.36C38.537 161.507 38.3429 161.687 38.084 161.9C37.8252 162.113 37.5275 162.32 37.191 162.52C36.8545 162.72 36.4468 162.887 35.9679 163.02C35.4891 163.153 34.9973 163.22 34.4925 163.22C33.4701 163.22 32.6806 162.867 32.124 162.16C31.5675 161.453 31.2828 160.613 31.2698 159.64ZM37.754 155.94C37.6764 155.247 37.2363 154.9 36.4339 154.9C36.0068 154.9 35.612 154.993 35.2496 155.18C34.8873 155.367 34.596 155.593 34.376 155.86C34.156 156.127 33.9683 156.4 33.813 156.68C33.6577 156.96 33.5542 157.2 33.5024 157.4C33.4506 157.6 33.4183 157.727 33.4053 157.78C33.4053 157.793 33.5348 157.8 33.7936 157.8C35.2561 157.8 36.2786 157.64 36.861 157.32C37.4434 157 37.7411 156.54 37.754 155.94Z" fill="white"/>
<path d="M40.0836 155.3C39.9931 155.207 39.9478 155.14 39.9478 155.1C39.9478 155.047 39.9672 154.94 40.006 154.78C40.0448 154.62 40.0772 154.527 40.1031 154.5C40.1289 154.433 40.1872 154.4 40.2778 154.4C40.3684 154.4 40.6984 154.393 41.2679 154.38H42.2968L42.6657 152.78C42.7045 152.633 42.7498 152.44 42.8016 152.2C42.8533 151.96 42.8986 151.787 42.9375 151.68C42.9763 151.573 43.0151 151.44 43.0539 151.28C43.0928 151.12 43.1445 151.007 43.2093 150.94C43.274 150.873 43.3387 150.793 43.4034 150.7C43.4681 150.607 43.5587 150.547 43.6752 150.52C43.7917 150.493 43.9081 150.48 44.0246 150.48C44.2576 150.493 44.4194 150.567 44.51 150.7C44.6006 150.833 44.6459 150.96 44.6459 151.08C44.6459 151.173 44.5876 151.487 44.4711 152.02C44.3547 152.553 44.2252 153.08 44.0829 153.6L43.8887 154.34C43.8887 154.367 44.2123 154.38 44.8594 154.38H45.8495C45.9401 154.473 45.9854 154.547 45.9854 154.6C45.9854 154.893 45.9013 155.127 45.733 155.3H43.6558L42.9569 158.2C42.4521 160.333 42.1997 161.48 42.1997 161.64C42.1997 162.2 42.3745 162.48 42.7239 162.48C43.1769 162.48 43.6169 162.253 44.044 161.8C44.4711 161.347 44.8141 160.787 45.073 160.12C45.0989 160.04 45.1312 159.993 45.17 159.98C45.2089 159.967 45.3059 159.953 45.4612 159.94H45.5389C45.733 159.94 45.8301 159.993 45.8301 160.1C45.8301 160.14 45.8107 160.22 45.7719 160.34C45.7071 160.553 45.5907 160.807 45.4224 161.1C45.2542 161.393 45.0341 161.707 44.7623 162.04C44.4906 162.373 44.1605 162.653 43.7722 162.88C43.384 163.107 42.9892 163.22 42.588 163.22C42.1997 163.22 41.8309 163.12 41.4814 162.92C41.132 162.72 40.8796 162.373 40.7243 161.88C40.6984 161.773 40.6855 161.593 40.6855 161.34V160.98L41.365 158.18C41.8179 156.3 42.0509 155.353 42.0638 155.34C42.0638 155.313 41.7338 155.3 41.0737 155.3H40.0836Z" fill="white"/>
<path d="M48.4121 158C48.4121 157.08 48.4768 156.207 48.6063 155.38C48.7357 154.553 48.8845 153.84 49.0528 153.24C49.221 152.64 49.4605 152.053 49.7711 151.48C50.0817 150.907 50.3276 150.46 50.5088 150.14C50.69 149.82 50.9618 149.473 51.3242 149.1C51.6866 148.727 51.9001 148.5 51.9648 148.42C52.0295 148.34 52.1913 148.2 52.4502 148H52.7802C52.9614 148 53.052 148.06 53.052 148.18C53.052 148.22 52.942 148.36 52.722 148.6C52.5019 148.84 52.2366 149.193 51.926 149.66C51.6154 150.127 51.2983 150.7 50.9747 151.38C50.6512 152.06 50.3794 152.98 50.1594 154.14C49.9393 155.3 49.8293 156.587 49.8293 158C49.8293 159.413 49.9393 160.693 50.1594 161.84C50.3794 162.987 50.6447 163.913 50.9553 164.62C51.2659 165.327 51.583 165.9 51.9066 166.34C52.2301 166.78 52.5019 167.133 52.722 167.4C52.942 167.667 53.052 167.807 53.052 167.82C53.052 167.94 52.9549 168 52.7608 168H52.4502L51.9066 167.52C50.69 166.387 49.8034 164.973 49.2469 163.28C48.6904 161.587 48.4121 159.827 48.4121 158Z" fill="white"/>
<path d="M61.264 149.34C61.2769 149.34 61.7428 149.307 62.6618 149.24C63.5807 149.173 64.0531 149.133 64.079 149.12C64.2343 149.12 64.3119 149.173 64.3119 149.28C64.3119 149.373 63.8395 151.387 62.8947 155.32C61.9499 159.253 61.4646 161.26 61.4387 161.34C61.4128 161.42 61.4063 161.52 61.4193 161.64C61.4193 162.2 61.6005 162.48 61.9629 162.48C62.0794 162.467 62.2088 162.407 62.3511 162.3C62.6229 162.033 62.8883 161.393 63.1471 160.38C63.2248 160.113 63.2895 159.973 63.3412 159.96C63.3671 159.947 63.4318 159.94 63.5354 159.94H63.6907C63.8848 159.94 63.9819 159.993 63.9819 160.1C63.9819 160.167 63.9625 160.273 63.9237 160.42C63.7554 161.087 63.5613 161.627 63.3412 162.04C63.1212 162.453 62.94 162.72 62.7977 162.84C62.6553 162.96 62.4741 163.067 62.2541 163.16C62.1505 163.187 61.9952 163.2 61.7881 163.2C61.3481 163.2 60.9792 163.1 60.6816 162.9C60.3839 162.7 60.1898 162.493 60.0992 162.28L59.9827 161.98C59.9697 161.967 59.9438 161.973 59.905 162C59.8791 162.027 59.8532 162.053 59.8274 162.08C59.0638 162.827 58.2872 163.2 57.4977 163.2C56.7859 163.2 56.1582 162.933 55.6146 162.4C55.071 161.867 54.7992 161.02 54.7992 159.86C54.7992 159.22 54.9286 158.567 55.1875 157.9C55.4463 157.233 55.757 156.66 56.1194 156.18C56.7276 155.42 57.3359 154.893 57.9442 154.6C58.5525 154.307 59.1026 154.16 59.5944 154.16C60.3192 154.16 60.8628 154.44 61.2251 155C61.2899 155.08 61.3222 155.107 61.3222 155.08C61.3352 155.027 61.5099 154.3 61.8464 152.9C62.1829 151.5 62.3641 150.76 62.39 150.68C62.39 150.507 62.3447 150.4 62.2541 150.36C62.1635 150.32 61.9111 150.287 61.4969 150.26H61.0893C61.0116 150.18 60.9728 150.127 60.9728 150.1C60.9728 150.073 60.9857 149.947 61.0116 149.72C61.0763 149.467 61.1604 149.34 61.264 149.34ZM60.9922 156.48C60.6945 155.427 60.2092 154.9 59.5362 154.9C59.0832 154.9 58.6496 155.107 58.2354 155.52C57.8213 155.933 57.4977 156.473 57.2648 157.14C56.8894 158.193 56.6241 159.287 56.4688 160.42C56.4688 160.46 56.4688 160.533 56.4688 160.64C56.4688 160.747 56.4623 160.827 56.4494 160.88C56.4494 161.48 56.5659 161.893 56.7988 162.12C57.0318 162.347 57.3101 162.467 57.6336 162.48C58.3325 162.48 59.0508 162 59.7885 161.04L59.9438 160.82L60.9922 156.48Z" fill="white"/>
<path d="M64.972 159.82C64.972 158.367 65.5285 157.06 66.6416 155.9C67.7546 154.74 68.9583 154.16 70.2525 154.16C70.9773 154.16 71.5468 154.32 71.9609 154.64C72.3751 154.96 72.5886 155.38 72.6016 155.9C72.6016 156.287 72.4786 156.613 72.2327 156.88C71.9868 157.147 71.6762 157.287 71.3008 157.3C71.0549 157.3 70.8608 157.233 70.7184 157.1C70.5761 156.967 70.5049 156.767 70.5049 156.5C70.5049 156.233 70.5761 156.007 70.7184 155.82C70.8608 155.633 71.0032 155.493 71.1455 155.4C71.2879 155.307 71.3785 155.267 71.4173 155.28H71.4367C71.4367 155.253 71.3979 155.213 71.3203 155.16C71.2426 155.107 71.1067 155.053 70.9126 155C70.7184 154.947 70.4984 154.92 70.2525 154.92C69.8642 154.92 69.4954 155.013 69.1459 155.2C68.8741 155.32 68.5959 155.527 68.3111 155.82C67.7417 156.407 67.3275 157.233 67.0687 158.3C66.8098 159.367 66.6739 160.14 66.661 160.62C66.661 161.233 66.8292 161.693 67.1657 162C67.4505 162.32 67.8258 162.48 68.2917 162.48H68.3694C69.8189 162.48 71.0161 161.913 71.9609 160.78C72.0774 160.647 72.1551 160.58 72.1939 160.58C72.2456 160.58 72.3298 160.64 72.4463 160.76C72.5627 160.88 72.6275 160.973 72.6404 161.04C72.6533 161.107 72.5951 161.207 72.4657 161.34C72.3362 161.473 72.1486 161.66 71.9027 161.9C71.6568 162.14 71.3656 162.34 71.0291 162.5C70.6926 162.66 70.2784 162.827 69.7866 163C69.2948 163.173 68.7771 163.247 68.2335 163.22C67.2628 163.22 66.4798 162.9 65.8844 162.26C65.2891 161.62 64.9849 160.807 64.972 159.82Z" fill="white"/>
<path d="M73.1451 157.26C73.1451 157.153 73.2034 156.947 73.3199 156.64C73.4364 156.333 73.5981 155.987 73.8052 155.6C74.0123 155.213 74.297 154.88 74.6594 154.6C75.0218 154.32 75.4036 154.173 75.8048 154.16C76.4002 154.16 76.8467 154.327 77.1444 154.66C77.442 154.993 77.5909 155.387 77.5909 155.84C77.5909 156.08 77.3709 156.827 76.9308 158.08C76.4908 159.333 76.2708 160.273 76.2708 160.9C76.2708 161.473 76.3613 161.873 76.5425 162.1C76.7237 162.327 76.9955 162.447 77.3579 162.46C77.7203 162.473 78.0633 162.36 78.3868 162.12C78.7104 161.88 78.9498 161.653 79.1052 161.44L79.3187 161.1C79.3446 161.047 79.5905 160.033 80.0564 158.06C80.4447 156.46 80.6777 155.527 80.7553 155.26C80.833 154.993 80.9236 154.8 81.0271 154.68C81.2471 154.48 81.4801 154.38 81.726 154.38C81.946 154.38 82.1078 154.447 82.2113 154.58C82.3149 154.713 82.3666 154.84 82.3666 154.96L80.8912 161.32C80.8783 161.387 80.8718 161.493 80.8718 161.64C80.8718 161.973 80.9171 162.193 81.0077 162.3C81.0983 162.407 81.2342 162.467 81.4154 162.48C81.7001 162.44 81.9266 162.233 82.0949 161.86C82.2631 161.487 82.4572 160.9 82.6773 160.1C82.7032 159.993 82.8326 159.94 83.0655 159.94C83.3114 159.94 83.4344 160 83.4344 160.12C83.4215 160.187 83.4085 160.28 83.3956 160.4C83.3826 160.52 83.3244 160.733 83.2209 161.04C83.1173 161.347 83.0073 161.633 82.8908 161.9C82.7743 162.167 82.6126 162.42 82.4055 162.66C82.1984 162.9 81.9654 163.067 81.7066 163.16C81.603 163.187 81.4477 163.2 81.2407 163.2C80.3865 163.2 79.7976 162.827 79.474 162.08C79.4481 162.093 79.3769 162.16 79.2605 162.28C79.144 162.4 79.0275 162.5 78.911 162.58C78.7945 162.66 78.6522 162.76 78.4839 162.88C78.3157 163 78.128 163.08 77.9209 163.12C77.7138 163.16 77.4938 163.193 77.2608 163.22C76.6914 163.22 76.1866 163.1 75.7466 162.86C75.0736 162.447 74.7371 161.74 74.7371 160.74C74.7371 159.98 74.9636 158.987 75.4165 157.76C75.8695 156.533 76.096 155.753 76.096 155.42C76.096 155.407 76.096 155.393 76.096 155.38C76.096 155.26 76.096 155.18 76.096 155.14C76.096 155.1 76.0701 155.053 76.0184 155C75.9666 154.947 75.8954 154.92 75.8048 154.92H75.7272C75.4295 154.92 75.1577 155.047 74.9118 155.3C74.6659 155.553 74.4718 155.827 74.3294 156.12C74.187 156.413 74.077 156.693 73.9994 156.96C73.9217 157.227 73.8699 157.373 73.844 157.4C73.8182 157.427 73.7146 157.44 73.5334 157.44H73.2616C73.184 157.36 73.1451 157.3 73.1451 157.26Z" fill="white"/>
<path d="M84.2498 157.26C84.2627 157.22 84.2757 157.167 84.2886 157.1C84.3015 157.033 84.3339 156.887 84.3857 156.66C84.4374 156.433 84.5022 156.227 84.5798 156.04C84.6575 155.853 84.7545 155.633 84.871 155.38C84.9875 155.127 85.1169 154.927 85.2593 154.78C85.4017 154.633 85.5699 154.487 85.764 154.34C85.9582 154.193 86.1717 154.133 86.4047 154.16C86.78 154.16 87.1101 154.24 87.3948 154.4C87.6795 154.56 87.8801 154.707 87.9966 154.84C88.1131 154.973 88.1843 155.107 88.2102 155.24C88.2361 155.32 88.2555 155.36 88.2684 155.36C88.2814 155.36 88.3331 155.313 88.4237 155.22C89.045 154.527 89.7633 154.18 90.5786 154.18H90.6369C91.2581 154.18 91.724 154.453 92.0347 155C92.1382 155.253 92.19 155.5 92.19 155.74C92.19 156.14 92.1059 156.46 91.9376 156.7C91.7693 156.94 91.6011 157.093 91.4328 157.16C91.2646 157.227 91.1028 157.253 90.9475 157.24C90.6887 157.24 90.4816 157.167 90.3263 157.02C90.171 156.873 90.0933 156.68 90.0933 156.44C90.0933 155.8 90.4557 155.373 91.1805 155.16C90.8957 154.987 90.6628 154.9 90.4816 154.9C89.7568 154.9 89.0903 155.393 88.482 156.38C88.3525 156.593 88.2555 156.813 88.1908 157.04C88.126 157.267 87.906 158.153 87.5307 159.7C87.0906 161.567 86.8383 162.56 86.7736 162.68C86.6053 163.04 86.327 163.22 85.9388 163.22C85.7705 163.22 85.6346 163.18 85.5311 163.1C85.4275 163.02 85.3564 162.94 85.3175 162.86C85.2787 162.78 85.2658 162.713 85.2787 162.66C85.2787 162.487 85.5376 161.34 86.0552 159.22C86.5729 157.1 86.8318 155.92 86.8318 155.68C86.8318 155.16 86.6636 154.9 86.327 154.9C86.0553 154.9 85.8223 155.087 85.6281 155.46C85.434 155.833 85.2787 156.24 85.1622 156.68C85.0457 157.12 84.9746 157.36 84.9487 157.4C84.9228 157.427 84.8192 157.44 84.6381 157.44H84.3663C84.2886 157.36 84.2498 157.3 84.2498 157.26Z" fill="white"/>
<path d="M93.0248 157.26C93.0377 157.22 93.0506 157.167 93.0636 157.1C93.0765 157.033 93.1089 156.887 93.1607 156.66C93.2124 156.433 93.2771 156.227 93.3548 156.04C93.4325 155.853 93.5295 155.633 93.646 155.38C93.7625 155.127 93.8919 154.927 94.0343 154.78C94.1766 154.633 94.3449 154.487 94.539 154.34C94.7332 154.193 94.9467 154.133 95.1797 154.16C95.555 154.16 95.885 154.24 96.1698 154.4C96.4545 154.56 96.6551 154.707 96.7716 154.84C96.8881 154.973 96.9593 155.107 96.9852 155.24C97.011 155.32 97.0305 155.36 97.0434 155.36C97.0563 155.36 97.1081 155.313 97.1987 155.22C97.8199 154.527 98.5382 154.18 99.3536 154.18H99.4119C100.033 154.18 100.499 154.453 100.81 155C100.913 155.253 100.965 155.5 100.965 155.74C100.965 156.14 100.881 156.46 100.713 156.7C100.544 156.94 100.376 157.093 100.208 157.16C100.04 157.227 99.8778 157.253 99.7225 157.24C99.4636 157.24 99.2566 157.167 99.1012 157.02C98.9459 156.873 98.8683 156.68 98.8683 156.44C98.8683 155.8 99.2307 155.373 99.9554 155.16C99.6707 154.987 99.4377 154.9 99.2566 154.9C98.5318 154.9 97.8652 155.393 97.2569 156.38C97.1275 156.593 97.0304 156.813 96.9657 157.04C96.901 157.267 96.681 158.153 96.3057 159.7C95.8656 161.567 95.6132 162.56 95.5485 162.68C95.3803 163.04 95.102 163.22 94.7137 163.22C94.5455 163.22 94.4096 163.18 94.3061 163.1C94.2025 163.02 94.1313 162.94 94.0925 162.86C94.0537 162.78 94.0407 162.713 94.0537 162.66C94.0537 162.487 94.3125 161.34 94.8302 159.22C95.3479 157.1 95.6068 155.92 95.6068 155.68C95.6068 155.16 95.4385 154.9 95.102 154.9C94.8302 154.9 94.5973 155.087 94.4031 155.46C94.209 155.833 94.0537 156.24 93.9372 156.68C93.8207 157.12 93.7495 157.36 93.7237 157.4C93.6978 157.427 93.5942 157.44 93.413 157.44H93.1412C93.0636 157.36 93.0248 157.3 93.0248 157.26Z" fill="white"/>
<path d="M102.887 162.3C102.887 162.3 102.887 162.133 102.887 161.8C102.887 161.467 102.99 161.18 103.198 160.94C103.405 160.7 103.683 160.58 104.032 160.58C104.395 160.58 104.718 160.747 105.003 161.08C105.288 161.413 105.437 162 105.45 162.84C105.45 163.307 105.391 163.76 105.275 164.2C105.158 164.64 105.022 165.02 104.867 165.34C104.712 165.66 104.544 165.933 104.362 166.16C104.181 166.387 104.026 166.567 103.896 166.7C103.767 166.833 103.683 166.893 103.644 166.88C103.592 166.88 103.508 166.82 103.392 166.7C103.275 166.58 103.217 166.493 103.217 166.44C103.217 166.387 103.288 166.28 103.43 166.12C103.573 165.96 103.735 165.76 103.916 165.52C104.097 165.28 104.265 164.947 104.421 164.52C104.576 164.093 104.679 163.607 104.731 163.06V162.82L104.712 162.84C104.686 162.853 104.654 162.867 104.615 162.88C104.576 162.893 104.537 162.913 104.498 162.94C104.459 162.967 104.401 162.98 104.324 162.98C104.246 162.98 104.168 162.987 104.091 163C103.741 163 103.456 162.887 103.236 162.66L102.887 162.3Z" fill="white"/>
<path d="M117.117 149.34C117.13 149.34 117.596 149.307 118.515 149.24C119.434 149.173 119.906 149.133 119.932 149.12C120.087 149.12 120.165 149.173 120.165 149.28C120.165 149.373 119.693 151.387 118.748 155.32C117.803 159.253 117.318 161.26 117.292 161.34C117.266 161.42 117.26 161.52 117.272 161.64C117.272 162.2 117.454 162.48 117.816 162.48C117.933 162.467 118.062 162.407 118.204 162.3C118.476 162.033 118.741 161.393 119 160.38C119.078 160.113 119.143 159.973 119.194 159.96C119.22 159.947 119.285 159.94 119.389 159.94H119.544C119.738 159.94 119.835 159.993 119.835 160.1C119.835 160.167 119.816 160.273 119.777 160.42C119.609 161.087 119.414 161.627 119.194 162.04C118.974 162.453 118.793 162.72 118.651 162.84C118.508 162.96 118.327 163.067 118.107 163.16C118.004 163.187 117.848 163.2 117.641 163.2C117.201 163.2 116.832 163.1 116.535 162.9C116.237 162.7 116.043 162.493 115.952 162.28L115.836 161.98C115.823 161.967 115.797 161.973 115.758 162C115.732 162.027 115.706 162.053 115.681 162.08C114.917 162.827 114.14 163.2 113.351 163.2C112.639 163.2 112.011 162.933 111.468 162.4C110.924 161.867 110.652 161.02 110.652 159.86C110.652 159.22 110.782 158.567 111.041 157.9C111.3 157.233 111.61 156.66 111.973 156.18C112.581 155.42 113.189 154.893 113.797 154.6C114.406 154.307 114.956 154.16 115.448 154.16C116.172 154.16 116.716 154.44 117.078 155C117.143 155.08 117.175 155.107 117.175 155.08C117.188 155.027 117.363 154.3 117.7 152.9C118.036 151.5 118.217 150.76 118.243 150.68C118.243 150.507 118.198 150.4 118.107 150.36C118.017 150.32 117.764 150.287 117.35 150.26H116.942C116.865 150.18 116.826 150.127 116.826 150.1C116.826 150.073 116.839 149.947 116.865 149.72C116.929 149.467 117.014 149.34 117.117 149.34ZM116.845 156.48C116.548 155.427 116.062 154.9 115.389 154.9C114.936 154.9 114.503 155.107 114.089 155.52C113.674 155.933 113.351 156.473 113.118 157.14C112.743 158.193 112.477 159.287 112.322 160.42C112.322 160.46 112.322 160.533 112.322 160.64C112.322 160.747 112.315 160.827 112.303 160.88C112.303 161.48 112.419 161.893 112.652 162.12C112.885 162.347 113.163 162.467 113.487 162.48C114.186 162.48 114.904 162 115.642 161.04L115.797 160.82L116.845 156.48Z" fill="white"/>
<path d="M120.825 159.86C120.825 158.513 121.317 157.233 122.301 156.02C123.284 154.807 124.391 154.193 125.62 154.18C126.28 154.18 126.863 154.507 127.368 155.16C127.575 154.76 127.872 154.56 128.261 154.56C128.429 154.56 128.578 154.613 128.707 154.72C128.837 154.827 128.901 154.96 128.901 155.12C128.901 155.293 128.662 156.36 128.183 158.32C127.704 160.28 127.458 161.387 127.445 161.64C127.445 161.973 127.491 162.193 127.581 162.3C127.672 162.407 127.808 162.467 127.989 162.48C128.105 162.467 128.235 162.407 128.377 162.3C128.649 162.033 128.914 161.393 129.173 160.38C129.251 160.113 129.315 159.973 129.367 159.96C129.393 159.947 129.458 159.94 129.561 159.94H129.639C129.885 159.94 130.008 160 130.008 160.12C130.008 160.2 129.975 160.38 129.911 160.66C129.846 160.94 129.717 161.3 129.522 161.74C129.328 162.18 129.121 162.513 128.901 162.74C128.733 162.913 128.526 163.053 128.28 163.16C128.176 163.187 128.021 163.2 127.814 163.2C127.374 163.2 127.005 163.1 126.707 162.9C126.41 162.7 126.216 162.493 126.125 162.28L126.009 161.98C125.996 161.967 125.97 161.973 125.931 162C125.905 162.027 125.879 162.053 125.853 162.08C125.09 162.827 124.313 163.2 123.524 163.2C122.812 163.2 122.184 162.933 121.641 162.4C121.097 161.867 120.825 161.02 120.825 159.86ZM126.999 156.44C126.999 156.36 126.966 156.213 126.902 156C126.837 155.787 126.688 155.553 126.455 155.3C126.222 155.047 125.924 154.913 125.562 154.9C125.109 154.9 124.676 155.107 124.261 155.52C123.847 155.933 123.524 156.473 123.291 157.14C122.915 158.193 122.65 159.287 122.495 160.42C122.495 160.46 122.495 160.533 122.495 160.64C122.495 160.747 122.488 160.827 122.475 160.88C122.475 161.48 122.592 161.893 122.825 162.12C123.058 162.347 123.336 162.467 123.66 162.48C124.151 162.48 124.637 162.26 125.116 161.82C125.594 161.38 125.879 161.04 125.97 160.8C125.996 160.747 126.17 160.033 126.494 158.66C126.818 157.287 126.986 156.547 126.999 156.44Z" fill="white"/>
<path d="M131.619 148.02L131.697 148C131.762 148 131.826 148 131.891 148H132.124L132.668 148.48C133.884 149.613 134.771 151.027 135.327 152.72C135.884 154.413 136.162 156.173 136.162 158C136.162 158.907 136.097 159.78 135.968 160.62C135.838 161.46 135.69 162.173 135.521 162.76C135.353 163.347 135.114 163.933 134.803 164.52C134.492 165.107 134.246 165.553 134.065 165.86C133.884 166.167 133.619 166.507 133.269 166.88C132.92 167.253 132.713 167.473 132.648 167.54C132.583 167.607 132.435 167.733 132.202 167.92C132.163 167.96 132.137 167.987 132.124 168H131.891C131.787 168 131.716 168 131.677 168C131.639 168 131.606 167.98 131.58 167.94C131.554 167.9 131.535 167.84 131.522 167.76C131.535 167.747 131.606 167.66 131.736 167.5C133.742 165.353 134.745 162.187 134.745 158C134.745 153.813 133.742 150.647 131.736 148.5C131.606 148.34 131.535 148.253 131.522 148.24C131.522 148.133 131.554 148.06 131.619 148.02Z" fill="white"/>
<path d="M145.015 150.68C145.015 150.573 145.053 150.48 145.131 150.4C145.209 150.32 145.273 150.28 145.325 150.28C145.429 150.28 146.425 150.733 148.315 151.64C150.205 152.547 152.081 153.46 153.945 154.38C155.809 155.3 156.74 155.767 156.74 155.78C156.831 155.847 156.876 155.947 156.876 156.08C156.876 156.213 156.831 156.313 156.74 156.38C156.715 156.407 154.825 157.333 151.072 159.16L145.481 161.88H145.364C145.131 161.853 145.015 161.72 145.015 161.48C145.015 161.467 145.015 161.447 145.015 161.42C145.002 161.327 145.099 161.22 145.306 161.1C145.552 160.967 146.522 160.487 148.218 159.66C149.227 159.167 150.069 158.76 150.742 158.44L155.556 156.08L150.392 153.56C149.499 153.12 148.464 152.613 147.286 152.04C146.147 151.493 145.487 151.167 145.306 151.06C145.125 150.953 145.028 150.827 145.015 150.68ZM145.034 165.36C145.034 165.227 145.131 165.093 145.325 164.96H156.566C156.773 165.04 156.876 165.173 156.876 165.36C156.876 165.52 156.779 165.653 156.585 165.76H145.306C145.125 165.667 145.034 165.533 145.034 165.36Z" fill="white"/>
<path d="M165.787 151.3C166.512 150.22 167.502 149.68 168.758 149.68C169.379 149.68 170 149.853 170.621 150.2C171.242 150.547 171.747 151.16 172.136 152.04C172.614 153.147 172.854 154.667 172.854 156.6C172.854 158.667 172.576 160.247 172.019 161.34C171.76 161.9 171.404 162.347 170.951 162.68C170.498 163.013 170.104 163.22 169.767 163.3C169.431 163.38 169.101 163.427 168.777 163.44C168.44 163.44 168.104 163.4 167.767 163.32C167.431 163.24 167.036 163.027 166.583 162.68C166.13 162.333 165.774 161.887 165.515 161.34C164.959 160.247 164.681 158.667 164.681 156.6C164.681 154.28 165.05 152.513 165.787 151.3ZM170.155 151.06C169.767 150.633 169.308 150.42 168.777 150.42C168.233 150.42 167.767 150.633 167.379 151.06C167.056 151.407 166.842 151.887 166.739 152.5C166.635 153.113 166.583 154.393 166.583 156.34C166.583 158.447 166.635 159.833 166.739 160.5C166.842 161.167 167.075 161.693 167.437 162.08C167.8 162.48 168.246 162.68 168.777 162.68C169.295 162.68 169.735 162.48 170.097 162.08C170.472 161.68 170.705 161.12 170.796 160.4C170.887 159.68 170.938 158.327 170.951 156.34C170.951 154.407 170.9 153.133 170.796 152.52C170.692 151.907 170.479 151.42 170.155 151.06Z" fill="white"/>
<path d="M184.114 151.18C184.204 151.087 184.301 151.04 184.405 151.04C184.547 151.04 184.644 151.087 184.696 151.18C184.709 151.193 185.136 152.167 185.977 154.1C186.819 156.033 187.666 157.993 188.521 159.98C189.375 161.967 189.802 163 189.802 163.08C189.776 163.32 189.647 163.44 189.414 163.44C189.375 163.44 189.343 163.433 189.317 163.42C189.291 163.407 189.258 163.4 189.22 163.4C189.181 163.4 189.155 163.38 189.142 163.34C189.129 163.3 189.116 163.273 189.103 163.26C189.09 163.247 189.071 163.22 189.045 163.18C189.019 163.14 189.006 163.107 189.006 163.08L184.405 152.44L179.804 163.08C179.687 163.293 179.584 163.407 179.493 163.42C179.467 163.433 179.435 163.44 179.396 163.44C179.163 163.44 179.034 163.32 179.008 163.08C179.008 163 179.429 161.973 180.27 160C181.111 158.027 181.959 156.067 182.813 154.12C183.667 152.173 184.101 151.193 184.114 151.18Z" fill="white"/>
<path d="M202.324 149.34C202.337 149.34 202.803 149.307 203.722 149.24C204.64 149.173 205.113 149.133 205.139 149.12C205.294 149.12 205.372 149.173 205.372 149.28C205.372 149.373 204.899 151.387 203.955 155.32C203.01 159.253 202.524 161.26 202.499 161.34C202.473 161.42 202.466 161.52 202.479 161.64C202.479 162.2 202.66 162.48 203.023 162.48C203.139 162.467 203.269 162.407 203.411 162.3C203.683 162.033 203.948 161.393 204.207 160.38C204.285 160.113 204.349 159.973 204.401 159.96C204.427 159.947 204.492 159.94 204.595 159.94H204.751C204.945 159.94 205.042 159.993 205.042 160.1C205.042 160.167 205.022 160.273 204.983 160.42C204.815 161.087 204.621 161.627 204.401 162.04C204.181 162.453 204 162.72 203.857 162.84C203.715 162.96 203.534 163.067 203.314 163.16C203.21 163.187 203.055 163.2 202.848 163.2C202.408 163.2 202.039 163.1 201.741 162.9C201.444 162.7 201.25 162.493 201.159 162.28L201.042 161.98C201.03 161.967 201.004 161.973 200.965 162C200.939 162.027 200.913 162.053 200.887 162.08C200.124 162.827 199.347 163.2 198.558 163.2C197.846 163.2 197.218 162.933 196.674 162.4C196.131 161.867 195.859 161.02 195.859 159.86C195.859 159.22 195.988 158.567 196.247 157.9C196.506 157.233 196.817 156.66 197.179 156.18C197.787 155.42 198.396 154.893 199.004 154.6C199.612 154.307 200.162 154.16 200.654 154.16C201.379 154.16 201.923 154.44 202.285 155C202.35 155.08 202.382 155.107 202.382 155.08C202.395 155.027 202.57 154.3 202.906 152.9C203.243 151.5 203.424 150.76 203.45 150.68C203.45 150.507 203.404 150.4 203.314 150.36C203.223 150.32 202.971 150.287 202.557 150.26H202.149C202.071 150.18 202.033 150.127 202.033 150.1C202.033 150.073 202.046 149.947 202.071 149.72C202.136 149.467 202.22 149.34 202.324 149.34ZM202.052 156.48C201.754 155.427 201.269 154.9 200.596 154.9C200.143 154.9 199.709 155.107 199.295 155.52C198.881 155.933 198.558 156.473 198.325 157.14C197.949 158.193 197.684 159.287 197.529 160.42C197.529 160.46 197.529 160.533 197.529 160.64C197.529 160.747 197.522 160.827 197.509 160.88C197.509 161.48 197.626 161.893 197.859 162.12C198.092 162.347 198.37 162.467 198.693 162.48C199.392 162.48 200.111 162 200.848 161.04L201.004 160.82L202.052 156.48Z" fill="white"/>
<path d="M206.148 159.64C206.148 158.88 206.271 158.187 206.517 157.56C206.763 156.933 207.08 156.413 207.468 156C207.857 155.587 208.29 155.24 208.769 154.96C209.248 154.68 209.701 154.473 210.128 154.34C210.555 154.207 210.963 154.147 211.351 154.16H211.409C211.992 154.16 212.497 154.307 212.924 154.6C213.351 154.893 213.564 155.327 213.564 155.9C213.564 157.1 212.846 157.887 211.409 158.26C210.775 158.433 209.908 158.527 208.808 158.54C208.329 158.54 208.083 158.553 208.07 158.58C208.07 158.607 208.031 158.84 207.954 159.28C207.876 159.72 207.831 160.107 207.818 160.44C207.818 161.067 207.954 161.56 208.226 161.92C208.497 162.28 208.905 162.467 209.449 162.48C209.992 162.493 210.594 162.367 211.254 162.1C211.914 161.833 212.51 161.393 213.04 160.78C213.157 160.647 213.234 160.58 213.273 160.58C213.325 160.58 213.409 160.64 213.525 160.76C213.642 160.88 213.707 160.973 213.72 161.04C213.733 161.107 213.674 161.213 213.545 161.36C213.415 161.507 213.221 161.687 212.962 161.9C212.704 162.113 212.406 162.32 212.069 162.52C211.733 162.72 211.325 162.887 210.846 163.02C210.368 163.153 209.876 163.22 209.371 163.22C208.348 163.22 207.559 162.867 207.002 162.16C206.446 161.453 206.161 160.613 206.148 159.64ZM212.632 155.94C212.555 155.247 212.115 154.9 211.312 154.9C210.885 154.9 210.49 154.993 210.128 155.18C209.766 155.367 209.475 155.593 209.254 155.86C209.034 156.127 208.847 156.4 208.691 156.68C208.536 156.96 208.433 157.2 208.381 157.4C208.329 157.6 208.297 157.727 208.284 157.78C208.284 157.793 208.413 157.8 208.672 157.8C210.135 157.8 211.157 157.64 211.739 157.32C212.322 157 212.62 156.54 212.632 155.94Z" fill="white"/>
<path d="M214.943 155.3C214.852 155.207 214.807 155.14 214.807 155.1C214.807 155.047 214.826 154.94 214.865 154.78C214.904 154.62 214.936 154.527 214.962 154.5C214.988 154.433 215.046 154.4 215.137 154.4C215.227 154.4 215.557 154.393 216.127 154.38H217.156L217.525 152.78C217.564 152.633 217.609 152.44 217.661 152.2C217.712 151.96 217.758 151.787 217.796 151.68C217.835 151.573 217.874 151.44 217.913 151.28C217.952 151.12 218.004 151.007 218.068 150.94C218.133 150.873 218.198 150.793 218.262 150.7C218.327 150.607 218.418 150.547 218.534 150.52C218.651 150.493 218.767 150.48 218.884 150.48C219.117 150.493 219.278 150.567 219.369 150.7C219.46 150.833 219.505 150.96 219.505 151.08C219.505 151.173 219.447 151.487 219.33 152.02C219.214 152.553 219.084 153.08 218.942 153.6L218.748 154.34C218.748 154.367 219.071 154.38 219.718 154.38H220.709C220.799 154.473 220.844 154.547 220.844 154.6C220.844 154.893 220.76 155.127 220.592 155.3H218.515L217.816 158.2C217.311 160.333 217.059 161.48 217.059 161.64C217.059 162.2 217.234 162.48 217.583 162.48C218.036 162.48 218.476 162.253 218.903 161.8C219.33 161.347 219.673 160.787 219.932 160.12C219.958 160.04 219.99 159.993 220.029 159.98C220.068 159.967 220.165 159.953 220.32 159.94H220.398C220.592 159.94 220.689 159.993 220.689 160.1C220.689 160.14 220.67 160.22 220.631 160.34C220.566 160.553 220.45 160.807 220.281 161.1C220.113 161.393 219.893 161.707 219.621 162.04C219.35 162.373 219.02 162.653 218.631 162.88C218.243 163.107 217.848 163.22 217.447 163.22C217.059 163.22 216.69 163.12 216.34 162.92C215.991 162.72 215.739 162.373 215.583 161.88C215.557 161.773 215.545 161.593 215.545 161.34V160.98L216.224 158.18C216.677 156.3 216.91 155.353 216.923 155.34C216.923 155.313 216.593 155.3 215.933 155.3H214.943Z" fill="white"/>
<path d="M223.291 158C223.291 157.08 223.355 156.207 223.485 155.38C223.614 154.553 223.763 153.84 223.931 153.24C224.099 152.64 224.339 152.053 224.65 151.48C224.96 150.907 225.206 150.46 225.387 150.14C225.568 149.82 225.84 149.473 226.203 149.1C226.565 148.727 226.779 148.5 226.843 148.42C226.908 148.34 227.07 148.2 227.329 148H227.659C227.84 148 227.93 148.06 227.93 148.18C227.93 148.22 227.82 148.36 227.6 148.6C227.38 148.84 227.115 149.193 226.804 149.66C226.494 150.127 226.177 150.7 225.853 151.38C225.53 152.06 225.258 152.98 225.038 154.14C224.818 155.3 224.708 156.587 224.708 158C224.708 159.413 224.818 160.693 225.038 161.84C225.258 162.987 225.523 163.913 225.834 164.62C226.144 165.327 226.461 165.9 226.785 166.34C227.109 166.78 227.38 167.133 227.6 167.4C227.82 167.667 227.93 167.807 227.93 167.82C227.93 167.94 227.833 168 227.639 168H227.329L226.785 167.52C225.568 166.387 224.682 164.973 224.125 163.28C223.569 161.587 223.291 159.827 223.291 158Z" fill="white"/>
<path d="M236.123 149.34C236.136 149.34 236.602 149.307 237.521 149.24C238.44 149.173 238.912 149.133 238.938 149.12C239.093 149.12 239.171 149.173 239.171 149.28C239.171 149.373 238.699 151.387 237.754 155.32C236.809 159.253 236.324 161.26 236.298 161.34C236.272 161.42 236.265 161.52 236.278 161.64C236.278 162.2 236.46 162.48 236.822 162.48C236.938 162.467 237.068 162.407 237.21 162.3C237.482 162.033 237.747 161.393 238.006 160.38C238.084 160.113 238.149 159.973 238.2 159.96C238.226 159.947 238.291 159.94 238.394 159.94H238.55C238.744 159.94 238.841 159.993 238.841 160.1C238.841 160.167 238.822 160.273 238.783 160.42C238.614 161.087 238.42 161.627 238.2 162.04C237.98 162.453 237.799 162.72 237.657 162.84C237.514 162.96 237.333 163.067 237.113 163.16C237.01 163.187 236.854 163.2 236.647 163.2C236.207 163.2 235.838 163.1 235.541 162.9C235.243 162.7 235.049 162.493 234.958 162.28L234.842 161.98C234.829 161.967 234.803 161.973 234.764 162C234.738 162.027 234.712 162.053 234.686 162.08C233.923 162.827 233.146 163.2 232.357 163.2C231.645 163.2 231.017 162.933 230.474 162.4C229.93 161.867 229.658 161.02 229.658 159.86C229.658 159.22 229.788 158.567 230.047 157.9C230.305 157.233 230.616 156.66 230.978 156.18C231.587 155.42 232.195 154.893 232.803 154.6C233.412 154.307 233.962 154.16 234.453 154.16C235.178 154.16 235.722 154.44 236.084 155C236.149 155.08 236.181 155.107 236.181 155.08C236.194 155.027 236.369 154.3 236.705 152.9C237.042 151.5 237.223 150.76 237.249 150.68C237.249 150.507 237.204 150.4 237.113 150.36C237.023 150.32 236.77 150.287 236.356 150.26H235.948C235.871 150.18 235.832 150.127 235.832 150.1C235.832 150.073 235.845 149.947 235.871 149.72C235.935 149.467 236.019 149.34 236.123 149.34ZM235.851 156.48C235.554 155.427 235.068 154.9 234.395 154.9C233.942 154.9 233.509 155.107 233.094 155.52C232.68 155.933 232.357 156.473 232.124 157.14C231.748 158.193 231.483 159.287 231.328 160.42C231.328 160.46 231.328 160.533 231.328 160.64C231.328 160.747 231.321 160.827 231.308 160.88C231.308 161.48 231.425 161.893 231.658 162.12C231.891 162.347 232.169 162.467 232.493 162.48C233.192 162.48 233.91 162 234.648 161.04L234.803 160.82L235.851 156.48Z" fill="white"/>
<path d="M240.608 150.06C240.608 149.927 240.633 149.773 240.685 149.6C240.737 149.427 240.815 149.34 240.918 149.34C240.931 149.34 241.397 149.307 242.316 149.24C243.235 149.173 243.707 149.133 243.733 149.12C243.888 149.12 243.966 149.18 243.966 149.3C243.966 149.42 243.746 150.373 243.306 152.16C243.203 152.613 243.093 153.08 242.976 153.56C242.86 154.04 242.762 154.4 242.685 154.64L242.607 155.02C242.607 155.06 242.646 155.04 242.724 154.96C243.358 154.427 244.011 154.16 244.684 154.16C245.487 154.16 246.134 154.467 246.626 155.08C247.118 155.693 247.37 156.467 247.383 157.4C247.383 158.88 246.872 160.22 245.849 161.42C244.827 162.62 243.727 163.22 242.549 163.22C241.902 163.22 241.313 162.967 240.782 162.46C240.252 161.953 239.98 161.133 239.967 160V159.82C239.967 159.54 240.019 159.153 240.122 158.66C240.226 158.167 240.543 156.853 241.074 154.72C241.721 152.093 242.044 150.7 242.044 150.54C242.044 150.38 241.798 150.287 241.306 150.26C241.242 150.26 241.19 150.26 241.151 150.26H241.054C240.925 150.26 240.841 150.26 240.802 150.26C240.763 150.26 240.718 150.24 240.666 150.2C240.614 150.16 240.595 150.113 240.608 150.06ZM245.713 156.5V156.38C245.713 155.393 245.319 154.9 244.529 154.9C244.309 154.9 244.083 154.953 243.85 155.06C243.617 155.167 243.403 155.307 243.209 155.48C243.015 155.653 242.847 155.813 242.704 155.96C242.562 156.107 242.445 156.253 242.355 156.4L242.238 156.56L241.831 158.28C241.546 159.427 241.404 160.24 241.404 160.72C241.404 161.36 241.559 161.84 241.869 162.16C242.077 162.373 242.335 162.48 242.646 162.48C243.073 162.48 243.507 162.267 243.947 161.84C244.27 161.533 244.529 161.16 244.723 160.72C244.917 160.28 245.131 159.58 245.364 158.62C245.597 157.66 245.713 156.953 245.713 156.5Z" fill="white"/>
<path d="M249.033 162.3C249.033 162.3 249.033 162.133 249.033 161.8C249.033 161.467 249.137 161.18 249.344 160.94C249.551 160.7 249.829 160.58 250.179 160.58C250.541 160.58 250.864 160.747 251.149 161.08C251.434 161.413 251.583 162 251.596 162.84C251.596 163.307 251.537 163.76 251.421 164.2C251.305 164.64 251.169 165.02 251.013 165.34C250.858 165.66 250.69 165.933 250.509 166.16C250.327 166.387 250.172 166.567 250.043 166.7C249.913 166.833 249.829 166.893 249.79 166.88C249.738 166.88 249.654 166.82 249.538 166.7C249.421 166.58 249.363 166.493 249.363 166.44C249.363 166.387 249.434 166.28 249.577 166.12C249.719 165.96 249.881 165.76 250.062 165.52C250.243 165.28 250.411 164.947 250.567 164.52C250.722 164.093 250.826 163.607 250.877 163.06V162.82L250.858 162.84C250.832 162.853 250.8 162.867 250.761 162.88C250.722 162.893 250.683 162.913 250.644 162.94C250.606 162.967 250.547 162.98 250.47 162.98C250.392 162.98 250.314 162.987 250.237 163C249.887 163 249.603 162.887 249.383 162.66L249.033 162.3Z" fill="white"/>
<path d="M263.263 149.34C263.276 149.34 263.742 149.307 264.661 149.24C265.58 149.173 266.052 149.133 266.078 149.12C266.234 149.12 266.311 149.173 266.311 149.28C266.311 149.373 265.839 151.387 264.894 155.32C263.949 159.253 263.464 161.26 263.438 161.34C263.412 161.42 263.406 161.52 263.419 161.64C263.419 162.2 263.6 162.48 263.962 162.48C264.079 162.467 264.208 162.407 264.351 162.3C264.622 162.033 264.888 161.393 265.146 160.38C265.224 160.113 265.289 159.973 265.341 159.96C265.367 159.947 265.431 159.94 265.535 159.94H265.69C265.884 159.94 265.981 159.993 265.981 160.1C265.981 160.167 265.962 160.273 265.923 160.42C265.755 161.087 265.561 161.627 265.341 162.04C265.121 162.453 264.939 162.72 264.797 162.84C264.655 162.96 264.473 163.067 264.253 163.16C264.15 163.187 263.995 163.2 263.788 163.2C263.347 163.2 262.979 163.1 262.681 162.9C262.383 162.7 262.189 162.493 262.099 162.28L261.982 161.98C261.969 161.967 261.943 161.973 261.904 162C261.878 162.027 261.853 162.053 261.827 162.08C261.063 162.827 260.287 163.2 259.497 163.2C258.785 163.2 258.158 162.933 257.614 162.4C257.07 161.867 256.799 161.02 256.799 159.86C256.799 159.22 256.928 158.567 257.187 157.9C257.446 157.233 257.756 156.66 258.119 156.18C258.727 155.42 259.335 154.893 259.944 154.6C260.552 154.307 261.102 154.16 261.594 154.16C262.319 154.16 262.862 154.44 263.225 155C263.289 155.08 263.322 155.107 263.322 155.08C263.335 155.027 263.509 154.3 263.846 152.9C264.182 151.5 264.363 150.76 264.389 150.68C264.389 150.507 264.344 150.4 264.253 150.36C264.163 150.32 263.91 150.287 263.496 150.26H263.089C263.011 150.18 262.972 150.127 262.972 150.1C262.972 150.073 262.985 149.947 263.011 149.72C263.076 149.467 263.16 149.34 263.263 149.34ZM262.992 156.48C262.694 155.427 262.209 154.9 261.536 154.9C261.083 154.9 260.649 155.107 260.235 155.52C259.821 155.933 259.497 156.473 259.264 157.14C258.889 158.193 258.623 159.287 258.468 160.42C258.468 160.46 258.468 160.533 258.468 160.64C258.468 160.747 258.462 160.827 258.449 160.88C258.449 161.48 258.565 161.893 258.798 162.12C259.031 162.347 259.309 162.467 259.633 162.48C260.332 162.48 261.05 162 261.788 161.04L261.943 160.82L262.992 156.48Z" fill="white"/>
<path d="M266.971 159.86C266.971 158.513 267.463 157.233 268.447 156.02C269.43 154.807 270.537 154.193 271.767 154.18C272.427 154.18 273.009 154.507 273.514 155.16C273.721 154.76 274.019 154.56 274.407 154.56C274.575 154.56 274.724 154.613 274.853 154.72C274.983 154.827 275.047 154.96 275.047 155.12C275.047 155.293 274.808 156.36 274.329 158.32C273.85 160.28 273.604 161.387 273.591 161.64C273.591 161.973 273.637 162.193 273.727 162.3C273.818 162.407 273.954 162.467 274.135 162.48C274.251 162.467 274.381 162.407 274.523 162.3C274.795 162.033 275.06 161.393 275.319 160.38C275.397 160.113 275.462 159.973 275.513 159.96C275.539 159.947 275.604 159.94 275.708 159.94H275.785C276.031 159.94 276.154 160 276.154 160.12C276.154 160.2 276.122 160.38 276.057 160.66C275.992 160.94 275.863 161.3 275.669 161.74C275.475 162.18 275.267 162.513 275.047 162.74C274.879 162.913 274.672 163.053 274.426 163.16C274.323 163.187 274.167 163.2 273.96 163.2C273.52 163.2 273.151 163.1 272.854 162.9C272.556 162.7 272.362 162.493 272.271 162.28L272.155 161.98C272.142 161.967 272.116 161.973 272.077 162C272.051 162.027 272.025 162.053 271.999 162.08C271.236 162.827 270.459 163.2 269.67 163.2C268.958 163.2 268.33 162.933 267.787 162.4C267.243 161.867 266.971 161.02 266.971 159.86ZM273.145 156.44C273.145 156.36 273.113 156.213 273.048 156C272.983 155.787 272.834 155.553 272.601 155.3C272.368 155.047 272.071 154.913 271.708 154.9C271.255 154.9 270.822 155.107 270.408 155.52C269.993 155.933 269.67 156.473 269.437 157.14C269.062 158.193 268.796 159.287 268.641 160.42C268.641 160.46 268.641 160.533 268.641 160.64C268.641 160.747 268.634 160.827 268.622 160.88C268.622 161.48 268.738 161.893 268.971 162.12C269.204 162.347 269.482 162.467 269.806 162.48C270.298 162.48 270.783 162.26 271.262 161.82C271.741 161.38 272.025 161.04 272.116 160.8C272.142 160.747 272.317 160.033 272.64 158.66C272.964 157.287 273.132 156.547 273.145 156.44Z" fill="white"/>
<path d="M277.765 148.02L277.843 148C277.908 148 277.972 148 278.037 148H278.27L278.814 148.48C280.03 149.613 280.917 151.027 281.473 152.72C282.03 154.413 282.308 156.173 282.308 158C282.308 158.907 282.243 159.78 282.114 160.62C281.985 161.46 281.836 162.173 281.668 162.76C281.499 163.347 281.26 163.933 280.949 164.52C280.639 165.107 280.393 165.553 280.212 165.86C280.03 166.167 279.765 166.507 279.416 166.88C279.066 167.253 278.859 167.473 278.794 167.54C278.73 167.607 278.581 167.733 278.348 167.92C278.309 167.96 278.283 167.987 278.27 168H278.037C277.934 168 277.862 168 277.824 168C277.785 168 277.752 167.98 277.727 167.94C277.701 167.9 277.681 167.84 277.668 167.76C277.681 167.747 277.752 167.66 277.882 167.5C279.888 165.353 280.891 162.187 280.891 158C280.891 153.813 279.888 150.647 277.882 148.5C277.752 148.34 277.681 148.253 277.668 148.24C277.668 148.133 277.701 148.06 277.765 148.02Z" fill="white"/>
<path d="M291.18 150.68C291.18 150.573 291.219 150.48 291.297 150.4C291.374 150.32 291.439 150.28 291.491 150.28C291.594 150.28 292.591 150.733 294.481 151.64C296.37 152.547 298.247 153.46 300.111 154.38C301.974 155.3 302.906 155.767 302.906 155.78C302.997 155.847 303.042 155.947 303.042 156.08C303.042 156.213 302.997 156.313 302.906 156.38C302.88 156.407 300.991 157.333 297.237 159.16L291.646 161.88H291.53C291.297 161.853 291.18 161.72 291.18 161.48C291.18 161.467 291.18 161.447 291.18 161.42C291.167 161.327 291.264 161.22 291.471 161.1C291.717 160.967 292.688 160.487 294.383 159.66C295.393 159.167 296.234 158.76 296.907 158.44L301.722 156.08L296.558 153.56C295.665 153.12 294.629 152.613 293.452 152.04C292.313 151.493 291.653 151.167 291.471 151.06C291.29 150.953 291.193 150.827 291.18 150.68ZM291.2 165.36C291.2 165.227 291.297 165.093 291.491 164.96H302.731C302.938 165.04 303.042 165.173 303.042 165.36C303.042 165.52 302.945 165.653 302.751 165.76H291.471C291.29 165.667 291.2 165.533 291.2 165.36Z" fill="white"/>
<path d="M311.933 151.3C312.658 150.22 313.648 149.68 314.904 149.68C315.525 149.68 316.146 149.853 316.767 150.2C317.389 150.547 317.893 151.16 318.282 152.04C318.761 153.147 319 154.667 319 156.6C319 158.667 318.722 160.247 318.165 161.34C317.906 161.9 317.55 162.347 317.097 162.68C316.644 163.013 316.25 163.22 315.913 163.3C315.577 163.38 315.247 163.427 314.923 163.44C314.587 163.44 314.25 163.4 313.914 163.32C313.577 163.24 313.182 163.027 312.729 162.68C312.276 162.333 311.921 161.887 311.662 161.34C311.105 160.247 310.827 158.667 310.827 156.6C310.827 154.28 311.196 152.513 311.933 151.3ZM316.302 151.06C315.913 150.633 315.454 150.42 314.923 150.42C314.38 150.42 313.914 150.633 313.525 151.06C313.202 151.407 312.988 151.887 312.885 152.5C312.781 153.113 312.729 154.393 312.729 156.34C312.729 158.447 312.781 159.833 312.885 160.5C312.988 161.167 313.221 161.693 313.584 162.08C313.946 162.48 314.393 162.68 314.923 162.68C315.441 162.68 315.881 162.48 316.243 162.08C316.619 161.68 316.852 161.12 316.942 160.4C317.033 159.68 317.085 158.327 317.097 156.34C317.097 154.407 317.046 153.133 316.942 152.52C316.839 151.907 316.625 151.42 316.302 151.06Z" fill="white"/>
</g>
<defs>
<clipPath id="clip0_588_6834">
<rect width="700" height="234" fill="white"/>
</clipPath>
<clipPath id="clip1_588_6834">
<rect width="1284" height="1284" fill="white" transform="translate(-292.5 -525)"/>
</clipPath>
</defs>
</svg>
