<?xml version="1.0" encoding="UTF-8" standalone="no"?>
<!DOCTYPE svg PUBLIC "-//W3C//DTD SVG 1.1//EN"
 "http://www.w3.org/Graphics/SVG/1.1/DTD/svg11.dtd">
<!-- Generated by graphviz version 13.1.0 (20250701.0955)
 -->
<!-- Pages: 1 -->
<svg width="579pt" height="392pt"
 viewBox="0.00 0.00 579.00 392.00" xmlns="http://www.w3.org/2000/svg" xmlns:xlink="http://www.w3.org/1999/xlink">
<g id="graph0" class="graph" transform="scale(1 1) rotate(0) translate(4 388)">
<!-- root -->
<g id="node1" class="node">
<title>root</title>
<ellipse fill="none" stroke="#b9dbfa" stroke-width="2" cx="34.37" cy="-163" rx="34.37" ry="34.37"/>
<text xml:space="preserve" text-anchor="middle" x="34.37" y="-158.32" font-family="monospace" font-size="14.00" fill="#b9dbfa">root</text>
</g>
<!-- root_0 -->
<g id="node2" class="node">
<title>root_0</title>
<ellipse fill="none" stroke="#b9dbfa" stroke-width="2" cx="115.75" cy="-163" rx="18" ry="18"/>
<text xml:space="preserve" text-anchor="middle" x="115.75" y="-158.32" font-family="monospace" font-size="14.00" fill="#b9dbfa">r</text>
</g>
<!-- root&#45;&gt;root_0 -->
<g id="edge1" class="edge">
<title>root&#45;&gt;root_0</title>
<path fill="none" stroke="#b9dbfa" stroke-width="2" d="M69.49,-163C74.94,-163 80.52,-163 85.82,-163"/>
<polygon fill="#b9dbfa" stroke="#b9dbfa" stroke-width="2" points="85.81,-165.8 93.81,-163 85.81,-160.2 85.81,-165.8"/>
</g>
<!-- root_0_1 -->
<g id="node3" class="node">
<title>root_0_1</title>
<ellipse fill="none" stroke="#b9dbfa" stroke-width="2" cx="180.75" cy="-163" rx="18" ry="18"/>
<text xml:space="preserve" text-anchor="middle" x="180.75" y="-158.32" font-family="monospace" font-size="14.00" fill="#b9dbfa">u</text>
</g>
<!-- root_0&#45;&gt;root_0_1 -->
<g id="edge2" class="edge">
<title>root_0&#45;&gt;root_0_1</title>
<path fill="none" stroke="#b9dbfa" stroke-width="2" d="M134.63,-163C139.86,-163 145.71,-163 151.42,-163"/>
<polygon fill="#b9dbfa" stroke="#b9dbfa" stroke-width="2" points="151.01,-165.8 159.01,-163 151.01,-160.2 151.01,-165.8"/>
</g>
<!-- root_0_1_2 -->
<g id="node4" class="node">
<title>root_0_1_2</title>
<ellipse fill="none" stroke="#b9dbfa" stroke-width="2" cx="245.75" cy="-163" rx="18" ry="18"/>
<text xml:space="preserve" text-anchor="middle" x="245.75" y="-158.32" font-family="monospace" font-size="14.00" fill="#b9dbfa">f</text>
</g>
<!-- root_0_1&#45;&gt;root_0_1_2 -->
<g id="edge3" class="edge">
<title>root_0_1&#45;&gt;root_0_1_2</title>
<path fill="none" stroke="#b9dbfa" stroke-width="2" d="M199.63,-163C204.86,-163 210.71,-163 216.42,-163"/>
<polygon fill="#b9dbfa" stroke="#b9dbfa" stroke-width="2" points="216.01,-165.8 224.01,-163 216.01,-160.2 216.01,-165.8"/>
</g>
<!-- root_0_1_2_3 -->
<g id="node5" class="node">
<title>root_0_1_2_3</title>
<ellipse fill="none" stroke="#b9dbfa" stroke-width="2" cx="310.75" cy="-337" rx="18" ry="18"/>
<text xml:space="preserve" text-anchor="middle" x="310.75" y="-332.32" font-family="monospace" font-size="14.00" fill="#b9dbfa">l</text>
</g>
<!-- root_0_1_2&#45;&gt;root_0_1_2_3 -->
<g id="edge4" class="edge">
<title>root_0_1_2&#45;&gt;root_0_1_2_3</title>
<path fill="none" stroke="#b9dbfa" stroke-width="2" d="M253.02,-180.32C263.93,-210.47 286.51,-272.83 299.65,-309.13"/>
<polygon fill="#b9dbfa" stroke="#b9dbfa" stroke-width="2" points="297.02,-310.08 302.38,-316.65 302.28,-308.17 297.02,-310.08"/>
</g>
<!-- root_0_1_2_4 -->
<g id="node7" class="node">
<title>root_0_1_2_4</title>
<ellipse fill="none" stroke="#b9dbfa" stroke-width="2" cx="310.75" cy="-250" rx="18" ry="18"/>
<text xml:space="preserve" text-anchor="middle" x="310.75" y="-245.32" font-family="monospace" font-size="14.00" fill="#b9dbfa">í</text>
</g>
<!-- root_0_1_2&#45;&gt;root_0_1_2_4 -->
<g id="edge6" class="edge">
<title>root_0_1_2&#45;&gt;root_0_1_2_4</title>
<path fill="none" stroke="#b9dbfa" stroke-width="2" d="M257.43,-177.76C267.12,-191.13 281.55,-211.07 292.81,-226.61"/>
<polygon fill="#b9dbfa" stroke="#b9dbfa" stroke-width="2" points="290.27,-227.88 297.23,-232.72 294.81,-224.6 290.27,-227.88"/>
</g>
<!-- root_0_1_2_7 -->
<g id="node12" class="node">
<title>root_0_1_2_7</title>
<ellipse fill="none" stroke="#b9dbfa" stroke-width="2" cx="310.75" cy="-192" rx="18" ry="18"/>
<text xml:space="preserve" text-anchor="middle" x="310.75" y="-187.32" font-family="monospace" font-size="14.00" fill="#b9dbfa">i</text>
</g>
<!-- root_0_1_2&#45;&gt;root_0_1_2_7 -->
<g id="edge11" class="edge">
<title>root_0_1_2&#45;&gt;root_0_1_2_7</title>
<path fill="none" stroke="#b9dbfa" stroke-width="2" d="M262.97,-170.47C269.24,-173.35 276.58,-176.73 283.55,-179.94"/>
<polygon fill="#b9dbfa" stroke="#b9dbfa" stroke-width="2" points="282.17,-182.39 290.61,-183.19 284.51,-177.3 282.17,-182.39"/>
</g>
<!-- root_0_1_2_8 -->
<g id="node14" class="node">
<title>root_0_1_2_8</title>
<ellipse fill="none" stroke="#b9dbfa" stroke-width="2" cx="310.75" cy="-134" rx="18" ry="18"/>
<text xml:space="preserve" text-anchor="middle" x="310.75" y="-129.32" font-family="monospace" font-size="14.00" fill="#b9dbfa">ó</text>
</g>
<!-- root_0_1_2&#45;&gt;root_0_1_2_8 -->
<g id="edge13" class="edge">
<title>root_0_1_2&#45;&gt;root_0_1_2_8</title>
<path fill="none" stroke="#b9dbfa" stroke-width="2" d="M262.97,-155.53C269.24,-152.65 276.58,-149.27 283.55,-146.06"/>
<polygon fill="#b9dbfa" stroke="#b9dbfa" stroke-width="2" points="284.51,-148.7 290.61,-142.81 282.17,-143.61 284.51,-148.7"/>
</g>
<!-- root_0_1_2_9 -->
<g id="node16" class="node">
<title>root_0_1_2_9</title>
<ellipse fill="none" stroke="#b9dbfa" stroke-width="2" cx="310.75" cy="-76" rx="18" ry="18"/>
<text xml:space="preserve" text-anchor="middle" x="310.75" y="-71.33" font-family="monospace" font-size="14.00" fill="#b9dbfa">ú</text>
</g>
<!-- root_0_1_2&#45;&gt;root_0_1_2_9 -->
<g id="edge15" class="edge">
<title>root_0_1_2&#45;&gt;root_0_1_2_9</title>
<path fill="none" stroke="#b9dbfa" stroke-width="2" d="M257.43,-148.24C267.12,-134.87 281.55,-114.93 292.81,-99.39"/>
<polygon fill="#b9dbfa" stroke="#b9dbfa" stroke-width="2" points="294.81,-101.4 297.23,-93.28 290.27,-98.12 294.81,-101.4"/>
</g>
<!-- root_0_1_2_10 -->
<g id="node18" class="node">
<title>root_0_1_2_10</title>
<ellipse fill="none" stroke="#b9dbfa" stroke-width="2" cx="310.75" cy="-18" rx="18" ry="18"/>
<text xml:space="preserve" text-anchor="middle" x="310.75" y="-13.32" font-family="monospace" font-size="14.00" fill="#b9dbfa">a</text>
</g>
<!-- root_0_1_2&#45;&gt;root_0_1_2_10 -->
<g id="edge17" class="edge">
<title>root_0_1_2&#45;&gt;root_0_1_2_10</title>
<path fill="none" stroke="#b9dbfa" stroke-width="2" d="M252.65,-145.74C260.73,-122.77 276.12,-81.07 292.75,-47 293.43,-45.59 294.16,-44.16 294.92,-42.72"/>
<polygon fill="#b9dbfa" stroke="#b9dbfa" stroke-width="2" points="297.19,-44.4 298.65,-36.06 292.3,-41.67 297.19,-44.4"/>
</g>
<!-- root_0_1_2_3_val -->
<g id="node6" class="node">
<title>root_0_1_2_3_val</title>
<polygon fill="none" stroke="#b9dbfa" stroke-width="2" points="562.5,-384 431,-384 431,-348 562.5,-348 562.5,-384"/>
<text xml:space="preserve" text-anchor="middle" x="496.75" y="-361.32" font-family="monospace" font-size="14.00" fill="#b9dbfa">&quot;7 leaf nodes&quot;</text>
</g>
<!-- root_0_1_2_3&#45;&gt;root_0_1_2_3_val -->
<g id="edge5" class="edge">
<title>root_0_1_2_3&#45;&gt;root_0_1_2_3_val</title>
<path fill="none" stroke="#b9dbfa" stroke-width="2" d="M329.39,-339.78C350.25,-343.07 386.34,-348.76 419.58,-354"/>
<polygon fill="#b9dbfa" stroke="#b9dbfa" stroke-width="2" points="418.93,-356.73 427.27,-355.21 419.8,-351.2 418.93,-356.73"/>
</g>
<!-- root_0_1_2_4_5 -->
<g id="node8" class="node">
<title>root_0_1_2_4_5</title>
<ellipse fill="none" stroke="#b9dbfa" stroke-width="2" cx="375.75" cy="-308" rx="18" ry="18"/>
<text xml:space="preserve" text-anchor="middle" x="375.75" y="-303.32" font-family="monospace" font-size="14.00" fill="#b9dbfa">v</text>
</g>
<!-- root_0_1_2_4&#45;&gt;root_0_1_2_4_5 -->
<g id="edge7" class="edge">
<title>root_0_1_2_4&#45;&gt;root_0_1_2_4_5</title>
<path fill="none" stroke="#b9dbfa" stroke-width="2" d="M325.11,-262.3C333.29,-269.84 343.96,-279.65 353.3,-288.26"/>
<polygon fill="#b9dbfa" stroke="#b9dbfa" stroke-width="2" points="351.39,-290.31 359.18,-293.67 355.19,-286.19 351.39,-290.31"/>
</g>
<!-- root_0_1_2_4_6 -->
<g id="node10" class="node">
<title>root_0_1_2_4_6</title>
<ellipse fill="none" stroke="#b9dbfa" stroke-width="2" cx="375.75" cy="-250" rx="18" ry="18"/>
<text xml:space="preserve" text-anchor="middle" x="375.75" y="-245.32" font-family="monospace" font-size="14.00" fill="#b9dbfa">l</text>
</g>
<!-- root_0_1_2_4&#45;&gt;root_0_1_2_4_6 -->
<g id="edge9" class="edge">
<title>root_0_1_2_4&#45;&gt;root_0_1_2_4_6</title>
<path fill="none" stroke="#b9dbfa" stroke-width="2" d="M329.63,-250C334.86,-250 340.71,-250 346.42,-250"/>
<polygon fill="#b9dbfa" stroke="#b9dbfa" stroke-width="2" points="346.01,-252.8 354.01,-250 346.01,-247.2 346.01,-252.8"/>
</g>
<!-- root_0_1_2_4_5_val -->
<g id="node9" class="node">
<title>root_0_1_2_4_5_val</title>
<polygon fill="none" stroke="#b9dbfa" stroke-width="2" points="570.75,-326 422.75,-326 422.75,-290 570.75,-290 570.75,-326"/>
<text xml:space="preserve" text-anchor="middle" x="496.75" y="-303.32" font-family="monospace" font-size="14.00" fill="#b9dbfa">&quot;2;ur,ur,ri,urs&quot;</text>
</g>
<!-- root_0_1_2_4_5&#45;&gt;root_0_1_2_4_5_val -->
<g id="edge8" class="edge">
<title>root_0_1_2_4_5&#45;&gt;root_0_1_2_4_5_val</title>
<path fill="none" stroke="#b9dbfa" stroke-width="2" d="M394.56,-308C399.46,-308 405.12,-308 411.21,-308"/>
<polygon fill="#b9dbfa" stroke="#b9dbfa" stroke-width="2" points="410.77,-310.8 418.77,-308 410.77,-305.2 410.77,-310.8"/>
</g>
<!-- root_0_1_2_4_6_val -->
<g id="node11" class="node">
<title>root_0_1_2_4_6_val</title>
<polygon fill="none" stroke="#b9dbfa" stroke-width="2" points="550.12,-268 443.37,-268 443.37,-232 550.12,-232 550.12,-268"/>
<text xml:space="preserve" text-anchor="middle" x="496.75" y="-245.32" font-family="monospace" font-size="14.00" fill="#b9dbfa">&quot;2;ur,,i,s&quot;</text>
</g>
<!-- root_0_1_2_4_6&#45;&gt;root_0_1_2_4_6_val -->
<g id="edge10" class="edge">
<title>root_0_1_2_4_6&#45;&gt;root_0_1_2_4_6_val</title>
<path fill="none" stroke="#b9dbfa" stroke-width="2" d="M394.56,-250C404.64,-250 417.92,-250 431.54,-250"/>
<polygon fill="#b9dbfa" stroke="#b9dbfa" stroke-width="2" points="431.45,-252.8 439.45,-250 431.45,-247.2 431.45,-252.8"/>
</g>
<!-- root_0_1_2_7_val -->
<g id="node13" class="node">
<title>root_0_1_2_7_val</title>
<polygon fill="none" stroke="#b9dbfa" stroke-width="2" points="550.12,-210 443.37,-210 443.37,-174 550.12,-174 550.12,-210"/>
<text xml:space="preserve" text-anchor="middle" x="496.75" y="-187.32" font-family="monospace" font-size="14.00" fill="#b9dbfa">&quot;2;ur,,i,s&quot;</text>
</g>
<!-- root_0_1_2_7&#45;&gt;root_0_1_2_7_val -->
<g id="edge12" class="edge">
<title>root_0_1_2_7&#45;&gt;root_0_1_2_7_val</title>
<path fill="none" stroke="#b9dbfa" stroke-width="2" d="M329.72,-192C353.16,-192 395.41,-192 431.43,-192"/>
<polygon fill="#b9dbfa" stroke="#b9dbfa" stroke-width="2" points="431.35,-194.8 439.35,-192 431.35,-189.2 431.35,-194.8"/>
</g>
<!-- root_0_1_2_8_val -->
<g id="node15" class="node">
<title>root_0_1_2_8_val</title>
<polygon fill="none" stroke="#b9dbfa" stroke-width="2" points="550.12,-152 443.37,-152 443.37,-116 550.12,-116 550.12,-152"/>
<text xml:space="preserve" text-anchor="middle" x="496.75" y="-129.32" font-family="monospace" font-size="14.00" fill="#b9dbfa">&quot;2;ur,,i,s&quot;</text>
</g>
<!-- root_0_1_2_8&#45;&gt;root_0_1_2_8_val -->
<g id="edge14" class="edge">
<title>root_0_1_2_8&#45;&gt;root_0_1_2_8_val</title>
<path fill="none" stroke="#b9dbfa" stroke-width="2" d="M329.72,-134C353.16,-134 395.41,-134 431.43,-134"/>
<polygon fill="#b9dbfa" stroke="#b9dbfa" stroke-width="2" points="431.35,-136.8 439.35,-134 431.35,-131.2 431.35,-136.8"/>
</g>
<!-- root_0_1_2_9_val -->
<g id="node17" class="node">
<title>root_0_1_2_9_val</title>
<polygon fill="none" stroke="#b9dbfa" stroke-width="2" points="550.12,-94 443.37,-94 443.37,-58 550.12,-58 550.12,-94"/>
<text xml:space="preserve" text-anchor="middle" x="496.75" y="-71.33" font-family="monospace" font-size="14.00" fill="#b9dbfa">&quot;2;ur,,i,s&quot;</text>
</g>
<!-- root_0_1_2_9&#45;&gt;root_0_1_2_9_val -->
<g id="edge16" class="edge">
<title>root_0_1_2_9&#45;&gt;root_0_1_2_9_val</title>
<path fill="none" stroke="#b9dbfa" stroke-width="2" d="M329.72,-76C353.16,-76 395.41,-76 431.43,-76"/>
<polygon fill="#b9dbfa" stroke="#b9dbfa" stroke-width="2" points="431.35,-78.8 439.35,-76 431.35,-73.2 431.35,-78.8"/>
</g>
<!-- root_0_1_2_10_val -->
<g id="node19" class="node">
<title>root_0_1_2_10_val</title>
<polygon fill="none" stroke="#b9dbfa" stroke-width="2" points="550.12,-36 443.37,-36 443.37,0 550.12,0 550.12,-36"/>
<text xml:space="preserve" text-anchor="middle" x="496.75" y="-13.32" font-family="monospace" font-size="14.00" fill="#b9dbfa">&quot;2;ur,,i,s&quot;</text>
</g>
<!-- root_0_1_2_10&#45;&gt;root_0_1_2_10_val -->
<g id="edge18" class="edge">
<title>root_0_1_2_10&#45;&gt;root_0_1_2_10_val</title>
<path fill="none" stroke="#b9dbfa" stroke-width="2" d="M329.72,-18C353.16,-18 395.41,-18 431.43,-18"/>
<polygon fill="#b9dbfa" stroke="#b9dbfa" stroke-width="2" points="431.35,-20.8 439.35,-18 431.35,-15.2 431.35,-20.8"/>
</g>
</g>
</svg>
