<?xml version="1.0" encoding="UTF-8" standalone="no"?>
<!DOCTYPE svg PUBLIC "-//W3C//DTD SVG 1.1//EN"
 "http://www.w3.org/Graphics/SVG/1.1/DTD/svg11.dtd">
<!-- Generated by graphviz version 13.1.0 (20250701.0955)
 -->
<!-- Pages: 1 -->
<svg width="611pt" height="218pt"
 viewBox="0.00 0.00 611.00 218.00" xmlns="http://www.w3.org/2000/svg" xmlns:xlink="http://www.w3.org/1999/xlink">
<g id="graph0" class="graph" transform="scale(1 1) rotate(0) translate(4 214)">
<!-- root -->
<g id="node1" class="node">
<title>root</title>
<ellipse fill="none" stroke="#b9dbfa" stroke-width="2" cx="34.37" cy="-123" rx="34.37" ry="34.37"/>
<text xml:space="preserve" text-anchor="middle" x="34.37" y="-118.33" font-family="monospace" font-size="14.00" fill="#b9dbfa">root</text>
</g>
<!-- root_0 -->
<g id="node2" class="node">
<title>root_0</title>
<ellipse fill="none" stroke="#b9dbfa" stroke-width="2" cx="115.75" cy="-123" rx="18" ry="18"/>
<text xml:space="preserve" text-anchor="middle" x="115.75" y="-118.33" font-family="monospace" font-size="14.00" fill="#b9dbfa">r</text>
</g>
<!-- root&#45;&gt;root_0 -->
<g id="edge1" class="edge">
<title>root&#45;&gt;root_0</title>
<path fill="none" stroke="#b9dbfa" stroke-width="2" d="M69.49,-123C74.94,-123 80.52,-123 85.82,-123"/>
<polygon fill="#b9dbfa" stroke="#b9dbfa" stroke-width="2" points="85.81,-125.8 93.81,-123 85.81,-120.2 85.81,-125.8"/>
</g>
<!-- root_0_1 -->
<g id="node3" class="node">
<title>root_0_1</title>
<ellipse fill="none" stroke="#b9dbfa" stroke-width="2" cx="180.75" cy="-123" rx="18" ry="18"/>
<text xml:space="preserve" text-anchor="middle" x="180.75" y="-118.33" font-family="monospace" font-size="14.00" fill="#b9dbfa">u</text>
</g>
<!-- root_0&#45;&gt;root_0_1 -->
<g id="edge2" class="edge">
<title>root_0&#45;&gt;root_0_1</title>
<path fill="none" stroke="#b9dbfa" stroke-width="2" d="M134.63,-123C139.86,-123 145.71,-123 151.42,-123"/>
<polygon fill="#b9dbfa" stroke="#b9dbfa" stroke-width="2" points="151.01,-125.8 159.01,-123 151.01,-120.2 151.01,-125.8"/>
</g>
<!-- root_0_1_2 -->
<g id="node4" class="node">
<title>root_0_1_2</title>
<ellipse fill="none" stroke="#b9dbfa" stroke-width="2" cx="245.75" cy="-123" rx="18" ry="18"/>
<text xml:space="preserve" text-anchor="middle" x="245.75" y="-118.33" font-family="monospace" font-size="14.00" fill="#b9dbfa">f</text>
</g>
<!-- root_0_1&#45;&gt;root_0_1_2 -->
<g id="edge3" class="edge">
<title>root_0_1&#45;&gt;root_0_1_2</title>
<path fill="none" stroke="#b9dbfa" stroke-width="2" d="M199.63,-123C204.86,-123 210.71,-123 216.42,-123"/>
<polygon fill="#b9dbfa" stroke="#b9dbfa" stroke-width="2" points="216.01,-125.8 224.01,-123 216.01,-120.2 216.01,-125.8"/>
</g>
<!-- root_0_1_2_3 -->
<g id="node5" class="node">
<title>root_0_1_2_3</title>
<ellipse fill="none" stroke="#b9dbfa" stroke-width="2" cx="327.12" cy="-186" rx="18" ry="18"/>
<text xml:space="preserve" text-anchor="middle" x="327.12" y="-181.32" font-family="monospace" font-size="14.00" fill="#b9dbfa">l</text>
</g>
<!-- root_0_1_2&#45;&gt;root_0_1_2_3 -->
<g id="edge4" class="edge">
<title>root_0_1_2&#45;&gt;root_0_1_2_3</title>
<path fill="none" stroke="#b9dbfa" stroke-width="2" d="M260.94,-134.26C272.79,-143.67 289.9,-157.25 303.62,-168.14"/>
<polygon fill="#b9dbfa" stroke="#b9dbfa" stroke-width="2" points="301.67,-170.17 309.68,-172.95 305.15,-165.79 301.67,-170.17"/>
</g>
<!-- root_0_1_2_4 -->
<g id="node7" class="node">
<title>root_0_1_2_4</title>
<ellipse fill="none" stroke="#b9dbfa" stroke-width="2" cx="327.12" cy="-123" rx="18" ry="18"/>
<text xml:space="preserve" text-anchor="middle" x="327.12" y="-118.33" font-family="monospace" font-size="14.00" fill="#b9dbfa">í</text>
</g>
<!-- root_0_1_2&#45;&gt;root_0_1_2_4 -->
<g id="edge6" class="edge">
<title>root_0_1_2&#45;&gt;root_0_1_2_4</title>
<path fill="none" stroke="#b9dbfa" stroke-width="2" d="M264.36,-123C274.05,-123 286.33,-123 297.37,-123"/>
<polygon fill="#b9dbfa" stroke="#b9dbfa" stroke-width="2" points="297.25,-125.8 305.25,-123 297.25,-120.2 297.25,-125.8"/>
</g>
<!-- root_0_1_2_7 -->
<g id="node12" class="node">
<title>root_0_1_2_7</title>
<ellipse fill="none" stroke="#b9dbfa" stroke-width="2" cx="327.12" cy="-39" rx="34.37" ry="34.37"/>
<text xml:space="preserve" text-anchor="middle" x="327.12" y="-34.33" font-family="monospace" font-size="14.00" fill="#b9dbfa">ióúa</text>
</g>
<!-- root_0_1_2&#45;&gt;root_0_1_2_7 -->
<g id="edge11" class="edge">
<title>root_0_1_2&#45;&gt;root_0_1_2_7</title>
<path fill="none" stroke="#b9dbfa" stroke-width="2" d="M259.15,-109.88C268.68,-99.79 282.28,-85.39 294.74,-72.21"/>
<polygon fill="#b9dbfa" stroke="#b9dbfa" stroke-width="2" points="296.76,-74.14 300.22,-66.4 292.69,-70.29 296.76,-74.14"/>
</g>
<!-- root_0_1_2_3_val -->
<g id="node6" class="node">
<title>root_0_1_2_3_val</title>
<polygon fill="none" stroke="#b9dbfa" stroke-width="2" points="595.24,-210 463.74,-210 463.74,-174 595.24,-174 595.24,-210"/>
<text xml:space="preserve" text-anchor="middle" x="529.49" y="-187.32" font-family="monospace" font-size="14.00" fill="#b9dbfa">&quot;7 leaf nodes&quot;</text>
</g>
<!-- root_0_1_2_3&#45;&gt;root_0_1_2_3_val -->
<g id="edge5" class="edge">
<title>root_0_1_2_3&#45;&gt;root_0_1_2_3_val</title>
<path fill="none" stroke="#b9dbfa" stroke-width="2" d="M345.9,-186.53C369.71,-187.25 413.45,-188.56 452.15,-189.71"/>
<polygon fill="#b9dbfa" stroke="#b9dbfa" stroke-width="2" points="451.81,-192.51 459.89,-189.95 451.98,-186.91 451.81,-192.51"/>
</g>
<!-- root_0_1_2_4_5 -->
<g id="node8" class="node">
<title>root_0_1_2_4_5</title>
<ellipse fill="none" stroke="#b9dbfa" stroke-width="2" cx="408.49" cy="-134" rx="18" ry="18"/>
<text xml:space="preserve" text-anchor="middle" x="408.49" y="-129.32" font-family="monospace" font-size="14.00" fill="#b9dbfa">v</text>
</g>
<!-- root_0_1_2_4&#45;&gt;root_0_1_2_4_5 -->
<g id="edge7" class="edge">
<title>root_0_1_2_4&#45;&gt;root_0_1_2_4_5</title>
<path fill="none" stroke="#b9dbfa" stroke-width="2" d="M345.73,-125.44C355.6,-126.81 368.13,-128.55 379.32,-130.1"/>
<polygon fill="#b9dbfa" stroke="#b9dbfa" stroke-width="2" points="378.62,-132.83 386.93,-131.15 379.39,-127.28 378.62,-132.83"/>
</g>
<!-- root_0_1_2_4_6 -->
<g id="node10" class="node">
<title>root_0_1_2_4_6</title>
<ellipse fill="none" stroke="#b9dbfa" stroke-width="2" cx="408.49" cy="-76" rx="18" ry="18"/>
<text xml:space="preserve" text-anchor="middle" x="408.49" y="-71.33" font-family="monospace" font-size="14.00" fill="#b9dbfa">l</text>
</g>
<!-- root_0_1_2_4&#45;&gt;root_0_1_2_4_6 -->
<g id="edge9" class="edge">
<title>root_0_1_2_4&#45;&gt;root_0_1_2_4_6</title>
<path fill="none" stroke="#b9dbfa" stroke-width="2" d="M343.42,-113.94C354.55,-107.35 369.85,-98.29 382.71,-90.67"/>
<polygon fill="#b9dbfa" stroke="#b9dbfa" stroke-width="2" points="383.9,-93.22 389.36,-86.74 381.05,-88.4 383.9,-93.22"/>
</g>
<!-- root_0_1_2_4_5_val -->
<g id="node9" class="node">
<title>root_0_1_2_4_5_val</title>
<polygon fill="none" stroke="#b9dbfa" stroke-width="2" points="603.49,-152 455.49,-152 455.49,-116 603.49,-116 603.49,-152"/>
<text xml:space="preserve" text-anchor="middle" x="529.49" y="-129.32" font-family="monospace" font-size="14.00" fill="#b9dbfa">&quot;2;ur,ur,ri,urs&quot;</text>
</g>
<!-- root_0_1_2_4_5&#45;&gt;root_0_1_2_4_5_val -->
<g id="edge8" class="edge">
<title>root_0_1_2_4_5&#45;&gt;root_0_1_2_4_5_val</title>
<path fill="none" stroke="#b9dbfa" stroke-width="2" d="M427.31,-134C432.21,-134 437.87,-134 443.95,-134"/>
<polygon fill="#b9dbfa" stroke="#b9dbfa" stroke-width="2" points="443.52,-136.8 451.52,-134 443.52,-131.2 443.52,-136.8"/>
</g>
<!-- root_0_1_2_4_6_val -->
<g id="node11" class="node">
<title>root_0_1_2_4_6_val</title>
<polygon fill="none" stroke="#b9dbfa" stroke-width="2" points="582.87,-94 476.12,-94 476.12,-58 582.87,-58 582.87,-94"/>
<text xml:space="preserve" text-anchor="middle" x="529.49" y="-71.33" font-family="monospace" font-size="14.00" fill="#b9dbfa">&quot;2;ur,,i,s&quot;</text>
</g>
<!-- root_0_1_2_4_6&#45;&gt;root_0_1_2_4_6_val -->
<g id="edge10" class="edge">
<title>root_0_1_2_4_6&#45;&gt;root_0_1_2_4_6_val</title>
<path fill="none" stroke="#b9dbfa" stroke-width="2" d="M427.31,-76C437.38,-76 450.67,-76 464.29,-76"/>
<polygon fill="#b9dbfa" stroke="#b9dbfa" stroke-width="2" points="464.19,-78.8 472.19,-76 464.19,-73.2 464.19,-78.8"/>
</g>
<!-- root_0_1_2_7_val -->
<g id="node13" class="node">
<title>root_0_1_2_7_val</title>
<polygon fill="none" stroke="#b9dbfa" stroke-width="2" points="582.87,-36 476.12,-36 476.12,0 582.87,0 582.87,-36"/>
<text xml:space="preserve" text-anchor="middle" x="529.49" y="-13.32" font-family="monospace" font-size="14.00" fill="#b9dbfa">&quot;2;ur,,i,s&quot;</text>
</g>
<!-- root_0_1_2_7&#45;&gt;root_0_1_2_7_val -->
<g id="edge12" class="edge">
<title>root_0_1_2_7&#45;&gt;root_0_1_2_7_val</title>
<path fill="none" stroke="#b9dbfa" stroke-width="2" d="M362.11,-35.44C390.12,-32.5 430.62,-28.26 464.65,-24.69"/>
<polygon fill="#b9dbfa" stroke="#b9dbfa" stroke-width="2" points="464.77,-27.49 472.44,-23.87 464.19,-21.92 464.77,-27.49"/>
</g>
</g>
</svg>
