<?xml version="1.0" encoding="UTF-8" standalone="no"?>
<!DOCTYPE svg PUBLIC "-//W3C//DTD SVG 1.1//EN"
 "http://www.w3.org/Graphics/SVG/1.1/DTD/svg11.dtd">
<!-- Generated by graphviz version 13.1.0 (20250701.0955)
 -->
<!-- Pages: 1 -->
<svg width="586pt" height="77pt"
 viewBox="0.00 0.00 586.00 77.00" xmlns="http://www.w3.org/2000/svg" xmlns:xlink="http://www.w3.org/1999/xlink">
<g id="graph0" class="graph" transform="scale(1 1) rotate(0) translate(4 72.75)">
<!-- root -->
<g id="node1" class="node">
<title>root</title>
<ellipse fill="none" stroke="#b9dbfa" stroke-width="1.75" cx="34.37" cy="-34.37" rx="34.37" ry="34.37"/>
<text xml:space="preserve" text-anchor="middle" x="34.37" y="-29.7" font-family="monospace" font-size="14.00" fill="#b9dbfa">root</text>
</g>
<!-- root_0 -->
<g id="node2" class="node">
<title>root_0</title>
<ellipse fill="none" stroke="#b9dbfa" stroke-width="1.75" cx="115.75" cy="-34.37" rx="18" ry="18"/>
<text xml:space="preserve" text-anchor="middle" x="115.75" y="-29.7" font-family="monospace" font-size="14.00" fill="#b9dbfa">H</text>
</g>
<!-- root&#45;&gt;root_0 -->
<g id="edge1" class="edge">
<title>root&#45;&gt;root_0</title>
<path fill="none" stroke="#b9dbfa" stroke-width="2" d="M69.49,-34.37C75.18,-34.37 81.03,-34.37 86.55,-34.37"/>
<polygon fill="#b9dbfa" stroke="#b9dbfa" stroke-width="2" points="86.24,-37.17 94.24,-34.37 86.24,-31.57 86.24,-37.17"/>
</g>
<!-- root_0_1 -->
<g id="node3" class="node">
<title>root_0_1</title>
<ellipse fill="none" stroke="#b9dbfa" stroke-width="1.75" cx="180.75" cy="-34.37" rx="18" ry="18"/>
<text xml:space="preserve" text-anchor="middle" x="180.75" y="-29.7" font-family="monospace" font-size="14.00" fill="#b9dbfa">e</text>
</g>
<!-- root_0&#45;&gt;root_0_1 -->
<g id="edge2" class="edge">
<title>root_0&#45;&gt;root_0_1</title>
<path fill="none" stroke="#b9dbfa" stroke-width="2" d="M134.29,-34.37C139.62,-34.37 145.61,-34.37 151.45,-34.37"/>
<polygon fill="#b9dbfa" stroke="#b9dbfa" stroke-width="2" points="151.26,-37.17 159.26,-34.37 151.26,-31.57 151.26,-37.17"/>
</g>
<!-- root_0_1_2 -->
<g id="node4" class="node">
<title>root_0_1_2</title>
<ellipse fill="none" stroke="#b9dbfa" stroke-width="1.75" cx="245.75" cy="-34.37" rx="18" ry="18"/>
<text xml:space="preserve" text-anchor="middle" x="245.75" y="-29.7" font-family="monospace" font-size="14.00" fill="#b9dbfa">i</text>
</g>
<!-- root_0_1&#45;&gt;root_0_1_2 -->
<g id="edge3" class="edge">
<title>root_0_1&#45;&gt;root_0_1_2</title>
<path fill="none" stroke="#b9dbfa" stroke-width="2" d="M199.29,-34.37C204.62,-34.37 210.61,-34.37 216.45,-34.37"/>
<polygon fill="#b9dbfa" stroke="#b9dbfa" stroke-width="2" points="216.26,-37.17 224.26,-34.37 216.26,-31.57 216.26,-37.17"/>
</g>
<!-- root_0_1_2_3 -->
<g id="node5" class="node">
<title>root_0_1_2_3</title>
<ellipse fill="none" stroke="#b9dbfa" stroke-width="1.75" cx="310.75" cy="-34.37" rx="18" ry="18"/>
<text xml:space="preserve" text-anchor="middle" x="310.75" y="-29.7" font-family="monospace" font-size="14.00" fill="#b9dbfa">m</text>
</g>
<!-- root_0_1_2&#45;&gt;root_0_1_2_3 -->
<g id="edge4" class="edge">
<title>root_0_1_2&#45;&gt;root_0_1_2_3</title>
<path fill="none" stroke="#b9dbfa" stroke-width="2" d="M264.29,-34.37C269.62,-34.37 275.61,-34.37 281.45,-34.37"/>
<polygon fill="#b9dbfa" stroke="#b9dbfa" stroke-width="2" points="281.26,-37.17 289.26,-34.37 281.26,-31.57 281.26,-37.17"/>
</g>
<!-- root_0_1_2_3_4 -->
<g id="node6" class="node">
<title>root_0_1_2_3_4</title>
<ellipse fill="none" stroke="#b9dbfa" stroke-width="1.75" cx="375.75" cy="-34.37" rx="18" ry="18"/>
<text xml:space="preserve" text-anchor="middle" x="375.75" y="-29.7" font-family="monospace" font-size="14.00" fill="#b9dbfa">i</text>
</g>
<!-- root_0_1_2_3&#45;&gt;root_0_1_2_3_4 -->
<g id="edge5" class="edge">
<title>root_0_1_2_3&#45;&gt;root_0_1_2_3_4</title>
<path fill="none" stroke="#b9dbfa" stroke-width="2" d="M329.29,-34.37C334.62,-34.37 340.61,-34.37 346.45,-34.37"/>
<polygon fill="#b9dbfa" stroke="#b9dbfa" stroke-width="2" points="346.26,-37.17 354.26,-34.37 346.26,-31.57 346.26,-37.17"/>
</g>
<!-- root_0_1_2_3_4_5 -->
<g id="node7" class="node">
<title>root_0_1_2_3_4_5</title>
<ellipse fill="none" stroke="#b9dbfa" stroke-width="1.75" cx="440.75" cy="-34.37" rx="18" ry="18"/>
<text xml:space="preserve" text-anchor="middle" x="440.75" y="-29.7" font-family="monospace" font-size="14.00" fill="#b9dbfa">r</text>
</g>
<!-- root_0_1_2_3_4&#45;&gt;root_0_1_2_3_4_5 -->
<g id="edge6" class="edge">
<title>root_0_1_2_3_4&#45;&gt;root_0_1_2_3_4_5</title>
<path fill="none" stroke="#b9dbfa" stroke-width="2" d="M394.29,-34.37C399.62,-34.37 405.61,-34.37 411.45,-34.37"/>
<polygon fill="#b9dbfa" stroke="#b9dbfa" stroke-width="2" points="411.26,-37.17 419.26,-34.37 411.26,-31.57 411.26,-37.17"/>
</g>
<!-- root_0_1_2_3_4_5_val -->
<g id="node8" class="node">
<title>root_0_1_2_3_4_5_val</title>
<polygon fill="none" stroke="#b9dbfa" stroke-width="1.75" points="578,-52.37 487.75,-52.37 487.75,-16.37 578,-16.37 578,-52.37"/>
<text xml:space="preserve" text-anchor="middle" x="532.87" y="-29.7" font-family="monospace" font-size="14.00" fill="#b9dbfa">&quot;1;r,,,s&quot;</text>
</g>
<!-- root_0_1_2_3_4_5&#45;&gt;root_0_1_2_3_4_5_val -->
<g id="edge7" class="edge">
<title>root_0_1_2_3_4_5&#45;&gt;root_0_1_2_3_4_5_val</title>
<path fill="none" stroke="#b9dbfa" stroke-width="2" d="M459.55,-34.37C464.55,-34.37 470.27,-34.37 476.25,-34.37"/>
<polygon fill="#b9dbfa" stroke="#b9dbfa" stroke-width="2" points="476.18,-37.17 484.18,-34.37 476.18,-31.57 476.18,-37.17"/>
</g>
</g>
</svg>
