<?xml version="1.0" encoding="UTF-8" standalone="no"?>
<!DOCTYPE svg PUBLIC "-//W3C//DTD SVG 1.1//EN"
 "http://www.w3.org/Graphics/SVG/1.1/DTD/svg11.dtd">
<!-- Generated by graphviz version 13.1.0 (20250701.0955)
 -->
<!-- Pages: 1 -->
<svg width="594pt" height="102pt"
 viewBox="0.00 0.00 594.00 102.00" xmlns="http://www.w3.org/2000/svg" xmlns:xlink="http://www.w3.org/1999/xlink">
<g id="graph0" class="graph" transform="scale(1 1) rotate(0) translate(4 98)">
<!-- root -->
<g id="node1" class="node">
<title>root</title>
<ellipse fill="none" stroke="#b9dbfa" stroke-width="2" cx="34.37" cy="-47" rx="34.37" ry="34.37"/>
<text xml:space="preserve" text-anchor="middle" x="34.37" y="-42.33" font-family="monospace" font-size="14.00" fill="#b9dbfa">root</text>
</g>
<!-- root_0 -->
<g id="node2" class="node">
<title>root_0</title>
<ellipse fill="none" stroke="#b9dbfa" stroke-width="2" cx="115.75" cy="-47" rx="18" ry="18"/>
<text xml:space="preserve" text-anchor="middle" x="115.75" y="-42.33" font-family="monospace" font-size="14.00" fill="#b9dbfa">H</text>
</g>
<!-- root&#45;&gt;root_0 -->
<g id="edge1" class="edge">
<title>root&#45;&gt;root_0</title>
<path fill="none" stroke="#b9dbfa" stroke-width="2" d="M69.49,-47C74.94,-47 80.52,-47 85.82,-47"/>
<polygon fill="#b9dbfa" stroke="#b9dbfa" stroke-width="2" points="85.81,-49.8 93.81,-47 85.81,-44.2 85.81,-49.8"/>
</g>
<!-- root_0_1 -->
<g id="node3" class="node">
<title>root_0_1</title>
<ellipse fill="none" stroke="#b9dbfa" stroke-width="2" cx="180.75" cy="-47" rx="18" ry="18"/>
<text xml:space="preserve" text-anchor="middle" x="180.75" y="-42.33" font-family="monospace" font-size="14.00" fill="#b9dbfa">e</text>
</g>
<!-- root_0&#45;&gt;root_0_1 -->
<g id="edge2" class="edge">
<title>root_0&#45;&gt;root_0_1</title>
<path fill="none" stroke="#b9dbfa" stroke-width="2" d="M134.63,-47C139.86,-47 145.71,-47 151.42,-47"/>
<polygon fill="#b9dbfa" stroke="#b9dbfa" stroke-width="2" points="151.01,-49.8 159.01,-47 151.01,-44.2 151.01,-49.8"/>
</g>
<!-- root_0_1_2 -->
<g id="node4" class="node">
<title>root_0_1_2</title>
<ellipse fill="none" stroke="#b9dbfa" stroke-width="2" cx="245.75" cy="-47" rx="18" ry="18"/>
<text xml:space="preserve" text-anchor="middle" x="245.75" y="-42.33" font-family="monospace" font-size="14.00" fill="#b9dbfa">i</text>
</g>
<!-- root_0_1&#45;&gt;root_0_1_2 -->
<g id="edge3" class="edge">
<title>root_0_1&#45;&gt;root_0_1_2</title>
<path fill="none" stroke="#b9dbfa" stroke-width="2" d="M199.63,-47C204.86,-47 210.71,-47 216.42,-47"/>
<polygon fill="#b9dbfa" stroke="#b9dbfa" stroke-width="2" points="216.01,-49.8 224.01,-47 216.01,-44.2 216.01,-49.8"/>
</g>
<!-- root_0_1_2_3 -->
<g id="node5" class="node">
<title>root_0_1_2_3</title>
<ellipse fill="none" stroke="#b9dbfa" stroke-width="2" cx="310.75" cy="-76" rx="18" ry="18"/>
<text xml:space="preserve" text-anchor="middle" x="310.75" y="-71.33" font-family="monospace" font-size="14.00" fill="#b9dbfa">m</text>
</g>
<!-- root_0_1_2&#45;&gt;root_0_1_2_3 -->
<g id="edge4" class="edge">
<title>root_0_1_2&#45;&gt;root_0_1_2_3</title>
<path fill="none" stroke="#b9dbfa" stroke-width="2" d="M262.97,-54.47C269.24,-57.35 276.58,-60.73 283.55,-63.94"/>
<polygon fill="#b9dbfa" stroke="#b9dbfa" stroke-width="2" points="282.17,-66.39 290.61,-67.19 284.51,-61.3 282.17,-66.39"/>
</g>
<!-- root_0_1_2_6 -->
<g id="node9" class="node">
<title>root_0_1_2_6</title>
<ellipse fill="none" stroke="#b9dbfa" stroke-width="2" cx="310.75" cy="-18" rx="18" ry="18"/>
<text xml:space="preserve" text-anchor="middle" x="310.75" y="-13.32" font-family="monospace" font-size="14.00" fill="#b9dbfa">รฐ</text>
</g>
<!-- root_0_1_2&#45;&gt;root_0_1_2_6 -->
<g id="edge8" class="edge">
<title>root_0_1_2&#45;&gt;root_0_1_2_6</title>
<path fill="none" stroke="#b9dbfa" stroke-width="2" d="M262.97,-39.53C269.24,-36.65 276.58,-33.27 283.55,-30.06"/>
<polygon fill="#b9dbfa" stroke="#b9dbfa" stroke-width="2" points="284.51,-32.7 290.61,-26.81 282.17,-27.61 284.51,-32.7"/>
</g>
<!-- root_0_1_2_3_4 -->
<g id="node6" class="node">
<title>root_0_1_2_3_4</title>
<ellipse fill="none" stroke="#b9dbfa" stroke-width="2" cx="375.75" cy="-76" rx="18" ry="18"/>
<text xml:space="preserve" text-anchor="middle" x="375.75" y="-71.33" font-family="monospace" font-size="14.00" fill="#b9dbfa">i</text>
</g>
<!-- root_0_1_2_3&#45;&gt;root_0_1_2_3_4 -->
<g id="edge5" class="edge">
<title>root_0_1_2_3&#45;&gt;root_0_1_2_3_4</title>
<path fill="none" stroke="#b9dbfa" stroke-width="2" d="M329.63,-76C334.86,-76 340.71,-76 346.42,-76"/>
<polygon fill="#b9dbfa" stroke="#b9dbfa" stroke-width="2" points="346.01,-78.8 354.01,-76 346.01,-73.2 346.01,-78.8"/>
</g>
<!-- root_0_1_2_3_4_5 -->
<g id="node7" class="node">
<title>root_0_1_2_3_4_5</title>
<ellipse fill="none" stroke="#b9dbfa" stroke-width="2" cx="440.75" cy="-76" rx="18" ry="18"/>
<text xml:space="preserve" text-anchor="middle" x="440.75" y="-71.33" font-family="monospace" font-size="14.00" fill="#b9dbfa">r</text>
</g>
<!-- root_0_1_2_3_4&#45;&gt;root_0_1_2_3_4_5 -->
<g id="edge6" class="edge">
<title>root_0_1_2_3_4&#45;&gt;root_0_1_2_3_4_5</title>
<path fill="none" stroke="#b9dbfa" stroke-width="2" d="M394.63,-76C399.86,-76 405.71,-76 411.42,-76"/>
<polygon fill="#b9dbfa" stroke="#b9dbfa" stroke-width="2" points="411.01,-78.8 419.01,-76 411.01,-73.2 411.01,-78.8"/>
</g>
<!-- root_0_1_2_3_4_5_val -->
<g id="node8" class="node">
<title>root_0_1_2_3_4_5_val</title>
<polygon fill="none" stroke="#b9dbfa" stroke-width="2" points="582.12,-94 491.87,-94 491.87,-58 582.12,-58 582.12,-94"/>
<text xml:space="preserve" text-anchor="middle" x="537" y="-71.33" font-family="monospace" font-size="14.00" fill="#b9dbfa">&quot;1;r,,,s&quot;</text>
</g>
<!-- root_0_1_2_3_4_5&#45;&gt;root_0_1_2_3_4_5_val -->
<g id="edge7" class="edge">
<title>root_0_1_2_3_4_5&#45;&gt;root_0_1_2_3_4_5_val</title>
<path fill="none" stroke="#b9dbfa" stroke-width="2" d="M459.47,-76C465.49,-76 472.58,-76 479.96,-76"/>
<polygon fill="#b9dbfa" stroke="#b9dbfa" stroke-width="2" points="479.89,-78.8 487.89,-76 479.89,-73.2 479.89,-78.8"/>
</g>
<!-- root_0_1_2_6_7 -->
<g id="node10" class="node">
<title>root_0_1_2_6_7</title>
<ellipse fill="none" stroke="#b9dbfa" stroke-width="2" cx="375.75" cy="-18" rx="18" ry="18"/>
<text xml:space="preserve" text-anchor="middle" x="375.75" y="-13.32" font-family="monospace" font-size="14.00" fill="#b9dbfa">a</text>
</g>
<!-- root_0_1_2_6&#45;&gt;root_0_1_2_6_7 -->
<g id="edge9" class="edge">
<title>root_0_1_2_6&#45;&gt;root_0_1_2_6_7</title>
<path fill="none" stroke="#b9dbfa" stroke-width="2" d="M329.63,-18C334.86,-18 340.71,-18 346.42,-18"/>
<polygon fill="#b9dbfa" stroke="#b9dbfa" stroke-width="2" points="346.01,-20.8 354.01,-18 346.01,-15.2 346.01,-20.8"/>
</g>
<!-- root_0_1_2_6_7_8 -->
<g id="node11" class="node">
<title>root_0_1_2_6_7_8</title>
<ellipse fill="none" stroke="#b9dbfa" stroke-width="2" cx="440.75" cy="-18" rx="18" ry="18"/>
<text xml:space="preserve" text-anchor="middle" x="440.75" y="-13.32" font-family="monospace" font-size="14.00" fill="#b9dbfa">r</text>
</g>
<!-- root_0_1_2_6_7&#45;&gt;root_0_1_2_6_7_8 -->
<g id="edge10" class="edge">
<title>root_0_1_2_6_7&#45;&gt;root_0_1_2_6_7_8</title>
<path fill="none" stroke="#b9dbfa" stroke-width="2" d="M394.63,-18C399.86,-18 405.71,-18 411.42,-18"/>
<polygon fill="#b9dbfa" stroke="#b9dbfa" stroke-width="2" points="411.01,-20.8 419.01,-18 411.01,-15.2 411.01,-20.8"/>
</g>
<!-- root_0_1_2_6_7_8_val -->
<g id="node12" class="node">
<title>root_0_1_2_6_7_8_val</title>
<polygon fill="none" stroke="#b9dbfa" stroke-width="2" points="586.25,-36 487.75,-36 487.75,0 586.25,0 586.25,-36"/>
<text xml:space="preserve" text-anchor="middle" x="537" y="-13.32" font-family="monospace" font-size="14.00" fill="#b9dbfa">&quot;1;r,,i,s&quot;</text>
</g>
<!-- root_0_1_2_6_7_8&#45;&gt;root_0_1_2_6_7_8_val -->
<g id="edge11" class="edge">
<title>root_0_1_2_6_7_8&#45;&gt;root_0_1_2_6_7_8_val</title>
<path fill="none" stroke="#b9dbfa" stroke-width="2" d="M459.47,-18C464.41,-18 470.05,-18 476,-18"/>
<polygon fill="#b9dbfa" stroke="#b9dbfa" stroke-width="2" points="475.9,-20.8 483.9,-18 475.9,-15.2 475.9,-20.8"/>
</g>
</g>
</svg>
