<?xml version="1.0" encoding="UTF-8" standalone="no"?>
<!DOCTYPE svg PUBLIC "-//W3C//DTD SVG 1.1//EN"
 "http://www.w3.org/Graphics/SVG/1.1/DTD/svg11.dtd">
<!-- Generated by graphviz version 13.1.0 (20250701.0955)
 -->
<!-- Pages: 1 -->
<svg width="956pt" height="633pt"
 viewBox="0.00 0.00 956.00 633.00" xmlns="http://www.w3.org/2000/svg" xmlns:xlink="http://www.w3.org/1999/xlink">
<g id="graph0" class="graph" transform="scale(1 1) rotate(0) translate(4 628.82)">
<!-- root -->
<g id="node1" class="node">
<title>root</title>
<ellipse fill="none" stroke="#b9dbfa" stroke-width="2" cx="34.37" cy="-203" rx="34.37" ry="34.37"/>
<text xml:space="preserve" text-anchor="middle" x="34.37" y="-198.32" font-family="monospace" font-size="14.00" fill="#b9dbfa">root</text>
</g>
<!-- root_0 -->
<g id="node2" class="node">
<title>root_0</title>
<ellipse fill="none" stroke="#b9dbfa" stroke-width="2" cx="115.75" cy="-203" rx="18" ry="18"/>
<text xml:space="preserve" text-anchor="middle" x="115.75" y="-198.32" font-family="monospace" font-size="14.00" fill="#b9dbfa">i</text>
</g>
<!-- root&#45;&gt;root_0 -->
<g id="edge1" class="edge">
<title>root&#45;&gt;root_0</title>
<path fill="none" stroke="#b9dbfa" stroke-width="2" d="M69.49,-203C74.94,-203 80.52,-203 85.82,-203"/>
<polygon fill="#b9dbfa" stroke="#b9dbfa" stroke-width="2" points="85.81,-205.8 93.81,-203 85.81,-200.2 85.81,-205.8"/>
</g>
<!-- root_0_1 -->
<g id="node3" class="node">
<title>root_0_1</title>
<ellipse fill="none" stroke="#b9dbfa" stroke-width="2" cx="266.56" cy="-521" rx="103.82" ry="103.82"/>
<text xml:space="preserve" text-anchor="middle" x="266.56" y="-516.33" font-family="monospace" font-size="14.00" fill="#b9dbfa">bdfjklmnpstvxðóú</text>
</g>
<!-- root_0&#45;&gt;root_0_1 -->
<g id="edge2" class="edge">
<title>root_0&#45;&gt;root_0_1</title>
<path fill="none" stroke="#b9dbfa" stroke-width="2" d="M120.97,-221.02C127.88,-249.09 142.83,-304.63 162.75,-349 174.18,-374.47 188.55,-400.87 202.89,-425.12"/>
<polygon fill="#b9dbfa" stroke="#b9dbfa" stroke-width="2" points="200.32,-426.27 206.82,-431.7 205.12,-423.4 200.32,-426.27"/>
</g>
<!-- root_0_2 -->
<g id="node5" class="node">
<title>root_0_2</title>
<ellipse fill="none" stroke="#b9dbfa" stroke-width="2" cx="266.56" cy="-320" rx="18" ry="18"/>
<text xml:space="preserve" text-anchor="middle" x="266.56" y="-315.32" font-family="monospace" font-size="14.00" fill="#b9dbfa">r</text>
</g>
<!-- root_0&#45;&gt;root_0_2 -->
<g id="edge4" class="edge">
<title>root_0&#45;&gt;root_0_2</title>
<path fill="none" stroke="#b9dbfa" stroke-width="2" d="M131.01,-214.22C156.97,-234.62 212.09,-277.96 243.12,-302.35"/>
<polygon fill="#b9dbfa" stroke="#b9dbfa" stroke-width="2" points="241.16,-304.37 249.18,-307.12 244.62,-299.97 241.16,-304.37"/>
</g>
<!-- root_0_5 -->
<g id="node10" class="node">
<title>root_0_5</title>
<ellipse fill="none" stroke="#b9dbfa" stroke-width="2" cx="266.56" cy="-203" rx="18" ry="18"/>
<text xml:space="preserve" text-anchor="middle" x="266.56" y="-198.32" font-family="monospace" font-size="14.00" fill="#b9dbfa">g</text>
</g>
<!-- root_0&#45;&gt;root_0_5 -->
<g id="edge9" class="edge">
<title>root_0&#45;&gt;root_0_5</title>
<path fill="none" stroke="#b9dbfa" stroke-width="2" d="M134.7,-203C160.2,-203 207.16,-203 237.34,-203"/>
<polygon fill="#b9dbfa" stroke="#b9dbfa" stroke-width="2" points="236.98,-205.8 244.98,-203 236.98,-200.2 236.98,-205.8"/>
</g>
<!-- root_0_10 -->
<g id="node18" class="node">
<title>root_0_10</title>
<ellipse fill="none" stroke="#b9dbfa" stroke-width="2" cx="266.56" cy="-136" rx="18" ry="18"/>
<text xml:space="preserve" text-anchor="middle" x="266.56" y="-131.32" font-family="monospace" font-size="14.00" fill="#b9dbfa">u</text>
</g>
<!-- root_0&#45;&gt;root_0_10 -->
<g id="edge17" class="edge">
<title>root_0&#45;&gt;root_0_10</title>
<path fill="none" stroke="#b9dbfa" stroke-width="2" d="M131.21,-192.79C140.05,-186.82 151.74,-179.43 162.75,-174 187.34,-161.87 216.82,-151.35 237.9,-144.48"/>
<polygon fill="#b9dbfa" stroke="#b9dbfa" stroke-width="2" points="238.72,-147.16 245.49,-142.06 237.02,-141.82 238.72,-147.16"/>
</g>
<!-- root_0_11 -->
<g id="node20" class="node">
<title>root_0_11</title>
<ellipse fill="none" stroke="#b9dbfa" stroke-width="2" cx="266.56" cy="-60" rx="18" ry="18"/>
<text xml:space="preserve" text-anchor="middle" x="266.56" y="-55.33" font-family="monospace" font-size="14.00" fill="#b9dbfa">a</text>
</g>
<!-- root_0&#45;&gt;root_0_11 -->
<g id="edge19" class="edge">
<title>root_0&#45;&gt;root_0_11</title>
<path fill="none" stroke="#b9dbfa" stroke-width="2" d="M121.35,-184.86C127.55,-163.71 140.46,-128.88 162.75,-107 183.68,-86.44 215.24,-73.86 237.87,-66.96"/>
<polygon fill="#b9dbfa" stroke="#b9dbfa" stroke-width="2" points="238.34,-69.73 245.26,-64.84 236.8,-64.35 238.34,-69.73"/>
</g>
<!-- root_0_1_val -->
<g id="node4" class="node">
<title>root_0_1_val</title>
<polygon fill="none" stroke="#b9dbfa" stroke-width="2" points="943.64,-596 737.89,-596 737.89,-560 943.64,-560 943.64,-596"/>
<text xml:space="preserve" text-anchor="middle" x="840.77" y="-573.33" font-family="monospace" font-size="14.00" fill="#b9dbfa">&quot;1;i,a,a,a (166 names)&quot;</text>
</g>
<!-- root_0_1&#45;&gt;root_0_1_val -->
<g id="edge3" class="edge">
<title>root_0_1&#45;&gt;root_0_1_val</title>
<path fill="none" stroke="#b9dbfa" stroke-width="2" d="M367.53,-549.01C378.22,-551.34 388.99,-553.4 399.38,-555 509.62,-571.92 637,-577.03 726.31,-578.29"/>
<polygon fill="#b9dbfa" stroke="#b9dbfa" stroke-width="2" points="726.22,-581.09 734.26,-578.39 726.29,-575.49 726.22,-581.09"/>
</g>
<!-- root_0_2_3 -->
<g id="node6" class="node">
<title>root_0_2_3</title>
<ellipse fill="none" stroke="#b9dbfa" stroke-width="2" cx="491.63" cy="-452" rx="92.24" ry="92.24"/>
<text xml:space="preserve" text-anchor="middle" x="491.63" y="-447.32" font-family="monospace" font-size="14.00" fill="#b9dbfa">Aadefgimrtáóúý</text>
</g>
<!-- root_0_2&#45;&gt;root_0_2_3 -->
<g id="edge5" class="edge">
<title>root_0_2&#45;&gt;root_0_2_3</title>
<path fill="none" stroke="#b9dbfa" stroke-width="2" d="M282.9,-329.07C307.39,-343.56 357.13,-373 401.8,-399.43"/>
<polygon fill="#b9dbfa" stroke="#b9dbfa" stroke-width="2" points="400.33,-401.82 408.64,-403.48 403.18,-397 400.33,-401.82"/>
</g>
<!-- root_0_2_4 -->
<g id="node8" class="node">
<title>root_0_2_4</title>
<ellipse fill="none" stroke="#b9dbfa" stroke-width="2" cx="491.63" cy="-320" rx="18" ry="18"/>
<text xml:space="preserve" text-anchor="middle" x="491.63" y="-315.32" font-family="monospace" font-size="14.00" fill="#b9dbfa">y</text>
</g>
<!-- root_0_2&#45;&gt;root_0_2_4 -->
<g id="edge7" class="edge">
<title>root_0_2&#45;&gt;root_0_2_4</title>
<path fill="none" stroke="#b9dbfa" stroke-width="2" d="M285.44,-320C323.94,-320 415,-320 461.78,-320"/>
<polygon fill="#b9dbfa" stroke="#b9dbfa" stroke-width="2" points="461.64,-322.8 469.64,-320 461.64,-317.2 461.64,-322.8"/>
</g>
<!-- root_0_2_3_val -->
<g id="node7" class="node">
<title>root_0_2_3_val</title>
<polygon fill="none" stroke="#b9dbfa" stroke-width="2" points="939.52,-470 742.02,-470 742.02,-434 939.52,-434 939.52,-470"/>
<text xml:space="preserve" text-anchor="middle" x="840.77" y="-447.32" font-family="monospace" font-size="14.00" fill="#b9dbfa">&quot;1;i,a,a,a (33 names)&quot;</text>
</g>
<!-- root_0_2_3&#45;&gt;root_0_2_3_val -->
<g id="edge6" class="edge">
<title>root_0_2_3&#45;&gt;root_0_2_3_val</title>
<path fill="none" stroke="#b9dbfa" stroke-width="2" d="M584.74,-452C629.47,-452 683.52,-452 730.33,-452"/>
<polygon fill="#b9dbfa" stroke="#b9dbfa" stroke-width="2" points="730.1,-454.8 738.1,-452 730.1,-449.2 730.1,-454.8"/>
</g>
<!-- root_0_2_4_val -->
<g id="node9" class="node">
<title>root_0_2_4_val</title>
<polygon fill="none" stroke="#b9dbfa" stroke-width="2" points="918.89,-370 762.64,-370 762.64,-334 918.89,-334 918.89,-370"/>
<text xml:space="preserve" text-anchor="middle" x="840.77" y="-347.32" font-family="monospace" font-size="14.00" fill="#b9dbfa">&quot;0;,,, (1 names)&quot;</text>
</g>
<!-- root_0_2_4&#45;&gt;root_0_2_4_val -->
<g id="edge8" class="edge">
<title>root_0_2_4&#45;&gt;root_0_2_4_val</title>
<path fill="none" stroke="#b9dbfa" stroke-width="2" d="M510.32,-321.63C553.95,-325.65 669.11,-336.27 750.95,-343.81"/>
<polygon fill="#b9dbfa" stroke="#b9dbfa" stroke-width="2" points="750.52,-346.59 758.75,-344.53 751.04,-341.01 750.52,-346.59"/>
</g>
<!-- root_0_5_6 -->
<g id="node11" class="node">
<title>root_0_5_6</title>
<ellipse fill="none" stroke="#b9dbfa" stroke-width="2" cx="491.63" cy="-240" rx="40.16" ry="40.16"/>
<text xml:space="preserve" text-anchor="middle" x="491.63" y="-235.32" font-family="monospace" font-size="14.00" fill="#b9dbfa">alnou</text>
</g>
<!-- root_0_5&#45;&gt;root_0_5_6 -->
<g id="edge10" class="edge">
<title>root_0_5&#45;&gt;root_0_5_6</title>
<path fill="none" stroke="#b9dbfa" stroke-width="2" d="M285.07,-205.9C318.1,-211.38 390.77,-223.44 440.23,-231.64"/>
<polygon fill="#b9dbfa" stroke="#b9dbfa" stroke-width="2" points="439.68,-234.39 448.04,-232.94 440.6,-228.86 439.68,-234.39"/>
</g>
<!-- root_0_5_7 -->
<g id="node13" class="node">
<title>root_0_5_7</title>
<ellipse fill="none" stroke="#b9dbfa" stroke-width="2" cx="491.63" cy="-160" rx="18" ry="18"/>
<text xml:space="preserve" text-anchor="middle" x="491.63" y="-155.32" font-family="monospace" font-size="14.00" fill="#b9dbfa">g</text>
</g>
<!-- root_0_5&#45;&gt;root_0_5_7 -->
<g id="edge12" class="edge">
<title>root_0_5&#45;&gt;root_0_5_7</title>
<path fill="none" stroke="#b9dbfa" stroke-width="2" d="M285.07,-199.63C323.59,-192.2 415.99,-174.39 462.65,-165.39"/>
<polygon fill="#b9dbfa" stroke="#b9dbfa" stroke-width="2" points="462.91,-168.2 470.23,-163.93 461.85,-162.7 462.91,-168.2"/>
</g>
<!-- root_0_5_6_val -->
<g id="node12" class="node">
<title>root_0_5_6_val</title>
<polygon fill="none" stroke="#b9dbfa" stroke-width="2" points="939.52,-312 742.02,-312 742.02,-276 939.52,-276 939.52,-312"/>
<text xml:space="preserve" text-anchor="middle" x="840.77" y="-289.32" font-family="monospace" font-size="14.00" fill="#b9dbfa">&quot;1;i,a,a,a (14 names)&quot;</text>
</g>
<!-- root_0_5_6&#45;&gt;root_0_5_6_val -->
<g id="edge11" class="edge">
<title>root_0_5_6&#45;&gt;root_0_5_6_val</title>
<path fill="none" stroke="#b9dbfa" stroke-width="2" d="M531.02,-251.48C554.47,-258.1 585.18,-266.06 612.87,-271 650.83,-277.78 692.74,-282.73 730.11,-286.26"/>
<polygon fill="#b9dbfa" stroke="#b9dbfa" stroke-width="2" points="729.8,-289.04 738.02,-286.98 730.31,-283.46 729.8,-289.04"/>
</g>
<!-- root_0_5_7_8 -->
<g id="node14" class="node">
<title>root_0_5_7_8</title>
<ellipse fill="none" stroke="#b9dbfa" stroke-width="2" cx="658.82" cy="-214" rx="45.95" ry="45.95"/>
<text xml:space="preserve" text-anchor="middle" x="658.82" y="-209.32" font-family="monospace" font-size="14.00" fill="#b9dbfa">Uaiouö</text>
</g>
<!-- root_0_5_7&#45;&gt;root_0_5_7_8 -->
<g id="edge13" class="edge">
<title>root_0_5_7&#45;&gt;root_0_5_7_8</title>
<path fill="none" stroke="#b9dbfa" stroke-width="2" d="M509.81,-165.36C528.18,-171.11 558.13,-180.56 583.87,-189 590.53,-191.18 597.52,-193.51 604.44,-195.82"/>
<polygon fill="#b9dbfa" stroke="#b9dbfa" stroke-width="2" points="603.12,-198.33 611.59,-198.23 604.9,-193.03 603.12,-198.33"/>
</g>
<!-- root_0_5_7_9 -->
<g id="node16" class="node">
<title>root_0_5_7_9</title>
<ellipse fill="none" stroke="#b9dbfa" stroke-width="2" cx="658.82" cy="-128" rx="18" ry="18"/>
<text xml:space="preserve" text-anchor="middle" x="658.82" y="-123.33" font-family="monospace" font-size="14.00" fill="#b9dbfa">e</text>
</g>
<!-- root_0_5_7&#45;&gt;root_0_5_7_9 -->
<g id="edge15" class="edge">
<title>root_0_5_7&#45;&gt;root_0_5_7_9</title>
<path fill="none" stroke="#b9dbfa" stroke-width="2" d="M510.31,-156.58C538.87,-151.04 595.42,-140.09 629.61,-133.47"/>
<polygon fill="#b9dbfa" stroke="#b9dbfa" stroke-width="2" points="629.97,-136.25 637.3,-131.98 628.91,-130.75 629.97,-136.25"/>
</g>
<!-- root_0_5_7_8_val -->
<g id="node15" class="node">
<title>root_0_5_7_8_val</title>
<polygon fill="none" stroke="#b9dbfa" stroke-width="2" points="935.39,-232 746.14,-232 746.14,-196 935.39,-196 935.39,-232"/>
<text xml:space="preserve" text-anchor="middle" x="840.77" y="-209.32" font-family="monospace" font-size="14.00" fill="#b9dbfa">&quot;1;i,a,a,a (6 names)&quot;</text>
</g>
<!-- root_0_5_7_8&#45;&gt;root_0_5_7_8_val -->
<g id="edge14" class="edge">
<title>root_0_5_7_8&#45;&gt;root_0_5_7_8_val</title>
<path fill="none" stroke="#b9dbfa" stroke-width="2" d="M705.69,-214C714.64,-214 724.36,-214 734.34,-214"/>
<polygon fill="#b9dbfa" stroke="#b9dbfa" stroke-width="2" points="734.22,-216.8 742.22,-214 734.22,-211.2 734.22,-216.8"/>
</g>
<!-- root_0_5_7_9_val -->
<g id="node17" class="node">
<title>root_0_5_7_9_val</title>
<polygon fill="none" stroke="#b9dbfa" stroke-width="2" points="947.77,-152 733.77,-152 733.77,-116 947.77,-116 947.77,-152"/>
<text xml:space="preserve" text-anchor="middle" x="840.77" y="-129.32" font-family="monospace" font-size="14.00" fill="#b9dbfa">&quot;1;i,ja,ja,ja (1 names)&quot;</text>
</g>
<!-- root_0_5_7_9&#45;&gt;root_0_5_7_9_val -->
<g id="edge16" class="edge">
<title>root_0_5_7_9&#45;&gt;root_0_5_7_9_val</title>
<path fill="none" stroke="#b9dbfa" stroke-width="2" d="M677.73,-128.6C689.07,-128.98 704.81,-129.5 722.06,-130.08"/>
<polygon fill="#b9dbfa" stroke="#b9dbfa" stroke-width="2" points="721.86,-132.87 729.94,-130.34 722.04,-127.27 721.86,-132.87"/>
</g>
<!-- root_0_10_val -->
<g id="node19" class="node">
<title>root_0_10_val</title>
<polygon fill="none" stroke="#b9dbfa" stroke-width="2" points="947.77,-94 733.77,-94 733.77,-58 947.77,-58 947.77,-94"/>
<text xml:space="preserve" text-anchor="middle" x="840.77" y="-71.33" font-family="monospace" font-size="14.00" fill="#b9dbfa">&quot;1;i,ja,ja,ja (1 names)&quot;</text>
</g>
<!-- root_0_10&#45;&gt;root_0_10_val -->
<g id="edge18" class="edge">
<title>root_0_10&#45;&gt;root_0_10_val</title>
<path fill="none" stroke="#b9dbfa" stroke-width="2" d="M285.17,-134.08C335.98,-128.54 487.24,-112.1 612.87,-99 648.38,-95.3 687.03,-91.35 722.19,-87.79"/>
<polygon fill="#b9dbfa" stroke="#b9dbfa" stroke-width="2" points="722.3,-90.59 729.97,-87 721.73,-85.02 722.3,-90.59"/>
</g>
<!-- root_0_11_val -->
<g id="node21" class="node">
<title>root_0_11_val</title>
<polygon fill="none" stroke="#b9dbfa" stroke-width="2" points="923.02,-36 758.52,-36 758.52,0 923.02,0 923.02,-36"/>
<text xml:space="preserve" text-anchor="middle" x="840.77" y="-13.32" font-family="monospace" font-size="14.00" fill="#b9dbfa">&quot;0;,,,s (1 names)&quot;</text>
</g>
<!-- root_0_11&#45;&gt;root_0_11_val -->
<g id="edge20" class="edge">
<title>root_0_11&#45;&gt;root_0_11_val</title>
<path fill="none" stroke="#b9dbfa" stroke-width="2" d="M285.32,-58.7C354.35,-53.63 607.97,-35.01 747.03,-24.81"/>
<polygon fill="#b9dbfa" stroke="#b9dbfa" stroke-width="2" points="746.87,-27.63 754.64,-24.25 746.46,-22.04 746.87,-27.63"/>
</g>
</g>
</svg>
