<?xml version="1.0" encoding="UTF-8" standalone="no"?>
<!DOCTYPE svg PUBLIC "-//W3C//DTD SVG 1.1//EN"
 "http://www.w3.org/Graphics/SVG/1.1/DTD/svg11.dtd">
<!-- Generated by graphviz version 13.1.0 (20250701.0955)
 -->
<!-- Pages: 1 -->
<svg width="537pt" height="392pt"
 viewBox="0.00 0.00 537.00 392.00" xmlns="http://www.w3.org/2000/svg" xmlns:xlink="http://www.w3.org/1999/xlink">
<g id="graph0" class="graph" transform="scale(1 1) rotate(0) translate(4 388)">
<!-- root -->
<g id="node1" class="node">
<title>root</title>
<ellipse fill="none" stroke="#b9dbfa" stroke-width="2" cx="34.37" cy="-192" rx="34.37" ry="34.37"/>
<text xml:space="preserve" text-anchor="middle" x="34.37" y="-187.32" font-family="monospace" font-size="14.00" fill="#b9dbfa">root</text>
</g>
<!-- root_0 -->
<g id="node2" class="node">
<title>root_0</title>
<ellipse fill="none" stroke="#b9dbfa" stroke-width="2" cx="115.75" cy="-192" rx="18" ry="18"/>
<text xml:space="preserve" text-anchor="middle" x="115.75" y="-187.32" font-family="monospace" font-size="14.00" fill="#b9dbfa">r</text>
</g>
<!-- root&#45;&gt;root_0 -->
<g id="edge1" class="edge">
<title>root&#45;&gt;root_0</title>
<path fill="none" stroke="#b9dbfa" stroke-width="2" d="M69.49,-192C74.94,-192 80.52,-192 85.82,-192"/>
<polygon fill="#b9dbfa" stroke="#b9dbfa" stroke-width="2" points="85.81,-194.8 93.81,-192 85.81,-189.2 85.81,-194.8"/>
</g>
<!-- root_0_1 -->
<g id="node3" class="node">
<title>root_0_1</title>
<ellipse fill="none" stroke="#b9dbfa" stroke-width="2" cx="180.75" cy="-192" rx="18" ry="18"/>
<text xml:space="preserve" text-anchor="middle" x="180.75" y="-187.32" font-family="monospace" font-size="14.00" fill="#b9dbfa">u</text>
</g>
<!-- root_0&#45;&gt;root_0_1 -->
<g id="edge2" class="edge">
<title>root_0&#45;&gt;root_0_1</title>
<path fill="none" stroke="#b9dbfa" stroke-width="2" d="M134.63,-192C139.86,-192 145.71,-192 151.42,-192"/>
<polygon fill="#b9dbfa" stroke="#b9dbfa" stroke-width="2" points="151.01,-194.8 159.01,-192 151.01,-189.2 151.01,-194.8"/>
</g>
<!-- root_0_1_2 -->
<g id="node4" class="node">
<title>root_0_1_2</title>
<ellipse fill="none" stroke="#b9dbfa" stroke-width="2" cx="245.75" cy="-192" rx="18" ry="18"/>
<text xml:space="preserve" text-anchor="middle" x="245.75" y="-187.32" font-family="monospace" font-size="14.00" fill="#b9dbfa">f</text>
</g>
<!-- root_0_1&#45;&gt;root_0_1_2 -->
<g id="edge3" class="edge">
<title>root_0_1&#45;&gt;root_0_1_2</title>
<path fill="none" stroke="#b9dbfa" stroke-width="2" d="M199.63,-192C204.86,-192 210.71,-192 216.42,-192"/>
<polygon fill="#b9dbfa" stroke="#b9dbfa" stroke-width="2" points="216.01,-194.8 224.01,-192 216.01,-189.2 216.01,-194.8"/>
</g>
<!-- root_0_1_2_3 -->
<g id="node5" class="node">
<title>root_0_1_2_3</title>
<ellipse fill="none" stroke="#b9dbfa" stroke-width="2" cx="310.75" cy="-192" rx="18" ry="18"/>
<text xml:space="preserve" text-anchor="middle" x="310.75" y="-187.32" font-family="monospace" font-size="14.00" fill="#b9dbfa">l</text>
</g>
<!-- root_0_1_2&#45;&gt;root_0_1_2_3 -->
<g id="edge4" class="edge">
<title>root_0_1_2&#45;&gt;root_0_1_2_3</title>
<path fill="none" stroke="#b9dbfa" stroke-width="2" d="M264.63,-192C269.86,-192 275.71,-192 281.42,-192"/>
<polygon fill="#b9dbfa" stroke="#b9dbfa" stroke-width="2" points="281.01,-194.8 289.01,-192 281.01,-189.2 281.01,-194.8"/>
</g>
<!-- root_0_1_2_3_4 -->
<g id="node6" class="node">
<title>root_0_1_2_3_4</title>
<ellipse fill="none" stroke="#b9dbfa" stroke-width="2" cx="375.75" cy="-366" rx="18" ry="18"/>
<text xml:space="preserve" text-anchor="middle" x="375.75" y="-361.32" font-family="monospace" font-size="14.00" fill="#b9dbfa">ú</text>
</g>
<!-- root_0_1_2_3&#45;&gt;root_0_1_2_3_4 -->
<g id="edge5" class="edge">
<title>root_0_1_2_3&#45;&gt;root_0_1_2_3_4</title>
<path fill="none" stroke="#b9dbfa" stroke-width="2" d="M316.04,-209.88C323.03,-237.72 338.09,-292.84 357.75,-337 358.38,-338.43 359.07,-339.88 359.8,-341.34"/>
<polygon fill="#b9dbfa" stroke="#b9dbfa" stroke-width="2" points="357.17,-342.35 363.46,-348.03 362.08,-339.67 357.17,-342.35"/>
</g>
<!-- root_0_1_2_3_5 -->
<g id="node8" class="node">
<title>root_0_1_2_3_5</title>
<ellipse fill="none" stroke="#b9dbfa" stroke-width="2" cx="375.75" cy="-308" rx="18" ry="18"/>
<text xml:space="preserve" text-anchor="middle" x="375.75" y="-303.32" font-family="monospace" font-size="14.00" fill="#b9dbfa">ó</text>
</g>
<!-- root_0_1_2_3&#45;&gt;root_0_1_2_3_5 -->
<g id="edge7" class="edge">
<title>root_0_1_2_3&#45;&gt;root_0_1_2_3_5</title>
<path fill="none" stroke="#b9dbfa" stroke-width="2" d="M320.18,-208.47C329.25,-226.05 344.19,-254.67 357.75,-279 358.51,-280.37 359.3,-281.77 360.1,-283.18"/>
<polygon fill="#b9dbfa" stroke="#b9dbfa" stroke-width="2" points="357.5,-284.28 363.93,-289.8 362.35,-281.47 357.5,-284.28"/>
</g>
<!-- root_0_1_2_3_6 -->
<g id="node10" class="node">
<title>root_0_1_2_3_6</title>
<ellipse fill="none" stroke="#b9dbfa" stroke-width="2" cx="375.75" cy="-250" rx="18" ry="18"/>
<text xml:space="preserve" text-anchor="middle" x="375.75" y="-245.32" font-family="monospace" font-size="14.00" fill="#b9dbfa">Á</text>
</g>
<!-- root_0_1_2_3&#45;&gt;root_0_1_2_3_6 -->
<g id="edge9" class="edge">
<title>root_0_1_2_3&#45;&gt;root_0_1_2_3_6</title>
<path fill="none" stroke="#b9dbfa" stroke-width="2" d="M325.11,-204.3C333.29,-211.84 343.96,-221.65 353.3,-230.26"/>
<polygon fill="#b9dbfa" stroke="#b9dbfa" stroke-width="2" points="351.39,-232.31 359.18,-235.67 355.19,-228.19 351.39,-232.31"/>
</g>
<!-- root_0_1_2_3_7 -->
<g id="node12" class="node">
<title>root_0_1_2_3_7</title>
<ellipse fill="none" stroke="#b9dbfa" stroke-width="2" cx="375.75" cy="-192" rx="18" ry="18"/>
<text xml:space="preserve" text-anchor="middle" x="375.75" y="-187.32" font-family="monospace" font-size="14.00" fill="#b9dbfa">E</text>
</g>
<!-- root_0_1_2_3&#45;&gt;root_0_1_2_3_7 -->
<g id="edge11" class="edge">
<title>root_0_1_2_3&#45;&gt;root_0_1_2_3_7</title>
<path fill="none" stroke="#b9dbfa" stroke-width="2" d="M329.63,-192C334.86,-192 340.71,-192 346.42,-192"/>
<polygon fill="#b9dbfa" stroke="#b9dbfa" stroke-width="2" points="346.01,-194.8 354.01,-192 346.01,-189.2 346.01,-194.8"/>
</g>
<!-- root_0_1_2_3_8 -->
<g id="node14" class="node">
<title>root_0_1_2_3_8</title>
<ellipse fill="none" stroke="#b9dbfa" stroke-width="2" cx="375.75" cy="-134" rx="18" ry="18"/>
<text xml:space="preserve" text-anchor="middle" x="375.75" y="-129.32" font-family="monospace" font-size="14.00" fill="#b9dbfa">Ú</text>
</g>
<!-- root_0_1_2_3&#45;&gt;root_0_1_2_3_8 -->
<g id="edge13" class="edge">
<title>root_0_1_2_3&#45;&gt;root_0_1_2_3_8</title>
<path fill="none" stroke="#b9dbfa" stroke-width="2" d="M325.11,-179.7C333.29,-172.16 343.96,-162.35 353.3,-153.74"/>
<polygon fill="#b9dbfa" stroke="#b9dbfa" stroke-width="2" points="355.19,-155.81 359.18,-148.33 351.39,-151.69 355.19,-155.81"/>
</g>
<!-- root_0_1_2_3_9 -->
<g id="node16" class="node">
<title>root_0_1_2_3_9</title>
<ellipse fill="none" stroke="#b9dbfa" stroke-width="2" cx="375.75" cy="-76" rx="18" ry="18"/>
<text xml:space="preserve" text-anchor="middle" x="375.75" y="-71.33" font-family="monospace" font-size="14.00" fill="#b9dbfa">Y</text>
</g>
<!-- root_0_1_2_3&#45;&gt;root_0_1_2_3_9 -->
<g id="edge15" class="edge">
<title>root_0_1_2_3&#45;&gt;root_0_1_2_3_9</title>
<path fill="none" stroke="#b9dbfa" stroke-width="2" d="M320.18,-175.53C329.25,-157.95 344.19,-129.33 357.75,-105 358.51,-103.63 359.3,-102.23 360.1,-100.82"/>
<polygon fill="#b9dbfa" stroke="#b9dbfa" stroke-width="2" points="362.35,-102.53 363.93,-94.2 357.5,-99.72 362.35,-102.53"/>
</g>
<!-- root_0_1_2_3_10 -->
<g id="node18" class="node">
<title>root_0_1_2_3_10</title>
<ellipse fill="none" stroke="#b9dbfa" stroke-width="2" cx="375.75" cy="-18" rx="18" ry="18"/>
<text xml:space="preserve" text-anchor="middle" x="375.75" y="-13.32" font-family="monospace" font-size="14.00" fill="#b9dbfa">e</text>
</g>
<!-- root_0_1_2_3&#45;&gt;root_0_1_2_3_10 -->
<g id="edge17" class="edge">
<title>root_0_1_2_3&#45;&gt;root_0_1_2_3_10</title>
<path fill="none" stroke="#b9dbfa" stroke-width="2" d="M316.04,-174.12C323.03,-146.28 338.09,-91.16 357.75,-47 358.38,-45.57 359.07,-44.12 359.8,-42.66"/>
<polygon fill="#b9dbfa" stroke="#b9dbfa" stroke-width="2" points="362.08,-44.33 363.46,-35.97 357.17,-41.65 362.08,-44.33"/>
</g>
<!-- root_0_1_2_3_4_val -->
<g id="node7" class="node">
<title>root_0_1_2_3_4_val</title>
<polygon fill="none" stroke="#b9dbfa" stroke-width="2" points="521.25,-384 431,-384 431,-348 521.25,-348 521.25,-384"/>
<text xml:space="preserve" text-anchor="middle" x="476.12" y="-361.32" font-family="monospace" font-size="14.00" fill="#b9dbfa">2;ur,,i,s</text>
</g>
<!-- root_0_1_2_3_4&#45;&gt;root_0_1_2_3_4_val -->
<g id="edge6" class="edge">
<title>root_0_1_2_3_4&#45;&gt;root_0_1_2_3_4_val</title>
<path fill="none" stroke="#b9dbfa" stroke-width="2" d="M394.33,-366C401.56,-366 410.37,-366 419.48,-366"/>
<polygon fill="#b9dbfa" stroke="#b9dbfa" stroke-width="2" points="419.21,-368.8 427.21,-366 419.21,-363.2 419.21,-368.8"/>
</g>
<!-- root_0_1_2_3_5_val -->
<g id="node9" class="node">
<title>root_0_1_2_3_5_val</title>
<polygon fill="none" stroke="#b9dbfa" stroke-width="2" points="521.25,-326 431,-326 431,-290 521.25,-290 521.25,-326"/>
<text xml:space="preserve" text-anchor="middle" x="476.12" y="-303.32" font-family="monospace" font-size="14.00" fill="#b9dbfa">2;ur,,i,s</text>
</g>
<!-- root_0_1_2_3_5&#45;&gt;root_0_1_2_3_5_val -->
<g id="edge8" class="edge">
<title>root_0_1_2_3_5&#45;&gt;root_0_1_2_3_5_val</title>
<path fill="none" stroke="#b9dbfa" stroke-width="2" d="M394.33,-308C401.56,-308 410.37,-308 419.48,-308"/>
<polygon fill="#b9dbfa" stroke="#b9dbfa" stroke-width="2" points="419.21,-310.8 427.21,-308 419.21,-305.2 419.21,-310.8"/>
</g>
<!-- root_0_1_2_3_6_val -->
<g id="node11" class="node">
<title>root_0_1_2_3_6_val</title>
<polygon fill="none" stroke="#b9dbfa" stroke-width="2" points="521.25,-268 431,-268 431,-232 521.25,-232 521.25,-268"/>
<text xml:space="preserve" text-anchor="middle" x="476.12" y="-245.32" font-family="monospace" font-size="14.00" fill="#b9dbfa">2;ur,,i,s</text>
</g>
<!-- root_0_1_2_3_6&#45;&gt;root_0_1_2_3_6_val -->
<g id="edge10" class="edge">
<title>root_0_1_2_3_6&#45;&gt;root_0_1_2_3_6_val</title>
<path fill="none" stroke="#b9dbfa" stroke-width="2" d="M394.33,-250C401.56,-250 410.37,-250 419.48,-250"/>
<polygon fill="#b9dbfa" stroke="#b9dbfa" stroke-width="2" points="419.21,-252.8 427.21,-250 419.21,-247.2 419.21,-252.8"/>
</g>
<!-- root_0_1_2_3_7_val -->
<g id="node13" class="node">
<title>root_0_1_2_3_7_val</title>
<polygon fill="none" stroke="#b9dbfa" stroke-width="2" points="529.5,-210 422.75,-210 422.75,-174 529.5,-174 529.5,-210"/>
<text xml:space="preserve" text-anchor="middle" x="476.12" y="-187.32" font-family="monospace" font-size="14.00" fill="#b9dbfa">2;ur,i,i,ar</text>
</g>
<!-- root_0_1_2_3_7&#45;&gt;root_0_1_2_3_7_val -->
<g id="edge12" class="edge">
<title>root_0_1_2_3_7&#45;&gt;root_0_1_2_3_7_val</title>
<path fill="none" stroke="#b9dbfa" stroke-width="2" d="M394.33,-192C399.24,-192 404.87,-192 410.83,-192"/>
<polygon fill="#b9dbfa" stroke="#b9dbfa" stroke-width="2" points="410.8,-194.8 418.8,-192 410.8,-189.2 410.8,-194.8"/>
</g>
<!-- root_0_1_2_3_8_val -->
<g id="node15" class="node">
<title>root_0_1_2_3_8_val</title>
<polygon fill="none" stroke="#b9dbfa" stroke-width="2" points="521.25,-152 431,-152 431,-116 521.25,-116 521.25,-152"/>
<text xml:space="preserve" text-anchor="middle" x="476.12" y="-129.32" font-family="monospace" font-size="14.00" fill="#b9dbfa">2;ur,,i,s</text>
</g>
<!-- root_0_1_2_3_8&#45;&gt;root_0_1_2_3_8_val -->
<g id="edge14" class="edge">
<title>root_0_1_2_3_8&#45;&gt;root_0_1_2_3_8_val</title>
<path fill="none" stroke="#b9dbfa" stroke-width="2" d="M394.33,-134C401.56,-134 410.37,-134 419.48,-134"/>
<polygon fill="#b9dbfa" stroke="#b9dbfa" stroke-width="2" points="419.21,-136.8 427.21,-134 419.21,-131.2 419.21,-136.8"/>
</g>
<!-- root_0_1_2_3_9_val -->
<g id="node17" class="node">
<title>root_0_1_2_3_9_val</title>
<polygon fill="none" stroke="#b9dbfa" stroke-width="2" points="529.5,-94 422.75,-94 422.75,-58 529.5,-58 529.5,-94"/>
<text xml:space="preserve" text-anchor="middle" x="476.12" y="-71.33" font-family="monospace" font-size="14.00" fill="#b9dbfa">2;ur,i,i,ar</text>
</g>
<!-- root_0_1_2_3_9&#45;&gt;root_0_1_2_3_9_val -->
<g id="edge16" class="edge">
<title>root_0_1_2_3_9&#45;&gt;root_0_1_2_3_9_val</title>
<path fill="none" stroke="#b9dbfa" stroke-width="2" d="M394.33,-76C399.24,-76 404.87,-76 410.83,-76"/>
<polygon fill="#b9dbfa" stroke="#b9dbfa" stroke-width="2" points="410.8,-78.8 418.8,-76 410.8,-73.2 410.8,-78.8"/>
</g>
<!-- root_0_1_2_3_10_val -->
<g id="node19" class="node">
<title>root_0_1_2_3_10_val</title>
<polygon fill="none" stroke="#b9dbfa" stroke-width="2" points="529.5,-36 422.75,-36 422.75,0 529.5,0 529.5,-36"/>
<text xml:space="preserve" text-anchor="middle" x="476.12" y="-13.32" font-family="monospace" font-size="14.00" fill="#b9dbfa">2;ur,i,i,ar</text>
</g>
<!-- root_0_1_2_3_10&#45;&gt;root_0_1_2_3_10_val -->
<g id="edge18" class="edge">
<title>root_0_1_2_3_10&#45;&gt;root_0_1_2_3_10_val</title>
<path fill="none" stroke="#b9dbfa" stroke-width="2" d="M394.33,-18C399.24,-18 404.87,-18 410.83,-18"/>
<polygon fill="#b9dbfa" stroke="#b9dbfa" stroke-width="2" points="410.8,-20.8 418.8,-18 410.8,-15.2 410.8,-20.8"/>
</g>
</g>
</svg>
