<?xml version="1.0" encoding="UTF-8" standalone="no"?>
<!DOCTYPE svg PUBLIC "-//W3C//DTD SVG 1.1//EN"
 "http://www.w3.org/Graphics/SVG/1.1/DTD/svg11.dtd">
<!-- Generated by graphviz version 13.1.0 (20250701.0955)
 -->
<!-- Pages: 1 -->
<svg width="529pt" height="392pt"
 viewBox="0.00 0.00 529.00 392.00" xmlns="http://www.w3.org/2000/svg" xmlns:xlink="http://www.w3.org/1999/xlink">
<g id="graph0" class="graph" transform="scale(1 1) rotate(0) translate(4 388)">
<!-- root -->
<g id="node1" class="node">
<title>root</title>
<path fill="none" stroke="#486d8c" stroke-width="2" d="M42.6,-210C42.6,-210 12,-210 12,-210 6,-210 0,-204 0,-198 0,-198 0,-186 0,-186 0,-180 6,-174 12,-174 12,-174 42.6,-174 42.6,-174 48.6,-174 54.6,-180 54.6,-186 54.6,-186 54.6,-198 54.6,-198 54.6,-204 48.6,-210 42.6,-210"/>
<text xml:space="preserve" text-anchor="middle" x="27.3" y="-187.32" font-family="monospace" font-size="14.00" fill="#b9dbfa">root</text>
</g>
<!-- root_0 -->
<g id="node2" class="node">
<title>root_0</title>
<path fill="none" stroke="#486d8c" stroke-width="2" d="M107.6,-210C107.6,-210 95.6,-210 95.6,-210 89.6,-210 83.6,-204 83.6,-198 83.6,-198 83.6,-186 83.6,-186 83.6,-180 89.6,-174 95.6,-174 95.6,-174 107.6,-174 107.6,-174 113.6,-174 119.6,-180 119.6,-186 119.6,-186 119.6,-198 119.6,-198 119.6,-204 113.6,-210 107.6,-210"/>
<text xml:space="preserve" text-anchor="middle" x="101.6" y="-187.32" font-family="monospace" font-size="14.00" fill="#b9dbfa">r</text>
</g>
<!-- root&#45;&gt;root_0 -->
<g id="edge1" class="edge">
<title>root&#45;&gt;root_0</title>
<path fill="none" stroke="#b9dbfa" stroke-width="2" d="M55.22,-192C60.66,-192 66.39,-192 71.88,-192"/>
<polygon fill="#b9dbfa" stroke="#b9dbfa" stroke-width="2" points="71.63,-194.8 79.63,-192 71.63,-189.2 71.63,-194.8"/>
</g>
<!-- root_0_1 -->
<g id="node3" class="node">
<title>root_0_1</title>
<path fill="none" stroke="#486d8c" stroke-width="2" d="M172.6,-210C172.6,-210 160.6,-210 160.6,-210 154.6,-210 148.6,-204 148.6,-198 148.6,-198 148.6,-186 148.6,-186 148.6,-180 154.6,-174 160.6,-174 160.6,-174 172.6,-174 172.6,-174 178.6,-174 184.6,-180 184.6,-186 184.6,-186 184.6,-198 184.6,-198 184.6,-204 178.6,-210 172.6,-210"/>
<text xml:space="preserve" text-anchor="middle" x="166.6" y="-187.32" font-family="monospace" font-size="14.00" fill="#b9dbfa">u</text>
</g>
<!-- root_0&#45;&gt;root_0_1 -->
<g id="edge2" class="edge">
<title>root_0&#45;&gt;root_0_1</title>
<path fill="none" stroke="#b9dbfa" stroke-width="2" d="M120.48,-192C125.72,-192 131.57,-192 137.28,-192"/>
<polygon fill="#b9dbfa" stroke="#b9dbfa" stroke-width="2" points="136.86,-194.8 144.86,-192 136.86,-189.2 136.86,-194.8"/>
</g>
<!-- root_0_1_2 -->
<g id="node4" class="node">
<title>root_0_1_2</title>
<path fill="none" stroke="#486d8c" stroke-width="2" d="M237.6,-210C237.6,-210 225.6,-210 225.6,-210 219.6,-210 213.6,-204 213.6,-198 213.6,-198 213.6,-186 213.6,-186 213.6,-180 219.6,-174 225.6,-174 225.6,-174 237.6,-174 237.6,-174 243.6,-174 249.6,-180 249.6,-186 249.6,-186 249.6,-198 249.6,-198 249.6,-204 243.6,-210 237.6,-210"/>
<text xml:space="preserve" text-anchor="middle" x="231.6" y="-187.32" font-family="monospace" font-size="14.00" fill="#b9dbfa">f</text>
</g>
<!-- root_0_1&#45;&gt;root_0_1_2 -->
<g id="edge3" class="edge">
<title>root_0_1&#45;&gt;root_0_1_2</title>
<path fill="none" stroke="#b9dbfa" stroke-width="2" d="M185.48,-192C190.72,-192 196.57,-192 202.28,-192"/>
<polygon fill="#b9dbfa" stroke="#b9dbfa" stroke-width="2" points="201.86,-194.8 209.86,-192 201.86,-189.2 201.86,-194.8"/>
</g>
<!-- root_0_1_2_3 -->
<g id="node5" class="node">
<title>root_0_1_2_3</title>
<path fill="none" stroke="#486d8c" stroke-width="2" d="M302.6,-210C302.6,-210 290.6,-210 290.6,-210 284.6,-210 278.6,-204 278.6,-198 278.6,-198 278.6,-186 278.6,-186 278.6,-180 284.6,-174 290.6,-174 290.6,-174 302.6,-174 302.6,-174 308.6,-174 314.6,-180 314.6,-186 314.6,-186 314.6,-198 314.6,-198 314.6,-204 308.6,-210 302.6,-210"/>
<text xml:space="preserve" text-anchor="middle" x="296.6" y="-187.32" font-family="monospace" font-size="14.00" fill="#b9dbfa">l</text>
</g>
<!-- root_0_1_2&#45;&gt;root_0_1_2_3 -->
<g id="edge4" class="edge">
<title>root_0_1_2&#45;&gt;root_0_1_2_3</title>
<path fill="none" stroke="#b9dbfa" stroke-width="2" d="M250.48,-192C255.72,-192 261.57,-192 267.28,-192"/>
<polygon fill="#b9dbfa" stroke="#b9dbfa" stroke-width="2" points="266.86,-194.8 274.86,-192 266.86,-189.2 266.86,-194.8"/>
</g>
<!-- root_0_1_2_3_4 -->
<g id="node6" class="node">
<title>root_0_1_2_3_4</title>
<path fill="none" stroke="#486d8c" stroke-width="2" d="M367.6,-384C367.6,-384 355.6,-384 355.6,-384 349.6,-384 343.6,-378 343.6,-372 343.6,-372 343.6,-360 343.6,-360 343.6,-354 349.6,-348 355.6,-348 355.6,-348 367.6,-348 367.6,-348 373.6,-348 379.6,-354 379.6,-360 379.6,-360 379.6,-372 379.6,-372 379.6,-378 373.6,-384 367.6,-384"/>
<text xml:space="preserve" text-anchor="middle" x="361.6" y="-361.32" font-family="monospace" font-size="14.00" fill="#b9dbfa">ú</text>
</g>
<!-- root_0_1_2_3&#45;&gt;root_0_1_2_3_4 -->
<g id="edge5" class="edge">
<title>root_0_1_2_3&#45;&gt;root_0_1_2_3_4</title>
<path fill="none" stroke="#b9dbfa" stroke-width="2" d="M302.13,-210.8C309.22,-238.93 324.16,-293.33 343.6,-337 343.69,-337.21 343.79,-337.43 343.89,-337.64"/>
<polygon fill="#b9dbfa" stroke="#b9dbfa" stroke-width="2" points="341.31,-338.74 347.44,-344.59 346.29,-336.2 341.31,-338.74"/>
</g>
<!-- root_0_1_2_3_5 -->
<g id="node8" class="node">
<title>root_0_1_2_3_5</title>
<path fill="none" stroke="#486d8c" stroke-width="2" d="M367.6,-326C367.6,-326 355.6,-326 355.6,-326 349.6,-326 343.6,-320 343.6,-314 343.6,-314 343.6,-302 343.6,-302 343.6,-296 349.6,-290 355.6,-290 355.6,-290 367.6,-290 367.6,-290 373.6,-290 379.6,-296 379.6,-302 379.6,-302 379.6,-314 379.6,-314 379.6,-320 373.6,-326 367.6,-326"/>
<text xml:space="preserve" text-anchor="middle" x="361.6" y="-303.32" font-family="monospace" font-size="14.00" fill="#b9dbfa">ó</text>
</g>
<!-- root_0_1_2_3&#45;&gt;root_0_1_2_3_5 -->
<g id="edge7" class="edge">
<title>root_0_1_2_3&#45;&gt;root_0_1_2_3_5</title>
<path fill="none" stroke="#b9dbfa" stroke-width="2" d="M307.24,-210.8C316.38,-228.5 330.63,-255.72 343.6,-279 343.71,-279.2 343.83,-279.41 343.94,-279.61"/>
<polygon fill="#b9dbfa" stroke="#b9dbfa" stroke-width="2" points="341.42,-280.85 347.82,-286.41 346.29,-278.07 341.42,-280.85"/>
</g>
<!-- root_0_1_2_3_6 -->
<g id="node10" class="node">
<title>root_0_1_2_3_6</title>
<path fill="none" stroke="#486d8c" stroke-width="2" d="M367.6,-268C367.6,-268 355.6,-268 355.6,-268 349.6,-268 343.6,-262 343.6,-256 343.6,-256 343.6,-244 343.6,-244 343.6,-238 349.6,-232 355.6,-232 355.6,-232 367.6,-232 367.6,-232 373.6,-232 379.6,-238 379.6,-244 379.6,-244 379.6,-256 379.6,-256 379.6,-262 373.6,-268 367.6,-268"/>
<text xml:space="preserve" text-anchor="middle" x="361.6" y="-245.32" font-family="monospace" font-size="14.00" fill="#b9dbfa">Á</text>
</g>
<!-- root_0_1_2_3&#45;&gt;root_0_1_2_3_6 -->
<g id="edge9" class="edge">
<title>root_0_1_2_3&#45;&gt;root_0_1_2_3_6</title>
<path fill="none" stroke="#b9dbfa" stroke-width="2" d="M315.48,-208.47C321.52,-214.02 328.38,-220.34 334.9,-226.34"/>
<polygon fill="#b9dbfa" stroke="#b9dbfa" stroke-width="2" points="332.88,-228.29 340.66,-231.64 336.67,-224.17 332.88,-228.29"/>
</g>
<!-- root_0_1_2_3_7 -->
<g id="node12" class="node">
<title>root_0_1_2_3_7</title>
<path fill="none" stroke="#486d8c" stroke-width="2" d="M367.6,-210C367.6,-210 355.6,-210 355.6,-210 349.6,-210 343.6,-204 343.6,-198 343.6,-198 343.6,-186 343.6,-186 343.6,-180 349.6,-174 355.6,-174 355.6,-174 367.6,-174 367.6,-174 373.6,-174 379.6,-180 379.6,-186 379.6,-186 379.6,-198 379.6,-198 379.6,-204 373.6,-210 367.6,-210"/>
<text xml:space="preserve" text-anchor="middle" x="361.6" y="-187.32" font-family="monospace" font-size="14.00" fill="#b9dbfa">E</text>
</g>
<!-- root_0_1_2_3&#45;&gt;root_0_1_2_3_7 -->
<g id="edge11" class="edge">
<title>root_0_1_2_3&#45;&gt;root_0_1_2_3_7</title>
<path fill="none" stroke="#b9dbfa" stroke-width="2" d="M315.48,-192C320.72,-192 326.57,-192 332.28,-192"/>
<polygon fill="#b9dbfa" stroke="#b9dbfa" stroke-width="2" points="331.86,-194.8 339.86,-192 331.86,-189.2 331.86,-194.8"/>
</g>
<!-- root_0_1_2_3_8 -->
<g id="node14" class="node">
<title>root_0_1_2_3_8</title>
<path fill="none" stroke="#486d8c" stroke-width="2" d="M367.6,-152C367.6,-152 355.6,-152 355.6,-152 349.6,-152 343.6,-146 343.6,-140 343.6,-140 343.6,-128 343.6,-128 343.6,-122 349.6,-116 355.6,-116 355.6,-116 367.6,-116 367.6,-116 373.6,-116 379.6,-122 379.6,-128 379.6,-128 379.6,-140 379.6,-140 379.6,-146 373.6,-152 367.6,-152"/>
<text xml:space="preserve" text-anchor="middle" x="361.6" y="-129.32" font-family="monospace" font-size="14.00" fill="#b9dbfa">Ú</text>
</g>
<!-- root_0_1_2_3&#45;&gt;root_0_1_2_3_8 -->
<g id="edge13" class="edge">
<title>root_0_1_2_3&#45;&gt;root_0_1_2_3_8</title>
<path fill="none" stroke="#b9dbfa" stroke-width="2" d="M315.48,-175.53C321.52,-169.98 328.38,-163.66 334.9,-157.66"/>
<polygon fill="#b9dbfa" stroke="#b9dbfa" stroke-width="2" points="336.67,-159.83 340.66,-152.36 332.88,-155.71 336.67,-159.83"/>
</g>
<!-- root_0_1_2_3_9 -->
<g id="node16" class="node">
<title>root_0_1_2_3_9</title>
<path fill="none" stroke="#486d8c" stroke-width="2" d="M367.6,-94C367.6,-94 355.6,-94 355.6,-94 349.6,-94 343.6,-88 343.6,-82 343.6,-82 343.6,-70 343.6,-70 343.6,-64 349.6,-58 355.6,-58 355.6,-58 367.6,-58 367.6,-58 373.6,-58 379.6,-64 379.6,-70 379.6,-70 379.6,-82 379.6,-82 379.6,-88 373.6,-94 367.6,-94"/>
<text xml:space="preserve" text-anchor="middle" x="361.6" y="-71.33" font-family="monospace" font-size="14.00" fill="#b9dbfa">Y</text>
</g>
<!-- root_0_1_2_3&#45;&gt;root_0_1_2_3_9 -->
<g id="edge15" class="edge">
<title>root_0_1_2_3&#45;&gt;root_0_1_2_3_9</title>
<path fill="none" stroke="#b9dbfa" stroke-width="2" d="M307.24,-173.2C316.38,-155.5 330.63,-128.28 343.6,-105 343.71,-104.8 343.83,-104.59 343.94,-104.39"/>
<polygon fill="#b9dbfa" stroke="#b9dbfa" stroke-width="2" points="346.29,-105.93 347.82,-97.59 341.42,-103.15 346.29,-105.93"/>
</g>
<!-- root_0_1_2_3_10 -->
<g id="node18" class="node">
<title>root_0_1_2_3_10</title>
<path fill="none" stroke="#486d8c" stroke-width="2" d="M367.6,-36C367.6,-36 355.6,-36 355.6,-36 349.6,-36 343.6,-30 343.6,-24 343.6,-24 343.6,-12 343.6,-12 343.6,-6 349.6,0 355.6,0 355.6,0 367.6,0 367.6,0 373.6,0 379.6,-6 379.6,-12 379.6,-12 379.6,-24 379.6,-24 379.6,-30 373.6,-36 367.6,-36"/>
<text xml:space="preserve" text-anchor="middle" x="361.6" y="-13.32" font-family="monospace" font-size="14.00" fill="#b9dbfa">e</text>
</g>
<!-- root_0_1_2_3&#45;&gt;root_0_1_2_3_10 -->
<g id="edge17" class="edge">
<title>root_0_1_2_3&#45;&gt;root_0_1_2_3_10</title>
<path fill="none" stroke="#b9dbfa" stroke-width="2" d="M302.13,-173.2C309.22,-145.07 324.16,-90.67 343.6,-47 343.69,-46.79 343.79,-46.57 343.89,-46.36"/>
<polygon fill="#b9dbfa" stroke="#b9dbfa" stroke-width="2" points="346.29,-47.8 347.44,-39.41 341.31,-45.26 346.29,-47.8"/>
</g>
<!-- root_0_1_2_3_4_val -->
<g id="node7" class="node">
<title>root_0_1_2_3_4_val</title>
<polygon fill="none" stroke="#486d8c" stroke-width="2" points="512.7,-384 416.85,-384 416.85,-348 512.7,-348 512.7,-384"/>
<text xml:space="preserve" text-anchor="middle" x="464.78" y="-361.32" font-family="monospace" font-size="14.00" fill="#b9dbfa">2;ur,,i,s</text>
</g>
<!-- root_0_1_2_3_4&#45;&gt;root_0_1_2_3_4_val -->
<g id="edge6" class="edge">
<title>root_0_1_2_3_4&#45;&gt;root_0_1_2_3_4_val</title>
<path fill="none" stroke="#b9dbfa" stroke-width="2" d="M380.22,-366C387.39,-366 396.11,-366 405.18,-366"/>
<polygon fill="#b9dbfa" stroke="#b9dbfa" stroke-width="2" points="404.9,-368.8 412.9,-366 404.9,-363.2 404.9,-368.8"/>
</g>
<!-- root_0_1_2_3_5_val -->
<g id="node9" class="node">
<title>root_0_1_2_3_5_val</title>
<polygon fill="none" stroke="#486d8c" stroke-width="2" points="512.7,-326 416.85,-326 416.85,-290 512.7,-290 512.7,-326"/>
<text xml:space="preserve" text-anchor="middle" x="464.78" y="-303.32" font-family="monospace" font-size="14.00" fill="#b9dbfa">2;ur,,i,s</text>
</g>
<!-- root_0_1_2_3_5&#45;&gt;root_0_1_2_3_5_val -->
<g id="edge8" class="edge">
<title>root_0_1_2_3_5&#45;&gt;root_0_1_2_3_5_val</title>
<path fill="none" stroke="#b9dbfa" stroke-width="2" d="M380.22,-308C387.39,-308 396.11,-308 405.18,-308"/>
<polygon fill="#b9dbfa" stroke="#b9dbfa" stroke-width="2" points="404.9,-310.8 412.9,-308 404.9,-305.2 404.9,-310.8"/>
</g>
<!-- root_0_1_2_3_6_val -->
<g id="node11" class="node">
<title>root_0_1_2_3_6_val</title>
<polygon fill="none" stroke="#486d8c" stroke-width="2" points="512.7,-268 416.85,-268 416.85,-232 512.7,-232 512.7,-268"/>
<text xml:space="preserve" text-anchor="middle" x="464.78" y="-245.32" font-family="monospace" font-size="14.00" fill="#b9dbfa">2;ur,,i,s</text>
</g>
<!-- root_0_1_2_3_6&#45;&gt;root_0_1_2_3_6_val -->
<g id="edge10" class="edge">
<title>root_0_1_2_3_6&#45;&gt;root_0_1_2_3_6_val</title>
<path fill="none" stroke="#b9dbfa" stroke-width="2" d="M380.22,-250C387.39,-250 396.11,-250 405.18,-250"/>
<polygon fill="#b9dbfa" stroke="#b9dbfa" stroke-width="2" points="404.9,-252.8 412.9,-250 404.9,-247.2 404.9,-252.8"/>
</g>
<!-- root_0_1_2_3_7_val -->
<g id="node13" class="node">
<title>root_0_1_2_3_7_val</title>
<polygon fill="none" stroke="#486d8c" stroke-width="2" points="520.95,-210 408.6,-210 408.6,-174 520.95,-174 520.95,-210"/>
<text xml:space="preserve" text-anchor="middle" x="464.78" y="-187.32" font-family="monospace" font-size="14.00" fill="#b9dbfa">2;ur,i,i,ar</text>
</g>
<!-- root_0_1_2_3_7&#45;&gt;root_0_1_2_3_7_val -->
<g id="edge12" class="edge">
<title>root_0_1_2_3_7&#45;&gt;root_0_1_2_3_7_val</title>
<path fill="none" stroke="#b9dbfa" stroke-width="2" d="M380.22,-192C385.11,-192 390.72,-192 396.67,-192"/>
<polygon fill="#b9dbfa" stroke="#b9dbfa" stroke-width="2" points="396.64,-194.8 404.64,-192 396.64,-189.2 396.64,-194.8"/>
</g>
<!-- root_0_1_2_3_8_val -->
<g id="node15" class="node">
<title>root_0_1_2_3_8_val</title>
<polygon fill="none" stroke="#486d8c" stroke-width="2" points="512.7,-152 416.85,-152 416.85,-116 512.7,-116 512.7,-152"/>
<text xml:space="preserve" text-anchor="middle" x="464.78" y="-129.32" font-family="monospace" font-size="14.00" fill="#b9dbfa">2;ur,,i,s</text>
</g>
<!-- root_0_1_2_3_8&#45;&gt;root_0_1_2_3_8_val -->
<g id="edge14" class="edge">
<title>root_0_1_2_3_8&#45;&gt;root_0_1_2_3_8_val</title>
<path fill="none" stroke="#b9dbfa" stroke-width="2" d="M380.22,-134C387.39,-134 396.11,-134 405.18,-134"/>
<polygon fill="#b9dbfa" stroke="#b9dbfa" stroke-width="2" points="404.9,-136.8 412.9,-134 404.9,-131.2 404.9,-136.8"/>
</g>
<!-- root_0_1_2_3_9_val -->
<g id="node17" class="node">
<title>root_0_1_2_3_9_val</title>
<polygon fill="none" stroke="#486d8c" stroke-width="2" points="520.95,-94 408.6,-94 408.6,-58 520.95,-58 520.95,-94"/>
<text xml:space="preserve" text-anchor="middle" x="464.78" y="-71.33" font-family="monospace" font-size="14.00" fill="#b9dbfa">2;ur,i,i,ar</text>
</g>
<!-- root_0_1_2_3_9&#45;&gt;root_0_1_2_3_9_val -->
<g id="edge16" class="edge">
<title>root_0_1_2_3_9&#45;&gt;root_0_1_2_3_9_val</title>
<path fill="none" stroke="#b9dbfa" stroke-width="2" d="M380.22,-76C385.11,-76 390.72,-76 396.67,-76"/>
<polygon fill="#b9dbfa" stroke="#b9dbfa" stroke-width="2" points="396.64,-78.8 404.64,-76 396.64,-73.2 396.64,-78.8"/>
</g>
<!-- root_0_1_2_3_10_val -->
<g id="node19" class="node">
<title>root_0_1_2_3_10_val</title>
<polygon fill="none" stroke="#486d8c" stroke-width="2" points="520.95,-36 408.6,-36 408.6,0 520.95,0 520.95,-36"/>
<text xml:space="preserve" text-anchor="middle" x="464.78" y="-13.32" font-family="monospace" font-size="14.00" fill="#b9dbfa">2;ur,i,i,ar</text>
</g>
<!-- root_0_1_2_3_10&#45;&gt;root_0_1_2_3_10_val -->
<g id="edge18" class="edge">
<title>root_0_1_2_3_10&#45;&gt;root_0_1_2_3_10_val</title>
<path fill="none" stroke="#b9dbfa" stroke-width="2" d="M380.22,-18C385.11,-18 390.72,-18 396.67,-18"/>
<polygon fill="#b9dbfa" stroke="#b9dbfa" stroke-width="2" points="396.64,-20.8 404.64,-18 396.64,-15.2 396.64,-20.8"/>
</g>
</g>
</svg>
