<?xml version="1.0" encoding="UTF-8" standalone="no"?>
<!DOCTYPE svg PUBLIC "-//W3C//DTD SVG 1.1//EN"
 "http://www.w3.org/Graphics/SVG/1.1/DTD/svg11.dtd">
<!-- Generated by graphviz version 13.1.0 (20250701.0955)
 -->
<!-- Pages: 1 -->
<svg width="311pt" height="44pt"
 viewBox="0.00 0.00 311.00 44.00" xmlns="http://www.w3.org/2000/svg" xmlns:xlink="http://www.w3.org/1999/xlink">
<g id="graph0" class="graph" transform="scale(1 1) rotate(0) translate(4 40)">
<!-- root -->
<g id="node1" class="node">
<title>root</title>
<path fill="none" stroke="#486d8c" stroke-width="2" d="M42.6,-36C42.6,-36 12,-36 12,-36 6,-36 0,-30 0,-24 0,-24 0,-12 0,-12 0,-6 6,0 12,0 12,0 42.6,0 42.6,0 48.6,0 54.6,-6 54.6,-12 54.6,-12 54.6,-24 54.6,-24 54.6,-30 48.6,-36 42.6,-36"/>
<text xml:space="preserve" text-anchor="middle" x="27.3" y="-13.32" font-family="monospace" font-size="14.00" fill="#b9dbfa">root</text>
</g>
<!-- root_val -->
<g id="node2" class="node">
<title>root_val</title>
<polygon fill="none" stroke="#486d8c" stroke-width="2" points="303.2,-36 83.6,-36 83.6,0 303.2,0 303.2,-36"/>
<text xml:space="preserve" text-anchor="middle" x="193.4" y="-13.32" font-family="monospace" font-size="14.00" fill="#b9dbfa">&quot;{&#39;value&#39;: &#39;2;ur,,i,s&#39;}&quot;</text>
</g>
<!-- root&#45;&gt;root_val -->
<g id="edge1" class="edge">
<title>root&#45;&gt;root_val</title>
<path fill="none" stroke="#b9dbfa" stroke-width="2" d="M55.4,-18C60.4,-18 65.92,-18 71.77,-18"/>
<polygon fill="#b9dbfa" stroke="#b9dbfa" stroke-width="2" points="71.6,-20.8 79.6,-18 71.6,-15.2 71.6,-20.8"/>
</g>
</g>
</svg>
