<?xml version="1.0" encoding="UTF-8" standalone="no"?>
<!DOCTYPE svg PUBLIC "-//W3C//DTD SVG 1.1//EN"
 "http://www.w3.org/Graphics/SVG/1.1/DTD/svg11.dtd">
<!-- Generated by graphviz version 13.1.0 (20250701.0955)
 -->
<!-- Pages: 1 -->
<svg width="619pt" height="218pt"
 viewBox="0.00 0.00 619.00 218.00" xmlns="http://www.w3.org/2000/svg" xmlns:xlink="http://www.w3.org/1999/xlink">
<g id="graph0" class="graph" transform="scale(1 1) rotate(0) translate(4 214)">
<!-- root -->
<g id="node1" class="node">
<title>root</title>
<ellipse fill="none" stroke="#b9dbfa" stroke-width="2" cx="34.37" cy="-105" rx="34.37" ry="34.37"/>
<text xml:space="preserve" text-anchor="middle" x="34.37" y="-100.33" font-family="monospace" font-size="14.00" fill="#b9dbfa">root</text>
</g>
<!-- root_0 -->
<g id="node2" class="node">
<title>root_0</title>
<ellipse fill="none" stroke="#b9dbfa" stroke-width="2" cx="115.75" cy="-105" rx="18" ry="18"/>
<text xml:space="preserve" text-anchor="middle" x="115.75" y="-100.33" font-family="monospace" font-size="14.00" fill="#b9dbfa">r</text>
</g>
<!-- root&#45;&gt;root_0 -->
<g id="edge1" class="edge">
<title>root&#45;&gt;root_0</title>
<path fill="none" stroke="#b9dbfa" stroke-width="2" d="M69.49,-105C74.94,-105 80.52,-105 85.82,-105"/>
<polygon fill="#b9dbfa" stroke="#b9dbfa" stroke-width="2" points="85.81,-107.8 93.81,-105 85.81,-102.2 85.81,-107.8"/>
</g>
<!-- root_0_1 -->
<g id="node3" class="node">
<title>root_0_1</title>
<ellipse fill="none" stroke="#b9dbfa" stroke-width="2" cx="180.75" cy="-105" rx="18" ry="18"/>
<text xml:space="preserve" text-anchor="middle" x="180.75" y="-100.33" font-family="monospace" font-size="14.00" fill="#b9dbfa">u</text>
</g>
<!-- root_0&#45;&gt;root_0_1 -->
<g id="edge2" class="edge">
<title>root_0&#45;&gt;root_0_1</title>
<path fill="none" stroke="#b9dbfa" stroke-width="2" d="M134.63,-105C139.86,-105 145.71,-105 151.42,-105"/>
<polygon fill="#b9dbfa" stroke="#b9dbfa" stroke-width="2" points="151.01,-107.8 159.01,-105 151.01,-102.2 151.01,-107.8"/>
</g>
<!-- root_0_1_2 -->
<g id="node4" class="node">
<title>root_0_1_2</title>
<ellipse fill="none" stroke="#b9dbfa" stroke-width="2" cx="245.75" cy="-192" rx="18" ry="18"/>
<text xml:space="preserve" text-anchor="middle" x="245.75" y="-187.32" font-family="monospace" font-size="14.00" fill="#b9dbfa">f</text>
</g>
<!-- root_0_1&#45;&gt;root_0_1_2 -->
<g id="edge3" class="edge">
<title>root_0_1&#45;&gt;root_0_1_2</title>
<path fill="none" stroke="#b9dbfa" stroke-width="2" d="M192.43,-119.76C202.12,-133.13 216.55,-153.07 227.81,-168.61"/>
<polygon fill="#b9dbfa" stroke="#b9dbfa" stroke-width="2" points="225.27,-169.88 232.23,-174.72 229.81,-166.6 225.27,-169.88"/>
</g>
<!-- root_0_1_5 -->
<g id="node8" class="node">
<title>root_0_1_5</title>
<ellipse fill="none" stroke="#b9dbfa" stroke-width="2" cx="245.75" cy="-134" rx="18" ry="18"/>
<text xml:space="preserve" text-anchor="middle" x="245.75" y="-129.32" font-family="monospace" font-size="14.00" fill="#b9dbfa">t</text>
</g>
<!-- root_0_1&#45;&gt;root_0_1_5 -->
<g id="edge7" class="edge">
<title>root_0_1&#45;&gt;root_0_1_5</title>
<path fill="none" stroke="#b9dbfa" stroke-width="2" d="M197.97,-112.47C204.24,-115.35 211.58,-118.73 218.55,-121.94"/>
<polygon fill="#b9dbfa" stroke="#b9dbfa" stroke-width="2" points="217.17,-124.39 225.61,-125.19 219.51,-119.3 217.17,-124.39"/>
</g>
<!-- root_0_1_9 -->
<g id="node13" class="node">
<title>root_0_1_9</title>
<ellipse fill="none" stroke="#b9dbfa" stroke-width="2" cx="245.75" cy="-76" rx="18" ry="18"/>
<text xml:space="preserve" text-anchor="middle" x="245.75" y="-71.33" font-family="monospace" font-size="14.00" fill="#b9dbfa">g</text>
</g>
<!-- root_0_1&#45;&gt;root_0_1_9 -->
<g id="edge12" class="edge">
<title>root_0_1&#45;&gt;root_0_1_9</title>
<path fill="none" stroke="#b9dbfa" stroke-width="2" d="M197.97,-97.53C204.24,-94.65 211.58,-91.27 218.55,-88.06"/>
<polygon fill="#b9dbfa" stroke="#b9dbfa" stroke-width="2" points="219.51,-90.7 225.61,-84.81 217.17,-85.61 219.51,-90.7"/>
</g>
<!-- root_0_1_13 -->
<g id="node18" class="node">
<title>root_0_1_13</title>
<ellipse fill="none" stroke="#b9dbfa" stroke-width="2" cx="245.75" cy="-18" rx="18" ry="18"/>
<text xml:space="preserve" text-anchor="middle" x="245.75" y="-13.32" font-family="monospace" font-size="14.00" fill="#b9dbfa">m</text>
</g>
<!-- root_0_1&#45;&gt;root_0_1_13 -->
<g id="edge17" class="edge">
<title>root_0_1&#45;&gt;root_0_1_13</title>
<path fill="none" stroke="#b9dbfa" stroke-width="2" d="M192.43,-90.24C202.12,-76.87 216.55,-56.93 227.81,-41.39"/>
<polygon fill="#b9dbfa" stroke="#b9dbfa" stroke-width="2" points="229.81,-43.4 232.23,-35.28 225.27,-40.12 229.81,-43.4"/>
</g>
<!-- root_0_1_2_3 -->
<g id="node5" class="node">
<title>root_0_1_2_3</title>
<ellipse fill="none" stroke="#b9dbfa" stroke-width="2" cx="310.75" cy="-192" rx="18" ry="18"/>
<text xml:space="preserve" text-anchor="middle" x="310.75" y="-187.32" font-family="monospace" font-size="14.00" fill="#b9dbfa">l</text>
</g>
<!-- root_0_1_2&#45;&gt;root_0_1_2_3 -->
<g id="edge4" class="edge">
<title>root_0_1_2&#45;&gt;root_0_1_2_3</title>
<path fill="none" stroke="#b9dbfa" stroke-width="2" d="M264.63,-192C269.86,-192 275.71,-192 281.42,-192"/>
<polygon fill="#b9dbfa" stroke="#b9dbfa" stroke-width="2" points="281.01,-194.8 289.01,-192 281.01,-189.2 281.01,-194.8"/>
</g>
<!-- root_0_1_2_3_4 -->
<g id="node6" class="node">
<title>root_0_1_2_3_4</title>
<ellipse fill="none" stroke="#b9dbfa" stroke-width="2" cx="375.75" cy="-192" rx="18" ry="18"/>
<text xml:space="preserve" text-anchor="middle" x="375.75" y="-187.32" font-family="monospace" font-size="14.00" fill="#b9dbfa">Y</text>
</g>
<!-- root_0_1_2_3&#45;&gt;root_0_1_2_3_4 -->
<g id="edge5" class="edge">
<title>root_0_1_2_3&#45;&gt;root_0_1_2_3_4</title>
<path fill="none" stroke="#b9dbfa" stroke-width="2" d="M329.63,-192C334.86,-192 340.71,-192 346.42,-192"/>
<polygon fill="#b9dbfa" stroke="#b9dbfa" stroke-width="2" points="346.01,-194.8 354.01,-192 346.01,-189.2 346.01,-194.8"/>
</g>
<!-- root_0_1_2_3_4_val -->
<g id="node7" class="node">
<title>root_0_1_2_3_4_val</title>
<polygon fill="none" stroke="#b9dbfa" stroke-width="2" points="611,-210 487.75,-210 487.75,-174 611,-174 611,-210"/>
<text xml:space="preserve" text-anchor="middle" x="549.37" y="-187.32" font-family="monospace" font-size="14.00" fill="#b9dbfa">&quot;2;ur,i,i,ar&quot;</text>
</g>
<!-- root_0_1_2_3_4&#45;&gt;root_0_1_2_3_4_val -->
<g id="edge6" class="edge">
<title>root_0_1_2_3_4&#45;&gt;root_0_1_2_3_4_val</title>
<path fill="none" stroke="#b9dbfa" stroke-width="2" d="M394.47,-192C413.84,-192 446.14,-192 476.16,-192"/>
<polygon fill="#b9dbfa" stroke="#b9dbfa" stroke-width="2" points="476.06,-194.8 484.06,-192 476.06,-189.2 476.06,-194.8"/>
</g>
<!-- root_0_1_5_6 -->
<g id="node9" class="node">
<title>root_0_1_5_6</title>
<ellipse fill="none" stroke="#b9dbfa" stroke-width="2" cx="310.75" cy="-134" rx="18" ry="18"/>
<text xml:space="preserve" text-anchor="middle" x="310.75" y="-129.32" font-family="monospace" font-size="14.00" fill="#b9dbfa">ú</text>
</g>
<!-- root_0_1_5&#45;&gt;root_0_1_5_6 -->
<g id="edge8" class="edge">
<title>root_0_1_5&#45;&gt;root_0_1_5_6</title>
<path fill="none" stroke="#b9dbfa" stroke-width="2" d="M264.63,-134C269.86,-134 275.71,-134 281.42,-134"/>
<polygon fill="#b9dbfa" stroke="#b9dbfa" stroke-width="2" points="281.01,-136.8 289.01,-134 281.01,-131.2 281.01,-136.8"/>
</g>
<!-- root_0_1_5_6_7 -->
<g id="node10" class="node">
<title>root_0_1_5_6_7</title>
<ellipse fill="none" stroke="#b9dbfa" stroke-width="2" cx="375.75" cy="-134" rx="18" ry="18"/>
<text xml:space="preserve" text-anchor="middle" x="375.75" y="-129.32" font-family="monospace" font-size="14.00" fill="#b9dbfa">n</text>
</g>
<!-- root_0_1_5_6&#45;&gt;root_0_1_5_6_7 -->
<g id="edge9" class="edge">
<title>root_0_1_5_6&#45;&gt;root_0_1_5_6_7</title>
<path fill="none" stroke="#b9dbfa" stroke-width="2" d="M329.63,-134C334.86,-134 340.71,-134 346.42,-134"/>
<polygon fill="#b9dbfa" stroke="#b9dbfa" stroke-width="2" points="346.01,-136.8 354.01,-134 346.01,-131.2 346.01,-136.8"/>
</g>
<!-- root_0_1_5_6_7_8 -->
<g id="node11" class="node">
<title>root_0_1_5_6_7_8</title>
<ellipse fill="none" stroke="#b9dbfa" stroke-width="2" cx="440.75" cy="-134" rx="18" ry="18"/>
<text xml:space="preserve" text-anchor="middle" x="440.75" y="-129.32" font-family="monospace" font-size="14.00" fill="#b9dbfa">K</text>
</g>
<!-- root_0_1_5_6_7&#45;&gt;root_0_1_5_6_7_8 -->
<g id="edge10" class="edge">
<title>root_0_1_5_6_7&#45;&gt;root_0_1_5_6_7_8</title>
<path fill="none" stroke="#b9dbfa" stroke-width="2" d="M394.63,-134C399.86,-134 405.71,-134 411.42,-134"/>
<polygon fill="#b9dbfa" stroke="#b9dbfa" stroke-width="2" points="411.01,-136.8 419.01,-134 411.01,-131.2 411.01,-136.8"/>
</g>
<!-- root_0_1_5_6_7_8_val -->
<g id="node12" class="node">
<title>root_0_1_5_6_7_8_val</title>
<polygon fill="none" stroke="#b9dbfa" stroke-width="2" points="602.75,-152 496,-152 496,-116 602.75,-116 602.75,-152"/>
<text xml:space="preserve" text-anchor="middle" x="549.37" y="-129.32" font-family="monospace" font-size="14.00" fill="#b9dbfa">&quot;2;ur,,i,s&quot;</text>
</g>
<!-- root_0_1_5_6_7_8&#45;&gt;root_0_1_5_6_7_8_val -->
<g id="edge11" class="edge">
<title>root_0_1_5_6_7_8&#45;&gt;root_0_1_5_6_7_8_val</title>
<path fill="none" stroke="#b9dbfa" stroke-width="2" d="M459.35,-134C466.49,-134 475.22,-134 484.38,-134"/>
<polygon fill="#b9dbfa" stroke="#b9dbfa" stroke-width="2" points="484.25,-136.8 492.25,-134 484.25,-131.2 484.25,-136.8"/>
</g>
<!-- root_0_1_9_10 -->
<g id="node14" class="node">
<title>root_0_1_9_10</title>
<ellipse fill="none" stroke="#b9dbfa" stroke-width="2" cx="310.75" cy="-76" rx="18" ry="18"/>
<text xml:space="preserve" text-anchor="middle" x="310.75" y="-71.33" font-family="monospace" font-size="14.00" fill="#b9dbfa">u</text>
</g>
<!-- root_0_1_9&#45;&gt;root_0_1_9_10 -->
<g id="edge13" class="edge">
<title>root_0_1_9&#45;&gt;root_0_1_9_10</title>
<path fill="none" stroke="#b9dbfa" stroke-width="2" d="M264.63,-76C269.86,-76 275.71,-76 281.42,-76"/>
<polygon fill="#b9dbfa" stroke="#b9dbfa" stroke-width="2" points="281.01,-78.8 289.01,-76 281.01,-73.2 281.01,-78.8"/>
</g>
<!-- root_0_1_9_10_11 -->
<g id="node15" class="node">
<title>root_0_1_9_10_11</title>
<ellipse fill="none" stroke="#b9dbfa" stroke-width="2" cx="375.75" cy="-76" rx="18" ry="18"/>
<text xml:space="preserve" text-anchor="middle" x="375.75" y="-71.33" font-family="monospace" font-size="14.00" fill="#b9dbfa">a</text>
</g>
<!-- root_0_1_9_10&#45;&gt;root_0_1_9_10_11 -->
<g id="edge14" class="edge">
<title>root_0_1_9_10&#45;&gt;root_0_1_9_10_11</title>
<path fill="none" stroke="#b9dbfa" stroke-width="2" d="M329.63,-76C334.86,-76 340.71,-76 346.42,-76"/>
<polygon fill="#b9dbfa" stroke="#b9dbfa" stroke-width="2" points="346.01,-78.8 354.01,-76 346.01,-73.2 346.01,-78.8"/>
</g>
<!-- root_0_1_9_10_11_12 -->
<g id="node16" class="node">
<title>root_0_1_9_10_11_12</title>
<ellipse fill="none" stroke="#b9dbfa" stroke-width="2" cx="440.75" cy="-76" rx="18" ry="18"/>
<text xml:space="preserve" text-anchor="middle" x="440.75" y="-71.33" font-family="monospace" font-size="14.00" fill="#b9dbfa">B</text>
</g>
<!-- root_0_1_9_10_11&#45;&gt;root_0_1_9_10_11_12 -->
<g id="edge15" class="edge">
<title>root_0_1_9_10_11&#45;&gt;root_0_1_9_10_11_12</title>
<path fill="none" stroke="#b9dbfa" stroke-width="2" d="M394.63,-76C399.86,-76 405.71,-76 411.42,-76"/>
<polygon fill="#b9dbfa" stroke="#b9dbfa" stroke-width="2" points="411.01,-78.8 419.01,-76 411.01,-73.2 411.01,-78.8"/>
</g>
<!-- root_0_1_9_10_11_12_val -->
<g id="node17" class="node">
<title>root_0_1_9_10_11_12_val</title>
<polygon fill="none" stroke="#b9dbfa" stroke-width="2" points="602.75,-94 496,-94 496,-58 602.75,-58 602.75,-94"/>
<text xml:space="preserve" text-anchor="middle" x="549.37" y="-71.33" font-family="monospace" font-size="14.00" fill="#b9dbfa">&quot;2;ur,,i,s&quot;</text>
</g>
<!-- root_0_1_9_10_11_12&#45;&gt;root_0_1_9_10_11_12_val -->
<g id="edge16" class="edge">
<title>root_0_1_9_10_11_12&#45;&gt;root_0_1_9_10_11_12_val</title>
<path fill="none" stroke="#b9dbfa" stroke-width="2" d="M459.35,-76C466.49,-76 475.22,-76 484.38,-76"/>
<polygon fill="#b9dbfa" stroke="#b9dbfa" stroke-width="2" points="484.25,-78.8 492.25,-76 484.25,-73.2 484.25,-78.8"/>
</g>
<!-- root_0_1_13_14 -->
<g id="node19" class="node">
<title>root_0_1_13_14</title>
<ellipse fill="none" stroke="#b9dbfa" stroke-width="2" cx="310.75" cy="-18" rx="18" ry="18"/>
<text xml:space="preserve" text-anchor="middle" x="310.75" y="-13.32" font-family="monospace" font-size="14.00" fill="#b9dbfa">í</text>
</g>
<!-- root_0_1_13&#45;&gt;root_0_1_13_14 -->
<g id="edge18" class="edge">
<title>root_0_1_13&#45;&gt;root_0_1_13_14</title>
<path fill="none" stroke="#b9dbfa" stroke-width="2" d="M264.63,-18C269.86,-18 275.71,-18 281.42,-18"/>
<polygon fill="#b9dbfa" stroke="#b9dbfa" stroke-width="2" points="281.01,-20.8 289.01,-18 281.01,-15.2 281.01,-20.8"/>
</g>
<!-- root_0_1_13_14_15 -->
<g id="node20" class="node">
<title>root_0_1_13_14_15</title>
<ellipse fill="none" stroke="#b9dbfa" stroke-width="2" cx="375.75" cy="-18" rx="18" ry="18"/>
<text xml:space="preserve" text-anchor="middle" x="375.75" y="-13.32" font-family="monospace" font-size="14.00" fill="#b9dbfa">r</text>
</g>
<!-- root_0_1_13_14&#45;&gt;root_0_1_13_14_15 -->
<g id="edge19" class="edge">
<title>root_0_1_13_14&#45;&gt;root_0_1_13_14_15</title>
<path fill="none" stroke="#b9dbfa" stroke-width="2" d="M329.63,-18C334.86,-18 340.71,-18 346.42,-18"/>
<polygon fill="#b9dbfa" stroke="#b9dbfa" stroke-width="2" points="346.01,-20.8 354.01,-18 346.01,-15.2 346.01,-20.8"/>
</g>
<!-- root_0_1_13_14_15_16 -->
<g id="node21" class="node">
<title>root_0_1_13_14_15_16</title>
<ellipse fill="none" stroke="#b9dbfa" stroke-width="2" cx="440.75" cy="-18" rx="18" ry="18"/>
<text xml:space="preserve" text-anchor="middle" x="440.75" y="-13.32" font-family="monospace" font-size="14.00" fill="#b9dbfa">G</text>
</g>
<!-- root_0_1_13_14_15&#45;&gt;root_0_1_13_14_15_16 -->
<g id="edge20" class="edge">
<title>root_0_1_13_14_15&#45;&gt;root_0_1_13_14_15_16</title>
<path fill="none" stroke="#b9dbfa" stroke-width="2" d="M394.63,-18C399.86,-18 405.71,-18 411.42,-18"/>
<polygon fill="#b9dbfa" stroke="#b9dbfa" stroke-width="2" points="411.01,-20.8 419.01,-18 411.01,-15.2 411.01,-20.8"/>
</g>
<!-- root_0_1_13_14_15_16_val -->
<g id="node22" class="node">
<title>root_0_1_13_14_15_16_val</title>
<polygon fill="none" stroke="#b9dbfa" stroke-width="2" points="602.75,-36 496,-36 496,0 602.75,0 602.75,-36"/>
<text xml:space="preserve" text-anchor="middle" x="549.37" y="-13.32" font-family="monospace" font-size="14.00" fill="#b9dbfa">&quot;2;ur,,i,s&quot;</text>
</g>
<!-- root_0_1_13_14_15_16&#45;&gt;root_0_1_13_14_15_16_val -->
<g id="edge21" class="edge">
<title>root_0_1_13_14_15_16&#45;&gt;root_0_1_13_14_15_16_val</title>
<path fill="none" stroke="#b9dbfa" stroke-width="2" d="M459.35,-18C466.49,-18 475.22,-18 484.38,-18"/>
<polygon fill="#b9dbfa" stroke="#b9dbfa" stroke-width="2" points="484.25,-20.8 492.25,-18 484.25,-15.2 484.25,-20.8"/>
</g>
</g>
</svg>
