<?xml version="1.0" encoding="UTF-8" standalone="no"?>
<!DOCTYPE svg PUBLIC "-//W3C//DTD SVG 1.1//EN"
 "http://www.w3.org/Graphics/SVG/1.1/DTD/svg11.dtd">
<!-- Generated by graphviz version 13.1.0 (20250701.0955)
 -->
<!-- Pages: 1 -->
<svg width="610pt" height="218pt"
 viewBox="0.00 0.00 610.00 218.00" xmlns="http://www.w3.org/2000/svg" xmlns:xlink="http://www.w3.org/1999/xlink">
<g id="graph0" class="graph" transform="scale(1 1) rotate(0) translate(4 214)">
<!-- root -->
<g id="node1" class="node">
<title>root</title>
<path fill="none" stroke="#486d8c" stroke-width="2" d="M42.6,-123C42.6,-123 12,-123 12,-123 6,-123 0,-117 0,-111 0,-111 0,-99 0,-99 0,-93 6,-87 12,-87 12,-87 42.6,-87 42.6,-87 48.6,-87 54.6,-93 54.6,-99 54.6,-99 54.6,-111 54.6,-111 54.6,-117 48.6,-123 42.6,-123"/>
<text xml:space="preserve" text-anchor="middle" x="27.3" y="-100.33" font-family="monospace" font-size="14.00" fill="#b9dbfa">root</text>
</g>
<!-- root_0 -->
<g id="node2" class="node">
<title>root_0</title>
<path fill="none" stroke="#486d8c" stroke-width="2" d="M107.6,-123C107.6,-123 95.6,-123 95.6,-123 89.6,-123 83.6,-117 83.6,-111 83.6,-111 83.6,-99 83.6,-99 83.6,-93 89.6,-87 95.6,-87 95.6,-87 107.6,-87 107.6,-87 113.6,-87 119.6,-93 119.6,-99 119.6,-99 119.6,-111 119.6,-111 119.6,-117 113.6,-123 107.6,-123"/>
<text xml:space="preserve" text-anchor="middle" x="101.6" y="-100.33" font-family="monospace" font-size="14.00" fill="#b9dbfa">r</text>
</g>
<!-- root&#45;&gt;root_0 -->
<g id="edge1" class="edge">
<title>root&#45;&gt;root_0</title>
<path fill="none" stroke="#b9dbfa" stroke-width="2" d="M55.22,-105C60.66,-105 66.39,-105 71.88,-105"/>
<polygon fill="#b9dbfa" stroke="#b9dbfa" stroke-width="2" points="71.63,-107.8 79.63,-105 71.63,-102.2 71.63,-107.8"/>
</g>
<!-- root_0_1 -->
<g id="node3" class="node">
<title>root_0_1</title>
<path fill="none" stroke="#486d8c" stroke-width="2" d="M172.6,-123C172.6,-123 160.6,-123 160.6,-123 154.6,-123 148.6,-117 148.6,-111 148.6,-111 148.6,-99 148.6,-99 148.6,-93 154.6,-87 160.6,-87 160.6,-87 172.6,-87 172.6,-87 178.6,-87 184.6,-93 184.6,-99 184.6,-99 184.6,-111 184.6,-111 184.6,-117 178.6,-123 172.6,-123"/>
<text xml:space="preserve" text-anchor="middle" x="166.6" y="-100.33" font-family="monospace" font-size="14.00" fill="#b9dbfa">u</text>
</g>
<!-- root_0&#45;&gt;root_0_1 -->
<g id="edge2" class="edge">
<title>root_0&#45;&gt;root_0_1</title>
<path fill="none" stroke="#b9dbfa" stroke-width="2" d="M120.48,-105C125.72,-105 131.57,-105 137.28,-105"/>
<polygon fill="#b9dbfa" stroke="#b9dbfa" stroke-width="2" points="136.86,-107.8 144.86,-105 136.86,-102.2 136.86,-107.8"/>
</g>
<!-- root_0_1_2 -->
<g id="node4" class="node">
<title>root_0_1_2</title>
<path fill="none" stroke="#486d8c" stroke-width="2" d="M237.6,-210C237.6,-210 225.6,-210 225.6,-210 219.6,-210 213.6,-204 213.6,-198 213.6,-198 213.6,-186 213.6,-186 213.6,-180 219.6,-174 225.6,-174 225.6,-174 237.6,-174 237.6,-174 243.6,-174 249.6,-180 249.6,-186 249.6,-186 249.6,-198 249.6,-198 249.6,-204 243.6,-210 237.6,-210"/>
<text xml:space="preserve" text-anchor="middle" x="231.6" y="-187.32" font-family="monospace" font-size="14.00" fill="#b9dbfa">f</text>
</g>
<!-- root_0_1&#45;&gt;root_0_1_2 -->
<g id="edge3" class="edge">
<title>root_0_1&#45;&gt;root_0_1_2</title>
<path fill="none" stroke="#b9dbfa" stroke-width="2" d="M181.27,-123.88C189.86,-135.73 201.08,-151.23 210.65,-164.45"/>
<polygon fill="#b9dbfa" stroke="#b9dbfa" stroke-width="2" points="208.22,-165.87 215.18,-170.71 212.76,-162.59 208.22,-165.87"/>
</g>
<!-- root_0_1_5 -->
<g id="node8" class="node">
<title>root_0_1_5</title>
<path fill="none" stroke="#486d8c" stroke-width="2" d="M237.6,-152C237.6,-152 225.6,-152 225.6,-152 219.6,-152 213.6,-146 213.6,-140 213.6,-140 213.6,-128 213.6,-128 213.6,-122 219.6,-116 225.6,-116 225.6,-116 237.6,-116 237.6,-116 243.6,-116 249.6,-122 249.6,-128 249.6,-128 249.6,-140 249.6,-140 249.6,-146 243.6,-152 237.6,-152"/>
<text xml:space="preserve" text-anchor="middle" x="231.6" y="-129.32" font-family="monospace" font-size="14.00" fill="#b9dbfa">t</text>
</g>
<!-- root_0_1&#45;&gt;root_0_1_5 -->
<g id="edge7" class="edge">
<title>root_0_1&#45;&gt;root_0_1_5</title>
<path fill="none" stroke="#b9dbfa" stroke-width="2" d="M185.48,-113.23C190.98,-115.76 197.17,-118.61 203.16,-121.37"/>
<polygon fill="#b9dbfa" stroke="#b9dbfa" stroke-width="2" points="201.7,-123.78 210.14,-124.58 204.04,-118.69 201.7,-123.78"/>
</g>
<!-- root_0_1_9 -->
<g id="node13" class="node">
<title>root_0_1_9</title>
<path fill="none" stroke="#486d8c" stroke-width="2" d="M237.6,-94C237.6,-94 225.6,-94 225.6,-94 219.6,-94 213.6,-88 213.6,-82 213.6,-82 213.6,-70 213.6,-70 213.6,-64 219.6,-58 225.6,-58 225.6,-58 237.6,-58 237.6,-58 243.6,-58 249.6,-64 249.6,-70 249.6,-70 249.6,-82 249.6,-82 249.6,-88 243.6,-94 237.6,-94"/>
<text xml:space="preserve" text-anchor="middle" x="231.6" y="-71.33" font-family="monospace" font-size="14.00" fill="#b9dbfa">g</text>
</g>
<!-- root_0_1&#45;&gt;root_0_1_9 -->
<g id="edge12" class="edge">
<title>root_0_1&#45;&gt;root_0_1_9</title>
<path fill="none" stroke="#b9dbfa" stroke-width="2" d="M185.48,-96.77C190.98,-94.24 197.17,-91.39 203.16,-88.63"/>
<polygon fill="#b9dbfa" stroke="#b9dbfa" stroke-width="2" points="204.04,-91.31 210.14,-85.42 201.7,-86.22 204.04,-91.31"/>
</g>
<!-- root_0_1_13 -->
<g id="node18" class="node">
<title>root_0_1_13</title>
<path fill="none" stroke="#486d8c" stroke-width="2" d="M237.6,-36C237.6,-36 225.6,-36 225.6,-36 219.6,-36 213.6,-30 213.6,-24 213.6,-24 213.6,-12 213.6,-12 213.6,-6 219.6,0 225.6,0 225.6,0 237.6,0 237.6,0 243.6,0 249.6,-6 249.6,-12 249.6,-12 249.6,-24 249.6,-24 249.6,-30 243.6,-36 237.6,-36"/>
<text xml:space="preserve" text-anchor="middle" x="231.6" y="-13.32" font-family="monospace" font-size="14.00" fill="#b9dbfa">m</text>
</g>
<!-- root_0_1&#45;&gt;root_0_1_13 -->
<g id="edge17" class="edge">
<title>root_0_1&#45;&gt;root_0_1_13</title>
<path fill="none" stroke="#b9dbfa" stroke-width="2" d="M181.27,-86.12C189.86,-74.27 201.08,-58.77 210.65,-45.55"/>
<polygon fill="#b9dbfa" stroke="#b9dbfa" stroke-width="2" points="212.76,-47.41 215.18,-39.29 208.22,-44.13 212.76,-47.41"/>
</g>
<!-- root_0_1_2_3 -->
<g id="node5" class="node">
<title>root_0_1_2_3</title>
<path fill="none" stroke="#486d8c" stroke-width="2" d="M302.6,-210C302.6,-210 290.6,-210 290.6,-210 284.6,-210 278.6,-204 278.6,-198 278.6,-198 278.6,-186 278.6,-186 278.6,-180 284.6,-174 290.6,-174 290.6,-174 302.6,-174 302.6,-174 308.6,-174 314.6,-180 314.6,-186 314.6,-186 314.6,-198 314.6,-198 314.6,-204 308.6,-210 302.6,-210"/>
<text xml:space="preserve" text-anchor="middle" x="296.6" y="-187.32" font-family="monospace" font-size="14.00" fill="#b9dbfa">l</text>
</g>
<!-- root_0_1_2&#45;&gt;root_0_1_2_3 -->
<g id="edge4" class="edge">
<title>root_0_1_2&#45;&gt;root_0_1_2_3</title>
<path fill="none" stroke="#b9dbfa" stroke-width="2" d="M250.48,-192C255.72,-192 261.57,-192 267.28,-192"/>
<polygon fill="#b9dbfa" stroke="#b9dbfa" stroke-width="2" points="266.86,-194.8 274.86,-192 266.86,-189.2 266.86,-194.8"/>
</g>
<!-- root_0_1_2_3_4 -->
<g id="node6" class="node">
<title>root_0_1_2_3_4</title>
<path fill="none" stroke="#486d8c" stroke-width="2" d="M367.6,-210C367.6,-210 355.6,-210 355.6,-210 349.6,-210 343.6,-204 343.6,-198 343.6,-198 343.6,-186 343.6,-186 343.6,-180 349.6,-174 355.6,-174 355.6,-174 367.6,-174 367.6,-174 373.6,-174 379.6,-180 379.6,-186 379.6,-186 379.6,-198 379.6,-198 379.6,-204 373.6,-210 367.6,-210"/>
<text xml:space="preserve" text-anchor="middle" x="361.6" y="-187.32" font-family="monospace" font-size="14.00" fill="#b9dbfa">Y</text>
</g>
<!-- root_0_1_2_3&#45;&gt;root_0_1_2_3_4 -->
<g id="edge5" class="edge">
<title>root_0_1_2_3&#45;&gt;root_0_1_2_3_4</title>
<path fill="none" stroke="#b9dbfa" stroke-width="2" d="M315.48,-192C320.72,-192 326.57,-192 332.28,-192"/>
<polygon fill="#b9dbfa" stroke="#b9dbfa" stroke-width="2" points="331.86,-194.8 339.86,-192 331.86,-189.2 331.86,-194.8"/>
</g>
<!-- root_0_1_2_3_4_val -->
<g id="node7" class="node">
<title>root_0_1_2_3_4_val</title>
<polygon fill="none" stroke="#486d8c" stroke-width="2" points="602.45,-210 473.6,-210 473.6,-174 602.45,-174 602.45,-210"/>
<text xml:space="preserve" text-anchor="middle" x="538.02" y="-187.32" font-family="monospace" font-size="14.00" fill="#b9dbfa">&quot;2;ur,i,i,ar&quot;</text>
</g>
<!-- root_0_1_2_3_4&#45;&gt;root_0_1_2_3_4_val -->
<g id="edge6" class="edge">
<title>root_0_1_2_3_4&#45;&gt;root_0_1_2_3_4_val</title>
<path fill="none" stroke="#b9dbfa" stroke-width="2" d="M380.28,-192C399.57,-192 431.72,-192 461.91,-192"/>
<polygon fill="#b9dbfa" stroke="#b9dbfa" stroke-width="2" points="461.88,-194.8 469.88,-192 461.88,-189.2 461.88,-194.8"/>
</g>
<!-- root_0_1_5_6 -->
<g id="node9" class="node">
<title>root_0_1_5_6</title>
<path fill="none" stroke="#486d8c" stroke-width="2" d="M302.6,-152C302.6,-152 290.6,-152 290.6,-152 284.6,-152 278.6,-146 278.6,-140 278.6,-140 278.6,-128 278.6,-128 278.6,-122 284.6,-116 290.6,-116 290.6,-116 302.6,-116 302.6,-116 308.6,-116 314.6,-122 314.6,-128 314.6,-128 314.6,-140 314.6,-140 314.6,-146 308.6,-152 302.6,-152"/>
<text xml:space="preserve" text-anchor="middle" x="296.6" y="-129.32" font-family="monospace" font-size="14.00" fill="#b9dbfa">ú</text>
</g>
<!-- root_0_1_5&#45;&gt;root_0_1_5_6 -->
<g id="edge8" class="edge">
<title>root_0_1_5&#45;&gt;root_0_1_5_6</title>
<path fill="none" stroke="#b9dbfa" stroke-width="2" d="M250.48,-134C255.72,-134 261.57,-134 267.28,-134"/>
<polygon fill="#b9dbfa" stroke="#b9dbfa" stroke-width="2" points="266.86,-136.8 274.86,-134 266.86,-131.2 266.86,-136.8"/>
</g>
<!-- root_0_1_5_6_7 -->
<g id="node10" class="node">
<title>root_0_1_5_6_7</title>
<path fill="none" stroke="#486d8c" stroke-width="2" d="M367.6,-152C367.6,-152 355.6,-152 355.6,-152 349.6,-152 343.6,-146 343.6,-140 343.6,-140 343.6,-128 343.6,-128 343.6,-122 349.6,-116 355.6,-116 355.6,-116 367.6,-116 367.6,-116 373.6,-116 379.6,-122 379.6,-128 379.6,-128 379.6,-140 379.6,-140 379.6,-146 373.6,-152 367.6,-152"/>
<text xml:space="preserve" text-anchor="middle" x="361.6" y="-129.32" font-family="monospace" font-size="14.00" fill="#b9dbfa">n</text>
</g>
<!-- root_0_1_5_6&#45;&gt;root_0_1_5_6_7 -->
<g id="edge9" class="edge">
<title>root_0_1_5_6&#45;&gt;root_0_1_5_6_7</title>
<path fill="none" stroke="#b9dbfa" stroke-width="2" d="M315.48,-134C320.72,-134 326.57,-134 332.28,-134"/>
<polygon fill="#b9dbfa" stroke="#b9dbfa" stroke-width="2" points="331.86,-136.8 339.86,-134 331.86,-131.2 331.86,-136.8"/>
</g>
<!-- root_0_1_5_6_7_8 -->
<g id="node11" class="node">
<title>root_0_1_5_6_7_8</title>
<path fill="none" stroke="#486d8c" stroke-width="2" d="M432.6,-152C432.6,-152 420.6,-152 420.6,-152 414.6,-152 408.6,-146 408.6,-140 408.6,-140 408.6,-128 408.6,-128 408.6,-122 414.6,-116 420.6,-116 420.6,-116 432.6,-116 432.6,-116 438.6,-116 444.6,-122 444.6,-128 444.6,-128 444.6,-140 444.6,-140 444.6,-146 438.6,-152 432.6,-152"/>
<text xml:space="preserve" text-anchor="middle" x="426.6" y="-129.32" font-family="monospace" font-size="14.00" fill="#b9dbfa">K</text>
</g>
<!-- root_0_1_5_6_7&#45;&gt;root_0_1_5_6_7_8 -->
<g id="edge10" class="edge">
<title>root_0_1_5_6_7&#45;&gt;root_0_1_5_6_7_8</title>
<path fill="none" stroke="#b9dbfa" stroke-width="2" d="M380.48,-134C385.72,-134 391.57,-134 397.28,-134"/>
<polygon fill="#b9dbfa" stroke="#b9dbfa" stroke-width="2" points="396.86,-136.8 404.86,-134 396.86,-131.2 396.86,-136.8"/>
</g>
<!-- root_0_1_5_6_7_8_val -->
<g id="node12" class="node">
<title>root_0_1_5_6_7_8_val</title>
<polygon fill="none" stroke="#486d8c" stroke-width="2" points="594.2,-152 481.85,-152 481.85,-116 594.2,-116 594.2,-152"/>
<text xml:space="preserve" text-anchor="middle" x="538.02" y="-129.32" font-family="monospace" font-size="14.00" fill="#b9dbfa">&quot;2;ur,,i,s&quot;</text>
</g>
<!-- root_0_1_5_6_7_8&#45;&gt;root_0_1_5_6_7_8_val -->
<g id="edge11" class="edge">
<title>root_0_1_5_6_7_8&#45;&gt;root_0_1_5_6_7_8_val</title>
<path fill="none" stroke="#b9dbfa" stroke-width="2" d="M445.18,-134C452.3,-134 461.01,-134 470.2,-134"/>
<polygon fill="#b9dbfa" stroke="#b9dbfa" stroke-width="2" points="470.12,-136.8 478.12,-134 470.12,-131.2 470.12,-136.8"/>
</g>
<!-- root_0_1_9_10 -->
<g id="node14" class="node">
<title>root_0_1_9_10</title>
<path fill="none" stroke="#486d8c" stroke-width="2" d="M302.6,-94C302.6,-94 290.6,-94 290.6,-94 284.6,-94 278.6,-88 278.6,-82 278.6,-82 278.6,-70 278.6,-70 278.6,-64 284.6,-58 290.6,-58 290.6,-58 302.6,-58 302.6,-58 308.6,-58 314.6,-64 314.6,-70 314.6,-70 314.6,-82 314.6,-82 314.6,-88 308.6,-94 302.6,-94"/>
<text xml:space="preserve" text-anchor="middle" x="296.6" y="-71.33" font-family="monospace" font-size="14.00" fill="#b9dbfa">u</text>
</g>
<!-- root_0_1_9&#45;&gt;root_0_1_9_10 -->
<g id="edge13" class="edge">
<title>root_0_1_9&#45;&gt;root_0_1_9_10</title>
<path fill="none" stroke="#b9dbfa" stroke-width="2" d="M250.48,-76C255.72,-76 261.57,-76 267.28,-76"/>
<polygon fill="#b9dbfa" stroke="#b9dbfa" stroke-width="2" points="266.86,-78.8 274.86,-76 266.86,-73.2 266.86,-78.8"/>
</g>
<!-- root_0_1_9_10_11 -->
<g id="node15" class="node">
<title>root_0_1_9_10_11</title>
<path fill="none" stroke="#486d8c" stroke-width="2" d="M367.6,-94C367.6,-94 355.6,-94 355.6,-94 349.6,-94 343.6,-88 343.6,-82 343.6,-82 343.6,-70 343.6,-70 343.6,-64 349.6,-58 355.6,-58 355.6,-58 367.6,-58 367.6,-58 373.6,-58 379.6,-64 379.6,-70 379.6,-70 379.6,-82 379.6,-82 379.6,-88 373.6,-94 367.6,-94"/>
<text xml:space="preserve" text-anchor="middle" x="361.6" y="-71.33" font-family="monospace" font-size="14.00" fill="#b9dbfa">a</text>
</g>
<!-- root_0_1_9_10&#45;&gt;root_0_1_9_10_11 -->
<g id="edge14" class="edge">
<title>root_0_1_9_10&#45;&gt;root_0_1_9_10_11</title>
<path fill="none" stroke="#b9dbfa" stroke-width="2" d="M315.48,-76C320.72,-76 326.57,-76 332.28,-76"/>
<polygon fill="#b9dbfa" stroke="#b9dbfa" stroke-width="2" points="331.86,-78.8 339.86,-76 331.86,-73.2 331.86,-78.8"/>
</g>
<!-- root_0_1_9_10_11_12 -->
<g id="node16" class="node">
<title>root_0_1_9_10_11_12</title>
<path fill="none" stroke="#486d8c" stroke-width="2" d="M432.6,-94C432.6,-94 420.6,-94 420.6,-94 414.6,-94 408.6,-88 408.6,-82 408.6,-82 408.6,-70 408.6,-70 408.6,-64 414.6,-58 420.6,-58 420.6,-58 432.6,-58 432.6,-58 438.6,-58 444.6,-64 444.6,-70 444.6,-70 444.6,-82 444.6,-82 444.6,-88 438.6,-94 432.6,-94"/>
<text xml:space="preserve" text-anchor="middle" x="426.6" y="-71.33" font-family="monospace" font-size="14.00" fill="#b9dbfa">B</text>
</g>
<!-- root_0_1_9_10_11&#45;&gt;root_0_1_9_10_11_12 -->
<g id="edge15" class="edge">
<title>root_0_1_9_10_11&#45;&gt;root_0_1_9_10_11_12</title>
<path fill="none" stroke="#b9dbfa" stroke-width="2" d="M380.48,-76C385.72,-76 391.57,-76 397.28,-76"/>
<polygon fill="#b9dbfa" stroke="#b9dbfa" stroke-width="2" points="396.86,-78.8 404.86,-76 396.86,-73.2 396.86,-78.8"/>
</g>
<!-- root_0_1_9_10_11_12_val -->
<g id="node17" class="node">
<title>root_0_1_9_10_11_12_val</title>
<polygon fill="none" stroke="#486d8c" stroke-width="2" points="594.2,-94 481.85,-94 481.85,-58 594.2,-58 594.2,-94"/>
<text xml:space="preserve" text-anchor="middle" x="538.02" y="-71.33" font-family="monospace" font-size="14.00" fill="#b9dbfa">&quot;2;ur,,i,s&quot;</text>
</g>
<!-- root_0_1_9_10_11_12&#45;&gt;root_0_1_9_10_11_12_val -->
<g id="edge16" class="edge">
<title>root_0_1_9_10_11_12&#45;&gt;root_0_1_9_10_11_12_val</title>
<path fill="none" stroke="#b9dbfa" stroke-width="2" d="M445.18,-76C452.3,-76 461.01,-76 470.2,-76"/>
<polygon fill="#b9dbfa" stroke="#b9dbfa" stroke-width="2" points="470.12,-78.8 478.12,-76 470.12,-73.2 470.12,-78.8"/>
</g>
<!-- root_0_1_13_14 -->
<g id="node19" class="node">
<title>root_0_1_13_14</title>
<path fill="none" stroke="#486d8c" stroke-width="2" d="M302.6,-36C302.6,-36 290.6,-36 290.6,-36 284.6,-36 278.6,-30 278.6,-24 278.6,-24 278.6,-12 278.6,-12 278.6,-6 284.6,0 290.6,0 290.6,0 302.6,0 302.6,0 308.6,0 314.6,-6 314.6,-12 314.6,-12 314.6,-24 314.6,-24 314.6,-30 308.6,-36 302.6,-36"/>
<text xml:space="preserve" text-anchor="middle" x="296.6" y="-13.32" font-family="monospace" font-size="14.00" fill="#b9dbfa">í</text>
</g>
<!-- root_0_1_13&#45;&gt;root_0_1_13_14 -->
<g id="edge18" class="edge">
<title>root_0_1_13&#45;&gt;root_0_1_13_14</title>
<path fill="none" stroke="#b9dbfa" stroke-width="2" d="M250.48,-18C255.72,-18 261.57,-18 267.28,-18"/>
<polygon fill="#b9dbfa" stroke="#b9dbfa" stroke-width="2" points="266.86,-20.8 274.86,-18 266.86,-15.2 266.86,-20.8"/>
</g>
<!-- root_0_1_13_14_15 -->
<g id="node20" class="node">
<title>root_0_1_13_14_15</title>
<path fill="none" stroke="#486d8c" stroke-width="2" d="M367.6,-36C367.6,-36 355.6,-36 355.6,-36 349.6,-36 343.6,-30 343.6,-24 343.6,-24 343.6,-12 343.6,-12 343.6,-6 349.6,0 355.6,0 355.6,0 367.6,0 367.6,0 373.6,0 379.6,-6 379.6,-12 379.6,-12 379.6,-24 379.6,-24 379.6,-30 373.6,-36 367.6,-36"/>
<text xml:space="preserve" text-anchor="middle" x="361.6" y="-13.32" font-family="monospace" font-size="14.00" fill="#b9dbfa">r</text>
</g>
<!-- root_0_1_13_14&#45;&gt;root_0_1_13_14_15 -->
<g id="edge19" class="edge">
<title>root_0_1_13_14&#45;&gt;root_0_1_13_14_15</title>
<path fill="none" stroke="#b9dbfa" stroke-width="2" d="M315.48,-18C320.72,-18 326.57,-18 332.28,-18"/>
<polygon fill="#b9dbfa" stroke="#b9dbfa" stroke-width="2" points="331.86,-20.8 339.86,-18 331.86,-15.2 331.86,-20.8"/>
</g>
<!-- root_0_1_13_14_15_16 -->
<g id="node21" class="node">
<title>root_0_1_13_14_15_16</title>
<path fill="none" stroke="#486d8c" stroke-width="2" d="M432.6,-36C432.6,-36 420.6,-36 420.6,-36 414.6,-36 408.6,-30 408.6,-24 408.6,-24 408.6,-12 408.6,-12 408.6,-6 414.6,0 420.6,0 420.6,0 432.6,0 432.6,0 438.6,0 444.6,-6 444.6,-12 444.6,-12 444.6,-24 444.6,-24 444.6,-30 438.6,-36 432.6,-36"/>
<text xml:space="preserve" text-anchor="middle" x="426.6" y="-13.32" font-family="monospace" font-size="14.00" fill="#b9dbfa">G</text>
</g>
<!-- root_0_1_13_14_15&#45;&gt;root_0_1_13_14_15_16 -->
<g id="edge20" class="edge">
<title>root_0_1_13_14_15&#45;&gt;root_0_1_13_14_15_16</title>
<path fill="none" stroke="#b9dbfa" stroke-width="2" d="M380.48,-18C385.72,-18 391.57,-18 397.28,-18"/>
<polygon fill="#b9dbfa" stroke="#b9dbfa" stroke-width="2" points="396.86,-20.8 404.86,-18 396.86,-15.2 396.86,-20.8"/>
</g>
<!-- root_0_1_13_14_15_16_val -->
<g id="node22" class="node">
<title>root_0_1_13_14_15_16_val</title>
<polygon fill="none" stroke="#486d8c" stroke-width="2" points="594.2,-36 481.85,-36 481.85,0 594.2,0 594.2,-36"/>
<text xml:space="preserve" text-anchor="middle" x="538.02" y="-13.32" font-family="monospace" font-size="14.00" fill="#b9dbfa">&quot;2;ur,,i,s&quot;</text>
</g>
<!-- root_0_1_13_14_15_16&#45;&gt;root_0_1_13_14_15_16_val -->
<g id="edge21" class="edge">
<title>root_0_1_13_14_15_16&#45;&gt;root_0_1_13_14_15_16_val</title>
<path fill="none" stroke="#b9dbfa" stroke-width="2" d="M445.18,-18C452.3,-18 461.01,-18 470.2,-18"/>
<polygon fill="#b9dbfa" stroke="#b9dbfa" stroke-width="2" points="470.12,-20.8 478.12,-18 470.12,-15.2 470.12,-20.8"/>
</g>
</g>
</svg>
