<?xml version="1.0" encoding="UTF-8" standalone="no"?>
<!DOCTYPE svg PUBLIC "-//W3C//DTD SVG 1.1//EN"
 "http://www.w3.org/Graphics/SVG/1.1/DTD/svg11.dtd">
<!-- Generated by graphviz version 13.1.0 (20250701.0955)
 -->
<!-- Pages: 1 -->
<svg width="424pt" height="102pt"
 viewBox="0.00 0.00 424.00 102.00" xmlns="http://www.w3.org/2000/svg" xmlns:xlink="http://www.w3.org/1999/xlink">
<g id="graph0" class="graph" transform="scale(1 1) rotate(0) translate(4 98)">
<!-- root -->
<g id="node1" class="node">
<title>root</title>
<ellipse fill="none" stroke="#b9dbfa" stroke-width="2" cx="34.37" cy="-47" rx="34.37" ry="34.37"/>
<text xml:space="preserve" text-anchor="middle" x="34.37" y="-42.33" font-family="monospace" font-size="14.00" fill="#b9dbfa">root</text>
</g>
<!-- root_0 -->
<g id="node2" class="node">
<title>root_0</title>
<ellipse fill="none" stroke="#b9dbfa" stroke-width="2" cx="115.75" cy="-47" rx="18" ry="18"/>
<text xml:space="preserve" text-anchor="middle" x="115.75" y="-42.33" font-family="monospace" font-size="14.00" fill="#b9dbfa">r</text>
</g>
<!-- root&#45;&gt;root_0 -->
<g id="edge1" class="edge">
<title>root&#45;&gt;root_0</title>
<path fill="none" stroke="#b9dbfa" stroke-width="2" d="M69.49,-47C74.94,-47 80.52,-47 85.82,-47"/>
<polygon fill="#b9dbfa" stroke="#b9dbfa" stroke-width="2" points="85.81,-49.8 93.81,-47 85.81,-44.2 85.81,-49.8"/>
</g>
<!-- root_0_1 -->
<g id="node3" class="node">
<title>root_0_1</title>
<ellipse fill="none" stroke="#b9dbfa" stroke-width="2" cx="180.75" cy="-47" rx="18" ry="18"/>
<text xml:space="preserve" text-anchor="middle" x="180.75" y="-42.33" font-family="monospace" font-size="14.00" fill="#b9dbfa">u</text>
</g>
<!-- root_0&#45;&gt;root_0_1 -->
<g id="edge2" class="edge">
<title>root_0&#45;&gt;root_0_1</title>
<path fill="none" stroke="#b9dbfa" stroke-width="2" d="M134.63,-47C139.86,-47 145.71,-47 151.42,-47"/>
<polygon fill="#b9dbfa" stroke="#b9dbfa" stroke-width="2" points="151.01,-49.8 159.01,-47 151.01,-44.2 151.01,-49.8"/>
</g>
<!-- root_0_1_2 -->
<g id="node4" class="node">
<title>root_0_1_2</title>
<ellipse fill="none" stroke="#b9dbfa" stroke-width="2" cx="245.75" cy="-76" rx="18" ry="18"/>
<text xml:space="preserve" text-anchor="middle" x="245.75" y="-71.33" font-family="monospace" font-size="14.00" fill="#b9dbfa">f</text>
</g>
<!-- root_0_1&#45;&gt;root_0_1_2 -->
<g id="edge3" class="edge">
<title>root_0_1&#45;&gt;root_0_1_2</title>
<path fill="none" stroke="#b9dbfa" stroke-width="2" d="M197.97,-54.47C204.24,-57.35 211.58,-60.73 218.55,-63.94"/>
<polygon fill="#b9dbfa" stroke="#b9dbfa" stroke-width="2" points="217.17,-66.39 225.61,-67.19 219.51,-61.3 217.17,-66.39"/>
</g>
<!-- root_0_1_3 -->
<g id="node6" class="node">
<title>root_0_1_3</title>
<ellipse fill="none" stroke="#b9dbfa" stroke-width="2" cx="245.75" cy="-18" rx="18" ry="18"/>
<text xml:space="preserve" text-anchor="middle" x="245.75" y="-13.32" font-family="monospace" font-size="14.00" fill="#b9dbfa">t</text>
</g>
<!-- root_0_1&#45;&gt;root_0_1_3 -->
<g id="edge5" class="edge">
<title>root_0_1&#45;&gt;root_0_1_3</title>
<path fill="none" stroke="#b9dbfa" stroke-width="2" d="M197.97,-39.53C204.24,-36.65 211.58,-33.27 218.55,-30.06"/>
<polygon fill="#b9dbfa" stroke="#b9dbfa" stroke-width="2" points="219.51,-32.7 225.61,-26.81 217.17,-27.61 219.51,-32.7"/>
</g>
<!-- root_0_1_2_val -->
<g id="node5" class="node">
<title>root_0_1_2_val</title>
<polygon fill="none" stroke="#b9dbfa" stroke-width="2" points="416,-94 292.75,-94 292.75,-58 416,-58 416,-94"/>
<text xml:space="preserve" text-anchor="middle" x="354.37" y="-71.33" font-family="monospace" font-size="14.00" fill="#b9dbfa">&quot;2;ur,i,i,ar&quot;</text>
</g>
<!-- root_0_1_2&#45;&gt;root_0_1_2_val -->
<g id="edge4" class="edge">
<title>root_0_1_2&#45;&gt;root_0_1_2_val</title>
<path fill="none" stroke="#b9dbfa" stroke-width="2" d="M264.35,-76C269.35,-76 275.13,-76 281.29,-76"/>
<polygon fill="#b9dbfa" stroke="#b9dbfa" stroke-width="2" points="280.93,-78.8 288.93,-76 280.93,-73.2 280.93,-78.8"/>
</g>
<!-- root_0_1_3_val -->
<g id="node7" class="node">
<title>root_0_1_3_val</title>
<polygon fill="none" stroke="#b9dbfa" stroke-width="2" points="407.75,-36 301,-36 301,0 407.75,0 407.75,-36"/>
<text xml:space="preserve" text-anchor="middle" x="354.37" y="-13.32" font-family="monospace" font-size="14.00" fill="#b9dbfa">&quot;2;ur,,i,s&quot;</text>
</g>
<!-- root_0_1_3&#45;&gt;root_0_1_3_val -->
<g id="edge6" class="edge">
<title>root_0_1_3&#45;&gt;root_0_1_3_val</title>
<path fill="none" stroke="#b9dbfa" stroke-width="2" d="M264.35,-18C271.49,-18 280.22,-18 289.38,-18"/>
<polygon fill="#b9dbfa" stroke="#b9dbfa" stroke-width="2" points="289.25,-20.8 297.25,-18 289.25,-15.2 289.25,-20.8"/>
</g>
</g>
</svg>
