<svg width="700" height="293" viewBox="0 0 700 293" fill="none" xmlns="http://www.w3.org/2000/svg">
<line x1="72" y1="272.5" x2="635" y2="272.5" stroke="#A1ADCD" stroke-width="3"/>
<rect x="327.5" y="30.5" width="189" height="155" fill="#1F2330" stroke="#1C70EE" stroke-width="3"/>
<rect x="183.5" y="117.5" width="227" height="155" fill="#1F2330" stroke="#A1ADCD" stroke-width="3"/>
<rect x="327.5" y="30.5" width="189" height="155" stroke="#1C70EE" stroke-width="3" stroke-dasharray="6 10"/>
<path d="M293.914 40.5858C293.133 39.8047 291.867 39.8047 291.086 40.5858L278.358 53.3137C277.577 54.0948 277.577 55.3611 278.358 56.1421C279.139 56.9232 280.405 56.9232 281.186 56.1421L292.5 44.8284L303.814 56.1421C304.595 56.9232 305.861 56.9232 306.642 56.1421C307.423 55.3611 307.423 54.0948 306.642 53.3137L293.914 40.5858ZM294.5 99V42H290.5V99H294.5Z" fill="#DE3434"/>
<path d="M487.414 218.414C488.195 217.633 488.195 216.367 487.414 215.586L474.686 202.858C473.905 202.077 472.639 202.077 471.858 202.858C471.077 203.639 471.077 204.905 471.858 205.686L483.172 217L471.858 228.314C471.077 229.095 471.077 230.361 471.858 231.142C472.639 231.923 473.905 231.923 474.686 231.142L487.414 218.414ZM429 219L486 219L486 215L429 215L429 219Z" fill="#18DD38"/>
</svg>
