<svg width="800" height="293" viewBox="0 0 800 293" fill="none" xmlns="http://www.w3.org/2000/svg">
<line x1="39" y1="272.5" x2="761" y2="272.5" stroke="#A1ADCD" stroke-width="3"/>
<rect x="86.5" y="148.7" width="181" height="123.4" fill="#1F2330" stroke="#A1ADCD" stroke-width="3"/>
<rect x="403.5" y="148.7" width="181" height="123.4" fill="#1F2330" stroke="#A1ADCD" stroke-width="3"/>
<rect x="584.5" y="77.5" width="150.6" height="123.4" fill="#1F2330" stroke="#1C70EE" stroke-width="3"/>
<path d="M667.414 237.414C668.195 236.633 668.195 235.367 667.414 234.586L654.686 221.858C653.905 221.077 652.639 221.077 651.858 221.858C651.077 222.639 651.077 223.905 651.858 224.686L663.172 236L651.858 247.314C651.077 248.095 651.077 249.361 651.858 250.142C652.639 250.923 653.905 250.923 654.686 250.142L667.414 237.414ZM609 238L666 238L666 234L609 234L609 238Z" fill="#18DD38"/>
<rect x="207.5" y="25.5" width="150.6" height="123.4" fill="#1F2330" stroke="#1C70EE" stroke-width="3"/>
<path d="M171.414 69.5858C170.633 68.8047 169.367 68.8047 168.586 69.5858L155.858 82.3137C155.077 83.0948 155.077 84.3611 155.858 85.1421C156.639 85.9232 157.905 85.9232 158.686 85.1421L170 73.8284L181.314 85.1421C182.095 85.9232 183.361 85.9232 184.142 85.1421C184.923 84.3611 184.923 83.0948 184.142 82.3137L171.414 69.5858ZM172 128V71H168V128H172Z" fill="#DE3434"/>
</svg>
