<svg width="700" height="293" viewBox="0 0 700 293" fill="none" xmlns="http://www.w3.org/2000/svg">
<g clip-path="url(#clip0_1028_19)">
<line x1="72" y1="272.5" x2="635" y2="272.5" stroke="#A1ADCD" stroke-width="3"/>
<path d="M331 118.5V29H523V187H414.5" stroke="#1C70EE" stroke-width="3"/>
<rect x="183.5" y="117.5" width="227" height="155" stroke="#3967D2" stroke-width="3"/>
<rect x="331" y="29" width="192" height="158" stroke="#1C70EE" stroke-width="3" stroke-dasharray="6 10"/>
<path opacity="0.15" d="M624 -67.5L234 272H-93.5V-67.5H624Z" fill="#DE3434"/>
<path opacity="0.15" d="M624 -67.5L234 272H867V-67.5H624Z" fill="#18DD38"/>
<path d="M268 241L443.5 89" stroke="white" stroke-width="4" stroke-dasharray="16 16"/>
<path d="M292.414 44.5858C291.633 43.8047 290.367 43.8047 289.586 44.5858L276.858 57.3137C276.077 58.0948 276.077 59.3611 276.858 60.1421C277.639 60.9232 278.905 60.9232 279.686 60.1421L291 48.8284L302.314 60.1421C303.095 60.9232 304.361 60.9232 305.142 60.1421C305.923 59.3611 305.923 58.0948 305.142 57.3137L292.414 44.5858ZM293 103V46H289V103H293Z" fill="#DE3434"/>
<path d="M485.914 222.414C486.695 221.633 486.695 220.367 485.914 219.586L473.186 206.858C472.405 206.077 471.139 206.077 470.358 206.858C469.577 207.639 469.577 208.905 470.358 209.686L481.672 221L470.358 232.314C469.577 233.095 469.577 234.361 470.358 235.142C471.139 235.923 472.405 235.923 473.186 235.142L485.914 222.414ZM427.5 223L484.5 223L484.5 219L427.5 219L427.5 223Z" fill="#18DD38"/>
</g>
<defs>
<clipPath id="clip0_1028_19">
<rect width="700" height="293" fill="white"/>
</clipPath>
</defs>
</svg>
