<?xml version="1.0" encoding="UTF-8" standalone="no"?>
<!-- Generated by graphviz version 13.1.0 (20250701.0955)
 -->

<!-- Pages: 1 -->

<svg
   width="547pt"
   height="166pt"
   viewBox="0.00 0.00 547.00 166.00"
   version="1.1"
   id="svg25"
   xmlns="http://www.w3.org/2000/svg"
   xmlns:svg="http://www.w3.org/2000/svg">
  <defs
     id="defs25" />
  <g
     id="graph0"
     class="graph"
     transform="scale(1 1) rotate(0) translate(4 161.8)">
    <!-- root -->
    <g
       id="node1"
       class="node">
      <title
         id="title1">root</title>
      <path
         fill="none"
         stroke="#486d8c"
         stroke-width="2"
         d="M40.68,-103.8C40.68,-103.8 9.6,-103.8 9.6,-103.8 4.8,-103.8 0,-99 0,-94.2 0,-94.2 0,-84.6 0,-84.6 0,-79.8 4.8,-75 9.6,-75 9.6,-75 40.68,-75 40.68,-75 45.48,-75 50.28,-79.8 50.28,-84.6 50.28,-84.6 50.28,-94.2 50.28,-94.2 50.28,-99 45.48,-103.8 40.68,-103.8"
         id="path1" />
      <path
         d="m 9.4240896,-85.099998 v -0.926154 h 1.1774364 v -5.707693 H 9.4240896 v -0.926153 H 11.5205 l 0.222564,1.787692 q 0.437949,-0.933333 1.062564,-1.443077 0.624615,-0.509744 1.651282,-0.509744 0.315898,0 0.56,0.05026 0.251282,0.04308 0.509744,0.114872 l -0.172308,2.555897 h -0.990769 v -1.608205 q -0.02872,0 -0.06462,0 -1.737435,0 -2.491282,2.484102 v 3.202052 h 1.536411 v 0.926154 z M 20.84666,-92.817947 q 1.601026,0 2.419487,1.069743 0.818462,1.069744 0.818462,2.864616 0,1.155897 -0.373334,2.046154 -0.373333,0.890256 -1.098461,1.4 -0.725128,0.502564 -1.780513,0.502564 -1.601026,0 -2.426667,-1.076923 -0.825641,-1.076923 -0.825641,-2.857436 0,-1.163077 0.373334,-2.053334 0.373333,-0.897435 1.098461,-1.39282 0.732308,-0.502564 1.794872,-0.502564 z m 0,0.98359 q -0.97641,0 -1.478974,0.725128 -0.495385,0.725128 -0.495385,2.24 0,1.500513 0.488205,2.225641 0.495385,0.717949 1.471795,0.717949 0.97641,0 1.464615,-0.725129 0.495385,-0.725128 0.495385,-2.23282 0,-1.507693 -0.488205,-2.225641 -0.488205,-0.725128 -1.457436,-0.725128 z m 8.615391,-0.98359 q 1.601025,0 2.419487,1.069743 0.818461,1.069744 0.818461,2.864616 0,1.155897 -0.373333,2.046154 -0.373333,0.890256 -1.098461,1.4 -0.725129,0.502564 -1.780513,0.502564 -1.601026,0 -2.426667,-1.076923 -0.825641,-1.076923 -0.825641,-2.857436 0,-1.163077 0.373333,-2.053334 0.373334,-0.897435 1.098462,-1.39282 0.732308,-0.502564 1.794872,-0.502564 z m 0,0.98359 q -0.976411,0 -1.478975,0.725128 -0.495384,0.725128 -0.495384,2.24 0,1.500513 0.488205,2.225641 0.495384,0.717949 1.471795,0.717949 0.97641,0 1.464615,-0.725129 0.495385,-0.725128 0.495385,-2.23282 0,-1.507693 -0.488205,-2.225641 -0.488206,-0.725128 -1.457436,-0.725128 z m 11.738467,6.353846 q -0.387692,0.258461 -0.940512,0.402051 -0.552821,0.14359 -1.084103,0.14359 -1.220513,0 -1.881026,-0.638975 -0.660512,-0.638974 -0.660512,-1.644102 v -4.508718 h -1.737436 v -0.933333 h 1.737436 v -1.715898 l 1.206153,-0.14359 v 1.859488 h 2.613334 l -0.14359,0.933333 h -2.469744 v 4.494359 q 0,0.631795 0.330257,0.962051 0.337436,0.330257 1.11282,0.330257 0.42359,0 0.782564,-0.100513 0.358975,-0.100513 0.667693,-0.258462 z"
         id="text1"
         style="font-size:14px;font-family:'Fira Code';text-anchor:middle;fill:#b9dbfa"
         aria-label="root" />
    </g>
    <!-- root_0 -->
    <g
       id="node2"
       class="node">
      <title
         id="title2">root_0</title>
      <path
         fill="none"
         stroke="#486d8c"
         stroke-width="2"
         d="M98.48,-103.8C98.48,-103.8 88.88,-103.8 88.88,-103.8 84.08,-103.8 79.28,-99 79.28,-94.2 79.28,-94.2 79.28,-84.6 79.28,-84.6 79.28,-79.8 84.08,-75 88.88,-75 88.88,-75 98.48,-75 98.48,-75 103.28,-75 108.08,-79.8 108.08,-84.6 108.08,-84.6 108.08,-94.2 108.08,-94.2 108.08,-99 103.28,-103.8 98.48,-103.8"
         id="path2" />
      <path
         d="m 90.887177,-85.099998 v -0.926154 h 1.177436 v -5.707693 h -1.177436 v -0.926153 h 2.09641 l 0.222564,1.787692 q 0.437949,-0.933333 1.062564,-1.443077 0.624616,-0.509744 1.651282,-0.509744 0.315898,0 0.56,0.05026 0.251282,0.04308 0.509744,0.114872 l -0.172308,2.555897 h -0.990769 v -1.608205 q -0.02872,0 -0.06461,0 -1.737436,0 -2.491283,2.484102 v 3.202052 h 1.536411 v 0.926154 z"
         id="text2"
         style="font-size:14px;font-family:'Fira Code';text-anchor:middle;fill:#b9dbfa"
         aria-label="r" />
    </g>
    <!-- root&#45;&gt;root_0 -->
    <g
       id="edge1"
       class="edge">
      <title
         id="title3">root-&gt;root_0</title>
      <path
         fill="none"
         stroke="#b9dbfa"
         stroke-width="2"
         d="M50.92,-89.4C56.45,-89.4 62.31,-89.4 67.84,-89.4"
         id="path3" />
      <polygon
         fill="#b9dbfa"
         stroke="#b9dbfa"
         stroke-width="2"
         points="67.49,-92.2 75.49,-89.4 67.49,-86.6 67.49,-92.2"
         id="polygon3" />
    </g>
    <!-- root_0_1 -->
    <g
       id="node3"
       class="node">
      <title
         id="title4">root_0_1</title>
      <path
         fill="none"
         stroke="#486d8c"
         stroke-width="2"
         d="M156.28,-103.8C156.28,-103.8 146.68,-103.8 146.68,-103.8 141.88,-103.8 137.08,-99 137.08,-94.2 137.08,-94.2 137.08,-84.6 137.08,-84.6 137.08,-79.8 141.88,-75 146.68,-75 146.68,-75 156.28,-75 156.28,-75 161.08,-75 165.88,-79.8 165.88,-84.6 165.88,-84.6 165.88,-94.2 165.88,-94.2 165.88,-99 161.08,-103.8 156.28,-103.8"
         id="path4" />
      <path
         d="m 149.82153,-92.659998 v 5.355897 q 0,0.746667 0.30872,1.076923 0.30872,0.330256 0.96205,0.330256 0.62462,0 1.17744,-0.351794 0.56,-0.358975 0.86871,-0.84718 v -5.564102 h 1.20616 v 7.56 h -1.02667 l -0.10051,-1.019488 q -0.44513,0.574359 -1.10564,0.883077 -0.65334,0.301539 -1.31385,0.301539 -1.09846,0 -1.6441,-0.581539 -0.53846,-0.588718 -0.53846,-1.644102 v -5.499487 z"
         id="text4"
         style="font-size:14px;font-family:'Fira Code';text-anchor:middle;fill:#b9dbfa"
         aria-label="u" />
    </g>
    <!-- root_0&#45;&gt;root_0_1 -->
    <g
       id="edge2"
       class="edge">
      <title
         id="title5">root_0-&gt;root_0_1</title>
      <path
         fill="none"
         stroke="#b9dbfa"
         stroke-width="2"
         d="M109.05,-89.4C114.03,-89.4 119.78,-89.4 125.37,-89.4"
         id="path5" />
      <polygon
         fill="#b9dbfa"
         stroke="#b9dbfa"
         stroke-width="2"
         points="125.32,-92.2 133.32,-89.4 125.32,-86.6 125.32,-92.2"
         id="polygon5" />
    </g>
    <!-- root_0_1_2 -->
    <g
       id="node4"
       class="node">
      <title
         id="title6">root_0_1_2</title>
      <path
         fill="none"
         stroke="#486d8c"
         stroke-width="2"
         d="M214.08,-103.8C214.08,-103.8 204.48,-103.8 204.48,-103.8 199.68,-103.8 194.88,-99 194.88,-94.2 194.88,-94.2 194.88,-84.6 194.88,-84.6 194.88,-79.8 199.68,-75 204.48,-75 204.48,-75 214.08,-75 214.08,-75 218.88,-75 223.68,-79.8 223.68,-84.6 223.68,-84.6 223.68,-94.2 223.68,-94.2 223.68,-99 218.88,-103.8 214.08,-103.8"
         id="path6" />
      <path
         d="m 210.88102,-95.85487 q 0.61026,0 1.10564,0.107692 0.49539,0.107692 0.94052,0.301539 l -0.3877,0.897435 q -0.36615,-0.157948 -0.78256,-0.236923 -0.40923,-0.07897 -0.84,-0.07897 -1.58667,0 -1.58667,1.25641 v 1.53641 h 2.56308 l -0.12923,0.947693 h -2.43385 v 6.02359 h -1.20615 v -6.02359 h -1.80205 v -0.947693 h 1.80205 v -1.507692 q 0,-0.70359 0.35897,-1.213333 0.36616,-0.509744 0.99077,-0.782564 0.62462,-0.28 1.40718,-0.28 z"
         id="text6"
         style="font-size:14px;font-family:'Fira Code';text-anchor:middle;fill:#b9dbfa"
         aria-label="f" />
    </g>
    <!-- root_0_1&#45;&gt;root_0_1_2 -->
    <g
       id="edge3"
       class="edge">
      <title
         id="title7">root_0_1-&gt;root_0_1_2</title>
      <path
         fill="none"
         stroke="#b9dbfa"
         stroke-width="2"
         d="M166.85,-89.4C171.83,-89.4 177.58,-89.4 183.17,-89.4"
         id="path7" />
      <polygon
         fill="#b9dbfa"
         stroke="#b9dbfa"
         stroke-width="2"
         points="183.12,-92.2 191.12,-89.4 183.12,-86.6 183.12,-92.2"
         id="polygon7" />
    </g>
    <!-- root_0_1_2_3 -->
    <g
       id="node5"
       class="node">
      <title
         id="title8">root_0_1_2_3</title>
      <path
         fill="none"
         stroke="#486d8c"
         stroke-width="2"
         d="M282.62,-151.8C282.62,-151.8 273.02,-151.8 273.02,-151.8 268.22,-151.8 263.42,-147 263.42,-142.2 263.42,-142.2 263.42,-132.6 263.42,-132.6 263.42,-127.8 268.22,-123 273.02,-123 273.02,-123 282.62,-123 282.62,-123 287.42,-123 292.22,-127.8 292.22,-132.6 292.22,-132.6 292.22,-142.2 292.22,-142.2 292.22,-147 287.42,-151.8 282.62,-151.8"
         id="path8" />
      <path
         d="m 277.89898,-143.70411 v 8.73744 q 0,0.56 0.34461,0.79692 0.3518,0.22974 0.90462,0.22974 0.33744,0 0.64615,-0.0718 0.3159,-0.0718 0.62462,-0.19385 l 0.32308,0.88308 q -0.30872,0.15077 -0.76821,0.26564 -0.45231,0.12205 -1.02667,0.12205 -1.00512,0 -1.62974,-0.55282 -0.62462,-0.56 -0.62462,-1.54359 v -7.71795 h -2.31897 v -0.95487 z"
         id="text8"
         style="font-size:14px;font-family:'Fira Code';text-anchor:middle;fill:#b9dbfa"
         aria-label="l" />
    </g>
    <!-- root_0_1_2&#45;&gt;root_0_1_2_3 -->
    <g
       id="edge4"
       class="edge">
      <title
         id="title9">root_0_1_2-&gt;root_0_1_2_3</title>
      <path
         fill="none"
         stroke="#b9dbfa"
         stroke-width="2"
         d="M224.39,-99.58C232.95,-105.75 244.07,-113.78 253.87,-120.84"
         id="path9" />
      <polygon
         fill="#b9dbfa"
         stroke="#b9dbfa"
         stroke-width="2"
         points="252.15,-123.05 260.27,-125.46 255.42,-118.51 252.15,-123.05"
         id="polygon9" />
    </g>
    <!-- root_0_1_2_4 -->
    <g
       id="node7"
       class="node">
      <title
         id="title10">root_0_1_2_4</title>
      <path
         fill="none"
         stroke="#486d8c"
         stroke-width="2"
         d="M282.62,-103.8C282.62,-103.8 273.02,-103.8 273.02,-103.8 268.22,-103.8 263.42,-99 263.42,-94.2 263.42,-94.2 263.42,-84.6 263.42,-84.6 263.42,-79.8 268.22,-75 273.02,-75 273.02,-75 282.62,-75 282.62,-75 287.42,-75 292.22,-79.8 292.22,-84.6 292.22,-84.6 292.22,-94.2 292.22,-94.2 292.22,-99 287.42,-103.8 282.62,-103.8"
         id="path10" />
      <path
         d="m 278.78206,-92.659998 v 6.605128 h 2.1323 v 0.954872 h -5.67179 v -0.954872 h 2.33333 v -5.650257 h -2.26154 v -0.954871 z m 0.25846,-3.884103 0.56,1.033846 -3.00103,1.220513 -0.37333,-0.646154 z"
         id="text10"
         style="font-size:14px;font-family:'Fira Code';text-anchor:middle;fill:#b9dbfa"
         aria-label="í" />
    </g>
    <!-- root_0_1_2&#45;&gt;root_0_1_2_4 -->
    <g
       id="edge6"
       class="edge">
      <title
         id="title11">root_0_1_2-&gt;root_0_1_2_4</title>
      <path
         fill="none"
         stroke="#b9dbfa"
         stroke-width="2"
         d="M224.39,-89.4C232.33,-89.4 242.48,-89.4 251.73,-89.4"
         id="path11" />
      <polygon
         fill="#b9dbfa"
         stroke="#b9dbfa"
         stroke-width="2"
         points="251.7,-92.2 259.7,-89.4 251.7,-86.6 251.7,-92.2"
         id="polygon11" />
    </g>
    <!-- root_0_1_2_7 -->
    <g
       id="node12"
       class="node">
      <title
         id="title12">root_0_1_2_7</title>
      <path
         fill="none"
         stroke="#486d8c"
         stroke-width="2"
         d="M293.36,-49.8C293.36,-49.8 262.28,-49.8 262.28,-49.8 257.48,-49.8 252.68,-45 252.68,-40.2 252.68,-40.2 252.68,-30.6 252.68,-30.6 252.68,-25.8 257.48,-21 262.28,-21 262.28,-21 293.36,-21 293.36,-21 298.16,-21 302.96,-25.8 302.96,-30.6 302.96,-30.6 302.96,-40.2 302.96,-40.2 302.96,-45 298.16,-49.8 293.36,-49.8"
         id="path12" />
      <path
         d="m 264.89692,-42.199488 q 0.40205,0 0.63897,0.244103 0.2441,0.244103 0.2441,0.595897 0,0.366154 -0.2441,0.617436 -0.23692,0.244103 -0.63897,0.244103 -0.38051,0 -0.62462,-0.244103 -0.2441,-0.251282 -0.2441,-0.617436 0,-0.351794 0.2441,-0.595897 0.24411,-0.244103 0.62462,-0.244103 z m 0.96205,3.539488 v 6.605128 h 2.13231 V -31.1 h -5.6718 v -0.954872 h 2.33334 v -5.650257 h -2.26154 V -38.66 Z m 7.6677,-0.157949 q 1.60102,0 2.41949,1.069743 0.81846,1.069744 0.81846,2.864616 0,1.155897 -0.37334,2.046154 -0.37333,0.890256 -1.09846,1.4 -0.72513,0.502564 -1.78051,0.502564 -1.60103,0 -2.42667,-1.076923 -0.82564,-1.076923 -0.82564,-2.857436 0,-1.163077 0.37333,-2.053333 0.37334,-0.897436 1.09847,-1.392821 0.7323,-0.502564 1.79487,-0.502564 z m 0,0.98359 q -0.97641,0 -1.47898,0.725128 -0.49538,0.725128 -0.49538,2.24 0,1.500513 0.4882,2.225641 0.49539,0.717949 1.4718,0.717949 0.97641,0 1.46461,-0.725129 0.49539,-0.725128 0.49539,-2.23282 0,-1.507692 -0.48821,-2.225641 -0.4882,-0.725128 -1.45743,-0.725128 z m 1.18461,-4.709744 0.56,1.033846 -3.00102,1.220513 -0.37334,-0.646154 z m 5.75796,3.884103 v 5.355897 q 0,0.746667 0.30872,1.076923 0.30871,0.330257 0.96205,0.330257 0.62461,0 1.17743,-0.351795 0.56,-0.358975 0.86872,-0.84718 V -38.66 h 1.20616 v 7.56 h -1.02667 l -0.10051,-1.019488 q -0.44513,0.574359 -1.10565,0.883077 -0.65333,0.301539 -1.31384,0.301539 -1.09846,0 -1.6441,-0.581539 -0.53847,-0.588718 -0.53847,-1.644102 V -38.66 Z m 2.85743,-3.884103 0.56,1.033846 -3.00102,1.220513 -0.37333,-0.646154 z m 9.96514,9.792821 q 0,0.459487 0.15077,0.667692 0.15077,0.208205 0.46666,0.301538 l -0.29435,0.84718 q -0.48821,-0.06462 -0.85436,-0.308718 -0.36616,-0.251282 -0.53129,-0.753846 -0.40923,0.524102 -1.02666,0.796923 -0.61026,0.265641 -1.34257,0.265641 -1.13436,0 -1.78769,-0.638975 -0.65333,-0.638974 -0.65333,-1.694359 0,-1.170256 0.91179,-1.794871 0.9118,-0.624616 2.63487,-0.624616 h 1.11283 v -0.631795 q 0,-0.818461 -0.48103,-1.155897 Q 291.1236,-37.82 290.27642,-37.82 q -0.37333,0 -0.87589,0.09333 -0.50257,0.08615 -1.09129,0.294359 l -0.31589,-0.911795 q 0.68923,-0.258461 1.29948,-0.366154 0.61744,-0.107692 1.17026,-0.107692 1.40718,0 2.11795,0.660513 0.71077,0.660513 0.71077,1.780513 z m -3.12308,0.897435 q 0.56,0 1.06257,-0.28 0.50974,-0.287179 0.84718,-0.789743 v -1.945641 h -1.09129 q -1.24923,0 -1.76615,0.430769 -0.50974,0.430769 -0.50974,1.155898 0,1.428717 1.45743,1.428717 z"
         id="text12"
         style="font-size:14px;font-family:'Fira Code';text-anchor:middle;fill:#b9dbfa"
         aria-label="ióúa" />
    </g>
    <!-- root_0_1_2&#45;&gt;root_0_1_2_7 -->
    <g
       id="edge11"
       class="edge">
      <title
         id="title13">root_0_1_2-&gt;root_0_1_2_7</title>
      <path
         fill="none"
         stroke="#b9dbfa"
         stroke-width="2"
         d="M224.39,-77.95C231.72,-72 240.92,-64.53 249.56,-57.52"
         id="path13" />
      <polygon
         fill="#b9dbfa"
         stroke="#b9dbfa"
         stroke-width="2"
         points="251.13,-59.85 255.58,-52.64 247.6,-55.5 251.13,-59.85"
         id="polygon13" />
    </g>
    <!-- root_0_1_2_3_val -->
    <g
       id="node6"
       class="node">
      <title
         id="title14">root_0_1_2_3_val</title>
      <polygon
         fill="none"
         stroke="#486d8c"
         stroke-width="2"
         points="530.79,-157.8 398.01,-157.8 398.01,-129 530.79,-129 530.79,-157.8"
         id="polygon14" />
      <path
         d="m 406.66969,-145.97078 -0.22974,-3.73333 h 1.51487 l -0.22256,3.73333 z m 2.39795,0 -0.21538,-3.73333 h 1.50769 l -0.22974,3.73333 z m 6.94975,7.00718 -1.12718,-0.34461 3.85539,-8.67282 h -4.63795 v -1.00513 h 5.85128 v 0.92615 z m 18.30771,-10.74051 v 8.73744 q 0,0.56 0.34461,0.79692 0.3518,0.22974 0.90462,0.22974 0.33743,0 0.64615,-0.0718 0.3159,-0.0718 0.62462,-0.19385 l 0.32307,0.88308 q -0.30871,0.15077 -0.7682,0.26564 -0.45231,0.12205 -1.02667,0.12205 -1.00513,0 -1.62974,-0.55282 -0.62462,-0.56 -0.62462,-1.54359 v -7.71795 h -2.31897 v -0.95487 z m 6.61949,7.25128 q 0.0503,1.31385 0.68923,1.91693 0.64616,0.59589 1.52205,0.59589 0.58154,0 1.04821,-0.1723 0.46666,-0.17231 0.96923,-0.50975 l 0.56718,0.79693 q -0.5241,0.41641 -1.20616,0.65333 -0.68205,0.23692 -1.39282,0.23692 -1.10564,0 -1.88102,-0.49538 -0.76821,-0.49539 -1.17744,-1.37846 -0.40205,-0.89026 -0.40205,-2.06052 0,-1.14871 0.40205,-2.03897 0.40923,-0.89026 1.14872,-1.4 0.74667,-0.50974 1.7518,-0.50974 1.42871,0 2.24717,0.99076 0.82565,0.99077 0.82565,2.71385 0,0.19385 -0.0144,0.36615 -0.007,0.17231 -0.0144,0.29436 z m 2.05333,-3.37436 q -0.84,0 -1.40718,0.5959 -0.56717,0.5959 -0.63897,1.84513 h 3.94154 q -0.0215,-1.21333 -0.53128,-1.82359 -0.50975,-0.61744 -1.36411,-0.61744 z m 11.0277,5.0759 q 0,0.45949 0.15077,0.66769 0.15077,0.20821 0.46667,0.30154 l -0.29436,0.84718 q -0.48821,-0.0646 -0.85436,-0.30872 -0.36615,-0.25128 -0.53128,-0.75384 -0.40923,0.5241 -1.02667,0.79692 -0.61025,0.26564 -1.34256,0.26564 -1.13436,0 -1.78769,-0.63897 -0.65334,-0.63898 -0.65334,-1.69436 0,-1.17026 0.9118,-1.79487 0.91179,-0.62462 2.63487,-0.62462 h 1.11282 v -0.63179 q 0,-0.81846 -0.48103,-1.1559 -0.47384,-0.34462 -1.32102,-0.34462 -0.37334,0 -0.8759,0.0933 -0.50256,0.0862 -1.09128,0.29436 l -0.3159,-0.9118 q 0.68923,-0.25846 1.29949,-0.36615 0.61743,-0.10769 1.17025,-0.10769 1.40718,0 2.11795,0.66051 0.71077,0.66051 0.71077,1.78051 z m -3.12307,0.89744 q 0.56,0 1.06256,-0.28 0.50974,-0.28718 0.84718,-0.78975 v -1.94564 h -1.09128 q -1.24923,0 -1.76616,0.43077 -0.50974,0.43077 -0.50974,1.1559 0,1.42872 1.45744,1.42872 z m 10.79077,-10.00103 q 0.61026,0 1.10564,0.10769 0.49539,0.1077 0.94051,0.30154 l -0.38769,0.89744 q -0.36615,-0.15795 -0.78256,-0.23692 -0.40923,-0.079 -0.84,-0.079 -1.58667,0 -1.58667,1.25641 v 1.53641 h 2.56308 l -0.12923,0.94769 h -2.43385 v 6.02359 h -1.20615 v -6.02359 h -1.80205 v -0.94769 h 1.80205 v -1.50769 q 0,-0.70359 0.35897,-1.21333 0.36616,-0.50975 0.99077,-0.78257 0.62462,-0.28 1.40718,-0.28 z m 12.76514,10.75487 v -7.56 h 1.02667 l 0.0933,1.04821 q 0.45949,-0.58154 1.14872,-0.89026 0.68923,-0.31589 1.34974,-0.31589 1.11282,0 1.61539,0.58871 0.50974,0.58872 0.50974,1.63693 v 5.4923 h -1.20615 v -4.60205 q 0,-0.77538 -0.0862,-1.24923 -0.0861,-0.47384 -0.36615,-0.69641 -0.27282,-0.22256 -0.84,-0.22256 -0.44513,0 -0.84,0.19384 -0.38769,0.19385 -0.69641,0.48821 -0.30154,0.28718 -0.50256,0.58154 v 5.50666 z m 11.49436,-7.71794 q 1.60103,0 2.41949,1.06974 0.81846,1.06974 0.81846,2.86461 0,1.1559 -0.37333,2.04616 -0.37334,0.89025 -1.09846,1.4 -0.72513,0.50256 -1.78052,0.50256 -1.60102,0 -2.42666,-1.07692 -0.82564,-1.07692 -0.82564,-2.85744 0,-1.16307 0.37333,-2.05333 0.37333,-0.89744 1.09846,-1.39282 0.73231,-0.50256 1.79487,-0.50256 z m 0,0.98358 q -0.97641,0 -1.47897,0.72513 -0.49539,0.72513 -0.49539,2.24 0,1.50052 0.48821,2.22564 0.49538,0.71795 1.47179,0.71795 0.97641,0 1.46462,-0.72513 0.49538,-0.72512 0.49538,-2.23282 0,-1.50769 -0.4882,-2.22564 -0.48821,-0.72513 -1.45744,-0.72513 z m 10.2595,-4.02051 1.20615,0.15077 v 10.6041 h -1.05538 l -0.11487,-0.99794 q -0.42359,0.60307 -0.97641,0.88307 -0.54564,0.28 -1.17026,0.28 -0.98359,0 -1.62256,-0.49538 -0.63898,-0.49539 -0.9477,-1.37846 -0.30871,-0.89026 -0.30871,-2.06052 0,-1.13436 0.35179,-2.02461 0.3518,-0.89744 1.01231,-1.40718 0.66769,-0.51692 1.60102,-0.51692 1.25641,0 2.02462,0.89025 z m -1.70872,4.00616 q -0.94769,0 -1.45743,0.73948 -0.50975,0.73949 -0.50975,2.24 0,2.95795 1.81641,2.95795 0.63898,0 1.09846,-0.35897 0.45949,-0.36616 0.76103,-0.83282 v -3.77641 q -0.30872,-0.45949 -0.74667,-0.71077 -0.43795,-0.25846 -0.96205,-0.25846 z m 6.74873,3.39589 q 0.0503,1.31385 0.68923,1.91693 0.64615,0.59589 1.52205,0.59589 0.58154,0 1.04821,-0.1723 0.46666,-0.17231 0.96923,-0.50975 l 0.56718,0.79693 q -0.52411,0.41641 -1.20616,0.65333 -0.68205,0.23692 -1.39282,0.23692 -1.10564,0 -1.88102,-0.49538 -0.76821,-0.49539 -1.17744,-1.37846 -0.40205,-0.89026 -0.40205,-2.06052 0,-1.14871 0.40205,-2.03897 0.40923,-0.89026 1.14872,-1.4 0.74667,-0.50974 1.75179,-0.50974 1.42872,0 2.24718,0.99076 0.82564,0.99077 0.82564,2.71385 0,0.19385 -0.0144,0.36615 -0.007,0.17231 -0.0144,0.29436 z m 2.05333,-3.37436 q -0.84,0 -1.40718,0.5959 -0.56718,0.5959 -0.63897,1.84513 h 3.94154 q -0.0215,-1.21333 -0.53128,-1.82359 -0.50975,-0.61744 -1.36411,-0.61744 z m 8.18462,5.89436 q 0.8759,0 1.37846,-0.32307 0.50257,-0.32308 0.50257,-0.8759 0,-0.33744 -0.12923,-0.58872 -0.12206,-0.25128 -0.50975,-0.45231 -0.38769,-0.2082 -1.19179,-0.40923 -0.78257,-0.19384 -1.36411,-0.44513 -0.57435,-0.25846 -0.89743,-0.66769 -0.3159,-0.40923 -0.3159,-1.06256 0,-0.95487 0.79692,-1.50769 0.79693,-0.55282 2.07488,-0.55282 0.91179,0 1.58666,0.2441 0.68205,0.2441 1.1559,0.58872 l -0.53128,0.81846 q -0.42359,-0.29436 -0.94769,-0.48103 -0.51693,-0.19384 -1.24923,-0.19384 -0.89026,0 -1.26359,0.28 -0.37334,0.27282 -0.37334,0.71076 0,0.33744 0.17949,0.56 0.18667,0.21539 0.62461,0.3877 0.43795,0.1723 1.20616,0.38051 0.73949,0.20103 1.29231,0.47385 0.55282,0.27282 0.85436,0.71794 0.30871,0.43795 0.30871,1.14154 0,0.80411 -0.45948,1.30667 -0.45949,0.49538 -1.1918,0.72513 -0.72513,0.22256 -1.53641,0.22256 -1.02667,0 -1.75179,-0.29436 -0.71795,-0.30154 -1.20616,-0.72513 l 0.68923,-0.79692 q 0.44513,0.36616 1.01949,0.5959 0.58154,0.22256 1.24923,0.22256 z m 7.17949,-6.03795 -0.22974,-3.73333 h 1.51487 l -0.22257,3.73333 z m 2.39795,0 -0.21539,-3.73333 h 1.5077 l -0.22975,3.73333 z"
         id="text14"
         style="font-size:14px;font-family:'Fira Code';text-anchor:middle;fill:#b9dbfa"
         aria-label="&quot;7 leaf nodes&quot;" />
    </g>
    <!-- root_0_1_2_3&#45;&gt;root_0_1_2_3_val -->
    <g
       id="edge5"
       class="edge">
      <title
         id="title15">root_0_1_2_3-&gt;root_0_1_2_3_val</title>
      <path
         fill="none"
         stroke="#b9dbfa"
         stroke-width="2"
         d="M293,-137.86C313.04,-138.51 351.14,-139.75 386.24,-140.89"
         id="path15" />
      <polygon
         fill="#b9dbfa"
         stroke="#b9dbfa"
         stroke-width="2"
         points="385.9,-143.68 393.99,-141.14 386.08,-138.09 385.9,-143.68"
         id="polygon15" />
    </g>
    <!-- root_0_1_2_4_5 -->
    <g
       id="node8"
       class="node">
      <title
         id="title16">root_0_1_2_4_5</title>
      <path
         fill="none"
         stroke="#486d8c"
         stroke-width="2"
         d="M351.16,-114.8C351.16,-114.8 341.56,-114.8 341.56,-114.8 336.76,-114.8 331.96,-110 331.96,-105.2 331.96,-105.2 331.96,-95.6 331.96,-95.6 331.96,-90.8 336.76,-86 341.56,-86 341.56,-86 351.16,-86 351.16,-86 355.96,-86 360.76,-90.8 360.76,-95.6 360.76,-95.6 360.76,-105.2 360.76,-105.2 360.76,-110 355.96,-114.8 351.16,-114.8"
         id="path16" />
      <path
         d="m 349.79896,-103.66 -2.74975,7.560002 h -1.4 l -2.7282,-7.560002 h 1.27795 l 2.18974,6.46154 2.16103,-6.46154 z"
         id="text16"
         style="font-size:14px;font-family:'Fira Code';text-anchor:middle;fill:#b9dbfa"
         aria-label="v" />
    </g>
    <!-- root_0_1_2_4&#45;&gt;root_0_1_2_4_5 -->
    <g
       id="edge7"
       class="edge">
      <title
         id="title17">root_0_1_2_4-&gt;root_0_1_2_4_5</title>
      <path
         fill="none"
         stroke="#b9dbfa"
         stroke-width="2"
         d="M292.93,-91.73C300.96,-93.06 311.24,-94.76 320.58,-96.3"
         id="path17" />
      <polygon
         fill="#b9dbfa"
         stroke="#b9dbfa"
         stroke-width="2"
         points="319.93,-99.03 328.28,-97.58 320.85,-93.51 319.93,-99.03"
         id="polygon17" />
    </g>
    <!-- root_0_1_2_4_6 -->
    <g
       id="node10"
       class="node">
      <title
         id="title18">root_0_1_2_4_6</title>
      <path
         fill="none"
         stroke="#486d8c"
         stroke-width="2"
         d="M351.16,-71.8C351.16,-71.8 341.56,-71.8 341.56,-71.8 336.76,-71.8 331.96,-67 331.96,-62.2 331.96,-62.2 331.96,-52.6 331.96,-52.6 331.96,-47.8 336.76,-43 341.56,-43 341.56,-43 351.16,-43 351.16,-43 355.96,-43 360.76,-47.8 360.76,-52.6 360.76,-52.6 360.76,-62.2 360.76,-62.2 360.76,-67 355.96,-71.8 351.16,-71.8"
         id="path18" />
      <path
         d="m 346.43896,-63.704101 v 8.737436 q 0,0.56 0.34461,0.796923 0.3518,0.229744 0.90462,0.229744 0.33743,0 0.64615,-0.07179 0.3159,-0.0718 0.62462,-0.193846 l 0.32307,0.883076 q -0.30871,0.15077 -0.7682,0.265641 -0.45231,0.122052 -1.02667,0.122052 -1.00513,0 -1.62974,-0.552821 -0.62462,-0.56 -0.62462,-1.54359 v -7.717948 h -2.31897 v -0.954872 z"
         id="text18"
         style="font-size:14px;font-family:'Fira Code';text-anchor:middle;fill:#b9dbfa"
         aria-label="l" />
    </g>
    <!-- root_0_1_2_4&#45;&gt;root_0_1_2_4_6 -->
    <g
       id="edge9"
       class="edge">
      <title
         id="title19">root_0_1_2_4-&gt;root_0_1_2_4_6</title>
      <path
         fill="none"
         stroke="#b9dbfa"
         stroke-width="2"
         d="M292.93,-82.61C301.22,-78.63 311.93,-73.48 321.5,-68.88"
         id="path19" />
      <polygon
         fill="#b9dbfa"
         stroke="#b9dbfa"
         stroke-width="2"
         points="322.54,-71.48 328.54,-65.49 320.12,-66.43 322.54,-71.48"
         id="polygon19" />
    </g>
    <!-- root_0_1_2_4_5_val -->
    <g
       id="node9"
       class="node">
      <title
         id="title20">root_0_1_2_4_5_val</title>
      <polygon
         fill="none"
         stroke="#486d8c"
         stroke-width="2"
         points="539.04,-114.8 389.76,-114.8 389.76,-86 539.04,-86 539.04,-114.8"
         id="polygon20" />
      <path
         d="m 398.0543,-102.97077 -0.22974,-3.73333 h 1.51487 l -0.22256,3.73333 z m 2.39795,0 -0.21538,-3.73333 h 1.50769 l -0.22974,3.73333 z m 7.50975,-3.17333 q 0.93334,0 1.60103,0.36615 0.66769,0.35898 1.01948,0.98359 0.35898,0.62462 0.35898,1.40718 0,0.68205 -0.23692,1.33539 -0.23693,0.64615 -0.76103,1.3641 -0.51692,0.710768 -1.3641,1.579486 -0.84718,0.868718 -2.06769,1.981539 h 4.65948 l -0.15077,1.026667 h -5.88 v -0.98359 q 1.4,-1.342564 2.28308,-2.268718 0.89026,-0.926154 1.37846,-1.593844 0.48821,-0.67487 0.67487,-1.23487 0.19385,-0.56 0.19385,-1.16308 0,-0.83282 -0.46667,-1.31385 -0.46666,-0.48102 -1.29948,-0.48102 -0.73231,0 -1.19898,0.25128 -0.46666,0.25128 -0.93333,0.8041 l -0.83282,-0.64615 q 0.58872,-0.71795 1.29949,-1.06257 0.71794,-0.35179 1.72307,-0.35179 z m 9.03898,2.70667 q 0.50257,0 0.83282,0.33743 0.33744,0.33744 0.33744,0.81846 0,0.48103 -0.33744,0.82564 -0.33025,0.34462 -0.83282,0.34462 -0.4882,0 -0.82564,-0.34462 -0.33025,-0.34461 -0.33025,-0.82564 0,-0.48102 0.33025,-0.81846 0.33744,-0.33743 0.82564,-0.33743 z m 0,4.961021 q 0.50257,0 0.83282,0.337436 0.33744,0.337436 0.33744,0.811282 0,0.265641 -0.0646,0.538462 -0.0574,0.265641 -0.22256,0.603077 l -1.16308,2.670769 h -1.09128 l 0.68923,-2.850256 q -0.47384,-0.330257 -0.47384,-0.954872 0,-0.481026 0.33025,-0.818462 0.33744,-0.337436 0.82564,-0.337436 z m 6.97129,-5.183591 v 5.355899 q 0,0.746667 0.30872,1.076923 0.30872,0.330256 0.96205,0.330256 0.62462,0 1.17744,-0.351794 0.56,-0.358975 0.86871,-0.84718 V -103.66 h 1.20616 v 7.560002 h -1.02667 l -0.10051,-1.019488 q -0.44513,0.574359 -1.10564,0.883077 -0.65334,0.301539 -1.31385,0.301539 -1.09846,0 -1.6441,-0.581539 -0.53846,-0.588718 -0.53846,-1.644102 V -103.66 Z m 7.48103,7.560002 v -0.926154 h 1.17744 v -5.707688 H 431.4533 V -103.66 h 2.09641 l 0.22257,1.78769 q 0.43795,-0.93333 1.06256,-1.44307 0.62462,-0.50975 1.65128,-0.50975 0.3159,0 0.56,0.0503 0.25129,0.0431 0.50975,0.11487 l -0.17231,2.5559 h -0.99077 v -1.60821 q -0.0287,0 -0.0646,0 -1.73743,0 -2.49128,2.48411 v 3.202048 h 1.53641 v 0.926154 z m 11.40821,-2.362052 q 0.49539,0 0.82564,0.337436 0.33744,0.337436 0.33744,0.811282 0,0.258462 -0.0646,0.524103 -0.0574,0.265641 -0.21539,0.603077 l -1.16308,2.663589 h -1.09128 l 0.68923,-2.835897 q -0.46666,-0.337436 -0.46666,-0.954872 0,-0.473846 0.33025,-0.811282 0.33026,-0.337436 0.81846,-0.337436 z m 6.95693,-5.19795 v 5.355899 q 0,0.746667 0.30872,1.076923 0.30872,0.330256 0.96205,0.330256 0.62462,0 1.17744,-0.351794 0.56,-0.358975 0.86872,-0.84718 V -103.66 h 1.20615 v 7.560002 h -1.02667 l -0.10051,-1.019488 q -0.44513,0.574359 -1.10564,0.883077 -0.65333,0.301539 -1.31385,0.301539 -1.09846,0 -1.6441,-0.581539 -0.53846,-0.588718 -0.53846,-1.644102 V -103.66 Z m 7.48103,7.560002 v -0.926154 h 1.17744 v -5.707688 h -1.17744 V -103.66 h 2.09642 l 0.22256,1.78769 q 0.43795,-0.93333 1.06256,-1.44307 0.62462,-0.50975 1.65129,-0.50975 0.31589,0 0.56,0.0503 0.25128,0.0431 0.50974,0.11487 l -0.17231,2.5559 h -0.99077 v -1.60821 q -0.0287,0 -0.0646,0 -1.73744,0 -2.49129,2.48411 v 3.202048 h 1.53641 v 0.926154 z m 11.40822,-2.362052 q 0.49538,0 0.82564,0.337436 0.33743,0.337436 0.33743,0.811282 0,0.258462 -0.0646,0.524103 -0.0574,0.265641 -0.21539,0.603077 l -1.16307,2.663589 h -1.09129 l 0.68923,-2.835897 q -0.46666,-0.337436 -0.46666,-0.954872 0,-0.473846 0.33025,-0.811282 0.33026,-0.337436 0.81847,-0.337436 z m 5.82256,2.362052 v -0.926154 h 1.17744 v -5.707688 h -1.17744 V -103.66 h 2.09641 l 0.22257,1.78769 q 0.43795,-0.93333 1.06256,-1.44307 0.62462,-0.50975 1.65128,-0.50975 0.3159,0 0.56,0.0503 0.25129,0.0431 0.50975,0.11487 l -0.17231,2.5559 h -0.99077 v -1.60821 q -0.0287,0 -0.0646,0 -1.73743,0 -2.49128,2.48411 v 3.202048 h 1.53641 v 0.926154 z m 11.40822,-11.099492 q 0.40205,0 0.63897,0.24411 0.2441,0.2441 0.2441,0.59589 0,0.36616 -0.2441,0.61744 -0.23692,0.2441 -0.63897,0.2441 -0.38052,0 -0.62462,-0.2441 -0.2441,-0.25128 -0.2441,-0.61744 0,-0.35179 0.2441,-0.59589 0.2441,-0.24411 0.62462,-0.24411 z m 0.96205,3.53949 v 6.60513 h 2.13231 v 0.954872 h -5.6718 v -0.954872 h 2.33334 v -5.65026 h -2.26154 V -103.66 Z m 7.65334,5.19795 q 0.49539,0 0.82564,0.337436 0.33744,0.337436 0.33744,0.811282 0,0.258462 -0.0646,0.524103 -0.0574,0.265641 -0.21538,0.603077 l -1.16308,2.663589 h -1.09128 l 0.68923,-2.835897 q -0.46667,-0.337436 -0.46667,-0.954872 0,-0.473846 0.33026,-0.811282 0.33026,-0.337436 0.81846,-0.337436 z m 6.95693,-5.19795 v 5.355899 q 0,0.746667 0.30872,1.076923 0.30871,0.330256 0.96205,0.330256 0.62461,0 1.17743,-0.351794 0.56,-0.358975 0.86872,-0.84718 V -103.66 h 1.20615 v 7.560002 h -1.02666 l -0.10051,-1.019488 q -0.44513,0.574359 -1.10565,0.883077 -0.65333,0.301539 -1.31384,0.301539 -1.09846,0 -1.6441,-0.581539 -0.53847,-0.588718 -0.53847,-1.644102 V -103.66 Z m 7.48103,7.560002 v -0.926154 h 1.17743 v -5.707688 h -1.17743 V -103.66 h 2.09641 l 0.22256,1.78769 q 0.43795,-0.93333 1.06256,-1.44307 0.62462,-0.50975 1.65129,-0.50975 0.31589,0 0.56,0.0503 0.25128,0.0431 0.50974,0.11487 l -0.17231,2.5559 h -0.99077 v -1.60821 q -0.0287,0 -0.0646,0 -1.73744,0 -2.49128,2.48411 v 3.202048 h 1.53641 v 0.926154 z m 11.11385,-0.832821 q 0.8759,0 1.37846,-0.323077 0.50257,-0.323077 0.50257,-0.875897 0,-0.337436 -0.12923,-0.588718 -0.12205,-0.251282 -0.50975,-0.452308 -0.38769,-0.208205 -1.19179,-0.409231 -0.78257,-0.193846 -1.3641,-0.44513 -0.57436,-0.25846 -0.89744,-0.66769 -0.3159,-0.40923 -0.3159,-1.06256 0,-0.95488 0.79693,-1.5077 0.79692,-0.55282 2.07487,-0.55282 0.91179,0 1.58666,0.24411 0.68206,0.2441 1.1559,0.58871 l -0.53128,0.81846 q -0.42359,-0.29435 -0.94769,-0.48102 -0.51693,-0.19385 -1.24923,-0.19385 -0.89026,0 -1.26359,0.28 -0.37334,0.27282 -0.37334,0.71077 0,0.33744 0.17949,0.56 0.18667,0.21539 0.62462,0.38769 0.43794,0.17231 1.20615,0.38052 0.73949,0.20102 1.29231,0.47384 0.55282,0.272824 0.85436,0.717952 0.30871,0.437949 0.30871,1.141539 0,0.804102 -0.45948,1.306666 -0.45949,0.495385 -1.1918,0.725129 -0.72513,0.222564 -1.53641,0.222564 -1.02666,0 -1.75179,-0.294359 -0.71795,-0.301539 -1.20616,-0.725128 l 0.68923,-0.796924 q 0.44513,0.366154 1.01949,0.595898 0.58154,0.222564 1.24923,0.222564 z m 7.1795,-6.037951 -0.22974,-3.73333 h 1.51487 l -0.22257,3.73333 z m 2.39795,0 -0.21539,-3.73333 h 1.5077 l -0.22975,3.73333 z"
         id="text20"
         style="font-size:14px;font-family:'Fira Code';text-anchor:middle;fill:#b9dbfa"
         aria-label="&quot;2;ur,ur,ri,urs&quot;" />
    </g>
    <!-- root_0_1_2_4_5&#45;&gt;root_0_1_2_4_5_val -->
    <g
       id="edge8"
       class="edge">
      <title
         id="title21">root_0_1_2_4_5-&gt;root_0_1_2_4_5_val</title>
      <path
         fill="none"
         stroke="#b9dbfa"
         stroke-width="2"
         d="M361.59,-100.4C366.28,-100.4 371.88,-100.4 378.02,-100.4"
         id="path21" />
      <polygon
         fill="#b9dbfa"
         stroke="#b9dbfa"
         stroke-width="2"
         points="377.74,-103.2 385.74,-100.4 377.74,-97.6 377.74,-103.2"
         id="polygon21" />
    </g>
    <!-- root_0_1_2_4_6_val -->
    <g
       id="node11"
       class="node">
      <title
         id="title22">root_0_1_2_4_6_val</title>
      <polygon
         fill="none"
         stroke="#486d8c"
         stroke-width="2"
         points="518.42,-71.8 410.39,-71.8 410.39,-43 518.42,-43 518.42,-71.8"
         id="polygon22" />
      <path
         d="m 419.59278,-59.970768 -0.22974,-3.733333 h 1.51487 l -0.22257,3.733333 z m 2.39795,0 -0.21539,-3.733333 h 1.5077 l -0.22975,3.733333 z m 7.50975,-3.173333 q 0.93333,0 1.60102,0.366154 0.6677,0.358974 1.01949,0.98359 0.35898,0.624615 0.35898,1.407179 0,0.682051 -0.23693,1.335385 -0.23692,0.646154 -0.76102,1.364102 -0.51693,0.710769 -1.36411,1.579487 -0.84717,0.868718 -2.06769,1.981539 h 4.65949 l -0.15077,1.026667 h -5.88 v -0.98359 q 1.4,-1.342564 2.28308,-2.268718 0.89025,-0.926154 1.37846,-1.593846 0.4882,-0.674872 0.67487,-1.234872 0.19385,-0.56 0.19385,-1.163077 0,-0.832821 -0.46667,-1.313846 -0.46667,-0.481026 -1.29949,-0.481026 -0.7323,0 -1.19897,0.251282 -0.46667,0.251282 -0.93333,0.804103 l -0.83283,-0.646154 q 0.58872,-0.717949 1.29949,-1.062564 0.71795,-0.351795 1.72308,-0.351795 z m 9.03898,2.706667 q 0.50256,0 0.83282,0.337436 0.33744,0.337435 0.33744,0.818461 0,0.481026 -0.33744,0.825641 -0.33026,0.344615 -0.83282,0.344615 -0.48821,0 -0.82564,-0.344615 -0.33026,-0.344615 -0.33026,-0.825641 0,-0.481026 0.33026,-0.818461 0.33743,-0.337436 0.82564,-0.337436 z m 0,4.961025 q 0.50256,0 0.83282,0.337436 0.33744,0.337436 0.33744,0.811282 0,0.265641 -0.0646,0.538462 -0.0574,0.265641 -0.22256,0.603077 l -1.16308,2.670769 h -1.09128 l 0.68923,-2.850256 q -0.47385,-0.330257 -0.47385,-0.954872 0,-0.481026 0.33026,-0.818462 0.33743,-0.337436 0.82564,-0.337436 z m 6.97129,-5.183589 v 5.355897 q 0,0.746667 0.30872,1.076923 0.30871,0.330256 0.96205,0.330256 0.62461,0 1.17743,-0.351794 0.56,-0.358975 0.86872,-0.84718 v -5.564102 h 1.20615 v 7.56 h -1.02666 l -0.10051,-1.019488 q -0.44513,0.574359 -1.10565,0.883077 -0.65333,0.301539 -1.31384,0.301539 -1.09846,0 -1.6441,-0.581539 -0.53847,-0.588718 -0.53847,-1.644102 v -5.499487 z m 7.48103,7.56 v -0.926154 h 1.17744 v -5.707693 h -1.17744 v -0.926153 h 2.09641 l 0.22256,1.787692 q 0.43795,-0.933333 1.06257,-1.443077 0.62461,-0.509744 1.65128,-0.509744 0.3159,0 0.56,0.05026 0.25128,0.04308 0.50974,0.114872 l -0.1723,2.555897 h -0.99077 v -1.608205 q -0.0287,0 -0.0646,0 -1.73743,0 -2.49128,2.484102 v 3.202052 h 1.53641 v 0.926154 z m 11.40821,-2.362052 q 0.49539,0 0.82564,0.337436 0.33744,0.337436 0.33744,0.811282 0,0.258462 -0.0646,0.524103 -0.0574,0.265641 -0.21538,0.603077 l -1.16308,2.663589 h -1.09128 l 0.68923,-2.835897 q -0.46667,-0.337436 -0.46667,-0.954872 0,-0.473846 0.33026,-0.811282 0.33026,-0.337436 0.81846,-0.337436 z m 8.61539,0 q 0.49539,0 0.82564,0.337436 0.33744,0.337436 0.33744,0.811282 0,0.258462 -0.0646,0.524103 -0.0574,0.265641 -0.21538,0.603077 l -1.16308,2.663589 h -1.09128 l 0.68923,-2.835897 q -0.46667,-0.337436 -0.46667,-0.954872 0,-0.473846 0.33026,-0.811282 0.33026,-0.337436 0.81846,-0.337436 z m 8.61539,-8.737436 q 0.40205,0 0.63898,0.244103 0.2441,0.244102 0.2441,0.595897 0,0.366154 -0.2441,0.617436 -0.23693,0.244103 -0.63898,0.244103 -0.38051,0 -0.62461,-0.244103 -0.24411,-0.251282 -0.24411,-0.617436 0,-0.351795 0.24411,-0.595897 0.2441,-0.244103 0.62461,-0.244103 z m 0.96205,3.539488 v 6.605128 h 2.13231 v 0.954872 h -5.67179 v -0.954872 h 2.33333 v -5.650257 h -2.26154 v -0.954871 z m 7.65334,5.197948 q 0.49539,0 0.82564,0.337436 0.33744,0.337436 0.33744,0.811282 0,0.258462 -0.0646,0.524103 -0.0574,0.265641 -0.21538,0.603077 l -1.16308,2.663589 h -1.09128 l 0.68923,-2.835897 q -0.46666,-0.337436 -0.46666,-0.954872 0,-0.473846 0.33025,-0.811282 0.33026,-0.337436 0.81846,-0.337436 z m 8.32103,1.529231 q 0.8759,0 1.37846,-0.323077 0.50257,-0.323077 0.50257,-0.875897 0,-0.337436 -0.12923,-0.588718 -0.12206,-0.251282 -0.50975,-0.452308 -0.38769,-0.208205 -1.19179,-0.409231 -0.78257,-0.193846 -1.36411,-0.445128 -0.57435,-0.258461 -0.89743,-0.667692 -0.3159,-0.409231 -0.3159,-1.062564 0,-0.954872 0.79692,-1.507693 0.79693,-0.55282 2.07488,-0.55282 0.91179,0 1.58666,0.244102 0.68205,0.244103 1.1559,0.588718 l -0.53128,0.818462 q -0.42359,-0.294359 -0.94769,-0.481026 -0.51693,-0.193846 -1.24923,-0.193846 -0.89026,0 -1.26359,0.28 -0.37334,0.272821 -0.37334,0.710769 0,0.337436 0.17949,0.56 0.18667,0.215385 0.62461,0.387693 0.43795,0.172307 1.20616,0.380512 0.73949,0.201026 1.29231,0.473847 0.55282,0.27282 0.85436,0.717948 0.30871,0.437949 0.30871,1.141539 0,0.804102 -0.45948,1.306666 -0.45949,0.495385 -1.1918,0.725129 -0.72513,0.222564 -1.53641,0.222564 -1.02667,0 -1.75179,-0.294359 -0.71795,-0.301539 -1.20616,-0.725128 l 0.68923,-0.796924 q 0.44513,0.366154 1.01949,0.595898 0.58154,0.222564 1.24923,0.222564 z m 7.1795,-6.037949 -0.22975,-3.733333 h 1.51488 l -0.22257,3.733333 z m 2.39795,0 -0.21539,-3.733333 h 1.50769 l -0.22974,3.733333 z"
         id="text22"
         style="font-size:14px;font-family:'Fira Code';text-anchor:middle;fill:#b9dbfa"
         aria-label="&quot;2;ur,,i,s&quot;" />
    </g>
    <!-- root_0_1_2_4_6&#45;&gt;root_0_1_2_4_6_val -->
    <g
       id="edge10"
       class="edge">
      <title
         id="title23">root_0_1_2_4_6-&gt;root_0_1_2_4_6_val</title>
      <path
         fill="none"
         stroke="#b9dbfa"
         stroke-width="2"
         d="M361.59,-57.4C371.23,-57.4 384.74,-57.4 398.77,-57.4"
         id="path23" />
      <polygon
         fill="#b9dbfa"
         stroke="#b9dbfa"
         stroke-width="2"
         points="398.51,-60.2 406.51,-57.4 398.51,-54.6 398.51,-60.2"
         id="polygon23" />
    </g>
    <!-- root_0_1_2_7_val -->
    <g
       id="node13"
       class="node">
      <title
         id="title24">root_0_1_2_7_val</title>
      <polygon
         fill="none"
         stroke="#486d8c"
         stroke-width="2"
         points="518.42,-28.8 410.39,-28.8 410.39,0 518.42,0 518.42,-28.8"
         id="polygon24" />
      <path
         d="m 419.59278,-16.97077 -0.22974,-3.733333 h 1.51487 l -0.22257,3.733333 z m 2.39795,0 -0.21539,-3.733333 h 1.5077 l -0.22975,3.733333 z m 7.50975,-3.173333 q 0.93333,0 1.60102,0.366154 0.6677,0.358974 1.01949,0.98359 0.35898,0.624615 0.35898,1.407179 0,0.682051 -0.23693,1.335385 -0.23692,0.646154 -0.76102,1.364102 -0.51693,0.71077 -1.36411,1.579487 -0.84717,0.868718 -2.06769,1.981539 h 4.65949 L 432.55894,-10.1 h -5.88 v -0.98359 q 1.4,-1.342564 2.28308,-2.268718 0.89025,-0.926154 1.37846,-1.593846 0.4882,-0.674872 0.67487,-1.234872 0.19385,-0.56 0.19385,-1.163077 0,-0.83282 -0.46667,-1.313846 -0.46667,-0.481026 -1.29949,-0.481026 -0.7323,0 -1.19897,0.251282 -0.46667,0.251282 -0.93333,0.804103 l -0.83283,-0.646154 q 0.58872,-0.717949 1.29949,-1.062564 0.71795,-0.351795 1.72308,-0.351795 z m 9.03898,2.706667 q 0.50256,0 0.83282,0.337436 0.33744,0.337436 0.33744,0.818461 0,0.481026 -0.33744,0.825641 -0.33026,0.344616 -0.83282,0.344616 -0.48821,0 -0.82564,-0.344616 -0.33026,-0.344615 -0.33026,-0.825641 0,-0.481025 0.33026,-0.818461 0.33743,-0.337436 0.82564,-0.337436 z m 0,4.961025 q 0.50256,0 0.83282,0.337436 0.33744,0.337436 0.33744,0.811282 0,0.265641 -0.0646,0.538462 -0.0574,0.265641 -0.22256,0.603077 l -1.16308,2.670769 h -1.09128 l 0.68923,-2.850256 q -0.47385,-0.330257 -0.47385,-0.954872 0,-0.481026 0.33026,-0.818462 0.33743,-0.337436 0.82564,-0.337436 z M 445.51075,-17.66 v 5.355897 q 0,0.746667 0.30872,1.076923 0.30871,0.330257 0.96205,0.330257 0.62461,0 1.17743,-0.351795 0.56,-0.358975 0.86872,-0.84718 V -17.66 h 1.20615 v 7.56 h -1.02666 l -0.10051,-1.019488 q -0.44513,0.574359 -1.10565,0.883077 -0.65333,0.3015388 -1.31384,0.3015388 -1.09846,0 -1.6441,-0.5815388 -0.53847,-0.588718 -0.53847,-1.644102 V -17.66 Z m 7.48103,7.56 v -0.926154 h 1.17744 v -5.707693 h -1.17744 V -17.66 h 2.09641 l 0.22256,1.787692 q 0.43795,-0.933333 1.06257,-1.443077 0.62461,-0.509744 1.65128,-0.509744 0.3159,0 0.56,0.05026 0.25128,0.04308 0.50974,0.114872 l -0.1723,2.555897 h -0.99077 v -1.608205 q -0.0287,0 -0.0646,0 -1.73743,0 -2.49128,2.484102 v 3.202052 h 1.53641 V -10.1 Z m 11.40821,-2.362052 q 0.49539,0 0.82564,0.337436 0.33744,0.337436 0.33744,0.811282 0,0.258462 -0.0646,0.524103 -0.0574,0.265641 -0.21538,0.603077 l -1.16308,2.6635895 h -1.09128 l 0.68923,-2.8358975 q -0.46667,-0.337436 -0.46667,-0.954872 0,-0.473846 0.33026,-0.811282 0.33026,-0.337436 0.81846,-0.337436 z m 8.61539,0 q 0.49539,0 0.82564,0.337436 0.33744,0.337436 0.33744,0.811282 0,0.258462 -0.0646,0.524103 -0.0574,0.265641 -0.21538,0.603077 l -1.16308,2.6635895 h -1.09128 l 0.68923,-2.8358975 q -0.46667,-0.337436 -0.46667,-0.954872 0,-0.473846 0.33026,-0.811282 0.33026,-0.337436 0.81846,-0.337436 z m 8.61539,-8.737436 q 0.40205,0 0.63898,0.244103 0.2441,0.244103 0.2441,0.595897 0,0.366154 -0.2441,0.617436 -0.23693,0.244103 -0.63898,0.244103 -0.38051,0 -0.62461,-0.244103 -0.24411,-0.251282 -0.24411,-0.617436 0,-0.351794 0.24411,-0.595897 0.2441,-0.244103 0.62461,-0.244103 z m 0.96205,3.539488 v 6.605128 h 2.13231 V -10.1 h -5.67179 v -0.954872 h 2.33333 v -5.650257 h -2.26154 V -17.66 Z m 7.65334,5.197948 q 0.49539,0 0.82564,0.337436 0.33744,0.337436 0.33744,0.811282 0,0.258462 -0.0646,0.524103 -0.0574,0.265641 -0.21538,0.603077 l -1.16308,2.6635895 h -1.09128 l 0.68923,-2.8358975 q -0.46666,-0.337436 -0.46666,-0.954872 0,-0.473846 0.33025,-0.811282 0.33026,-0.337436 0.81846,-0.337436 z m 8.32103,1.529231 q 0.8759,0 1.37846,-0.323077 0.50257,-0.323077 0.50257,-0.875897 0,-0.337436 -0.12923,-0.588718 -0.12206,-0.251282 -0.50975,-0.452308 -0.38769,-0.208205 -1.19179,-0.409231 -0.78257,-0.193846 -1.36411,-0.445128 -0.57435,-0.258461 -0.89743,-0.667692 -0.3159,-0.409231 -0.3159,-1.062564 0,-0.954872 0.79692,-1.507693 0.79693,-0.55282 2.07488,-0.55282 0.91179,0 1.58666,0.244102 0.68205,0.244103 1.1559,0.588718 l -0.53128,0.818462 q -0.42359,-0.294359 -0.94769,-0.481026 -0.51693,-0.193846 -1.24923,-0.193846 -0.89026,0 -1.26359,0.28 -0.37334,0.272821 -0.37334,0.710769 0,0.337436 0.17949,0.56 0.18667,0.215385 0.62461,0.387693 0.43795,0.172307 1.20616,0.380513 0.73949,0.201025 1.29231,0.473846 0.55282,0.27282 0.85436,0.717948 0.30871,0.437949 0.30871,1.141539 0,0.804102 -0.45948,1.306667 -0.45949,0.495384 -1.1918,0.725128 -0.72513,0.2225638 -1.53641,0.2225638 -1.02667,0 -1.75179,-0.2943588 -0.71795,-0.301539 -1.20616,-0.725128 l 0.68923,-0.796923 q 0.44513,0.366153 1.01949,0.595897 0.58154,0.222564 1.24923,0.222564 z m 7.1795,-6.037949 -0.22975,-3.733333 h 1.51488 l -0.22257,3.733333 z m 2.39795,0 -0.21539,-3.733333 h 1.50769 l -0.22974,3.733333 z"
         id="text24"
         style="font-size:14px;font-family:'Fira Code';text-anchor:middle;fill:#b9dbfa"
         aria-label="&quot;2;ur,,i,s&quot;" />
    </g>
    <!-- root_0_1_2_7&#45;&gt;root_0_1_2_7_val -->
    <g
       id="edge12"
       class="edge">
      <title
         id="title25">root_0_1_2_7-&gt;root_0_1_2_7_val</title>
      <path
         fill="none"
         stroke="#b9dbfa"
         stroke-width="2"
         d="M303.71,-32.57C327.94,-29.81 365.78,-25.51 398.55,-21.78"
         id="path25" />
      <polygon
         fill="#b9dbfa"
         stroke="#b9dbfa"
         stroke-width="2"
         points="398.8,-24.57 406.43,-20.88 398.17,-19 398.8,-24.57"
         id="polygon25" />
    </g>
  </g>
</svg>
