<?xml version="1.0" encoding="UTF-8" standalone="no"?>
<!DOCTYPE svg PUBLIC "-//W3C//DTD SVG 1.1//EN"
 "http://www.w3.org/Graphics/SVG/1.1/DTD/svg11.dtd">
<!-- Generated by graphviz version 13.1.0 (20250701.0955)
 -->
<!-- Pages: 1 -->
<svg width="589pt" height="218pt"
 viewBox="0.00 0.00 589.00 218.00" xmlns="http://www.w3.org/2000/svg" xmlns:xlink="http://www.w3.org/1999/xlink">
<g id="graph0" class="graph" transform="scale(1 1) rotate(0) translate(4 214)">
<!-- root -->
<g id="node1" class="node">
<title>root</title>
<path fill="none" stroke="#486d8c" stroke-width="2" d="M42.6,-137C42.6,-137 12,-137 12,-137 6,-137 0,-131 0,-125 0,-125 0,-113 0,-113 0,-107 6,-101 12,-101 12,-101 42.6,-101 42.6,-101 48.6,-101 54.6,-107 54.6,-113 54.6,-113 54.6,-125 54.6,-125 54.6,-131 48.6,-137 42.6,-137"/>
<text xml:space="preserve" text-anchor="middle" x="27.3" y="-114.33" font-family="monospace" font-size="14.00" fill="#b9dbfa">root</text>
</g>
<!-- root_0 -->
<g id="node2" class="node">
<title>root_0</title>
<path fill="none" stroke="#486d8c" stroke-width="2" d="M107.6,-137C107.6,-137 95.6,-137 95.6,-137 89.6,-137 83.6,-131 83.6,-125 83.6,-125 83.6,-113 83.6,-113 83.6,-107 89.6,-101 95.6,-101 95.6,-101 107.6,-101 107.6,-101 113.6,-101 119.6,-107 119.6,-113 119.6,-113 119.6,-125 119.6,-125 119.6,-131 113.6,-137 107.6,-137"/>
<text xml:space="preserve" text-anchor="middle" x="101.6" y="-114.33" font-family="monospace" font-size="14.00" fill="#b9dbfa">r</text>
</g>
<!-- root&#45;&gt;root_0 -->
<g id="edge1" class="edge">
<title>root&#45;&gt;root_0</title>
<path fill="none" stroke="#b9dbfa" stroke-width="2" d="M55.22,-119C60.66,-119 66.39,-119 71.88,-119"/>
<polygon fill="#b9dbfa" stroke="#b9dbfa" stroke-width="2" points="71.63,-121.8 79.63,-119 71.63,-116.2 71.63,-121.8"/>
</g>
<!-- root_0_1 -->
<g id="node3" class="node">
<title>root_0_1</title>
<path fill="none" stroke="#486d8c" stroke-width="2" d="M172.6,-137C172.6,-137 160.6,-137 160.6,-137 154.6,-137 148.6,-131 148.6,-125 148.6,-125 148.6,-113 148.6,-113 148.6,-107 154.6,-101 160.6,-101 160.6,-101 172.6,-101 172.6,-101 178.6,-101 184.6,-107 184.6,-113 184.6,-113 184.6,-125 184.6,-125 184.6,-131 178.6,-137 172.6,-137"/>
<text xml:space="preserve" text-anchor="middle" x="166.6" y="-114.33" font-family="monospace" font-size="14.00" fill="#b9dbfa">u</text>
</g>
<!-- root_0&#45;&gt;root_0_1 -->
<g id="edge2" class="edge">
<title>root_0&#45;&gt;root_0_1</title>
<path fill="none" stroke="#b9dbfa" stroke-width="2" d="M120.48,-119C125.72,-119 131.57,-119 137.28,-119"/>
<polygon fill="#b9dbfa" stroke="#b9dbfa" stroke-width="2" points="136.86,-121.8 144.86,-119 136.86,-116.2 136.86,-121.8"/>
</g>
<!-- root_0_1_2 -->
<g id="node4" class="node">
<title>root_0_1_2</title>
<path fill="none" stroke="#486d8c" stroke-width="2" d="M237.6,-137C237.6,-137 225.6,-137 225.6,-137 219.6,-137 213.6,-131 213.6,-125 213.6,-125 213.6,-113 213.6,-113 213.6,-107 219.6,-101 225.6,-101 225.6,-101 237.6,-101 237.6,-101 243.6,-101 249.6,-107 249.6,-113 249.6,-113 249.6,-125 249.6,-125 249.6,-131 243.6,-137 237.6,-137"/>
<text xml:space="preserve" text-anchor="middle" x="231.6" y="-114.33" font-family="monospace" font-size="14.00" fill="#b9dbfa">f</text>
</g>
<!-- root_0_1&#45;&gt;root_0_1_2 -->
<g id="edge3" class="edge">
<title>root_0_1&#45;&gt;root_0_1_2</title>
<path fill="none" stroke="#b9dbfa" stroke-width="2" d="M185.48,-119C190.72,-119 196.57,-119 202.28,-119"/>
<polygon fill="#b9dbfa" stroke="#b9dbfa" stroke-width="2" points="201.86,-121.8 209.86,-119 201.86,-116.2 201.86,-121.8"/>
</g>
<!-- root_0_1_2_3 -->
<g id="node5" class="node">
<title>root_0_1_2_3</title>
<path fill="none" stroke="#486d8c" stroke-width="2" d="M311.9,-202C311.9,-202 299.9,-202 299.9,-202 293.9,-202 287.9,-196 287.9,-190 287.9,-190 287.9,-178 287.9,-178 287.9,-172 293.9,-166 299.9,-166 299.9,-166 311.9,-166 311.9,-166 317.9,-166 323.9,-172 323.9,-178 323.9,-178 323.9,-190 323.9,-190 323.9,-196 317.9,-202 311.9,-202"/>
<text xml:space="preserve" text-anchor="middle" x="305.9" y="-179.32" font-family="monospace" font-size="14.00" fill="#b9dbfa">l</text>
</g>
<!-- root_0_1_2&#45;&gt;root_0_1_2_3 -->
<g id="edge4" class="edge">
<title>root_0_1_2&#45;&gt;root_0_1_2_3</title>
<path fill="none" stroke="#b9dbfa" stroke-width="2" d="M250.47,-135.07C259.08,-142.8 269.55,-152.22 279.01,-160.72"/>
<polygon fill="#b9dbfa" stroke="#b9dbfa" stroke-width="2" points="276.91,-162.6 284.73,-165.87 280.65,-158.44 276.91,-162.6"/>
</g>
<!-- root_0_1_2_4 -->
<g id="node7" class="node">
<title>root_0_1_2_4</title>
<path fill="none" stroke="#486d8c" stroke-width="2" d="M311.9,-137C311.9,-137 299.9,-137 299.9,-137 293.9,-137 287.9,-131 287.9,-125 287.9,-125 287.9,-113 287.9,-113 287.9,-107 293.9,-101 299.9,-101 299.9,-101 311.9,-101 311.9,-101 317.9,-101 323.9,-107 323.9,-113 323.9,-113 323.9,-125 323.9,-125 323.9,-131 317.9,-137 311.9,-137"/>
<text xml:space="preserve" text-anchor="middle" x="305.9" y="-114.33" font-family="monospace" font-size="14.00" fill="#b9dbfa">í</text>
</g>
<!-- root_0_1_2&#45;&gt;root_0_1_2_4 -->
<g id="edge6" class="edge">
<title>root_0_1_2&#45;&gt;root_0_1_2_4</title>
<path fill="none" stroke="#b9dbfa" stroke-width="2" d="M250.47,-119C258.21,-119 267.45,-119 276.11,-119"/>
<polygon fill="#b9dbfa" stroke="#b9dbfa" stroke-width="2" points="275.96,-121.8 283.96,-119 275.96,-116.2 275.96,-121.8"/>
</g>
<!-- root_0_1_2_7 -->
<g id="node12" class="node">
<title>root_0_1_2_7</title>
<path fill="none" stroke="#486d8c" stroke-width="2" d="M321.2,-65C321.2,-65 290.6,-65 290.6,-65 284.6,-65 278.6,-59 278.6,-53 278.6,-53 278.6,-41 278.6,-41 278.6,-35 284.6,-29 290.6,-29 290.6,-29 321.2,-29 321.2,-29 327.2,-29 333.2,-35 333.2,-41 333.2,-41 333.2,-53 333.2,-53 333.2,-59 327.2,-65 321.2,-65"/>
<text xml:space="preserve" text-anchor="middle" x="305.9" y="-42.33" font-family="monospace" font-size="14.00" fill="#b9dbfa">ióúa</text>
</g>
<!-- root_0_1_2&#45;&gt;root_0_1_2_7 -->
<g id="edge11" class="edge">
<title>root_0_1_2&#45;&gt;root_0_1_2_7</title>
<path fill="none" stroke="#b9dbfa" stroke-width="2" d="M250.47,-101.2C258.9,-92.81 269.13,-82.62 278.43,-73.36"/>
<polygon fill="#b9dbfa" stroke="#b9dbfa" stroke-width="2" points="280.13,-75.62 283.83,-67.99 276.18,-71.65 280.13,-75.62"/>
</g>
<!-- root_0_1_2_3_val -->
<g id="node6" class="node">
<title>root_0_1_2_3_val</title>
<polygon fill="none" stroke="#486d8c" stroke-width="2" points="572.55,-210 435.45,-210 435.45,-174 572.55,-174 572.55,-210"/>
<text xml:space="preserve" text-anchor="middle" x="504" y="-187.32" font-family="monospace" font-size="14.00" fill="#b9dbfa">&quot;7 leaf nodes&quot;</text>
</g>
<!-- root_0_1_2_3&#45;&gt;root_0_1_2_3_val -->
<g id="edge5" class="edge">
<title>root_0_1_2_3&#45;&gt;root_0_1_2_3_val</title>
<path fill="none" stroke="#b9dbfa" stroke-width="2" d="M324.65,-184.72C347.13,-185.64 387.36,-187.28 423.93,-188.77"/>
<polygon fill="#b9dbfa" stroke="#b9dbfa" stroke-width="2" points="423.49,-191.56 431.6,-189.09 423.72,-185.96 423.49,-191.56"/>
</g>
<!-- root_0_1_2_4_5 -->
<g id="node8" class="node">
<title>root_0_1_2_4_5</title>
<path fill="none" stroke="#486d8c" stroke-width="2" d="M386.2,-152C386.2,-152 374.2,-152 374.2,-152 368.2,-152 362.2,-146 362.2,-140 362.2,-140 362.2,-128 362.2,-128 362.2,-122 368.2,-116 374.2,-116 374.2,-116 386.2,-116 386.2,-116 392.2,-116 398.2,-122 398.2,-128 398.2,-128 398.2,-140 398.2,-140 398.2,-146 392.2,-152 386.2,-152"/>
<text xml:space="preserve" text-anchor="middle" x="380.2" y="-129.32" font-family="monospace" font-size="14.00" fill="#b9dbfa">v</text>
</g>
<!-- root_0_1_2_4&#45;&gt;root_0_1_2_4_5 -->
<g id="edge7" class="edge">
<title>root_0_1_2_4&#45;&gt;root_0_1_2_4_5</title>
<path fill="none" stroke="#b9dbfa" stroke-width="2" d="M324.77,-122.71C332.59,-124.33 341.96,-126.27 350.71,-128.09"/>
<polygon fill="#b9dbfa" stroke="#b9dbfa" stroke-width="2" points="349.92,-130.78 358.32,-129.67 351.05,-125.3 349.92,-130.78"/>
</g>
<!-- root_0_1_2_4_6 -->
<g id="node10" class="node">
<title>root_0_1_2_4_6</title>
<path fill="none" stroke="#486d8c" stroke-width="2" d="M386.2,-94C386.2,-94 374.2,-94 374.2,-94 368.2,-94 362.2,-88 362.2,-82 362.2,-82 362.2,-70 362.2,-70 362.2,-64 368.2,-58 374.2,-58 374.2,-58 386.2,-58 386.2,-58 392.2,-58 398.2,-64 398.2,-70 398.2,-70 398.2,-82 398.2,-82 398.2,-88 392.2,-94 386.2,-94"/>
<text xml:space="preserve" text-anchor="middle" x="380.2" y="-71.33" font-family="monospace" font-size="14.00" fill="#b9dbfa">l</text>
</g>
<!-- root_0_1_2_4&#45;&gt;root_0_1_2_4_6 -->
<g id="edge9" class="edge">
<title>root_0_1_2_4&#45;&gt;root_0_1_2_4_6</title>
<path fill="none" stroke="#b9dbfa" stroke-width="2" d="M324.77,-108.37C332.94,-103.51 342.8,-97.65 351.87,-92.26"/>
<polygon fill="#b9dbfa" stroke="#b9dbfa" stroke-width="2" points="353.24,-94.7 358.68,-88.2 350.37,-89.89 353.24,-94.7"/>
</g>
<!-- root_0_1_2_4_5_val -->
<g id="node9" class="node">
<title>root_0_1_2_4_5_val</title>
<polygon fill="none" stroke="#486d8c" stroke-width="2" points="580.8,-152 427.2,-152 427.2,-116 580.8,-116 580.8,-152"/>
<text xml:space="preserve" text-anchor="middle" x="504" y="-129.32" font-family="monospace" font-size="14.00" fill="#b9dbfa">&quot;2;ur,ur,ri,urs&quot;</text>
</g>
<!-- root_0_1_2_4_5&#45;&gt;root_0_1_2_4_5_val -->
<g id="edge8" class="edge">
<title>root_0_1_2_4_5&#45;&gt;root_0_1_2_4_5_val</title>
<path fill="none" stroke="#b9dbfa" stroke-width="2" d="M399.17,-134C403.93,-134 409.4,-134 415.28,-134"/>
<polygon fill="#b9dbfa" stroke="#b9dbfa" stroke-width="2" points="415.23,-136.8 423.23,-134 415.23,-131.2 415.23,-136.8"/>
</g>
<!-- root_0_1_2_4_6_val -->
<g id="node11" class="node">
<title>root_0_1_2_4_6_val</title>
<polygon fill="none" stroke="#486d8c" stroke-width="2" points="560.17,-94 447.82,-94 447.82,-58 560.17,-58 560.17,-94"/>
<text xml:space="preserve" text-anchor="middle" x="504" y="-71.33" font-family="monospace" font-size="14.00" fill="#b9dbfa">&quot;2;ur,,i,s&quot;</text>
</g>
<!-- root_0_1_2_4_6&#45;&gt;root_0_1_2_4_6_val -->
<g id="edge10" class="edge">
<title>root_0_1_2_4_6&#45;&gt;root_0_1_2_4_6_val</title>
<path fill="none" stroke="#b9dbfa" stroke-width="2" d="M399.17,-76C409.2,-76 422.38,-76 435.97,-76"/>
<polygon fill="#b9dbfa" stroke="#b9dbfa" stroke-width="2" points="435.89,-78.8 443.89,-76 435.89,-73.2 435.89,-78.8"/>
</g>
<!-- root_0_1_2_7_val -->
<g id="node13" class="node">
<title>root_0_1_2_7_val</title>
<polygon fill="none" stroke="#486d8c" stroke-width="2" points="560.17,-36 447.82,-36 447.82,0 560.17,0 560.17,-36"/>
<text xml:space="preserve" text-anchor="middle" x="504" y="-13.32" font-family="monospace" font-size="14.00" fill="#b9dbfa">&quot;2;ur,,i,s&quot;</text>
</g>
<!-- root_0_1_2_7&#45;&gt;root_0_1_2_7_val -->
<g id="edge12" class="edge">
<title>root_0_1_2_7&#45;&gt;root_0_1_2_7_val</title>
<path fill="none" stroke="#b9dbfa" stroke-width="2" d="M334.17,-42.97C360.49,-39.07 401.39,-33.03 436.34,-27.86"/>
<polygon fill="#b9dbfa" stroke="#b9dbfa" stroke-width="2" points="436.47,-30.67 443.98,-26.73 435.65,-25.13 436.47,-30.67"/>
</g>
</g>
</svg>
