<?xml version="1.0" encoding="UTF-8" standalone="no"?>
<!DOCTYPE svg PUBLIC "-//W3C//DTD SVG 1.1//EN"
 "http://www.w3.org/Graphics/SVG/1.1/DTD/svg11.dtd">
<!-- Generated by graphviz version 13.1.0 (20250701.0955)
 -->
<!-- Pages: 1 -->
<svg width="570pt" height="392pt"
 viewBox="0.00 0.00 570.00 392.00" xmlns="http://www.w3.org/2000/svg" xmlns:xlink="http://www.w3.org/1999/xlink">
<g id="graph0" class="graph" transform="scale(1 1) rotate(0) translate(4 388)">
<!-- root -->
<g id="node1" class="node">
<title>root</title>
<path fill="none" stroke="#486d8c" stroke-width="2" d="M42.6,-181C42.6,-181 12,-181 12,-181 6,-181 0,-175 0,-169 0,-169 0,-157 0,-157 0,-151 6,-145 12,-145 12,-145 42.6,-145 42.6,-145 48.6,-145 54.6,-151 54.6,-157 54.6,-157 54.6,-169 54.6,-169 54.6,-175 48.6,-181 42.6,-181"/>
<text xml:space="preserve" text-anchor="middle" x="27.3" y="-158.32" font-family="monospace" font-size="14.00" fill="#b9dbfa">root</text>
</g>
<!-- root_0 -->
<g id="node2" class="node">
<title>root_0</title>
<path fill="none" stroke="#486d8c" stroke-width="2" d="M107.6,-181C107.6,-181 95.6,-181 95.6,-181 89.6,-181 83.6,-175 83.6,-169 83.6,-169 83.6,-157 83.6,-157 83.6,-151 89.6,-145 95.6,-145 95.6,-145 107.6,-145 107.6,-145 113.6,-145 119.6,-151 119.6,-157 119.6,-157 119.6,-169 119.6,-169 119.6,-175 113.6,-181 107.6,-181"/>
<text xml:space="preserve" text-anchor="middle" x="101.6" y="-158.32" font-family="monospace" font-size="14.00" fill="#b9dbfa">r</text>
</g>
<!-- root&#45;&gt;root_0 -->
<g id="edge1" class="edge">
<title>root&#45;&gt;root_0</title>
<path fill="none" stroke="#b9dbfa" stroke-width="2" d="M55.22,-163C60.66,-163 66.39,-163 71.88,-163"/>
<polygon fill="#b9dbfa" stroke="#b9dbfa" stroke-width="2" points="71.63,-165.8 79.63,-163 71.63,-160.2 71.63,-165.8"/>
</g>
<!-- root_0_1 -->
<g id="node3" class="node">
<title>root_0_1</title>
<path fill="none" stroke="#486d8c" stroke-width="2" d="M172.6,-181C172.6,-181 160.6,-181 160.6,-181 154.6,-181 148.6,-175 148.6,-169 148.6,-169 148.6,-157 148.6,-157 148.6,-151 154.6,-145 160.6,-145 160.6,-145 172.6,-145 172.6,-145 178.6,-145 184.6,-151 184.6,-157 184.6,-157 184.6,-169 184.6,-169 184.6,-175 178.6,-181 172.6,-181"/>
<text xml:space="preserve" text-anchor="middle" x="166.6" y="-158.32" font-family="monospace" font-size="14.00" fill="#b9dbfa">u</text>
</g>
<!-- root_0&#45;&gt;root_0_1 -->
<g id="edge2" class="edge">
<title>root_0&#45;&gt;root_0_1</title>
<path fill="none" stroke="#b9dbfa" stroke-width="2" d="M120.48,-163C125.72,-163 131.57,-163 137.28,-163"/>
<polygon fill="#b9dbfa" stroke="#b9dbfa" stroke-width="2" points="136.86,-165.8 144.86,-163 136.86,-160.2 136.86,-165.8"/>
</g>
<!-- root_0_1_2 -->
<g id="node4" class="node">
<title>root_0_1_2</title>
<path fill="none" stroke="#486d8c" stroke-width="2" d="M237.6,-181C237.6,-181 225.6,-181 225.6,-181 219.6,-181 213.6,-175 213.6,-169 213.6,-169 213.6,-157 213.6,-157 213.6,-151 219.6,-145 225.6,-145 225.6,-145 237.6,-145 237.6,-145 243.6,-145 249.6,-151 249.6,-157 249.6,-157 249.6,-169 249.6,-169 249.6,-175 243.6,-181 237.6,-181"/>
<text xml:space="preserve" text-anchor="middle" x="231.6" y="-158.32" font-family="monospace" font-size="14.00" fill="#b9dbfa">f</text>
</g>
<!-- root_0_1&#45;&gt;root_0_1_2 -->
<g id="edge3" class="edge">
<title>root_0_1&#45;&gt;root_0_1_2</title>
<path fill="none" stroke="#b9dbfa" stroke-width="2" d="M185.48,-163C190.72,-163 196.57,-163 202.28,-163"/>
<polygon fill="#b9dbfa" stroke="#b9dbfa" stroke-width="2" points="201.86,-165.8 209.86,-163 201.86,-160.2 201.86,-165.8"/>
</g>
<!-- root_0_1_2_3 -->
<g id="node5" class="node">
<title>root_0_1_2_3</title>
<path fill="none" stroke="#486d8c" stroke-width="2" d="M302.6,-355C302.6,-355 290.6,-355 290.6,-355 284.6,-355 278.6,-349 278.6,-343 278.6,-343 278.6,-331 278.6,-331 278.6,-325 284.6,-319 290.6,-319 290.6,-319 302.6,-319 302.6,-319 308.6,-319 314.6,-325 314.6,-331 314.6,-331 314.6,-343 314.6,-343 314.6,-349 308.6,-355 302.6,-355"/>
<text xml:space="preserve" text-anchor="middle" x="296.6" y="-332.32" font-family="monospace" font-size="14.00" fill="#b9dbfa">l</text>
</g>
<!-- root_0_1_2&#45;&gt;root_0_1_2_3 -->
<g id="edge4" class="edge">
<title>root_0_1_2&#45;&gt;root_0_1_2_3</title>
<path fill="none" stroke="#b9dbfa" stroke-width="2" d="M239.46,-181.95C250.44,-212.28 272.05,-271.96 285.02,-307.78"/>
<polygon fill="#b9dbfa" stroke="#b9dbfa" stroke-width="2" points="282.36,-308.66 287.72,-315.22 287.63,-306.75 282.36,-308.66"/>
</g>
<!-- root_0_1_2_4 -->
<g id="node7" class="node">
<title>root_0_1_2_4</title>
<path fill="none" stroke="#486d8c" stroke-width="2" d="M302.6,-268C302.6,-268 290.6,-268 290.6,-268 284.6,-268 278.6,-262 278.6,-256 278.6,-256 278.6,-244 278.6,-244 278.6,-238 284.6,-232 290.6,-232 290.6,-232 302.6,-232 302.6,-232 308.6,-232 314.6,-238 314.6,-244 314.6,-244 314.6,-256 314.6,-256 314.6,-262 308.6,-268 302.6,-268"/>
<text xml:space="preserve" text-anchor="middle" x="296.6" y="-245.32" font-family="monospace" font-size="14.00" fill="#b9dbfa">í</text>
</g>
<!-- root_0_1_2&#45;&gt;root_0_1_2_4 -->
<g id="edge6" class="edge">
<title>root_0_1_2&#45;&gt;root_0_1_2_4</title>
<path fill="none" stroke="#b9dbfa" stroke-width="2" d="M246.27,-181.88C254.86,-193.73 266.08,-209.23 275.65,-222.45"/>
<polygon fill="#b9dbfa" stroke="#b9dbfa" stroke-width="2" points="273.22,-223.87 280.18,-228.71 277.76,-220.59 273.22,-223.87"/>
</g>
<!-- root_0_1_2_7 -->
<g id="node12" class="node">
<title>root_0_1_2_7</title>
<path fill="none" stroke="#486d8c" stroke-width="2" d="M302.6,-210C302.6,-210 290.6,-210 290.6,-210 284.6,-210 278.6,-204 278.6,-198 278.6,-198 278.6,-186 278.6,-186 278.6,-180 284.6,-174 290.6,-174 290.6,-174 302.6,-174 302.6,-174 308.6,-174 314.6,-180 314.6,-186 314.6,-186 314.6,-198 314.6,-198 314.6,-204 308.6,-210 302.6,-210"/>
<text xml:space="preserve" text-anchor="middle" x="296.6" y="-187.32" font-family="monospace" font-size="14.00" fill="#b9dbfa">i</text>
</g>
<!-- root_0_1_2&#45;&gt;root_0_1_2_7 -->
<g id="edge11" class="edge">
<title>root_0_1_2&#45;&gt;root_0_1_2_7</title>
<path fill="none" stroke="#b9dbfa" stroke-width="2" d="M250.48,-171.23C255.98,-173.76 262.17,-176.61 268.16,-179.37"/>
<polygon fill="#b9dbfa" stroke="#b9dbfa" stroke-width="2" points="266.7,-181.78 275.14,-182.58 269.04,-176.69 266.7,-181.78"/>
</g>
<!-- root_0_1_2_8 -->
<g id="node14" class="node">
<title>root_0_1_2_8</title>
<path fill="none" stroke="#486d8c" stroke-width="2" d="M302.6,-152C302.6,-152 290.6,-152 290.6,-152 284.6,-152 278.6,-146 278.6,-140 278.6,-140 278.6,-128 278.6,-128 278.6,-122 284.6,-116 290.6,-116 290.6,-116 302.6,-116 302.6,-116 308.6,-116 314.6,-122 314.6,-128 314.6,-128 314.6,-140 314.6,-140 314.6,-146 308.6,-152 302.6,-152"/>
<text xml:space="preserve" text-anchor="middle" x="296.6" y="-129.32" font-family="monospace" font-size="14.00" fill="#b9dbfa">ó</text>
</g>
<!-- root_0_1_2&#45;&gt;root_0_1_2_8 -->
<g id="edge13" class="edge">
<title>root_0_1_2&#45;&gt;root_0_1_2_8</title>
<path fill="none" stroke="#b9dbfa" stroke-width="2" d="M250.48,-154.77C255.98,-152.24 262.17,-149.39 268.16,-146.63"/>
<polygon fill="#b9dbfa" stroke="#b9dbfa" stroke-width="2" points="269.04,-149.31 275.14,-143.42 266.7,-144.22 269.04,-149.31"/>
</g>
<!-- root_0_1_2_9 -->
<g id="node16" class="node">
<title>root_0_1_2_9</title>
<path fill="none" stroke="#486d8c" stroke-width="2" d="M302.6,-94C302.6,-94 290.6,-94 290.6,-94 284.6,-94 278.6,-88 278.6,-82 278.6,-82 278.6,-70 278.6,-70 278.6,-64 284.6,-58 290.6,-58 290.6,-58 302.6,-58 302.6,-58 308.6,-58 314.6,-64 314.6,-70 314.6,-70 314.6,-82 314.6,-82 314.6,-88 308.6,-94 302.6,-94"/>
<text xml:space="preserve" text-anchor="middle" x="296.6" y="-71.33" font-family="monospace" font-size="14.00" fill="#b9dbfa">ú</text>
</g>
<!-- root_0_1_2&#45;&gt;root_0_1_2_9 -->
<g id="edge15" class="edge">
<title>root_0_1_2&#45;&gt;root_0_1_2_9</title>
<path fill="none" stroke="#b9dbfa" stroke-width="2" d="M246.27,-144.12C254.86,-132.27 266.08,-116.77 275.65,-103.55"/>
<polygon fill="#b9dbfa" stroke="#b9dbfa" stroke-width="2" points="277.76,-105.41 280.18,-97.29 273.22,-102.13 277.76,-105.41"/>
</g>
<!-- root_0_1_2_10 -->
<g id="node18" class="node">
<title>root_0_1_2_10</title>
<path fill="none" stroke="#486d8c" stroke-width="2" d="M302.6,-36C302.6,-36 290.6,-36 290.6,-36 284.6,-36 278.6,-30 278.6,-24 278.6,-24 278.6,-12 278.6,-12 278.6,-6 284.6,0 290.6,0 290.6,0 302.6,0 302.6,0 308.6,0 314.6,-6 314.6,-12 314.6,-12 314.6,-24 314.6,-24 314.6,-30 308.6,-36 302.6,-36"/>
<text xml:space="preserve" text-anchor="middle" x="296.6" y="-13.32" font-family="monospace" font-size="14.00" fill="#b9dbfa">a</text>
</g>
<!-- root_0_1_2&#45;&gt;root_0_1_2_10 -->
<g id="edge17" class="edge">
<title>root_0_1_2&#45;&gt;root_0_1_2_10</title>
<path fill="none" stroke="#b9dbfa" stroke-width="2" d="M239.07,-144.14C247.29,-120.87 262.36,-80.3 278.6,-47 278.7,-46.79 278.81,-46.58 278.91,-46.37"/>
<polygon fill="#b9dbfa" stroke="#b9dbfa" stroke-width="2" points="281.29,-47.85 282.59,-39.47 276.35,-45.21 281.29,-47.85"/>
</g>
<!-- root_0_1_2_3_val -->
<g id="node6" class="node">
<title>root_0_1_2_3_val</title>
<polygon fill="none" stroke="#486d8c" stroke-width="2" points="553.95,-384 416.85,-384 416.85,-348 553.95,-348 553.95,-384"/>
<text xml:space="preserve" text-anchor="middle" x="485.4" y="-361.32" font-family="monospace" font-size="14.00" fill="#b9dbfa">&quot;7 leaf nodes&quot;</text>
</g>
<!-- root_0_1_2_3&#45;&gt;root_0_1_2_3_val -->
<g id="edge5" class="edge">
<title>root_0_1_2_3&#45;&gt;root_0_1_2_3_val</title>
<path fill="none" stroke="#b9dbfa" stroke-width="2" d="M315.51,-339.78C336.36,-343.02 372.19,-348.58 405.5,-353.75"/>
<polygon fill="#b9dbfa" stroke="#b9dbfa" stroke-width="2" points="404.88,-356.49 413.22,-354.95 405.74,-350.95 404.88,-356.49"/>
</g>
<!-- root_0_1_2_4_5 -->
<g id="node8" class="node">
<title>root_0_1_2_4_5</title>
<path fill="none" stroke="#486d8c" stroke-width="2" d="M367.6,-326C367.6,-326 355.6,-326 355.6,-326 349.6,-326 343.6,-320 343.6,-314 343.6,-314 343.6,-302 343.6,-302 343.6,-296 349.6,-290 355.6,-290 355.6,-290 367.6,-290 367.6,-290 373.6,-290 379.6,-296 379.6,-302 379.6,-302 379.6,-314 379.6,-314 379.6,-320 373.6,-326 367.6,-326"/>
<text xml:space="preserve" text-anchor="middle" x="361.6" y="-303.32" font-family="monospace" font-size="14.00" fill="#b9dbfa">v</text>
</g>
<!-- root_0_1_2_4&#45;&gt;root_0_1_2_4_5 -->
<g id="edge7" class="edge">
<title>root_0_1_2_4&#45;&gt;root_0_1_2_4_5</title>
<path fill="none" stroke="#b9dbfa" stroke-width="2" d="M315.48,-266.47C321.52,-272.02 328.38,-278.34 334.9,-284.34"/>
<polygon fill="#b9dbfa" stroke="#b9dbfa" stroke-width="2" points="332.88,-286.29 340.66,-289.64 336.67,-282.17 332.88,-286.29"/>
</g>
<!-- root_0_1_2_4_6 -->
<g id="node10" class="node">
<title>root_0_1_2_4_6</title>
<path fill="none" stroke="#486d8c" stroke-width="2" d="M367.6,-268C367.6,-268 355.6,-268 355.6,-268 349.6,-268 343.6,-262 343.6,-256 343.6,-256 343.6,-244 343.6,-244 343.6,-238 349.6,-232 355.6,-232 355.6,-232 367.6,-232 367.6,-232 373.6,-232 379.6,-238 379.6,-244 379.6,-244 379.6,-256 379.6,-256 379.6,-262 373.6,-268 367.6,-268"/>
<text xml:space="preserve" text-anchor="middle" x="361.6" y="-245.32" font-family="monospace" font-size="14.00" fill="#b9dbfa">l</text>
</g>
<!-- root_0_1_2_4&#45;&gt;root_0_1_2_4_6 -->
<g id="edge9" class="edge">
<title>root_0_1_2_4&#45;&gt;root_0_1_2_4_6</title>
<path fill="none" stroke="#b9dbfa" stroke-width="2" d="M315.48,-250C320.72,-250 326.57,-250 332.28,-250"/>
<polygon fill="#b9dbfa" stroke="#b9dbfa" stroke-width="2" points="331.86,-252.8 339.86,-250 331.86,-247.2 331.86,-252.8"/>
</g>
<!-- root_0_1_2_4_5_val -->
<g id="node9" class="node">
<title>root_0_1_2_4_5_val</title>
<polygon fill="none" stroke="#486d8c" stroke-width="2" points="562.2,-326 408.6,-326 408.6,-290 562.2,-290 562.2,-326"/>
<text xml:space="preserve" text-anchor="middle" x="485.4" y="-303.32" font-family="monospace" font-size="14.00" fill="#b9dbfa">&quot;2;ur,ur,ri,urs&quot;</text>
</g>
<!-- root_0_1_2_4_5&#45;&gt;root_0_1_2_4_5_val -->
<g id="edge8" class="edge">
<title>root_0_1_2_4_5&#45;&gt;root_0_1_2_4_5_val</title>
<path fill="none" stroke="#b9dbfa" stroke-width="2" d="M380.57,-308C385.33,-308 390.8,-308 396.68,-308"/>
<polygon fill="#b9dbfa" stroke="#b9dbfa" stroke-width="2" points="396.63,-310.8 404.63,-308 396.63,-305.2 396.63,-310.8"/>
</g>
<!-- root_0_1_2_4_6_val -->
<g id="node11" class="node">
<title>root_0_1_2_4_6_val</title>
<polygon fill="none" stroke="#486d8c" stroke-width="2" points="541.57,-268 429.22,-268 429.22,-232 541.57,-232 541.57,-268"/>
<text xml:space="preserve" text-anchor="middle" x="485.4" y="-245.32" font-family="monospace" font-size="14.00" fill="#b9dbfa">&quot;2;ur,,i,s&quot;</text>
</g>
<!-- root_0_1_2_4_6&#45;&gt;root_0_1_2_4_6_val -->
<g id="edge10" class="edge">
<title>root_0_1_2_4_6&#45;&gt;root_0_1_2_4_6_val</title>
<path fill="none" stroke="#b9dbfa" stroke-width="2" d="M380.57,-250C390.6,-250 403.78,-250 417.37,-250"/>
<polygon fill="#b9dbfa" stroke="#b9dbfa" stroke-width="2" points="417.29,-252.8 425.29,-250 417.29,-247.2 417.29,-252.8"/>
</g>
<!-- root_0_1_2_7_val -->
<g id="node13" class="node">
<title>root_0_1_2_7_val</title>
<polygon fill="none" stroke="#486d8c" stroke-width="2" points="541.57,-210 429.22,-210 429.22,-174 541.57,-174 541.57,-210"/>
<text xml:space="preserve" text-anchor="middle" x="485.4" y="-187.32" font-family="monospace" font-size="14.00" fill="#b9dbfa">&quot;2;ur,,i,s&quot;</text>
</g>
<!-- root_0_1_2_7&#45;&gt;root_0_1_2_7_val -->
<g id="edge12" class="edge">
<title>root_0_1_2_7&#45;&gt;root_0_1_2_7_val</title>
<path fill="none" stroke="#b9dbfa" stroke-width="2" d="M315.51,-192C338.95,-192 381.33,-192 417.77,-192"/>
<polygon fill="#b9dbfa" stroke="#b9dbfa" stroke-width="2" points="417.34,-194.8 425.34,-192 417.34,-189.2 417.34,-194.8"/>
</g>
<!-- root_0_1_2_8_val -->
<g id="node15" class="node">
<title>root_0_1_2_8_val</title>
<polygon fill="none" stroke="#486d8c" stroke-width="2" points="541.57,-152 429.22,-152 429.22,-116 541.57,-116 541.57,-152"/>
<text xml:space="preserve" text-anchor="middle" x="485.4" y="-129.32" font-family="monospace" font-size="14.00" fill="#b9dbfa">&quot;2;ur,,i,s&quot;</text>
</g>
<!-- root_0_1_2_8&#45;&gt;root_0_1_2_8_val -->
<g id="edge14" class="edge">
<title>root_0_1_2_8&#45;&gt;root_0_1_2_8_val</title>
<path fill="none" stroke="#b9dbfa" stroke-width="2" d="M315.51,-134C338.95,-134 381.33,-134 417.77,-134"/>
<polygon fill="#b9dbfa" stroke="#b9dbfa" stroke-width="2" points="417.34,-136.8 425.34,-134 417.34,-131.2 417.34,-136.8"/>
</g>
<!-- root_0_1_2_9_val -->
<g id="node17" class="node">
<title>root_0_1_2_9_val</title>
<polygon fill="none" stroke="#486d8c" stroke-width="2" points="541.57,-94 429.22,-94 429.22,-58 541.57,-58 541.57,-94"/>
<text xml:space="preserve" text-anchor="middle" x="485.4" y="-71.33" font-family="monospace" font-size="14.00" fill="#b9dbfa">&quot;2;ur,,i,s&quot;</text>
</g>
<!-- root_0_1_2_9&#45;&gt;root_0_1_2_9_val -->
<g id="edge16" class="edge">
<title>root_0_1_2_9&#45;&gt;root_0_1_2_9_val</title>
<path fill="none" stroke="#b9dbfa" stroke-width="2" d="M315.51,-76C338.95,-76 381.33,-76 417.77,-76"/>
<polygon fill="#b9dbfa" stroke="#b9dbfa" stroke-width="2" points="417.34,-78.8 425.34,-76 417.34,-73.2 417.34,-78.8"/>
</g>
<!-- root_0_1_2_10_val -->
<g id="node19" class="node">
<title>root_0_1_2_10_val</title>
<polygon fill="none" stroke="#486d8c" stroke-width="2" points="541.57,-36 429.22,-36 429.22,0 541.57,0 541.57,-36"/>
<text xml:space="preserve" text-anchor="middle" x="485.4" y="-13.32" font-family="monospace" font-size="14.00" fill="#b9dbfa">&quot;2;ur,,i,s&quot;</text>
</g>
<!-- root_0_1_2_10&#45;&gt;root_0_1_2_10_val -->
<g id="edge18" class="edge">
<title>root_0_1_2_10&#45;&gt;root_0_1_2_10_val</title>
<path fill="none" stroke="#b9dbfa" stroke-width="2" d="M315.51,-18C338.95,-18 381.33,-18 417.77,-18"/>
<polygon fill="#b9dbfa" stroke="#b9dbfa" stroke-width="2" points="417.34,-20.8 425.34,-18 417.34,-15.2 417.34,-20.8"/>
</g>
</g>
</svg>
