<?xml version="1.0" encoding="UTF-8" standalone="no"?>
<!DOCTYPE svg PUBLIC "-//W3C//DTD SVG 1.1//EN"
 "http://www.w3.org/Graphics/SVG/1.1/DTD/svg11.dtd">
<!-- Generated by graphviz version 13.1.0 (20250701.0955)
 -->
<!-- Pages: 1 -->
<svg width="577pt" height="44pt"
 viewBox="0.00 0.00 577.00 44.00" xmlns="http://www.w3.org/2000/svg" xmlns:xlink="http://www.w3.org/1999/xlink">
<g id="graph0" class="graph" transform="scale(1 1) rotate(0) translate(4 40)">
<!-- root -->
<g id="node1" class="node">
<title>root</title>
<path fill="none" stroke="#486d8c" stroke-width="2" d="M42.6,-36C42.6,-36 12,-36 12,-36 6,-36 0,-30 0,-24 0,-24 0,-12 0,-12 0,-6 6,0 12,0 12,0 42.6,0 42.6,0 48.6,0 54.6,-6 54.6,-12 54.6,-12 54.6,-24 54.6,-24 54.6,-30 48.6,-36 42.6,-36"/>
<text xml:space="preserve" text-anchor="middle" x="27.3" y="-13.32" font-family="monospace" font-size="14.00" fill="#b9dbfa">root</text>
</g>
<!-- root_0 -->
<g id="node2" class="node">
<title>root_0</title>
<path fill="none" stroke="#486d8c" stroke-width="2" d="M107.6,-36C107.6,-36 95.6,-36 95.6,-36 89.6,-36 83.6,-30 83.6,-24 83.6,-24 83.6,-12 83.6,-12 83.6,-6 89.6,0 95.6,0 95.6,0 107.6,0 107.6,0 113.6,0 119.6,-6 119.6,-12 119.6,-12 119.6,-24 119.6,-24 119.6,-30 113.6,-36 107.6,-36"/>
<text xml:space="preserve" text-anchor="middle" x="101.6" y="-13.32" font-family="monospace" font-size="14.00" fill="#b9dbfa">H</text>
</g>
<!-- root&#45;&gt;root_0 -->
<g id="edge1" class="edge">
<title>root&#45;&gt;root_0</title>
<path fill="none" stroke="#b9dbfa" stroke-width="2" d="M55.22,-18C60.66,-18 66.39,-18 71.88,-18"/>
<polygon fill="#b9dbfa" stroke="#b9dbfa" stroke-width="2" points="71.63,-20.8 79.63,-18 71.63,-15.2 71.63,-20.8"/>
</g>
<!-- root_0_1 -->
<g id="node3" class="node">
<title>root_0_1</title>
<path fill="none" stroke="#486d8c" stroke-width="2" d="M172.6,-36C172.6,-36 160.6,-36 160.6,-36 154.6,-36 148.6,-30 148.6,-24 148.6,-24 148.6,-12 148.6,-12 148.6,-6 154.6,0 160.6,0 160.6,0 172.6,0 172.6,0 178.6,0 184.6,-6 184.6,-12 184.6,-12 184.6,-24 184.6,-24 184.6,-30 178.6,-36 172.6,-36"/>
<text xml:space="preserve" text-anchor="middle" x="166.6" y="-13.32" font-family="monospace" font-size="14.00" fill="#b9dbfa">e</text>
</g>
<!-- root_0&#45;&gt;root_0_1 -->
<g id="edge2" class="edge">
<title>root_0&#45;&gt;root_0_1</title>
<path fill="none" stroke="#b9dbfa" stroke-width="2" d="M120.48,-18C125.72,-18 131.57,-18 137.28,-18"/>
<polygon fill="#b9dbfa" stroke="#b9dbfa" stroke-width="2" points="136.86,-20.8 144.86,-18 136.86,-15.2 136.86,-20.8"/>
</g>
<!-- root_0_1_2 -->
<g id="node4" class="node">
<title>root_0_1_2</title>
<path fill="none" stroke="#486d8c" stroke-width="2" d="M237.6,-36C237.6,-36 225.6,-36 225.6,-36 219.6,-36 213.6,-30 213.6,-24 213.6,-24 213.6,-12 213.6,-12 213.6,-6 219.6,0 225.6,0 225.6,0 237.6,0 237.6,0 243.6,0 249.6,-6 249.6,-12 249.6,-12 249.6,-24 249.6,-24 249.6,-30 243.6,-36 237.6,-36"/>
<text xml:space="preserve" text-anchor="middle" x="231.6" y="-13.32" font-family="monospace" font-size="14.00" fill="#b9dbfa">i</text>
</g>
<!-- root_0_1&#45;&gt;root_0_1_2 -->
<g id="edge3" class="edge">
<title>root_0_1&#45;&gt;root_0_1_2</title>
<path fill="none" stroke="#b9dbfa" stroke-width="2" d="M185.48,-18C190.72,-18 196.57,-18 202.28,-18"/>
<polygon fill="#b9dbfa" stroke="#b9dbfa" stroke-width="2" points="201.86,-20.8 209.86,-18 201.86,-15.2 201.86,-20.8"/>
</g>
<!-- root_0_1_2_3 -->
<g id="node5" class="node">
<title>root_0_1_2_3</title>
<path fill="none" stroke="#486d8c" stroke-width="2" d="M302.6,-36C302.6,-36 290.6,-36 290.6,-36 284.6,-36 278.6,-30 278.6,-24 278.6,-24 278.6,-12 278.6,-12 278.6,-6 284.6,0 290.6,0 290.6,0 302.6,0 302.6,0 308.6,0 314.6,-6 314.6,-12 314.6,-12 314.6,-24 314.6,-24 314.6,-30 308.6,-36 302.6,-36"/>
<text xml:space="preserve" text-anchor="middle" x="296.6" y="-13.32" font-family="monospace" font-size="14.00" fill="#b9dbfa">m</text>
</g>
<!-- root_0_1_2&#45;&gt;root_0_1_2_3 -->
<g id="edge4" class="edge">
<title>root_0_1_2&#45;&gt;root_0_1_2_3</title>
<path fill="none" stroke="#b9dbfa" stroke-width="2" d="M250.48,-18C255.72,-18 261.57,-18 267.28,-18"/>
<polygon fill="#b9dbfa" stroke="#b9dbfa" stroke-width="2" points="266.86,-20.8 274.86,-18 266.86,-15.2 266.86,-20.8"/>
</g>
<!-- root_0_1_2_3_4 -->
<g id="node6" class="node">
<title>root_0_1_2_3_4</title>
<path fill="none" stroke="#486d8c" stroke-width="2" d="M367.6,-36C367.6,-36 355.6,-36 355.6,-36 349.6,-36 343.6,-30 343.6,-24 343.6,-24 343.6,-12 343.6,-12 343.6,-6 349.6,0 355.6,0 355.6,0 367.6,0 367.6,0 373.6,0 379.6,-6 379.6,-12 379.6,-12 379.6,-24 379.6,-24 379.6,-30 373.6,-36 367.6,-36"/>
<text xml:space="preserve" text-anchor="middle" x="361.6" y="-13.32" font-family="monospace" font-size="14.00" fill="#b9dbfa">i</text>
</g>
<!-- root_0_1_2_3&#45;&gt;root_0_1_2_3_4 -->
<g id="edge5" class="edge">
<title>root_0_1_2_3&#45;&gt;root_0_1_2_3_4</title>
<path fill="none" stroke="#b9dbfa" stroke-width="2" d="M315.48,-18C320.72,-18 326.57,-18 332.28,-18"/>
<polygon fill="#b9dbfa" stroke="#b9dbfa" stroke-width="2" points="331.86,-20.8 339.86,-18 331.86,-15.2 331.86,-20.8"/>
</g>
<!-- root_0_1_2_3_4_5 -->
<g id="node7" class="node">
<title>root_0_1_2_3_4_5</title>
<path fill="none" stroke="#486d8c" stroke-width="2" d="M432.6,-36C432.6,-36 420.6,-36 420.6,-36 414.6,-36 408.6,-30 408.6,-24 408.6,-24 408.6,-12 408.6,-12 408.6,-6 414.6,0 420.6,0 420.6,0 432.6,0 432.6,0 438.6,0 444.6,-6 444.6,-12 444.6,-12 444.6,-24 444.6,-24 444.6,-30 438.6,-36 432.6,-36"/>
<text xml:space="preserve" text-anchor="middle" x="426.6" y="-13.32" font-family="monospace" font-size="14.00" fill="#b9dbfa">r</text>
</g>
<!-- root_0_1_2_3_4&#45;&gt;root_0_1_2_3_4_5 -->
<g id="edge6" class="edge">
<title>root_0_1_2_3_4&#45;&gt;root_0_1_2_3_4_5</title>
<path fill="none" stroke="#b9dbfa" stroke-width="2" d="M380.48,-18C385.72,-18 391.57,-18 397.28,-18"/>
<polygon fill="#b9dbfa" stroke="#b9dbfa" stroke-width="2" points="396.86,-20.8 404.86,-18 396.86,-15.2 396.86,-20.8"/>
</g>
<!-- root_0_1_2_3_4_5_val -->
<g id="node8" class="node">
<title>root_0_1_2_3_4_5_val</title>
<polygon fill="none" stroke="#486d8c" stroke-width="2" points="569.45,-36 473.6,-36 473.6,0 569.45,0 569.45,-36"/>
<text xml:space="preserve" text-anchor="middle" x="521.52" y="-13.32" font-family="monospace" font-size="14.00" fill="#b9dbfa">&quot;1;r,,,s&quot;</text>
</g>
<!-- root_0_1_2_3_4_5&#45;&gt;root_0_1_2_3_4_5_val -->
<g id="edge7" class="edge">
<title>root_0_1_2_3_4_5&#45;&gt;root_0_1_2_3_4_5_val</title>
<path fill="none" stroke="#b9dbfa" stroke-width="2" d="M445.52,-18C450.46,-18 456.11,-18 462.04,-18"/>
<polygon fill="#b9dbfa" stroke="#b9dbfa" stroke-width="2" points="461.9,-20.8 469.9,-18 461.9,-15.2 461.9,-20.8"/>
</g>
</g>
</svg>
