<?xml version="1.0" encoding="UTF-8" standalone="no"?>
<!-- Generated by graphviz version 13.1.0 (20250701.0955)
 -->

<!-- Pages: 1 -->

<svg
   width="526pt"
   height="37pt"
   viewBox="0.00 0.00 526.00 37.00"
   version="1.1"
   id="svg15"
   xmlns="http://www.w3.org/2000/svg"
   xmlns:svg="http://www.w3.org/2000/svg">
  <defs
     id="defs15" />
  <g
     id="graph0"
     class="graph"
     transform="scale(1 1) rotate(0) translate(4 32.8)">
    <!-- root -->
    <g
       id="node1"
       class="node">
      <title
         id="title1">root</title>
      <path
         fill="none"
         stroke="#486d8c"
         stroke-width="2"
         d="M40.68,-28.8C40.68,-28.8 9.6,-28.8 9.6,-28.8 4.8,-28.8 0,-24 0,-19.2 0,-19.2 0,-9.6 0,-9.6 0,-4.8 4.8,0 9.6,0 9.6,0 40.68,0 40.68,0 45.48,0 50.28,-4.8 50.28,-9.6 50.28,-9.6 50.28,-19.2 50.28,-19.2 50.28,-24 45.48,-28.8 40.68,-28.8"
         id="path1" />
      <path
         d="m 9.4240896,-10.1 v -0.926154 h 1.1774364 v -5.707693 H 9.4240896 V -17.66 H 11.5205 l 0.222564,1.787692 q 0.437949,-0.933333 1.062564,-1.443077 0.624615,-0.509744 1.651282,-0.509744 0.315898,0 0.56,0.05026 0.251282,0.04308 0.509744,0.114872 l -0.172308,2.555897 h -0.990769 v -1.608205 q -0.02872,0 -0.06462,0 -1.737435,0 -2.491282,2.484102 v 3.202052 H 13.34409 V -10.1 Z M 20.84666,-17.817949 q 1.601026,0 2.419487,1.069743 0.818462,1.069744 0.818462,2.864616 0,1.155897 -0.373334,2.046154 -0.373333,0.890256 -1.098461,1.4 -0.725128,0.5025638 -1.780513,0.5025638 -1.601026,0 -2.426667,-1.0769228 -0.825641,-1.076923 -0.825641,-2.857436 0,-1.163077 0.373334,-2.053333 0.373333,-0.897436 1.098461,-1.392821 0.732308,-0.502564 1.794872,-0.502564 z m 0,0.98359 q -0.97641,0 -1.478974,0.725128 -0.495385,0.725128 -0.495385,2.24 0,1.500513 0.488205,2.225641 0.495385,0.717949 1.471795,0.717949 0.97641,0 1.464615,-0.725129 0.495385,-0.725128 0.495385,-2.23282 0,-1.507692 -0.488205,-2.225641 -0.488205,-0.725128 -1.457436,-0.725128 z m 8.615391,-0.98359 q 1.601025,0 2.419487,1.069743 0.818461,1.069744 0.818461,2.864616 0,1.155897 -0.373333,2.046154 -0.373333,0.890256 -1.098461,1.4 -0.725129,0.5025638 -1.780513,0.5025638 -1.601026,0 -2.426667,-1.0769228 -0.825641,-1.076923 -0.825641,-2.857436 0,-1.163077 0.373333,-2.053333 0.373334,-0.897436 1.098462,-1.392821 0.732308,-0.502564 1.794872,-0.502564 z m 0,0.98359 q -0.976411,0 -1.478975,0.725128 -0.495384,0.725128 -0.495384,2.24 0,1.500513 0.488205,2.225641 0.495384,0.717949 1.471795,0.717949 0.97641,0 1.464615,-0.725129 0.495385,-0.725128 0.495385,-2.23282 0,-1.507692 -0.488205,-2.225641 -0.488206,-0.725128 -1.457436,-0.725128 z m 11.738467,6.353846 q -0.387692,0.258461 -0.940512,0.402051 -0.552821,0.1435898 -1.084103,0.1435898 -1.220513,0 -1.881026,-0.6389748 -0.660512,-0.638974 -0.660512,-1.644102 v -4.508718 H 34.896929 V -17.66 h 1.737436 v -1.715898 l 1.206153,-0.14359 V -17.66 h 2.613334 l -0.14359,0.933333 h -2.469744 v 4.494359 q 0,0.631795 0.330257,0.962051 0.337436,0.330257 1.11282,0.330257 0.42359,0 0.782564,-0.100513 0.358975,-0.100513 0.667693,-0.258462 z"
         id="text1"
         style="font-size:14px;font-family:'Fira Code';text-anchor:middle;fill:#b9dbfa"
         aria-label="root" />
    </g>
    <!-- root_0 -->
    <g
       id="node2"
       class="node">
      <title
         id="title2">root_0</title>
      <path
         fill="none"
         stroke="#486d8c"
         stroke-width="2"
         d="M98.48,-28.8C98.48,-28.8 88.88,-28.8 88.88,-28.8 84.08,-28.8 79.28,-24 79.28,-19.2 79.28,-19.2 79.28,-9.6 79.28,-9.6 79.28,-4.8 84.08,0 88.88,0 88.88,0 98.48,0 98.48,0 103.28,0 108.08,-4.8 108.08,-9.6 108.08,-9.6 108.08,-19.2 108.08,-19.2 108.08,-24 103.28,-28.8 98.48,-28.8"
         id="path2" />
      <path
         d="m 95.546664,-10.1 v -4.688206 H 91.813331 V -10.1 h -1.242052 v -9.886154 h 1.242052 v 4.178461 h 3.733333 v -4.178461 h 1.242051 V -10.1 Z"
         id="text2"
         style="font-size:14px;font-family:'Fira Code';text-anchor:middle;fill:#b9dbfa"
         aria-label="H" />
    </g>
    <!-- root&#45;&gt;root_0 -->
    <g
       id="edge1"
       class="edge">
      <title
         id="title3">root-&gt;root_0</title>
      <path
         fill="none"
         stroke="#b9dbfa"
         stroke-width="2"
         d="M50.92,-14.4C56.45,-14.4 62.31,-14.4 67.84,-14.4"
         id="path3" />
      <polygon
         fill="#b9dbfa"
         stroke="#b9dbfa"
         stroke-width="2"
         points="67.49,-17.2 75.49,-14.4 67.49,-11.6 67.49,-17.2"
         id="polygon3" />
    </g>
    <!-- root_0_1 -->
    <g
       id="node3"
       class="node">
      <title
         id="title4">root_0_1</title>
      <path
         fill="none"
         stroke="#486d8c"
         stroke-width="2"
         d="M156.28,-28.8C156.28,-28.8 146.68,-28.8 146.68,-28.8 141.88,-28.8 137.08,-24 137.08,-19.2 137.08,-19.2 137.08,-9.6 137.08,-9.6 137.08,-4.8 141.88,0 146.68,0 146.68,0 156.28,0 156.28,0 161.08,0 165.88,-4.8 165.88,-9.6 165.88,-9.6 165.88,-19.2 165.88,-19.2 165.88,-24 161.08,-28.8 156.28,-28.8"
         id="path4" />
      <path
         d="m 149.56307,-13.452821 q 0.0503,1.313846 0.68923,1.916923 0.64615,0.595898 1.52205,0.595898 0.58154,0 1.04821,-0.172308 0.46666,-0.172308 0.96923,-0.509744 l 0.56718,0.796923 q -0.52411,0.416411 -1.20616,0.653334 -0.68205,0.2369228 -1.39282,0.2369228 -1.10564,0 -1.88102,-0.4953848 -0.76821,-0.495384 -1.17744,-1.378461 -0.40205,-0.890257 -0.40205,-2.060513 0,-1.148718 0.40205,-2.038975 0.40923,-0.890256 1.14872,-1.4 0.74667,-0.509743 1.75179,-0.509743 1.42872,0 2.24718,0.990769 0.82564,0.990769 0.82564,2.713846 0,0.193846 -0.0144,0.366154 -0.007,0.172308 -0.0144,0.294359 z m 2.05333,-3.374359 q -0.84,0 -1.40718,0.595898 -0.56718,0.595897 -0.63897,1.845128 h 3.94154 q -0.0215,-1.213334 -0.53128,-1.82359 -0.50975,-0.617436 -1.36411,-0.617436 z"
         id="text4"
         style="font-size:14px;font-family:'Fira Code';text-anchor:middle;fill:#b9dbfa"
         aria-label="e" />
    </g>
    <!-- root_0&#45;&gt;root_0_1 -->
    <g
       id="edge2"
       class="edge">
      <title
         id="title5">root_0-&gt;root_0_1</title>
      <path
         fill="none"
         stroke="#b9dbfa"
         stroke-width="2"
         d="M109.05,-14.4C114.03,-14.4 119.78,-14.4 125.37,-14.4"
         id="path5" />
      <polygon
         fill="#b9dbfa"
         stroke="#b9dbfa"
         stroke-width="2"
         points="125.32,-17.2 133.32,-14.4 125.32,-11.6 125.32,-17.2"
         id="polygon5" />
    </g>
    <!-- root_0_1_2 -->
    <g
       id="node4"
       class="node">
      <title
         id="title6">root_0_1_2</title>
      <path
         fill="none"
         stroke="#486d8c"
         stroke-width="2"
         d="M214.08,-28.8C214.08,-28.8 204.48,-28.8 204.48,-28.8 199.68,-28.8 194.88,-24 194.88,-19.2 194.88,-19.2 194.88,-9.6 194.88,-9.6 194.88,-4.8 199.68,0 204.48,0 204.48,0 214.08,0 214.08,0 218.88,0 223.68,-4.8 223.68,-9.6 223.68,-9.6 223.68,-19.2 223.68,-19.2 223.68,-24 218.88,-28.8 214.08,-28.8"
         id="path6" />
      <path
         d="m 209.28,-21.199488 q 0.40205,0 0.63897,0.244103 0.2441,0.244103 0.2441,0.595897 0,0.366154 -0.2441,0.617436 -0.23692,0.244103 -0.63897,0.244103 -0.38052,0 -0.62462,-0.244103 -0.2441,-0.251282 -0.2441,-0.617436 0,-0.351794 0.2441,-0.595897 0.2441,-0.244103 0.62462,-0.244103 z m 0.96205,3.539488 v 6.605128 h 2.1323 V -10.1 h -5.67179 v -0.954872 h 2.33333 v -5.650257 h -2.26154 V -17.66 Z"
         id="text6"
         style="font-size:14px;font-family:'Fira Code';text-anchor:middle;fill:#b9dbfa"
         aria-label="i" />
    </g>
    <!-- root_0_1&#45;&gt;root_0_1_2 -->
    <g
       id="edge3"
       class="edge">
      <title
         id="title7">root_0_1-&gt;root_0_1_2</title>
      <path
         fill="none"
         stroke="#b9dbfa"
         stroke-width="2"
         d="M166.85,-14.4C171.83,-14.4 177.58,-14.4 183.17,-14.4"
         id="path7" />
      <polygon
         fill="#b9dbfa"
         stroke="#b9dbfa"
         stroke-width="2"
         points="183.12,-17.2 191.12,-14.4 183.12,-11.6 183.12,-17.2"
         id="polygon7" />
    </g>
    <!-- root_0_1_2_3 -->
    <g
       id="node5"
       class="node">
      <title
         id="title8">root_0_1_2_3</title>
      <path
         fill="none"
         stroke="#486d8c"
         stroke-width="2"
         d="M271.88,-28.8C271.88,-28.8 262.28,-28.8 262.28,-28.8 257.48,-28.8 252.68,-24 252.68,-19.2 252.68,-19.2 252.68,-9.6 252.68,-9.6 252.68,-4.8 257.48,0 262.28,0 262.28,0 271.88,0 271.88,0 276.68,0 281.48,-4.8 281.48,-9.6 281.48,-9.6 281.48,-19.2 281.48,-19.2 281.48,-24 276.68,-28.8 271.88,-28.8"
         id="path8" />
      <path
         d="m 269.19793,-17.817949 q 0.35898,0 0.69641,0.157949 0.33744,0.157948 0.55282,0.610256 0.21539,0.452308 0.21539,1.321026 V -10.1 h -1.12 v -5.434872 q 0,-0.710769 -0.0862,-1.026667 -0.0861,-0.315897 -0.49538,-0.315897 -0.33744,0 -0.67487,0.215384 -0.33744,0.208205 -0.64616,0.689231 V -10.1 h -1.12718 v -5.434872 q 0,-0.710769 -0.0862,-1.026667 -0.0861,-0.315897 -0.49538,-0.315897 -0.3518,0 -0.68206,0.215384 -0.33025,0.208205 -0.63897,0.689231 V -10.1 h -1.11282 v -7.56 h 0.94769 l 0.0718,0.875897 q 0.30871,-0.437949 0.68923,-0.732308 0.38769,-0.301538 0.95487,-0.301538 0.43077,0 0.81128,0.208205 0.38051,0.201026 0.56,0.789744 0.30872,-0.445129 0.69641,-0.717949 0.38769,-0.28 0.96923,-0.28 z"
         id="text8"
         style="font-size:14px;font-family:'Fira Code';text-anchor:middle;fill:#b9dbfa"
         aria-label="m" />
    </g>
    <!-- root_0_1_2&#45;&gt;root_0_1_2_3 -->
    <g
       id="edge4"
       class="edge">
      <title
         id="title9">root_0_1_2-&gt;root_0_1_2_3</title>
      <path
         fill="none"
         stroke="#b9dbfa"
         stroke-width="2"
         d="M224.65,-14.4C229.63,-14.4 235.38,-14.4 240.97,-14.4"
         id="path9" />
      <polygon
         fill="#b9dbfa"
         stroke="#b9dbfa"
         stroke-width="2"
         points="240.92,-17.2 248.92,-14.4 240.92,-11.6 240.92,-17.2"
         id="polygon9" />
    </g>
    <!-- root_0_1_2_3_4 -->
    <g
       id="node6"
       class="node">
      <title
         id="title10">root_0_1_2_3_4</title>
      <path
         fill="none"
         stroke="#486d8c"
         stroke-width="2"
         d="M329.68,-28.8C329.68,-28.8 320.08,-28.8 320.08,-28.8 315.28,-28.8 310.48,-24 310.48,-19.2 310.48,-19.2 310.48,-9.6 310.48,-9.6 310.48,-4.8 315.28,0 320.08,0 320.08,0 329.68,0 329.68,0 334.48,0 339.28,-4.8 339.28,-9.6 339.28,-9.6 339.28,-19.2 339.28,-19.2 339.28,-24 334.48,-28.8 329.68,-28.8"
         id="path10" />
      <path
         d="m 324.88,-21.199488 q 0.40205,0 0.63898,0.244103 0.2441,0.244103 0.2441,0.595897 0,0.366154 -0.2441,0.617436 -0.23693,0.244103 -0.63898,0.244103 -0.38051,0 -0.62461,-0.244103 -0.24411,-0.251282 -0.24411,-0.617436 0,-0.351794 0.24411,-0.595897 0.2441,-0.244103 0.62461,-0.244103 z m 0.96205,3.539488 v 6.605128 h 2.13231 V -10.1 h -5.67179 v -0.954872 h 2.33333 v -5.650257 h -2.26154 V -17.66 Z"
         id="text10"
         style="font-size:14px;font-family:'Fira Code';text-anchor:middle;fill:#b9dbfa"
         aria-label="i" />
    </g>
    <!-- root_0_1_2_3&#45;&gt;root_0_1_2_3_4 -->
    <g
       id="edge5"
       class="edge">
      <title
         id="title11">root_0_1_2_3-&gt;root_0_1_2_3_4</title>
      <path
         fill="none"
         stroke="#b9dbfa"
         stroke-width="2"
         d="M282.45,-14.4C287.43,-14.4 293.18,-14.4 298.77,-14.4"
         id="path11" />
      <polygon
         fill="#b9dbfa"
         stroke="#b9dbfa"
         stroke-width="2"
         points="298.72,-17.2 306.72,-14.4 298.72,-11.6 298.72,-17.2"
         id="polygon11" />
    </g>
    <!-- root_0_1_2_3_4_5 -->
    <g
       id="node7"
       class="node">
      <title
         id="title12">root_0_1_2_3_4_5</title>
      <path
         fill="none"
         stroke="#486d8c"
         stroke-width="2"
         d="M387.48,-28.8C387.48,-28.8 377.88,-28.8 377.88,-28.8 373.08,-28.8 368.28,-24 368.28,-19.2 368.28,-19.2 368.28,-9.6 368.28,-9.6 368.28,-4.8 373.08,0 377.88,0 377.88,0 387.48,0 387.48,0 392.28,0 397.08,-4.8 397.08,-9.6 397.08,-9.6 397.08,-19.2 397.08,-19.2 397.08,-24 392.28,-28.8 387.48,-28.8"
         id="path12" />
      <path
         d="m 379.88717,-10.1 v -0.926154 h 1.17743 v -5.707693 h -1.17743 V -17.66 h 2.09641 l 0.22256,1.787692 q 0.43795,-0.933333 1.06257,-1.443077 0.62461,-0.509744 1.65128,-0.509744 0.3159,0 0.56,0.05026 0.25128,0.04308 0.50974,0.114872 l -0.1723,2.555897 h -0.99077 v -1.608205 q -0.0287,0 -0.0646,0 -1.73744,0 -2.49128,2.484102 v 3.202052 h 1.53641 V -10.1 Z"
         id="text12"
         style="font-size:14px;font-family:'Fira Code';text-anchor:middle;fill:#b9dbfa"
         aria-label="r" />
    </g>
    <!-- root_0_1_2_3_4&#45;&gt;root_0_1_2_3_4_5 -->
    <g
       id="edge6"
       class="edge">
      <title
         id="title13">root_0_1_2_3_4-&gt;root_0_1_2_3_4_5</title>
      <path
         fill="none"
         stroke="#b9dbfa"
         stroke-width="2"
         d="M340.25,-14.4C345.23,-14.4 350.98,-14.4 356.57,-14.4"
         id="path13" />
      <polygon
         fill="#b9dbfa"
         stroke="#b9dbfa"
         stroke-width="2"
         points="356.52,-17.2 364.52,-14.4 356.52,-11.6 356.52,-17.2"
         id="polygon13" />
    </g>
    <!-- root_0_1_2_3_4_5_val -->
    <g
       id="node8"
       class="node">
      <title
         id="title14">root_0_1_2_3_4_5_val</title>
      <polygon
         fill="none"
         stroke="#486d8c"
         stroke-width="2"
         points="517.61,-28.8 426.08,-28.8 426.08,0 517.61,0 517.61,-28.8"
         id="polygon14" />
      <path
         d="m 435.65818,-16.97077 -0.22974,-3.733333 h 1.51487 l -0.22256,3.733333 z m 2.39795,0 -0.21538,-3.733333 h 1.50769 l -0.22974,3.733333 z m 11.07078,5.88718 V -10.1 h -5.70769 v -0.98359 h 2.43384 v -7.595898 l -2.26872,1.378462 -0.5241,-0.861538 2.94359,-1.82359 h 1.05539 v 8.902564 z m 5.47795,-6.353846 q 0.50257,0 0.83282,0.337436 0.33744,0.337436 0.33744,0.818461 0,0.481026 -0.33744,0.825641 -0.33025,0.344616 -0.83282,0.344616 -0.4882,0 -0.82564,-0.344616 -0.33025,-0.344615 -0.33025,-0.825641 0,-0.481025 0.33025,-0.818461 0.33744,-0.337436 0.82564,-0.337436 z m 0,4.961025 q 0.50257,0 0.83282,0.337436 0.33744,0.337436 0.33744,0.811282 0,0.265641 -0.0646,0.538462 -0.0574,0.265641 -0.22256,0.603077 l -1.16308,2.670769 h -1.09128 l 0.68923,-2.850256 q -0.47384,-0.330257 -0.47384,-0.954872 0,-0.481026 0.33025,-0.818462 0.33744,-0.337436 0.82564,-0.337436 z M 460.44179,-10.1 v -0.926154 h 1.17744 v -5.707693 h -1.17744 V -17.66 h 2.09641 l 0.22257,1.787692 q 0.43794,-0.933333 1.06256,-1.443077 0.62462,-0.509744 1.65128,-0.509744 0.3159,0 0.56,0.05026 0.25128,0.04308 0.50975,0.114872 l -0.17231,2.555897 h -0.99077 v -1.608205 q -0.0287,0 -0.0646,0 -1.73743,0 -2.49128,2.484102 v 3.202052 h 1.53641 V -10.1 Z M 471.85,-12.462052 q 0.49539,0 0.82564,0.337436 0.33744,0.337436 0.33744,0.811282 0,0.258462 -0.0646,0.524103 -0.0574,0.265641 -0.21538,0.603077 L 471.57,-7.5225645 h -1.09128 l 0.68923,-2.8358975 q -0.46666,-0.337436 -0.46666,-0.954872 0,-0.473846 0.33025,-0.811282 0.33026,-0.337436 0.81846,-0.337436 z m 8.61539,0 q 0.49539,0 0.82564,0.337436 0.33744,0.337436 0.33744,0.811282 0,0.258462 -0.0646,0.524103 -0.0574,0.265641 -0.21539,0.603077 l -1.16308,2.6635895 h -1.09128 l 0.68923,-2.8358975 q -0.46666,-0.337436 -0.46666,-0.954872 0,-0.473846 0.33025,-0.811282 0.33026,-0.337436 0.81846,-0.337436 z m 8.61539,0 q 0.49539,0 0.82565,0.337436 0.33743,0.337436 0.33743,0.811282 0,0.258462 -0.0646,0.524103 -0.0574,0.265641 -0.21539,0.603077 l -1.16308,2.6635895 h -1.09128 l 0.68923,-2.8358975 q -0.46666,-0.337436 -0.46666,-0.954872 0,-0.473846 0.33025,-0.811282 0.33026,-0.337436 0.81846,-0.337436 z m 8.32104,1.529231 q 0.87589,0 1.37846,-0.323077 0.50256,-0.323077 0.50256,-0.875897 0,-0.337436 -0.12923,-0.588718 -0.12205,-0.251282 -0.50974,-0.452308 -0.38769,-0.208205 -1.1918,-0.409231 -0.78256,-0.193846 -1.3641,-0.445128 -0.57436,-0.258461 -0.89744,-0.667692 -0.31589,-0.409231 -0.31589,-1.062564 0,-0.954872 0.79692,-1.507693 0.79692,-0.55282 2.07487,-0.55282 0.9118,0 1.58667,0.244102 0.68205,0.244103 1.1559,0.588718 l -0.53129,0.818462 q -0.42359,-0.294359 -0.94769,-0.481026 -0.51692,-0.193846 -1.24923,-0.193846 -0.89026,0 -1.26359,0.28 -0.37333,0.272821 -0.37333,0.710769 0,0.337436 0.17948,0.56 0.18667,0.215385 0.62462,0.387693 0.43795,0.172307 1.20615,0.380513 0.73949,0.201025 1.29231,0.473846 0.55282,0.27282 0.85436,0.717948 0.30872,0.437949 0.30872,1.141539 0,0.804102 -0.45949,1.306667 -0.45949,0.495384 -1.19179,0.725128 -0.72513,0.2225638 -1.53641,0.2225638 -1.02667,0 -1.7518,-0.2943588 -0.71795,-0.301539 -1.20615,-0.725128 l 0.68923,-0.796923 q 0.44513,0.366153 1.01949,0.595897 0.58153,0.222564 1.24923,0.222564 z m 7.17949,-6.037949 -0.22974,-3.733333 h 1.51487 l -0.22257,3.733333 z m 2.39795,0 -0.21539,-3.733333 h 1.5077 l -0.22975,3.733333 z"
         id="text14"
         style="font-size:14px;font-family:'Fira Code';text-anchor:middle;fill:#b9dbfa"
         aria-label="&quot;1;r,,,s&quot;" />
    </g>
    <!-- root_0_1_2_3_4_5&#45;&gt;root_0_1_2_3_4_5_val -->
    <g
       id="edge7"
       class="edge">
      <title
         id="title15">root_0_1_2_3_4_5-&gt;root_0_1_2_3_4_5_val</title>
      <path
         fill="none"
         stroke="#b9dbfa"
         stroke-width="2"
         d="M398.07,-14.4C402.79,-14.4 408.35,-14.4 414.26,-14.4"
         id="path15" />
      <polygon
         fill="#b9dbfa"
         stroke="#b9dbfa"
         stroke-width="2"
         points="414.14,-17.2 422.14,-14.4 414.14,-11.6 414.14,-17.2"
         id="polygon15" />
    </g>
  </g>
</svg>
