<?xml version="1.0" encoding="UTF-8" standalone="no"?>
<!DOCTYPE svg PUBLIC "-//W3C//DTD SVG 1.1//EN"
 "http://www.w3.org/Graphics/SVG/1.1/DTD/svg11.dtd">
<!-- Generated by graphviz version 13.1.0 (20250701.0955)
 -->
<!-- Pages: 1 -->
<svg width="759pt" height="450pt"
 viewBox="0.00 0.00 759.00 450.00" xmlns="http://www.w3.org/2000/svg" xmlns:xlink="http://www.w3.org/1999/xlink">
<g id="graph0" class="graph" transform="scale(1 1) rotate(0) translate(4 446)">
<!-- root -->
<g id="node1" class="node">
<title>root</title>
<path fill="none" stroke="#486d8c" stroke-width="2" d="M42.6,-239C42.6,-239 12,-239 12,-239 6,-239 0,-233 0,-227 0,-227 0,-215 0,-215 0,-209 6,-203 12,-203 12,-203 42.6,-203 42.6,-203 48.6,-203 54.6,-209 54.6,-215 54.6,-215 54.6,-227 54.6,-227 54.6,-233 48.6,-239 42.6,-239"/>
<text xml:space="preserve" text-anchor="middle" x="27.3" y="-216.32" font-family="monospace" font-size="14.00" fill="#b9dbfa">root</text>
</g>
<!-- root_0 -->
<g id="node2" class="node">
<title>root_0</title>
<path fill="none" stroke="#486d8c" stroke-width="2" d="M107.6,-239C107.6,-239 95.6,-239 95.6,-239 89.6,-239 83.6,-233 83.6,-227 83.6,-227 83.6,-215 83.6,-215 83.6,-209 89.6,-203 95.6,-203 95.6,-203 107.6,-203 107.6,-203 113.6,-203 119.6,-209 119.6,-215 119.6,-215 119.6,-227 119.6,-227 119.6,-233 113.6,-239 107.6,-239"/>
<text xml:space="preserve" text-anchor="middle" x="101.6" y="-216.32" font-family="monospace" font-size="14.00" fill="#b9dbfa">i</text>
</g>
<!-- root&#45;&gt;root_0 -->
<g id="edge1" class="edge">
<title>root&#45;&gt;root_0</title>
<path fill="none" stroke="#b9dbfa" stroke-width="2" d="M55.22,-221C60.66,-221 66.39,-221 71.88,-221"/>
<polygon fill="#b9dbfa" stroke="#b9dbfa" stroke-width="2" points="71.63,-223.8 79.63,-221 71.63,-218.2 71.63,-223.8"/>
</g>
<!-- root_0_1 -->
<g id="node3" class="node">
<title>root_0_1</title>
<path fill="none" stroke="#486d8c" stroke-width="2" d="M290.2,-413C290.2,-413 160.6,-413 160.6,-413 154.6,-413 148.6,-407 148.6,-401 148.6,-401 148.6,-389 148.6,-389 148.6,-383 154.6,-377 160.6,-377 160.6,-377 290.2,-377 290.2,-377 296.2,-377 302.2,-383 302.2,-389 302.2,-389 302.2,-401 302.2,-401 302.2,-407 296.2,-413 290.2,-413"/>
<text xml:space="preserve" text-anchor="middle" x="225.4" y="-390.32" font-family="monospace" font-size="14.00" fill="#b9dbfa">bdfjklmnpstvxðóú</text>
</g>
<!-- root_0&#45;&gt;root_0_1 -->
<g id="edge2" class="edge">
<title>root_0&#45;&gt;root_0_1</title>
<path fill="none" stroke="#b9dbfa" stroke-width="2" d="M106.74,-239.83C112.78,-264.15 125.86,-306.94 148.6,-337 158.09,-349.55 170.97,-360.77 183.42,-369.92"/>
<polygon fill="#b9dbfa" stroke="#b9dbfa" stroke-width="2" points="181.72,-372.15 189.88,-374.46 184.94,-367.57 181.72,-372.15"/>
</g>
<!-- root_0_2 -->
<g id="node5" class="node">
<title>root_0_2</title>
<path fill="none" stroke="#486d8c" stroke-width="2" d="M231.4,-326C231.4,-326 219.4,-326 219.4,-326 213.4,-326 207.4,-320 207.4,-314 207.4,-314 207.4,-302 207.4,-302 207.4,-296 213.4,-290 219.4,-290 219.4,-290 231.4,-290 231.4,-290 237.4,-290 243.4,-296 243.4,-302 243.4,-302 243.4,-314 243.4,-314 243.4,-320 237.4,-326 231.4,-326"/>
<text xml:space="preserve" text-anchor="middle" x="225.4" y="-303.32" font-family="monospace" font-size="14.00" fill="#b9dbfa">r</text>
</g>
<!-- root_0&#45;&gt;root_0_2 -->
<g id="edge4" class="edge">
<title>root_0&#45;&gt;root_0_2</title>
<path fill="none" stroke="#b9dbfa" stroke-width="2" d="M120.57,-233.84C141.02,-248.44 174.6,-272.43 198.02,-289.15"/>
<polygon fill="#b9dbfa" stroke="#b9dbfa" stroke-width="2" points="196.15,-291.26 204.29,-293.63 199.4,-286.71 196.15,-291.26"/>
</g>
<!-- root_0_5 -->
<g id="node10" class="node">
<title>root_0_5</title>
<path fill="none" stroke="#486d8c" stroke-width="2" d="M231.4,-239C231.4,-239 219.4,-239 219.4,-239 213.4,-239 207.4,-233 207.4,-227 207.4,-227 207.4,-215 207.4,-215 207.4,-209 213.4,-203 219.4,-203 219.4,-203 231.4,-203 231.4,-203 237.4,-203 243.4,-209 243.4,-215 243.4,-215 243.4,-227 243.4,-227 243.4,-233 237.4,-239 231.4,-239"/>
<text xml:space="preserve" text-anchor="middle" x="225.4" y="-216.32" font-family="monospace" font-size="14.00" fill="#b9dbfa">g</text>
</g>
<!-- root_0&#45;&gt;root_0_5 -->
<g id="edge9" class="edge">
<title>root_0&#45;&gt;root_0_5</title>
<path fill="none" stroke="#b9dbfa" stroke-width="2" d="M120.57,-221C140.39,-221 172.53,-221 195.81,-221"/>
<polygon fill="#b9dbfa" stroke="#b9dbfa" stroke-width="2" points="195.72,-223.8 203.72,-221 195.72,-218.2 195.72,-223.8"/>
</g>
<!-- root_0_10 -->
<g id="node18" class="node">
<title>root_0_10</title>
<path fill="none" stroke="#486d8c" stroke-width="2" d="M231.4,-167C231.4,-167 219.4,-167 219.4,-167 213.4,-167 207.4,-161 207.4,-155 207.4,-155 207.4,-143 207.4,-143 207.4,-137 213.4,-131 219.4,-131 219.4,-131 231.4,-131 231.4,-131 237.4,-131 243.4,-137 243.4,-143 243.4,-143 243.4,-155 243.4,-155 243.4,-161 237.4,-167 231.4,-167"/>
<text xml:space="preserve" text-anchor="middle" x="225.4" y="-144.32" font-family="monospace" font-size="14.00" fill="#b9dbfa">u</text>
</g>
<!-- root_0&#45;&gt;root_0_10 -->
<g id="edge17" class="edge">
<title>root_0&#45;&gt;root_0_10</title>
<path fill="none" stroke="#b9dbfa" stroke-width="2" d="M120.39,-209.51C128.88,-204.1 139.2,-197.62 148.6,-192 164.53,-182.47 182.6,-172.2 197.1,-164.08"/>
<polygon fill="#b9dbfa" stroke="#b9dbfa" stroke-width="2" points="198.23,-166.66 203.85,-160.32 195.5,-161.77 198.23,-166.66"/>
</g>
<!-- root_0_11 -->
<g id="node20" class="node">
<title>root_0_11</title>
<path fill="none" stroke="#486d8c" stroke-width="2" d="M231.4,-80C231.4,-80 219.4,-80 219.4,-80 213.4,-80 207.4,-74 207.4,-68 207.4,-68 207.4,-56 207.4,-56 207.4,-50 213.4,-44 219.4,-44 219.4,-44 231.4,-44 231.4,-44 237.4,-44 243.4,-50 243.4,-56 243.4,-56 243.4,-68 243.4,-68 243.4,-74 237.4,-80 231.4,-80"/>
<text xml:space="preserve" text-anchor="middle" x="225.4" y="-57.33" font-family="monospace" font-size="14.00" fill="#b9dbfa">a</text>
</g>
<!-- root_0&#45;&gt;root_0_11 -->
<g id="edge19" class="edge">
<title>root_0&#45;&gt;root_0_11</title>
<path fill="none" stroke="#b9dbfa" stroke-width="2" d="M108.02,-202.38C114.93,-180.91 128.44,-145.32 148.6,-120 162.02,-103.15 181.36,-88.45 197.15,-78.07"/>
<polygon fill="#b9dbfa" stroke="#b9dbfa" stroke-width="2" points="198.62,-80.45 203.87,-73.8 195.62,-75.72 198.62,-80.45"/>
</g>
<!-- root_0_1_val -->
<g id="node4" class="node">
<title>root_0_1_val</title>
<polygon fill="none" stroke="#486d8c" stroke-width="2" points="746.87,-442 601.52,-442 601.52,-406 746.87,-406 746.87,-442"/>
<text xml:space="preserve" text-anchor="middle" x="674.2" y="-419.32" font-family="monospace" font-size="14.00" fill="#b9dbfa">1;i,a,a,a (166)</text>
</g>
<!-- root_0_1&#45;&gt;root_0_1_val -->
<g id="edge3" class="edge">
<title>root_0_1&#45;&gt;root_0_1_val</title>
<path fill="none" stroke="#b9dbfa" stroke-width="2" d="M302.95,-399.97C382.78,-405.15 507.53,-413.25 589.82,-418.59"/>
<polygon fill="#b9dbfa" stroke="#b9dbfa" stroke-width="2" points="589.45,-421.37 597.61,-419.09 589.81,-415.78 589.45,-421.37"/>
</g>
<!-- root_0_2_3 -->
<g id="node6" class="node">
<title>root_0_2_3</title>
<path fill="none" stroke="#486d8c" stroke-width="2" d="M456.3,-384C456.3,-384 343.2,-384 343.2,-384 337.2,-384 331.2,-378 331.2,-372 331.2,-372 331.2,-360 331.2,-360 331.2,-354 337.2,-348 343.2,-348 343.2,-348 456.3,-348 456.3,-348 462.3,-348 468.3,-354 468.3,-360 468.3,-360 468.3,-372 468.3,-372 468.3,-378 462.3,-384 456.3,-384"/>
<text xml:space="preserve" text-anchor="middle" x="399.75" y="-361.32" font-family="monospace" font-size="14.00" fill="#b9dbfa">Aadefgimrtáóúý</text>
</g>
<!-- root_0_2&#45;&gt;root_0_2_3 -->
<g id="edge5" class="edge">
<title>root_0_2&#45;&gt;root_0_2_3</title>
<path fill="none" stroke="#b9dbfa" stroke-width="2" d="M244.2,-313.99C264.99,-320.99 300.62,-332.98 332.44,-343.68"/>
<polygon fill="#b9dbfa" stroke="#b9dbfa" stroke-width="2" points="331.26,-346.24 339.74,-346.14 333.05,-340.94 331.26,-346.24"/>
</g>
<!-- root_0_2_4 -->
<g id="node8" class="node">
<title>root_0_2_4</title>
<path fill="none" stroke="#486d8c" stroke-width="2" d="M405.75,-326C405.75,-326 393.75,-326 393.75,-326 387.75,-326 381.75,-320 381.75,-314 381.75,-314 381.75,-302 381.75,-302 381.75,-296 387.75,-290 393.75,-290 393.75,-290 405.75,-290 405.75,-290 411.75,-290 417.75,-296 417.75,-302 417.75,-302 417.75,-314 417.75,-314 417.75,-320 411.75,-326 405.75,-326"/>
<text xml:space="preserve" text-anchor="middle" x="399.75" y="-303.32" font-family="monospace" font-size="14.00" fill="#b9dbfa">y</text>
</g>
<!-- root_0_2&#45;&gt;root_0_2_4 -->
<g id="edge7" class="edge">
<title>root_0_2&#45;&gt;root_0_2_4</title>
<path fill="none" stroke="#b9dbfa" stroke-width="2" d="M244.2,-308C274,-308 334.25,-308 370.09,-308"/>
<polygon fill="#b9dbfa" stroke="#b9dbfa" stroke-width="2" points="369.77,-310.8 377.77,-308 369.77,-305.2 369.77,-310.8"/>
</g>
<!-- root_0_2_3_val -->
<g id="node7" class="node">
<title>root_0_2_3_val</title>
<polygon fill="none" stroke="#486d8c" stroke-width="2" points="742.75,-384 605.65,-384 605.65,-348 742.75,-348 742.75,-384"/>
<text xml:space="preserve" text-anchor="middle" x="674.2" y="-361.32" font-family="monospace" font-size="14.00" fill="#b9dbfa">1;i,a,a,a (33)</text>
</g>
<!-- root_0_2_3&#45;&gt;root_0_2_3_val -->
<g id="edge6" class="edge">
<title>root_0_2_3&#45;&gt;root_0_2_3_val</title>
<path fill="none" stroke="#b9dbfa" stroke-width="2" d="M469.15,-366C507.04,-366 554.34,-366 593.85,-366"/>
<polygon fill="#b9dbfa" stroke="#b9dbfa" stroke-width="2" points="593.75,-368.8 601.75,-366 593.75,-363.2 593.75,-368.8"/>
</g>
<!-- root_0_2_4_val -->
<g id="node9" class="node">
<title>root_0_2_4_val</title>
<polygon fill="none" stroke="#486d8c" stroke-width="2" points="722.12,-326 626.27,-326 626.27,-290 722.12,-290 722.12,-326"/>
<text xml:space="preserve" text-anchor="middle" x="674.2" y="-303.32" font-family="monospace" font-size="14.00" fill="#b9dbfa">0;,,, (1)</text>
</g>
<!-- root_0_2_4&#45;&gt;root_0_2_4_val -->
<g id="edge8" class="edge">
<title>root_0_2_4&#45;&gt;root_0_2_4_val</title>
<path fill="none" stroke="#b9dbfa" stroke-width="2" d="M418.63,-308C457.71,-308 552.26,-308 614.48,-308"/>
<polygon fill="#b9dbfa" stroke="#b9dbfa" stroke-width="2" points="614.29,-310.8 622.29,-308 614.29,-305.2 614.29,-310.8"/>
</g>
<!-- root_0_5_6 -->
<g id="node11" class="node">
<title>root_0_5_6</title>
<path fill="none" stroke="#486d8c" stroke-width="2" d="M419.17,-268C419.17,-268 380.32,-268 380.32,-268 374.32,-268 368.32,-262 368.32,-256 368.32,-256 368.32,-244 368.32,-244 368.32,-238 374.32,-232 380.32,-232 380.32,-232 419.17,-232 419.17,-232 425.17,-232 431.17,-238 431.17,-244 431.17,-244 431.17,-256 431.17,-256 431.17,-262 425.17,-268 419.17,-268"/>
<text xml:space="preserve" text-anchor="middle" x="399.75" y="-245.32" font-family="monospace" font-size="14.00" fill="#b9dbfa">alnou</text>
</g>
<!-- root_0_5&#45;&gt;root_0_5_6 -->
<g id="edge10" class="edge">
<title>root_0_5&#45;&gt;root_0_5_6</title>
<path fill="none" stroke="#b9dbfa" stroke-width="2" d="M244.2,-223.99C270.54,-228.43 320.68,-236.86 356.72,-242.93"/>
<polygon fill="#b9dbfa" stroke="#b9dbfa" stroke-width="2" points="356.07,-245.66 364.42,-244.22 356.99,-240.13 356.07,-245.66"/>
</g>
<!-- root_0_5_7 -->
<g id="node13" class="node">
<title>root_0_5_7</title>
<path fill="none" stroke="#486d8c" stroke-width="2" d="M405.75,-210C405.75,-210 393.75,-210 393.75,-210 387.75,-210 381.75,-204 381.75,-198 381.75,-198 381.75,-186 381.75,-186 381.75,-180 387.75,-174 393.75,-174 393.75,-174 405.75,-174 405.75,-174 411.75,-174 417.75,-180 417.75,-186 417.75,-186 417.75,-198 417.75,-198 417.75,-204 411.75,-210 405.75,-210"/>
<text xml:space="preserve" text-anchor="middle" x="399.75" y="-187.32" font-family="monospace" font-size="14.00" fill="#b9dbfa">g</text>
</g>
<!-- root_0_5&#45;&gt;root_0_5_7 -->
<g id="edge12" class="edge">
<title>root_0_5&#45;&gt;root_0_5_7</title>
<path fill="none" stroke="#b9dbfa" stroke-width="2" d="M244.2,-218.01C274,-212.99 334.25,-202.85 370.09,-196.82"/>
<polygon fill="#b9dbfa" stroke="#b9dbfa" stroke-width="2" points="370.38,-199.61 377.81,-195.52 369.45,-194.09 370.38,-199.61"/>
</g>
<!-- root_0_5_6_val -->
<g id="node12" class="node">
<title>root_0_5_6_val</title>
<polygon fill="none" stroke="#486d8c" stroke-width="2" points="742.75,-268 605.65,-268 605.65,-232 742.75,-232 742.75,-268"/>
<text xml:space="preserve" text-anchor="middle" x="674.2" y="-245.32" font-family="monospace" font-size="14.00" fill="#b9dbfa">1;i,a,a,a (14)</text>
</g>
<!-- root_0_5_6&#45;&gt;root_0_5_6_val -->
<g id="edge11" class="edge">
<title>root_0_5_6&#45;&gt;root_0_5_6_val</title>
<path fill="none" stroke="#b9dbfa" stroke-width="2" d="M432,-250C471.17,-250 539.7,-250 593.73,-250"/>
<polygon fill="#b9dbfa" stroke="#b9dbfa" stroke-width="2" points="593.65,-252.8 601.65,-250 593.65,-247.2 593.65,-252.8"/>
</g>
<!-- root_0_5_7_8 -->
<g id="node14" class="node">
<title>root_0_5_7_8</title>
<path fill="none" stroke="#486d8c" stroke-width="2" d="M556.4,-210C556.4,-210 509.3,-210 509.3,-210 503.3,-210 497.3,-204 497.3,-198 497.3,-198 497.3,-186 497.3,-186 497.3,-180 503.3,-174 509.3,-174 509.3,-174 556.4,-174 556.4,-174 562.4,-174 568.4,-180 568.4,-186 568.4,-186 568.4,-198 568.4,-198 568.4,-204 562.4,-210 556.4,-210"/>
<text xml:space="preserve" text-anchor="middle" x="532.85" y="-187.32" font-family="monospace" font-size="14.00" fill="#b9dbfa">Uaiouö</text>
</g>
<!-- root_0_5_7&#45;&gt;root_0_5_7_8 -->
<g id="edge13" class="edge">
<title>root_0_5_7&#45;&gt;root_0_5_7_8</title>
<path fill="none" stroke="#b9dbfa" stroke-width="2" d="M418.7,-192C435.82,-192 462.33,-192 485.38,-192"/>
<polygon fill="#b9dbfa" stroke="#b9dbfa" stroke-width="2" points="485.34,-194.8 493.34,-192 485.34,-189.2 485.34,-194.8"/>
</g>
<!-- root_0_5_7_9 -->
<g id="node16" class="node">
<title>root_0_5_7_9</title>
<path fill="none" stroke="#486d8c" stroke-width="2" d="M538.85,-152C538.85,-152 526.85,-152 526.85,-152 520.85,-152 514.85,-146 514.85,-140 514.85,-140 514.85,-128 514.85,-128 514.85,-122 520.85,-116 526.85,-116 526.85,-116 538.85,-116 538.85,-116 544.85,-116 550.85,-122 550.85,-128 550.85,-128 550.85,-140 550.85,-140 550.85,-146 544.85,-152 538.85,-152"/>
<text xml:space="preserve" text-anchor="middle" x="532.85" y="-129.32" font-family="monospace" font-size="14.00" fill="#b9dbfa">e</text>
</g>
<!-- root_0_5_7&#45;&gt;root_0_5_7_9 -->
<g id="edge15" class="edge">
<title>root_0_5_7&#45;&gt;root_0_5_7_9</title>
<path fill="none" stroke="#b9dbfa" stroke-width="2" d="M418.7,-184.06C440.77,-174.3 478.45,-157.63 504.21,-146.23"/>
<polygon fill="#b9dbfa" stroke="#b9dbfa" stroke-width="2" points="505.16,-148.87 511.34,-143.07 502.9,-143.75 505.16,-148.87"/>
</g>
<!-- root_0_5_7_8_val -->
<g id="node15" class="node">
<title>root_0_5_7_8_val</title>
<polygon fill="none" stroke="#486d8c" stroke-width="2" points="738.62,-210 609.77,-210 609.77,-174 738.62,-174 738.62,-210"/>
<text xml:space="preserve" text-anchor="middle" x="674.2" y="-187.32" font-family="monospace" font-size="14.00" fill="#b9dbfa">1;i,a,a,a (6)</text>
</g>
<!-- root_0_5_7_8&#45;&gt;root_0_5_7_8_val -->
<g id="edge14" class="edge">
<title>root_0_5_7_8&#45;&gt;root_0_5_7_8_val</title>
<path fill="none" stroke="#b9dbfa" stroke-width="2" d="M569.37,-192C578.26,-192 588.12,-192 598.14,-192"/>
<polygon fill="#b9dbfa" stroke="#b9dbfa" stroke-width="2" points="598,-194.8 606,-192 598,-189.2 598,-194.8"/>
</g>
<!-- root_0_5_7_9_val -->
<g id="node17" class="node">
<title>root_0_5_7_9_val</title>
<polygon fill="none" stroke="#486d8c" stroke-width="2" points="751,-152 597.4,-152 597.4,-116 751,-116 751,-152"/>
<text xml:space="preserve" text-anchor="middle" x="674.2" y="-129.32" font-family="monospace" font-size="14.00" fill="#b9dbfa">1;i,ja,ja,ja (1)</text>
</g>
<!-- root_0_5_7_9&#45;&gt;root_0_5_7_9_val -->
<g id="edge16" class="edge">
<title>root_0_5_7_9&#45;&gt;root_0_5_7_9_val</title>
<path fill="none" stroke="#b9dbfa" stroke-width="2" d="M551.78,-134C560.97,-134 572.91,-134 585.71,-134"/>
<polygon fill="#b9dbfa" stroke="#b9dbfa" stroke-width="2" points="585.59,-136.8 593.59,-134 585.59,-131.2 585.59,-136.8"/>
</g>
<!-- root_0_10_val -->
<g id="node19" class="node">
<title>root_0_10_val</title>
<polygon fill="none" stroke="#486d8c" stroke-width="2" points="751,-94 597.4,-94 597.4,-58 751,-58 751,-94"/>
<text xml:space="preserve" text-anchor="middle" x="674.2" y="-71.33" font-family="monospace" font-size="14.00" fill="#b9dbfa">1;i,ja,ja,ja (1)</text>
</g>
<!-- root_0_10&#45;&gt;root_0_10_val -->
<g id="edge18" class="edge">
<title>root_0_10&#45;&gt;root_0_10_val</title>
<path fill="none" stroke="#b9dbfa" stroke-width="2" d="M244.19,-146.09C300.58,-136.88 477.98,-107.9 586.2,-90.21"/>
<polygon fill="#b9dbfa" stroke="#b9dbfa" stroke-width="2" points="586.34,-93.03 593.79,-88.97 585.44,-87.5 586.34,-93.03"/>
</g>
<!-- root_0_11_val -->
<g id="node21" class="node">
<title>root_0_11_val</title>
<polygon fill="none" stroke="#486d8c" stroke-width="2" points="726.25,-36 622.15,-36 622.15,0 726.25,0 726.25,-36"/>
<text xml:space="preserve" text-anchor="middle" x="674.2" y="-13.32" font-family="monospace" font-size="14.00" fill="#b9dbfa">0;,,,s (1)</text>
</g>
<!-- root_0_11&#45;&gt;root_0_11_val -->
<g id="edge20" class="edge">
<title>root_0_11&#45;&gt;root_0_11_val</title>
<path fill="none" stroke="#b9dbfa" stroke-width="2" d="M244.19,-60.25C305.03,-54.26 506.73,-34.39 610.43,-24.18"/>
<polygon fill="#b9dbfa" stroke="#b9dbfa" stroke-width="2" points="610.67,-26.97 618.35,-23.4 610.12,-21.4 610.67,-26.97"/>
</g>
</g>
</svg>
