<?xml version="1.0" encoding="UTF-8" standalone="no"?>
<!-- Generated by graphviz version 13.1.0 (20250701.0955)
 -->

<!-- Pages: 1 -->

<svg
   width="484pt"
   height="295pt"
   viewBox="0.00 0.00 484.00 295.00"
   version="1.1"
   id="svg37"
   xmlns="http://www.w3.org/2000/svg"
   xmlns:svg="http://www.w3.org/2000/svg">
  <defs
     id="defs37" />
  <g
     id="graph0"
     class="graph"
     transform="scale(1 1) rotate(0) translate(4 290.8)">
    <!-- root -->
    <g
       id="node1"
       class="node">
      <title
         id="title1">root</title>
      <path
         fill="none"
         stroke="#486d8c"
         stroke-width="2"
         d="M40.68,-157.8C40.68,-157.8 9.6,-157.8 9.6,-157.8 4.8,-157.8 0,-153 0,-148.2 0,-148.2 0,-138.6 0,-138.6 0,-133.8 4.8,-129 9.6,-129 9.6,-129 40.68,-129 40.68,-129 45.48,-129 50.28,-133.8 50.28,-138.6 50.28,-138.6 50.28,-148.2 50.28,-148.2 50.28,-153 45.48,-157.8 40.68,-157.8"
         id="path1" />
      <path
         d="m 9.4240896,-139.10001 v -0.92615 h 1.1774364 v -5.70769 H 9.4240896 v -0.92616 H 11.5205 l 0.222564,1.7877 q 0.437949,-0.93334 1.062564,-1.44308 0.624615,-0.50974 1.651282,-0.50974 0.315898,0 0.56,0.0503 0.251282,0.0431 0.509744,0.11487 l -0.172308,2.5559 h -0.990769 v -1.6082 q -0.02872,0 -0.06462,0 -1.737435,0 -2.491282,2.4841 v 3.20205 h 1.536411 v 0.92615 z m 11.4225704,-7.71794 q 1.601026,0 2.419487,1.06974 0.818462,1.06974 0.818462,2.86461 0,1.1559 -0.373334,2.04616 -0.373333,0.89025 -1.098461,1.4 -0.725128,0.50256 -1.780513,0.50256 -1.601026,0 -2.426667,-1.07692 -0.825641,-1.07692 -0.825641,-2.85744 0,-1.16307 0.373334,-2.05333 0.373333,-0.89744 1.098461,-1.39282 0.732308,-0.50256 1.794872,-0.50256 z m 0,0.98358 q -0.97641,0 -1.478974,0.72513 -0.495385,0.72513 -0.495385,2.24 0,1.50052 0.488205,2.22564 0.495385,0.71795 1.471795,0.71795 0.97641,0 1.464615,-0.72513 0.495385,-0.72512 0.495385,-2.23282 0,-1.50769 -0.488205,-2.22564 -0.488205,-0.72513 -1.457436,-0.72513 z m 8.615391,-0.98358 q 1.601025,0 2.419487,1.06974 0.818461,1.06974 0.818461,2.86461 0,1.1559 -0.373333,2.04616 -0.373333,0.89025 -1.098461,1.4 -0.725129,0.50256 -1.780513,0.50256 -1.601026,0 -2.426667,-1.07692 -0.825641,-1.07692 -0.825641,-2.85744 0,-1.16307 0.373333,-2.05333 0.373334,-0.89744 1.098462,-1.39282 0.732308,-0.50256 1.794872,-0.50256 z m 0,0.98358 q -0.976411,0 -1.478975,0.72513 -0.495384,0.72513 -0.495384,2.24 0,1.50052 0.488205,2.22564 0.495384,0.71795 1.471795,0.71795 0.97641,0 1.464615,-0.72513 0.495385,-0.72512 0.495385,-2.23282 0,-1.50769 -0.488205,-2.22564 -0.488206,-0.72513 -1.457436,-0.72513 z m 11.738467,6.35385 q -0.387692,0.25846 -0.940512,0.40205 -0.552821,0.14359 -1.084103,0.14359 -1.220513,0 -1.881026,-0.63897 -0.660512,-0.63898 -0.660512,-1.6441 v -4.50872 h -1.737436 v -0.93334 h 1.737436 v -1.71589 l 1.206153,-0.14359 v 1.85948 h 2.613334 l -0.14359,0.93334 h -2.469744 v 4.49436 q 0,0.63179 0.330257,0.96205 0.337436,0.33025 1.11282,0.33025 0.42359,0 0.782564,-0.10051 0.358975,-0.10051 0.667693,-0.25846 z"
         id="text1"
         style="font-size:14px;font-family:'Fira Code';text-anchor:middle;fill:#b9dbfa"
         aria-label="root" />
    </g>
    <!-- root_0 -->
    <g
       id="node2"
       class="node">
      <title
         id="title2">root_0</title>
      <path
         fill="none"
         stroke="#486d8c"
         stroke-width="2"
         d="M98.48,-157.8C98.48,-157.8 88.88,-157.8 88.88,-157.8 84.08,-157.8 79.28,-153 79.28,-148.2 79.28,-148.2 79.28,-138.6 79.28,-138.6 79.28,-133.8 84.08,-129 88.88,-129 88.88,-129 98.48,-129 98.48,-129 103.28,-129 108.08,-133.8 108.08,-138.6 108.08,-138.6 108.08,-148.2 108.08,-148.2 108.08,-153 103.28,-157.8 98.48,-157.8"
         id="path2" />
      <path
         d="m 90.887177,-139.10001 v -0.92615 h 1.177436 v -5.70769 h -1.177436 v -0.92616 h 2.09641 l 0.222564,1.7877 q 0.437949,-0.93334 1.062564,-1.44308 0.624616,-0.50974 1.651282,-0.50974 0.315898,0 0.56,0.0503 0.251282,0.0431 0.509744,0.11487 l -0.172308,2.5559 h -0.990769 v -1.6082 q -0.02872,0 -0.06461,0 -1.737436,0 -2.491283,2.4841 v 3.20205 h 1.536411 v 0.92615 z"
         id="text2"
         style="font-size:14px;font-family:'Fira Code';text-anchor:middle;fill:#b9dbfa"
         aria-label="r" />
    </g>
    <!-- root&#45;&gt;root_0 -->
    <g
       id="edge1"
       class="edge">
      <title
         id="title3">root-&gt;root_0</title>
      <path
         fill="none"
         stroke="#b9dbfa"
         stroke-width="2"
         d="M50.92,-143.4C56.45,-143.4 62.31,-143.4 67.84,-143.4"
         id="path3" />
      <polygon
         fill="#b9dbfa"
         stroke="#b9dbfa"
         stroke-width="2"
         points="67.49,-146.2 75.49,-143.4 67.49,-140.6 67.49,-146.2"
         id="polygon3" />
    </g>
    <!-- root_0_1 -->
    <g
       id="node3"
       class="node">
      <title
         id="title4">root_0_1</title>
      <path
         fill="none"
         stroke="#486d8c"
         stroke-width="2"
         d="M156.28,-157.8C156.28,-157.8 146.68,-157.8 146.68,-157.8 141.88,-157.8 137.08,-153 137.08,-148.2 137.08,-148.2 137.08,-138.6 137.08,-138.6 137.08,-133.8 141.88,-129 146.68,-129 146.68,-129 156.28,-129 156.28,-129 161.08,-129 165.88,-133.8 165.88,-138.6 165.88,-138.6 165.88,-148.2 165.88,-148.2 165.88,-153 161.08,-157.8 156.28,-157.8"
         id="path4" />
      <path
         d="m 149.82153,-146.66001 v 5.3559 q 0,0.74667 0.30872,1.07692 0.30872,0.33026 0.96205,0.33026 0.62462,0 1.17744,-0.35179 0.56,-0.35898 0.86871,-0.84718 v -5.56411 h 1.20616 v 7.56 h -1.02667 l -0.10051,-1.01948 q -0.44513,0.57436 -1.10564,0.88307 -0.65334,0.30154 -1.31385,0.30154 -1.09846,0 -1.6441,-0.58154 -0.53846,-0.58871 -0.53846,-1.6441 v -5.49949 z"
         id="text4"
         style="font-size:14px;font-family:'Fira Code';text-anchor:middle;fill:#b9dbfa"
         aria-label="u" />
    </g>
    <!-- root_0&#45;&gt;root_0_1 -->
    <g
       id="edge2"
       class="edge">
      <title
         id="title5">root_0-&gt;root_0_1</title>
      <path
         fill="none"
         stroke="#b9dbfa"
         stroke-width="2"
         d="M109.05,-143.4C114.03,-143.4 119.78,-143.4 125.37,-143.4"
         id="path5" />
      <polygon
         fill="#b9dbfa"
         stroke="#b9dbfa"
         stroke-width="2"
         points="125.32,-146.2 133.32,-143.4 125.32,-140.6 125.32,-146.2"
         id="polygon5" />
    </g>
    <!-- root_0_1_2 -->
    <g
       id="node4"
       class="node">
      <title
         id="title6">root_0_1_2</title>
      <path
         fill="none"
         stroke="#486d8c"
         stroke-width="2"
         d="M214.08,-157.8C214.08,-157.8 204.48,-157.8 204.48,-157.8 199.68,-157.8 194.88,-153 194.88,-148.2 194.88,-148.2 194.88,-138.6 194.88,-138.6 194.88,-133.8 199.68,-129 204.48,-129 204.48,-129 214.08,-129 214.08,-129 218.88,-129 223.68,-133.8 223.68,-138.6 223.68,-138.6 223.68,-148.2 223.68,-148.2 223.68,-153 218.88,-157.8 214.08,-157.8"
         id="path6" />
      <path
         d="m 210.88102,-149.85488 q 0.61026,0 1.10564,0.10769 0.49539,0.1077 0.94052,0.30154 l -0.3877,0.89744 q -0.36615,-0.15795 -0.78256,-0.23692 -0.40923,-0.079 -0.84,-0.079 -1.58667,0 -1.58667,1.25641 v 1.53641 h 2.56308 l -0.12923,0.94769 h -2.43385 v 6.02359 h -1.20615 v -6.02359 h -1.80205 v -0.94769 h 1.80205 v -1.50769 q 0,-0.70359 0.35897,-1.21333 0.36616,-0.50975 0.99077,-0.78257 0.62462,-0.28 1.40718,-0.28 z"
         id="text6"
         style="font-size:14px;font-family:'Fira Code';text-anchor:middle;fill:#b9dbfa"
         aria-label="f" />
    </g>
    <!-- root_0_1&#45;&gt;root_0_1_2 -->
    <g
       id="edge3"
       class="edge">
      <title
         id="title7">root_0_1-&gt;root_0_1_2</title>
      <path
         fill="none"
         stroke="#b9dbfa"
         stroke-width="2"
         d="M166.85,-143.4C171.83,-143.4 177.58,-143.4 183.17,-143.4"
         id="path7" />
      <polygon
         fill="#b9dbfa"
         stroke="#b9dbfa"
         stroke-width="2"
         points="183.12,-146.2 191.12,-143.4 183.12,-140.6 183.12,-146.2"
         id="polygon7" />
    </g>
    <!-- root_0_1_2_3 -->
    <g
       id="node5"
       class="node">
      <title
         id="title8">root_0_1_2_3</title>
      <path
         fill="none"
         stroke="#486d8c"
         stroke-width="2"
         d="M271.88,-157.8C271.88,-157.8 262.28,-157.8 262.28,-157.8 257.48,-157.8 252.68,-153 252.68,-148.2 252.68,-148.2 252.68,-138.6 252.68,-138.6 252.68,-133.8 257.48,-129 262.28,-129 262.28,-129 271.88,-129 271.88,-129 276.68,-129 281.48,-133.8 281.48,-138.6 281.48,-138.6 281.48,-148.2 281.48,-148.2 281.48,-153 276.68,-157.8 271.88,-157.8"
         id="path8" />
      <path
         d="m 267.15896,-149.70411 v 8.73744 q 0,0.56 0.34461,0.79692 0.3518,0.22974 0.90462,0.22974 0.33743,0 0.64615,-0.0718 0.3159,-0.0718 0.62462,-0.19385 l 0.32307,0.88308 q -0.30871,0.15077 -0.7682,0.26564 -0.45231,0.12205 -1.02667,0.12205 -1.00513,0 -1.62974,-0.55282 -0.62462,-0.56 -0.62462,-1.54359 v -7.71795 h -2.31897 v -0.95487 z"
         id="text8"
         style="font-size:14px;font-family:'Fira Code';text-anchor:middle;fill:#b9dbfa"
         aria-label="l" />
    </g>
    <!-- root_0_1_2&#45;&gt;root_0_1_2_3 -->
    <g
       id="edge4"
       class="edge">
      <title
         id="title9">root_0_1_2-&gt;root_0_1_2_3</title>
      <path
         fill="none"
         stroke="#b9dbfa"
         stroke-width="2"
         d="M224.65,-143.4C229.63,-143.4 235.38,-143.4 240.97,-143.4"
         id="path9" />
      <polygon
         fill="#b9dbfa"
         stroke="#b9dbfa"
         stroke-width="2"
         points="240.92,-146.2 248.92,-143.4 240.92,-140.6 240.92,-146.2"
         id="polygon9" />
    </g>
    <!-- root_0_1_2_3_4 -->
    <g
       id="node6"
       class="node">
      <title
         id="title10">root_0_1_2_3_4</title>
      <path
         fill="none"
         stroke="#486d8c"
         stroke-width="2"
         d="M329.68,-286.8C329.68,-286.8 320.08,-286.8 320.08,-286.8 315.28,-286.8 310.48,-282 310.48,-277.2 310.48,-277.2 310.48,-267.6 310.48,-267.6 310.48,-262.8 315.28,-258 320.08,-258 320.08,-258 329.68,-258 329.68,-258 334.48,-258 339.28,-262.8 339.28,-267.6 339.28,-267.6 339.28,-277.2 339.28,-277.2 339.28,-282 334.48,-286.8 329.68,-286.8"
         id="path10" />
      <path
         d="m 323.22154,-275.66001 v 5.3559 q 0,0.74667 0.30872,1.07692 0.30872,0.33026 0.96205,0.33026 0.62461,0 1.17744,-0.35179 0.56,-0.35898 0.86871,-0.84718 v -5.56411 h 1.20616 v 7.56 h -1.02667 l -0.10051,-1.01948 q -0.44513,0.57436 -1.10564,0.88307 -0.65334,0.30154 -1.31385,0.30154 -1.09846,0 -1.6441,-0.58154 -0.53846,-0.58871 -0.53846,-1.6441 v -5.49949 z m 2.85744,-3.8841 0.56,1.03385 -3.00103,1.22051 -0.37333,-0.64615 z"
         id="text10"
         style="font-size:14px;font-family:'Fira Code';text-anchor:middle;fill:#b9dbfa"
         aria-label="ú" />
    </g>
    <!-- root_0_1_2_3&#45;&gt;root_0_1_2_3_4 -->
    <g
       id="edge5"
       class="edge">
      <title
         id="title11">root_0_1_2_3-&gt;root_0_1_2_3_4</title>
      <path
         fill="none"
         stroke="#b9dbfa"
         stroke-width="2"
         d="M273.2,-158.64C279.88,-177.98 292.42,-212.46 309.49,-247.74"
         id="path11" />
      <polygon
         fill="#b9dbfa"
         stroke="#b9dbfa"
         stroke-width="2"
         points="306.77,-248.56 312.83,-254.49 311.79,-246.08 306.77,-248.56"
         id="polygon11" />
    </g>
    <!-- root_0_1_2_3_5 -->
    <g
       id="node8"
       class="node">
      <title
         id="title12">root_0_1_2_3_5</title>
      <path
         fill="none"
         stroke="#486d8c"
         stroke-width="2"
         d="M329.68,-243.8C329.68,-243.8 320.08,-243.8 320.08,-243.8 315.28,-243.8 310.48,-239 310.48,-234.2 310.48,-234.2 310.48,-224.6 310.48,-224.6 310.48,-219.8 315.28,-215 320.08,-215 320.08,-215 329.68,-215 329.68,-215 334.48,-215 339.28,-219.8 339.28,-224.6 339.28,-224.6 339.28,-234.2 339.28,-234.2 339.28,-239 334.48,-243.8 329.68,-243.8"
         id="path12" />
      <path
         d="m 324.89436,-232.81795 q 1.60103,0 2.41949,1.06974 0.81846,1.06974 0.81846,2.86461 0,1.1559 -0.37333,2.04616 -0.37334,0.89025 -1.09847,1.4 -0.72512,0.50256 -1.78051,0.50256 -1.60102,0 -2.42666,-1.07692 -0.82565,-1.07692 -0.82565,-2.85744 0,-1.16307 0.37334,-2.05333 0.37333,-0.89744 1.09846,-1.39282 0.73231,-0.50256 1.79487,-0.50256 z m 0,0.98358 q -0.97641,0 -1.47897,0.72513 -0.49539,0.72513 -0.49539,2.24 0,1.50052 0.48821,2.22564 0.49538,0.71795 1.47179,0.71795 0.97641,0 1.46462,-0.72513 0.49538,-0.72512 0.49538,-2.23282 0,-1.50769 -0.4882,-2.22564 -0.48821,-0.72513 -1.45744,-0.72513 z m 1.18462,-4.70974 0.56,1.03385 -3.00103,1.22051 -0.37333,-0.64615 z"
         id="text12"
         style="font-size:14px;font-family:'Fira Code';text-anchor:middle;fill:#b9dbfa"
         aria-label="ó" />
    </g>
    <!-- root_0_1_2_3&#45;&gt;root_0_1_2_3_5 -->
    <g
       id="edge7"
       class="edge">
      <title
         id="title13">root_0_1_2_3-&gt;root_0_1_2_3_5</title>
      <path
         fill="none"
         stroke="#b9dbfa"
         stroke-width="2"
         d="M278.06,-158.78C286.39,-171.62 298.42,-190.16 308.06,-205.02"
         id="path13" />
      <polygon
         fill="#b9dbfa"
         stroke="#b9dbfa"
         stroke-width="2"
         points="305.64,-206.43 312.34,-211.62 310.34,-203.38 305.64,-206.43"
         id="polygon13" />
    </g>
    <!-- root_0_1_2_3_6 -->
    <g
       id="node10"
       class="node">
      <title
         id="title14">root_0_1_2_3_6</title>
      <path
         fill="none"
         stroke="#486d8c"
         stroke-width="2"
         d="M329.68,-200.8C329.68,-200.8 320.08,-200.8 320.08,-200.8 315.28,-200.8 310.48,-196 310.48,-191.2 310.48,-191.2 310.48,-181.6 310.48,-181.6 310.48,-176.8 315.28,-172 320.08,-172 320.08,-172 329.68,-172 329.68,-172 334.48,-172 339.28,-176.8 339.28,-181.6 339.28,-181.6 339.28,-191.2 339.28,-191.2 339.28,-196 334.48,-200.8 329.68,-200.8"
         id="path14" />
      <path
         d="m 326.79692,-184.62001 h -3.91282 l -0.78974,2.52 h -1.22769 l 3.21641,-9.88615 h 1.59384 l 3.21642,9.88615 h -1.30667 z m -3.58974,-1.03384 h 3.26667 l -1.62257,-5.2841 z m 2.85026,-9.45539 0.54564,1.03385 -3.06564,1.12718 -0.32308,-0.64616 z"
         id="text14"
         style="font-size:14px;font-family:'Fira Code';text-anchor:middle;fill:#b9dbfa"
         aria-label="Á" />
    </g>
    <!-- root_0_1_2_3&#45;&gt;root_0_1_2_3_6 -->
    <g
       id="edge9"
       class="edge">
      <title
         id="title15">root_0_1_2_3-&gt;root_0_1_2_3_6</title>
      <path
         fill="none"
         stroke="#b9dbfa"
         stroke-width="2"
         d="M282.45,-154.47C288.22,-158.92 295.01,-164.16 301.41,-169.08"
         id="path15" />
      <polygon
         fill="#b9dbfa"
         stroke="#b9dbfa"
         stroke-width="2"
         points="299.31,-171 307.35,-173.67 302.73,-166.56 299.31,-171"
         id="polygon15" />
    </g>
    <!-- root_0_1_2_3_7 -->
    <g
       id="node12"
       class="node">
      <title
         id="title16">root_0_1_2_3_7</title>
      <path
         fill="none"
         stroke="#486d8c"
         stroke-width="2"
         d="M329.68,-157.8C329.68,-157.8 320.08,-157.8 320.08,-157.8 315.28,-157.8 310.48,-153 310.48,-148.2 310.48,-148.2 310.48,-138.6 310.48,-138.6 310.48,-133.8 315.28,-129 320.08,-129 320.08,-129 329.68,-129 329.68,-129 334.48,-129 339.28,-133.8 339.28,-138.6 339.28,-138.6 339.28,-148.2 339.28,-148.2 339.28,-153 334.48,-157.8 329.68,-157.8"
         id="path16" />
      <path
         d="m 323.62359,-147.96667 v 3.33128 h 3.66154 v 1.02667 h -3.66154 v 3.51077 h 4.49436 v 0.99794 h -5.74359 v -9.88615 h 5.61436 l -0.14359,1.01949 z"
         id="text16"
         style="font-size:14px;font-family:'Fira Code';text-anchor:middle;fill:#b9dbfa"
         aria-label="E" />
    </g>
    <!-- root_0_1_2_3&#45;&gt;root_0_1_2_3_7 -->
    <g
       id="edge11"
       class="edge">
      <title
         id="title17">root_0_1_2_3-&gt;root_0_1_2_3_7</title>
      <path
         fill="none"
         stroke="#b9dbfa"
         stroke-width="2"
         d="M282.45,-143.4C287.43,-143.4 293.18,-143.4 298.77,-143.4"
         id="path17" />
      <polygon
         fill="#b9dbfa"
         stroke="#b9dbfa"
         stroke-width="2"
         points="298.72,-146.2 306.72,-143.4 298.72,-140.6 298.72,-146.2"
         id="polygon17" />
    </g>
    <!-- root_0_1_2_3_8 -->
    <g
       id="node14"
       class="node">
      <title
         id="title18">root_0_1_2_3_8</title>
      <path
         fill="none"
         stroke="#486d8c"
         stroke-width="2"
         d="M329.68,-114.8C329.68,-114.8 320.08,-114.8 320.08,-114.8 315.28,-114.8 310.48,-110 310.48,-105.2 310.48,-105.2 310.48,-95.6 310.48,-95.6 310.48,-90.8 315.28,-86 320.08,-86 320.08,-86 329.68,-86 329.68,-86 334.48,-86 339.28,-90.8 339.28,-95.6 339.28,-95.6 339.28,-105.2 339.28,-105.2 339.28,-110 334.48,-114.8 329.68,-114.8"
         id="path18" />
      <path
         d="m 328.14667,-105.98615 v 6.6841 q 0,0.997949 -0.40205,1.758975 -0.40205,0.761025 -1.14154,1.184615 -0.73949,0.42359 -1.73744,0.42359 -1.01948,0 -1.75179,-0.42359 -0.72513,-0.430769 -1.11282,-1.184615 -0.38769,-0.761026 -0.38769,-1.758975 v -6.6841 h 1.23487 v 6.727177 q 0,1.12718 0.5241,1.68718 0.53128,0.56 1.49333,0.56 0.96923,0 1.49334,-0.56 0.53128,-0.56 0.53128,-1.68718 v -6.727177 z m -2.08923,-3.12308 0.54564,1.03385 -3.06564,1.12718 -0.32308,-0.64616 z"
         id="text18"
         style="font-size:14px;font-family:'Fira Code';text-anchor:middle;fill:#b9dbfa"
         aria-label="Ú" />
    </g>
    <!-- root_0_1_2_3&#45;&gt;root_0_1_2_3_8 -->
    <g
       id="edge13"
       class="edge">
      <title
         id="title19">root_0_1_2_3-&gt;root_0_1_2_3_8</title>
      <path
         fill="none"
         stroke="#b9dbfa"
         stroke-width="2"
         d="M282.45,-132.33C288.22,-127.88 295.01,-122.64 301.41,-117.72"
         id="path19" />
      <polygon
         fill="#b9dbfa"
         stroke="#b9dbfa"
         stroke-width="2"
         points="302.73,-120.24 307.35,-113.13 299.31,-115.8 302.73,-120.24"
         id="polygon19" />
    </g>
    <!-- root_0_1_2_3_9 -->
    <g
       id="node16"
       class="node">
      <title
         id="title20">root_0_1_2_3_9</title>
      <path
         fill="none"
         stroke="#486d8c"
         stroke-width="2"
         d="M329.68,-71.8C329.68,-71.8 320.08,-71.8 320.08,-71.8 315.28,-71.8 310.48,-67 310.48,-62.2 310.48,-62.2 310.48,-52.6 310.48,-52.6 310.48,-47.8 315.28,-43 320.08,-43 320.08,-43 329.68,-43 329.68,-43 334.48,-43 339.28,-47.8 339.28,-52.6 339.28,-52.6 339.28,-62.2 339.28,-62.2 339.28,-67 334.48,-71.8 329.68,-71.8"
         id="path20" />
      <path
         d="m 325.5118,-56.912306 v 3.812308 h -1.26359 v -3.797949 l -3.33846,-6.088205 h 1.37846 l 2.62051,4.953846 2.64923,-4.953846 h 1.29231 z"
         id="text20"
         style="font-size:14px;font-family:'Fira Code';text-anchor:middle;fill:#b9dbfa"
         aria-label="Y" />
    </g>
    <!-- root_0_1_2_3&#45;&gt;root_0_1_2_3_9 -->
    <g
       id="edge15"
       class="edge">
      <title
         id="title21">root_0_1_2_3-&gt;root_0_1_2_3_9</title>
      <path
         fill="none"
         stroke="#b9dbfa"
         stroke-width="2"
         d="M278.06,-128.02C286.39,-115.18 298.42,-96.64 308.06,-81.78"
         id="path21" />
      <polygon
         fill="#b9dbfa"
         stroke="#b9dbfa"
         stroke-width="2"
         points="310.34,-83.42 312.34,-75.18 305.64,-80.37 310.34,-83.42"
         id="polygon21" />
    </g>
    <!-- root_0_1_2_3_10 -->
    <g
       id="node18"
       class="node">
      <title
         id="title22">root_0_1_2_3_10</title>
      <path
         fill="none"
         stroke="#486d8c"
         stroke-width="2"
         d="M329.68,-28.8C329.68,-28.8 320.08,-28.8 320.08,-28.8 315.28,-28.8 310.48,-24 310.48,-19.2 310.48,-19.2 310.48,-9.6 310.48,-9.6 310.48,-4.8 315.28,0 320.08,0 320.08,0 329.68,0 329.68,0 334.48,0 339.28,-4.8 339.28,-9.6 339.28,-9.6 339.28,-19.2 339.28,-19.2 339.28,-24 334.48,-28.8 329.68,-28.8"
         id="path22" />
      <path
         d="m 322.96308,-13.452821 q 0.0503,1.313846 0.68923,1.916923 0.64615,0.595898 1.52205,0.595898 0.58154,0 1.04821,-0.172308 0.46666,-0.172308 0.96923,-0.509744 l 0.56718,0.796923 q -0.52411,0.416411 -1.20616,0.653334 -0.68205,0.2369228 -1.39282,0.2369228 -1.10564,0 -1.88102,-0.4953848 -0.76821,-0.495384 -1.17744,-1.378461 -0.40205,-0.890257 -0.40205,-2.060513 0,-1.148718 0.40205,-2.038975 0.40923,-0.890256 1.14872,-1.4 0.74666,-0.509743 1.75179,-0.509743 1.42872,0 2.24718,0.990769 0.82564,0.990769 0.82564,2.713846 0,0.193846 -0.0144,0.366154 -0.007,0.172308 -0.0144,0.294359 z m 2.05333,-3.374359 q -0.84,0 -1.40718,0.595898 -0.56718,0.595897 -0.63897,1.845128 h 3.94154 q -0.0215,-1.213334 -0.53129,-1.82359 -0.50974,-0.617436 -1.3641,-0.617436 z"
         id="text22"
         style="font-size:14px;font-family:'Fira Code';text-anchor:middle;fill:#b9dbfa"
         aria-label="e" />
    </g>
    <!-- root_0_1_2_3&#45;&gt;root_0_1_2_3_10 -->
    <g
       id="edge17"
       class="edge">
      <title
         id="title23">root_0_1_2_3-&gt;root_0_1_2_3_10</title>
      <path
         fill="none"
         stroke="#b9dbfa"
         stroke-width="2"
         d="M273.2,-128.16C279.88,-108.82 292.42,-74.34 309.49,-39.06"
         id="path23" />
      <polygon
         fill="#b9dbfa"
         stroke="#b9dbfa"
         stroke-width="2"
         points="311.79,-40.72 312.83,-32.31 306.77,-38.24 311.79,-40.72"
         id="polygon23" />
    </g>
    <!-- root_0_1_2_3_4_val -->
    <g
       id="node7"
       class="node">
      <title
         id="title24">root_0_1_2_3_4_val</title>
      <polygon
         fill="none"
         stroke="#486d8c"
         stroke-width="2"
         points="468.06,-286.8 376.53,-286.8 376.53,-258 468.06,-258 468.06,-286.8"
         id="polygon24" />
      <path
         d="m 387.40047,-278.14411 q 0.93334,0 1.60103,0.36616 0.66769,0.35897 1.01949,0.98358 0.35897,0.62462 0.35897,1.40718 0,0.68206 -0.23692,1.33539 -0.23693,0.64615 -0.76103,1.3641 -0.51692,0.71077 -1.3641,1.57949 -0.84718,0.86872 -2.06769,1.98154 h 4.65948 l -0.15077,1.02666 h -5.88 v -0.98359 q 1.4,-1.34256 2.28308,-2.26871 0.89026,-0.92616 1.37846,-1.59385 0.48821,-0.67487 0.67487,-1.23487 0.19385,-0.56 0.19385,-1.16308 0,-0.83282 -0.46667,-1.31384 -0.46666,-0.48103 -1.29948,-0.48103 -0.73231,0 -1.19898,0.25128 -0.46666,0.25128 -0.93333,0.8041 l -0.83282,-0.64615 q 0.58872,-0.71795 1.29949,-1.06256 0.71794,-0.3518 1.72307,-0.3518 z m 9.03898,2.70667 q 0.50257,0 0.83282,0.33743 0.33744,0.33744 0.33744,0.81847 0,0.48102 -0.33744,0.82564 -0.33025,0.34461 -0.83282,0.34461 -0.4882,0 -0.82564,-0.34461 -0.33025,-0.34462 -0.33025,-0.82564 0,-0.48103 0.33025,-0.81847 0.33744,-0.33743 0.82564,-0.33743 z m 0,4.96102 q 0.50257,0 0.83282,0.33744 0.33744,0.33744 0.33744,0.81128 0,0.26564 -0.0646,0.53846 -0.0574,0.26564 -0.22256,0.60308 l -1.16308,2.67077 h -1.09128 l 0.68923,-2.85026 q -0.47384,-0.33025 -0.47384,-0.95487 0,-0.48102 0.33025,-0.81846 0.33744,-0.33744 0.82564,-0.33744 z m 6.97129,-5.18359 v 5.3559 q 0,0.74667 0.30872,1.07692 0.30872,0.33026 0.96205,0.33026 0.62462,0 1.17744,-0.35179 0.56,-0.35898 0.86871,-0.84718 v -5.56411 h 1.20616 v 7.56 h -1.02667 l -0.10051,-1.01948 q -0.44513,0.57436 -1.10564,0.88307 -0.65334,0.30154 -1.31385,0.30154 -1.09846,0 -1.6441,-0.58154 -0.53846,-0.58871 -0.53846,-1.6441 v -5.49949 z m 7.48103,7.56 v -0.92615 h 1.17744 v -5.70769 h -1.17744 v -0.92616 h 2.09641 l 0.22257,1.7877 q 0.43795,-0.93334 1.06256,-1.44308 0.62462,-0.50974 1.65128,-0.50974 0.3159,0 0.56,0.0503 0.25129,0.0431 0.50975,0.11487 l -0.17231,2.5559 h -0.99077 v -1.6082 q -0.0287,0 -0.0646,0 -1.73744,0 -2.49129,2.4841 v 3.20205 h 1.53641 v 0.92615 z m 11.40821,-2.36205 q 0.49539,0 0.82565,0.33744 0.33743,0.33743 0.33743,0.81128 0,0.25846 -0.0646,0.5241 -0.0574,0.26564 -0.21539,0.60308 l -1.16308,2.66359 h -1.09128 l 0.68923,-2.8359 q -0.46666,-0.33743 -0.46666,-0.95487 0,-0.47385 0.33025,-0.81128 0.33026,-0.33744 0.81846,-0.33744 z m 8.6154,0 q 0.49538,0 0.82564,0.33744 0.33743,0.33743 0.33743,0.81128 0,0.25846 -0.0646,0.5241 -0.0574,0.26564 -0.21539,0.60308 l -1.16307,2.66359 h -1.09129 l 0.68923,-2.8359 q -0.46666,-0.33743 -0.46666,-0.95487 0,-0.47385 0.33025,-0.81128 0.33026,-0.33744 0.81847,-0.33744 z m 8.61539,-8.73743 q 0.40205,0 0.63897,0.2441 0.2441,0.2441 0.2441,0.5959 0,0.36615 -0.2441,0.61743 -0.23692,0.24411 -0.63897,0.24411 -0.38052,0 -0.62462,-0.24411 -0.2441,-0.25128 -0.2441,-0.61743 0,-0.3518 0.2441,-0.5959 0.2441,-0.2441 0.62462,-0.2441 z m 0.96205,3.53948 v 6.60513 h 2.13231 v 0.95487 h -5.6718 v -0.95487 h 2.33333 v -5.65025 h -2.26153 v -0.95488 z m 7.65334,5.19795 q 0.49538,0 0.82564,0.33744 0.33743,0.33743 0.33743,0.81128 0,0.25846 -0.0646,0.5241 -0.0574,0.26564 -0.21539,0.60308 l -1.16307,2.66359 h -1.09129 l 0.68924,-2.8359 q -0.46667,-0.33743 -0.46667,-0.95487 0,-0.47385 0.33026,-0.81128 0.33025,-0.33744 0.81846,-0.33744 z m 8.32103,1.52923 q 0.8759,0 1.37846,-0.32307 0.50256,-0.32308 0.50256,-0.8759 0,-0.33744 -0.12923,-0.58872 -0.12205,-0.25128 -0.50974,-0.45231 -0.38769,-0.2082 -1.19179,-0.40923 -0.78257,-0.19384 -1.36411,-0.44513 -0.57436,-0.25846 -0.89743,-0.66769 -0.3159,-0.40923 -0.3159,-1.06256 0,-0.95487 0.79692,-1.50769 0.79693,-0.55282 2.07487,-0.55282 0.9118,0 1.58667,0.2441 0.68205,0.2441 1.1559,0.58872 l -0.53128,0.81846 q -0.42359,-0.29436 -0.9477,-0.48103 -0.51692,-0.19384 -1.24923,-0.19384 -0.89025,0 -1.26359,0.28 -0.37333,0.27282 -0.37333,0.71076 0,0.33744 0.17949,0.56 0.18666,0.21539 0.62461,0.3877 0.43795,0.1723 1.20616,0.38051 0.73948,0.20103 1.2923,0.47385 0.55282,0.27282 0.85436,0.71794 0.30872,0.43795 0.30872,1.14154 0,0.80411 -0.45949,1.30667 -0.45948,0.49538 -1.19179,0.72513 -0.72513,0.22256 -1.53641,0.22256 -1.02667,0 -1.7518,-0.29436 -0.71794,-0.30154 -1.20615,-0.72513 l 0.68923,-0.79692 q 0.44513,0.36616 1.01949,0.5959 0.58154,0.22256 1.24923,0.22256 z"
         id="text24"
         style="font-size:14px;font-family:'Fira Code';text-anchor:middle;fill:#b9dbfa"
         aria-label="2;ur,,i,s" />
    </g>
    <!-- root_0_1_2_3_4&#45;&gt;root_0_1_2_3_4_val -->
    <g
       id="edge6"
       class="edge">
      <title
         id="title25">root_0_1_2_3_4-&gt;root_0_1_2_3_4_val</title>
      <path
         fill="none"
         stroke="#b9dbfa"
         stroke-width="2"
         d="M339.96,-272.4C346.81,-272.4 355.56,-272.4 364.75,-272.4"
         id="path25" />
      <polygon
         fill="#b9dbfa"
         stroke="#b9dbfa"
         stroke-width="2"
         points="364.64,-275.2 372.64,-272.4 364.64,-269.6 364.64,-275.2"
         id="polygon25" />
    </g>
    <!-- root_0_1_2_3_5_val -->
    <g
       id="node9"
       class="node">
      <title
         id="title26">root_0_1_2_3_5_val</title>
      <polygon
         fill="none"
         stroke="#486d8c"
         stroke-width="2"
         points="468.06,-243.8 376.53,-243.8 376.53,-215 468.06,-215 468.06,-243.8"
         id="polygon26" />
      <path
         d="m 387.40047,-235.14411 q 0.93334,0 1.60103,0.36616 0.66769,0.35897 1.01949,0.98358 0.35897,0.62462 0.35897,1.40718 0,0.68206 -0.23692,1.33539 -0.23693,0.64615 -0.76103,1.3641 -0.51692,0.71077 -1.3641,1.57949 -0.84718,0.86872 -2.06769,1.98154 h 4.65948 l -0.15077,1.02666 h -5.88 v -0.98359 q 1.4,-1.34256 2.28308,-2.26871 0.89026,-0.92616 1.37846,-1.59385 0.48821,-0.67487 0.67487,-1.23487 0.19385,-0.56 0.19385,-1.16308 0,-0.83282 -0.46667,-1.31384 -0.46666,-0.48103 -1.29948,-0.48103 -0.73231,0 -1.19898,0.25128 -0.46666,0.25128 -0.93333,0.8041 l -0.83282,-0.64615 q 0.58872,-0.71795 1.29949,-1.06256 0.71794,-0.3518 1.72307,-0.3518 z m 9.03898,2.70667 q 0.50257,0 0.83282,0.33743 0.33744,0.33744 0.33744,0.81847 0,0.48102 -0.33744,0.82564 -0.33025,0.34461 -0.83282,0.34461 -0.4882,0 -0.82564,-0.34461 -0.33025,-0.34462 -0.33025,-0.82564 0,-0.48103 0.33025,-0.81847 0.33744,-0.33743 0.82564,-0.33743 z m 0,4.96102 q 0.50257,0 0.83282,0.33744 0.33744,0.33744 0.33744,0.81128 0,0.26564 -0.0646,0.53846 -0.0574,0.26564 -0.22256,0.60308 l -1.16308,2.67077 h -1.09128 l 0.68923,-2.85026 q -0.47384,-0.33025 -0.47384,-0.95487 0,-0.48102 0.33025,-0.81846 0.33744,-0.33744 0.82564,-0.33744 z m 6.97129,-5.18359 v 5.3559 q 0,0.74667 0.30872,1.07692 0.30872,0.33026 0.96205,0.33026 0.62462,0 1.17744,-0.35179 0.56,-0.35898 0.86871,-0.84718 v -5.56411 h 1.20616 v 7.56 h -1.02667 l -0.10051,-1.01948 q -0.44513,0.57436 -1.10564,0.88307 -0.65334,0.30154 -1.31385,0.30154 -1.09846,0 -1.6441,-0.58154 -0.53846,-0.58871 -0.53846,-1.6441 v -5.49949 z m 7.48103,7.56 v -0.92615 h 1.17744 v -5.70769 h -1.17744 v -0.92616 h 2.09641 l 0.22257,1.7877 q 0.43795,-0.93334 1.06256,-1.44308 0.62462,-0.50974 1.65128,-0.50974 0.3159,0 0.56,0.0503 0.25129,0.0431 0.50975,0.11487 l -0.17231,2.5559 h -0.99077 v -1.6082 q -0.0287,0 -0.0646,0 -1.73744,0 -2.49129,2.4841 v 3.20205 h 1.53641 v 0.92615 z m 11.40821,-2.36205 q 0.49539,0 0.82565,0.33744 0.33743,0.33743 0.33743,0.81128 0,0.25846 -0.0646,0.5241 -0.0574,0.26564 -0.21539,0.60308 l -1.16308,2.66359 h -1.09128 l 0.68923,-2.8359 q -0.46666,-0.33743 -0.46666,-0.95487 0,-0.47385 0.33025,-0.81128 0.33026,-0.33744 0.81846,-0.33744 z m 8.6154,0 q 0.49538,0 0.82564,0.33744 0.33743,0.33743 0.33743,0.81128 0,0.25846 -0.0646,0.5241 -0.0574,0.26564 -0.21539,0.60308 l -1.16307,2.66359 h -1.09129 l 0.68923,-2.8359 q -0.46666,-0.33743 -0.46666,-0.95487 0,-0.47385 0.33025,-0.81128 0.33026,-0.33744 0.81847,-0.33744 z m 8.61539,-8.73743 q 0.40205,0 0.63897,0.2441 0.2441,0.2441 0.2441,0.5959 0,0.36615 -0.2441,0.61743 -0.23692,0.24411 -0.63897,0.24411 -0.38052,0 -0.62462,-0.24411 -0.2441,-0.25128 -0.2441,-0.61743 0,-0.3518 0.2441,-0.5959 0.2441,-0.2441 0.62462,-0.2441 z m 0.96205,3.53948 v 6.60513 h 2.13231 v 0.95487 h -5.6718 v -0.95487 h 2.33333 v -5.65025 h -2.26153 v -0.95488 z m 7.65334,5.19795 q 0.49538,0 0.82564,0.33744 0.33743,0.33743 0.33743,0.81128 0,0.25846 -0.0646,0.5241 -0.0574,0.26564 -0.21539,0.60308 l -1.16307,2.66359 h -1.09129 l 0.68924,-2.8359 q -0.46667,-0.33743 -0.46667,-0.95487 0,-0.47385 0.33026,-0.81128 0.33025,-0.33744 0.81846,-0.33744 z m 8.32103,1.52923 q 0.8759,0 1.37846,-0.32307 0.50256,-0.32308 0.50256,-0.8759 0,-0.33744 -0.12923,-0.58872 -0.12205,-0.25128 -0.50974,-0.45231 -0.38769,-0.2082 -1.19179,-0.40923 -0.78257,-0.19384 -1.36411,-0.44513 -0.57436,-0.25846 -0.89743,-0.66769 -0.3159,-0.40923 -0.3159,-1.06256 0,-0.95487 0.79692,-1.50769 0.79693,-0.55282 2.07487,-0.55282 0.9118,0 1.58667,0.2441 0.68205,0.2441 1.1559,0.58872 l -0.53128,0.81846 q -0.42359,-0.29436 -0.9477,-0.48103 -0.51692,-0.19384 -1.24923,-0.19384 -0.89025,0 -1.26359,0.28 -0.37333,0.27282 -0.37333,0.71076 0,0.33744 0.17949,0.56 0.18666,0.21539 0.62461,0.3877 0.43795,0.1723 1.20616,0.38051 0.73948,0.20103 1.2923,0.47385 0.55282,0.27282 0.85436,0.71794 0.30872,0.43795 0.30872,1.14154 0,0.80411 -0.45949,1.30667 -0.45948,0.49538 -1.19179,0.72513 -0.72513,0.22256 -1.53641,0.22256 -1.02667,0 -1.7518,-0.29436 -0.71794,-0.30154 -1.20615,-0.72513 l 0.68923,-0.79692 q 0.44513,0.36616 1.01949,0.5959 0.58154,0.22256 1.24923,0.22256 z"
         id="text26"
         style="font-size:14px;font-family:'Fira Code';text-anchor:middle;fill:#b9dbfa"
         aria-label="2;ur,,i,s" />
    </g>
    <!-- root_0_1_2_3_5&#45;&gt;root_0_1_2_3_5_val -->
    <g
       id="edge8"
       class="edge">
      <title
         id="title27">root_0_1_2_3_5-&gt;root_0_1_2_3_5_val</title>
      <path
         fill="none"
         stroke="#b9dbfa"
         stroke-width="2"
         d="M339.96,-229.4C346.81,-229.4 355.56,-229.4 364.75,-229.4"
         id="path27" />
      <polygon
         fill="#b9dbfa"
         stroke="#b9dbfa"
         stroke-width="2"
         points="364.64,-232.2 372.64,-229.4 364.64,-226.6 364.64,-232.2"
         id="polygon27" />
    </g>
    <!-- root_0_1_2_3_6_val -->
    <g
       id="node11"
       class="node">
      <title
         id="title28">root_0_1_2_3_6_val</title>
      <polygon
         fill="none"
         stroke="#486d8c"
         stroke-width="2"
         points="468.06,-200.8 376.53,-200.8 376.53,-172 468.06,-172 468.06,-200.8"
         id="polygon28" />
      <path
         d="m 387.40047,-192.14411 q 0.93334,0 1.60103,0.36616 0.66769,0.35897 1.01949,0.98358 0.35897,0.62462 0.35897,1.40718 0,0.68206 -0.23692,1.33539 -0.23693,0.64615 -0.76103,1.3641 -0.51692,0.71077 -1.3641,1.57949 -0.84718,0.86872 -2.06769,1.98154 h 4.65948 l -0.15077,1.02666 h -5.88 v -0.98359 q 1.4,-1.34256 2.28308,-2.26871 0.89026,-0.92616 1.37846,-1.59385 0.48821,-0.67487 0.67487,-1.23487 0.19385,-0.56 0.19385,-1.16308 0,-0.83282 -0.46667,-1.31384 -0.46666,-0.48103 -1.29948,-0.48103 -0.73231,0 -1.19898,0.25128 -0.46666,0.25128 -0.93333,0.8041 l -0.83282,-0.64615 q 0.58872,-0.71795 1.29949,-1.06256 0.71794,-0.3518 1.72307,-0.3518 z m 9.03898,2.70667 q 0.50257,0 0.83282,0.33743 0.33744,0.33744 0.33744,0.81847 0,0.48102 -0.33744,0.82564 -0.33025,0.34461 -0.83282,0.34461 -0.4882,0 -0.82564,-0.34461 -0.33025,-0.34462 -0.33025,-0.82564 0,-0.48103 0.33025,-0.81847 0.33744,-0.33743 0.82564,-0.33743 z m 0,4.96102 q 0.50257,0 0.83282,0.33744 0.33744,0.33744 0.33744,0.81128 0,0.26564 -0.0646,0.53846 -0.0574,0.26564 -0.22256,0.60308 l -1.16308,2.67077 h -1.09128 l 0.68923,-2.85026 q -0.47384,-0.33025 -0.47384,-0.95487 0,-0.48102 0.33025,-0.81846 0.33744,-0.33744 0.82564,-0.33744 z m 6.97129,-5.18359 v 5.3559 q 0,0.74667 0.30872,1.07692 0.30872,0.33026 0.96205,0.33026 0.62462,0 1.17744,-0.35179 0.56,-0.35898 0.86871,-0.84718 v -5.56411 h 1.20616 v 7.56 h -1.02667 l -0.10051,-1.01948 q -0.44513,0.57436 -1.10564,0.88307 -0.65334,0.30154 -1.31385,0.30154 -1.09846,0 -1.6441,-0.58154 -0.53846,-0.58871 -0.53846,-1.6441 v -5.49949 z m 7.48103,7.56 v -0.92615 h 1.17744 v -5.70769 h -1.17744 v -0.92616 h 2.09641 l 0.22257,1.7877 q 0.43795,-0.93334 1.06256,-1.44308 0.62462,-0.50974 1.65128,-0.50974 0.3159,0 0.56,0.0503 0.25129,0.0431 0.50975,0.11487 l -0.17231,2.5559 h -0.99077 v -1.6082 q -0.0287,0 -0.0646,0 -1.73744,0 -2.49129,2.4841 v 3.20205 h 1.53641 v 0.92615 z m 11.40821,-2.36205 q 0.49539,0 0.82565,0.33744 0.33743,0.33743 0.33743,0.81128 0,0.25846 -0.0646,0.5241 -0.0574,0.26564 -0.21539,0.60308 l -1.16308,2.66359 h -1.09128 l 0.68923,-2.8359 q -0.46666,-0.33743 -0.46666,-0.95487 0,-0.47385 0.33025,-0.81128 0.33026,-0.33744 0.81846,-0.33744 z m 8.6154,0 q 0.49538,0 0.82564,0.33744 0.33743,0.33743 0.33743,0.81128 0,0.25846 -0.0646,0.5241 -0.0574,0.26564 -0.21539,0.60308 l -1.16307,2.66359 h -1.09129 l 0.68923,-2.8359 q -0.46666,-0.33743 -0.46666,-0.95487 0,-0.47385 0.33025,-0.81128 0.33026,-0.33744 0.81847,-0.33744 z m 8.61539,-8.73743 q 0.40205,0 0.63897,0.2441 0.2441,0.2441 0.2441,0.5959 0,0.36615 -0.2441,0.61743 -0.23692,0.24411 -0.63897,0.24411 -0.38052,0 -0.62462,-0.24411 -0.2441,-0.25128 -0.2441,-0.61743 0,-0.3518 0.2441,-0.5959 0.2441,-0.2441 0.62462,-0.2441 z m 0.96205,3.53948 v 6.60513 h 2.13231 v 0.95487 h -5.6718 v -0.95487 h 2.33333 v -5.65025 h -2.26153 v -0.95488 z m 7.65334,5.19795 q 0.49538,0 0.82564,0.33744 0.33743,0.33743 0.33743,0.81128 0,0.25846 -0.0646,0.5241 -0.0574,0.26564 -0.21539,0.60308 l -1.16307,2.66359 h -1.09129 l 0.68924,-2.8359 q -0.46667,-0.33743 -0.46667,-0.95487 0,-0.47385 0.33026,-0.81128 0.33025,-0.33744 0.81846,-0.33744 z m 8.32103,1.52923 q 0.8759,0 1.37846,-0.32307 0.50256,-0.32308 0.50256,-0.8759 0,-0.33744 -0.12923,-0.58872 -0.12205,-0.25128 -0.50974,-0.45231 -0.38769,-0.2082 -1.19179,-0.40923 -0.78257,-0.19384 -1.36411,-0.44513 -0.57436,-0.25846 -0.89743,-0.66769 -0.3159,-0.40923 -0.3159,-1.06256 0,-0.95487 0.79692,-1.50769 0.79693,-0.55282 2.07487,-0.55282 0.9118,0 1.58667,0.2441 0.68205,0.2441 1.1559,0.58872 l -0.53128,0.81846 q -0.42359,-0.29436 -0.9477,-0.48103 -0.51692,-0.19384 -1.24923,-0.19384 -0.89025,0 -1.26359,0.28 -0.37333,0.27282 -0.37333,0.71076 0,0.33744 0.17949,0.56 0.18666,0.21539 0.62461,0.3877 0.43795,0.1723 1.20616,0.38051 0.73948,0.20103 1.2923,0.47385 0.55282,0.27282 0.85436,0.71794 0.30872,0.43795 0.30872,1.14154 0,0.80411 -0.45949,1.30667 -0.45948,0.49538 -1.19179,0.72513 -0.72513,0.22256 -1.53641,0.22256 -1.02667,0 -1.7518,-0.29436 -0.71794,-0.30154 -1.20615,-0.72513 l 0.68923,-0.79692 q 0.44513,0.36616 1.01949,0.5959 0.58154,0.22256 1.24923,0.22256 z"
         id="text28"
         style="font-size:14px;font-family:'Fira Code';text-anchor:middle;fill:#b9dbfa"
         aria-label="2;ur,,i,s" />
    </g>
    <!-- root_0_1_2_3_6&#45;&gt;root_0_1_2_3_6_val -->
    <g
       id="edge10"
       class="edge">
      <title
         id="title29">root_0_1_2_3_6-&gt;root_0_1_2_3_6_val</title>
      <path
         fill="none"
         stroke="#b9dbfa"
         stroke-width="2"
         d="M339.96,-186.4C346.81,-186.4 355.56,-186.4 364.75,-186.4"
         id="path29" />
      <polygon
         fill="#b9dbfa"
         stroke="#b9dbfa"
         stroke-width="2"
         points="364.64,-189.2 372.64,-186.4 364.64,-183.6 364.64,-189.2"
         id="polygon29" />
    </g>
    <!-- root_0_1_2_3_7_val -->
    <g
       id="node13"
       class="node">
      <title
         id="title30">root_0_1_2_3_7_val</title>
      <polygon
         fill="none"
         stroke="#486d8c"
         stroke-width="2"
         points="476.31,-157.8 368.28,-157.8 368.28,-129 476.31,-129 476.31,-157.8"
         id="polygon30" />
      <path
         d="m 378.78508,-149.14411 q 0.93334,0 1.60103,0.36616 0.66769,0.35897 1.01948,0.98358 0.35898,0.62462 0.35898,1.40718 0,0.68206 -0.23692,1.33539 -0.23693,0.64615 -0.76103,1.3641 -0.51692,0.71077 -1.3641,1.57949 -0.84718,0.86872 -2.06769,1.98154 h 4.65948 l -0.15077,1.02666 h -5.88 v -0.98359 q 1.4,-1.34256 2.28308,-2.26871 0.89026,-0.92616 1.37846,-1.59385 0.48821,-0.67487 0.67487,-1.23487 0.19385,-0.56 0.19385,-1.16308 0,-0.83282 -0.46667,-1.31384 -0.46666,-0.48103 -1.29948,-0.48103 -0.73231,0 -1.19898,0.25128 -0.46666,0.25128 -0.93333,0.8041 l -0.83282,-0.64615 q 0.58872,-0.71795 1.29949,-1.06256 0.71794,-0.3518 1.72307,-0.3518 z m 9.03898,2.70667 q 0.50257,0 0.83282,0.33743 0.33744,0.33744 0.33744,0.81847 0,0.48102 -0.33744,0.82564 -0.33025,0.34461 -0.83282,0.34461 -0.4882,0 -0.82564,-0.34461 -0.33025,-0.34462 -0.33025,-0.82564 0,-0.48103 0.33025,-0.81847 0.33744,-0.33743 0.82564,-0.33743 z m 0,4.96102 q 0.50257,0 0.83282,0.33744 0.33744,0.33744 0.33744,0.81128 0,0.26564 -0.0646,0.53846 -0.0574,0.26564 -0.22256,0.60308 l -1.16308,2.67077 h -1.09128 l 0.68923,-2.85026 q -0.47384,-0.33025 -0.47384,-0.95487 0,-0.48102 0.33025,-0.81846 0.33744,-0.33744 0.82564,-0.33744 z m 6.97129,-5.18359 v 5.3559 q 0,0.74667 0.30872,1.07692 0.30872,0.33026 0.96205,0.33026 0.62462,0 1.17744,-0.35179 0.56,-0.35898 0.86871,-0.84718 v -5.56411 h 1.20616 v 7.56 h -1.02667 l -0.10051,-1.01948 q -0.44513,0.57436 -1.10564,0.88307 -0.65334,0.30154 -1.31385,0.30154 -1.09846,0 -1.6441,-0.58154 -0.53846,-0.58871 -0.53846,-1.6441 v -5.49949 z m 7.48103,7.56 v -0.92615 h 1.17744 v -5.70769 h -1.17744 v -0.92616 h 2.09641 l 0.22257,1.7877 q 0.43795,-0.93334 1.06256,-1.44308 0.62462,-0.50974 1.65128,-0.50974 0.3159,0 0.56,0.0503 0.25129,0.0431 0.50975,0.11487 l -0.17231,2.5559 h -0.99077 v -1.6082 q -0.0287,0 -0.0646,0 -1.73743,0 -2.49128,2.4841 v 3.20205 h 1.53641 v 0.92615 z m 11.40821,-2.36205 q 0.49539,0 0.82564,0.33744 0.33744,0.33743 0.33744,0.81128 0,0.25846 -0.0646,0.5241 -0.0574,0.26564 -0.21539,0.60308 l -1.16308,2.66359 h -1.09128 l 0.68923,-2.8359 q -0.46666,-0.33743 -0.46666,-0.95487 0,-0.47385 0.33025,-0.81128 0.33026,-0.33744 0.81846,-0.33744 z m 8.61539,-8.73743 q 0.40206,0 0.63898,0.2441 0.2441,0.2441 0.2441,0.5959 0,0.36615 -0.2441,0.61743 -0.23692,0.24411 -0.63898,0.24411 -0.38051,0 -0.62461,-0.24411 -0.2441,-0.25128 -0.2441,-0.61743 0,-0.3518 0.2441,-0.5959 0.2441,-0.2441 0.62461,-0.2441 z m 0.96206,3.53948 v 6.60513 h 2.1323 v 0.95487 h -5.67179 v -0.95487 h 2.33333 v -5.65025 h -2.26154 v -0.95488 z m 7.65334,5.19795 q 0.49538,0 0.82564,0.33744 0.33743,0.33743 0.33743,0.81128 0,0.25846 -0.0646,0.5241 -0.0574,0.26564 -0.21539,0.60308 l -1.16307,2.66359 h -1.09129 l 0.68923,-2.8359 q -0.46666,-0.33743 -0.46666,-0.95487 0,-0.47385 0.33025,-0.81128 0.33026,-0.33744 0.81847,-0.33744 z m 8.61539,-8.73743 q 0.40205,0 0.63897,0.2441 0.2441,0.2441 0.2441,0.5959 0,0.36615 -0.2441,0.61743 -0.23692,0.24411 -0.63897,0.24411 -0.38052,0 -0.62462,-0.24411 -0.2441,-0.25128 -0.2441,-0.61743 0,-0.3518 0.2441,-0.5959 0.2441,-0.2441 0.62462,-0.2441 z m 0.96205,3.53948 v 6.60513 h 2.13231 v 0.95487 h -5.6718 v -0.95487 h 2.33333 v -5.65025 h -2.26153 v -0.95488 z m 7.65334,5.19795 q 0.49538,0 0.82564,0.33744 0.33743,0.33743 0.33743,0.81128 0,0.25846 -0.0646,0.5241 -0.0574,0.26564 -0.21539,0.60308 l -1.16307,2.66359 h -1.09129 l 0.68924,-2.8359 q -0.46667,-0.33743 -0.46667,-0.95487 0,-0.47385 0.33026,-0.81128 0.33025,-0.33744 0.81846,-0.33744 z m 11.1641,0.71077 q 0,0.45949 0.15077,0.66769 0.15077,0.20821 0.46667,0.30154 l -0.29436,0.84718 q -0.48821,-0.0646 -0.85436,-0.30872 -0.36615,-0.25128 -0.53128,-0.75384 -0.40923,0.5241 -1.02667,0.79692 -0.61026,0.26564 -1.34256,0.26564 -1.13436,0 -1.7877,-0.63897 -0.65333,-0.63898 -0.65333,-1.69436 0,-1.17026 0.9118,-1.79487 0.91179,-0.62462 2.63487,-0.62462 h 1.11282 v -0.63179 q 0,-0.81846 -0.48103,-1.1559 -0.47384,-0.34462 -1.32102,-0.34462 -0.37334,0 -0.8759,0.0933 -0.50256,0.0862 -1.09128,0.29436 l -0.3159,-0.9118 q 0.68923,-0.25846 1.29949,-0.36615 0.61743,-0.10769 1.17025,-0.10769 1.40718,0 2.11795,0.66051 0.71077,0.66051 0.71077,1.78051 z m -3.12307,0.89744 q 0.56,0 1.06256,-0.28 0.50974,-0.28718 0.84718,-0.78975 v -1.94564 h -1.09128 q -1.24923,0 -1.76616,0.43077 -0.50974,0.43077 -0.50974,1.1559 0,1.42872 1.45744,1.42872 z m 6.39693,0.75384 v -0.92615 h 1.17743 v -5.70769 h -1.17743 v -0.92616 h 2.09641 l 0.22256,1.7877 q 0.43795,-0.93334 1.06257,-1.44308 0.62461,-0.50974 1.65128,-0.50974 0.3159,0 0.56,0.0503 0.25128,0.0431 0.50974,0.11487 l -0.17231,2.5559 h -0.99076 v -1.6082 q -0.0287,0 -0.0646,0 -1.73744,0 -2.49128,2.4841 v 3.20205 h 1.53641 v 0.92615 z"
         id="text30"
         style="font-size:14px;font-family:'Fira Code';text-anchor:middle;fill:#b9dbfa"
         aria-label="2;ur,i,i,ar" />
    </g>
    <!-- root_0_1_2_3_7&#45;&gt;root_0_1_2_3_7_val -->
    <g
       id="edge12"
       class="edge">
      <title
         id="title31">root_0_1_2_3_7-&gt;root_0_1_2_3_7_val</title>
      <path
         fill="none"
         stroke="#b9dbfa"
         stroke-width="2"
         d="M339.96,-143.4C344.81,-143.4 350.6,-143.4 356.83,-143.4"
         id="path31" />
      <polygon
         fill="#b9dbfa"
         stroke="#b9dbfa"
         stroke-width="2"
         points="356.6,-146.2 364.6,-143.4 356.6,-140.6 356.6,-146.2"
         id="polygon31" />
    </g>
    <!-- root_0_1_2_3_8_val -->
    <g
       id="node15"
       class="node">
      <title
         id="title32">root_0_1_2_3_8_val</title>
      <polygon
         fill="none"
         stroke="#486d8c"
         stroke-width="2"
         points="468.06,-114.8 376.53,-114.8 376.53,-86 468.06,-86 468.06,-114.8"
         id="polygon32" />
      <path
         d="m 387.40047,-106.1441 q 0.93334,0 1.60103,0.36615 0.66769,0.35898 1.01949,0.98359 0.35897,0.62462 0.35897,1.40718 0,0.68205 -0.23692,1.33539 -0.23693,0.64615 -0.76103,1.3641 -0.51692,0.710768 -1.3641,1.579486 -0.84718,0.868718 -2.06769,1.981539 h 4.65948 l -0.15077,1.026667 h -5.88 v -0.98359 q 1.4,-1.342564 2.28308,-2.268718 0.89026,-0.926154 1.37846,-1.593844 0.48821,-0.67487 0.67487,-1.23487 0.19385,-0.56 0.19385,-1.16308 0,-0.83282 -0.46667,-1.31385 -0.46666,-0.48102 -1.29948,-0.48102 -0.73231,0 -1.19898,0.25128 -0.46666,0.25128 -0.93333,0.8041 l -0.83282,-0.64615 q 0.58872,-0.71795 1.29949,-1.06257 0.71794,-0.35179 1.72307,-0.35179 z m 9.03898,2.70667 q 0.50257,0 0.83282,0.33743 0.33744,0.33744 0.33744,0.81846 0,0.48103 -0.33744,0.82564 -0.33025,0.34462 -0.83282,0.34462 -0.4882,0 -0.82564,-0.34462 -0.33025,-0.34461 -0.33025,-0.82564 0,-0.48102 0.33025,-0.81846 0.33744,-0.33743 0.82564,-0.33743 z m 0,4.961021 q 0.50257,0 0.83282,0.337436 0.33744,0.337436 0.33744,0.811282 0,0.265641 -0.0646,0.538462 -0.0574,0.265641 -0.22256,0.603077 l -1.16308,2.670769 h -1.09128 l 0.68923,-2.850256 q -0.47384,-0.330257 -0.47384,-0.954872 0,-0.481026 0.33025,-0.818462 0.33744,-0.337436 0.82564,-0.337436 z m 6.97129,-5.183591 v 5.355899 q 0,0.746667 0.30872,1.076923 0.30872,0.330256 0.96205,0.330256 0.62462,0 1.17744,-0.351794 0.56,-0.358975 0.86871,-0.84718 V -103.66 h 1.20616 v 7.560002 h -1.02667 l -0.10051,-1.019488 q -0.44513,0.574359 -1.10564,0.883077 -0.65334,0.301539 -1.31385,0.301539 -1.09846,0 -1.6441,-0.581539 -0.53846,-0.588718 -0.53846,-1.644102 V -103.66 Z m 7.48103,7.560002 v -0.926154 h 1.17744 v -5.707688 h -1.17744 V -103.66 h 2.09641 l 0.22257,1.78769 q 0.43795,-0.93333 1.06256,-1.44307 0.62462,-0.50975 1.65128,-0.50975 0.3159,0 0.56,0.0503 0.25129,0.0431 0.50975,0.11487 l -0.17231,2.5559 h -0.99077 v -1.60821 q -0.0287,0 -0.0646,0 -1.73744,0 -2.49129,2.48411 v 3.202048 h 1.53641 v 0.926154 z m 11.40821,-2.362052 q 0.49539,0 0.82565,0.337436 0.33743,0.337436 0.33743,0.811282 0,0.258462 -0.0646,0.524103 -0.0574,0.265641 -0.21539,0.603077 l -1.16308,2.663589 h -1.09128 l 0.68923,-2.835897 q -0.46666,-0.337436 -0.46666,-0.954872 0,-0.473846 0.33025,-0.811282 0.33026,-0.337436 0.81846,-0.337436 z m 8.6154,0 q 0.49538,0 0.82564,0.337436 0.33743,0.337436 0.33743,0.811282 0,0.258462 -0.0646,0.524103 -0.0574,0.265641 -0.21539,0.603077 l -1.16307,2.663589 h -1.09129 l 0.68923,-2.835897 q -0.46666,-0.337436 -0.46666,-0.954872 0,-0.473846 0.33025,-0.811282 0.33026,-0.337436 0.81847,-0.337436 z m 8.61539,-8.73744 q 0.40205,0 0.63897,0.24411 0.2441,0.2441 0.2441,0.59589 0,0.36616 -0.2441,0.61744 -0.23692,0.2441 -0.63897,0.2441 -0.38052,0 -0.62462,-0.2441 -0.2441,-0.25128 -0.2441,-0.61744 0,-0.35179 0.2441,-0.59589 0.2441,-0.24411 0.62462,-0.24411 z m 0.96205,3.53949 v 6.60513 h 2.13231 v 0.954872 h -5.6718 v -0.954872 h 2.33333 v -5.65026 h -2.26153 V -103.66 Z m 7.65334,5.19795 q 0.49538,0 0.82564,0.337436 0.33743,0.337436 0.33743,0.811282 0,0.258462 -0.0646,0.524103 -0.0574,0.265641 -0.21539,0.603077 l -1.16307,2.663589 h -1.09129 l 0.68924,-2.835897 q -0.46667,-0.337436 -0.46667,-0.954872 0,-0.473846 0.33026,-0.811282 0.33025,-0.337436 0.81846,-0.337436 z m 8.32103,1.529231 q 0.8759,0 1.37846,-0.323077 0.50256,-0.323077 0.50256,-0.875897 0,-0.337436 -0.12923,-0.588718 -0.12205,-0.251282 -0.50974,-0.452308 -0.38769,-0.208205 -1.19179,-0.409231 -0.78257,-0.193846 -1.36411,-0.44513 -0.57436,-0.25846 -0.89743,-0.66769 -0.3159,-0.40923 -0.3159,-1.06256 0,-0.95488 0.79692,-1.5077 0.79693,-0.55282 2.07487,-0.55282 0.9118,0 1.58667,0.24411 0.68205,0.2441 1.1559,0.58871 l -0.53128,0.81846 q -0.42359,-0.29435 -0.9477,-0.48102 -0.51692,-0.19385 -1.24923,-0.19385 -0.89025,0 -1.26359,0.28 -0.37333,0.27282 -0.37333,0.71077 0,0.33744 0.17949,0.56 0.18666,0.21539 0.62461,0.38769 0.43795,0.17231 1.20616,0.38052 0.73948,0.20102 1.2923,0.47384 0.55282,0.272824 0.85436,0.717952 0.30872,0.437949 0.30872,1.141539 0,0.804102 -0.45949,1.306666 -0.45948,0.495385 -1.19179,0.725129 -0.72513,0.222564 -1.53641,0.222564 -1.02667,0 -1.7518,-0.294359 -0.71794,-0.301539 -1.20615,-0.725128 l 0.68923,-0.796924 q 0.44513,0.366154 1.01949,0.595898 0.58154,0.222564 1.24923,0.222564 z"
         id="text32"
         style="font-size:14px;font-family:'Fira Code';text-anchor:middle;fill:#b9dbfa"
         aria-label="2;ur,,i,s" />
    </g>
    <!-- root_0_1_2_3_8&#45;&gt;root_0_1_2_3_8_val -->
    <g
       id="edge14"
       class="edge">
      <title
         id="title33">root_0_1_2_3_8-&gt;root_0_1_2_3_8_val</title>
      <path
         fill="none"
         stroke="#b9dbfa"
         stroke-width="2"
         d="M339.96,-100.4C346.81,-100.4 355.56,-100.4 364.75,-100.4"
         id="path33" />
      <polygon
         fill="#b9dbfa"
         stroke="#b9dbfa"
         stroke-width="2"
         points="364.64,-103.2 372.64,-100.4 364.64,-97.6 364.64,-103.2"
         id="polygon33" />
    </g>
    <!-- root_0_1_2_3_9_val -->
    <g
       id="node17"
       class="node">
      <title
         id="title34">root_0_1_2_3_9_val</title>
      <polygon
         fill="none"
         stroke="#486d8c"
         stroke-width="2"
         points="476.31,-71.8 368.28,-71.8 368.28,-43 476.31,-43 476.31,-71.8"
         id="polygon34" />
      <path
         d="m 378.78508,-63.144101 q 0.93334,0 1.60103,0.366154 0.66769,0.358974 1.01948,0.98359 0.35898,0.624615 0.35898,1.407179 0,0.682051 -0.23692,1.335385 -0.23693,0.646154 -0.76103,1.364102 -0.51692,0.710769 -1.3641,1.579487 -0.84718,0.868718 -2.06769,1.981539 h 4.65948 l -0.15077,1.026667 h -5.88 v -0.98359 q 1.4,-1.342564 2.28308,-2.268718 0.89026,-0.926154 1.37846,-1.593846 0.48821,-0.674872 0.67487,-1.234872 0.19385,-0.56 0.19385,-1.163077 0,-0.832821 -0.46667,-1.313846 -0.46666,-0.481026 -1.29948,-0.481026 -0.73231,0 -1.19898,0.251282 -0.46666,0.251282 -0.93333,0.804103 l -0.83282,-0.646154 q 0.58872,-0.717949 1.29949,-1.062564 0.71794,-0.351795 1.72307,-0.351795 z m 9.03898,2.706667 q 0.50257,0 0.83282,0.337436 0.33744,0.337435 0.33744,0.818461 0,0.481026 -0.33744,0.825641 -0.33025,0.344615 -0.83282,0.344615 -0.4882,0 -0.82564,-0.344615 -0.33025,-0.344615 -0.33025,-0.825641 0,-0.481026 0.33025,-0.818461 0.33744,-0.337436 0.82564,-0.337436 z m 0,4.961025 q 0.50257,0 0.83282,0.337436 0.33744,0.337436 0.33744,0.811282 0,0.265641 -0.0646,0.538462 -0.0574,0.265641 -0.22256,0.603077 l -1.16308,2.670769 h -1.09128 l 0.68923,-2.850256 q -0.47384,-0.330257 -0.47384,-0.954872 0,-0.481026 0.33025,-0.818462 0.33744,-0.337436 0.82564,-0.337436 z m 6.97129,-5.183589 v 5.355897 q 0,0.746667 0.30872,1.076923 0.30872,0.330256 0.96205,0.330256 0.62462,0 1.17744,-0.351794 0.56,-0.358975 0.86871,-0.84718 v -5.564102 h 1.20616 v 7.56 h -1.02667 l -0.10051,-1.019488 q -0.44513,0.574359 -1.10564,0.883077 -0.65334,0.301539 -1.31385,0.301539 -1.09846,0 -1.6441,-0.581539 -0.53846,-0.588718 -0.53846,-1.644102 v -5.499487 z m 7.48103,7.56 v -0.926154 h 1.17744 v -5.707693 h -1.17744 v -0.926153 h 2.09641 l 0.22257,1.787692 q 0.43795,-0.933333 1.06256,-1.443077 0.62462,-0.509744 1.65128,-0.509744 0.3159,0 0.56,0.05026 0.25129,0.04308 0.50975,0.114872 l -0.17231,2.555897 h -0.99077 v -1.608205 q -0.0287,0 -0.0646,0 -1.73743,0 -2.49128,2.484102 v 3.202052 h 1.53641 v 0.926154 z m 11.40821,-2.362052 q 0.49539,0 0.82564,0.337436 0.33744,0.337436 0.33744,0.811282 0,0.258462 -0.0646,0.524103 -0.0574,0.265641 -0.21539,0.603077 l -1.16308,2.663589 h -1.09128 l 0.68923,-2.835897 q -0.46666,-0.337436 -0.46666,-0.954872 0,-0.473846 0.33025,-0.811282 0.33026,-0.337436 0.81846,-0.337436 z m 8.61539,-8.737436 q 0.40206,0 0.63898,0.244103 0.2441,0.244102 0.2441,0.595897 0,0.366154 -0.2441,0.617436 -0.23692,0.244103 -0.63898,0.244103 -0.38051,0 -0.62461,-0.244103 -0.2441,-0.251282 -0.2441,-0.617436 0,-0.351795 0.2441,-0.595897 0.2441,-0.244103 0.62461,-0.244103 z m 0.96206,3.539488 v 6.605128 h 2.1323 v 0.954872 h -5.67179 v -0.954872 h 2.33333 v -5.650257 h -2.26154 v -0.954871 z m 7.65334,5.197948 q 0.49538,0 0.82564,0.337436 0.33743,0.337436 0.33743,0.811282 0,0.258462 -0.0646,0.524103 -0.0574,0.265641 -0.21539,0.603077 l -1.16307,2.663589 h -1.09129 l 0.68923,-2.835897 q -0.46666,-0.337436 -0.46666,-0.954872 0,-0.473846 0.33025,-0.811282 0.33026,-0.337436 0.81847,-0.337436 z m 8.61539,-8.737436 q 0.40205,0 0.63897,0.244103 0.2441,0.244102 0.2441,0.595897 0,0.366154 -0.2441,0.617436 -0.23692,0.244103 -0.63897,0.244103 -0.38052,0 -0.62462,-0.244103 -0.2441,-0.251282 -0.2441,-0.617436 0,-0.351795 0.2441,-0.595897 0.2441,-0.244103 0.62462,-0.244103 z m 0.96205,3.539488 v 6.605128 h 2.13231 v 0.954872 h -5.6718 v -0.954872 h 2.33333 v -5.650257 h -2.26153 v -0.954871 z m 7.65334,5.197948 q 0.49538,0 0.82564,0.337436 0.33743,0.337436 0.33743,0.811282 0,0.258462 -0.0646,0.524103 -0.0574,0.265641 -0.21539,0.603077 l -1.16307,2.663589 h -1.09129 l 0.68924,-2.835897 q -0.46667,-0.337436 -0.46667,-0.954872 0,-0.473846 0.33026,-0.811282 0.33025,-0.337436 0.81846,-0.337436 z m 11.1641,0.710769 q 0,0.459488 0.15077,0.667693 0.15077,0.208205 0.46667,0.301538 l -0.29436,0.84718 q -0.48821,-0.06462 -0.85436,-0.308718 -0.36615,-0.251282 -0.53128,-0.753846 -0.40923,0.524102 -1.02667,0.796923 -0.61026,0.265641 -1.34256,0.265641 -1.13436,0 -1.7877,-0.638975 -0.65333,-0.638974 -0.65333,-1.694359 0,-1.170256 0.9118,-1.794871 0.91179,-0.624616 2.63487,-0.624616 h 1.11282 v -0.631795 q 0,-0.818461 -0.48103,-1.155897 -0.47384,-0.344615 -1.32102,-0.344615 -0.37334,0 -0.8759,0.09333 -0.50256,0.08615 -1.09128,0.294359 l -0.3159,-0.911795 q 0.68923,-0.258462 1.29949,-0.366154 0.61743,-0.107692 1.17025,-0.107692 1.40718,0 2.11795,0.660513 0.71077,0.660512 0.71077,1.780512 z m -3.12307,0.897436 q 0.56,0 1.06256,-0.28 0.50974,-0.287179 0.84718,-0.789743 v -1.945641 h -1.09128 q -1.24923,0 -1.76616,0.430769 -0.50974,0.430769 -0.50974,1.155897 0,1.428718 1.45744,1.428718 z m 6.39693,0.753847 v -0.926154 h 1.17743 v -5.707693 h -1.17743 v -0.926153 h 2.09641 l 0.22256,1.787692 q 0.43795,-0.933333 1.06257,-1.443077 0.62461,-0.509744 1.65128,-0.509744 0.3159,0 0.56,0.05026 0.25128,0.04308 0.50974,0.114872 l -0.17231,2.555897 h -0.99076 v -1.608205 q -0.0287,0 -0.0646,0 -1.73744,0 -2.49128,2.484102 v 3.202052 h 1.53641 v 0.926154 z"
         id="text34"
         style="font-size:14px;font-family:'Fira Code';text-anchor:middle;fill:#b9dbfa"
         aria-label="2;ur,i,i,ar" />
    </g>
    <!-- root_0_1_2_3_9&#45;&gt;root_0_1_2_3_9_val -->
    <g
       id="edge16"
       class="edge">
      <title
         id="title35">root_0_1_2_3_9-&gt;root_0_1_2_3_9_val</title>
      <path
         fill="none"
         stroke="#b9dbfa"
         stroke-width="2"
         d="M339.96,-57.4C344.81,-57.4 350.6,-57.4 356.83,-57.4"
         id="path35" />
      <polygon
         fill="#b9dbfa"
         stroke="#b9dbfa"
         stroke-width="2"
         points="356.6,-60.2 364.6,-57.4 356.6,-54.6 356.6,-60.2"
         id="polygon35" />
    </g>
    <!-- root_0_1_2_3_10_val -->
    <g
       id="node19"
       class="node">
      <title
         id="title36">root_0_1_2_3_10_val</title>
      <polygon
         fill="none"
         stroke="#486d8c"
         stroke-width="2"
         points="476.31,-28.8 368.28,-28.8 368.28,0 476.31,0 476.31,-28.8"
         id="polygon36" />
      <path
         d="m 378.78508,-20.144103 q 0.93334,0 1.60103,0.366154 0.66769,0.358974 1.01948,0.98359 0.35898,0.624615 0.35898,1.407179 0,0.682051 -0.23692,1.335385 -0.23693,0.646154 -0.76103,1.364102 -0.51692,0.71077 -1.3641,1.579487 -0.84718,0.868718 -2.06769,1.981539 h 4.65948 L 381.84354,-10.1 h -5.88 v -0.98359 q 1.4,-1.342564 2.28308,-2.268718 0.89026,-0.926154 1.37846,-1.593846 0.48821,-0.674872 0.67487,-1.234872 0.19385,-0.56 0.19385,-1.163077 0,-0.83282 -0.46667,-1.313846 -0.46666,-0.481026 -1.29948,-0.481026 -0.73231,0 -1.19898,0.251282 -0.46666,0.251282 -0.93333,0.804103 l -0.83282,-0.646154 q 0.58872,-0.717949 1.29949,-1.062564 0.71794,-0.351795 1.72307,-0.351795 z m 9.03898,2.706667 q 0.50257,0 0.83282,0.337436 0.33744,0.337436 0.33744,0.818461 0,0.481026 -0.33744,0.825641 -0.33025,0.344616 -0.83282,0.344616 -0.4882,0 -0.82564,-0.344616 -0.33025,-0.344615 -0.33025,-0.825641 0,-0.481025 0.33025,-0.818461 0.33744,-0.337436 0.82564,-0.337436 z m 0,4.961025 q 0.50257,0 0.83282,0.337436 0.33744,0.337436 0.33744,0.811282 0,0.265641 -0.0646,0.538462 -0.0574,0.265641 -0.22256,0.603077 l -1.16308,2.670769 h -1.09128 l 0.68923,-2.850256 q -0.47384,-0.330257 -0.47384,-0.954872 0,-0.481026 0.33025,-0.818462 0.33744,-0.337436 0.82564,-0.337436 z M 394.79535,-17.66 v 5.355897 q 0,0.746667 0.30872,1.076923 0.30872,0.330257 0.96205,0.330257 0.62462,0 1.17744,-0.351795 0.56,-0.358975 0.86871,-0.84718 V -17.66 h 1.20616 v 7.56 h -1.02667 l -0.10051,-1.019488 q -0.44513,0.574359 -1.10564,0.883077 -0.65334,0.3015388 -1.31385,0.3015388 -1.09846,0 -1.6441,-0.5815388 -0.53846,-0.588718 -0.53846,-1.644102 V -17.66 Z m 7.48103,7.56 v -0.926154 h 1.17744 v -5.707693 h -1.17744 V -17.66 h 2.09641 l 0.22257,1.787692 q 0.43795,-0.933333 1.06256,-1.443077 0.62462,-0.509744 1.65128,-0.509744 0.3159,0 0.56,0.05026 0.25129,0.04308 0.50975,0.114872 l -0.17231,2.555897 h -0.99077 v -1.608205 q -0.0287,0 -0.0646,0 -1.73743,0 -2.49128,2.484102 v 3.202052 h 1.53641 V -10.1 Z m 11.40821,-2.362052 q 0.49539,0 0.82564,0.337436 0.33744,0.337436 0.33744,0.811282 0,0.258462 -0.0646,0.524103 -0.0574,0.265641 -0.21539,0.603077 l -1.16308,2.6635895 h -1.09128 l 0.68923,-2.8358975 q -0.46666,-0.337436 -0.46666,-0.954872 0,-0.473846 0.33025,-0.811282 0.33026,-0.337436 0.81846,-0.337436 z m 8.61539,-8.737436 q 0.40206,0 0.63898,0.244103 0.2441,0.244103 0.2441,0.595897 0,0.366154 -0.2441,0.617436 -0.23692,0.244103 -0.63898,0.244103 -0.38051,0 -0.62461,-0.244103 -0.2441,-0.251282 -0.2441,-0.617436 0,-0.351794 0.2441,-0.595897 0.2441,-0.244103 0.62461,-0.244103 z m 0.96206,3.539488 v 6.605128 h 2.1323 V -10.1 h -5.67179 v -0.954872 h 2.33333 v -5.650257 h -2.26154 V -17.66 Z m 7.65334,5.197948 q 0.49538,0 0.82564,0.337436 0.33743,0.337436 0.33743,0.811282 0,0.258462 -0.0646,0.524103 -0.0574,0.265641 -0.21539,0.603077 l -1.16307,2.6635895 h -1.09129 l 0.68923,-2.8358975 q -0.46666,-0.337436 -0.46666,-0.954872 0,-0.473846 0.33025,-0.811282 0.33026,-0.337436 0.81847,-0.337436 z m 8.61539,-8.737436 q 0.40205,0 0.63897,0.244103 0.2441,0.244103 0.2441,0.595897 0,0.366154 -0.2441,0.617436 -0.23692,0.244103 -0.63897,0.244103 -0.38052,0 -0.62462,-0.244103 -0.2441,-0.251282 -0.2441,-0.617436 0,-0.351794 0.2441,-0.595897 0.2441,-0.244103 0.62462,-0.244103 z m 0.96205,3.539488 v 6.605128 h 2.13231 V -10.1 h -5.6718 v -0.954872 h 2.33333 v -5.650257 h -2.26153 V -17.66 Z m 7.65334,5.197948 q 0.49538,0 0.82564,0.337436 0.33743,0.337436 0.33743,0.811282 0,0.258462 -0.0646,0.524103 -0.0574,0.265641 -0.21539,0.603077 l -1.16307,2.6635895 h -1.09129 l 0.68924,-2.8358975 q -0.46667,-0.337436 -0.46667,-0.954872 0,-0.473846 0.33026,-0.811282 0.33025,-0.337436 0.81846,-0.337436 z m 11.1641,0.71077 q 0,0.459487 0.15077,0.667692 0.15077,0.208205 0.46667,0.301538 l -0.29436,0.8471798 q -0.48821,-0.064615 -0.85436,-0.3087178 -0.36615,-0.251282 -0.53128,-0.753846 -0.40923,0.524102 -1.02667,0.796923 -0.61026,0.2656408 -1.34256,0.2656408 -1.13436,0 -1.7877,-0.6389748 -0.65333,-0.638974 -0.65333,-1.694359 0,-1.170256 0.9118,-1.794871 0.91179,-0.624616 2.63487,-0.624616 h 1.11282 v -0.631795 q 0,-0.818461 -0.48103,-1.155897 -0.47384,-0.344615 -1.32102,-0.344615 -0.37334,0 -0.8759,0.09333 -0.50256,0.08615 -1.09128,0.294359 l -0.3159,-0.911795 q 0.68923,-0.258461 1.29949,-0.366154 0.61743,-0.107692 1.17025,-0.107692 1.40718,0 2.11795,0.660513 0.71077,0.660513 0.71077,1.780513 z m -3.12307,0.897435 q 0.56,0 1.06256,-0.28 0.50974,-0.287179 0.84718,-0.789743 v -1.945641 h -1.09128 q -1.24923,0 -1.76616,0.430769 -0.50974,0.430769 -0.50974,1.155898 0,1.428717 1.45744,1.428717 z M 462.58412,-10.1 v -0.926154 h 1.17743 v -5.707693 h -1.17743 V -17.66 h 2.09641 l 0.22256,1.787692 q 0.43795,-0.933333 1.06257,-1.443077 0.62461,-0.509744 1.65128,-0.509744 0.3159,0 0.56,0.05026 0.25128,0.04308 0.50974,0.114872 l -0.17231,2.555897 h -0.99076 v -1.608205 q -0.0287,0 -0.0646,0 -1.73744,0 -2.49128,2.484102 v 3.202052 h 1.53641 V -10.1 Z"
         id="text36"
         style="font-size:14px;font-family:'Fira Code';text-anchor:middle;fill:#b9dbfa"
         aria-label="2;ur,i,i,ar" />
    </g>
    <!-- root_0_1_2_3_10&#45;&gt;root_0_1_2_3_10_val -->
    <g
       id="edge18"
       class="edge">
      <title
         id="title37">root_0_1_2_3_10-&gt;root_0_1_2_3_10_val</title>
      <path
         fill="none"
         stroke="#b9dbfa"
         stroke-width="2"
         d="M339.96,-14.4C344.81,-14.4 350.6,-14.4 356.83,-14.4"
         id="path37" />
      <polygon
         fill="#b9dbfa"
         stroke="#b9dbfa"
         stroke-width="2"
         points="356.6,-17.2 364.6,-14.4 356.6,-11.6 356.6,-17.2"
         id="polygon37" />
    </g>
  </g>
</svg>
