<?xml version="1.0" encoding="UTF-8" standalone="no"?>
<!DOCTYPE svg PUBLIC "-//W3C//DTD SVG 1.1//EN"
 "http://www.w3.org/Graphics/SVG/1.1/DTD/svg11.dtd">
<!-- Generated by graphviz version 13.1.0 (20250701.0955)
 -->
<!-- Pages: 1 -->
<svg width="594pt" height="160pt"
 viewBox="0.00 0.00 594.00 160.00" xmlns="http://www.w3.org/2000/svg" xmlns:xlink="http://www.w3.org/1999/xlink">
<g id="graph0" class="graph" transform="scale(1 1) rotate(0) translate(4 156)">
<!-- root -->
<g id="node1" class="node">
<title>root</title>
<path fill="none" stroke="#486d8c" stroke-width="2" d="M42.6,-65C42.6,-65 12,-65 12,-65 6,-65 0,-59 0,-53 0,-53 0,-41 0,-41 0,-35 6,-29 12,-29 12,-29 42.6,-29 42.6,-29 48.6,-29 54.6,-35 54.6,-41 54.6,-41 54.6,-53 54.6,-53 54.6,-59 48.6,-65 42.6,-65"/>
<text xml:space="preserve" text-anchor="middle" x="27.3" y="-42.33" font-family="monospace" font-size="14.00" fill="#b9dbfa">root</text>
</g>
<!-- root_0 -->
<g id="node2" class="node">
<title>root_0</title>
<path fill="none" stroke="#486d8c" stroke-width="2" d="M107.6,-65C107.6,-65 95.6,-65 95.6,-65 89.6,-65 83.6,-59 83.6,-53 83.6,-53 83.6,-41 83.6,-41 83.6,-35 89.6,-29 95.6,-29 95.6,-29 107.6,-29 107.6,-29 113.6,-29 119.6,-35 119.6,-41 119.6,-41 119.6,-53 119.6,-53 119.6,-59 113.6,-65 107.6,-65"/>
<text xml:space="preserve" text-anchor="middle" x="101.6" y="-42.33" font-family="monospace" font-size="14.00" fill="#b9dbfa">r</text>
</g>
<!-- root&#45;&gt;root_0 -->
<g id="edge1" class="edge">
<title>root&#45;&gt;root_0</title>
<path fill="none" stroke="#b9dbfa" stroke-width="2" d="M55.22,-47C60.66,-47 66.39,-47 71.88,-47"/>
<polygon fill="#b9dbfa" stroke="#b9dbfa" stroke-width="2" points="71.63,-49.8 79.63,-47 71.63,-44.2 71.63,-49.8"/>
</g>
<!-- root_0_1 -->
<g id="node3" class="node">
<title>root_0_1</title>
<path fill="none" stroke="#486d8c" stroke-width="2" d="M172.6,-65C172.6,-65 160.6,-65 160.6,-65 154.6,-65 148.6,-59 148.6,-53 148.6,-53 148.6,-41 148.6,-41 148.6,-35 154.6,-29 160.6,-29 160.6,-29 172.6,-29 172.6,-29 178.6,-29 184.6,-35 184.6,-41 184.6,-41 184.6,-53 184.6,-53 184.6,-59 178.6,-65 172.6,-65"/>
<text xml:space="preserve" text-anchor="middle" x="166.6" y="-42.33" font-family="monospace" font-size="14.00" fill="#b9dbfa">u</text>
</g>
<!-- root_0&#45;&gt;root_0_1 -->
<g id="edge2" class="edge">
<title>root_0&#45;&gt;root_0_1</title>
<path fill="none" stroke="#b9dbfa" stroke-width="2" d="M120.48,-47C125.72,-47 131.57,-47 137.28,-47"/>
<polygon fill="#b9dbfa" stroke="#b9dbfa" stroke-width="2" points="136.86,-49.8 144.86,-47 136.86,-44.2 136.86,-49.8"/>
</g>
<!-- root_0_1_2 -->
<g id="node4" class="node">
<title>root_0_1_2</title>
<path fill="none" stroke="#486d8c" stroke-width="2" d="M237.6,-65C237.6,-65 225.6,-65 225.6,-65 219.6,-65 213.6,-59 213.6,-53 213.6,-53 213.6,-41 213.6,-41 213.6,-35 219.6,-29 225.6,-29 225.6,-29 237.6,-29 237.6,-29 243.6,-29 249.6,-35 249.6,-41 249.6,-41 249.6,-53 249.6,-53 249.6,-59 243.6,-65 237.6,-65"/>
<text xml:space="preserve" text-anchor="middle" x="231.6" y="-42.33" font-family="monospace" font-size="14.00" fill="#b9dbfa">t</text>
</g>
<!-- root_0_1&#45;&gt;root_0_1_2 -->
<g id="edge3" class="edge">
<title>root_0_1&#45;&gt;root_0_1_2</title>
<path fill="none" stroke="#b9dbfa" stroke-width="2" d="M185.48,-47C190.72,-47 196.57,-47 202.28,-47"/>
<polygon fill="#b9dbfa" stroke="#b9dbfa" stroke-width="2" points="201.86,-49.8 209.86,-47 201.86,-44.2 201.86,-49.8"/>
</g>
<!-- root_0_1_2_3 -->
<g id="node5" class="node">
<title>root_0_1_2_3</title>
<path fill="none" stroke="#486d8c" stroke-width="2" d="M302.6,-94C302.6,-94 290.6,-94 290.6,-94 284.6,-94 278.6,-88 278.6,-82 278.6,-82 278.6,-70 278.6,-70 278.6,-64 284.6,-58 290.6,-58 290.6,-58 302.6,-58 302.6,-58 308.6,-58 314.6,-64 314.6,-70 314.6,-70 314.6,-82 314.6,-82 314.6,-88 308.6,-94 302.6,-94"/>
<text xml:space="preserve" text-anchor="middle" x="296.6" y="-71.33" font-family="monospace" font-size="14.00" fill="#b9dbfa">ú</text>
</g>
<!-- root_0_1_2&#45;&gt;root_0_1_2_3 -->
<g id="edge4" class="edge">
<title>root_0_1_2&#45;&gt;root_0_1_2_3</title>
<path fill="none" stroke="#b9dbfa" stroke-width="2" d="M250.48,-55.23C255.98,-57.76 262.17,-60.61 268.16,-63.37"/>
<polygon fill="#b9dbfa" stroke="#b9dbfa" stroke-width="2" points="266.7,-65.78 275.14,-66.58 269.04,-60.69 266.7,-65.78"/>
</g>
<!-- root_0_1_2_8 -->
<g id="node12" class="node">
<title>root_0_1_2_8</title>
<path fill="none" stroke="#486d8c" stroke-width="2" d="M302.6,-36C302.6,-36 290.6,-36 290.6,-36 284.6,-36 278.6,-30 278.6,-24 278.6,-24 278.6,-12 278.6,-12 278.6,-6 284.6,0 290.6,0 290.6,0 302.6,0 302.6,0 308.6,0 314.6,-6 314.6,-12 314.6,-12 314.6,-24 314.6,-24 314.6,-30 308.6,-36 302.6,-36"/>
<text xml:space="preserve" text-anchor="middle" x="296.6" y="-13.32" font-family="monospace" font-size="14.00" fill="#b9dbfa">f</text>
</g>
<!-- root_0_1_2&#45;&gt;root_0_1_2_8 -->
<g id="edge11" class="edge">
<title>root_0_1_2&#45;&gt;root_0_1_2_8</title>
<path fill="none" stroke="#b9dbfa" stroke-width="2" d="M250.48,-38.77C255.98,-36.24 262.17,-33.39 268.16,-30.63"/>
<polygon fill="#b9dbfa" stroke="#b9dbfa" stroke-width="2" points="269.04,-33.31 275.14,-27.42 266.7,-28.22 269.04,-33.31"/>
</g>
<!-- root_0_1_2_3_4 -->
<g id="node6" class="node">
<title>root_0_1_2_3_4</title>
<path fill="none" stroke="#486d8c" stroke-width="2" d="M367.6,-152C367.6,-152 355.6,-152 355.6,-152 349.6,-152 343.6,-146 343.6,-140 343.6,-140 343.6,-128 343.6,-128 343.6,-122 349.6,-116 355.6,-116 355.6,-116 367.6,-116 367.6,-116 373.6,-116 379.6,-122 379.6,-128 379.6,-128 379.6,-140 379.6,-140 379.6,-146 373.6,-152 367.6,-152"/>
<text xml:space="preserve" text-anchor="middle" x="361.6" y="-129.32" font-family="monospace" font-size="14.00" fill="#b9dbfa">n</text>
</g>
<!-- root_0_1_2_3&#45;&gt;root_0_1_2_3_4 -->
<g id="edge5" class="edge">
<title>root_0_1_2_3&#45;&gt;root_0_1_2_3_4</title>
<path fill="none" stroke="#b9dbfa" stroke-width="2" d="M315.48,-92.47C321.52,-98.02 328.38,-104.34 334.9,-110.34"/>
<polygon fill="#b9dbfa" stroke="#b9dbfa" stroke-width="2" points="332.88,-112.29 340.66,-115.64 336.67,-108.17 332.88,-112.29"/>
</g>
<!-- root_0_1_2_3_6 -->
<g id="node9" class="node">
<title>root_0_1_2_3_6</title>
<path fill="none" stroke="#486d8c" stroke-width="2" d="M367.6,-94C367.6,-94 355.6,-94 355.6,-94 349.6,-94 343.6,-88 343.6,-82 343.6,-82 343.6,-70 343.6,-70 343.6,-64 349.6,-58 355.6,-58 355.6,-58 367.6,-58 367.6,-58 373.6,-58 379.6,-64 379.6,-70 379.6,-70 379.6,-82 379.6,-82 379.6,-88 373.6,-94 367.6,-94"/>
<text xml:space="preserve" text-anchor="middle" x="361.6" y="-71.33" font-family="monospace" font-size="14.00" fill="#b9dbfa">r</text>
</g>
<!-- root_0_1_2_3&#45;&gt;root_0_1_2_3_6 -->
<g id="edge8" class="edge">
<title>root_0_1_2_3&#45;&gt;root_0_1_2_3_6</title>
<path fill="none" stroke="#b9dbfa" stroke-width="2" d="M315.48,-76C320.72,-76 326.57,-76 332.28,-76"/>
<polygon fill="#b9dbfa" stroke="#b9dbfa" stroke-width="2" points="331.86,-78.8 339.86,-76 331.86,-73.2 331.86,-78.8"/>
</g>
<!-- root_0_1_2_3_4_5 -->
<g id="node7" class="node">
<title>root_0_1_2_3_4_5</title>
<path fill="none" stroke="#486d8c" stroke-width="2" d="M432.6,-152C432.6,-152 420.6,-152 420.6,-152 414.6,-152 408.6,-146 408.6,-140 408.6,-140 408.6,-128 408.6,-128 408.6,-122 414.6,-116 420.6,-116 420.6,-116 432.6,-116 432.6,-116 438.6,-116 444.6,-122 444.6,-128 444.6,-128 444.6,-140 444.6,-140 444.6,-146 438.6,-152 432.6,-152"/>
<text xml:space="preserve" text-anchor="middle" x="426.6" y="-129.32" font-family="monospace" font-size="14.00" fill="#b9dbfa">K</text>
</g>
<!-- root_0_1_2_3_4&#45;&gt;root_0_1_2_3_4_5 -->
<g id="edge6" class="edge">
<title>root_0_1_2_3_4&#45;&gt;root_0_1_2_3_4_5</title>
<path fill="none" stroke="#b9dbfa" stroke-width="2" d="M380.48,-134C385.72,-134 391.57,-134 397.28,-134"/>
<polygon fill="#b9dbfa" stroke="#b9dbfa" stroke-width="2" points="396.86,-136.8 404.86,-134 396.86,-131.2 396.86,-136.8"/>
</g>
<!-- root_0_1_2_3_4_5_val -->
<g id="node8" class="node">
<title>root_0_1_2_3_4_5_val</title>
<polygon fill="none" stroke="#486d8c" stroke-width="2" points="585.95,-152 473.6,-152 473.6,-116 585.95,-116 585.95,-152"/>
<text xml:space="preserve" text-anchor="middle" x="529.77" y="-129.32" font-family="monospace" font-size="14.00" fill="#b9dbfa">&quot;2;ur,,i,s&quot;</text>
</g>
<!-- root_0_1_2_3_4_5&#45;&gt;root_0_1_2_3_4_5_val -->
<g id="edge7" class="edge">
<title>root_0_1_2_3_4_5&#45;&gt;root_0_1_2_3_4_5_val</title>
<path fill="none" stroke="#b9dbfa" stroke-width="2" d="M445.22,-134C450.11,-134 455.72,-134 461.67,-134"/>
<polygon fill="#b9dbfa" stroke="#b9dbfa" stroke-width="2" points="461.64,-136.8 469.64,-134 461.64,-131.2 461.64,-136.8"/>
</g>
<!-- root_0_1_2_3_6_7 -->
<g id="node10" class="node">
<title>root_0_1_2_3_6_7</title>
<path fill="none" stroke="#486d8c" stroke-width="2" d="M432.6,-94C432.6,-94 420.6,-94 420.6,-94 414.6,-94 408.6,-88 408.6,-82 408.6,-82 408.6,-70 408.6,-70 408.6,-64 414.6,-58 420.6,-58 420.6,-58 432.6,-58 432.6,-58 438.6,-58 444.6,-64 444.6,-70 444.6,-70 444.6,-82 444.6,-82 444.6,-88 438.6,-94 432.6,-94"/>
<text xml:space="preserve" text-anchor="middle" x="426.6" y="-71.33" font-family="monospace" font-size="14.00" fill="#b9dbfa">H</text>
</g>
<!-- root_0_1_2_3_6&#45;&gt;root_0_1_2_3_6_7 -->
<g id="edge9" class="edge">
<title>root_0_1_2_3_6&#45;&gt;root_0_1_2_3_6_7</title>
<path fill="none" stroke="#b9dbfa" stroke-width="2" d="M380.48,-76C385.72,-76 391.57,-76 397.28,-76"/>
<polygon fill="#b9dbfa" stroke="#b9dbfa" stroke-width="2" points="396.86,-78.8 404.86,-76 396.86,-73.2 396.86,-78.8"/>
</g>
<!-- root_0_1_2_3_6_7_val -->
<g id="node11" class="node">
<title>root_0_1_2_3_6_7_val</title>
<polygon fill="none" stroke="#486d8c" stroke-width="2" points="585.95,-94 473.6,-94 473.6,-58 585.95,-58 585.95,-94"/>
<text xml:space="preserve" text-anchor="middle" x="529.77" y="-71.33" font-family="monospace" font-size="14.00" fill="#b9dbfa">&quot;2;ur,,i,s&quot;</text>
</g>
<!-- root_0_1_2_3_6_7&#45;&gt;root_0_1_2_3_6_7_val -->
<g id="edge10" class="edge">
<title>root_0_1_2_3_6_7&#45;&gt;root_0_1_2_3_6_7_val</title>
<path fill="none" stroke="#b9dbfa" stroke-width="2" d="M445.22,-76C450.11,-76 455.72,-76 461.67,-76"/>
<polygon fill="#b9dbfa" stroke="#b9dbfa" stroke-width="2" points="461.64,-78.8 469.64,-76 461.64,-73.2 461.64,-78.8"/>
</g>
<!-- root_0_1_2_8_9 -->
<g id="node13" class="node">
<title>root_0_1_2_8_9</title>
<path fill="none" stroke="#486d8c" stroke-width="2" d="M367.6,-36C367.6,-36 355.6,-36 355.6,-36 349.6,-36 343.6,-30 343.6,-24 343.6,-24 343.6,-12 343.6,-12 343.6,-6 349.6,0 355.6,0 355.6,0 367.6,0 367.6,0 373.6,0 379.6,-6 379.6,-12 379.6,-12 379.6,-24 379.6,-24 379.6,-30 373.6,-36 367.6,-36"/>
<text xml:space="preserve" text-anchor="middle" x="361.6" y="-13.32" font-family="monospace" font-size="14.00" fill="#b9dbfa">o</text>
</g>
<!-- root_0_1_2_8&#45;&gt;root_0_1_2_8_9 -->
<g id="edge12" class="edge">
<title>root_0_1_2_8&#45;&gt;root_0_1_2_8_9</title>
<path fill="none" stroke="#b9dbfa" stroke-width="2" d="M315.48,-18C320.72,-18 326.57,-18 332.28,-18"/>
<polygon fill="#b9dbfa" stroke="#b9dbfa" stroke-width="2" points="331.86,-20.8 339.86,-18 331.86,-15.2 331.86,-20.8"/>
</g>
<!-- root_0_1_2_8_9_10 -->
<g id="node14" class="node">
<title>root_0_1_2_8_9_10</title>
<path fill="none" stroke="#486d8c" stroke-width="2" d="M432.6,-36C432.6,-36 420.6,-36 420.6,-36 414.6,-36 408.6,-30 408.6,-24 408.6,-24 408.6,-12 408.6,-12 408.6,-6 414.6,0 420.6,0 420.6,0 432.6,0 432.6,0 438.6,0 444.6,-6 444.6,-12 444.6,-12 444.6,-24 444.6,-24 444.6,-30 438.6,-36 432.6,-36"/>
<text xml:space="preserve" text-anchor="middle" x="426.6" y="-13.32" font-family="monospace" font-size="14.00" fill="#b9dbfa">L</text>
</g>
<!-- root_0_1_2_8_9&#45;&gt;root_0_1_2_8_9_10 -->
<g id="edge13" class="edge">
<title>root_0_1_2_8_9&#45;&gt;root_0_1_2_8_9_10</title>
<path fill="none" stroke="#b9dbfa" stroke-width="2" d="M380.48,-18C385.72,-18 391.57,-18 397.28,-18"/>
<polygon fill="#b9dbfa" stroke="#b9dbfa" stroke-width="2" points="396.86,-20.8 404.86,-18 396.86,-15.2 396.86,-20.8"/>
</g>
<!-- root_0_1_2_8_9_10_val -->
<g id="node15" class="node">
<title>root_0_1_2_8_9_10_val</title>
<polygon fill="none" stroke="#486d8c" stroke-width="2" points="585.95,-36 473.6,-36 473.6,0 585.95,0 585.95,-36"/>
<text xml:space="preserve" text-anchor="middle" x="529.77" y="-13.32" font-family="monospace" font-size="14.00" fill="#b9dbfa">&quot;2;ur,,i,s&quot;</text>
</g>
<!-- root_0_1_2_8_9_10&#45;&gt;root_0_1_2_8_9_10_val -->
<g id="edge14" class="edge">
<title>root_0_1_2_8_9_10&#45;&gt;root_0_1_2_8_9_10_val</title>
<path fill="none" stroke="#b9dbfa" stroke-width="2" d="M445.22,-18C450.11,-18 455.72,-18 461.67,-18"/>
<polygon fill="#b9dbfa" stroke="#b9dbfa" stroke-width="2" points="461.64,-20.8 469.64,-18 461.64,-15.2 461.64,-20.8"/>
</g>
</g>
</svg>
