<?xml version="1.0" encoding="UTF-8" standalone="no"?>
<!DOCTYPE svg PUBLIC "-//W3C//DTD SVG 1.1//EN"
 "http://www.w3.org/Graphics/SVG/1.1/DTD/svg11.dtd">
<!-- Generated by graphviz version 13.1.0 (20250701.0955)
 -->
<!-- Pages: 1 -->
<svg width="610pt" height="218pt"
 viewBox="0.00 0.00 610.00 218.00" xmlns="http://www.w3.org/2000/svg" xmlns:xlink="http://www.w3.org/1999/xlink">
<g id="graph0" class="graph" transform="scale(1 1) rotate(0) translate(4 214)">
<!-- root -->
<g id="node1" class="node">
<title>root</title>
<path fill="none" stroke="#486d8c" stroke-width="2" d="M42.6,-156C42.6,-156 12,-156 12,-156 6,-156 0,-150 0,-144 0,-144 0,-132 0,-132 0,-126 6,-120 12,-120 12,-120 42.6,-120 42.6,-120 48.6,-120 54.6,-126 54.6,-132 54.6,-132 54.6,-144 54.6,-144 54.6,-150 48.6,-156 42.6,-156"/>
<text xml:space="preserve" text-anchor="middle" x="27.3" y="-133.32" font-family="monospace" font-size="14.00" fill="#b9dbfa">root</text>
</g>
<!-- root_0 -->
<g id="node2" class="node">
<title>root_0</title>
<path fill="none" stroke="#486d8c" stroke-width="2" d="M107.6,-156C107.6,-156 95.6,-156 95.6,-156 89.6,-156 83.6,-150 83.6,-144 83.6,-144 83.6,-132 83.6,-132 83.6,-126 89.6,-120 95.6,-120 95.6,-120 107.6,-120 107.6,-120 113.6,-120 119.6,-126 119.6,-132 119.6,-132 119.6,-144 119.6,-144 119.6,-150 113.6,-156 107.6,-156"/>
<text xml:space="preserve" text-anchor="middle" x="101.6" y="-133.32" font-family="monospace" font-size="14.00" fill="#b9dbfa">r</text>
</g>
<!-- root&#45;&gt;root_0 -->
<g id="edge1" class="edge">
<title>root&#45;&gt;root_0</title>
<path fill="none" stroke="#b9dbfa" stroke-width="2" d="M55.22,-138C60.66,-138 66.39,-138 71.88,-138"/>
<polygon fill="#b9dbfa" stroke="#b9dbfa" stroke-width="2" points="71.63,-140.8 79.63,-138 71.63,-135.2 71.63,-140.8"/>
</g>
<!-- root_0_1 -->
<g id="node3" class="node">
<title>root_0_1</title>
<path fill="none" stroke="#486d8c" stroke-width="2" d="M172.6,-156C172.6,-156 160.6,-156 160.6,-156 154.6,-156 148.6,-150 148.6,-144 148.6,-144 148.6,-132 148.6,-132 148.6,-126 154.6,-120 160.6,-120 160.6,-120 172.6,-120 172.6,-120 178.6,-120 184.6,-126 184.6,-132 184.6,-132 184.6,-144 184.6,-144 184.6,-150 178.6,-156 172.6,-156"/>
<text xml:space="preserve" text-anchor="middle" x="166.6" y="-133.32" font-family="monospace" font-size="14.00" fill="#b9dbfa">u</text>
</g>
<!-- root_0&#45;&gt;root_0_1 -->
<g id="edge2" class="edge">
<title>root_0&#45;&gt;root_0_1</title>
<path fill="none" stroke="#b9dbfa" stroke-width="2" d="M120.48,-138C125.72,-138 131.57,-138 137.28,-138"/>
<polygon fill="#b9dbfa" stroke="#b9dbfa" stroke-width="2" points="136.86,-140.8 144.86,-138 136.86,-135.2 136.86,-140.8"/>
</g>
<!-- root_0_1_2 -->
<g id="node4" class="node">
<title>root_0_1_2</title>
<path fill="none" stroke="#486d8c" stroke-width="2" d="M237.6,-192C237.6,-192 225.6,-192 225.6,-192 219.6,-192 213.6,-186 213.6,-180 213.6,-180 213.6,-168 213.6,-168 213.6,-162 219.6,-156 225.6,-156 225.6,-156 237.6,-156 237.6,-156 243.6,-156 249.6,-162 249.6,-168 249.6,-168 249.6,-180 249.6,-180 249.6,-186 243.6,-192 237.6,-192"/>
<text xml:space="preserve" text-anchor="middle" x="231.6" y="-169.32" font-family="monospace" font-size="14.00" fill="#b9dbfa">f</text>
</g>
<!-- root_0_1&#45;&gt;root_0_1_2 -->
<g id="edge3" class="edge">
<title>root_0_1&#45;&gt;root_0_1_2</title>
<path fill="none" stroke="#b9dbfa" stroke-width="2" d="M185.48,-148.22C191.12,-151.44 197.47,-155.07 203.59,-158.57"/>
<polygon fill="#b9dbfa" stroke="#b9dbfa" stroke-width="2" points="201.93,-160.84 210.26,-162.38 204.7,-155.98 201.93,-160.84"/>
</g>
<!-- root_0_1_5 -->
<g id="node8" class="node">
<title>root_0_1_5</title>
<path fill="none" stroke="#486d8c" stroke-width="2" d="M237.6,-127C237.6,-127 225.6,-127 225.6,-127 219.6,-127 213.6,-121 213.6,-115 213.6,-115 213.6,-103 213.6,-103 213.6,-97 219.6,-91 225.6,-91 225.6,-91 237.6,-91 237.6,-91 243.6,-91 249.6,-97 249.6,-103 249.6,-103 249.6,-115 249.6,-115 249.6,-121 243.6,-127 237.6,-127"/>
<text xml:space="preserve" text-anchor="middle" x="231.6" y="-104.33" font-family="monospace" font-size="14.00" fill="#b9dbfa">t</text>
</g>
<!-- root_0_1&#45;&gt;root_0_1_5 -->
<g id="edge7" class="edge">
<title>root_0_1&#45;&gt;root_0_1_5</title>
<path fill="none" stroke="#b9dbfa" stroke-width="2" d="M185.48,-129.77C190.98,-127.24 197.17,-124.39 203.16,-121.63"/>
<polygon fill="#b9dbfa" stroke="#b9dbfa" stroke-width="2" points="204.04,-124.31 210.14,-118.42 201.7,-119.22 204.04,-124.31"/>
</g>
<!-- root_0_1_2_3 -->
<g id="node5" class="node">
<title>root_0_1_2_3</title>
<path fill="none" stroke="#486d8c" stroke-width="2" d="M302.6,-206C302.6,-206 290.6,-206 290.6,-206 284.6,-206 278.6,-200 278.6,-194 278.6,-194 278.6,-182 278.6,-182 278.6,-176 284.6,-170 290.6,-170 290.6,-170 302.6,-170 302.6,-170 308.6,-170 314.6,-176 314.6,-182 314.6,-182 314.6,-194 314.6,-194 314.6,-200 308.6,-206 302.6,-206"/>
<text xml:space="preserve" text-anchor="middle" x="296.6" y="-183.32" font-family="monospace" font-size="14.00" fill="#b9dbfa">l</text>
</g>
<!-- root_0_1_2&#45;&gt;root_0_1_2_3 -->
<g id="edge4" class="edge">
<title>root_0_1_2&#45;&gt;root_0_1_2_3</title>
<path fill="none" stroke="#b9dbfa" stroke-width="2" d="M250.48,-177.97C255.72,-179.14 261.57,-180.44 267.28,-181.71"/>
<polygon fill="#b9dbfa" stroke="#b9dbfa" stroke-width="2" points="266.52,-184.41 274.93,-183.41 267.73,-178.94 266.52,-184.41"/>
</g>
<!-- root_0_1_2_3_4 -->
<g id="node6" class="node">
<title>root_0_1_2_3_4</title>
<path fill="none" stroke="#486d8c" stroke-width="2" d="M367.6,-210C367.6,-210 355.6,-210 355.6,-210 349.6,-210 343.6,-204 343.6,-198 343.6,-198 343.6,-186 343.6,-186 343.6,-180 349.6,-174 355.6,-174 355.6,-174 367.6,-174 367.6,-174 373.6,-174 379.6,-180 379.6,-186 379.6,-186 379.6,-198 379.6,-198 379.6,-204 373.6,-210 367.6,-210"/>
<text xml:space="preserve" text-anchor="middle" x="361.6" y="-187.32" font-family="monospace" font-size="14.00" fill="#b9dbfa">Y</text>
</g>
<!-- root_0_1_2_3&#45;&gt;root_0_1_2_3_4 -->
<g id="edge5" class="edge">
<title>root_0_1_2_3&#45;&gt;root_0_1_2_3_4</title>
<path fill="none" stroke="#b9dbfa" stroke-width="2" d="M315.48,-189.14C320.72,-189.47 326.57,-189.84 332.28,-190.2"/>
<polygon fill="#b9dbfa" stroke="#b9dbfa" stroke-width="2" points="331.71,-192.97 339.87,-190.68 332.06,-187.38 331.71,-192.97"/>
</g>
<!-- root_0_1_2_3_4_val -->
<g id="node7" class="node">
<title>root_0_1_2_3_4_val</title>
<polygon fill="none" stroke="#486d8c" stroke-width="2" points="602.45,-210 473.6,-210 473.6,-174 602.45,-174 602.45,-210"/>
<text xml:space="preserve" text-anchor="middle" x="538.02" y="-187.32" font-family="monospace" font-size="14.00" fill="#b9dbfa">&quot;2;ur,i,i,ar&quot;</text>
</g>
<!-- root_0_1_2_3_4&#45;&gt;root_0_1_2_3_4_val -->
<g id="edge6" class="edge">
<title>root_0_1_2_3_4&#45;&gt;root_0_1_2_3_4_val</title>
<path fill="none" stroke="#b9dbfa" stroke-width="2" d="M380.28,-192C399.57,-192 431.72,-192 461.91,-192"/>
<polygon fill="#b9dbfa" stroke="#b9dbfa" stroke-width="2" points="461.88,-194.8 469.88,-192 461.88,-189.2 461.88,-194.8"/>
</g>
<!-- root_0_1_5_6 -->
<g id="node9" class="node">
<title>root_0_1_5_6</title>
<path fill="none" stroke="#486d8c" stroke-width="2" d="M302.6,-127C302.6,-127 290.6,-127 290.6,-127 284.6,-127 278.6,-121 278.6,-115 278.6,-115 278.6,-103 278.6,-103 278.6,-97 284.6,-91 290.6,-91 290.6,-91 302.6,-91 302.6,-91 308.6,-91 314.6,-97 314.6,-103 314.6,-103 314.6,-115 314.6,-115 314.6,-121 308.6,-127 302.6,-127"/>
<text xml:space="preserve" text-anchor="middle" x="296.6" y="-104.33" font-family="monospace" font-size="14.00" fill="#b9dbfa">ú</text>
</g>
<!-- root_0_1_5&#45;&gt;root_0_1_5_6 -->
<g id="edge8" class="edge">
<title>root_0_1_5&#45;&gt;root_0_1_5_6</title>
<path fill="none" stroke="#b9dbfa" stroke-width="2" d="M250.48,-109C255.72,-109 261.57,-109 267.28,-109"/>
<polygon fill="#b9dbfa" stroke="#b9dbfa" stroke-width="2" points="266.86,-111.8 274.86,-109 266.86,-106.2 266.86,-111.8"/>
</g>
<!-- root_0_1_5_11 -->
<g id="node16" class="node">
<title>root_0_1_5_11</title>
<path fill="none" stroke="#486d8c" stroke-width="2" d="M302.6,-65C302.6,-65 290.6,-65 290.6,-65 284.6,-65 278.6,-59 278.6,-53 278.6,-53 278.6,-41 278.6,-41 278.6,-35 284.6,-29 290.6,-29 290.6,-29 302.6,-29 302.6,-29 308.6,-29 314.6,-35 314.6,-41 314.6,-41 314.6,-53 314.6,-53 314.6,-59 308.6,-65 302.6,-65"/>
<text xml:space="preserve" text-anchor="middle" x="296.6" y="-42.33" font-family="monospace" font-size="14.00" fill="#b9dbfa">f</text>
</g>
<!-- root_0_1_5&#45;&gt;root_0_1_5_11 -->
<g id="edge15" class="edge">
<title>root_0_1_5&#45;&gt;root_0_1_5_11</title>
<path fill="none" stroke="#b9dbfa" stroke-width="2" d="M250.48,-91.4C256.66,-85.33 263.69,-78.4 270.34,-71.86"/>
<polygon fill="#b9dbfa" stroke="#b9dbfa" stroke-width="2" points="271.99,-74.16 275.73,-66.55 268.07,-70.17 271.99,-74.16"/>
</g>
<!-- root_0_1_5_6_7 -->
<g id="node10" class="node">
<title>root_0_1_5_6_7</title>
<path fill="none" stroke="#486d8c" stroke-width="2" d="M367.6,-152C367.6,-152 355.6,-152 355.6,-152 349.6,-152 343.6,-146 343.6,-140 343.6,-140 343.6,-128 343.6,-128 343.6,-122 349.6,-116 355.6,-116 355.6,-116 367.6,-116 367.6,-116 373.6,-116 379.6,-122 379.6,-128 379.6,-128 379.6,-140 379.6,-140 379.6,-146 373.6,-152 367.6,-152"/>
<text xml:space="preserve" text-anchor="middle" x="361.6" y="-129.32" font-family="monospace" font-size="14.00" fill="#b9dbfa">n</text>
</g>
<!-- root_0_1_5_6&#45;&gt;root_0_1_5_6_7 -->
<g id="edge9" class="edge">
<title>root_0_1_5_6&#45;&gt;root_0_1_5_6_7</title>
<path fill="none" stroke="#b9dbfa" stroke-width="2" d="M315.48,-116.1C320.85,-118.23 326.87,-120.61 332.72,-122.94"/>
<polygon fill="#b9dbfa" stroke="#b9dbfa" stroke-width="2" points="331.61,-125.51 340.07,-125.86 333.67,-120.3 331.61,-125.51"/>
</g>
<!-- root_0_1_5_6_9 -->
<g id="node13" class="node">
<title>root_0_1_5_6_9</title>
<path fill="none" stroke="#486d8c" stroke-width="2" d="M367.6,-94C367.6,-94 355.6,-94 355.6,-94 349.6,-94 343.6,-88 343.6,-82 343.6,-82 343.6,-70 343.6,-70 343.6,-64 349.6,-58 355.6,-58 355.6,-58 367.6,-58 367.6,-58 373.6,-58 379.6,-64 379.6,-70 379.6,-70 379.6,-82 379.6,-82 379.6,-88 373.6,-94 367.6,-94"/>
<text xml:space="preserve" text-anchor="middle" x="361.6" y="-71.33" font-family="monospace" font-size="14.00" fill="#b9dbfa">r</text>
</g>
<!-- root_0_1_5_6&#45;&gt;root_0_1_5_6_9 -->
<g id="edge12" class="edge">
<title>root_0_1_5_6&#45;&gt;root_0_1_5_6_9</title>
<path fill="none" stroke="#b9dbfa" stroke-width="2" d="M315.48,-99.63C320.98,-96.75 327.17,-93.51 333.16,-90.37"/>
<polygon fill="#b9dbfa" stroke="#b9dbfa" stroke-width="2" points="334.42,-92.87 340.21,-86.68 331.82,-87.91 334.42,-92.87"/>
</g>
<!-- root_0_1_5_6_7_8 -->
<g id="node11" class="node">
<title>root_0_1_5_6_7_8</title>
<path fill="none" stroke="#486d8c" stroke-width="2" d="M432.6,-152C432.6,-152 420.6,-152 420.6,-152 414.6,-152 408.6,-146 408.6,-140 408.6,-140 408.6,-128 408.6,-128 408.6,-122 414.6,-116 420.6,-116 420.6,-116 432.6,-116 432.6,-116 438.6,-116 444.6,-122 444.6,-128 444.6,-128 444.6,-140 444.6,-140 444.6,-146 438.6,-152 432.6,-152"/>
<text xml:space="preserve" text-anchor="middle" x="426.6" y="-129.32" font-family="monospace" font-size="14.00" fill="#b9dbfa">K</text>
</g>
<!-- root_0_1_5_6_7&#45;&gt;root_0_1_5_6_7_8 -->
<g id="edge10" class="edge">
<title>root_0_1_5_6_7&#45;&gt;root_0_1_5_6_7_8</title>
<path fill="none" stroke="#b9dbfa" stroke-width="2" d="M380.48,-134C385.72,-134 391.57,-134 397.28,-134"/>
<polygon fill="#b9dbfa" stroke="#b9dbfa" stroke-width="2" points="396.86,-136.8 404.86,-134 396.86,-131.2 396.86,-136.8"/>
</g>
<!-- root_0_1_5_6_7_8_val -->
<g id="node12" class="node">
<title>root_0_1_5_6_7_8_val</title>
<polygon fill="none" stroke="#486d8c" stroke-width="2" points="594.2,-152 481.85,-152 481.85,-116 594.2,-116 594.2,-152"/>
<text xml:space="preserve" text-anchor="middle" x="538.02" y="-129.32" font-family="monospace" font-size="14.00" fill="#b9dbfa">&quot;2;ur,,i,s&quot;</text>
</g>
<!-- root_0_1_5_6_7_8&#45;&gt;root_0_1_5_6_7_8_val -->
<g id="edge11" class="edge">
<title>root_0_1_5_6_7_8&#45;&gt;root_0_1_5_6_7_8_val</title>
<path fill="none" stroke="#b9dbfa" stroke-width="2" d="M445.18,-134C452.3,-134 461.01,-134 470.2,-134"/>
<polygon fill="#b9dbfa" stroke="#b9dbfa" stroke-width="2" points="470.12,-136.8 478.12,-134 470.12,-131.2 470.12,-136.8"/>
</g>
<!-- root_0_1_5_6_9_10 -->
<g id="node14" class="node">
<title>root_0_1_5_6_9_10</title>
<path fill="none" stroke="#486d8c" stroke-width="2" d="M432.6,-94C432.6,-94 420.6,-94 420.6,-94 414.6,-94 408.6,-88 408.6,-82 408.6,-82 408.6,-70 408.6,-70 408.6,-64 414.6,-58 420.6,-58 420.6,-58 432.6,-58 432.6,-58 438.6,-58 444.6,-64 444.6,-70 444.6,-70 444.6,-82 444.6,-82 444.6,-88 438.6,-94 432.6,-94"/>
<text xml:space="preserve" text-anchor="middle" x="426.6" y="-71.33" font-family="monospace" font-size="14.00" fill="#b9dbfa">H</text>
</g>
<!-- root_0_1_5_6_9&#45;&gt;root_0_1_5_6_9_10 -->
<g id="edge13" class="edge">
<title>root_0_1_5_6_9&#45;&gt;root_0_1_5_6_9_10</title>
<path fill="none" stroke="#b9dbfa" stroke-width="2" d="M380.48,-76C385.72,-76 391.57,-76 397.28,-76"/>
<polygon fill="#b9dbfa" stroke="#b9dbfa" stroke-width="2" points="396.86,-78.8 404.86,-76 396.86,-73.2 396.86,-78.8"/>
</g>
<!-- root_0_1_5_6_9_10_val -->
<g id="node15" class="node">
<title>root_0_1_5_6_9_10_val</title>
<polygon fill="none" stroke="#486d8c" stroke-width="2" points="594.2,-94 481.85,-94 481.85,-58 594.2,-58 594.2,-94"/>
<text xml:space="preserve" text-anchor="middle" x="538.02" y="-71.33" font-family="monospace" font-size="14.00" fill="#b9dbfa">&quot;2;ur,,i,s&quot;</text>
</g>
<!-- root_0_1_5_6_9_10&#45;&gt;root_0_1_5_6_9_10_val -->
<g id="edge14" class="edge">
<title>root_0_1_5_6_9_10&#45;&gt;root_0_1_5_6_9_10_val</title>
<path fill="none" stroke="#b9dbfa" stroke-width="2" d="M445.18,-76C452.3,-76 461.01,-76 470.2,-76"/>
<polygon fill="#b9dbfa" stroke="#b9dbfa" stroke-width="2" points="470.12,-78.8 478.12,-76 470.12,-73.2 470.12,-78.8"/>
</g>
<!-- root_0_1_5_11_12 -->
<g id="node17" class="node">
<title>root_0_1_5_11_12</title>
<path fill="none" stroke="#486d8c" stroke-width="2" d="M367.6,-36C367.6,-36 355.6,-36 355.6,-36 349.6,-36 343.6,-30 343.6,-24 343.6,-24 343.6,-12 343.6,-12 343.6,-6 349.6,0 355.6,0 355.6,0 367.6,0 367.6,0 373.6,0 379.6,-6 379.6,-12 379.6,-12 379.6,-24 379.6,-24 379.6,-30 373.6,-36 367.6,-36"/>
<text xml:space="preserve" text-anchor="middle" x="361.6" y="-13.32" font-family="monospace" font-size="14.00" fill="#b9dbfa">o</text>
</g>
<!-- root_0_1_5_11&#45;&gt;root_0_1_5_11_12 -->
<g id="edge16" class="edge">
<title>root_0_1_5_11&#45;&gt;root_0_1_5_11_12</title>
<path fill="none" stroke="#b9dbfa" stroke-width="2" d="M315.48,-38.77C320.98,-36.24 327.17,-33.39 333.16,-30.63"/>
<polygon fill="#b9dbfa" stroke="#b9dbfa" stroke-width="2" points="334.04,-33.31 340.14,-27.42 331.7,-28.22 334.04,-33.31"/>
</g>
<!-- root_0_1_5_11_12_13 -->
<g id="node18" class="node">
<title>root_0_1_5_11_12_13</title>
<path fill="none" stroke="#486d8c" stroke-width="2" d="M432.6,-36C432.6,-36 420.6,-36 420.6,-36 414.6,-36 408.6,-30 408.6,-24 408.6,-24 408.6,-12 408.6,-12 408.6,-6 414.6,0 420.6,0 420.6,0 432.6,0 432.6,0 438.6,0 444.6,-6 444.6,-12 444.6,-12 444.6,-24 444.6,-24 444.6,-30 438.6,-36 432.6,-36"/>
<text xml:space="preserve" text-anchor="middle" x="426.6" y="-13.32" font-family="monospace" font-size="14.00" fill="#b9dbfa">L</text>
</g>
<!-- root_0_1_5_11_12&#45;&gt;root_0_1_5_11_12_13 -->
<g id="edge17" class="edge">
<title>root_0_1_5_11_12&#45;&gt;root_0_1_5_11_12_13</title>
<path fill="none" stroke="#b9dbfa" stroke-width="2" d="M380.48,-18C385.72,-18 391.57,-18 397.28,-18"/>
<polygon fill="#b9dbfa" stroke="#b9dbfa" stroke-width="2" points="396.86,-20.8 404.86,-18 396.86,-15.2 396.86,-20.8"/>
</g>
<!-- root_0_1_5_11_12_13_val -->
<g id="node19" class="node">
<title>root_0_1_5_11_12_13_val</title>
<polygon fill="none" stroke="#486d8c" stroke-width="2" points="594.2,-36 481.85,-36 481.85,0 594.2,0 594.2,-36"/>
<text xml:space="preserve" text-anchor="middle" x="538.02" y="-13.32" font-family="monospace" font-size="14.00" fill="#b9dbfa">&quot;2;ur,,i,s&quot;</text>
</g>
<!-- root_0_1_5_11_12_13&#45;&gt;root_0_1_5_11_12_13_val -->
<g id="edge18" class="edge">
<title>root_0_1_5_11_12_13&#45;&gt;root_0_1_5_11_12_13_val</title>
<path fill="none" stroke="#b9dbfa" stroke-width="2" d="M445.18,-18C452.3,-18 461.01,-18 470.2,-18"/>
<polygon fill="#b9dbfa" stroke="#b9dbfa" stroke-width="2" points="470.12,-20.8 478.12,-18 470.12,-15.2 470.12,-20.8"/>
</g>
</g>
</svg>
