<?xml version="1.0" encoding="UTF-8" standalone="no"?>
<!-- Generated by graphviz version 13.1.0 (20250701.0955)
 -->

<!-- Pages: 1 -->

<svg
   width="369pt"
   height="80pt"
   viewBox="0.00 0.00 369.00 80.00"
   version="1.1"
   id="svg13"
   xmlns="http://www.w3.org/2000/svg"
   xmlns:svg="http://www.w3.org/2000/svg">
  <defs
     id="defs13" />
  <g
     id="graph0"
     class="graph"
     transform="scale(1 1) rotate(0) translate(4 75.8)">
    <!-- root -->
    <g
       id="node1"
       class="node">
      <title
         id="title1">root</title>
      <path
         fill="none"
         stroke="#486d8c"
         stroke-width="2"
         d="M40.68,-49.8C40.68,-49.8 9.6,-49.8 9.6,-49.8 4.8,-49.8 0,-45 0,-40.2 0,-40.2 0,-30.6 0,-30.6 0,-25.8 4.8,-21 9.6,-21 9.6,-21 40.68,-21 40.68,-21 45.48,-21 50.28,-25.8 50.28,-30.6 50.28,-30.6 50.28,-40.2 50.28,-40.2 50.28,-45 45.48,-49.8 40.68,-49.8"
         id="path1" />
      <path
         d="m 9.4240896,-31.1 v -0.926154 h 1.1774364 v -5.707693 H 9.4240896 V -38.66 H 11.5205 l 0.222564,1.787692 q 0.437949,-0.933333 1.062564,-1.443077 0.624615,-0.509744 1.651282,-0.509744 0.315898,0 0.56,0.05026 0.251282,0.04308 0.509744,0.114872 l -0.172308,2.555897 h -0.990769 v -1.608205 q -0.02872,0 -0.06462,0 -1.737435,0 -2.491282,2.484102 v 3.202052 H 13.34409 V -31.1 Z M 20.84666,-38.817949 q 1.601026,0 2.419487,1.069743 0.818462,1.069744 0.818462,2.864616 0,1.155897 -0.373334,2.046154 -0.373333,0.890256 -1.098461,1.4 -0.725128,0.502564 -1.780513,0.502564 -1.601026,0 -2.426667,-1.076923 -0.825641,-1.076923 -0.825641,-2.857436 0,-1.163077 0.373334,-2.053333 0.373333,-0.897436 1.098461,-1.392821 0.732308,-0.502564 1.794872,-0.502564 z m 0,0.98359 q -0.97641,0 -1.478974,0.725128 -0.495385,0.725128 -0.495385,2.24 0,1.500513 0.488205,2.225641 0.495385,0.717949 1.471795,0.717949 0.97641,0 1.464615,-0.725129 0.495385,-0.725128 0.495385,-2.23282 0,-1.507692 -0.488205,-2.225641 -0.488205,-0.725128 -1.457436,-0.725128 z m 8.615391,-0.98359 q 1.601025,0 2.419487,1.069743 0.818461,1.069744 0.818461,2.864616 0,1.155897 -0.373333,2.046154 -0.373333,0.890256 -1.098461,1.4 -0.725129,0.502564 -1.780513,0.502564 -1.601026,0 -2.426667,-1.076923 -0.825641,-1.076923 -0.825641,-2.857436 0,-1.163077 0.373333,-2.053333 0.373334,-0.897436 1.098462,-1.392821 0.732308,-0.502564 1.794872,-0.502564 z m 0,0.98359 q -0.976411,0 -1.478975,0.725128 -0.495384,0.725128 -0.495384,2.24 0,1.500513 0.488205,2.225641 0.495384,0.717949 1.471795,0.717949 0.97641,0 1.464615,-0.725129 0.495385,-0.725128 0.495385,-2.23282 0,-1.507692 -0.488205,-2.225641 -0.488206,-0.725128 -1.457436,-0.725128 z m 11.738467,6.353846 q -0.387692,0.258461 -0.940512,0.402051 -0.552821,0.14359 -1.084103,0.14359 -1.220513,0 -1.881026,-0.638975 -0.660512,-0.638974 -0.660512,-1.644102 v -4.508718 H 34.896929 V -38.66 h 1.737436 v -1.715898 l 1.206153,-0.14359 V -38.66 h 2.613334 l -0.14359,0.933333 h -2.469744 v 4.494359 q 0,0.631795 0.330257,0.962051 0.337436,0.330257 1.11282,0.330257 0.42359,0 0.782564,-0.100513 0.358975,-0.100513 0.667693,-0.258462 z"
         id="text1"
         style="font-size:14px;font-family:'Fira Code';text-anchor:middle;fill:#b9dbfa"
         aria-label="root" />
    </g>
    <!-- root_0 -->
    <g
       id="node2"
       class="node">
      <title
         id="title2">root_0</title>
      <path
         fill="none"
         stroke="#486d8c"
         stroke-width="2"
         d="M98.48,-49.8C98.48,-49.8 88.88,-49.8 88.88,-49.8 84.08,-49.8 79.28,-45 79.28,-40.2 79.28,-40.2 79.28,-30.6 79.28,-30.6 79.28,-25.8 84.08,-21 88.88,-21 88.88,-21 98.48,-21 98.48,-21 103.28,-21 108.08,-25.8 108.08,-30.6 108.08,-30.6 108.08,-40.2 108.08,-40.2 108.08,-45 103.28,-49.8 98.48,-49.8"
         id="path2" />
      <path
         d="m 90.887177,-31.1 v -0.926154 h 1.177436 v -5.707693 H 90.887177 V -38.66 h 2.09641 l 0.222564,1.787692 q 0.437949,-0.933333 1.062564,-1.443077 0.624616,-0.509744 1.651282,-0.509744 0.315898,0 0.56,0.05026 0.251282,0.04308 0.509744,0.114872 l -0.172308,2.555897 h -0.990769 v -1.608205 q -0.02872,0 -0.06461,0 -1.737436,0 -2.491283,2.484102 v 3.202052 h 1.536411 V -31.1 Z"
         id="text2"
         style="font-size:14px;font-family:'Fira Code';text-anchor:middle;fill:#b9dbfa"
         aria-label="r" />
    </g>
    <!-- root&#45;&gt;root_0 -->
    <g
       id="edge1"
       class="edge">
      <title
         id="title3">root-&gt;root_0</title>
      <path
         fill="none"
         stroke="#b9dbfa"
         stroke-width="2"
         d="M50.92,-35.4C56.45,-35.4 62.31,-35.4 67.84,-35.4"
         id="path3" />
      <polygon
         fill="#b9dbfa"
         stroke="#b9dbfa"
         stroke-width="2"
         points="67.49,-38.2 75.49,-35.4 67.49,-32.6 67.49,-38.2"
         id="polygon3" />
    </g>
    <!-- root_0_1 -->
    <g
       id="node3"
       class="node">
      <title
         id="title4">root_0_1</title>
      <path
         fill="none"
         stroke="#486d8c"
         stroke-width="2"
         d="M156.28,-49.8C156.28,-49.8 146.68,-49.8 146.68,-49.8 141.88,-49.8 137.08,-45 137.08,-40.2 137.08,-40.2 137.08,-30.6 137.08,-30.6 137.08,-25.8 141.88,-21 146.68,-21 146.68,-21 156.28,-21 156.28,-21 161.08,-21 165.88,-25.8 165.88,-30.6 165.88,-30.6 165.88,-40.2 165.88,-40.2 165.88,-45 161.08,-49.8 156.28,-49.8"
         id="path4" />
      <path
         d="m 149.82153,-38.66 v 5.355897 q 0,0.746667 0.30872,1.076923 0.30872,0.330257 0.96205,0.330257 0.62462,0 1.17744,-0.351795 0.56,-0.358975 0.86871,-0.84718 V -38.66 h 1.20616 v 7.56 h -1.02667 l -0.10051,-1.019488 q -0.44513,0.574359 -1.10564,0.883077 -0.65334,0.301539 -1.31385,0.301539 -1.09846,0 -1.6441,-0.581539 -0.53846,-0.588718 -0.53846,-1.644102 V -38.66 Z"
         id="text4"
         style="font-size:14px;font-family:'Fira Code';text-anchor:middle;fill:#b9dbfa"
         aria-label="u" />
    </g>
    <!-- root_0&#45;&gt;root_0_1 -->
    <g
       id="edge2"
       class="edge">
      <title
         id="title5">root_0-&gt;root_0_1</title>
      <path
         fill="none"
         stroke="#b9dbfa"
         stroke-width="2"
         d="M109.05,-35.4C114.03,-35.4 119.78,-35.4 125.37,-35.4"
         id="path5" />
      <polygon
         fill="#b9dbfa"
         stroke="#b9dbfa"
         stroke-width="2"
         points="125.32,-38.2 133.32,-35.4 125.32,-32.6 125.32,-38.2"
         id="polygon5" />
    </g>
    <!-- root_0_1_2 -->
    <g
       id="node4"
       class="node">
      <title
         id="title6">root_0_1_2</title>
      <path
         fill="none"
         stroke="#486d8c"
         stroke-width="2"
         d="M214.08,-71.8C214.08,-71.8 204.48,-71.8 204.48,-71.8 199.68,-71.8 194.88,-67 194.88,-62.2 194.88,-62.2 194.88,-52.6 194.88,-52.6 194.88,-47.8 199.68,-43 204.48,-43 204.48,-43 214.08,-43 214.08,-43 218.88,-43 223.68,-47.8 223.68,-52.6 223.68,-52.6 223.68,-62.2 223.68,-62.2 223.68,-67 218.88,-71.8 214.08,-71.8"
         id="path6" />
      <path
         d="m 210.88102,-63.85487 q 0.61026,0 1.10564,0.107692 0.49539,0.107692 0.94052,0.301539 l -0.3877,0.897435 q -0.36615,-0.157948 -0.78256,-0.236923 -0.40923,-0.07897 -0.84,-0.07897 -1.58667,0 -1.58667,1.25641 v 1.53641 h 2.56308 l -0.12923,0.947693 h -2.43385 v 6.02359 h -1.20615 v -6.02359 h -1.80205 v -0.947693 h 1.80205 v -1.507692 q 0,-0.70359 0.35897,-1.213333 0.36616,-0.509744 0.99077,-0.782564 0.62462,-0.28 1.40718,-0.28 z"
         id="text6"
         style="font-size:14px;font-family:'Fira Code';text-anchor:middle;fill:#b9dbfa"
         aria-label="f" />
    </g>
    <!-- root_0_1&#45;&gt;root_0_1_2 -->
    <g
       id="edge3"
       class="edge">
      <title
         id="title7">root_0_1-&gt;root_0_1_2</title>
      <path
         fill="none"
         stroke="#b9dbfa"
         stroke-width="2"
         d="M166.85,-41.07C172.1,-43.13 178.19,-45.54 184.06,-47.85"
         id="path7" />
      <polygon
         fill="#b9dbfa"
         stroke="#b9dbfa"
         stroke-width="2"
         points="182.87,-50.39 191.34,-50.72 184.92,-45.18 182.87,-50.39"
         id="polygon7" />
    </g>
    <!-- root_0_1_3 -->
    <g
       id="node6"
       class="node">
      <title
         id="title8">root_0_1_3</title>
      <path
         fill="none"
         stroke="#486d8c"
         stroke-width="2"
         d="M214.08,-28.8C214.08,-28.8 204.48,-28.8 204.48,-28.8 199.68,-28.8 194.88,-24 194.88,-19.2 194.88,-19.2 194.88,-9.6 194.88,-9.6 194.88,-4.8 199.68,0 204.48,0 204.48,0 214.08,0 214.08,0 218.88,0 223.68,-4.8 223.68,-9.6 223.68,-9.6 223.68,-19.2 223.68,-19.2 223.68,-24 218.88,-28.8 214.08,-28.8"
         id="path8" />
      <path
         d="m 212.41743,-10.480513 q -0.38769,0.258461 -0.94051,0.402051 -0.55282,0.1435898 -1.0841,0.1435898 -1.22052,0 -1.88103,-0.6389748 -0.66051,-0.638974 -0.66051,-1.644102 v -4.508718 h -1.73744 V -17.66 h 1.73744 v -1.715898 l 1.20615,-0.14359 V -17.66 h 2.61333 l -0.14358,0.933333 h -2.46975 v 4.494359 q 0,0.631795 0.33026,0.962051 0.33743,0.330257 1.11282,0.330257 0.42359,0 0.78256,-0.100513 0.35898,-0.100513 0.66769,-0.258462 z"
         id="text8"
         style="font-size:14px;font-family:'Fira Code';text-anchor:middle;fill:#b9dbfa"
         aria-label="t" />
    </g>
    <!-- root_0_1&#45;&gt;root_0_1_3 -->
    <g
       id="edge5"
       class="edge">
      <title
         id="title9">root_0_1-&gt;root_0_1_3</title>
      <path
         fill="none"
         stroke="#b9dbfa"
         stroke-width="2"
         d="M166.85,-29.99C172.1,-28.02 178.19,-25.73 184.06,-23.52"
         id="path9" />
      <polygon
         fill="#b9dbfa"
         stroke="#b9dbfa"
         stroke-width="2"
         points="184.82,-26.22 191.32,-20.78 182.85,-20.98 184.82,-26.22"
         id="polygon9" />
    </g>
    <!-- root_0_1_2_val -->
    <g
       id="node5"
       class="node">
      <title
         id="title10">root_0_1_2_val</title>
      <polygon
         fill="none"
         stroke="#486d8c"
         stroke-width="2"
         points="360.71,-71.8 252.68,-71.8 252.68,-43 360.71,-43 360.71,-71.8"
         id="polygon10" />
      <path
         d="m 261.8928,-59.970768 -0.22974,-3.733333 h 1.51487 l -0.22257,3.733333 z m 2.39795,0 -0.21539,-3.733333 h 1.5077 l -0.22975,3.733333 z m 6.28923,-0.68923 v 5.355897 q 0,0.746667 0.30872,1.076923 0.30872,0.330256 0.96205,0.330256 0.62462,0 1.17744,-0.351794 0.56,-0.358975 0.86872,-0.84718 v -5.564102 h 1.20615 v 7.56 h -1.02667 l -0.10051,-1.019488 q -0.44513,0.574359 -1.10564,0.883077 -0.65333,0.301539 -1.31385,0.301539 -1.09846,0 -1.6441,-0.581539 -0.53846,-0.588718 -0.53846,-1.644102 v -5.499487 z m 7.48104,7.56 v -0.926154 h 1.17743 v -5.707693 h -1.17743 v -0.926153 h 2.09641 l 0.22256,1.787692 q 0.43795,-0.933333 1.06256,-1.443077 0.62462,-0.509744 1.65129,-0.509744 0.31589,0 0.56,0.05026 0.25128,0.04308 0.50974,0.114872 l -0.17231,2.555897 h -0.99077 v -1.608205 q -0.0287,0 -0.0646,0 -1.73744,0 -2.49128,2.484102 v 3.202052 h 1.53641 v 0.926154 z m 11.40821,-2.362052 q 0.49538,0 0.82564,0.337436 0.33743,0.337436 0.33743,0.811282 0,0.258462 -0.0646,0.524103 -0.0574,0.265641 -0.21539,0.603077 l -1.16307,2.663589 h -1.09128 l 0.68923,-2.835897 q -0.46667,-0.337436 -0.46667,-0.954872 0,-0.473846 0.33026,-0.811282 0.33025,-0.337436 0.81846,-0.337436 z m 8.61539,-8.737436 q 0.40205,0 0.63897,0.244103 0.24411,0.244102 0.24411,0.595897 0,0.366154 -0.24411,0.617436 -0.23692,0.244103 -0.63897,0.244103 -0.38051,0 -0.62462,-0.244103 -0.2441,-0.251282 -0.2441,-0.617436 0,-0.351795 0.2441,-0.595897 0.24411,-0.244103 0.62462,-0.244103 z m 0.96205,3.539488 v 6.605128 h 2.13231 v 0.954872 h -5.6718 v -0.954872 h 2.33334 v -5.650257 h -2.26154 v -0.954871 z m 7.65334,5.197948 q 0.49538,0 0.82564,0.337436 0.33744,0.337436 0.33744,0.811282 0,0.258462 -0.0646,0.524103 -0.0574,0.265641 -0.21538,0.603077 l -1.16308,2.663589 h -1.09128 l 0.68923,-2.835897 q -0.46667,-0.337436 -0.46667,-0.954872 0,-0.473846 0.33026,-0.811282 0.33025,-0.337436 0.81846,-0.337436 z m 8.61539,-8.737436 q 0.40205,0 0.63897,0.244103 0.24411,0.244102 0.24411,0.595897 0,0.366154 -0.24411,0.617436 -0.23692,0.244103 -0.63897,0.244103 -0.38051,0 -0.62462,-0.244103 -0.2441,-0.251282 -0.2441,-0.617436 0,-0.351795 0.2441,-0.595897 0.24411,-0.244103 0.62462,-0.244103 z m 0.96205,3.539488 v 6.605128 h 2.13231 v 0.954872 h -5.6718 v -0.954872 h 2.33334 v -5.650257 h -2.26154 v -0.954871 z m 7.65334,5.197948 q 0.49539,0 0.82564,0.337436 0.33744,0.337436 0.33744,0.811282 0,0.258462 -0.0646,0.524103 -0.0574,0.265641 -0.21538,0.603077 l -1.16308,2.663589 h -1.09128 l 0.68923,-2.835897 q -0.46667,-0.337436 -0.46667,-0.954872 0,-0.473846 0.33026,-0.811282 0.33026,-0.337436 0.81846,-0.337436 z m 11.16411,0.710769 q 0,0.459488 0.15077,0.667693 0.15077,0.208205 0.46667,0.301538 l -0.29436,0.84718 q -0.48821,-0.06462 -0.85436,-0.308718 -0.36616,-0.251282 -0.53128,-0.753846 -0.40924,0.524102 -1.02667,0.796923 -0.61026,0.265641 -1.34257,0.265641 -1.13435,0 -1.78769,-0.638975 -0.65333,-0.638974 -0.65333,-1.694359 0,-1.170256 0.91179,-1.794871 0.9118,-0.624616 2.63488,-0.624616 h 1.11282 v -0.631795 q 0,-0.818461 -0.48103,-1.155897 -0.47385,-0.344615 -1.32103,-0.344615 -0.37333,0 -0.87589,0.09333 -0.50257,0.08615 -1.09128,0.294359 l -0.3159,-0.911795 q 0.68923,-0.258462 1.29949,-0.366154 0.61743,-0.107692 1.17025,-0.107692 1.40718,0 2.11795,0.660513 0.71077,0.660512 0.71077,1.780512 z m -3.12308,0.897436 q 0.56,0 1.06257,-0.28 0.50974,-0.287179 0.84718,-0.789743 v -1.945641 h -1.09129 q -1.24923,0 -1.76615,0.430769 -0.50974,0.430769 -0.50974,1.155897 0,1.428718 1.45743,1.428718 z m 6.39693,0.753847 v -0.926154 h 1.17743 v -5.707693 h -1.17743 v -0.926153 h 2.09641 l 0.22256,1.787692 q 0.43795,-0.933333 1.06257,-1.443077 0.62461,-0.509744 1.65128,-0.509744 0.3159,0 0.56,0.05026 0.25128,0.04308 0.50974,0.114872 l -0.17231,2.555897 h -0.99076 v -1.608205 q -0.0287,0 -0.0646,0 -1.73744,0 -2.49128,2.484102 v 3.202052 h 1.53641 v 0.926154 z m 9.67796,-6.87077 -0.22975,-3.733333 h 1.51487 l -0.22256,3.733333 z m 2.39795,0 -0.21539,-3.733333 h 1.50769 l -0.22974,3.733333 z"
         id="text10"
         style="font-size:14px;font-family:'Fira Code';text-anchor:middle;fill:#b9dbfa"
         aria-label="&quot;ur,i,i,ar&quot;" />
    </g>
    <!-- root_0_1_2&#45;&gt;root_0_1_2_val -->
    <g
       id="edge4"
       class="edge">
      <title
         id="title11">root_0_1_2-&gt;root_0_1_2_val</title>
      <path
         fill="none"
         stroke="#b9dbfa"
         stroke-width="2"
         d="M224.36,-57.4C229.21,-57.4 235,-57.4 241.23,-57.4"
         id="path11" />
      <polygon
         fill="#b9dbfa"
         stroke="#b9dbfa"
         stroke-width="2"
         points="241,-60.2 249,-57.4 241,-54.6 241,-60.2"
         id="polygon11" />
    </g>
    <!-- root_0_1_3_val -->
    <g
       id="node7"
       class="node">
      <title
         id="title12">root_0_1_3_val</title>
      <polygon
         fill="none"
         stroke="#486d8c"
         stroke-width="2"
         points="352.46,-28.8 260.93,-28.8 260.93,0 352.46,0 352.46,-28.8"
         id="polygon12" />
      <path
         d="m 270.50819,-16.97077 -0.22974,-3.733333 h 1.51487 l -0.22257,3.733333 z m 2.39795,0 -0.21539,-3.733333 h 1.5077 l -0.22975,3.733333 z m 6.28924,-0.68923 v 5.355897 q 0,0.746667 0.30871,1.076923 0.30872,0.330257 0.96205,0.330257 0.62462,0 1.17744,-0.351795 0.56,-0.358975 0.86872,-0.84718 V -17.66 h 1.20615 v 7.56 h -1.02666 l -0.10052,-1.019488 q -0.44513,0.574359 -1.10564,0.883077 -0.65333,0.3015388 -1.31384,0.3015388 -1.09847,0 -1.64411,-0.5815388 -0.53846,-0.588718 -0.53846,-1.644102 V -17.66 Z m 7.48103,7.56 v -0.926154 h 1.17743 v -5.707693 h -1.17743 V -17.66 h 2.09641 l 0.22256,1.787692 q 0.43795,-0.933333 1.06257,-1.443077 0.62461,-0.509744 1.65128,-0.509744 0.3159,0 0.56,0.05026 0.25128,0.04308 0.50974,0.114872 l -0.17231,2.555897 h -0.99077 v -1.608205 q -0.0287,0 -0.0646,0 -1.73744,0 -2.49128,2.484102 v 3.202052 h 1.53641 V -10.1 Z m 11.40821,-2.362052 q 0.49538,0 0.82564,0.337436 0.33744,0.337436 0.33744,0.811282 0,0.258462 -0.0646,0.524103 -0.0574,0.265641 -0.21538,0.603077 l -1.16308,2.6635895 h -1.09128 l 0.68923,-2.8358975 q -0.46667,-0.337436 -0.46667,-0.954872 0,-0.473846 0.33026,-0.811282 0.33025,-0.337436 0.81846,-0.337436 z m 8.61539,0 q 0.49538,0 0.82564,0.337436 0.33744,0.337436 0.33744,0.811282 0,0.258462 -0.0646,0.524103 -0.0574,0.265641 -0.21538,0.603077 l -1.16308,2.6635895 h -1.09128 l 0.68923,-2.8358975 q -0.46667,-0.337436 -0.46667,-0.954872 0,-0.473846 0.33026,-0.811282 0.33025,-0.337436 0.81846,-0.337436 z m 8.61539,-8.737436 q 0.40205,0 0.63897,0.244103 0.24411,0.244103 0.24411,0.595897 0,0.366154 -0.24411,0.617436 -0.23692,0.244103 -0.63897,0.244103 -0.38051,0 -0.62462,-0.244103 -0.2441,-0.251282 -0.2441,-0.617436 0,-0.351794 0.2441,-0.595897 0.24411,-0.244103 0.62462,-0.244103 z m 0.96205,3.539488 v 6.605128 h 2.13231 V -10.1 h -5.6718 v -0.954872 h 2.33334 v -5.650257 h -2.26154 V -17.66 Z m 7.65334,5.197948 q 0.49539,0 0.82564,0.337436 0.33744,0.337436 0.33744,0.811282 0,0.258462 -0.0646,0.524103 -0.0574,0.265641 -0.21538,0.603077 l -1.16308,2.6635895 h -1.09128 l 0.68923,-2.8358975 q -0.46667,-0.337436 -0.46667,-0.954872 0,-0.473846 0.33026,-0.811282 0.33026,-0.337436 0.81846,-0.337436 z m 8.32103,1.529231 q 0.8759,0 1.37846,-0.323077 0.50257,-0.323077 0.50257,-0.875897 0,-0.337436 -0.12923,-0.588718 -0.12205,-0.251282 -0.50975,-0.452308 -0.38769,-0.208205 -1.19179,-0.409231 -0.78257,-0.193846 -1.3641,-0.445128 -0.57436,-0.258461 -0.89744,-0.667692 -0.3159,-0.409231 -0.3159,-1.062564 0,-0.954872 0.79693,-1.507693 0.79692,-0.55282 2.07487,-0.55282 0.91179,0 1.58666,0.244102 0.68206,0.244103 1.1559,0.588718 l -0.53128,0.818462 q -0.42359,-0.294359 -0.94769,-0.481026 -0.51693,-0.193846 -1.24923,-0.193846 -0.89026,0 -1.26359,0.28 -0.37334,0.272821 -0.37334,0.710769 0,0.337436 0.17949,0.56 0.18667,0.215385 0.62462,0.387693 0.43795,0.172307 1.20615,0.380513 0.73949,0.201025 1.29231,0.473846 0.55282,0.27282 0.85436,0.717948 0.30871,0.437949 0.30871,1.141539 0,0.804102 -0.45948,1.306667 -0.45949,0.495384 -1.1918,0.725128 -0.72513,0.2225638 -1.53641,0.2225638 -1.02666,0 -1.75179,-0.2943588 -0.71795,-0.301539 -1.20616,-0.725128 l 0.68923,-0.796923 q 0.44513,0.366153 1.01949,0.595897 0.58154,0.222564 1.24923,0.222564 z m 7.1795,-6.037949 -0.22975,-3.733333 h 1.51487 l -0.22256,3.733333 z m 2.39794,0 -0.21538,-3.733333 h 1.50769 l -0.22974,3.733333 z"
         id="text12"
         style="font-size:14px;font-family:'Fira Code';text-anchor:middle;fill:#b9dbfa"
         aria-label="&quot;ur,,i,s&quot;" />
    </g>
    <!-- root_0_1_3&#45;&gt;root_0_1_3_val -->
    <g
       id="edge6"
       class="edge">
      <title
         id="title13">root_0_1_3-&gt;root_0_1_3_val</title>
      <path
         fill="none"
         stroke="#b9dbfa"
         stroke-width="2"
         d="M224.36,-14.4C231.21,-14.4 239.96,-14.4 249.15,-14.4"
         id="path13" />
      <polygon
         fill="#b9dbfa"
         stroke="#b9dbfa"
         stroke-width="2"
         points="249.04,-17.2 257.04,-14.4 249.04,-11.6 249.04,-17.2"
         id="polygon13" />
    </g>
  </g>
</svg>
