<?xml version="1.0" encoding="UTF-8" standalone="no"?>
<!-- Generated by graphviz version 13.1.0 (20250701.0955)
 -->

<!-- Pages: 1 -->

<svg
   width="542pt"
   height="166pt"
   viewBox="0.00 0.00 542.00 166.00"
   version="1.1"
   id="svg37"
   xmlns="http://www.w3.org/2000/svg"
   xmlns:svg="http://www.w3.org/2000/svg">
  <defs
     id="defs37" />
  <g
     id="graph0"
     class="graph"
     transform="scale(1 1) rotate(0) translate(4 161.8)">
    <!-- root -->
    <g
       id="node1"
       class="node">
      <title
         id="title1">root</title>
      <path
         fill="none"
         stroke="#486d8c"
         stroke-width="2"
         d="M40.68,-97.8C40.68,-97.8 9.6,-97.8 9.6,-97.8 4.8,-97.8 0,-93 0,-88.2 0,-88.2 0,-78.6 0,-78.6 0,-73.8 4.8,-69 9.6,-69 9.6,-69 40.68,-69 40.68,-69 45.48,-69 50.28,-73.8 50.28,-78.6 50.28,-78.6 50.28,-88.2 50.28,-88.2 50.28,-93 45.48,-97.8 40.68,-97.8"
         id="path1" />
      <path
         d="m 9.4240896,-79.099998 v -0.926154 h 1.1774364 v -5.707693 H 9.4240896 v -0.926153 H 11.5205 l 0.222564,1.787692 q 0.437949,-0.933333 1.062564,-1.443077 0.624615,-0.509744 1.651282,-0.509744 0.315898,0 0.56,0.05026 0.251282,0.04308 0.509744,0.114872 l -0.172308,2.555897 h -0.990769 v -1.608205 q -0.02872,0 -0.06462,0 -1.737435,0 -2.491282,2.484102 v 3.202052 h 1.536411 v 0.926154 z M 20.84666,-86.817947 q 1.601026,0 2.419487,1.069743 0.818462,1.069744 0.818462,2.864616 0,1.155897 -0.373334,2.046154 -0.373333,0.890256 -1.098461,1.4 -0.725128,0.502564 -1.780513,0.502564 -1.601026,0 -2.426667,-1.076923 -0.825641,-1.076923 -0.825641,-2.857436 0,-1.163077 0.373334,-2.053334 0.373333,-0.897435 1.098461,-1.39282 0.732308,-0.502564 1.794872,-0.502564 z m 0,0.98359 q -0.97641,0 -1.478974,0.725128 -0.495385,0.725128 -0.495385,2.24 0,1.500513 0.488205,2.225641 0.495385,0.717949 1.471795,0.717949 0.97641,0 1.464615,-0.725129 0.495385,-0.725128 0.495385,-2.23282 0,-1.507693 -0.488205,-2.225641 -0.488205,-0.725128 -1.457436,-0.725128 z m 8.615391,-0.98359 q 1.601025,0 2.419487,1.069743 0.818461,1.069744 0.818461,2.864616 0,1.155897 -0.373333,2.046154 -0.373333,0.890256 -1.098461,1.4 -0.725129,0.502564 -1.780513,0.502564 -1.601026,0 -2.426667,-1.076923 -0.825641,-1.076923 -0.825641,-2.857436 0,-1.163077 0.373333,-2.053334 0.373334,-0.897435 1.098462,-1.39282 0.732308,-0.502564 1.794872,-0.502564 z m 0,0.98359 q -0.976411,0 -1.478975,0.725128 -0.495384,0.725128 -0.495384,2.24 0,1.500513 0.488205,2.225641 0.495384,0.717949 1.471795,0.717949 0.97641,0 1.464615,-0.725129 0.495385,-0.725128 0.495385,-2.23282 0,-1.507693 -0.488205,-2.225641 -0.488206,-0.725128 -1.457436,-0.725128 z m 11.738467,6.353846 q -0.387692,0.258461 -0.940512,0.402051 -0.552821,0.14359 -1.084103,0.14359 -1.220513,0 -1.881026,-0.638975 -0.660512,-0.638974 -0.660512,-1.644102 v -4.508718 h -1.737436 v -0.933333 h 1.737436 v -1.715898 l 1.206153,-0.14359 v 1.859488 h 2.613334 l -0.14359,0.933333 h -2.469744 v 4.494359 q 0,0.631795 0.330257,0.962051 0.337436,0.330257 1.11282,0.330257 0.42359,0 0.782564,-0.100513 0.358975,-0.100513 0.667693,-0.258462 z"
         id="text1"
         style="font-size:14px;font-family:'Fira Code';text-anchor:middle;fill:#b9dbfa"
         aria-label="root" />
    </g>
    <!-- root_0 -->
    <g
       id="node2"
       class="node">
      <title
         id="title2">root_0</title>
      <path
         fill="none"
         stroke="#486d8c"
         stroke-width="2"
         d="M98.48,-97.8C98.48,-97.8 88.88,-97.8 88.88,-97.8 84.08,-97.8 79.28,-93 79.28,-88.2 79.28,-88.2 79.28,-78.6 79.28,-78.6 79.28,-73.8 84.08,-69 88.88,-69 88.88,-69 98.48,-69 98.48,-69 103.28,-69 108.08,-73.8 108.08,-78.6 108.08,-78.6 108.08,-88.2 108.08,-88.2 108.08,-93 103.28,-97.8 98.48,-97.8"
         id="path2" />
      <path
         d="m 90.887177,-79.099998 v -0.926154 h 1.177436 v -5.707693 h -1.177436 v -0.926153 h 2.09641 l 0.222564,1.787692 q 0.437949,-0.933333 1.062564,-1.443077 0.624616,-0.509744 1.651282,-0.509744 0.315898,0 0.56,0.05026 0.251282,0.04308 0.509744,0.114872 l -0.172308,2.555897 h -0.990769 v -1.608205 q -0.02872,0 -0.06461,0 -1.737436,0 -2.491283,2.484102 v 3.202052 h 1.536411 v 0.926154 z"
         id="text2"
         style="font-size:14px;font-family:'Fira Code';text-anchor:middle;fill:#b9dbfa"
         aria-label="r" />
    </g>
    <!-- root&#45;&gt;root_0 -->
    <g
       id="edge1"
       class="edge">
      <title
         id="title3">root-&gt;root_0</title>
      <path
         fill="none"
         stroke="#b9dbfa"
         stroke-width="2"
         d="M50.92,-83.4C56.45,-83.4 62.31,-83.4 67.84,-83.4"
         id="path3" />
      <polygon
         fill="#b9dbfa"
         stroke="#b9dbfa"
         stroke-width="2"
         points="67.49,-86.2 75.49,-83.4 67.49,-80.6 67.49,-86.2"
         id="polygon3" />
    </g>
    <!-- root_0_1 -->
    <g
       id="node3"
       class="node">
      <title
         id="title4">root_0_1</title>
      <path
         fill="none"
         stroke="#486d8c"
         stroke-width="2"
         d="M156.28,-97.8C156.28,-97.8 146.68,-97.8 146.68,-97.8 141.88,-97.8 137.08,-93 137.08,-88.2 137.08,-88.2 137.08,-78.6 137.08,-78.6 137.08,-73.8 141.88,-69 146.68,-69 146.68,-69 156.28,-69 156.28,-69 161.08,-69 165.88,-73.8 165.88,-78.6 165.88,-78.6 165.88,-88.2 165.88,-88.2 165.88,-93 161.08,-97.8 156.28,-97.8"
         id="path4" />
      <path
         d="m 149.82153,-86.659998 v 5.355897 q 0,0.746667 0.30872,1.076923 0.30872,0.330256 0.96205,0.330256 0.62462,0 1.17744,-0.351794 0.56,-0.358975 0.86871,-0.84718 v -5.564102 h 1.20616 v 7.56 h -1.02667 l -0.10051,-1.019488 q -0.44513,0.574359 -1.10564,0.883077 -0.65334,0.301539 -1.31385,0.301539 -1.09846,0 -1.6441,-0.581539 -0.53846,-0.588718 -0.53846,-1.644102 v -5.499487 z"
         id="text4"
         style="font-size:14px;font-family:'Fira Code';text-anchor:middle;fill:#b9dbfa"
         aria-label="u" />
    </g>
    <!-- root_0&#45;&gt;root_0_1 -->
    <g
       id="edge2"
       class="edge">
      <title
         id="title5">root_0-&gt;root_0_1</title>
      <path
         fill="none"
         stroke="#b9dbfa"
         stroke-width="2"
         d="M109.05,-83.4C114.03,-83.4 119.78,-83.4 125.37,-83.4"
         id="path5" />
      <polygon
         fill="#b9dbfa"
         stroke="#b9dbfa"
         stroke-width="2"
         points="125.32,-86.2 133.32,-83.4 125.32,-80.6 125.32,-86.2"
         id="polygon5" />
    </g>
    <!-- root_0_1_2 -->
    <g
       id="node4"
       class="node">
      <title
         id="title6">root_0_1_2</title>
      <path
         fill="none"
         stroke="#486d8c"
         stroke-width="2"
         d="M214.08,-130.8C214.08,-130.8 204.48,-130.8 204.48,-130.8 199.68,-130.8 194.88,-126 194.88,-121.2 194.88,-121.2 194.88,-111.6 194.88,-111.6 194.88,-106.8 199.68,-102 204.48,-102 204.48,-102 214.08,-102 214.08,-102 218.88,-102 223.68,-106.8 223.68,-111.6 223.68,-111.6 223.68,-121.2 223.68,-121.2 223.68,-126 218.88,-130.8 214.08,-130.8"
         id="path6" />
      <path
         d="m 210.88102,-122.85487 q 0.61026,0 1.10564,0.10769 0.49539,0.10769 0.94052,0.30154 l -0.3877,0.89744 q -0.36615,-0.15795 -0.78256,-0.23693 -0.40923,-0.079 -0.84,-0.079 -1.58667,0 -1.58667,1.25641 v 1.53641 h 2.56308 l -0.12923,0.94769 h -2.43385 V -112.1 h -1.20615 v -6.02359 h -1.80205 v -0.94769 h 1.80205 v -1.50769 q 0,-0.70359 0.35897,-1.21334 0.36616,-0.50974 0.99077,-0.78256 0.62462,-0.28 1.40718,-0.28 z"
         id="text6"
         style="font-size:14px;font-family:'Fira Code';text-anchor:middle;fill:#b9dbfa"
         aria-label="f" />
    </g>
    <!-- root_0_1&#45;&gt;root_0_1_2 -->
    <g
       id="edge3"
       class="edge">
      <title
         id="title7">root_0_1-&gt;root_0_1_2</title>
      <path
         fill="none"
         stroke="#b9dbfa"
         stroke-width="2"
         d="M166.85,-91.9C172.36,-95.16 178.8,-98.96 184.93,-102.59"
         id="path7" />
      <polygon
         fill="#b9dbfa"
         stroke="#b9dbfa"
         stroke-width="2"
         points="183.24,-104.84 191.55,-106.5 186.09,-100.02 183.24,-104.84"
         id="polygon7" />
    </g>
    <!-- root_0_1_5 -->
    <g
       id="node8"
       class="node">
      <title
         id="title8">root_0_1_5</title>
      <path
         fill="none"
         stroke="#486d8c"
         stroke-width="2"
         d="M214.08,-76.8C214.08,-76.8 204.48,-76.8 204.48,-76.8 199.68,-76.8 194.88,-72 194.88,-67.2 194.88,-67.2 194.88,-57.6 194.88,-57.6 194.88,-52.8 199.68,-48 204.48,-48 204.48,-48 214.08,-48 214.08,-48 218.88,-48 223.68,-52.8 223.68,-57.6 223.68,-57.6 223.68,-67.2 223.68,-67.2 223.68,-72 218.88,-76.8 214.08,-76.8"
         id="path8" />
      <path
         d="m 212.41743,-58.480511 q -0.38769,0.258461 -0.94051,0.402051 -0.55282,0.14359 -1.0841,0.14359 -1.22052,0 -1.88103,-0.638975 -0.66051,-0.638974 -0.66051,-1.644102 v -4.508718 h -1.73744 v -0.933333 h 1.73744 v -1.715898 l 1.20615,-0.14359 v 1.859488 h 2.61333 l -0.14358,0.933333 h -2.46975 v 4.494359 q 0,0.631795 0.33026,0.962051 0.33743,0.330257 1.11282,0.330257 0.42359,0 0.78256,-0.100513 0.35898,-0.100513 0.66769,-0.258462 z"
         id="text8"
         style="font-size:14px;font-family:'Fira Code';text-anchor:middle;fill:#b9dbfa"
         aria-label="t" />
    </g>
    <!-- root_0_1&#45;&gt;root_0_1_5 -->
    <g
       id="edge7"
       class="edge">
      <title
         id="title9">root_0_1-&gt;root_0_1_5</title>
      <path
         fill="none"
         stroke="#b9dbfa"
         stroke-width="2"
         d="M166.85,-77.99C172.1,-76.02 178.19,-73.73 184.06,-71.52"
         id="path9" />
      <polygon
         fill="#b9dbfa"
         stroke="#b9dbfa"
         stroke-width="2"
         points="184.82,-74.22 191.32,-68.78 182.85,-68.98 184.82,-74.22"
         id="polygon9" />
    </g>
    <!-- root_0_1_2_3 -->
    <g
       id="node5"
       class="node">
      <title
         id="title10">root_0_1_2_3</title>
      <path
         fill="none"
         stroke="#486d8c"
         stroke-width="2"
         d="M271.88,-151.8C271.88,-151.8 262.28,-151.8 262.28,-151.8 257.48,-151.8 252.68,-147 252.68,-142.2 252.68,-142.2 252.68,-132.6 252.68,-132.6 252.68,-127.8 257.48,-123 262.28,-123 262.28,-123 271.88,-123 271.88,-123 276.68,-123 281.48,-127.8 281.48,-132.6 281.48,-132.6 281.48,-142.2 281.48,-142.2 281.48,-147 276.68,-151.8 271.88,-151.8"
         id="path10" />
      <path
         d="m 267.15896,-143.70411 v 8.73744 q 0,0.56 0.34461,0.79692 0.3518,0.22974 0.90462,0.22974 0.33743,0 0.64615,-0.0718 0.3159,-0.0718 0.62462,-0.19385 l 0.32307,0.88308 q -0.30871,0.15077 -0.7682,0.26564 -0.45231,0.12205 -1.02667,0.12205 -1.00513,0 -1.62974,-0.55282 -0.62462,-0.56 -0.62462,-1.54359 v -7.71795 h -2.31897 v -0.95487 z"
         id="text10"
         style="font-size:14px;font-family:'Fira Code';text-anchor:middle;fill:#b9dbfa"
         aria-label="l" />
    </g>
    <!-- root_0_1_2&#45;&gt;root_0_1_2_3 -->
    <g
       id="edge4"
       class="edge">
      <title
         id="title11">root_0_1_2-&gt;root_0_1_2_3</title>
      <path
         fill="none"
         stroke="#b9dbfa"
         stroke-width="2"
         d="M224.65,-121.81C229.9,-123.78 235.99,-126.07 241.86,-128.28"
         id="path11" />
      <polygon
         fill="#b9dbfa"
         stroke="#b9dbfa"
         stroke-width="2"
         points="240.65,-130.82 249.12,-131.02 242.62,-125.58 240.65,-130.82"
         id="polygon11" />
    </g>
    <!-- root_0_1_2_3_4 -->
    <g
       id="node6"
       class="node">
      <title
         id="title12">root_0_1_2_3_4</title>
      <path
         fill="none"
         stroke="#486d8c"
         stroke-width="2"
         d="M329.68,-157.8C329.68,-157.8 320.08,-157.8 320.08,-157.8 315.28,-157.8 310.48,-153 310.48,-148.2 310.48,-148.2 310.48,-138.6 310.48,-138.6 310.48,-133.8 315.28,-129 320.08,-129 320.08,-129 329.68,-129 329.68,-129 334.48,-129 339.28,-133.8 339.28,-138.6 339.28,-138.6 339.28,-148.2 339.28,-148.2 339.28,-153 334.48,-157.8 329.68,-157.8"
         id="path12" />
      <path
         d="m 325.5118,-142.91231 v 3.8123 h -1.26359 v -3.79794 l -3.33846,-6.08821 h 1.37846 l 2.62051,4.95385 2.64923,-4.95385 h 1.29231 z"
         id="text12"
         style="font-size:14px;font-family:'Fira Code';text-anchor:middle;fill:#b9dbfa"
         aria-label="Y" />
    </g>
    <!-- root_0_1_2_3&#45;&gt;root_0_1_2_3_4 -->
    <g
       id="edge5"
       class="edge">
      <title
         id="title13">root_0_1_2_3-&gt;root_0_1_2_3_4</title>
      <path
         fill="none"
         stroke="#b9dbfa"
         stroke-width="2"
         d="M282.45,-138.95C287.57,-139.5 293.48,-140.13 299.22,-140.75"
         id="path13" />
      <polygon
         fill="#b9dbfa"
         stroke="#b9dbfa"
         stroke-width="2"
         points="298.49,-143.49 306.74,-141.56 299.09,-137.92 298.49,-143.49"
         id="polygon13" />
    </g>
    <!-- root_0_1_2_3_4_val -->
    <g
       id="node7"
       class="node">
      <title
         id="title14">root_0_1_2_3_4_val</title>
      <polygon
         fill="none"
         stroke="#486d8c"
         stroke-width="2"
         points="534.11,-157.8 426.08,-157.8 426.08,-129 534.11,-129 534.11,-157.8"
         id="polygon14" />
      <path
         d="m 435.29279,-145.97078 -0.22974,-3.73333 h 1.51487 l -0.22256,3.73333 z m 2.39795,0 -0.21538,-3.73333 h 1.50769 l -0.22974,3.73333 z m 6.28924,-0.68923 v 5.3559 q 0,0.74667 0.30872,1.07692 0.30871,0.33026 0.96205,0.33026 0.62461,0 1.17743,-0.35179 0.56,-0.35898 0.86872,-0.84718 v -5.56411 h 1.20616 v 7.56 h -1.02667 l -0.10051,-1.01948 q -0.44513,0.57436 -1.10565,0.88307 -0.65333,0.30154 -1.31384,0.30154 -1.09846,0 -1.6441,-0.58154 -0.53847,-0.58871 -0.53847,-1.6441 v -5.49949 z m 7.48103,7.56 v -0.92615 h 1.17744 v -5.70769 h -1.17744 v -0.92616 h 2.09641 l 0.22256,1.7877 q 0.43795,-0.93334 1.06257,-1.44308 0.62461,-0.50974 1.65128,-0.50974 0.3159,0 0.56,0.0503 0.25128,0.0431 0.50974,0.11487 l -0.1723,2.5559 h -0.99077 v -1.6082 q -0.0287,0 -0.0646,0 -1.73743,0 -2.49128,2.4841 v 3.20205 h 1.53641 v 0.92615 z m 11.40821,-2.36205 q 0.49539,0 0.82564,0.33744 0.33744,0.33743 0.33744,0.81128 0,0.25846 -0.0646,0.5241 -0.0574,0.26564 -0.21538,0.60308 l -1.16308,2.66359 h -1.09128 l 0.68923,-2.8359 q -0.46667,-0.33743 -0.46667,-0.95487 0,-0.47385 0.33026,-0.81128 0.33026,-0.33744 0.81846,-0.33744 z m 8.61539,-8.73743 q 0.40205,0 0.63898,0.2441 0.2441,0.2441 0.2441,0.5959 0,0.36615 -0.2441,0.61743 -0.23693,0.24411 -0.63898,0.24411 -0.38051,0 -0.62461,-0.24411 -0.24411,-0.25128 -0.24411,-0.61743 0,-0.3518 0.24411,-0.5959 0.2441,-0.2441 0.62461,-0.2441 z m 0.96205,3.53948 v 6.60513 h 2.13231 v 0.95487 h -5.67179 v -0.95487 h 2.33333 v -5.65025 h -2.26154 v -0.95488 z m 7.65334,5.19795 q 0.49539,0 0.82564,0.33744 0.33744,0.33743 0.33744,0.81128 0,0.25846 -0.0646,0.5241 -0.0574,0.26564 -0.21538,0.60308 l -1.16308,2.66359 h -1.09128 l 0.68923,-2.8359 q -0.46666,-0.33743 -0.46666,-0.95487 0,-0.47385 0.33025,-0.81128 0.33026,-0.33744 0.81846,-0.33744 z m 8.61539,-8.73743 q 0.40206,0 0.63898,0.2441 0.2441,0.2441 0.2441,0.5959 0,0.36615 -0.2441,0.61743 -0.23692,0.24411 -0.63898,0.24411 -0.38051,0 -0.62461,-0.24411 -0.2441,-0.25128 -0.2441,-0.61743 0,-0.3518 0.2441,-0.5959 0.2441,-0.2441 0.62461,-0.2441 z m 0.96206,3.53948 v 6.60513 h 2.1323 v 0.95487 h -5.67179 v -0.95487 h 2.33333 v -5.65025 h -2.26154 v -0.95488 z m 7.65333,5.19795 q 0.49539,0 0.82565,0.33744 0.33743,0.33743 0.33743,0.81128 0,0.25846 -0.0646,0.5241 -0.0574,0.26564 -0.21539,0.60308 l -1.16308,2.66359 h -1.09128 l 0.68923,-2.8359 q -0.46666,-0.33743 -0.46666,-0.95487 0,-0.47385 0.33025,-0.81128 0.33026,-0.33744 0.81846,-0.33744 z m 11.16411,0.71077 q 0,0.45949 0.15077,0.66769 0.15077,0.20821 0.46667,0.30154 l -0.29436,0.84718 q -0.4882,-0.0646 -0.85436,-0.30872 -0.36615,-0.25128 -0.53128,-0.75384 -0.40923,0.5241 -1.02667,0.79692 -0.61025,0.26564 -1.34256,0.26564 -1.13436,0 -1.78769,-0.63897 -0.65334,-0.63898 -0.65334,-1.69436 0,-1.17026 0.9118,-1.79487 0.91179,-0.62462 2.63487,-0.62462 h 1.11282 v -0.63179 q 0,-0.81846 -0.48103,-1.1559 -0.47384,-0.34462 -1.32102,-0.34462 -0.37333,0 -0.8759,0.0933 -0.50256,0.0862 -1.09128,0.29436 l -0.3159,-0.9118 q 0.68923,-0.25846 1.29949,-0.36615 0.61743,-0.10769 1.17026,-0.10769 1.40717,0 2.11794,0.66051 0.71077,0.66051 0.71077,1.78051 z m -3.12307,0.89744 q 0.56,0 1.06256,-0.28 0.50974,-0.28718 0.84718,-0.78975 v -1.94564 h -1.09128 q -1.24923,0 -1.76616,0.43077 -0.50974,0.43077 -0.50974,1.1559 0,1.42872 1.45744,1.42872 z m 6.39692,0.75384 v -0.92615 h 1.17744 v -5.70769 h -1.17744 v -0.92616 h 2.09641 l 0.22257,1.7877 q 0.43794,-0.93334 1.06256,-1.44308 0.62462,-0.50974 1.65128,-0.50974 0.3159,0 0.56,0.0503 0.25128,0.0431 0.50975,0.11487 l -0.17231,2.5559 h -0.99077 v -1.6082 q -0.0287,0 -0.0646,0 -1.73743,0 -2.49128,2.4841 v 3.20205 h 1.53641 v 0.92615 z m 9.67796,-6.87077 -0.22974,-3.73333 h 1.51487 l -0.22257,3.73333 z m 2.39795,0 -0.21539,-3.73333 h 1.5077 l -0.22975,3.73333 z"
         id="text14"
         style="font-size:14px;font-family:'Fira Code';text-anchor:middle;fill:#b9dbfa"
         aria-label="&quot;ur,i,i,ar&quot;" />
    </g>
    <!-- root_0_1_2_3_4&#45;&gt;root_0_1_2_3_4_val -->
    <g
       id="edge6"
       class="edge">
      <title
         id="title15">root_0_1_2_3_4-&gt;root_0_1_2_3_4_val</title>
      <path
         fill="none"
         stroke="#b9dbfa"
         stroke-width="2"
         d="M340.02,-143.4C357.02,-143.4 386.73,-143.4 414.34,-143.4"
         id="path15" />
      <polygon
         fill="#b9dbfa"
         stroke="#b9dbfa"
         stroke-width="2"
         points="414.16,-146.2 422.16,-143.4 414.16,-140.6 414.16,-146.2"
         id="polygon15" />
    </g>
    <!-- root_0_1_5_6 -->
    <g
       id="node9"
       class="node">
      <title
         id="title16">root_0_1_5_6</title>
      <path
         fill="none"
         stroke="#486d8c"
         stroke-width="2"
         d="M271.88,-76.8C271.88,-76.8 262.28,-76.8 262.28,-76.8 257.48,-76.8 252.68,-72 252.68,-67.2 252.68,-67.2 252.68,-57.6 252.68,-57.6 252.68,-52.8 257.48,-48 262.28,-48 262.28,-48 271.88,-48 271.88,-48 276.68,-48 281.48,-52.8 281.48,-57.6 281.48,-57.6 281.48,-67.2 281.48,-67.2 281.48,-72 276.68,-76.8 271.88,-76.8"
         id="path16" />
      <path
         d="m 265.42152,-65.659998 v 5.355897 q 0,0.746667 0.30872,1.076923 0.30872,0.330256 0.96205,0.330256 0.62462,0 1.17744,-0.351794 0.56,-0.358975 0.86872,-0.84718 v -5.564102 h 1.20615 v 7.56 h -1.02667 l -0.10051,-1.019488 q -0.44513,0.574359 -1.10564,0.883077 -0.65333,0.301539 -1.31385,0.301539 -1.09846,0 -1.6441,-0.581539 -0.53846,-0.588718 -0.53846,-1.644102 v -5.499487 z m 2.85744,-3.884103 0.56,1.033846 -3.00103,1.220513 -0.37333,-0.646154 z"
         id="text16"
         style="font-size:14px;font-family:'Fira Code';text-anchor:middle;fill:#b9dbfa"
         aria-label="ú" />
    </g>
    <!-- root_0_1_5&#45;&gt;root_0_1_5_6 -->
    <g
       id="edge8"
       class="edge">
      <title
         id="title17">root_0_1_5-&gt;root_0_1_5_6</title>
      <path
         fill="none"
         stroke="#b9dbfa"
         stroke-width="2"
         d="M224.65,-62.4C229.63,-62.4 235.38,-62.4 240.97,-62.4"
         id="path17" />
      <polygon
         fill="#b9dbfa"
         stroke="#b9dbfa"
         stroke-width="2"
         points="240.92,-65.2 248.92,-62.4 240.92,-59.6 240.92,-65.2"
         id="polygon17" />
    </g>
    <!-- root_0_1_5_11 -->
    <g
       id="node16"
       class="node">
      <title
         id="title18">root_0_1_5_11</title>
      <path
         fill="none"
         stroke="#486d8c"
         stroke-width="2"
         d="M271.88,-33.8C271.88,-33.8 262.28,-33.8 262.28,-33.8 257.48,-33.8 252.68,-29 252.68,-24.2 252.68,-24.2 252.68,-14.6 252.68,-14.6 252.68,-9.8 257.48,-5 262.28,-5 262.28,-5 271.88,-5 271.88,-5 276.68,-5 281.48,-9.8 281.48,-14.6 281.48,-14.6 281.48,-24.2 281.48,-24.2 281.48,-29 276.68,-33.8 271.88,-33.8"
         id="path18" />
      <path
         d="m 268.68101,-25.854872 q 0.61026,0 1.10564,0.107692 0.49538,0.107692 0.94051,0.301539 l -0.38769,0.897435 q -0.36615,-0.157948 -0.78256,-0.236923 -0.40923,-0.07897 -0.84,-0.07897 -1.58667,0 -1.58667,1.25641 v 1.536411 h 2.56308 l -0.12923,0.947692 h -2.43385 V -15.1 h -1.20615 v -6.02359 h -1.80206 v -0.947692 h 1.80206 v -1.507693 q 0,-0.703589 0.35897,-1.213333 0.36615,-0.509744 0.99077,-0.782564 0.62462,-0.28 1.40718,-0.28 z"
         id="text18"
         style="font-size:14px;font-family:'Fira Code';text-anchor:middle;fill:#b9dbfa"
         aria-label="f" />
    </g>
    <!-- root_0_1_5&#45;&gt;root_0_1_5_11 -->
    <g
       id="edge15"
       class="edge">
      <title
         id="title19">root_0_1_5-&gt;root_0_1_5_11</title>
      <path
         fill="none"
         stroke="#b9dbfa"
         stroke-width="2"
         d="M224.65,-51.33C230.42,-46.88 237.21,-41.64 243.61,-36.72"
         id="path19" />
      <polygon
         fill="#b9dbfa"
         stroke="#b9dbfa"
         stroke-width="2"
         points="244.93,-39.24 249.55,-32.13 241.51,-34.8 244.93,-39.24"
         id="polygon19" />
    </g>
    <!-- root_0_1_5_6_7 -->
    <g
       id="node10"
       class="node">
      <title
         id="title20">root_0_1_5_6_7</title>
      <path
         fill="none"
         stroke="#486d8c"
         stroke-width="2"
         d="M329.68,-114.8C329.68,-114.8 320.08,-114.8 320.08,-114.8 315.28,-114.8 310.48,-110 310.48,-105.2 310.48,-105.2 310.48,-95.6 310.48,-95.6 310.48,-90.8 315.28,-86 320.08,-86 320.08,-86 329.68,-86 329.68,-86 334.48,-86 339.28,-90.8 339.28,-95.6 339.28,-95.6 339.28,-105.2 339.28,-105.2 339.28,-110 334.48,-114.8 329.68,-114.8"
         id="path20" />
      <path
         d="M 322.01539,-96.099998 V -103.66 h 1.02666 l 0.0933,1.04821 q 0.45948,-0.58154 1.14871,-0.89026 0.68924,-0.3159 1.34975,-0.3159 1.11282,0 1.61538,0.58872 0.50975,0.58872 0.50975,1.63692 v 5.492312 h -1.20616 v -4.602052 q 0,-0.77538 -0.0861,-1.24923 -0.0862,-0.47385 -0.36616,-0.69641 -0.27282,-0.22256 -0.84,-0.22256 -0.44512,0 -0.84,0.19384 -0.38769,0.19385 -0.69641,0.48821 -0.30153,0.28718 -0.50256,0.58153 v 5.506672 z"
         id="text20"
         style="font-size:14px;font-family:'Fira Code';text-anchor:middle;fill:#b9dbfa"
         aria-label="n" />
    </g>
    <!-- root_0_1_5_6&#45;&gt;root_0_1_5_6_7 -->
    <g
       id="edge9"
       class="edge">
      <title
         id="title21">root_0_1_5_6-&gt;root_0_1_5_6_7</title>
      <path
         fill="none"
         stroke="#b9dbfa"
         stroke-width="2"
         d="M282.45,-72.19C288.09,-76.03 294.71,-80.53 300.97,-84.8"
         id="path21" />
      <polygon
         fill="#b9dbfa"
         stroke="#b9dbfa"
         stroke-width="2"
         points="299.06,-86.89 307.25,-89.07 302.21,-82.26 299.06,-86.89"
         id="polygon21" />
    </g>
    <!-- root_0_1_5_6_9 -->
    <g
       id="node13"
       class="node">
      <title
         id="title22">root_0_1_5_6_9</title>
      <path
         fill="none"
         stroke="#486d8c"
         stroke-width="2"
         d="M329.68,-71.8C329.68,-71.8 320.08,-71.8 320.08,-71.8 315.28,-71.8 310.48,-67 310.48,-62.2 310.48,-62.2 310.48,-52.6 310.48,-52.6 310.48,-47.8 315.28,-43 320.08,-43 320.08,-43 329.68,-43 329.68,-43 334.48,-43 339.28,-47.8 339.28,-52.6 339.28,-52.6 339.28,-62.2 339.28,-62.2 339.28,-67 334.48,-71.8 329.68,-71.8"
         id="path22" />
      <path
         d="m 322.08718,-53.099998 v -0.926154 h 1.17744 v -5.707693 h -1.17744 v -0.926153 h 2.09641 l 0.22257,1.787692 q 0.43794,-0.933333 1.06256,-1.443077 0.62462,-0.509744 1.65128,-0.509744 0.3159,0 0.56,0.05026 0.25128,0.04308 0.50975,0.114872 l -0.17231,2.555897 h -0.99077 v -1.608205 q -0.0287,0 -0.0646,0 -1.73743,0 -2.49128,2.484102 v 3.202052 h 1.53641 v 0.926154 z"
         id="text22"
         style="font-size:14px;font-family:'Fira Code';text-anchor:middle;fill:#b9dbfa"
         aria-label="r" />
    </g>
    <!-- root_0_1_5_6&#45;&gt;root_0_1_5_6_9 -->
    <g
       id="edge12"
       class="edge">
      <title
         id="title23">root_0_1_5_6-&gt;root_0_1_5_6_9</title>
      <path
         fill="none"
         stroke="#b9dbfa"
         stroke-width="2"
         d="M282.45,-61.11C287.43,-60.67 293.18,-60.15 298.77,-59.65"
         id="path23" />
      <polygon
         fill="#b9dbfa"
         stroke="#b9dbfa"
         stroke-width="2"
         points="299.02,-62.44 306.74,-58.94 298.52,-56.86 299.02,-62.44"
         id="polygon23" />
    </g>
    <!-- root_0_1_5_6_7_8 -->
    <g
       id="node11"
       class="node">
      <title
         id="title24">root_0_1_5_6_7_8</title>
      <path
         fill="none"
         stroke="#486d8c"
         stroke-width="2"
         d="M387.48,-114.8C387.48,-114.8 377.88,-114.8 377.88,-114.8 373.08,-114.8 368.28,-110 368.28,-105.2 368.28,-105.2 368.28,-95.6 368.28,-95.6 368.28,-90.8 373.08,-86 377.88,-86 377.88,-86 387.48,-86 387.48,-86 392.28,-86 397.08,-90.8 397.08,-95.6 397.08,-95.6 397.08,-105.2 397.08,-105.2 397.08,-110 392.28,-114.8 387.48,-114.8"
         id="path24" />
      <path
         d="m 381.12204,-96.099998 h -1.24205 v -9.886152 h 1.24205 z m 0.0718,-5.276922 3.89128,-4.60923 h 1.4359 l -3.86257,4.53025 4.13539,5.355902 h -1.55077 z"
         id="text24"
         style="font-size:14px;font-family:'Fira Code';text-anchor:middle;fill:#b9dbfa"
         aria-label="K" />
    </g>
    <!-- root_0_1_5_6_7&#45;&gt;root_0_1_5_6_7_8 -->
    <g
       id="edge10"
       class="edge">
      <title
         id="title25">root_0_1_5_6_7-&gt;root_0_1_5_6_7_8</title>
      <path
         fill="none"
         stroke="#b9dbfa"
         stroke-width="2"
         d="M340.25,-100.4C345.23,-100.4 350.98,-100.4 356.57,-100.4"
         id="path25" />
      <polygon
         fill="#b9dbfa"
         stroke="#b9dbfa"
         stroke-width="2"
         points="356.52,-103.2 364.52,-100.4 356.52,-97.6 356.52,-103.2"
         id="polygon25" />
    </g>
    <!-- root_0_1_5_6_7_8_val -->
    <g
       id="node12"
       class="node">
      <title
         id="title26">root_0_1_5_6_7_8_val</title>
      <polygon
         fill="none"
         stroke="#486d8c"
         stroke-width="2"
         points="525.86,-114.8 434.33,-114.8 434.33,-86 525.86,-86 525.86,-114.8"
         id="polygon26" />
      <path
         d="m 443.90818,-102.97077 -0.22974,-3.73333 h 1.51487 l -0.22256,3.73333 z m 2.39795,0 -0.21538,-3.73333 h 1.50769 l -0.22974,3.73333 z m 6.28924,-0.68923 v 5.355899 q 0,0.746667 0.30872,1.076923 0.30872,0.330256 0.96205,0.330256 0.62461,0 1.17743,-0.351794 0.56,-0.358975 0.86872,-0.84718 V -103.66 h 1.20616 v 7.560002 h -1.02667 l -0.10051,-1.019488 q -0.44513,0.574359 -1.10564,0.883077 -0.65334,0.301539 -1.31385,0.301539 -1.09846,0 -1.6441,-0.581539 -0.53846,-0.588718 -0.53846,-1.644102 V -103.66 Z m 7.48103,7.560002 v -0.926154 h 1.17744 v -5.707688 H 460.0764 V -103.66 h 2.09641 l 0.22257,1.78769 q 0.43794,-0.93333 1.06256,-1.44307 0.62461,-0.50975 1.65128,-0.50975 0.3159,0 0.56,0.0503 0.25128,0.0431 0.50975,0.11487 l -0.17231,2.5559 h -0.99077 v -1.60821 q -0.0287,0 -0.0646,0 -1.73743,0 -2.49128,2.48411 v 3.202048 h 1.53641 v 0.926154 z m 11.40821,-2.362052 q 0.49539,0 0.82564,0.337436 0.33744,0.337436 0.33744,0.811282 0,0.258462 -0.0646,0.524103 -0.0574,0.265641 -0.21538,0.603077 l -1.16308,2.663589 h -1.09128 l 0.68923,-2.835897 q -0.46667,-0.337436 -0.46667,-0.954872 0,-0.473846 0.33026,-0.811282 0.33026,-0.337436 0.81846,-0.337436 z m 8.61539,0 q 0.49539,0 0.82564,0.337436 0.33744,0.337436 0.33744,0.811282 0,0.258462 -0.0646,0.524103 -0.0574,0.265641 -0.21538,0.603077 l -1.16308,2.663589 h -1.09128 l 0.68923,-2.835897 q -0.46666,-0.337436 -0.46666,-0.954872 0,-0.473846 0.33025,-0.811282 0.33026,-0.337436 0.81846,-0.337436 z m 8.61539,-8.73744 q 0.40206,0 0.63898,0.24411 0.2441,0.2441 0.2441,0.59589 0,0.36616 -0.2441,0.61744 -0.23692,0.2441 -0.63898,0.2441 -0.38051,0 -0.62461,-0.2441 -0.2441,-0.25128 -0.2441,-0.61744 0,-0.35179 0.2441,-0.59589 0.2441,-0.24411 0.62461,-0.24411 z m 0.96206,3.53949 v 6.60513 h 2.1323 v 0.954872 h -5.67179 v -0.954872 h 2.33333 v -5.65026 h -2.26154 V -103.66 Z m 7.65333,5.19795 q 0.49539,0 0.82565,0.337436 0.33743,0.337436 0.33743,0.811282 0,0.258462 -0.0646,0.524103 -0.0574,0.265641 -0.21539,0.603077 l -1.16308,2.663589 h -1.09128 l 0.68923,-2.835897 q -0.46666,-0.337436 -0.46666,-0.954872 0,-0.473846 0.33025,-0.811282 0.33026,-0.337436 0.81846,-0.337436 z m 8.32104,1.529231 q 0.87589,0 1.37846,-0.323077 0.50256,-0.323077 0.50256,-0.875897 0,-0.337436 -0.12923,-0.588718 -0.12205,-0.251282 -0.50974,-0.452308 -0.38769,-0.208205 -1.1918,-0.409231 -0.78256,-0.193846 -1.3641,-0.44513 -0.57436,-0.25846 -0.89744,-0.66769 -0.31589,-0.40923 -0.31589,-1.06256 0,-0.95488 0.79692,-1.5077 0.79692,-0.55282 2.07487,-0.55282 0.9118,0 1.58667,0.24411 0.68205,0.2441 1.1559,0.58871 l -0.53129,0.81846 q -0.42359,-0.29435 -0.94769,-0.48102 -0.51692,-0.19385 -1.24923,-0.19385 -0.89026,0 -1.26359,0.28 -0.37333,0.27282 -0.37333,0.71077 0,0.33744 0.17948,0.56 0.18667,0.21539 0.62462,0.38769 0.43795,0.17231 1.20615,0.38052 0.73949,0.20102 1.29231,0.47384 0.55282,0.272824 0.85436,0.717952 0.30872,0.437949 0.30872,1.141539 0,0.804102 -0.45949,1.306666 -0.45949,0.495385 -1.19179,0.725129 -0.72513,0.222564 -1.53641,0.222564 -1.02667,0 -1.7518,-0.294359 -0.71795,-0.301539 -1.20615,-0.725128 l 0.68923,-0.796924 q 0.44513,0.366154 1.01949,0.595898 0.58153,0.222564 1.24923,0.222564 z m 7.17949,-6.037951 -0.22974,-3.73333 h 1.51487 l -0.22257,3.73333 z m 2.39795,0 -0.21539,-3.73333 h 1.5077 l -0.22975,3.73333 z"
         id="text26"
         style="font-size:14px;font-family:'Fira Code';text-anchor:middle;fill:#b9dbfa"
         aria-label="&quot;ur,,i,s&quot;" />
    </g>
    <!-- root_0_1_5_6_7_8&#45;&gt;root_0_1_5_6_7_8_val -->
    <g
       id="edge11"
       class="edge">
      <title
         id="title27">root_0_1_5_6_7_8-&gt;root_0_1_5_6_7_8_val</title>
      <path
         fill="none"
         stroke="#b9dbfa"
         stroke-width="2"
         d="M397.76,-100.4C404.61,-100.4 413.36,-100.4 422.55,-100.4"
         id="path27" />
      <polygon
         fill="#b9dbfa"
         stroke="#b9dbfa"
         stroke-width="2"
         points="422.44,-103.2 430.44,-100.4 422.44,-97.6 422.44,-103.2"
         id="polygon27" />
    </g>
    <!-- root_0_1_5_6_9_10 -->
    <g
       id="node14"
       class="node">
      <title
         id="title28">root_0_1_5_6_9_10</title>
      <path
         fill="none"
         stroke="#486d8c"
         stroke-width="2"
         d="M387.48,-71.8C387.48,-71.8 377.88,-71.8 377.88,-71.8 373.08,-71.8 368.28,-67 368.28,-62.2 368.28,-62.2 368.28,-52.6 368.28,-52.6 368.28,-47.8 373.08,-43 377.88,-43 377.88,-43 387.48,-43 387.48,-43 392.28,-43 397.08,-47.8 397.08,-52.6 397.08,-52.6 397.08,-62.2 397.08,-62.2 397.08,-67 392.28,-71.8 387.48,-71.8"
         id="path28" />
      <path
         d="m 384.54666,-53.099998 v -4.688206 h -3.73334 v 4.688206 h -1.24205 v -9.886154 h 1.24205 v 4.178461 h 3.73334 v -4.178461 h 1.24205 v 9.886154 z"
         id="text28"
         style="font-size:14px;font-family:'Fira Code';text-anchor:middle;fill:#b9dbfa"
         aria-label="H" />
    </g>
    <!-- root_0_1_5_6_9&#45;&gt;root_0_1_5_6_9_10 -->
    <g
       id="edge13"
       class="edge">
      <title
         id="title29">root_0_1_5_6_9-&gt;root_0_1_5_6_9_10</title>
      <path
         fill="none"
         stroke="#b9dbfa"
         stroke-width="2"
         d="M340.25,-57.4C345.23,-57.4 350.98,-57.4 356.57,-57.4"
         id="path29" />
      <polygon
         fill="#b9dbfa"
         stroke="#b9dbfa"
         stroke-width="2"
         points="356.52,-60.2 364.52,-57.4 356.52,-54.6 356.52,-60.2"
         id="polygon29" />
    </g>
    <!-- root_0_1_5_6_9_10_val -->
    <g
       id="node15"
       class="node">
      <title
         id="title30">root_0_1_5_6_9_10_val</title>
      <polygon
         fill="none"
         stroke="#486d8c"
         stroke-width="2"
         points="525.86,-71.8 434.33,-71.8 434.33,-43 525.86,-43 525.86,-71.8"
         id="polygon30" />
      <path
         d="m 443.90818,-59.970768 -0.22974,-3.733333 h 1.51487 l -0.22256,3.733333 z m 2.39795,0 -0.21538,-3.733333 h 1.50769 l -0.22974,3.733333 z m 6.28924,-0.68923 v 5.355897 q 0,0.746667 0.30872,1.076923 0.30872,0.330256 0.96205,0.330256 0.62461,0 1.17743,-0.351794 0.56,-0.358975 0.86872,-0.84718 v -5.564102 h 1.20616 v 7.56 h -1.02667 l -0.10051,-1.019488 q -0.44513,0.574359 -1.10564,0.883077 -0.65334,0.301539 -1.31385,0.301539 -1.09846,0 -1.6441,-0.581539 -0.53846,-0.588718 -0.53846,-1.644102 v -5.499487 z m 7.48103,7.56 v -0.926154 h 1.17744 v -5.707693 h -1.17744 v -0.926153 h 2.09641 l 0.22257,1.787692 q 0.43794,-0.933333 1.06256,-1.443077 0.62461,-0.509744 1.65128,-0.509744 0.3159,0 0.56,0.05026 0.25128,0.04308 0.50975,0.114872 l -0.17231,2.555897 h -0.99077 v -1.608205 q -0.0287,0 -0.0646,0 -1.73743,0 -2.49128,2.484102 v 3.202052 h 1.53641 v 0.926154 z m 11.40821,-2.362052 q 0.49539,0 0.82564,0.337436 0.33744,0.337436 0.33744,0.811282 0,0.258462 -0.0646,0.524103 -0.0574,0.265641 -0.21538,0.603077 l -1.16308,2.663589 h -1.09128 l 0.68923,-2.835897 q -0.46667,-0.337436 -0.46667,-0.954872 0,-0.473846 0.33026,-0.811282 0.33026,-0.337436 0.81846,-0.337436 z m 8.61539,0 q 0.49539,0 0.82564,0.337436 0.33744,0.337436 0.33744,0.811282 0,0.258462 -0.0646,0.524103 -0.0574,0.265641 -0.21538,0.603077 l -1.16308,2.663589 h -1.09128 l 0.68923,-2.835897 q -0.46666,-0.337436 -0.46666,-0.954872 0,-0.473846 0.33025,-0.811282 0.33026,-0.337436 0.81846,-0.337436 z m 8.61539,-8.737436 q 0.40206,0 0.63898,0.244103 0.2441,0.244102 0.2441,0.595897 0,0.366154 -0.2441,0.617436 -0.23692,0.244103 -0.63898,0.244103 -0.38051,0 -0.62461,-0.244103 -0.2441,-0.251282 -0.2441,-0.617436 0,-0.351795 0.2441,-0.595897 0.2441,-0.244103 0.62461,-0.244103 z m 0.96206,3.539488 v 6.605128 h 2.1323 v 0.954872 h -5.67179 v -0.954872 h 2.33333 v -5.650257 h -2.26154 v -0.954871 z m 7.65333,5.197948 q 0.49539,0 0.82565,0.337436 0.33743,0.337436 0.33743,0.811282 0,0.258462 -0.0646,0.524103 -0.0574,0.265641 -0.21539,0.603077 l -1.16308,2.663589 h -1.09128 l 0.68923,-2.835897 q -0.46666,-0.337436 -0.46666,-0.954872 0,-0.473846 0.33025,-0.811282 0.33026,-0.337436 0.81846,-0.337436 z m 8.32104,1.529231 q 0.87589,0 1.37846,-0.323077 0.50256,-0.323077 0.50256,-0.875897 0,-0.337436 -0.12923,-0.588718 -0.12205,-0.251282 -0.50974,-0.452308 -0.38769,-0.208205 -1.1918,-0.409231 -0.78256,-0.193846 -1.3641,-0.445128 -0.57436,-0.258461 -0.89744,-0.667692 -0.31589,-0.409231 -0.31589,-1.062564 0,-0.954872 0.79692,-1.507693 0.79692,-0.55282 2.07487,-0.55282 0.9118,0 1.58667,0.244102 0.68205,0.244103 1.1559,0.588718 l -0.53129,0.818462 q -0.42359,-0.294359 -0.94769,-0.481026 -0.51692,-0.193846 -1.24923,-0.193846 -0.89026,0 -1.26359,0.28 -0.37333,0.272821 -0.37333,0.710769 0,0.337436 0.17948,0.56 0.18667,0.215385 0.62462,0.387693 0.43795,0.172307 1.20615,0.380512 0.73949,0.201026 1.29231,0.473847 0.55282,0.27282 0.85436,0.717948 0.30872,0.437949 0.30872,1.141539 0,0.804102 -0.45949,1.306666 -0.45949,0.495385 -1.19179,0.725129 -0.72513,0.222564 -1.53641,0.222564 -1.02667,0 -1.7518,-0.294359 -0.71795,-0.301539 -1.20615,-0.725128 l 0.68923,-0.796924 q 0.44513,0.366154 1.01949,0.595898 0.58153,0.222564 1.24923,0.222564 z m 7.17949,-6.037949 -0.22974,-3.733333 h 1.51487 l -0.22257,3.733333 z m 2.39795,0 -0.21539,-3.733333 h 1.5077 l -0.22975,3.733333 z"
         id="text30"
         style="font-size:14px;font-family:'Fira Code';text-anchor:middle;fill:#b9dbfa"
         aria-label="&quot;ur,,i,s&quot;" />
    </g>
    <!-- root_0_1_5_6_9_10&#45;&gt;root_0_1_5_6_9_10_val -->
    <g
       id="edge14"
       class="edge">
      <title
         id="title31">root_0_1_5_6_9_10-&gt;root_0_1_5_6_9_10_val</title>
      <path
         fill="none"
         stroke="#b9dbfa"
         stroke-width="2"
         d="M397.76,-57.4C404.61,-57.4 413.36,-57.4 422.55,-57.4"
         id="path31" />
      <polygon
         fill="#b9dbfa"
         stroke="#b9dbfa"
         stroke-width="2"
         points="422.44,-60.2 430.44,-57.4 422.44,-54.6 422.44,-60.2"
         id="polygon31" />
    </g>
    <!-- root_0_1_5_11_12 -->
    <g
       id="node17"
       class="node">
      <title
         id="title32">root_0_1_5_11_12</title>
      <path
         fill="none"
         stroke="#486d8c"
         stroke-width="2"
         d="M329.68,-28.8C329.68,-28.8 320.08,-28.8 320.08,-28.8 315.28,-28.8 310.48,-24 310.48,-19.2 310.48,-19.2 310.48,-9.6 310.48,-9.6 310.48,-4.8 315.28,0 320.08,0 320.08,0 329.68,0 329.68,0 334.48,0 339.28,-4.8 339.28,-9.6 339.28,-9.6 339.28,-19.2 339.28,-19.2 339.28,-24 334.48,-28.8 329.68,-28.8"
         id="path32" />
      <path
         d="m 324.89436,-17.817949 q 1.60103,0 2.41949,1.069743 0.81846,1.069744 0.81846,2.864616 0,1.155897 -0.37333,2.046154 -0.37334,0.890256 -1.09847,1.4 -0.72512,0.5025638 -1.78051,0.5025638 -1.60102,0 -2.42666,-1.0769228 -0.82565,-1.076923 -0.82565,-2.857436 0,-1.163077 0.37334,-2.053333 0.37333,-0.897436 1.09846,-1.392821 0.73231,-0.502564 1.79487,-0.502564 z m 0,0.98359 q -0.97641,0 -1.47897,0.725128 -0.49539,0.725128 -0.49539,2.24 0,1.500513 0.48821,2.225641 0.49538,0.717949 1.47179,0.717949 0.97641,0 1.46462,-0.725129 0.49538,-0.725128 0.49538,-2.23282 0,-1.507692 -0.4882,-2.225641 -0.48821,-0.725128 -1.45744,-0.725128 z"
         id="text32"
         style="font-size:14px;font-family:'Fira Code';text-anchor:middle;fill:#b9dbfa"
         aria-label="o" />
    </g>
    <!-- root_0_1_5_11&#45;&gt;root_0_1_5_11_12 -->
    <g
       id="edge16"
       class="edge">
      <title
         id="title33">root_0_1_5_11-&gt;root_0_1_5_11_12</title>
      <path
         fill="none"
         stroke="#b9dbfa"
         stroke-width="2"
         d="M282.45,-18.11C287.43,-17.67 293.18,-17.15 298.77,-16.65"
         id="path33" />
      <polygon
         fill="#b9dbfa"
         stroke="#b9dbfa"
         stroke-width="2"
         points="299.02,-19.44 306.74,-15.94 298.52,-13.86 299.02,-19.44"
         id="polygon33" />
    </g>
    <!-- root_0_1_5_11_12_13 -->
    <g
       id="node18"
       class="node">
      <title
         id="title34">root_0_1_5_11_12_13</title>
      <path
         fill="none"
         stroke="#486d8c"
         stroke-width="2"
         d="M387.48,-28.8C387.48,-28.8 377.88,-28.8 377.88,-28.8 373.08,-28.8 368.28,-24 368.28,-19.2 368.28,-19.2 368.28,-9.6 368.28,-9.6 368.28,-4.8 373.08,0 377.88,0 377.88,0 387.48,0 387.48,0 392.28,0 397.08,-4.8 397.08,-9.6 397.08,-9.6 397.08,-19.2 397.08,-19.2 397.08,-24 392.28,-28.8 387.48,-28.8"
         id="path34" />
      <path
         d="m 380.31794,-10.1 v -9.886154 h 1.24923 v 8.773333 h 4.50872 L 385.9323,-10.1 Z"
         id="text34"
         style="font-size:14px;font-family:'Fira Code';text-anchor:middle;fill:#b9dbfa"
         aria-label="L" />
    </g>
    <!-- root_0_1_5_11_12&#45;&gt;root_0_1_5_11_12_13 -->
    <g
       id="edge17"
       class="edge">
      <title
         id="title35">root_0_1_5_11_12-&gt;root_0_1_5_11_12_13</title>
      <path
         fill="none"
         stroke="#b9dbfa"
         stroke-width="2"
         d="M340.25,-14.4C345.23,-14.4 350.98,-14.4 356.57,-14.4"
         id="path35" />
      <polygon
         fill="#b9dbfa"
         stroke="#b9dbfa"
         stroke-width="2"
         points="356.52,-17.2 364.52,-14.4 356.52,-11.6 356.52,-17.2"
         id="polygon35" />
    </g>
    <!-- root_0_1_5_11_12_13_val -->
    <g
       id="node19"
       class="node">
      <title
         id="title36">root_0_1_5_11_12_13_val</title>
      <polygon
         fill="none"
         stroke="#486d8c"
         stroke-width="2"
         points="525.86,-28.8 434.33,-28.8 434.33,0 525.86,0 525.86,-28.8"
         id="polygon36" />
      <path
         d="m 443.90818,-16.97077 -0.22974,-3.733333 h 1.51487 l -0.22256,3.733333 z m 2.39795,0 -0.21538,-3.733333 h 1.50769 l -0.22974,3.733333 z m 6.28924,-0.68923 v 5.355897 q 0,0.746667 0.30872,1.076923 0.30872,0.330257 0.96205,0.330257 0.62461,0 1.17743,-0.351795 0.56,-0.358975 0.86872,-0.84718 V -17.66 h 1.20616 v 7.56 h -1.02667 l -0.10051,-1.019488 q -0.44513,0.574359 -1.10564,0.883077 -0.65334,0.3015388 -1.31385,0.3015388 -1.09846,0 -1.6441,-0.5815388 -0.53846,-0.588718 -0.53846,-1.644102 V -17.66 Z m 7.48103,7.56 v -0.926154 h 1.17744 v -5.707693 H 460.0764 V -17.66 h 2.09641 l 0.22257,1.787692 q 0.43794,-0.933333 1.06256,-1.443077 0.62461,-0.509744 1.65128,-0.509744 0.3159,0 0.56,0.05026 0.25128,0.04308 0.50975,0.114872 l -0.17231,2.555897 h -0.99077 v -1.608205 q -0.0287,0 -0.0646,0 -1.73743,0 -2.49128,2.484102 v 3.202052 h 1.53641 V -10.1 Z m 11.40821,-2.362052 q 0.49539,0 0.82564,0.337436 0.33744,0.337436 0.33744,0.811282 0,0.258462 -0.0646,0.524103 -0.0574,0.265641 -0.21538,0.603077 l -1.16308,2.6635895 h -1.09128 l 0.68923,-2.8358975 q -0.46667,-0.337436 -0.46667,-0.954872 0,-0.473846 0.33026,-0.811282 0.33026,-0.337436 0.81846,-0.337436 z m 8.61539,0 q 0.49539,0 0.82564,0.337436 0.33744,0.337436 0.33744,0.811282 0,0.258462 -0.0646,0.524103 -0.0574,0.265641 -0.21538,0.603077 L 479.82,-7.5225645 h -1.09128 l 0.68923,-2.8358975 q -0.46666,-0.337436 -0.46666,-0.954872 0,-0.473846 0.33025,-0.811282 0.33026,-0.337436 0.81846,-0.337436 z m 8.61539,-8.737436 q 0.40206,0 0.63898,0.244103 0.2441,0.244103 0.2441,0.595897 0,0.366154 -0.2441,0.617436 -0.23692,0.244103 -0.63898,0.244103 -0.38051,0 -0.62461,-0.244103 -0.2441,-0.251282 -0.2441,-0.617436 0,-0.351794 0.2441,-0.595897 0.2441,-0.244103 0.62461,-0.244103 z m 0.96206,3.539488 v 6.605128 h 2.1323 V -10.1 h -5.67179 v -0.954872 h 2.33333 v -5.650257 h -2.26154 V -17.66 Z m 7.65333,5.197948 q 0.49539,0 0.82565,0.337436 0.33743,0.337436 0.33743,0.811282 0,0.258462 -0.0646,0.524103 -0.0574,0.265641 -0.21539,0.603077 l -1.16308,2.6635895 h -1.09128 l 0.68923,-2.8358975 q -0.46666,-0.337436 -0.46666,-0.954872 0,-0.473846 0.33025,-0.811282 0.33026,-0.337436 0.81846,-0.337436 z m 8.32104,1.529231 q 0.87589,0 1.37846,-0.323077 0.50256,-0.323077 0.50256,-0.875897 0,-0.337436 -0.12923,-0.588718 -0.12205,-0.251282 -0.50974,-0.452308 -0.38769,-0.208205 -1.1918,-0.409231 -0.78256,-0.193846 -1.3641,-0.445128 -0.57436,-0.258461 -0.89744,-0.667692 -0.31589,-0.409231 -0.31589,-1.062564 0,-0.954872 0.79692,-1.507693 0.79692,-0.55282 2.07487,-0.55282 0.9118,0 1.58667,0.244102 0.68205,0.244103 1.1559,0.588718 l -0.53129,0.818462 q -0.42359,-0.294359 -0.94769,-0.481026 -0.51692,-0.193846 -1.24923,-0.193846 -0.89026,0 -1.26359,0.28 -0.37333,0.272821 -0.37333,0.710769 0,0.337436 0.17948,0.56 0.18667,0.215385 0.62462,0.387693 0.43795,0.172307 1.20615,0.380513 0.73949,0.201025 1.29231,0.473846 0.55282,0.27282 0.85436,0.717948 0.30872,0.437949 0.30872,1.141539 0,0.804102 -0.45949,1.306667 -0.45949,0.495384 -1.19179,0.725128 -0.72513,0.2225638 -1.53641,0.2225638 -1.02667,0 -1.7518,-0.2943588 -0.71795,-0.301539 -1.20615,-0.725128 l 0.68923,-0.796923 q 0.44513,0.366153 1.01949,0.595897 0.58153,0.222564 1.24923,0.222564 z m 7.17949,-6.037949 -0.22974,-3.733333 h 1.51487 l -0.22257,3.733333 z m 2.39795,0 -0.21539,-3.733333 h 1.5077 l -0.22975,3.733333 z"
         id="text36"
         style="font-size:14px;font-family:'Fira Code';text-anchor:middle;fill:#b9dbfa"
         aria-label="&quot;ur,,i,s&quot;" />
    </g>
    <!-- root_0_1_5_11_12_13&#45;&gt;root_0_1_5_11_12_13_val -->
    <g
       id="edge18"
       class="edge">
      <title
         id="title37">root_0_1_5_11_12_13-&gt;root_0_1_5_11_12_13_val</title>
      <path
         fill="none"
         stroke="#b9dbfa"
         stroke-width="2"
         d="M397.76,-14.4C404.61,-14.4 413.36,-14.4 422.55,-14.4"
         id="path37" />
      <polygon
         fill="#b9dbfa"
         stroke="#b9dbfa"
         stroke-width="2"
         points="422.44,-17.2 430.44,-14.4 422.44,-11.6 422.44,-17.2"
         id="polygon37" />
    </g>
  </g>
</svg>
