<?xml version="1.0" encoding="UTF-8" standalone="no"?>
<!DOCTYPE svg PUBLIC "-//W3C//DTD SVG 1.1//EN"
 "http://www.w3.org/Graphics/SVG/1.1/DTD/svg11.dtd">
<!-- Generated by graphviz version 13.1.0 (20250701.0955)
 -->
<!-- Pages: 1 -->
<svg width="415pt" height="102pt"
 viewBox="0.00 0.00 415.00 102.00" xmlns="http://www.w3.org/2000/svg" xmlns:xlink="http://www.w3.org/1999/xlink">
<g id="graph0" class="graph" transform="scale(1 1) rotate(0) translate(4 98)">
<!-- root -->
<g id="node1" class="node">
<title>root</title>
<path fill="none" stroke="#486d8c" stroke-width="2" d="M42.6,-65C42.6,-65 12,-65 12,-65 6,-65 0,-59 0,-53 0,-53 0,-41 0,-41 0,-35 6,-29 12,-29 12,-29 42.6,-29 42.6,-29 48.6,-29 54.6,-35 54.6,-41 54.6,-41 54.6,-53 54.6,-53 54.6,-59 48.6,-65 42.6,-65"/>
<text xml:space="preserve" text-anchor="middle" x="27.3" y="-42.33" font-family="monospace" font-size="14.00" fill="#b9dbfa">root</text>
</g>
<!-- root_0 -->
<g id="node2" class="node">
<title>root_0</title>
<path fill="none" stroke="#486d8c" stroke-width="2" d="M107.6,-65C107.6,-65 95.6,-65 95.6,-65 89.6,-65 83.6,-59 83.6,-53 83.6,-53 83.6,-41 83.6,-41 83.6,-35 89.6,-29 95.6,-29 95.6,-29 107.6,-29 107.6,-29 113.6,-29 119.6,-35 119.6,-41 119.6,-41 119.6,-53 119.6,-53 119.6,-59 113.6,-65 107.6,-65"/>
<text xml:space="preserve" text-anchor="middle" x="101.6" y="-42.33" font-family="monospace" font-size="14.00" fill="#b9dbfa">r</text>
</g>
<!-- root&#45;&gt;root_0 -->
<g id="edge1" class="edge">
<title>root&#45;&gt;root_0</title>
<path fill="none" stroke="#b9dbfa" stroke-width="2" d="M55.22,-47C60.66,-47 66.39,-47 71.88,-47"/>
<polygon fill="#b9dbfa" stroke="#b9dbfa" stroke-width="2" points="71.63,-49.8 79.63,-47 71.63,-44.2 71.63,-49.8"/>
</g>
<!-- root_0_1 -->
<g id="node3" class="node">
<title>root_0_1</title>
<path fill="none" stroke="#486d8c" stroke-width="2" d="M172.6,-65C172.6,-65 160.6,-65 160.6,-65 154.6,-65 148.6,-59 148.6,-53 148.6,-53 148.6,-41 148.6,-41 148.6,-35 154.6,-29 160.6,-29 160.6,-29 172.6,-29 172.6,-29 178.6,-29 184.6,-35 184.6,-41 184.6,-41 184.6,-53 184.6,-53 184.6,-59 178.6,-65 172.6,-65"/>
<text xml:space="preserve" text-anchor="middle" x="166.6" y="-42.33" font-family="monospace" font-size="14.00" fill="#b9dbfa">u</text>
</g>
<!-- root_0&#45;&gt;root_0_1 -->
<g id="edge2" class="edge">
<title>root_0&#45;&gt;root_0_1</title>
<path fill="none" stroke="#b9dbfa" stroke-width="2" d="M120.48,-47C125.72,-47 131.57,-47 137.28,-47"/>
<polygon fill="#b9dbfa" stroke="#b9dbfa" stroke-width="2" points="136.86,-49.8 144.86,-47 136.86,-44.2 136.86,-49.8"/>
</g>
<!-- root_0_1_2 -->
<g id="node4" class="node">
<title>root_0_1_2</title>
<path fill="none" stroke="#486d8c" stroke-width="2" d="M237.6,-94C237.6,-94 225.6,-94 225.6,-94 219.6,-94 213.6,-88 213.6,-82 213.6,-82 213.6,-70 213.6,-70 213.6,-64 219.6,-58 225.6,-58 225.6,-58 237.6,-58 237.6,-58 243.6,-58 249.6,-64 249.6,-70 249.6,-70 249.6,-82 249.6,-82 249.6,-88 243.6,-94 237.6,-94"/>
<text xml:space="preserve" text-anchor="middle" x="231.6" y="-71.33" font-family="monospace" font-size="14.00" fill="#b9dbfa">f</text>
</g>
<!-- root_0_1&#45;&gt;root_0_1_2 -->
<g id="edge3" class="edge">
<title>root_0_1&#45;&gt;root_0_1_2</title>
<path fill="none" stroke="#b9dbfa" stroke-width="2" d="M185.48,-55.23C190.98,-57.76 197.17,-60.61 203.16,-63.37"/>
<polygon fill="#b9dbfa" stroke="#b9dbfa" stroke-width="2" points="201.7,-65.78 210.14,-66.58 204.04,-60.69 201.7,-65.78"/>
</g>
<!-- root_0_1_3 -->
<g id="node6" class="node">
<title>root_0_1_3</title>
<path fill="none" stroke="#486d8c" stroke-width="2" d="M237.6,-36C237.6,-36 225.6,-36 225.6,-36 219.6,-36 213.6,-30 213.6,-24 213.6,-24 213.6,-12 213.6,-12 213.6,-6 219.6,0 225.6,0 225.6,0 237.6,0 237.6,0 243.6,0 249.6,-6 249.6,-12 249.6,-12 249.6,-24 249.6,-24 249.6,-30 243.6,-36 237.6,-36"/>
<text xml:space="preserve" text-anchor="middle" x="231.6" y="-13.32" font-family="monospace" font-size="14.00" fill="#b9dbfa">t</text>
</g>
<!-- root_0_1&#45;&gt;root_0_1_3 -->
<g id="edge5" class="edge">
<title>root_0_1&#45;&gt;root_0_1_3</title>
<path fill="none" stroke="#b9dbfa" stroke-width="2" d="M185.48,-38.77C190.98,-36.24 197.17,-33.39 203.16,-30.63"/>
<polygon fill="#b9dbfa" stroke="#b9dbfa" stroke-width="2" points="204.04,-33.31 210.14,-27.42 201.7,-28.22 204.04,-33.31"/>
</g>
<!-- root_0_1_2_val -->
<g id="node5" class="node">
<title>root_0_1_2_val</title>
<polygon fill="none" stroke="#486d8c" stroke-width="2" points="407.45,-94 278.6,-94 278.6,-58 407.45,-58 407.45,-94"/>
<text xml:space="preserve" text-anchor="middle" x="343.03" y="-71.33" font-family="monospace" font-size="14.00" fill="#b9dbfa">&quot;2;ur,i,i,ar&quot;</text>
</g>
<!-- root_0_1_2&#45;&gt;root_0_1_2_val -->
<g id="edge4" class="edge">
<title>root_0_1_2&#45;&gt;root_0_1_2_val</title>
<path fill="none" stroke="#b9dbfa" stroke-width="2" d="M250.18,-76C255.21,-76 261.04,-76 267.26,-76"/>
<polygon fill="#b9dbfa" stroke="#b9dbfa" stroke-width="2" points="267.03,-78.8 275.03,-76 267.03,-73.2 267.03,-78.8"/>
</g>
<!-- root_0_1_3_val -->
<g id="node7" class="node">
<title>root_0_1_3_val</title>
<polygon fill="none" stroke="#486d8c" stroke-width="2" points="399.2,-36 286.85,-36 286.85,0 399.2,0 399.2,-36"/>
<text xml:space="preserve" text-anchor="middle" x="343.03" y="-13.32" font-family="monospace" font-size="14.00" fill="#b9dbfa">&quot;2;ur,,i,s&quot;</text>
</g>
<!-- root_0_1_3&#45;&gt;root_0_1_3_val -->
<g id="edge6" class="edge">
<title>root_0_1_3&#45;&gt;root_0_1_3_val</title>
<path fill="none" stroke="#b9dbfa" stroke-width="2" d="M250.18,-18C257.3,-18 266.01,-18 275.2,-18"/>
<polygon fill="#b9dbfa" stroke="#b9dbfa" stroke-width="2" points="275.12,-20.8 283.12,-18 275.12,-15.2 275.12,-20.8"/>
</g>
</g>
</svg>
